<svg fill="none" viewBox="0 0 24 24">
  <g clip-path="url(#prefix__a)">
    <path fill="#F5AC37" d="M12 24c6.627 0 12-5.373 12-12S18.627 0 12 0 0 5.373 0 12s5.373 12 12 12"/>
    <path fill="#FEFEFD" d="M16.236 12.756c.087 0 .128 0 .134-.114q.05-.622 0-1.244c0-.081-.04-.114-.127-.114H8.145c-.1 0-.127.033-.127.127v1.191c0 .154 0 .154.16.154zm-.32-2.864a.13.13 0 0 0 0-.094 2.7 2.7 0 0 0-.242-.421 3.4 3.4 0 0 0-.496-.623 1.6 1.6 0 0 0-.308-.301 4.8 4.8 0 0 0-2.007-1.017 5 5 0 0 0-1.138-.12H8.13c-.1 0-.114.04-.114.126v2.376c0 .1 0 .127.128.127h7.722s.067-.013.08-.053h-.031Zm0 4.256a1.6 1.6 0 0 0-.343 0H8.152c-.1 0-.134 0-.134.134v2.322c0 .107 0 .134.134.134h3.426q.247.019.489-.033a5.1 5.1 0 0 0 1.452-.321q.256-.09.488-.228h.047a4.35 4.35 0 0 0 1.867-1.88s.047-.102-.005-.128m-9.243 3.795v-3.701c0-.087 0-.1-.107-.1H5.114c-.08 0-.114 0-.114-.107v-1.272h1.553c.086 0 .12 0 .12-.114v-1.258c0-.08 0-.1-.107-.1H5.114c-.08 0-.114 0-.114-.107v-1.178c0-.073 0-.093.107-.093h1.439c.1 0 .127 0 .127-.127V6.178c0-.107 0-.134.134-.134h5.019q.547.022 1.084.121c.738.136 1.447.4 2.095.776a6 6 0 0 1 1.178.91q.397.414.716.89.316.484.522 1.024a.174.174 0 0 0 .2.141h1.198c.154 0 .154 0 .16.148v1.097c0 .107-.04.134-.147.134h-.924c-.093 0-.12 0-.113.12a7 7 0 0 1 0 1.225c0 .114 0 .127.127.127h1.057c.047.06 0 .12 0 .181q.01.118 0 .234v.81c0 .114-.033.148-.134.148H17.58a.167.167 0 0 0-.194.127 5.35 5.35 0 0 1-1.405 2.048 8 8 0 0 1-.716.575c-.268.154-.529.315-.804.442a7.2 7.2 0 0 1-1.58.502 8 8 0 0 1-1.565.127H6.67v-.007l.002-.001Z"/>
  </g>
  <defs>
    <clipPath id="prefix__a">
      <path fill="#fff" d="M0 0h24v24H0z"/>
    </clipPath>
  </defs>
</svg>
