<svg fill="none" viewBox="0 0 24 24">
  <g clip-path="url(#prefix__a)">
    <path fill="#A6A8A9" d="M12 24c6.627 0 12-5.373 12-12S18.627 0 12 0 0 5.373 0 12s5.373 12 12 12"/>
    <path fill="#fff" d="M10.763 6.102c-.68 1.156-1.241 2.112-1.25 2.125l-.013.024.276.173 2.072 1.292.154.096.146-.091 2.35-1.468c.003-.002-.158-.281-.357-.62L12.89 5.51c-.486-.83-.886-1.51-.888-1.51l-1.238 2.102Z"/>
    <path fill="#fff" d="M9.505 8.76c0 .003 2.485 3.56 2.493 3.568.004.004.303-.42 1.254-1.781L14.5 8.758l-1.249.777c-.685.428-1.25.777-1.253.776zm-5.029 5.616h2.285v.584H5.108v.826h1.556v.583H5.108v.827h1.653v.583H4.476zm2.914 0h1.556q.23 0 .423.083a1 1 0 0 1 .336.233q.146.15.228.365.083.209.083.461 0 .249-.083.448a1.02 1.02 0 0 1-.535.559q-.18.077-.379.087l1.094 1.167h-.802l-1.094-1.167h-.194v1.167H7.39zm1.532 1.653q.093 0 .175-.039a.5.5 0 0 0 .146-.107.54.54 0 0 0 .102-.578.52.52 0 0 0-.248-.282.4.4 0 0 0-.175-.04h-.9v1.046zm3.208 1.799q-.345 0-.646-.127a1.6 1.6 0 0 1-.525-.364 1.8 1.8 0 0 1-.355-.555 1.9 1.9 0 0 1-.126-.704 1.75 1.75 0 0 1 .481-1.259q.224-.234.525-.36.301-.132.647-.131.375 0 .646.13a1.53 1.53 0 0 1 .744.72q.102.214.14.39h-.655a1 1 0 0 0-.107-.21.9.9 0 0 0-.175-.204.8.8 0 0 0-.258-.156.8.8 0 0 0-.335-.063 1 1 0 0 0-.409.083.9.9 0 0 0-.32.228 1 1 0 0 0-.214.36q-.078.209-.078.472 0 .262.078.476.077.21.213.36a1 1 0 0 0 .321.228 1.06 1.06 0 0 0 .744.02.9.9 0 0 0 .433-.37 1.3 1.3 0 0 0 .107-.228h.656a2 2 0 0 1-.068.228 1.4 1.4 0 0 1-.127.272 1.5 1.5 0 0 1-.199.277 1.4 1.4 0 0 1-.661.423q-.21.064-.476.064Zm1.971-.608 1.385-1.337q.044-.044.083-.087a.4.4 0 0 0 .117-.214.6.6 0 0 0-.015-.35.4.4 0 0 0-.102-.151.47.47 0 0 0-.35-.146.5.5 0 0 0-.379.165.6.6 0 0 0-.117.185.7.7 0 0 0-.039.233h-.631q0-.263.087-.48.088-.225.238-.38.156-.156.37-.243t.471-.087q.262 0 .472.082.213.082.36.229a1 1 0 0 1 .228.345 1.13 1.13 0 0 1 .034.748 1 1 0 0 1-.127.243 1.3 1.3 0 0 1-.17.21l-.19.184-.801.778v.024h1.385v.608h-2.309zm4.134.608a1.3 1.3 0 0 1-.55-.117 1.3 1.3 0 0 1-.447-.34 1.7 1.7 0 0 1-.301-.55 2.3 2.3 0 0 1-.112-.744q0-.417.112-.743.112-.325.301-.55a1.3 1.3 0 0 1 .447-.34q.258-.117.55-.117.291 0 .549.117.257.117.447.34.19.225.301.55.112.325.112.744 0 .417-.112.743-.112.325-.3.55a1.3 1.3 0 0 1-.448.34 1.3 1.3 0 0 1-.55.117Zm0-.608a.67.67 0 0 0 .544-.277q.107-.145.17-.36.063-.213.063-.505t-.063-.506a1.1 1.1 0 0 0-.17-.355.7.7 0 0 0-.248-.214.675.675 0 0 0-.84.214 1.1 1.1 0 0 0-.171.355 1.8 1.8 0 0 0-.063.506q0 .291.063.505t.17.36a.67.67 0 0 0 .544.277Z"/>
  </g>
  <defs>
    <clipPath id="prefix__a">
      <path fill="#fff" d="M0 0h24v24H0z"/>
    </clipPath>
  </defs>
</svg>
