<svg xmlns="http://www.w3.org/2000/svg" width="360" height="280" viewBox="0 0 360 280">
    <defs>
        <radialGradient id="a" fx="50%" fy="50%">
            <stop offset="0%" stop-color="#D8D9DA"/>
            <stop offset="9%" stop-color="#D8D9DA" stop-opacity=".96"/>
            <stop offset="24%" stop-color="#D8D9DA" stop-opacity=".85"/>
            <stop offset="43%" stop-color="#D8D9DA" stop-opacity=".67"/>
            <stop offset="65%" stop-color="#D8D9DA" stop-opacity=".42"/>
            <stop offset="90%" stop-color="#D8D9DA" stop-opacity=".1"/>
            <stop offset="97%" stop-color="#D8D9DA" stop-opacity="0"/>
        </radialGradient>
    </defs>
    <g fill="none" fill-rule="evenodd">
        <path fill="#AAD197" fill-rule="nonzero" d="M261.048 44.785l1.357.823-83.002 136.798-1.358-.823z"/>
        <rect width="28.803" height="28.803" x="271.264" y="153.319" fill="#C6E2BA" fill-rule="nonzero" rx="5"/>
        <rect width="28.803" height="28.803" x="37.189" y="127.145" fill="#C6E2BA" fill-rule="nonzero" rx="5"/>
        <circle cx="85.424" cy="173.009" r="36.024" fill="#D8D9DA" fill-rule="nonzero"/>
        <circle cx="172.088" cy="191.036" r="36.024" fill="#D8D9DA" fill-rule="nonzero"/>
        <rect width="28.803" height="28.803" x="115.927" y="155.946" fill="#BEBDC0" fill-rule="nonzero" rx="5"/>
        <path fill="#F9C447" fill-rule="nonzero" d="M173.098 53.928c-49.132 0-88.962 39.83-88.962 88.962 0 49.133 39.83 88.963 88.962 88.963 49.132 0 88.962-39.83 88.962-88.963 0-49.132-39.83-88.962-88.962-88.962zm0 .794c48.694 0 88.168 39.474 88.168 88.168 0 48.694-39.474 88.169-88.168 88.169-48.694 0-88.168-39.475-88.168-88.169 0-48.694 39.474-88.168 88.168-88.168z"/>
        <circle cx="197.477" cy="131.583" r="66.274" fill="url(#a)" fill-rule="nonzero"/>
        <circle cx="255.934" cy="95.749" r="32.012" fill="#8FCB7F" fill-rule="nonzero"/>
        <path fill="#F9C447" fill-rule="nonzero" d="M220.225 98.555c-8.306 0-15.04 6.734-15.04 15.04 0 8.307 6.734 15.04 15.04 15.04 8.307 0 15.04-6.733 15.04-15.04 0-8.306-6.733-15.04-15.04-15.04zm0 1.985c7.211 0 13.056 5.845 13.056 13.055 0 7.211-5.845 13.056-13.056 13.056-7.21 0-13.055-5.845-13.055-13.056 0-7.21 5.845-13.055 13.055-13.055z"/>
        <circle cx="128.256" cy="105.8" r="17.328" fill="#D8D9DA" fill-rule="nonzero"/>
        <circle cx="224.484" cy="177.849" r="17.328" fill="#C6E2BA" fill-rule="nonzero"/>
        <circle cx="194.909" cy="185.168" r="22.822" fill="#8FCB7F" fill-rule="nonzero"/>
        <circle cx="107.773" cy="130.671" r="9.728" fill="#C6E2BA" fill-rule="nonzero"/>
        <circle cx="67.198" cy="128.328" r="15.606" fill="#AAD197" fill-rule="nonzero"/>
        <circle cx="22.488" cy="119.624" r="21.484" fill="#8EC377" fill-rule="nonzero"/>
        <circle cx="85.424" cy="203.415" r="27.36" fill="#8FCB7F" fill-rule="nonzero"/>
        <circle cx="246.001" cy="158.669" r="9.728" fill="#C6E2BA" fill-rule="nonzero"/>
        <circle cx="264.751" cy="145.571" r="15.606" fill="#AAD197" fill-rule="nonzero"/>
        <circle cx="296.032" cy="141.547" r="21.484" fill="#8EC377" fill-rule="nonzero"/>
        <circle cx="331.632" cy="136.867" r="27.36" fill="#73B756" fill-rule="nonzero"/>
        <g fill-rule="nonzero">
            <path fill="#73B756" d="M119.522 118.706h120v50h-120z"/>
            <path fill="#FFF" d="M172.077 141.717h-2.745v3.088h2.745c1.03 0 1.714-.62 1.714-1.588 0-.883-.684-1.5-1.714-1.5zM136.676 136.022c0-1.715-1.508-3.086-3.43-3.086-1.92 0-3.43 1.371-3.43 3.086v2.127h6.86v-2.127zM127.347 150.979l5.9 2.744 5.9-2.744v-9.194h-11.8zM213.104 141.51c-2.334 0-3.911 1.715-3.911 4.323 0 2.538 1.587 4.322 3.911 4.322s3.969-1.786 3.969-4.322-1.637-4.322-3.969-4.322zM229.5 141.717h-2.743v3.088h2.743c1.03 0 1.716-.62 1.716-1.588 0-.883-.686-1.5-1.716-1.5z"/>
            <path fill="#FFF" d="M108 124v39.413c0 5.523 4.477 10 10 10h123.043c5.523 0 10-4.477 10-10V124c0-5.523-4.477-10-10-10H118c-5.523 0-10 4.477-10 10zm35.125 29.45l-9.878 4.596-9.88-4.597v-15.3h2.88v-2.127c0-3.636 3.158-6.654 7-6.654 3.841 0 6.997 3.018 6.997 6.654v2.197h2.881v15.23zm20.44-11.665h-4.248v11.732h-3.97v-11.732h-4.195v-3.636h12.417l-.004 3.636zm10.086 11.732l-2.8-5.146h-1.51v5.146h-3.988v-15.298h7.204c3.155 0 5.283 1.984 5.283 5.076 0 2.538-1.508 3.979-2.95 4.528l3.363 5.694h-4.602zm17.151-11.8h-7.13v2.265h6.928v3.498h-6.928v2.469h7.134v3.572h-11.113v-15.372h11.113l-.004 3.568zm13.654-.48l-6.38 8.644h6.38v3.636h-11.729v-3.088l6.38-8.644h-6.38v-3.636h11.733l-.004 3.088zm8.644 12.486c-4.596 0-7.958-3.361-7.958-7.89s3.292-7.89 7.958-7.89c4.665 0 8.027 3.361 8.027 7.89s-3.427 7.89-8.023 7.89h-.004zm17.975-.198l-2.814-5.146h-1.508v5.146h-3.98v-15.306h7.215c3.157 0 5.283 1.984 5.283 5.076 0 2.538-1.509 3.979-2.95 4.528l3.362 5.694-4.608.008z"/>
        </g>
        <circle cx="86.688" cy="91.073" r="41.267" fill="#FFF" fill-rule="nonzero" transform="rotate(-45 86.688 91.073)"/>
        <path fill="#C6E2BA" fill-rule="nonzero" d="M86.689 50.989c20.507.02 37.666 15.57 39.7 35.976 2.032 20.407-11.721 39.036-31.821 43.102-20.1 4.066-40.014-7.753-46.072-27.345s3.708-40.588 22.595-48.578a39.816 39.816 0 0 1 15.598-3.155m0-2.381c-23.45 0-42.468 19.007-42.468 42.467 0 23.46 19.01 42.468 42.468 42.468 23.458 0 42.458-19.01 42.458-42.468 0-23.458-19.01-42.467-42.458-42.467z"/>
        <circle cx="57.638" cy="62.33" r="7.005" fill="#AAD69C" fill-rule="nonzero"/>
        <circle cx="256.512" cy="196.076" r="33.514" fill="#FFF" fill-rule="nonzero" transform="rotate(-45 256.512 196.076)"/>
        <path fill="#C6E2BA" fill-rule="nonzero" d="M256.512 163.753c15.421-.003 28.697 10.888 31.709 26.013 3.011 15.125-5.08 30.27-19.327 36.175-14.247 5.904-30.68.922-39.25-11.899-8.57-12.82-6.89-29.91 4.012-40.817a32.103 32.103 0 0 1 22.856-9.468m0-2.381a34.705 34.705 0 1 0 34.704 34.704c0-19.167-15.538-34.704-34.704-34.704z"/>
        <circle cx="229.675" cy="180.466" r="7.083" fill="#AAD69C" fill-rule="nonzero"/>
        <circle cx="224.484" cy="84.715" r="10.462" fill="#C6E2BA" fill-rule="nonzero"/>
        <g stroke="#F9C447" stroke-width="1.588" transform="translate(122.507 36.049)">
            <circle cx="21.259" cy="21.281" r="10.569"/>
            <path d="M32.551 32.551l3.374 3.374M6.64 6.64l3.371 3.371M32.551 10.011l3.374-3.371M6.64 35.925l3.371-3.374M35.887 27.663l4.37 1.909M2.306 12.99l4.371 1.909M27.663 6.677l1.909-4.371M12.99 40.257l1.909-4.37M27.096 36.121l1.74 4.441M13.726 2l1.741 4.441M36.121 15.467l4.441-1.741M2 28.836l4.441-1.74M37.221 21.281h4.768M.573 21.281h4.771M21.281 5.344V.573M21.281 41.989v-4.768"/>
        </g>
        <path fill="#F9C447" fill-rule="nonzero" d="M115.927 179.673c-6.276 0-11.363 5.087-11.363 11.363 0 6.275 5.087 11.363 11.363 11.363s11.363-5.088 11.363-11.363c0-6.276-5.087-11.363-11.363-11.363zm0 1.587c5.399 0 9.776 4.377 9.776 9.776s-4.377 9.775-9.776 9.775-9.775-4.376-9.775-9.775c0-5.4 4.376-9.776 9.775-9.776zM9.158 94.384a6.95 6.95 0 1 0 0 13.899 6.95 6.95 0 0 0 0-13.9zm0 1.587a5.362 5.362 0 1 1 0 10.724 5.362 5.362 0 0 1 0-10.724z"/>
        <circle cx="104" cy="225.393" r="6.612" fill="#F9C447" fill-rule="nonzero"/>
        <circle cx="197.477" cy="111.391" r="6.612" fill="#F9C447" fill-rule="nonzero"/>
        <circle cx="252.145" cy="137.814" r="6.612" fill="#F9C447" fill-rule="nonzero"/>
        <path fill="#F9C447" fill-rule="nonzero" d="M277.045 62.906l1.72 7.077 6.899 2.331-6.198 3.824-.087 7.281-5.553-4.713-6.951 2.167 2.766-6.735-4.21-5.943 7.262.55z"/>
        <circle cx="280.673" cy="124.939" r="9.865" fill="#FFE7AA" fill-rule="nonzero"/>
        <circle cx="280.794" cy="124.939" r="5.983" fill="#F9C447" fill-rule="nonzero"/>
        <path fill="#FFF" fill-rule="nonzero" d="M280.792 121.178l3.762 3.762-3.762 3.762-3.762-3.762z"/>
        <path fill="#F9C447" fill-rule="nonzero" d="M128.31 226.033c-.598 1.927 8.731 6.183 21.287 10.088l1.735.532c11.739 3.532 20.945 5.072 21.517 3.235.578-1.86-8.072-5.88-19.992-9.68l-1.294-.408c-12.555-3.906-22.653-5.693-23.252-3.767zm.759.236c.126-.406 2.512-.395 6.242.243l.333.057c4.222.748 9.814 2.163 15.683 3.989l.425.133c5.776 1.812 11.074 3.79 14.886 5.54l.61.284c3.164 1.5 4.963 2.751 4.843 3.137-.13.419-2.655.394-6.575-.3-4.054-.717-9.369-2.05-14.98-3.771l-.704-.218c-5.87-1.825-11.277-3.832-15.178-5.611l-.606-.281c-3.248-1.53-5.102-2.808-4.98-3.202z"/>
        <path fill="#F9C447" fill-rule="nonzero" d="M142.681 211.026c-2.344.846-.46 11.098 3.964 23.363l.465 1.271c4.31 11.615 9.132 20.06 11.394 19.244 2.318-.836.503-10.861-3.81-22.936l-.462-1.277c-4.349-11.832-9.26-20.49-11.55-19.665zm.27.747c1.604-.579 6.676 8.481 10.843 20.037l.294.823c3.961 11.214 5.713 20.96 4.147 21.524-1.585.571-6.556-8.267-10.694-19.626l-.443-1.235c-3.961-11.214-5.713-20.958-4.147-21.523z"/>
        <path fill="#F9C447" fill-rule="nonzero" d="M147.76 229.003l-.732.528c-10.157 7.386-17.018 14.743-15.397 17.006 1.66 2.317 11.235-2.064 21.792-9.625l.732-.528c10.157-7.386 17.018-14.743 15.397-17.006-1.66-2.317-11.236 2.064-21.793 9.625zm.461.645l.707-.502c9.763-6.88 18.793-10.96 19.978-9.306 1.214 1.695-5.915 9.243-15.945 16.426l-.707.503c-9.762 6.88-18.793 10.96-19.978 9.306-1.213-1.695 5.916-9.244 15.945-16.427z"/>
        <circle cx="150.584" cy="232.978" r="14.034" fill="#8FCB7F" fill-rule="nonzero"/>
        <path fill="#F9C447" fill-rule="nonzero" d="M128.316 226.047l.758.236c-.13.419 1.962 1.831 5.585 3.484l.964.431c3.804 1.669 8.813 3.502 14.214 5.183 5.633 1.753 11.012 3.128 15.17 3.896l.513.093c3.808.674 6.3.717 6.559.335l.017-.035.758.236c-.593 1.904-10.47.18-22.816-3.632l-1.74-.545c-11.75-3.747-20.35-7.725-19.999-9.614l.017-.068z"/>
        <path fill="#F9C447" fill-rule="nonzero" d="M142.674 211.037c2.345-.846 7.437 8.25 11.86 20.516l.304.853c4.153 11.743 5.906 21.453 3.738 22.477l-.08.034-.27-.747c1.567-.564-.185-10.31-4.146-21.524l-.293-.824c-4.117-11.419-9.118-20.401-10.785-20.055l-.058.017-.27-.747z"/>
        <path fill="#F9C447" fill-rule="nonzero" d="M147.76 229.021l.734-.522c10.135-7.15 19.213-11.265 20.992-9.178l.061.078-.645.462c-1.214-1.695-10.657 2.625-20.68 9.806l-1.064.77c-9.348 6.861-15.89 13.85-14.923 15.594l.04.063-.646.462c-1.659-2.316 5.573-9.97 16.13-17.535zM200.051 53.046l-.332 2.055c-2.57 16.287-2.941 28.807-.341 29.239 2.63.436 6.365-11.773 9.211-28.32l.256-1.514.252-1.545c2.643-16.535 3.05-29.313.422-29.749-2.603-.432-6.289 11.525-9.124 27.814l-.344 2.02zm1.258-.3l.28-1.631c1.23-7.029 2.69-13.503 4.133-18.41l.167-.56c1.48-4.907 2.93-7.842 3.435-7.758.514.085.939 3.4.74 8.617-.216 5.676-1.06 13.271-2.393 21.307l-.083.495c-1.332 7.928-2.971 15.263-4.58 20.6l-.206.672c-1.406 4.503-2.748 7.167-3.23 7.087-.513-.085-.937-3.4-.74-8.617.21-5.48 1.004-12.75 2.258-20.477l.219-1.325z"/>
        <circle cx="204.451" cy="53.775" r="18.601" fill="#8FCB7F" fill-rule="nonzero"/>
        <path fill="#F9C447" fill-rule="nonzero" d="M209.521 23.206c2.711.45 2.196 14.027-.673 31.294l-.261 1.544c-2.814 16.343-6.503 28.471-9.125 28.3l-.081-.01.194-1.175c.514.085 1.985-2.914 3.482-7.917 1.571-5.251 3.167-12.387 4.477-20.108l.14-.83c1.334-8.032 2.18-15.628 2.395-21.305l.023-.7c.132-4.697-.256-7.691-.73-7.907l-.036-.01.195-1.176z"/>
        <circle cx="133.561" cy="241.406" r="3.572" fill="#C6E2BA" fill-rule="nonzero"/>
        <circle cx="283.028" cy="227.691" r="3.572" fill="#C6E2BA" fill-rule="nonzero"/>
        <circle cx="15.314" cy="187.547" r="11.532" fill="#C6E2BA" fill-rule="nonzero"/>
    </g>
</svg>
