<svg xmlns="http://www.w3.org/2000/svg" xmlns:xlink="http://www.w3.org/1999/xlink" width="360" height="280" viewBox="0 0 360 280">
    <defs>
        <filter id="a" width="112.3%" height="106.3%" x="-6.2%" y="-3.2%" filterUnits="objectBoundingBox">
            <feOffset dx="1" dy="2" in="SourceAlpha" result="shadowOffsetOuter1"/>
            <feColorMatrix in="shadowOffsetOuter1" result="shadowMatrixOuter1" values="0 0 0 0 0.7 0 0 0 0 0.7 0 0 0 0 0.7 0 0 0 1 0"/>
            <feMerge>
                <feMergeNode in="shadowMatrixOuter1"/>
                <feMergeNode in="SourceGraphic"/>
            </feMerge>
        </filter>
        <path id="b" d="M.063.886h70v25h-70z"/>
    </defs>
    <g fill="none" fill-rule="evenodd">
        <path fill="#D8D9DA" fill-rule="nonzero" d="M184.334 202.512v37.385h-6.12v-37.385z"/>
        <path fill="#BEBDC0" fill-rule="nonzero" d="M171.608 162.595h19.335v36.22h-19.335zM184.32 208.087l.017 26.896-6.12.004-.017-26.896z"/>
        <path fill="#D8D9DA" fill-rule="nonzero" d="M174.965 189.897h12.618v36.907h-12.618z"/>
        <path fill="#7A7F80" fill-rule="nonzero" d="M187.026 190.453v35.795h-11.504v-35.795h11.504m1.113-1.112h-13.73v38.02h13.73v-38.02z"/>
        <path fill="#D8D9DA" fill-rule="nonzero" d="M170.081 180.147h22.387v33.235h-22.387z"/>
        <path fill="#7A7F80" fill-rule="nonzero" d="M191.914 180.704v32.122h-21.277v-32.122h21.277m1.112-1.113h-23.502v34.348h23.502V179.59z"/>
        <path fill="#FFF" fill-rule="nonzero" d="M187.235 210.837h2.13v-25.213a2.13 2.13 0 0 0-2.13-2.13v27.343zM180.14 225.894h6.46v-6.464a6.465 6.465 0 0 0-6.46 6.464z"/>
        <g filter="url(#a)" transform="translate(148 52)">
            <path fill="#D8D9DA" fill-rule="nonzero" d="M20.874 124.852a7.996 7.996 0 0 1-7.355-4.847l-8.452-19.673A54.87 54.87 0 0 1 .585 78.55V15.442A13.156 13.156 0 0 1 11.303 2.53a113.789 113.789 0 0 1 41.889 0A13.156 13.156 0 0 1 63.91 15.442v63.15a54.894 54.894 0 0 1-4.491 21.807l-8.44 19.617a7.999 7.999 0 0 1-7.356 4.845l-22.749-.01z"/>
            <path fill="#7A7F80" fill-rule="nonzero" d="M32.247 1.17c6.99 0 13.966.648 20.837 1.935a12.551 12.551 0 0 1 10.232 12.337v63.15c0 7.42-1.512 14.76-4.444 21.576l-8.44 19.617a7.422 7.422 0 0 1-6.818 4.49h-22.74a7.425 7.425 0 0 1-6.82-4.493l-8.452-19.681a54.609 54.609 0 0 1-4.433-21.55V15.442A12.551 12.551 0 0 1 11.402 3.105a113.215 113.215 0 0 1 20.845-1.936m0-1.169c-7.062.002-14.108.656-21.05 1.956A13.741 13.741 0 0 0 0 15.442v63.109a55.435 55.435 0 0 0 4.529 22.02l8.452 19.664a8.588 8.588 0 0 0 7.893 5.202h22.749a8.58 8.58 0 0 0 7.894-5.199l8.44-19.617a55.42 55.42 0 0 0 4.54-22.038v-63.15A13.74 13.74 0 0 0 53.3 1.957 114.555 114.555 0 0 0 32.247 0z"/>
            <rect width="51.452" height="28.771" x="6.523" y="30.882" fill="#BEBDC0" fill-rule="nonzero" rx="3.041"/>
            <rect width="21.629" height="11.411" x="6.084" y="65.246" fill="#D8D9DA" fill-rule="nonzero" rx="2.389"/>
            <path fill="#7A7F80" fill-rule="nonzero" d="M25.324 65.684a1.95 1.95 0 0 1 1.95 1.95v6.625a1.95 1.95 0 0 1-1.95 1.95H8.478a1.95 1.95 0 0 1-1.955-1.95v-6.625a1.947 1.947 0 0 1 1.955-1.95h16.846m0-.877H8.478a2.83 2.83 0 0 0-2.827 2.827v6.625a2.83 2.83 0 0 0 2.827 2.836h16.846a2.83 2.83 0 0 0 2.827-2.836v-6.625a2.83 2.83 0 0 0-2.827-2.827z"/>
            <rect width="21.629" height="11.411" x="36.782" y="65.246" fill="#D8D9DA" fill-rule="nonzero" rx="2.389"/>
            <path fill="#7A7F80" fill-rule="nonzero" d="M56.022 65.684a1.947 1.947 0 0 1 1.95 1.95v6.625a1.95 1.95 0 0 1-1.95 1.95H39.176a1.95 1.95 0 0 1-1.95-1.95v-6.625a1.95 1.95 0 0 1 1.95-1.95h16.852m0-.877H39.176a2.83 2.83 0 0 0-2.827 2.827v6.625a2.83 2.83 0 0 0 2.827 2.836h16.852a2.83 2.83 0 0 0 2.827-2.827v-6.634a2.83 2.83 0 0 0-2.827-2.827z"/>
            <rect width="51.452" height="28.771" x="6.523" y="30.882" stroke="#000" stroke-width="1.169" rx="3.041"/>
            <path fill="#FFF" fill-rule="nonzero" d="M4.26 10.96l4.763-4.762 2.2 2.2-4.764 4.763z"/>
            <path stroke="#FFF" stroke-width="1.169" d="M9.56 59.653h45.374"/>
            <path stroke="#FFF" stroke-width=".877" d="M8.473 65.684h16.851M39.17 65.684h16.852"/>
            <path fill="#FFF" fill-rule="nonzero" d="M32.247 2.631c6.9.002 13.785.641 20.568 1.91a11.11 11.11 0 0 1 9.048 10.901v63.15a52.807 52.807 0 0 1-4.327 20.997L49.1 119.21a5.96 5.96 0 0 1-5.476 3.605H20.874a5.957 5.957 0 0 1-5.475-3.608L6.946 99.525A52.856 52.856 0 0 1 2.631 78.55V15.442A11.11 11.11 0 0 1 11.694 4.54a112.108 112.108 0 0 1 20.553-1.909m0-1.462c-6.993 0-13.971.648-20.845 1.936A12.551 12.551 0 0 0 1.169 15.442v63.109c0 7.41 1.509 14.742 4.433 21.55l8.452 19.673a7.425 7.425 0 0 0 6.82 4.493h22.749a7.422 7.422 0 0 0 6.818-4.49l8.44-19.618a54.593 54.593 0 0 0 4.444-21.576v-63.15A12.551 12.551 0 0 0 53.092 3.097 113.208 113.208 0 0 0 32.247 1.17z"/>
            <path fill="#D8D9DA" fill-rule="nonzero" d="M16.43 122.79a7.406 7.406 0 0 0 4.444 1.483h22.749a7.423 7.423 0 0 0 6.818-4.49l8.44-19.618a54.593 54.593 0 0 0 4.444-21.576L16.43 122.791z"/>
            <path fill="#FFF" fill-rule="nonzero" d="M11.402 7.359a113.087 113.087 0 0 1 41.673 0c4.476.839 8.77 4.031 8.77 8.083h1.462A12.551 12.551 0 0 0 53.075 3.105a113.087 113.087 0 0 0-41.673 0A12.551 12.551 0 0 0 1.169 15.442h1.462c0-4.09 4.3-7.256 8.771-8.083z"/>
            <path fill="#D8D9DA" fill-rule="nonzero" d="M20.874 124.852a7.996 7.996 0 0 1-7.355-4.847l-8.452-19.673A54.87 54.87 0 0 1 .585 78.55V15.442A13.156 13.156 0 0 1 11.303 2.53a113.789 113.789 0 0 1 41.889 0A13.156 13.156 0 0 1 63.91 15.442v63.15a54.894 54.894 0 0 1-4.491 21.807l-8.44 19.617a7.999 7.999 0 0 1-7.356 4.845l-22.749-.01z"/>
            <path fill="#7A7F80" fill-rule="nonzero" d="M32.247 1.17c6.99 0 13.966.648 20.837 1.935a12.551 12.551 0 0 1 10.232 12.337v63.15c0 7.42-1.512 14.76-4.444 21.576l-8.44 19.617a7.422 7.422 0 0 1-6.818 4.49h-22.74a7.425 7.425 0 0 1-6.82-4.493l-8.452-19.681a54.609 54.609 0 0 1-4.433-21.55V15.442A12.551 12.551 0 0 1 11.402 3.105a113.215 113.215 0 0 1 20.845-1.936m0-1.169c-7.062.002-14.108.656-21.05 1.956A13.741 13.741 0 0 0 0 15.442v63.109a55.435 55.435 0 0 0 4.529 22.02l8.452 19.664a8.588 8.588 0 0 0 7.893 5.202h22.749a8.58 8.58 0 0 0 7.894-5.199l8.44-19.617a55.42 55.42 0 0 0 4.54-22.038v-63.15A13.74 13.74 0 0 0 53.3 1.957 114.555 114.555 0 0 0 32.247 0z"/>
            <path fill="#FFF" fill-rule="nonzero" d="M54.791 61.436H9.701a3.178 3.178 0 0 1-3.178-3.18v-1.644h51.455v1.643a3.18 3.18 0 0 1-3.187 3.181z"/>
            <rect width="50.283" height="27.602" x="7.107" y="31.467" fill="#FFF" fill-rule="nonzero" rx="2.456"/>
            <path fill="#7A7F80" fill-rule="nonzero" d="M54.934 32.051a1.871 1.871 0 0 1 1.868 1.871v22.69c0 1.033-.836 1.87-1.868 1.871H9.56a1.871 1.871 0 0 1-1.868-1.87v-22.7c0-1.032.836-1.869 1.868-1.87h45.374m0-1.17H9.56a3.038 3.038 0 0 0-3.037 3.04v22.69a3.04 3.04 0 0 0 3.037 3.038h45.374a3.04 3.04 0 0 0 3.038-3.04V33.914a3.038 3.038 0 0 0-3.038-3.04z"/>
            <path fill="#FFF" fill-rule="nonzero" d="M6.523 65.684h20.752v1.772H6.523zM37.22 65.684h20.752v1.772H37.22z"/>
            <path fill="#7A7F80" fill-rule="nonzero" d="M25.324 65.684a1.95 1.95 0 0 1 1.95 1.95v6.625a1.95 1.95 0 0 1-1.95 1.95H8.478a1.95 1.95 0 0 1-1.955-1.95v-6.625a1.947 1.947 0 0 1 1.955-1.95h16.846m0-.877H8.478a2.83 2.83 0 0 0-2.827 2.827v6.625a2.83 2.83 0 0 0 2.827 2.836h16.846a2.83 2.83 0 0 0 2.827-2.836v-6.625a2.83 2.83 0 0 0-2.827-2.827zM56.022 65.684a1.947 1.947 0 0 1 1.95 1.95v6.625a1.95 1.95 0 0 1-1.95 1.95H39.176a1.95 1.95 0 0 1-1.95-1.95v-6.625a1.95 1.95 0 0 1 1.95-1.95h16.852m0-.877H39.176a2.83 2.83 0 0 0-2.827 2.827v6.625a2.83 2.83 0 0 0 2.827 2.836h16.852a2.83 2.83 0 0 0 2.827-2.827v-6.634a2.83 2.83 0 0 0-2.827-2.827z"/>
            <path fill="#FFF" fill-rule="nonzero" d="M3.978 10.68l4.763-4.764 2.762 2.762-4.763 4.763z"/>
            <path fill="#FFF" fill-rule="nonzero" d="M32.247 2.631c6.9.002 13.785.641 20.568 1.91a11.11 11.11 0 0 1 9.048 10.901v63.15a52.807 52.807 0 0 1-4.327 20.997L49.1 119.21a5.96 5.96 0 0 1-5.476 3.605H20.874a5.957 5.957 0 0 1-5.475-3.608L6.946 99.525A52.856 52.856 0 0 1 2.631 78.55V15.442A11.11 11.11 0 0 1 11.694 4.54a112.108 112.108 0 0 1 20.553-1.909m0-1.462c-6.993 0-13.971.648-20.845 1.936A12.551 12.551 0 0 0 1.169 15.442v63.109c0 7.41 1.509 14.742 4.433 21.55l8.452 19.673a7.425 7.425 0 0 0 6.82 4.493h22.749a7.422 7.422 0 0 0 6.818-4.49l8.44-19.618a54.593 54.593 0 0 0 4.444-21.576v-63.15A12.551 12.551 0 0 0 53.092 3.097 113.208 113.208 0 0 0 32.247 1.17z"/>
            <path fill="#D8D9DA" fill-rule="nonzero" d="M16.43 122.79a7.406 7.406 0 0 0 4.444 1.483h22.749a7.423 7.423 0 0 0 6.818-4.49l8.44-19.618a54.593 54.593 0 0 0 4.444-21.576L16.43 122.791z"/>
            <path fill="#FFF" fill-rule="nonzero" d="M11.402 7.359a113.087 113.087 0 0 1 41.673 0c4.476.839 8.77 4.031 8.77 8.083h1.462A12.551 12.551 0 0 0 53.075 3.105a113.087 113.087 0 0 0-41.673 0A12.551 12.551 0 0 0 1.169 15.442h1.462c0-4.09 4.3-7.256 8.771-8.083z"/>
        </g>
        <g transform="translate(147 84)">
            <mask id="c" fill="#fff">
                <use xlink:href="#b"/>
            </mask>
            <use fill="#FFF" fill-rule="nonzero" xlink:href="#b"/>
            <path fill="#D8D9DA" fill-rule="nonzero" d="M20.31.583a7.286 7.286 0 0 0-.285-.91c-.078-.182.717-.768.64-.903a14.689 14.689 0 0 0-.669-.944c-.106-.122-.916.439-1.063.303a7.314 7.314 0 0 0-.768-.568c-.172-.102.128-1.039-.014-1.107-.142-.068-.939-.335-1.095-.37-.156-.037-.486.895-.683.87a7.144 7.144 0 0 0-.95-.011c-.2.018-.513-.917-.665-.885-.152.032-.955.28-1.102.343-.147.062.128 1.008-.043 1.105-.271.166-.53.35-.777.55-.148.128-.947-.445-1.057-.326-.11.119-.605.787-.688.926-.083.14.701.741.617.927-.121.291-.223.59-.305.895-.044.196-1.024.199-1.047.357-.023.16-.028.996-.012 1.152.015.156.999.186 1.037.384.075.31.17.614.284.91.078.183-.718.769-.64.897.079.128.561.822.668.944.108.122.917-.439 1.064-.303.243.206.5.396.767.568.173.102-.127 1.039.015 1.105.142.067.939.337 1.094.373.154.036.487-.896.683-.87.317.024.635.028.952.01.198-.018.512.917.664.885.152-.032.953-.28 1.102-.343.148-.062-.128-1.008.043-1.105.27-.166.53-.35.776-.55.148-.128.948.445 1.058.326.11-.12.605-.787.688-.926.083-.14-.702-.743-.615-.917.121-.291.223-.59.305-.895.044-.196 1.024-.199 1.047-.357.023-.159.028-.996.013-1.152-.015-.156-1-.193-1.039-.388zM17.8 2.631a2.27 2.27 0 1 1-.795-3.108 2.271 2.271 0 0 1 .794 3.111v-.003zM59.574 22.268a10.1 10.1 0 0 0-.385-1.26c-.106-.253.977-1.063.871-1.25a19.366 19.366 0 0 0-.909-1.307c-.144-.166-1.247.606-1.447.419a9.966 9.966 0 0 0-1.045-.787c-.235-.142.175-1.439-.019-1.53a17.86 17.86 0 0 0-1.49-.516c-.213-.05-.662 1.24-.93 1.204a9.554 9.554 0 0 0-1.294-.014c-.27.025-.696-1.27-.903-1.226a19.34 19.34 0 0 0-1.5.475c-.2.087.175 1.396-.059 1.53-.368.231-.72.486-1.057.763-.2.177-1.288-.617-1.438-.452-.15.165-.824 1.09-.937 1.283-.113.193.95 1.025.838 1.273a9.964 9.964 0 0 0-.416 1.24c-.06.27-1.393.273-1.425.493-.031.22-.038 1.38-.017 1.595.02.214 1.36.257 1.412.531.103.429.232.85.387 1.262.106.251-.977 1.054-.871 1.249a17.6 17.6 0 0 0 .909 1.307c.146.169 1.247-.607 1.447-.42.33.286.68.548 1.045.787.235.142-.175 1.439.019 1.533.193.094 1.278.464 1.49.513.213.05.662-1.24.928-1.204.431.034.864.038 1.296.014.27-.025.696 1.27.903 1.226a18.827 18.827 0 0 0 1.5-.475c.202-.089-.175-1.396.059-1.53.367-.23.72-.484 1.055-.76.202-.178 1.29.614 1.44.45.15-.166.824-1.09.937-1.284.113-.193-.95-1.025-.838-1.273.166-.404.305-.818.416-1.24.06-.272 1.393-.275 1.425-.495.031-.22.038-1.378.017-1.594-.02-.217-1.36-.264-1.414-.53zm-3.416 2.835a3.06 3.06 0 0 1-4.232 1.098c-1.467-.886-1.95-2.814-1.08-4.306a3.06 3.06 0 0 1 4.23-1.101 3.138 3.138 0 0 1 1.419 1.926 3.19 3.19 0 0 1-.337 2.383z" mask="url(#c)"/>
        </g>
        <path fill="#FFF" fill-rule="nonzero" d="M217.319 84.362h-70.512v25.512h70.512V84.362zm-.513.511v24.488h-69.488V84.873h69.488z"/>
        <path fill="#C6E2BA" fill-rule="nonzero" d="M188.26 100.857c.243-.595.446-1.205.61-1.828.088-.396 2.052-.402 2.09-.724.036-.323.055-2.022.026-2.346-.03-.325-2.001-.377-2.075-.771a15.066 15.066 0 0 0-.565-1.848c-.157-.37 1.433-1.547 1.275-1.832-.158-.285-1.12-1.67-1.333-1.916-.213-.247-1.83.89-2.124.615a14.435 14.435 0 0 0-1.527-1.154c-.345-.214.26-2.11-.028-2.248-.289-.139-1.876-.683-2.186-.75-.31-.066-.972 1.812-1.369 1.766-.63-.05-1.264-.057-1.895-.022-.396.038-1.011-1.862-1.326-1.797-.315.064-1.904.566-2.2.696-.296.13.26 2.047-.087 2.248-.54.336-1.058.708-1.549 1.114-.296.265-1.895-.903-2.106-.661-.21.242-1.213 1.592-1.38 1.878-.166.286 1.393 1.504 1.226 1.867a14.978 14.978 0 0 0-.61 1.828c-.085.395-2.05.401-2.086.723-.037.323-.056 2.022-.027 2.346.03.325 2.001.377 2.074.772.15.628.339 1.244.566 1.847.156.37-1.433 1.547-1.275 1.832.158.285 1.12 1.67 1.333 1.916.213.247 1.83-.89 2.124-.614.484.418.994.804 1.527 1.154.344.208-.26 2.11.028 2.248.289.14 1.876.682 2.186.75.31.067.972-1.813 1.369-1.766.63.05 1.264.056 1.895.022.396-.039 1.011 1.86 1.326 1.796.315-.064 1.905-.567 2.2-.697.294-.13-.26-2.047.087-2.248.54-.334 1.056-.704 1.548-1.107.296-.266 1.895.903 2.111.662.216-.241 1.209-1.598 1.375-1.882.167-.283-1.393-1.507-1.228-1.869z"/>
        <path fill="#FFF" d="M175.224 97.225a.768.768 0 0 1 1.074 0l2.21 2.186 5.245-5.192a.768.768 0 0 1 1.074 0 .746.746 0 0 1 0 1.063l-6.322 6.255-3.284-3.25a.746.746 0 0 1 .003-1.062z"/>
    </g>
</svg>
