<svg xmlns="http://www.w3.org/2000/svg" fill="none" viewBox="0 0 24 24">
  <circle cx="12" cy="12" r="12" fill="#F0B90B"/>
  <path fill="#fff" fill-rule="evenodd" d="M15.91 11.399 15.902 9.7h.006l-1.443-.85-2.472 1.459L9.536 8.85l-1.442.85v1.698l2.472 1.45v2.909l1.436.84 1.435-.84v-2.909zM11.994 4.5l-3.9 2.3 1.435.85 2.465-1.459 2.472 1.458 1.436-.85zm-4.93 10.401L7.056 12l-1.435-.848v4.606l3.908 2.292v-1.698zm-.008-4.112V9.1l1.442-.85-1.442-.85-1.436.85v1.69zM11.994 7.4l-1.436.85 1.436.849 1.443-.85zm-3.9 5.201V14.3l1.435.841v-1.69zm3.9 5.208-1.436-.849v1.69l1.436.85 1.443-.85v-1.69zM16.93 7.4l-1.436.85 1.436.849v1.69l1.443-.849V8.25zm.008 4.6-.008 2.901-2.464 1.45v1.698l3.908-2.291V11.15zm-1.037 2.3-1.436.841v-1.69l1.436-.85z" clip-rule="evenodd"/>
</svg>
