<svg fill="none" viewBox="0 0 24 24">
  <path fill="#F29937" fill-opacity=".95" d="M12 24c6.628 0 12-5.372 12-12 0-6.627-5.372-12-12-12C5.373 0 0 5.373 0 12c0 6.628 5.373 12 12 12"/>
  <path fill="#fff" fill-rule="evenodd" d="m8.338 6.055.009.003a.1.1 0 0 1-.029.02zm.083.023.025-.097-.1.077zm0 0-.137.535c-.054.213-.108.427-.163.631-.036.075 0 .112.073.112l.173.044c.243.06.504.126.765.216.325.111.505.446.433.743-.433 1.932-.902 3.827-1.371 5.722-.036.26-.253.408-.542.334a6 6 0 0 1-.794-.186c-.108 0-.144 0-.18.112a19 19 0 0 1-.488 1.17c-.027.065-.054.13-.09.204.866.223 1.697.446 2.527.67 0 .043-.013.073-.023.099q-.012.026-.013.049c-.18.594-.325 1.226-.47 1.857-.036.075-.036.112.073.15.36.073.722.148 1.082.26.096.032.107.007.133-.05l.012-.025c.036-.167.081-.335.126-.502q.07-.25.127-.501.056-.252.126-.502c.045-.167.09-.334.126-.502.325.075.614.15.902.223.053.027.048.054.042.095q-.004.023-.005.054c-.18.595-.325 1.226-.47 1.858-.036.074-.036.111.073.148.162.038.333.084.505.13.171.047.343.093.505.13.173.072.18.04.212-.092l.005-.019c.072-.297.144-.604.216-.91s.145-.613.217-.91q.054-.168.216-.112c.722.111 1.444.186 2.202.074a2.22 2.22 0 0 0 1.48-.817c.325-.409.505-.855.65-1.375.108-.409.144-.854.072-1.263a2.34 2.34 0 0 0-.866-1.263c-.072-.056-.145-.102-.217-.149a3 3 0 0 1-.216-.149.2.2 0 0 0 .097-.023q.025-.012.047-.014c.289-.111.578-.26.794-.483.289-.297.433-.668.541-1.077.145-.595.109-1.19-.216-1.746a3.1 3.1 0 0 0-.939-.892l-1.19-.557c-.109-.038-.145-.075-.109-.186.072-.186.108-.372.144-.557.109-.446.217-.892.325-1.375-.018 0-.027-.01-.036-.019-.009-.01-.018-.018-.036-.018a18 18 0 0 0-.496-.13 12 12 0 0 1-.623-.168c-.072-.037-.108 0-.108.075l-.108.446c-.145.483-.253.928-.361 1.411q-.018.02-.036.046c-.024.033-.049.066-.073.066l-.45-.112-.452-.111c.036-.074.036-.111.036-.149.072-.297.145-.603.217-.91.072-.306.144-.613.216-.91.036-.074.036-.112-.072-.149a11 11 0 0 1-1.047-.26c-.108-.037-.144 0-.18.112q-.108.47-.217.928c-.072.307-.144.613-.216.93-.036.11-.072.148-.18.11-.2-.055-.398-.101-.596-.148a14 14 0 0 1-.596-.148c-.198-.056-.397-.103-.595-.15a19 19 0 0 1-.513-.125m1.758 9.155c.036 0 .072.037.072.037l.274.072c.496.131 1.013.268 1.53.3.434.037.83.037 1.228-.112.686-.223.975-1.151.577-1.746-.18-.297-.469-.483-.758-.669-.63-.36-1.363-.51-2.065-.655l-.064-.014c-.099-.033-.107-.005-.136.084l-.008.028a9 9 0 0 1-.127.539 9 9 0 0 0-.126.539c-.082.296-.153.592-.225.896q-.08.342-.172.701m3.429-3.864a2.3 2.3 0 0 1-.397.074c-.42 0-.781-.059-1.155-.119a18 18 0 0 0-.434-.067c-.072-.018-.135-.037-.198-.055a5 5 0 0 0-.199-.056c-.072-.037-.108-.074-.072-.149.217-.78.397-1.523.578-2.303.036-.112.072-.149.18-.112l.319.086c.423.112.828.219 1.233.397.325.149.65.372.83.706.361.632 0 1.45-.685 1.598" clip-rule="evenodd"/>
</svg>
