<svg fill="none" viewBox="0 0 24 24">
  <path fill="#2768C6" fill-opacity=".9" d="M12 24c6.627 0 12-5.373 12-12S18.627 0 12 0 0 5.373 0 12s5.373 12 12 12"/>
  <path fill="#fff" d="M6.025 9.178h7.753s2.676-.025.826 3.427c0 0-1.351 2.703-4.702 2.653l1.805-4.614a.365.365 0 0 0-.33-.5l-2.376-.04L6 17.408s1 .1 1.55.05l-.3.751h1.416a.19.19 0 0 0 .18-.125l.255-.676.6-.05-.35.851h1.381a.25.25 0 0 0 .235-.16l.385-.99s4.202-.701 6.103-4.104c0 0 2.55-3.954-.45-5.355a5.8 5.8 0 0 0-1.851-.5l.35-.866A.17.17 0 0 0 15.349 6h-1.296l-.4 1.05h-.55l.31-.815a.176.176 0 0 0-.08-.214.2.2 0 0 0-.08-.021h-1.3l-.4 1.05H7.51a.6.6 0 0 0-.53.316l-.956 1.812Z"/>
</svg>
