<svg fill="none" viewBox="0 0 24 24">
  <path fill="#8A92B2" fill-rule="evenodd" d="M12 24c6.628 0 12-5.373 12-12S18.629 0 12 0C5.374 0 0 5.373 0 12s5.373 12 12 12" clip-rule="evenodd"/>
  <path fill="#fff" d="M7.07 15.2c1.05 0 1.537-.675 1.537-.675h.038l.075.6h.75V12.35H7.182v.75h1.313v.037c0 .338-.45 1.125-1.425 1.125-.9 0-1.575-.675-1.575-1.762 0-1.088.675-1.762 1.575-1.762.712 0 1.125.45 1.35.937h1.012C9.245 10.85 8.495 9.8 7.07 9.8s-2.55 1.125-2.55 2.7 1.125 2.7 2.55 2.7m3.41-.075h.974v-3.637h.15l1.913 3.637h1.313v-5.25h-.976v3.637h-.15l-1.912-3.637h-1.313zm6.64 0h.976v-4.313h1.575v-.937h-4.125v.938h1.575z"/>
</svg>
