<svg fill="none" viewBox="0 0 24 24">
  <path fill="#E75F5F" d="M12 24c6.628 0 12-5.373 12-12S18.629 0 12 0C5.374 0 0 5.373 0 12s5.373 12 12 12"/>
  <path fill="#FEFEFE" d="M15.22 13.336a3.6 3.6 0 0 0-1.03-.142c-.319.035-.673-.107-.85-.39l-.107-.142a.91.91 0 0 1 0-1.029l.106-.177a.94.94 0 0 1 .78-.39c.39 0 .781-.072 1.171-.284.958-.497 1.596-1.455 1.56-2.519a2.73 2.73 0 0 0-2.872-2.66c-1.313.07-2.412 1.135-2.554 2.447-.071.71.142 1.348.496 1.88a.97.97 0 0 1 0 1.065l-.035.035a.93.93 0 0 1-.745.39h-.177a.9.9 0 0 1-.816-.532 2.7 2.7 0 0 0-2.519-1.49 2.715 2.715 0 0 0-2.624 2.625 2.713 2.713 0 0 0 2.73 2.838 2.66 2.66 0 0 0 2.413-1.49.9.9 0 0 1 .816-.532h.142c.319 0 .603.142.745.39l.177.248c.213.284.177.675 0 .958a2.54 2.54 0 0 0-.39 1.703c.106 1.277 1.17 2.305 2.412 2.447 1.738.178 3.157-1.277 3.015-2.98-.071-1.028-.816-1.95-1.845-2.27Z"/>
</svg>
