<svg fill="none" viewBox="0 0 24 24">
  <path fill="#24292E" d="M12 24c6.627 0 12-5.373 12-12S18.627 0 12 0 0 5.373 0 12s5.373 12 12 12"/>
  <g fill="#fff" clip-path="url(#prefix__a)">
    <path d="M16.307 7h1.745l-3.632 3.596a3.394 3.394 0 0 1-4.764 0L6.022 7H7.77l2.76 2.732a2.15 2.15 0 0 0 3.016 0zM7.746 17H6l3.656-3.619a3.394 3.394 0 0 1 4.764 0L18.076 17H16.33l-2.783-2.754a2.15 2.15 0 0 0-3.017 0z"/>
  </g>
  <defs>
    <clipPath id="prefix__a">
      <path fill="#fff" d="M6 7h12.075v10H6z"/>
    </clipPath>
  </defs>
</svg>
