<svg xmlns="http://www.w3.org/2000/svg" fill-rule="evenodd" stroke-linejoin="round" stroke-miterlimit="2" clip-rule="evenodd" viewBox="0 0 185 39"><clipPath id="a"><path d="M0 0h185v39H0z"/></clipPath><g fill-rule="nonzero" clip-path="url(#a)"><path fill="#303030" d="M21.624 7.313v17.062l-4.806-2.438V7.313h4.806z"/><path fill="#39a814" fill-opacity=".9" d="M21.624 7.313v17.062l-4.806-2.438V7.313h4.806z"/><path fill="#303030" d="M4.805 7.312v14.626L0 24.375V7.312h4.805z"/><path fill="#39a814" fill-opacity=".6" d="M4.805 7.312v14.626L0 24.375V7.312h4.805z"/><path fill="#303030" d="M10.813 24.375l6.006-2.438 4.805 2.438-10.811 4.875v-4.875z"/><path fill="#39a814" fill-opacity=".8" d="M10.813 24.375l6.006-2.438 4.805 2.438-10.811 4.875v-4.875z"/><path fill="url(#_Linear2)" d="M16.82 21.938l4.804 2.437-1.351.61-4.257-2.721.803-.326h.001z"/><path fill="url(#_Linear3)" d="M0 24.375l4.805-2.437.053-.893L.6 23.765l-.601.61H0z"/><path fill="#303030" d="M10.812 24.375l-6.007-2.438L0 24.375l10.812 4.875v-4.875z"/><path fill="#39a814" fill-opacity=".7" d="M10.812 24.375l-6.007-2.438L0 24.375l10.812 4.875v-4.875z"/><path fill="url(#_Linear4)" d="M10.812 29.25v-4.875l-.766-.31-.255 4.725 1.02.46h.001z"/><path fill="#39a814" d="M21.623 7.313H0v4.875h21.623V7.311v.002z"/><path fill="url(#_Linear5)" d="M21.624 12.188h-4.806v1.218h4.806v-1.219.001z"/><path d="M38.117 26.813h4.228V12.2h5.154V8.044H32.963V12.2h5.154v14.613zm9.917 0H52v-7.508c0-1.609.792-2.413 2.378-2.413h2.379v-3.754h-2.51c-1.719 0-2.38 1.073-2.38 1.073h-.132l-.264-1.073h-3.436v13.675h-.001zm16.538.268c5.021 0 6.475-4.424 6.475-4.424h-3.965s-.792 1.206-2.51 1.206c-1.718 0-2.907-1.206-3.04-2.815h9.78s.131-.402.131-1.34c0-3.888-2.907-6.838-6.871-6.838-4.097 0-7.004 2.95-7.004 7.105 0 4.156 2.907 7.106 7.004 7.106zm-3.04-8.446c.397-1.743 1.454-2.682 3.04-2.682 1.585 0 2.643.939 3.04 2.682h-6.08zm11.496 8.178h11.496v-3.754h-6.078l5.946-6.301v-3.62H73.16v3.754h5.814l-5.946 6.3v3.621zm20.089.268c4.096 0 7.003-2.95 7.003-7.106s-2.907-7.105-7.003-7.105c-4.097 0-7.004 2.95-7.004 7.105 0 4.156 2.907 7.106 7.004 7.106zm0-3.754c-1.718 0-3.04-1.34-3.04-3.352 0-2.01 1.322-3.351 3.04-3.351s3.04 1.34 3.04 3.351-1.322 3.352-3.04 3.352zm9.504 3.486h3.964v-7.508c0-1.609.793-2.413 2.379-2.413h2.378v-3.754h-2.511c-1.717 0-2.378 1.073-2.378 1.073h-.132l-.264-1.073h-3.436v13.675zm23.905.268c4.889 0 7.4-2.547 7.4-5.765 0-3.217-1.586-4.826-5.286-5.496l-2.907-.537c-1.718-.322-2.246-.804-2.246-1.743 0-1.072.925-2.01 2.775-2.01 2.061 0 3.303 1.233 3.303 2.68h4.229c0-3.753-2.643-6.434-7.532-6.434-4.493 0-7.004 2.547-7.004 5.764 0 2.95 1.586 4.612 4.889 5.229l2.908.536c1.982.375 2.642 1.073 2.642 2.011 0 1.073-.925 2.011-3.171 2.011-2.246 0-3.436-1.207-3.436-2.681h-4.228c0 3.62 2.775 6.435 7.664 6.435zm15.451 0c2.511 0 3.7-1.475 3.7-1.475h.132l.265 1.207h3.435V13.138h-3.964v7.508c0 1.474-1.057 2.547-2.511 2.547-1.453 0-2.51-1.073-2.51-2.547v-7.508h-3.965v8.312c0 3.352 2.247 5.63 5.418 5.63v.001zm10.713-.268h3.965V13.138h-3.965v13.675zm0-15.659h3.965V7.668h-3.965v3.486zm12.278 15.659h3.171v-3.754h-2.114c-.661 0-.925-.268-.925-.939v-5.228h3.039v-3.754H165.1v-4.29h-3.965v4.29h-2.114v3.754h2.114v6.167c0 2.413 1.322 3.754 3.833 3.754zm11.9.268c5.021 0 6.475-4.424 6.475-4.424h-3.965s-.792 1.206-2.51 1.206c-1.718 0-2.907-1.206-3.04-2.815h9.779s.132-.402.132-1.34c0-3.888-2.907-6.838-6.871-6.838-4.097 0-7.004 2.95-7.004 7.105 0 4.156 2.907 7.106 7.004 7.106zm-3.04-8.446c.397-1.743 1.454-2.682 3.04-2.682 1.585 0 2.643.939 3.039 2.682h-6.079z"/></g><defs><linearGradient id="_Linear2" x1="0" x2="1" y1="0" y2="0" gradientTransform="matrix(-.61 .601 -.601 -.61 19.222 23.156)" gradientUnits="userSpaceOnUse"><stop offset="0" stop-opacity=".05"/><stop offset="1" stop-opacity="0"/></linearGradient><linearGradient id="_Linear3" x1="0" x2="1" y1="0" y2="0" gradientTransform="rotate(-116.93 8.907 10.47) scale(1.358)" gradientUnits="userSpaceOnUse"><stop offset="0" stop-opacity=".05"/><stop offset="1" stop-opacity="0"/></linearGradient><linearGradient id="_Linear4" x1="0" x2="1" y1="0" y2="0" gradientTransform="rotate(180 5.406 13.406) scale(.601)" gradientUnits="userSpaceOnUse"><stop offset="0" stop-opacity=".05"/><stop offset="1" stop-opacity="0"/></linearGradient><linearGradient id="_Linear5" x1="0" x2="1" y1="0" y2="0" gradientTransform="rotate(90 3.516 15.705) scale(1.218)" gradientUnits="userSpaceOnUse"><stop offset="0" stop-opacity=".05"/><stop offset="1" stop-opacity="0"/></linearGradient></defs></svg>