<svg xmlns="http://www.w3.org/2000/svg" fill-rule="evenodd" stroke-linejoin="round" stroke-miterlimit="2" clip-rule="evenodd" viewBox="0 0 16 16"><g fill-rule="nonzero"><path fill="#303030" d="M15.855.001v12.396l-3.491-1.771V.001h3.491z"/><path fill="#00854D" fill-opacity=".9" d="M15.855.001v12.396l-3.491-1.771V.001h3.491z"/><path fill="#303030" d="M3.636 0v10.627l-3.49 1.77V.001h3.49z"/><path fill="#00854D" fill-opacity=".6" d="M3.636 0v10.627l-3.49 1.77V.001h3.49z"/><path fill="#303030" d="M8.001 12.397l4.364-1.771 3.49 1.771-7.854 3.542v-3.542z"/><path fill="#00854D" fill-opacity=".8" d="M8.001 12.397l4.364-1.771 3.49 1.771-7.854 3.542v-3.542z"/><path fill="url(#_Linear1)" d="M16.82 21.938l4.804 2.437-1.351.61-4.257-2.721.803-.326h.001z" transform="matrix(.72652 0 0 .72652 .145 -5.312)"/><path fill="url(#_Linear2)" d="M0 24.375l4.805-2.437.053-.893L.6 23.765l-.601.61H0z" transform="matrix(.72652 0 0 .72652 .145 -5.312)"/><path fill="#303030" d="M8 12.397l-4.364-1.771-3.49 1.771L8 15.94v-3.542z"/><path fill="#00854D" fill-opacity=".7" d="M8 12.397l-4.364-1.771-3.49 1.771L8 15.94v-3.542z"/><path fill="url(#_Linear3)" d="M10.812 29.25v-4.875l-.766-.31-.255 4.725 1.02.46h.001z" transform="matrix(.72652 0 0 .72652 .145 -5.312)"/><path fill="#00854D" d="M15.855.001H.145v3.542h15.71V0v.001z"/><path fill="url(#_Linear4)" d="M21.624 12.188h-4.806v1.218h4.806v-1.219.001z" transform="matrix(.72652 0 0 .72652 .145 -5.312)"/></g><defs><linearGradient id="_Linear1" x1="0" x2="1" y1="0" y2="0" gradientTransform="matrix(-.61 .601 -.601 -.61 19.222 23.156)" gradientUnits="userSpaceOnUse"><stop offset="0" stop-opacity=".05"/><stop offset="1" stop-opacity="0"/></linearGradient><linearGradient id="_Linear2" x1="0" x2="1" y1="0" y2="0" gradientTransform="rotate(-116.93 8.907 10.47) scale(1.358)" gradientUnits="userSpaceOnUse"><stop offset="0" stop-opacity=".05"/><stop offset="1" stop-opacity="0"/></linearGradient><linearGradient id="_Linear3" x1="0" x2="1" y1="0" y2="0" gradientTransform="rotate(180 5.406 13.406) scale(.601)" gradientUnits="userSpaceOnUse"><stop offset="0" stop-opacity=".05"/><stop offset="1" stop-opacity="0"/></linearGradient><linearGradient id="_Linear4" x1="0" x2="1" y1="0" y2="0" gradientTransform="rotate(90 3.516 15.705) scale(1.218)" gradientUnits="userSpaceOnUse"><stop offset="0" stop-opacity=".05"/><stop offset="1" stop-opacity="0"/></linearGradient></defs></svg>
