<svg xmlns="http://www.w3.org/2000/svg" fill-rule="evenodd" stroke-linejoin="round" stroke-miterlimit="2" clip-rule="evenodd" viewBox="0 0 231 48"><path fill-rule="nonzero" d="M153.187 45.134c0 .528.432.96.96.96h7.719c.528 0 .96-.432.96-.96V14.126a.963.963 0 00-.96-.96h-7.719a.963.963 0 00-.96.96v31.008zm0-37.704c0 .528.432.96.96.96h7.719c.528 0 .96-.432.96-.96V.96a.963.963 0 00-.96-.96h-7.719a.963.963 0 00-.96.96v6.47zm29.851 38.664h6.75c.527 0 .96-.432.96-.96v-7.118a.963.963 0 00-.96-.96h-4.177c-1.608 0-2.256-.648-2.256-2.26V23.164c0-.528.432-.96.96-.96h5.472c.528 0 .96-.432.96-.96V14.13a.963.963 0 00-.96-.96h-5.467a.963.963 0 01-.96-.96v-8.41a.96.96 0 00-.96-.96h-7.714a.963.963 0 00-.96.96v6.49a2.882 2.882 0 01-2.88 2.88h-1.3a.963.963 0 00-.96.96v7.114c0 .528.432.96.96.96h3.216a.96.96 0 01.96.96v13.891c0 5.808 3.216 9.038 9.321 9.038h-.005zm28.93.644c9.638 0 13.872-6.634 15.226-9.432.288-.59-.154-1.22-.812-1.22h-7.79c-.322 0-.624.159-.835.404-.706.796-2.583 2.5-5.789 2.5-4.176 0-7.066-2.904-7.387-6.777h23.083c.413 0 .768-.269.84-.677.082-.518.173-1.354.173-2.549 0-9.36-7.066-16.464-16.704-16.464-9.96 0-17.03 7.104-17.03 17.107 0 10.008 7.07 17.108 17.025 17.108zm-7.387-20.333c.96-4.2 3.533-6.456 7.392-6.456 3.854 0 6.422 2.256 7.387 6.456h-14.78zm-76.397 20.347c6.106 0 8.995-3.552 8.995-3.552h.322l.48 2.15a.956.956 0 00.936.754h6.624c.528 0 .96-.432.96-.96V14.141a.963.963 0 00-.96-.96h-7.723a.963.963 0 00-.96.96v17.117c0 3.552-2.568 6.13-6.101 6.13s-6.106-2.583-6.106-6.13V14.14a.963.963 0 00-.96-.96h-7.718a.963.963 0 00-.96.96v19.056c0 8.064 5.462 13.555 13.171 13.555zm-36.096-.01c11.89 0 17.99-6.134 17.99-13.881 0-7.743-3.854-11.616-12.85-13.234l-7.07-1.291c-4.176-.773-5.462-1.934-5.462-4.195 0-2.583 2.251-4.839 6.749-4.839 4.545 0 7.454 2.444 7.953 5.496.087.528.51.96 1.037.96h8.362c.528 0 .965-.432.936-.96C109.296 6.26 102.912.26 91.445.26 80.52.26 74.419 6.39 74.419 14.136c0 7.104 3.855 11.102 11.885 12.59l7.07 1.292c4.82.902 6.423 2.582 6.423 4.838 0 2.582-2.247 4.848-7.709 4.848-4.963 0-7.805-2.4-8.28-5.506-.082-.523-.504-.955-1.032-.955h-8.362a.92.92 0 00-.93.96c.48 8.247 7.156 14.535 18.604 14.535v.004z"/><path d="M0 37.858V2.4h45.595v32.928h-.005v2.53L22.795 47.986 0 37.858zm22.795 0l12.663-5.074V12.528h-25.32v20.256L22.8 37.853l-.005.005z"/></svg>