<svg fill="#000000" viewBox="0 0 256 66" version="1.1" xmlns="http://www.w3.org/2000/svg" xmlns:xlink="http://www.w3.org/1999/xlink">
    <path d="M158.103849,20.0171045 L184.845449,20.0171045 L184.845449,27.0543677 L170.301772,46.758705 L184.845449,46.758705 L184.845449,55.0470374 L158.103849,55.0470374 L158.103849,48.009774 L172.647526,28.3054368 L158.103849,28.3054368 L158.103849,20.0171045 Z M248.337203,42.0671961 C251.621259,40.8161271 255.061699,37.5320709 255.061699,31.7458767 C255.061699,24.7086133 250.213806,20.1734881 243.020159,20.1734881 L226.599878,20.1734881 L226.599878,55.0470374 L235.670128,55.0470374 L235.670128,43.3182652 L239.110569,43.3182652 L245.522297,55.0470374 L256,55.0470374 L248.337203,42.0671961 Z M241.925474,35.1863165 L235.670128,35.1863165 L235.670128,28.1490532 L241.925474,28.1490532 C244.271228,28.1490532 245.835065,29.5565058 245.835065,31.589493 C245.835065,33.7788638 244.271228,35.1863165 241.925474,35.1863165 Z M204.549787,19.5479536 C193.9157,19.5479536 186.409286,27.2107514 186.409286,37.5320709 C186.409286,47.8533904 194.072083,55.5161882 204.549787,55.5161882 C215.027489,55.5161882 222.846671,47.8533904 222.846671,37.5320709 C222.846671,27.2107514 215.183873,19.5479536 204.549787,19.5479536 Z M204.549787,47.3842395 C199.232743,47.3842395 195.63592,43.3182652 195.63592,37.5320709 C195.63592,31.589493 199.232743,27.6799023 204.549787,27.6799023 C209.86683,27.6799023 213.620037,31.7458767 213.620037,37.5320709 C213.620037,43.3182652 209.86683,47.3842395 204.549787,47.3842395 Z M128.39096,20.0171045 L153.725107,20.0171045 L153.725107,28.1490532 L137.46121,28.1490532 L137.46121,33.3097129 L153.255956,33.3097129 L153.255956,41.285278 L137.46121,41.285278 L137.46121,46.9150886 L153.725107,46.9150886 L153.725107,55.0470374 L128.39096,55.0470374 L128.39096,20.0171045 Z M38.4703727,15.169212 C38.4703727,6.88087966 31.2767258,0 22.5192426,0 C13.7617594,0 6.56811241,6.88087966 6.56811241,15.169212 L6.56811241,20.0171045 L0,20.0171045 L0,54.8906537 L22.5192426,65.3683568 L45.0384851,54.8906537 L45.0384851,20.1734881 L38.4703727,20.1734881 L38.4703727,15.169212 Z M14.7000611,15.169212 C14.7000611,11.2596213 18.140501,8.1319487 22.5192426,8.1319487 C26.8979842,8.1319487 30.338424,11.2596213 30.338424,15.169212 L30.338424,20.0171045 L14.7000611,20.0171045 L14.7000611,15.169212 Z M35.9682346,49.2608431 L22.5192426,55.5161882 L9.07025047,49.2608431 L9.07025047,28.3054368 L35.9682346,28.3054368 L35.9682346,49.2608431 Z M124.168601,31.7458767 C124.168601,24.7086133 119.320709,20.1734881 112.127062,20.1734881 L95.7067808,20.1734881 L95.7067808,55.0470374 L104.777031,55.0470374 L104.777031,43.3182652 L108.217471,43.3182652 L114.6292,55.0470374 L125.106903,55.0470374 L117.444105,42.0671961 C120.728161,40.8161271 124.168601,37.5320709 124.168601,31.7458767 L124.168601,31.7458767 Z M111.032376,35.1863165 L104.777031,35.1863165 L104.777031,28.1490532 L111.032376,28.1490532 C113.378131,28.1490532 114.941967,29.5565058 114.941967,31.589493 C114.941967,33.7788638 113.378131,35.1863165 111.032376,35.1863165 Z M63.3353697,20.0171045 L91.6408064,20.0171045 L91.6408064,28.3054368 L81.9450215,28.3054368 L81.9450215,55.0470374 L72.874771,55.0470374 L72.874771,28.3054368 L63.3353697,28.3054368 L63.3353697,20.0171045 Z"></path>
</svg>