<?xml version="1.0" encoding="UTF-8"?>
<svg fill="#000000" viewBox="0 0 256 182" version="1.1" xmlns="http://www.w3.org/2000/svg" xmlns:xlink="http://www.w3.org/1999/xlink">
    <path d="M0,133.455738 L0,144.367213 L13.0098361,144.367213 L13.0098361,180.24918 L25.1803279,180.24918 L25.1803279,144.367213 L37.9803279,144.367213 L37.9803279,133.455738 L0,133.455738 Z M81.6262295,148.983607 C81.6262295,139.75082 75.1213115,133.455738 65.4688525,133.455738 L43.4360656,133.455738 L43.4360656,180.24918 L55.6065574,180.24918 L55.6065574,164.511475 L60.2229508,164.511475 L68.8262295,180.24918 L82.8852459,180.24918 L72.6032787,162.832787 C77.2196721,161.154098 81.6262295,156.747541 81.6262295,148.983607 L81.6262295,148.983607 Z M55.6065574,144.367213 L64.2098361,144.367213 C67.357377,144.367213 69.4557377,146.255738 69.4557377,149.193443 C69.4557377,151.921311 67.357377,154.019672 64.2098361,154.019672 L55.6065574,154.019672 L55.6065574,144.367213 Z M86.452459,180.24918 L120.445902,180.24918 L120.445902,169.547541 L98.6229508,169.547541 L98.6229508,161.993443 L120.02623,161.993443 L120.02623,151.081967 L98.6229508,151.081967 L98.6229508,144.367213 L120.445902,144.367213 L120.445902,133.455738 L86.452459,133.455738 L86.452459,180.24918 Z M161.57377,142.898361 L161.57377,133.455738 L125.691803,133.455738 L125.691803,144.367213 L145.206557,144.367213 L125.691803,171.016393 L125.691803,180.24918 L161.57377,180.24918 L161.57377,169.337705 L142.059016,169.337705 L161.57377,142.898361 Z M187.17377,132.82623 C173.114754,132.82623 162.832787,143.108197 162.832787,156.957377 C162.832787,171.016393 173.114754,181.088525 187.17377,181.088525 C201.442623,181.088525 211.72459,170.806557 211.72459,156.957377 C211.72459,142.898361 201.442623,132.82623 187.17377,132.82623 Z M187.17377,169.967213 C180.039344,169.967213 175.213115,164.511475 175.213115,156.747541 C175.213115,148.983607 180.039344,143.527869 187.17377,143.527869 C194.308197,143.527869 199.344262,148.983607 199.344262,156.747541 C199.344262,164.721311 194.308197,169.967213 187.17377,169.967213 Z M245.088525,163.042623 C249.495082,161.363934 254.111475,156.957377 254.111475,149.193443 C254.111475,139.960656 247.606557,133.665574 237.954098,133.665574 L215.921311,133.665574 L215.921311,180.459016 L228.091803,180.459016 L228.091803,164.721311 L232.708197,164.721311 L241.311475,180.459016 L255.370492,180.459016 L245.088525,163.042623 Z M227.881967,144.367213 L236.485246,144.367213 C239.632787,144.367213 241.731148,146.255738 241.731148,149.193443 C241.731148,151.921311 239.632787,154.019672 236.485246,154.019672 L227.881967,154.019672 L227.881967,144.367213 Z M147.514754,29.7967213 L147.514754,22.452459 C147.514754,10.0721311 137.022951,0 124.013115,0 C111.003279,0 100.511475,10.0721311 100.511475,22.452459 L100.511475,29.7967213 L90.8590164,29.7967213 L90.8590164,81.4163934 L124.222951,96.9442623 L157.586885,81.4163934 L157.586885,29.7967213 L147.514754,29.7967213 Z M112.472131,22.452459 C112.472131,16.7868852 117.718033,11.9606557 124.013115,11.9606557 C130.308197,11.9606557 135.554098,16.5770492 135.554098,22.452459 L135.554098,29.7967213 L112.472131,29.7967213 L112.472131,22.452459 Z M143.947541,72.8131148 L124.013115,82.0459016 L104.078689,72.8131148 L104.078689,41.9672131 L143.947541,41.9672131 L143.947541,72.8131148 Z" id="Shape"></path>
</svg>