<svg viewBox="0 0 497 85" xmlns="http://www.w3.org/2000/svg">
<path d="M203.674 26.0312H238.125V35.1817L219.388 60.8048H238.125V71.5814H203.674V62.4309L222.41 36.8101H203.674V26.0312Z" fill="currentColor"/>
<path d="M319.92 54.7016C324.148 53.0754 328.585 48.8034 328.585 41.2791C328.585 32.1286 322.339 26.2305 313.071 26.2305H291.918V71.5785H303.603V56.3277H308.042L316.302 71.5785H329.8L319.92 54.7016ZM311.66 45.7532H303.603V36.6095H311.66C314.684 36.6095 316.698 38.4401 316.698 41.0837C316.698 43.9227 314.684 45.7532 311.66 45.7532Z" fill="currentColor"/>
<path d="M263.511 25.418C249.813 25.418 240.146 35.3837 240.146 48.804C240.146 62.2242 250.013 72.1967 263.511 72.1967C277.009 72.1967 287.083 62.2332 287.083 48.8107C287.083 35.3882 277.212 25.418 263.511 25.418ZM263.511 61.6155C256.662 61.6155 252.027 56.3283 252.027 48.813C252.027 41.0865 256.662 36.0104 263.511 36.0104C270.36 36.0104 275.196 41.2976 275.196 48.813C275.196 56.3283 270.365 61.6155 263.511 61.6155Z" fill="currentColor"/>
<path d="M165.396 26.0312H198.034V36.6057H177.081V43.3169H197.431V53.687H177.081V61.0069H198.034V71.5814H165.396V26.0312Z" fill="currentColor"/>
<path d="M49.5534 19.7249C49.5534 8.94382 40.2764 0 29.0057 0C17.735 0 8.45582 8.94831 8.45582 19.7249V26.0296H0V71.3776L28.999 85L58.0159 71.3776V26.2318H49.56L49.5534 19.7249ZM18.9321 19.7249C18.9321 14.6421 23.3648 10.5745 29.0057 10.5745C34.6466 10.5745 39.0793 14.6421 39.0793 19.7249V26.0296H18.9321V19.7249ZM46.3312 64.0577L28.999 72.1974L11.6713 64.0645V36.8085H46.3312V64.0577Z" fill="currentColor"/>
<path d="M159.956 41.2791C159.956 32.1286 153.71 26.2305 144.444 26.2305H123.289V71.5785H134.974V56.3277H139.406L147.666 71.5785H161.176L151.313 54.7016C155.524 53.0754 159.956 48.8034 159.956 41.2791ZM143.045 45.7532H134.974V36.6095H143.033C146.055 36.6095 148.069 38.4401 148.069 41.0837C148.069 43.9294 146.066 45.76 143.033 45.76L143.045 45.7532Z" fill="currentColor"/>
<path d="M81.5879 26.0312H118.053V36.8101H105.562V71.5814H93.8778V36.8101H81.5879V26.0312Z" fill="currentColor"/>
<path d="M334.369 65.2537L337.68 60.9569C340.653 64.2991 345.517 67.4346 351.868 67.4346C359.908 67.4346 362.476 63.0705 362.476 59.5913C362.476 47.8624 335.791 54.34 335.791 38.1122C335.791 30.6104 342.411 25.4961 351.263 25.4961C358.161 25.4961 363.502 27.814 367.285 31.839L363.907 35.9987C360.529 32.2478 355.8 30.543 350.867 30.543C345.462 30.543 341.612 33.4741 341.612 37.7708C341.612 47.9994 368.297 42.1349 368.297 59.1084C368.297 65.7231 363.847 72.4748 351.677 72.4748C343.826 72.4815 338.085 69.483 334.369 65.2537Z" fill="currentColor"/>
<path d="M373.119 54.0017V26.1797H378.731V53.8647C378.731 62.1751 383.182 67.4354 391.499 67.4354C399.817 67.4354 404.268 62.1841 404.268 53.8647V26.1797H409.875V53.932C409.875 65.2522 403.727 72.48 391.499 72.48C379.272 72.48 373.119 65.1848 373.119 54.0017Z" fill="currentColor"/>
<path d="M417.516 71.6625V26.1797H423.123V71.6625H417.516Z" fill="currentColor"/>
<path d="M442.573 71.6625V31.2176H428.318V26.1797H462.502V31.2176H448.181V71.6467L442.573 71.6625Z" fill="currentColor"/>
<path d="M467.477 71.6625V26.1797H497.001V31.2176H473.082V45.8777H496.525V50.9246H473.082V66.6156H496.999V71.6625H467.477Z" fill="currentColor"/>
</svg>
