<svg fill="#000000" viewBox="0 0 256 66" version="1.1" xmlns="http://www.w3.org/2000/svg" xmlns:xlink="http://www.w3.org/1999/xlink">
    <path d="M157.814634,19.9804878 L184.507317,19.9804878 L184.507317,27.004878 L169.990244,46.6731707 L184.507317,46.6731707 L184.507317,54.9463415 L157.814634,54.9463415 L157.814634,47.9219512 L172.331707,28.2536585 L157.814634,28.2536585 L157.814634,19.9804878 Z M247.882927,41.9902439 C251.160976,40.7414634 254.595122,37.4634146 254.595122,31.6878049 C254.595122,24.6634146 249.756098,20.1365854 242.57561,20.1365854 L226.185366,20.1365854 L226.185366,54.9463415 L235.239024,54.9463415 L235.239024,43.2390244 L238.673171,43.2390244 L245.073171,54.9463415 L255.531707,54.9463415 L247.882927,41.9902439 Z M241.482927,35.1219512 L235.239024,35.1219512 L235.239024,28.097561 L241.482927,28.097561 C243.82439,28.097561 245.385366,29.502439 245.385366,31.5317073 C245.385366,33.7170732 243.82439,35.1219512 241.482927,35.1219512 Z M204.17561,19.5121951 C193.560976,19.5121951 186.068293,27.1609756 186.068293,37.4634146 C186.068293,47.7658537 193.717073,55.4146341 204.17561,55.4146341 C214.634146,55.4146341 222.439024,47.7658537 222.439024,37.4634146 C222.439024,27.1609756 214.790244,19.5121951 204.17561,19.5121951 Z M204.17561,47.297561 C198.868293,47.297561 195.278049,43.2390244 195.278049,37.4634146 C195.278049,31.5317073 198.868293,27.6292683 204.17561,27.6292683 C209.482927,27.6292683 213.229268,31.6878049 213.229268,37.4634146 C213.229268,43.2390244 209.482927,47.297561 204.17561,47.297561 Z M128.156098,19.9804878 L153.443902,19.9804878 L153.443902,28.097561 L137.209756,28.097561 L137.209756,33.2487805 L152.97561,33.2487805 L152.97561,41.2097561 L137.209756,41.2097561 L137.209756,46.8292683 L153.443902,46.8292683 L153.443902,54.9463415 L128.156098,54.9463415 L128.156098,19.9804878 Z M38.4,15.1414634 C38.4,6.86829268 31.2195122,0 22.4780488,0 C13.7365854,0 6.55609756,6.86829268 6.55609756,15.1414634 L6.55609756,19.9804878 L0,19.9804878 L0,54.7902439 L22.4780488,65.2487805 L44.9560976,54.7902439 L44.9560976,20.1365854 L38.4,20.1365854 L38.4,15.1414634 Z M14.6731707,15.1414634 C14.6731707,11.2390244 18.1073171,8.11707317 22.4780488,8.11707317 C26.8487805,8.11707317 30.2829268,11.2390244 30.2829268,15.1414634 L30.2829268,19.9804878 L14.6731707,19.9804878 L14.6731707,15.1414634 Z M35.902439,49.1707317 L22.4780488,55.4146341 L9.05365854,49.1707317 L9.05365854,28.2536585 L35.902439,28.2536585 L35.902439,49.1707317 Z M123.941463,31.6878049 C123.941463,24.6634146 119.102439,20.1365854 111.921951,20.1365854 L95.5317073,20.1365854 L95.5317073,54.9463415 L104.585366,54.9463415 L104.585366,43.2390244 L108.019512,43.2390244 L114.419512,54.9463415 L124.878049,54.9463415 L117.229268,41.9902439 C120.507317,40.7414634 123.941463,37.4634146 123.941463,31.6878049 L123.941463,31.6878049 Z M110.829268,35.1219512 L104.585366,35.1219512 L104.585366,28.097561 L110.829268,28.097561 C113.170732,28.097561 114.731707,29.502439 114.731707,31.5317073 C114.731707,33.7170732 113.170732,35.1219512 110.829268,35.1219512 Z M63.2195122,19.9804878 L91.4731707,19.9804878 L91.4731707,28.2536585 L81.795122,28.2536585 L81.795122,54.9463415 L72.7414634,54.9463415 L72.7414634,28.2536585 L63.2195122,28.2536585 L63.2195122,19.9804878 Z" id="Shape"></path>
</svg>