<svg width="274" height="274" viewBox="0 0 274 274" fill="none" xmlns="http://www.w3.org/2000/svg">
<path d="M26.7578 74.9219C26.7578 48.3216 48.3216 26.7578 74.9219 26.7578H199.078C225.678 26.7578 247.242 48.3216 247.242 74.9219V199.078C247.242 225.678 225.678 247.242 199.078 247.242H74.9219C48.3216 247.242 26.7578 225.678 26.7578 199.078V74.9219Z" fill="url(#paint0_linear_1_13)"/>
<g filter="url(#filter0_d_1_13)">
<path d="M173.77 96.8505C173.77 77.8512 157.187 62.0781 137 62.0781C116.813 62.0781 100.23 77.8512 100.23 96.8505V107.963H85.0898V187.904L137 211.922L188.91 187.904V108.322H173.77V96.8505ZM118.976 96.8505C118.976 87.8885 126.906 80.719 137 80.719C147.094 80.719 155.024 87.8885 155.024 96.8505V107.963H118.976V96.8505ZM168.002 174.999L137 189.338L105.998 174.999V126.963H168.002V174.999Z" fill="white"/>
</g>
<defs>
<filter id="filter0_d_1_13" x="60.0898" y="37.0781" width="153.82" height="199.844" filterUnits="userSpaceOnUse" color-interpolation-filters="sRGB">
<feFlood flood-opacity="0" result="BackgroundImageFix"/>
<feColorMatrix in="SourceAlpha" type="matrix" values="0 0 0 0 0 0 0 0 0 0 0 0 0 0 0 0 0 0 127 0" result="hardAlpha"/>
<feOffset/>
<feGaussianBlur stdDeviation="12.5"/>
<feColorMatrix type="matrix" values="0 0 0 0 0 0 0 0 0 0 0 0 0 0 0 0 0 0 0.12 0"/>
<feBlend mode="normal" in2="BackgroundImageFix" result="effect1_dropShadow_1_13"/>
<feBlend mode="normal" in="SourceGraphic" in2="effect1_dropShadow_1_13" result="shape"/>
</filter>
<linearGradient id="paint0_linear_1_13" x1="137" y1="26.7578" x2="2.53468" y2="323.464" gradientUnits="userSpaceOnUse">
<stop stop-color="#EDA727"/>
<stop offset="1" stop-color="#D68B02"/>
</linearGradient>
</defs>
</svg>
