<svg xmlns="http://www.w3.org/2000/svg" xmlns:xlink="http://www.w3.org/1999/xlink" viewBox="0 0 220.48 220.48"><defs><style>.cls-1{fill:url(#Nepojmenovaný_přechod);}.cls-2{fill:#fff;}</style><linearGradient id="Nepojmenovaný_přechod" x1="151.69" y1="203.7" x2="17.22" y2="-93.01" gradientTransform="matrix(1, 0, 0, -1, 0, 222.48)" gradientUnits="userSpaceOnUse"><stop offset="0" stop-color="#eda727"/><stop offset="1" stop-color="#d68b02"/></linearGradient></defs><g id="Vrstva_2" data-name="Vrstva 2"><g id="Vrstva_1-2" data-name="Vrstva 1"><path class="cls-1" d="M0,48.16A48.16,48.16,0,0,1,48.16,0H172.32a48.16,48.16,0,0,1,48.16,48.16V172.32a48.16,48.16,0,0,1-48.16,48.16H48.16A48.16,48.16,0,0,1,0,172.32Z"/><path class="cls-2" d="M147,70.09c0-19-16.58-34.77-36.77-34.77S73.47,51.09,73.47,70.09V81.21H58.33v79.94l51.91,24,51.91-24V81.56H147Zm-54.79,0c0-9,7.93-16.13,18-16.13s18,7.17,18,16.13V81.21H92.22Zm49,78.15-31,14.34-31-14.34v-48h62Z"/></g></g></svg>