<svg width="70" height="70" viewBox="0 0 70 70" fill="none" xmlns="http://www.w3.org/2000/svg">
<path d="M0 15.2913C0 6.84621 6.84619 0 15.2913 0H54.7088C63.1539 0 70 6.84621 70 15.2913V54.7088C70 63.1539 63.1539 70 54.7088 70H15.2913C6.84619 70 0 63.1539 0 54.7088V15.2913Z" fill="#0F6148"/>
<path d="M46.0163 21.9398C46.0163 15.9928 40.8258 11.0557 34.507 11.0557C28.1881 11.0557 22.9977 15.9928 22.9977 21.9398V25.4183H18.2585V50.4406L34.507 57.9584L50.7555 50.4406V25.5305H46.0163V21.9398ZM28.8652 21.9398C28.8652 19.1347 31.3476 16.8905 34.507 16.8905C37.6664 16.8905 40.1489 19.1347 40.1489 21.9398V25.4183H28.8652V21.9398ZM44.211 46.4011L34.507 50.8894L24.8031 46.4011V31.3653H44.211V46.4011Z" fill="white"/>
</svg>
