<svg xmlns="http://www.w3.org/2000/svg" width="140" height="140" viewBox="0 0 140 140">
    <g fill="none" fill-rule="evenodd">
        <path fill="#D8D9DA" fill-rule="nonzero" d="M61.482 117.465a6.122 6.122 0 01-5.632-3.712l-6.47-15.062a42.01 42.01 0 01-3.432-16.675V33.698a10.073 10.073 0 018.206-9.887 87.12 87.12 0 0132.07 0c4.756.897 8.201 5.048 8.207 9.887v48.349a42.028 42.028 0 01-3.438 16.696l-6.463 15.02a6.124 6.124 0 01-5.631 3.708l-17.417-.006z"/>
        <path fill="#7A7F80" fill-rule="nonzero" d="M70.19 22.77c5.351 0 10.692.497 15.952 1.482a9.61 9.61 0 017.834 9.446v48.349c0 5.68-1.157 11.301-3.402 16.52l-6.462 15.019a5.683 5.683 0 01-5.22 3.438h-17.41a5.685 5.685 0 01-5.222-3.44l-6.471-15.07a41.81 41.81 0 01-3.394-16.498V33.698a9.61 9.61 0 017.835-9.446 86.68 86.68 0 0115.96-1.482m0-.895a87.706 87.706 0 00-16.117 1.497A10.52 10.52 0 0045.5 33.698v48.318a42.442 42.442 0 003.467 16.859l6.471 15.055a6.575 6.575 0 006.044 3.982h17.417a6.57 6.57 0 006.043-3.98l6.463-15.019A42.431 42.431 0 0094.88 82.04V33.691a10.52 10.52 0 00-8.573-10.319 87.706 87.706 0 00-16.119-1.497z"/>
        <rect width="39.393" height="22.028" x="50.494" y="45.519" fill="#BEBDC0" fill-rule="nonzero" rx="2.66"/>
        <rect width="16.559" height="8.736" x="50.158" y="71.829" fill="#D8D9DA" fill-rule="nonzero" rx="2.09"/>
        <path fill="#7A7F80" fill-rule="nonzero" d="M64.889 72.164c.824 0 1.493.669 1.493 1.493v5.073a1.493 1.493 0 01-1.493 1.493H51.99a1.493 1.493 0 01-1.497-1.493v-5.073a1.49 1.49 0 011.497-1.493H64.89m0-.671H51.99a2.167 2.167 0 00-2.164 2.165v5.072a2.167 2.167 0 002.164 2.17H64.89a2.167 2.167 0 002.164-2.17v-5.073a2.167 2.167 0 00-2.164-2.164z"/>
        <rect width="16.559" height="8.736" x="73.661" y="71.829" fill="#D8D9DA" fill-rule="nonzero" rx="2.09"/>
        <path fill="#7A7F80" fill-rule="nonzero" d="M88.392 72.165a1.49 1.49 0 011.493 1.492v5.073a1.493 1.493 0 01-1.493 1.493H75.494a1.493 1.493 0 01-1.493-1.493v-5.073c0-.824.669-1.492 1.493-1.492h12.902m0-.672H75.494a2.167 2.167 0 00-2.164 2.165v5.072a2.167 2.167 0 002.164 2.17h12.902a2.167 2.167 0 002.165-2.164v-5.079a2.167 2.167 0 00-2.165-2.164z"/>
        <path fill="#000" fill-rule="nonzero" d="M87.559 45.071H52.822a2.776 2.776 0 00-2.776 2.776v17.372a2.776 2.776 0 002.776 2.775h34.737a2.776 2.776 0 002.776-2.775V47.847a2.776 2.776 0 00-2.776-2.776zm-34.737.896h34.737a1.88 1.88 0 011.88 1.88v17.372a1.88 1.88 0 01-1.88 1.88H52.822a1.88 1.88 0 01-1.88-1.88V47.847a1.88 1.88 0 011.88-1.88z"/>
        <path fill="#FFF" fill-rule="nonzero" d="M48.848 28.095L54.005 28.095 54.005 30.477 48.848 30.477z" transform="rotate(-45 51.426 29.286)"/>
        <path fill="#FFF" fill-rule="nonzero" d="M87.559 67.099L87.559 68.099 52.819 68.099 52.819 67.099zM64.889 71.829L64.889 72.596 51.987 72.596 51.987 71.829zM88.392 71.829L88.392 72.596 75.49 72.596 75.49 71.829z"/>
        <path fill="#FFF" fill-rule="nonzero" d="M70.19 23.89c5.282.001 10.553.49 15.746 1.461a8.506 8.506 0 016.928 8.347v48.349a40.43 40.43 0 01-3.313 16.076l-6.46 15.022a4.563 4.563 0 01-4.192 2.76H61.482a4.56 4.56 0 01-4.192-2.763l-6.472-15.068a40.468 40.468 0 01-3.303-16.058V33.698a8.506 8.506 0 016.938-8.347A85.833 85.833 0 0170.19 23.89m0-1.12a86.68 86.68 0 00-15.96 1.482 9.61 9.61 0 00-7.834 9.446v48.318a41.81 41.81 0 003.394 16.499l6.47 15.062a5.685 5.685 0 005.223 3.44h17.417a5.683 5.683 0 005.22-3.438l6.462-15.02a41.798 41.798 0 003.402-16.519V33.691a9.61 9.61 0 00-7.834-9.446 86.675 86.675 0 00-15.96-1.475z"/>
        <path fill="#D8D9DA" fill-rule="nonzero" d="M58.08 115.887a5.67 5.67 0 003.402 1.134h17.417a5.683 5.683 0 005.22-3.438l6.462-15.02a41.798 41.798 0 003.402-16.518L58.08 115.887z"/>
        <path fill="#FFF" fill-rule="nonzero" d="M54.23 27.509a86.582 86.582 0 0131.905 0c3.427.642 6.716 3.087 6.716 6.19h1.119a9.61 9.61 0 00-7.835-9.447 86.582 86.582 0 00-31.905 0 9.61 9.61 0 00-7.835 9.446h1.12c0-3.131 3.292-5.556 6.715-6.189z"/>
        <path fill="#D8D9DA" fill-rule="nonzero" d="M61.482 117.465a6.122 6.122 0 01-5.632-3.712l-6.47-15.062a42.01 42.01 0 01-3.432-16.675V33.698a10.073 10.073 0 018.206-9.887 87.12 87.12 0 0132.07 0c4.756.897 8.201 5.048 8.207 9.887v48.349a42.028 42.028 0 01-3.438 16.696l-6.463 15.02a6.124 6.124 0 01-5.631 3.708l-17.417-.006z"/>
        <path fill="#7A7F80" fill-rule="nonzero" d="M70.19 22.77c5.351 0 10.692.497 15.952 1.482a9.61 9.61 0 017.834 9.446v48.349c0 5.68-1.157 11.301-3.402 16.52l-6.462 15.019a5.683 5.683 0 01-5.22 3.438h-17.41a5.685 5.685 0 01-5.222-3.44l-6.471-15.07a41.81 41.81 0 01-3.394-16.498V33.698a9.61 9.61 0 017.835-9.446 86.68 86.68 0 0115.96-1.482m0-.895a87.706 87.706 0 00-16.117 1.497A10.52 10.52 0 0045.5 33.698v48.318a42.442 42.442 0 003.467 16.859l6.471 15.055a6.575 6.575 0 006.044 3.982h17.417a6.57 6.57 0 006.043-3.98l6.463-15.019A42.431 42.431 0 0094.88 82.04V33.691a10.52 10.52 0 00-8.573-10.319 87.706 87.706 0 00-16.119-1.497z"/>
        <path fill="#FFF" fill-rule="nonzero" d="M87.45 68.912H52.926a2.433 2.433 0 01-2.433-2.435v-1.258h39.395v1.258a2.435 2.435 0 01-2.44 2.435z"/>
        <rect width="38.498" height="21.132" x="50.941" y="45.967" fill="#C6E2BA" fill-rule="nonzero" rx="2.149"/>
        <path fill="#7A7F80" fill-rule="nonzero" d="M87.559 46.414c.79.002 1.43.643 1.43 1.433v17.372c0 .79-.64 1.431-1.43 1.432h-34.74a1.433 1.433 0 01-1.43-1.432V47.84c0-.79.64-1.431 1.43-1.432h34.74m0-.896h-34.74a2.326 2.326 0 00-2.325 2.328v17.372a2.328 2.328 0 002.325 2.326h34.74a2.328 2.328 0 002.326-2.328V47.84a2.326 2.326 0 00-2.326-2.328z"/>
        <path fill="#FFF" fill-rule="nonzero" d="M50.494 72.165H66.382V73.521H50.494zM73.997 72.165H89.885V73.521H73.997z"/>
        <path fill="#7A7F80" fill-rule="nonzero" d="M64.889 72.164c.824 0 1.493.669 1.493 1.493v5.073a1.493 1.493 0 01-1.493 1.493H51.99a1.493 1.493 0 01-1.497-1.493v-5.073a1.49 1.49 0 011.497-1.493H64.89m0-.671H51.99a2.167 2.167 0 00-2.164 2.165v5.072a2.167 2.167 0 002.164 2.17H64.89a2.167 2.167 0 002.164-2.17v-5.073a2.167 2.167 0 00-2.164-2.164zM88.392 72.165a1.49 1.49 0 011.493 1.492v5.073a1.493 1.493 0 01-1.493 1.493H75.494a1.493 1.493 0 01-1.493-1.493v-5.073c0-.824.669-1.492 1.493-1.492h12.902m0-.672H75.494a2.167 2.167 0 00-2.164 2.165v5.072a2.167 2.167 0 002.164 2.17h12.902a2.167 2.167 0 002.165-2.164v-5.079a2.167 2.167 0 00-2.165-2.164z"/>
        <path fill="#FFF" fill-rule="nonzero" d="M48.848 27.791L54.005 27.791 54.005 30.781 48.848 30.781z" transform="rotate(-45 51.426 29.286)"/>
        <path fill="#FFF" fill-rule="nonzero" d="M70.19 23.89c5.282.001 10.553.49 15.746 1.461a8.506 8.506 0 016.928 8.347v48.349a40.43 40.43 0 01-3.313 16.076l-6.46 15.022a4.563 4.563 0 01-4.192 2.76H61.482a4.56 4.56 0 01-4.192-2.763l-6.472-15.068a40.468 40.468 0 01-3.303-16.058V33.698a8.506 8.506 0 016.938-8.347A85.833 85.833 0 0170.19 23.89m0-1.12a86.68 86.68 0 00-15.96 1.482 9.61 9.61 0 00-7.834 9.446v48.318a41.81 41.81 0 003.394 16.499l6.47 15.062a5.685 5.685 0 005.223 3.44h17.417a5.683 5.683 0 005.22-3.438l6.462-15.02a41.798 41.798 0 003.402-16.519V33.691a9.61 9.61 0 00-7.834-9.446 86.675 86.675 0 00-15.96-1.475z"/>
        <path fill="#D8D9DA" fill-rule="nonzero" d="M58.08 115.887a5.67 5.67 0 003.402 1.134h17.417a5.683 5.683 0 005.22-3.438l6.462-15.02a41.798 41.798 0 003.402-16.518L58.08 115.887z"/>
        <path fill="#FFF" fill-rule="nonzero" d="M54.23 27.509a86.582 86.582 0 0131.905 0c3.427.642 6.716 3.087 6.716 6.19h1.119a9.61 9.61 0 00-7.835-9.447 86.582 86.582 0 00-31.905 0 9.61 9.61 0 00-7.835 9.446h1.12c0-3.131 3.292-5.556 6.715-6.189z"/>
        <path fill="#E1EEDC" fill-rule="nonzero" d="M88.542 65.076v-16.34l-17.46 17.459h16.34a1.12 1.12 0 001.12-1.12z"/>
        <path fill="#6DBC47" fill-rule="nonzero" d="M83.125 52.5L56 52.5 56 60.375 83.125 60.375z"/>
        <path fill="#FFF" fill-rule="nonzero" d="M82.25 53.375L82.25 59.5 56.875 59.5 56.875 53.375z"/>
        <path fill="#C6E2BA" fill-rule="nonzero" d="M57.75 54.25H70.875V58.625H57.75z"/>
        <g>
            <path fill="#FFF" d="M10.05 37.085C7.716 30.377 6.695 24.252 6.987 18.71c.292-5.542 2.917-9.042 7.875-10.5 5.25-1.167 9.188 0 11.813 3.5s5.395 8.75 8.312 15.75c2.042 4.375 3.646 7.292 4.813 8.75 1.75 2.187 2.625 4.375 3.062 6.562.292 1.459 1.021 3.646 2.188 6.563 8.45 13.753 13.116 21.045 14 21.875 1.325 1.245-32.6 12.261-35.655 1.245-2.443-8.804-4.644-16.704-5.033-17.87-.875-2.625-1.312-3.5-2.625-5.25-.875-1.167-1.896-3.208-3.062-6.125l-2.625-6.125z" transform="translate(63.875 57.75)"/>
            <path fill="#8FCB7F" fill-rule="nonzero" d="M12.62 7.805c2.551-1.145 5.934-1.477 8.592-.82 2.615.645 4.902 2.576 6.541 5.244l.374.615c.9 1.5 1.731 3.02 3.046 5.529l1.06 2.044c.42.825.83 1.663 1.342 2.732l2.804 5.945c.272.57.512 1.064.748 1.542l.499 1.001.121.147c.36.448.744.99 1.15 1.617l.205.32c.402.639.821 1.351 1.252 2.124.521.934 1.04 1.92 1.542 2.917l.53 1.07.536 1.118.106.23.05.151.89 4.16.355.804.185.409c.464 1.02.999 2.158 1.597 3.383 1.71 3.501 3.586 7.001 5.566 10.265 2.57 4.233 5.12 7.742 7.583 10.281l.32.326-1.027 1.028c-2.657-2.658-5.382-6.373-8.118-10.881-2.006-3.305-3.902-6.843-5.63-10.38a142.17 142.17 0 01-1.195-2.508l-.515-1.125-.485-1.092-.043-.135-.887-4.153-.175-.373c-.128-.269-.268-.56-.42-.87l-.154-.317a80.41 80.41 0 00-1.88-3.6 44.995 44.995 0 00-1.213-2.057c-.46-.73-.886-1.342-1.27-1.818l-.143-.172-.093-.142-.453-.903c-.267-.54-.534-1.09-.842-1.735l-2.804-5.942a108.824 108.824 0 00-1.817-3.655l-.736-1.408c-1.375-2.618-2.205-4.115-3.199-5.731-1.455-2.368-3.448-4.05-5.651-4.595-2.34-.578-5.39-.278-7.65.735-3.773 1.696-5.672 3.941-5.922 9.135-.25 5.34.373 9.905 1.906 14.855l.314.98c.913 2.787 1.739 4.823 4.283 10.741l.307.715 4.028 6.125 2.136 7.926 1.73 6.373c.72 2.64.868 3.462 1.569 6.007l-1.256.638c-.848-3.084-1.713-6.253-2.58-9.444l-2.942-10.896-3.932-5.98-.06-.112-1.504-3.51c-1.768-4.158-2.458-5.953-3.28-8.496-1.728-5.352-2.44-10.247-2.17-15.991.279-5.808 2.548-8.49 6.779-10.391z" transform="translate(63.875 57.75)"/>
            <path fill="#C6E2BA" fill-rule="nonzero" d="M26.561 20.452l-.02.969a19.34 19.34 0 00-12.95 4.604c-.328.28-.494.486-.533.668l-.008.068-.968-.043c.024-.553.318-.95.88-1.43a20.31 20.31 0 0113.173-4.84l.426.004z" transform="translate(63.875 57.75)"/>
            <path fill="#8FCB7F" fill-rule="nonzero" d="M9.617 16.35a24.981 24.981 0 002.725 9.567c.205.458.503.868.829 1.165.404.28.867.464 1.37.54l.218.026c3.722.538 7.666-.416 10.986-2.59 1.218-.798 2.224-2.115 2.477-3.319l.034-.189.959.139c-.225 1.556-1.442 3.198-2.939 4.18-3.512 2.3-7.693 3.31-11.628 2.741a4.226 4.226 0 01-2.077-.769 4.509 4.509 0 01-1.102-1.504A25.902 25.902 0 018.7 16.97l-.048-.545.966-.074zM31.257 33.348l.406.88c-.612.283-1.162.396-2.132.476l-1.26.093-.08.008c-3.064.31-5.826 1.791-9.487 4.707l-.37.296-.609-.753c3.982-3.221 6.966-4.87 10.368-5.214l.347-.03.983-.07c.808-.066 1.27-.153 1.721-.343l.113-.05zM32.668 35.704l.845.475a4.55 4.55 0 01-2.215 1.97c-.292.13-.702.219-1.28.302l-1.092.142-.609.096-1.605.276-.474.073-.145-.958.464-.072 1.603-.275.622-.098c.136-.02.888-.113 1.099-.143.492-.07.84-.146 1.035-.233a3.59 3.59 0 001.64-1.368l.112-.187z" transform="translate(63.875 57.75)"/>
        </g>
    </g>
</svg>
