<svg viewBox="0 0 40 16" xmlns="http://www.w3.org/2000/svg">
    <path fill-rule="evenodd" clip-rule="evenodd" d="M32.2929 9.29289C32.6834 8.90237 33.3166 8.90237 33.7071 9.29289L36 11.5858L38.2929 9.29289C38.6834 8.90237 39.3166 8.90237 39.7071 9.29289C40.0976 9.68342 40.0976 10.3166 39.7071 10.7071L36.7071 13.7071C36.3166 14.0976 35.6834 14.0976 35.2929 13.7071L32.2929 10.7071C31.9024 10.3166 31.9024 9.68342 32.2929 9.29289Z" />
    <path fill-rule="evenodd" clip-rule="evenodd" d="M9.5 4C9.5 3.44772 9.94772 3 10.5 3H36C36.5523 3 37 3.44772 37 4V13C37 13.5523 36.5523 14 36 14C35.4477 14 35 13.5523 35 13V5H10.5C9.94772 5 9.5 4.55228 9.5 4Z" />
    <path d="M2 4C2 4.55228 1.55228 5 1 5C0.447715 5 0 4.55228 0 4C0 3.44772 0.447715 3 1 3C1.55228 3 2 3.44772 2 4Z" />
    <path d="M5 4C5 4.55228 4.55228 5 4 5C3.44772 5 3 4.55228 3 4C3 3.44772 3.44772 3 4 3C4.55228 3 5 3.44772 5 4Z" />
    <path d="M8 4C8 4.55228 7.55228 5 7 5C6.44772 5 6 4.55228 6 4C6 3.44772 6.44772 3 7 3C7.55228 3 8 3.44772 8 4Z" />
</svg>
