<svg viewBox="0 0 40 16" xmlns="http://www.w3.org/2000/svg">
    <path d="M2 1C2 1.55228 1.55228 2 1 2C0.447715 2 0 1.55228 0 1C0 0.447715 0.447715 0 1 0C1.55228 0 2 0.447715 2 1Z" />
    <path d="M1 5C1.55228 5 2 4.55228 2 4C2 3.44772 1.55228 3 1 3C0.447715 3 0 3.44772 0 4C0 4.55228 0.447715 5 1 5Z" />
    <path d="M35.2929 13.7071C34.9024 13.3166 34.9024 12.6834 35.2929 12.2929L36.5858 11H1C0.447715 11 0 10.5523 0 10C0 9.44771 0.447715 9 1 9H36.5858L35.2929 7.70711C34.9024 7.31658 34.9024 6.68342 35.2929 6.29289C35.6834 5.90237 36.3166 5.90237 36.7071 6.29289L39.7071 9.29289C40.0976 9.68342 40.0976 10.3166 39.7071 10.7071L36.7071 13.7071C36.3166 14.0976 35.6834 14.0976 35.2929 13.7071Z" />
    <path d="M1 8C1.55228 8 2 7.55228 2 7C2 6.44772 1.55228 6 1 6C0.447715 6 0 6.44772 0 7C0 7.55228 0.447715 8 1 8Z" />
</svg>
