<svg viewBox="0 0 14 14" xmlns="http://www.w3.org/2000/svg">
    <path d="M1.93777e-08 2.625L0 1L1.625 1V2.625H1.93777e-08Z" />
    <path d="M5.8134e-08 5.875L3.87572e-08 4.25H1.625V5.875H5.8134e-08Z" />
    <path d="M7.75117e-08 7.5L9.68894e-08 9.125H1.625V7.5H7.75117e-08Z" />
    <path d="M3.25 9.125V7.5H4.875V9.125H3.25Z" />
    <path d="M6.5 7.5V9.125H8.125V7.5H6.5Z" />
    <path d="M8.125 5.875V4.25H9.75V5.875H11.375V7.5H13V9.125H11.375V10.75H9.75V12.375H8.125V10.75H9.75V9.125H11.375V7.5H9.75V5.875H8.125Z" />
</svg>
