<svg viewBox="0 0 24 24" xmlns="http://www.w3.org/2000/svg" xml:space="preserve" style="fill-rule:evenodd;clip-rule:evenodd;stroke-linejoin:round;stroke-miterlimit:2"><path d="M11.608 2.04a2.854 2.854 0 0 0-2.147 1.522c-.238.466-.319.799-.318 1.318 0 .52.066.822.272 1.241.276.561.729 1.02 1.293 1.309l.292.15v1.94H9.49l-1.51.001-.206.118c-.471.27-.646.832-.405 1.301.12.233.223.335.471.465.178.094.193.095 1.67.108l1.49.013v6.353l-.27-.166c-.7-.43-1.253-.597-2.299-.693a9.603 9.603 0 0 1-1.031-.146 3.367 3.367 0 0 1-1.688-.988c-.569-.615-.849-1.27-.952-2.225-.051-.477-.167-.761-.375-.92a1.016 1.016 0 0 0-1.393.13c-.204.227-.247.416-.217.949.103 1.78 1.018 3.334 2.545 4.322.799.516 1.673.784 2.801.857.682.044.843.083 1.349.326.338.162.462.248.702.488.47.47.748 1.095.825 1.853.041.407.122.603.329.802a.992.992 0 0 0 1.348 0c.209-.201.279-.38.346-.894.074-.571.099-.654.333-1.111.268-.525.633-.877 1.177-1.138.51-.245.666-.282 1.375-.327.896-.056 1.563-.23 2.305-.6.574-.286.798-.447 1.323-.957.567-.549.793-.842 1.082-1.401a5.38 5.38 0 0 0 .611-2.24c.029-.511-.017-.705-.218-.929a1.016 1.016 0 0 0-1.393-.13c-.208.159-.324.443-.376.92-.086.785-.237 1.226-.613 1.792a3.438 3.438 0 0 1-2 1.423c-.167.044-.561.1-.875.125-1.191.093-1.796.271-2.532.741l-.219.14v-6.356l1.49-.013c1.477-.013 1.492-.014 1.67-.108.248-.13.351-.232.471-.465.241-.469.066-1.031-.405-1.301l-.206-.118-1.51-.001H13v-.97l.001-.97.298-.157a2.916 2.916 0 0 0 1.488-1.863c.106-.398.096-1.06-.022-1.44-.257-.835-.767-1.445-1.505-1.803a2.851 2.851 0 0 0-1.652-.277m.763 2.064c.509.257.641.851.291 1.31-.128.168-.463.346-.651.346-.161 0-.381-.087-.555-.22-.285-.218-.39-.72-.219-1.054a.858.858 0 0 1 1.134-.382"/></svg>