<svg width="100%" height="100%" viewBox="0 0 24 24" version="1.1" xmlns="http://www.w3.org/2000/svg" xmlns:xlink="http://www.w3.org/1999/xlink" xml:space="preserve" xmlns:serif="http://www.serif.com/" style="fill-rule:evenodd;clip-rule:evenodd;stroke-linejoin:round;stroke-miterlimit:2;">
    <path d="M11,7.571L11,9.5L8.25,9.5C7.698,9.5 7.25,9.948 7.25,10.5C7.25,11.052 7.698,11.5 8.25,11.5L11,11.5L11,17.877C10.202,17.31 9.242,17 8.25,17C7.322,17 6.432,16.631 5.775,15.975C5.119,15.318 4.75,14.429 4.75,13.5C4.75,12.948 4.302,12.5 3.75,12.5C3.198,12.5 2.75,12.948 2.75,13.5C2.75,14.959 3.329,16.358 4.361,17.389C5.392,18.421 6.792,19 8.25,19C8.98,19 9.678,19.29 10.195,19.805C10.71,20.322 11,21.02 11,21.75C11,22.302 11.448,22.75 12,22.75C12.552,22.75 13,22.302 13,21.75C13,21.75 13.001,21.682 13.001,21.682C13.018,20.977 13.306,20.305 13.805,19.805C14.322,19.29 15.02,19 15.75,19C17.209,19 18.608,18.421 19.639,17.389C20.671,16.358 21.25,14.959 21.25,13.5C21.25,12.948 20.802,12.5 20.25,12.5C19.698,12.5 19.25,12.948 19.25,13.5C19.25,14.429 18.881,15.318 18.225,15.975C17.568,16.631 16.679,17 15.75,17C14.758,17 13.798,17.31 13,17.877L13,11.5L15.75,11.5C16.302,11.5 16.75,11.052 16.75,10.5C16.75,9.948 16.302,9.5 15.75,9.5L13,9.5L13,7.571C14.095,7.165 14.875,6.111 14.875,4.875C14.875,3.286 13.587,2 12,2C10.411,2 9.125,3.288 9.125,4.875C9.125,6.112 9.905,7.165 11,7.571ZM12,5.75C11.517,5.75 11.125,5.358 11.125,4.875C11.125,4.392 11.517,4 12,4C12.483,4 12.875,4.392 12.875,4.875C12.875,5.358 12.483,5.75 12,5.75Z" />
</svg>
