<svg width="16" height="16" viewBox="0 0 16 16" fill="none" xmlns="http://www.w3.org/2000/svg">
<g id="app">
<g id="Union">
<path d="M4.25 6C4.66421 6 5 5.66421 5 5.25C5 4.83579 4.66421 4.5 4.25 4.5C3.83579 4.5 3.5 4.83579 3.5 5.25C3.5 5.66421 3.83579 6 4.25 6Z" />
<path d="M7.5 5.25C7.5 5.66421 7.16421 6 6.75 6C6.33579 6 6 5.66421 6 5.25C6 4.83579 6.33579 4.5 6.75 4.5C7.16421 4.5 7.5 4.83579 7.5 5.25Z" />
<path fill-rule="evenodd" clip-rule="evenodd" d="M1.25 3.5C1.25 2.80964 1.80964 2.25 2.5 2.25H13.5C14.1904 2.25 14.75 2.80964 14.75 3.5V12.5C14.75 13.1904 14.1904 13.75 13.5 13.75H2.5C1.80964 13.75 1.25 13.1904 1.25 12.5V3.5ZM2.75 3.75V12.25H13.25V3.75H2.75Z" />
</g>
</g>
</svg>
