<svg xmlns="http://www.w3.org/2000/svg" viewBox="1.25 0.27 13.49 15.49"><path d="M2.088 2.318c-.29.105-.557.334-.687.589-.157.306-.148-.02-.148 5.093 0 4.23.004 4.698.043 4.828.141.475.514.818.982.903.223.041 11.221.041 11.444 0 .468-.085.841-.428.982-.903.039-.13.043-.598.043-4.828 0-5.132.01-4.783-.154-5.106-.094-.186-.332-.409-.554-.521l-.186-.093-5.813-.006c-5.62-.005-5.818-.004-5.952.044m11.165 5.695v4.254l-5.246-.007-5.247-.007-.007-4.246-.006-4.247h10.506v4.253m-9-3.483c-.382.101-.67.428-.74.841-.108.628.504 1.231 1.131 1.115.341-.064.618-.268.763-.565.065-.131.073-.178.073-.415 0-.248-.006-.28-.088-.445a.947.947 0 0 0-.845-.545 1.51 1.51 0 0 0-.294.014m2.427.025a.996.996 0 0 0-.576 1.376c.174.355.5.558.896.558a.895.895 0 0 0 .666-.253A1 1 0 0 0 7.8 4.9a1.115 1.115 0 0 0-.508-.355 1.175 1.175 0 0 0-.612.01" fill-rule="evenodd"/></svg>