<svg xmlns="http://www.w3.org/2000/svg" viewBox="0 0 24 24" fill-rule="evenodd"><path d="M3.34 3.814c-.423.123-.82.481-.984.887l-.096.239v14.12l.096.239c.168.417.588.787 1.015.895.265.066 16.993.066 17.258 0 .427-.108.847-.478 1.015-.895l.096-.239V4.94l-.096-.239c-.168-.417-.588-.787-1.015-.895-.264-.066-17.059-.058-17.289.008M20.24 12v6.76H3.76V5.24h16.48V12M5.954 7.041c-.191.101-.409.359-.468.553a.96.96 0 0 0 .543 1.152c.326.137.857.001 1.061-.272.172-.231.205-.326.205-.594-.001-.402-.205-.716-.564-.866-.191-.08-.601-.066-.777.027m3.688.046a.925.925 0 1 0 1.271 1.271c.124-.204.131-.238.12-.521-.015-.357-.127-.566-.4-.747-.139-.091-.219-.112-.47-.123-.283-.011-.317-.004-.521.12" /></svg>