<svg xmlns="http://www.w3.org/2000/svg" fill-rule="evenodd" stroke-linejoin="round" stroke-miterlimit="2" clip-rule="evenodd" viewBox="0 0 24 24"><path d="M7.31 6.064c-.251.077-.243.069-2.91 2.909-1.65 1.758-2.269 2.442-2.329 2.577a.907.907 0 0 0 .036.741c.04.077 1.158 1.293 2.485 2.702 2.574 2.733 2.558 2.719 2.974 2.759.535.051.915-.299.913-.841a1 1 0 0 0-.076-.371c-.046-.096-.752-.876-1.776-1.96l-1.7-1.8 8.227-.02c7.965-.019 8.231-.022 8.378-.096.265-.131.469-.477.467-.793-.001-.304-.204-.624-.498-.785-.111-.061-.787-.068-8.344-.086l-8.224-.02L6.61 9.201c.923-.978 1.712-1.847 1.755-1.93a.954.954 0 0 0 .06-.721c-.133-.458-.578-.651-1.115-.486"/></svg>