<svg viewBox="0 0 20 20" fill-rule="evenodd" xmlns="http://www.w3.org/2000/svg"><path d="M16.678 2.401c-.271.054-.418.169-.496.388-.068.19-.068 14.232 0 14.422.098.276.31.398.692.398.352 0 .538-.092.658-.326l.085-.165V2.882l-.085-.165a.46.46 0 0 0-.233-.238 1.06 1.06 0 0 0-.621-.078M8.473 3.662a1.298 1.298 0 0 0-.443.444.612.612 0 0 0 .006.544c.042.08.967 1.032 2.308 2.375l2.239 2.242H7.417c-4.943.001-5.173.004-5.3.062a.724.724 0 0 0-.191.126c-.228.256-.211.906.029 1.119.188.167-.075.159 5.469.159h5.159l-2.239 2.242c-1.341 1.343-2.266 2.295-2.308 2.375-.136.259-.071.539.186.795.258.258.545.323.821.185.094-.048 1.104-1.03 3.057-2.975 3.098-3.086 3.064-3.048 3.064-3.355 0-.307.034-.269-3.064-3.355C10.147 4.7 9.137 3.718 9.043 3.67c-.172-.086-.417-.09-.57-.008" /></svg>