<svg viewBox="0 0 24 24" xmlns="http://www.w3.org/2000/svg"><path d="M7.08 4.363c-.244.109-4.827 4.687-4.96 4.954-.102.204-.12.537-.042.783.042.131.477.587 2.436 2.553 1.382 1.386 2.453 2.429 2.546 2.479.224.12.655.12.884-.001.469-.247.671-.867.436-1.335-.038-.075-.949-1.018-2.024-2.097l-1.955-1.96 1.958-1.958c2.18-2.18 2.148-2.14 2.111-2.601-.022-.279-.093-.437-.278-.622a1.021 1.021 0 0 0-1.112-.195m4.52-.02c-.089.039-1.015.935-2.55 2.469C7.119 8.741 6.626 9.254 6.574 9.39c-.094.247-.058.662.076.871.056.088 1.161 1.215 2.456 2.505 2.268 2.261 2.362 2.349 2.571 2.41.269.079.375.08.626.005.387-.115.667-.502.667-.922 0-.431-.026-.464-1.606-2.039-.794-.792-1.444-1.456-1.444-1.475 0-.063 2.764 0 3.24.074 3.19.492 5.745 2.772 6.582 5.872.144.534.215 1.007.256 1.696.041.694.097.872.342 1.088.205.179.373.245.629.245.307-.001.478-.061.681-.24.277-.244.325-.399.316-1.033-.06-4.352-3.209-8.292-7.486-9.368-1.018-.255-1.679-.319-3.339-.319H9.902l1.445-1.45c.971-.975 1.473-1.508 1.533-1.628a1.09 1.09 0 0 0 .012-.845 1.111 1.111 0 0 0-.518-.502c-.173-.072-.597-.068-.774.008" fill-rule="evenodd"/></svg>
