<?xml version="1.0" encoding="UTF-8"?>
<svg width="160px" height="256px" fill="#000000" viewBox="0 0 160 256" version="1.1" xmlns="http://www.w3.org/2000/svg" xmlns:xlink="http://www.w3.org/1999/xlink">
    <path d="M6.816,-29.2006979 C2.528,-33.2646979 2.84217094e-14,-38.8486979 2.84217094e-14,-44.7206979 C0.144,-50.5926979 2.528,-56.3206979 6.832,-60.2406979 L120.352,-164.624698 C128.816,-172.304698 141.872,-171.712698 149.44,-163.120698 C157.152,-154.688698 156.416,-141.424698 148.112,-133.600698 L51.36,-44.7206979 L153.312,49.5833021 C157.312,53.3433021 159.696,58.6233021 159.984,64.1913021 C160.288,69.9193021 158.352,75.0393021 154.64,79.2473021 C146.912,87.6953021 133.856,88.2873021 125.536,80.6073021 L6.816,-29.2006979 Z" id="Path" transform="translate(80, 128) rotate(-180.000000) translate(-80.007545, 42.001280)"></path>
</svg>