<svg width="24" height="24" fill="none" xmlns="http://www.w3.org/2000/svg">
    <path d="M11.14 2.807c-1.442.131-2.992.68-4.215 1.492-.622.412-1.009.746-2.015 1.737l-.95.935-.001-1.155c0-.636-.017-1.224-.036-1.308-.09-.386-.37-.592-.841-.619-.371-.022-.6.036-.785.199-.29.255-.274.105-.303 2.792-.014 1.331-.028 2.47-.029 2.53-.005.157.142.509.268.645.147.158.509.316.707.309.088-.004 1.231-.019 2.54-.035 2.357-.029 2.382-.03 2.547-.118.291-.156.425-.439.422-.894-.002-.31-.098-.568-.274-.732-.214-.2-.399-.225-1.672-.227L5.34 8.356l.9-.882c.991-.972 1.361-1.288 1.9-1.624A7.112 7.112 0 0 1 12 4.754c1.899.001 3.528.642 4.98 1.961.407.37.61.485.854.485.459 0 1.02-.557 1.024-1.017.002-.289-.102-.467-.496-.849-1.896-1.838-4.556-2.769-7.222-2.527m9.767 10.82c-.019.018-1.099.042-2.4.053-2.366.02-2.367.02-2.537.111-.22.118-.357.33-.404.629-.065.413.033.784.264 1 .209.195.4.22 1.667.22h1.162l-.953.926a36.855 36.855 0 0 1-1.159 1.096c-.739.605-1.804 1.134-2.767 1.375a6.745 6.745 0 0 1-1.78.209 6.905 6.905 0 0 1-3.1-.685c-.704-.328-1.218-.678-1.88-1.277-.408-.369-.611-.484-.854-.484-.318 0-.756.316-.95.685-.095.182-.094.496.002.692.225.455 1.493 1.466 2.507 1.998 3.253 1.706 7.182 1.315 10.074-1.003.187-.15.767-.693 1.29-1.207l.951-.936.001 1.156c0 .635.017 1.223.036 1.307.09.386.37.592.841.619.373.022.6-.036.788-.202.282-.247.271-.146.3-2.809.014-1.32.027-2.45.029-2.51.005-.157-.142-.509-.268-.645-.18-.194-.768-.411-.86-.318" fill-rule="evenodd" />
</svg>