<svg viewBox="0 0 24 24" xmlns="http://www.w3.org/2000/svg" fill-rule="evenodd"><path d="M11.339 2.282c-2.031.13-4.051.95-5.639 2.29-1.744 1.471-2.941 3.588-3.318 5.87a10.703 10.703 0 0 0 0 3.116 9.806 9.806 0 0 0 3.538 6.048 9.735 9.735 0 0 0 8.5 1.826 9.928 9.928 0 0 0 3.88-2.004A9.743 9.743 0 0 0 19.606 5.92a9.429 9.429 0 0 0-2.242-2.043 9.883 9.883 0 0 0-3.806-1.495c-.344-.057-1.459-.148-1.658-.135l-.561.035m1.755 1.538a8.106 8.106 0 0 1 4.64 2.258c1.14 1.108 1.887 2.394 2.269 3.908.312 1.235.319 2.728.02 3.954a8.09 8.09 0 0 1-2.101 3.794c-1.108 1.14-2.394 1.887-3.908 2.269a8.575 8.575 0 0 1-4.029 0A8.328 8.328 0 0 1 6.8 18.411C6.409 18.095 5.716 17.38 5.431 17c-1.12-1.495-1.671-3.145-1.671-5 0-1.858.55-3.503 1.671-5 .285-.38.978-1.095 1.369-1.411a8.402 8.402 0 0 1 4.065-1.767c.546-.074 1.669-.075 2.229-.002M10.62 7.903a1.135 1.135 0 0 0-.468.49c-.107.237-.069.446.122.658.08.089.834.782 1.676 1.539.842.758 1.53 1.393 1.53 1.41 0 .017-.688.652-1.53 1.41-.842.757-1.596 1.45-1.676 1.539-.279.31-.232.662.133.99.335.301.62.287.999-.049 1.534-1.363 3.803-3.431 3.876-3.532.138-.195.152-.498.031-.678-.136-.2-3.98-3.662-4.176-3.759-.194-.097-.354-.103-.517-.018" /></svg>