<svg viewBox="0 0 20 20" xmlns="http://www.w3.org/2000/svg"><path d="M8.107 9.995a.75.75 0 0 0 0 1.5h5a.75.75 0 0 0 0-1.5h-5ZM8.107 12.495a.75.75 0 0 0 0 1.5h5a.75.75 0 0 0 0-1.5h-5Z"/><path fill-rule="evenodd" clip-rule="evenodd" d="M16.232 18.37a1.365 1.365 0 0 0 .972-.403c.258-.258.403-.607.403-.972V7.034l.001-.039a.748.748 0 0 0-.239-.549L13.013 2.09a.751.751 0 0 0-.531-.22h-7.5a1.376 1.376 0 0 0-1.375 1.375v13.75a1.37 1.37 0 0 0 1.375 1.375h11.25Zm-11.125-15h6.625v3.625c0 .414.336.75.75.75h3.625v9.125h-11V3.37Zm8.125 2.875h1.814L13.232 4.43v1.815Z"/></svg>