<svg viewBox="0 0 24 24" xmlns="http://www.w3.org/2000/svg" style="fill-rule:evenodd;clip-rule:evenodd;stroke-linejoin:round;stroke-miterlimit:2"><path d="M10.76 5.985c0 4.809-.003 4.984-.073 4.965-.04-.01-.855-.469-1.81-1.019a1515.176 1515.176 0 0 0-6.159-3.54l-.263-.146-.222.387a54.01 54.01 0 0 0-.366.648l-.143.26 2.528 1.458C8.318 11.343 10 12.326 10 12.359c0 .035-.683.435-5.063 2.962a302.361 302.361 0 0 0-3.235 1.881c-.046.046.02.19.385.829l.281.492.266-.149a3211.3 3211.3 0 0 0 7.666-4.419l.4-.231.024 1.308c.014.719.027 2.806.03 4.638L10.76 23h1.508l.021-4.642c.012-2.553.031-4.652.043-4.663.011-.012 1.557.865 3.434 1.948l4.174 2.406c.557.321.776.428.82.401.063-.039.782-1.204.755-1.224-.008-.007-1.608-.931-3.555-2.054a6855.8 6855.8 0 0 1-4.188-2.417c-.494-.286-.637-.386-.6-.421.064-.06 1.065-.647 4.288-2.514a490.268 490.268 0 0 0 3.312-1.929l.632-.376-.165-.308c-.268-.496-.532-.927-.568-.927-.051 0-1.613.888-5.135 2.921-1.754 1.012-3.196 1.832-3.206 1.822-.01-.01-.028-2.269-.04-5.02L12.268 1H10.76v4.985"/></svg>