<svg xmlns="http://www.w3.org/2000/svg" fill-rule="evenodd" stroke-linejoin="round" stroke-miterlimit="2" clip-rule="evenodd" viewBox="0 0 16 16"><path d="M13.24 6.696l-5.366 5.367c-.55.55-1.296.86-2.074.86a2.947 2.947 0 01-2.933-2.934c0-.778.31-1.524.859-2.074l4.412-4.412c.346-.358.822-.56 1.319-.56 1.006 0 1.833.828 1.833 1.833 0 .498-.202.974-.56 1.32l-4.408 4.41A.732.732 0 015.285 9.47l4.404-4.407a.366.366 0 10-.518-.518L4.758 8.96a1.469 1.469 0 00-.411 1.019 1.465 1.465 0 002.486 1.055l4.41-4.414c.499-.483.78-1.148.78-1.843A2.579 2.579 0 009.458 2.21c-.694 0-1.36.281-1.843.78L3.207 7.396A3.668 3.668 0 002.133 9.99 3.684 3.684 0 005.8 13.656c.972 0 1.905-.387 2.593-1.074l5.366-5.367a.366.366 0 10-.518-.519z"/></svg>
