<svg viewBox="0 0 16 16" xmlns="http://www.w3.org/2000/svg"><path d="M3.669 2.028c-.678.115-1.298.623-1.534 1.255-.139.371-.134.206-.135 4.711 0 4.592-.007 4.373.156 4.773.191.471.606.886 1.077 1.077.4.163.182.156 4.767.156 4.584 0 4.367.007 4.766-.155a2.062 2.062 0 0 0 1.079-1.079c.162-.399.155-.182.155-4.766 0-4.585.007-4.367-.156-4.767a1.992 1.992 0 0 0-.98-1.025c-.438-.211-.003-.193-4.784-.198-2.354-.002-4.339.006-4.411.018m8.635 1.344a.756.756 0 0 1 .324.324c.051.102.052.203.052 4.304 0 4.119-.001 4.202-.052 4.306a.918.918 0 0 1-.155.204c-.202.196.119.183-4.473.183s-4.271.013-4.473-.183a.918.918 0 0 1-.155-.204c-.051-.104-.052-.195-.06-4.253-.006-3.024 0-4.174.022-4.25a.696.696 0 0 1 .438-.461c.061-.024 1.104-.03 4.255-.027 4.069.005 4.176.006 4.277.057M5.347 5.058c-.458.24-.458.838 0 1.084l.106.058H8c2.434 0 2.551-.002 2.64-.05.472-.251.476-.857.008-1.094-.077-.038-.342-.043-2.653-.042-2.287.001-2.577.006-2.648.044m0 2.4c-.458.24-.458.838 0 1.084l.106.058H8c2.434 0 2.551-.002 2.64-.05.472-.251.476-.857.008-1.094-.077-.038-.342-.043-2.653-.042-2.287.001-2.577.006-2.648.044m0 2.4c-.458.24-.458.838 0 1.084l.106.058H8c2.434 0 2.551-.002 2.64-.05.472-.251.476-.857.008-1.094-.077-.038-.342-.043-2.653-.042-2.287.001-2.577.006-2.648.044" fill-rule="evenodd"/></svg>