<svg width="40" height="40" viewBox="0 0 40 40" xmlns="http://www.w3.org/2000/svg">
    <path d="M17.733 3.508c-2.946.26-5.436.898-7.634 1.959-2.515 1.213-4.219 2.831-5 4.746-.448 1.097-.438.873-.417 9.827L4.7 28.1l.187.596c.389 1.243 1.01 2.203 2.107 3.255 2.783 2.671 7.992 4.254 13.473 4.093 2.185-.064 4.068-.341 5.98-.88 4.505-1.269 7.626-3.85 8.252-6.824.084-.403.1-1.664.107-8.523.009-8.648.016-8.455-.343-9.438-.37-1.013-.914-1.817-1.841-2.718-2.166-2.108-5.395-3.45-9.704-4.036-.719-.098-4.446-.181-5.185-.117m5.203 3.148c2.618.394 4.745 1.121 6.364 2.174 1.146.745 1.79 1.412 2.22 2.299.206.426.244.579.268 1.076.035.732-.125 1.256-.582 1.907-2.637 3.753-11.429 5.3-17.945 3.156-3.704-1.218-5.911-3.351-5.54-5.357.411-2.221 3.54-4.248 7.843-5.08 1.54-.298 2.361-.359 4.503-.334 1.549.018 2.158.052 2.869.159M8.5 18.324c.825.552 1.976 1.128 3.067 1.533 6.328 2.352 14.716 1.656 19.59-1.626l.653-.439-.022 1.354-.021 1.354-.265.533c-.209.422-.397.667-.9 1.173-.73.734-1.37 1.176-2.502 1.728-1.657.807-3.662 1.346-6 1.612-1.112.126-3.869.106-5-.038-2.919-.37-5.269-1.157-7.09-2.375-1.044-.698-1.773-1.504-2.129-2.355-.161-.384-.175-.498-.201-1.703-.015-.71-.002-1.28.029-1.266.032.013.388.245.791.515m-.51 7.068c.414.327 1.475.949 2.243 1.313 1.914.908 4.308 1.539 6.967 1.836.998.112 4 .113 5.067.003 3.598-.373 6.777-1.427 9.021-2.991l.522-.363-.022 1.359-.021 1.359-.253.511c-.515 1.04-1.747 2.102-3.347 2.885-3.966 1.94-9.679 2.308-14.42.931-2.726-.793-4.884-2.19-5.701-3.69-.304-.559-.379-1-.379-2.226 0-.615.018-1.119.04-1.119.022 0 .15.087.283.192" fill-rule="evenodd" />
</svg>