<?xml version="1.0" encoding="UTF-8"?>
<svg width="256px" height="158px" fill="#000000" viewBox="0 0 256 158" version="1.1" xmlns="http://www.w3.org/2000/svg" xmlns:xlink="http://www.w3.org/1999/xlink">
    <path d="M172.477004,44.9625738 L151.93308,65.299976 L131.389157,44.9625738 L115.978756,60.2057911 L136.542348,80.5431933 L115.978756,100.880595 L131.398992,116.133647 L151.942915,95.7962449 L172.486838,116.133647 L187.887405,100.880595 L167.353316,80.5431933 L187.887405,60.2057911 L172.477004,44.9625738 L172.477004,44.9625738 Z M74.625383,-2.84217094e-14 L240.86496,-2.84217094e-14 C249.224144,-2.84217094e-14 256,6.70701561 256,14.9875246 L256,142.361815 C256,150.642324 249.224144,157.34934 240.86496,157.34934 L74.7237263,157.34934 C70.4654598,157.34934 66.40388,155.569325 63.5322545,152.451842 L4.25089076,88.0172869 C-1.04981513,82.2543673 -1.00064346,73.4231357 4.35906843,67.7192221 L63.5420888,4.77948619 C66.4137143,1.73084274 70.4261224,-2.84217094e-14 74.625383,-2.84217094e-14 Z" id="Path"></path>
</svg>