<svg viewBox="0 0 33 33" xmlns="http://www.w3.org/2000/svg">
    <path d="M4.813 6.016c-.508.16-.979.587-1.221 1.106l-.154.33-.015 9.319c-.016 10.138-.029 9.675.286 10.173.317.502.798.829 1.377.936.457.084 22.206.084 22.663 0a2.039 2.039 0 0 0 1.377-.936c.315-.498.302-.035.286-10.173l-.014-9.319-.159-.342c-.184-.4-.588-.808-.997-1.008l-.274-.134L16.5 5.957c-9.105-.008-11.513.004-11.687.059M27.39 16.913v8.992H5.445V7.92H27.39v8.993M9.982 12.026c-.262.139-.402.293-.5.549a.983.983 0 0 0 .487 1.223l.241.117h6.207c6.132 0 6.211-.001 6.439-.112a.982.982 0 0 0 .021-1.76c-.208-.106-.348-.108-6.471-.106-5.598.002-6.276.012-6.424.089m-.086 4.049a1.152 1.152 0 0 0-.469.684c-.076.404.195.88.608 1.068.212.096.524.101 6.383.101 5.858 0 6.17-.005 6.382-.101.413-.188.684-.664.608-1.068a1.152 1.152 0 0 0-.469-.684l-.185-.125H10.081l-.185.125m.201 3.917c-.485.173-.783.716-.646 1.176.08.265.288.526.524.655.159.087.63.096 6.195.111 3.312.009 6.151.001 6.308-.017.649-.077 1.073-.671.898-1.255-.087-.29-.409-.613-.69-.691-.153-.042-2.025-.06-6.296-.058-5.063.001-6.114.015-6.293.079"/>
</svg>
