<svg xmlns="http://www.w3.org/2000/svg" viewBox="0 0 16 16"><path d="M4.587 3.098c-.159.076-.345.255-2.189 2.099C1.289 6.306.313 7.3.229 7.406.058 7.62 0 7.771 0 8c0 .229.058.38.229.594.189.238 3.901 3.955 4.155 4.162.332.269-.194.244 5.149.244h4.694l.16-.078c.204-.1.435-.331.535-.535l.078-.16V3.773l-.075-.151a1.1 1.1 0 0 0-.493-.508l-.178-.087-4.747-.006-4.747-.006-.173.083M13.76 8v3.707H5.267L3.413 9.853 1.56 8l1.853-1.853 1.854-1.854h8.493V8M6.425 5.586a.751.751 0 0 0-.417.612c-.031.303.045.415.815 1.195l.597.606-.64.653c-.719.733-.767.799-.765 1.081a.745.745 0 0 0 .243.562c.156.143.275.19.488.191.298.002.347-.032 1.087-.763l.663-.654.439.442c.548.551.917.885 1.038.937.155.067.425.053.598-.032.285-.14.43-.399.411-.735-.008-.146-.025-.203-.089-.298-.044-.064-.361-.401-.704-.75L9.564 8l.625-.633c.343-.349.66-.686.704-.75.064-.095.081-.152.089-.298.014-.243-.048-.426-.192-.57-.174-.174-.284-.216-.563-.216-.23 0-.246.004-.374.092-.073.05-.409.364-.746.698l-.614.606-.653-.646c-.442-.436-.693-.665-.775-.704a.826.826 0 0 0-.64.007" fill-rule="evenodd"/></svg>