<svg viewBox="0 0 40 40" xmlns="http://www.w3.org/2000/svg"><path d="M17.8 3.512a29.62 29.62 0 0 0-3 .425c-4.583.92-8.117 3.074-9.457 5.763-.403.809-.537 1.283-.609 2.15-.037.448-.066 4.084-.066 8.494l-.001 7.71.238.69c.441 1.275.949 2.062 1.994 3.09 1.991 1.957 5.15 3.337 8.988 3.927 5.164.794 10.69-.048 14.418-2.198 1.864-1.075 3.176-2.376 3.897-3.863.604-1.245.554-.436.581-9.433.015-5.183-.001-8.207-.046-8.654-.302-3.009-3.443-5.833-7.981-7.175a26.649 26.649 0 0 0-3.169-.705c-1.046-.172-4.599-.308-5.787-.221m5.567 3.213c2.625.481 4.456 1.142 6 2.165 1.063.704 1.679 1.338 2.093 2.154.825 1.623.087 3.308-2.089 4.767-3.592 2.409-10.25 3.136-15.371 1.68-4.091-1.163-6.651-3.441-6.264-5.574.402-2.215 3.484-4.211 7.849-5.083 1.328-.265 1.78-.293 4.415-.274 2.309.016 2.647.033 3.367.165m8.42 12.427-.031 1.351-.286.549c-.601 1.155-1.992 2.284-3.788 3.075-2.581 1.135-5.643 1.63-9.111 1.473-5.013-.228-9.337-2.12-10.575-4.628l-.266-.539-.042-1.283c-.03-.915-.021-1.283.031-1.283.04 0 .353.182.694.405 1.406.918 3.466 1.787 5.354 2.256 6.061 1.508 13.151.57 17.379-2.299.341-.231.632-.423.646-.425.014-.002.012.604-.005 1.348m-.002 7.445-.033 1.397-.293.52c-.567 1.007-1.861 2.101-3.307 2.795-4.198 2.015-10.171 2.316-14.914.753-2.83-.933-4.928-2.501-5.42-4.051-.126-.397-.208-2.744-.096-2.744.041 0 .292.147.559.327 2.205 1.49 4.978 2.426 8.615 2.911 1.181.157 4.646.137 5.984-.035 1.863-.24 3.849-.728 5.335-1.311.904-.354 2.335-1.098 2.985-1.552.312-.218.578-.398.593-.401.014-.003.011.623-.008 1.391" fill-rule="evenodd"/></svg>