<svg height="16" viewBox="0 0 16 16" width="16" xmlns="http://www.w3.org/2000/svg"><path d="m12 2c1.1045695 0 2 .8954305 2 2v8c0 1.1045695-.8954305 2-2 2h-8c-1.1045695 0-2-.8954305-2-2v-8c0-1.1045695.8954305-2 2-2zm0 1.3h-8c-.35438271 0-.64725823.26334362-.69360983.60501415l-.00639017.09498585v8c0 .3543827.26334362.6472582.60501415.6936098l.09498585.0063902h8c.3543827 0 .6472582-.2633436.6936098-.6050141l.0063902-.0949859v-8c0-.35438271-.2633436-.64725823-.6050141-.69360983zm-1.6 6.5c.3313708 0 .6.2686292.6.6s-.2686292.6-.6.6h-4.8c-.33137085 0-.6-.2686292-.6-.6s.26862915-.6.6-.6zm0-2.4c.3313708 0 .6.26862915.6.6s-.2686292.6-.6.6h-4.8c-.33137085 0-.6-.26862915-.6-.6s.26862915-.6.6-.6zm0-2.4c.3313708 0 .6.26862915.6.6s-.2686292.6-.6.6h-4.8c-.33137085 0-.6-.26862915-.6-.6s.26862915-.6.6-.6z" fill-rule="evenodd"/></svg>