<svg xmlns="http://www.w3.org/2000/svg" width="24" height="24" viewBox="0 0 24 24">
    <path fill-rule="evenodd" d="M20.619 8.154c-.026-.02-.056-.037-.087-.047-.252-.128-.505-.256-.757-.386l-.97-.493h-.001l-.001-.001-.969-.492-1.167-.593-1.167-.593-1.005-.51-1.005-.511-.268-.139c-.23-.12-.462-.239-.697-.352-.165-.078-.28-.019-.416.052l-.005.003-.25.127-.25.127-1.823.926-1.16.59H8.62l-.003.001-1.158.589-1.053.535-1.052.535-1.15.584-.027.014-.027.013c-.09.047-.144.154-.144.254V9.95c0 .158.135.293.293.293h1.656v7.425l-.002.356c-.001.147-.003.293-.002.44H4.949l-.209-.001c-.14-.001-.28-.002-.42 0h-.027c-.158 0-.293.135-.293.294v1.894c0 .158.135.293.293.293h15.486l.21.001c.14 0 .28.002.42 0h.027c.158 0 .293-.136.293-.294V18.781v-.024c0-.155-.135-.301-.293-.293H18.774v-7.43l.003-.357.002-.434H19.995c.14.001.28.002.42 0h.026c.159 0 .293-.135.293-.293V8.387c0-.061-.021-.121-.057-.171-.016-.024-.036-.045-.058-.062zm-4.539 2.088V17.668l-.002.356c-.001.147-.003.293-.002.44h-2.363v-7.43l.002-.356c.001-.146.003-.29.002-.436h2.363zm-5.062 0H8.655l-.002.435-.003.357v7.43h2.363l.002-.44c.002-.119.003-.237.003-.356V10.242z" clip-rule="evenodd"/>
</svg>
