<svg xmlns="http://www.w3.org/2000/svg" width="24" height="25" viewBox="0 0 24 25">
    <path fill-rule="evenodd" d="M21.437 6.25l-4.1-4.5c-.201-.221-.447-.397-.72-.518-.273-.121-.569-.184-.867-.185H4.162c-.284-.001-.564.054-.826.162-.262.108-.5.267-.702.467-.2.2-.36.439-.469.7C2.057 2.64 2 2.92 2 3.205v18.688c0 .572.228 1.12.631 1.524.403.404.95.63 1.52.63h15.692c.283.002.563-.054.825-.162.261-.108.499-.266.7-.466.2-.2.358-.438.467-.7.109-.262.165-.543.165-.826V7.704c.001-.539-.2-1.058-.563-1.455zm-1.359.638h-2.64c-.19 0-.373-.075-.507-.21-.135-.135-.21-.318-.21-.508V3.204l3.357 3.684zm-6.18 4.663c0 1.61-.91 2.52-2.064 2.52-1.155 0-2.065-.91-2.065-2.52 0-1.61.91-2.52 2.065-2.52 1.155 0 2.065.91 2.065 2.52zm-3.01 0c0 .98.456 1.435.946 1.435.49 0 .945-.455.945-1.435s-.455-1.435-.945-1.435c-.49 0-.945.455-.945 1.435zm-1.573 2.45h-3.36v-1.085h1.12v-2.24h-1.12v-1.05h.875c.175 0 .245-.07.245-.245v-.28h1.12v3.815h1.12v1.085zm6.788.07c1.155 0 2.065-.91 2.065-2.52 0-1.61-.91-2.52-2.065-2.52-1.155 0-2.065.91-2.065 2.52 0 1.61.91 2.52 2.065 2.52zm0-1.085c-.49 0-.945-.455-.945-1.435s.455-1.435.945-1.435c.49 0 .945.455.945 1.435s-.455 1.435-.945 1.435zM9.63 17.551c0 1.61-.91 2.52-2.065 2.52-1.155 0-2.065-.91-2.065-2.52 0-1.61.91-2.52 2.065-2.52 1.155 0 2.065.91 2.065 2.52zm-3.01 0c0 .98.455 1.435.945 1.435.49 0 .945-.455.945-1.435s-.455-1.435-.945-1.435c-.49 0-.945.455-.945 1.435zm3.604 2.45h3.36v-1.085h-1.12v-3.815h-1.12v.28c0 .175-.07.245-.245.245h-.875v1.05h1.12v2.24h-1.12v1.085zm7.629 0h-3.36v-1.085h1.12v-2.24h-1.12v-1.05h.875c.175 0 .245-.07.245-.245v-.28h1.12v3.815h1.12v1.085z" clip-rule="evenodd"/>
</svg>
