<svg xmlns="http://www.w3.org/2000/svg" viewBox="0 0 24 25"><path d="M3.76 1.084c-.341.055-.835.319-1.107.589a2.005 2.005 0 0 0-.572.984c-.08.312-.081.418-.081 9.901 0 10.56-.019 9.772.248 10.322.161.333.566.745.896.912.527.266-.108.248 8.856.248 7.26 0 8.154-.007 8.371-.063a2.18 2.18 0 0 0 1.568-1.595c.091-.355.091-14.788.001-15.172a2.237 2.237 0 0 0-.467-.911c-.21-.244-3.271-3.607-3.891-4.276-.482-.52-.773-.736-1.179-.874l-.263-.089-6.08-.006c-3.4-.003-6.177.01-6.3.03M18.542 5.2l1.51 1.66-1.336.012c-.735.006-1.394.001-1.465-.012-.172-.031-.366-.2-.456-.398-.067-.148-.073-.294-.074-1.701l-.001-1.54.156.16c.086.087.836.906 1.666 1.819m-6.203 3.901c.752.196 1.311.849 1.485 1.736.08.409.059 1.253-.041 1.623-.334 1.237-1.467 1.886-2.614 1.497-.621-.211-1.088-.769-1.296-1.551-.109-.41-.116-1.258-.015-1.666.213-.852.771-1.471 1.482-1.644.282-.069.722-.067.999.005m4.28 0c.698.182 1.221.753 1.447 1.579.099.363.101 1.352.003 1.72-.18.674-.585 1.219-1.084 1.459-1.195.575-2.463-.055-2.832-1.406-.114-.416-.125-1.339-.021-1.733.186-.706.656-1.316 1.175-1.525.39-.158.921-.196 1.312-.094M8.2 11.02v1.9h1.12V14H5.96v-1.08h1.12v-2.24H5.96V9.64h.48c.571 0 .64-.036.64-.34v-.18H8.2v1.9m3.286-.814c-.219.109-.421.381-.506.685-.202.721-.067 1.508.321 1.866.439.404.994.267 1.289-.319.314-.623.223-1.655-.18-2.048-.282-.275-.609-.34-.924-.184m4.291-.01c-.204.092-.393.318-.505.604-.119.3-.128 1.154-.017 1.457.173.469.469.72.849.72.414 0 .743-.32.88-.857.091-.361.061-1.011-.063-1.333-.212-.554-.686-.799-1.144-.591m-7.769 4.888c.742.156 1.333.802 1.533 1.676.099.433.091 1.241-.015 1.646-.262.995-.91 1.584-1.826 1.659-.781.064-1.533-.38-1.896-1.119-.2-.409-.284-.818-.284-1.386 0-.576.083-.978.288-1.4.416-.854 1.269-1.271 2.2-1.076m4.432 1.936v1.9h1.12V20h-3.32v-1.08h1.12v-2.24h-1.12v-1.04h.472c.568 0 .61-.021.638-.313l.02-.207h1.07v1.9m4.28 0v1.9h1.12V20h-3.36v-1.08h1.12v-2.24h-1.12v-1.034l.522-.013c.591-.015.596-.018.597-.323l.001-.19h1.12v1.9m-9.44-.839a1.09 1.09 0 0 0-.521.571c-.205.548-.185 1.217.051 1.686.288.575.845.721 1.271.336.603-.545.561-2.067-.07-2.509a.795.795 0 0 0-.731-.084" fill-rule="evenodd"/></svg>