<svg viewBox="0 0 16 16" xmlns="http://www.w3.org/2000/svg"><path d="M7.227 1.043a7.462 7.462 0 0 0-1.711.413 7.017 7.017 0 0 0-4.435 5.475 6.999 6.999 0 0 0 1.973 6.015 6.989 6.989 0 0 0 9.337.503 8.135 8.135 0 0 0 1.058-1.058 6.989 6.989 0 0 0-.507-9.341 6.408 6.408 0 0 0-1.101-.894 6.948 6.948 0 0 0-3.106-1.114 11.497 11.497 0 0 0-1.508.001M8.88 2.572a5.516 5.516 0 0 1 4.552 4.572c.066.396.066 1.316 0 1.712a5.501 5.501 0 0 1-.567 1.698c-.145.276-.423.714-.472.744-.031.019-7.704-7.646-7.691-7.684.016-.047.505-.359.791-.505.636-.323 1.202-.489 2-.586.209-.025 1.144.008 1.387.049m-1.4 5.963 3.84 3.841-.08.067a5.513 5.513 0 0 1-5.678.484 5.311 5.311 0 0 1-1.363-.959 5.506 5.506 0 0 1-1.631-3.112c-.066-.396-.066-1.316 0-1.712a5.55 5.55 0 0 1 .947-2.324.522.522 0 0 1 .108-.127c.009 0 1.745 1.729 3.857 3.842"/></svg>