<svg width="12" height="12" viewBox="0 0 12 12" fill="none" xmlns="http://www.w3.org/2000/svg"><path fill-rule="evenodd" clip-rule="evenodd" d="M4.29458 2.22878C4.48968 2.03335 4.80626 2.03308 5.00169 2.22818C5.49753 2.72317 5.8909 3.31108 6.1593 3.95826C6.42769 4.60544 6.56584 5.29919 6.56584 5.99982C6.56584 6.70045 6.42769 7.3942 6.1593 8.04139C5.8909 8.68857 5.49753 9.27648 5.00169 9.77147C4.80626 9.96657 4.48968 9.9663 4.29458 9.77087C4.09949 9.57544 4.09976 9.25886 4.29519 9.06376C4.69799 8.66165 5.01755 8.18405 5.23558 7.65831C5.45362 7.13256 5.56584 6.56899 5.56584 5.99982C5.56584 5.43066 5.45362 4.86708 5.23558 4.34134C5.01755 3.81559 4.69799 3.338 4.29519 2.93589C4.09976 2.74079 4.09949 2.42421 4.29458 2.22878Z" /><path fill-rule="evenodd" clip-rule="evenodd" d="M1.64614 4.37722C1.84124 4.18179 2.15782 4.18152 2.35325 4.37661C2.56687 4.58987 2.73634 4.84315 2.85197 5.12196C2.9676 5.40078 3.02711 5.69965 3.02711 6.0015C3.02711 6.30334 2.9676 6.60222 2.85197 6.88103C2.73634 7.15985 2.56687 7.41313 2.35325 7.62638C2.15782 7.82147 1.84124 7.8212 1.64614 7.62578C1.45105 7.43035 1.45132 7.11376 1.64675 6.91867C1.76733 6.7983 1.86298 6.65533 1.92825 6.49795C1.99352 6.34058 2.02711 6.17187 2.02711 6.0015C2.02711 5.83112 1.99352 5.66242 1.92825 5.50504C1.86298 5.34766 1.76733 5.20469 1.64675 5.08432C1.45132 4.88923 1.45105 4.57265 1.64614 4.37722Z" /><path fill-rule="evenodd" clip-rule="evenodd" d="M6.69302 0.330343C6.88811 0.134914 7.2047 0.134643 7.40013 0.329738C8.14559 1.07393 8.737 1.95781 9.14052 2.9308C9.54403 3.9038 9.75173 4.94681 9.75173 6.00016C9.75173 7.0535 9.54403 8.09651 9.14052 9.06951C8.737 10.0425 8.14559 10.9264 7.40013 11.6706C7.2047 11.8657 6.88811 11.8654 6.69302 11.67C6.49792 11.4745 6.49819 11.158 6.69362 10.9629C7.34605 10.3116 7.86365 9.53798 8.2168 8.68643C8.56995 7.83487 8.75173 6.92204 8.75173 6.00016C8.75173 5.07827 8.56995 4.16544 8.2168 3.31388C7.86365 2.46233 7.34605 1.68876 6.69362 1.03745C6.49819 0.842354 6.49792 0.525772 6.69302 0.330343Z" /></svg>
