<svg viewBox="0 0 12 12" xmlns="http://www.w3.org/2000/svg"><path d="M6.93.199a.51.51 0 0 0-.361.351c-.061.211-.006.353.239.609 1.031 1.078 1.666 2.407 1.885 3.943.051.356.051 1.44 0 1.796-.217 1.523-.845 2.845-1.862 3.919-.271.286-.325.416-.262.633a.5.5 0 0 0 .633.34c.091-.029.14-.067.308-.237A8.01 8.01 0 0 0 9.048 9.28c.694-1.576.876-3.209.541-4.871C9.29 2.923 8.54 1.493 7.51.447 7.336.27 7.296.24 7.201.212A.44.44 0 0 0 6.93.199m-2.4 1.899a.516.516 0 0 0-.361.353c-.059.204-.005.344.231.599.308.332.521.646.731 1.076A4.324 4.324 0 0 1 4.4 8.95c-.236.255-.29.395-.231.599.038.13.138.253.26.317.114.06.329.06.443-.001.17-.089.634-.64.897-1.065a5.833 5.833 0 0 0 .68-1.698c.15-.711.15-1.493 0-2.204a5.62 5.62 0 0 0-1.07-2.25c-.197-.241-.42-.467-.502-.509a.62.62 0 0 0-.347-.041m-2.722 2.17a.54.54 0 0 0-.307.462c0 .133.05.236.206.428.22.27.312.522.313.854 0 .312-.104.588-.322.847-.141.169-.177.235-.192.362a.455.455 0 0 0 .127.378c.207.231.493.233.731.005.241-.229.427-.532.544-.884.094-.285.12-.484.106-.828a2.058 2.058 0 0 0-.184-.817c-.143-.33-.461-.732-.639-.806a.693.693 0 0 0-.383-.001" fill-rule="evenodd"/></svg>