<svg xmlns="http://www.w3.org/2000/svg" width="24" height="24" viewBox="0 0 24 24">
    <path d="M22 12.667V8c0-.428-.35-.778-.778-.778h-4.278v-.778C16.944 3.45 14.494 1 11.5 1 8.506 1 6.056 3.45 6.056 6.444v.778H1.778C1.35 7.222 1 7.572 1 8v4.667c0 .427.35.777.778.777h.466l1.05 8.245c.04.389.39.7.778.7h14.895c.389 0 .739-.311.777-.7l1.05-8.245h.428c.428 0 .778-.35.778-.777zM7.611 6.444c0-2.138 1.75-3.888 3.889-3.888s3.889 1.75 3.889 3.888v.778H7.61v-.778zM2.556 8.778h17.888v3.11H2.556v-3.11zm15.71 12.055H4.734L3.8 13.444h15.361l-.894 7.39z"/>
</svg>
