<svg viewBox="0 0 20 20" xmlns="http://www.w3.org/2000/svg"><path d="M6.017 1.169c-.146.042-.341.216-.424.376-.055.108-.074.217-.086.495l-.015.357-1.055.01-1.054.01-.216.104c-.276.132-.514.37-.646.646l-.104.216v13.234l.104.216c.132.276.37.514.646.646l.216.104h13.234l.216-.104c.276-.132.514-.37.646-.646l.104-.216V3.383l-.104-.216a1.404 1.404 0 0 0-.646-.646l-.216-.104-1.054-.01-1.054-.01-.017-.362c-.014-.298-.031-.388-.096-.505a.73.73 0 0 0-1.294.003c-.068.123-.083.205-.096.507l-.015.36H7.009l-.017-.359c-.019-.415-.079-.57-.283-.738a.739.739 0 0 0-.692-.134m-.509 3.063c.02.426.091.589.329.754.128.088.166.097.415.097.255 0 .285-.007.42-.104.226-.164.303-.347.321-.764l.016-.348h5.982l.017.365c.02.426.091.589.329.754.128.088.166.097.415.097.255 0 .285-.007.42-.104.226-.164.303-.347.321-.764l.016-.348h1.624v2.266H3.867V3.867h1.624l.017.365m10.617 7.643.009 4.258H3.867v-4.244c0-2.335.01-4.255.022-4.267.012-.012 2.768-.018 6.125-.014l6.103.009.008 4.258" fill-rule="evenodd"/></svg>
