<svg viewBox="0 0 32 32" xmlns="http://www.w3.org/2000/svg">
    <path d="M5.661 4.054c-.538.229-.79.821-.572 1.339.042.099.367.498.723.887l.647.707-.256.001c-.971.007-1.708.293-2.315.9a2.852 2.852 0 0 0-.85 1.712c-.036.297-.05 2.953-.04 7.707l.015 7.253.12.351a3.13 3.13 0 0 0 1.534 1.759c.234.116.556.235.714.264.183.034 3.714.053 9.763.053h9.477l.426.448c.464.488.694.603 1.102.548.615-.082 1.008-.793.762-1.376-.088-.208-20.036-22.184-20.341-22.41-.224-.165-.686-.238-.909-.143m5.996.025c-.259.093-.449.282-.694.691-.305.51-.251.998.15 1.35.236.207.375.247.756.215a.774.774 0 0 0 .501-.193l.21-.169h6.87l.822 1.238c.452.681.891 1.318.976 1.416.318.367.242.357 2.779.386 2.386.028 2.394.029 2.658.26.055.048.139.159.187.247.08.146.09.786.115 7.093l.026 6.934.127.203c.201.324.474.474.86.474s.659-.15.86-.474l.127-.203.015-6.747c.011-4.588-.003-6.892-.042-7.2a2.937 2.937 0 0 0-1.653-2.283c-.611-.297-.918-.33-3.036-.33h-1.748l-.873-1.312c-.48-.721-.94-1.368-1.023-1.438a1.114 1.114 0 0 0-.349-.181c-.128-.036-1.637-.055-4.305-.053-3.377.001-4.143.015-4.316.076m-1.616 6.853c.96 1.056 1.746 1.944 1.746 1.974 0 .029-.109.202-.242.382a5.819 5.819 0 0 0-.855 1.832c-.758 3.003 1.012 5.958 4.03 6.725.551.14 2.047.142 2.56.003a6.079 6.079 0 0 0 1.464-.595c.232-.132.435-.238.452-.236.017.002.839.896 1.826 1.987l1.795 1.983-8.462.014c-9.444.016-8.729.045-9.095-.361-.103-.114-.202-.286-.219-.383-.017-.098-.025-3.433-.016-7.412L5.04 9.61l.161-.199c.311-.384.372-.398 1.813-.398h1.282l1.745 1.919m5.505 6.055 2.277 2.506-.368.174a3.466 3.466 0 0 1-3.935-.71c-.999-1.019-1.293-2.54-.736-3.81.191-.437.394-.764.443-.712l2.319 2.552"/>
</svg>
