<svg xmlns="http://www.w3.org/2000/svg" viewBox="0 0 24 24"><path d="M11.273 2.16C6.997 2.547 3.46 5.562 2.428 9.7c-.23.926-.286 1.399-.285 2.42 0 1.023.058 1.506.285 2.42a10.087 10.087 0 0 0 2.108 4.09c1.147 1.34 3.013 2.465 4.853 2.928 2.378.597 4.766.343 6.953-.74a9.973 9.973 0 0 0 4.144-3.865 10.312 10.312 0 0 0 1.299-3.693c.102-.667.101-2.084-.001-2.76a10.255 10.255 0 0 0-1.577-4.142c-.733-1.104-1.536-1.9-2.634-2.611a10.004 10.004 0 0 0-4.101-1.528c-.513-.074-1.685-.105-2.199-.059m-2.51 5.344c.207.06.289.135 1.727 1.569L12 10.578l1.51-1.506c1.48-1.475 1.515-1.507 1.744-1.573a.995.995 0 0 1 1.247 1.247c-.066.229-.098.264-1.573 1.744L13.422 12l1.506 1.51c1.48 1.484 1.506 1.514 1.573 1.746.109.378.033.691-.235.978-.269.285-.622.379-1.01.267-.232-.067-.262-.093-1.746-1.573L12 13.422l-1.51 1.506c-1.484 1.48-1.514 1.506-1.746 1.573-.388.112-.741.018-1.01-.267-.268-.287-.344-.6-.235-.978.067-.232.093-.262 1.573-1.746L10.578 12l-1.506-1.51C7.597 9.01 7.565 8.975 7.499 8.746c-.107-.374-.03-.698.235-.979.279-.296.62-.383 1.029-.263" fill-rule="evenodd"/></svg>