<svg xmlns="http://www.w3.org/2000/svg" width="24" height="24" viewBox="0 0 24 24">
    <path d="M19.07 4.93c-1.886-1.821-4.412-2.83-7.034-2.807-2.622.023-5.13 1.075-6.984 2.929-1.854 1.854-2.906 4.362-2.929 6.984-.022 2.622.985 5.148 2.807 7.034 1.886 1.822 4.412 2.83 7.034 2.807 2.622-.023 5.13-1.075 6.984-2.929 1.854-1.854 2.906-4.362 2.929-6.984.023-2.622-.985-5.148-2.807-7.034zm-2.81 9.91c.094.093.168.204.219.326.05.121.077.252.077.384s-.026.263-.077.385c-.05.122-.125.232-.219.325-.093.093-.204.166-.326.216-.122.05-.252.075-.384.074-.132 0-.262-.024-.384-.074-.122-.05-.232-.123-.326-.216L12 13.41l-2.84 2.85c-.093.093-.204.166-.326.216-.122.05-.252.075-.384.074-.132 0-.262-.024-.384-.074-.122-.05-.233-.123-.326-.216-.094-.093-.168-.203-.219-.325-.05-.122-.077-.253-.077-.385s.026-.263.077-.384c.05-.122.125-.233.219-.326L10.59 12 7.74 9.16c-.093-.093-.167-.204-.218-.326-.05-.121-.076-.252-.076-.384s.026-.262.076-.384.125-.233.218-.326.204-.167.326-.217c.122-.051.252-.077.384-.077s.262.026.384.077c.122.05.233.124.326.217L12 10.59l2.84-2.85c.093-.093.204-.167.326-.217.122-.051.252-.077.384-.077s.262.026.384.077c.122.05.233.124.326.217s.167.204.218.326c.05.122.076.252.076.384s-.026.263-.076.384c-.05.122-.125.233-.218.326L13.41 12l2.85 2.84z"/>
</svg>
