<svg xmlns="http://www.w3.org/2000/svg" viewBox="0 0 16 16" fill-rule="evenodd"><path d="M7.453 1.28a6.54 6.54 0 0 0-2.426.678 6.577 6.577 0 0 0-3.069 3.069c-.483.982-.687 1.864-.687 2.973 0 1.109.204 1.991.687 2.973a6.573 6.573 0 0 0 3.069 3.069c.982.483 1.864.687 2.973.687 1.11 0 1.994-.204 2.973-.687a6.564 6.564 0 0 0 3.069-3.069c.483-.979.687-1.863.687-2.973 0-1.109-.204-1.991-.687-2.973a6.577 6.577 0 0 0-3.069-3.069 6.345 6.345 0 0 0-1.996-.626 8.518 8.518 0 0 0-1.524-.052m1.134 1.495a5.257 5.257 0 0 1 3.217 1.606 5.236 5.236 0 0 1 .027 7.209 5.238 5.238 0 0 1-7.635.029c-.804-.842-1.285-1.877-1.425-3.07a6.402 6.402 0 0 1 .053-1.474 5.283 5.283 0 0 1 4.552-4.298 7.308 7.308 0 0 1 1.211-.002M5.498 6.557a.812.812 0 0 0-.413.363c-.046.085-.058.153-.058.333 0 .199.009.242.071.347.081.136 2.335 2.648 2.458 2.74a.693.693 0 0 0 .489.135c.234-.014.341-.068.538-.27.379-.391 2.254-2.496 2.319-2.605.062-.105.071-.148.071-.347 0-.268-.048-.38-.235-.553a.735.735 0 0 0-1.009.026c-.05.048-.455.492-.899.987-.445.495-.818.9-.83.9-.012 0-.395-.417-.852-.926a26.43 26.43 0 0 0-.94-1.014.843.843 0 0 0-.473-.165.918.918 0 0 0-.237.049"/></svg>
