<svg viewBox="0 0 32 32" xmlns="http://www.w3.org/2000/svg"><path d="M15.556 3.521a14.145 14.145 0 0 0-3.566.767c-.743.27-1.951.889-2.668 1.366-4.449 2.963-6.601 8.232-5.519 13.514.158.77.604 2.088.948 2.805l.291.605-.767 2.279c-.765 2.272-.768 2.282-.744 2.696.061 1.045.816 1.8 1.861 1.861.415.024.43.02 2.705-.736l2.288-.76.596.28a11.37 11.37 0 0 0 2.251.817c4.4 1.127 9.022-.091 12.268-3.234 1.558-1.508 2.607-3.175 3.297-5.238.466-1.393.651-2.554.65-4.07-.002-1.118-.061-1.701-.279-2.75-.861-4.138-3.866-7.706-7.828-9.295a13.24 13.24 0 0 0-5.784-.907m2.032 1.981c2.512.267 4.743 1.306 6.549 3.049 2.837 2.736 3.985 6.763 3.027 10.617-.886 3.563-3.56 6.468-7.089 7.701-1.178.412-2.299.595-3.602.59-1.846-.008-3.51-.416-5.116-1.255-.302-.158-.643-.303-.757-.323-.176-.031-.583.088-2.631.769-1.332.443-2.435.793-2.451.777-.016-.016.335-1.122.779-2.458.676-2.032.802-2.462.771-2.628-.02-.109-.182-.484-.358-.833-.854-1.689-1.21-3.163-1.216-5.038a10.828 10.828 0 0 1 2.138-6.547 14.117 14.117 0 0 1 1.707-1.835c2.252-1.934 5.326-2.898 8.249-2.586"/></svg>