<svg viewBox="0 0 33 33" xmlns="http://www.w3.org/2000/svg"><path d="M11.633 5.42c-.091.047-.95.869-1.91 1.827L7.979 8.988l-.786-.773c-.816-.804-1.043-.95-1.352-.874-.41.1-.891.643-.891 1.005 0 .101.04.264.088.36.121.244 2.312 2.442 2.564 2.573.288.15.528.134.816-.052.134-.088 1.2-1.121 2.368-2.297 1.86-1.873 2.13-2.166 2.179-2.365.072-.299-.022-.573-.293-.851-.358-.366-.706-.465-1.039-.294m5.039 2.005c-.461.109-.682.447-.654 1.002.019.395.106.568.393.782.151.113.179.113 6.047.113 5.797 0 5.898-.001 6.078-.109.253-.151.394-.447.394-.825 0-.525-.209-.842-.633-.957-.26-.071-11.326-.077-11.625-.006m-5.012 5.999c-.179.082-.715.579-1.965 1.825l-1.718 1.712-.704-.692c-.807-.792-.994-.924-1.311-.924-.545 0-1.117.723-.987 1.248.024.101.473.591 1.284 1.406.954.958 1.301 1.272 1.481 1.341.442.169.458.157 2.941-2.331 1.515-1.518 2.249-2.291 2.275-2.396.098-.402-.108-.844-.517-1.108-.298-.192-.491-.212-.779-.081m4.797 2.085a.592.592 0 0 0-.343.343c-.228.502-.069 1.164.33 1.373.182.095.486.1 6.023.1 5.442 0 5.843-.007 6.019-.096.333-.17.416-.344.416-.866 0-.523-.083-.697-.416-.867-.176-.089-.574-.096-5.991-.095-5.628.001-5.81.005-6.038.108m-4.824 5.916c-.091.047-.951.869-1.911 1.827l-1.745 1.743-.785-.775c-.863-.854-1.045-.963-1.41-.853-.429.129-.832.62-.832 1.013 0 .109.064.283.158.428.203.313 2.288 2.376 2.521 2.493.263.133.511.111.789-.07.327-.212 4.36-4.273 4.479-4.51a.767.767 0 0 0 .011-.699c-.095-.181-.445-.528-.626-.62-.168-.087-.455-.076-.649.023m4.977 2.014c-.387.11-.605.443-.605.921 0 .529.227.843.682.941.196.042 1.987.055 5.973.044 5.489-.017 5.699-.021 5.866-.123.549-.332.549-1.382 0-1.714-.168-.102-.37-.106-5.948-.115-3.716-.006-5.844.011-5.968.046"/></svg>