<svg viewBox="0 0 16 16" xmlns="http://www.w3.org/2000/svg"><path d="M7.368 2.041c-.766.094-1.311.252-1.968.571a5.524 5.524 0 0 0-1.695 1.219A5.953 5.953 0 0 0 2.232 9.64c.48 1.68 1.741 3.136 3.31 3.825 1.179.517 2.365.659 3.572.426a5.954 5.954 0 0 0 3.195-1.734 5.754 5.754 0 0 0 1.372-2.263 5.8 5.8 0 0 0 0-3.788 5.67 5.67 0 0 0-1.386-2.275c-.53-.544-.991-.875-1.695-1.219a5.35 5.35 0 0 0-1.293-.462c-.541-.12-1.436-.17-1.939-.109m3.721 3.561a.68.68 0 0 1 .34.345c.062.12.066.451.006.589-.025.056-.282.34-.616.68-.643.655-3.645 3.602-3.76 3.692l-.074.057-.113-.093c-.188-.154-2.165-2.133-2.255-2.258-.079-.109-.084-.128-.084-.356 0-.279.051-.417.203-.55a.674.674 0 0 1 .517-.198c.319 0 .371.036 1.098.752l.635.624 1.247-1.225c1.708-1.678 2.083-2.032 2.207-2.09a.699.699 0 0 1 .296-.05.615.615 0 0 1 .353.081" fill-rule="evenodd"/></svg>