<svg viewBox="0 0 16 16" xmlns="http://www.w3.org/2000/svg"><path d="M9.043 4.536a.898.898 0 0 0-.16.07c-.038.024-1.206 1.178-2.596 2.565L3.761 9.692 2.607 8.544C1.32 7.262 1.327 7.268 1 7.27a.636.636 0 0 0-.495.187A.703.703 0 0 0 .267 8c0 .336-.026.304 1.581 1.912 1.606 1.606 1.558 1.567 1.899 1.567.352 0 .158.174 3.285-2.953 3.123-3.123 2.949-2.93 2.949-3.277a.708.708 0 0 0-.682-.729.887.887 0 0 0-.256.016m5.744.006a1.6 1.6 0 0 0-.174.07c-.036.019-1.203 1.17-2.593 2.557L9.493 9.693l-.513-.512c-.581-.579-.642-.62-.94-.62a.714.714 0 0 0-.693.461.805.805 0 0 0 .061.649c.12.186 1.619 1.67 1.757 1.739a.782.782 0 0 0 .557.045l.158-.046 2.863-2.858c2.31-2.306 2.875-2.883 2.926-2.991a.748.748 0 0 0-.359-.98.846.846 0 0 0-.523-.038" fill-rule="evenodd"/></svg>
