<svg viewBox="0 0 32 33" xmlns="http://www.w3.org/2000/svg"><path d="M12.64 2.193a.896.896 0 0 0-.524.447c-.071.13-.09.376-.107 1.32l-.019 1.16-2.435.001c-1.339.001-2.598.025-2.797.053a1.99 1.99 0 0 0-1.691 1.595c-.031.168-.054 1.335-.054 2.838v2.553H3.857c-1.044 0-1.178.01-1.375.106-.282.136-.409.359-.442.776-.037.458.11.771.433.928.208.101.325.11 1.384.11h1.156v4.046l-1.186.017c-1.076.015-1.204.027-1.374.125-.487.282-.576 1.24-.149 1.6.242.203.48.238 1.629.238l1.08.001v2.557c0 1.69.021 2.653.06 2.84a1.972 1.972 0 0 0 1.114 1.397l.346.166 2.729.014 2.728.015.018 1.185c.02 1.301.045 1.409.38 1.658.225.168.812.189 1.117.041.416-.201.439-.286.459-1.673l.017-1.214h4.046v1.157c0 1.059.009 1.176.11 1.383.158.327.461.466.957.438.415-.024.595-.122.773-.423.096-.164.108-.297.125-1.367l.018-1.185 2.728-.015 2.729-.014.346-.166a1.972 1.972 0 0 0 1.114-1.397c.039-.187.06-1.15.06-2.84v-2.557l1.08-.001c1.149 0 1.387-.035 1.629-.238.427-.36.338-1.318-.149-1.6-.17-.098-.298-.11-1.374-.125l-1.186-.017V14.08h1.156c1.302 0 1.491-.043 1.698-.386.149-.246.149-.902 0-1.148-.207-.343-.396-.386-1.698-.386h-1.156V9.607c0-1.481-.023-2.671-.054-2.834a1.933 1.933 0 0 0-.538-1.017 1.956 1.956 0 0 0-1.153-.582c-.199-.028-1.458-.052-2.797-.053L20.01 5.12l-.019-1.16c-.022-1.24-.041-1.338-.319-1.596-.273-.253-.903-.287-1.264-.068-.332.202-.379.41-.38 1.691l-.001 1.133h-4.054V3.985c0-1.072-.006-1.149-.12-1.372a.9.9 0 0 0-.291-.335c-.207-.119-.667-.162-.922-.085m12.373 13.914v9.013H6.987V7.093h18.026v9.014m-12.532-3.854c-.283.143-.413.381-.454.828-.019.212-.027 1.73-.017 3.372.016 2.941.018 2.99.132 3.2a.957.957 0 0 0 .293.32c.173.104.273.107 3.565.107h3.387l.191-.119a.835.835 0 0 0 .293-.345c.097-.215.102-.393.102-3.534 0-3.213-.003-3.314-.106-3.49a1.204 1.204 0 0 0-.258-.293c-.148-.111-.188-.112-3.546-.126-3.153-.013-3.41-.007-3.582.08m5.546 3.854v2.026h-4.054V14.08h4.054v2.027"/></svg>