
<svg xmlns="http://www.w3.org/2000/svg" width="12" height="12" viewBox="0 0 12 12">
    <path fill-rule="evenodd" d="M8.712 2.024l1.264 1.264c.699.699.699 1.831 0 2.53L5.818 9.976a1.788 1.788 0 0 1-2.53 0L2.024 8.712a1.788 1.788 0 0 1 0-2.53l4.158-4.158a1.788 1.788 0 0 1 2.53 0zM9.75 9a.75.75 0 1 1 0 1.5.75.75 0 0 1 0-1.5zM7.875 9a.75.75 0 1 1 0 1.5.75.75 0 0 1 0-1.5zm-2.67-4.354l-2.36 2.358a.626.626 0 0 0-.055.821l.056.065L4.11 9.154a.626.626 0 0 0 .822.056l.064-.056 2.358-2.358-2.15-2.15z"/>
</svg>
