<svg viewBox="0 0 16 16" xmlns="http://www.w3.org/2000/svg"><path d="M7.48 1.269c-1.383.142-2.525.576-3.549 1.347a8.621 8.621 0 0 0-1.137 1.091c-.771.923-1.282 2.074-1.479 3.333-.067.433-.067 1.487 0 1.92a6.882 6.882 0 0 0 1.072 2.787 7.05 7.05 0 0 0 1.904 1.891 6.88 6.88 0 0 0 2.749 1.047c.433.067 1.487.067 1.92 0a6.827 6.827 0 0 0 3.12-1.308c.326-.243 1.054-.971 1.297-1.297a6.827 6.827 0 0 0 1.308-3.12c.067-.433.067-1.487 0-1.92a6.882 6.882 0 0 0-1.072-2.787 6.596 6.596 0 0 0-.951-1.12C11.643 2.15 10.401 1.542 8.96 1.32c-.268-.041-1.247-.074-1.48-.051m.96 1.505c1.89.173 3.478 1.272 4.297 2.973a5.266 5.266 0 0 1 0 4.506 5.208 5.208 0 0 1-2.452 2.468c-1.805.872-3.871.658-5.497-.569a6.255 6.255 0 0 1-.944-.946c-1.608-2.118-1.419-5.047.448-6.914A5.22 5.22 0 0 1 8.44 2.774m-.768 1.029a.618.618 0 0 0-.232.143c-.191.191-.187.143-.187 2.309 0 2.163-.004 2.108.19 2.302.195.194.139.19 2.302.19 2.057 0 2.069-.001 2.253-.132a.709.709 0 0 0 .155-.183c.069-.117.074-.145.074-.432 0-.285-.005-.315-.073-.43a.64.64 0 0 0-.146-.173c-.2-.135-.135-.13-1.748-.138l-1.513-.008V5.79c0-1.243-.006-1.481-.042-1.6a.58.58 0 0 0-.388-.389 1.366 1.366 0 0 0-.645.002"/></svg>