<svg xmlns="http://www.w3.org/2000/svg" viewBox="0 0 24 24"><path d="M11.12 2.039c-2.784.279-5.215 1.585-6.927 3.721a9.971 9.971 0 0 0-.511 11.773 9.967 9.967 0 0 0 13.878 2.766A9.97 9.97 0 0 0 20.299 6.44c-1.571-2.348-3.98-3.878-6.806-4.321-.584-.092-1.833-.134-2.373-.08m.783 4.22a.634.634 0 0 1 .253.273c.083.171.084.213.084 2.895v2.722l1.508 1.136c.829.624 1.542 1.182 1.583 1.238a.708.708 0 0 1 .097.268c.036.27-.017.436-.2.627-.216.224-.445.273-.713.15-.096-.044-.922-.644-1.834-1.334-1.295-.978-1.679-1.289-1.75-1.414l-.09-.16V9.683c-.001-2.938 0-2.98.082-3.15.172-.354.626-.481.98-.274" fill-rule="evenodd"/></svg>