<svg width="256px" height="256px" fill="#000000" viewBox="0 0 256 256" version="1.1" xmlns="http://www.w3.org/2000/svg" xmlns:xlink="http://www.w3.org/1999/xlink">
    <path d="M248.921825,216.96 C257.704671,225.76 257.704671,240.32 248.921825,249.28 C244.450558,253.6 238.701786,256 232.633637,256 C226.565489,256 220.816717,253.6 216.505138,249.28 L127.734519,160.32 L38.9638986,249.28 C30.8198051,257.76 15.4897466,258.08 6.70690058,249.28 C-2.23563353,240.32 -2.23563353,225.76 6.70690058,216.96 L95.6372086,128 L6.70690058,39.04 C-2.23563353,30.08 -2.23563353,15.68 6.70690058,6.72 C15.3300585,-1.92 30.3407407,-1.92 38.9638986,6.72 L127.734519,95.68 L216.505138,6.72 C225.447673,-2.24 239.97929,-2.24 248.921825,6.72 C257.704671,15.68 257.704671,30.08 248.921825,39.04 L159.975548,128 L248.921825,216.96 Z" id="Path"></path>
</svg>