<svg width="256px" height="212px" viewBox="0 0 256 212" version="1.1" xmlns="http://www.w3.org/2000/svg" xmlns:xlink="http://www.w3.org/1999/xlink">
    <path d="M26.8266667,212.256 L11.744,197.173333 L18.9546667,189.952 C7.392,180.138667 2.22044605e-16,165.525333 2.22044605e-16,149.333333 C2.22044605e-16,121.173333 21.8666667,98.3466667 49.6,96.32 C56.8533333,59.6266667 89.1733333,32 128,32 C142.101333,32 155.349333,35.6586667 166.848,42.0693333 L207.84,1.07733333 L222.922667,16.16 L26.8266667,212.256 Z M198.933333,74.9866667 C231.04,78.5066667 256,105.6 256,138.666667 C256,173.76 227.093333,202.666667 192,202.666667 L68.1066667,202.666667 L195.701333,75.072 C196.917333,75.0186667 197.994667,74.9866667 198.933333,74.9866667 Z" id="Path"></path>
</svg>