<svg width="256px" height="256px" fill="#000000" viewBox="0 0 256 256" version="1.1" xmlns="http://www.w3.org/2000/svg" xmlns:xlink="http://www.w3.org/1999/xlink">
    <path d="M241.333292,102.87108 L205.808062,102.87108 C203.688342,96.0523977 200.723922,89.6169669 197.106054,83.6286628 L220.646101,59.962885 C226.224311,54.469614 226.224311,45.4632047 220.646101,39.9060585 L210.653136,29.9095828 C205.106802,24.3684055 196.133852,24.4003431 190.635331,29.9095828 L166.664965,53.878768 C160.194241,50.1899727 153.181634,47.3155867 145.706833,45.3993294 L145.706833,14.2122417 C145.706833,6.38752437 139.395486,0 131.538179,0 L117.369525,0 C109.560031,0 103.216809,6.38752437 103.216809,14.2122417 L103.216809,45.3833606 C95.0726226,47.4433372 87.4384436,50.7009747 80.4417743,54.9646472 L60.3761556,34.8918519 C54.8616965,29.3826121 45.8409339,29.3506745 40.310537,34.8918519 L30.3016342,44.9202651 C24.7712374,50.4454737 24.8349883,59.4678519 30.3335097,65.0249981 L50.7497588,85.4810448 C46.4306304,93.0342924 43.1952685,101.274199 41.3464903,110.009138 L14.6985837,110.009138 C6.84127626,110.009138 0.482116732,116.364725 0.482116732,124.22138 L0.482116732,138.401684 C0.482116732,146.226402 6.84127626,152.581988 14.6985837,152.581988 L43.163393,152.581988 C45.7453074,161.141271 49.6341167,169.013895 54.6226304,176.19986 L35.3698366,195.490183 C29.8235019,201.047329 29.8235019,210.069708 35.3379611,215.594916 L45.3309261,225.623329 C50.9091362,231.132569 59.8980233,231.132569 65.4124825,225.607361 L86.9443735,204.049466 C94.1801089,207.658417 102.053354,210.277302 110.325043,211.634651 L110.325043,241.320671 C110.325043,249.145388 116.668265,255.516943 124.493696,255.532912 L138.66235,255.532912 C146.471844,255.516943 152.831004,249.145388 152.831004,241.320671 L152.831004,207.977793 C159.971113,205.438752 166.728716,202.053365 172.864747,197.725817 L195.65572,220.625092 C201.186117,226.1503 210.159066,226.1503 215.689463,220.625092 L225.698366,210.58071 C231.260638,205.055501 231.260638,196.081029 225.650553,190.475977 L200.676109,165.404943 C203.736156,159.161138 206.126817,152.534082 207.609027,145.491836 L241.365167,145.491836 C249.206537,145.491836 255.533821,139.168187 255.549759,131.295563 L255.549759,117.09929 C255.501946,109.274573 249.174661,102.87108 241.333292,102.87108 Z M124.477759,163.217216 C104.922148,163.217216 89.0800311,147.360187 89.0800311,127.734519 C89.0800311,108.140788 104.922148,92.2837583 124.477759,92.2837583 C144.049307,92.2837583 159.907362,108.140788 159.907362,127.734519 C159.907362,147.360187 144.049307,163.217216 124.477759,163.217216 Z" id="Path"></path>
</svg>