<svg viewBox="0 0 16 16" xmlns="http://www.w3.org/2000/svg"><path d="M7.373 2.763c-2.043.092-3.897.598-5.105 1.392-.791.521-1.243 1.088-1.46 1.832-.042.143-.047.338-.056 1.893-.006 1.221 0 1.791.022 1.929.221 1.404 1.751 2.562 4.108 3.108 1.014.235 1.846.321 3.118.321 1.272 0 2.104-.086 3.118-.321 2.345-.544 3.858-1.682 4.107-3.089.046-.257.038-3.454-.009-3.699a2.47 2.47 0 0 0-.301-.8c-.799-1.324-2.878-2.262-5.574-2.514-.431-.04-1.563-.07-1.968-.052m1.68 1.531c1.943.163 3.583.732 4.327 1.5.484.5.478.938-.019 1.434-.254.254-.563.459-1.017.676-1.151.549-2.664.843-4.344.843-1.711 0-3.22-.298-4.387-.866-.656-.32-1.083-.669-1.266-1.035-.173-.346-.077-.704.285-1.068.745-.749 2.389-1.321 4.261-1.481a23.94 23.94 0 0 1 2.16-.003M2.659 9.082c.135.075.324.171.419.214l.174.077.001.66c0 .363-.007.66-.015.66-.031 0-.295-.186-.449-.317a1.652 1.652 0 0 1-.446-.549c-.074-.155-.076-.174-.076-.57v-.41l.073.049c.04.027.184.111.319.186m11.096.165c-.01.372-.015.403-.092.567-.097.205-.237.38-.452.562-.154.131-.418.317-.449.317-.008 0-.015-.294-.015-.653v-.653l.313-.158c.172-.087.391-.206.487-.266.095-.059.183-.108.196-.108.013-.001.019.176.012.392m-2.521 2.088c-.036.033-.702.183-1.114.25-.339.056-1.165.148-1.325.148-.046 0-.048-.043-.048-.745v-.745l.113-.013c.062-.008.275-.027.473-.043.198-.017.522-.053.72-.082.375-.055 1.15-.206 1.174-.23.007-.007.016.314.02.714.004.4-.002.736-.013.746M5.198 9.973a13.02 13.02 0 0 0 1.469.214c.198.016.411.035.473.043l.113.013v.745c0 .702-.002.745-.048.745-.027 0-.246-.018-.487-.041a11.807 11.807 0 0 1-1.6-.26l-.358-.087-.007-.726c-.005-.548.001-.726.025-.726.017 0 .206.036.42.08" fill-rule="evenodd"/></svg>