<svg xmlns="http://www.w3.org/2000/svg" width="24" height="24" viewBox="0 0 24 24">
    <path d="M5.833 1.5c-1.528 0-2.916.302-3.97.83C.896 2.767.12 3.586 0 4.521v9.22c0 1.032.801 1.835 1.858 2.363s2.444.835 3.975.835c1.25 0 2.405-.207 3.363-.57.746.364 1.585.57 2.47.57 3.11 0 5.644-2.534 5.644-5.644 0-3.111-2.534-5.645-5.645-5.645.01-.529-.005-.756-.005-1.129-.144-1.081-1.084-1.797-1.858-2.193C8.748 1.802 7.36 1.5 5.832 1.5zm0 1.14c1.381 0 2.627.291 3.48.718.747.373 1.134.815 1.218 1.194.074.674-.654 1.224-1.217 1.505-.854.426-2.1.717-3.481.717-1.382 0-2.628-.29-3.481-.717-.583-.364-1.228-.7-1.223-1.452.058-.39.44-.856 1.223-1.247.853-.427 2.099-.717 3.48-.717zM1.129 6.64c.223.165.472.315.735.447 1.053.526 2.44.829 3.969.829.481 0 .946-.035 1.393-.094-.286.364-.527.765-.717 1.193-.22.016-.447.024-.676.024-1.379 0-2.625-.286-3.475-.712-.85-.425-1.23-.935-1.23-1.358v-.33zm10.536.141c2.501 0 4.516 2.015 4.516 4.516 0 2.5-2.015 4.515-4.516 4.515-2.5 0-4.515-2.015-4.515-4.515 0-2.501 2.015-4.516 4.515-4.516zM1.13 8.89c.22.163.463.312.723.442 1.056.528 2.45.835 3.98.835.104 0 .205-.002.306-.006-.075.367-.117.746-.117 1.135-.063.002-.125 0-.188 0-1.379 0-2.625-.286-3.475-.712-.85-.425-1.23-.936-1.23-1.358v-.335zm0 2.259c.222.163.468.31.729.44 1.056.529 2.444.836 3.975.836.103 0 .204-.003.305-.006.079.386.194.758.347 1.111-.212.015-.431.024-.652.024-1.379 0-2.625-.287-3.475-.712-.85-.425-1.23-.936-1.23-1.358v-.335zm0 2.258c.22.162.463.31.723.44 1.056.529 2.45.835 3.98.835.435 0 .858-.027 1.265-.076.257.354.557.673.888.958-.645.155-1.379.247-2.152.247-1.378 0-2.618-.292-3.47-.717-.85-.425-1.234-.93-1.234-1.352v-.336z"/>
</svg>
