<svg viewBox="0 0 16 16" xmlns="http://www.w3.org/2000/svg"><path d="M2.767 4.029c-.281.066-.538.28-.671.558l-.083.173-.008.931c-.007.876-.004.941.047 1.107a.954.954 0 0 0 .385.523c.234.156.327.172.981.172H4v1.513l-.15.015a.911.911 0 0 0-.579.312c-.256.277-.267.326-.279 1.286-.006.482.001.89.017.994.058.369.257.64.586.796l.178.084h8.454l.178-.084a1.01 1.01 0 0 0 .583-.774c.014-.085.025-.486.025-.892v-.736l.127-.017c.309-.041.631-.287.772-.59l.075-.16.008-.931c.007-.876.004-.941-.047-1.107a.954.954 0 0 0-.385-.523c-.234-.156-.327-.172-.979-.172h-.581l-.008-.874-.008-.873-.076-.163a1.13 1.13 0 0 0-.511-.509l-.16-.075-4.187-.004c-2.379-.002-4.23.006-4.286.02m8.22 1.731v.747H3.013V5.013h7.974v.747m2 2.493v.76H5.013v-1.52h7.974v.76M12 10.747v.746H4V10h8v.747" fill-rule="evenodd"/></svg>