<svg xmlns="http://www.w3.org/2000/svg" width="10" height="12" fill="#000" fill-rule="evenodd"><path d="M2.17 2.463a.5.5 0 0 1 .001.707 4.02 4.02 0 0 0-1.034 1.793.5.5 0 1 1-.966-.26 5.02 5.02 0 0 1 1.291-2.239.5.5 0 0 1 .707-.001zM.526 6.68a.5.5 0 0 1 .611.355A3.98 3.98 0 0 0 2.17 8.83a.5.5 0 1 1-.707.707C.842 8.915.396 8.141.171 7.291a.5.5 0 0 1 .355-.611zm2.829 3.533a.5.5 0 0 1 .614-.35c.676.185 1.39.185 2.066 0a.5.5 0 1 1 .264.965c-.849.232-1.745.232-2.593 0a.5.5 0 0 1-.35-.614zm6.12-3.528a.5.5 0 0 1 .353.613 5.02 5.02 0 0 1-1.291 2.239.5.5 0 0 1-.708-.706 4.02 4.02 0 0 0 1.034-1.793.5.5 0 0 1 .613-.353z"/><path d="M7.829 2.463a.5.5 0 0 1 .707 0c.621.622 1.067 1.396 1.292 2.245a.5.5 0 0 1-.967.256 3.98 3.98 0 0 0-1.033-1.795.5.5 0 0 1 0-.707zM6.03 2.137c-.676-.185-1.39-.185-2.066 0a.5.5 0 1 1-.264-.965c.849-.232 1.745-.232 2.593 0a.5.5 0 1 1-.264.965z"/></svg>