<svg width="16" height="16" viewBox="0 0 16 16" fill="none" xmlns="http://www.w3.org/2000/svg">
<g id="coin">
<path id="Union" fill-rule="evenodd" clip-rule="evenodd" d="M8 13.25C9.63834 13.25 11.0676 13.0094 12.2131 12.6021C12.2414 12.5938 12.2689 12.5838 12.2956 12.5723C12.5769 12.4691 12.8405 12.3558 13.0854 12.2333C14.2913 11.6304 15.25 10.6864 15.25 9.5V6.5C15.25 5.2027 14.1422 4.26619 12.9105 3.69771C11.6151 3.09983 9.8782 2.75 8 2.75C6.1218 2.75 4.38492 3.09983 3.08951 3.69771C1.85781 4.26619 0.75 5.2027 0.75 6.5V9.5C0.75 10.6864 1.70874 11.6304 2.91459 12.2333C3.15953 12.3558 3.42325 12.4692 3.70461 12.5724C3.73119 12.5838 3.75857 12.5937 3.78663 12.6021C4.93222 13.0094 6.36154 13.25 8 13.25ZM3.7181 5.05965C2.59726 5.57696 2.25 6.14045 2.25 6.5C2.25 6.85955 2.59726 7.42304 3.7181 7.94035C4.77523 8.42826 6.28835 8.75 8 8.75C9.71165 8.75 11.2248 8.42826 12.2819 7.94035C13.4027 7.42304 13.75 6.85955 13.75 6.5C13.75 6.14045 13.4027 5.57696 12.2819 5.05965C11.2248 4.57174 9.71165 4.25 8 4.25C6.28835 4.25 4.77523 4.57174 3.7181 5.05965ZM13.75 8.83768C13.4857 9.01304 13.2016 9.16794 12.9105 9.30229C12.8577 9.32665 12.8042 9.35059 12.75 9.37411V10.708C13.5227 10.2432 13.75 9.77705 13.75 9.5V8.83768ZM8.75 10.2312C9.63713 10.1866 10.4818 10.0634 11.25 9.87305V11.3364C10.5461 11.539 9.70798 11.6816 8.75 11.731V10.2312ZM4.75 11.3364C5.45387 11.539 6.29202 11.6816 7.25 11.731V10.2312C6.36287 10.1866 5.51823 10.0634 4.75 9.87305V11.3364ZM3.25 9.37411C3.19579 9.35059 3.14228 9.32665 3.08951 9.30229C2.79843 9.16794 2.51426 9.01304 2.25 8.83768V9.5C2.25 9.77705 2.47727 10.2432 3.25 10.708V9.37411Z" />
</g>
</svg>
