<svg viewBox="0 0 30 28" xmlns="http://www.w3.org/2000/svg"><path fill-rule="evenodd" d="M16.575 4.854c-.809.074-2.256.333-3.189.569-3.223.816-5.864 2.14-7.579 3.801-.693.672-1.09 1.193-1.407 1.851-.303.628-.413 1.069-.409 1.65.002.422.045.6.685 2.875.752 2.673.83 2.873 1.333 3.423.733.8 1.905 1.344 3.519 1.635.58.104.794.116 2.072.114 1.549-.002 2.024-.047 3.425-.326 2.493-.496 4.897-1.393 6.743-2.517 1.52-.925 2.798-2.166 3.381-3.283a5.48 5.48 0 0 0 .33-.84c.116-.405.129-.527.11-.996-.021-.502-.061-.672-.654-2.766a88.805 88.805 0 0 0-.736-2.512c-.491-1.311-2.033-2.252-4.279-2.611-.594-.095-2.608-.136-3.345-.067m7.292 6.947c.273.967.291 1.254.112 1.761a4.163 4.163 0 0 1-.395.75c-.299.449-.953 1.183-1.006 1.131-.019-.018-.203-.631-.409-1.364l-.374-1.331.165-.135c.359-.293 1.112-1.056 1.355-1.374.142-.185.271-.32.288-.3.018.02.136.408.264.862m-2.998 3.2c.209.742.381 1.381.381 1.42 0 .075-.686.499-1.328.819-.912.456-2.704 1.151-2.773 1.075-.035-.038-.799-2.727-.799-2.812 0-.022.219-.113.488-.201 1.013-.335 2.652-1.07 3.387-1.52.11-.067.214-.125.231-.127.017-.003.203.603.413 1.346M7.486 16.15c.214.057.589.135.834.175.244.04.455.083.468.096.034.034.763 2.648.749 2.687-.007.018-.223-.022-.482-.089-1.127-.293-1.904-.782-2.217-1.394-.063-.124-.538-1.747-.538-1.839 0-.016.179.036.398.116.22.08.574.192.788.248m7.79 1.138c.214.763.391 1.408.394 1.434.007.063-1.059.296-1.97.43a16.35 16.35 0 0 1-1.626.135l-.901.027-.388-1.389c-.213-.764-.379-1.398-.369-1.408.01-.01.371-.041.802-.068a26.333 26.333 0 0 0 1.371-.126c.564-.073 2.064-.36 2.107-.402.011-.012.059-.021.106-.021.07 0 .159.262.474 1.388"/></svg>
