<svg xmlns="http://www.w3.org/2000/svg" fill-rule="evenodd" viewBox="0.15 1 9.69 10"><path d="M2.17 2.463a.5.5 0 0 1 .001.707 4.02 4.02 0 0 0-1.034 1.793.5.5 0 1 1-.966-.26 5.02 5.02 0 0 1 1.291-2.239.5.5 0 0 1 .707-.001zM.526 6.68a.5.5 0 0 1 .611.355A3.98 3.98 0 0 0 2.17 8.83a.5.5 0 1 1-.707.707A4.983 4.983 0 0 1 .171 7.291a.5.5 0 0 1 .355-.611zm2.829 3.533a.5.5 0 0 1 .614-.35c.676.185 1.39.185 2.066 0a.5.5 0 1 1 .264.965 4.917 4.917 0 0 1-2.593 0 .5.5 0 0 1-.35-.614zm6.12-3.528a.5.5 0 0 1 .353.613 5.02 5.02 0 0 1-1.291 2.239.5.5 0 0 1-.708-.706 4.02 4.02 0 0 0 1.034-1.793.5.5 0 0 1 .613-.353zM7.829 2.463a.5.5 0 0 1 .707 0 4.985 4.985 0 0 1 1.292 2.245.5.5 0 0 1-.967.256 3.98 3.98 0 0 0-1.033-1.795.5.5 0 0 1 0-.707zM6.03 2.137a3.915 3.915 0 0 0-2.066 0 .5.5 0 1 1-.264-.965 4.917 4.917 0 0 1 2.593 0 .5.5 0 1 1-.264.965z"/></svg>