<svg height="16" viewBox="0 0 16 16" width="16" xmlns="http://www.w3.org/2000/svg"><path d="m3 7.5c-.55228475 0-1-.44771525-1-1v-1.5c0-.55228475.44771525-1 1-1h8c.5522847 0 1 .44771525 1 1v1.5h1c.5522847 0 1 .44771525 1 1v1.5c0 .55228475-.4477153 1-1 1v1.5c0 .5128358-.3860402.9355072-.8833789.9932723l-.1166211.0067277h-8c-.51283584 0-.93550716-.3860402-.99327227-.8833789l-.00672773-.1166211v-1.5c0-.51283584.38604019-.93550716.88337887-.99327227l.11662113-.00672773v-1.5zm9 2.5h-8v1.5h8zm1-2.5h-8v1.5h8zm-2-2.5h-8v1.5h8z" fill-rule="evenodd"/></svg>