<svg xmlns="http://www.w3.org/2000/svg" viewBox="3.71 1.03 27.29 27.26"><path d="M17.565 1.068c-.242.075-.484.375-.525.65-.018.126-.026 1.009-.017 1.962.016 1.616.024 1.745.123 1.908.312.516 1.396.516 1.708 0 .1-.165.106-.276.106-2.104 0-1.866-.004-1.934-.11-2.077-.205-.275-.362-.353-.752-.372-.2-.01-.44.005-.533.033m8.905 1.06c-.291.135-.378.314-.477.979-.197 1.325-.828 1.906-2.07 1.906-.745 0-1.63.262-2.231.662-.951.631-1.635 1.954-1.657 3.205-.007.394.011.512.098.661.177.3.358.4.768.423.51.029.821-.11.966-.428.057-.126.105-.313.107-.416.005-.295.13-.806.275-1.123.307-.671.921-1.01 1.828-1.01.745 0 1.63-.262 2.231-.662.951-.631 1.635-1.954 1.657-3.205.009-.532-.068-.74-.354-.954-.216-.161-.834-.182-1.141-.038M11.898 5.895c-.472.132-.918.455-1.162.842-.113.179-1.724 4.485-2.228 5.956-.355 1.035-2.17 5.999-2.212 6.052-.025.03-.076.163-.113.295-.037.132-.609 1.728-1.27 3.547-1.187 3.264-1.203 3.312-1.205 3.733-.002.495.106.838.375 1.19.405.531.923.784 1.597.782.421-.002.469-.018 3.733-1.205a219.382 219.382 0 0 1 3.547-1.27c.132-.037.265-.088.295-.113.053-.042 5.017-1.857 6.052-2.212 1.484-.508 5.778-2.115 5.96-2.23.638-.403 1.018-1.269.874-1.99-.135-.675.099-.423-6.499-7.013-5.968-5.96-6.186-6.171-6.492-6.283-.419-.153-.888-.183-1.252-.081m6.422 7.813c3.675 3.675 5.844 5.882 5.805 5.907-.034.021-1.049.397-2.256.835l-2.195.797-4.461-4.46-4.46-4.461.577-1.589c.975-2.687 1.054-2.897 1.089-2.897.019 0 2.674 2.641 5.901 5.868m9.827-5.13c-1.842.619-2.016.707-2.127 1.076-.118.393.091.982.441 1.241.272.201.535.149 2.387-.468 1.871-.624 2.016-.699 2.128-1.107.107-.388-.135-1.035-.461-1.227-.298-.176-.569-.12-2.368.485m-1.539 4.488c-.217.115-.51.427-.585.623a.965.965 0 0 0 .032.681c.045.094.627.714 1.293 1.375 1.323 1.314 1.417 1.378 1.842 1.264.226-.061.641-.412.761-.644.111-.214.094-.573-.036-.792-.182-.304-2.349-2.439-2.57-2.532a.826.826 0 0 0-.737.025m-12.797 5.145c2.067 2.067 3.742 3.774 3.723 3.793-.042.041-4.364 1.62-4.44 1.622-.065.001-4.721-4.646-4.721-4.712 0-.037 1.414-3.957 1.575-4.367.02-.052.052-.094.071-.094.019 0 1.726 1.691 3.792 3.758m-2.84 6.194c-.063.052-5.224 1.893-5.246 1.871-.017-.017.398-1.208.921-2.647l.952-2.617 1.692 1.691c.931.931 1.687 1.696 1.681 1.702" fill-rule="evenodd" ></path></svg>