<svg viewBox="0 0 24 24" xmlns="http://www.w3.org/2000/svg"><path d="M11.58 2.026c-.695.057-1.146.117-1.615.213a9.997 9.997 0 0 0-4.186 1.964c-.428.338-1.301 1.217-1.626 1.637a10.225 10.225 0 0 0-2.04 4.76c-.071.459-.071 2.341 0 2.8.334 2.16 1.284 4.072 2.763 5.56.813.819 1.504 1.348 2.364 1.811.979.527 2.158.912 3.36 1.097.644.099 2.156.099 2.8 0 1.249-.192 2.472-.6 3.452-1.153 2.946-1.659 4.827-4.611 5.107-8.015.062-.747.063-.732-.089-.751l-.13-.016.13-.007c.15-.007.147.009.07-.317-.215-.912-1.038-1.486-1.96-1.367-.868.112-1.471-.054-1.96-.542-.346-.346-.474-.632-.594-1.328-.118-.689-.229-.95-.534-1.259-.291-.296-.553-.411-1.169-.514-.483-.081-.763-.157-.966-.261a2.173 2.173 0 0 1-.669-.607c-.318-.471-.416-.95-.331-1.625.035-.278.037-.442.005-.612a1.789 1.789 0 0 0-1.482-1.452c-.252-.04-.366-.043-.7-.016m.164 2.544c.002.479.019.631.106.955.31 1.158 1.057 2.09 2.095 2.61.271.136.71.276 1.234.392.214.048.242.065.268.173.017.066.076.309.131.54a3.946 3.946 0 0 0 2.194 2.66c.568.263 1.351.411 1.917.364l.311-.026v.186c0 .509-.264 1.768-.498 2.376a8.786 8.786 0 0 1-1.242 2.18c-.283.361-.999 1.07-1.36 1.346-1.614 1.232-3.748 1.843-5.692 1.632-1.56-.17-3.163-.837-4.328-1.799-2.235-1.847-3.305-4.913-2.714-7.779A8.413 8.413 0 0 1 5.674 7.1c.496-.649 1.367-1.433 2.092-1.882 1.128-.7 2.632-1.183 3.774-1.213L11.741 4l.003.57M7.425 9.12c-.26.13-.402.261-.526.485-.103.186-.119.256-.118.515.002.465.203.791.619 1.003.273.139.667.133.968-.015.483-.237.71-.803.545-1.356-.065-.218-.332-.506-.571-.617-.262-.122-.687-.129-.917-.015m4.95 1.462c-.218.081-.47.302-.603.528-.092.158-.108.229-.108.507-.001.366.053.506.29.756a1.09 1.09 0 0 0 1.567.03c.395-.395.43-1.065.077-1.493-.255-.309-.845-.467-1.223-.328M8.31 14.321c-.316.08-.579.33-.733.699-.094.226-.056.646.079.877.211.359.529.552.924.559.385.006.514-.039.76-.263.28-.256.339-.37.368-.71.04-.482-.191-.903-.605-1.099-.182-.086-.576-.117-.793-.063m5.891.786c-.675.294-.89 1.174-.421 1.722.164.192.479.359.744.395.463.063.999-.288 1.132-.741.168-.57-.044-1.09-.544-1.339-.168-.084-.262-.103-.49-.101a1.37 1.37 0 0 0-.421.064" fill-rule="evenodd"/></svg>