<svg width="24" height="24" viewBox="0 0 24 24" fill="none" xmlns="http://www.w3.org/2000/svg">
    <g opacity="0.6">
    <path fill-rule="evenodd" clip-rule="evenodd" d="M11.7558 4.00375C10.2634 4.05019 8.81154 4.51356 7.56603 5.34419C6.23869 6.22939 5.20633 7.49126 4.60162 8.96767C3.9969 10.4441 3.84745 12.0676 4.17245 13.6296C4.49746 15.1915 5.28208 16.6207 6.42551 17.7333L6.42557 17.7334C9.53998 20.7645 14.5767 20.731 17.6491 17.6585L17.6512 17.6564C18.4026 16.9095 18.9974 16.0202 19.4007 15.0405C19.7668 14.1512 19.9685 13.2038 19.9968 12.2441C19.5114 12.3143 19.0164 12.2947 18.5365 12.1854C17.9562 12.0532 17.4127 11.7932 16.9456 11.4244C16.4785 11.0555 16.0997 10.587 15.8366 10.0531C15.6071 9.58736 15.4708 9.08201 15.4346 8.56546C14.918 8.52919 14.4127 8.3929 13.9469 8.1634C13.413 7.90034 12.9445 7.52147 12.5757 7.05439C12.2068 6.58731 11.9468 6.0438 11.8146 5.46349C11.7054 4.98379 11.6858 4.48894 11.7558 4.00375ZM21 11.9438L21.9999 11.929C21.996 11.6688 21.9345 11.4127 21.8198 11.1792C21.7051 10.9456 21.5399 10.7404 21.3363 10.5784C21.1327 10.4163 20.8957 10.3015 20.6424 10.2421C20.389 10.1827 20.1257 10.1802 19.8713 10.2348L19.8712 10.2348L19.8624 10.2368C19.572 10.3019 19.2708 10.3014 18.9806 10.2353C18.6905 10.1692 18.4187 10.0392 18.1852 9.8548C17.9516 9.67036 17.7622 9.43614 17.6307 9.1692C17.4998 8.90366 17.4296 8.6124 17.425 8.31646C17.4227 7.85542 17.2386 7.41376 16.9124 7.08759C16.5863 6.76144 16.1446 6.57732 15.6836 6.57505C15.3877 6.57044 15.0964 6.50019 14.8308 6.36934C14.5639 6.23782 14.3296 6.04838 14.1452 5.81484C13.9608 5.5813 13.8308 5.30955 13.7647 5.01939C13.6986 4.72923 13.6981 4.42798 13.7632 4.13761L13.7633 4.13762L13.7652 4.12876C13.8198 3.87435 13.8174 3.61098 13.7579 3.35763C13.6985 3.10428 13.5837 2.86727 13.4216 2.66367C13.2596 2.46007 13.0544 2.29495 12.8208 2.18021C12.5873 2.06548 12.3312 2.00397 12.071 2.00013L12.071 2.00009L12.062 2.00004C10.0677 1.98862 8.11555 2.57376 6.45637 3.68027C4.79718 4.78677 3.50674 6.36411 2.75085 8.20961C1.99495 10.0551 1.80813 12.0845 2.21439 14.037C2.62064 15.9894 3.6014 17.7758 5.03065 19.1666C8.92839 22.9602 15.2159 22.9191 19.0623 19.0738C20.0019 18.1395 20.7457 17.0272 21.2501 15.8019C21.7547 14.5761 22.0097 13.262 22 11.9365L21 11.9438Z" fill="black"/>
    <path d="M14.625 17.25C15.2463 17.25 15.75 16.7463 15.75 16.125C15.75 15.5037 15.2463 15 14.625 15C14.0037 15 13.5 15.5037 13.5 16.125C13.5 16.7463 14.0037 17.25 14.625 17.25Z" fill="black"/>
    <path d="M8.625 16.5C9.24632 16.5 9.75 15.9963 9.75 15.375C9.75 14.7537 9.24632 14.25 8.625 14.25C8.00368 14.25 7.5 14.7537 7.5 15.375C7.5 15.9963 8.00368 16.5 8.625 16.5Z" fill="black"/>
    <path d="M7.875 11.25C8.49632 11.25 9 10.7463 9 10.125C9 9.50368 8.49632 9 7.875 9C7.25368 9 6.75 9.50368 6.75 10.125C6.75 10.7463 7.25368 11.25 7.875 11.25Z" fill="black"/>
    <path d="M12.75 12.75C13.3713 12.75 13.875 12.2463 13.875 11.625C13.875 11.0037 13.3713 10.5 12.75 10.5C12.1287 10.5 11.625 11.0037 11.625 11.625C11.625 12.2463 12.1287 12.75 12.75 12.75Z" fill="black"/>
    </g>
</svg>
