<svg xmlns="http://www.w3.org/2000/svg" viewBox="0 0 16 16"><path d="m6.587 2.025-.494.016-.207.101c-.374.182-.705.552-.823.923-.05.159-.057.258-.07 1.062l-.014.886-.763.001c-.419.001-.853.012-.963.026a1.407 1.407 0 0 0-.796.407c-.296.299-.394.507-.431.911-.029.319-.031 5.617-.003 6.175.019.374.023.394.12.596.14.291.437.588.728.727l.208.101.481.022c.264.013 1.776.019 3.36.015l2.88-.007.177-.069c.097-.038.234-.103.304-.144.179-.105.438-.376.537-.563.165-.311.173-.369.188-1.321l.014-.869.857-.015c1.124-.019 1.239-.05 1.646-.438.168-.161.234-.248.319-.419.093-.189.109-.25.131-.496.014-.154.025-1.66.025-3.36v-3.08l-.074-.188a1.561 1.561 0 0 0-.797-.871l-.229-.114-1.136-.017c-1.39-.02-4.503-.019-5.175.002m5.92 4.468v3h-6v-6h6v3m-7.52 1.609v1.595l.065.192c.099.292.197.452.401.661.197.2.354.295.665.401l.185.062h3.19v1.494h-6v-6h1.494v1.595" fill-rule="evenodd"/></svg>