<svg xmlns="http://www.w3.org/2000/svg" width="24" height="24" viewBox="0 0 24 24">
    <path fill-rule="evenodd" d="M3.82 5h16.553c1.04 0 1.56.52 1.56 1.56V7.6H2V6.213C2 5.173 2.78 5 3.82 5zm-.26 13C2.867 18 2 17.393 2 16.354h.087v-7.02H22.02v7.02c0 .693-.26 1.646-1.56 1.646H3.56zm15.08-6.066c-.26-.347-.52-.52-.954-.52-.606 0-1.213.52-1.213 1.213 0 .693.52 1.213 1.213 1.213.434 0 .694-.26.954-.52.26.347.52.52.953.52.693 0 1.213-.52 1.213-1.213 0-.693-.52-1.213-1.213-1.213-.433 0-.693.26-.953.52z" clip-rule="evenodd"/>
</svg>
