<svg viewBox="0 0 24 24" xmlns="http://www.w3.org/2000/svg"><path d="M5.46 5.115a.61.61 0 0 0-.358.375.746.746 0 0 0-.001.581c.043.104.928 1.016 2.95 3.039L10.94 12l-2.889 2.89c-2.022 2.023-2.907 2.935-2.95 3.039a.802.802 0 0 0 .131.805c.179.203.564.278.839.165.104-.043 1.016-.928 3.039-2.95L12 13.06l2.89 2.889c2.023 2.022 2.935 2.907 3.039 2.95.275.113.66.038.839-.165a.802.802 0 0 0 .131-.805c-.043-.104-.928-1.016-2.95-3.039L13.06 12l2.889-2.89c2.022-2.023 2.907-2.935 2.95-3.039.113-.275.038-.66-.165-.839a.802.802 0 0 0-.805-.131c-.104.043-1.016.928-3.039 2.95L12 10.94 9.11 8.051c-2.023-2.022-2.935-2.907-3.039-2.95a.76.76 0 0 0-.611.014" fill-rule="evenodd"/></svg>