<svg height="16" viewBox="0 0 16 16" width="16" xmlns="http://www.w3.org/2000/svg"><path d="m12.2784747 3.72152528c.2953671.29536704.2953671.77425164 0 1.06961868l-3.20885602 3.20885604 3.20885602 3.208856c.2953671.2953671.2953671.7742517 0 1.0696187-.295367.2953671-.7742516.2953671-1.0696187 0l-3.208856-3.20885602-3.20885604 3.20885602c-.29536704.2953671-.77425164.2953671-1.06961868 0-.29536704-.295367-.29536704-.7742516 0-1.0696187l3.20956912-3.20956908-3.20956912-3.20814296c-.29536704-.29536704-.29536704-.77425164 0-1.06961868s.77425164-.29536704 1.06961868 0l3.20956912 3.20814296 3.20814292-3.20814296c.2953671-.29536704.7742517-.29536704 1.0696187 0z" fill-rule="evenodd"/></svg>