<svg xmlns="http://www.w3.org/2000/svg" viewBox="0 0 22 22" xml:space="preserve" style="fill-rule:evenodd;clip-rule:evenodd;stroke-linejoin:round;stroke-miterlimit:2"><path d="M4.51 3.443c-.402.13-.797.467-.973.829-.096.195-.108.258-.108.569-.001.621-.162.427 2.894 3.482l2.659 2.657-2.671 2.678c-3.053 3.061-2.883 2.856-2.883 3.465 0 .316.011.372.117.596.152.32.416.584.736.736.224.106.28.117.596.117.577 0 .406.143 3.446-2.897l2.658-2.657 2.677 2.671c3.061 3.054 2.855 2.883 3.466 2.883.319 0 .369-.01.59-.119.308-.151.587-.431.739-.739.109-.22.119-.27.119-.59 0-.611.171-.405-2.883-3.466l-2.671-2.677 2.657-2.658c3.04-3.04 2.897-2.869 2.897-3.446 0-.316-.011-.372-.117-.596a1.55 1.55 0 0 0-.727-.727c-.236-.116-.28-.126-.604-.125-.61 0-.428-.151-3.484 2.899l-2.658 2.654-2.677-2.674c-3.017-3.015-2.847-2.87-3.41-2.887a1.739 1.739 0 0 0-.385.022"/></svg>