<svg xmlns="http://www.w3.org/2000/svg" width="24" height="24" viewBox="0 0 24 24">
    <g clip-path="url(#prefix__clip0)">
        <path fill-rule="evenodd" d="M17.338 1.75l4.099 4.499c.363.396.564.916.563 1.454v14.188c0 .284-.056.565-.165.826-.109.262-.268.5-.468.7-.2.2-.438.359-.7.467-.26.108-.54.163-.824.162H4.151c-.57 0-1.117-.227-1.52-.63-.403-.405-.63-.953-.631-1.525V3.204c0-.284.057-.565.165-.828.11-.262.269-.5.47-.7.2-.2.439-.36.7-.468.263-.108.543-.163.827-.162H15.75c.299.001.594.064.867.185s.519.298.72.518zm.1 5.138h2.64l-3.357-3.684v2.965c0 .191.075.374.21.508.134.135.316.21.506.21zm-8.224 9.33c.268-.105.512-.261.719-.462.043-.044.07-.103.073-.165.004-.062-.015-.123-.053-.172l-.339-.404c-.041-.048-.1-.078-.163-.082-.063-.005-.125.015-.173.056-.085.066-.176.124-.27.174-.18.1-.382.15-.587.146-.183.005-.364-.034-.528-.113-.165-.08-.308-.198-.418-.345-.254-.375-.377-.825-.351-1.278-.004-.246.03-.49.102-.726.06-.196.155-.38.28-.542.112-.144.255-.261.418-.342.159-.08.333-.12.51-.12.177-.003.352.039.51.12.09.048.174.103.255.166.048.036.109.051.168.044.06-.008.115-.038.153-.085l.344-.422c.034-.048.05-.107.046-.165-.005-.059-.029-.114-.07-.157-.156-.128-.327-.237-.509-.327-.288-.144-.606-.215-.928-.21-.332 0-.66.063-.968.19-.306.123-.58.311-.806.551-.239.257-.426.557-.55.885-.14.378-.207.778-.2 1.181-.007.405.06.808.2 1.189.115.326.3.625.54.874.226.224.496.398.793.511.306.12.632.179.96.177.288.007.574-.043.842-.147zm4.257-.352c.166-.141.3-.316.395-.514v-.012c.09-.204.135-.425.133-.647.015-.33-.085-.653-.284-.915-.205-.243-.468-.43-.764-.542l-.689-.282-.32-.135c-.09-.036-.174-.08-.256-.13-.075-.037-.141-.088-.196-.151-.042-.062-.063-.135-.061-.21-.003-.07.013-.14.045-.203s.08-.116.139-.155c.152-.094.33-.139.51-.128.2-.002.398.036.583.113.115.053.225.116.329.189.05.033.109.046.167.037.059-.009.112-.04.149-.085l.331-.415c.02-.024.035-.053.044-.083.009-.031.012-.063.008-.095-.003-.031-.013-.062-.029-.09-.015-.027-.036-.052-.06-.072-.188-.152-.396-.274-.62-.363-.295-.118-.609-.18-.926-.181-.26-.003-.518.038-.764.122-.221.076-.426.192-.605.343-.165.141-.3.315-.395.511-.091.194-.138.407-.137.622-.004.18.026.361.089.531.06.151.147.29.255.412.101.117.217.22.344.31.125.084.26.155.4.211l.699.297.316.138c.089.035.174.08.255.13.063.041.116.096.155.161.037.066.056.14.054.215.002.073-.014.146-.046.212-.031.066-.079.123-.138.166-.168.106-.365.155-.563.141-.237-.003-.471-.058-.686-.158-.164-.074-.32-.164-.466-.269-.049-.034-.108-.048-.167-.04-.059.008-.112.038-.15.084l-.392.473c-.04.051-.057.116-.05.18.006.065.037.125.086.167.224.176.474.316.742.414.333.128.687.194 1.045.195.29.004.579-.042.854-.136.232-.08.448-.204.637-.363zm3.546.228l1.465-4.89c.011-.037.013-.075.007-.112-.007-.037-.022-.072-.045-.101-.022-.03-.052-.054-.085-.07-.034-.017-.071-.025-.109-.024h-.724c-.053 0-.104.017-.146.05-.042.032-.072.077-.086.129l-.593 2.323c-.077.297-.15.586-.215.862-.063.276-.135.562-.211.859h-.041c-.084-.297-.158-.58-.22-.86-.06-.278-.134-.564-.216-.86l-.594-2.325c-.013-.05-.043-.096-.085-.129-.042-.032-.094-.05-.147-.05h-.764c-.037 0-.074.01-.107.026-.033.017-.062.04-.084.07-.022.03-.037.065-.043.102-.006.036-.004.074.007.11l1.48 4.895c.015.049.045.091.086.122.041.03.09.046.141.046h1.097c.052.001.103-.015.145-.047.042-.031.073-.076.087-.126z" clip-rule="evenodd"/>
    </g>
    <defs>
        <clipPath id="prefix__clip0">
            <path fill="#fff" d="M0 0H24V24H0z"/>
        </clipPath>
    </defs>
</svg>
