<svg xmlns="http://www.w3.org/2000/svg" viewBox="0 0 24 24"><path d="M3.76 1.084c-.341.055-.835.319-1.107.589a2.005 2.005 0 0 0-.572.984c-.08.312-.081.418-.081 9.901 0 10.56-.019 9.772.248 10.322.179.369.562.743.97.943l.318.157h16.928l.318-.156a2.208 2.208 0 0 0 1.157-1.442c.091-.355.091-14.788.001-15.172a2.206 2.206 0 0 0-.466-.91 666.71 666.71 0 0 0-4.09-4.495 2.507 2.507 0 0 0-.981-.656l-.263-.089-6.08-.006c-3.4-.003-6.177.01-6.3.03m14.586 3.907c.877.962 1.619 1.782 1.65 1.821.054.068-.01.07-1.383.059l-1.439-.011-.152-.115c-.296-.227-.3-.251-.301-1.975-.001-.841.006-1.53.015-1.53s.733.788 1.61 1.751m-9.586 5.85c.3.046.846.298 1.04.479.165.154.146.241-.129.584-.177.22-.223.256-.336.256-.072 0-.142-.018-.155-.041a1.048 1.048 0 0 0-.233-.148c-.276-.142-.715-.151-.987-.018-.514.25-.789.755-.828 1.527-.053 1.016.396 1.72 1.163 1.826.237.032.533-.044.804-.207.365-.22.361-.22.625.062.375.4.369.504-.048.796-.431.303-.709.383-1.316.381-.431-.002-.544-.017-.821-.109A2.259 2.259 0 0 1 6.18 15.02c-.179-.385-.259-.726-.286-1.22-.042-.759.136-1.436.518-1.971.302-.423.593-.651 1.079-.844a2.333 2.333 0 0 1 1.269-.144m3.856.019c.314.066.684.231.934.415.235.173.229.281-.034.61-.112.14-.237.268-.279.284-.051.019-.177-.024-.387-.131-.507-.259-1.036-.258-1.296.002a.326.326 0 0 0-.114.26c0 .286.077.343.958.708.32.133.664.283.764.333.299.151.572.426.702.707.103.224.116.294.113.632-.004.513-.105.774-.421 1.091-.422.422-.981.612-1.696.578a2.779 2.779 0 0 1-1.26-.333c-.563-.293-.599-.42-.24-.846.131-.156.274-.295.317-.309.052-.017.182.035.391.156.371.215.739.318 1.05.295.42-.032.642-.215.642-.529 0-.245-.143-.351-.92-.686-.861-.371-.967-.432-1.233-.713-.31-.328-.385-.52-.385-.984 0-.338.013-.407.116-.619.361-.744 1.308-1.127 2.278-.921m2.562.19c.03.072.273.994.54 2.05.522 2.067.515 2.04.542 2.013.01-.01.245-.917.522-2.016.276-1.098.529-2.038.562-2.088.057-.088.077-.091.567-.08l.507.011.039.11c.032.092-.082.512-.699 2.58-.544 1.821-.761 2.494-.826 2.56-.084.085-.119.09-.692.09s-.608-.005-.692-.09c-.065-.066-.288-.749-.841-2.583-.72-2.385-.75-2.496-.689-2.59.062-.095.077-.097.585-.097h.521l.054.13" fill-rule="evenodd"/></svg>