<svg fill="none" xmlns="http://www.w3.org/2000/svg" viewBox="0 0 24 24">
    <path d="M11.59 1.041a2.08 2.08 0 0 0-.344.136c-.603.305-8.495 4.775-8.639 4.892-.208.17-.42.478-.515.751-.064.185-.07.558-.082 4.98-.009 3.212.001 4.872.029 5.06.057.375.246.752.502 1 .166.162 1.018.656 4.422 2.568 2.32 1.303 4.307 2.41 4.417 2.46.168.077.267.092.62.092s.452-.015.62-.092c.11-.05 2.097-1.157 4.417-2.46 3.404-1.912 4.256-2.406 4.422-2.568.25-.242.443-.621.5-.98.053-.34.054-9.344 0-9.755a1.827 1.827 0 0 0-.149-.52c-.241-.492-.176-.451-4.774-3.033-2.319-1.302-4.305-2.407-4.414-2.455-.225-.1-.778-.14-1.032-.076m3.898 3.93c1.885 1.061 3.428 1.947 3.429 1.969.002.038-6.537 3.782-6.76 3.871-.093.037-.431-.142-3.609-1.914-1.929-1.075-3.494-1.966-3.477-1.981.079-.074 6.877-3.874 6.929-3.874.033 0 1.602.868 3.488 1.929m-7.915 5.645 3.507 1.956v1.087c0 .598-.012 2.361-.027 3.916-.022 2.392-.035 2.827-.082 2.817-.031-.007-1.611-.885-3.512-1.952L4.003 16.5l-.001-3.933c-.001-2.164.013-3.928.031-3.92.017.007 1.61.893 3.54 1.969m12.425 1.954-.001 3.93-3.454 1.938a402.37 402.37 0 0 1-3.5 1.954c-.034.012-.039-.888-.019-3.538.014-1.955.037-3.721.051-3.924l.025-.37 3.44-1.957c1.892-1.077 3.445-1.959 3.45-1.96.005-.002.009 1.766.008 3.927" fill-rule="evenodd" fill="#000"/>
</svg>
