<svg xmlns="http://www.w3.org/2000/svg" viewBox="1.77 3.01 12.45 9.98"><path d="M6.175 3.053a.595.595 0 0 0-.388.411c-.017.06-.026.738-.026 1.803.001 1.836 0 1.811.142 1.997.212.278.879.312 1.139.06.172-.167.197-.267.207-.823l.008-.5 3.258-.007 3.258-.007.147-.083a.602.602 0 0 0 .227-.211c.077-.124.08-.141.08-.438 0-.288-.005-.316-.074-.433a.692.692 0 0 0-.155-.183c-.19-.136-.098-.132-3.533-.132H7.257l-.008-.5c-.009-.482-.012-.506-.082-.648-.122-.249-.312-.346-.67-.344-.12 0-.264.018-.322.038M2.196 4.544a.579.579 0 0 0-.349.278c-.069.117-.074.145-.074.433 0 .297.003.314.08.438a.602.602 0 0 0 .227.211l.147.083 1.208.008c1.346.008 1.409.002 1.596-.162.129-.114.197-.274.215-.51.026-.347-.097-.609-.35-.745-.108-.057-.129-.058-1.349-.063-.966-.005-1.265.002-1.351.029m8 3.999a.585.585 0 0 0-.349.279l-.074.125v1.8c0 1.791.001 1.8.058 1.906.143.266.444.385.836.33.248-.035.391-.13.493-.329.079-.155.08-.161.089-.659l.008-.502h1.208c1.284 0 1.356-.006 1.533-.132a.692.692 0 0 0 .155-.183c.069-.117.074-.145.074-.433 0-.298-.003-.314-.081-.44a.51.51 0 0 0-.238-.211l-.157-.081-1.249-.008-1.249-.007V9.55c0-.509-.031-.667-.165-.819-.136-.154-.266-.206-.541-.216a1.207 1.207 0 0 0-.351.028m-7.957 1.493a.615.615 0 0 0-.393.28c-.068.116-.073.144-.073.431 0 .286.005.314.074.431.04.069.11.151.155.183.19.136.1.132 3.506.132 3.519 0 3.351.008 3.535-.17.145-.141.197-.289.197-.563 0-.133-.016-.286-.036-.342a.653.653 0 0 0-.324-.349c-.119-.055-.139-.056-3.32-.061-2.472-.004-3.228.003-3.321.028" fill-rule="evenodd"/></svg>