<svg viewBox="0 0 16 16" xmlns="http://www.w3.org/2000/svg"><path d="M13 2a1 1 0 0 1 1 1v7a1 1 0 0 1-1 1h-1.251l.57 2.272a.586.586 0 0 1-.569.728.96.96 0 0 1-.932-.728L10.25 11H5.75l-.568 2.272A.96.96 0 0 1 4.25 14a.586.586 0 0 1-.584-.634l.016-.094L4.25 11H3a1 1 0 0 1-1-1V3a1 1 0 0 1 1-1zm-.25 1.25h-9.5v6.5h9.5zM5.625 6.5c.345 0 .625.28.625.625v.75a.625.625 0 1 1-1.25 0v-.75c0-.345.28-.625.625-.625zm2.37-1c.345 0 .625.28.625.625v1.75a.625.625 0 1 1-1.25 0v-1.75c0-.345.28-.625.625-.625zm2.38-1c.345 0 .625.28.625.625v2.75a.625.625 0 1 1-1.25 0v-2.75c0-.345.28-.625.625-.625z" fill-rule="evenodd"/></svg>