<svg width="16" height="16" viewBox="0 0 16 16" fill="none" xmlns="http://www.w3.org/2000/svg">
<g id="device">
<g id="Union">
<path d="M5.3 5C5.13431 5 5 5.13431 5 5.3V8.7C5 8.86569 5.13431 9 5.3 9H10.7C10.8657 9 11 8.86569 11 8.7V5.3C11 5.13431 10.8657 5 10.7 5H5.3Z" />
<path fill-rule="evenodd" clip-rule="evenodd" d="M4 2.25C3.0335 2.25 2.25 3.0335 2.25 4V8.12732C2.25 9.84222 2.90273 11.4928 4.07562 12.7439L5.90654 14.6969C6.23738 15.0498 6.69952 15.25 7.18323 15.25H8.81677C9.30048 15.25 9.76262 15.0498 10.0935 14.6969L11.9244 12.7439C13.0973 11.4928 13.75 9.84222 13.75 8.12732V4C13.75 3.0335 12.9665 2.25 12 2.25H4ZM3.75 4C3.75 3.86193 3.86193 3.75 4 3.75H12C12.1381 3.75 12.25 3.86193 12.25 4V8.12732C12.25 9.46113 11.7423 10.7449 10.8301 11.718L8.99915 13.671C8.95189 13.7214 8.88587 13.75 8.81677 13.75H7.18323C7.11413 13.75 7.04811 13.7214 7.00085 13.671L5.16993 11.718C4.25768 10.7449 3.75 9.46113 3.75 8.12732V4Z" />
</g>
</g>
</svg>
