<svg viewBox="0 0 16 16" xmlns="http://www.w3.org/2000/svg"><path d="M6.469 2.06c-.057.087-.081.269-.213 1.607-.177 1.788-.169 1.62-.082 1.689.069.054.101.057.563.057h.489l.127-.097c.49-.376 1.166-.349 1.454.059l.083.118h.602c.331 0 .618-.011.639-.024.032-.021.029-.052-.022-.207-.12-.367-.209-.512-.48-.785-.269-.271-.451-.385-.798-.502-.233-.079-1.01-.081-1.258-.004l-.164.052.014-.058c.008-.032.029-.211.047-.398l.034-.34.108-.004 1.144-.02 1.035-.016.051-.063c.046-.057.051-.11.051-.523 0-.425-.004-.466-.055-.531L9.783 2H6.508l-.039.06M3.933 6.771c-1.603.017-1.508.006-1.709.207a.686.686 0 0 0-.209.529c0 .299.153.533.444.678l.163.082h10.751l.16-.077c.295-.141.452-.383.452-.697a.737.737 0 0 0-.406-.663c-.095-.048-.252-.05-4.152-.062a654.28 654.28 0 0 0-5.494.003m1.508 2.822c-.07.252-.006.486.174.645.101.089.618.348 1.238.621l.313.14c.004.003-.086.045-.2.094-.113.048-.472.217-.796.375-.685.333-.732.374-.752.642a1.02 1.02 0 0 0 .024.283.593.593 0 0 0 .551.407c.186 0 .369-.103 1.079-.608.478-.34.572-.402.549-.364-.032.052-.134 1.382-.122 1.591.014.247.089.38.274.489.242.141.487.112.707-.086a.629.629 0 0 0 .162-.215c.04-.121.019-.644-.053-1.314a6.197 6.197 0 0 1-.041-.475c.004-.006.099.057.21.139.377.279 1.039.717 1.184.784a.433.433 0 0 0 .28.05.608.608 0 0 0 .441-.28c.136-.247.094-.599-.088-.738-.071-.054-.861-.447-1.437-.715l-.128-.059.288-.131c1.068-.486 1.292-.615 1.388-.799.05-.094.055-.385.01-.502l-.028-.074H9.541l-.257.178c-.142.098-.37.261-.507.362l-.249.184.016-.102c.064-.42.074-.575.039-.598-.02-.013-.261-.023-.536-.023-.384-.001-.5.007-.499.033l.035.334c.028.247.028.299-.001.288a12.27 12.27 0 0 1-.498-.335l-.464-.321H5.469l-.028.1" fill-rule="evenodd"/></svg>