<?xml version="1.0" encoding="UTF-8"?>
<svg width="255px" height="242px" fill="#000000" viewBox="0 0 255 242" version="1.1" xmlns="http://www.w3.org/2000/svg" xmlns:xlink="http://www.w3.org/1999/xlink">
    <path d="M18.4685714,242.578286 L1.2312381,225.340952 L13.0194286,213.552762 C12.4830476,211.541333 12.1904762,209.42019 12.1904762,207.238095 L12.1904762,48.7619048 C12.1904762,35.2304762 23.04,24.3809524 36.5714286,24.3809524 L109.714286,24.3809524 L134.095238,48.7619048 L177.810286,48.7619048 L225.340952,1.2312381 L242.578286,18.4685714 L18.4685714,242.578286 Z M244.699429,52.5653333 C251.489524,56.8929524 256,64.487619 256,73.1428571 L256,207.238095 C256,220.708571 245.089524,231.619048 231.619048,231.619048 L65.6457143,231.619048 L141.007238,156.245333 L182.857143,198.095238 L234.666667,146.285714 L195.047619,146.285714 L195.047619,102.217143 L244.699429,52.5653333 Z M150.979048,146.285714 L170.666667,126.598095 L170.666667,146.285714 L150.979048,146.285714 Z" id="Path"></path>
</svg>