<svg width="183px" height="256px" fill="#000000" viewBox="0 0 183 256" version="1.1" xmlns="http://www.w3.org/2000/svg" xmlns:xlink="http://www.w3.org/1999/xlink">
    <path d="M8.74583658,77.3179767 C10.3670039,76.6092451 12.2556265,76.196358 14.2408716,76.196358 C14.3823191,76.196358 14.5227704,76.1983502 14.6632218,76.2028327 L14.6428016,76.2023346 C18.7881089,76.4668016 22.4408405,78.3793307 24.987393,81.2854786 L25.0023346,81.3024125 L71.5405447,135.809494 C71.7288093,136.175564 72.1038444,136.421603 72.5361556,136.421603 C73.152249,136.421603 73.6517977,135.922054 73.6517977,135.305961 C73.6517977,135.201868 73.6373541,135.100763 73.6104591,135.004638 L73.6124514,135.012607 L73.6124514,18.8264591 C73.5616498,18.3348794 73.5327626,17.764607 73.5327626,17.1873619 C73.5327626,7.85730739 81.096716,0.293354086 90.4267704,0.293354086 C99.7568249,0.293354086 107.320778,7.85730739 107.320778,17.1873619 C107.320778,17.764607 107.291891,18.3348794 107.235113,18.8971829 L107.241089,18.8264591 L107.241089,136.447004 C107.216187,136.53516 107.201743,136.635767 107.201743,136.740358 C107.201743,137.356451 107.701292,137.856 108.317385,137.856 C108.749696,137.856 109.124732,137.609961 109.310008,137.250366 L109.312996,137.243891 L153.301167,85.2868482 C155.893043,82.1276887 159.796794,80.128 164.168218,80.128 C168.008716,80.128 171.489121,81.6714708 174.021728,84.1727004 L174.020233,84.1712062 C177.088249,87.0823346 178.997292,91.1887938 178.997292,95.7415097 C178.997292,99.8106148 177.472249,103.523611 174.962553,106.340109 L174.976498,106.324171 L101.981634,192.706739 C99.3364669,195.769774 95.4765447,197.72165 91.1584125,197.806817 L91.1439689,197.806817 C86.7974475,197.788887 82.9146148,195.819082 80.3242335,192.728654 L80.3063035,192.706739 L4.60202335,103.774132 C1.89210895,100.724047 0.23707393,96.6848249 0.23707393,92.2586148 C0.23707393,85.9343191 3.61637354,80.3999377 8.66764202,77.3613074 L8.74583658,77.3174786 L8.74583658,77.3179767 Z" id="Path"></path>
    <path d="M182.148482,237.173541 C182.160436,237.416591 182.167409,237.701479 182.167409,237.98786 C182.167409,247.396607 174.75586,255.074117 165.452202,255.500949 L165.413852,255.502444 L19.7428794,255.502444 C10.3819455,254.600965 3.12180545,246.775035 3.12180545,237.253728 C3.12180545,227.73242 10.3819455,219.90649 19.6681712,219.010988 L19.7428794,219.005012 L165.413852,219.005012 C174.752872,219.436327 182.160934,227.112342 182.160934,236.519097 C182.160934,236.749696 182.156451,236.978802 182.147486,237.206911 L182.148482,237.174039 L182.148482,237.173541 Z" id="Path"></path>
</svg>