<svg height="16" viewBox="0 0 16 16" width="16" xmlns="http://www.w3.org/2000/svg"><path d="m12.85 10c.3589851 0 .65.2910149.65.65v1.35c0 1.1045695-.8954305 2-2 2h-7c-1.1045695 0-2-.8954305-2-2v-1.35c0-.3589851.29101491-.65.65-.65s.65.2910149.65.65v1.35c0 .3543827.26334362.6472582.60501415.6936098l.09498585.0063902h7c.3543827 0 .6472582-.2633436.6936098-.6050141l.0063902-.0949859v-1.35c0-.3589851.2910149-.65.65-.65zm-4.85-8c.41421356 0 .75.33578644.75.75l-.001 5.397 2.459856-2.42824372c.2685155-.26515913.6886984-.2892645.9847898-.07231613l.0848289.07231613c.2953671.29167503.2953671.76457371 0 1.05624874l-4.2784747 4.22499498-4.27847472-4.22499498c-.29536704-.29167503-.29536704-.76457371 0-1.05624874.29536704-.29167504.77425164-.29167504 1.06961868 0l2.45785604 2.42824372.001-5.397c0-.41421356.33578644-.75.75-.75z" fill-rule="evenodd"/></svg>