<svg xmlns="http://www.w3.org/2000/svg" width="24" height="24" viewBox="0 0 24 24">
    <path d="M12 0C5.373 0 0 5.373 0 12s5.373 12 12 12 12-5.373 12-12S18.627 0 12 0zm5.86 8.57c-.094.422-.263.803-.547 1.13-.08.095-.16.188-.248.273-2.227 2.204-4.455 4.407-6.684 6.609-.069.067-.152.119-.243.15-1.138.368-2.276.733-3.416 1.095-.284.09-.522-.021-.575-.281-.014-.096-.005-.193.026-.284.326-1.099.66-2.193.98-3.293.063-.22.182-.421.347-.58 2.05-2.042 4.095-4.088 6.137-6.138.508-.512 1.025-.97 1.77-1.11h.46c.009.046.016.016.025.017.72.119 1.213.56 1.621 1.125.181.255.3.548.346.857v.43z"/>
</svg>
