<svg xmlns="http://www.w3.org/2000/svg" viewBox="0 0 20 20" fill-rule="evenodd"><path d="M10.311 2.835c-.118.036-.578.51-2.394 2.466-2.852 3.07-3.974 4.314-4.057 4.496-.12.261-.01.571.263.741l.127.079h6.25c5.888 0 6.256-.004 6.357-.059a.686.686 0 0 0 .314-.45c.068-.295.162-.179-2.37-2.941-2.197-2.397-3.934-4.262-4.011-4.305-.078-.044-.37-.06-.479-.027M4.5 13.164c-.471.018-.526.026-.626.097-.218.156-.223.181-.235 1.289-.006.55-.001 1.08.011 1.177.027.22.155.377.377.463.149.057.449.06 6.423.06 3.447 0 6.338-.012 6.426-.027.128-.022.19-.059.326-.195l.169-.168-.011-1.158-.01-1.157-.089-.134a.65.65 0 0 0-.216-.197c-.125-.062-.296-.064-6.078-.067-3.273-.001-6.183.007-6.467.017"/></svg>