<?xml version="1.0" encoding="UTF-8"?>
<svg width="256px" height="256px" viewBox="0 0 256 256" version="1.1" xmlns="http://www.w3.org/2000/svg" xmlns:xlink="http://www.w3.org/1999/xlink">
    <!-- Generator: Sketch 55.2 (78181) - https://sketchapp.com -->
    <title>eject</title>
    <desc>Created with Sketch.</desc>
    <g id="Page-1" stroke="none" stroke-width="1" fill="none" fill-rule="evenodd">
        <g id="eject" fill="#000000" fill-rule="nonzero">
            <path d="M10,256 L245.984,256 C251.52,256 256,251.129513 256,245.109271 L256,207.199314 C256,201.179072 251.52,196.308585 246,196.308585 L10,196.308585 C4.48,196.308585 1.13686838e-13,201.179072 1.13686838e-13,207.199314 L1.13686838e-13,245.109271 C1.13686838e-13,251.129513 4.48,256 10,256 L10,256 Z M123.776,2.59093957 L8.16,146.374113 C4.976,150.318409 7.568,156.514308 12.384,156.514308 L243.632,156.514308 C248.464,156.514308 251.04,150.334378 247.856,146.374113 L132.24,2.59093957 C129.984,-0.203602339 126.016,-0.203602339 123.776,2.59093957 Z" id="Path"></path>
        </g>
    </g>
</svg>