<svg xmlns="http://www.w3.org/2000/svg" viewBox="0 0 24 24"><path d="M8.14 8.596c-2.293 2.925-3.639 4.609-3.707 4.64-.163.073-.349.282-.393.442-.07.252-.048.96.035 1.144a.793.793 0 0 0 .477.419c.103.03 2.294.039 7.291.031l7.143-.012.166-.11c.238-.157.335-.372.359-.791.033-.593-.104-.961-.415-1.109-.104-.049-.998-1.164-3.74-4.657a1706.953 1706.953 0 0 0-3.61-4.591c-.003 0-1.626 2.068-3.606 4.594m5.87 1.764 2.215 2.78-2.232.01c-1.228.006-3.243.006-4.477 0l-2.243-.01.894-1.12 2.226-2.792c.734-.92 1.349-1.667 1.368-1.66.019.006 1.031 1.263 2.249 2.792m-9.656 7.155c-.284.18-.354.364-.353.928.001.36.017.492.076.622.095.21.294.361.545.415.136.028 2.426.038 7.258.031 7.878-.012 7.166.015 7.433-.29.166-.188.187-.279.187-.801-.001-.51-.059-.675-.314-.877l-.153-.123-7.248-.01-7.248-.011-.183.116" fill-rule="evenodd"/></svg>