<svg xmlns="http://www.w3.org/2000/svg" width="20" height="20" fill="none" ><path d="M10.076 2.115a1.574 1.574 0 0 0-.293.139c-.237.148-6.453 6.894-6.567 7.128-.317.649-.087 1.437.523 1.794.348.203-.047.192 6.847.183 5.86-.008 6.307-.013 6.44-.066.7-.281 1.057-1.002.842-1.699a1.546 1.546 0 0 0-.175-.365c-.061-.084-1.507-1.666-3.216-3.516-3.226-3.493-3.25-3.518-3.594-3.61-.18-.049-.635-.042-.807.012m3.306 4.601a304.435 304.435 0 0 1 2.878 3.147c.009.027-1.571.037-5.76.037-4.268 0-5.769-.01-5.76-.038.015-.043 5.735-6.257 5.76-6.257.009 0 1.306 1.4 2.882 3.111m-9.55 5.732c-.375.139-.65.382-.811.719l-.104.216v2.6l.103.219c.195.411.584.698 1.032.763.317.046 12.579.046 12.896 0a1.361 1.361 0 0 0 1.032-.763l.103-.219v-2.6l-.104-.216a1.404 1.404 0 0 0-.646-.646l-.216-.104-6.584-.006c-5.365-.005-6.605.002-6.701.037m12.801 2.235v.817H4.367v-1.633h12.266v.816" fill-rule="evenodd" /></svg>