<?xml version="1.0" encoding="UTF-8"?>
<svg width="256px" height="256px" viewBox="0 0 256 256" version="1.1" xmlns="http://www.w3.org/2000/svg" xmlns:xlink="http://www.w3.org/1999/xlink">
    <g id="error" fill="#000000" fill-rule="nonzero">
        <path d="M218.133957,37.44 C195.0206,14.3065 163.103439,0 127.850791,0 C57.2960936,0 0.100304094,57.3075 0.100304094,128 C0.100304094,198.6925 57.2960936,256 127.850791,256 C163.10294,256 195.0206,241.6935 218.134955,218.559 L218.133957,218.56 C241.282246,195.3915 255.601279,163.3715 255.601279,128 C255.601279,92.6285 241.282246,60.6085 218.134955,37.441 L218.133957,37.44 L218.133957,37.44 Z M114.265738,34 L140.773964,34 C148.758369,34 149.876186,38.64 149.876186,41.36 L149.876186,46.48 L144.44679,143.76 C144.44679,150.96 140.454588,152.4 135.025192,152.4 L120.972638,152.4 C115.702931,152.4 112.34948,150.96 111.55104,143.44 L106.121644,46.48 L106.121644,41.2 C105.482892,38.8 107.239461,34.16 114.265738,34.16 L114.265738,34 Z M128.230222,222.2395 C128.182815,222.24 128.126924,222.24 128.071033,222.24 C114.224577,222.24 103,210.9935 103,197.12 C103,183.2465 114.224577,172 128.071033,172 C141.917489,172 153.142066,183.2465 153.142066,197.12 C153.142066,197.176 153.142066,197.232 153.142066,197.288 L153.142066,197.2795 C153.142066,197.2795 153.142066,197.28 153.142066,197.28 C153.142066,211.097 142.007813,222.3085 128.238706,222.3995 L128.230222,222.3995 L128.230222,222.2395 Z" id="Path"></path>
    </g>
</svg>