<svg width="32" height="28" viewBox="0 0 32 28" fill="none" xmlns="http://www.w3.org/2000/svg">
    <path d="M31.4754 12.0703L25.2481 1.54748C24.9694 1.07609 24.5684 0.684813 24.0854 0.413121C23.6025 0.141428 23.0547 -0.00106816 22.4973 6.02851e-06H10.0555C9.3656 0.00181171 8.68828 0.180232 8.09107 0.51747C7.49385 0.854709 6.99761 1.33898 6.65185 1.92197L0.424579 12.4448C0.146432 12.9153 0 13.449 0 13.9923C0 14.5355 0.146432 15.0693 0.424579 15.5397L6.65185 26.078C6.99788 26.6615 7.49462 27.146 8.09244 27.4833C8.69026 27.8206 9.36823 27.9987 10.0586 28H22.4973C23.0525 27.9989 23.5977 27.8554 24.0782 27.5838C24.5588 27.3122 24.9578 26.9221 25.2354 26.4525L31.4627 15.9297C31.8124 15.3444 31.9978 14.6793 32 14.0017C32.0022 13.324 31.8212 12.6578 31.4754 12.0703ZM2.19293 14.0356L2.89647 12.8564L8.45824 3.4323L11.9442 9.33747C12.1069 9.58583 12.3614 9.76337 12.6547 9.8331C12.948 9.90284 13.2576 9.85941 13.5189 9.71185C13.7803 9.56429 13.9733 9.32397 14.0578 9.04093C14.1423 8.75789 14.1117 8.45393 13.9725 8.19233L11.1646 3.4323C10.9319 3.09535 10.6213 2.81648 10.2581 2.61812C9.89477 2.41977 9.48888 2.30747 9.07304 2.29027H21.629L15.725 12.2777C15.6207 12.4535 15.4709 12.5994 15.2908 12.701C15.1106 12.8026 14.9062 12.8562 14.6982 12.8564H4.31306C3.88473 12.8537 3.46323 12.9612 3.09102 13.1682C2.71881 13.3753 2.40904 13.6744 2.19293 14.0356ZM21.629 25.7128H10.4896L13.9756 19.8015C14.061 19.6712 14.1184 19.5253 14.1444 19.3727C14.1705 19.2201 14.1646 19.0639 14.1271 18.9136C14.0897 18.7633 14.0214 18.622 13.9264 18.4981C13.8315 18.3743 13.7118 18.2705 13.5747 18.1931C13.4376 18.1157 13.2858 18.0662 13.1285 18.0476C12.9713 18.0291 12.8118 18.0418 12.6597 18.0851C12.5076 18.1284 12.3661 18.2013 12.2437 18.2995C12.1213 18.3977 12.0205 18.5191 11.9474 18.6564L8.46141 24.5677L7.76738 25.75C7.95905 25.4227 8.06848 25.0557 8.08666 24.679C8.10484 24.3024 8.03125 23.927 7.87196 23.5835L2.89014 15.1436H14.6982C14.9062 15.1442 15.1104 15.1979 15.2905 15.2994C15.4707 15.4009 15.6204 15.5468 15.725 15.7223L20.9698 24.5925C21.2013 24.9247 21.5095 25.1991 21.8695 25.3937C22.2295 25.5883 22.6313 25.6976 23.0424 25.7128H21.629ZM29.2285 15.1467L23.6604 24.5677L17.7437 14.5803C17.6403 14.4041 17.5859 14.2046 17.5859 14.0016C17.5859 13.7985 17.6403 13.599 17.7437 13.4228L23.6604 3.4323L24.3544 2.25313C24.1222 2.65042 24.0114 3.10432 24.035 3.56118C24.0586 4.01804 24.2156 4.45876 24.4875 4.83122C24.6872 5.10358 29.2412 12.8533 29.2412 12.8533H22.2343C21.9233 12.8533 21.6251 12.974 21.4052 13.1887C21.1853 13.4035 21.0617 13.6948 21.0617 13.9985C21.0617 14.3022 21.1853 14.5934 21.4052 14.8082C21.6251 15.0229 21.9233 15.1436 22.2343 15.1436H27.8436H27.8119C28.2402 15.1463 28.6617 15.0388 29.034 14.8318C29.4062 14.6248 29.7159 14.3256 29.932 13.9644L29.2253 15.1498L29.2285 15.1467Z" fill="#494D4C"/>
</svg>
