<svg height="16" viewBox="0 0 16 16" width="16" xmlns="http://www.w3.org/2000/svg"><path d="m6.28124372 7.22152528c.29167504.29536704.29167504.77425164 0 1.06961868l-2.1694504 2.20956914 2.1694504 2.2081429c.29167504.2953671.29167504.7742517 0 1.0696187-.29167503.2953671-.76457371.2953671-1.05624874 0l-3.22499498-3.2784747 3.22499498-3.27847472c.29167503-.29536704.76457371-.29536704 1.05624874 0zm3.4937613-5 4.22499498 4.27847472-4.22499498 4.2784747c-.29167503.2953671-.76457371.2953671-1.05624874 0-.29167504-.295367-.29167504-.7742516 0-1.06961866l3.16945042-3.20956912-3.16945042-3.20814296c-.29167504-.29536704-.29167504-.77425164 0-1.06961868.29167503-.29536704.76457371-.29536704 1.05624874 0z" fill-rule="evenodd"/></svg>