<svg width="24" height="24" viewBox="0 0 24 24" xmlns="http://www.w3.org/2000/svg">
<path fill-rule="evenodd" clip-rule="evenodd" d="M10.5001 6.64263L8.93311 10.8959C8.84557 11.1335 8.7075 11.3493 8.52845 11.5283C8.34939 11.7074 8.13361 11.8455 7.89599 11.933L3.64274 13.5L7.89599 15.067C8.1336 15.1545 8.34939 15.2926 8.52845 15.4716C8.7075 15.6507 8.84557 15.8665 8.93311 16.1041L10.5001 20.3574L12.0671 16.1041C12.1546 15.8665 12.2927 15.6507 12.4718 15.4716C12.6508 15.2926 12.8666 15.1545 13.1042 15.067L17.3575 13.5L13.1042 11.933C12.8666 11.8455 12.6508 11.7074 12.4718 11.5283C12.2927 11.3493 12.1546 11.1335 12.0671 10.8959L10.5001 6.64263ZM9.49916 4.48399C9.79278 4.27925 10.1421 4.16947 10.5001 4.16947C10.8581 4.16947 11.2074 4.27925 11.501 4.48399C11.7947 4.68873 12.0184 4.97859 12.1422 5.31448L11.2078 5.65875L12.1422 5.31449L13.9039 10.0962L18.6856 11.8579C19.0215 11.9816 19.3114 12.2054 19.5161 12.4991C19.7209 12.7927 19.8306 13.142 19.8306 13.5C19.8306 13.8579 19.7209 14.2073 19.5161 14.5009C19.3114 14.7946 19.0215 15.0183 18.6856 15.1421L13.9039 16.9038L12.1422 21.6855C12.0184 22.0214 11.7947 22.3113 11.501 22.516C11.2074 22.7207 10.8581 22.8305 10.5001 22.8305C10.1421 22.8305 9.79279 22.7207 9.49916 22.516C9.20553 22.3113 8.98175 22.0214 8.858 21.6855L7.09631 16.9038L2.31459 15.1421L2.6603 14.2038L2.31459 15.1421C1.9787 15.0183 1.68884 14.7946 1.48409 14.5009C1.27935 14.2073 1.16958 13.858 1.16958 13.5C1.16958 13.142 1.27935 12.7927 1.48409 12.4991C1.68884 12.2054 1.9787 11.9816 2.31459 11.8579L2.64484 12.7543L2.31459 11.8579L7.09631 10.0962L8.858 5.31448C8.98175 4.97859 9.20553 4.68873 9.49916 4.48399Z"/>
<path fill-rule="evenodd" clip-rule="evenodd" d="M16.5 0.5C17.0523 0.5 17.5 0.947715 17.5 1.5V6C17.5 6.55228 17.0523 7 16.5 7C15.9477 7 15.5 6.55228 15.5 6V1.5C15.5 0.947715 15.9477 0.5 16.5 0.5Z"/>
<path fill-rule="evenodd" clip-rule="evenodd" d="M13.25 3.75C13.25 3.19772 13.6977 2.75 14.25 2.75H18.75C19.3023 2.75 19.75 3.19772 19.75 3.75C19.75 4.30228 19.3023 4.75 18.75 4.75H14.25C13.6977 4.75 13.25 4.30228 13.25 3.75Z"/>
<path fill-rule="evenodd" clip-rule="evenodd" d="M21 5.75C21.5523 5.75 22 6.19772 22 6.75V9.75C22 10.3023 21.5523 10.75 21 10.75C20.4477 10.75 20 10.3023 20 9.75V6.75C20 6.19772 20.4477 5.75 21 5.75Z"/>
<path fill-rule="evenodd" clip-rule="evenodd" d="M18.5 8.25C18.5 7.69772 18.9477 7.25 19.5 7.25H22.5C23.0523 7.25 23.5 7.69772 23.5 8.25C23.5 8.80228 23.0523 9.25 22.5 9.25H19.5C18.9477 9.25 18.5 8.80228 18.5 8.25Z"/>
</svg>
