<svg viewBox="0 0 24 24" xmlns="http://www.w3.org/2000/svg"><path d="M16.211.557c-.248.063-.475.261-.623.543-.075.142-.086.244-.101.907l-.016.747-.745.013-.746.013-.22.124a1.06 1.06 0 0 0-.502.718c-.056.373.197.84.556 1.027.148.077.246.088.911.103l.745.017.018.729c.016.653.027.747.109.915.158.327.558.587.903.587s.745-.26.903-.587c.082-.168.093-.262.109-.915l.018-.729.745-.017c.665-.015.763-.026.911-.103.359-.187.612-.654.556-1.027a1.06 1.06 0 0 0-.502-.718l-.22-.124-.75-.013-.75-.013v-.65c0-.46-.017-.708-.06-.851-.069-.233-.335-.558-.52-.636-.163-.068-.567-.101-.729-.06m-6.078 3.658a1.744 1.744 0 0 0-1.229 1.05c-.154.367-.671 1.741-1.375 3.653l-.434 1.177-1.177.434c-3.771 1.389-4.041 1.502-4.296 1.8-.176.204-.354.57-.422.866-.095.409.019.9.307 1.318.302.438.297.436 3.571 1.646l2.017.746.746 2.017c1.21 3.273 1.208 3.269 1.645 3.57.626.431 1.368.44 1.99.024.469-.313.501-.383 1.736-3.734l.692-1.877 2.018-.746c2.604-.963 3.034-1.134 3.247-1.297.335-.255.612-.779.66-1.247.039-.379-.16-.947-.451-1.286-.253-.296-.563-.426-4.296-1.8l-1.177-.433-.412-1.118c-1.394-3.782-1.476-3.984-1.713-4.231-.431-.451-1.107-.669-1.647-.532m10.546 1.604c-.241.078-.493.3-.579.51-.04.098-.079.326-.09.535l-.02.365-.325.025c-.426.034-.588.082-.791.238-.46.351-.479 1.03-.043 1.479.184.189.438.269.851.269h.307l.019.39c.022.452.095.633.347.86.147.133.474.27.645.27.171 0 .498-.137.645-.27.252-.227.325-.408.347-.86l.019-.39h.307c.453 0 .679-.08.891-.317a.982.982 0 0 0 .175-1.108c-.167-.359-.465-.522-1.024-.561L22 7.228v-.252c0-.554-.169-.903-.524-1.086a1.126 1.126 0 0 0-.797-.071m-9.8 1.861c.741 2.016 1.215 3.27 1.301 3.44.117.231.469.583.7.699.176.089 1.31.519 3.353 1.271.557.205 1.013.39 1.012.411-.001.022-.646.277-1.433.568-2.853 1.055-3.142 1.179-3.397 1.462-.234.259-.254.307-1.647 4.089-.13.352-.251.637-.269.633-.034-.008-.103-.19-.998-2.613-.589-1.596-.716-1.888-.916-2.109-.256-.284-.593-.429-3.339-1.441-.821-.303-1.49-.568-1.486-.59.004-.022.676-.287 1.494-.589 1.768-.654 2.722-1.017 2.886-1.099.174-.087.573-.486.666-.666.1-.193.32-.768 1.027-2.686l.605-1.637c.025-.065.059-.1.078-.08.018.021.181.442.363.937" fill-rule="evenodd"/></svg>
