<svg xmlns="http://www.w3.org/2000/svg" width="24" height="24" viewBox="0 0 24 24">
    <path fill-rule="evenodd" d="M13.355 11.907l-.71.71c-.172.171-.395.252-.633.26-.24.011-.463-.105-.633-.26-.164-.152-.26-.413-.26-.633 0-.23.097-.47.26-.633l.013-.012c.188-.193.38-.384.572-.574l.288-.286 1.773-1.773 2.045-2.044.873-.872h-1.808c-.241 0-.457-.102-.633-.261-.175-.163-.25-.402-.26-.633-.011-.223.105-.477.26-.633.163-.16.404-.26.633-.26h3.939l.03-.002c.167-.008.326.046.464.132.05.03.096.064.137.1l.032.029c.044.04.084.09.118.143.016.025.03.052.044.08.063.126.098.27.1.4v3.979c0 .241-.103.457-.262.632-.162.176-.402.25-.633.261-.223.011-.477-.105-.633-.26-.16-.163-.26-.404-.26-.633V7.053l-1.12 1.119-2.045 2.044-1.691 1.691zm4.855 1.851v-1.483c0-.243.102-.458.263-.63.163-.176.402-.251.633-.262.224-.01.477.106.633.261.16.163.261.404.261.633V16.352c0 .571-.136 1.106-.375 1.622-.278.594-.751 1.09-1.293 1.45-.558.37-1.243.563-1.91.575H7.63c-1.284-.003-2.506-.7-3.146-1.816-.315-.546-.481-1.18-.483-1.81V8.382 7.63c.002-.667.186-1.346.543-1.91.347-.55.842-1.028 1.429-1.316.524-.257 1.083-.4 1.67-.4H11.724c.243 0 .458.1.633.26.175.163.25.403.261.633.01.224-.105.478-.26.633-.164.161-.405.261-.634.261H7.842c-.157 0-.314 0-.47.013-.159.029-.314.07-.464.126-.144.069-.282.15-.413.242-.12.1-.23.212-.33.331-.093.13-.173.269-.241.413-.056.152-.098.308-.128.467-.007.083-.011.165-.011.249V15.604l-.003.278c-.003.246-.007.496.015.74.03.16.071.316.128.468.068.144.149.281.241.412.101.12.212.23.331.33.13.093.27.173.414.241.152.056.307.099.467.128.082.007.165.011.248.011h7.976l.277.003c.247.003.497.007.741-.015.16-.03.316-.072.468-.127.144-.069.281-.15.412-.242.12-.1.23-.212.331-.331.092-.13.172-.269.24-.413.056-.15.098-.304.127-.461.014-.17.014-.34.013-.512V13.758z" clip-rule="evenodd"/>
</svg>
