<?xml version="1.0" encoding="UTF-8"?>
<svg width="256px" height="144px" viewBox="0 0 256 144" version="1.1" xmlns="http://www.w3.org/2000/svg" xmlns:xlink="http://www.w3.org/1999/xlink">
    <path d="M128.32,144 C78.72,144 29.12,121.12 0,75.68 C64.32,-24.32 197.28,-26.24 256,76.32 C227.04,121.44 177.76,144 128.32,144 Z M130.4,17.2792201 C98.4,17.12 72.4792632,41.6 72.4792632,71.52 C72.32,101.6 98.24,126.08 130.4,126.08 C162.4,126.08 188.320737,101.76 188.320737,71.68 C188.48,41.6 162.56,17.2792201 130.4,17.2792201 L130.4,17.2792201 Z M159.36,73.92 C160.64,58.88 148.8,45.76 132.8,44.48 C116.8,43.36 102.88,54.4 101.44,69.44 C100.16,84.48 112.16,97.6 128,98.72 C144,100 157.92,88.8 159.36,73.92 Z" id="Path"></path>
</svg>