<svg viewBox="0 0 12 12" xmlns="http://www.w3.org/2000/svg"><path d="M2.083 4.446a.75.75 0 0 0-1.166.942c.192.239.422.493.69.744L.847 7.453a.75.75 0 0 0 1.299.75l.673-1.167c.331.191.695.362 1.093.499l-.215 1.223a.75.75 0 1 0 1.477.26l.206-1.171a6.813 6.813 0 0 0 1.237 0l.206 1.17a.75.75 0 1 0 1.478-.26l-.216-1.22c.4-.137.764-.308 1.096-.5l.671 1.158a.75.75 0 0 0 1.298-.752l-.759-1.309c.27-.252.5-.507.694-.746a.75.75 0 0 0-1.167-.942 5.66 5.66 0 0 1-.897.891.751.751 0 0 0-.099.076A4.768 4.768 0 0 1 6 6.375a5.06 5.06 0 0 1-1.117-.122 4.75 4.75 0 0 1-1.865-.886 5.641 5.641 0 0 1-.935-.921Z"/></svg>