<?xml version="1.0" encoding="UTF-8"?>
<svg width="256px" height="200px" viewBox="0 0 256 200" version="1.1" xmlns="http://www.w3.org/2000/svg" xmlns:xlink="http://www.w3.org/1999/xlink">
    <path d="M256,101.56 C245.92,84.12 233.76,69.72 220.16,58.2 L187.84,90.52 C188.16,92.6 188.32,94.84 188.32,96.92 C188.32,127 162.4,151.32 130.4,151.32 C129.28,151.32 128.32,151.32 127.2,151.16 L110.24,168.12 C116.32,168.92 122.24,169.24 128.32,169.24 C177.76,169.24 227.04,146.68 256,101.56 L256,101.56 Z M46.4,196.28 C41.92,200.76 34.56,200.76 30.08,196.28 L28.32,194.52 C23.84,190.04 23.84,182.68 28.32,178.2 L55.2,151.32 C33.44,140.12 14.4,123.16 0,100.92 C41.92,35.64 113.44,12.12 174.24,32.28 L203.04,3.48 C207.68,-1.16 214.88,-1.16 219.52,3.48 L221.12,5.08 C225.6,9.56 225.6,16.92 221.12,21.4 L46.4,196.28 L46.4,196.28 Z M130.4,42.5192201 C98.4,42.36 72.48,66.84 72.48,96.76 C72.32,107.32 75.52,117.08 81.12,125.4 L102.4,104.12 C101.44,101.24 101.12,98.04 101.44,94.68 C102.88,79.64 116.8,68.6 132.8,69.72 C133.92,69.88 135.2,70.04 136.32,70.2 L157.6,48.92 C149.44,44.76 140.32,42.5192201 130.4,42.5192201 L130.4,42.5192201 Z" id="Path"></path>
</svg>