<svg viewBox="0 0 32 32" xmlns="http://www.w3.org/2000/svg">
    <path d="M5.661 4.054c-.538.229-.791.822-.571 1.339.042.099.63.789 1.306 1.533.677.743 1.231 1.367 1.231 1.386 0 .019-.114.106-.254.193-2.068 1.29-4.182 3.499-5.615 5.865-.865 1.43-.897 1.598-.463 2.442 1.268 2.468 3.459 4.919 5.799 6.489 2.068 1.388 4.061 2.149 6.666 2.547.722.11 2.975.155 3.822.076a15.598 15.598 0 0 0 4.429-1.075l.496-.202 1.388 1.53c.763.841 1.467 1.584 1.564 1.651.613.421 1.455.003 1.514-.751a1.042 1.042 0 0 0-.058-.464c-.045-.102-.518-.666-1.053-1.253A3497.39 3497.39 0 0 1 9.794 7.68C8.132 5.847 6.68 4.279 6.569 4.197c-.223-.165-.685-.238-.908-.143m8.698 2.025c-.881.1-1.288.175-1.44.268a1 1 0 0 0-.186 1.575c.292.284.494.315 1.286.202 1.012-.146 3.123-.132 4.141.026 2.9.452 5.334 1.657 7.562 3.743 1.048.98 2.444 2.761 3.028 3.862l.13.245-.133.253c-.233.443-1.008 1.564-1.538 2.227-.281.352-.853.981-1.269 1.397-.718.718-.761.773-.824 1.052-.057.255-.053.325.027.535.188.492.722.766 1.21.62.252-.075.889-.632 1.571-1.372 1.523-1.655 3.063-4.028 3.063-4.721 0-.294-.319-.961-.909-1.901-1.849-2.948-4.574-5.384-7.49-6.694-1.38-.619-2.647-.982-4.348-1.245-.589-.091-3.277-.141-3.881-.072m-4.182 4.998c.592.651 1.076 1.198 1.076 1.216 0 .018-.099.179-.22.357-.323.475-.672 1.248-.833 1.842-.129.476-.141.608-.141 1.508s.012 1.032.141 1.508c.171.63.523 1.391.89 1.921.324.47 1.075 1.213 1.543 1.529a7.016 7.016 0 0 0 1.859.841c.469.127.617.141 1.481.144 1.247.005 1.793-.121 2.8-.642l.434-.223c.026-.013 1.128 1.165 1.768 1.891l.102.115-.739.241c-1.525.497-2.559.649-4.365.645-1.149-.003-1.514-.024-2.133-.12-3.043-.475-5.588-1.78-7.815-4.008a16.473 16.473 0 0 1-2.545-3.213c-.183-.299-.333-.583-.333-.63 0-.126.777-1.35 1.295-2.037a15.97 15.97 0 0 1 3.208-3.21c.703-.524 1.377-.949 1.42-.897.017.021.516.571 1.107 1.222m6.436-.918c-.256.09-.586.442-.633.673-.113.569.188 1.083.716 1.22l.437.112c.375.095.974.408 1.328.692a3.97 3.97 0 0 1 1.492 2.564c.08.501.21.758.467.929.43.284.928.22 1.283-.164.242-.263.299-.474.247-.919-.089-.763-.384-1.646-.758-2.27-.885-1.473-2.22-2.46-3.831-2.834-.425-.098-.474-.099-.748-.003m-1.311 6.559c2.92 3.215 2.689 2.837 1.898 3.104-.377.128-.51.145-1.147.147-.841.004-1.179-.069-1.866-.403-.383-.186-.538-.305-.988-.76-.586-.591-.826-.977-1.047-1.686-.163-.52-.177-1.59-.029-2.133.157-.575.485-1.23.57-1.139.024.025 1.198 1.316 2.609 2.87"/>
</svg>
