<svg width="16" height="16" viewBox="0 0 16 16" fill="none" xmlns="http://www.w3.org/2000/svg">
    <path fill-rule="evenodd" clip-rule="evenodd" d="M2.49539 1.94505C2.80188 1.66642 3.27622 1.68901 3.55485 1.9955L5.16827 3.77026C5.17596 3.77835 5.18349 3.78663 5.19086 3.79511L10.2313 9.33959C10.2331 9.34155 10.2349 9.34351 10.2367 9.34549C10.2385 9.34748 10.2403 9.34947 10.2421 9.35147L11.9182 11.1952C11.926 11.2033 11.9335 11.2117 11.9409 11.2202L13.5548 12.9955C13.8335 13.302 13.8109 13.7763 13.5044 14.055C13.1979 14.3336 12.7236 14.311 12.4449 14.0045L11.1889 12.6229C10.1799 13.0441 9.09427 13.2582 7.99693 13.25C5.24907 13.2491 3.31949 12.0053 2.09456 10.7803C1.48404 10.1698 1.04412 9.5606 0.755843 9.10274C0.611335 8.87323 0.503862 8.68005 0.431222 8.54137C0.394874 8.47198 0.367164 8.41607 0.347823 8.3759C0.33815 8.35581 0.330562 8.33964 0.325027 8.32767L0.318257 8.31289L0.316016 8.30793L0.31518 8.30606C0.315027 8.30571 0.314534 8.30461 0.999893 8.00001C0.314556 7.69535 0.314661 7.69512 0.314771 7.69487L0.315569 7.69308L0.316991 7.68992L0.321063 7.68096L0.334162 7.65278C0.345109 7.62955 0.360516 7.59754 0.380488 7.55765C0.420413 7.4779 0.478697 7.36639 0.556193 7.23027C0.710958 6.95842 0.943689 6.58604 1.26156 6.17128C1.76035 5.52047 2.47916 4.75185 3.44773 4.10758L2.44494 3.00451C2.16631 2.69802 2.18889 2.22368 2.49539 1.94505ZM4.47094 5.23311C3.57837 5.78472 2.91317 6.48216 2.45213 7.08373C2.18227 7.43584 1.98652 7.74971 1.85974 7.9724C1.8544 7.98178 1.84919 7.99099 1.8441 8.00003C1.89294 8.0868 1.95319 8.18916 2.02519 8.30352C2.26816 8.68941 2.64074 9.20519 3.15522 9.71968C4.17985 10.7443 5.74933 11.75 7.99989 11.75H8.00577C8.71947 11.7556 9.42711 11.6459 10.1019 11.4272L9.57229 10.8446C9.04926 11.1337 8.45202 11.2754 7.84535 11.2466C6.98431 11.2056 6.17481 10.8242 5.59495 10.1864C5.01508 9.54856 4.71234 8.7065 4.75333 7.84546C4.78221 7.23876 4.98008 6.65764 5.31759 6.16442L4.47094 5.23311ZM6.38117 7.33436C6.30568 7.51794 6.26125 7.71473 6.25163 7.91678C6.22956 8.38045 6.39258 8.8339 6.70484 9.17737C7.01709 9.52084 7.453 9.72619 7.91667 9.74827C8.11871 9.75788 8.3188 9.73236 8.50871 9.67466L6.38117 7.33436ZM1.68447 7.69364C1.68433 7.69335 1.68436 7.69341 1.68447 7.69364ZM0.999893 8.00001L0.314771 7.69487C0.228561 7.8888 0.228338 8.11067 0.314534 8.30461L0.999893 8.00001ZM6.58532 2.86501C7.05306 2.78785 7.52635 2.74939 8.00041 2.75001C10.7496 2.75016 12.6799 3.99438 13.9052 5.21968C14.5157 5.83019 14.9557 6.43942 15.2439 6.89727C15.3884 7.12678 15.4959 7.31996 15.5686 7.45864C15.6049 7.52803 15.6326 7.58394 15.652 7.62411C15.6616 7.6442 15.6692 7.66037 15.6748 7.67234L15.6815 7.68712L15.6838 7.69208L15.6846 7.69395C15.6848 7.6943 15.6853 7.6954 14.9999 8.00001C15.6853 8.30458 15.6852 8.30475 15.6851 8.30493L15.6845 8.30619L15.6836 8.3083L15.681 8.31399L15.6731 8.33116C15.6667 8.34514 15.6577 8.36412 15.6462 8.38774C15.6233 8.43496 15.5904 8.5008 15.5469 8.58231C15.4602 8.74519 15.3314 8.97149 15.1576 9.2373C14.8111 9.76733 14.2797 10.4636 13.5383 11.1275C13.2297 11.4038 12.7556 11.3776 12.4793 11.0691C12.203 10.7605 12.2291 10.2863 12.5377 10.01C13.1588 9.45387 13.6084 8.86581 13.9022 8.41647C14.007 8.25606 14.0913 8.11452 14.1557 8.00002C14.1069 7.91324 14.0466 7.81087 13.9746 7.69649C13.7316 7.3106 13.359 6.79482 12.8446 6.28034C11.8199 5.2557 10.2505 4.25001 7.99989 4.25001L7.99887 4.25C7.60712 4.24947 7.21599 4.28124 6.82946 4.345C6.42077 4.41242 6.03481 4.13577 5.96739 3.72708C5.89998 3.31838 6.17663 2.93242 6.58532 2.86501ZM14.9999 8.00001L15.6851 8.30493C15.7713 8.11102 15.7714 7.88932 15.6853 7.6954L14.9999 8.00001ZM7.7339 5.40332C7.81181 4.9965 8.20476 4.72986 8.61158 4.80777C9.30253 4.94008 9.93189 5.29303 10.4051 5.81358C10.8783 6.33413 11.1699 6.99418 11.236 7.69458C11.2748 8.10696 10.9721 8.4728 10.5597 8.51169C10.1473 8.55059 9.78148 8.24782 9.74258 7.83543C9.70701 7.4583 9.55002 7.10288 9.29521 6.82259C9.04039 6.54229 8.70151 6.35224 8.32946 6.281C7.92264 6.20309 7.656 5.81014 7.7339 5.40332Z" fill="black"/>
</svg>
