<svg xmlns="http://www.w3.org/2000/svg" width="16" height="16" fill="none" viewBox="0 0 16 16">
    <path fill-rule="evenodd" d="M2.667 2.833v9.402l1.778-1.495c.06-.05.128-.09.2-.116l.231-.084c.073-.026.15-.04.228-.04h8.23V2.833H2.666zm-.992-.991c.219-.22.516-.342.825-.342h11c.31 0 .606.123.825.342.219.219.342.515.342.825v8c0 .31-.123.606-.342.825-.219.218-.515.341-.825.341H5.222l-.009.004-1.962 1.65c-.17.142-.378.234-.598.263-.22.029-.444-.005-.646-.1-.2-.093-.371-.242-.49-.43-.12-.187-.184-.405-.184-.627V2.667c0-.31.123-.606.342-.825zm3.658 3.825C5.333 5.298 5.632 5 6 5h4c.368 0 .667.298.667.667 0 .368-.299.666-.667.666H6c-.368 0-.667-.298-.667-.666zM6 7c-.368 0-.667.298-.667.667 0 .368.299.666.667.666h4c.368 0 .667-.298.667-.666 0-.369-.299-.667-.667-.667H6z" clip-rule="evenodd"/>
</svg>
