<svg xmlns="http://www.w3.org/2000/svg" width="16" height="16" viewBox="0 0 16 16">
    <path d="M12 .668H4c-1.074.015-2.099.455-2.849 1.225-.75.769-1.164 1.804-1.15 2.879v9.762c0 .106.03.21.09.298.059.088.143.156.241.196.098.04.206.05.31.029.104-.022.199-.074.273-.15l2.133-2.194H12c1.074-.015 2.099-.455 2.849-1.225s1.163-1.805 1.15-2.879V4.772c.013-1.075-.4-2.11-1.15-2.88-.75-.769-1.775-1.21-2.85-1.224zm0 7.2c-.211 0-.417-.063-.593-.18-.175-.117-.312-.284-.393-.479-.08-.195-.101-.41-.06-.616.04-.207.143-.397.292-.546.149-.15.339-.25.546-.292.207-.041.421-.02.616.06.195.081.362.218.479.393.117.176.18.382.18.593 0 .283-.113.554-.313.754-.2.2-.471.313-.754.313zM9.067 6.8c0 .211-.063.417-.18.593-.117.175-.284.312-.479.393-.195.08-.41.101-.616.06-.207-.04-.397-.143-.546-.292-.15-.149-.251-.339-.292-.546-.041-.207-.02-.421.06-.616.081-.195.218-.362.393-.479.176-.117.382-.18.593-.18.283 0 .554.113.754.313.2.2.313.471.313.754zM4 5.734c.211 0 .417.063.593.18.175.117.312.284.393.479.08.195.101.41.06.616-.04.207-.142.397-.292.546-.149.15-.339.251-.546.292-.207.041-.421.02-.616-.06-.195-.081-.362-.218-.479-.393-.117-.176-.18-.382-.18-.593 0-.283.113-.554.313-.754.2-.2.471-.313.754-.313z"/>
</svg>
