<svg xmlns="http://www.w3.org/2000/svg" viewBox="0 0 16 16"><path fill-rule="evenodd" d="M2.667 2.833v9.402l1.778-1.495a.67.67 0 0 1 .2-.116l.231-.084a.68.68 0 0 1 .228-.04h8.23V2.833H2.666zm-.992-.991c.219-.22.516-.342.825-.342h11a1.166 1.166 0 0 1 1.167 1.167v8a1.166 1.166 0 0 1-1.167 1.166H5.222l-.009.004-1.962 1.65a1.16 1.16 0 0 1-1.734-.267 1.162 1.162 0 0 1-.184-.627V2.667c0-.31.123-.606.342-.825zm3.658 3.825C5.333 5.298 5.632 5 6 5h4a.667.667 0 1 1 0 1.333H6a.667.667 0 0 1-.667-.666zM6 7a.667.667 0 1 0 0 1.333h4A.667.667 0 1 0 10 7H6z" clip-rule="evenodd"/></svg>