<svg width="24" height="24" fill="none" xmlns="http://www.w3.org/2000/svg"><path d="M4.994 2.04c-.472.06-.996.417-1.251.851-.236.403-.223-.133-.223 9.109 0 7.52.007 8.49.062 8.702a1.744 1.744 0 0 0 1.448 1.261c.352.045 13.588.045 13.94 0a1.744 1.744 0 0 0 1.448-1.261c.055-.211.062-.966.062-6.46l-.001-6.222-.095-.2c-.076-.16-.65-.753-2.85-2.947-2.666-2.659-2.761-2.748-2.971-2.81-.193-.056-.725-.062-4.78-.058-2.51.003-4.665.019-4.789.035m8.286 4.201c0 2.471-.006 2.403.252 2.673.07.073.2.172.288.22.158.085.19.086 2.43.097l2.27.012V20H5.48V4h7.8v2.241m3.8 1.009c0 .016-.414.03-.92.03h-.92V5.381l.92.919c.506.506.92.933.92.95" fill-rule="evenodd" fill="#000"/></svg>