<svg viewBox="0 0 21 20" xmlns="http://www.w3.org/2000/svg"><path d="M10.118.038c-.986.075-2.244.355-2.709.601-.642.341-.767 1.068-.267 1.558.167.163.382.281.564.31.077.012.35-.041.799-.156 1.016-.261 1.333-.302 2.328-.303.899-.001 1.136.024 1.855.193a7.938 7.938 0 0 1 2.852 1.325 9.3 9.3 0 0 1 1.425 1.352c.794.983 1.442 2.342 1.652 3.467.108.578.143 1.031.143 1.866 0 1.524-.151 3.062-.472 4.802-.19 1.028-.162 1.338.143 1.605.236.208.388.264.714.264.631 0 .856-.273 1.079-1.312.4-1.857.633-4.529.538-6.186-.078-1.372-.402-2.581-1.038-3.876a9.337 9.337 0 0 0-1.855-2.592c-.829-.829-1.528-1.327-2.641-1.883-.829-.415-1.145-.536-1.879-.725a11.543 11.543 0 0 0-1.991-.311 6.342 6.342 0 0 0-1.24.001M4.543 2.342c-.169.035-.437.245-.821.643C2.571 4.18 1.814 5.42 1.338 6.895c-.301.932-.396 1.452-.479 2.632-.128 1.83-.2 2.291-.479 3.073-.369 1.033-.355.982-.332 1.196.028.269.091.412.268.603a.976.976 0 0 0 .685.301c.556 0 .848-.297 1.187-1.207.409-1.102.552-1.861.663-3.535.086-1.295.168-1.8.407-2.518.247-.743.807-1.771 1.305-2.398.098-.124.387-.452.64-.729.254-.277.49-.561.525-.632.102-.204.087-.605-.03-.828-.11-.209-.28-.381-.448-.45-.153-.064-.535-.097-.707-.061m5.625 2.209c-.534.042-1.284.264-1.843.545-.605.304-1.491 1.058-1.928 1.641-.255.342-.642 1.124-.814 1.646-.161.49-.211.836-.28 1.957-.135 2.206-.419 3.35-1.29 5.185-.325.688-.396.93-.338 1.171.091.379.357.646.75.752.19.052.252.055.39.02.496-.125.712-.399 1.211-1.533.854-1.939 1.185-3.404 1.306-5.785.048-.943.162-1.375.526-1.993.392-.665 1.236-1.317 1.982-1.53.251-.072 1.323-.104 1.67-.05.56.087 1.112.376 1.736.909.224.191.46.373.525.403.176.084.622.076.81-.015.484-.235.7-.835.471-1.308-.095-.196-.65-.743-1.036-1.02a6.066 6.066 0 0 0-1.661-.826c-.52-.152-1.476-.226-2.187-.169m.34 4.493c-.281.092-.562.377-.638.647-.019.07-.051.394-.07.722-.081 1.402-.172 2.15-.387 3.181-.206.987-.183 1.236.142 1.561.387.387.942.395 1.359.019.187-.17.268-.355.408-.941.277-1.156.434-2.369.462-3.565l.021-.9-.094-.191c-.218-.446-.75-.681-1.203-.533m4.509-.01c-.282.086-.592.409-.665.694-.017.068-.057.589-.089 1.157-.147 2.658-.446 4.116-1.413 6.895-.118.337-.214.661-.214.72-.003.366.297.791.65.923.488.183.967-.017 1.231-.514.439-.825 1.143-3.228 1.44-4.909.293-1.661.435-3.898.276-4.346a.935.935 0 0 0-.453-.531c-.214-.104-.576-.146-.763-.089m-6.144 7.492a1.175 1.175 0 0 0-.514.409c-.177.277-.686 1.341-.748 1.566-.055.197-.055.227-.002.408.154.531.689.849 1.201.715.373-.098.551-.299.938-1.062.343-.675.449-.971.424-1.182a.967.967 0 0 0-.949-.882 1.146 1.146 0 0 0-.35.028" fill-rule="evenodd"/></svg>