<svg width="21" height="20" viewBox="0 0 21 20" fill="none" xmlns="http://www.w3.org/2000/svg">
    <g opacity="0.6">
    <path fill-rule="evenodd" clip-rule="evenodd" d="M15.3151 9C15.8674 8.99956 16.3155 9.44691 16.3159 9.9992C16.3184 13.0614 15.723 16.0946 14.5633 18.9287C14.3541 19.4399 13.7702 19.6847 13.2591 19.4755C12.7479 19.2663 12.5031 18.6824 12.7123 18.1713C13.7734 15.5781 14.3181 12.8027 14.3159 10.0008C14.3155 9.44852 14.7628 9.00044 15.3151 9Z" fill="black"/>
    <path fill-rule="evenodd" clip-rule="evenodd" d="M8.8538 4.85949C9.89495 4.46192 11.0323 4.39002 12.1152 4.65332C13.1982 4.91661 14.1756 5.50268 14.9179 6.33389C15.2858 6.7458 15.2502 7.37796 14.8382 7.74586C14.4263 8.11375 13.7942 8.07807 13.4263 7.66616C12.9538 7.1372 12.3319 6.76425 11.6427 6.5967C10.9536 6.42915 10.2298 6.4749 9.56728 6.7279C8.90473 6.98091 8.33467 7.42922 7.93262 8.01345C7.53074 8.59742 7.31567 9.28966 7.31585 9.99854C7.32169 12.4558 6.69722 14.8736 5.50213 17.0207C5.23353 17.5033 4.62459 17.6768 4.14202 17.4082C3.65945 17.1396 3.48599 16.5306 3.75459 16.0481C4.78347 14.1995 5.32102 12.118 5.31586 10.0025L5.31586 10.0006C5.31526 8.88609 5.65325 7.79772 6.28505 6.87964C6.91685 5.96156 7.81265 5.25707 8.8538 4.85949Z" fill="black"/>
    <path fill-rule="evenodd" clip-rule="evenodd" d="M10.8133 2.00003C9.9065 1.99765 9.00618 2.15239 8.15224 2.45739C7.63214 2.64316 7.05992 2.37212 6.87415 1.85201C6.68839 1.33191 6.95942 0.759688 7.47953 0.573922C8.55061 0.191363 9.67985 -0.00280239 10.8172 3.05578e-05C13.4689 0.000377934 16.0119 1.05391 17.887 2.92896C19.7623 4.80433 20.8159 7.34787 20.8159 10V10.0005C20.8149 12.0923 20.5835 14.1776 20.1261 16.2187C20.0053 16.7576 19.4705 17.0966 18.9316 16.9758C18.3926 16.855 18.0537 16.3202 18.1745 15.7813C18.5998 13.8834 18.8149 11.9445 18.8159 9.99954C18.8158 7.87798 17.9729 5.84335 16.4727 4.34318C14.9724 2.84288 12.9376 2.00003 10.8159 2.00003H10.8133V2.00003Z" fill="black"/>
    <path fill-rule="evenodd" clip-rule="evenodd" d="M5.56216 2.63126C5.92977 3.04343 5.89365 3.67556 5.48149 4.04317C4.64219 4.79175 3.97078 5.70944 3.51137 6.73594C3.05195 7.76245 2.81493 8.87455 2.81587 9.99917L1.81587 10L2.81587 9.99818C2.8185 11.437 2.50915 12.8593 1.90914 14.167C1.67883 14.669 1.0852 14.8892 0.583226 14.6589C0.0812549 14.4286 -0.138968 13.835 0.0913438 13.333C0.570789 12.288 0.817975 11.1515 0.815869 10.0018L0.815868 10.0008C0.814691 8.59407 1.11118 7.20297 1.68585 5.91893C2.26053 4.63489 3.10039 3.48697 4.15025 2.5506C4.56241 2.18298 5.19454 2.2191 5.56216 2.63126Z" fill="black"/>
    <path fill-rule="evenodd" clip-rule="evenodd" d="M9.59846 16.5896C10.1012 16.8182 10.3236 17.411 10.095 17.9138C9.89746 18.3484 9.67738 18.7892 9.43415 19.2149C9.16014 19.6944 8.54928 19.861 8.06977 19.587C7.59025 19.313 7.42365 18.7021 7.69766 18.2226C7.90443 17.8608 8.09685 17.4766 8.27429 17.0862C8.50283 16.5834 9.09568 16.3611 9.59846 16.5896Z" fill="black"/>
    <path fill-rule="evenodd" clip-rule="evenodd" d="M10.8143 9C11.3666 8.99915 11.815 9.44617 11.8159 9.99846C11.8184 11.6021 11.6154 13.1995 11.2118 14.7516C11.0729 15.2861 10.5269 15.6068 9.9924 15.4678C9.45788 15.3289 9.13723 14.7829 9.27619 14.2484C9.63673 12.8616 9.81811 11.4344 9.81589 10.0015C9.81504 9.44926 10.2621 9.00085 10.8143 9Z" fill="black"/>
    </g>
</svg>
