<svg xmlns="http://www.w3.org/2000/svg" viewBox="0 0 16 16" width="16" height="16" fill="none"><path d="M8.138.774a2.52 2.52 0 0 0-2.1 2.066C6.017 2.959 6 3.1 6 3.153v.097l-1.081.001c-1.21.002-1.281.01-1.555.175a1.498 1.498 0 0 0-.477.501c-.129.253-.137.334-.137 1.366v.957h-.094c-.149 0-.504.065-.681.124-.819.273-1.422.918-1.656 1.772-.077.283-.078.908 0 1.192.111.406.24.666.486.979.409.52 1.056.861 1.751.923l.194.017v.954c0 1.027.008 1.109.137 1.362.084.167.303.396.477.501.308.186-.066.173 5.137.175 5.075.001 4.787.009 5.073-.136.068-.035.197-.131.287-.215.181-.169.316-.404.363-.629.018-.09.025-.615.02-1.632l-.006-1.499-.066-.141c-.143-.305-.382-.466-.649-.438a1.526 1.526 0 0 0-.338.096c-.176.074-.223.082-.435.082-.304 0-.467-.061-.671-.25-.604-.559-.32-1.565.484-1.714.196-.037.386-.015.6.068.338.131.73.074.912-.133.169-.192.162-.111.17-1.806.004-1.02-.002-1.578-.02-1.664a1.292 1.292 0 0 0-.898-.942c-.143-.037-.307-.043-1.242-.045l-1.078-.001-.016-.207A2.515 2.515 0 0 0 9.046.811C8.833.765 8.319.744 8.138.774m.743 1.549c.172.066.389.256.48.42.168.299.18.601.038.945-.113.271-.119.494-.018.666.082.14.268.282.455.348.13.045.218.048 1.526.048h1.388v1.5h-.069c-.141 0-.555.075-.709.127-.829.284-1.421.922-1.652 1.781-.045.17-.055.27-.054.592 0 .343.008.416.068.636a2.5 2.5 0 0 0 2.003 1.829c.11.019.248.035.307.035h.106v1.5h-8.5v-1.28c0-1.413-.006-1.475-.155-1.656-.195-.237-.593-.292-.971-.136-.197.081-.551.08-.761-.002-.194-.076-.425-.302-.525-.514-.178-.374-.066-.902.247-1.167.305-.258.702-.31 1.103-.144.16.067.234.084.375.084.282.001.451-.119.607-.435l.067-.137.008-1.306.007-1.305 1.455-.007 1.456-.008.128-.058a.725.725 0 0 0 .192-.125c.19-.198.234-.572.105-.891a1.204 1.204 0 0 1-.016-.792c.095-.245.338-.473.611-.574.174-.065.494-.052.698.026" fill-rule="evenodd" fill="#000"/></svg>