<svg xmlns="http://www.w3.org/2000/svg" width="15" height="15" fill="none" xmlns:v="https://vecta.io/nano"><path d="M3.999 13.499a.5.5 0 0 1-.5-.5V10.33c-.274.131-.578.187-.881.163a1.75 1.75 0 0 1-1.297-.73 1.75 1.75 0 0 1-.266-1.464 1.75 1.75 0 0 1 .957-1.14 1.75 1.75 0 0 1 1.488.008V4.499a.5.5 0 0 1 .5-.5h2.919c-.131-.274-.187-.578-.163-.881a1.75 1.75 0 0 1 .73-1.297 1.75 1.75 0 0 1 1.464-.266 1.75 1.75 0 0 1 1.14.957 1.75 1.75 0 0 1-.008 1.488h2.919a.5.5 0 0 1 .5.5v2.669c-.274-.131-.578-.187-.881-.163a1.75 1.75 0 0 0-1.297.73 1.75 1.75 0 0 0-.266 1.464 1.75 1.75 0 0 0 .957 1.14 1.75 1.75 0 0 0 1.488-.008v2.669a.5.5 0 0 1-.5.5h-9z" stroke="#000" stroke-width="1.5" stroke-linejoin="round"/></svg>