<svg xmlns="http://www.w3.org/2000/svg" viewBox="0 0 16 16"><path d="M7.906.824a2.472 2.472 0 0 0-1.161.668 2.477 2.477 0 0 0-.565.848c-.09.232-.179.629-.18.8v.113l-.967.001c-.531 0-1.071.011-1.199.025-.293.031-.479.124-.712.356-.196.196-.315.42-.349.66-.014.095-.026.575-.026 1.068v.896l-.234.016C1.542 6.342.69 7.034.356 8.027c-.073.217-.076.246-.075.72.001.468.005.505.076.72.33.994 1.107 1.635 2.139 1.765l.251.032v.881c.001.966.019 1.176.122 1.385.132.27.464.576.718.66.086.029.98.037 4.76.044 2.744.004 4.737-.002 4.859-.017.265-.032.413-.106.638-.318a1.19 1.19 0 0 0 .283-.374l.1-.202.007-1.594.008-1.594-.068-.133c-.214-.424-.498-.524-.982-.348-.217.079-.254.085-.493.074-.212-.009-.283-.024-.393-.08a1.186 1.186 0 0 1-.461-.496c-.062-.131-.072-.186-.072-.405 0-.219.01-.274.071-.405.1-.212.263-.379.472-.482.159-.078.199-.087.417-.087.186.001.283.015.427.066.215.074.499.087.663.031a.775.775 0 0 0 .211-.133c.201-.181.192-.098.201-1.867.007-1.531.006-1.589-.047-1.744-.149-.442-.543-.782-.981-.845-.099-.015-.632-.027-1.185-.027l-1.005-.001-.016-.153c-.096-.934-.613-1.697-1.414-2.087C9.2.825 9.075.797 8.547.784c-.386-.009-.482-.003-.641.04m1.031 1.53c.185.09.377.292.472.494.105.225.1.513-.016.866a1.726 1.726 0 0 0-.086.346c0 .241.136.436.404.582l.169.091 1.433.008 1.434.008v1.518h-.14a2.653 2.653 0 0 0-.816.183 2.544 2.544 0 0 0-1.476 1.743c-.046.182-.052.274-.042.63.01.365.021.445.086.644.331 1.011 1.158 1.682 2.188 1.776l.2.018v1.486H4.273l-.019-1.274c-.011-.7-.03-1.333-.044-1.406-.032-.172-.135-.301-.316-.394-.196-.1-.443-.101-.752-.003-.185.058-.256.068-.45.058-.292-.014-.473-.096-.66-.3-.211-.232-.258-.353-.258-.668-.001-.244.006-.282.083-.444a.946.946 0 0 1 .454-.463c.142-.072.179-.079.422-.078.224.001.296.013.445.071.252.099.388.114.562.064.169-.049.321-.195.432-.413l.068-.135V6.314c0-.576.008-1.164.017-1.307l.018-.26h2.878l.158-.085a.744.744 0 0 0 .211-.158c.143-.201.17-.512.072-.815-.088-.266-.085-.688.005-.872.086-.177.283-.367.486-.47.161-.081.179-.084.435-.075.226.007.291.02.417.082" fill-rule="evenodd"/></svg>