<svg viewBox="0 0 16 16" xmlns="http://www.w3.org/2000/svg"><path d="M4.467 1.415c-.678.058-1.233.255-2.033.722-.46.269-.554.347-.657.548-.04.078-.044.462-.042 4.494.001 2.424.011 4.906.023 5.514.019 1.053.023 1.112.077 1.217.121.237.295.317.685.316.302-.001.427-.047.561-.205.174-.206.171-.185.172-1.45 0-.632.008-1.277.018-1.432l.017-.283.296-.146c.478-.236.826-.318 1.349-.317.736.001 1.204.137 2.904.844.945.393 1.424.563 1.954.694 1.12.278 1.981.227 2.995-.178.497-.198 1.166-.616 1.319-.823.147-.199.14-.055.154-3.33.013-3.295-.011-4.83-.079-4.987-.094-.218-.348-.356-.66-.358-.226-.001-.267.016-.693.287-1.028.653-1.904.721-3.275.255a27.47 27.47 0 0 1-1.165-.455c-.978-.407-1.277-.522-1.701-.658-.776-.248-1.475-.333-2.219-.269m1.226 1.558c.402.081.836.227 1.534.513 1.966.809 2.279.916 3.107 1.062a5.222 5.222 0 0 0 1.413.002c.243-.041.779-.178.955-.245.042-.016.045.101.045 1.725 0 .959-.008 2.273-.018 2.921l-.018 1.178-.309.146c-.539.255-.821.323-1.335.322-.719-.002-1.222-.147-2.814-.811-1.169-.488-1.624-.647-2.256-.79-.256-.057-.392-.07-.87-.082-.688-.016-.94.01-1.446.153-.21.06-.389.101-.398.092-.009-.009-.016-1.315-.016-2.901V3.373l.24-.126a3.69 3.69 0 0 1 .942-.327c.284-.054.829-.031 1.244.053" fill-rule="evenodd"/></svg>