<svg width="16" height="16" viewBox="0 0 16 16" xmlns="http://www.w3.org/2000/svg">
    <path d="M4.293 1.426c-.658.099-1.247.324-1.872.716a3.922 3.922 0 0 1-.344.201c-.083.033-.209.173-.291.324-.055.101-.064.148-.056.3.009.171.016 7.113.008 7.446-.003.088.005.886.015 1.774.02 1.581.021 1.615.078 1.72.119.221.28.311.588.328.399.021.62-.079.747-.338l.074-.15.013-1.437.014-1.437.213-.116a2.962 2.962 0 0 1 1.867-.347c.616.082 1.051.223 2.306.75.996.418 1.31.538 1.774.677 1.328.398 2.385.355 3.511-.144.304-.135.49-.242.841-.485.265-.183.349-.274.425-.461.047-.115.049-.299.049-4 0-4.178.005-4.039-.138-4.247-.132-.192-.529-.309-.801-.235-.062.016-.218.1-.347.186-.463.31-.71.431-1.11.547-.635.184-1.323.131-2.23-.172-.374-.124-.537-.19-1.8-.718-.944-.395-1.613-.598-2.248-.682a5.878 5.878 0 0 0-1.286 0M5.427 2.92c.585.088 1.026.235 2.222.738 1.013.427 1.378.565 1.858.702.718.206 1.34.281 1.913.228a4.515 4.515 0 0 0 1.057-.214c.136-.044.253-.081.259-.081.006 0 .008 1.311.004 2.913l-.007 2.912-.306.153c-.818.409-1.555.44-2.64.111-.289-.087-.784-.28-1.56-.608-1.278-.54-1.84-.723-2.587-.844-.325-.053-1.141-.045-1.467.014-.23.042-.73.18-.873.242-.044.019-.047-.129-.047-2.89v-2.91l.087-.054a3.263 3.263 0 0 1 1.247-.435c.167-.025.597-.013.84.023" fill-rule="evenodd" />
</svg>