<svg viewBox="0 0 12 12" xmlns="http://www.w3.org/2000/svg"><path d="M3.472 1.021a2.007 2.007 0 0 0-1.119.557 1.997 1.997 0 0 0-.2 2.622c.085.114.105.153.084.165-.393.227-.589.369-.807.585-.184.183-.359.401-.409.511-.084.186-.041.36.129.517.177.163.382.212.541.129a1.66 1.66 0 0 0 .279-.264c.191-.214.368-.371.538-.478.234-.148.562-.277.832-.327.168-.032.652-.032.82 0 .514.096 1.031.394 1.34.772.172.211.283.302.401.33.208.05.354-.03.599-.33.248-.303.649-.57 1.05-.697.246-.079.396-.1.7-.1.401 0 .685.064 1.011.227.314.156.498.301.769.603.113.126.234.241.279.264.159.083.364.034.541-.129.17-.157.213-.331.129-.517-.05-.11-.225-.328-.409-.511-.218-.216-.414-.358-.807-.585-.021-.012-.001-.051.084-.165.6-.797.513-1.93-.2-2.622a1.973 1.973 0 0 0-.907-.513c-.163-.044-.232-.051-.49-.051s-.327.007-.49.051a1.996 1.996 0 0 0-1.11 3.132c.061.08.11.149.11.154a.4.4 0 0 1-.085.051 3.49 3.49 0 0 0-.542.366L6 4.881l-.133-.113a3.49 3.49 0 0 0-.542-.366.4.4 0 0 1-.085-.051c0-.005.049-.074.11-.154a2.017 2.017 0 0 0 .226-2.006 2.061 2.061 0 0 0-1.008-1.013c-.305-.138-.782-.207-1.096-.157m.47.999c.245.045.519.235.658.453a1.05 1.05 0 0 1-.001 1.055c-.338.533-1.082.631-1.529.201A.934.934 0 0 1 2.76 3c0-.396.199-.719.549-.891a.96.96 0 0 1 .633-.089m4.5 0c.245.045.519.235.658.453a1.05 1.05 0 0 1-.001 1.055c-.338.533-1.082.631-1.529.201A.934.934 0 0 1 7.26 3c0-.396.199-.719.549-.891a.96.96 0 0 1 .633-.089M3.47 5.893c-.288.046-.65.192-.878.355a2.016 2.016 0 0 0-.772 2.15c.055.202.212.52.34.689a.86.86 0 0 1 .097.141l-.157.091a3.22 3.22 0 0 0-.877.732c-.189.227-.243.331-.243.47 0 .18.131.35.347.451.219.102.389.048.581-.184.257-.308.485-.497.789-.651a2.31 2.31 0 0 1 2.455.217c.15.115.245.21.448.447.139.164.24.219.4.219.16 0 .261-.055.4-.219.298-.349.486-.506.797-.664a2.29 2.29 0 0 1 2.106 0c.304.154.532.343.789.651.192.232.362.286.581.184.303-.142.423-.404.297-.652a2.037 2.037 0 0 0-.203-.28 3.199 3.199 0 0 0-.867-.721 13.814 13.814 0 0 0-.157-.091.86.86 0 0 1 .097-.141c.128-.169.285-.487.34-.689a2.025 2.025 0 0 0-.282-1.649 1.969 1.969 0 0 0-.801-.678c-.307-.145-.471-.18-.847-.18s-.54.035-.847.18c-.314.148-.549.34-.763.623a2.035 2.035 0 0 0-.32 1.704c.055.202.212.52.34.689a.86.86 0 0 1 .097.141l-.176.103a4.455 4.455 0 0 0-.526.372L6 9.748l-.055-.045a4.455 4.455 0 0 0-.702-.475.86.86 0 0 1 .097-.141c.128-.169.285-.487.34-.689a2.025 2.025 0 0 0-.282-1.649 1.969 1.969 0 0 0-.801-.678 1.72 1.72 0 0 0-.797-.182 3.594 3.594 0 0 0-.33.004m.539 1.018c.272.07.511.27.641.535.071.143.077.171.086.366.015.348-.073.57-.32.801a.932.932 0 0 1-.708.256.887.887 0 0 1-.624-.256c-.247-.231-.335-.453-.32-.801.009-.195.015-.223.086-.366.128-.26.368-.463.632-.534.143-.039.382-.039.527-.001m4.5 0c.272.07.511.27.641.535.071.143.077.171.086.366.015.348-.073.57-.32.801a.932.932 0 0 1-.708.256.887.887 0 0 1-.624-.256c-.247-.231-.335-.453-.32-.801.009-.195.015-.223.086-.366.128-.26.368-.463.632-.534.143-.039.382-.039.527-.001" fill-rule="evenodd" /></svg>