<svg xmlns="http://www.w3.org/2000/svg" width="24" height="24" viewBox="0 0 24 24">
    <path fill-rule="evenodd" d="M11.448 2.262c-.267-.135-3.677 2.704-3.677 4.797-.002 1.76 1.509 4.894 2.826 7.626.82 1.7 1.565 3.246 1.822 4.205.358 1.334-.106 2.834-.407 3.806-.184.593-.307.99-.145 1.035.392.252 4.105-3.538 4.25-5.156.114-1.575-1.534-4.996-2.914-7.86-.876-1.817-1.643-3.41-1.783-4.163-.255-1.371-.08-2.64.03-3.437.072-.516.116-.833-.002-.853zM4.777 4.579c-.21-.106-2.884 2.12-2.884 3.762-.002 1.38 1.184 3.839 2.216 5.981.643 1.334 1.227 2.545 1.429 3.297.28 1.046-.083 2.221-.319 2.984-.144.466-.24.778-.113.813.307.197 3.219-2.775 3.332-4.044.09-1.235-1.203-3.918-2.285-6.163-.687-1.426-1.288-2.675-1.398-3.266-.2-1.075-.063-2.07.024-2.695.056-.404.09-.653-.002-.67zM15.451 8.34c0-1.641 2.674-3.868 2.884-3.762.092.016.057.265.002.67-.087.624-.225 1.62-.024 2.694.11.591.711 1.84 1.398 3.266 1.082 2.245 2.374 4.928 2.285 6.163-.113 1.269-3.026 4.241-3.333 4.044-.127-.035-.03-.347.114-.813.236-.762.6-1.938.319-2.984-.202-.752-.786-1.962-1.428-3.295-1.033-2.143-2.219-4.603-2.217-5.983z" clip-rule="evenodd"/>
</svg>
