<svg xmlns="http://www.w3.org/2000/svg" viewBox="0 0 24 24"><path d="M11.045 2.47c-.554.375-1.542 1.317-2.066 1.97-.695.867-1.14 1.781-1.204 2.48-.079.849.452 2.61 1.484 4.92.182.407.695 1.505 1.141 2.44 1.978 4.155 2.12 4.537 2.12 5.706 0 .763-.101 1.301-.505 2.694-.217.749-.255.987-.16 1.023.166.064.425-.097 1.033-.64 1.113-.997 2.438-2.632 2.913-3.595.281-.569.338-.808.304-1.268-.092-1.259-.817-3.141-2.846-7.38-1.452-3.034-1.669-3.551-1.846-4.38-.116-.541-.104-2.172.023-3.191.099-.797.09-.969-.052-.969-.032 0-.184.086-.339.19M4.58 4.668c-.418.224-1.378 1.148-1.861 1.792-.335.446-.636.998-.74 1.358-.1.345-.063 1.108.078 1.617.293 1.055.768 2.194 1.972 4.725 1.081 2.271 1.394 2.995 1.513 3.5.077.324.076 1.281-.002 1.686-.033.173-.148.638-.257 1.034-.253.927-.251.914-.189.999.045.061.066.064.149.02.381-.201 1.333-1.117 1.956-1.879.467-.572.961-1.32 1.098-1.664.135-.337.165-.646.105-1.061-.135-.922-.719-2.38-2.202-5.495-1.502-3.154-1.501-3.15-1.499-4.56.001-.649.023-1.083.074-1.472.039-.304.062-.579.05-.61-.029-.074-.095-.071-.245.01m13.445.071c-.831.576-1.767 1.607-2.207 2.433-.282.531-.338.735-.337 1.224.001 1.058.466 2.319 2.191 5.947 1.184 2.49 1.411 3.06 1.488 3.735.07.623-.009 1.165-.348 2.388-.123.443-.213.835-.199.87.079.205.493-.071 1.247-.831.794-.801 1.624-1.873 1.916-2.475.122-.253.224-.632.224-.836 0-.259-.157-.975-.325-1.484-.306-.927-.805-2.075-1.935-4.45-1.484-3.12-1.481-3.11-1.479-4.52.001-.624.024-1.096.07-1.467.038-.301.058-.575.045-.61-.037-.095-.135-.073-.351.076" fill-rule="evenodd"/></svg>