<svg width="16" height="16" viewBox="0 0 16 16" xmlns="http://www.w3.org/2000/svg">
    <path d="M7.373 1.281C5.239 1.5 3.335 2.822 2.401 4.733a6.685 6.685 0 0 0-.569 1.72c-.054.274-.055.358-.065 3.731-.01 3.947-.031 3.606.233 3.869.255.255.513.304.788.15.064-.036.43-.321.813-.634.383-.313.712-.569.732-.569.02 0 .348.255.729.566.38.311.735.591.789.623.06.035.162.062.267.071.256.02.358-.041 1.158-.697.386-.317.712-.576.724-.576.012 0 .338.259.724.576.8.656.902.717 1.158.697a.694.694 0 0 0 .267-.071c.054-.032.409-.312.789-.623.38-.311.706-.569.723-.572.018-.004.338.246.712.553.374.308.743.591.821.63.126.063.162.068.373.058.431-.022.618-.193.673-.615.032-.249.033-5.776.001-6.383a6.132 6.132 0 0 0-.642-2.504c-.886-1.812-2.647-3.101-4.666-3.412a9.45 9.45 0 0 0-1.56-.04m1.374 1.536a4.748 4.748 0 0 1 3.842 3.484c.141.549.138.475.15 3.119.006 1.36.003 2.473-.007 2.473-.009 0-.148-.109-.309-.242-.443-.366-.525-.411-.754-.411-.252 0-.281.018-1.136.718l-.7.572-.323-.263-.697-.572c-.752-.62-.874-.62-1.626 0l-.698.572-.324.265-.702-.575a15.571 15.571 0 0 0-.823-.646c-.099-.059-.153-.071-.307-.071-.23 0-.31.043-.745.4-.169.14-.314.253-.322.253-.009 0-.011-1.113-.005-2.473.012-2.612.01-2.572.137-3.073a4.752 4.752 0 0 1 3.027-3.321 4.754 4.754 0 0 1 2.322-.209m-2.32 3.728c-.61.17-1.017.795-.91 1.396.182 1.016 1.391 1.409 2.113.686a1.216 1.216 0 0 0-.002-1.748 1.233 1.233 0 0 0-.596-.345 1.618 1.618 0 0 0-.605.011m3.496.004c-.47.126-.831.533-.908 1.024-.076.479.164.987.588 1.248.434.267 1.046.218 1.453-.115.26-.213.437-.602.437-.959 0-.816-.779-1.411-1.57-1.198"/>
</svg>