<svg viewBox="0 0 16 16" xmlns="http://www.w3.org/2000/svg"><path d="M7.067 1.321a6.349 6.349 0 0 0-4.275 2.736A6.627 6.627 0 0 0 1.85 6.36l-.069.32-.013 3.28c-.014 3.327-.005 3.759.082 3.927.052.101.283.291.434.357.148.066.296.057.467-.027.064-.032.422-.303.796-.603.374-.3.706-.56.739-.577.071-.038.022-.072.908.637.669.536.764.593.993.593.172 0 .395-.145 1.113-.723l.7-.563.7.563c.708.57.941.723 1.106.723.242 0 .311-.042 1.005-.599.368-.295.712-.569.765-.609l.096-.073.558.448c.682.549.93.734 1.045.779.113.044.458.022.611-.04.151-.06.262-.193.32-.38.044-.143.047-.364.047-3.393 0-2.486-.008-3.308-.034-3.533-.233-1.971-1.268-3.622-2.926-4.667-.738-.466-1.731-.815-2.543-.894-.372-.036-1.414-.027-1.683.015m1.88 1.532c1.004.215 1.944.758 2.595 1.498.626.713 1.066 1.676 1.151 2.517.03.302.051 4.957.022 4.986-.011.011-.161-.095-.334-.234-.398-.321-.487-.367-.714-.367-.267 0-.312.03-1.357.887l-.477.391-.31-.254C8.325 11.295 8.248 11.243 8 11.243s-.325.052-1.524 1.034l-.31.255-.543-.444a31.468 31.468 0 0 0-.805-.639l-.262-.196h-.205c-.256 0-.321.033-.737.367-.168.136-.32.247-.338.247-.039 0-.01-4.613.032-5.013.014-.139.058-.373.096-.52a4.77 4.77 0 0 1 3.874-3.522c.354-.057 1.32-.034 1.669.041M6.511 6.534c-.592.086-1.097.776-.998 1.364.084.501.402.885.854 1.034.218.071.529.073.751.004.624-.194 1.003-.861.841-1.482-.117-.451-.524-.837-.969-.921a1.302 1.302 0 0 0-.479.001m3.448.01a1.182 1.182 0 0 0-.549.303c-.414.384-.52.925-.28 1.433a1.19 1.19 0 0 0 1.11.707c.597 0 1.06-.364 1.214-.952.227-.875-.607-1.707-1.495-1.491" fill-rule="evenodd"/></svg>