<svg width="16" height="16" viewBox="0 0 16 16" fill="none" xmlns="http://www.w3.org/2000/svg">
<path d="M6.75 9C7.44036 9 8 8.44036 8 7.75C8 7.05964 7.44036 6.5 6.75 6.5C6.05964 6.5 5.5 7.05964 5.5 7.75C5.5 8.44036 6.05964 9 6.75 9Z" fill="black"/>
<path d="M10.25 9C10.9404 9 11.5 8.44036 11.5 7.75C11.5 7.05964 10.9404 6.5 10.25 6.5C9.55964 6.5 9 7.05964 9 7.75C9 8.44036 9.55964 9 10.25 9Z" fill="black"/>
<path d="M13.5 13.5L11.6667 12L9.83333 13.5L8 12L6.16667 13.5L4.33333 12L2.5 13.5V7.5C2.5 6.04131 3.07946 4.64236 4.11091 3.61091C5.14236 2.57946 6.54131 2 8 2C9.45869 2 10.8576 2.57946 11.8891 3.61091C12.9205 4.64236 13.5 6.04131 13.5 7.5V13.5Z" stroke="black" stroke-width="1.5" stroke-linecap="round" stroke-linejoin="round"/>
</svg>
