<svg xmlns="http://www.w3.org/2000/svg" width="24" height="24" viewBox="0 0 24 24">
    <path fill-rule="evenodd" d="M5 4c-.552 0-1 .448-1 1v5.273c0 .552.448 1 1 1h5.385c.552 0 1-.448 1-1V5c0-.552-.448-1-1-1H5zm0 8.727c-.552 0-1 .448-1 1V19c0 .552.448 1 1 1h5.385c.552 0 1-.448 1-1v-5.273c0-.552-.448-1-1-1H5zM12.616 5c0-.552.447-1 1-1H19c.552 0 1 .448 1 1v5.273c0 .552-.448 1-1 1h-5.384c-.553 0-1-.448-1-1V5zm1 7.727c-.553 0-1 .448-1 1V19c0 .552.447 1 1 1H19c.552 0 1-.448 1-1v-5.273c0-.552-.448-1-1-1h-5.384z" clip-rule="evenodd"/>
</svg>
