<svg xmlns="http://www.w3.org/2000/svg" viewBox="0 0 24 24"><path d="M4.664 4.062a1.012 1.012 0 0 0-.533.449L4.02 4.7l-.011 2.857c-.012 3.193-.02 3.099.265 3.392.082.085.221.189.308.233.153.075.257.078 3.118.078h2.96l.163-.087c.236-.126.442-.374.515-.618.093-.315.093-5.515 0-5.83a1.112 1.112 0 0 0-.515-.618c-.163-.087-.167-.087-3.083-.095-2.462-.006-2.945.002-3.076.05m8.696-.025a1.058 1.058 0 0 0-.698.688c-.093.315-.093 5.515 0 5.83.073.244.279.492.515.618l.163.087h2.96c2.861 0 2.965-.003 3.118-.078.087-.044.225-.148.307-.232.282-.291.275-.202.275-3.31 0-3.142.01-3.032-.299-3.341-.31-.31-.191-.299-3.398-.296-1.564.002-2.888.018-2.943.034m-8.587 8.721c-.19.046-.461.219-.565.36-.211.286-.208.241-.208 3.24 0 3.144-.01 3.034.299 3.343.309.309.193.299 3.393.299 2.129 0 2.88-.012 3.003-.049.101-.03.245-.127.371-.25.346-.337.334-.217.334-3.341 0-3.021.003-2.984-.27-3.285a1.365 1.365 0 0 0-.307-.248c-.163-.087-.167-.087-3.043-.094-1.584-.003-2.937.008-3.007.025m8.607-.001a.984.984 0 0 0-.511.318c-.272.301-.269.265-.269 3.285 0 3.124-.012 3.004.334 3.341.126.123.27.22.371.25.123.037.874.049 3.003.049 3.2 0 3.084.01 3.393-.299.309-.309.299-.199.299-3.343 0-3.019.004-2.961-.218-3.252a1.198 1.198 0 0 0-.312-.25l-.21-.116-2.88-.007c-1.584-.003-2.934.007-3 .024" fill-rule="evenodd"/></svg>