<svg viewBox="0 0 32 32" xmlns="http://www.w3.org/2000/svg"><path d="M12.709 2.107c-1.228.267-2.342 1.39-2.604 2.627a6.096 6.096 0 0 0-.077.992c-.001.581-.009.629-.095.593-.508-.212-.755-.258-1.426-.261-.627-.003-.735.011-1.12.146-1.049.367-1.881 1.229-2.248 2.329-.091.275-.098.622-.114 5.52-.018 5.549-.003 6.007.23 7.161a11.052 11.052 0 0 0 4.219 6.609c4.377 3.228 10.459 2.771 14.288-1.073a10.973 10.973 0 0 0 2.982-5.536c.208-1.03.243-1.655.242-4.387 0-2.716-.021-3.022-.25-3.599-.374-.945-1.226-1.744-2.176-2.044-.309-.097-.497-.117-1.093-.116-.633.002-.767.018-1.107.137l-.387.136-.001-2.11c-.001-2.39-.022-2.585-.367-3.284a3.546 3.546 0 0 0-1.203-1.352c-1.014-.678-2.235-.748-3.496-.201-.061.026-.118-.048-.228-.3-.657-1.503-2.334-2.342-3.969-1.987m1.437 2.021c.285.138.619.481.753.77.114.248.114.269.13 4.835.014 4.414.019 4.595.119 4.801.153.318.368.426.852.426.456 0 .667-.093.833-.367.095-.157.102-.36.127-3.793l.027-3.627.123-.272c.144-.319.421-.602.757-.776.329-.169.939-.172 1.259-.005.323.169.538.366.702.646l.145.247.015 4.541.014 4.541-.388.094c-2.565.623-4.434 2.856-4.558 5.445-.028.588-.021.669.082.881.163.338.371.445.862.445.7 0 .922-.252.986-1.12.071-.963.312-1.618.848-2.302.747-.955 1.697-1.444 3.029-1.559.629-.054.821-.132.983-.4.091-.15.103-.322.127-1.819.026-1.602.031-1.661.152-1.893.363-.701 1.092-1.018 1.857-.807.27.075.726.472.887.774.116.216.118.256.134 2.886.02 3.324-.025 3.815-.469 5.153a8.978 8.978 0 0 1-4.6 5.23 9.05 9.05 0 0 1-7.003.37c-2.589-.948-4.608-3.017-5.465-5.6-.472-1.422-.478-1.524-.479-7.511 0-5.028.002-5.137.108-5.421.132-.352.503-.721.866-.859.19-.073.347-.09.646-.071.608.039 1.016.324 1.281.896.109.232.113.335.139 3.36.029 3.388.021 3.308.329 3.536.293.217.97.216 1.263-.002.078-.058.189-.187.248-.287.104-.176.107-.302.133-5.327l.027-5.147.115-.213c.155-.285.471-.583.765-.719.302-.14.932-.13 1.239.02"/></svg>