<svg viewBox="0 0 24 24" xmlns="http://www.w3.org/2000/svg"><path d="M14.913 2.041c-1.339.211-2.405 1.04-2.886 2.245-.185.463-.241.771-.242 1.334-.001.412.018.595.09.88.301 1.184 1.197 2.156 2.336 2.533.426.141.975.223 1.318.199l.238-.018.142.291c.545 1.117 1.739 1.893 3.019 1.963 1.674.092 3.162-.953 3.658-2.568.102-.333.11-.41.11-1.04-.001-.637-.008-.702-.113-1.02-.206-.622-.434-1.009-.861-1.454-.448-.469-.916-.759-1.562-.966-.277-.088-.441-.112-.885-.13l-.545-.021-.115-.243c-.444-.939-1.43-1.711-2.455-1.921-.392-.08-.962-.109-1.247-.064m.989 2.04c.297.102.567.297.777.562.251.318.249.344-.06.641-.471.452-.921 1.242-1.004 1.761-.035.214-.11.247-.444.194a1.676 1.676 0 0 1-1.262-.914c-.122-.248-.129-.288-.129-.704 0-.394.011-.465.106-.668.11-.234.36-.535.568-.683.369-.262.994-.344 1.448-.189m3.711 2.24c1.18.364 1.533 1.888.632 2.731-.659.616-1.635.603-2.268-.029a1.563 1.563 0 0 1-.46-.936 1.622 1.622 0 0 1 2.096-1.766M7.74 10.34a3.327 3.327 0 0 0-1.3.611c-.099.079-.676.635-1.282 1.236L4.057 13.28H2.616c-1.236 0-1.47.009-1.639.066a1.917 1.917 0 0 0-.787.532l-.19.211v5.539l.141.185c.182.239.449.441.733.556l.226.091 5.14.012 5.14.011 3.08-.768 3.08-.768 1.912-.813c1.052-.448 2.009-.876 2.127-.952.439-.28.848-.813 1.029-1.336.076-.222.091-.35.092-.766 0-.562-.044-.768-.245-1.16a2.519 2.519 0 0 0-1.75-1.342c-.515-.112-.791-.073-2.825.399-1 .233-1.837.423-1.86.423-.023 0-.043-.14-.046-.335-.015-.784-.278-1.4-.837-1.96-.405-.405-.856-.658-1.361-.765-.388-.082-5.668-.082-6.036 0m5.783 2.01c.295.15.446.37.469.686.021.286-.04.485-.206.674-.249.284-.277.288-1.851.289-.776.001-1.5.019-1.62.042a.981.981 0 0 0-.655.461c-.106.17-.12.227-.12.498s.014.328.12.498a.972.972 0 0 0 .668.463c.143.027.82.038 1.8.031l1.572-.012 3.229-.75c1.776-.413 3.261-.75 3.3-.749.129.001.381.176.459.319a.495.495 0 0 1 .06.306c-.036.345-.02.335-2.018 1.188l-1.83.781-2.89.722-2.889.723H5.48V14.659l1.07-1.064c.589-.585 1.128-1.103 1.198-1.151.296-.201.26-.198 2.995-.201l2.563-.003.217.11M3.52 16.881v1.641l-.89-.011-.89-.011-.01-1.63-.011-1.63H3.52v1.641" fill-rule="evenodd"/></svg>
