<?xml version="1.0" encoding="UTF-8"?>
<svg width="256px" height="256px" viewBox="0 0 256 256" version="1.1" xmlns="http://www.w3.org/2000/svg" xmlns:xlink="http://www.w3.org/1999/xlink">
    <g id="help" fill="#000000" fill-rule="nonzero">
        <path d="M218.512,37.8979805 C168.528,-11.972616 87.472,-11.972616 37.488,37.8979805 C-12.496,87.768577 -12.496,168.698511 37.488,218.585076 C87.472,268.48761 168.56,268.455673 218.512,218.585076 C268.496,168.730448 268.496,87.7526082 218.512,37.8979805 Z M122.608,231.02478 C108.704,231.02478 97.36,219.814674 97.36,206.049559 C97.36,191.917162 108.448,180.834807 122.608,180.834807 C136.416,180.834807 147.632017,192.140725 147.632017,206.049559 C147.648,219.60708 136.192,231.02478 122.608,231.02478 Z M140.208,143.451821 L140.208,157.29678 C140.208,164.035618 137.568,166.670472 130.816,166.670472 L112.704,166.670472 C105.952,166.670472 103.344,164.035618 103.344,157.29678 L103.344,126.365193 C103.344,118.540476 111.376,116.209029 118.448,114.149053 C120.176,113.622082 121.968,113.11108 123.696,112.520234 C132.864,109.230659 138.544,105.126674 138.544,94.9066355 C138.544,91.5851228 138.544,81.5247719 122.128,81.5247719 C112.016,81.5247719 102.816,85.405193 97.328,87.7206706 C94.224,89.0301131 92.688,89.6688655 91.136,89.6688655 C87.968,89.6688655 84.976,87.1298246 84.512,84.5269084 L78.208,68.0790331 C77.296,66.1947135 77.296,64.6936452 77.296,63.4800156 C77.296,51.3596881 115.072,44.6847251 127.6,44.6847251 C159.152,44.6847251 180.352008,64.9810838 180.352008,95.1621365 C180.368,127.818355 155.792,138.054363 140.208,143.451821 L140.208,143.451821 Z" id="Path"></path>
    </g>
</svg>