<svg height="16" viewBox="0 0 16 16" width="16" xmlns="http://www.w3.org/2000/svg"><path d="m12.7356115 2.75033009c.2928932.29289321.2928932.76776695 0 1.06066017l-9.42462124 9.42462124c-.29289322.2928932-.76776696.2928932-1.06066017 0-.29289322-.2928933-.29289322-.767767 0-1.0606602l1.09158938-1.0911927c-.24245613-.1884714-.47707719-.39294-.70507251-.6126841-.21114529-.2035038-.41020028-.4131949-.61745532-.6474093l-.33687588-.39339163c-.16473859-.1973308-.41582503-.4996775-.48811971-.5829893-.42586399-.4905587-.42586399-1.20419765-.00001682-1.69454917l.61427252-.7333323c.28663497-.33680092.54666815-.61913892.82819521-.89047733 1.42847961-1.37678204 3.1170531-2.15392547 5.36315304-2.15392547.97221698 0 1.83997788.1456027 2.6274035.42241308l1.0475478-1.04708299c.2928932-.29289322.7677669-.29289322 1.0606602 0zm.6275415 2.77859538c.2111453.20350381.4102003.41319489.6174554.64740933l.3368756.39339135c.1647379.19732996.4158214.49967331.4881044.58297169.4258821.49039176.4258821 1.20421256.0000324 1.69456706l-.6142726.7333323c-.2866349.33680092-.5466681.6191389-.8281952.8904773-1.4284796 1.3767821-3.1170531 2.1539255-5.363153 2.1539255-.67268401 0-1.29536117-.0697052-1.87602125-.2043474l1.10949558-1.1071098c.24697581.0268412.5024591.0411639.76719951.0425911 1.89863293.0102352 3.32005736-.6630014 4.54605686-1.87521574.1809796-.17894469.3519131-.36312766.5331705-.57194365l.3282813-.39076998c.1411385-.17122082.3419774-.41459653.4096816-.49260372.013293-.01527467.013293-.03592695-.0001091-.0513272l-.5524008-.66550279c-.253871-.30319064-.4773173-.55109606-.7186235-.78968898-.0878958-.08690743-.176796-.17104457-.2668044-.25235816l.9051289-.90507863c.0598223.0547318.1191813.11049609.1780978.16728042zm-5.36247916-.88505936c-1.89843464.01023415-3.32084719.68358506-4.54366768 1.88104443-.18207324.17829707-.35421843.36210307-.53572802.56948008l-.73903181.87988146c-.0134218.01546479-.0134218.0360329-.00000134.05145431l.55368755.66398c.25319485.30013056.4783093.54765364.72107362.78538307.2586496.25328524.52622898.48312175.80535413.68819404l5.34309025-5.34389231c-.49621741-.11877657-1.02851678-.1786316-1.6047767-.17552508z" fill-rule="evenodd"/></svg>