<svg viewBox="0 0 16 16" xmlns="http://www.w3.org/2000/svg"><path d="M12 2.557c-.171.056-.291.155-.816.674l-.562.557-.33-.095c-1.142-.329-2.494-.4-3.719-.197a6.725 6.725 0 0 0-1.946.625c-1.111.543-1.946 1.252-3.098 2.632C.93 7.472.895 7.539.895 8c0 .276.008.325.075.487.162.386 1.58 1.973 2.197 2.457l.167.131-.587.593c-.62.626-.681.708-.711.968-.01.084 0 .183.03.286.037.129.073.186.197.307.128.125.181.156.328.196a.689.689 0 0 0 .568-.078c.171-.101 9.651-9.604 9.72-9.742.234-.47-.104-1.035-.634-1.061a.964.964 0 0 0-.245.013M8.87 4.693c.312.039.703.111.703.13 0 .009-1.197 1.214-2.66 2.677l-2.661 2.661-.226-.179c-.336-.265-1.002-.946-1.447-1.479-.216-.258-.392-.484-.392-.502 0-.051.754-.94 1.106-1.304 1.249-1.29 2.586-1.92 4.334-2.041.224-.015 1.006.008 1.243.037m3.864 1.12-.452.452.336.341c.386.393.433.445.871.971.178.215.324.404.324.421 0 .04-.716.9-1.011 1.213-1.249 1.326-2.515 1.972-4.162 2.121a7.474 7.474 0 0 1-1.187.003l-.213-.021-.552.548c-.304.302-.549.553-.544.558.005.005.122.032.259.059.925.186 2.216.186 3.184 0a7.236 7.236 0 0 0 3.174-1.478c.404-.321 1.175-1.11 1.696-1.736.577-.693.662-.855.662-1.265 0-.371-.096-.584-.461-1.024a20.793 20.793 0 0 0-1.196-1.343l-.276-.273-.452.453" fill-rule="evenodd"/></svg>