<svg viewBox="0 0 24 24" xmlns="http://www.w3.org/2000/svg" xml:space="preserve" style="fill-rule:evenodd;clip-rule:evenodd;stroke-linejoin:round;stroke-miterlimit:2"><path d="M3.664 6.063A.993.993 0 0 0 3.298 7.7c.32.32-.022.3 5.202.3 5.223 0 4.883.02 5.201-.299a.984.984 0 0 0 0-1.402c-.319-.319.025-.299-5.218-.296-3.942.002-4.687.011-4.819.06m12 0a.993.993 0 0 0-.366 1.637c.303.303.273.3 2.702.3 2.427 0 2.399.003 2.701-.299.18-.18.299-.459.299-.701 0-.242-.119-.521-.299-.701-.303-.303-.271-.299-2.718-.296-1.773.002-2.191.013-2.319.06m-12 5a.993.993 0 0 0-.366 1.637c.313.313.156.3 3.702.3 3.544 0 3.39.013 3.701-.299a.984.984 0 0 0 0-1.402c-.312-.312-.154-.299-3.718-.296-2.641.002-3.189.012-3.319.06m9 0a.993.993 0 0 0-.366 1.637c.255.255.436.3 1.202.3s.947-.045 1.201-.299a.984.984 0 0 0 0-1.402c-.256-.256-.434-.3-1.218-.296-.47.002-.709.019-.819.06m4 0a.993.993 0 0 0-.366 1.637c.295.295.331.3 2.202.3s1.907-.005 2.201-.299a.984.984 0 0 0 0-1.402c-.295-.295-.328-.299-2.218-.296-1.338.002-1.694.014-1.819.06m-13 5a.993.993 0 0 0-.366 1.637c.255.255.436.3 1.202.3s.947-.045 1.201-.299a.984.984 0 0 0 0-1.402c-.256-.256-.434-.3-1.218-.296-.47.002-.709.019-.819.06m4 0a.993.993 0 0 0-.366 1.637c.323.324-.203.3 6.702.3 6.903 0 6.379.023 6.701-.299a.984.984 0 0 0 0-1.402c-.322-.323.205-.299-6.718-.296-5.244.002-6.186.011-6.319.06"/></svg>