<svg width="100%" height="100%" viewBox="0 0 24 24" version="1.1" xmlns="http://www.w3.org/2000/svg" xmlns:xlink="http://www.w3.org/1999/xlink" xml:space="preserve" xmlns:serif="http://www.serif.com/" style="fill-rule:evenodd;clip-rule:evenodd;stroke-linejoin:round;stroke-miterlimit:2;">
    <path d="M20,16L8,16C7.448,16 7,16.448 7,17C7,17.552 7.448,18 8,18L20,18C20.552,18 21,17.552 21,17C21,16.448 20.552,16 20,16ZM5,16L4,16C3.448,16 3,16.448 3,17C3,17.552 3.448,18 4,18L5,18C5.552,18 6,17.552 6,17C6,16.448 5.552,16 5,16ZM10,11L4,11C3.448,11 3,11.448 3,12C3,12.552 3.448,13 4,13L10,13C10.552,13 11,12.552 11,12C11,11.448 10.552,11 10,11ZM14,11L13,11C12.448,11 12,11.448 12,12C12,12.552 12.448,13 13,13L14,13C14.552,13 15,12.552 15,12C15,11.448 14.552,11 14,11ZM20,11L17,11C16.448,11 16,11.448 16,12C16,12.552 16.448,13 17,13L20,13C20.552,13 21,12.552 21,12C21,11.448 20.552,11 20,11ZM13,6L4,6C3.448,6 3,6.448 3,7C3,7.552 3.448,8 4,8L13,8C13.552,8 14,7.552 14,7C14,6.448 13.552,6 13,6ZM20,6L16,6C15.448,6 15,6.448 15,7C15,7.552 15.448,8 16,8L20,8C20.552,8 21,7.552 21,7C21,6.448 20.552,6 20,6Z"/>
</svg>
