<svg xmlns="http://www.w3.org/2000/svg" width="24" height="24" viewBox="0 0 24 24">
    <path d="M16.616 8.818c0 .362-.146.71-.406.965-.26.256-.612.4-.98.4-.367 0-.719-.144-.979-.4s-.405-.603-.405-.965c0-.361.146-.708.405-.964.26-.256.612-.4.98-.4.367 0 .72.144.979.4.26.256.405.603.405.964zm7.384-5v16.364c0 .482-.195.944-.541 1.285-.346.34-.816.532-1.305.533H1.846c-.49 0-.959-.192-1.305-.533s-.54-.803-.541-1.285V3.818c0-.482.195-.944.541-1.285.346-.34.816-.532 1.305-.533h20.308c.49 0 .959.192 1.305.533s.54.803.541 1.285zM22.155 16.17l-.001-12.352H1.846v10.533l4.233-4.17c.347-.34.816-.53 1.306-.53.49 0 .959.19 1.305.53l5.156 5.079 2.387-2.35c.347-.341.816-.533 1.305-.533.49 0 .96.192 1.306.532l3.31 3.26z"/>
</svg>
