<svg xmlns="http://www.w3.org/2000/svg" viewBox="0 0 24 24"><path d="M10.63 1.101c-1.807.218-3.549.917-5.17 2.072-.479.341-1.617 1.442-2.064 1.997C2.203 6.652 1.399 8.519 1.1 10.508c-.082.543-.082 2.441 0 2.984.304 2.017 1.166 3.991 2.37 5.428.434.517 1.476 1.524 1.934 1.868 1.501 1.128 3.294 1.854 5.276 2.136.53.075 2.157.063 2.78-.021 1.253-.168 2.797-.686 3.912-1.311.92-.515 1.452-.931 2.37-1.849.778-.778 1.172-1.257 1.597-1.945.73-1.178 1.305-2.714 1.522-4.06.142-.878.142-2.597.001-3.475-.237-1.471-.89-3.134-1.714-4.363-.467-.697-1.424-1.746-2.175-2.385-.806-.686-2.174-1.463-3.253-1.849a11.465 11.465 0 0 0-2.674-.585c-.557-.055-1.886-.044-2.416.02m1.591 4.943c.495.091.963.447 1.158.88.099.221.107.276.095.649-.017.491-.099.686-.434 1.028-.331.337-.521.413-1.037.415-.53.002-.69-.067-1.052-.45-.373-.396-.411-.492-.411-1.046 0-.404.011-.482.093-.64.191-.367.623-.722 1.004-.825.234-.063.297-.064.584-.011m.299 4.534c.239.123.455.324.587.547l.128.215.026 2.36c.036 3.233.004 3.552-.402 3.959-.238.238-.459.32-.859.32-.41 0-.628-.085-.892-.349-.245-.245-.308-.453-.349-1.15-.043-.728-.044-2.684-.002-4.106.03-1.041.035-1.092.125-1.238.204-.329.427-.512.758-.621.171-.056.725-.017.88.063" fill-rule="evenodd"/></svg>