<?xml version="1.0" encoding="UTF-8"?>
<svg width="256px" height="256px" viewBox="0 0 256 256" version="1.1" xmlns="http://www.w3.org/2000/svg" xmlns:xlink="http://www.w3.org/1999/xlink">
    <title>info</title>
    <g id="Page-1" stroke="none" stroke-width="1" fill="none" fill-rule="evenodd">
        <g id="info" fill="#000000" fill-rule="nonzero">
            <path d="M218.512,37.8979805 C168.528,-11.972616 87.472,-11.972616 37.488,37.8979805 C-12.496,87.768577 -12.496,168.698511 37.488,218.585076 C87.472,268.48761 168.56,268.455673 218.512,218.585076 C268.496,168.730448 268.496,87.7526082 218.512,37.8979805 Z M125.952,22.5519532 C139.456,22.5519532 150.448,33.5225263 150.448,47.0481092 C150.448,60.6695049 139.456,71.7358908 125.952,71.7358908 C112.32,71.7358908 101.184,60.6695049 101.184,47.0481092 C101.184,33.298963 112.048,22.5519532 125.952,22.5519532 L125.952,22.5519532 Z M165.328,202.504483 C165.328,207.646441 162.848,210.153544 157.696,210.153544 L94.464,210.153544 C89.312,210.153544 86.8,207.646441 86.8,202.504483 L86.8,186.407922 C86.8,181.265965 89.312,178.790799 94.464,178.790799 L106.144,178.790799 L106.144,110.891415 L94.208,110.891415 C89.056,110.891415 86.576,108.384312 86.576,103.242355 L86.576,87.1617622 C86.576,82.0198051 89.056,79.5446394 94.208,79.5446394 L138.352,79.5446394 C143.504,79.5446394 145.984,82.0198051 145.984,87.1617622 L145.984,178.806768 L157.696,178.806768 C162.848,178.806768 165.328,181.281934 165.328,186.423891 L165.328,202.504483 L165.328,202.504483 Z" id="Path"></path>
        </g>
    </g>
</svg>