<svg xmlns="http://www.w3.org/2000/svg" width="24" height="24" fill="none" viewBox="0 0 24 24"><path d="M12 1C5.925 1 1 5.925 1 12s4.925 11 11 11 11-4.925 11-11S18.075 1 12 1zm-1.271 15.748v-5.036c0-.337.134-.66.372-.898.239-.239.562-.373.899-.373.337 0 .66.134.899.373.238.238.372.561.372.899v5.035c0 .337-.134.66-.372.899-.239.238-.562.372-.899.372-.337 0-.66-.134-.899-.372-.238-.238-.372-.562-.372-.899zM12 9.054c-.302 0-.598-.09-.849-.257-.251-.168-.447-.407-.563-.686-.115-.279-.145-.586-.086-.882.058-.297.204-.569.418-.783.213-.213.486-.359.782-.418.296-.059.604-.028.883.087.279.116.517.312.685.563.168.251.258.546.258.849 0 .405-.161.793-.448 1.08-.286.286-.675.447-1.08.447z"/></svg>
