<svg width="100%" height="100%" viewBox="0 0 24 24" version="1.1" xmlns="http://www.w3.org/2000/svg" xmlns:xlink="http://www.w3.org/1999/xlink" xml:space="preserve" xmlns:serif="http://www.serif.com/" style="fill-rule:evenodd;clip-rule:evenodd;stroke-linejoin:round;stroke-miterlimit:2;">
    <path d="M7.583,11.254L2.293,16.543C2.105,16.73 2,16.985 2,17.25L2,21C2,21.552 2.448,22 3,22L6.75,22C7.302,22 7.75,21.552 7.75,21L7.75,19.75C7.75,19.75 9,19.75 9,19.75C9.552,19.75 10,19.302 10,18.75L10,17.5C10,17.5 11.25,17.5 11.25,17.5C11.515,17.5 11.77,17.395 11.957,17.207L12.747,16.417C14.229,16.866 15.817,16.862 17.305,16.398C17.305,16.397 17.305,16.397 17.306,16.397C19.008,15.865 20.475,14.76 21.457,13.272C21.457,13.272 21.458,13.272 21.458,13.272C22.441,11.783 22.878,10 22.698,8.225C22.519,6.45 21.731,4.792 20.47,3.53C20.47,3.53 20.47,3.53 20.47,3.53C19.208,2.269 17.55,1.481 15.775,1.302C14.001,1.122 12.217,1.559 10.728,2.542C10.728,2.542 10.728,2.543 10.728,2.543C9.24,3.525 8.135,4.992 7.603,6.694C7.603,6.695 7.603,6.695 7.602,6.695C7.138,8.183 7.134,9.771 7.583,11.254ZM8.74,12.508L9.662,11.144C9.17,9.915 9.117,8.555 9.511,7.291C9.907,6.028 10.726,4.941 11.83,4.212C12.935,3.483 14.257,3.158 15.573,3.292C15.573,3.292 15.573,3.292 15.574,3.292C16.89,3.425 18.12,4.009 19.056,4.944C19.991,5.88 20.575,7.11 20.708,8.426C20.708,8.427 20.708,8.427 20.708,8.427C20.842,9.744 20.517,11.065 19.788,12.17C19.059,13.274 17.972,14.093 16.709,14.489C15.445,14.883 14.085,14.829 12.855,14.337C12.484,14.189 12.06,14.276 11.777,14.559L10.836,15.5C10.836,15.5 9,15.5 9,15.5C8.448,15.5 8,15.948 8,16.5L8,17.75C8,17.75 6.75,17.75 6.75,17.75C6.198,17.75 5.75,18.198 5.75,18.75L5.75,20C5.75,20 4,20 4,20C4,20 4,17.664 4,17.664C4,17.664 9.442,12.223 9.442,12.223L8.735,12.516L8.74,12.508Z" />
    <path d="M16.875,8.5C17.634,8.5 18.25,7.884 18.25,7.125C18.25,6.366 17.634,5.75 16.875,5.75C16.116,5.75 15.5,6.366 15.5,7.125C15.5,7.884 16.116,8.5 16.875,8.5ZM16.875,6.5C17.22,6.5 17.5,6.78 17.5,7.125C17.5,7.47 17.22,7.75 16.875,7.75C16.53,7.75 16.25,7.47 16.25,7.125C16.25,6.78 16.53,6.5 16.875,6.5Z" style="fill-opacity:0.5;"/>
    <path d="M16.875,8.25C17.496,8.25 18,7.746 18,7.125C18,6.504 17.496,6 16.875,6C16.254,6 15.75,6.504 15.75,7.125C15.75,7.746 16.254,8.25 16.875,8.25Z" style="fill-rule:nonzero;"/>
</svg>
