<svg height="16" viewBox="0 0 16 16" width="16" xmlns="http://www.w3.org/2000/svg"><path d="m10.5857864 4c.2652165 0 .5195704.10535684.7071068.29289322l3 3c.3905243.39052429.3905243 1.02368927 0 1.41421356l-3 3.00000002c-.1875364.1875364-.4418903.2928932-.7071068.2928932h-7.5857864c-.55228475 0-1-.4477153-1-1v-6c0-.55228475.44771525-1 1-1zm-.1247864 1.3h-7.161v5.4h7.16l2.701-2.7zm-.461 1.7c.5522847 0 1 .44771525 1 1s-.4477153 1-1 1c-.55228475 0-1-.44771525-1-1s.44771525-1 1-1z" fill-rule="evenodd"/></svg>