<svg height="16" viewBox="0 0 16 16" width="16" xmlns="http://www.w3.org/2000/svg"><path d="m10.5857864 4c.2652165 0 .5195704.10535684.7071068.29289322l3 3c.3905243.39052429.3905243 1.02368927 0 1.41421356l-3 3.00000002c-.1875364.1875364-.4418903.2928932-.7071068.2928932h-7.5857864c-.55228475 0-1-.4477153-1-1v-6c0-.55228475.44771525-1 1-1zm-.5857864 2.75c-.69035594 0-1.25.55964406-1.25 1.25s.55964406 1.25 1.25 1.25c.6903559 0 1.25-.55964406 1.25-1.25s-.5596441-1.25-1.25-1.25z" fill-rule="evenodd"/></svg>