<svg viewBox="0 0 16 16" xmlns="http://www.w3.org/2000/svg"><path d="M7.498.774a5.695 5.695 0 0 0-3.48 1.599A5.755 5.755 0 0 0 2.265 6.08c-.094 1.122.207 2.389.804 3.377.315.522.664.924 1.376 1.583.265.245.302.339.302.777 0 .158.013.351.029.428.101.486.493.878.979.979.197.041 4.293.041 4.49 0 .486-.101.878-.493.979-.979a2.81 2.81 0 0 0 .029-.428c0-.438.037-.532.302-.777.481-.446.846-.828 1.041-1.09.592-.795.943-1.644 1.1-2.657.054-.352.062-1.168.013-1.506a6.122 6.122 0 0 0-.8-2.276A5.78 5.78 0 0 0 8.834.816 7.055 7.055 0 0 0 7.498.774m1.314 1.558a4.247 4.247 0 0 1 2.945 2.201c.363.705.506 1.353.474 2.145-.049 1.229-.57 2.283-1.532 3.101-.47.4-.678.688-.834 1.154-.067.2-.088.315-.099.54l-.014.287H8.747V9.321l.93-.934c.608-.61.952-.975.993-1.054.05-.096.063-.162.063-.333 0-.187-.009-.231-.078-.355-.144-.259-.353-.379-.661-.378-.319.001-.341.017-1.214.887L8 7.931l-.78-.777c-.873-.87-.895-.886-1.214-.887-.308-.001-.517.119-.661.378-.069.124-.078.168-.078.355 0 .171.013.237.063.333.041.079.385.444.993 1.054l.93.934v2.439H6.248l-.014-.287a1.706 1.706 0 0 0-.101-.547c-.154-.463-.349-.731-.831-1.145-.881-.757-1.379-1.669-1.517-2.777a5.27 5.27 0 0 1 .054-1.355c.397-1.862 1.999-3.267 3.854-3.378.359-.022.808.003 1.119.061M5.28 13.785a.783.783 0 0 0-.533.726c0 .281.215.583.49.686.151.056.164.056 2.763.056 2.599 0 2.612 0 2.763-.056.275-.103.49-.405.49-.686a.818.818 0 0 0-.41-.679l-.11-.059-2.693-.004c-1.481-.003-2.723.004-2.76.016" fill-rule="evenodd"/></svg>