<svg width="16" height="16" viewBox="0 0 16 16" fill="none" xmlns="http://www.w3.org/2000/svg">
<g id="lightbulb">
<g id="Union">
<path fill-rule="evenodd" clip-rule="evenodd" d="M4.45733 11.0293L4.91898 10.4382L4.45827 11.0301C4.54886 11.1006 4.6222 11.1908 4.67274 11.2939C4.72318 11.3967 4.74959 11.5097 4.74998 11.6242L4.74999 12C4.75 12.3316 4.88169 12.6495 5.11611 12.8839C5.35053 13.1183 5.66847 13.25 5.99999 13.25H10C10.3315 13.25 10.6495 13.1183 10.8839 12.8839C11.1183 12.6495 11.25 12.3316 11.25 12L11.25 11.6262C11.251 11.5104 11.2781 11.3963 11.3294 11.2924C11.381 11.188 11.4556 11.0967 11.5476 11.0254L11.5515 11.0224C12.5014 10.2764 13.1922 9.25024 13.526 8.08954C13.8598 6.92884 13.8197 5.6925 13.4113 4.55589C13.0029 3.41928 12.2471 2.4401 11.2509 1.75726C10.2548 1.0745 9.06864 0.722673 7.86138 0.751657C4.74272 0.82528 2.23303 3.41393 2.25009 6.53206C2.25424 7.39969 2.45499 8.25511 2.83725 9.03401C3.21955 9.813 3.77346 10.4952 4.45733 11.0293ZM7.89749 2.25122C8.78993 2.22973 9.66647 2.48979 10.4028 2.99451C11.1391 3.49922 11.6978 4.22296 11.9997 5.06308C12.3015 5.90319 12.3312 6.81702 12.0844 7.67494C11.8379 8.53219 11.3279 9.29013 10.6267 9.84142C10.3559 10.0517 10.1364 10.3207 9.98452 10.6281C9.83225 10.9364 9.75205 11.2752 9.75001 11.6191L9.75001 11.75H8.75V9.31066L10.5303 7.53033C10.8232 7.23744 10.8232 6.76256 10.5303 6.46967C10.2374 6.17678 9.76256 6.17678 9.46967 6.46967L8 7.93934L6.53033 6.46967C6.43113 6.37047 6.31106 6.30487 6.18426 6.27287C5.93665 6.21037 5.66337 6.27597 5.46967 6.46967C5.17678 6.76256 5.17678 7.23744 5.46967 7.53033L5.72479 7.78545L7.25 9.31066V11.75H6.24999L6.24999 11.6231L6.24998 11.6212C6.24913 11.2787 6.17033 10.9409 6.01954 10.6334C5.86884 10.3261 5.6502 10.0571 5.38016 9.84678C5.3031 9.78658 5.22827 9.72382 5.15578 9.65866C4.75329 9.29682 4.42307 8.86065 4.18383 8.37315C3.90141 7.79769 3.75311 7.16511 3.75007 6.52409C3.73829 4.39312 5.33165 2.59213 7.39304 2.29348C7.55837 2.26953 7.72672 2.25524 7.89749 2.25122Z" />
<path d="M5.5 13.75C5.08579 13.75 4.75 14.0858 4.75 14.5C4.75 14.9142 5.08579 15.25 5.5 15.25H10.5C10.9142 15.25 11.25 14.9142 11.25 14.5C11.25 14.0858 10.9142 13.75 10.5 13.75H5.5Z" />
</g>
</g>
</svg>
