<svg viewBox="1 1 22 22" xmlns="http://www.w3.org/2000/svg"><path fill-rule="evenodd" clip-rule="evenodd" d="M7.5 21.75a.75.75 0 0 1 .75-.75h7.5a.75.75 0 0 1 0 1.5h-7.5a.75.75 0 0 1-.75-.75ZM15.817 4.18A6.75 6.75 0 0 0 11.837 3C8.184 3.084 5.23 6.13 5.25 9.788a6.74 6.74 0 0 0 2.59 5.277A3.01 3.01 0 0 1 9 17.437V18h6v-.566a3.028 3.028 0 0 1 1.17-2.378 6.75 6.75 0 0 0-.353-10.876ZM11.802 1.5a8.25 8.25 0 0 1 5.294 14.737l-.004.003a1.529 1.529 0 0 0-.592 1.2V18a1.5 1.5 0 0 1-1.5 1.5H9A1.5 1.5 0 0 1 7.5 18v-.562a1.51 1.51 0 0 0-.582-1.19h-.001A8.238 8.238 0 0 1 3.75 9.795M11.802 1.5c-4.474.103-8.076 3.824-8.052 8.296Z"/><path fill-rule="evenodd" clip-rule="evenodd" d="M12.01 5.125a.75.75 0 0 1 .865-.615c2.19.37 3.994 2.176 4.365 4.365a.75.75 0 0 1-1.48.25c-.264-1.56-1.575-2.873-3.134-3.135a.75.75 0 0 1-.615-.865Z"/></svg>