<svg viewBox="0 0 16 16" xmlns="http://www.w3.org/2000/svg"><path d="M9.693.33c-.17.081.019-.117-3.934 4.118C3.19 7.199 2.42 8.039 2.353 8.164a.56.56 0 0 0-.086.338c.001.288.15.533.397.655.068.034.875.342 1.796.685 1.174.439 1.673.636 1.673.664 0 .022-.199 1.035-.442 2.252-.464 2.323-.463 2.318-.371 2.539a.868.868 0 0 0 .373.374.763.763 0 0 0 .614-.001c.17-.081-.019.117 3.934-4.118 2.569-2.751 3.339-3.591 3.406-3.716a.56.56 0 0 0 .086-.338.715.715 0 0 0-.397-.655 70.582 70.582 0 0 0-1.796-.685c-1.174-.439-1.673-.636-1.673-.664 0-.022.199-1.035.442-2.252.464-2.323.463-2.318.371-2.539a.868.868 0 0 0-.373-.374.763.763 0 0 0-.614.001M8.507 4.679c-.132.66-.24 1.266-.24 1.347 0 .274.185.541.457.66.064.028.755.29 1.536.582.781.293 1.417.54 1.413.551-.013.037-4.407 4.734-4.413 4.717-.004-.009.101-.556.233-1.215.132-.66.24-1.266.24-1.347a.702.702 0 0 0-.249-.525c-.112-.098-.277-.166-1.644-.679-.836-.313-1.517-.578-1.513-.589.013-.037 4.407-4.734 4.413-4.717.004.009-.101.556-.233 1.215" fill-rule="evenodd"/></svg>
