<svg viewBox="0 0 12 12" xmlns="http://www.w3.org/2000/svg"><path d="M7.387 1.43a2.986 2.986 0 0 0-1.162.502c-.208.153-.848.795-.895.898a.424.424 0 0 0-.002.335c.094.195.317.36.49.36.151 0 .243-.064.61-.424s.531-.482.783-.583c.247-.099.4-.123.719-.113.249.008.301.016.47.073.297.1.461.203.69.432.228.228.331.391.433.69.064.184.066.2.066.52.001.357-.019.47-.123.709-.121.274-.21.381-.893 1.068-.365.366-.713.705-.774.753-.163.127-.345.22-.549.283-.163.049-.21.055-.5.056-.275.001-.342-.005-.476-.044a1.79 1.79 0 0 1-.674-.367c-.201-.164-.374-.203-.532-.122-.168.087-.346.329-.348.472-.001.129.046.22.181.355.306.303.773.547 1.262.659.235.053.701.073.94.04.46-.065.944-.265 1.307-.538.19-.143 1.529-1.492 1.665-1.677.212-.289.391-.685.474-1.048a2.793 2.793 0 0 0-.486-2.227A2.819 2.819 0 0 0 8.44 1.45c-.209-.047-.832-.058-1.053-.02M4.89 4.022a3.074 3.074 0 0 0-.895.28 3.229 3.229 0 0 0-.598.426c-.273.244-1.334 1.322-1.441 1.462a2.753 2.753 0 0 0-.288 2.874 2.829 2.829 0 0 0 1.268 1.268 2.74 2.74 0 0 0 3.026-.419c.262-.23.666-.655.708-.743.074-.158.04-.321-.104-.489-.16-.188-.389-.251-.57-.159-.046.023-.241.197-.434.386-.354.345-.492.455-.688.541-.42.186-.849.21-1.28.071a1.58 1.58 0 0 1-.694-.438 1.594 1.594 0 0 1-.424-.682c-.064-.185-.065-.198-.066-.53 0-.302.005-.357.047-.489a2.22 2.22 0 0 1 .244-.515c.088-.131 1.38-1.428 1.53-1.537.189-.136.437-.246.661-.292.163-.034.243-.039.448-.03.436.019.703.126 1.09.438.254.205.457.192.677-.043.233-.249.231-.448-.006-.682-.313-.309-.798-.56-1.281-.663a3.715 3.715 0 0 0-.93-.035" fill-rule="evenodd"/></svg>