<svg viewBox="0 0 32 32" xmlns="http://www.w3.org/2000/svg"><path d="M15.333 2.007c-2.527.402-4.355 2.254-4.665 4.725-.03.241-.055 1.212-.055 2.158v1.719l-2.28.018c-1.693.013-2.334.035-2.489.087-.124.041-.334.194-.516.376-.517.517-.478-.139-.462 7.9L4.88 26l.113.24c.144.306.461.623.767.767l.24.113h20l.24-.113c.335-.157.673-.52.8-.86.105-.279.107-.419.107-7.233 0-7.969.039-7.322-.479-7.83-.172-.168-.4-.333-.515-.372-.166-.057-1.597-.074-7.286-.085l-7.08-.015.001-1.933c.001-2.166.027-2.4.346-3.073.956-2.012 3.108-2.95 5.226-2.277.791.251 1.685.895 2.182 1.572.268.365.546.948.651 1.368.119.477.291.664.607.664.173 0 .255-.033.375-.153a.803.803 0 0 0 .187-.288c.074-.297-.377-1.513-.779-2.097-.238-.347-.867-1.002-1.223-1.273-.962-.735-1.958-1.087-3.173-1.121a8.712 8.712 0 0 0-.854.006m10.565 9.892c.096.105.103.231.117 2.053l.015 1.941H5.97l.015-1.941c.014-1.822.021-1.948.117-2.053l.101-.112h19.594l.101.112m.129 6.981v1.813H5.973v-3.626h20.054v1.813m-.012 4.932c-.015 1.944-.015 1.945-.136 2.067l-.122.121H6.243l-.122-.121C6 25.757 6 25.756 5.985 23.812l-.015-1.945h20.06l-.015 1.945" fill-rule="evenodd"/></svg>
