<svg width="100%" height="100%" viewBox="0 0 16 16" version="1.1" xmlns="http://www.w3.org/2000/svg" xmlns:xlink="http://www.w3.org/1999/xlink" xml:space="preserve" xmlns:serif="http://www.serif.com/" style="fill-rule:evenodd;clip-rule:evenodd;stroke-linejoin:round;stroke-miterlimit:2;">
    <g transform="matrix(0.613826,0,0,0.613826,2.47557,1.24641)">
        <path d="M9,0.34C5.84,0.34 3.28,2.9 3.28,6.06L3.28,9.18L1.72,9.18C0.865,9.18 0.16,9.885 0.16,10.74L0.16,20.1C0.16,20.955 0.865,21.66 1.72,21.66L16.28,21.66C17.135,21.66 17.84,20.955 17.84,20.1L17.84,10.74C17.84,9.885 17.135,9.18 16.28,9.18L14.72,9.18L14.72,6.06C14.72,2.9 12.16,0.34 9,0.34ZM9,1.38C11.602,1.38 13.68,3.458 13.68,6.06L13.68,9.18L4.32,9.18L4.32,6.06C4.32,3.458 6.398,1.38 9,1.38ZM1.72,10.22L16.28,10.22C16.577,10.22 16.8,10.443 16.8,10.74L16.8,20.1C16.8,20.397 16.577,20.62 16.28,20.62L1.72,20.62C1.423,20.62 1.2,20.397 1.2,20.1L1.2,10.74C1.2,10.443 1.423,10.22 1.72,10.22ZM9,12.3C7.857,12.3 6.92,13.237 6.92,14.38C6.92,14.89 7.133,15.333 7.44,15.696L7.44,16.98C7.44,17.835 8.145,18.54 9,18.54C9.855,18.54 10.56,17.835 10.56,16.98L10.56,15.696C10.867,15.333 11.08,14.89 11.08,14.38C11.08,13.237 10.142,12.3 9,12.3ZM9,13.34C9.58,13.34 10.04,13.8 10.04,14.38C10.04,14.69 9.904,14.96 9.69,15.152C9.636,15.201 9.593,15.262 9.563,15.329C9.534,15.396 9.519,15.469 9.52,15.542L9.52,16.98C9.52,17.277 9.297,17.5 9,17.5C8.703,17.5 8.48,17.277 8.48,16.98L8.48,15.542C8.48,15.468 8.466,15.396 8.436,15.329C8.406,15.261 8.364,15.201 8.309,15.152C8.096,14.96 7.959,14.691 7.959,14.38C7.959,13.8 8.419,13.34 8.999,13.34L9,13.34Z" style="fill-rule:nonzero;"/>
    </g>
</svg>
