<svg viewBox="0 0 16 16" xmlns="http://www.w3.org/2000/svg" xml:space="preserve" style="fill-rule:evenodd;clip-rule:evenodd;stroke-linejoin:round;stroke-miterlimit:2"><path d="M7.398 1.508a3.495 3.495 0 0 0-1.911 1.021c-.488.503-.774 1.04-.934 1.751-.049.216-.055.359-.066 1.42l-.012 1.18h-.528c-.61 0-.772.033-1 .207a1.11 1.11 0 0 0-.341.5c-.025.081-.033.827-.033 3.146v3.04l.065.16c.077.192.298.424.495.522l.134.065h9.466l.134-.065c.197-.098.418-.33.495-.522l.065-.16v-3.04c0-2.319-.008-3.065-.033-3.146a1.11 1.11 0 0 0-.341-.5c-.228-.174-.39-.207-1-.207h-.528l-.012-1.18c-.011-1.061-.017-1.204-.066-1.42-.16-.71-.446-1.248-.932-1.749A3.462 3.462 0 0 0 8.58 1.507a4.77 4.77 0 0 0-1.182.001m1.198.654a2.85 2.85 0 0 1 2.163 2.012c.097.333.121.683.121 1.753v.953H5.12v-.953c0-1.07.024-1.42.121-1.753a2.865 2.865 0 0 1 2.034-1.985c.275-.07.311-.074.707-.078.255-.003.413.01.614.051m4.017 5.398c.172.089.16-.14.16 3.152v2.994l-.073.082a.376.376 0 0 1-.18.106c-.142.033-8.898.033-9.04 0a.376.376 0 0 1-.18-.106l-.073-.082v-2.988c0-2.061.008-3.005.028-3.041a.375.375 0 0 1 .113-.105c.084-.051.177-.052 4.627-.052 3.977 0 4.551.005 4.618.04m-4.93 1.282a1.3 1.3 0 0 0-.945 1.067c-.044.304.041.619.236.879.058.078.061.109.071.6.009.508.011.522.087.677a.955.955 0 0 0 1.786-.143c.031-.107.042-.262.042-.595 0-.433.002-.454.064-.535a1.2 1.2 0 0 0 .231-.924c-.131-.736-.866-1.216-1.572-1.026m.608.668a.6.6 0 0 1 .323.411c.057.238.018.354-.228.69-.065.089-.066.098-.066.613 0 .595-.019.662-.207.741a.303.303 0 0 1-.372-.122c-.058-.087-.061-.113-.061-.616 0-.518-.001-.527-.066-.616-.169-.23-.225-.33-.241-.429a.636.636 0 0 1 .918-.672"/></svg>