<svg viewBox="0 0 16 16" xmlns="http://www.w3.org/2000/svg"><path d="M7.275.748c-.98.172-1.718.509-2.417 1.1-.695.588-1.196 1.489-1.367 2.461-.049.281-.058.48-.078 1.704l-.025 1.39c-.001.001-.172.01-.381.019-.33.015-.396.026-.517.085-.163.08-.327.249-.422.436L2 8.078v3.301l.001 3.301.076.133c.092.16.325.386.477.464l.111.056h10.697l.11-.056c.155-.079.381-.3.475-.465l.08-.138V8.078l-.069-.135a1.015 1.015 0 0 0-.421-.436c-.114-.056-.191-.07-.464-.084l-.326-.018-.002-1.002c-.001-1.386-.031-1.97-.115-2.31a5.179 5.179 0 0 0-.585-1.413c-.24-.386-.769-.92-1.184-1.196A5.037 5.037 0 0 0 9.307.815C8.737.686 7.803.655 7.275.748m1.672 1.768c.999.278 1.737 1.042 1.924 1.991.043.22.086 1.34.088 2.313l.001.593H5.2l.001-.66c.001-.363.012-.984.025-1.38.028-.83.055-.975.265-1.413.156-.325.313-.537.589-.794a2.953 2.953 0 0 1 1.32-.688c.182-.043.294-.049.76-.04.482.009.575.019.787.078" fill-rule="evenodd"/></svg>