<svg viewBox="0 0 24 24" xmlns="http://www.w3.org/2000/svg"><path d="M11.205.584A4.763 4.763 0 0 0 7.522 3.72c-.198.575-.213.712-.238 2.16L7.26 7.26l-1.6.02c-1.733.023-1.7.018-2.08.26a1.718 1.718 0 0 0-.781 1.167c-.023.14-.038 2.374-.038 5.573 0 5.81-.005 5.675.223 6.064.139.237.435.533.672.672.396.232.049.223 8.344.223s7.948.009 8.344-.223c.237-.139.533-.435.672-.672.228-.389.223-.254.223-6.064 0-3.199-.015-5.433-.038-5.573a1.718 1.718 0 0 0-.781-1.167c-.38-.242-.347-.237-2.08-.26l-1.6-.02-.024-1.38c-.025-1.448-.04-1.585-.238-2.16A4.753 4.753 0 0 0 11.205.584m1.501 1.991a2.788 2.788 0 0 1 1.758 1.445c.268.542.294.73.295 2.09l.001 1.17H9.24l.001-1.17c0-.869.015-1.242.059-1.45.078-.374.367-.947.621-1.231.373-.416.957-.767 1.439-.864.121-.024.256-.053.3-.063.143-.033.835.015 1.046.073M19.27 14.25l-.01 5.01H4.74l-.01-5.01-.01-5.01h14.56l-.01 5.01" fill-rule="evenodd"/></svg>
