<svg viewBox="0 0 16 16" xmlns="http://www.w3.org/2000/svg"><path d="M2.68 4.023c-.279.03-.457.146-.588.382-.068.122-.079.169-.078.342 0 .153.014.225.059.309a.819.819 0 0 0 .323.351l.124.073h2.96l.124-.073a.819.819 0 0 0 .323-.351c.045-.084.059-.156.059-.309.001-.173-.01-.22-.078-.343a.726.726 0 0 0-.341-.327c-.102-.052-.163-.055-1.403-.064-.714-.005-1.381 0-1.484.01m5.067 0c-.333.024-.531.141-.66.39-.086.166-.096.473-.021.632.063.136.275.351.393.4.054.023.866.034 3.026.042l2.951.012.137-.075a.837.837 0 0 0 .353-.365c.083-.158.084-.466.001-.622a.728.728 0 0 0-.326-.34l-.136-.075-2.739-.008a135.94 135.94 0 0 0-2.979.009m-4.72 3.256c-.592.016-.623.024-.809.21-.156.155-.205.279-.204.511.001.233.049.345.231.543.099.107.137.129.275.158.236.048 10.73.047 10.959-.001a.448.448 0 0 0 .257-.13c.245-.239.327-.575.205-.841-.084-.183-.22-.339-.339-.389-.061-.025-.264-.047-.587-.062-.528-.024-9.092-.024-9.988.001m-.163 3.251c-.357.016-.382.021-.506.097a.754.754 0 0 0-.35.697c.016.158.068.27.197.43.127.155.206.19.508.219.342.034 6.232.034 6.574 0 .302-.029.381-.064.508-.219.129-.16.181-.272.197-.43a.755.755 0 0 0-.346-.697l-.144-.095-3.131-.01c-1.722-.005-3.3-.002-3.507.008m8.709 0a.721.721 0 0 0-.372.219c-.271.279-.248.777.048 1.044.217.196.201.194 1.244.194 1.051 0 1.062-.002 1.251-.186.371-.361.326-.893-.101-1.176l-.146-.097-.915-.01c-.504-.005-.957 0-1.009.012" fill-rule="evenodd"/></svg>