<svg xmlns="http://www.w3.org/2000/svg" viewBox="0 0 24 24"><path d="M2.64 5.037c-.973.023-.981.024-1.163.131a1.03 1.03 0 0 0-.287.264c-.28.424-.232.883.136 1.299.109.123.178.16.374.2.349.071 19.65.071 20 0 .204-.042.263-.075.39-.22.224-.255.288-.413.288-.711 0-.297-.064-.455-.288-.713-.131-.15-.18-.178-.39-.215-.259-.045-17.245-.076-19.06-.035m-.48 6.479c-.46.021-.561.037-.681.112-.31.192-.444.442-.446.829-.003.419.19.729.576.927l.188.096H11.7c9.743 0 9.906-.001 10.056-.078.507-.259.745-.756.589-1.228a.98.98 0 0 0-.495-.58l-.19-.094-9.48-.004c-5.214-.002-9.723.007-10.02.02m2.313 6.441-2.826.023-.174.121c-.626.438-.614 1.285.024 1.678l.197.121H21.7l.192-.113c.491-.288.644-.907.339-1.368-.187-.283-.385-.409-.683-.435-.365-.032-13.781-.053-17.075-.027" fill-rule="evenodd"/></svg>