<svg xmlns="http://www.w3.org/2000/svg" viewBox="2.59 5.41 25.24 19.6"><path fill-rule="evenodd" d="M18.765 16.414a3.75 3.75 0 1 1-7.105-2.403 3.75 3.75 0 0 1 7.105 2.403Zm9.027-3.28L23.946 24.5a.75.75 0 0 1-.95.47l-19.893-6.73a.75.75 0 0 1-.47-.95L6.478 5.922a.75.75 0 0 1 .951-.47l19.893 6.73a.75.75 0 0 1 .47.95Zm-2.814 3.635a5.323 5.323 0 0 1-2.253-4.557l-11.66-3.945a5.323 5.323 0 0 1-4.558 2.253l-1.06 3.135A5.323 5.323 0 0 1 7.7 18.213l11.66 3.945a5.323 5.323 0 0 1 4.558-2.254l1.06-3.135Z"></path></svg>
