<svg width="100%" height="100%" viewBox="0 0 48 48" version="1.1" xmlns="http://www.w3.org/2000/svg" xmlns:xlink="http://www.w3.org/1999/xlink" xml:space="preserve" xmlns:serif="http://www.serif.com/" style="fill-rule:evenodd;clip-rule:evenodd;stroke-linejoin:round;stroke-miterlimit:2;">
    <path d="M24,40.5C33.665,40.5 41.5,32.665 41.5,23C41.5,13.335 33.665,5.5 24,5.5C14.335,5.5 6.5,13.335 6.5,23C6.5,32.665 14.335,40.5 24,40.5ZM24,38.5C15.439,38.5 8.5,31.561 8.5,23C8.5,14.439 15.439,7.5 24,7.5C32.561,7.5 39.5,14.439 39.5,23C39.5,31.561 32.561,38.5 24,38.5Z" />
    <path d="M23,22L17.125,22C16.573,22 16.125,22.448 16.125,23C16.125,23.552 16.573,24 17.125,24L23,24L23,29.875C23,30.427 23.448,30.875 24,30.875C24.552,30.875 25,30.427 25,29.875L25,24L30.875,24C31.427,24 31.875,23.552 31.875,23C31.875,22.448 31.427,22 30.875,22L25,22L25,16.125C25,15.573 24.552,15.125 24,15.125C23.448,15.125 23,15.573 23,16.125L23,22Z" />
</svg>
