<svg xmlns="http://www.w3.org/2000/svg" viewBox="0 0 24 24" fill-rule="evenodd"><path d="M4.804 4.566c-.196.057-.522.275-.68.455a1.933 1.933 0 0 0-.24.377l-.104.222-.02 5.92c-.02 5.83-.021 5.922-.1 6.056a1.21 1.21 0 0 1-.234.26c-.138.112-.181.124-.426.124s-.288-.012-.426-.124a1.21 1.21 0 0 1-.234-.26c-.078-.133-.08-.227-.1-4.882l-.02-4.747-.123-.153A.714.714 0 0 0 1.5 7.52a.714.714 0 0 0-.597.294l-.123.153-.01 4.778c-.012 5.275-.022 5.053.24 5.551.172.329.622.779.94.939.525.265-.161.247 9.314.245 9.542-.002 8.819.019 9.333-.268.483-.27.879-.764 1.069-1.332.069-.209.074-.519.085-6.02.008-3.923-.002-5.888-.03-6.073a1.901 1.901 0 0 0-.14-.465 1.699 1.699 0 0 0-.701-.679l-.22-.103-7.86-.007c-5.048-.004-7.909.008-7.996.033m15.426 7.187-.01 5.753-.107.162a.766.766 0 0 1-.283.247l-.175.085H5.131l.054-.23c.044-.188.054-1.291.054-6L5.24 6H20.241l-.011 5.753M8.72 9.805c-.262.104-.451.395-.451.695a.75.75 0 0 0 .464.697c.076.029 1.36.043 4.032.043 4.218 0 4.017.009 4.249-.195.291-.255.291-.835 0-1.09-.232-.204-.029-.195-4.262-.192-2.506.001-3.968.016-4.032.042m0 3c-.262.104-.451.395-.451.695a.75.75 0 0 0 .464.697c.076.029 1.36.043 4.032.043 4.218 0 4.017.009 4.249-.195.291-.255.291-.835 0-1.09-.232-.204-.029-.195-4.262-.192-2.506.001-3.968.016-4.032.042" /></svg>