<svg width="16" height="16" viewBox="0 0 16 16" xmlns="http://www.w3.org/2000/svg">
  <path d="M4.245 2.775c-.385.076-.764.396-.92.777l-.058.141-.014 3.953-.013 3.953-.074.074-.074.074-.508.009c-.578.01-.671-.001-.76-.09l-.064-.064V8.543c0-2.095-.009-3.111-.029-3.226-.042-.242-.143-.386-.334-.48-.136-.066-.186-.076-.397-.076-.211 0-.261.01-.397.076-.196.096-.293.239-.335.492C.247 5.455.24 6.424.247 8.653c.008 2.935.011 3.158.056 3.305a1.813 1.813 0 0 0 1.16 1.206l.23.076h12.614l.23-.076a1.806 1.806 0 0 0 1.161-1.219c.046-.163.049-.381.049-4.172 0-3.834-.002-4.006-.05-4.146a1.42 1.42 0 0 0-.607-.729c-.268-.157-.026-.151-5.61-.148-2.816.001-5.172.013-5.235.025m9.995 5.147c0 2.567-.009 3.671-.029 3.709-.072.134.128.129-4.837.129H4.747V4.267h9.493v3.655M6.72 5.785c-.357.109-.529.448-.452.891.044.253.147.402.339.492l.153.072h2.733c2.979 0 2.848.007 3.031-.154.141-.124.201-.264.216-.513.018-.29-.038-.484-.18-.626-.195-.196-.056-.187-3.078-.185-1.483.002-2.725.012-2.762.023m-.036 2.509c-.316.096-.488.46-.417.882.055.327.23.502.556.557.122.02.682.027 1.791.022l1.613-.008.14-.064c.255-.115.38-.339.38-.683 0-.322-.111-.544-.33-.661-.11-.059-.111-.059-1.884-.064-.975-.002-1.807.006-1.849.019" fill-rule="evenodd" />
</svg>