<svg width="22" height="17" viewBox="0 0 22 17" fill="none" xmlns="http://www.w3.org/2000/svg">
<path fill-rule="evenodd" clip-rule="evenodd" d="M8.44352 0H8.55648C10.8033 0.00751445 12.9552 0.910252 14.5386 2.50962C15.7596 3.74289 16.5655 5.31247 16.8671 7H15.4001C15.3547 6.78988 15.2997 6.58131 15.235 6.37498H11.9063C11.9306 6.58304 11.9513 6.79141 11.9684 7H10.553C10.5349 6.79138 10.513 6.583 10.4873 6.37498H6.51268C6.33852 7.78626 6.33852 9.2137 6.51268 10.625H10.4873C10.513 10.417 10.5349 10.2086 10.553 10H11.9684C11.9513 10.2086 11.9306 10.4169 11.9063 10.625H15.235C15.2997 10.4187 15.3547 10.2101 15.4001 10H16.8671C16.5621 11.7067 15.7414 13.2918 14.4987 14.5304C12.9046 16.1191 10.7468 17.0075 8.5 17C6.25316 17.0075 4.09537 16.1191 2.50132 14.5304C0.907272 12.9417 0.00753659 10.7826 4.71316e-05 8.52831C-0.00744233 6.27398 0.877928 4.10899 2.46139 2.50962C3.24543 1.71769 4.17727 1.08847 5.20369 0.657865C6.2301 0.227263 7.331 0.00372078 8.44352 0ZM11.6769 4.95832H14.6032C13.6621 3.33037 12.1159 2.14332 10.3038 1.6575C10.9721 2.65715 11.4386 3.77857 11.6769 4.95832ZM6.77389 12.0416C7.05648 13.2601 7.6515 14.3833 8.5 15.3C9.3485 14.3833 9.94352 13.2601 10.2261 12.0416H6.77389ZM1.76499 6.37498C1.55057 7.06283 1.44108 7.77927 1.44024 8.49998C1.44108 9.22068 1.55057 9.93712 1.76499 10.625H5.09366C4.92892 9.21313 4.92892 7.78682 5.09366 6.37498H1.76499ZM10.2261 4.95832C9.94352 3.73986 9.3485 2.61665 8.5 1.69999C7.6515 2.61665 7.05648 3.73986 6.77389 4.95832H10.2261ZM5.32311 4.95832C5.56247 3.77831 6.03018 2.65687 6.69976 1.6575C4.885 2.14165 3.33606 3.32889 2.39331 4.95832H5.32311ZM5.32311 12.0416H2.39684C3.33794 13.6696 4.88409 14.8566 6.69623 15.3425C6.02789 14.3428 5.56139 13.2214 5.32311 12.0416ZM11.6769 12.0416C11.4375 13.2216 10.9698 14.3431 10.3002 15.3425C12.115 14.8583 13.6639 13.6711 14.6067 12.0416H11.6769Z" fill="#808080"/>
<path d="M21.9163 8.43544C21.9119 8.32153 21.865 8.18987 21.7869 8.10684L19.2379 5.39838C19.0651 5.24316 18.7339 5.17908 18.5409 5.35855C18.3507 5.53531 18.3564 5.87812 18.5458 6.05558L20.3381 7.95748H11.5609C11.297 7.95748 11.083 8.17147 11.083 8.43544C11.083 8.69941 11.297 8.9134 11.5609 8.9134H20.3381L18.5458 10.8153C18.3827 10.9787 18.3526 11.3336 18.5409 11.5123C18.7291 11.6911 19.0722 11.634 19.2379 11.4725L21.7869 8.76404C21.8741 8.67136 21.9166 8.56261 21.9163 8.43544V8.43544Z" fill="#1F1F1F"/>
</svg>
