<svg viewBox="0 0 22 17" xmlns="http://www.w3.org/2000/svg"><path d="M7.48.078a8.844 8.844 0 0 0-2.255.599C2.284 1.91.24 4.738.035 7.857c-.065.989.005 1.852.221 2.705.811 3.208 3.298 5.584 6.59 6.295.458.099.497.101 1.624.099 1.291-.002 1.52-.027 2.313-.255 1.487-.427 2.743-1.175 3.794-2.259a8.257 8.257 0 0 0 1.826-2.819c.18-.457.486-1.53.447-1.568-.013-.014-.344-.031-.734-.039l-.711-.015-.037.142c-.021.078-.057.22-.08.316l-.043.174h-3.329l.024-.311.024-.312-.619.004c-.691.004-.8.021-.81.126l-.031.282-.023.211H8.548c-1.49 0-1.948-.01-1.996-.045-.103-.077-.148-.984-.123-2.503.019-1.215.045-1.592.114-1.661.015-.014.906-.031 1.982-.038l1.955-.012.023.251c.013.137.037.275.053.305.025.045.152.057.719.065l.689.01-.026-.313-.025-.312h3.331l.022.111c.013.061.049.202.081.312l.058.2h.731c.584 0 .731-.009.731-.049 0-.123-.316-1.186-.465-1.564a8.68 8.68 0 0 0-3.184-3.944 9.867 9.867 0 0 0-.972-.544A8.21 8.21 0 0 0 9.355.075C8.913.03 7.876.032 7.48.078M6.467 2.039c-.484.814-.85 1.733-1.114 2.792l-.039.156H3.891c-.782 0-1.433-.011-1.446-.024-.045-.045.432-.742.797-1.164.501-.581 1.419-1.26 2.24-1.658.497-.241 1.129-.473 1.147-.421.006.016-.067.16-.162.319m4.282-.221c1.555.537 2.965 1.669 3.766 3.023l.086.146h-1.453c-1.131 0-1.457-.011-1.468-.046l-.146-.523a9.47 9.47 0 0 0-.517-1.448c-.146-.323-.252-.526-.564-1.073-.066-.115-.112-.21-.102-.21.01 0 .189.059.398.131m-1.84.4c.29.385.493.711.696 1.116.279.555.588 1.378.588 1.566v.087H8.488c-.969 0-1.705-.014-1.705-.033 0-.094.2-.696.347-1.048a7.631 7.631 0 0 1 1.15-1.937l.201-.249.09.084c.049.047.201.233.338.414m9.713 3.117c-.112.061-.215.259-.215.413 0 .166.136.327 1.456 1.723l.447.474-4.371.025c-2.473.014-4.434.039-4.517.059-.354.082-.449.567-.154.786.104.077.108.077 4.535.095 2.437.01 4.442.03 4.456.044.014.013-.195.259-.464.545-1.328 1.409-1.419 1.526-1.374 1.769.039.206.159.322.357.345.214.024.309-.027.642-.345.575-.549 2.367-2.492 2.458-2.664.064-.123.042-.245-.072-.407-.273-.385-2.571-2.802-2.727-2.867a.554.554 0 0 0-.457.005M5.081 6.481c-.123.578-.123 3.568 0 4.059l.024.093H1.763l-.039-.137a18.053 18.053 0 0 1-.138-.596c-.095-.433-.1-.51-.099-1.393.002-.873.008-.966.1-1.394.054-.252.116-.52.137-.595l.039-.138h3.339l-.021.101m.239 5.651c.012.013.06.171.106.353.194.757.573 1.695.958 2.367.141.246.248.455.237.466-.034.033-.688-.212-1.147-.432a6.867 6.867 0 0 1-2.615-2.155 7.938 7.938 0 0 1-.364-.526l-.083-.148 1.443.026c.794.014 1.453.036 1.465.049m4.831.197a7.902 7.902 0 0 1-.939 2.044c-.226.349-.665.917-.709.917-.043 0-.443-.501-.676-.847-.38-.564-.891-1.702-1.022-2.279l-.023-.101h3.442l-.073.266m4.387-.223c.03.03-.261.467-.559.84a7.408 7.408 0 0 1-2.561 1.998c-.231.106-.975.383-1.027.383-.043 0 .009-.112.238-.511.42-.734.796-1.682.979-2.472l.067-.287 1.419.012c.781.007 1.431.024 1.444.037" fill-rule="evenodd"/></svg>