<svg height="16" viewBox="0 0 16 16" width="16" xmlns="http://www.w3.org/2000/svg"><path d="m7.25 13h1.5c.41421356 0 .75.3357864.75.75s-.33578644.75-.75.75h-1.5c-.41421356 0-.75-.3357864-.75-.75s.33578644-.75.75-.75zm.75-10.75c2.1928915 0 3.984566 1.69265008 4.0911387 3.8225249l.0050151.20091838-.0001538 2.52955672.0682168.01933066c.5451351.18054893.9534712.64023456 1.0590134 1.20055144l.0199813.1420724.0067885.1456455v.736928c0 .5196879-.3981262.9441998-.9085148.9984917l-.1109831.0058671h-8.46100416c-.52456138 0-.9580375-.3906123-1.01350293-.8947033l-.00599501-.1096555v-.736928c0-.63727633.38826626-1.19227323.95262476-1.43717815l.1332659-.05090823.06710934-.01951362.00084615-2.52955672c0-2.08884853 1.61896832-3.80372543 3.68998131-4.00391676l.20179261-.0146066zm0 1.25471698c-1.50482343 0-2.73286758 1.15008082-2.82176958 2.60013007l-.0051535.16859623v2.90675657c0 .45049184-.3713745.81467668-.82514961.81467668-.15986524 0-.2916246.10932527-.32206654.25250707l-.00663.0632164-.00023077.4864h7.961l.0007692-.4864c0-.1521021-.1110377-.2797513-.2618401-.309287l-.0668564-.00643647c-.419388 0-.7676073-.31086159-.8186979-.71250256l-.0064517-.10217412v-2.90675657c0-1.52823469-1.26437173-2.7687263-2.8269231-2.7687263z" fill-rule="evenodd"/></svg>