<svg viewBox="0 0 16 16" xmlns="http://www.w3.org/2000/svg"><path d="M7.253 2.319c-.386.07-.729.187-1.106.375a4.058 4.058 0 0 0-2.191 2.919c-.039.201-.048.482-.061 1.716L3.88 8.805l-.155.063a1.63 1.63 0 0 0-.819.772c-.133.268-.164.488-.154 1.093.009.487.015.548.073.694.087.218.329.46.548.549l.16.064h8.934l.156-.063c.219-.088.467-.336.552-.55.058-.146.064-.208.073-.694.01-.607-.02-.823-.156-1.099a1.629 1.629 0 0 0-.817-.766l-.155-.063-.015-1.476c-.017-1.629-.022-1.688-.198-2.249-.429-1.372-1.582-2.411-3.035-2.737-.365-.082-1.23-.095-1.619-.024m1.301 1.243c1.083.223 1.898.981 2.187 2.038l.07.253.014 1.774.015 1.773.071.135a.868.868 0 0 0 .684.457c.319.032.378.115.378.527v.281H4.027v-.281c0-.412.059-.495.378-.527a.868.868 0 0 0 .684-.457L5.16 9.4l.015-1.773.014-1.774.07-.253A2.824 2.824 0 0 1 7.44 3.56c.251-.051.864-.049 1.114.002m-1.555 9.486a.734.734 0 0 0-.492.698c0 .296.153.541.42.672l.153.075h1.84l.153-.075a.715.715 0 0 0 .415-.72.731.731 0 0 0-.409-.619c-.098-.049-.171-.053-1.052-.057-.681-.004-.97.003-1.028.026" fill-rule="evenodd"/></svg>