<svg xmlns="http://www.w3.org/2000/svg" width="16" height="16" viewBox="0 0 16 16">
    <path fill-rule="evenodd" d="M7.25 13h1.5c.414 0 .75.336.75.75s-.336.75-.75.75h-1.5c-.414 0-.75-.336-.75-.75s.336-.75.75-.75zM8 2.25c2.193 0 3.985 1.693 4.091 3.823l.005.2v2.53l.068.02c.545.18.954.64 1.06 1.2l.02.142.006.146v.737c0 .52-.398.944-.909.998l-.11.006H3.769c-.524 0-.958-.39-1.013-.895l-.006-.11v-.736c0-.638.388-1.193.953-1.438l.133-.05.067-.02v-2.53c0-2.088 1.62-3.803 3.69-4.003l.203-.015L8 2.25zm0 1.255c-1.505 0-2.733 1.15-2.822 2.6l-.005.168V9.18c0 .45-.371.815-.825.815-.16 0-.292.11-.322.252l-.007.064v.486h7.961v-.486c0-.153-.11-.28-.261-.31l-.067-.006c-.42 0-.768-.311-.819-.713l-.006-.102V6.273c0-1.528-1.264-2.768-2.827-2.768z"/>
</svg>