<svg viewBox="0 0 12 12" xmlns="http://www.w3.org/2000/svg"><path d="M5.77 1.012c-.531.051-.924.155-1.315.351A3.518 3.518 0 0 0 2.537 3.99a5.267 5.267 0 0 0 0 1.02c.098.607.324 1.136.69 1.62a4.2 4.2 0 0 0 .639.64.845.845 0 0 1 .114.09.348.348 0 0 1-.105.047 6.953 6.953 0 0 0-.851.427A5.727 5.727 0 0 0 1.231 9.54c-.265.398-.328.556-.287.719.047.186.329.384.546.384.192 0 .253-.055.536-.483a4.47 4.47 0 0 1 1.106-1.192 4.746 4.746 0 0 1 2.208-.921 5.945 5.945 0 0 1 1.32 0 4.74 4.74 0 0 1 2.21.924c.476.356.92.85 1.198 1.332.072.124.203.271.276.309.156.081.422.004.597-.171.207-.207.173-.383-.172-.901a5.727 5.727 0 0 0-1.793-1.706 6.953 6.953 0 0 0-.851-.427.348.348 0 0 1-.105-.047.845.845 0 0 1 .114-.09 4.2 4.2 0 0 0 .639-.64c.227-.3.391-.6.514-.94.151-.421.202-.718.202-1.19s-.051-.769-.202-1.19a3.494 3.494 0 0 0-2.736-2.261 5.154 5.154 0 0 0-.781-.037m.506 1.009c.93.102 1.724.718 2.064 1.603a2.585 2.585 0 0 1-.009 1.773A2.535 2.535 0 0 1 6.8 6.866a2.145 2.145 0 0 1-.8.124c-.335 0-.522-.029-.8-.124A2.522 2.522 0 0 1 3.58 5.12a2.633 2.633 0 0 1 .08-1.496 2.5 2.5 0 0 1 2.616-1.603" fill-rule="evenodd" /></svg>