<svg xmlns="http://www.w3.org/2000/svg" fill-rule="evenodd" stroke-linejoin="round" stroke-miterlimit="2" clip-rule="evenodd" viewBox="0 0 21 24"><path d="M9.573 1.331c-.298.039-.774.166-.942.25-.409.205-.871.727-1.073 1.213-.315.755-.353 1.865-.137 4.006.159 1.573.077 1.821-1.056 3.195-.222.269-.479.591-.57.716a3.746 3.746 0 0 0-.545 1.154c-.242.972-.399 1.376-.891 2.303-.201.379-.406.797-.456.928-.127.339-.178.719-.124.913.036.127.034.167-.008.236a3.047 3.047 0 0 0-.152.357c-.14.381-.197.408-.839.408-.423 0-.493.008-.605.074-.275.16-.457.502-.459.863 0 .101.032.416.072.7.126.881.102 1.04-.251 1.622-.12.199-.154.292-.165.451a.667.667 0 0 0 .026.276c.119.223.633.429 1.402.562.656.113 1.399.316 2.441.664.515.173 1.058.338 1.206.368.645.131 1.114.013 1.531-.383.589-.56 2.003-.685 4.519-.401l.37.042.093.146c.273.433.701.681 1.302.756.364.045.603.01.909-.136.252-.119.442-.266 1.272-.986.796-.69 1.12-.911 1.881-1.282.731-.356.896-.492.964-.799.084-.376-.087-.643-.573-.894-.401-.206-.745-.467-.848-.643a1.22 1.22 0 0 1-.123-.425c-.087-.64-.269-1.065-.458-1.065-.079 0-.08-.009-.017-.23.149-.524.192-1.467.097-2.129-.175-1.221-.865-2.75-1.675-3.713-.209-.249-.667-.898-1.038-1.47-.262-.405-.555-.986-.646-1.282-.087-.282-.238-1.286-.285-1.903-.173-2.262-.472-3.144-1.288-3.8-.591-.476-1.324-.703-2.236-.694a7.22 7.22 0 0 0-.625.032m1.845 3.204c.22.075.385.244.46.474.095.289.111.754.041 1.204-.09.586-.071.545-.223.469a1.119 1.119 0 0 0-.225-.084c-.125-.025-.12-.058.017-.125.342-.169.362-.892.035-1.231-.237-.246-.504-.258-.74-.034-.173.165-.225.352-.206.735.013.239.007.286-.034.271a.258.258 0 0 0-.077-.019c-.05 0-.168-.329-.211-.592-.069-.413.006-.746.206-.927.192-.174.659-.243.957-.141m-2.743.152c.144.074.3.275.374.482.094.262.048.955-.063.956-.014 0-.026-.072-.026-.161a1.84 1.84 0 0 0-.061-.388c-.071-.267-.252-.466-.424-.466-.143 0-.319.133-.417.315-.073.138-.082.193-.07.438.017.324.091.509.244.606l.105.066-.105.075-.106.075-.096-.114a1.623 1.623 0 0 1-.185-.306c-.164-.356-.096-1.094.13-1.4.174-.237.447-.306.7-.178m-.14.613c.112.058.174.177.204.392.018.136.013.153-.049.153-.055 0-.078-.039-.112-.192-.04-.18-.05-.193-.146-.193-.111 0-.136-.069-.058-.158.054-.062.046-.062.161-.002m2.932.096c.091.1.143.449.067.449-.026 0-.065-.051-.087-.114a.783.783 0 0 0-.186-.248l-.147-.134.086-.047c.096-.051.154-.031.267.094m-1.388.801c.144.04.427.14.63.223.203.082.455.178.561.212.273.089.64.279.786.406.163.143.166.278.01.507-.089.132-.245.258-.726.585-1.21.821-1.754.98-2.372.691-.253-.119-.75-.57-.923-.839-.12-.187-.129-.251-.021-.152.145.133.426.284.709.38.55.187 1.084.112 1.82-.256.241-.121.839-.479.921-.552.006-.006-.01-.047-.035-.092a3.59 3.59 0 0 1-.051-.093 3.296 3.296 0 0 0-.297.2c-.325.234-.934.56-1.203.645-.3.095-.613.13-.839.093-.384-.062-.962-.397-1.131-.655-.068-.105-.074-.139-.043-.253.087-.326.747-.831 1.4-1.072.184-.068.512-.059.804.022m-.891.111a.338.338 0 0 0-.131.076c-.045.068-.029.197.028.219.068.026.295-.185.295-.275 0-.071-.039-.075-.192-.02m.472.001c0 .025.041.104.09.177.065.097.111.13.166.122.114-.016.112-.121-.006-.238-.106-.107-.25-.141-.25-.061m2.448 2.161c.175.42.678 1.452.742 1.521.016.018.03.102.03.185 0 .427.211.946.66 1.627.136.206.294.485.352.62.11.259.251.793.324 1.227.051.302.063 2.032.017 2.456l-.028.268-.111-.064c-.111-.064-.229-.085-.424-.075-.16.008-.379.261-.479.553-.068.201-.082.31-.081.677 0 .241.012.579.028.753l.027.315-.299.355c-.918 1.088-2.084 1.599-3.521 1.542-.706-.028-1.131-.157-1.44-.436-.163-.148-.408-.597-.337-.62l.169-.052c.07-.021.218-.129.34-.247.238-.232.289-.364.219-.575-.113-.343-.879-1.118-1.541-1.559-.852-.568-1.4-1.063-1.557-1.408-.258-.566-.175-1.247.285-2.338.241-.572.566-1.223.677-1.358.068-.082.066-.082.241.018.008.005-.068.127-.169.273-.346.5-.759 1.501-.892 2.159-.063.308-.072.789-.019.979.042.149.232.438.332.505.068.045.07.035.072-.469.002-.434.017-.58.1-.934.143-.618.258-.911.79-2.015.385-.799.493-1.057.539-1.286.078-.386.237-.79.578-1.471.184-.367.308-.665.348-.835l.063-.265.137.116c.076.064.208.183.295.265.191.181.34.247.664.293.68.096 1.432-.209 2.364-.959.154-.124.289-.215.301-.202.012.013.104.22.204.461m2.408 2.974c.33.15.625.479.833.929.189.408.244.722.241 1.382-.003.592-.051.96-.187 1.452a1.28 1.28 0 0 0-.057.256c.006.006.166.026.356.045.59.059.933.19 1.193.458.156.161.255.355.255.5 0 .113-.081.116-.132.005-.075-.164-.294-.439-.404-.507-.21-.129-.63-.246-.975-.27-.5-.035-.63.017-1.018.412-.217.22-.313.297-.327.26-.046-.121.373-.636.631-.775.115-.061.137-.099.228-.384.186-.581.23-.86.228-1.469-.001-.47-.014-.608-.081-.855-.112-.415-.247-.69-.446-.911-.148-.163-.494-.424-.617-.466-.061-.02-.002-.131.068-.13.034 0 .13.031.211.068m-9.619 4.755c.279.136.611.488.865.92l.4.678c.102.173.366.559.588.857.221.299.487.673.59.831.233.357.547 1.008.621 1.288.08.301.106.738.055.924-.056.208-.358.502-.664.647-.208.098-.261.108-.562.107-.313-.001-.366-.013-.892-.198-1.797-.631-2.107-.721-3.037-.883-.749-.13-1.11-.265-1.24-.462-.083-.127-.038-.303.196-.779.276-.562.317-.784.233-1.274-.135-.788-.14-.848-.095-1.049.024-.105.085-.257.137-.337.121-.186.223-.215.866-.247.58-.029.729-.077.806-.262a.685.685 0 0 0 .051-.205c0-.143.171-.437.303-.518.167-.104.397-.173.501-.15.047.01.172.06.278.112m9.177.331a.397.397 0 0 1 .165.236c.101.341.195.568.29.7.261.359.843.515 1.31.351.24-.084.397-.206.839-.653.477-.484.568-.526.657-.303.029.072.086.305.127.517.098.505.285.899.519 1.093.092.076.296.205.454.287.487.251.669.524.571.852-.058.194-.222.348-.464.439a7.82 7.82 0 0 0-1.515.827c-.134.101-.534.438-.888.749-.353.311-.656.565-.673.565a.932.932 0 0 0-.202.123c-.185.133-.608.262-.86.262-.182 0-.503-.083-.689-.177a1.589 1.589 0 0 1-.539-.504l-.083-.143.068-.382c.038-.209.069-.469.069-.576 0-.108.032-.382.07-.609.061-.358.07-.578.071-1.645 0-.677.016-1.339.035-1.469.077-.537.347-.755.668-.54"/></svg>