<svg xmlns="http://www.w3.org/2000/svg" fill-rule="evenodd" stroke-linejoin="round" stroke-miterlimit="2" clip-rule="evenodd" viewBox="0 0 24 24"><path d="M8.103 1.48c-.114.053-.183.063-.253.036-.157-.06-.494-.04-.764.045a1.787 1.787 0 0 1-.411.079.818.818 0 0 0-.307.074A1.295 1.295 0 0 1 6 1.813c-.13.015-.334.082-.5.165-.154.077-.361.16-.46.185-.366.091-.414.195-.424.913-.006.487.004.6.068.74.041.09.075.223.075.296.001.073.054.271.118.44.065.169.129.373.141.454a.77.77 0 0 0 .123.28c.054.073.126.197.159.274.135.309.203.412.39.592.108.104.222.237.253.296.086.164.33.383.479.433.099.032.164.098.255.26.067.119.168.246.223.282.055.037.1.082.1.101 0 .019-.076.083-.17.141-.804.504-1.078.743-1.315 1.154-.17.294-.299.739-.374 1.282-.077.566-.16.76-.391.924-.395.278-.829.934-1.027 1.555-.358 1.117-.174 2.255.509 3.146.109.141.227.314.263.383.117.228.347.9.489 1.43.151.563.388 1.105.658 1.506.361.536 1.013 1.087 1.587 1.341.125.055.372.205.549.332.427.308.641.432 1.132.652.227.102.549.289.724.42.658.496 1.196.713 1.916.772 1.154.095 1.956-.121 2.782-.749.158-.121.558-.351.888-.512.33-.161.753-.404.94-.54.187-.136.502-.325.7-.421.639-.308 1.295-.918 1.661-1.543.202-.345.373-.782.496-1.265.055-.216.182-.626.283-.911.153-.431.226-.573.428-.84.491-.648.716-1.291.721-2.061a3.605 3.605 0 0 0-.53-1.926c-.183-.309-.504-.674-.699-.794-.193-.119-.286-.35-.361-.895-.16-1.168-.512-1.722-1.466-2.305l-.426-.259.156-.144c.085-.079.183-.21.218-.292.046-.112.104-.167.233-.222.185-.08.396-.27.484-.437a1.71 1.71 0 0 1 .252-.294c.187-.18.255-.283.39-.592.033-.077.105-.201.159-.274a.77.77 0 0 0 .123-.28c.012-.081.076-.285.141-.454.064-.169.117-.367.118-.44 0-.073.034-.206.075-.296.064-.14.074-.253.068-.74-.01-.746-.049-.819-.502-.936a1.26 1.26 0 0 1-.355-.143c-.114-.089-.45-.197-.616-.197a.746.746 0 0 1-.271-.08.828.828 0 0 0-.315-.08c-.087 0-.272-.036-.411-.079-.257-.081-.627-.102-.774-.044-.051.02-.155.003-.287-.047-.207-.079-.208-.079-.467.002a1.032 1.032 0 0 1-.418.06c-.121-.016-.214.004-.382.083a1.066 1.066 0 0 1-.334.105c-.204.001-.389.076-.586.239-.107.089-.233.161-.28.161-.113.001-.471.169-.65.305-.17.131-.446.508-.6.825-.062.127-.123.23-.136.23-.013 0-.065-.086-.116-.19-.153-.317-.439-.719-.601-.848-.184-.145-.549-.321-.669-.322-.048 0-.165-.066-.26-.146-.213-.178-.385-.254-.579-.254-.081 0-.247-.047-.368-.104-.166-.079-.26-.099-.378-.084a.994.994 0 0 1-.399-.055c-.287-.092-.324-.092-.527.003m.23 1.26c.266.114.316.124.336.071.013-.034.003-.095-.023-.136-.077-.123.034-.093.309.085.136.088.273.16.305.16.066 0 .154-.144.121-.198-.012-.02-.007-.046.012-.058.019-.011.137.07.262.181.255.228.372.24.331.034-.013-.065-.018-.119-.011-.119.008 0 .127.135.265.3.138.165.265.3.282.3.018 0 .044-.058.06-.129l.028-.129.174.191c.233.258.521.727.621 1.013.051.144.083.338.084.504.002.23-.015.298-.113.456a1.46 1.46 0 0 1-.262.304l-.147.118-.233-.159c-.489-.332-1.746-.97-1.802-.914-.01.009.132.13.315.268.485.365 1.313 1.198 1.313 1.32-.001.133-.208.483-.363.613-.312.263-.7.374-1.437.411l-.5.026.12-.103c.066-.057.111-.112.1-.123a1.966 1.966 0 0 0-.34-.064 3.52 3.52 0 0 1-.453-.088c-.13-.042-.131-.045-.05-.101.046-.032.083-.073.083-.091 0-.018-.134-.081-.298-.141-.299-.109-.464-.222-.324-.222.133 0 .034-.096-.32-.309-.452-.272-.47-.291-.286-.291.094 0 .148-.019.148-.051 0-.028-.109-.159-.242-.29l-.241-.239.129-.02.129-.02-.248-.278c-.286-.323-.306-.387-.112-.355.191.031.22-.047.073-.2-.135-.143-.328-.42-.328-.473 0-.019.072-.034.16-.034.088 0 .16-.019.16-.042 0-.054-.149-.348-.248-.488l-.077-.11h.376c.206 0 .388-.012.402-.027.015-.014-.002-.058-.037-.097-.144-.159.088-.202.524-.097.132.032.262.059.29.06.07.002.062-.079-.016-.166-.088-.096-.037-.095.337.01.163.046.307.073.32.06.013-.013-.016-.077-.064-.142a.61.61 0 0 1-.087-.142c0-.035.135.009.493.161m7.067-.142c0 .02-.018.048-.04.062-.058.036-.049.18.012.18.028 0 .204-.063.39-.139.422-.174.475-.177.342-.018-.097.115-.132.197-.083.197.022 0 .532-.14.669-.183.081-.026.081-.024-.007.088-.08.101-.083.117-.024.129.037.007.18-.006.317-.03.459-.08.627-.042.488.112-.035.039-.052.083-.037.097.014.015.196.027.402.027h.376l-.077.11c-.099.14-.248.434-.248.488 0 .023.06.042.133.042.074 0 .145.011.159.025.041.041-.048.182-.242.382-.218.226-.214.338.01.296.201-.038.181.029-.108.357l-.246.28.13.02.13.02-.245.233c-.135.128-.239.254-.23.28.008.026.073.053.144.06l.129.012-.097.077c-.053.042-.234.15-.402.24-.28.152-.392.278-.245.278.15 0 .032.086-.28.205-.187.071-.34.143-.34.16 0 .017.037.057.083.089.109.076.065.097-.309.149-.463.065-.494.073-.494.135 0 .032.041.087.09.124.085.062.061.065-.43.045-.982-.038-1.566-.351-1.775-.95-.045-.129-.043-.131.394-.574.241-.244.609-.579.817-.744.209-.164.364-.305.345-.311-.099-.036-1.24.538-1.707.858-.284.194-.264.195-.508-.024-.297-.267-.359-.714-.169-1.219.113-.3.464-.854.656-1.037l.119-.113.027.123c.015.068.043.124.062.124.019 0 .139-.127.267-.283l.232-.283.041.144.041.143.257-.217c.142-.12.272-.209.29-.198.018.011.022.036.01.056-.032.052.054.198.116.198.028 0 .176-.081.328-.179.287-.186.337-.207.337-.143m-2.792 5.147c.331.098.806.362 1.02.568.257.247.349.444.317.678-.051.367-.298.588-.897.8-.293.104-.344.109-1.048.109-.704 0-.755-.005-1.048-.109-.599-.212-.846-.433-.897-.8-.032-.233.059-.429.315-.68.233-.227.818-.528 1.19-.611a2.322 2.322 0 0 1 1.048.045m-3.165.358c.08.098-.044.289-.494.761-.863.903-2.192 1.92-2.614 2-.226.042-.269-.028-.238-.383.073-.815.248-1.228.722-1.703.246-.247.393-.357.63-.471.444-.213.683-.26 1.356-.264.487-.002.594.008.638.06m6.721.047c.474.172.694.306 1.005.613.407.402.603.793.691 1.377.1.673.073.774-.195.724-.281-.053-1.068-.591-1.834-1.254-.488-.423-1.146-1.109-1.251-1.306l-.08-.15.08-.06c.126-.095 1.279-.054 1.584.056m-6.285 2.173c.82.133 1.439.82 1.508 1.674.028.337-.04.811-.151 1.064-.31.707-.911 1.291-1.547 1.503-.718.239-1.424.129-1.913-.297-.229-.199-.442-.622-.5-.99-.208-1.335.689-2.684 1.951-2.935.348-.069.344-.069.652-.019m5.141.085c.38.125.657.302.981.629.904.91 1.018 2.428.241 3.205-.36.359-.845.504-1.441.431-.582-.072-1.063-.331-1.512-.812-.483-.517-.667-.977-.664-1.661.002-.327.022-.477.092-.678.338-.975 1.304-1.443 2.303-1.114m3.5 1.299c.721.486 1.045 1.229.93 2.135a1.906 1.906 0 0 1-.208.699c-.178.368-.422.659-.553.659-.356 0-.742-.948-.853-2.097-.086-.883.089-1.518.425-1.54.022-.002.138.063.259.144m-12.582-.043c.16.16.197.308.215.848.034 1.09-.216 2.149-.605 2.558-.169.177-.284.169-.469-.031-.308-.333-.503-.828-.544-1.378-.058-.771.267-1.487.858-1.889.269-.183.437-.217.545-.108m6.684 3.157c.658.167 1.188.579 1.448 1.127.125.263.145.347.161.686.015.322.003.428-.068.639a2.15 2.15 0 0 1-1.355 1.335c-.229.078-.348.092-.808.092-.622 0-.901-.072-1.308-.336-.729-.475-1.058-1.236-.888-2.052.143-.684.797-1.308 1.565-1.494.297-.072.964-.071 1.253.003m-5.51.852c.272.104.64.364.958.678.687.677 1.057 1.426 1.065 2.149.005.497-.111.694-.47.801-.524.155-1.209-.02-1.693-.434-.483-.413-.783-.852-.895-1.307-.156-.636.027-1.684.331-1.897.122-.086.465-.08.704.01m10.446-.014c.308.159.524 1.135.39 1.761-.118.548-.206.714-.595 1.121-.438.458-.634.592-1.064.726-.269.084-.386.1-.62.085-.382-.025-.564-.115-.7-.347-.097-.164-.109-.223-.105-.525.009-.794.541-1.73 1.356-2.386.432-.348.731-.494 1.008-.494.119 0 .267.027.33.059M13.2 19.684c.304.047.621.209.714.367.062.105.061.119-.034.3-.118.223-.539.656-.816.839-.366.241-.597.307-1.064.307-.467 0-.699-.067-1.064-.308-.46-.303-.93-.887-.879-1.091.03-.118.323-.319.562-.384.388-.105 1.964-.124 2.581-.03"/></svg>