<svg xmlns="http://www.w3.org/2000/svg" fill-rule="evenodd" stroke-linejoin="round" stroke-miterlimit="2" clip-rule="evenodd" viewBox="0 0 21 24"><path d="M10.014 6.531c0 .073-.071.073-.071.073h-.069c-.07 0-.07-.073-.141-.143 0 0-.069-.071-.069-.142 0-.072 0-.072.069-.072l.14.072c.07.07.14.142.14.212zm-1.26-.71c0-.357-.14-.569-.35-.569 0 0 0 .07-.07.07v.142h.21c0 .143.07.214.07.357h.14zm2.448-.357c.14 0 .21.143.281.357h.14c-.07-.072-.07-.143-.07-.214 0-.072 0-.143-.07-.213-.07-.071-.14-.143-.21-.143 0 0-.07.072-.14.072 0 .07.07.07.07.141zM9.104 6.602c-.07 0-.07 0-.07-.07 0-.071 0-.142.068-.213.142 0 .212-.072.212-.072.07 0 .07.072.07.072 0 .07-.07.142-.21.285h-.07v-.002zm-.77-.07c-.28-.142-.35-.356-.35-.711 0-.214 0-.357.14-.5a.386.386 0 01.35-.212c.14 0 .21.071.35.214.07.212.139.426.139.64v.142h.071v-.072c.068 0 .068-.141.068-.426 0-.213 0-.427-.139-.64-.14-.214-.28-.356-.56-.356a.528.528 0 00-.49.355c-.138.285-.167.5-.167.855 0 .284.098.569.378.853.07-.07.14-.07.21-.143v.002zm8.747 10.031c.07 0 .07-.027.07-.091 0-.157-.07-.343-.28-.548-.21-.214-.56-.35-.98-.407-.07-.007-.14-.007-.14-.007-.07-.014-.07-.014-.14-.014-.07-.006-.21-.02-.28-.036a5.73 5.73 0 00.28-1.756c0-.712-.14-1.21-.42-1.637-.28-.427-.56-.64-.91-.712-.069.072-.069.072-.069.143.35.142.699.427.91.853.21.5.279.926.279 1.424 0 .398-.068.989-.35 1.742-.28.114-.559.378-.77.791 0 .064 0 .099.07.099 0 0 .07-.064.141-.185.14-.12.209-.241.35-.362.21-.122.349-.186.559-.186.35 0 .7.05.91.15.28.091.42.191.49.305.07.107.139.207.21.3 0 .091.07.134.07.134zM10.643 6.247c-.07-.07-.07-.214-.07-.355 0-.285 0-.428.14-.641.14-.142.28-.214.42-.214.21 0 .35.143.49.286.069.212.14.355.14.569 0 .355-.14.569-.42.64 0 0 .07.072.14.072.14 0 .209.069.35.141.07-.426.14-.712.14-1.067 0-.427-.07-.712-.21-.925a.893.893 0 00-.7-.285c-.227.006-.446.08-.63.214-.14.214-.21.355-.21.569 0 .356.07.64.21.925.07 0 .14.071.21.071zm.84 1.138c-.91.64-1.61.925-2.17.925-.49 0-.979-.212-1.4-.569.07.143.141.285.21.357l.421.426c.28.284.63.427.98.427.49 0 1.05-.284 1.75-.783l.628-.427c.14-.141.28-.284.28-.498 0-.07 0-.141-.068-.141-.071-.143-.422-.357-1.12-.57-.631-.285-1.12-.427-1.4-.427-.21 0-.56.142-1.051.426-.42.285-.699.57-.699.855 0 0 .07.07.14.214.42.355.84.568 1.26.568.56 0 1.26-.284 2.17-.996v.142c.068 0 .068.072.068.072l.001-.001zm1.609 14.373c.28.534.77.804 1.33.804.14 0 .279-.022.42-.065a.892.892 0 00.349-.134c.07-.05.14-.1.21-.157.14-.05.14-.086.21-.12l1.19-1.047c.28-.234.585-.436.91-.598.28-.17.56-.284.699-.348.18-.047.348-.135.49-.257a.756.756 0 00.14-.412c0-.207-.14-.363-.28-.477a1.416 1.416 0 00-.42-.242c-.14-.05-.28-.163-.49-.356a1.935 1.935 0 01-.35-.776l-.07-.412c-.068-.193-.068-.334-.14-.412 0-.022 0-.029-.069-.029a.39.39 0 00-.281.185c-.145.127-.284.26-.419.398-.07.143-.28.27-.42.391-.17.107-.362.17-.56.186-.56 0-.84-.157-1.05-.462-.14-.229-.21-.491-.279-.79-.14-.122-.21-.185-.35-.185-.35 0-.49.37-.49 1.117v2.212c0 .064-.07.207-.07.428-.07.22-.07.471-.07.753l-.14.79v.015zm-10.147-.38c.651.098 1.4.305 2.246.621.846.312 1.365.476 1.555.476.49 0 .895-.22 1.23-.647.071-.138.071-.3.071-.485 0-.673-.4-1.523-1.196-2.556l-.476-.646a7.057 7.057 0 01-.372-.62 6.428 6.428 0 00-.384-.64 1.897 1.897 0 00-.428-.491 1.432 1.432 0 00-.622-.327c-.294.056-.496.156-.595.29a.879.879 0 00-.168.442c-.02.15-.062.25-.133.3a1.29 1.29 0 01-.35.113c-.035 0-.098 0-.188.007h-.19c-.37 0-.622.042-.755.114a1.056 1.056 0 00-.267.69c0 .113.028.305.085.577.056.263.083.476.083.626 0 .29-.083.582-.259.874-.173.306-.265.534-.265.696.07.278.532.472 1.378.584v.003zm2.331-6.468c0-.491.126-1.033.385-1.672.25-.641.505-1.068.749-1.353-.014-.07-.05-.07-.105-.07l-.071-.071c-.202.213-.448.711-.741 1.422-.295.64-.448 1.232-.448 1.665 0 .32.077.598.217.84.153.235.524.576 1.113 1.01l.742.491c.79.697 1.21 1.18 1.21 1.465 0 .15-.07.299-.28.462a.662.662 0 01-.49.257c-.014 0-.021.014-.021.05 0 .007.07.15.218.427.293.405.922.604 1.763.604 1.54 0 2.729-.64 3.638-1.92 0-.357 0-.576-.07-.669v-.264c0-.462.07-.811.21-1.039.14-.227.28-.333.49-.333.14 0 .28.049.42.156.07-.548.07-1.024.07-1.451 0-.648 0-1.181-.14-1.68a3.812 3.812 0 00-.35-1.067l-.42-.64c-.14-.214-.21-.427-.35-.64-.07-.285-.14-.499-.14-.854-.21-.355-.35-.712-.56-1.068-.14-.356-.28-.71-.42-.995l-.629.498c-.7.498-1.26.712-1.749.712-.42 0-.771-.073-.98-.357l-.42-.355c0 .214-.07.498-.21.782l-.44.854c-.197.5-.301.782-.323.996-.027.143-.049.284-.063.284l-.525 1.068c-.566 1.067-.853 2.056-.853 2.874 0 .163.014.334.041.505a1.059 1.059 0 01-.468-.924zm5.01 6.73c-.91 0-1.61.125-2.1.374v-.022c-.349.427-.74.648-1.286.648-.344 0-.883-.136-1.61-.406-.64-.23-1.291-.424-1.952-.583a5.253 5.253 0 00-.386-.072c-.18-.03-.36-.063-.539-.097a4.157 4.157 0 01-.496-.146 1.205 1.205 0 01-.42-.22.401.401 0 01-.144-.303c0-.114.023-.236.071-.365.045-.078.094-.157.143-.228.047-.069.086-.142.119-.22a1.07 1.07 0 00.098-.199 1.116 1.116 0 00.097-.42c0-.07-.027-.284-.082-.662a6.447 6.447 0 01-.084-.704c0-.313.068-.562.223-.74.153-.177.3-.27.455-.27h.805c.063 0 .16-.037.307-.121.049-.114.091-.207.12-.291.034-.087.048-.15.063-.18l.04-.12c.033-.058.072-.113.114-.164a.437.437 0 01-.085-.277c0-.078 0-.149.014-.192 0-.256.119-.619.371-1.096l.246-.448c.202-.384.356-.669.468-.953.158-.416.286-.845.385-1.28.111-.5.378-.997.798-1.495l.524-.64c.364-.427.602-.783.735-1.068.133-.284.204-.64.204-.925 0-.141-.036-.569-.112-1.28a21.246 21.246 0 01-.105-2.064c0-.498.04-.853.132-1.21.091-.354.252-.71.49-.995.21-.285.49-.57.91-.71a4.553 4.553 0 011.47-.216c.208 0 .418 0 .629.071.21 0 .49.07.84.214.28.141.56.284.77.498.28.213.49.569.698.925.14.426.281.853.351 1.422.07.357.07.712.14 1.21 0 .427.07.712.07.925.07.213.07.498.14.853.07.285.14.57.28.783.14.284.28.569.49.853.21.357.489.712.77 1.14.629.71 1.119 1.493 1.399 2.276.35.712.559 1.637.559 2.625 0 .49-.068.968-.209 1.43.14 0 .209.057.28.157.07.1.14.313.21.648l.068.527c.071.155.14.305.351.433.14.127.28.236.491.319.14.072.35.172.489.3.14.142.21.29.21.448 0 .242-.07.42-.21.548-.134.144-.303.25-.49.305-.14.072-.419.214-.84.415a7.739 7.739 0 00-1.05.768l-.699.605c-.28.278-.56.477-.77.598a1.52 1.52 0 01-.769.193l-.491-.057c-.56-.15-.909-.434-1.119-.868-1.119-.14-2.029-.207-2.588-.207"/></svg>