<svg xmlns="http://www.w3.org/2000/svg" fill-rule="evenodd" stroke-linejoin="round" stroke-miterlimit="2" clip-rule="evenodd" viewBox="0 0 24 24"><path d="M15.52 1.059c-1.038.208-2.424 1.137-3.08 2.067-.364.516-.582 1.008-.792 1.782-.104.386-.115.478-.098.861.014.31.035.442.078.477.038.032.21.048.505.047.393-.002.493-.018.825-.13.859-.289 1.31-.589 1.934-1.289.442-.495.564-.667.778-1.094.339-.678.473-1.207.531-2.089.034-.53.032-.554-.047-.621-.096-.082-.265-.084-.634-.011m-.678 5.281c-.765.181-1.097.287-2.593.826l-.332.119-.308-.078c-.17-.043-.633-.198-1.029-.345-.884-.328-1.65-.535-2.1-.567-.286-.021-.444-.005-1 .104-.951.185-1.333.332-2.025.782-1.056.685-1.884 1.869-2.389 3.415-.225.689-.302 1.141-.332 1.944-.04 1.057.066 1.929.406 3.332.178.738.275 1.043.562 1.76.507 1.267.69 1.609 1.407 2.62.635.897 1.041 1.405 1.418 1.773.419.41.732.627 1.184.821.295.127.331.133.809.133.583 0 .796-.051 1.677-.399 1.453-.574 2.317-.587 3.73-.056 1.138.428 1.785.538 2.353.401 1.122-.271 2.354-1.547 3.544-3.673.388-.694.852-1.808.87-2.089.007-.114-.148-.239-.672-.54-.81-.466-1.51-1.297-1.892-2.25-.227-.563-.266-.816-.267-1.733-.002-.784.003-.836.109-1.18.198-.644.387-1.086.585-1.366a5.83 5.83 0 0 1 1.194-1.19c.181-.127.346-.261.365-.298.052-.1-.001-.196-.305-.546a5.374 5.374 0 0 0-1.751-1.318c-.727-.347-1.211-.456-2.14-.483-.603-.017-.696-.011-1.078.081"/></svg>