<svg xmlns="http://www.w3.org/2000/svg" fill-rule="evenodd" stroke-linejoin="round" stroke-miterlimit="2" clip-rule="evenodd" viewBox="0 0 24 24"><path d="M15.718 1.024c-1.026.12-2.477 1.023-3.198 1.99-.415.554-.66 1.085-.87 1.88l-.108.398.007.424c.004.23.015.448.03.482.031.084.094.096.539.1.367 0 .39 0 .705-.095.84-.243 1.458-.613 1.897-1.133a7.31 7.31 0 01.347-.385c.278-.272.633-.877.83-1.402.196-.526.283-1.015.31-1.71l.015-.446-.066-.066c-.074-.072-.113-.075-.44-.037h.002z"/><path d="M15.484 6.231c-.499.025-1.842.398-2.807.777-.585.23-.585.23-.7.248-.202.033-.695-.11-1.544-.453-.52-.2-1.054-.356-1.6-.471-.287-.063-.763-.07-.97-.013a9.894 9.894 0 01-.582.117 3.84 3.84 0 00-1.179.367c-1.156.564-1.945 1.375-2.57 2.645a8.628 8.628 0 00-.632 1.688c-.225.864-.23 2.522-.01 3.528.025.122.047.268.047.326 0 .121.024.213.236 1.047.195.77.175.707.55 1.65.527 1.322.693 1.614 1.77 3.099.44.606.664.883.99 1.215.339.345.614.548 1.002.738.439.215.629.264 1.033.261.517 0 .931-.105 1.723-.438.498-.21.531-.22 1.438-.406.272-.058.525-.053.907.01l.434.066c.213.031.43.1.99.325.675.272 1.151.393 1.65.424.726.044 1.426-.278 2.174-.996.764-.739 1.478-1.75 2.197-3.112.194-.367.503-1.122.557-1.348.02-.086.05-.17.088-.25a.347.347 0 00.047-.135c0-.091-.183-.236-.508-.399a4.492 4.492 0 01-1.618-1.461c-.291-.436-.583-1.088-.657-1.473-.123-.635-.157-1.33-.088-1.815.017-.126.08-.39.141-.59.26-.876.439-1.226.844-1.659.124-.128.225-.246.225-.257 0-.043.617-.56.768-.643a1.43 1.43 0 00.234-.165c.139-.137.118-.189-.23-.597a5.32 5.32 0 00-1.743-1.331 4.325 4.325 0 00-1.143-.398 6.45 6.45 0 00-1.464-.12z"/></svg>