<svg width="100%" height="100%" viewBox="0 0 24 24" version="1.1" xmlns="http://www.w3.org/2000/svg" xmlns:xlink="http://www.w3.org/1999/xlink" xml:space="preserve" xmlns:serif="http://www.serif.com/" style="fill-rule:evenodd;clip-rule:evenodd;stroke-linejoin:round;stroke-miterlimit:2;">
    <path d="M22,16.624L22,7.376C22,7.065 21.918,6.76 21.759,6.491C21.602,6.222 21.377,6 21.103,5.848C21.107,5.85 12.857,1.21 12.857,1.21C12.596,1.063 12.301,0.985 12,0.985C11.7,0.985 11.407,1.062 11.145,1.209L2.887,5.853C2.62,6.005 2.398,6.222 2.241,6.488C2.24,6.49 2.239,6.492 2.238,6.494C2.082,6.761 2,7.066 2,7.376L2,16.624C2,16.936 2.083,17.242 2.242,17.51C2.399,17.778 2.624,17.999 2.897,18.151C2.893,18.149 11.143,22.79 11.143,22.79C11.143,22.79 11.143,22.79 11.143,22.79C11.404,22.937 11.699,23.014 12,23.014C12.3,23.014 12.592,22.938 12.855,22.791L21.113,18.147C21.381,17.994 21.603,17.777 21.76,17.508C21.917,17.241 22,16.935 22,16.624ZM4,7.522L4,16.477L12.001,20.977L20,16.478L20,7.522L12,3.023L4,7.522Z" />
    <path d="M17.596,14.298L17.596,9.423C17.596,9.059 17.398,8.723 17.079,8.547L7.983,3.53C7.5,3.264 6.891,3.44 6.624,3.923C6.358,4.406 6.534,5.015 7.017,5.282L15.596,10.013C15.596,10.013 15.596,14.298 15.596,14.298C15.596,14.85 16.044,15.298 16.596,15.298C17.148,15.298 17.596,14.85 17.596,14.298Z" />
    <path d="M11.084,12.584L11.001,22.006C10.996,22.558 11.44,23.01 11.992,23.015C12.544,23.02 12.996,22.576 13.001,22.024L13.084,12.585L21.39,7.865C21.87,7.593 22.038,6.982 21.765,6.502C21.493,6.022 20.882,5.854 20.402,6.127L12.085,10.853C12.085,10.853 3.591,6.121 3.591,6.121C3.108,5.853 2.499,6.026 2.23,6.508C1.962,6.991 2.135,7.6 2.617,7.869L11.084,12.584Z" />
</svg>
