<svg viewBox="0 0 24 24" xmlns="http://www.w3.org/2000/svg" xml:space="preserve" style="fill-rule:evenodd;clip-rule:evenodd;stroke-linejoin:round;stroke-miterlimit:2"><path d="M11.48 1.075c-.191.061-1.89.999-5.08 2.804-.495.28-1.521.858-2.28 1.284-1.462.82-1.694.986-1.892 1.35C1.991 6.947 2 6.737 2 12c0 5.322-.011 5.075.252 5.514.07.118.218.296.328.396.274.248 8.599 4.931 8.931 5.024a1.9 1.9 0 0 0 1.004-.009c.36-.112 8.636-4.771 8.9-5.011.113-.102.263-.282.333-.4.263-.439.252-.192.252-5.514 0-5.263.009-5.053-.228-5.487-.223-.411-.268-.439-4.772-2.972-2.507-1.41-4.356-2.425-4.494-2.468a1.931 1.931 0 0 0-1.026.002m4.004 3.909a906.297 906.297 0 0 1 3.467 1.955c.006.005-.52.311-1.169.679l-1.18.669-3.501-1.932C11.176 5.293 9.6 4.413 9.6 4.399c0-.029 2.322-1.349 2.384-1.355.024-.002 1.599.871 3.5 1.94m-4.475 2.501 3.523 1.943c.029.018-2.387 1.412-2.447 1.412-.057 0-6.956-3.862-6.965-3.899-.009-.033 2.284-1.366 2.369-1.377.016-.002 1.6.862 3.52 1.921M7.66 10.68c1.87 1.04 3.405 1.895 3.412 1.901.019.015-.063 7.783-.082 7.802-.01.01-1.582-.862-3.494-1.937L4.02 16.492l-.01-3.93L4 8.633l.13.078c.071.043 1.66.929 3.53 1.969m12.33 1.906-.01 3.905-3.46 1.947-3.46 1.946-.013-.622c-.007-.342 0-2.098.015-3.902l.028-3.28 1.245-.706 1.245-.706.02 1.706c.014 1.206.034 1.738.068 1.814.081.181.343.441.527.522.21.094.57.103.77.019.196-.082.423-.291.527-.485.087-.163.088-.185.099-2.444l.011-2.281 1.169-.667a41.508 41.508 0 0 1 1.199-.67c.017-.001.026 1.756.02 3.904"/></svg>