<svg width="16" height="16" viewBox="0 0 16 16" xmlns="http://www.w3.org/2000/svg">
    <path d="M7.36 1.28a6.841 6.841 0 0 0-3.613 1.485 8.234 8.234 0 0 0-1.13 1.165 6.745 6.745 0 0 0 2.41 10.125c.526.257.905.387 1.235.425a2.263 2.263 0 0 0 2.201-1.147c.192-.35.257-.606.282-1.111.018-.363.028-.42.092-.552a.718.718 0 0 1 .347-.345c.109-.058.121-.058 1.843-.073 1.962-.017 1.868-.007 2.346-.239.544-.265.96-.733 1.146-1.292.179-.537.271-1.587.204-2.323a6.923 6.923 0 0 0-1.097-3.118 7.595 7.595 0 0 0-1.413-1.543 6.901 6.901 0 0 0-3.266-1.419A10.376 10.376 0 0 0 7.36 1.28m1.093 1.495c.985.09 1.897.44 2.686 1.029a5.536 5.536 0 0 1 1.654 2.071c.436.992.564 2.112.356 3.127-.061.298-.126.428-.279.563-.209.184-.14.177-2.057.195-1.697.016-1.737.018-1.934.076a2.65 2.65 0 0 0-.82.443c-.347.3-.561.621-.701 1.054-.07.217-.085.313-.103.668-.016.322-.032.441-.074.533-.124.279-.333.428-.63.447-.17.01-.217.002-.431-.081a5.247 5.247 0 0 1-2.484-1.993 5.272 5.272 0 0 1-.493-4.888 5.303 5.303 0 0 1 2.35-2.626 5.296 5.296 0 0 1 2.96-.618M8.02 4.027a1.009 1.009 0 0 0-.714.655c-.138.401.012.878.353 1.123.519.373 1.234.177 1.509-.412.061-.13.071-.189.071-.393 0-.204-.01-.263-.071-.392a1.008 1.008 0 0 0-.851-.595c-.108-.006-.242 0-.297.014M5.171 5.663c-.51.138-.836.686-.706 1.19a.997.997 0 0 0 1.259.724.996.996 0 0 0 .314-1.744 1.04 1.04 0 0 0-.867-.17m5.649-.007c-.355.083-.644.387-.729.767-.077.339.022.654.286.914.623.616 1.679.169 1.679-.71a1 1 0 0 0-1.236-.971M5.154 8.917a1.08 1.08 0 0 0-.469.31c-.396.44-.304 1.131.196 1.472a.996.996 0 0 0 1.457-.4c.067-.136.075-.181.075-.419 0-.248-.006-.28-.087-.446a1.01 1.01 0 0 0-.482-.468c-.176-.081-.517-.106-.69-.049" fill-rule="evenodd" />
</svg>