<svg viewBox="0 0 16 16" xmlns="http://www.w3.org/2000/svg"><path d="M7.047 1.32a7.16 7.16 0 0 0-2.535.911c-.772.46-1.624 1.273-2.134 2.038a6.928 6.928 0 0 0-1.061 2.784c-.068.449-.07 1.448-.002 1.88a6.993 6.993 0 0 0 1.058 2.781 6.7 6.7 0 0 0 2.667 2.342c.622.31 1.024.428 1.457.427a2.247 2.247 0 0 0 2.184-1.723c.021-.091.051-.338.066-.548.03-.429.08-.582.242-.743.199-.199.126-.192 2.034-.217 1.925-.025 1.912-.024 2.31-.224.293-.147.469-.274.676-.488.494-.511.688-1.144.728-2.38.037-1.121-.209-2.187-.751-3.252-.498-.981-1.325-1.9-2.272-2.526-.877-.58-1.978-.984-2.929-1.074-.397-.038-1.465-.03-1.738.012M8.84 2.827c1.7.289 3.115 1.353 3.882 2.92.286.584.451 1.211.504 1.915.046.604-.043 1.392-.19 1.687-.084.169-.262.32-.418.357-.077.018-.759.039-1.805.054-.93.014-1.744.037-1.823.052-.183.036-.601.233-.813.384a2.183 2.183 0 0 0-.74.932c-.12.289-.154.457-.184.888-.025.357-.036.414-.108.563a.638.638 0 0 1-.403.364c-.269.087-.461.047-1.003-.211-1.585-.752-2.68-2.263-2.928-4.039-.053-.373-.039-1.253.024-1.587.16-.85.48-1.591.97-2.246a6.99 6.99 0 0 1 .906-.939c1.01-.815 2.283-1.217 3.622-1.144.176.01.404.032.507.05m-.994 1.264a1.148 1.148 0 0 0-.503.503c-.066.144-.076.198-.076.406 0 .213.01.26.083.413a.977.977 0 0 0 .486.489c.155.074.205.084.405.084.211.001.244-.007.432-.1.232-.114.379-.262.493-.495.063-.13.073-.182.072-.39 0-.202-.011-.265-.069-.388a1.057 1.057 0 0 0-.454-.481c-.156-.084-.189-.091-.448-.099-.254-.008-.293-.003-.421.058M5.24 5.65c-.502.089-.883.639-.787 1.136.041.207.166.442.301.564.058.053.186.133.283.179a.693.693 0 0 0 .39.082.896.896 0 0 0 .677-.266.985.985 0 0 0-.063-1.505c-.191-.151-.546-.236-.801-.19m5.579.004c-.476.12-.824.652-.738 1.127.039.215.109.345.283.528a.873.873 0 0 0 .703.303c.198.001.248-.01.4-.081a.99.99 0 0 0 .007-1.803 1.121 1.121 0 0 0-.655-.074M5.226 8.903a1.118 1.118 0 0 0-.687.539c-.288.597.079 1.289.75 1.413a.992.992 0 0 0 .566-.08c.165-.073.388-.292.478-.471.065-.128.076-.182.078-.38.003-.307-.02-.397-.147-.588-.121-.181-.317-.339-.487-.39a1.547 1.547 0 0 0-.551-.043" fill-rule="evenodd"/></svg>