<svg width="16" height="16" viewBox="0 0 16 16" fill="none" xmlns="http://www.w3.org/2000/svg">
<path d="M13.8509 9.33466C13.954 8.87994 14.004 8.41477 13.9998 7.94851C13.9721 4.64668 11.2401 1.96705 7.93832 2.00031C6.52809 2.01505 5.16811 2.52599 4.09705 3.44347C3.02598 4.36094 2.31226 5.62633 2.08114 7.01757C1.85003 8.4088 2.11628 9.83699 2.83317 11.0515C3.55006 12.266 4.67179 13.1892 6.0015 13.6591C6.22775 13.7388 6.4698 13.7631 6.70736 13.7299C6.94493 13.6967 7.17107 13.6071 7.36682 13.4684C7.56258 13.3298 7.72224 13.1463 7.83241 12.9332C7.94259 12.7201 8.00006 12.4838 8.00001 12.2439V12C8.00001 11.6022 8.15805 11.2206 8.43935 10.9393C8.72065 10.658 9.10219 10.5 9.50001 10.5H12.3881C12.7279 10.5002 13.0577 10.385 13.3234 10.1733C13.5892 9.9616 13.7752 9.6659 13.8509 9.33466V9.33466Z" stroke="black" stroke-width="1.5" stroke-linecap="round" stroke-linejoin="round"/>
<path d="M8.25 6C8.80228 6 9.25 5.55228 9.25 5C9.25 4.44772 8.80228 4 8.25 4C7.69772 4 7.25 4.44772 7.25 5C7.25 5.55228 7.69772 6 8.25 6Z" fill="black"/>
<path d="M5.43555 7.625C5.98783 7.625 6.43555 7.17728 6.43555 6.625C6.43555 6.07272 5.98783 5.625 5.43555 5.625C4.88326 5.625 4.43555 6.07272 4.43555 6.625C4.43555 7.17728 4.88326 7.625 5.43555 7.625Z" fill="black"/>
<path d="M5.43555 10.875C5.98783 10.875 6.43555 10.4273 6.43555 9.875C6.43555 9.32272 5.98783 8.875 5.43555 8.875C4.88326 8.875 4.43555 9.32272 4.43555 9.875C4.43555 10.4273 4.88326 10.875 5.43555 10.875Z" fill="black"/>
<path d="M11.0645 7.625C11.6167 7.625 12.0645 7.17728 12.0645 6.625C12.0645 6.07272 11.6167 5.625 11.0645 5.625C10.5122 5.625 10.0645 6.07272 10.0645 6.625C10.0645 7.17728 10.5122 7.625 11.0645 7.625Z" fill="black"/>
</svg>
