<svg height="16" viewBox="0 0 16 16" width="16" xmlns="http://www.w3.org/2000/svg"><path d="m4.5 4.6c1.70762783 0 3.12122917 1.25887705 3.36337639 2.89920352l1.88562361-.00020352.001-.999c0-.41421356.3357864-.75.75-.75s.75.33578644.75.75l-.001.999h1l.001-.999c0-.41421356.3357864-.75.75-.75s.75.33578644.75.75l-.001.999.501.001c.4142136 0 .75.33578644.75.75s-.3357864.75-.75.75h-6.5l-.02333426.07466297c-.44977993 1.35110863-1.72445122 2.32533703-3.22666574 2.32533703-1.87776815 0-3.4-1.52223185-3.4-3.4s1.52223185-3.4 3.4-3.4zm0 1.4c-1.1045695 0-2 .8954305-2 2s.8954305 2 2 2 2-.8954305 2-2-.8954305-2-2-2z" fill-rule="evenodd"/></svg>