<svg width="100%" height="100%" viewBox="0 0 50 50" version="1.1" xmlns="http://www.w3.org/2000/svg" xmlns:xlink="http://www.w3.org/1999/xlink" xml:space="preserve" xmlns:serif="http://www.serif.com/">
    <path d="M5.615,0.046c-1.682,0.306 -3.027,1.591 -3.409,3.258c-0.129,0.625 -0.129,42.742 0,43.367c0.325,1.562 1.663,2.9 3.225,3.225c0.296,0.062 2.155,0.091 5.588,0.091c4.35,0 5.221,-0.02 5.633,-0.129c1.438,-0.371 2.579,-1.475 3.017,-2.912c0.15,-0.479 0.154,-1.375 0.154,-21.959c0,-20.583 -0.004,-21.479 -0.154,-21.958c-0.43,-1.445 -1.598,-2.556 -3.063,-2.912c-0.45,-0.109 -1.354,-0.125 -5.658,-0.117c-2.817,0.004 -5.221,0.025 -5.333,0.046m27.804,0.071c-1.421,0.35 -2.583,1.47 -3.025,2.912c-0.15,0.479 -0.154,1.375 -0.154,21.958c-0,20.584 0.004,21.48 0.154,21.959c0.442,1.446 1.571,2.537 3.017,2.912c0.729,0.192 10.591,0.192 11.333,0c1.571,-0.404 2.792,-1.65 3.112,-3.187c0.13,-0.625 0.13,-42.742 0,-43.367c-0.291,-1.387 -1.27,-2.504 -2.7,-3.075l-0.5,-0.2l-5.375,-0.017c-4.437,-0.012 -5.458,0.009 -5.862,0.105" />
</svg>