<svg xmlns="http://www.w3.org/2000/svg" width="24" height="24" viewBox="0 0 24 24">
    <path d="M3.181 0C2.53 0 2 .43 2 .957v21.086c0 .528.53.957 1.181.957H20.82c.652 0 1.181-.43 1.181-.957V6.71h-7.647c-.325 0-.588-.215-.588-.48V0H3.18zm11.76.336V5.75h6.397L14.941.336zm-3.18 5.857c.438.004.717.158.886.307.675.598.405 1.87-.336 3.819.723 1.385 1.8 2.89 2.908 3.974.49-.07.957-.11 1.4-.121 1.334-.032 2.4.206 2.999.668.422.326.562.746.377 1.124-.25.513-1.02.807-2.113.807-1.004 0-2.074-.568-3.085-1.434-.875.167-1.917.45-3.14.91-.774.292-1.459.573-2.062.843-.715 1.629-1.516 2.772-3.214 3.464-.482.196-.861.265-1.158.265-.294 0-.507-.068-.655-.15-.294-.162-.445-.436-.414-.75.077-.776 1.333-2.035 4.478-3.49.182-.44.368-.927.573-1.464.147-.383.301-.787.47-1.216.21-.534.448-1.1.676-1.648.243-.582.49-1.174.711-1.74-.412-.848-.69-1.637-.784-2.256-.211-1.401.53-1.767.991-1.861.183-.037.346-.053.492-.051zm-.01.957c-.033 0-.097.003-.197.023-.07.015-.194.24-.107.815.034.23.097.486.185.757.386-1.318.172-1.574.151-1.595h-.031zm.023 4.513l-.309.746c-.227.545-.462 1.107-.67 1.633-.167.425-.321.828-.466 1.208l-.204.534c.33-.135.678-.27 1.04-.407.962-.361 1.897-.645 2.783-.847-.816-.854-1.566-1.863-2.174-2.867zm4.937 3.466c-.151.002-.312.008-.483.02.586.414 1.154.664 1.654.664.673 0 .947-.137 1.01-.193-.026-.04-.121-.139-.372-.24-.177-.073-.753-.265-1.81-.251zm-8.8 2.783c-1.69.916-2.349 1.608-2.53 1.93.108-.019.264-.06.474-.146.954-.389 1.558-.96 2.056-1.784z"/>
</svg>
