<svg width="12" height="12" viewBox="0 0 24 24" version="1.1" xmlns="http://www.w3.org/2000/svg" xmlns:xlink="http://www.w3.org/1999/xlink" xml:space="preserve" xmlns:serif="http://www.serif.com/" style="fill-rule:evenodd;clip-rule:evenodd;stroke-linejoin:round;stroke-miterlimit:2;">
    <path d="M9,21.25C9.265,21.25 9.52,21.145 9.707,20.957L21.177,9.487C21.504,9.16 21.69,8.714 21.69,8.25C21.69,7.786 21.504,7.34 21.177,7.013C21.177,7.013 16.987,2.823 16.987,2.823C16.66,2.496 16.214,2.31 15.75,2.31C15.286,2.31 14.84,2.496 14.513,2.823C14.513,2.823 3.263,14.073 3.263,14.073C3.101,14.235 2.974,14.426 2.886,14.634C2.884,14.638 2.882,14.642 2.881,14.646C2.795,14.857 2.75,15.083 2.75,15.31L2.75,19.5C2.75,19.965 2.935,20.411 3.264,20.738C3.591,21.064 4.036,21.25 4.5,21.25C4.5,21.25 9,21.25 9,21.25ZM16.586,11.25L12.75,7.414L4.75,15.414L4.75,19.25L8.586,19.25L16.586,11.25ZM14.164,6L18,9.836L19.586,8.25L15.75,4.414L14.164,6Z" />
</svg>
