<svg viewBox="0 0 24 24" xmlns="http://www.w3.org/2000/svg" xml:space="preserve" style="fill-rule:evenodd;clip-rule:evenodd;stroke-linejoin:round;stroke-miterlimit:2"><path d="M9 21.25c.265 0 .52-.105.707-.293l11.47-11.47c.327-.327.513-.773.513-1.237 0-.464-.186-.91-.513-1.237l-4.19-4.19a1.753 1.753 0 0 0-1.237-.513c-.464 0-.91.186-1.237.513l-11.25 11.25a1.765 1.765 0 0 0-.382.573 1.762 1.762 0 0 0-.131.664v4.19a1.753 1.753 0 0 0 1.75 1.75H9Zm7.586-10L12.75 7.414l-8 8v3.836h3.836l8-8ZM14.164 6 18 9.836l1.586-1.586-3.836-3.836L14.164 6Z"/></svg>