<svg viewBox="0 0 16 16" xmlns="http://www.w3.org/2000/svg"><path d="M4.267 2.308a2.508 2.508 0 0 0-1.926 1.811 3.29 3.29 0 0 0-.05 1.028A2.509 2.509 0 0 0 4 7.123c.213.068.31.084.613.096.553.022.891-.051 1.326-.285a2.47 2.47 0 0 0 1.264-1.765 3.172 3.172 0 0 0-.068-1.129c-.268-.897-1.056-1.599-1.962-1.745a3.295 3.295 0 0 0-.906.013m7.906.529c-.103.053-1.151 1.088-4.723 4.662-5.124 5.128-4.694 4.664-4.671 5.054.013.224.071.351.225.489.152.136.228.167.443.18.391.022-.074.452 5.054-4.672 3.785-3.781 4.606-4.615 4.663-4.73.062-.126.068-.165.058-.36-.012-.229-.041-.301-.18-.456-.144-.161-.263-.213-.509-.224-.202-.009-.241-.003-.36.057m-7.062.981c.434.16.712.643.628 1.091a.968.968 0 0 1-.284.546.975.975 0 0 1-1.408 0 .99.99 0 0 1-.004-1.412.99.99 0 0 1 1.068-.225m5.614 4.994a2.514 2.514 0 0 0-1.913 1.93 3.505 3.505 0 0 0-.014.938 2.514 2.514 0 0 0 2.055 2.029c.308.048.791.018 1.075-.066a2.477 2.477 0 0 0 1.715-1.715c.093-.314.116-.798.053-1.133A2.491 2.491 0 0 0 12 8.876c-.23-.074-.292-.082-.68-.092-.306-.007-.474.001-.595.028m.776 1.468c.744.193 1 1.133.456 1.677-.55.549-1.487.287-1.681-.471a1.008 1.008 0 0 1 .711-1.203.9.9 0 0 1 .514-.003" fill-rule="evenodd"/></svg>
