<svg width="255px" height="242px" viewBox="0 0 255 242" version="1.1" xmlns="http://www.w3.org/2000/svg" xmlns:xlink="http://www.w3.org/1999/xlink">
    <path d="M18.4685714,242.578286 L1.2312381,225.340952 L13.0194286,213.552762 C12.4830476,211.541333 12.1904762,209.42019 12.1904762,207.238095 L12.1904762,60.952381 C12.1904762,47.4819048 23.1009524,36.5714286 36.5714286,36.5714286 L73.1428571,36.5714286 L97.5238095,12.1904762 L170.666667,12.1904762 L192.52419,34.048 L225.340952,1.2312381 L242.578286,18.4685714 L18.4685714,242.578286 Z M251.050667,46.2140952 C254.159238,50.3100952 256,55.4179048 256,60.952381 L256,207.238095 C256,220.708571 245.089524,231.619048 231.619048,231.619048 L65.6457143,231.619048 L108.04419,189.220571 C115.943619,192.950857 124.769524,195.047619 134.095238,195.047619 C167.753143,195.047619 195.047619,167.753143 195.047619,134.095238 C195.047619,124.769524 192.950857,115.943619 189.220571,108.04419 L251.050667,46.2140952 Z M127.232,170.020571 L170.020571,127.232 C170.447238,129.462857 170.666667,131.754667 170.666667,134.095238 C170.666667,154.294857 154.294857,170.666667 134.095238,170.666667 C131.754667,170.666667 129.462857,170.447238 127.232,170.020571 Z M75.5321905,151.04 L97.9260952,128.646095 C100.291048,112.810667 112.810667,100.291048 128.646095,97.9260952 L151.04,75.5321905 C145.664,73.9718095 139.971048,73.1428571 134.095238,73.1428571 C100.437333,73.1428571 73.1428571,100.437333 73.1428571,134.095238 C73.1428571,139.971048 73.9718095,145.664 75.5321905,151.04 L75.5321905,151.04 Z" id="Shape"></path>
</svg>