<svg xmlns="http://www.w3.org/2000/svg" viewBox="-13.14 3.95 22.44 21.24"><path fill-rule="evenodd" d="M5.68278 8.71974C5.61922 8.64129 5.55386 8.56339 5.48761 8.48576C4.49703 7.33226 3.20673 6.4752 1.75939 6.00935L3.67758 5.41511C3.86758 5.35625 4.02642 5.22432 4.11915 5.04834C4.21188 4.87237 4.23091 4.66677 4.17205 4.47676C4.11319 4.28676 3.98126 4.12792 3.80528 4.03519C3.62931 3.94246 3.4237 3.92343 3.2337 3.98229L-6.07963 6.86748C-8.05964 7.48363 -9.73552 8.82187 -10.7745 10.6165C-11.8135 12.4111 -12.1395 14.5308 -11.688 16.5547C-12.2591 16.9002 -12.6987 17.4264 -12.9372 18.0499C-13.1756 18.6734 -13.1993 19.3587 -13.0045 19.9972C-12.9456 20.1872 -12.8137 20.346 -12.6377 20.4388C-12.4617 20.5315 -12.2561 20.5505 -12.0661 20.4917C-11.8761 20.4328 -11.7173 20.3009 -11.6245 20.1249C-11.5318 19.9489 -11.5128 19.7433 -11.5716 19.5533C-11.6524 19.292 -11.6602 19.0136 -11.5942 18.7482C-11.5281 18.4828 -11.3908 18.2405 -11.197 18.0475C-10.5208 19.5996 -9.38181 20.905 -7.93577 21.7855L-5.83559 24.5857C-5.64987 24.8334 -5.39207 25.0175 -5.09754 25.1129C-4.80301 25.2083 -4.48619 25.2102 -4.19053 25.1184L-3.05144 24.7655C-2.75586 24.6739 -2.49583 24.4932 -2.30697 24.2481C-2.11811 24.003 -2.00968 23.7055 -1.99652 23.3964L-1.97384 22.8613L3.15745 21.2717L3.47864 21.7002C3.66426 21.9478 3.9219 22.1319 4.21624 22.2273C4.51059 22.3227 4.82724 22.3248 5.1228 22.2332L6.26189 21.8803C6.55747 21.7887 6.81751 21.608 7.00636 21.3629C7.19522 21.1178 7.30366 20.8203 7.31681 20.5112L7.50949 15.9976L7.72083 15.9322C8.29085 15.7556 8.76736 15.3598 9.04556 14.8319C9.32375 14.3039 9.38084 13.6871 9.20425 13.1171L8.3165 10.2515C8.14958 9.71239 7.78618 9.25572 7.29835 8.972C6.81052 8.68828 6.23388 8.59825 5.68278 8.71974ZM-1.39011 9.33268L-4.97216 10.4424C-5.16217 10.5012 -5.36777 10.4822 -5.54374 10.3895C-5.71972 10.2967 -5.85165 10.1379 -5.91051 9.9479C-5.96937 9.75789 -5.95034 9.55229 -5.85761 9.37631C-5.76488 9.20034 -5.60604 9.06841 -5.41604 9.00955L-1.83399 7.89986C-1.64398 7.841 -1.43838 7.86003 -1.2624 7.95276C-1.08643 8.04549 -0.9545 8.20433 -0.895638 8.39433C-0.836777 8.58433 -0.855804 8.78994 -0.948536 8.96591C-1.04127 9.14189 -1.20011 9.27382 -1.39011 9.33268ZM2.67089 13.5708C2.45835 13.6366 2.23106 13.638 2.01776 13.5746C1.80446 13.5113 1.61473 13.3861 1.47257 13.215C1.3304 13.0438 1.24218 12.8343 1.21907 12.613C1.19595 12.3917 1.23899 12.1685 1.34272 11.9717C1.44644 11.7748 1.60622 11.6132 1.80183 11.5071C1.99744 11.4011 2.2201 11.3554 2.44165 11.3759C2.66321 11.3964 2.87371 11.4822 3.04654 11.6223C3.21937 11.7625 3.34676 11.9507 3.4126 12.1632C3.50089 12.4483 3.47235 12.7567 3.33325 13.0206C3.19415 13.2846 2.95589 13.4825 2.67089 13.5708Z"></path></svg>
