<svg viewBox="0 0 32 32" xmlns="http://www.w3.org/2000/svg"><path d="M13.467 4.912c-2.938.36-5.481 1.844-7.175 4.184-.998 1.379-1.688 3.188-1.863 4.886-.029.278-.079.506-.117.529a.994.994 0 0 1-.255.075c-.105.019-.393.132-.642.251-.367.177-.536.302-.907.677-.517.521-.738.904-.908 1.575-.121.479-.136.902-.039 1.098.085.17.427.341.598.298a.838.838 0 0 0 .272-.155c.123-.106.154-.196.217-.627.093-.634.266-.997.666-1.398.298-.299.943-.67 1.05-.604.026.016.062.204.08.417.159 1.878 1.038 3.941 2.338 5.489.165.197.318.576.97 2.401.425 1.191.822 2.263.882 2.381.14.274.438.518.795.652.243.091.416.106 1.257.106 1.24 0 1.425-.047 1.843-.472.263-.266.322-.369.503-.875l.205-.573h7.444l.2.546c.11.301.263.635.34.742.17.239.545.497.832.574.328.088 2.036.074 2.344-.019.359-.108.651-.317.825-.591.082-.129.614-1.543 1.183-3.143l1.035-2.908.373-.001c.828-.004 1.435-.237 1.954-.75.332-.327.539-.69.66-1.154.117-.448.117-4.598 0-5.046a2.486 2.486 0 0 0-2.057-1.858l-.403-.062-.125-.325c-.788-2.059-2.348-3.835-4.455-5.075L23.12 6l2.08-.027c1.144-.014 2.119-.046 2.167-.069a.613.613 0 0 0 .18-.219.56.56 0 0 0-.112-.676l-.137-.129-6.729-.007c-3.701-.004-6.897.014-7.102.039m5.423 1.115c1.263.073 2.169.285 3.197.747 2.235 1.005 4.061 2.973 4.823 5.199.082.24.21.494.293.581.138.145.181.156.708.19.495.031.591.054.818.194.29.179.569.589.623.914.056.335.037 4.128-.022 4.381-.075.328-.33.672-.625.846-.236.139-.3.149-1.036.176-.683.024-.804.042-.933.138-.129.095-.304.54-1.296 3.304-.998 2.779-1.164 3.202-1.28 3.261-.09.045-.403.067-.966.068-1.063.001-1.015.034-1.355-.933-.195-.556-.29-.753-.411-.855l-.156-.131h-8.624l-.156.131c-.121.102-.216.299-.411.855-.34.967-.292.934-1.355.933-.562-.001-.876-.023-.966-.068-.115-.058-.247-.385-.966-2.394l-.833-2.327-.332-.392c-1.708-2.02-2.443-4.776-1.974-7.399.275-1.544 1.08-3.224 2.088-4.359 1.576-1.775 3.764-2.878 6.062-3.055.816-.063 4.038-.066 5.085-.005m-4.597 3.24c-.249.124-.374.448-.261.678a.888.888 0 0 0 .225.264c.148.109.198.111 2.703.111s2.555-.002 2.703-.111c.246-.183.314-.375.225-.633-.141-.408-.103-.403-2.928-.403-2.254 0-2.497.009-2.667.094m7.811 4.7c-.717.326-.907 1.27-.367 1.823.579.593 1.477.462 1.854-.27.128-.249.146-.337.123-.581-.077-.793-.904-1.293-1.61-.972" fill-rule="evenodd"/></svg>
