<svg xmlns="http://www.w3.org/2000/svg"><path fill-rule="evenodd" d="M21.1875 5.25C21.15 5.15625 21.1106 5.0625 21.0703 4.96875C20.4654 3.57378 19.4865 2.37328 18.2419 1.5H20.25C20.4489 1.5 20.6397 1.42098 20.7803 1.28033C20.921 1.13968 21 0.948912 21 0.75C21 0.551088 20.921 0.360322 20.7803 0.21967C20.6397 0.0790174 20.4489 0 20.25 0H10.5C8.42634 0.00263304 6.42951 0.785021 4.90601 2.1918C3.38252 3.59859 2.4438 5.52687 2.27625 7.59375C1.6284 7.75479 1.05277 8.12732 0.640489 8.65236C0.228203 9.17739 0.00281392 9.82494 0 10.4925C0 10.6914 0.0790176 10.8822 0.21967 11.0228C0.360322 11.1635 0.551088 11.2425 0.75 11.2425C0.948912 11.2425 1.13968 11.1635 1.28033 11.0228C1.42098 10.8822 1.5 10.6914 1.5 10.4925C1.50017 10.219 1.57512 9.95077 1.71673 9.71679C1.85834 9.48281 2.06122 9.292 2.30344 9.165C2.49012 10.8477 3.19176 12.4317 4.3125 13.7006L5.49 16.9969C5.5941 17.2884 5.78586 17.5406 6.03898 17.7189C6.29209 17.8972 6.59416 17.9927 6.90375 17.9925H8.09625C8.40568 17.9925 8.70754 17.8969 8.96047 17.7186C9.2134 17.5404 9.40502 17.2883 9.50906 16.9969L9.68906 16.4925H15.0609L15.2409 16.9969C15.345 17.2883 15.5366 17.5404 15.7895 17.7186C16.0425 17.8969 16.3443 17.9925 16.6537 17.9925H17.8463C18.1557 17.9925 18.4575 17.8969 18.7105 17.7186C18.9634 17.5404 19.155 17.2883 19.2591 16.9969L20.7787 12.7425H21C21.5967 12.7425 22.169 12.5054 22.591 12.0835C23.0129 11.6615 23.25 11.0892 23.25 10.4925V7.4925C23.2501 6.92816 23.0381 6.3844 22.6561 5.96904C22.274 5.55367 21.7499 5.29703 21.1875 5.25ZM14.25 3.7425H10.5C10.3011 3.7425 10.1103 3.66348 9.96967 3.52283C9.82902 3.38218 9.75 3.19141 9.75 2.9925C9.75 2.79359 9.82902 2.60282 9.96967 2.46217C10.1103 2.32152 10.3011 2.2425 10.5 2.2425H14.25C14.4489 2.2425 14.6397 2.32152 14.7803 2.46217C14.921 2.60282 15 2.79359 15 2.9925C15 3.19141 14.921 3.38218 14.7803 3.52283C14.6397 3.66348 14.4489 3.7425 14.25 3.7425ZM16.875 8.9925C16.6525 8.9925 16.435 8.92652 16.25 8.8029C16.065 8.67929 15.9208 8.50359 15.8356 8.29802C15.7505 8.09245 15.7282 7.86625 15.7716 7.64802C15.815 7.42979 15.9222 7.22934 16.0795 7.072C16.2368 6.91467 16.4373 6.80752 16.6555 6.76412C16.8738 6.72071 17.1 6.74299 17.3055 6.82814C17.5111 6.91328 17.6868 7.05748 17.8104 7.24248C17.934 7.42749 18 7.645 18 7.8675C18 8.16587 17.8815 8.45202 17.6705 8.663C17.4595 8.87397 17.1734 8.9925 16.875 8.9925Z"></path></svg>
