<svg height="16" viewBox="0 0 16 16" width="16" xmlns="http://www.w3.org/2000/svg"><path d="m14 4.15c0 .35898509-.2910149.65-.65.65h-9.35c-.35438271 0-.64725823.26334362-.69360983.60501415l-.00639017.09498585v5c0 .3543827.26334362.6472582.60501415.6936098l.09498585.0063902h9.35c.3589851 0 .65.2910149.65.65s-.2910149.65-.65.65h-9.35c-1.1045695 0-2-.8954305-2-2v-5c0-1.1045695.8954305-2 2-2h9.35c.3589851 0 .65.29101491.65.65zm-8 2.85c.55228475 0 1 .44771525 1 1s-.44771525 1-1 1-1-.44771525-1-1 .44771525-1 1-1zm3 0c.55228475 0 1 .44771525 1 1s-.44771525 1-1 1-1-.44771525-1-1 .44771525-1 1-1zm3 0c.5522847 0 1 .44771525 1 1s-.4477153 1-1 1-1-.44771525-1-1 .4477153-1 1-1zm0 .5c.2761424 0 .5.22385763.5.5s-.2238576.5-.5.5-.5-.22385763-.5-.5.2238576-.5.5-.5z" fill-rule="evenodd"/></svg>