<svg viewBox="0 0 16 16" xmlns="http://www.w3.org/2000/svg"><path d="M3.76 3.521c-.792.093-1.435.643-1.684 1.439l-.063.2v5.68l.063.2c.113.364.257.602.523.868.204.204.28.261.494.365.492.241-.048.218 5.414.228 3.49.006 4.878.001 4.978-.021a.647.647 0 0 0 .158-1.208l-.11-.059-4.866-.013-4.867-.013-.107-.058a.792.792 0 0 1-.331-.356c-.053-.118-.054-.162-.054-2.773s.001-2.655.054-2.773a.792.792 0 0 1 .331-.356l.107-.058L8.667 4.8l4.866-.013.11-.059a.645.645 0 0 0-.152-1.206c-.156-.033-9.447-.035-9.731-.001m1.902 3.54a1.01 1.01 0 0 0-.648 1.091c.131.805 1.113 1.125 1.688.55A.995.995 0 0 0 6.429 7.1a1.185 1.185 0 0 0-.767-.039m2.975.014a.908.908 0 0 0-.408.294c-.163.199-.212.344-.213.631 0 .216.01.275.068.4.194.416.646.662 1.075.585.331-.06.614-.279.757-.585.058-.125.068-.184.068-.4 0-.216-.01-.275-.068-.4a1.01 1.01 0 0 0-.47-.486c-.155-.076-.209-.088-.419-.095-.203-.006-.264.003-.39.056m3.025-.014a1.01 1.01 0 0 0-.648 1.091c.131.805 1.113 1.125 1.688.55a.995.995 0 0 0-.273-1.602 1.185 1.185 0 0 0-.767-.039m.608.526a.46.46 0 0 1 .219.418c0 .13-.013.175-.078.268a.456.456 0 0 1-.411.219.456.456 0 0 1-.411-.219c-.065-.093-.078-.138-.078-.268 0-.404.422-.636.759-.418" fill-rule="evenodd"/></svg>