<svg viewBox="0 0 1938 2138" xmlns="http://www.w3.org/2000/svg" >
    <path d="M163.966 6.353C129.06 12.716 93.2 28.557 66.952 49.209 40.841 69.753 12.874 120.487 3.63 164.081.994 176.511 0 423.425 0 1065.775c0 957.391-.95 904.318 17.078 953.755 15.722 43.116 45.46 80.238 77.28 96.471 51.768 26.41 154.933 25.795 216.089-1.288 24.298-10.76 1508.427-862.432 1532.495-879.427 70.294-49.634 106.167-128.829 90.419-199.612-10.46-47.017-33.239-82.295-74.166-114.861-20.843-16.586-226.738-135.667-835.285-483.098C433.572 100.681 290.905 20.82 263.774 12.214c-22.543-7.151-75.631-10.268-99.808-5.861"/>
</svg>