<svg viewBox="0 0 32 32" xmlns="http://www.w3.org/2000/svg"><path d="M28.643 2.057c-.111.048-.934.828-2.055 1.944l-1.871 1.865-.452-.457c-.527-.532-.82-.759-1.265-.98-.547-.272-1.083-.391-1.747-.39-1.001.003-1.741.259-2.491.863-.214.172-1.036.963-1.826 1.757l-1.438 1.443-.542-.527c-.423-.412-.585-.536-.738-.564-.429-.081-.804.096-1.076.506-.193.293-.218.535-.083.813.08.164 1.598 1.715 5.3 5.412 4.551 4.547 5.215 5.191 5.414 5.249.294.085.554.011.849-.241.371-.318.489-.742.311-1.117-.044-.093-.296-.384-.559-.646l-.478-.476 1.614-1.629c.888-.896 1.705-1.767 1.815-1.936.449-.686.635-1.321.637-2.173.002-1.243-.37-2.069-1.377-3.05l-.45-.44 1.864-1.871c1.882-1.889 2.028-2.063 2.028-2.426 0-.206-.158-.517-.355-.7-.333-.308-.672-.384-1.029-.229m-6.979 3.976c.155.033.379.108.496.166.129.064.871.76 1.877 1.762 1.94 1.933 1.955 1.954 1.96 2.786.003.435-.013.514-.172.85-.158.334-.328.523-1.746 1.946l-1.57 1.577-2.814-2.815-2.815-2.814 1.573-1.566c1.633-1.624 1.844-1.793 2.366-1.896.323-.064.528-.063.845.004M7.703 13.036c-.405.176-.716.591-.716.955 0 .314.09.461.614.994l.503.512-1.469 1.465c-1.529 1.525-1.871 1.907-2.144 2.398-.669 1.202-.6 2.891.164 4.033.135.202.462.582.728.845l.482.479-1.864 1.871c-1.882 1.889-2.028 2.063-2.028 2.426 0 .451.562 1.013 1.013 1.013.362 0 .539-.148 2.424-2.02l1.87-1.857.428.434c.994 1.007 1.824 1.38 3.065 1.378.852-.002 1.487-.188 2.173-.637.169-.11 1.04-.927 1.936-1.815l1.629-1.614.476.478c.262.263.553.515.646.559.375.178.799.06 1.117-.311.253-.296.327-.556.24-.849-.057-.188-.279-.439-1.326-1.492l-1.257-1.266 1.225-1.241c.732-.741 1.265-1.324 1.323-1.448.125-.268.089-.549-.106-.82-.332-.462-.788-.641-1.175-.462-.125.058-.699.583-1.449 1.324l-1.242 1.228-1.289-1.289-1.29-1.289 1.227-1.243c.733-.742 1.266-1.325 1.324-1.449.125-.268.089-.549-.106-.82-.332-.462-.788-.641-1.175-.462-.125.058-.699.583-1.448 1.324l-1.241 1.227-1.239-1.235c-1.428-1.423-1.585-1.524-2.043-1.324m4.617 6.672 2.8 2.801-1.577 1.57c-1.423 1.418-1.612 1.588-1.946 1.746-.336.159-.415.175-.85.172-.832-.005-.853-.02-2.786-1.96-.997-1.002-1.699-1.749-1.763-1.877a2.077 2.077 0 0 1-.004-1.794c.136-.288.373-.55 1.713-1.897.855-.859 1.567-1.562 1.584-1.562.016 0 1.289 1.26 2.829 2.801"/></svg>