<svg viewBox="0 0 16 16" xmlns="http://www.w3.org/2000/svg"><path d="M7.747 2.046a.835.835 0 0 0-.449.446c-.04.118-.045.35-.045 2.446v2.315H4.952c-2.639 0-2.49-.012-2.725.223-.305.306-.306.741-.002 1.046.239.238.072.225 2.713.225h2.315v2.315c0 2.644-.014 2.474.228 2.716a.714.714 0 0 0 1.038 0c.242-.242.228-.072.228-2.716V8.747h2.315c2.644 0 2.474.014 2.716-.228a.715.715 0 0 0-.003-1.041c-.237-.237-.085-.225-2.727-.225H8.747V4.938c0-2.57.008-2.452-.178-2.669a.779.779 0 0 0-.822-.223" fill-rule="evenodd"/></svg>