<svg viewBox="0 0 16 16" xmlns="http://www.w3.org/2000/svg"><path d="M7.453 1.28a6.54 6.54 0 0 0-2.426.678 6.577 6.577 0 0 0-3.069 3.069c-.483.982-.687 1.864-.687 2.973 0 1.109.204 1.991.687 2.973a6.573 6.573 0 0 0 3.069 3.069c.982.483 1.864.687 2.973.687 1.11 0 1.994-.204 2.973-.687a6.564 6.564 0 0 0 3.069-3.069c.483-.979.687-1.863.687-2.973 0-1.109-.204-1.991-.687-2.973a6.577 6.577 0 0 0-3.069-3.069 6.345 6.345 0 0 0-1.996-.626 8.518 8.518 0 0 0-1.524-.052m1.134 1.495a5.257 5.257 0 0 1 3.217 1.606 5.236 5.236 0 0 1 .027 7.209 5.238 5.238 0 0 1-7.635.029c-.804-.842-1.285-1.877-1.425-3.07a6.402 6.402 0 0 1 .053-1.474 5.283 5.283 0 0 1 4.552-4.298 7.308 7.308 0 0 1 1.211-.002m-.896 2.049a.828.828 0 0 0-.368.374c-.054.116-.057.169-.065 1.087l-.008.965-.965.008c-.918.008-.971.011-1.087.065a.828.828 0 0 0-.374.368.962.962 0 0 0 0 .618.828.828 0 0 0 .374.368c.116.054.169.057 1.087.065l.965.008.008.965c.008.922.011.97.066 1.089a.956.956 0 0 0 .168.232c.156.151.296.199.553.187.182-.008.227-.021.346-.097a.9.9 0 0 0 .21-.194c.133-.192.146-.303.146-1.284v-.901h.901c.981 0 1.092-.013 1.284-.146a.9.9 0 0 0 .194-.21c.076-.119.089-.164.097-.346.012-.257-.036-.397-.187-.553a.956.956 0 0 0-.232-.168c-.119-.055-.167-.058-1.089-.066L8.75 7.25l-.008-.965c-.008-.918-.011-.971-.065-1.087a.897.897 0 0 0-.158-.223c-.148-.149-.282-.2-.519-.2a.745.745 0 0 0-.309.049" fill-rule="evenodd"/></svg>
