<svg height="16" viewBox="0 0 16 16" width="16" xmlns="http://www.w3.org/2000/svg"><path d="m8.2 2.42495842v5.37404158l5.0985378.00087906c.3756925.00002726.680199.3046387.6801342.68033119-.0000035.02015949-.0009031.04030885-.0026962.06038843-.2667221 2.98680762-2.7221347 5.34362872-5.75103754 5.45526282l-.22493826.0041385c-3.3137085 0-6-2.6862915-6-6 0-3.23839694 2.56557489-5.87757176 5.77506174-5.99586153.23241243-.00226346.42265484.18430914.4249183.41672158.00001331.00136608.00001996.00273222.00001996.00409837zm-1.20024943.93054348.00024943 5.6444981 5.6444981.00024943c-.4593195 2.14304367-2.3642755 3.74975057-4.6444981 3.74975057-2.62335256 0-4.75-2.1266474-4.75-4.75 0-2.28022257 1.60670689-4.18517865 3.74975057-4.6444981zm2.78267424-1.0887464c1.23658019.08035972 2.18410529.44977455 2.84257519 1.1082445.6584635.65846354 1.0278776 1.60597656 1.1082422 2.84253906.0179441.27557767-.1909386.51349825-.4665185.53140827l-.0162059.00078943-4.0005178.00026324v-3.98428952c-.00000744-.27614648.22385351-.50000744.5-.50000744.01081681 0 .02163077.00035101.03242481.00105246z" fill-rule="evenodd"/></svg>