<svg viewBox="0 0 16 16" xmlns="http://www.w3.org/2000/svg"><path d="M2.767 2.028a1.044 1.044 0 0 0-.671.559l-.083.173v2.48l.076.163c.095.206.301.411.511.509l.16.075h2.48l.163-.076a1.13 1.13 0 0 0 .509-.511l.075-.16V2.76l-.075-.16a1.13 1.13 0 0 0-.509-.511l-.163-.076-1.187-.004c-.652-.003-1.231.006-1.286.019m4.523.023a.546.546 0 0 0-.178.14c-.066.087-.131.29-.112.352l.025.103c.02.092.157.25.266.307.057.03.176.047.396.055L8 3.02V4l-.3.001c-.235 0-.324.011-.41.05a.507.507 0 0 0-.229.686.707.707 0 0 0 .293.243c.095.026 1.197.026 1.292 0 .093-.026.25-.164.309-.271.04-.073.046-.204.053-1.119.009-1.117-.002-1.245-.119-1.398-.132-.173-.214-.191-.889-.191-.529 0-.613.006-.71.05m3.477-.023a1.044 1.044 0 0 0-.671.559l-.083.173v2.48l.076.163c.095.206.301.411.511.509l.16.075h2.48l.163-.076a1.13 1.13 0 0 0 .509-.511l.075-.16V2.76l-.075-.16a1.13 1.13 0 0 0-.509-.511l-.163-.076-1.187-.004c-.652-.003-1.231.006-1.286.019M4.667 4v.667H3.333V3.333h1.334V4m8 0v.667h-1.334V3.333h1.334V4M7.29 6.051a.51.51 0 0 0-.275.35c-.015.066-.027.448-.028.859V8H6v-.294c0-.399-.056-.532-.272-.642-.094-.048-.182-.051-1.728-.051s-1.634.003-1.728.051c-.247.126-.272.212-.271.942 0 .668.018.751.19.882.087.066.29.131.352.112a2.37 2.37 0 0 1 .103-.025c.092-.02.25-.157.307-.266.03-.057.047-.176.055-.396L3.02 8h1.96l.012.313c.012.328.031.392.151.523.154.166.133.163 1.267.172 1.117.009 1.245-.002 1.398-.119.181-.138.191-.193.191-1.079L8 7.02l.313-.012c.22-.008.339-.025.396-.055.109-.057.246-.215.266-.307L9 6.543c.019-.062-.046-.265-.112-.352-.131-.172-.213-.19-.888-.19-.529 0-.613.006-.71.05m2.99 1.007c-.225.118-.279.242-.279.642L10 8l-.3.001c-.346 0-.475.042-.588.19-.066.087-.131.29-.112.352l.025.103c.02.091.156.248.266.309.075.041.248.046 1.887.053l1.805.007.009.806c.007.697.014.817.053.888.061.11.218.246.309.266l.103.025c.062.019.265-.046.352-.112.187-.143.19-.16.19-1.368.001-.628-.01-1.12-.026-1.175a.47.47 0 0 0-.113-.178c-.138-.134-.25-.167-.563-.167h-.277l-.012-.313c-.013-.338-.038-.418-.172-.545a.508.508 0 0 0-.564-.078c-.216.11-.272.243-.272.642V8h-.98l-.012-.313c-.013-.338-.038-.418-.172-.545a.54.54 0 0 0-.151-.1.621.621 0 0 0-.405.016m-7.513 2.97a1.044 1.044 0 0 0-.671.559l-.083.173v2.48l.076.163c.095.206.301.411.511.509l.16.075h2.48l.163-.076a1.13 1.13 0 0 0 .509-.511l.075-.16v-2.48l-.075-.16a1.13 1.13 0 0 0-.509-.511l-.163-.076-1.187-.004c-.652-.003-1.231.006-1.286.019m4.523.023a.546.546 0 0 0-.178.14c-.066.087-.131.29-.112.352l.025.103c.02.091.156.248.266.309.071.039.191.046.889.053l.807.009V12l-.287.001c-.219 0-.312.012-.394.049a.486.486 0 0 0-.145.807c.123.117.273.156.6.156h.226v.226c0 .327.039.477.156.6.193.203.48.212.686.023a.522.522 0 0 0 .144-.205c.036-.129.036-3.183 0-3.312a.47.47 0 0 0-.113-.178C9.688 10 9.685 10 8.488 10.001c-1.005 0-1.096.004-1.198.05m4 0a.51.51 0 0 0-.275.35c-.036.159-.036 1.028.001 1.199.056.263.3.429.571.388a.542.542 0 0 0 .386-.331c.034-.125.035-1.187 0-1.312-.048-.175-.289-.346-.485-.344a.6.6 0 0 0-.198.05M4.667 12v.667H3.333v-1.334h1.334V12m8.623.051c-.221.101-.302.29-.303.716v.246h-.815c-.659 0-.829.008-.889.039-.102.052-.239.213-.258.302a2.37 2.37 0 0 1-.025.103c-.019.062.046.265.112.352.143.187.16.19 1.368.19.632.001 1.118-.01 1.172-.025a.59.59 0 0 0 .322-.32c.034-.122.034-1.186-.001-1.309-.048-.175-.289-.346-.485-.344a.6.6 0 0 0-.198.05m-5.997.993c-.221.123-.324.336-.274.57.053.25.304.414.571.373.106-.015.152-.042.254-.143.101-.102.128-.148.143-.254a.48.48 0 0 0-.499-.576.574.574 0 0 0-.195.03" fill-rule="evenodd"/></svg>