<svg width="256px" height="256px" viewBox="0 0 256 256" version="1.1">
    <path d="M208,256 L192,256 L192,224 L208,224 L208,256 Z M128,256 L112,256 L112,224 L128,224 L128,256 Z M176,256 L144,256 L144,224 L176,224 L176,256 Z M224,208 L240,208 L240,224 L256,224 L256,256 L224,256 L224,208 Z M0,160 L96,160 L96,256 L0,256 L0,160 Z M80,240 L80,176 L16,176 L16,240 L80,240 Z M64,224 L32,224 L32,192 L64,192 L64,224 Z M192,224 L176,224 L176,208 L192,208 L192,224 Z M144,192 L144,224 L128,224 L128,208 L112,208 L112,192 L144,192 Z M176,208 L160,208 L160,192 L176,192 L176,208 Z M224,208 L192,208 L192,192 L224,192 L224,208 Z M160,192 L144,192 L144,176 L160,176 L160,192 Z M240,176 L224,176 L224,160 L256,160 L256,192 L240,192 L240,176 Z M144,176 L112,176 L112,144 L144,144 L144,176 Z M160,160 L176,160 L176,144 L208,144 L208,176 L160,176 L160,160 Z M80,128 L96,128 L96,112 L112,112 L112,144 L80,144 L80,128 Z M144,128 L128,128 L128,112 L176,112 L176,144 L144,144 L144,128 Z M0,112 L32,112 L32,128 L48,128 L48,144 L0,144 L0,112 Z M224,128 L192,128 L192,112 L256,112 L256,144 L224,144 L224,128 Z M80,128 L48,128 L48,112 L80,112 L80,128 Z M128,112 L112,112 L112,96 L128,96 L128,112 Z M0,0 L96,0 L96,96 L0,96 L0,0 Z M144,96 L128,96 L128,64 L144,64 L144,96 Z M160,0 L256,0 L256,96 L160,96 L160,0 Z M80,80 L80,16 L16,16 L16,80 L80,80 Z M240,80 L240,16 L176,16 L176,80 L240,80 Z M64,64 L32,64 L32,32 L64,32 L64,64 Z M224,64 L192,64 L192,32 L224,32 L224,64 Z M128,0 L128,16 L144,16 L144,48 L128,48 L128,64 L112,64 L112,0 L128,0 Z" id="Path"></path>
</svg>