<svg viewBox="0 0 11 11" xmlns="http://www.w3.org/2000/svg"><path d="M4.858.012a5.49 5.49 0 0 0-1.267.244A5.194 5.194 0 0 0 .054 4.437a5.977 5.977 0 0 0-.029 1.281c.138 1.226.647 2.293 1.504 3.147a5.098 5.098 0 0 0 3.659 1.514 5.106 5.106 0 0 0 1.828-.324 5.634 5.634 0 0 0 1.5-.876 6.88 6.88 0 0 0 .724-.736 5.362 5.362 0 0 0 .944-1.824 5.343 5.343 0 0 0 .126-2.3 5.13 5.13 0 0 0-1.437-2.78A5.13 5.13 0 0 0 5.601.019a6.022 6.022 0 0 0-.743-.007m.863 2.45c.365.095.65.25.907.494.345.326.53.71.553 1.151.045.86-.561 1.596-1.509 1.833-.072.018-.077.023-.089.101a.429.429 0 0 1-.21.282.395.395 0 0 1-.505-.124l-.055-.079-.006-.317c-.005-.287-.002-.325.03-.389.077-.149.185-.207.423-.226.346-.028.596-.128.807-.323.252-.234.358-.499.313-.79-.077-.499-.581-.871-1.182-.871-.385 0-.672.111-.924.357-.198.194-.26.353-.277.702-.015.33-.057.42-.239.514-.128.067-.318.036-.437-.072-.118-.107-.154-.321-.114-.673.093-.809.719-1.435 1.606-1.602.227-.043.681-.027.908.032M5.44 7.261a.606.606 0 0 1 .272.274c.049.096.058.336.016.461a.669.669 0 0 1-.356.355.605.605 0 0 1-.748-.317.6.6 0 0 1 .228-.749.58.58 0 0 1 .588-.024" fill-rule="evenodd"/></svg>
