<svg xmlns="http://www.w3.org/2000/svg" viewBox="0 0 16 16"><path d="M7.368 2.041c-.766.094-1.311.252-1.968.571a5.524 5.524 0 0 0-1.695 1.219A5.953 5.953 0 0 0 2.232 9.64c.48 1.68 1.741 3.136 3.31 3.825 1.179.517 2.365.659 3.572.426a5.954 5.954 0 0 0 3.195-1.734 5.754 5.754 0 0 0 1.372-2.263 5.8 5.8 0 0 0 0-3.788 5.67 5.67 0 0 0-1.386-2.275c-.53-.544-.991-.875-1.695-1.219a5.35 5.35 0 0 0-1.293-.462c-.541-.12-1.436-.17-1.939-.109m1.285 1.268c.639.069 1.392.354 2.007.76.319.21 1.059.95 1.269 1.268.328.497.6 1.142.728 1.73.041.188.05.343.05.92 0 .757-.013.864-.163 1.363a4.757 4.757 0 0 1-2.877 3.09c-2.723 1.015-5.672-.601-6.312-3.458-.056-.25-.062-.34-.062-.982 0-.642.006-.732.062-.982a5.192 5.192 0 0 1 .702-1.658c.122-.187.282-.37.608-.695.487-.488.726-.664 1.242-.917.868-.426 1.672-.555 2.746-.439M7.44 5.042a2.403 2.403 0 0 0-.817.268c-.424.252-.689.719-.598 1.056a.528.528 0 0 0 .244.315c.098.051.353.05.462-.001.046-.023.181-.128.298-.235a1.94 1.94 0 0 1 .311-.24c.235-.112.606-.122.831-.022.273.121.405.33.384.614-.016.225-.114.368-.436.638-.677.569-.836.744-.922 1.02-.16.516.073.907.539.904.237-.001.455-.17.622-.483.148-.276.259-.395.71-.757.607-.486.802-.73.892-1.111a1.708 1.708 0 0 0-.126-1.061c-.12-.255-.418-.541-.714-.686-.287-.141-.492-.193-.879-.223a3.723 3.723 0 0 0-.801.004m.1 4.851a.715.715 0 0 0-.544.581c-.034.288.121.548.412.691.132.065.183.075.381.074.194-.001.251-.012.379-.075.516-.253.546-.929.054-1.197-.15-.081-.459-.115-.682-.074" fill-rule="evenodd"/></svg>