<svg xmlns="http://www.w3.org/2000/svg" width="24" height="24" viewBox="0 0 24 24">
    <path d="M2 15.923c0-2.654 2.095-4.788 4.637-4.788h10.698c1.592 0 2.905-1.356 2.905-3 0-1.645-1.313-3-2.905-3H9.346l1.676 1.73c.335.347.335.923 0 1.27-.167.173-.39.26-.614.26-.224 0-.447-.087-.615-.26L6.581 4.817c-.335-.346-.335-.923 0-1.269L9.765.26c.336-.347.894-.347 1.23 0 .335.346.335.923 0 1.269L9.262 3.346h8.1C19.933 3.346 22 5.51 22 8.135c0 2.625-2.095 4.788-4.637 4.788H6.637c-1.592 0-2.905 1.356-2.905 3s1.313 3 2.905 3h6.927l-1.732-1.788c-.335-.347-.335-.924 0-1.27.336-.346.894-.346 1.23 0l3.184 3.289c.335.346.335.923 0 1.27l-3.184 3.316c-.168.174-.392.26-.615.26-.223 0-.447-.087-.615-.26-.335-.346-.335-.923 0-1.269l1.704-1.76h-6.9C4.096 20.712 2 18.549 2 15.924z"/>
</svg>
