<svg viewBox="0 0 16 16" xmlns="http://www.w3.org/2000/svg"><path d="M7.853 2.025c-.216.037-.434.211-.542.432l-.058.12-.003 2.371a156.216 156.216 0 0 1-.02 2.764l-.017.392L6.005 6.92c-.673-.66-1.279-1.232-1.369-1.292-.154-.103-.172-.108-.366-.107-.231 0-.361.047-.52.186a.698.698 0 0 0-.241.533c-.001.233.047.316.401.698.259.28 3.601 3.58 3.95 3.901l.14.128.246-.229a262.02 262.02 0 0 0 3.833-3.789c.411-.438.476-.584.39-.877-.088-.303-.334-.518-.624-.544-.271-.025-.387.006-.559.149-.084.07-.681.644-1.326 1.276L8.787 8.102l-.017-.378c-.009-.207-.019-1.313-.021-2.457-.005-2.236-.022-2.751-.093-2.888-.054-.104-.277-.285-.396-.321a.955.955 0 0 0-.407-.033M4.864 12.53c-.357.016-.382.021-.506.097a.754.754 0 0 0-.35.697c.016.158.068.27.197.43.127.155.206.19.508.219.342.034 6.232.034 6.574 0 .302-.029.381-.064.508-.219.129-.16.181-.272.197-.43a.755.755 0 0 0-.346-.697l-.144-.095-3.131-.01c-1.722-.005-3.3-.002-3.507.008" fill-rule="evenodd"/></svg>