<svg xmlns="http://www.w3.org/2000/svg" viewBox="0 0 21 20" fill-rule="evenodd"><path d="M10.202 2.445c-.15.069-.351.274-.404.414-.02.052-.033 2.481-.033 6.147v6.061l-2.231-2.23c-1.551-1.549-2.271-2.246-2.362-2.283-.638-.265-1.263.4-.955 1.015.116.233 5.777 5.899 5.976 5.982a.936.936 0 0 0 .614 0c.199-.083 5.86-5.749 5.976-5.982.308-.615-.317-1.279-.955-1.015-.091.037-.811.734-2.362 2.283l-2.231 2.23V9.006c0-3.666-.013-6.095-.033-6.147-.053-.14-.254-.345-.404-.414a.858.858 0 0 0-.298-.063.858.858 0 0 0-.298.063"/></svg>