<svg height="16" viewBox="0 0 16 16" width="16" xmlns="http://www.w3.org/2000/svg"><path d="m11.25 12.5c.4142136 0 .75.3357864.75.75s-.3357864.75-.75.75h-6.5c-.41421356 0-.75-.3357864-.75-.75s.33578644-.75.75-.75zm-3.25-10.5c.41421356 0 .75.33578644.75.75v5.396l2.458856-2.42724372c.2685155-.26515913.6886984-.2892645.9847898-.07231613l.0848289.07231613c.2953671.29167503.2953671.76457371 0 1.05624874l-4.2784747 4.22499498-4.27847472-4.22499498c-.29536704-.29167503-.29536704-.76457371 0-1.05624874.29536704-.29167504.77425164-.29167504 1.06961868 0l2.45885604 2.42924372v-5.398c0-.41421356.33578644-.75.75-.75z" fill-rule="evenodd"/></svg>