<svg viewBox="0 0 48 48" xmlns="http://www.w3.org/2000/svg" xml:space="preserve" style="fill-rule:evenodd;clip-rule:evenodd;stroke-linejoin:round;stroke-miterlimit:2"><path d="M22.24 7.973c-1.476.231-1.935.324-2.72.549-2.022.579-4.065 1.653-5.76 3.028-.33.268-1.652 1.527-2.937 2.799L8.485 16.66l-.022-3.096-.023-3.096-.299-.274c-.239-.219-.365-.274-.627-.274-.391 0-.723.178-.903.483-.117.198-.131.695-.131 4.659 0 4.378.002 4.439.167 4.649.361.459.253.449 4.912.449 3.549 0 4.334-.02 4.562-.115.657-.275.788-1.128.248-1.622l-.287-.263H9.881l2.28-2.286c1.253-1.258 2.531-2.495 2.839-2.749a14.411 14.411 0 0 1 6.286-2.98c.795-.161 1.149-.185 2.714-.185s1.919.024 2.714.185c5.661 1.147 9.994 5.48 11.141 11.141.161.795.185 1.149.185 2.714s-.024 1.919-.185 2.714c-1.564 7.722-9.004 12.685-16.673 11.122-2.532-.516-4.826-1.695-6.804-3.497-.667-.608-.938-.724-1.366-.583-.395.13-.624.415-.671.836-.052.462.065.645.899 1.404 2.287 2.08 5.256 3.469 8.483 3.968 1.18.183 3.374.183 4.554 0 5.792-.896 10.55-4.636 12.677-9.964.796-1.993 1.148-3.833 1.148-6s-.352-4.007-1.148-6c-1.905-4.772-6.09-8.423-11.034-9.627-1.419-.345-2.407-.454-4.01-.442-.809.006-1.56.025-1.67.042"/></svg>