<svg width="100%" height="100%" viewBox="0 0 48 48" version="1.1" xmlns="http://www.w3.org/2000/svg" xmlns:xlink="http://www.w3.org/1999/xlink" xml:space="preserve" xmlns:serif="http://www.serif.com/" style="fill-rule:evenodd;clip-rule:evenodd;stroke-linejoin:round;stroke-miterlimit:2;">
    <path d="M15.722,18.139L8.472,18.139C8.472,18.139 8.472,10.889 8.472,10.889C8.472,10.337 8.024,9.889 7.472,9.889C6.92,9.889 6.472,10.337 6.472,10.889L6.472,19.139C6.472,19.691 6.92,20.139 7.472,20.139L15.722,20.139C16.274,20.139 16.722,19.691 16.722,19.139C16.722,18.587 16.274,18.139 15.722,18.139Z" />
    <path d="M12.598,35.402C14.854,37.657 17.726,39.193 20.855,39.816C20.855,39.816 20.855,39.816 20.855,39.816C23.982,40.437 27.225,40.118 30.171,38.898C30.171,38.898 30.171,38.898 30.171,38.898C33.117,37.677 35.636,35.61 37.407,32.959C39.179,30.307 40.126,27.189 40.126,24C40.126,20.811 39.179,17.693 37.407,15.041C35.636,12.39 33.117,10.323 30.171,9.103C27.225,7.882 23.982,7.563 20.855,8.185C17.727,8.807 14.853,10.343 12.598,12.598L6.765,18.432C6.375,18.822 6.375,19.456 6.765,19.846C7.155,20.236 7.789,20.236 8.179,19.846L14.012,14.012C15.987,12.037 18.505,10.691 21.245,10.147C21.245,10.147 21.245,10.147 21.245,10.147C23.984,9.601 26.825,9.882 29.405,10.951C29.405,10.951 29.405,10.951 29.406,10.951C31.987,12.019 34.192,13.83 35.745,16.153C37.297,18.475 38.126,21.207 38.126,24C38.126,26.793 37.297,29.525 35.745,31.847C34.192,34.17 31.987,35.981 29.405,37.05C26.825,38.118 23.984,38.399 21.245,37.854C18.504,37.309 15.988,35.963 14.012,33.988C13.622,33.598 12.988,33.598 12.598,33.988C12.208,34.378 12.208,35.012 12.598,35.402Z" />
</svg>
