<svg xmlns="http://www.w3.org/2000/svg" viewBox="2.25 2.18 10.98 11.57"><path d="M12.485 2.185a.74.74 0 0 1 .747.747l-.037 4.013-4.013.037a.74.74 0 0 1-.747-.747.763.763 0 0 1 .756-.756l1.652-.02c-.43-.738-.725-1.061-1.178-1.288A3.955 3.955 0 0 0 6.9 3.895 4.247 4.247 0 0 0 3.895 9.1a4.234 4.234 0 0 0 1.989 2.586 4.233 4.233 0 0 0 3.216.42 4.228 4.228 0 0 0 2.29-1.542.75.75 0 0 1 1.197.904 5.728 5.728 0 0 1-3.099 2.086 5.733 5.733 0 0 1-4.351-.567 5.733 5.733 0 0 1-2.691-3.499 5.747 5.747 0 0 1 4.066-7.042 5.455 5.455 0 0 1 3.823.383c.583.292.98.64 1.382 1.21l.012-1.098a.763.763 0 0 1 .756-.756z" fill-rule="evenodd"/></svg>
