<?xml version="1.0" encoding="UTF-8"?>
<svg width="240px" height="256px" viewBox="0 0 240 256" version="1.1" xmlns="http://www.w3.org/2000/svg" xmlns:xlink="http://www.w3.org/1999/xlink">
    <path d="M37.696,108.656 C46.336,67.536 82.896,37.488 124.656,37.488 C140.48,37.488 155.616,41.84 168.944,49.696 C172.272,51.664 175.344,54.032 178.416,56.448 L144,90.816 L240,107.344 L224,8.208 L204.8,29.216 C201.84,26.704 198.768,24.352 195.632,22.144 C175.168,7.808 150.672,0 124.672,0 C63.84,0 12.112,44.656 1.68,105.184 L0,115.632 L36.336,115.632 L37.696,108.656 Z M202.304,147.344 C193.664,188.464 157.104,218.512 115.344,218.512 C99.52,218.512 84.384,214.16 71.056,206.304 C67.744,204.336 64.656,201.968 61.584,199.552 L96,165.184 L-5.68434189e-14,148.656 L16,247.792 L35.2,226.784 C38.16,229.296 41.216,231.632 44.368,233.856 C64.832,248.192 89.328,256 115.344,256 C176.176,256 227.904,211.344 238.336,150.816 L240,140.384 L203.664,140.384 L202.304,147.344 L202.304,147.344 Z"></path>
</svg>