<svg height="16" viewBox="0 0 16 16" width="16" xmlns="http://www.w3.org/2000/svg"><path d="m7 2c2.76142375 0 5 2.23857625 5 5 0 1.11034691-.3619288 2.13616082-.9742478 2.96590304l2.333005 2.33219396c.2928932.2928933.2928932.767767 0 1.0606602s-.7677669.2928932-1.0606602 0l-2.33219396-2.333005c-.82974222.612319-1.85555613.9742478-2.96590304.9742478-2.76142375 0-5-2.23857625-5-5s2.23857625-5 5-5zm0 1.5c-1.93299662 0-3.5 1.56700338-3.5 3.5s1.56700338 3.5 3.5 3.5 3.5-1.56700338 3.5-3.5-1.56700338-3.5-3.5-3.5z" fill-rule="evenodd"/></svg>