<svg viewBox="0 0 16 16" xmlns="http://www.w3.org/2000/svg"><path d="M6.493 2.032c-1.811.184-3.462 1.42-4.119 3.082-.387.98-.471 1.971-.251 2.963a4.874 4.874 0 0 0 1.387 2.485 4.874 4.874 0 0 0 2.917 1.398c.73.087 1.447.012 2.16-.225.447-.149.714-.283 1.367-.686.011-.007.569.531 1.24 1.196.758.752 1.26 1.229 1.326 1.262.08.039.161.053.32.053.184-.001.231-.011.338-.073.346-.203.488-.627.325-.972-.03-.062-.482-.54-1.169-1.236-.616-.624-1.16-1.176-1.208-1.228l-.087-.095.108-.166a5.23 5.23 0 0 0 .779-1.95c.078-.413.083-1.181.011-1.613-.094-.561-.336-1.257-.593-1.7a5.589 5.589 0 0 0-1.172-1.382 5.066 5.066 0 0 0-3.679-1.113M7.59 3.561c.347.06.628.152.958.315.383.19.638.373.933.669.656.66.999 1.503.999 2.453a3.26 3.26 0 0 1-.379 1.597 3.505 3.505 0 0 1-2.285 1.806c-.406.101-1.137.114-1.537.026a3.588 3.588 0 0 1-1.973-1.208 3.395 3.395 0 0 1-.786-2.237c0-.863.278-1.606.849-2.275a3.568 3.568 0 0 1 1.994-1.144 4.89 4.89 0 0 1 1.227-.002" fill-rule="evenodd"/></svg>