<svg viewBox="0 0 24 24" fill-rule="evenodd" xmlns="http://www.w3.org/2000/svg"><path d="M9.82 2.325a8.921 8.921 0 0 0-3.66 1.343 8.648 8.648 0 0 0-3.839 6.211c-.053.439-.053 1.568.001 2.002a8.641 8.641 0 0 0 3.785 6.168c.502.336 1.43.787 2.028.986a8.66 8.66 0 0 0 5.479.003 9.005 9.005 0 0 0 2.486-1.316l.318-.243 2.081 2.076c1.145 1.142 2.139 2.106 2.209 2.141.312.156.719.013.935-.327a.666.666 0 0 0 .053-.661c-.035-.07-.999-1.064-2.141-2.209l-2.076-2.081.243-.318c2.416-3.15 2.33-7.615-.206-10.708-1.388-1.693-3.414-2.797-5.635-3.07-.399-.049-1.66-.047-2.061.003m1.96 1.48c1.526.179 3.003.907 4.135 2.04a7.016 7.016 0 0 1 2.084 5.005c.004 2.745-1.514 5.19-3.989 6.426-1.71.854-3.794.959-5.61.283a7.148 7.148 0 0 1-4.437-4.939c-.287-1.153-.281-2.463.017-3.56.346-1.274.937-2.297 1.86-3.22 1.585-1.585 3.675-2.301 5.94-2.035"/></svg>