<svg viewBox="0 0 48 49" xmlns="http://www.w3.org/2000/svg" xml:space="preserve" style="fill-rule:evenodd;clip-rule:evenodd;stroke-linejoin:round;stroke-miterlimit:2"><path d="M13.724 7.767c-.39.343-.507.757-.323 1.144.077.161.222.358.323.438.176.138.862.147 14.646.201 7.954.031 14.48.074 14.503.096.022.022.062 4.746.09 10.497.037 7.541.076 10.518.142 10.677.118.285.54.539.895.539.354 0 .777-.254.896-.539.068-.161.102-3.062.126-10.826l.034-10.607-.241-.478c-.252-.499-.75-1.015-1.119-1.161-.404-.16-4.988-.219-17.353-.223L14.006 7.52l-.282.247m-4 4c-.39.343-.507.757-.323 1.144.077.161.222.358.323.438.176.138.862.147 14.646.201 7.954.031 14.48.074 14.503.096.022.022.062 4.746.09 10.497.037 7.541.076 10.518.142 10.677.118.285.54.539.895.539.354 0 .777-.254.896-.539.068-.161.102-3.062.126-10.826l.034-10.607-.241-.478c-.252-.499-.75-1.015-1.119-1.161-.404-.16-4.988-.219-17.353-.223l-12.337-.005-.282.247m2.076 3.832-6.24.041-.338.181c-.43.229-.856.654-1.063 1.062-.162.316-.163.399-.141 11.178.024 11.759-.006 11.028.472 11.632.391.493.831.704 1.644.79.406.043 6.74.075 14.889.076l14.182.001.395-.2c.542-.274.93-.633 1.205-1.114l.233-.406.001-10.742.001-10.743-.233-.462c-.245-.485-.745-1-1.111-1.146-.513-.204-8.2-.252-23.896-.148m23.12 7.381c.067 6.13.028 15.331-.066 15.48-.05.079-3.004.1-14.332.1-7.848 0-14.326-.022-14.395-.049-.115-.043-.127-.972-.127-9.7.001-5.308.024-10.002.052-10.431l.052-.78h28.757l.059 5.38m-25.492-.24c-.644.545-.466 1.52.317 1.737.408.113 22.102.113 22.51 0 .603-.167.886-.855.589-1.429-.272-.526.659-.488-11.861-.488l-11.343.001-.212.179m2.114 4.857-2.019.043-.207.208c-.399.398-.339 1.181.112 1.488.202.137.768.144 11.572.144 10.804 0 11.37-.007 11.572-.144.451-.307.511-1.09.112-1.488l-.207-.208-1.979-.051c-2.325-.061-16.035-.055-18.956.008m-2.114 5.138c-.612.532-.497 1.414.223 1.715.216.09 1.359.11 6.366.109 3.357-.001 6.422-.035 6.812-.076.799-.084.962-.181 1.104-.653.075-.252.067-.367-.047-.665-.114-.298-.188-.377-.432-.453-.209-.066-2.242-.103-7.054-.127l-6.76-.035-.212.185"/></svg>