<svg width="100%" height="100%" viewBox="0 0 48 49" version="1.1" xmlns="http://www.w3.org/2000/svg" xmlns:xlink="http://www.w3.org/1999/xlink" xml:space="preserve" xmlns:serif="http://www.serif.com/" style="fill-rule:evenodd;clip-rule:evenodd;stroke-linejoin:round;stroke-miterlimit:2;">
    <path d="M34.708,15.5L6.292,15.5C4.995,15.5 4,16.496 4,17.65C4,17.65 4,38.35 4,38.35C4,39.504 4.995,40.5 6.292,40.5L34.708,40.5C36.005,40.5 37,39.504 37,38.35L37,17.65C37,16.496 36.005,15.5 34.708,15.5ZM34.708,17.5C34.844,17.5 35,17.529 35,17.65C35,17.65 35,38.35 35,38.35C35,38.471 34.844,38.5 34.708,38.5C34.708,38.5 6.292,38.5 6.292,38.5C6.156,38.5 6,38.471 6,38.35L6,17.65C6,17.529 6.156,17.5 6.292,17.5L34.708,17.5Z" />
    <path d="M33,23.5C33,22.948 32.552,22.5 32,22.5L10,22.5C9.448,22.5 9,22.948 9,23.5C9,24.052 9.448,24.5 10,24.5L32,24.5C32.552,24.5 33,24.052 33,23.5Z" />
    <path d="M33,28.5C33,27.948 32.552,27.5 32,27.5L10,27.5C9.448,27.5 9,27.948 9,28.5C9,29.052 9.448,29.5 10,29.5L32,29.5C32.552,29.5 33,29.052 33,28.5Z" />
    <path d="M24,33.5C24,32.948 23.552,32.5 23,32.5L10,32.5C9.448,32.5 9,32.948 9,33.5C9,34.052 9.448,34.5 10,34.5L23,34.5C23.552,34.5 24,34.052 24,33.5Z" />
    <path d="M10.291,13.5L38.708,13.5C38.844,13.5 39,13.529 39,13.65C39,13.65 39,34.35 39,34.35C39,34.902 39.448,35.35 40,35.35C40.552,35.35 41,34.902 41,34.35L41,13.65C41,12.496 40.005,11.5 38.708,11.5C38.708,11.5 10.291,11.5 10.291,11.5C9.739,11.5 9.291,11.948 9.291,12.5C9.291,13.052 9.739,13.5 10.291,13.5Z" />
    <path d="M14.291,9.5L42.708,9.5C42.844,9.5 43,9.529 43,9.65C43,9.65 43,30.35 43,30.35C43,30.902 43.448,31.35 44,31.35C44.552,31.35 45,30.902 45,30.35L45,9.65C45,8.496 44.005,7.5 42.708,7.5L14.291,7.5C13.739,7.5 13.291,7.948 13.291,8.5C13.291,9.052 13.739,9.5 14.291,9.5Z" />
</svg>
