<svg viewBox="0 0 48 49" xmlns="http://www.w3.org/2000/svg" xml:space="preserve" style="fill-rule:evenodd;clip-rule:evenodd;stroke-linejoin:round;stroke-miterlimit:2"><path d="M6.52 8.772c-.493.252-1.037.763-1.264 1.188-.159.297-.176.482-.226 2.56-.079 3.303-.073 21.744.009 24.16.039 1.144.109 2.206.156 2.36.107.347.823 1.102 1.191 1.256.52.217 3.292.258 17.614.258 14.322 0 17.094-.041 17.614-.258.368-.154 1.084-.909 1.191-1.256.047-.154.118-1.234.156-2.4.081-2.463.088-20.721.009-24.08-.05-2.12-.066-2.302-.225-2.6-.233-.434-.777-.94-1.282-1.192l-.418-.208-17.062.004-17.063.003-.4.205m34.341 1.903c.033.032.059 6.264.059 13.848 0 11.206-.019 13.808-.104 13.893-.084.084-2.976.109-15.36.131-14.651.026-18.022-.002-18.265-.152-.094-.059-.111-2.155-.111-13.825 0-7.566.03-13.787.067-13.823.036-.037 1.152-.089 2.48-.115 3.364-.067 31.163-.029 31.234.043m-26.999 4.922-2.339.043-.207.208c-.399.398-.339 1.181.112 1.488.202.137.837.145 12.902.165 10.063.017 12.754 0 12.997-.08.698-.23.875-1.051.334-1.548l-.27-.247-2.475-.053c-2.765-.059-17.43-.042-21.054.024m-2.434 5.138c-.287.249-.388.473-.388.854 0 .401.293.773.706.895.207.06 4.032.079 12.894.061 11.697-.023 12.618-.035 12.849-.161.266-.146.511-.567.511-.876-.001-.247-.264-.672-.496-.799-.146-.08-2.855-.108-13.024-.131l-12.84-.029-.212.186m2.434 4.862-2.339.043-.207.208c-.399.398-.339 1.181.112 1.488.202.137.837.145 12.902.165 10.063.017 12.754 0 12.997-.08.698-.23.875-1.051.334-1.548l-.27-.247-2.548-.053c-2.841-.059-17.347-.043-20.981.024m-2.434 5.138c-.612.532-.497 1.414.223 1.715.218.091 1.502.11 7.326.108 3.885-.001 7.399-.035 7.811-.075.841-.081 1-.172 1.145-.653.075-.252.067-.367-.047-.665-.114-.298-.189-.377-.432-.454-.212-.067-2.46-.102-8.054-.127l-7.76-.033-.212.184"/></svg>