<svg width="100%" height="100%" viewBox="0 0 48 49" version="1.1" xmlns="http://www.w3.org/2000/svg" xmlns:xlink="http://www.w3.org/1999/xlink" xml:space="preserve" xmlns:serif="http://www.serif.com/" style="fill-rule:evenodd;clip-rule:evenodd;stroke-linejoin:round;stroke-miterlimit:2;">
    <path d="M40.502,8.5L7.502,8.5C6.12,8.5 5.002,9.62 5.002,11L5.002,38C5.002,39.38 6.12,40.5 7.502,40.5L40.502,40.5C41.882,40.5 43.002,39.38 43.002,38C43.002,38 43.002,11 43.002,11C43.002,9.62 41.882,8.5 40.502,8.5ZM40.502,10.5C40.778,10.5 41.002,10.724 41.002,11L41.002,38C41.002,38.276 40.778,38.5 40.502,38.5C40.502,38.5 7.502,38.5 7.502,38.5C7.226,38.5 7.002,38.276 7.002,38C7.002,38 7.002,11 7.002,11C7.002,10.724 7.226,10.5 7.502,10.5L40.502,10.5Z"/>
    <path d="M38,16.5C38,15.948 37.552,15.5 37,15.5L12,15.5C11.448,15.5 11,15.948 11,16.5C11,17.052 11.448,17.5 12,17.5L37,17.5C37.552,17.5 38,17.052 38,16.5Z" />
    <path d="M38,21.5C38,20.948 37.552,20.5 37,20.5L12,20.5C11.448,20.5 11,20.948 11,21.5C11,22.052 11.448,22.5 12,22.5L37,22.5C37.552,22.5 38,22.052 38,21.5Z" />
    <path d="M38,26.5C38,25.948 37.552,25.5 37,25.5L12,25.5C11.448,25.5 11,25.948 11,26.5C11,27.052 11.448,27.5 12,27.5L37,27.5C37.552,27.5 38,27.052 38,26.5Z" />
    <path d="M28,31.5C28,30.948 27.552,30.5 27,30.5L12,30.5C11.448,30.5 11,30.948 11,31.5C11,32.052 11.448,32.5 12,32.5L27,32.5C27.552,32.5 28,32.052 28,31.5Z" />
</svg>
