<svg viewBox="0 0 16 16" xmlns="http://www.w3.org/2000/svg"><path d="M6.92 3.06 4.727 5.238C3.493 6.464 3.506 6.447 3.507 6.76a.75.75 0 0 0 .499.695.859.859 0 0 0 .581-.035c.086-.042.487-.42 1.378-1.3a75.706 75.706 0 0 1 1.272-1.24c.009 0 .019 1.257.023 2.793l.007 2.794.083.146a.745.745 0 0 0 .486.361.487.487 0 0 0 .324.002.747.747 0 0 0 .441-.283c.15-.217.143-.083.144-3.075l.002-2.769 1.271 1.255c.908.897 1.307 1.273 1.394 1.315a.856.856 0 0 0 .582.036.75.75 0 0 0 .499-.695c.001-.311.013-.296-1.206-1.507C8.388 2.373 8.012 2 8 2c-.008 0-.493.477-1.08 1.06M4.5 12.545a.777.777 0 0 0-.5.694c0 .211.072.384.225.536C4.467 14.017 4.18 14 8 14s3.533.017 3.775-.225c.359-.359.278-.918-.171-1.182l-.124-.073-3.44-.006c-2.827-.004-3.458.001-3.54.031" fill-rule="evenodd"/></svg>