<svg xmlns="http://www.w3.org/2000/svg" viewBox="0 0 21 20" fill-rule="evenodd">
<path d="M10.343 2.447c-.199.093-5.909 5.815-5.984 5.996-.06.145-.071.432-.021.563.053.14.254.345.404.414a.765.765 0 0 0 .613-.007c.121-.055.671-.584 2.353-2.265l2.196-2.194.009 6.054.01 6.055.094.16a.746.746 0 0 0 1.328-.055c.061-.134.063-.414.064-6.195l.001-6.055 2.231 2.23c1.555 1.554 2.271 2.246 2.362 2.283.254.105.599.048.791-.131a.817.817 0 0 0 .217-.761c-.038-.143-.294-.41-2.987-3.105-1.62-1.622-2.996-2.973-3.057-3.002-.152-.072-.454-.065-.624.015"/>
</svg>