<svg viewBox="0 0 16 16" xmlns="http://www.w3.org/2000/svg"><path d="M7.029 1.084a1.564 1.564 0 0 0-.733.565c-.093.145-.191.468-.257.846l-.047.268-.152.059-.152.059-.297-.202c-.438-.297-.596-.364-.894-.379a1.32 1.32 0 0 0-.737.143c-.155.078-.263.171-.664.572-.698.698-.818.904-.814 1.398.004.389.075.551.507 1.155l.101.142-.048.141-.048.141-.417.085c-.511.103-.728.2-.959.427a1.345 1.345 0 0 0-.272.384c-.107.215-.113.244-.137.569-.031.421-.004 1.247.048 1.449.082.316.353.656.644.809.186.098.537.201.873.257l.187.031.058.148.059.149-.153.217c-.244.345-.321.477-.379.645-.119.347-.088.73.085 1.056.135.253.951 1.102 1.262 1.313.27.183.823.243 1.139.124.16-.061.463-.249.72-.446l.152-.117.143.071.143.07.062.337c.104.574.207.796.491 1.064.225.212.477.322.821.357.399.041 1.329.014 1.516-.044.37-.114.676-.355.825-.649.087-.174.188-.526.243-.848.032-.187.034-.19.15-.246a.54.54 0 0 1 .169-.057c.029 0 .152.07.273.155.545.386.87.485 1.295.395.377-.08.448-.129 1.019-.705.737-.744.805-.86.804-1.393-.001-.393-.042-.507-.351-.969l-.233-.348.059-.132.058-.132.425-.091c.534-.113.711-.192.927-.416.201-.206.32-.403.383-.631.04-.148.047-.287.047-.962v-.789l-.112-.226a1.394 1.394 0 0 0-.901-.753 7.16 7.16 0 0 0-.413-.084 1.269 1.269 0 0 1-.289-.073.746.746 0 0 1-.101-.159l-.065-.129.155-.219c.368-.52.444-.705.445-1.086a1.186 1.186 0 0 0-.243-.776c-.199-.271-1.025-1.07-1.202-1.164a1.29 1.29 0 0 0-.659-.166c-.386.001-.585.08-1.046.416l-.272.198-.144-.064-.144-.064-.032-.197c-.072-.444-.165-.764-.267-.922a1.565 1.565 0 0 0-.577-.514l-.183-.094-.882-.005c-.727-.004-.904.002-1.012.036m1.566 1.723c.095.57.171.883.234.964.033.042.156.106.338.176.158.06.448.181.647.267.198.086.416.171.485.19.159.042.195.026.608-.272.576-.417.638-.455.695-.424.029.015.207.178.396.361l.345.334-.319.445a6.96 6.96 0 0 0-.389.59l-.072.144.069.189c.149.411.51 1.26.569 1.338.046.061.104.095.217.126.136.038.645.136.991.192.064.01.141.043.171.073.052.052.054.074.036.519-.01.255-.025.479-.032.497-.007.019-.134.054-.298.081-.498.082-.942.176-1.018.216-.1.052-.143.124-.279.473-.064.165-.176.439-.249.607-.18.414-.201.484-.169.568.044.115.233.414.501.789l.255.356-.361.361c-.356.356-.363.361-.438.33a6.74 6.74 0 0 1-.515-.338c-.545-.378-.578-.39-.819-.298-.546.209-1.298.527-1.343.568-.073.066-.141.317-.24.878-.046.264-.098.488-.114.499-.017.011-.26.02-.54.02l-.509.001-.06-.367c-.086-.528-.155-.852-.202-.951-.052-.109-.138-.157-.667-.372l-.663-.272c-.292-.12-.32-.115-.688.141l-.498.347c-.132.092-.25.167-.264.167-.033 0-.569-.509-.67-.637l-.081-.101.323-.465c.366-.526.434-.657.411-.78a3.31 3.31 0 0 0-.151-.39c-.075-.169-.19-.445-.256-.614-.143-.366-.202-.468-.303-.52-.074-.039-.675-.166-1.069-.228l-.202-.031-.018-.241a9.754 9.754 0 0 1-.017-.542v-.3l.074-.015c.04-.008.278-.052.53-.096.542-.096.706-.142.796-.221.042-.037.134-.225.25-.512.101-.25.227-.55.28-.667.106-.236.119-.357.055-.518a5.886 5.886 0 0 0-.373-.568 11.21 11.21 0 0 1-.331-.474 6.503 6.503 0 0 1 .371-.385l.371-.37.487.342c.268.189.533.359.589.378.139.048.257.018.694-.174.194-.086.468-.199.608-.253.376-.144.414-.185.49-.525.034-.154.09-.451.124-.66l.061-.38h1.074l.072.434M7.36 5.08a3.138 3.138 0 0 0-1.811 1.213c-.422.602-.581 1.233-.513 2.034.06.71.411 1.392.98 1.906.358.323.75.53 1.262.668.229.061.304.068.735.068.436 0 .505-.006.746-.071a3.15 3.15 0 0 0 1.727-1.235c.161-.233.334-.615.413-.909.064-.235.071-.309.072-.754.002-.46-.003-.511-.072-.76a3.028 3.028 0 0 0-1.66-1.95c-.406-.193-.584-.229-1.186-.24-.386-.006-.564.001-.693.03m1.062 1.242c.28.047.677.293.894.553.142.171.273.399.337.589.051.152.056.218.049.59l-.009.418-.129.26c-.216.436-.559.75-.998.916-.16.061-.22.068-.553.07-.322.002-.397-.006-.55-.059-.545-.189-1.031-.711-1.14-1.227a3.288 3.288 0 0 1 0-.864c.097-.471.554-.99 1.045-1.189.264-.107.644-.127 1.054-.057" fill-rule="evenodd"/></svg>