<svg width="24" height="24" fill="none" xmlns="http://www.w3.org/2000/svg"><path d="M4.05 3.582c-.327.088-.53.21-.785.47-.264.27-.41.55-.466.895-.052.313-.05 6.085.002 6.773.119 1.597.421 2.844 1.016 4.204 1.218 2.78 3.756 5.146 6.92 6.454.862.355 1.292.417 1.809.257.94-.289 2.149-.887 3.174-1.569 3.036-2.02 4.874-4.874 5.375-8.346.127-.882.151-1.702.138-4.8-.013-3.021-.014-3.063-.099-3.269a1.906 1.906 0 0 0-1.004-1.018l-.23-.093-7.82-.008c-6.647-.006-7.851.001-8.03.05M19.272 8c.017 3.794-.056 4.693-.498 6.089-.824 2.602-2.732 4.726-5.488 6.108-.449.226-1.181.523-1.287.523-.179 0-1.232-.471-1.891-.846-2.741-1.558-4.534-3.905-5.126-6.71-.219-1.04-.229-1.227-.25-4.515-.011-1.678-.01-3.077.003-3.11.02-.052.903-.058 7.274-.049l7.251.01.012 2.5" fill-rule="evenodd" fill="#000"/></svg>