<svg viewBox="0 0 16 16" xmlns="http://www.w3.org/2000/svg"><path d="M3.25 3.75v3.419c0 4.58 3.76 6.197 4.75 6.542.99-.345 4.75-1.961 4.75-6.542V3.75h-9.5ZM2.116 2.616A1.25 1.25 0 0 1 3 2.25h10a1.25 1.25 0 0 1 1.25 1.25v3.669c0 5.765-4.896 7.673-5.848 7.99a1.2 1.2 0 0 1-.804 0c-.952-.317-5.848-2.225-5.848-7.99V3.5c0-.332.132-.65.366-.884Z"/><path d="M11.293 5.982a.75.75 0 0 1-.025 1.06l-3.67 3.5a.75.75 0 0 1-1.035 0l-1.831-1.75a.75.75 0 1 1 1.036-1.084l1.314 1.255 3.15-3.006a.75.75 0 0 1 1.06.025Z"/></svg>