<svg width="16" height="16" viewBox="0 0 16 16" xmlns="http://www.w3.org/2000/svg">
    <path d="M2.598 2.315a1.273 1.273 0 0 0-.797.837c-.04.136-.043.391-.033 2.546.011 2.593.008 2.535.166 3.305a8.005 8.005 0 0 0 1.236 2.89c.948 1.353 2.443 2.503 4.075 3.136.681.264.827.264 1.515-.003a9.383 9.383 0 0 0 3.28-2.176c1.18-1.228 1.904-2.748 2.134-4.482.07-.525.097-1.552.087-3.341-.009-1.679-.011-1.739-.066-1.9a1.292 1.292 0 0 0-.67-.76l-.177-.087-5.307-.006c-5.01-.006-5.315-.003-5.443.041m10.148 3.318c0 1.845-.014 2.254-.095 2.767-.331 2.108-1.639 3.829-3.731 4.909-.191.098-.476.23-.633.293L8 13.717l-.287-.115a9.259 9.259 0 0 1-.633-.293c-2.093-1.081-3.4-2.8-3.731-4.909-.081-.513-.095-.922-.095-2.767L3.253 3.76h9.494l-.001 1.873m-2.173.105a1.243 1.243 0 0 0-.173.089c-.051.033-.818.751-1.703 1.596l-1.61 1.536-.179-.166c-.098-.091-.423-.399-.721-.683-.591-.562-.708-.643-.947-.643-.346-.001-.786.439-.786.786 0 .157.109.365.285.542.37.372 1.839 1.76 1.957 1.849.239.18.513.184.755.012.068-.048.984-.909 2.036-1.913 1.516-1.448 1.927-1.854 1.98-1.958a.618.618 0 0 0 .006-.548 1.265 1.265 0 0 0-.422-.44c-.132-.077-.356-.105-.478-.059" fill-rule="evenodd" />
</svg>