<svg viewBox="0 0 16 16" xmlns="http://www.w3.org/2000/svg"><path d="M2.987 2.289c-.359.016-.399.023-.546.098a1.335 1.335 0 0 0-.566.591l-.102.209-.008 1.786c-.008 1.944.024 3.279.088 3.64a8.319 8.319 0 0 0 1.225 3.134c.857 1.306 2.335 2.509 3.895 3.169.88.372 1.042.385 1.713.135 1.62-.604 3.189-1.797 4.122-3.136A8.082 8.082 0 0 0 14.215 8c.038-.418.063-3.969.031-4.445-.024-.354-.032-.392-.122-.583a1.297 1.297 0 0 0-.587-.593l-.177-.088-4.993-.009a488.101 488.101 0 0 0-5.38.007m9.759 3.104c-.001 2.374-.034 2.882-.238 3.662a6.418 6.418 0 0 1-1.217 2.375 8.677 8.677 0 0 1-1.079 1.053c-.593.463-1.494.973-2.093 1.185l-.135.047-.358-.153a8.697 8.697 0 0 1-1.838-1.079 8.677 8.677 0 0 1-1.079-1.053 6.418 6.418 0 0 1-1.217-2.375c-.204-.78-.237-1.288-.238-3.662L3.253 3.76h9.494l-.001 1.633m-2.119.34c-.208.046-.167.01-2.849 2.567l-.692.659-.19-.178-.629-.593c-.532-.502-.646-.597-.814-.671-.313-.138-.743.09-.936.496a.47.47 0 0 0-.023.416c.062.175.183.314.741.847 1.475 1.412 1.581 1.498 1.841 1.497.283-.001.215.056 2.137-1.771 1.476-1.403 2.197-2.118 2.261-2.242a.647.647 0 0 0 .005-.507c-.063-.135-.348-.423-.467-.473a.744.744 0 0 0-.385-.047" fill-rule="evenodd"/></svg>