<svg xmlns="http://www.w3.org/2000/svg" viewBox="0 0 21 20" fill-rule="evenodd"><path d="M.456 1.845c-.269.141-.399.353-.399.651 0 .239.038.335.201.508.207.22.248.23 1.039.245l.72.013 1.36 4.765a721.958 721.958 0 0 0 1.446 5.028c.048.144.132.343.187.441.221.391.661.742 1.121.892l.257.085H14.613l.227-.082c.525-.189.935-.546 1.155-1.003.204-.427 2.255-7.635 2.231-7.844a.791.791 0 0 0-.368-.564l-.165-.097-6.834-.01a953.349 953.349 0 0 1-6.834-.021c0-.073-.649-2.245-.707-2.364-.112-.232-.376-.479-.65-.609l-.235-.111-.893-.012-.892-.011-.192.1m16.029 4.544c0 .063-1.801 6.28-1.842 6.361a.515.515 0 0 1-.163.166c-.11.067-.206.069-3.997.069-3.79 0-3.888-.002-3.997-.068a.601.601 0 0 1-.164-.149c-.04-.061-1.695-5.774-1.826-6.302l-.024-.096h6.007c3.303 0 6.006.008 6.006.019M6.041 15.84c-.271.099-.469.287-.608.575-.076.157-.093.24-.092.455.003.44.214.779.603.97.274.134.675.138.929.009.235-.118.432-.32.536-.547.076-.165.086-.23.076-.478-.02-.453-.21-.748-.607-.938a.829.829 0 0 0-.455-.099 1.448 1.448 0 0 0-.382.053m8.152-.01c-.282.115-.514.316-.629.544a1.13 1.13 0 0 0 .08 1.089 1.072 1.072 0 0 0 1.863-.12c.209-.424.133-.923-.188-1.235-.235-.228-.416-.304-.741-.313-.16-.005-.326.01-.385.035"/></svg>