<svg xmlns="http://www.w3.org/2000/svg" width="20" height="20" viewBox="0 0 20 20">
    <path fill-rule="evenodd" d="M10 4.219c2.808 0 4.918.971 6.704 2.692.264.255.513.517.772.81l.42.491c.207.247.52.625.611.729a1.604 1.604 0 0 1 0 2.118l-.768.917c-.358.42-.683.774-1.035 1.113-1.786 1.72-3.896 2.692-6.704 2.692s-4.918-.971-6.704-2.692a13.891 13.891 0 0 1-.772-.81l-.42-.491c-.207-.247-.52-.625-.611-.729a1.604 1.604 0 0 1 0-2.118l.768-.917c.358-.42.683-.774 1.035-1.113C5.082 5.191 7.192 4.22 10 4.22zm0 1.586c-2.372.013-4.15.854-5.679 2.351-.227.223-.443.453-.67.712l-.923 1.1a.047.047 0 0 0 0 .064l.692.83c.316.375.598.685.901.982 1.529 1.497 3.307 2.338 5.68 2.351 2.373.013 4.15-.829 5.682-2.344.227-.224.44-.454.667-.715l.41-.488c.177-.214.428-.518.512-.616a.047.047 0 0 0 0-.064l-.69-.832a13.882 13.882 0 0 0-.899-.987c-1.532-1.515-3.309-2.357-5.682-2.344zm.372 1.724a.25.25 0 0 1 .206.312L10 10l2.165-1.248c.32.554.428 1.23.25 1.895a2.503 2.503 0 0 1-3.062 1.768 2.503 2.503 0 0 1-1.768-3.062c.238-.887.919-1.567 1.754-1.763a2.784 2.784 0 0 1 1.033-.06z" />
</svg>
