<svg viewBox="0 0 16 16" xmlns="http://www.w3.org/2000/svg"><path d="M7.16 3.416c-1.569.146-2.925.728-4.16 1.785-.378.324-.945.922-1.471 1.552C.93 7.472.895 7.539.895 8c0 .441.048.543.512 1.1 1.267 1.52 2.069 2.216 3.19 2.766a6.623 6.623 0 0 0 1.816.613c.964.185 2.21.185 3.174 0a7.236 7.236 0 0 0 3.174-1.478c.404-.321 1.175-1.11 1.696-1.736.577-.693.662-.855.662-1.265 0-.464-.093-.616-1.054-1.72-1.558-1.791-3.184-2.676-5.265-2.865a13.805 13.805 0 0 0-1.64.001m1.73 1.28c1.507.185 2.704.824 3.898 2.079.298.314 1.025 1.181 1.025 1.223 0 .04-.717.9-1.011 1.213a12.1 12.1 0 0 1-.454.453c-1.277 1.192-2.782 1.75-4.548 1.686-.999-.036-1.799-.229-2.613-.63-.673-.332-1.186-.712-1.814-1.344-.4-.402-1.186-1.313-1.186-1.375 0-.051.754-.94 1.106-1.304 1.249-1.29 2.588-1.921 4.334-2.041.224-.015 1.018.01 1.263.04M7.712 6.027a1.94 1.94 0 0 0-1.499 1.08c-.16.332-.198.506-.198.906.001.322.007.365.088.6.113.33.272.582.515.815.242.234.446.358.77.47.236.081.275.087.612.087.337 0 .376-.006.613-.087a1.96 1.96 0 0 0 .829-.532c.23-.243.35-.433.439-.698.152-.45.156-.854.011-1.291-.144-.433-.037-.446-1.026.125-.469.271-.855.491-.857.488a36.88 36.88 0 0 1 .232-.89c.252-.936.257-.98.133-1.046-.075-.041-.456-.056-.662-.027" fill-rule="evenodd"/></svg>