<svg width="12" height="12" viewBox="0 0 12 12" fill="none" xmlns="http://www.w3.org/2000/svg">
<path d="M1.5 3.375H2.58281C3.05971 3.37558 3.52959 3.48985 3.9535 3.70833C4.3774 3.9268 4.74312 4.24319 5.02031 4.63125L6.97969 7.36875C7.25688 7.75681 7.6226 8.0732 8.0465 8.29167C8.47041 8.51015 8.94029 8.62442 9.41719 8.625H10.875" stroke="#999999" stroke-width="1.5" stroke-linecap="round" stroke-linejoin="round"/>
<path d="M9.75 2.25L10.875 3.375L9.75 4.5" stroke="#999999" stroke-width="1.5" stroke-linecap="round" stroke-linejoin="round"/>
<path d="M9.75 7.5L10.875 8.625L9.75 9.75" stroke="#999999" stroke-width="1.5" stroke-linecap="round" stroke-linejoin="round"/>
<path d="M6.92383 4.71094L6.98008 4.63125C7.25727 4.24319 7.62299 3.9268 8.04689 3.70833C8.4708 3.48985 8.94068 3.37558 9.41758 3.375H10.8754" stroke="#999999" stroke-width="1.5" stroke-linecap="round" stroke-linejoin="round"/>
<path d="M1.5 8.625H2.58281C3.05971 8.62442 3.52959 8.51015 3.9535 8.29167C4.3774 8.0732 4.74312 7.75681 5.02031 7.36875L5.07656 7.28906" stroke="#999999" stroke-width="1.5" stroke-linecap="round" stroke-linejoin="round"/>
</svg>
