<svg viewBox="0 0 12 12" xmlns="http://www.w3.org/2000/svg"><path d="M9.22 1.72a.75.75 0 0 1 1.06 0l1.123 1.122a.788.788 0 0 1 .159.23.747.747 0 0 1-.16.836L10.28 5.03a.75.75 0 0 1-1.194-.88 2.25 2.25 0 0 0-1.331.713.75.75 0 1 1-1.111-1.008 3.75 3.75 0 0 1 2.464-1.217.75.75 0 0 1 .112-.918Z"/><path d="M.75 3.375a.75.75 0 0 1 .75-.75h1.083a3.754 3.754 0 0 1 3.047 1.57l1.96 2.737a2.253 2.253 0 0 0 1.496.918.75.75 0 0 1 1.194-.88l1.121 1.12a.753.753 0 0 1 .155.85.748.748 0 0 1-.154.219L10.28 10.28a.75.75 0 0 1-1.172-.918A3.753 3.753 0 0 1 6.37 7.805L4.41 5.068a2.253 2.253 0 0 0-1.828-.943H1.5a.75.75 0 0 1-.75-.75Z"/><path d="M5.188 8.32a.75.75 0 0 0-1.044-1.078 2.25 2.25 0 0 1-1.562.633H1.5a.75.75 0 0 0 0 1.5h1.084a3.75 3.75 0 0 0 2.604-1.056Z"/></svg>