<svg height="16" viewBox="0 0 16 16" width="16" xmlns="http://www.w3.org/2000/svg"><path d="m3.625 13.25c.48324916 0 .875.3917508.875.875s-.39175084.875-.875.875-.875-.3917508-.875-.875.39175084-.875.875-.875zm2.91666667 0c.48324915 0 .875.3917508.875.875s-.39175085.875-.875.875c-.48324916 0-.875-.3917508-.875-.875s.39175084-.875.875-.875zm2.91666666 0c.48324916 0 .87499997.3917508.87499997.875s-.39175081.875-.87499997.875c-.48324915 0-.875-.3917508-.875-.875s.39175085-.875.875-.875zm2.91666667 0c.4832492 0 .875.3917508.875.875s-.3917508.875-.875.875-.875-.3917508-.875-.875.3917508-.875.875-.875zm.1237063-11.01620142c.9581717.96687053.9998313 2.50110459.1249789 3.51731108l-.1249789.13526076-6.10197941 6.11362958h-3.64672689v-3.65257184l6.10197944-6.12191205c1.02374578-.97054719 2.62738616-.96690499 3.64672686.00828247zm-7.3847063 6.07620142-.69733333.69833333v1.32499997h1.325l.69733333-.6993333zm5.0744985-5.05790669-.0968318.08124002-3.7396667 3.73966667 1.323 1.323 3.7333333-3.73766667c.1480799-.14510228.2427768-.33446706.2711557-.53752863l.0089657-.12323603c.0015281-.2487812-.0962964-.48789129-.271788-.66423534-.3396542-.32496011-.8586275-.35204012-1.2281682-.08124002z" fill-rule="evenodd"/></svg> 
