<svg viewBox="0 0 16 16" xmlns="http://www.w3.org/2000/svg"><path d="M10.392 1.522a2.616 2.616 0 0 0-1.369.561c-.09.072-1.539 1.512-3.22 3.2L2.747 8.352V12h3.64l3.136-3.14c1.985-1.987 3.182-3.205 3.261-3.318.723-1.034.583-2.476-.323-3.331a2.637 2.637 0 0 0-2.069-.689m.606 1.585a.911.911 0 0 1 .63.569c.046.122.055.192.046.364-.021.382.064.284-2.083 2.433L7.667 8.4l-.66-.66-.66-.66 1.9-1.902c1.053-1.053 1.952-1.933 2.018-1.972a.915.915 0 0 1 .733-.099M5.787 8.973l.652.654-.359.36-.359.36H4.427V9.001l.339-.341c.187-.187.346-.34.354-.34.007 0 .308.294.667.653M3.369 13.29c-.45.147-.713.623-.587 1.059a.879.879 0 0 0 1.133.6c.185-.062.431-.287.508-.466a.876.876 0 0 0-.413-1.139.99.99 0 0 0-.641-.054m2.892.009a.908.908 0 0 0-.559.581c-.172.617.362 1.213.989 1.103a.872.872 0 0 0 .465-1.473c-.219-.222-.617-.315-.895-.211m2.952-.008a.858.858 0 0 0-.62.764.863.863 0 0 0 .719.928.873.873 0 0 0 1.004-1.007c-.089-.507-.621-.838-1.103-.685m2.902-.001c-.628.206-.82.993-.353 1.45a.869.869 0 0 0 1.407-.256.896.896 0 0 0-.003-.728.978.978 0 0 0-.441-.429 1.07 1.07 0 0 0-.61-.037" fill-rule="evenodd"/></svg>