<svg xmlns="http://www.w3.org/2000/svg" width="24" height="24" viewBox="0 0 24 24">
    <path fill-rule="evenodd" d="M21.262 5.777c-.058-.06-.12-.12-.18-.178l-.13-.126-1.73-1.73-.761-.76-.116-.118c-.042-.044-.084-.087-.127-.128-.055.053-.11.11-.163.166l-.112.114-1.552 1.552-.323.323 2.217 2.217.823.823 1.235-1.235.92-.92zM14.02 4.282c.016-.019.033-.037.051-.055l.03-.03c.349-.355.7-.705 1.052-1.055l.528-.526.907-.907.072-.073c.185-.188.365-.37.584-.522.258-.178.568-.246.875-.274.319-.03.625.06.91.192.189.087.353.223.5.37l.6.6 1.939 1.939.55.55c.228.23.406.509.486.823.162.624-.021 1.277-.464 1.74-.03.03-.062.058-.094.084l-.272.271-1.54 1.54-.891.892c-.021.027-.045.054-.07.078l-.03.03c-.151.154-.304.306-.457.458l-.23.23-1.399 1.399-1.851 1.851-2.044 2.044-1.978 1.978-1.653 1.653-1.066 1.066-.232.232c-.155.152-.347.256-.565.284-.098.011-.178.016-.274.016l-1.198-.001-1.198-.001c-.607-.003-1.214-.003-1.82-.003-.51 0-.938-.43-.938-.937v-.143l-.001-1.194-.002-1.194c0-.18-.002-.359-.004-.538-.004-.432-.008-.865.002-1.295.01-.338.174-.56.387-.774l.337-.337 1.23-1.23 1.754-1.754 2.018-2.018 2.02-2.02 1.772-1.772 1.25-1.25.417-.417zm3.759 4.979l-2.224-2.224-.815-.815-.24.237c-.149.147-.298.294-.445.442l-2.733 2.732-3.171 3.172-2.623 2.622-.818.818v.15l.001 1.178.001 1.178.002.532h.78c.393.002.785.002 1.178.002.358.002.716.002 1.074.002.21-.212.422-.422.635-.632l.445-.441 2.733-2.733 3.17-3.17 2.623-2.624.427-.426z" clip-rule="evenodd"/>
</svg>
