<svg width="16" height="16" viewBox="0 0 16 16" xmlns="http://www.w3.org/2000/svg">
    <path d="M10.684.294a.63.63 0 0 0-.311.233c-.094.136-.132.373-.132.826l-.001.407h-.466c-.645 0-.8.057-.941.346-.064.129-.073.179-.073.401 0 .221.009.272.068.387a.644.644 0 0 0 .425.33c.075.016.326.029.558.029h.422l.012.487c.011.434.019.502.074.627.111.254.336.38.681.38.345 0 .57-.126.681-.38.055-.125.063-.193.074-.627l.012-.487h.422c.232 0 .483-.013.558-.029a.644.644 0 0 0 .425-.33c.059-.115.068-.166.068-.387 0-.222-.009-.272-.073-.401-.141-.289-.296-.346-.941-.346h-.466l-.001-.407c0-.453-.038-.69-.132-.826a.607.607 0 0 0-.323-.234 2.014 2.014 0 0 0-.62.001M6.766 2.721c-.307.052-.677.309-.836.581-.04.067-.339.846-.665 1.732a94.32 94.32 0 0 1-.608 1.625c-.008.008-.721.274-1.583.592-.863.318-1.627.606-1.697.641a1.385 1.385 0 0 0-.517.5c-.219.415-.22.804-.002 1.214.097.18.336.414.513.499.067.033.831.321 1.699.641.868.319 1.587.598 1.599.619.012.022.286.757.609 1.634.332.902.623 1.65.669 1.722.173.269.441.46.765.544.287.074.581.037.872-.11.183-.093.444-.361.528-.542.037-.08.323-.842.635-1.693.312-.851.581-1.56.597-1.576.016-.016.725-.285 1.576-.597a72.618 72.618 0 0 0 1.693-.635c.183-.085.449-.346.544-.532.082-.163.149-.425.149-.589a1.465 1.465 0 0 0-.166-.599 1.362 1.362 0 0 0-.532-.506c-.078-.037-.831-.32-1.675-.629a94.658 94.658 0 0 1-1.568-.584c-.02-.011-.298-.731-.618-1.6a80.236 80.236 0 0 0-.643-1.707c-.08-.166-.35-.434-.528-.525a1.311 1.311 0 0 0-.81-.12m6.906 1.082c-.276.085-.419.334-.419.731v.205l-.255.015c-.459.027-.663.187-.73.572-.072.412.091.767.399.869.066.022.223.048.35.058l.229.019.013.258c.014.292.065.423.217.556.13.115.263.153.524.153s.394-.038.524-.153c.152-.133.203-.264.217-.556l.013-.258.229-.019c.127-.01.284-.036.35-.058.308-.102.471-.457.399-.869-.067-.385-.271-.545-.73-.572l-.255-.015v-.205c0-.533-.24-.777-.759-.772a1.348 1.348 0 0 0-.316.041M7.494 6.015c.264.717.506 1.356.536 1.419.073.15.285.38.444.481.095.061 1.658.655 2.761 1.051.041.015.07.031.064.037a77.65 77.65 0 0 1-1.309.489c-.715.264-1.356.507-1.425.54-.161.078-.459.374-.533.529a125.51 125.51 0 0 0-1.019 2.744c-.003.046-.092-.185-.533-1.385-.267-.726-.519-1.374-.561-1.44a1.467 1.467 0 0 0-.415-.408c-.082-.051-1.786-.697-2.741-1.039-.055-.02-.066-.033-.04-.048a92.08 92.08 0 0 1 1.357-.506c.799-.294 1.373-.52 1.453-.573.155-.1.299-.247.394-.401.037-.059.283-.695.548-1.413.566-1.535.516-1.403.528-1.391.006.006.227.597.491 1.314" fill-rule="evenodd"/>
</svg>