<svg width="16" height="16" viewBox="0 0 16 16" fill="none" xmlns="http://www.w3.org/2000/svg">
<path d="M8.66922 10.9655L7.46816 14.2255C7.43281 14.3215 7.36887 14.4043 7.28498 14.4628C7.20108 14.5213 7.10127 14.5527 6.99899 14.5527C6.89672 14.5527 6.7969 14.5213 6.71301 14.4628C6.62912 14.4043 6.56518 14.3215 6.52982 14.2255L5.32877 10.9655C5.30376 10.8976 5.26431 10.836 5.21315 10.7848C5.16199 10.7337 5.10034 10.6942 5.03245 10.6692L1.77246 9.46816C1.67649 9.43281 1.59367 9.36887 1.53517 9.28498C1.47668 9.20108 1.44531 9.10127 1.44531 8.99899C1.44531 8.89672 1.47668 8.7969 1.53517 8.71301C1.59367 8.62912 1.67649 8.56518 1.77246 8.52982L5.03245 7.32877C5.10034 7.30376 5.16199 7.26431 5.21315 7.21315C5.26431 7.16199 5.30376 7.10034 5.32877 7.03245L6.52982 3.77246C6.56518 3.67649 6.62912 3.59367 6.71301 3.53517C6.7969 3.47668 6.89672 3.44531 6.99899 3.44531C7.10127 3.44531 7.20108 3.47668 7.28498 3.53517C7.36887 3.59367 7.43281 3.67649 7.46816 3.77246L8.66922 7.03245C8.69423 7.10034 8.73367 7.16199 8.78483 7.21315C8.83599 7.26431 8.89764 7.30376 8.96553 7.32877L12.2255 8.52982C12.3215 8.56518 12.4043 8.62912 12.4628 8.71301C12.5213 8.7969 12.5527 8.89672 12.5527 8.99899C12.5527 9.10127 12.5213 9.20108 12.4628 9.28498C12.4043 9.36887 12.3215 9.43281 12.2255 9.46816L8.96553 10.6692C8.89764 10.6942 8.83599 10.7337 8.78483 10.7848C8.73367 10.836 8.69423 10.8976 8.66922 10.9655V10.9655Z" stroke="black" stroke-width="1.5" stroke-linecap="round" stroke-linejoin="round"/>
<path d="M11 1V4" stroke="black" stroke-width="1.5" stroke-linecap="round" stroke-linejoin="round"/>
<path d="M12.5 2.5H9.5" stroke="black" stroke-width="1.5" stroke-linecap="round" stroke-linejoin="round"/>
<path d="M14 4.5V6.5" stroke="black" stroke-width="1.5" stroke-linecap="round" stroke-linejoin="round"/>
<path d="M15 5.5H13" stroke="black" stroke-width="1.5" stroke-linecap="round" stroke-linejoin="round"/>
</svg>
