<svg width="256px" height="256px" fill="#000000" viewBox="0 0 256 256" version="1.1" xmlns="http://www.w3.org/2000/svg" xmlns:xlink="http://www.w3.org/1999/xlink">
    <path d="M247.887792,9.2319171 L246.611117,7.95854922 C242.457932,3.27825907 236.420322,0.342217617 229.695169,0.342217617 C222.970016,0.342217617 216.932405,3.27825907 212.799834,7.93467358 L212.779221,7.95854922 L82.1327792,156.518135 L79.5794286,157.579275 L77.0260779,156.305907 L44.6836364,118.317098 C40.0224416,113.074404 33.2514078,109.78686 25.7110442,109.78686 C11.7267948,109.78686 0.390316883,121.093969 0.390316883,135.04199 C0.390316883,140.012767 1.8299013,144.648622 4.31675844,148.556269 L4.25558442,148.453472 L71.281039,246.715026 C74.8657039,252.044601 80.8467948,255.530446 87.6504104,255.628601 L93.4100779,255.628601 C104.880873,255.531772 114.944,249.609948 120.7808,240.687088 L120.858597,240.560415 L250.653922,44.0373057 C253.628177,39.6388808 255.402223,34.219772 255.402223,28.3874819 C255.402223,20.9847047 252.544997,14.2477927 247.871169,9.21334715 L247.887792,9.2319171 Z" id="Path"></path>
</svg>