<svg height="16" viewBox="0 0 16 16" width="16" xmlns="http://www.w3.org/2000/svg"><path d="m8 2c3.3137085 0 6 2.6862915 6 6s-2.6862915 6-6 6-6-2.6862915-6-6 2.6862915-6 6-6zm-2.92826884 6.65506763-1.72807427.28820589c.37614708 1.86694408 1.84698551 3.33751588 3.71407138 3.71327128l.28820031-1.7280543c-1.13143627-.2515895-2.02223282-1.14212789-2.27419742-2.27342287zm5.85675934-.00099621c-.2515895 1.13143627-1.14212789 2.02223278-2.27342287 2.27419738l.28820589 1.7280743c1.86694408-.3761471 3.33751588-1.8469855 3.71327128-3.71407137zm-2.9284905-2.40407142c-.96649831 0-1.75.78350169-1.75 1.75s.78350169 1.75 1.75 1.75 1.75-.78350169 1.75-1.75-.78350169-1.75-1.75-1.75zm.94427524-2.90614117-.28821152 1.72809436c1.1304896.25219144 2.02038848 1.1423483 2.27220508 2.27297918l1.7280743-.28820589c-.3760125-1.86627627-1.8459334-3.3364637-3.71206786-3.71286765zm-5.60041641 3.71186593 1.72809436.28821152c.25219144-1.1304896 1.1423483-2.02038843 2.27297918-2.27220512l-.28820589-1.72807427c-1.86627627.37601252-3.3364637 1.84593336-3.71286765 3.71206787z" fill-rule="evenodd" transform="matrix(.96592583 -.25881905 .25881905 .96592583 -1.797959 2.343146)"/></svg>