<svg xmlns="http://www.w3.org/2000/svg" width="16" height="16" viewBox="0 0 16 16">
    <path fill-rule="evenodd" d="M8.57.668H2.856c-.768.01-1.5.325-2.035.874-.535.55-.83 1.29-.822 2.057v6.97c0 .076.023.15.065.213s.102.112.172.14c.07.03.147.036.221.021.075-.015.142-.053.195-.107L2.177 9.27h1.336V6.437c-.01-.767.286-1.507.822-2.056.535-.55 1.267-.864 2.034-.875h5.056c-.014-.734-.308-1.436-.822-1.964C10.068.993 9.336.68 8.57.668zm4.573 3.857H7.431c-.767.01-1.499.325-2.034.874-.536.55-.832 1.289-.822 2.056v2.74c-.01.768.286 1.507.822 2.056.535.55 1.267.864 2.034.875h6.392l1.524 1.567c.053.054.12.091.195.107.074.015.15.008.22-.02.071-.03.13-.078.173-.14.042-.064.065-.138.065-.213V7.455c.009-.767-.287-1.506-.822-2.056-.536-.55-1.267-.864-2.035-.874z" clip-rule="evenodd"/>
</svg>
