<?xml version="1.0" encoding="UTF-8"?>
<svg width="145px" height="256px" fill="#000000" viewBox="0 0 145 256" version="1.1" xmlns="http://www.w3.org/2000/svg" xmlns:xlink="http://www.w3.org/1999/xlink">
    <path d="M118.1,4.3 L114.9,4.3 C102.153,1.6295 87.505,0.101 72.5,0.101 C57.495,0.101 42.8475,1.63 28.704,4.5405 L30.1,4.3005 L26.74,4.3005 C11.7135,7.122 0.4955,20.1405 0.4955,35.7785 C0.4955,35.962 0.497,36.145 0.5,36.328 L0.4995,36.3005 L0.4995,153.7405 C0.537,174.201 6.1185,193.3505 15.821,209.776 L15.5395,209.2605 L33.1395,239.5005 C38.967,249.149 49.397,255.501 61.3105,255.501 C61.363,255.501 61.415,255.501 61.4675,255.5005 L83.5395,255.5005 C83.719,255.506 83.931,255.506 84.1435,255.506 C95.928,255.506 106.2245,249.136 111.778,239.6515 L111.86,239.5005 L129.94,207.5005 C139.056,191.777 144.4535,172.914 144.5,152.794 L144.5,36.3005 C144.5025,36.154 144.504,35.981 144.504,35.8075 C144.504,20.112 133.2045,7.056 118.296,4.3305 L118.1,4.301 L118.1,4.3 Z M131.38,153.1 C131.2835,170.782 126.484,187.323 118.171,201.5615 L118.42,201.1 L100.5,233.1 C97.066,239.0325 90.7685,242.971 83.547,243.0205 L61.46,243.0205 C61.4235,243.0205 61.3805,243.0205 61.337,243.0205 C54.1235,243.0205 47.8165,239.1395 44.39,233.3515 L44.34,233.26 L26.9,203.34 C18.572,189.2625 13.6425,172.319 13.62,154.2265 L13.62,36.3 C13.6865,26.7875 20.491,18.8835 29.4955,17.1205 L29.62,17.1 L32.98,17.1 C45.005,14.537 58.821,13.069 72.98,13.069 C87.139,13.069 100.9545,14.537 114.284,17.3285 L112.98,17.1 L116.34,17.1 C125.469,18.884 132.2735,26.7875 132.34,36.293 L132.34,36.3 L131.38,153.1 Z M27.7,48.46 L117.3,48.46 C119.0675,48.46 120.5,49.8925 120.5,51.66 L120.5,101.26 C120.5,103.0275 119.0675,104.46 117.3,104.46 L27.7,104.46 C25.9325,104.46 24.5,103.0275 24.5,101.26 L24.5,51.66 C24.5,49.8925 25.9325,48.46 27.7,48.46 L27.7,48.46 Z" id="Path"></path>
</svg>