<svg viewBox="0 0 16 16" xmlns="http://www.w3.org/2000/svg"><path d="m8.973 13.274.12-.006c.345-.035.593-.229.796-.637l.264-.543c.711-1.486 1.088-2.517 1.127-3.023l.004-.084V3.094l-.003-.364-.065-.002L8 2.726l-3.216.002-.065.002-.003.364v5.887c0 .523.467 1.777 1.395 3.65.203.408.45.602.797.637l.119.006zM10.919 1.5l.295.006c.913.039 1.209.29 1.272 1.143l.008.148.006.297v5.887l-.004.122c-.04.672-.402 1.714-1.088 3.183l-.142.299-.29.595c-.395.798-1.024 1.256-1.828 1.314l-.175.006H7.027c-.888 0-1.58-.465-2.003-1.32l-.29-.595c-.778-1.627-1.187-2.765-1.23-3.482L3.5 8.981V3.094l.006-.297c.04-.972.316-1.25 1.28-1.291l.295-.006zM7.25 8H6a.5.5 0 0 0-.5.5V9a.5.5 0 0 0 .5.5h1.25a.5.5 0 0 0 .5-.5v-.5a.5.5 0 0 0-.5-.5zM10 8H8.75a.5.5 0 0 0-.5.5V9a.5.5 0 0 0 .5.5H10a.5.5 0 0 0 .5-.5v-.5A.5.5 0 0 0 10 8zm.5-4h-5v3h5z" fill-rule="evenodd"/></svg>