<?xml version="1.0" encoding="UTF-8"?>
<svg width="165px" height="256px" fill="#000000" viewBox="0 0 165 256" version="1.1" xmlns="http://www.w3.org/2000/svg" xmlns:xlink="http://www.w3.org/1999/xlink">
    <path d="M135.940259,144.469176 C135.940259,146.604244 134.123179,148.254758 132.003253,148.254758 L32.6695749,148.254758 C30.5496488,148.254758 28.7325693,146.604244 28.7325693,144.469176 L28.7325693,48.7847985 C28.7325693,46.6497301 30.5496488,44.847793 32.6695749,44.847793 L132.003253,44.847793 C134.123179,44.847793 135.940259,46.6497301 135.940259,48.7847985 L135.940259,144.469176 Z M144.72281,0.465626617 L19.9500185,0.465626617 C9.04754159,0.465626617 0.113567468,9.24817745 0.113567468,19.9992311 L0.113567468,130.704799 C0.113567468,156.749604 7.68473198,182.173575 22.2213678,204.129952 L52.8088725,250.026351 C55.2316451,253.811933 59.3200739,255.916717 63.8627726,255.916717 L100.961479,255.916717 C105.352754,255.916717 109.441183,253.811933 111.863956,250.314055 L140.331534,209.596333 C156.23098,187.034262 164.559261,160.671468 164.559261,133.278994 L164.559261,19.9992311 C164.559261,9.24817745 155.625287,0.465626617 144.72281,0.465626617 L144.72281,0.465626617 Z" id="Path"></path>
</svg>