<svg xmlns="http://www.w3.org/2000/svg" viewBox="0 0 24 24"><path d="M6.78 4.035c-2.341.028-2.224.014-2.486.292-.259.276-.274.337-.274 1.156v.743l.121.235c.08.158.177.276.293.357l.173.122 1.926.026c2.482.034 8.46.034 10.927 0 2.182-.03 2.073-.012 2.323-.376.184-.267.23-.536.21-1.232-.016-.54-.025-.601-.128-.811-.15-.306-.301-.415-.648-.466-.335-.049-9.35-.082-12.437-.046m0 6c-2.341.028-2.224.014-2.486.292-.259.276-.274.337-.274 1.156v.743l.121.235c.08.158.177.276.293.357l.173.122 1.926.026c2.482.034 8.46.034 10.927 0 2.182-.03 2.073-.012 2.323-.376.184-.267.23-.536.21-1.232-.016-.54-.025-.601-.128-.811-.15-.306-.301-.415-.648-.466-.335-.049-9.35-.082-12.437-.046m-.12 6c-2.208.028-2.105.015-2.366.292-.259.276-.274.337-.274 1.156v.743l.121.235c.08.158.177.276.293.357l.173.122 1.926.026c2.482.034 8.46.034 10.927 0 2.182-.03 2.073-.012 2.323-.376.184-.267.23-.536.21-1.232-.016-.54-.025-.601-.128-.811-.149-.306-.301-.415-.648-.466-.332-.049-9.579-.083-12.557-.046" fill-rule="evenodd"/></svg>