<svg xmlns="http://www.w3.org/2000/svg" viewBox="0 0 24 24"><path d="M14.34 1.08c-1.237.023-1.336.03-1.58.116a3.392 3.392 0 0 0-1.089.622c-.683.584-9.04 8.839-9.956 9.835-.284.309-.514.598-.577.728-.097.197-.104.249-.091.607.017.47.059.568.423 1 .333.394 7.194 7.252 8.12 8.116.38.354.779.692.888.751.178.097.24.108.602.108.699.001.458.2 3.62-2.974 2.705-2.715 6.79-6.883 7.391-7.542.336-.368.58-.797.785-1.38l.124-.353V1.94l-.085-.14a1.739 1.739 0 0 0-.57-.606l-.237-.154-3.224.008c-1.773.004-3.818.018-4.544.032m3.298 3.614c.898.312 1.586 1.088 1.742 1.966.118.659.062 1.072-.225 1.656-.468.954-1.288 1.462-2.355 1.459-.346-.002-.478-.021-.749-.11-.765-.251-1.379-.855-1.684-1.655-.092-.242-.103-.328-.104-.83-.002-.641.055-.864.345-1.356.336-.57 1.013-1.058 1.672-1.205.381-.085.995-.051 1.358.075" fill-rule="evenodd"/></svg>