<svg viewBox="0 0 18 18" xmlns="http://www.w3.org/2000/svg"><path fill-rule="evenodd" d="M9.67.974a3.087 3.087 0 0 0-1.315.583c-.141.107-1.658 1.596-3.694 3.625C.911 8.921 1.094 8.722.974 9.18c-.063.3-.064.609-.001.908.063.235.177.452.349.667.169.211 5.806 5.842 5.983 5.976.315.239.667.349 1.11.348.366-.001.68-.094.967-.288.128-.085 1.27-1.223 3.548-3.535a416.595 416.595 0 0 0 3.474-3.548c.325-.392.545-.895.638-1.456.014-.089.028-1.48.029-3.09.002-2.862.001-2.931-.059-3.124a1.672 1.672 0 0 0-.732-.909c-.339-.204-.262-.199-3.491-.196-2.243.002-2.953.011-3.119.041m5.893 4.298c-.009 3.174.006 2.951-.225 3.331-.146.241-6.688 6.893-6.843 6.958a.243.243 0 0 1-.195.011c-.066-.022-.986-.923-2.983-2.92L2.43 9.764V9.51l2.242-2.227C9.21 2.778 9.269 2.72 9.469 2.616c.356-.186.268-.181 3.319-.184l2.783-.002-.008 2.842zm-3.788-1.959a2.533 2.533 0 0 0-1.972 1.806c-.058.201-.068.303-.066.686.001.408.009.474.085.705.304.929 1.042 1.578 1.982 1.742.339.059.848.022 1.176-.084a2.521 2.521 0 0 0 1.666-1.737c.057-.196.068-.307.068-.656-.001-.502-.041-.677-.255-1.11a2.448 2.448 0 0 0-1.544-1.29 2.75 2.75 0 0 0-1.14-.062c1.075 1.652 1.26 1.839 1.361 2.053.066.141.079.211.079.424 0 .223-.011.277-.089.43a.996.996 0 0 1-1.609.262.982.982 0 0 1-.252-1.009c.09-.301.406-.596.717-.671.187-.045.482-.014.663.069"/></svg>