<svg width="18" height="18" viewBox="0 0 18 18" fill="none" xmlns="http://www.w3.org/2000/svg">
<path d="M15.4032 1.67248H10.2053C9.6396 1.67923 9.09473 1.8872 8.66822 2.25915L1.98022 8.89435C1.5719 9.28785 1.56002 9.93773 1.95353 10.3459C1.96233 10.355 1.97113 10.3638 1.98022 10.3727L7.62982 16.0223C8.0487 16.442 8.7285 16.4425 9.14812 16.0235C9.14856 16.0232 9.14885 16.0228 9.14929 16.0223L15.7434 9.33435C16.1152 8.90784 16.3232 8.36297 16.3301 7.79728V2.59941C16.3779 2.13536 16.0404 1.72029 15.5764 1.67248C15.5189 1.66647 15.4607 1.66647 15.4032 1.67248ZM12.2234 7.53915C11.2515 7.53915 10.4634 6.75111 10.4634 5.77915C10.4634 4.80719 11.2515 4.01915 12.2234 4.01915C13.1954 4.01915 13.9834 4.80719 13.9834 5.77915C13.9834 6.75111 13.1954 7.53915 12.2234 7.53915Z" stroke="black" stroke-width="1.5"/>
</svg>
