<svg viewBox="0 0 12 12" xmlns="http://www.w3.org/2000/svg"><path d="M2.467 1.97a1.937 1.937 0 0 0-1.098.593A1.927 1.927 0 0 0 .816 3.96c.001.202.011.288.052.45.063.245.21.554.351.737.116.15.117.14-.029.216a3.424 3.424 0 0 0-.895.737c-.265.315-.317.495-.198.682.11.173.315.303.48.303.137 0 .24-.062.386-.23.303-.349.539-.538.864-.693.288-.136.523-.192.926-.22.279-.02.353-.043.441-.139.143-.154.161-.498.036-.687-.075-.113-.182-.158-.419-.177-.316-.025-.477-.091-.677-.278a.962.962 0 0 1-.314-.72c0-.47.297-.851.754-.97.419-.108.884.091 1.102.473.034.058.085.193.115.299.061.22.129.321.258.379a.606.606 0 0 0 .385.01c.287-.076.397-.266.337-.578A2 2 0 0 0 2.467 1.97m6.383.001c-.797.148-1.403.708-1.6 1.479-.098.381.003.599.316.682a.606.606 0 0 0 .385-.01c.129-.058.197-.159.258-.379.064-.231.14-.37.278-.51a.994.994 0 0 1 1.558.199.992.992 0 0 1-.179 1.229c-.2.187-.361.253-.677.278-.237.019-.344.064-.419.177-.125.189-.107.533.036.687.088.096.162.119.441.139.419.029.65.086.954.236.324.16.534.33.836.677.069.08.163.165.208.188.165.084.355.04.542-.124.163-.144.215-.337.135-.509-.138-.301-.644-.779-1.097-1.037a4.726 4.726 0 0 1-.142-.083.68.68 0 0 1 .094-.139c.517-.684.547-1.61.073-2.321a2.112 2.112 0 0 0-.911-.743 2.113 2.113 0 0 0-1.089-.116M5.567 4.23c-1.2.217-2.06 1.364-1.927 2.57.06.55.289 1.04.663 1.418.061.062.097.112.083.117a3.521 3.521 0 0 0-1.528 1.56c-.152.317-.073.534.251.688.086.04.152.057.228.057.196 0 .292-.076.442-.351a2.485 2.485 0 0 1 1.129-1.095c.373-.183.641-.243 1.092-.243.242 0 .374.01.496.036.742.16 1.338.604 1.708 1.273.058.104.13.218.161.252.124.142.32.168.526.071.324-.154.403-.371.251-.688a3.521 3.521 0 0 0-1.528-1.56c-.014-.005.022-.055.083-.117a2.366 2.366 0 0 0 .63-2.118 2.385 2.385 0 0 0-1.905-1.871 3.445 3.445 0 0 0-.855.001m.773 1.001c.46.108.873.52.992.989.044.172.044.508 0 .68a1.38 1.38 0 0 1-1.608 1.009A1.394 1.394 0 0 1 4.668 6.9a1.768 1.768 0 0 1 0-.68c.118-.466.528-.878.985-.988.159-.039.524-.039.687-.001" fill-rule="evenodd" /></svg>