<svg viewBox="0 0 12 13" xmlns="http://www.w3.org/2000/svg">
    <path d="M4.596.688a.738.738 0 0 0-.417.429.852.852 0 0 0 .022.571c.065.13.183.261.293.325.156.092.27.106.866.11.448.002.51.006.336.018-1.735.125-3.237 1.104-4.012 2.615a4.873 4.873 0 0 0-.498 1.505c-.051.326-.051 1.152 0 1.478.185 1.165.798 2.255 1.679 2.987.688.571 1.522.95 2.396 1.088.325.051 1.153.051 1.478 0a4.987 4.987 0 0 0 2.396-1.088c.881-.732 1.495-1.823 1.679-2.987.051-.325.051-1.153 0-1.478-.184-1.164-.798-2.255-1.679-2.987a4.917 4.917 0 0 0-2.831-1.133c-.174-.012-.112-.016.336-.018.596-.004.71-.018.866-.11a.847.847 0 0 0 .294-.325c.044-.086.05-.124.05-.308s-.006-.224-.052-.32A.825.825 0 0 0 7.44.702L7.33.65 6.02.645 4.71.641l-.114.047M6.42 3.649c.484.064.949.227 1.339.469.184.114.461.325.541.412.046.049.04.048-.057-.016a.741.741 0 0 0-.713-.034c-.104.05-.255.194-1.142 1.084C5.219 6.738 5.271 6.672 5.27 7c0 .164.007.205.053.304a.765.765 0 0 0 .354.361c.121.06.148.065.323.065.328-.001.261.052 1.436-1.118.89-.887 1.034-1.038 1.084-1.142a.741.741 0 0 0-.034-.713c-.064-.097-.065-.103-.016-.057.162.149.462.591.585.86.329.72.407 1.464.232 2.208a3.265 3.265 0 0 1-.866 1.579 3.362 3.362 0 0 1-4.51.304A3.398 3.398 0 0 1 2.819 8.13c-.537-1.503.052-3.162 1.425-4.014a3.396 3.396 0 0 1 2.176-.467"/>
</svg>
