<?xml version="1.0" encoding="UTF-8"?>
<svg width="17px" height="24px" viewBox="0 0 17 24" version="1.1" xmlns="http://www.w3.org/2000/svg" xmlns:xlink="http://www.w3.org/1999/xlink">
    <path d="M8.4,0 C4.72985832,0.00342615429 1.48608305,2.38515225 0.386677113,5.88374307 C-0.712728841,9.3823339 0.586341479,13.1891562 3.59586056,15.288 L3.59586056,19.2 L13.2041395,19.2 L13.2041395,15.288 C16.2136586,13.1891562 17.5127289,9.3823339 16.413323,5.88374307 C15.3139169,2.38515225 12.0701417,0.00342615429 8.4,0 Z M11.4025871,13.596 L10.8020697,13.944 L10.8020697,16.8 L5.99793029,16.8 L5.99793029,13.932 L5.39741285,13.584 C3.04357661,12.226183 1.89598311,9.45803439 2.59944706,6.83493331 C3.30291101,4.21183222 5.68202402,2.38784758 8.4,2.38784758 C11.117976,2.38784758 13.497089,4.21183222 14.200553,6.83493331 C14.904017,9.45803439 13.7564234,12.226183 11.4025871,13.584 L11.4025871,13.596 Z M5.99689543,21.6 L10.8031046,21.6 C11.4658463,21.6 12.0031046,22.1372583 12.0031046,22.8 C12.0031046,23.4627417 11.4658463,24 10.8031046,24 L5.99689543,24 C5.33415372,24 4.79689543,23.4627417 4.79689543,22.8 C4.79689543,22.1372583 5.33415372,21.6 5.99689543,21.6 Z"></path>
</svg>