<svg width="183px" height="256px" viewBox="0 0 183 256">
    <path d="M173.542101,178.682023 C171.920934,179.390755 170.032311,179.803642 168.047066,179.803642 C167.905619,179.803642 167.765167,179.80165 167.624716,179.797167 L167.645136,179.797665 C163.499829,179.533198 159.847097,177.620669 157.300545,174.714521 L157.285603,174.697588 L110.747393,120.190506 C110.559128,119.824436 110.184093,119.578397 109.751782,119.578397 C109.135689,119.578397 108.63614,120.077946 108.63614,120.694039 C108.63614,120.798132 108.650584,120.899237 108.677479,120.995362 L108.675486,120.987393 L108.675486,237.173541 C108.726288,237.665121 108.755175,238.235393 108.755175,238.812638 C108.755175,248.142693 101.191222,255.706646 91.8611673,255.706646 C82.5311128,255.706646 74.9671595,248.142693 74.9671595,238.812638 C74.9671595,238.235393 74.9960467,237.665121 75.0528249,237.102817 L75.0468482,237.173541 L75.0468482,119.552996 C75.071751,119.46484 75.0861946,119.364233 75.0861946,119.259642 C75.0861946,118.643549 74.5866459,118.144 73.9705525,118.144 C73.5382412,118.144 73.1632062,118.390039 72.97793,118.749634 L72.9749416,118.756109 L28.9867704,170.713152 C26.3948949,173.872311 22.491144,175.872 18.1197198,175.872 C14.2792218,175.872 10.7988171,174.328529 8.26621012,171.8273 L8.26770428,171.828794 C5.19968872,168.917665 3.29064591,164.811206 3.29064591,160.25849 C3.29064591,156.189385 4.81568872,152.476389 7.32538521,149.659891 L7.31143969,149.675829 L80.3063035,63.2932607 C82.9514708,60.2302257 86.811393,58.2783502 91.1295253,58.1931829 L91.1439689,58.1931829 C95.4904903,58.2111128 99.373323,60.1809183 101.963704,63.2713463 L101.981634,63.2932607 L177.685914,152.225868 C180.395829,155.275953 182.050864,159.315175 182.050864,163.741385 C182.050864,170.065681 178.671564,175.600062 173.620296,178.638693 L173.542101,178.682521 L173.542101,178.682023 Z" id="Path"></path>
    <path d="M0.139455253,18.8264591 C0.127501946,18.5834086 0.120529183,18.2985214 0.120529183,18.0121401 C0.120529183,8.603393 7.53207782,0.925883268 16.8357354,0.499050584 L16.8740856,0.49755642 L162.545058,0.49755642 C171.905992,1.39903502 179.166132,9.22496498 179.166132,18.7462724 C179.166132,28.2675798 171.905992,36.0935097 162.619767,36.9890117 L162.545058,36.9949883 L16.8740856,36.9949883 C7.53506615,36.5636732 0.127003891,28.8876576 0.127003891,19.4809027 C0.127003891,19.2503035 0.131486381,19.0211984 0.140451362,18.7930895 L0.139455253,18.8259611 L0.139455253,18.8264591 Z" id="Path"></path>
</svg>