<svg xmlns="http://www.w3.org/2000/svg" fill-rule="evenodd" stroke-linejoin="round" stroke-miterlimit="2" clip-rule="evenodd" viewBox="0 0 19 19"><path d="M9.516 16.045v-.97c3.022-.052 5.48-2.553 5.48-5.575 0-3.022-2.458-5.523-5.48-5.576v-.969c3.585.009 6.53 2.96 6.529 6.545 0 3.584-2.945 6.536-6.529 6.545zm0-3.395a3.166 3.166 0 003.151-3.15 3.166 3.166 0 00-3.151-3.151v-.97A4.14 4.14 0 0113.554 9.5a4.14 4.14 0 01-4.038 4.12v-.97zm0-4.846c.93 0 1.696.765 1.696 1.696 0 .93-.765 1.696-1.696 1.696V7.804zM1.5 9.5c0 4.389 3.61 8 8 8 4.389 0 8-3.611 8-8 0-4.39-3.611-8-8-8-4.39 0-8 3.61-8 8z"/></svg>