<svg viewBox="0 0 16 16" xmlns="http://www.w3.org/2000/svg"><path d="M7.333.296a7.226 7.226 0 0 0-1.782.361A7.75 7.75 0 0 0 .632 5.615a7.644 7.644 0 0 0-.002 4.764 7.798 7.798 0 0 0 1.334 2.474c.23.29.889.95 1.183 1.184a8.558 8.558 0 0 0 2.033 1.175 8.065 8.065 0 0 0 2.007.494c.463.047 1.452.067 1.561.032.05-.016.224-.049.385-.072a7.609 7.609 0 0 0 2.267-.718 7.806 7.806 0 0 0 1.477-.934c.318-.265.939-.891 1.185-1.195a7.702 7.702 0 0 0 1.667-4.412 7.683 7.683 0 0 0-.64-3.526c-.761-1.739-2.223-3.198-3.982-3.975C9.922.384 8.804.203 7.333.296m-.08 7.705v6.215l-.1-.017c-.759-.13-1.282-.293-1.886-.587a6.274 6.274 0 0 1-2.419-2.092c-.652-.956-1.005-1.987-1.06-3.096-.051-1.006.052-1.757.351-2.568a6.239 6.239 0 0 1 4.285-3.897c.203-.052.685-.153.809-.17.011-.001.02 2.794.02 6.212m1.912-6.133a6.157 6.157 0 0 1 2.302.944c1.367.91 2.295 2.288 2.657 3.948.075.342.076.36.076 1.227 0 .964-.012 1.07-.203 1.733a6.217 6.217 0 0 1-4.476 4.332 9.562 9.562 0 0 1-.764.161c-.006 0-.01-.419-.01-.931v-.932l.153-.031a5.973 5.973 0 0 0 1.033-.359c.843-.406 1.65-1.219 2.051-2.068a4.382 4.382 0 0 0-.054-3.908 4.419 4.419 0 0 0-2.141-2.023 4.773 4.773 0 0 0-.898-.293l-.11-.018-.017-.323c-.01-.177-.017-.59-.017-.918v-.596h.065c.036 0 .195.025.353.055m-.144 3.4c.32.124.534.245.776.44.651.524 1.02 1.206 1.089 2.017.05.576-.042 1.086-.28 1.555a3.025 3.025 0 0 1-1.299 1.307c-.226.113-.509.22-.53.199-.022-.022-.039-5.613-.018-5.613.009 0 .127.043.262.095" fill-rule="evenodd"/></svg>