<?xml version="1.0" encoding="UTF-8" standalone="no"?>
<svg width="100%" height="100%" viewBox="0 0 18 18" version="1.1" xmlns="http://www.w3.org/2000/svg" xmlns:xlink="http://www.w3.org/1999/xlink" xml:space="preserve" xmlns:serif="http://www.serif.com/" style="fill-rule:evenodd;clip-rule:evenodd;"><path d="M14.01,12.188l-1.96,-1.96c-0.142,-0.141 -0.209,-0.327 -0.218,-0.523c-0.008,-0.198 0.088,-0.383 0.218,-0.524c0.125,-0.137 0.343,-0.218 0.524,-0.218c0.189,-0 0.388,0.083 0.524,0.218c0.131,0.132 0.264,0.263 0.394,0.395l2.819,2.818c0.005,0.004 0.009,0.008 0.013,0.012c0.148,0.134 0.21,0.333 0.218,0.524c0.004,0.099 -0.022,0.205 -0.066,0.302c-0.035,0.082 -0.086,0.158 -0.151,0.223l-3.227,3.227c-0.142,0.142 -0.328,0.208 -0.524,0.218c-0.198,0.008 -0.382,-0.088 -0.524,-0.218c-0.137,-0.125 -0.218,-0.342 -0.218,-0.524c-0,-0.189 0.083,-0.388 0.218,-0.523l1.964,-1.964l-7.558,0c-0.201,0 -0.379,-0.084 -0.524,-0.218c-0.147,-0.133 -0.209,-0.333 -0.217,-0.523c-0.008,-0.184 0.089,-0.396 0.217,-0.524c0.134,-0.135 0.334,-0.218 0.524,-0.218l0.017,0c0.378,-0.005 0.757,0 1.137,0l6.4,0Zm-7.52,-3.516c0.143,0.143 0.209,0.327 0.218,0.524c0.008,0.197 -0.088,0.382 -0.218,0.523c-0.125,0.137 -0.342,0.218 -0.524,0.218c-0.189,0 -0.388,-0.083 -0.523,-0.218l-2.135,-2.134l-1.092,-1.093c-0.008,-0.008 -0.016,-0.016 -0.024,-0.025c-0.064,-0.066 -0.109,-0.145 -0.14,-0.23c-0.022,-0.057 -0.036,-0.116 -0.043,-0.176c-0.005,-0.031 -0.008,-0.061 -0.009,-0.092c-0.004,-0.088 0.016,-0.182 0.052,-0.271c0.036,-0.093 0.09,-0.18 0.164,-0.253l2.134,-2.135l1.093,-1.092c0.141,-0.142 0.327,-0.209 0.523,-0.218c0.198,-0.008 0.383,0.088 0.524,0.218c0.137,0.125 0.218,0.343 0.218,0.524c-0,0.189 -0.083,0.388 -0.218,0.524c-0.132,0.131 -0.263,0.264 -0.395,0.394l-1.567,1.567l7.558,0c0.201,0 0.379,0.084 0.524,0.218c0.147,0.134 0.209,0.332 0.218,0.524c0.008,0.184 -0.089,0.395 -0.218,0.523c-0.134,0.135 -0.334,0.218 -0.524,0.218l-0.016,0c-0.379,0.005 -0.757,0 -1.137,0l-6.405,0l1.962,1.962Z" style="fill-rule:nonzero;"/></svg>
