<svg xmlns="http://www.w3.org/2000/svg" width="24" height="24" viewBox="0 0 24 24">
    <path fill-rule="evenodd" d="M22.174 8.555h.004L16.59 2.137c-.437-.443-1.147-.443-1.584 0-.438.443-.438 1.161 0 1.604l4.426 4.48H2.625c-.622 0-1.125.504-1.125 1.125 0 .622.503 1.125 1.125 1.125h18.75c.621 0 1.125-.503 1.125-1.125 0-.308-.125-.588-.326-.791zM1.794 15.446h-.001l6.337 6.418c.438.443 1.147.443 1.585 0 .437-.443.437-1.161 0-1.604L5.32 15.813h16.054c.621 0 1.125-.504 1.125-1.125 0-.622-.504-1.125-1.125-1.125H2.625c-.622 0-1.125.503-1.125 1.125 0 .292.111.558.294.758z" clip-rule="evenodd"/>
</svg>
