<svg xmlns="http://www.w3.org/2000/svg" viewBox="0 0 24 24"><path d="M15.333 1.923c-.252.124-.515.428-.59.679a.983.983 0 0 0-.002.668c.075.252.135.318 2.706 2.942 1.052 1.074 1.913 1.969 1.913 1.99 0 .024-3.167.038-8.504.038H2.351l-.238.127c-.432.23-.619.576-.584 1.075.035.481.353.879.772.968.345.072 19.045.073 19.399.001.21-.043.264-.075.431-.254.255-.273.317-.406.34-.721.025-.352-.03-.499-.323-.868-.599-.755-4.724-5.496-5.327-6.124-.545-.568-.606-.604-.997-.604-.247 0-.364.02-.491.083M3.18 13.598c-.912.022-.922.023-1.106.131a1.168 1.168 0 0 0-.479.531c-.098.214-.098.626 0 .84.108.234 1.281 1.459 4.204 4.386 2.824 2.83 2.664 2.693 3.161 2.69.415-.003.758-.219.936-.588.139-.287.168-.564.089-.837-.079-.271-.172-.372-2.775-3.021L5.313 15.8l7.753-.001c4.265-.001 7.985-.018 8.267-.037.461-.032.528-.046.669-.143.557-.386.643-1.145.19-1.674-.248-.29-.323-.31-1.312-.348-.927-.036-16.179-.035-17.7.001" fill-rule="evenodd"/></svg>