<svg viewBox="0 0 16 16" xmlns="http://www.w3.org/2000/svg"><path d="M12.307 2.746c-2.014.014-2.056.015-2.174.07-.279.13-.388.354-.368.755.022.427.194.614.615.669.107.014.667.025 1.247.026l1.053.001-2.086 2.086-2.086 2.086L7.46 7.394C6.329 6.267 6.264 6.214 6 6.214c-.285 0-.217-.061-2.79 2.514C.648 11.293.712 11.221.712 11.503c0 .35.439.791.786.79.276-.001.248.024 2.455-2.18l2.046-2.045 1.048 1.044c1.122 1.12 1.197 1.18 1.451 1.181.265.001.195.064 2.796-2.534a228.594 228.594 0 0 1 2.445-2.426c.011 0 .022.555.027 1.234.007 1.144.011 1.24.057 1.326.125.234.283.324.596.342.398.021.62-.079.747-.338l.074-.15.018-2.107.02-2.187c.005-.137-.107-.39-.225-.506a.805.805 0 0 0-.554-.221c-.076.003-1.063.012-2.192.02" fill-rule="evenodd"/></svg>