<svg viewBox="0 0 32 32" xmlns="http://www.w3.org/2000/svg"><path d="M20.565 6.855c-.224.117-.295.235-.297.496-.001.185.029.261.155.386l.155.156h3.258c1.791 0 3.257.018 3.257.04 0 .022-2.273 2.314-5.052 5.093l-5.053 5.053-2.267-2.261c-2.428-2.42-2.417-2.411-2.782-2.253-.261.113-8.935 8.816-8.983 9.012a.575.575 0 0 0 .246.613c.39.264.136.485 4.743-4.122l4.189-4.188 2.213 2.214c1.217 1.217 2.292 2.251 2.389 2.297a.55.55 0 0 0 .346.048c.137-.028 1.25-1.113 5.518-5.377l5.347-5.341v3.259c0 3.187.002 3.262.107 3.396.16.203.425.275.658.177.371-.154.355.046.355-4.409V7.136l-.182-.181-.181-.182-3.992.001c-3.462 0-4.013.011-4.147.081" fill-rule="evenodd"/></svg>
