<svg viewBox="0 0 17 16" xmlns="http://www.w3.org/2000/svg"><path d="M2.054 3.745c-.315.118-.609.484-.609.76 0 .263-.024.237 2.519 2.779 1.622 1.623 2.433 2.415 2.51 2.451.159.075.39.069.553-.015.084-.043.484-.42 1.176-1.11l1.049-1.044 2.075 2.075a155.996 155.996 0 0 1 2.075 2.095c0 .011-.552.023-1.226.028-1.201.008-1.227.01-1.342.071a.61.61 0 0 0-.312.398c-.09.311.004.723.199.87.202.153.208.153 2.547.159l2.162.006.141-.062c.207-.092.31-.207.397-.445.058-.16.07-.23.054-.314-.012-.059-.029-1.039-.039-2.176l-.017-2.069-.079-.133a.61.61 0 0 0-.212-.213c-.124-.072-.157-.079-.432-.079-.333 0-.465.047-.604.213-.136.162-.142.22-.154 1.5l-.01 1.202-2.428-2.425c-1.472-1.47-2.472-2.449-2.541-2.485a.633.633 0 0 0-.533.001c-.076.038-.495.434-1.174 1.112L6.743 7.947 4.682 5.89C3.251 4.463 2.586 3.818 2.507 3.782c-.138-.063-.339-.08-.453-.037" fill-rule="evenodd"/></svg>