<svg viewBox="0 0 16 16" xmlns="http://www.w3.org/2000/svg"><path d="M3.987 1.037c-.289.015-.334.024-.463.095a1.176 1.176 0 0 0-.449.49L3 1.773 2.992 4.68c-.01 3.375.012 4.12.144 5.022.112.769.43 1.402 1.271 2.529.445.597.982 1.39 1.486 2.197.338.541.331.536.877.566.229.013.953.019 1.61.012l1.192-.012.128-.065c.115-.059.154-.108.423-.53.626-.981 1.013-1.553 1.448-2.139.511-.689.689-.963.923-1.425.475-.935.528-1.579.514-6.275L13 1.773l-.075-.151a1.1 1.1 0 0 0-.493-.508l-.178-.087-3.973-.003c-2.186-.002-4.118.004-4.294.013m7.79 4.383c-.019 3.285-.034 3.801-.121 4.223-.101.49-.409 1.045-1.065 1.919-.424.566-.88 1.232-1.278 1.868-.149.239-.238.355-.279.366-.033.009-.519.017-1.08.017h-1.02l-.112-.18a43.914 43.914 0 0 0-1.372-2.008c-.641-.86-.951-1.383-1.051-1.777-.158-.615-.184-1.313-.185-4.841l-.001-2.794h7.582l-.018 3.207M5.493 6v2.507h5.014V3.493H5.493V6" fill-rule="evenodd"/></svg>