<svg viewBox="0 0 16 16" xmlns="http://www.w3.org/2000/svg"><path d="M4.639 1.521c-.785.058-1.045.313-1.12 1.098-.019.203-.026 1.35-.02 3.514l.01 3.214.069.28c.204.818.665 1.969 1.307 3.266.273.55.365.698.585.933.33.352.708.557 1.185.64.183.032.467.041 1.342.04 1.174 0 1.339-.012 1.673-.118.3-.095.523-.235.786-.495.276-.271.364-.405.659-1 .642-1.297 1.103-2.448 1.307-3.266l.069-.28.01-3.214c.009-3.372.001-3.662-.106-3.989-.104-.316-.333-.503-.724-.59-.168-.037-.586-.043-3.471-.048-1.804-.004-3.406.003-3.561.015m6.641 3.212v2.014H4.72V2.72h6.56v2.013M11.279 8.7c0 .502-.037.708-.224 1.259-.204.602-.693 1.725-1.11 2.548-.207.409-.35.578-.585.69l-.147.07H6.787l-.147-.07c-.274-.131-.373-.263-.707-.944-.478-.973-.893-1.958-1.063-2.52-.124-.409-.15-.592-.15-1.041v-.425h6.56l-.001.433m-5.303.304a.521.521 0 0 0-.343.302c-.064.129-.073.179-.073.401 0 .221.009.272.068.387a.644.644 0 0 0 .425.33c.091.02.739.029 1.947.029 1.208 0 1.856-.009 1.947-.029a.639.639 0 0 0 .424-.331c.058-.114.068-.168.068-.386.001-.223-.008-.272-.072-.401a.516.516 0 0 0-.35-.303c-.111-.038-.352-.043-2.025-.042-1.642.001-1.915.007-2.016.043"/></svg>