<svg viewBox="0 0 32 32" fill="none" xmlns="http://www.w3.org/2000/svg">
<path fill-rule="evenodd" clip-rule="evenodd" d="M11.2941 1.13235C8.93063 1.13235 7.01468 3.04831 7.01468 5.41176V18.3005C7.01468 18.3142 7.0147 18.3279 7.01476 18.3416C7.0147 18.3454 7.01468 18.3492 7.01468 18.3529C7.01468 18.3596 7.01476 18.3662 7.01493 18.3728C7.02688 20.0519 7.45476 21.7023 8.2608 23.1762L11.5843 29.2535C12.1286 30.2487 13.1725 30.8676 14.3068 30.8676H17.6932C18.8274 30.8676 19.8713 30.2487 20.4156 29.2535L23.7391 23.1762C24.5452 21.7023 24.9731 20.0519 24.985 18.3728C24.9852 18.3662 24.9853 18.3596 24.9853 18.3529C24.9853 18.3492 24.9852 18.3454 24.9852 18.3416C24.9852 18.3279 24.9853 18.3142 24.9853 18.3005V5.41176C24.9853 3.04831 23.0693 1.13235 20.7059 1.13235H11.2941ZM23.4853 17.6029V5.41176C23.4853 3.87674 22.2409 2.63235 20.7059 2.63235H11.2941C9.75906 2.63235 8.51468 3.87674 8.51468 5.41176V17.6029H23.4853ZM8.55193 19.1029C8.66109 20.2762 9.0088 21.4177 9.57686 22.4565L12.9004 28.5338C13.1816 29.0479 13.7208 29.3676 14.3068 29.3676H17.6932C18.2791 29.3676 18.8184 29.0479 19.0995 28.5338L22.4231 22.4565C22.9911 21.4177 23.3388 20.2762 23.448 19.1029H8.55193Z" fill="#171717"/>
</svg>