<svg viewBox="0 0 12 12" xmlns="http://www.w3.org/2000/svg"><path d="M3.88 2.141a2.961 2.961 0 0 0-2.285 1.43 2.971 2.971 0 0 0-.326 2.159c.138.572.378.998.803 1.421l.221.221-.245.126A4.5 4.5 0 0 0 .441 8.834c-.158.211-.222.344-.221.465.002.19.272.442.51.474.185.025.288-.049.567-.408.167-.215.489-.522.724-.69.236-.169.707-.408.97-.492a3.632 3.632 0 0 1 2.759.207c.512.261.854.539 1.204.98.269.338.359.41.515.41.172 0 .432-.166.508-.325.09-.185.047-.34-.174-.63a4.583 4.583 0 0 0-1.616-1.334c-.208-.103-.247-.129-.218-.145.02-.011.112-.096.206-.188.401-.396.662-.848.796-1.377.19-.757.068-1.58-.331-2.231a2.964 2.964 0 0 0-1.907-1.359 5.62 5.62 0 0 0-.653-.068c-.006.002-.095.01-.2.018m3.81 0c-.338.027-.621.099-.754.192-.193.133-.21.484-.035.725.117.162.281.194.609.121a2.106 2.106 0 0 1 1.04.046A1.934 1.934 0 0 1 9.874 4.97c.024.483-.122.926-.432 1.314-.347.433-.836.676-1.442.714-.356.023-.463.086-.532.317a.644.644 0 0 0 .071.524c.081.114.178.145.501.164.351.02.528.044.786.108a3.659 3.659 0 0 1 1.469.756c.203.169.35.326.558.596.185.241.29.317.437.317.159 0 .383-.134.489-.294a.3.3 0 0 0 .061-.2c0-.142-.035-.22-.198-.435a4.526 4.526 0 0 0-1.639-1.363c-.198-.1-.24-.128-.213-.143.019-.011.111-.095.205-.187.399-.394.66-.846.795-1.377a2.94 2.94 0 0 0-.33-2.231 2.965 2.965 0 0 0-1.907-1.359 5.537 5.537 0 0 0-.663-.068c-.011.002-.101.009-.2.018m-3.2 1.022c.646.109 1.245.627 1.464 1.267a1.942 1.942 0 0 1-.619 2.139 1.922 1.922 0 0 1-2.596-.163c-.405-.424-.579-.917-.536-1.517.055-.784.632-1.478 1.405-1.69.273-.075.576-.087.882-.036" fill-rule="evenodd" /></svg>