<svg xmlns="http://www.w3.org/2000/svg" viewBox="0 0 12 12" fill-rule="evenodd"><path d="M4.289 1.807a.511.511 0 0 0-.247.253c-.027.06-.032.169-.032.74 0 .762.006.797.153.931a.436.436 0 0 0 .337.129.436.436 0 0 0 .337-.129c.147-.134.153-.169.153-.931 0-.571-.005-.68-.032-.74a.503.503 0 0 0-.669-.253m3.191.002a2.53 2.53 0 0 0-.97.387c-.18.118-.864.807-.941.949a.497.497 0 0 0 .221.677.58.58 0 0 0 .424-.004c.057-.028.193-.153.401-.371.42-.439.54-.527.855-.627.107-.033.193-.044.36-.046.269-.002.385.023.629.14.32.153.593.465.708.809.089.265.082.619-.016.89-.087.24-.164.341-.566.737-.25.248-.395.406-.415.454a.64.64 0 0 0 .008.406.497.497 0 0 0 .677.221c.142-.077.831-.761.949-.941A2.372 2.372 0 0 0 8.33 1.83a2.997 2.997 0 0 0-.85-.021M2.144 4.021a.478.478 0 0 0-.383.479.5.5 0 0 0 .299.458c.06.027.169.032.74.032.598 0 .68-.004.764-.036a.554.554 0 0 0 .268-.266.674.674 0 0 0 .001-.375.57.57 0 0 0-.253-.261c-.085-.039-.128-.042-.72-.046a8.94 8.94 0 0 0-.716.015m1.134 1.497a.616.616 0 0 0-.16.067c-.136.08-.815.762-.922.925a2.355 2.355 0 0 0-.408 1.44c.031.625.256 1.137.691 1.571.434.435.946.66 1.571.691.508.025.982-.109 1.44-.408.18-.118.864-.807.941-.949a.497.497 0 0 0-.221-.677.58.58 0 0 0-.424.004c-.057.028-.193.153-.401.371-.173.181-.36.364-.416.406a1.293 1.293 0 0 1-.798.268 1.22 1.22 0 0 1-.63-.141 1.431 1.431 0 0 1-.708-.809 1.448 1.448 0 0 1 .016-.89c.087-.24.164-.341.566-.737.25-.248.395-.406.415-.454a.64.64 0 0 0-.008-.406.506.506 0 0 0-.544-.272M8.527 7.02a.454.454 0 0 0-.261.143.45.45 0 0 0-.126.341.442.442 0 0 0 .154.359c.138.124.162.127.906.127.732 0 .735 0 .878-.121.211-.178.211-.56 0-.738-.141-.119-.152-.12-.838-.124a9.258 9.258 0 0 0-.713.013M7.29 8.177a.568.568 0 0 0-.253.275c-.021.06-.027.232-.027.748 0 .571.005.68.032.74.084.184.261.3.458.3a.503.503 0 0 0 .458-.3c.027-.06.032-.169.032-.74 0-.744-.003-.768-.127-.906a.44.44 0 0 0-.363-.153.54.54 0 0 0-.21.036"/></svg>