<svg  fill-rule="evenodd"  viewBox="0 0 20 20" xmlns="http://www.w3.org/2000/svg"><path d="M6.35 3.656c-1.515.197-2.75.979-3.561 2.252-.29.456-.497.982-.626 1.592-.097.458-.107 1.326-.02 1.791.138.747.454 1.454.926 2.076.185.243.698.764.862.876.045.031.075.061.067.068a7.443 7.443 0 0 1-.331.157c-1.2.548-2.33 1.494-3.034 2.541-.297.442-.163.874.345 1.11.375.175.611.084.957-.37 1.05-1.378 2.497-2.232 4.153-2.451.447-.059 1.567-.023 1.985.064a6.816 6.816 0 0 1 1.977.775 6.565 6.565 0 0 1 1.625 1.441c.419.537.528.622.802.622.246 0 .62-.24.744-.477.065-.124.068-.377.006-.523-.077-.18-.538-.774-.873-1.125a7.888 7.888 0 0 0-2.377-1.66l-.243-.106.262-.22a4.876 4.876 0 0 0 1.521-2.403c.206-.738.2-1.769-.014-2.536A4.812 4.812 0 0 0 7.47 3.67a6.705 6.705 0 0 0-1.12-.014m6.179.029c-.867.135-1.142.316-1.138.75.003.355.156.668.383.785.133.069.379.063.759-.018a3.338 3.338 0 0 1 3.969 2.631c.059.308.051.964-.016 1.274a3.259 3.259 0 0 1-.974 1.73c-.567.545-1.239.834-2.092.899-.594.045-.768.129-.872.42a1.382 1.382 0 0 0 0 .688c.112.313.281.385.995.422a5.562 5.562 0 0 1 1.613.295 6.102 6.102 0 0 1 1.861.989 7.99 7.99 0 0 1 1.098 1.117c.319.425.467.533.729.533.241 0 .623-.242.737-.467.14-.275.075-.499-.281-.974a7.45 7.45 0 0 0-2.692-2.214 20.892 20.892 0 0 1-.473-.237c-.009-.006.058-.073.15-.148a4.785 4.785 0 0 0 1.75-3.7c.004-2.255-1.423-4.088-3.652-4.692-.475-.129-1.318-.167-1.854-.083M7.717 5.231a3.37 3.37 0 0 1 2.218 1.952c.18.442.24.753.24 1.25 0 .966-.334 1.739-1.04 2.409a3.185 3.185 0 0 1-1.261.747l-.391.128h-.6c-.714 0-.918-.046-1.5-.334-1.534-.76-2.224-2.599-1.572-4.196.301-.741.958-1.432 1.662-1.751.239-.109.611-.227.849-.27.294-.053 1.097-.015 1.395.065" /></svg>