<svg viewBox="0 0 16 17" xmlns="http://www.w3.org/2000/svg"><path d="M8 7a1.75 1.75 0 1 0 0 3.5A1.75 1.75 0 0 0 8 7ZM4.75 8.75a3.25 3.25 0 1 1 6.5 0 3.25 3.25 0 0 1-6.5 0ZM13.592 8.315A2.988 2.988 0 0 0 12.252 8a.75.75 0 1 1-.003-1.5 4.488 4.488 0 0 1 3.602 1.801.75.75 0 0 1-1.202.898 2.987 2.987 0 0 0-1.057-.884ZM3.749 8A2.988 2.988 0 0 0 1.35 9.199a.75.75 0 1 1-1.202-.898A4.487 4.487 0 0 1 3.751 6.5.75.75 0 1 1 3.75 8Z"/><path d="M8 12.002a3.256 3.256 0 0 0-2.926 1.827.75.75 0 0 1-1.348-.658 4.756 4.756 0 0 1 8.548 0 .75.75 0 1 1-1.348.658A3.256 3.256 0 0 0 8 12.002ZM4.058 4.04A1.25 1.25 0 1 0 3.75 6.5.75.75 0 0 1 3.751 8a2.75 2.75 0 1 1 2.698-3.266.75.75 0 0 1-1.473.282 1.25 1.25 0 0 0-.918-.977ZM12.639 4.061a1.25 1.25 0 0 0-1.615.955.75.75 0 0 1-1.473-.282A2.75 2.75 0 1 1 12.249 8a.75.75 0 1 1 .002-1.5 1.25 1.25 0 0 0 .388-2.439Z"/></svg>