<svg viewBox="0 0 24 24" xmlns="http://www.w3.org/2000/svg"><path d="M7.44 4.579a5.625 5.625 0 0 0-4.616 4.15 5.641 5.641 0 0 0 .886 4.681c.277.385.793.912 1.146 1.172.145.106.264.205.264.218 0 .014-.104.067-.23.119-1.288.525-2.504 1.385-3.366 2.381-.82.948-.944 1.263-.644 1.627.137.166.481.353.649.353.21 0 .407-.142.671-.484.79-1.021 1.579-1.692 2.607-2.218 1.134-.58 2.145-.822 3.439-.824.7-.001 1.048.035 1.674.173 1.637.36 3.269 1.4 4.257 2.713.376.499.546.64.776.64.249 0 .624-.243.749-.484.083-.16.072-.391-.027-.577-.135-.253-.58-.805-.994-1.233a8.992 8.992 0 0 0-2.929-2.006l-.401-.169.255-.193a5.736 5.736 0 0 0 2.134-3.338c.09-.413.124-1.468.061-1.932a6.663 6.663 0 0 0-.453-1.552c-1.03-2.251-3.464-3.577-5.908-3.217m7.704-.013c-.403.051-.894.181-1.05.278-.183.113-.265.285-.259.542.006.276.101.504.271.653.171.151.362.158.948.037.343-.071.495-.081.986-.063.964.036 1.687.298 2.425.882 1.959 1.549 2.084 4.514.263 6.232-.722.681-1.554 1.04-2.583 1.114-.82.059-.965.173-.965.759 0 .295.014.373.083.467.142.195.325.256.825.277 1.763.073 3.22.613 4.557 1.689.356.287.905.852 1.172 1.207.379.503.546.64.782.64.169 0 .358-.085.536-.241.278-.244.339-.522.18-.82-.134-.251-.578-.803-.994-1.235a8.987 8.987 0 0 0-2.931-2.006l-.396-.169.253-.192a5.748 5.748 0 0 0 2.133-3.337c.1-.449.125-1.564.046-2.02-.215-1.236-.731-2.245-1.585-3.102a5.667 5.667 0 0 0-4.697-1.592M9.26 6.113c.628.176 1.093.409 1.565.782a4.154 4.154 0 0 1 1.477 2.407c.081.379.092 1.197.021 1.572a4.246 4.246 0 0 1-1.235 2.253 4.13 4.13 0 0 1-1.708.979c-.338.104-.407.111-1.12.112-.678.002-.794-.008-1.079-.091-1.364-.394-2.421-1.396-2.856-2.707a4.222 4.222 0 0 1 .11-2.893c.194-.477.469-.877.902-1.311.61-.611 1.242-.96 2.063-1.141.457-.1 1.44-.08 1.86.038" fill-rule="evenodd"/></svg>
