<svg width="24" height="24" fill="none" xmlns="http://www.w3.org/2000/svg">
    <path d="M7.44 4.579a5.625 5.625 0 0 0-4.616 4.15 5.641 5.641 0 0 0 .886 4.681c.277.385.793.912 1.146 1.172.145.106.264.205.264.218 0 .014-.104.067-.23.119-1.288.525-2.504 1.385-3.366 2.381-.639.739-.839 1.082-.788 1.354.035.185.232.403.472.522.413.206.602.121 1.071-.479.905-1.16 1.979-1.961 3.327-2.482 1.356-.523 3.112-.614 4.544-.235 1.536.407 3.014 1.364 3.934 2.546.498.64.629.754.869.754.249 0 .624-.243.749-.484.083-.16.072-.391-.027-.577-.135-.253-.58-.805-.994-1.233a8.992 8.992 0 0 0-2.929-2.006l-.401-.169.255-.193a5.736 5.736 0 0 0 2.134-3.338c.09-.413.124-1.468.061-1.932a6.663 6.663 0 0 0-.453-1.552c-1.03-2.251-3.464-3.577-5.908-3.217m7.704-.013c-.403.051-.894.181-1.05.278-.183.113-.265.285-.259.542.006.276.101.504.271.653.171.151.362.158.948.037.343-.071.495-.081.986-.063.745.028 1.156.134 1.792.465 1.066.555 1.847 1.6 2.11 2.824.081.379.092 1.197.021 1.572a4.246 4.246 0 0 1-1.235 2.253c-.725.684-1.549 1.039-2.583 1.114-.82.059-.965.173-.965.759 0 .295.014.373.083.467.144.197.326.257.846.278 1.565.063 2.931.524 4.168 1.406.473.338 1.113.946 1.447 1.375.498.64.629.754.869.754.249 0 .624-.243.749-.484.083-.16.072-.391-.027-.577-.134-.251-.578-.803-.994-1.235a9.003 9.003 0 0 0-2.931-2.006l-.396-.169.253-.192a5.739 5.739 0 0 0 2.133-3.337c.09-.413.124-1.468.061-1.932a6.663 6.663 0 0 0-.453-1.552c-1.019-2.227-3.401-3.544-5.844-3.23M9.26 6.113c.628.176 1.093.409 1.565.782a4.154 4.154 0 0 1 1.477 2.407c.081.379.092 1.197.021 1.572a4.246 4.246 0 0 1-1.235 2.253 4.13 4.13 0 0 1-1.708.979c-.338.104-.407.111-1.12.112-.678.002-.794-.008-1.079-.091-1.364-.394-2.421-1.396-2.856-2.707a4.222 4.222 0 0 1 .11-2.893c.194-.477.469-.877.902-1.311.61-.611 1.242-.96 2.063-1.141.457-.1 1.44-.08 1.86.038" fill-rule="evenodd" fill="#000"/>
</svg>