<svg viewBox="0 0 24 24" xmlns="http://www.w3.org/2000/svg" xml:space="preserve" style="fill-rule:evenodd;clip-rule:evenodd;stroke-linejoin:round;stroke-miterlimit:2"><path d="M11.7 1.282c-.698.092-1.232.416-2.151 1.307-.303.294-.662.606-.797.693-.398.257-.529.282-1.672.32-.634.02-1.118.055-1.28.092-.984.223-1.634.748-1.944 1.574-.192.508-.221.71-.256 1.772-.021.658-.053 1.093-.09 1.227-.095.345-.302.634-.91 1.268-.626.653-.794.863-1.013 1.265-.443.814-.443 1.586 0 2.4.219.402.387.612 1.013 1.265.608.634.815.923.91 1.268.037.134.069.569.09 1.227.035 1.062.064 1.264.256 1.772a2.36 2.36 0 0 0 1.412 1.412c.51.192.708.221 1.792.256 1.164.038 1.296.062 1.689.316.134.087.502.407.817.711.62.597.831.767 1.234.986.814.443 1.586.443 2.4 0 .403-.219.614-.389 1.234-.986.315-.304.683-.624.817-.711.393-.254.525-.278 1.689-.316 1.083-.035 1.283-.064 1.789-.255a2.389 2.389 0 0 0 1.415-1.413c.192-.508.221-.71.256-1.772.021-.658.053-1.093.09-1.227.095-.345.302-.634.91-1.268.626-.653.794-.863 1.013-1.265.519-.954.426-1.881-.287-2.86-.08-.11-.407-.472-.726-.805-.608-.634-.815-.923-.91-1.268-.037-.134-.069-.569-.09-1.227-.035-1.062-.064-1.264-.256-1.772-.255-.679-.746-1.162-1.447-1.426-.447-.168-.726-.206-1.777-.24-1.141-.038-1.274-.063-1.667-.317-.133-.086-.51-.415-.839-.73-.62-.597-.997-.88-1.424-1.072a2.41 2.41 0 0 0-1.29-.201m.681 2.14c.11.074.389.311.62.527 1.483 1.385 1.801 1.533 3.469 1.611 1.358.063 1.545.091 1.712.258.148.148.18.344.238 1.463.102 1.95.21 2.197 1.631 3.718.897.96.897 1.042 0 2.002-.578.619-.88.98-1.095 1.309-.374.573-.46.961-.535 2.409-.031.583-.073 1.117-.094 1.185-.132.429-.284.477-1.706.535-.981.041-1.453.109-1.833.263-.335.136-.825.477-1.288.897-1.21 1.096-1.344 1.193-1.579 1.141-.168-.037-.503-.293-1.041-.796-.912-.854-1.423-1.202-1.972-1.342-.378-.097-.984-.162-1.502-.162-.582 0-1.238-.073-1.431-.158-.302-.134-.351-.343-.413-1.748-.077-1.733-.217-2.038-1.613-3.533-.897-.96-.897-1.042 0-2.002 1.396-1.495 1.536-1.8 1.613-3.533.059-1.332.114-1.6.355-1.724.175-.091.574-.137 1.549-.18 1.252-.056 1.664-.152 2.229-.522.324-.211.723-.545 1.278-1.069.425-.401.741-.645.894-.689.161-.047.284-.013.514.14m3.303 5.448c-.14.075-.963.835-2.611 2.41a254.488 254.488 0 0 1-2.435 2.312c-.016.006-.513-.451-1.104-1.016-.646-.618-1.138-1.056-1.234-1.101-.215-.098-.625-.098-.843.001-.493.224-.714.844-.477 1.339.091.191 2.961 2.95 3.2 3.077.215.114.655.12.872.013.195-.097 5.817-5.459 5.942-5.667.13-.218.159-.579.067-.822-.216-.564-.864-.821-1.377-.546"/></svg>