<svg width="100%" height="100%" viewBox="0 0 24 24" version="1.1" xmlns="http://www.w3.org/2000/svg" xmlns:xlink="http://www.w3.org/1999/xlink" xml:space="preserve" xmlns:serif="http://www.serif.com/" style="fill-rule:evenodd;clip-rule:evenodd;stroke-linejoin:round;stroke-miterlimit:2;">
    <path d="M4.399,19.601C4.906,20.108 5.616,20.332 6.41,20.394C7.114,20.449 7.905,20.318 8.459,20.548C9.034,20.786 9.515,21.436 10.049,21.893C10.655,22.411 11.306,22.75 12,22.75C12.694,22.75 13.345,22.411 13.951,21.893C14.485,21.436 14.966,20.786 15.54,20.548C15.54,20.548 15.541,20.548 15.541,20.548C16.095,20.318 16.886,20.449 17.59,20.394C18.384,20.332 19.094,20.108 19.601,19.601C20.108,19.094 20.332,18.384 20.394,17.59C20.449,16.886 20.318,16.095 20.548,15.541C20.786,14.966 21.436,14.485 21.893,13.951C22.411,13.345 22.75,12.694 22.75,12C22.75,11.306 22.411,10.655 21.893,10.049C21.436,9.515 20.786,9.034 20.548,8.46C20.548,8.46 20.548,8.459 20.548,8.459C20.318,7.905 20.449,7.114 20.394,6.41C20.332,5.616 20.108,4.906 19.601,4.399C19.094,3.892 18.384,3.668 17.59,3.606C16.886,3.551 16.095,3.682 15.541,3.452C14.966,3.214 14.485,2.564 13.951,2.107C13.345,1.589 12.694,1.25 12,1.25C11.306,1.25 10.655,1.589 10.049,2.107C9.515,2.564 9.034,3.214 8.459,3.452C7.905,3.682 7.114,3.551 6.41,3.606C5.616,3.668 4.906,3.892 4.399,4.399C3.892,4.906 3.668,5.616 3.606,6.41C3.551,7.114 3.682,7.905 3.452,8.459C3.214,9.034 2.564,9.515 2.107,10.049C1.589,10.655 1.25,11.306 1.25,12C1.25,12.694 1.589,13.345 2.107,13.951C2.564,14.485 3.214,14.966 3.452,15.541C3.682,16.095 3.551,16.886 3.606,17.59C3.668,18.384 3.892,19.094 4.399,19.601ZM5.813,18.187C5.698,18.072 5.666,17.907 5.636,17.736C5.6,17.526 5.588,17.301 5.582,17.072C5.559,16.251 5.56,15.404 5.3,14.775C5.3,14.775 5.3,14.775 5.3,14.775C5.031,14.126 4.431,13.518 3.871,12.922C3.713,12.754 3.562,12.586 3.438,12.412C3.343,12.278 3.25,12.15 3.25,12C3.25,11.85 3.343,11.722 3.438,11.588C3.562,11.414 3.713,11.246 3.871,11.078C4.431,10.482 5.031,9.874 5.3,9.225C5.3,9.225 5.3,9.225 5.3,9.225C5.56,8.596 5.559,7.749 5.582,6.928C5.588,6.699 5.6,6.474 5.636,6.264C5.666,6.093 5.698,5.928 5.813,5.813C5.928,5.698 6.093,5.666 6.264,5.636C6.474,5.6 6.699,5.588 6.928,5.582C7.749,5.559 8.596,5.56 9.225,5.3C9.225,5.3 9.225,5.3 9.225,5.3C9.874,5.031 10.482,4.431 11.078,3.871C11.246,3.713 11.414,3.562 11.588,3.438C11.722,3.343 11.85,3.25 12,3.25C12.15,3.25 12.278,3.343 12.412,3.438C12.586,3.562 12.754,3.713 12.922,3.871C13.518,4.431 14.126,5.031 14.775,5.3C14.775,5.3 14.775,5.3 14.775,5.3C15.404,5.56 16.251,5.559 17.072,5.582C17.301,5.588 17.526,5.6 17.736,5.636C17.907,5.666 18.072,5.698 18.187,5.813C18.302,5.928 18.334,6.093 18.364,6.264C18.4,6.474 18.412,6.699 18.418,6.928C18.441,7.749 18.44,8.595 18.7,9.224C18.969,9.874 19.568,10.482 20.129,11.078C20.286,11.247 20.438,11.414 20.562,11.588C20.657,11.722 20.75,11.85 20.75,12C20.75,12.15 20.657,12.278 20.562,12.412C20.438,12.586 20.287,12.754 20.129,12.922C19.569,13.518 18.969,14.126 18.7,14.775C18.7,14.775 18.7,14.775 18.7,14.775C18.44,15.404 18.441,16.251 18.418,17.072C18.412,17.301 18.4,17.526 18.364,17.736C18.334,17.907 18.302,18.072 18.187,18.187C18.072,18.302 17.907,18.334 17.736,18.364C17.526,18.4 17.301,18.412 17.072,18.418C16.251,18.441 15.405,18.44 14.776,18.7C14.126,18.969 13.518,19.568 12.922,20.129C12.753,20.286 12.586,20.438 12.412,20.562C12.278,20.657 12.15,20.75 12,20.75C11.85,20.75 11.722,20.657 11.588,20.562C11.414,20.438 11.246,20.287 11.078,20.129C10.482,19.569 9.874,18.969 9.225,18.7C9.225,18.7 9.225,18.7 9.225,18.7C8.596,18.44 7.749,18.441 6.928,18.418C6.699,18.412 6.474,18.4 6.264,18.364C6.093,18.334 5.928,18.302 5.813,18.187Z" />
    <path d="M15.435,9.027L10.625,13.618C10.625,13.618 8.565,11.652 8.565,11.652C8.166,11.271 7.533,11.285 7.152,11.685C6.771,12.084 6.785,12.717 7.185,13.098L9.935,15.723C10.321,16.092 10.929,16.092 11.315,15.723L16.815,10.473C17.215,10.092 17.229,9.459 16.848,9.06C16.467,8.66 15.834,8.646 15.435,9.027Z" />
</svg>
