<svg width="256px" height="216px" fill="#000000" viewBox="0 0 256 216" version="1.1" xmlns="http://www.w3.org/2000/svg" xmlns:xlink="http://www.w3.org/1999/xlink">
    <path d="M254.935579,125.035789 L212.264421,6.46736842 C211.2,3.23368421 206.928842,0 202.671158,0 L170.671158,0 C164.271158,0 160,4.31157895 160,10.7789474 C160,17.2463158 164.271158,21.5578947 170.671158,21.5578947 L195.206737,21.5578947 L230.4,118.568421 L149.328842,118.568421 L106.657684,118.568421 L25.6,118.568421 L60.8067368,21.5578947 L85.3423158,21.5578947 C91.7423158,21.5578947 96.0134737,17.2463158 96.0134737,10.7789474 C96.0134737,4.31157895 91.7423158,0 85.3423158,0 L53.3423158,0 C49.0711579,0 44.8134737,3.23368421 43.7490526,7.54526316 L1.07789474,126.113684 C5.68434189e-14,126.113684 5.68434189e-14,128.269474 5.68434189e-14,129.347368 L5.68434189e-14,183.242105 C5.68434189e-14,201.566316 13.8644211,215.578947 32,215.578947 L85.3288421,215.578947 C103.464421,215.578947 117.328842,201.566316 117.328842,183.242105 L117.328842,140.126316 L138.657684,140.126316 L138.657684,183.242105 C138.657684,201.566316 152.522105,215.578947 170.657684,215.578947 L223.986526,215.578947 C242.122105,215.578947 255.986526,201.566316 255.986526,183.242105 L255.986526,129.347368 C256,128.269474 256,126.113684 254.935579,125.035789 L254.935579,125.035789 Z" id="Path"></path>
</svg>