<svg viewBox="0 0 16 16" xmlns="http://www.w3.org/2000/svg"><path d="M4.067 2.024c-.667.016-.7.02-.871.088a1.961 1.961 0 0 0-1.025.939l-.121.244-.024.413a88.523 88.523 0 0 0-.025 2.465c0 2.316-.012 2.175.209 2.364.239.206.555.207.78.003.207-.186.196-.097.205-1.649l.008-1.389.178.04c.154.035.817.042 4.799.05l4.62.011v1.81l-.993.001c-1.296.001-1.453.016-1.767.17-.534.262-.853.652-.987 1.209-.066.272-.045.69.049.98.131.404.414.751.791.972.407.237.635.267 2.074.268h.833V12.8l-2.5.002a133.72 133.72 0 0 0-2.825.021c-.311.018-.33.022-.427.101-.133.107-.248.328-.248.476 0 .146.114.368.243.472.07.057.142.084.266.102.096.014 1.427.025 3.04.025l2.869.001.171-.085c.218-.109.417-.308.526-.526l.085-.171V5.187l-.076-.16c-.19-.396-.566-.627-1.022-.627H12.8V2.782l-.085-.171a1.284 1.284 0 0 0-.49-.509l-.132-.071-3.666-.012a326.4 326.4 0 0 0-4.36.005M11.6 3.801v.601l-3.98-.008-3.98-.007-.127-.075c-.207-.122-.343-.396-.303-.609a.75.75 0 0 1 .278-.402c.094-.058.13-.062.752-.075.359-.008 2.162-.017 4.007-.02L11.6 3.2v.601m1.2 5.415v.603l-1.06-.011c-1-.01-1.067-.013-1.181-.065a.594.594 0 0 1-.25-.854c.104-.166.199-.231.365-.251.077-.01.586-.019 1.133-.021l.993-.004v.603m-9.882.354a.677.677 0 0 0-.191.149c-.122.149-.151.288-.13.622.023.37.093 1.145.112 1.239.01.046.004.073-.016.073-.017 0-.171-.1-.342-.222-.4-.286-.576-.403-.871-.58-.22-.132-.252-.143-.393-.14-.496.012-.759.606-.429.97.095.105.593.367 1.295.68.158.07.287.135.287.143a.574.574 0 0 1-.154.08c-.084.035-.442.205-.795.377-.761.371-.771.38-.77.719.001.385.217.613.58.613.125 0 .172-.018.407-.157.146-.086.469-.303.719-.481.326-.232.455-.312.462-.282.005.023-.018.35-.05.727-.032.378-.052.76-.045.849.046.586.803.746 1.103.234l.071-.121-.016-.444a13.93 13.93 0 0 0-.061-.852c-.024-.225-.038-.415-.029-.423.008-.008.156.086.33.211.455.326.994.674 1.099.709a.565.565 0 0 0 .723-.385c.041-.148.023-.411-.035-.5-.065-.099-.334-.25-1.011-.569a14.328 14.328 0 0 1-.616-.3c-.011-.011.121-.084.294-.162.647-.291 1.141-.547 1.235-.641a.586.586 0 0 0 .118-.615c-.076-.215-.256-.34-.523-.364-.205-.019-.285.023-1.009.531-.558.39-.667.46-.632.404.024-.039.127-1.182.132-1.462.004-.268-.03-.377-.157-.504a.648.648 0 0 0-.692-.126" fill-rule="evenodd"/></svg>