<svg viewBox="0 0 16 16" xmlns="http://www.w3.org/2000/svg" xml:space="preserve" style="fill-rule:evenodd;clip-rule:evenodd;stroke-linejoin:round;stroke-miterlimit:2"><path d="M10.76 8.92a2.248 2.248 0 0 0-2.24 2.24v15.96c0 1.076.884 1.96 1.96 1.96h19.04c1.076 0 1.96-.884 1.96-1.96V14.24c0-1.076-.884-1.96-1.96-1.96h-1.4v-2.8a.582.582 0 0 0-.56-.56h-16.8Zm0 1.12H27v2.24H10.76c-.63 0-1.12-.49-1.12-1.12 0-.63.49-1.12 1.12-1.12Zm-1.12 3.054c.33.192.713.306 1.12.306 6.307-.006 13.34 0 18.76 0 .475 0 .84.365.84.84v2.8h-8.12c-.766 0-1.4.634-1.4 1.4v4.48c0 .766.634 1.4 1.4 1.4h8.12v2.8c0 .475-.365.84-.84.84H10.48a.826.826 0 0 1-.84-.84V13.094Zm12.6 5.066h8.12v5.04h-8.12a.268.268 0 0 1-.28-.28v-4.48c0-.165.115-.28.28-.28Zm2.8 1.4a1.12 1.12 0 1 0 0 2.24 1.12 1.12 0 0 0 0-2.24Z" style="fill-rule:nonzero" transform="matrix(.52339 0 0 .53716 -2.462 -2.385)"/></svg>