<svg xmlns="http://www.w3.org/2000/svg" viewBox="0 0 16 16" fill-rule="evenodd"><path d="M3.049 2.319a1.778 1.778 0 0 0-1.203 1.134l-.073.214v8.666l.073.214c.194.568.699 1.027 1.263 1.146.158.034.922.039 5.389.04 5.033 0 5.209-.001 5.366-.05.43-.134.772-.518.855-.96.038-.197.038-7.249 0-7.446a1.274 1.274 0 0 0-.855-.96c-.157-.049-.332-.05-5.267-.05-5.48 0-5.243.005-5.315-.13a.354.354 0 0 1-.001-.271c.065-.123-.102-.119 4.546-.133l4.4-.013.106-.058a.75.75 0 0 0 0-1.324l-.106-.058-4.494-.005c-4.322-.006-4.5-.004-4.684.044M13.253 9v3.267H8.372c-5.238 0-5.018.005-5.09-.13-.02-.037-.029-1.005-.029-3.229V5.733h10V9m-2.133-.596c-.352.065-.578.484-.439.815a.58.58 0 0 0 .569.386.622.622 0 0 0 .617-.605.668.668 0 0 0-.168-.409.608.608 0 0 0-.579-.187"/></svg>