<svg height="16" viewBox="0 0 16 16" width="16" xmlns="http://www.w3.org/2000/svg"><path d="m3.18080596 9.5c.32786885 0 .59836066.2704918.59836066.5819672 0 .0327869-.08196722 1.1967213-.14754099 1.6311476.33606558-.2704918 1.31147541-.9262296 1.33606558-.9344263.09836065-.057377.19672131-.0819672.31147541-.0737705.30327869.0163935.5409836.2540984.55737705.5245902.0409836.2295082-.06557377.4754098-.28688525.5901639-.01639344.0163935-1.04918033.5163935-1.45901639.6803279.40983606.1639344 1.45901639.6721311 1.48360655.6967213.22131148.1147541.30327869.3196721.27049181.5491803-.01639345.3442623-.27049181.5327869-.54918033.5491804-.1147541.0081967-.2295082-.0163935-.33606557-.0819672-.02459017-.0081968-.99180328-.6557378-1.32786886-.9262296.06557377.4344263.14754099 1.6065574.14754099 1.6393443 0 .3032787-.27049181.5737705-.59836066.5737705s-.60655738-.2540984-.59836065-.5983607c0-.0245901.08196721-1.1721311.13934426-1.6147541-.33606558.2786886-1.30327869.9262296-1.32786885.9344263-.10655738.0655737-.22131148.0901639-.33606558.0819672-.28688524-.0163935-.53278688-.2131148-.54918033-.5737705-.0409836-.2213115.06557377-.4262295.27049181-.5327869.02459016-.0163934 1.09016393-.5327869 1.5-.6967213-.40983607-.1639344-1.45081967-.6639344-1.48360656-.6885246-.21311475-.1147541-.31967213-.3606557-.27868852-.5901639.01639344-.2868853.2704918-.5081967.54918032-.5245902.1147541-.0081967.22131148.0163935.31147541.0737705.03278689.0081967 1.00819672.6639344 1.35245902.9344262-.06557377-.4344262-.14754098-1.5737705-.14754098-1.5983606-.00819673-.34426232.2704918-.6065574.59836065-.6065574zm8.61921274-7.5c.5128359 0 .9355072.38604019.9932723.88337887l.0067277.11662113v1.39996257h.1999813c.5128358 0 .9355072.38604019.9932723.88337888l.0067277.11662112v7.59990213c0 .5128358-.3860402.9355072-.8833789.9932723l-.1166211.0067277-5.501-.0008647c-.00030004-.0070788-.00098827-.0069653-.00167688-.006853l-.09732312.007853c-.33137085 0-.6-.2686292-.6-.6s.26862915-.6.6-.6c.03385746 0 .06705992.0028044.09938778.0081935l-.00038778-.0091935 5.3010187.0008316v-1.799972h-1.9999532c-.99409703 0-1.79997189-.8058749-1.79997189-1.79997189 0-.94439218.72730206-1.71891386 1.65234619-1.79400507l.1476257-.00596685h1.9999532v-1.79997193h-8.99985963l-.16942271-.02201766-.16657205-.03798141h-.10199841l-.16199747-.04199934-.00016843 2.50205455c-.0080788.00130004-.00796531.00198827-.00785299.00267688l.00785299.09732312c0 .33137085-.26862915.6-.6.6s-.6-.26862915-.6-.6c0-.03385746.00280436-.06705992.00819346-.09938778l-.00819346-.00061222.00009178-4.20002807c0-.9443922.72738815-1.71891389 1.65244092-1.79400507l.14762637-.00596686zm1 6.59989707h-1.9999532c-.3313657 0-.5999906.26862496-.5999906.59999064 0 .29822912.2175862.54563825.502669.59213778l.0973216.00785287h1.9999532zm-1.1999813-5.39991578h-7.79987833c-.33136568 0-.59999064.26862496-.59999064.59999064.00222203.15531848.06459453.30372203.17399729.41399354.08899026.09337566.20505025.1549539.33045991.17699777l.09553344.00899933h7.79987833z" fill-rule="evenodd"/></svg>