<?xml version="1.0" encoding="UTF-8"?>
<svg width="256px" height="256px" viewBox="0 0 256 256" version="1.1" xmlns="http://www.w3.org/2000/svg" xmlns:xlink="http://www.w3.org/1999/xlink">
    <title>wallet_standard</title>
    <g id="Page-1" stroke="none" stroke-width="1" fill="none" fill-rule="evenodd">
        <g id="wallet_standard" fill="#000000" fill-rule="nonzero">
            <path d="M245.328,42.672 L42.672,42.672 L32,42.672 C26.128,42.672 21.328,37.888 21.328,32 C21.328,26.112 26.128,21.328 32,21.328 L192,21.328 L192,32 L213.328,32 L213.328,10.672 C213.328,4.784 208.56,0 202.672,0 L32,0 C14.32,0 -5.68434189e-14,14.32 -5.68434189e-14,32 L-5.68434189e-14,213.328 C-5.68434189e-14,236.896 19.104,256 42.672,256 L245.344,256 C251.216,256 256,251.216 256,245.328 L256,53.328 C256,47.44 251.216,42.672 245.328,42.672 L245.328,42.672 Z M192,170.672 C180.208,170.672 170.672,161.12 170.672,149.344 C170.672,137.552 180.208,128 192,128 C203.792,128 213.328,137.552 213.328,149.328 C213.328,161.12 203.792,170.672 192,170.672 Z" id="Path"></path>
        </g>
    </g>
</svg>