<svg xmlns="http://www.w3.org/2000/svg" width="24" height="24" fill="none" viewBox="0 0 24 24"><path d="M22.723 18.432l-9.407-15.17c-.581-.936-1.944-.936-2.525 0l-9.407 15.17c-.614.989.098 2.268 1.262 2.268H21.46c1.164 0 1.876-1.279 1.262-2.268zm-10.67.152c-.872 0-1.578-.706-1.578-1.578 0-.872.707-1.579 1.578-1.579.872 0 1.579.707 1.579 1.579s-.707 1.578-1.579 1.578zm1.579-5.802c0 .868-.71 1.578-1.579 1.578-.868 0-1.578-.71-1.578-1.578V8.13c0-.868.71-1.579 1.578-1.579.869 0 1.579.71 1.579 1.579v4.65z"/></svg>
