<svg viewBox="0 0 16 16" xmlns="http://www.w3.org/2000/svg"><path d="M7.726 1.906a.995.995 0 0 0-.356.251c-.079.098-5.901 10.76-5.964 10.923-.11.284-.012.645.234.861.238.21-.331.192 6.36.192 6.691 0 6.122.018 6.36-.192a.788.788 0 0 0 .221-.889c-.036-.087-1.38-2.563-2.986-5.501-2.003-3.665-2.951-5.375-3.02-5.446a.73.73 0 0 0-.548-.231.876.876 0 0 0-.301.032m.612 4.183c.075.038.18.12.233.183.175.204.179.235.17 1.665-.008 1.257-.009 1.278-.066 1.386-.15.281-.376.421-.675.421-.299 0-.525-.14-.675-.421-.057-.108-.058-.129-.066-1.386-.009-1.495-.01-1.483.216-1.708a.722.722 0 0 1 .863-.14m.095 4.266c.195.096.369.27.465.465.068.139.075.18.075.433 0 .257-.006.293-.078.434a1.206 1.206 0 0 1-.487.479c-.106.049-.176.059-.408.059-.336 0-.46-.046-.677-.251a.898.898 0 0 1-.304-.661c-.015-.27.022-.415.157-.618.11-.165.281-.302.473-.379.097-.038.181-.048.378-.043.215.006.276.018.406.082" fill-rule="evenodd"/></svg>