<svg height="16" viewBox="0 0 16 16" width="16" xmlns="http://www.w3.org/2000/svg"><path d="m7.9998453 1.85714286c.28430725 0 .55053653.14795345.69617726.39194491l5.83251494 10.67841253c.1525937.2538204.1524127.5702299-.0004631.8238761-.1473883.2445416-.4126231.3914807-.6959108.3914807h-11.66432722c-.28328771 0-.54852247-.1469391-.69591076-.3914807-.1528758-.2536462-.15305685-.5700557-.00011958-.8244469l5.83047702-10.67553258c.14702571-.24630061.41325499-.39425406.69756224-.39425406zm.0001547 8.39285714c-.55228475 0-1 .4477153-1 1s.44771525 1 1 1 1-.4477153 1-1-.44771525-1-1-1zm0-4.25c-.41421356 0-.75.33578644-.75.75v2.25c0 .41421356.33578644.75.75.75s.75-.33578644.75-.75v-2.25c0-.41421356-.33578644-.75-.75-.75z" fill-rule="evenodd"/></svg>