<svg width="256px" height="228px" viewBox="0 0 256 228">
    <path d="M254.051556,212.892444 L136.32,6.03022222 C131.754667,-2.00533333 124.245333,-2.00533333 119.651556,6.03022222 L1.93422222,212.892444 C-2.63111111,220.970667 1.18044444,227.555556 10.3964444,227.555556 L245.589333,227.555556 C254.833778,227.555556 258.645333,220.970667 254.051556,212.892444 Z M144.782222,185.386667 C144.782222,190.037333 141.013333,193.820444 136.376889,193.820444 L119.580444,193.820444 C114.986667,193.820444 111.175111,190.037333 111.175111,185.386667 L111.175111,168.519111 C111.175111,163.868444 114.986667,160.085333 119.580444,160.085333 L136.376889,160.085333 C140.999111,160.085333 144.782222,163.882667 144.782222,168.519111 L144.782222,185.386667 Z M144.782222,134.784 C144.782222,139.434667 141.013333,143.217778 136.376889,143.217778 L119.580444,143.217778 C114.986667,143.217778 111.175111,139.434667 111.175111,134.784 L111.175111,84.1813333 C111.175111,79.5306667 114.986667,75.7475556 119.580444,75.7475556 L136.376889,75.7475556 C140.999111,75.7475556 144.782222,79.5448889 144.782222,84.1813333 L144.782222,134.784 Z" id="Path"></path>
</svg>