<svg width="216" height="205" viewBox="0 0 216 205" fill="none" xmlns="http://www.w3.org/2000/svg">
<g clip-path="url(#clip0_21584_4732)">
<path d="M137.795 106.773L147.226 112.125L149.047 112.579C149.047 112.579 156.579 116.239 159.079 113.602C161.576 110.965 167.279 102.695 167.279 102.695C167.279 102.695 177.879 87.339 178.146 86.8427C178.413 86.3464 181.604 81.1859 183.969 70.5511L197.802 24.0445L199.734 17.3712C199.734 17.3712 201.684 14.1302 198.944 12.3154C196.2 10.4976 189.651 8.54826 189.651 8.54826C189.651 8.54826 183.921 7.49584 174.631 7.98617C165.338 8.47351 162.79 8.09679 160.077 8.41072C157.364 8.72466 153.163 9.05354 151.12 18.313L141.617 50.6987C141.617 50.6987 137.197 65.1246 136.773 70.016C136.431 73.9565 135.199 90.281 134.754 97.3399C134.646 99.0411 134.637 102.303 134.637 102.303C134.637 102.303 135.376 104.919 137.798 106.773H137.795Z" fill="#F0F9F6"/>
<path d="M14.395 30.0031L17.3245 51.9483L23.1683 87.895L37.1635 159.866L42.142 179.312C42.142 179.312 49.1156 194.497 65.4183 190.344C81.7209 186.191 99.583 180.878 99.583 180.878L123.199 170.635C123.199 170.635 134.781 165.367 132.212 151.608C129.643 137.849 125.32 115.784 125.32 115.784L116.781 72.1655L107.458 26.1402L103.597 11.9386C103.597 11.9386 99.0271 -0.101446 84.6083 0.96592C70.1865 2.03329 41.475 5.27724 41.475 5.27724L28.3602 8.18933C28.3602 8.18933 19.9534 12.393 17.9284 16.3366C15.9033 20.2802 14.401 25.9399 14.395 30.0031Z" fill="#F0F9F6"/>
<path d="M90.936 183.001C91.0352 183.399 94.7428 190.276 94.7428 190.276L97.6482 191.373L102.056 191.172L103.056 188.482L100.151 179.611L90.936 182.998V183.001Z" fill="#F0F9F6"/>
<path d="M140.811 108.555L139.309 113.338L140.108 116.828L141.812 118.421L143.615 117.925L146.82 112.941L140.811 108.555Z" fill="#F0F9F6"/>
<path d="M47.5921 4.9541C54.9292 4.15881 62.2723 3.41135 69.6124 2.65792C74.642 2.14068 79.7017 1.55467 84.7613 1.63241C89.4785 1.70417 94.0213 2.65493 97.9002 5.44742C102.419 8.70034 104.237 14.5933 105.406 19.7627C107.947 30.9865 110.207 42.279 112.46 53.5686C116.519 73.9233 120.5 94.2899 124.499 114.657C126.245 123.554 127.985 132.455 129.739 141.353C130.8 146.731 132.359 151.937 131.182 157.426C130.064 162.643 126.915 167.092 122.51 170.106C119.698 172.031 116.558 173.084 113.38 174.25C105.844 177.015 98.2247 179.56 90.6983 182.346C90.0133 182.6 89.1059 182.777 89.0338 183.647C88.9346 184.816 90.7644 184.81 90.8636 183.647C90.7103 185.459 90.1455 184.316 90.6262 184.307C90.7133 184.307 90.8966 184.182 90.9837 184.143C91.3563 183.976 91.9662 183.745 92.4319 183.56C94.0724 182.917 95.7219 182.31 97.3834 181.721C101.791 180.158 106.205 178.615 110.609 177.042C113.761 175.915 116.985 174.869 120.05 173.511C124.683 171.46 128.796 167.615 131.055 163.095C132.78 159.644 133.558 155.743 133.375 151.898C133.276 149.805 132.786 147.778 132.374 145.733C130.707 137.421 129.06 129.103 127.423 120.786C123.319 99.9497 119.248 79.1076 115.104 58.2775C113.545 50.4412 111.986 42.6049 110.363 34.7805C109.567 30.9326 108.566 27.1146 107.818 23.2608C106.854 18.2887 105.784 13.1671 103.098 8.78705C100.658 4.8076 96.6443 2.07789 92.1375 0.887944C86.3537 -0.636864 79.9991 0.11956 74.1553 0.801239C69.324 1.36333 64.4926 1.99418 59.6764 2.66988C55.6232 3.23794 51.5731 3.82694 47.526 4.43088C47.2315 4.47573 47.2976 4.98699 47.5981 4.9541H47.5921Z" fill="#0F6148"/>
<path d="M45.2964 4.57764C41.0059 4.19494 36.5622 4.98425 32.479 6.31173C28.3958 7.63921 24.7032 9.80683 22.3026 13.3827C16.3746 22.2116 18.9435 33.1185 20.2595 42.8264C22.1193 56.5527 24.4629 70.1952 27.3893 83.7361C30.2977 97.2053 33.0979 110.71 35.7089 124.242C37.1751 131.842 38.6684 139.43 40.2608 147.007C41.8592 154.601 43.2233 162.306 45.2393 169.804C45.3775 170.318 46.1136 170.094 46.0265 169.589C44.8998 163.056 43.3945 156.589 42.2197 150.062C41.045 143.536 39.9273 136.895 38.7375 130.321C36.3609 117.198 34.1285 104.061 31.3523 91.0163C28.5821 77.9957 25.7939 64.987 23.5345 51.8646C22.4288 45.4515 21.4703 39.0174 20.5359 32.5773C19.917 28.3019 19.7878 24.2536 21.0347 20.0529C21.888 17.1827 23.0087 14.3005 25.211 12.1867C26.9777 10.4885 29.204 9.29557 31.4725 8.39265C35.9462 6.61371 40.7595 6.3207 45.3535 5.01714C45.6089 4.94539 45.5398 4.59857 45.2934 4.57764H45.2964Z" fill="#0F6148"/>
<path d="M45.6422 171.63C46.9251 179.165 51.8195 186.63 59.2287 189.441C67.5063 192.58 76.8083 188.568 84.6803 186.047C85.4434 185.802 85.1129 184.783 84.3588 184.884C80.4589 185.417 76.6461 186.451 72.8063 187.285C68.8824 188.137 64.5858 188.765 60.6469 187.662C53.3398 185.614 48.3222 178.34 46.4564 171.403C46.3122 170.871 45.552 171.104 45.6422 171.627V171.63Z" fill="#0F6148"/>
<path d="M114.801 76.8743C118.358 95.2767 121.967 113.67 125.569 132.063C126.642 137.538 127.82 143.003 128.793 148.495C129.583 152.965 128.961 157.809 126.822 161.83C122.33 170.264 112.397 172.734 103.922 175.338C103.642 175.425 103.762 175.864 104.042 175.775C111.505 173.368 120.131 171.368 125.269 164.966C128.547 160.879 129.887 155.593 129.475 150.424C129.115 145.891 127.832 141.359 126.957 136.91C125.293 128.425 123.622 119.937 121.961 111.452C119.698 99.893 117.445 88.3313 115.21 76.7667C115.159 76.5036 114.753 76.6142 114.804 76.8773L114.801 76.8743Z" fill="#0F6148"/>
<path d="M50.2842 7.94997C57.9488 6.98426 65.6254 6.07236 73.305 5.22026C79.4283 4.54157 86.3718 3.52205 92.3298 5.66276C95.0669 6.64641 97.6779 8.32968 99.4746 10.6259C101.587 13.3257 102.795 16.6414 103.672 19.9122C104.57 23.2638 105.237 26.729 105.892 30.1374C107.088 36.3592 108.131 42.608 109.33 48.8298C109.381 49.0929 109.786 48.9823 109.735 48.7192C107.932 39.3849 106.598 29.8773 104.291 20.6447C102.777 14.5814 100.154 8.95156 94.2978 6.05442C88.2947 3.08254 81.0207 4.01238 74.612 4.71199C66.4817 5.59997 58.3664 6.70022 50.2661 7.81842C50.194 7.82739 50.209 7.95894 50.2842 7.94997Z" fill="#0F6148"/>
<path d="M47.7153 8.03967C40.5554 8.29082 31.3044 9.84553 26.8787 16.1152C24.3459 19.706 23.1531 24.7229 23.1801 29.0701C23.2102 33.3993 24.1085 37.8093 24.7004 42.0848C26.4521 54.7377 28.6785 67.3188 31.3255 79.8163C33.1763 88.5555 35.1112 97.241 36.4482 106.079C37.7702 114.833 39.2845 123.545 41.3066 132.168C41.3366 132.297 41.5289 132.243 41.5049 132.114C39.9275 124.356 38.3651 116.624 37.2685 108.782C36.2589 101.558 35 94.3917 33.5158 87.249C31.025 75.2598 28.5613 63.2915 26.5993 51.2007C25.6649 45.4483 24.8837 39.678 24.0635 33.9076C23.4746 29.7517 23.4385 25.8351 24.7275 21.7809C25.5748 19.111 26.6714 16.5248 28.7145 14.5455C30.4301 12.8832 32.5694 11.7261 34.7927 10.877C38.957 9.28942 43.3587 8.82301 47.7303 8.14731C47.7934 8.13834 47.7784 8.03369 47.7153 8.03668V8.03967Z" fill="#0F6148"/>
<path d="M49.5572 168.094C50.8972 174.794 55.2538 181.599 61.9359 184.095C69.4924 186.921 77.9682 183.031 85.2692 181.147C85.4585 181.1 85.3774 180.819 85.1881 180.857C78.0794 182.34 70.2465 185.982 62.9184 183.862C55.9298 181.838 51.2788 174.743 49.7615 168.04C49.7314 167.909 49.5301 167.965 49.5572 168.097V168.094Z" fill="#0F6148"/>
<path d="M13.779 32.0985C18.6974 69.277 25.9955 106.022 33.2184 142.809C35.2555 153.189 37.1513 163.63 39.549 173.936C39.7232 174.686 40.7868 174.348 40.6817 173.625C39.3146 164.308 37.4097 155.055 35.586 145.816C33.7592 136.557 31.9024 127.303 30.0666 118.047C26.4191 99.6356 22.8016 81.2183 19.4455 62.7532C17.5887 52.534 15.6959 42.3177 14.0614 32.0597C14.0374 31.9012 13.7579 31.9371 13.779 32.0985Z" fill="#0F6148"/>
<path d="M31.2922 7.22966C27.3322 8.33589 23.5165 9.75008 20.3106 12.423C16.9004 15.2663 14.8874 19.2906 14.0762 23.6019C13.1628 28.4664 13.5383 33.4683 14.1092 38.3477C14.6801 43.2271 15.5033 48.6566 16.9485 53.5509C17.0807 53.9994 17.8739 53.9396 17.8048 53.4343C17.1739 48.6805 16.4047 43.9925 16.0231 39.2058C15.6415 34.4191 15.2149 29.8716 15.8428 25.2942C16.4257 21.0576 18.0812 16.9884 21.2961 14.0614C24.2526 11.3735 27.9932 9.54677 31.4184 7.53462C31.5807 7.43895 31.4755 7.17584 31.2892 7.22667L31.2922 7.22966Z" fill="#0F6148"/>
<path d="M38.5032 165.543C38.8247 168.15 38.8848 170.689 39.4556 173.278C39.9754 175.634 40.6755 177.993 41.724 180.175C43.5718 184.023 46.4352 187.587 50.2449 189.65C56.888 193.244 65.6853 191.579 72.5147 189.408C73.0975 189.223 72.8602 188.329 72.2593 188.49C68.801 189.408 65.2407 189.474 61.6833 189.546C58.1259 189.617 54.5895 189.561 51.5069 187.955C47.8864 186.071 45.2604 182.747 43.5238 179.132C42.4632 176.923 41.6549 174.647 40.9579 172.303C40.2608 169.959 39.4706 167.774 38.9028 165.495C38.8487 165.28 38.4731 165.319 38.5032 165.549V165.543Z" fill="#0F6148"/>
<path d="M56.8819 190.128C56.5604 188.81 56.239 187.494 55.9115 186.176C55.8514 185.934 55.5149 185.961 55.4428 186.176C55.0822 187.24 54.7247 188.305 54.3641 189.369H54.8479C54.265 187.829 53.6791 186.29 53.0902 184.753C53.0031 184.523 52.6726 184.499 52.5944 184.753C52.1498 186.23 51.7021 187.707 51.2574 189.184H51.7622C51.3956 186.711 51.005 184.245 50.6054 181.778C50.5724 181.566 50.2629 181.599 50.2088 181.778C49.7011 183.425 49.1542 185.058 48.6164 186.696L49.019 186.75C48.7306 184.259 48.4452 181.769 48.1567 179.278C48.1267 179.03 47.7751 178.947 47.694 179.216C47.2283 180.782 46.1917 181.948 44.6684 182.567L44.9809 182.878C45.6059 180.531 46.2308 178.184 46.8558 175.837C46.9399 175.523 46.4501 175.389 46.366 175.703C45.7411 178.05 45.1161 180.397 44.4912 182.744C44.4461 182.911 44.6174 183.132 44.8036 183.055C46.4862 182.358 47.6429 181.084 48.1447 179.338L47.682 179.275C47.9885 181.766 48.2949 184.256 48.6014 186.747C48.6284 186.968 48.9319 187.034 49.004 186.801C49.5298 185.159 50.0436 183.515 50.5964 181.883H50.1998C50.5363 184.364 50.8818 186.843 51.2514 189.318C51.2905 189.587 51.6871 189.542 51.7562 189.318C52.1978 187.841 52.6425 186.361 53.0842 184.884H52.5884C53.1773 186.421 53.7662 187.961 54.3581 189.498C54.4452 189.725 54.7607 189.743 54.8418 189.498C55.1964 188.433 55.5509 187.366 55.9055 186.302H55.4367C55.8243 187.602 56.2209 188.9 56.6115 190.197C56.6626 190.365 56.918 190.296 56.8759 190.125L56.8819 190.128Z" fill="#0F6148"/>
<path d="M21.1459 14.7486C17.895 18.4201 16.0442 22.9138 15.4222 27.7484C15.3711 28.158 15.969 28.2477 16.1553 27.9457C17.27 26.1458 18.3877 24.3489 19.5024 22.5491L18.7993 22.2531C17.3031 26.5883 15.8068 30.9236 14.3075 35.2588C14.1934 35.5937 14.6831 35.8867 14.9175 35.6116C16.63 33.5935 18.3336 31.5694 20.0312 29.5393L19.5204 29.1476C16.7803 34.7176 15.1638 40.9873 15.936 47.2151C15.9811 47.5679 16.5129 47.5918 16.5069 47.2151C16.3897 41.062 17.237 35.0106 20.0823 29.4735C20.2415 29.1655 19.8269 28.7888 19.5715 29.0818C17.8409 31.082 16.1163 33.0882 14.4007 35.1003L15.0106 35.4531C16.5189 31.1209 18.0302 26.7916 19.5415 22.4594C19.6887 22.0378 19.0607 21.8076 18.8384 22.1634C17.7177 23.9603 16.597 25.7542 15.4763 27.551L16.2094 27.7484C16.8193 23.1022 18.6972 18.764 21.3923 14.94C21.4944 14.7935 21.2631 14.6141 21.1429 14.7486H21.1459Z" fill="#0F6148"/>
<path d="M21.0227 56.7766C22.6722 66.4218 24.2886 76.0729 25.9982 85.7061C26.8455 90.4719 27.6898 95.2377 28.5371 100.003C29.3843 104.769 30.0874 109.774 31.2201 114.567C31.2892 114.854 31.788 114.8 31.7489 114.495C31.163 109.774 30.1415 105.086 29.2942 100.407C28.4139 95.5486 27.5305 90.6902 26.6502 85.8317C24.8895 76.1208 23.0327 66.4248 21.209 56.7228C21.1849 56.6002 21.0016 56.6541 21.0227 56.7737V56.7766Z" fill="#0F6148"/>
<path d="M32.0857 117.467C33.5609 126.161 34.922 134.877 36.5865 143.538C36.6766 144.014 37.3977 143.81 37.3136 143.338C35.7963 134.668 33.9785 126.051 32.2719 117.413C32.2479 117.291 32.0646 117.344 32.0857 117.464V117.467Z" fill="#0F6148"/>
<path d="M53.2525 16.0554C52.9431 15.0358 52.5074 14.3302 51.4408 13.9565C50.4943 13.6276 49.4908 13.813 48.7127 14.4289C46.958 15.8162 47.1653 18.4681 49.0732 19.6043C50.9811 20.7404 53.568 19.5026 53.9586 17.2991C54.1359 16.3065 53.7994 15.1225 52.8439 14.6322C51.9996 14.1987 50.9661 14.4379 50.6175 15.3348C50.4282 15.8221 51.0292 16.0972 51.4017 15.9358C53.0602 15.2212 52.8349 17.5204 52.0327 18.2708C51.1163 19.1319 49.6501 18.9136 48.971 17.8642C48.4062 16.9942 48.7457 15.8072 49.587 15.2451C50.5484 14.6053 52.219 15.1076 52.6606 16.2108C52.8018 16.5636 53.3637 16.4321 53.2465 16.0494L53.2525 16.0554Z" fill="#0F6148"/>
<path d="M58.7961 16.3515C60.3405 16.5548 61.9659 16.208 63.5073 16.0375L67.6295 15.5831C70.577 15.2602 73.5184 14.9104 76.4629 14.5695C77.3823 14.4619 77.3943 13.0118 76.4629 13.1195C73.212 13.4962 69.961 13.8729 66.7101 14.2526C65.1327 14.435 63.5583 14.6174 61.981 14.8027C60.4036 14.9881 58.8773 15.0449 57.4261 15.6249C57.0685 15.7685 56.9303 16.4202 57.4261 16.495C60.3946 16.9345 63.7446 16.0704 66.7071 15.7236C69.958 15.3409 73.209 14.9582 76.4599 14.5755V13.1255C73.4163 13.4842 70.3727 13.837 67.3321 14.2137L62.9154 14.7609C61.5122 14.9343 60.004 14.9851 58.6759 15.4904C58.1922 15.6758 58.2974 16.2887 58.7931 16.3545L58.7961 16.3515Z" fill="#0F6148"/>
<path d="M51.5821 16.5875C52.0929 15.9776 52.18 15.1016 51.3868 14.674C50.5275 14.2106 49.7133 14.8564 49.3377 15.6099C48.8991 16.4919 48.5445 17.6997 49.1995 18.5608C49.8545 19.4219 50.9361 19.2006 51.6152 18.5309C52.3272 17.8283 52.9973 16.7071 52.7329 15.6756C52.4685 14.6441 51.4709 14.2076 50.5035 14.5335C48.845 15.0956 47.1624 18.2828 49.6322 18.9555C50.6417 19.2305 51.5941 18.6804 52.2131 17.915C52.832 17.1496 53.5321 16.0703 53.0453 15.1046C52.5856 14.1957 51.498 14.1747 50.864 14.9043C50.2301 15.6338 49.7433 17.1167 50.0107 18.0496C50.3082 19.084 51.5551 19.0452 52.156 18.3246C52.7569 17.6041 52.9522 16.3693 52.189 15.7055C50.4434 14.1867 48.3703 18.208 50.191 18.8987C51.2606 19.3053 52.2762 17.8462 52.4114 16.9403C52.5616 15.9178 51.6512 14.982 50.6207 15.4454C49.5901 15.9088 49.6622 17.2842 50.6026 17.7805C51.7774 18.3994 52.7779 17.1885 52.7479 16.1032C52.7329 15.5979 52.0959 15.3019 51.7263 15.6816C51.2787 16.142 50.858 16.8417 51.2877 17.4665C51.6392 17.9778 52.2702 17.9778 52.7088 17.5951C53.1895 17.1705 52.5766 16.5487 52.0719 16.7729C52.2912 16.7759 52.4594 16.6952 52.5736 16.5247L51.5521 16.1032C51.6122 16.2975 51.5671 16.456 51.4169 16.5786C51.3297 16.7729 51.2817 16.7998 51.2696 16.6653C51.2396 16.5188 51.2366 16.5666 51.2576 16.8088L51.1615 17.0599C51.0713 17.2782 50.6567 17.9778 50.7559 17.3739C50.813 17.03 51.2396 16.1839 51.51 16.731C51.6693 17.0539 51.1795 18.1004 51.0894 17.3649C51.0443 17.0061 51.2666 16.5008 51.3958 16.1719C51.4259 16.0942 51.7924 15.0896 52.1199 15.7743C52.189 15.9178 51.9817 16.2915 51.9186 16.4141C51.5851 17.0599 50.9992 17.9838 50.164 17.9658C48.833 17.9359 49.6742 16.441 50.185 15.9627C50.5215 15.6457 51.1254 15.1913 51.5611 15.6188C51.8826 15.9358 51.7654 16.45 51.5971 16.8177C51.4289 17.1855 51.1465 17.6609 50.831 17.918C50.0077 18.5877 49.6862 17.5861 49.8245 16.9373C49.8996 16.5816 50.0228 16.1959 50.206 15.8789C50.3142 15.6906 50.4764 15.4574 50.7048 15.3946C51.2606 15.2361 51.8225 15.8969 51.4379 16.4769C51.3808 16.5606 51.513 16.6653 51.5791 16.5845L51.5821 16.5875Z" fill="#0F6148"/>
<path d="M49.8664 14.36C50.8368 14.4587 51.9275 14.2853 52.6336 15.1374C53.2014 15.8191 52.949 16.4858 52.8078 17.2482C52.7417 17.595 53.1263 17.8312 53.3997 17.589C54.2019 16.8835 53.8955 15.4125 53.2555 14.7099C52.4803 13.8548 50.8098 13.49 49.7943 14.085C49.6591 14.1657 49.7312 14.3451 49.8694 14.36H49.8664Z" fill="#0F6148"/>
<path d="M136.452 146.926C138.876 151.722 139.213 157.516 137.683 162.631C137.001 164.916 135.89 167.074 134.445 168.976C132.987 170.895 131.046 172.294 129.487 174.097C129.096 174.549 129.457 175.392 130.118 175.174C132.501 174.387 134.442 172.306 135.923 170.366C137.566 168.207 138.819 165.753 139.57 163.149C141.205 157.474 140.015 151.584 137.013 146.6C136.797 146.241 136.268 146.555 136.455 146.926H136.452Z" fill="#0F6148"/>
<path d="M1.52044 34.0721C1.07577 30.6368 1.34317 27.1686 2.30162 23.838C2.76733 22.2145 3.40429 20.6419 4.20651 19.1529C4.9276 17.8165 6.42687 16.3814 6.7093 14.9044C6.81145 14.3692 6.31871 14.0284 5.84098 14.2407C4.3988 14.8715 3.47039 17.0033 2.78836 18.3307C1.9531 19.9542 1.28609 21.6704 0.811367 23.4314C-0.141075 26.9653 -0.228207 30.6309 0.414767 34.2246C0.525935 34.8375 1.60156 34.703 1.52044 34.0751V34.0721Z" fill="#0F6148"/>
<path d="M23.0841 3.61166C17.0239 7.20243 12.2647 12.7486 9.5396 19.2185C6.58012 26.2476 5.56158 35.3636 8.49101 42.578C8.8125 43.3703 9.96624 43.0863 9.79498 42.2192C9.04084 38.3922 8.32876 34.6819 8.51805 30.7562C8.69532 27.0548 9.49453 23.3654 10.9037 19.9331C13.4846 13.6365 17.9644 8.27279 23.5107 4.3352C23.9464 4.02724 23.5618 3.32763 23.0841 3.60867V3.61166Z" fill="#0F6148"/>
<path d="M146.192 35.9856C147.893 31.0464 149.128 25.9457 150.576 20.9288C151.745 16.8806 152.649 11.1521 157.234 9.54657C159.8 8.64664 162.799 8.76025 165.482 8.64963C168.402 8.53303 171.32 8.49715 174.243 8.52107C177.166 8.54498 180.099 8.61973 183.028 8.67654C185.468 8.72138 190.528 7.87228 190.618 11.4212C190.657 12.9669 189.96 14.5485 189.506 16.0255C189.022 17.6041 188.542 19.1858 188.061 20.7644C186.483 25.9547 184.978 31.166 183.443 36.3683C180.375 46.7549 177.341 57.1505 174.195 67.5132C173.017 71.394 172.062 75.3226 170.292 79.0001C168.459 82.8091 165.914 86.3311 163.625 89.8741C160.392 94.876 157.039 99.7913 153.77 104.769C152.793 106.255 151.811 107.735 150.85 109.227C150.249 110.16 149.717 111.356 148.548 111.652C147.085 112.023 145.586 110.725 144.402 110.034C143.065 109.254 141.731 108.474 140.394 107.693C139.267 107.036 137.99 106.503 136.932 105.738C135.647 104.805 135.319 103.289 135.115 101.812C135.01 101.047 133.736 101.232 133.766 101.995C133.868 104.518 134.625 106.384 136.761 107.828C139.36 109.586 142.166 111.081 144.879 112.657C146.905 113.829 149.215 114.307 151.021 112.438C151.667 111.769 152.087 110.913 152.568 110.124C155.281 105.699 157.925 101.226 160.701 96.8404C163.478 92.4543 166.539 87.6586 169.451 83.0603C172.059 78.9373 173.351 74.4376 174.766 69.8423C177.857 59.7935 180.868 49.7178 183.933 39.66C185.696 33.8688 187.466 28.0805 189.23 22.2892C189.788 20.4504 190.332 18.6087 190.888 16.767C191.315 15.3528 191.868 13.9117 192.054 12.4497C192.291 10.5781 191.729 8.66159 189.873 7.86032C188.836 7.41184 187.655 7.42978 186.547 7.42679C184.894 7.4238 183.239 7.42081 181.586 7.42679C175.346 7.44174 169.096 7.49855 162.868 7.91712C160.503 8.07558 157.856 8.12043 155.759 9.36121C154.284 10.2342 153.262 11.5886 152.541 13.1134C150.432 17.5772 149.467 22.7197 148.142 27.4526C147.355 30.263 146.514 33.0555 145.808 35.8869C145.745 36.138 146.111 36.2337 146.195 35.9945L146.192 35.9856Z" fill="#0F6148"/>
<path d="M145.252 39.331C144.949 40.0336 144.483 40.6645 144.18 41.3821C143.876 42.0996 143.576 42.8441 143.284 43.5766C142.644 45.1941 142.067 46.8295 141.502 48.4769C140.382 51.7567 139.417 55.0934 138.471 58.427C137.392 62.2241 136.302 66.0391 135.911 69.9737C135.22 76.9669 134.832 84.0259 134.364 91.04C134.201 93.4737 133.637 96.3021 134.183 98.7089C134.264 99.0676 134.775 99.0288 134.877 98.7089C135.502 96.7296 135.4 94.4872 135.55 92.4332C135.821 88.8036 136.058 85.174 136.32 81.5443C136.581 77.9147 136.936 74.6767 137.242 71.2414C137.548 67.8061 138.246 64.8492 139.168 61.6142C140.226 57.9098 141.241 54.1964 142.344 50.504C142.867 48.752 143.389 46.9969 143.873 45.2359C144.128 44.3091 144.381 43.3793 144.627 42.4524C144.901 41.4299 144.997 40.3416 145.267 39.337C145.267 39.3251 145.252 39.3191 145.249 39.328L145.252 39.331Z" fill="#0F6148"/>
<path d="M197.336 11.098C198.736 11.8903 200.154 12.7963 200.181 14.5872C200.193 15.5499 199.878 16.4977 199.577 17.4006C199.499 17.6368 199.412 17.873 199.337 18.1092C198.952 19.2991 198.61 20.501 198.243 21.697C196.891 26.1428 195.515 30.5827 194.19 35.0345C191.035 45.6394 187.61 56.1606 184.467 66.7715C183.926 68.5983 183.352 70.4161 182.857 72.2548C182.7 72.8289 182.604 73.3581 182.592 73.953C182.592 74.1025 182.58 74.252 182.58 74.3985C182.58 74.7184 182.508 74.7782 182.589 74.5002C182.436 75.0054 183.232 75.2237 183.383 74.7184C183.34 74.8589 183.136 75.1131 183.407 74.7124C183.479 74.6078 183.536 74.4942 183.608 74.3895C183.89 73.971 184.098 73.5524 184.263 73.074C184.795 71.5373 185.221 69.9586 185.687 68.4009C187.186 63.381 188.622 58.3462 190.023 53.2994C192.949 42.7572 196.134 32.2839 199.186 21.7777C199.553 20.513 199.947 19.2513 200.28 17.9746C200.511 17.0956 200.746 16.2106 200.809 15.3017C200.983 12.859 199.55 11.6751 197.339 11.0741C197.327 11.0711 197.321 11.0861 197.33 11.0921L197.336 11.098Z" fill="#0F6148"/>
<path d="M182.572 76.4319C181.715 77.0089 181.838 78.0285 181.559 78.9493C181.063 80.5878 180.309 82.2561 179.456 83.739C178.164 85.9874 176.764 88.158 175.252 90.2688C173.651 92.5082 172.092 94.7804 170.508 97.0348C168.366 100.084 166.281 103.179 163.985 106.115C163.021 107.35 162.147 108.665 161.278 109.969C160.74 110.776 160.329 111.514 159.821 112.035C157.88 114.029 155.726 113.754 153.187 113.284C151.772 113.021 150.384 112.973 148.978 112.63C148.374 112.483 147.394 112.286 146.98 112.181C146.283 112.005 145.982 113.078 146.682 113.255C147.226 113.392 147.761 113.571 148.314 113.7C149.6 113.999 150.759 114.447 152.009 114.812C154.254 115.467 156.696 115.895 158.89 114.887C161.266 113.793 162.522 111.532 163.925 109.46C166.128 106.211 168.21 102.892 170.448 99.6598C172.038 97.3666 173.633 95.0734 175.213 92.7713C176.902 90.3136 178.584 87.9188 179.937 85.2519C180.721 83.7061 181.325 82.0677 181.79 80.3994C182.112 79.2423 183.133 77.5949 182.599 76.4349C182.593 76.4259 182.578 76.4229 182.569 76.4259L182.572 76.4319Z" fill="#0F6148"/>
<path d="M140.979 52.8064C144.747 54.4268 148.977 55.1444 152.943 56.131C159.178 57.6828 165.403 59.3032 171.668 60.7264C173.278 61.0911 174.91 61.3991 176.538 61.6443C176.764 61.6771 176.863 61.3333 176.634 61.3004C175.354 61.1091 174.05 60.5291 172.798 60.1972C170.045 59.4677 167.269 58.8189 164.505 58.1402C158.277 56.6154 152.069 54.974 145.817 53.5478C144.227 53.1861 142.662 52.896 141.054 52.6329C140.958 52.618 140.874 52.7585 140.982 52.8064H140.979Z" fill="#0F6148"/>
<path d="M176.709 61.7666C179.672 62.7114 182.752 63.7788 185.816 64.3289C186.252 64.4066 186.423 63.8146 186 63.6681C183.055 62.6426 179.861 62.1104 176.857 61.2404C176.514 61.1417 176.376 61.662 176.709 61.7666Z" fill="#0F6148"/>
<path d="M146.883 59.9163C149.398 61.2587 152.532 61.7909 155.26 62.5473C158.286 63.3845 161.293 64.2725 164.31 65.1425C165.578 65.5073 167.041 65.8003 167.639 67.0739C168.372 68.6316 167.029 70.7843 165.247 70.6199C163.985 70.5033 162.684 69.9741 161.468 69.6422C158.154 68.7393 154.831 67.8543 151.526 66.9125C149.741 66.4042 147.962 65.881 146.177 65.3757C144.919 65.0169 143.645 64.4907 142.344 64.3353C142.019 64.2964 141.929 64.7777 142.184 64.9242C143.359 65.597 144.807 65.878 146.093 66.2876C147.935 66.8706 149.789 67.4028 151.64 67.9529C155.317 69.0472 158.995 70.1594 162.714 71.1132C164.124 71.4749 165.779 72.1626 167.104 71.2567C168.429 70.3508 169.37 68.1592 168.669 66.6643C167.855 64.9243 165.59 64.6582 163.934 64.2276C162.279 63.7971 160.521 63.3426 158.821 62.8792C156.579 62.2693 154.359 61.5936 152.117 60.9807C150.453 60.5262 148.644 59.9133 146.908 59.8535C146.871 59.8535 146.859 59.9014 146.889 59.9193L146.883 59.9163Z" fill="#0F6148"/>
<path d="M143.882 64.8343C143.359 64.335 142.668 64.2842 142.064 63.9075C141.06 63.2826 140.562 62.006 140.952 60.8788C141.397 59.5992 142.223 59.1955 143.515 59.3959C144.281 59.5155 144.945 59.8055 145.724 59.6948C145.886 59.6709 145.877 59.4497 145.766 59.3749C145.096 58.9294 144.257 58.8637 143.479 58.6903C143.025 58.5886 142.605 58.478 142.148 58.6125C141.172 58.9025 140.402 60.0327 140.153 60.9655C139.63 62.9149 141.55 65.8658 143.813 65.1034C143.924 65.0646 143.978 64.9211 143.885 64.8343H143.882Z" fill="#0F6148"/>
<path d="M154.058 61.7459C153.313 62.2392 153.277 63.3903 153.025 64.2065C152.682 65.3007 152.313 66.3771 152.255 67.5312C152.252 67.6089 152.364 67.6358 152.4 67.57C152.946 66.6222 153.229 65.6087 153.571 64.5772C153.857 63.7191 154.59 62.7295 154.287 61.8385C154.256 61.7488 154.148 61.689 154.058 61.7459Z" fill="#0F6148"/>
<path d="M164.703 64.7986C165.016 65.4055 166.428 65.6178 167.002 65.7942C168.73 66.3324 170.577 67.0918 169.73 69.3282C169.334 70.3716 168.585 71.2955 167.396 71.2805C166.894 71.2745 166.452 71.1609 165.968 71.0383C165.41 70.8948 164.457 70.4464 163.895 70.7035C163.742 70.7752 163.697 70.9995 163.781 71.134C164.196 71.8037 165.905 72.0519 166.647 72.1864C168.682 72.5602 170.106 71.5646 170.725 69.5973C171.256 67.908 170.698 66.4878 169.027 65.8062C168.15 65.4474 165.629 64.1737 164.719 64.7448C164.7 64.7567 164.697 64.7747 164.707 64.7926L164.703 64.7986Z" fill="#0F6148"/>
<path d="M188.854 25.6047C188.671 24.8962 188.511 24.1846 188.46 23.4521C188.415 22.8332 188.244 22.6687 188.734 22.9408C189.052 23.1172 189.392 23.778 189.617 24.0441C189.969 24.4596 190.335 24.8633 190.708 25.2609C192.327 26.983 194.079 28.5617 195.921 30.0446C196.146 30.224 196.528 29.9968 196.35 29.7157C195.076 27.7006 194.142 25.5449 193.277 23.3325C192.949 22.4953 192.619 21.6552 192.246 20.836C191.699 19.6311 190.579 18.2109 190.515 16.8775L190.095 17.0509C192.465 19.2454 195.434 20.6506 197.777 22.9019C198.03 23.1441 198.42 22.8392 198.258 22.5342C196.002 18.2677 193.484 14.082 192 9.46569L191.537 9.73179C194.022 12.7964 196.374 16.0822 199.148 18.9016C199.409 19.1677 199.772 18.8328 199.634 18.5278C198.529 16.0941 197.994 13.4332 196.861 11.0025L196.473 11.3014C197.871 12.6379 199.021 14.2554 200.121 15.837C200.262 16.0403 200.596 15.9745 200.599 15.7084C200.611 14.5394 199.718 12.8801 199.015 11.9801C198.844 11.7589 198.456 12.0519 198.622 12.2821C199.229 13.1163 200.076 14.671 200.085 15.7084L200.563 15.5799C199.412 13.9863 198.219 12.3449 196.822 10.9546C196.612 10.7453 196.326 11.0084 196.434 11.2536C197.522 13.7053 197.985 16.3931 199.099 18.8418L199.586 18.468C196.789 15.6247 194.436 12.4376 191.928 9.3461C191.753 9.13083 191.384 9.36404 191.465 9.61219C192.958 14.2404 195.344 18.6175 197.729 22.8392L198.21 22.4714C195.797 20.2799 192.826 18.9494 190.443 16.704C190.296 16.5635 190.014 16.6562 190.023 16.8775C190.065 17.8611 190.521 18.5458 190.987 19.3949C191.702 20.7014 192.294 22.0708 192.862 23.4461C193.784 25.6795 194.596 27.9278 195.882 29.9908L196.311 29.6619C193.472 27.3508 191.071 24.6809 188.454 22.1425C188.382 22.0738 188.268 22.1276 188.265 22.2203C188.199 23.4311 188.307 24.5135 188.821 25.6227C188.83 25.6436 188.866 25.6287 188.86 25.6077L188.854 25.6047Z" fill="#0F6148"/>
<path d="M189.091 8.45525C189.223 8.64659 189.371 8.7931 189.533 8.95754C189.737 9.16084 189.962 9.26848 190.224 9.38508C190.918 9.69901 191.354 8.66752 190.629 8.42535C190.356 8.33565 190.11 8.24895 189.818 8.2639C189.584 8.27586 189.374 8.27885 189.139 8.33266C189.088 8.34462 189.058 8.41339 189.088 8.45525H189.091Z" fill="#0F6148"/>
<path d="M189.449 8.57178C190.576 9.7408 192.694 10.0248 194.196 10.5779C195.963 11.2297 197.723 12.0459 199.424 12.8412C199.926 13.0774 200.352 12.3838 199.866 12.0908C198.21 11.0952 196.645 10.0667 194.839 9.33717C193.316 8.72127 191.197 7.78546 189.557 8.17413C189.377 8.21599 189.332 8.44621 189.452 8.57178H189.449Z" fill="#0F6148"/>
<path d="M203.703 16.6926C203.721 16.6926 203.721 16.6621 203.703 16.6621C203.684 16.6621 203.684 16.6926 203.703 16.6926Z" fill="#0F6148"/>
<path d="M158.608 10.6745C158.626 10.6745 158.626 10.644 158.608 10.644C158.589 10.644 158.589 10.6745 158.608 10.6745Z" fill="#0F6148"/>
<path d="M172.786 14.6294L175.201 14.6892L174.97 15.6071L172.978 18.1634L174.309 18.2172L174.03 19.3294L171.587 19.2218L171.83 18.2859L173.816 15.7416L172.503 15.7027L172.786 14.6294Z" fill="#0F6148"/>
<path d="M180.45 17.8076C180.808 17.6491 181.243 17.2126 181.424 16.4263C181.643 15.4755 181.315 14.8536 180.627 14.8387L179.068 14.7998L177.944 19.4968L178.813 19.5357L179.191 17.9331L179.522 17.9451L179.762 19.5775L180.781 19.6224L180.447 17.8076H180.45ZM180.051 16.8508L179.453 16.8299L179.675 15.8851L180.273 15.903C180.498 15.909 180.603 16.1034 180.54 16.3784C180.471 16.6744 180.276 16.8598 180.051 16.8538V16.8508Z" fill="#0F6148"/>
<path d="M177.028 14.6679C176.046 14.644 175.105 15.6306 174.763 16.994C174.417 18.3693 174.868 19.4277 175.844 19.4725C176.83 19.5174 177.824 18.5038 178.158 17.1106C178.492 15.7293 178.017 14.6948 177.028 14.6709V14.6679ZM176.115 18.3693C175.619 18.3484 175.421 17.7923 175.613 17.0209C175.805 16.2495 176.271 15.7263 176.764 15.7383C177.257 15.7502 177.479 16.3033 177.29 17.0777C177.1 17.8551 176.614 18.3902 176.115 18.3693Z" fill="#0F6148"/>
<path d="M170.157 14.5664L172.392 14.6202L172.118 15.6726L170.673 15.6308L170.493 16.2975L171.899 16.3424L171.626 17.3828L170.217 17.335L170.021 18.0705L171.473 18.1273L171.19 19.2036L168.931 19.105L170.157 14.5664Z" fill="#0F6148"/>
<path d="M169.378 16.0583C169.625 15.1554 169.357 14.5664 168.735 14.5514L167.323 14.5186L166.073 18.9824L166.857 19.0152L167.278 17.4934L167.576 17.5054L167.714 19.0541L168.633 19.093L168.423 17.3738C168.753 17.2214 169.171 16.8088 169.372 16.0613L169.378 16.0583ZM168.113 16.4649L167.573 16.447L167.822 15.5471L168.363 15.562C168.567 15.568 168.651 15.7504 168.582 16.0135C168.507 16.2945 168.321 16.4709 168.116 16.4649H168.113Z" fill="#0F6148"/>
<path d="M164.598 14.4321L166.984 14.4889L166.689 15.5354L165.866 15.5115L164.896 18.9288L164.124 18.8959L165.1 15.4905L164.301 15.4666L164.598 14.4321Z" fill="#0F6148"/>
<path d="M162.585 13.7623C162.895 12.7189 162.549 11.8518 161.825 11.8428C161.101 11.8339 160.254 12.674 159.938 13.7055L159.752 14.3124L159.214 14.3005L157.853 18.7224L159.313 20.1725L161.63 18.8899L162.952 14.4111L162.399 14.3991L162.588 13.7653L162.585 13.7623ZM160.608 13.7205C160.755 13.2331 161.158 12.8474 161.522 12.8534C161.885 12.8594 162.053 13.257 161.906 13.7474L161.723 14.3573L160.425 14.3274L160.608 13.7205ZM161.08 18.1215L159.704 18.8869L158.826 18.0318L159.641 15.3619L161.879 15.4276L161.077 18.1245L161.08 18.1215Z" fill="#0F6148"/>
<path d="M164.135 26.5078C158.123 25.9039 153.668 33.2858 152.781 38.3894C151.895 43.493 154.214 48.9943 159.623 50.3218C165.25 51.7031 170.818 47.607 173.54 42.9937C176.262 38.3804 176.743 31.2826 172.155 27.5991C169.694 25.6229 166.509 25.4494 163.52 26.158C160.888 26.7829 157.009 28.4243 156.23 31.2706C156.062 31.8895 156.78 32.1795 157.219 31.8447C158.108 31.16 158.814 30.2989 159.761 29.6711C160.818 28.9685 161.996 28.4572 163.219 28.1164C165.37 27.5154 168.219 27.1716 170.265 28.2569C174.63 30.574 174.663 37.1367 172.867 41.0354C170.956 45.1793 166.605 49.2036 161.774 49.1617C156.943 49.1199 153.653 44.674 153.995 40.0308C154.416 34.3561 158.835 28.8369 164.196 26.9234C164.427 26.8427 164.379 26.5348 164.138 26.5108L164.135 26.5078Z" fill="#0F6148"/>
<path d="M170.694 33.5008C170.09 33.0553 169.477 33.5905 168.922 34.1825C168.216 34.6788 167.552 35.3485 166.918 35.9195C166.187 36.5773 165.46 37.2291 164.736 37.8779C163.886 38.6433 163.039 39.4057 162.197 40.1621C161.945 40.2936 161.693 40.4312 161.443 40.5657C161.269 40.4521 161.263 40.0485 161.188 39.8003C160.767 38.431 160.088 37.256 159.37 36.1438C159.364 36.1318 159.355 36.1258 159.346 36.1169C159.478 35.788 159.202 35.4292 158.892 35.7162C158.228 36.3291 157.534 36.954 157.033 37.7314C156.997 37.7852 156.994 37.8599 157.015 37.9078C157.6 39.0917 158.153 40.3235 158.751 41.5344C159.139 42.3148 159.55 43.5526 160.434 43.8216C161.431 44.1236 162.486 42.9546 163.303 42.24C164.61 41.0979 165.896 39.9887 167.284 38.9153C167.927 38.419 168.579 37.9138 169.21 37.3875C169.856 36.8464 170.637 36.3232 171.226 35.7073C172.061 34.8372 171.289 33.9403 170.694 33.5008ZM160.178 43.0234C160.097 42.9456 160.019 42.8529 159.947 42.7573C160.022 42.8499 160.097 42.9396 160.178 43.0234Z" fill="#0F6148"/>
<path d="M91.5785 183.608C91.3171 184.759 91.9871 185.844 92.5009 186.852C93.1589 188.141 93.8529 189.462 94.6191 190.694C95.1659 191.576 95.8269 192.054 96.8815 192.123C98.3357 192.219 99.9041 192.365 101.358 192.278C103.684 192.135 104.237 190.413 103.789 188.374C103.455 186.855 103.011 185.342 102.554 183.853C102.158 182.556 102.001 180.968 100.805 180.185C100.394 179.916 99.9221 180.206 99.7719 180.603C99.4053 181.569 99.829 182.355 100.117 183.309C100.406 184.263 100.67 185.181 100.941 186.119C101.211 187.058 101.779 188.278 101.827 189.289C101.884 190.538 100.135 190.287 99.2281 190.365C98.3207 190.443 96.8545 190.837 96.1875 190.033C95.6076 189.336 95.2591 188.233 94.8504 187.42C94.1564 186.042 93.4744 184.024 91.942 183.408C91.7978 183.351 91.6115 183.47 91.5785 183.614V183.608Z" fill="#0F6148"/>
<path d="M140.057 109.571C139.568 111.269 138.33 112.904 138.39 114.731C138.441 116.34 139.492 117.431 140.703 118.361C142.317 119.599 142.885 119.24 144.258 117.829C145.021 117.042 145.715 116.193 146.412 115.35C146.938 114.713 147.403 114.271 147.181 113.425C147.145 113.29 147.019 113.203 146.884 113.197C145.679 113.147 145.096 114.456 144.432 115.302C144.053 115.787 143.672 116.265 143.329 116.77C143.032 117.207 142.939 117.473 142.422 117.712C141.728 118.035 141.638 117.814 140.995 117.261C138.348 114.979 140.733 112.423 140.724 109.655C140.724 109.275 140.165 109.2 140.06 109.565L140.057 109.571Z" fill="#0F6148"/>
<path d="M87.0507 78.2674C85.9721 72.527 79.975 68.6163 73.7646 69.6537C67.5542 70.6912 63.3479 76.3091 64.4265 82.0495L65.0574 85.4071L60.4004 86.1874L64.9373 110.339L82.2705 114.926L96.8786 104.999L92.3598 80.9583L87.7027 81.7386L87.0507 78.2734V78.2674ZM70.1922 81.0868C69.6844 78.381 71.7155 75.8068 74.8222 75.2866C77.9289 74.7663 80.7742 76.5244 81.285 79.2331L81.916 82.5907L70.8232 84.4444L70.1922 81.0868ZM89.7128 102.174L80.9876 108.1L70.6369 105.364L67.9088 90.8516L86.9846 87.6614L89.7128 102.174Z" fill="#0F6148"/>
<path d="M99.5948 191.815C101.761 200.497 112.232 202.33 119.722 203.831C129.256 205.738 139.21 205.024 148.773 203.714C159.349 202.267 169.463 199.415 179.083 194.778C184.011 192.401 188.743 189.641 193.277 186.586C197.633 183.65 202.392 180.534 205.779 176.471C208.597 173.09 210.58 168.422 208.771 164.111C207.164 160.278 203.342 157.982 199.622 156.511C193.601 154.131 187.568 151.778 181.55 149.386C176.265 147.284 169.829 145.344 166.677 140.225C165.172 137.783 164.571 134.739 165.872 132.075C167.035 129.695 169.357 128.027 171.803 127.118C176.295 125.45 181.478 126.224 185.513 128.7C190.134 131.537 193.496 137.212 192.105 142.701C191.149 146.468 187.799 148.851 184.302 150.119C176.142 153.082 167.735 151.503 160.07 147.945C150.852 143.67 140.616 136.168 139.669 125.231C139.444 122.633 139.856 120.095 140.868 117.694C141.229 116.839 139.733 116.202 139.351 117.057C137.233 121.79 137.398 127.064 139.441 131.803C141.484 136.542 145.249 140.36 149.38 143.445C153.695 146.668 158.574 149.168 163.655 150.956C167.54 152.322 171.382 153.162 175.517 153.037C182.337 152.833 191.648 150.418 193.502 142.824C195.939 132.844 185.765 124.499 176.466 124.708C171.914 124.81 166.882 126.954 164.706 131.148C162.408 135.582 164.424 140.814 167.897 144.011C172.188 147.963 178.338 149.655 183.665 151.727C186.895 152.983 190.119 154.251 193.346 155.518C196.134 156.613 199.045 157.56 201.647 159.058C205.977 161.552 208.714 165.627 207.01 170.677C205.139 176.226 199.628 179.879 195.055 183.102C185.723 189.677 175.478 194.987 164.634 198.623C159.403 200.378 153.959 201.867 148.497 202.698C142.887 203.553 137.122 203.726 131.458 203.529C126.783 203.364 122.24 202.901 117.676 201.905C113.662 201.029 109.23 200.195 105.724 197.95C103.356 196.434 101.425 194.231 100.469 191.576C100.277 191.037 99.4596 191.247 99.6008 191.815H99.5948Z" fill="#0F6148"/>
<path d="M212.692 158.413C215.075 161.193 214.672 165.974 214.101 169.32C213.446 173.138 211.863 176.749 209.943 180.095C209.645 180.615 210.399 181.252 210.805 180.759C213.641 177.312 215.213 173.174 215.79 168.773C216.297 164.898 216.087 160.867 212.869 158.236C212.743 158.135 212.584 158.29 212.689 158.416L212.692 158.413Z" fill="#0F6148"/>
<path d="M164.361 126.637C160.629 126.529 159.208 130.613 159.638 133.717C159.707 134.225 160.503 134.168 160.614 133.717C161.221 131.286 161.461 128.033 164.46 127.381C164.89 127.289 164.775 126.649 164.358 126.637H164.361Z" fill="#0F6148"/>
</g>
<defs>
<clipPath id="clip0_21584_4732">
<rect width="216" height="205" fill="white"/>
</clipPath>
</defs>
</svg>
