<svg xmlns="http://www.w3.org/2000/svg" fill="none" viewBox="0 0 32 32">
  <path fill="#000" d="M31 27a1 1 0 0 1-1 1H12a1 1 0 1 1 0-2h18a1 1 0 0 1 1 1m-3.27-3.037L5.651 17.78A5.015 5.015 0 0 1 2 12.965V6a2 2 0 0 1 2.633-1.897l.683.227a1 1 0 0 1 .625.609L7.266 8.61 11 9.674V6a2 2 0 0 1 2.633-1.897l.683.227a1 1 0 0 1 .606.563l2.813 6.703 7.605 2.125a5.016 5.016 0 0 1 3.66 4.82V23a1 1 0 0 1-1.27.962zM27 18.54a3.01 3.01 0 0 0-2.198-2.891l-8.07-2.25a1 1 0 0 1-.654-.576l-2.828-6.74L13 6v5a1 1 0 0 1-1.274.963l-5.5-1.568a1 1 0 0 1-.666-.625L4.224 6.074 4 6v6.965a3.01 3.01 0 0 0 2.191 2.89L27 21.681v-3.14z"/>
</svg>
