<svg xmlns="http://www.w3.org/2000/svg" fill="none" viewBox="0 0 32 32">
  <path fill="#000" d="M28 27a1 1 0 0 1-1 1H9a1 1 0 0 1 0-2h18a1 1 0 0 1 1 1m3-10v3a1 1 0 0 1-1 1H7.634a4.97 4.97 0 0 1-4.789-3.564l-1.759-5.861A2 2 0 0 1 3 9h1a1 1 0 0 1 .706.293L7.416 12h2.81L9.101 8.633A2 2 0 0 1 11.001 6h1a1 1 0 0 1 .707.293L18.415 12H26a5 5 0 0 1 5 5m-2 0a3 3 0 0 0-3-3h-8a1 1 0 0 1-.706-.293L11.586 8H11l1.561 4.684A1 1 0 0 1 11.614 14H7a1 1 0 0 1-.707-.293L3.586 11H3l1.759 5.863A2.98 2.98 0 0 0 7.634 19H29z"/>
</svg>
