<svg xmlns="http://www.w3.org/2000/svg" fill="none" viewBox="0 0 32 32">
  <path fill="#000" d="m23.166 14.277 3.643-3.428.021-.021a4 4 0 1 0-5.657-5.658c0 .008-.014.014-.022.021l-3.427 3.643L7.349 5.059a1 1 0 0 0-1.049.232l-3 3a1 1 0 0 0 .153 1.54l7.986 5.323L9.586 17H7a1 1 0 0 0-.706.293l-3 3a1 1 0 0 0 .331 1.635l4.603 1.841 1.837 4.594.008.02a1 1 0 0 0 1.647.309l2.984-2.986A1 1 0 0 0 15 25v-2.586l1.845-1.845 5.324 7.986a.998.998 0 0 0 1.538.153l3-3a1 1 0 0 0 .233-1.049zm-.009 12.153-5.323-7.985A1 1 0 0 0 17.1 18h-.099a1 1 0 0 0-.707.294l-3 3A1 1 0 0 0 13 22v2.587l-1.634 1.633-1.437-3.595a1 1 0 0 0-.554-.553l-3.592-1.438L7.415 19H10a1 1 0 0 0 .707-.292l3-3a1 1 0 0 0-.152-1.54L5.57 8.843l1.688-1.687L17.66 10.94a1 1 0 0 0 1.07-.25l3.867-4.114a2 2 0 0 1 2.828 2.829l-4.109 3.866a1 1 0 0 0-.25 1.07l3.783 10.403-1.692 1.687z"/>
</svg>
