<svg xmlns="http://www.w3.org/2000/svg" fill="none" viewBox="0 0 32 32">
  <path fill="#000" d="M16 2A12.014 12.014 0 0 0 4 14c0 3 1.57 6.883 4.201 10.375C10.85 27.894 13.764 30 16 30s5.151-2.101 7.799-5.625C26.43 20.875 28 17 28 14A12.014 12.014 0 0 0 16 2m6.201 21.177C20.03 26.061 17.54 28 16 28c-1.539 0-4.03-1.939-6.201-4.823C7.456 20.063 6 16.547 6 14a10 10 0 1 1 20 0c0 2.546-1.456 6.063-3.799 9.177M15 17a5 5 0 0 0-5-5 2 2 0 0 0-2 2 5 5 0 0 0 5 5 2 2 0 0 0 2-2m-5-3a3 3 0 0 1 3 3 3 3 0 0 1-3-3m12-2a5 5 0 0 0-5 5 2 2 0 0 0 2 2 5 5 0 0 0 5-5 2 2 0 0 0-2-2m-3 5a3 3 0 0 1 3-3 3 3 0 0 1-3 3m0 6a1 1 0 0 1-1 1h-4a1 1 0 0 1 0-2h4a1 1 0 0 1 1 1"/>
</svg>
