<svg xmlns="http://www.w3.org/2000/svg" fill="none" viewBox="0 0 32 32">
  <path fill="#000" d="M31 21v4a1 1 0 0 1-2 0v-1.586l-.276.277c-.388.422-5.044 5.31-12.724 5.31-7.855 0-12.548-5.115-12.744-5.332A1.003 1.003 0 1 1 4.75 22.33C4.784 22.374 9.062 27 16 27s11.216-4.626 11.259-4.67l.033-.038.294-.293H26a1 1 0 0 1 0-2h4a1 1 0 0 1 1 1zm-11-9.184V10.5a4.5 4.5 0 0 0-8.51-2.045 1 1 0 0 1-1.781-.91 6.5 6.5 0 0 1 12.29 2.955V22a1 1 0 0 1-2 0v-.816a6.5 6.5 0 1 1 0-9.368zm0 4.684a4.5 4.5 0 1 0-9 0 4.5 4.5 0 0 0 9 0"/>
</svg>
