<svg xmlns="http://www.w3.org/2000/svg" fill="none" viewBox="0 0 32 32">
  <path fill="#000" d="M29 16a13 13 0 1 0-13 13h.012A13 13 0 0 0 29 16M6.148 11.115l6.401 1.169-6.718 7.907a11.05 11.05 0 0 1 .317-9.076m20.021.692a11.05 11.05 0 0 1-.316 9.078l-6.402-1.169zm-1.01-1.9-4.215 4.968-3.49-9.778a10.92 10.92 0 0 1 6.325 3.125q.772.776 1.38 1.685m-9.855-4.883 2.189 6.125L7.288 9.29a10.92 10.92 0 0 1 8.016-4.266M6.841 22.093l4.215-4.968 3.49 9.773a11 11 0 0 1-7.705-4.81zm9.855 4.882-2.188-6.125 2.885.525 7.315 1.336a10.94 10.94 0 0 1-8.016 4.265z"/>
</svg>
