<svg xmlns="http://www.w3.org/2000/svg" fill="none" viewBox="0 0 32 32">
  <path fill="#000" d="M27.913 21.199a1 1 0 0 0-.35-.425C25.44 19.316 25 16.83 25 15c0-2.209 1.684-4.133 2.688-5.084a1 1 0 0 0 0-1.452C26.102 6.967 23.477 6 21 6a9.03 9.03 0 0 0-5 1.516A8.945 8.945 0 0 0 4.661 8.652 9.33 9.33 0 0 0 2 15.425a15.88 15.88 0 0 0 5.018 11.216A4.98 4.98 0 0 0 10.448 28h10.96a4.98 4.98 0 0 0 3.64-1.571 15.6 15.6 0 0 0 2.228-3.075c.878-1.604.765-1.854.637-2.155m-4.33 3.867A2.97 2.97 0 0 1 21.41 26H10.45a2.98 2.98 0 0 1-2.055-.814A13.9 13.9 0 0 1 4 15.375a7.3 7.3 0 0 1 2.081-5.316A6.85 6.85 0 0 1 11 8h.098a6.93 6.93 0 0 1 4.277 1.535 1 1 0 0 0 1.25 0A6.93 6.93 0 0 1 21 8a8.83 8.83 0 0 1 4.5 1.294C23.875 11.109 23 13.102 23 15c0 2.971.955 5.341 2.773 6.913a13.2 13.2 0 0 1-2.19 3.153M16.03 3.75A5 5 0 0 1 20.875 0H21a1 1 0 1 1 0 2h-.125a3 3 0 0 0-2.905 2.25 1 1 0 1 1-1.938-.5h-.003z"/>
</svg>
