<svg xmlns="http://www.w3.org/2000/svg" fill="none" viewBox="0 0 32 32">
  <path fill="#000" d="M16 18a3.5 3.5 0 1 1 0-7 3.5 3.5 0 0 1 0 7m1.969 0H14.03a2.52 2.52 0 0 0-2.472 1.99c-.078.37-.07.753.025 1.119l1.522 6A2.52 2.52 0 0 0 15.555 29h.89a2.52 2.52 0 0 0 2.455-1.891l1.523-6a2.46 2.46 0 0 0-.448-2.132A2.52 2.52 0 0 0 17.969 18m4.811-.25a1 1 0 0 0 1.936.499 9 9 0 1 0-17.432 0 1.001 1.001 0 1 0 1.936-.5 7 7 0 1 1 13.56 0zM16 3a13 13 0 0 0-7.189 23.832 1 1 0 1 0 1.107-1.665 11 11 0 1 1 12.163 0 1 1 0 0 0 1.108 1.665A13 13 0 0 0 16 3"/>
</svg>
