<svg xmlns="http://www.w3.org/2000/svg" fill="none" viewBox="0 0 32 32">
  <path fill="#000" d="M16.029 3.75A5 5 0 0 1 20.875 0H21a1 1 0 1 1 0 2h-.125a3 3 0 0 0-2.905 2.25 1 1 0 1 1-1.938-.5zm11.884 17.449a1 1 0 0 0-.35-.425C25.44 19.316 25 16.83 25 15c0-2.209 1.684-4.133 2.688-5.084a1 1 0 0 0 0-1.452C26.102 6.967 23.477 6 21 6c-1.78.002-3.52.53-5 1.516A8.945 8.945 0 0 0 4.661 8.652 9.33 9.33 0 0 0 2 15.425a15.88 15.88 0 0 0 5.018 11.216A4.98 4.98 0 0 0 10.448 28h10.96a4.98 4.98 0 0 0 3.64-1.571 15.6 15.6 0 0 0 2.228-3.075c.878-1.604.765-1.854.637-2.155"/>
</svg>
