<svg xmlns="http://www.w3.org/2000/svg" fill="none" viewBox="0 0 32 32">
  <path fill="#000" d="M19.275 17.291a4 4 0 1 0-6.55 0 3 3 0 0 0-1.095.875 2.96 2.96 0 0 0-.538 2.561l1.523 6A3.02 3.02 0 0 0 15.555 29h.89a3.02 3.02 0 0 0 2.94-2.269l1.522-6a2.96 2.96 0 0 0-.537-2.561 3 3 0 0 0-1.095-.879M16 13a2 2 0 1 1 0 4 2 2 0 0 1 0-4m2.969 7.239-1.523 6a1.02 1.02 0 0 1-1 .761h-.89a1.02 1.02 0 0 1-1-.761l-1.522-6a.96.96 0 0 1 .177-.841 1.03 1.03 0 0 1 .823-.398h3.937a1.03 1.03 0 0 1 .823.398.97.97 0 0 1 .175.84zM9 16c0 .59.074 1.178.22 1.75a1 1 0 1 1-1.936.5 9 9 0 1 1 17.432 0 1 1 0 0 1-1.936-.499A7 7 0 1 0 9 16m20 0a12.98 12.98 0 0 1-5.811 10.832 1 1 0 0 1-1.108-1.665 11 11 0 1 0-12.163 0 1 1 0 0 1-1.107 1.665A13 13 0 1 1 29 16"/>
</svg>
