<svg xmlns="http://www.w3.org/2000/svg" fill="none" viewBox="0 0 32 32">
  <path fill="#000" d="M18 13V8a1.001 1.001 0 0 1 1.707-.708L21.5 9.086l3.792-3.794a1 1 0 0 1 1.415 1.415L22.914 10.5l1.793 1.792A1 1 0 0 1 24 14h-5a1 1 0 0 1-1-1m-5 5H8a1.001 1.001 0 0 0-.708 1.707L9.086 21.5l-3.794 3.792a1 1 0 0 0 1.415 1.415l3.793-3.793 1.792 1.793A1 1 0 0 0 14 24v-5a1 1 0 0 0-1-1m.382-10.924a1 1 0 0 0-1.09.216L10.5 9.086 6.707 5.292a1 1 0 1 0-1.415 1.415L9.086 10.5l-1.794 1.792A1 1 0 0 0 8 14h5a1 1 0 0 0 1-1V8a1 1 0 0 0-.618-.924M22.914 21.5l1.793-1.793A1 1 0 0 0 24 18h-5a1 1 0 0 0-1 1v5a1.001 1.001 0 0 0 1.707.707l1.793-1.793 3.792 3.793A1 1 0 0 0 27 26a1 1 0 0 0-.293-.708z"/>
</svg>
