<svg xmlns="http://www.w3.org/2000/svg" fill="none" viewBox="0 0 32 32">
  <path fill="#000" d="M11.293 7.707a1 1 0 0 1 0-1.415l4-4a1 1 0 0 1 1.415 0l4 4a1 1 0 0 1-1.415 1.415L17 5.414V12a1 1 0 0 1-2 0V5.414l-2.293 2.293a1 1 0 0 1-1.415 0zm8 16.585L17 26.586V20a1 1 0 0 0-2 0v6.586l-2.293-2.294a1 1 0 0 0-1.415 1.415l4 4a1 1 0 0 0 1.415 0l4-4a1 1 0 0 0-1.415-1.415zm10.415-9-4-4a1 1 0 0 0-1.415 1.415L26.585 15H20a1 1 0 0 0 0 2h6.586l-2.293 2.292a1 1 0 1 0 1.415 1.415l4-4a1 1 0 0 0 0-1.415M5.413 17H12a1 1 0 1 0 0-2H5.414l2.293-2.293a1 1 0 1 0-1.415-1.415l-4 4a1 1 0 0 0 0 1.415l4 4a1 1 0 1 0 1.415-1.415z"/>
</svg>
