<svg xmlns="http://www.w3.org/2000/svg" fill="none" viewBox="0 0 32 32">
  <path fill="#000" d="M28 20v6a1 1 0 0 1-1.707.707L24.285 24.7C21.766 26.862 18.92 28 16 28c-5.352 0-8.572-3.159-8.707-3.293a1 1 0 0 1 1.412-1.416C8.75 23.335 11.52 26 16 26c2.896 0 5.24-1.356 6.865-2.72l-2.572-2.573A1 1 0 0 1 21 19h6a1 1 0 0 1 1 1m-16.076-7.617a1 1 0 0 0-.216-1.09L9.134 8.72C10.76 7.356 13.104 6 16 6c4.494 0 7.266 2.68 7.295 2.71a1 1 0 0 0 1.412-1.418C24.573 7.16 21.352 4 16 4c-2.92 0-5.766 1.138-8.285 3.301L5.707 5.293A1 1 0 0 0 4 6v6a1 1 0 0 0 1 1h6a1 1 0 0 0 .924-.617"/>
</svg>
