<svg xmlns="http://www.w3.org/2000/svg" fill="none" viewBox="0 0 32 32">
  <path fill="#000" d="M11.293 8.707a1 1 0 0 1 1.415-1.415L15 9.587V3a1 1 0 0 1 2 0v6.586l2.293-2.293a1 1 0 1 1 1.415 1.414l-4 4a1 1 0 0 1-1.415 0zm5.415 10.585a1 1 0 0 0-1.415 0l-4 4a1 1 0 0 0 1.415 1.415L15 22.415V29a1 1 0 0 0 2 0v-6.586l2.293 2.293a1 1 0 0 0 1.415-1.415zM29 15h-6.586l2.293-2.293a1 1 0 0 0-1.415-1.415l-4 4a1 1 0 0 0 0 1.415l4 4a1 1 0 0 0 1.415-1.415L22.415 17H29a1 1 0 0 0 0-2m-16.293.293-4-4a1 1 0 0 0-1.415 1.415L9.587 15H3a1 1 0 0 0 0 2h6.586l-2.293 2.293a1 1 0 1 0 1.414 1.415l4-4a1 1 0 0 0 0-1.415"/>
</svg>
