<svg xmlns="http://www.w3.org/2000/svg" fill="none" viewBox="0 0 32 32">
  <path fill="#000" d="M25 10v18a1 1 0 0 1-2 0V11H8.414l4.294 4.293a1 1 0 0 1-1.415 1.415l-6-6-.008-.01-.059-.064-.028-.039-.03-.04-.028-.046a1 1 0 0 1-.045-.085l-.019-.041-.017-.047-.016-.045-.012-.048c0-.017-.008-.032-.012-.047s0-.038-.008-.057c-.007-.019 0-.026-.006-.04a1 1 0 0 1 0-.198q-.001-.02.006-.04c.007-.013 0-.038.008-.057.007-.019.007-.03.012-.046l.012-.05.016-.044.017-.046.02-.042a1 1 0 0 1 .044-.085l.029-.046.029-.04.028-.039.06-.065.007-.008 6-6a1 1 0 1 1 1.415 1.415L8.414 9H24a1 1 0 0 1 1 1"/>
</svg>
