<svg xmlns="http://www.w3.org/2000/svg" fill="none" viewBox="0 0 32 32">
  <path fill="#000" d="M18 13V8a1 1 0 0 1 2 0v2.586l5.292-5.293a1 1 0 0 1 1.415 1.415L21.414 12H24a1 1 0 1 1 0 2h-5a1 1 0 0 1-1-1m-5 5H8a1 1 0 1 0 0 2h2.586l-5.294 5.293a1 1 0 1 0 1.415 1.415L12 21.414V24a1 1 0 0 0 2 0v-5a1 1 0 0 0-1-1m8.414 2H24a1 1 0 0 0 0-2h-5a1 1 0 0 0-1 1v5a1 1 0 0 0 2 0v-2.586l5.292 5.294a1.002 1.002 0 0 0 1.632-.325 1 1 0 0 0-.217-1.09zM13 7a1 1 0 0 0-1 1v2.586L6.707 5.293a1 1 0 0 0-1.415 1.415L10.586 12H8a1 1 0 1 0 0 2h5a1 1 0 0 0 1-1V8a1 1 0 0 0-1-1"/>
</svg>
