<svg xmlns="http://www.w3.org/2000/svg" fill="none" viewBox="0 0 32 32">
  <path fill="#000" d="M27 6v6a1 1 0 0 1-2 0V8.414l-5.293 5.293a1 1 0 1 1-1.415-1.415L23.587 7H20a1 1 0 1 1 0-2h6a1 1 0 0 1 1 1M12.293 18.293 7 23.585V20a1 1 0 1 0-2 0v6a1 1 0 0 0 1 1h6a1 1 0 0 0 0-2H8.414l5.293-5.293a1 1 0 1 0-1.415-1.415zM26 19a1 1 0 0 0-1 1v3.586l-5.293-5.293a1 1 0 1 0-1.415 1.415L23.587 25H20a1 1 0 0 0 0 2h6a1 1 0 0 0 1-1v-6a1 1 0 0 0-1-1M8.414 7H12a1 1 0 1 0 0-2H6a1 1 0 0 0-1 1v6a1 1 0 1 0 2 0V8.414l5.293 5.293a1 1 0 1 0 1.415-1.415z"/>
</svg>
