<svg xmlns="http://www.w3.org/2000/svg" fill="none" viewBox="0 0 32 32">
  <path fill="#000" d="M7 18a1 1 0 0 1-1 1H3a1 1 0 0 1 0-2h1V9H3a1 1 0 0 1 0-2h2a1 1 0 0 1 .848.468L10 14.114l4.152-6.644A1 1 0 0 1 15 7h2a1 1 0 1 1 0 2h-1v8h1a1 1 0 0 1 0 2h-3a1 1 0 0 1 0-2v-5.514l-3.152 5.044a1 1 0 0 1-1.696 0L6 11.486V17a1 1 0 0 1 1 1m23-3h-9a1 1 0 0 0-1 1v2a1 1 0 0 0 1 1h9a1 1 0 0 0 1-1v-2a1 1 0 0 0-1-1m0 6H9a1 1 0 0 0-1 1v2a1 1 0 0 0 1 1h21a1 1 0 0 0 1-1v-2a1 1 0 0 0-1-1m0-12h-9a1 1 0 0 0-1 1v2a1 1 0 0 0 1 1h9a1 1 0 0 0 1-1v-2a1 1 0 0 0-1-1"/>
</svg>
