<svg xmlns="http://www.w3.org/2000/svg" fill="none" viewBox="0 0 32 32">
  <path fill="#000" d="M19 13a1 1 0 0 1 1-1h10a1 1 0 0 1 0 2H20a1 1 0 0 1-1-1m11 3H20a1 1 0 0 0 0 2h10a1 1 0 0 0 0-2m0 4H20a1 1 0 0 0 0 2h10a1 1 0 0 0 0-2m0 4H9a1 1 0 0 0 0 2h21a1 1 0 0 0 0-2m-20-2a7.01 7.01 0 0 1-7-7c0-.9.174-1.792.514-2.625A3.5 3.5 0 0 1 5.5 6a1 1 0 0 1 .486.125l8.741 4.856A1.501 1.501 0 0 0 14.5 8a1 1 0 0 1 0-2 3.5 3.5 0 1 1 0 7 1 1 0 0 1-.486-.125l-5-2.776A5 5 0 0 0 9 19.9V15a1 1 0 1 1 2 0v4.899a5.01 5.01 0 0 0 3.716-3.233 1 1 0 0 1 1.885.668A7.01 7.01 0 0 1 10 22M4.529 10.643A7 7 0 0 1 6.716 8.82l-1.444-.803a1.5 1.5 0 0 0-.75 2.626z"/>
</svg>
