<svg xmlns="http://www.w3.org/2000/svg" fill="none" viewBox="0 0 32 32">
  <path fill="#000" d="M24.515 16c3.081-4.326 4.653-8.797 2.468-10.982S20.326 4.404 16 7.485C11.674 4.404 7.203 2.833 5.018 5.018S4.404 11.674 7.485 16c-3.081 4.326-4.652 8.798-2.467 10.983C5.72 27.686 6.66 28 7.756 28c2.31 0 5.31-1.396 8.25-3.485C18.934 26.604 21.934 28 24.25 28c1.095 0 2.036-.315 2.739-1.017 2.179-2.185.607-6.657-2.474-10.983m1.054-9.569c.955.955.31 4.05-2.315 7.91a38 38 0 0 0-2.649-2.946A38 38 0 0 0 17.66 8.75c3.86-2.625 6.955-3.274 7.91-2.319zm-19.138 0c.275-.276.73-.418 1.328-.418 1.477 0 3.836.862 6.581 2.737a38 38 0 0 0-2.945 2.645 38 38 0 0 0-2.645 2.946c-2.625-3.86-3.274-6.955-2.319-7.91m0 19.138c-.955-.955-.306-4.05 2.32-7.91a38 38 0 0 0 2.648 2.946 38 38 0 0 0 2.942 2.645c-3.86 2.625-6.955 3.274-7.91 2.319m9.57-8.069a1.5 1.5 0 1 1 0-3 1.5 1.5 0 0 1 0 3m9.568 8.07c-.955.956-4.05.31-7.91-2.315a38 38 0 0 0 2.946-2.649 38 38 0 0 0 2.645-2.947c2.625 3.86 3.274 6.955 2.319 7.91z"/>
</svg>
