<svg xmlns="http://www.w3.org/2000/svg" fill="none" viewBox="0 0 32 32">
  <path fill="#000" d="M16.77 3.012a.5.5 0 0 0-.445.227C15.037 5.185 15 6.974 15 6.999a1 1 0 0 0 1.21.975A1.03 1.03 0 0 0 17 6.96 1 1 0 0 1 18.1 6a1.02 1.02 0 0 1 .9 1.029 3 3 0 1 1-6-.034c0-.079.011-1.348.68-3a.5.5 0 0 0-.574-.674A13.02 13.02 0 0 0 3.01 16.457c.24 6.883 5.895 12.418 12.78 12.53a13 13 0 0 0 .98-25.975M10 15.99a1.5 1.5 0 1 1 3 0 1.5 1.5 0 0 1-3 0m10.034 6.846a7.63 7.63 0 0 1-8.068 0 1 1 0 0 1 1.068-1.693 5.63 5.63 0 0 0 5.932 0 1 1 0 0 1 1.068 1.693m.466-5.346a1.5 1.5 0 1 1 0-3 1.5 1.5 0 0 1 0 3"/>
</svg>
