<svg xmlns="http://www.w3.org/2000/svg" fill="none" viewBox="0 0 32 32">
  <path fill="#000" d="M16 17.5a1.5 1.5 0 1 0 0-3 1.5 1.5 0 0 0 0 3"/>
  <path fill="#000" d="m23.071 16 3.464-3.465a4.997 4.997 0 0 0 .062-7.132 5 5 0 0 0-7.132.062L16 8.929l-3.465-3.464a4.999 4.999 0 1 0-7.07 7.07L8.929 16l-3.464 3.465a5.001 5.001 0 1 0 7.07 7.07L16 23.07l3.465 3.464a5 5 0 1 0 7.07-7.07L23.07 16zM16 11.757 20.242 16 16 20.242 11.757 16zm4.875-4.875a3.003 3.003 0 1 1 4.25 4.243L21.66 14.59l-4.246-4.246zm-9.75 18.243a3.005 3.005 0 1 1-4.25-4.25l3.465-3.465 4.242 4.242z"/>
</svg>
