<svg xmlns="http://www.w3.org/2000/svg" fill="none" viewBox="0 0 32 32">
  <path fill="#000" d="m23.071 16 3.464-3.465a4.997 4.997 0 0 0 .062-7.132 5 5 0 0 0-7.132.062L16 8.929l-3.465-3.464a4.999 4.999 0 1 0-7.07 7.07L8.929 16l-3.464 3.465a5.001 5.001 0 1 0 7.07 7.07L16 23.07l3.465 3.464a5 5 0 1 0 7.07-7.07L23.07 16zm-2.196-9.125a3.006 3.006 0 0 1 4.25 4.25L21.66 14.59l-4.246-4.246 3.46-3.47zM20.239 16l-4.24 4.242L11.758 16 16 11.757zM6.875 11.125a3.004 3.004 0 1 1 4.25-4.25l3.465 3.465-4.246 4.246-3.47-3.461zm4.25 14a3.005 3.005 0 1 1-4.25-4.25l3.465-3.465 4.242 4.242zm14 0a3 3 0 0 1-4.25 0L17.41 21.66l4.242-4.243 3.473 3.458a3 3 0 0 1 0 4.25M14.5 16a1.5 1.5 0 1 1 3 0 1.5 1.5 0 0 1-3 0"/>
</svg>
