<svg xmlns="http://www.w3.org/2000/svg" fill="none" viewBox="0 0 32 32">
  <path fill="#000" d="M25 8v16a2 2 0 0 1-2 2h-2a2 2 0 0 1-2-2v-7h-6v7a2 2 0 0 1-2 2H9a2 2 0 0 1-2-2V8a2 2 0 0 1 2-2h2a2 2 0 0 1 2 2v7h6V8a2 2 0 0 1 2-2h2a2 2 0 0 1 2 2M4.5 9H4a2 2 0 0 0-2 2v4h-.966A1.023 1.023 0 0 0 0 15.934 1 1 0 0 0 1 17h1v4a2 2 0 0 0 2 2h.5a.5.5 0 0 0 .5-.5v-13a.5.5 0 0 0-.5-.5M32 15.934A1.023 1.023 0 0 0 30.969 15H30v-4a2 2 0 0 0-2-2h-.5a.5.5 0 0 0-.5.5v13a.5.5 0 0 0 .5.5h.5a2 2 0 0 0 2-2v-4h1a1 1 0 0 0 1-1.066"/>
</svg>
