<svg xmlns="http://www.w3.org/2000/svg" fill="none" viewBox="0 0 32 32">
  <path fill="#000" d="M29 6v5a1 1 0 0 1-2 0V7h-4a1 1 0 1 1 0-2h5a1 1 0 0 1 1 1M9 25H5v-4a1 1 0 1 0-2 0v5a1 1 0 0 0 1 1h5a1 1 0 0 0 0-2m19-5a1 1 0 0 0-1 1v4h-4a1 1 0 0 0 0 2h5a1 1 0 0 0 1-1v-5a1 1 0 0 0-1-1M4 12a1 1 0 0 0 1-1V7h4a1 1 0 0 0 0-2H4a1 1 0 0 0-1 1v5a1 1 0 0 0 1 1m6-2a1 1 0 0 0-1 1v10a1 1 0 1 0 2 0V11a1 1 0 0 0-1-1m13 11V11a1 1 0 0 0-2 0v10a1 1 0 0 0 2 0m-5-11a1 1 0 0 0-1 1v10a1 1 0 0 0 2 0V11a1 1 0 0 0-1-1m-4 0a1 1 0 0 0-1 1v10a1 1 0 0 0 2 0V11a1 1 0 0 0-1-1"/>
</svg>
