<svg xmlns="http://www.w3.org/2000/svg" fill="none" viewBox="0 0 32 32">
  <path fill="#000" d="M28 5H4a1 1 0 0 0-1 1v20a1 1 0 0 0 1 1h24a1 1 0 0 0 1-1V6a1 1 0 0 0-1-1M5 8a1 1 0 0 1 1-1h4a1 1 0 1 1 0 2H7v3a1 1 0 1 1-2 0zm5 17H6a1 1 0 0 1-1-1v-4a1 1 0 1 1 2 0v3h3a1 1 0 0 1 0 2m3-6a1 1 0 0 1-2 0v-6a1 1 0 0 1 2 0zm4 0a1 1 0 0 1-2 0v-6a1 1 0 0 1 2 0zm3 1a1 1 0 0 1-1-1v-6a1 1 0 0 1 2 0v6a1 1 0 0 1-1 1m7 4a1 1 0 0 1-1 1h-4a1 1 0 0 1 0-2h3v-3a1 1 0 0 1 2 0zm0-12a1 1 0 0 1-2 0V9h-3a1 1 0 1 1 0-2h4a1 1 0 0 1 1 1z"/>
</svg>
