<svg xmlns="http://www.w3.org/2000/svg" fill="none" viewBox="0 0 32 32">
  <path fill="#000" d="M26.169 7.91a.5.5 0 0 0-.725-.059q-.636.58-1.175 1.25a1.025 1.025 0 0 1-1.375.226 1 1 0 0 1-.208-1.452q.595-.743 1.291-1.393a.5.5 0 0 0-.027-.76 12.974 12.974 0 0 0-15.9 0 .5.5 0 0 0-.028.76q.684.638 1.272 1.367a1.02 1.02 0 0 1-.044 1.348 1 1 0 0 1-1.5-.072 11 11 0 0 0-1.2-1.275.5.5 0 0 0-.724.06 12.974 12.974 0 0 0 0 16.18.5.5 0 0 0 .725.059 11 11 0 0 0 1.175-1.25 1.025 1.025 0 0 1 1.375-.227 1 1 0 0 1 .212 1.453q-.595.743-1.292 1.392a.5.5 0 0 0 .028.762 12.974 12.974 0 0 0 15.9 0 .502.502 0 0 0 .027-.762 13 13 0 0 1-1.29-1.392 1 1 0 0 1 .212-1.449 1.025 1.025 0 0 1 1.375.226q.538.671 1.175 1.25a.5.5 0 0 0 .725-.058 12.974 12.974 0 0 0 0-16.18zm-15.955 3.127a1.02 1.02 0 0 1 1.223.662q.359 1.025.543 2.096A1 1 0 0 1 11 15a1 1 0 0 1-1-.919c-.048-.555-.139-1.114-.4-1.605a1 1 0 0 1 .614-1.439M11.98 18.2q-.186 1.09-.554 2.135a1 1 0 0 1-1.396.557 1.024 1.024 0 0 1-.478-1.26q.307-.878.462-1.796a1 1 0 0 1 1.272-.794 1.02 1.02 0 0 1 .694 1.158m9.99 2.692a1.002 1.002 0 0 1-1.396-.557 13 13 0 0 1-.554-2.135 1.02 1.02 0 0 1 .694-1.158 1 1 0 0 1 1.272.794c.103.61.257 1.212.461 1.796a1.024 1.024 0 0 1-.477 1.26m.426-8.415c-.261.491-.352 1.05-.4 1.605a.998.998 0 0 1-1.271.875 1.02 1.02 0 0 1-.706-1.156 13 13 0 0 1 .543-2.1 1.02 1.02 0 0 1 1.224-.663 1 1 0 0 1 .61 1.44z"/>
</svg>
