<svg xmlns="http://www.w3.org/2000/svg" fill="none" viewBox="0 0 32 32">
  <path fill="#000" d="M16 3A13.015 13.015 0 0 0 3 16v7a3 3 0 0 0 4.772 2.42C9.293 24.316 11.95 23 16 23s6.709 1.315 8.226 2.419A3 3 0 0 0 29 23v-7A13.015 13.015 0 0 0 16 3m11 13v1.109a20.8 20.8 0 0 0-5.117-2.278 20.9 20.9 0 0 0-3.61-9.594A11.02 11.02 0 0 1 27 16M16 5.534a19.06 19.06 0 0 1 3.8 8.807 21.4 21.4 0 0 0-7.605 0A19.16 19.16 0 0 1 16 5.534m-2.274-.296a20.9 20.9 0 0 0-3.609 9.594A20.8 20.8 0 0 0 5 17.11V16a11.02 11.02 0 0 1 8.726-10.762m12.731 18.65a1 1 0 0 1-1.055-.086C23.645 22.525 20.587 21 16 21c-4.588 0-7.645 1.525-9.402 2.802a1 1 0 0 1-1.055.087A.97.97 0 0 1 5 23v-3.491a19 19 0 0 1 22 0V23a.97.97 0 0 1-.543.889z"/>
</svg>
