<svg xmlns="http://www.w3.org/2000/svg" fill="none" viewBox="0 0 32 32">
  <path fill="#000" d="M16 3a13 13 0 1 0 13 13A13.013 13.013 0 0 0 16 3M9.011 24.489c.103-.125.205-.242.303-.364a1.001 1.001 0 0 0-1.564-1.25l-.167.203a10.98 10.98 0 0 1 0-14.155l.167.202a1.001 1.001 0 1 0 1.564-1.25 7 7 0 0 0-.303-.364 10.98 10.98 0 0 1 13.978 0c-.103.125-.205.24-.303.364a1 1 0 1 0 1.564 1.25l.168-.203a10.98 10.98 0 0 1 0 14.155l-.168-.202a1 1 0 1 0-1.56 1.25q.148.186.302.364a10.98 10.98 0 0 1-13.977 0zm2.975-6.324a13 13 0 0 1-.56 2.169 1 1 0 0 1-1.886-.668c.21-.595.37-1.208.474-1.831a.998.998 0 0 1 1.804-.421 1 1 0 0 1 .168.751m0-4.33a1 1 0 0 1-1.971.33 11 11 0 0 0-.474-1.831 1 1 0 1 1 1.886-.668q.372 1.06.56 2.169zm9.864 7.107a1 1 0 0 1-1.276-.608 13 13 0 0 1-.56-2.169.999.999 0 1 1 1.972-.33q.157.937.474 1.831a1 1 0 0 1-.61 1.276m-1.836-7.107a13 13 0 0 1 .56-2.169 1 1 0 1 1 1.886.668q-.317.895-.474 1.831a1 1 0 0 1-1.972-.33"/>
</svg>
