<svg xmlns="http://www.w3.org/2000/svg" fill="none" viewBox="0 0 32 32">
  <path fill="#000" d="M17 15v7a1 1 0 1 1-2 0v-7a1 1 0 0 1 2 0m12.983-2.736L28.25 25.265A2 2 0 0 1 26.266 27H5.734a2 2 0 0 1-1.984-1.735l-1.734-13A2 2 0 0 1 4 10h4.546l6.704-7.659a1 1 0 0 1 1.5 0l6.704 7.66H28a2 2 0 0 1 1.981 2.263zM11.203 10h9.593L16 4.52 11.204 10zM28 12H4l1.734 13h20.532zm-6.395 2.9-.7 7A1 1 0 0 0 21.8 23a1 1 0 0 0 .101 0 1 1 0 0 0 .994-.9l.7-7a1 1 0 0 0-1.99-.2m-11.21 0a1 1 0 0 0-1.99.2l.7 7a1 1 0 0 0 1 .9 1 1 0 0 0 .101 0 1 1 0 0 0 .895-1.095z"/>
</svg>
