<svg xmlns="http://www.w3.org/2000/svg" fill="none" viewBox="0 0 32 32">
  <path fill="#000" d="M16 3a13 13 0 1 0 13 13A13.013 13.013 0 0 0 16 3M7.5 9.021A10.9 10.9 0 0 1 9.954 15H5.046A10.94 10.94 0 0 1 7.5 9.021M17 15V5.046a10.95 10.95 0 0 1 6.085 2.546A12.9 12.9 0 0 0 20.038 15zm-2 0h-3.037a12.9 12.9 0 0 0-3.048-7.407A10.95 10.95 0 0 1 15 5.046zm-5.046 2A10.9 10.9 0 0 1 7.5 22.979 10.94 10.94 0 0 1 5.046 17zm2.008 0H15v9.954a10.95 10.95 0 0 1-6.085-2.547A12.9 12.9 0 0 0 11.963 17zM17 17h3.038a12.9 12.9 0 0 0 3.047 7.407A10.95 10.95 0 0 1 17 26.954zm5.046 0h4.908a10.94 10.94 0 0 1-2.454 5.979A10.9 10.9 0 0 1 22.046 17m0-2A10.9 10.9 0 0 1 24.5 9.021 10.94 10.94 0 0 1 26.954 15z"/>
</svg>
