<svg xmlns="http://www.w3.org/2000/svg" fill="none" viewBox="0 0 32 32">
  <path fill="#000" d="M29.5 10.682A2 2 0 0 0 28 10h-4.546L16.75 2.341a1 1 0 0 0-1.5 0L8.546 10H4a2 2 0 0 0-1.982 2.264L3.75 25.265A2 2 0 0 0 5.734 27h20.532a2 2 0 0 0 1.984-1.735l1.734-13a2 2 0 0 0-.484-1.583M10.2 23a1 1 0 0 1-.101 0 1 1 0 0 1-1-.9l-.7-7a1 1 0 0 1 1.99-.2l.7 7A1 1 0 0 1 10.2 23m6.8-1a1 1 0 0 1-2 0v-7a1 1 0 0 1 2 0zm-5.796-12L16 4.519 20.796 10zm12.391 5.1-.7 7a1 1 0 0 1-.994.9 1 1 0 0 1-.101 0 1 1 0 0 1-.895-1.095l.7-7a1 1 0 0 1 1.99.2z"/>
</svg>
