<svg xmlns="http://www.w3.org/2000/svg" fill="none" viewBox="0 0 32 32">
  <path fill="#000" d="M13 13v10a1 1 0 0 1-2 0V13a1 1 0 0 1 2 0m5-1a1 1 0 0 0-1 1v10a1 1 0 0 0 2 0V13a1 1 0 0 0-1-1m12 2v8a3 3 0 0 1-3 3h-2v1a2 2 0 0 1-2 2H7a2 2 0 0 1-2-2V9c0-3.86 3.589-7 8-7 2.096 0 4.114.725 5.602 2H20a5 5 0 0 1 5 5v2h2a3 3 0 0 1 3 3M7.125 8h15.703A3 3 0 0 0 20 6h-1.782a1 1 0 0 1-.692-.277C16.383 4.625 14.734 4 13 4c-2.898 0-5.321 1.72-5.875 4M23 26V10H7v16zm5-12a1 1 0 0 0-1-1h-2v10h2a1 1 0 0 0 1-1z"/>
</svg>
