<svg xmlns="http://www.w3.org/2000/svg" fill="none" viewBox="0 0 32 32">
  <path fill="#000" d="M11.5 15H8v-3h3.5a1.5 1.5 0 1 1 0 3m.5 2H8v4h4a2 2 0 0 0 0-4m10-2a3 3 0 0 0-2.828 2h5.655A3 3 0 0 0 22 15m8-8v18a2 2 0 0 1-2 2H4a2 2 0 0 1-2-2V7a2 2 0 0 1 2-2h24a2 2 0 0 1 2 2m-12 4a1 1 0 0 0 1 1h6a1 1 0 0 0 0-2h-6a1 1 0 0 0-1 1m-2 8a4 4 0 0 0-1.766-3.316A3.502 3.502 0 0 0 11.5 10H7a1 1 0 0 0-1 1v11a1 1 0 0 0 1 1h5a4 4 0 0 0 4-4m11-1a5 5 0 1 0-1.692 3.75 1 1 0 0 0-1.324-1.5A3 3 0 0 1 19.172 19H26a1 1 0 0 0 1-1"/>
</svg>
