<svg xmlns="http://www.w3.org/2000/svg" fill="none" viewBox="0 0 32 32">
  <path fill="#000" d="M6.74 4.327a1 1 0 1 0-1.48 1.345l2.093 2.303A9.95 9.95 0 0 0 6 13c0 4.417-1.032 7.797-1.726 8.992A2 2 0 0 0 6 25h5.1a5 5 0 0 0 9.8 0h1.93l2.43 2.672a1 1 0 1 0 1.48-1.345zM16 27a3 3 0 0 1-2.828-2h5.655A3 3 0 0 1 16 27M6 23c.963-1.655 2-5.49 2-10a7.96 7.96 0 0 1 .783-3.453L21.01 23zm20.75-.591a1 1 0 0 1-1.296-.566C24.544 19.522 24 16.218 24 13a8 8 0 0 0-11.946-6.961 1 1 0 0 1-.988-1.74A10 10 0 0 1 26 13c0 4.42 1.006 7.325 1.315 8.11a1 1 0 0 1-.565 1.297v.003z"/>
</svg>
