<svg xmlns="http://www.w3.org/2000/svg" fill="none" viewBox="0 0 32 32">
  <path fill="#000" d="m6.808 20.589 3.483-4.776a6 6 0 1 1-1.615-1.18L5.193 19.41a1 1 0 1 0 1.615 1.178zM26 14c-.723 0-1.44.13-2.116.386l2.98 5.114a1.001 1.001 0 0 1-1.12 1.512 1 1 0 0 1-.608-.512l-2.978-5.107A6 6 0 1 0 26 14m-5.259-5h3.26a1 1 0 0 1 1 1 1 1 0 0 0 2 0 3 3 0 0 0-3-3h-5a1 1 0 0 0-.865 1.5l1.457 2.5h-7.185l-2.044-3.5A1 1 0 0 0 9.5 7H6a1 1 0 0 0 0 2h2.926l1.714 2.939-1.964 2.694c.601.3 1.147.698 1.615 1.18l1.45-1.988 3.895 6.675a1.001 1.001 0 0 0 1.88-.624 1 1 0 0 0-.152-.376l-3.79-6.5h7.185l1.399 2.396a6 6 0 0 1 1.726-1.01L20.74 9z"/>
</svg>
