<svg xmlns="http://www.w3.org/2000/svg" fill="none" viewBox="0 0 33 32">
  <path fill="#000" d="M27 14c-.723 0-1.44.13-2.116.386L21.741 9h3.26a1 1 0 0 1 1 1 1 1 0 0 0 2 0 3 3 0 0 0-3-3h-5a1 1 0 0 0-.864 1.5l1.456 2.5h-7.185l-2.044-3.5A1 1 0 0 0 10.5 7H7a1 1 0 0 0 0 2h2.926l1.714 2.939-1.964 2.694a6.016 6.016 0 1 0 1.615 1.18l1.45-1.988 3.896 6.675a1 1 0 1 0 1.727-1l-3.79-6.5h7.185l1.399 2.396A6 6 0 1 0 27 14m-16 6a3.999 3.999 0 1 1-2.526-3.718l-2.281 3.125a1 1 0 1 0 1.615 1.178l2.281-3.125c.59.715.912 1.613.911 2.54m16 4a4 4 0 0 1-2.814-6.84l1.95 3.34a1.001 1.001 0 0 0 1.87-.218 1 1 0 0 0-.142-.782l-1.951-3.349A4 4 0 1 1 27 24"/>
</svg>
