<svg xmlns="http://www.w3.org/2000/svg" fill="none" viewBox="0 0 32 32">
  <path fill="#000" d="M29.65 18.984a6 6 0 0 0-.294-.682L24.157 6.475a1 1 0 0 0-.207-.305 4 4 0 0 0-5.657 0 1 1 0 0 0-.293.705V10h-4V6.875a1 1 0 0 0-.293-.707 4 4 0 0 0-5.657 0 1 1 0 0 0-.208.304L2.644 18.3A6 6 0 1 0 14 21v-9h4v9a6 6 0 1 0 11.65-2.016M9.589 7.469A2 2 0 0 1 12 7.344v9.188a5.99 5.99 0 0 0-5.849-1.24zM8 25a4 4 0 1 1 0-8 4 4 0 0 1 0 8M20 7.343a2 2 0 0 1 2.411.125l3.438 7.822A5.99 5.99 0 0 0 20 16.531zM24 25a4 4 0 1 1 0-8 4 4 0 0 1 0 8"/>
</svg>
