<svg xmlns="http://www.w3.org/2000/svg" fill="none" viewBox="0 0 32 32">
  <path fill="#000" d="M22 8.5a1.5 1.5 0 1 1-3 0 1.5 1.5 0 0 1 3 0m-6.36 7.731a1 1 0 0 0-1.409.125l-5 6a1 1 0 0 0 1.538 1.28l5-6a1 1 0 0 0-.129-1.405M30 10a1 1 0 0 1-.445.832L27 12.535V15a13.013 13.013 0 0 1-13 13H1a1 1 0 0 1-.781-1.625L12 11.649v-2.15a7.5 7.5 0 0 1 14.651-2.267l2.904 1.935A1 1 0 0 1 30 10m-2.802 0-1.96-1.308a1 1 0 0 1-.414-.58A5.5 5.5 0 0 0 14 9.5V12a1 1 0 0 1-.219.625L3.08 26H14a11.013 11.013 0 0 0 11-11v-3a1 1 0 0 1 .445-.833z"/>
</svg>
