<svg xmlns="http://www.w3.org/2000/svg" fill="none" viewBox="0 0 32 32">
  <path fill="#000" d="M23.6 21.2 16.666 16l2.934-2.2a1 1 0 0 0-1.2-1.6L16 14V6l2.4 1.8a1 1 0 0 0 1.2-1.6l-4-3A1 1 0 0 0 14 4v10L7.6 9.2a1 1 0 1 0-1.2 1.6l6.934 5.2L6.4 21.2a1 1 0 0 0 1.2 1.6L14 18v10a1 1 0 0 0 1.6.8l8-6a1 1 0 0 0 0-1.6M16 26v-8l5.334 4zm13.707-13.707a1 1 0 0 1-1.415 1.415L26 11.413l-2.293 2.293a1 1 0 1 1-1.415-1.415L24.587 10l-2.293-2.293a1.001 1.001 0 0 1 1.415-1.414L26 8.585l2.293-2.293a1 1 0 1 1 1.415 1.414L27.413 10l2.293 2.293z"/>
</svg>
