<svg xmlns="http://www.w3.org/2000/svg" fill="none" viewBox="0 0 32 32">
  <path fill="#000" d="M24 22a1 1 0 0 1-.4.8l-8 6a1 1 0 0 1-1.114.058A1.04 1.04 0 0 1 14 27.96V18l-6.404 4.8a1 1 0 0 1-1.395-.194 1.03 1.03 0 0 1 .225-1.429L13.332 16l-6.91-5.179a1.023 1.023 0 0 1-.266-1.366 1 1 0 0 1 1.439-.25L14 14V4.03a1.03 1.03 0 0 1 .354-.793 1 1 0 0 1 1.25-.037l4.202 3.15a.5.5 0 0 1 .194.4v6.5a.5.5 0 0 1-.2.4L16.667 16l6.938 5.2A1 1 0 0 1 24 22m5.684-9.734L27.42 10l2.264-2.264a1.026 1.026 0 0 0 .051-1.421 1 1 0 0 0-1.436-.023l-2.294 2.294-2.265-2.264a1.03 1.03 0 0 0-1.422-.05 1 1 0 0 0-.023 1.435L24.591 10l-2.268 2.266a1.026 1.026 0 0 0-.076 1.388 1 1 0 0 0 1.464.053l2.295-2.293 2.294 2.293a1 1 0 0 0 1.465-.053 1.026 1.026 0 0 0-.076-1.388z"/>
</svg>
