<svg xmlns="http://www.w3.org/2000/svg" fill="none" viewBox="0 0 32 32">
  <path fill="#000" d="M28.959 7.611A4.48 4.48 0 0 0 25.98 6.02a4.5 4.5 0 1 0-8.296 2.865v.01L8.895 17.69h-.012a4.5 4.5 0 1 0-2.865 8.296 4.5 4.5 0 1 0 8.296-2.865v-.01l8.794-8.795h.012a4.5 4.5 0 0 0 5.843-6.704zm-1.572 4.534a2.5 2.5 0 0 1-3.208.475 2 2 0 0 0-2.485.274l-8.8 8.8a2 2 0 0 0-.269 2.485 2.5 2.5 0 1 1-4.594.937 1 1 0 0 0-1.142-1.142 2.499 2.499 0 1 1 .932-4.599 2 2 0 0 0 2.485-.274l8.8-8.8a2 2 0 0 0 .269-2.48 2.5 2.5 0 1 1 4.594-.937 1 1 0 0 0 1.142 1.142 2.5 2.5 0 0 1 2.271 4.125z"/>
</svg>
