<svg xmlns="http://www.w3.org/2000/svg" fill="none" viewBox="0 0 32 32">
  <path fill="#000" d="M24 14h-9.966a1.02 1.02 0 0 1-1.032-.934A1 1 0 0 1 14 12h5.5a.5.5 0 0 0 .5-.5v-1a.5.5 0 0 0-.5-.5h-5.466A1.02 1.02 0 0 1 13 9.066 1 1 0 0 1 14 8h5.5a.5.5 0 0 0 .5-.5V7a2 2 0 0 0-2-2H4.028a1 1 0 0 0-.961 1.357c1.382 3.605 1.094 10.464-.028 14.367A1 1 0 0 0 3 21v4a2 2 0 0 0 2 2h3.264c.31 0 .617-.072.895-.211l1.577-.79h2.028l1.577.79c.278.139.585.211.895.21h3.528a2 2 0 0 0 .895-.21l1.577-.79h2.028l1.577.79c.278.139.585.211.895.21H29a2 2 0 0 0 2-2v-4a7 7 0 0 0-7-7zm5 11h-3.264l-1.577-.789a2 2 0 0 0-.895-.211h-2.028a2 2 0 0 0-.895.211L18.764 25h-3.528l-1.577-.789a2 2 0 0 0-.895-.211h-2.028a2 2 0 0 0-.895.211L8.264 25H5v-3h24z"/>
</svg>
