<svg xmlns="http://www.w3.org/2000/svg" fill="none" viewBox="0 0 32 32">
  <path fill="#000" d="M28 13h-1.046a11 11 0 0 0-21.908 0H4a1 1 0 0 0-1 1 13.04 13.04 0 0 0 7 11.535V26a2 2 0 0 0 2 2h8a2 2 0 0 0 2-2v-.465A13.04 13.04 0 0 0 29 14a1 1 0 0 0-1-1m-3.058 0h-6.427a8.98 8.98 0 0 1 5.159-3.696A8.9 8.9 0 0 1 24.942 13m-3.257-5.97q.345.28.659.594a11 11 0 0 0-6.144 5.375h-3.688A9.03 9.03 0 0 1 21 7q.343.001.685.029zM16 5c.802 0 1.601.109 2.375.321a11.05 11.05 0 0 0-7.959 7.68H7.057A9.01 9.01 0 0 1 16 5m4.582 19a1 1 0 0 0-.582.913V26h-8v-1.087a1 1 0 0 0-.582-.913 11.04 11.04 0 0 1-6.375-9h21.91a11.04 11.04 0 0 1-6.37 9z"/>
</svg>
