<svg xmlns="http://www.w3.org/2000/svg" fill="none" viewBox="0 0 32 32">
  <path fill="#000" d="M27 5H5a2 2 0 0 0-2 2v18a2 2 0 0 0 2 2h22a2 2 0 0 0 2-2V7a2 2 0 0 0-2-2M11 19.48c.036 1.782.051 2.52 2 2.52a1 1 0 0 1 0 2c-3.909 0-3.965-2.804-4-4.48C8.964 17.738 8.949 17 7 17a1 1 0 0 1 0-2c1.949 0 1.964-.738 2-2.52.035-1.676.091-4.48 4-4.48a1 1 0 1 1 0 2c-1.949 0-1.964.738-2 2.52-.021 1.039-.051 2.511-1 3.48.949.969.979 2.441 1 3.48M25 17c-1.949 0-1.964.738-2 2.52-.035 1.676-.091 4.48-4 4.48a1 1 0 0 1 0-2c1.949 0 1.964-.738 2-2.52.021-1.039.051-2.511 1-3.48-.95-.969-.98-2.441-1-3.48-.036-1.782-.051-2.52-2-2.52a1 1 0 1 1 0-2c3.909 0 3.965 2.804 4 4.48.036 1.782.051 2.52 2 2.52a1 1 0 0 1 0 2"/>
</svg>
