<svg xmlns="http://www.w3.org/2000/svg" fill="none" viewBox="0 0 32 32">
  <path fill="#000" d="M26.5 9.5V9a5.5 5.5 0 0 0-9.357-3.914.5.5 0 0 0-.143.35v11.09a.5.5 0 0 0 .775.416A5.96 5.96 0 0 1 20.96 16a1.02 1.02 0 0 1 1.039.948 1 1 0 0 1-1 1.052 4 4 0 0 0-4 4v4.235a.5.5 0 0 0 .186.39 5.99 5.99 0 0 0 9.276-2.145.5.5 0 0 0-.56-.695A8.5 8.5 0 0 1 24 24h-.967a1.023 1.023 0 0 1-1.031-.934 1 1 0 0 1 1-1.066h1A6.5 6.5 0 0 0 26.5 9.5M25 14h-.5A4.5 4.5 0 0 1 20 9.5V9a1 1 0 0 1 2 0v.5a2.5 2.5 0 0 0 2.5 2.5h.5a1 1 0 0 1 0 2M11 3.5A5.506 5.506 0 0 0 5.5 9v.5A6.5 6.5 0 0 0 5 21.265 6.45 6.45 0 0 0 8 22h.966a1.023 1.023 0 0 1 1.034.934A1 1 0 0 1 9 24H8c-.64 0-1.278-.072-1.901-.216a.5.5 0 0 0-.563.694 5.99 5.99 0 0 0 9.278 2.147.5.5 0 0 0 .186-.39V22a4 4 0 0 0-4-4 1 1 0 0 1-1-1.052A1.02 1.02 0 0 1 11.04 16a5.96 5.96 0 0 1 3.185.942.5.5 0 0 0 .775-.416V5.436a.5.5 0 0 0-.142-.351A5.48 5.48 0 0 0 11 3.5m1 6A4.5 4.5 0 0 1 7.5 14H7a1 1 0 0 1 0-2h.5A2.5 2.5 0 0 0 10 9.5V9a1 1 0 0 1 2 0z"/>
</svg>
