<svg xmlns="http://www.w3.org/2000/svg" fill="none" viewBox="0 0 32 32">
  <path fill="#000" d="M29 20h-1v-4.938q.305.154.625.283a1 1 0 0 0 .75-1.854A6.97 6.97 0 0 1 25 7a1 1 0 0 0-2 0A7 7 0 1 1 9 7a1 1 0 0 0-2 0 6.97 6.97 0 0 1-4.375 6.491 1 1 0 0 0 .75 1.854q.32-.13.625-.283V20h-.925C2.286 20 2 20.598 2 21a1 1 0 0 0 1 1h4v3a1 1 0 1 0 2 0v-3h14v3a1 1 0 0 0 2 0v-3h4a1 1 0 0 0 0-2M9 19a1 1 0 1 1-2 0v-5.581a1 1 0 0 1 2 0zm5 0a1 1 0 0 1-2 0v-2.581a1 1 0 0 1 2 0zm6 0a1 1 0 0 1-2 0v-2.581a1 1 0 0 1 2 0zm5 0a1 1 0 0 1-2 0v-5.581a1 1 0 0 1 2 0z"/>
</svg>
