<svg xmlns="http://www.w3.org/2000/svg" fill="none" viewBox="0 0 32 32">
  <path fill="#000" d="M16 11a5 5 0 1 0 0 10 5 5 0 0 0 0-10m0 8a3 3 0 1 1 0-5.999A3 3 0 0 1 16 19m9.214.892a10 10 0 0 1-1.76 2.776 1 1 0 0 1-1.49-1.334 7.994 7.994 0 0 0 0-10.666.999.999 0 1 1 1.49-1.334 10.01 10.01 0 0 1 1.76 10.558M8.625 12.886a8 8 0 0 0 1.408 8.448 1 1 0 0 1-1.49 1.334 9.99 9.99 0 0 1 0-13.334 1.001 1.001 0 0 1 1.494 1.334 8 8 0 0 0-1.412 2.218M31 16a14.95 14.95 0 0 1-4.286 10.5.999.999 0 0 1-1.651-1.073 1 1 0 0 1 .224-.327 12.987 12.987 0 0 0 0-18.195A1.001 1.001 0 1 1 26.714 5.5 14.95 14.95 0 0 1 31 16M6.714 25.098A1 1 0 1 1 5.287 26.5a14.984 14.984 0 0 1 0-21 1 1 0 1 1 1.427 1.4 12.99 12.99 0 0 0 0 18.195z"/>
</svg>
