<svg xmlns="http://www.w3.org/2000/svg" fill="none" viewBox="0 0 32 32">
  <path fill="#000" d="M21 16a5 5 0 1 1-10 0 5 5 0 0 1 10 0m5 0a9.97 9.97 0 0 0-2.546-6.666 1 1 0 1 0-1.49 1.334 8 8 0 0 1 0 10.666 1 1 0 0 0 1.49 1.334A9.97 9.97 0 0 0 26 16m-15.963-5.332a1 1 0 1 0-1.49-1.334 9.99 9.99 0 0 0 0 13.334 1 1 0 0 0 1.49-1.334 7.994 7.994 0 0 1 0-10.666m19.785-.5A14.9 14.9 0 0 0 26.714 5.5a1 1 0 1 0-1.427 1.4 12.99 12.99 0 0 1 0 18.195 1 1 0 0 0 .01 1.416 1.003 1.003 0 0 0 1.417-.011 15.02 15.02 0 0 0 3.108-16.339zM4.022 21.06A12.99 12.99 0 0 1 6.714 6.903 1 1 0 1 0 5.287 5.5a14.984 14.984 0 0 0 0 21 .998.998 0 0 0 1.652-.297 1 1 0 0 0-.225-1.103 13 13 0 0 1-2.692-4.04"/>
</svg>
