<svg xmlns="http://www.w3.org/2000/svg" fill="none" viewBox="0 0 32 32">
  <path fill="#000" d="M28 14h-2v-2h2a1 1 0 1 1 0 2M4 12a1 1 0 1 0 0 2h2v-2zm22 7q0 .507-.05 1H28a1 1 0 1 1 0 2h-2.46a10 10 0 0 1-19.08 0H4a1 1 0 0 1 0-2h2.05q-.049-.493-.05-1v-1H4a1 1 0 0 1 0-2h2v-2h20v2h2a1 1 0 1 1 0 2h-2zm-9-2a1 1 0 0 0-2 0v8a1 1 0 0 0 2 0zM8.73 6.144A9.97 9.97 0 0 0 6.05 12h19.9a9.97 9.97 0 0 0-2.68-5.856l2.438-2.436a1.001 1.001 0 0 0-1.415-1.415L21.756 4.83a9.97 9.97 0 0 0-11.512 0L7.707 2.293a1 1 0 1 0-1.414 1.415z"/>
</svg>
