<svg xmlns="http://www.w3.org/2000/svg" fill="none" viewBox="0 0 32 32">
  <path fill="#000" d="M26 18h2a1 1 0 0 0 0-2h-2v-2h2a1 1 0 0 0 0-2h-2.05a9.97 9.97 0 0 0-2.68-5.856l2.438-2.436a1.001 1.001 0 0 0-1.415-1.415L21.756 4.83a9.97 9.97 0 0 0-11.512 0L7.707 2.293a1 1 0 1 0-1.414 1.415L8.73 6.144A9.97 9.97 0 0 0 6.05 12H4a1 1 0 1 0 0 2h2v2H4a1 1 0 1 0 0 2h2v1q.001.507.05 1H4a1 1 0 1 0 0 2h2.46a10 10 0 0 0 19.08 0H28a1 1 0 0 0 0-2h-2.05q.05-.493.05-1zM16 5a8.01 8.01 0 0 1 7.935 7H8.06A8.01 8.01 0 0 1 16 5m1 21.935V17a1 1 0 0 0-2 0v9.935A8.01 8.01 0 0 1 8 19v-5h16v5a8.01 8.01 0 0 1-7 7.935"/>
</svg>
