<svg xmlns="http://www.w3.org/2000/svg" fill="none" viewBox="0 0 32 32">
  <path fill="#000" d="m23.979 5.435 1.729-1.727a1.001 1.001 0 0 0-1.415-1.415l-1.82 1.82a10.98 10.98 0 0 0-12.947 0l-1.819-1.82a1 1 0 1 0-1.414 1.415L8.02 5.435A10.97 10.97 0 0 0 5 13v5a11 11 0 0 0 22 0v-5a10.97 10.97 0 0 0-3.021-7.565M16 4a9.01 9.01 0 0 1 9 9v1H7v-1a9.01 9.01 0 0 1 9-9m0 23a9.01 9.01 0 0 1-9-9v-2h18v2a9.01 9.01 0 0 1-9 9m2-16.5a1.5 1.5 0 1 1 3 0 1.5 1.5 0 0 1-3 0m-7 0a1.5 1.5 0 1 1 3 0 1.5 1.5 0 0 1-3 0"/>
</svg>
