<svg xmlns="http://www.w3.org/2000/svg" fill="none" viewBox="0 0 32 32">
  <path fill="#000" d="M21 11.5a1.5 1.5 0 1 1-3 0 1.5 1.5 0 0 1 3 0M12.5 10a1.5 1.5 0 1 0 0 3 1.5 1.5 0 0 0 0-3M27 18a11 11 0 0 1-.375 2.875l2.78 1.215A1 1 0 0 1 29 24a1 1 0 0 1-.4-.084l-2.678-1.166a11 11 0 0 1-19.845 0L3.4 23.916a1 1 0 0 1-.8-1.832l2.775-1.209A11 11 0 0 1 5 18v-1H2a1 1 0 0 1 0-2h3v-1a11 11 0 0 1 .375-2.875L2.6 9.916a1 1 0 1 1 .8-1.832L6.077 9.25a11 11 0 0 1 19.845 0L28.6 8.08a1 1 0 0 1 .8 1.832l-2.775 1.22c.252.937.378 1.904.375 2.874v1h3a1 1 0 0 1 0 2h-3zm-10 0a1 1 0 0 0-2 0v8a1 1 0 0 0 2 0zm8-4a9 9 0 1 0-18 0v1h18z"/>
</svg>
