<svg xmlns="http://www.w3.org/2000/svg" fill="none" viewBox="0 0 32 32">
  <path fill="#000" d="M16 12.521a14 14 0 0 0-1-1.58V7a1 1 0 0 1 2 0v3.941q-.555.755-1 1.58M29.087 6.31C28.625 5.713 27.73 5 26.125 5c-2.106 0-4.808 1.41-7.226 3.77A17.5 17.5 0 0 0 17 10.941V22.5a1 1 0 1 1-2 0V10.941c-.57-.774-1.204-1.5-1.894-2.171C10.686 6.41 7.985 5 5.875 5c-1.605 0-2.5.713-2.962 1.31-.853 1.096-1.523 3.01-.027 8.9.757 2.979 2.439 4.125 3.829 4.552A5.5 5.5 0 0 0 16 25.66a5.5 5.5 0 0 0 9.285-5.896c1.39-.426 3.071-1.574 3.829-4.553.84-3.305 1.492-6.948-.027-8.9z"/>
</svg>
