<svg xmlns="http://www.w3.org/2000/svg" fill="none" viewBox="0 0 32 32">
  <path fill="#000" d="M29.087 6.31C28.625 5.713 27.73 5 26.125 5c-2.106 0-4.808 1.41-7.226 3.77A17.5 17.5 0 0 0 17 10.941V7a1 1 0 1 0-2 0v3.941c-.57-.774-1.204-1.5-1.894-2.171C10.686 6.41 7.985 5 5.875 5c-1.605 0-2.5.713-2.962 1.31-.853 1.096-1.523 3.01-.027 8.9.757 2.979 2.439 4.125 3.829 4.552A5.5 5.5 0 0 0 16 25.66a5.5 5.5 0 0 0 9.285-5.896c1.39-.426 3.071-1.574 3.829-4.553.84-3.305 1.492-6.948-.027-8.9zM11.5 26a3.515 3.515 0 0 1-.393-7 1 1 0 1 0-.22-1.988c-.934.1-1.827.44-2.592.988-1.054.011-2.75-.446-3.47-3.283-.36-1.418-1.45-5.735-.332-7.18C4.67 7.307 5.01 7 5.875 7 9.284 7 15 12.61 15 15.959V22.5a3.5 3.5 0 0 1-3.5 3.5m15.675-11.283c-.721 2.837-2.416 3.293-3.471 3.283a5.45 5.45 0 0 0-2.593-.994.997.997 0 0 0-1.123.882 1 1 0 0 0 .903 1.106A3.514 3.514 0 1 1 17 22.5v-6.541C17 12.61 22.711 7 26.125 7c.869 0 1.207.308 1.387.537 1.12 1.446.023 5.762-.337 7.18"/>
</svg>
