<svg xmlns="http://www.w3.org/2000/svg" fill="none" viewBox="0 0 32 32">
  <path fill="#000" fill-rule="evenodd" d="M12.5 2A1.5 1.5 0 0 0 11 3.5V9h-.5A1.5 1.5 0 0 0 9 10.5v7.998c0 2.48.734 4.906 2.11 6.97.222.333.594.532.993.532H13v3a1 1 0 1 0 2 0v-3h2v3a1 1 0 1 0 2 0v-3h.897c.399 0 .771-.2.992-.531A12.57 12.57 0 0 0 23 18.498V10.5A1.5 1.5 0 0 0 21.5 9H21V3.5A1.5 1.5 0 0 0 19.5 2zM19 9V4h-2v2a1 1 0 1 1-2 0V4h-2v5zm.454 15A10.57 10.57 0 0 0 21 18.498V11H11v7.498c0 1.944.536 3.847 1.546 5.502z" clip-rule="evenodd"/>
</svg>
