<svg xmlns="http://www.w3.org/2000/svg" fill="none" viewBox="0 0 32 32">
  <path fill="#000" d="M27 26h-6v-3h.5a8.51 8.51 0 0 0 8.5-8.5 3.5 3.5 0 1 0-7 0 1.5 1.5 0 0 1-1.5 1.5H21V7a5 5 0 0 0-10 0v4h-.5A1.5 1.5 0 0 1 9 9.5a3.5 3.5 0 1 0-7 0 8.51 8.51 0 0 0 8.5 8.5h.5v8H5a1 1 0 0 0 0 2h22a1 1 0 0 0 0-2M12 16h-1.5A6.507 6.507 0 0 1 4 9.5a1.5 1.5 0 0 1 3 0 3.5 3.5 0 0 0 3.5 3.5H12a1 1 0 0 0 1-1V7a3 3 0 0 1 6 0v10a1 1 0 0 0 1 1h1.5a3.5 3.5 0 0 0 3.5-3.5 1.5 1.5 0 1 1 3 0 6.507 6.507 0 0 1-6.5 6.5H20a1 1 0 0 0-1 1v4h-6v-9a1 1 0 0 0-1-1"/>
</svg>
