<svg xmlns="http://www.w3.org/2000/svg" fill="none" viewBox="0 0 32 32">
  <path fill="#000" d="M26 11h-9V9.875A4.01 4.01 0 0 0 20 6C20 2.5 16.695.26 16.555.167a1 1 0 0 0-1.11 0C15.305.261 12 2.5 12 6a4.01 4.01 0 0 0 3 3.875V11H6a3 3 0 0 0-3 3v2.916a5.1 5.1 0 0 0 1 3.03V25a3 3 0 0 0 3 3h18a3 3 0 0 0 3-3v-5.054a5.1 5.1 0 0 0 1-3.03V14a3 3 0 0 0-3-3M14 6c0-1.696 1.25-3.058 2-3.724.75.666 2 2.028 2 3.724a2 2 0 1 1-4 0m13 10.916c0 1.656-1.308 3.039-2.915 3.083a3 3 0 0 1-3.085-3 1 1 0 0 0-2 0 3 3 0 0 1-6 0 1 1 0 0 0-2 0 3 3 0 0 1-3.085 3C6.308 19.956 5 18.573 5 16.917V14a1 1 0 0 1 1-1h20a1 1 0 0 1 1 1z"/>
</svg>
