<svg xmlns="http://www.w3.org/2000/svg" fill="none" viewBox="0 0 32 32">
  <path fill="#000" d="M29 14a3 3 0 0 0-3-3h-9V9.875A4.01 4.01 0 0 0 20 6C20 2.5 16.695.261 16.555.168a1 1 0 0 0-1.11 0C15.305.26 12 2.5 12 6a4.01 4.01 0 0 0 3 3.875V11H6a3 3 0 0 0-3 3v2.916a5.1 5.1 0 0 0 1 3.03V25a3 3 0 0 0 3 3h18a3 3 0 0 0 3-3v-5.054a5.1 5.1 0 0 0 1-3.03zM14 6c0-1.696 1.25-3.057 2-3.724.75.667 2 2.028 2 3.724a2 2 0 1 1-4 0m-9 8a1 1 0 0 1 1-1h20a1 1 0 0 1 1 1v2.916c0 1.657-1.308 3.04-2.915 3.083A3 3 0 0 1 21 17a1 1 0 1 0-2 0 3 3 0 0 1-6 0 1 1 0 1 0-2 0 3 3 0 0 1-3.085 3C6.308 19.955 5 18.573 5 16.916zm20 12H7a1 1 0 0 1-1-1v-3.43a4.9 4.9 0 0 0 1.86.43A4.96 4.96 0 0 0 12 20a5 5 0 0 0 8 0q.236.312.516.584A4.96 4.96 0 0 0 24 22h.142A4.9 4.9 0 0 0 26 21.57V25a1 1 0 0 1-1 1"/>
</svg>
