<svg xmlns="http://www.w3.org/2000/svg" fill="none" viewBox="0 0 32 32">
  <path fill="#000" d="M6.74 4.328a1 1 0 1 0-1.48 1.345L6.466 7H6a3 3 0 0 0-3 3v14a3 3 0 0 0 3 3h18.649l.611.673a1 1 0 0 0 1.42.076 1 1 0 0 0 .06-1.421zm6.457 10.076 4.626 5.086a3.501 3.501 0 0 1-4.625-5.086zM6 25a1 1 0 0 1-1-1V10a1 1 0 0 1 1-1h2.285l3.551 3.908a5.5 5.5 0 0 0 7.344 8.077L22.83 25zm23-15v13.25a1 1 0 0 1-2 0V10a1 1 0 0 0-1-1h-4a1 1 0 0 1-.831-.445L19.464 6H12.53a1 1 0 0 1-1.614-1.177l.25-.375A1 1 0 0 1 12 4h8a1 1 0 0 1 .832.445L22.535 7H26a3 3 0 0 1 3 3"/>
</svg>
