<svg xmlns="http://www.w3.org/2000/svg" fill="none" viewBox="0 0 32 32">
  <path fill="#000" d="M26 7h-3.465l-1.704-2.555A1 1 0 0 0 20 4h-8a1 1 0 0 0-.831.445L9.464 7H6a3 3 0 0 0-3 3v14a3 3 0 0 0 3 3h20a3 3 0 0 0 3-3V10a3 3 0 0 0-3-3m-6.399 13.8A6.03 6.03 0 0 1 12 20.471V21a1 1 0 0 1-2 0v-3a1 1 0 0 1 1-1h3a1 1 0 0 1 0 2h-.644a4.015 4.015 0 0 0 5.043.201A1 1 0 1 1 19.6 20.8zM22 15a1 1 0 0 1-1 1h-3a1 1 0 0 1 0-2h.644a4.015 4.015 0 0 0-5.043-.201A1 1 0 1 1 12.4 12.2a6.03 6.03 0 0 1 7.601.329V12a1 1 0 0 1 2 0v3z"/>
</svg>
