<svg xmlns="http://www.w3.org/2000/svg" fill="none" viewBox="0 0 32 32">
  <path fill="#000" d="M26 7h-3.465l-1.704-2.555A1 1 0 0 0 20 4h-8a1 1 0 0 0-.831.445L9.464 7H6a3 3 0 0 0-3 3v14a3 3 0 0 0 3 3h20a3 3 0 0 0 3-3V10a3 3 0 0 0-3-3m1 17a1 1 0 0 1-1 1H6a1 1 0 0 1-1-1V10a1 1 0 0 1 1-1h4a1 1 0 0 0 .832-.445L12.535 6h6.929l1.704 2.555A1 1 0 0 0 22 9h4a1 1 0 0 1 1 1zm-5-12v3a1 1 0 0 1-1 1h-3a1 1 0 0 1 0-2h.644a4.015 4.015 0 0 0-5.043-.201A1 1 0 1 1 12.4 12.2a6.03 6.03 0 0 1 7.601.329V12a1 1 0 0 1 2 0zm-2.201 7.4a1 1 0 0 1-.198 1.4A6.03 6.03 0 0 1 12 20.471V21a1 1 0 0 1-2 0v-3a1 1 0 0 1 1-1h3a1 1 0 0 1 0 2h-.644a4.015 4.015 0 0 0 5.043.201 1 1 0 0 1 1.4.199"/>
</svg>
