<svg xmlns="http://www.w3.org/2000/svg" fill="none" viewBox="0 0 32 32">
  <path fill="#000" d="M27.953 28.302a1 1 0 0 1-1.257.65L16 25.55 5.304 28.953a1 1 0 0 1-.607-1.907l8-2.546-8-2.547a1.001 1.001 0 0 1-.17-1.857 1 1 0 0 1 .777-.049L16 23.45l10.696-3.402a1.001 1.001 0 0 1 1.213 1.415 1 1 0 0 1-.607.49l-8 2.547 8 2.546a1 1 0 0 1 .65 1.256zM8.5 13.5c0-2.512 1.221-5.109 3.53-7.5a19.5 19.5 0 0 1 3.446-2.845 1 1 0 0 1 1.048 0C16.809 3.324 23.5 7.51 23.5 13.5a7.5 7.5 0 0 1-15 0M16 19a2 2 0 0 0 2-2c0-1.696-1.25-3.057-2-3.724-.75.667-2 2.028-2 3.724a2 2 0 0 0 2 2m-5.5-5.5c0 1.407.54 2.76 1.511 3.78 0-.093-.011-.186-.011-.28 0-3.5 3.305-5.739 3.445-5.832a1 1 0 0 1 1.11 0C16.695 11.26 20 13.5 20 17c0 .094 0 .188-.011.28A5.48 5.48 0 0 0 21.5 13.5c0-4-4.032-7.25-5.5-8.293C14.534 6.25 10.5 9.5 10.5 13.5"/>
</svg>
