<svg xmlns="http://www.w3.org/2000/svg" fill="none" viewBox="0 0 32 32">
  <path fill="#000" d="M29 10h-4.07a8 8 0 0 1-1.274 9.658c-1.065 1.086-2.451 2.115-3.981 3.063a.5.5 0 0 1-.614-.073l-4.355-4.355a1 1 0 0 0-1.436.022 1.03 1.03 0 0 0 .051 1.423l3.735 3.735a.5.5 0 0 1-.125.798c-4.964 2.578-10.306 4.297-11.084 4.54a2 2 0 0 1-2.657-2.658c.341-1.09 3.625-11.284 8.107-16.67a.5.5 0 0 1 .738-.032l5.256 5.258a1 1 0 0 0 1.464-.054 1.024 1.024 0 0 0-.075-1.387l-5.17-5.17a.5.5 0 0 1 .079-.773 8 8 0 0 1 8.41-.25V3a1 1 0 0 1 1.067-1A1.02 1.02 0 0 1 24 3.035v3.551l3.293-3.293a1 1 0 1 1 1.415 1.415L25.413 8h3.551A1.023 1.023 0 0 1 30 8.934 1 1 0 0 1 29 10"/>
</svg>
