<svg xmlns="http://www.w3.org/2000/svg" fill="none" viewBox="0 0 32 32">
  <path fill="#000" d="M25 3h-2a2 2 0 0 0-2 2v2h-2V5a2 2 0 0 0-2-2h-2a2 2 0 0 0-2 2v2h-2V5a2 2 0 0 0-2-2H7a2 2 0 0 0-2 2v5.586A1.98 1.98 0 0 0 5.586 12L7 13.414V27a2 2 0 0 0 2 2h14a2 2 0 0 0 2-2V13.414L26.414 12A1.98 1.98 0 0 0 27 10.586V5a2 2 0 0 0-2-2m-7 24h-4v-8a2 2 0 0 1 4 0zm7-16.414L23.586 12A1.98 1.98 0 0 0 23 13.414V27h-3v-8a4 4 0 1 0-8 0v8H9V13.414A1.98 1.98 0 0 0 8.414 12L7 10.586V5h2v2a2 2 0 0 0 2 2h2a2 2 0 0 0 2-2V5h2v2a2 2 0 0 0 2 2h2a2 2 0 0 0 2-2V5h2z"/>
</svg>
