<svg xmlns="http://www.w3.org/2000/svg" fill="none" viewBox="0 0 32 32">
  <path fill="#000" d="M12 17.5a1.5 1.5 0 1 1-3 0 1.5 1.5 0 0 1 3 0m9.5-1.5a1.5 1.5 0 1 0 0 3 1.5 1.5 0 0 0 0-3M29 6v11c0 6.616-5.831 12-13 12S3 23.616 3 17V6a2 2 0 0 1 3.461-1.362l2.164 2.487a13.9 13.9 0 0 1 14.762 0l2.152-2.487A2 2 0 0 1 29 6m-2 0-2.695 3.1a1 1 0 0 1-1.351.15A11 11 0 0 0 21 8.094V11a1 1 0 0 1-2 0V7.381a12 12 0 0 0-2-.34v3.96a1 1 0 0 1-2 0V7.04a12.3 12.3 0 0 0-2 .34V11a1 1 0 0 1-2 0V8.093A11 11 0 0 0 9.046 9.25a1 1 0 0 1-1.351-.146L5 6v11c0 5.208 4.401 9.5 10 9.959v-2.545l-1.707-1.708a1 1 0 0 1 0-1.414 1 1 0 0 1 1.415 0L16 22.586l1.293-1.292a1 1 0 0 1 1.414-.001 1 1 0 0 1 0 1.414L17 24.414v2.545c5.599-.461 10-4.75 10-9.959z"/>
</svg>
