<svg xmlns="http://www.w3.org/2000/svg" fill="none" viewBox="0 0 32 32">
  <path fill="#000" d="M27.854 4.192a2 2 0 0 0-2.315.445L23.38 7.125a13.91 13.91 0 0 0-14.756 0L6.461 4.637a2 2 0 0 0-2.315-.445A2.05 2.05 0 0 0 3 6.057V17c0 6.125 5.008 11.204 11.445 11.915a.5.5 0 0 0 .555-.5v-4l-1.678-1.679a1.027 1.027 0 0 1-.05-1.421 1 1 0 0 1 1.435-.023L16 22.585l1.293-1.294a1 1 0 0 1 1.436.023 1.03 1.03 0 0 1-.052 1.42L17 24.415v4a.5.5 0 0 0 .555.5C23.993 28.202 29 23.124 29 17V6.057a2.05 2.05 0 0 0-1.146-1.865M10.5 19a1.5 1.5 0 1 1 0-3 1.5 1.5 0 0 1 0 3m2.5-8a1 1 0 1 1-2 0V8.625a1 1 0 0 1 2 0zm4 0a1 1 0 1 1-2 0V8a1 1 0 0 1 2 0zm2 0V8.625a1 1 0 0 1 2 0V11a1 1 0 1 1-2 0m2.5 8a1.5 1.5 0 1 1 0-3 1.5 1.5 0 0 1 0 3"/>
</svg>
