<svg xmlns="http://www.w3.org/2000/svg" fill="none" viewBox="0 0 32 32">
  <path fill="#000" d="M18.401 21.646a.503.503 0 0 1 0 .708l-.526.52a3 3 0 0 0-.582 3.415.5.5 0 0 1-.455.707H4a2 2 0 0 1-1.882-1.324 2.05 2.05 0 0 1 .508-2.125l19.96-19.96a2 2 0 0 1 2.265-.396 2.05 2.05 0 0 1 1.15 1.866v10.48a.5.5 0 0 1-.433.5 3 3 0 0 0-1.693.838l-.525.525a.5.5 0 0 1-.707 0l-.518-.525a3 3 0 0 0-4.202-.041c-1.212 1.166-1.183 3.142 0 4.33zm6.013.354 2.294-2.294a1 1 0 1 0-1.415-1.414L23 20.585l-2.294-2.293a1 1 0 0 0-1.413 1.414L21.585 22l-2.294 2.292a1 1 0 1 0 1.414 1.415L23 23.414l2.294 2.293a1 1 0 0 0 1.415-1.415z"/>
</svg>
