<svg xmlns="http://www.w3.org/2000/svg" fill="none" viewBox="0 0 32 32">
  <path fill="#000" d="M26.707 24.293a1 1 0 0 1-1.415 1.415L23 23.413l-2.293 2.293a1 1 0 1 1-1.415-1.415L21.587 22l-2.293-2.293a1 1 0 1 1 1.415-1.415L23 20.587l2.293-2.293a1 1 0 1 1 1.415 1.415L24.413 22l2.293 2.293zM20 16a1 1 0 0 0 1-1V9a1 1 0 0 0-2 0v6a1 1 0 0 0 1 1m5 0a1 1 0 0 0 1-1V4a1 1 0 0 0-2 0v11a1 1 0 0 0 1 1m-10-3a1 1 0 0 0-1 1v11a1 1 0 0 0 2 0V14a1 1 0 0 0-1-1m-5 5a1 1 0 0 0-1 1v6a1 1 0 1 0 2 0v-6a1 1 0 0 0-1-1m-5 5a1 1 0 0 0-1 1v1a1 1 0 1 0 2 0v-1a1 1 0 0 0-1-1"/>
</svg>
