<svg xmlns="http://www.w3.org/2000/svg" fill="none" viewBox="0 0 32 32">
  <path fill="#000" d="M31 16a7 7 0 1 0-12 4.892V28a1 1 0 0 0 1.448.895L24 27.118l3.552 1.777A1 1 0 0 0 29 28v-7.108A6.98 6.98 0 0 0 31 16m-7-5a5 5 0 1 1 0 10 5 5 0 0 1 0-10m.448 14.105a1 1 0 0 0-.896 0L21 26.382v-4.058a7 7 0 0 0 6 0v4.058zM17 24a1 1 0 0 1-1 1H5a2 2 0 0 1-2-2V7a2 2 0 0 1 2-2h22a2 2 0 0 1 2 2 1 1 0 0 1-2 0H5v16h11a1 1 0 0 1 1 1m-2-7a1 1 0 0 1-1 1H9a1 1 0 0 1 0-2h5a1 1 0 0 1 1 1m0-4a1 1 0 0 1-1 1H9a1 1 0 0 1 0-2h5a1 1 0 0 1 1 1"/>
</svg>
