<svg xmlns="http://www.w3.org/2000/svg" fill="none" viewBox="0 0 32 32">
  <path fill="#000" d="M23 2.5a1.5 1.5 0 1 1 3 0 1.5 1.5 0 0 1-3 0m-2.485 6.654c.907 5.531.544 9.47-1.082 11.707A5 5 0 0 1 16 22.927V29h2a1 1 0 0 1 0 2h-6a1 1 0 0 1 0-2h2v-6.073a5 5 0 0 1-3.432-2.066c-1.626-2.237-1.99-6.176-1.082-11.707a56 56 0 0 1 1.776-7.463A1 1 0 0 1 12.214 1h5.574a1 1 0 0 1 .95.691 56 56 0 0 1 1.777 7.463M11.725 8h6.55a52 52 0 0 0-1.223-5H12.95a54 54 0 0 0-1.224 5zm6.9 2h-7.25c-.561 3.75-.643 7.692.806 9.686C12.83 20.57 13.75 21 15 21s2.172-.43 2.815-1.314c1.447-1.994 1.367-5.936.81-9.686M27.5 5a1.5 1.5 0 1 0 0 3 1.5 1.5 0 0 0 0-3m-3 6a1.5 1.5 0 1 0 0 3 1.5 1.5 0 0 0 0-3"/>
</svg>
