<svg xmlns="http://www.w3.org/2000/svg" fill="none" viewBox="0 0 32 32">
  <path fill="#000" d="M18.739 1.691A1 1 0 0 0 17.788 1h-5.574a1 1 0 0 0-.952.691 56 56 0 0 0-1.776 7.463c-.907 5.531-.544 9.47 1.082 11.707A5 5 0 0 0 14 22.927V29h-2a1 1 0 0 0 0 2h6a1 1 0 0 0 0-2h-2v-6.073a5 5 0 0 0 3.433-2.066c1.625-2.237 1.99-6.176 1.082-11.707a56 56 0 0 0-1.776-7.463M11.725 8a52 52 0 0 1 1.224-5h4.103a53 53 0 0 1 1.226 5zM29 6.5a1.5 1.5 0 1 1-3 0 1.5 1.5 0 0 1 3 0m-6-4a1.5 1.5 0 1 1 3 0 1.5 1.5 0 0 1-3 0m3 10a1.5 1.5 0 1 1-3 0 1.5 1.5 0 0 1 3 0"/>
</svg>
