<svg xmlns="http://www.w3.org/2000/svg" fill="none" viewBox="0 0 32 32">
  <path fill="#000" d="m30.125 8.707-2.418-2.415a1 1 0 1 0-1.415 1.415l2.415 2.418a1 1 0 0 1 .293.704V21a1 1 0 0 1-2 0v-5a3 3 0 0 0-3-3h-2V7a3 3 0 0 0-3-3H9a3 3 0 0 0-3 3v19H4a1 1 0 0 0 0 2h20a1 1 0 0 0 0-2h-2V15h2a1 1 0 0 1 1 1v5a3 3 0 0 0 6 0V10.829a2.98 2.98 0 0 0-.875-2.122m-13.196 7.668-2 5a1.002 1.002 0 0 1-1.858-.75L14.523 17H12a1 1 0 0 1-.929-1.375l2-5a1.003 1.003 0 0 1 1.858.75L13.477 15H16a1 1 0 0 1 .929 1.375"/>
</svg>
