<svg xmlns="http://www.w3.org/2000/svg" fill="none" viewBox="0 0 32 32">
  <path fill="#000" d="M16.828 15.439a1 1 0 0 1 .1.932l-2 5a1.001 1.001 0 0 1-1.857-.746L14.523 17H12a1 1 0 0 1-.929-1.375l2-5a1.003 1.003 0 0 1 1.858.75L13.477 15H16a1 1 0 0 1 .828.439M31 10.829V21a3 3 0 0 1-6 0v-5a1 1 0 0 0-1-1h-2v11h2a1 1 0 0 1 0 2H4a1 1 0 0 1 0-2h2V7a3 3 0 0 1 3-3h10a3 3 0 0 1 3 3v6h2a3 3 0 0 1 3 3v5a1 1 0 0 0 2 0V10.829a1 1 0 0 0-.293-.704l-2.415-2.418a1 1 0 0 1 1.415-1.414l2.418 2.414A2.98 2.98 0 0 1 31 10.83zM20 26V7a1 1 0 0 0-1-1H9a1 1 0 0 0-1 1v19z"/>
</svg>
