<svg xmlns="http://www.w3.org/2000/svg" fill="none" viewBox="0 0 32 32">
  <path fill="#000" d="M17.174 3.008A2 2 0 0 0 15 5v5.084a1.98 1.98 0 0 0 1.656 1.97A4 4 0 1 1 12 16.21c-.051-1.027.159-1.875.625-2.532a1.98 1.98 0 0 0-.211-2.56L8.96 7.586a2 2 0 0 0-2.953.138 12.95 12.95 0 0 0 .867 17.533A12.9 12.9 0 0 0 16 29h.186A13.037 13.037 0 0 0 29 16.185c.094-6.787-5.101-12.575-11.826-13.177M7.54 8.993l3.451 3.523v.008A5.4 5.4 0 0 0 10.055 15h-5.01A10.9 10.9 0 0 1 7.54 8.993M5.046 17h5.038A6 6 0 0 0 15 21.918v5.037A11 11 0 0 1 5.046 17m18.721 6.768A10.93 10.93 0 0 1 17 26.95v-5.033a5.94 5.94 0 0 0 3.091-1.53A6 6 0 0 0 17 10.084V5c5.69.51 10.084 5.41 10 11.156a10.93 10.93 0 0 1-3.233 7.612"/>
</svg>
