<svg xmlns="http://www.w3.org/2000/svg" fill="none" viewBox="0 0 32 32">
  <path fill="#000" d="M15 24.942v3.468a.5.5 0 0 1-.557.5 13.03 13.03 0 0 1-11.35-11.35.5.5 0 0 1 .5-.558h3.465A9.014 9.014 0 0 0 15 24.942M22.928 17H17v5.927A7.01 7.01 0 0 0 22.928 17M17 9.072V15h5.928A7.01 7.01 0 0 0 17 9.072M28.41 17h-3.467A9.014 9.014 0 0 1 17 24.942v3.468a.5.5 0 0 0 .558.5 13.03 13.03 0 0 0 11.35-11.35.5.5 0 0 0-.498-.56m-3.467-2h3.467a.5.5 0 0 0 .5-.558 13.03 13.03 0 0 0-11.35-11.35.5.5 0 0 0-.557.5v3.465A9.014 9.014 0 0 1 24.943 15m-10.5-11.908a13.03 13.03 0 0 0-11.35 11.35.5.5 0 0 0 .5.558h3.465A9.014 9.014 0 0 1 15 7.057V3.59a.5.5 0 0 0-.557-.498M9.073 15H15V9.072A7.01 7.01 0 0 0 9.073 15M15 22.927V17H9.073A7.01 7.01 0 0 0 15 22.927"/>
</svg>
