<svg xmlns="http://www.w3.org/2000/svg" fill="none" viewBox="0 0 32 32">
  <path fill="#000" d="M16 3a13 13 0 1 0 13 13A13.013 13.013 0 0 0 16 3m10.954 12h-3.019A8.01 8.01 0 0 0 17 8.065V5.046A11.016 11.016 0 0 1 26.954 15M15 15h-4.915A6.01 6.01 0 0 1 15 10.085zm0 2v4.915A6.01 6.01 0 0 1 10.085 17zm2 0h4.915A6.01 6.01 0 0 1 17 21.915zm0-2v-4.915A6.01 6.01 0 0 1 21.915 15zm-2-9.954v3.019A8.01 8.01 0 0 0 8.065 15H5.046A11.016 11.016 0 0 1 15 5.046M5.046 17h3.019A8.01 8.01 0 0 0 15 23.935v3.019A11.02 11.02 0 0 1 5.046 17M17 26.954v-3.019A8.01 8.01 0 0 0 23.935 17h3.019A11.02 11.02 0 0 1 17 26.954"/>
</svg>
