<svg xmlns="http://www.w3.org/2000/svg" fill="none" viewBox="0 0 32 32">
  <path fill="#000" fill-rule="evenodd" d="M5 5h22a2 2 0 0 1 2 2v18a2 2 0 0 1-2 2H5a2 2 0 0 1-2-2V7a2 2 0 0 1 2-2m20.962 4.275a1 1 0 1 0-1.924-.55l-2.407 8.427-2.03-3.03c-.666-.997-2.175-.846-2.632.263l-2.731 6.627-2.359-3.082a1.5 1.5 0 0 0-2.214-.185L6.318 20.87a1 1 0 1 0 1.364 1.462l2.944-2.747 2.552 3.334a1.5 1.5 0 0 0 2.578-.34l2.705-6.566 2.108 3.148c.71 1.062 2.338.806 2.689-.422l2.704-9.463z" clip-rule="evenodd"/>
</svg>
