<svg xmlns="http://www.w3.org/2000/svg" fill="none" viewBox="0 0 32 32">
  <path fill="#000" d="M3.094 14.443a12.8 12.8 0 0 1 2.914-6.72 2 2 0 0 1 2.953-.138l3.46 3.533a1.984 1.984 0 0 1 .21 2.56 3.2 3.2 0 0 0-.462.968.5.5 0 0 1-.478.354h-8.1a.5.5 0 0 1-.497-.557m14.08-11.435A2 2 0 0 0 15 5v5.084a1.98 1.98 0 0 0 1.656 1.97 4 4 0 0 1 .677 7.72.51.51 0 0 0-.333.476v8.154a.5.5 0 0 0 .558.5A13.04 13.04 0 0 0 29 16.185C29.094 9.4 23.9 3.61 17.174 3.008M14.656 19.77a4 4 0 0 1-2.425-2.427.51.51 0 0 0-.475-.343H3.59a.5.5 0 0 0-.5.556A13.01 13.01 0 0 0 14.443 28.91a.5.5 0 0 0 .556-.5v-8.16a.51.51 0 0 0-.343-.48"/>
</svg>
