<svg xmlns="http://www.w3.org/2000/svg" fill="none" viewBox="0 0 32 32">
  <path fill="#000" d="M28.974 23.416a10 10 0 0 0-7.778-14.342 10.001 10.001 0 0 0-18.61.585 10 10 0 0 0 .44 7.757L2.07 20.77a1.75 1.75 0 0 0 2.16 2.16l3.353-.957c1.012.497 2.1.819 3.219.953a10 10 0 0 0 13.613 5.047l3.353.957a1.75 1.75 0 0 0 2.162-2.162l-.957-3.353zM7.69 19.904q-.14 0-.275.037l-3.3.944.943-3.301a1 1 0 0 0-.085-.75A7.994 7.994 0 1 1 8.17 20.03a1 1 0 0 0-.479-.126zm19.25 3.68.944 3.301-3.301-.944a1 1 0 0 0-.75.085 8.007 8.007 0 0 1-10.79-3.08 9.99 9.99 0 0 0 8.794-11.732 8 8 0 0 1 5.188 11.616 1 1 0 0 0-.085.754"/>
</svg>
