<svg xmlns="http://www.w3.org/2000/svg" fill="none" viewBox="0 0 32 32">
  <path fill="#000" d="M16 3a13 13 0 1 0 13 13A13.013 13.013 0 0 0 16 3m6.824 5.625a1 1 0 0 1 1.411.088 11 11 0 0 1 2.2 3.808 1 1 0 0 1-1.897.635 9 9 0 0 0-1.8-3.125 1 1 0 0 1 .086-1.406M9.176 23.381a1 1 0 0 1-1.411-.087 11 11 0 0 1-2.2-3.809 1 1 0 0 1 1.898-.635 9 9 0 0 0 1.8 3.119 1 1 0 0 1-.087 1.412m.087-13.35a9 9 0 0 0-1.8 3.125 1.001 1.001 0 0 1-1.898-.635 11 11 0 0 1 2.2-3.809 1 1 0 1 1 1.5 1.325zm8.936 16.75a11 11 0 0 1-4.398 0 1 1 0 0 1 .398-1.96 9 9 0 0 0 3.602 0 1 1 0 0 1 .398 1.96m.781-20.375a1 1 0 0 1-1.18.775 9 9 0 0 0-3.603 0 1 1 0 1 1-.397-1.96 11 11 0 0 1 4.398 0A1 1 0 0 1 18.98 6.4zm7.455 13.085a11 11 0 0 1-2.2 3.809 1 1 0 1 1-1.5-1.325 9 9 0 0 0 1.8-3.119 1 1 0 1 1 1.898.635z"/>
</svg>
