<svg xmlns="http://www.w3.org/2000/svg" fill="none" viewBox="0 0 32 32">
  <path fill="#000" d="M11 24.5a1.5 1.5 0 1 1-3 0 1.5 1.5 0 0 1 3 0m3.5.5a1.5 1.5 0 1 0 0 3 1.5 1.5 0 0 0 0-3m6-2a1.5 1.5 0 1 0 0 3 1.5 1.5 0 0 0 0-3m-12 5a1.5 1.5 0 1 0 0 3 1.5 1.5 0 0 0 0-3m11 0a1.5 1.5 0 1 0 0 3 1.5 1.5 0 0 0 0-3m9.484-17.056a9.5 9.5 0 0 0-18.973.091A1.02 1.02 0 0 1 9 12h-.075A1.02 1.02 0 0 1 8 10.924a11.6 11.6 0 0 1 .291-2.064.5.5 0 0 0-.625-.597A6.51 6.51 0 0 0 3 14.545C3.025 18.134 6.015 21 9.605 21H19.5a9.51 9.51 0 0 0 9.484-10.056"/>
</svg>
