<svg xmlns="http://www.w3.org/2000/svg" fill="none" viewBox="0 0 32 32">
  <path fill="#000" d="M19.5 9a9.5 9.5 0 0 0-2.532.341 7 7 0 0 0-1.177-1.442l1.19-1.697a1 1 0 0 0-1.64-1.147L14.153 6.75A7 7 0 0 0 11 6h-.217l-.362-2.036a1 1 0 1 0-1.968.346l.36 2.042a7 7 0 0 0-2.91 1.857L4.202 7.017a1 1 0 1 0-1.146 1.639l1.695 1.19A6.94 6.94 0 0 0 4 13v.215l-2.036.36a1 1 0 1 0 .346 1.97l2.04-.36a7 7 0 0 0 .733 1.552A6.5 6.5 0 0 0 9.5 28h10a9.5 9.5 0 1 0 0-19M6 13a5 5 0 0 1 9.068-2.905 9.53 9.53 0 0 0-4.453 5 6.5 6.5 0 0 0-3.875.521A5 5 0 0 1 6 13m13.5 13h-10a4.5 4.5 0 1 1 .598-8.962 9 9 0 0 0-.097.904 1.001 1.001 0 1 0 2 .115c.028-.498.107-.993.235-1.476 0-.02.012-.04.015-.06A7.507 7.507 0 1 1 19.5 26"/>
</svg>
