<svg xmlns="http://www.w3.org/2000/svg" fill="none" viewBox="0 0 32 32">
  <path fill="#000" d="M19.5 9a9.5 9.5 0 0 0-2.532.341A7 7 0 0 0 15.79 7.9l1.19-1.696a1 1 0 0 0-1.64-1.148L14.153 6.75A7 7 0 0 0 11 6h-.217l-.362-2.036a1 1 0 1 0-1.968.346l.36 2.043a7 7 0 0 0-2.91 1.856L4.202 7.018a1 1 0 1 0-1.146 1.638l1.695 1.19A6.94 6.94 0 0 0 4 13v.215l-2.036.36a1 1 0 1 0 .346 1.97l2.04-.36a7 7 0 0 0 .733 1.553A6.5 6.5 0 0 0 9.5 28h10a9.5 9.5 0 1 0 0-19m-8.885 6.095a6.5 6.5 0 0 0-3.875.521 5 5 0 0 1 8.328-5.521 9.53 9.53 0 0 0-4.453 5"/>
</svg>
