<svg xmlns="http://www.w3.org/2000/svg" fill="none" viewBox="0 0 32 32">
  <path fill="#000" d="M28.736 9.031a2 2 0 0 0-.772-.757L16.96 2.25a1.99 1.99 0 0 0-1.92 0l-11 6.022c-.322.177-.59.439-.772.758a2 2 0 0 0-.268.992v11.955a2 2 0 0 0 1.04 1.75l11 6.022a1.99 1.99 0 0 0 1.92 0l11-6.022a2 2 0 0 0 1.04-1.75V10.022a2 2 0 0 0-.264-.99zM15 27.451l-4-2.19V19a1 1 0 0 0-.52-.875l-5.48-3v-4L15 16.6zm1-12.591L6.082 9.43l4.31-2.359 5.126 2.806a1 1 0 0 0 .96 0l5.124-2.806 4.31 2.359zm11 .262-5.48 3a1 1 0 0 0-.52.875v6.262l-4 2.19V16.592l10-5.475z"/>
</svg>
