<svg xmlns="http://www.w3.org/2000/svg" fill="none" viewBox="0 0 32 32">
  <path fill="#000" d="m27.96 8.269-11-6.02a1.99 1.99 0 0 0-1.92 0l-11 6.023A2 2 0 0 0 3 10.022v11.955a2 2 0 0 0 1.04 1.75l11 6.022a1.99 1.99 0 0 0 1.92 0l11-6.022a2 2 0 0 0 1.04-1.75V10.022a2 2 0 0 0-1.04-1.753M21 18.999v6.262l-4 2.19V16.592l10-5.475v4l-5.48 3A1 1 0 0 0 21 19zm-10.52-.874-5.48-3v-4L15 16.6v10.859l-4-2.198V19a1 1 0 0 0-.52-.875m-.088-11.051 5.126 2.806a1 1 0 0 0 .96 0l5.124-2.806 4.31 2.358L16 14.86 6.082 9.43zM16 4l3.525 1.93L16 7.86l-3.525-1.93zM5 17.402l4 2.19v4.574l-4-2.189zm18 6.764v-4.574l4-2.19v4.575z"/>
</svg>
