<svg xmlns="http://www.w3.org/2000/svg" fill="none" viewBox="0 0 32 32">
  <path fill="#000" d="m29.474 11.125-13-7a1 1 0 0 0-.948 0l-13 7A1 1 0 0 0 2 12v8a1 1 0 0 0 .526.881l13 7a1 1 0 0 0 .948 0l13-7a1 1 0 0 0 .526-.88v-8a1 1 0 0 0-.526-.876M28 18.326 23.681 16 28 13.674zm-6.429-3.462L17 12.403v-5.73L26.891 12zm-5.571 3L12.537 16 16 14.136 19.462 16zm-1-11.19v5.729l-4.571 2.461L5.109 12zm-11 7L8.319 16 4 18.326zm6.429 3.462L15 19.598v5.729L5.109 20zM17 25.326v-5.728l4.571-2.462L26.891 20z"/>
</svg>
