<svg xmlns="http://www.w3.org/2000/svg" fill="none" viewBox="0 0 32 32">
  <path fill="#000" d="M10 7V3a1 1 0 0 1 2 0v4a1 1 0 0 1-2 0m5 1a1 1 0 0 0 1-1V3a1 1 0 0 0-2 0v4a1 1 0 0 0 1 1m4 0a1 1 0 0 0 1-1V3a1 1 0 0 0-2 0v4a1 1 0 0 0 1 1m12 7v1a5 5 0 0 1-4.689 4.989A12.1 12.1 0 0 1 22.936 26H26a1 1 0 0 1 0 2H4a1 1 0 0 1 0-2h3.067A12.04 12.04 0 0 1 3 17v-6a1 1 0 0 1 1-1h22a5 5 0 0 1 5 5m-6-3H5v5a10.03 10.03 0 0 0 5.64 9h8.72A10.03 10.03 0 0 0 25 17zm4 3a3 3 0 0 0-2-2.828V17q0 .944-.15 1.875A3 3 0 0 0 29 16z"/>
</svg>
