<svg xmlns="http://www.w3.org/2000/svg" fill="none" viewBox="0 0 32 32">
  <path fill="#000" d="M25.948 7.98C23.356 6.685 19.916 6 16 6s-7.356.685-9.947 1.98C3.46 9.275 2 11.097 2 13v6c0 1.902 1.478 3.731 4.053 5.02C8.627 25.309 12.082 26 16 26c3.916 0 7.356-.685 9.948-1.98C28.538 22.725 30 20.903 30 19v-6c0-1.902-1.477-3.731-4.052-5.02M16 8c7.83 0 12 2.904 12 5s-4.17 5-12 5-12-2.904-12-5 4.17-5 12-5m-1 11.983v4c-2.375-.078-4.375-.428-6-.937v-3.915a25.4 25.4 0 0 0 6 .852m2 0a25.4 25.4 0 0 0 6-.852v3.914c-1.625.509-3.625.859-6 .936zM4 19v-2.309c.63.523 1.318.969 2.053 1.329.303.151.625.294.947.429v3.801c-1.979-.98-3-2.214-3-3.25m21 3.25v-3.801q.49-.203.948-.429c.734-.36 1.423-.806 2.052-1.329V19c0 1.036-1.021 2.27-3 3.25"/>
</svg>
