<svg xmlns="http://www.w3.org/2000/svg" fill="none" viewBox="0 0 32 32">
  <path fill="#000" fill-rule="evenodd" d="M12 29c-2.24 0-4.305-1.425-5.814-4.011C4.776 22.573 4 19.375 4 16s.776-6.572 2.186-8.989C7.695 4.425 9.76 3 12 3h6.014c2.208.006 4.246 1.397 5.746 3.92l.053.09q.381.655.703 1.388c.083.19.034.41-.116.553q-.151.144-.228.221l-4 4a.24.24 0 0 1-.342 0 4.003 4.003 0 0 0-5.658 0 4 4 0 0 0 0 5.658l3 3a4 4 0 0 0 5.657 0l2.459-2.459c.169-.169.452-.027.41.209-.279 1.62-.745 3.118-1.363 4.42q-.245.513-.521.989l-.013.02C22.294 27.584 20.234 29 18 29zm-1.614-8.964a17.6 17.6 0 0 0 .836 2.93l.013.034H7.413c-.766-1.672-1.27-3.75-1.388-6h3.998l.016.307q.075 1.378.347 2.73zm-.332-5.575a22 22 0 0 0-.031.539H6.026c.117-2.25.622-4.328 1.386-6h3.823a18 18 0 0 0-.912 3.3q-.195 1.07-.269 2.161m3.553-9.37A10.4 10.4 0 0 0 12.193 7H8.6c.975-1.251 2.15-2.001 3.4-2.001h1.693l-.086.09zM12 27h1.689a10.4 10.4 0 0 1-1.5-2H8.598c.977 1.25 2.152 2 3.402 2" clip-rule="evenodd"/>
  <path fill="#000" d="M27.384 11.076a1 1 0 0 1 .324 1.632l-7 7a1 1 0 0 1-1.415 0l-3-3a1 1 0 0 1 0-1.415 1 1 0 0 1 1.415 0l2.293 2.294 6.292-6.294a1 1 0 0 1 1.09-.217z"/>
</svg>
