<svg xmlns="http://www.w3.org/2000/svg" fill="none" viewBox="0 0 32 32">
  <path fill="#000" fill-rule="evenodd" d="m27.707 26.293-22-22a1 1 0 0 0-1.414 1.414l2.106 2.106q-.176.081-.346.167C3.46 9.275 2 11.097 2 13v6c0 1.902 1.478 3.731 4.053 5.02C8.627 25.309 12.082 26 16 26c2.81 0 5.374-.353 7.556-1.03l2.737 2.737c.195.195.45.293.706.293h.002a1 1 0 0 0 .706-1.707m-5.778-2.95-3.437-3.436q-.744.06-1.492.076v3.998c1.877-.061 3.52-.293 4.929-.638m-5.349-5.348-8.66-8.66C5.339 10.366 4 11.813 4 13c0 2.096 4.17 5 12 5q.295 0 .58-.005M15 19.983v4c-2.375-.078-4.375-.428-6-.937v-3.915a25.4 25.4 0 0 0 6 .852M4 19v-2.309c.63.523 1.318.969 2.053 1.329.303.151.625.294.947.429v3.801c-1.979-.98-3-2.214-3-3.25" clip-rule="evenodd"/>
  <path fill="#000" d="M30 19.004c-.001 1.415-.775 2.633-1.89 3.59a1 1 0 1 1-1.303-1.517C27.658 20.347 28 19.635 28 19v-2.312c-1.065.882-2.493 1.604-4.131 2.145a1 1 0 0 1-.627-1.9c1.567-.517 2.795-1.179 3.612-1.896S28 13.623 28 13c0-1.032-.948-2.283-3.227-3.335C22.58 8.653 19.48 8 16 8a27 27 0 0 0-3.031.17 1 1 0 1 1-.228-1.987A29 29 0 0 1 16 6c3.7 0 7.1.69 9.611 1.85C28.038 8.97 30 10.717 30 13z"/>
</svg>
