<svg xmlns="http://www.w3.org/2000/svg" fill="none" viewBox="0 0 32 32">
  <path fill="#000" fill-rule="evenodd" d="M12 3C9.76 3 7.695 4.425 6.186 7.011 4.776 9.428 4 12.625 4 16s.776 6.573 2.186 8.989C7.695 27.575 9.76 29 12 29h6c2.176 0 4.187-1.345 5.683-3.793A13 13 0 0 0 24.335 24c.537-1.13.956-2.402 1.24-3.764a1 1 0 1 0-1.959-.408c-.336 1.617-.874 3.035-1.54 4.172h-.006a8.6 8.6 0 0 1-1.04 1.441C20.074 26.49 19.03 27 18 27c-.907 0-1.834-.403-2.691-1.213C13.365 23.943 12 20.201 12 16s1.365-7.943 3.309-9.787C16.166 5.403 17.093 5 18 5c.966 0 1.96.467 2.858 1.377q.28.286.54.623h.005c.58.743 1.106 1.69 1.539 2.832a1 1 0 1 0 1.87-.708A14 14 0 0 0 23.805 7h.002C22.3 4.42 20.237 3 18 3zm1.607 2.09.086-.09H12c-1.25 0-2.425.75-3.399 2h3.591a10.4 10.4 0 0 1 1.415-1.91M11.235 9H7.413c-.766 1.672-1.27 3.75-1.387 6h3.997q.012-.27.031-.539a19 19 0 0 1 .268-2.162c.21-1.175.52-2.284.913-3.299m-1.212 8H6.025c.117 2.25.622 4.328 1.387 6h3.823l-.013-.034a17.6 17.6 0 0 1-.836-2.93A19 19 0 0 1 10.023 17m3.666 10H12c-1.25 0-2.425-.75-3.402-2h3.59c.418.725.922 1.396 1.5 2z" clip-rule="evenodd"/>
  <path fill="#000" d="M27.708 11.293a1 1 0 0 0-1.415 0l-6.292 6.294-2.293-2.294a1.003 1.003 0 0 0-1.415 0 1 1 0 0 0 0 1.415l3 3a1 1 0 0 0 1.415 0l7-7a1 1 0 0 0 0-1.415"/>
</svg>
