<svg xmlns="http://www.w3.org/2000/svg" fill="none" viewBox="0 0 32 32">
  <path fill="#000" d="M24.814 7.011C23.305 4.425 21.24 3 19 3h-6c-2.24 0-4.305 1.425-5.814 4.011C5.776 9.428 5 12.625 5 16s.776 6.573 2.186 8.989C8.695 27.575 10.76 29 13 29h6c2.24 0 4.305-1.425 5.814-4.011C26.224 22.573 27 19.375 27 16s-.776-6.572-2.186-8.989m.16 7.989h-4a19.1 19.1 0 0 0-1.21-6h3.823c.765 1.672 1.27 3.75 1.387 6m-2.575-8h-3.591a10.4 10.4 0 0 0-1.5-2H19c1.25 0 2.425.75 3.399 2M19 27h-1.689a10.4 10.4 0 0 0 1.5-2h3.591c-.977 1.25-2.152 2-3.402 2m4.587-4h-3.822a19.1 19.1 0 0 0 1.21-6h4c-.117 2.25-.623 4.328-1.388 6"/>
</svg>
