<svg xmlns="http://www.w3.org/2000/svg" fill="none" viewBox="0 0 32 32">
  <path fill="#000" d="M12.5 10.797V12.5h-1.703A1.78 1.78 0 0 1 9 10.875 1.75 1.75 0 0 1 10.875 9a1.78 1.78 0 0 1 1.625 1.797M9 21.125A1.75 1.75 0 0 0 10.875 23a1.78 1.78 0 0 0 1.625-1.793V19.5h-1.703A1.78 1.78 0 0 0 9 21.125m14-10.25A1.75 1.75 0 0 0 21.125 9a1.78 1.78 0 0 0-1.625 1.793V12.5h1.703A1.78 1.78 0 0 0 23 10.875M28 8v16a4 4 0 0 1-4 4H8a4 4 0 0 1-4-4V8a4 4 0 0 1 4-4h16a4 4 0 0 1 4 4m-8.5 9.5v-3h1.672c2.05 0 3.777-1.61 3.827-3.656A3.75 3.75 0 0 0 21.156 7c-2.046.051-3.656 1.779-3.656 3.828V12.5h-3v-1.672c0-2.05-1.61-3.777-3.656-3.828A3.75 3.75 0 0 0 7 10.844c.051 2.046 1.779 3.656 3.828 3.656H12.5v3h-1.672c-2.05 0-3.777 1.61-3.828 3.656A3.75 3.75 0 0 0 10.844 25c2.046-.05 3.656-1.777 3.656-3.826V19.5h3v1.672c0 2.05 1.61 3.777 3.656 3.827A3.75 3.75 0 0 0 25 21.156c-.05-2.046-1.777-3.656-3.826-3.656zm-5 0h3v-3h-3zm5 3.75a1.75 1.75 0 1 0 1.75-1.75H19.5z"/>
</svg>
