<svg xmlns="http://www.w3.org/2000/svg" fill="none" viewBox="0 0 32 32">
  <path fill="#000" d="M26.89 15.455a1 1 0 0 0-.421-1.372 1 1 0 0 0-1.36.462 9.95 9.95 0 0 1-4.134 4.188l-2.28-5.132A4.499 4.499 0 0 0 17 5.614V3a1 1 0 1 0-2 0v2.614a4.5 4.5 0 0 0-1.695 7.987L7.086 27.594a1 1 0 1 0 1.828.812l3.142-7.07c1.268.442 2.601.666 3.944.664a12.4 12.4 0 0 0 3.95-.651l3.136 7.057a1 1 0 0 0 1.828-.812l-3.125-7.032a12 12 0 0 0 5.1-5.107zM16 20a10 10 0 0 1-3.125-.5l2.26-5.085a4.5 4.5 0 0 0 1.735 0l2.267 5.1A10.4 10.4 0 0 1 16 20"/>
</svg>
