<svg xmlns="http://www.w3.org/2000/svg" fill="none" viewBox="0 0 32 32">
  <path fill="#000" d="M13.936 6.579a1.975 1.975 0 0 0-3.25.721l-6.56 18.047A1.98 1.98 0 0 0 5.97 28a2 2 0 0 0 .683-.125l18.046-6.563a1.975 1.975 0 0 0 .722-3.25L13.936 6.58zM8.143 20.14l2.4-6.598 7.915 7.915-6.6 2.4zM20 9c.019-.676.183-1.34.48-1.947C21.143 5.729 22.393 5 24 5c.838 0 1.375-.286 1.706-.901A2.75 2.75 0 0 0 26 2.992 1 1 0 0 1 28 3c0 1.607-1.065 4-4 4-.837 0-1.375.286-1.706.901A2.75 2.75 0 0 0 22 9.008 1 1 0 0 1 20 9m-3-4V2a1 1 0 0 1 2 0v3a1 1 0 0 1-2 0m12.708 10.293a1 1 0 0 1-1.415 1.413l-2-2a1.001 1.001 0 0 1 1.415-1.415zm.608-5.344-3 1a1 1 0 1 1-.632-1.898l3-1a1 1 0 1 1 .632 1.898"/>
</svg>
