<svg xmlns="http://www.w3.org/2000/svg" fill="none" viewBox="0 0 32 32">
  <path fill="#000" d="M16 3a13 13 0 1 0 13 13A13.013 13.013 0 0 0 16 3m0 24a11 11 0 1 1 11-11 11.01 11.01 0 0 1-11 11m-3.866-14.467a7.42 7.42 0 0 1 0 6.935 1 1 0 1 1-1.768-.936 5.35 5.35 0 0 0 0-5.065 1 1 0 0 1 1.768-.934m7-4a15.83 15.83 0 0 1 0 14.942 1 1 0 0 1-1.759-.946 13.83 13.83 0 0 0 0-13.058 1 1 0 1 1 1.765-.942zm-3.5 2a11.63 11.63 0 0 1 0 10.94 1 1 0 1 1-1.765-.94 9.63 9.63 0 0 0 0-9.06.999.999 0 0 1 1.174-1.44 1 1 0 0 1 .59.5z"/>
</svg>
