<svg xmlns="http://www.w3.org/2000/svg" fill="none" viewBox="0 0 32 32">
  <path fill="#000" d="M30.48 9.524a1.51 1.51 0 0 0-1.668-.213l-6.276 3.125-5.24-8.704a1.514 1.514 0 0 0-2.592 0l-5.24 8.708L3.19 9.315a1.514 1.514 0 0 0-2.113 1.825l4.625 14.17a1 1 0 0 0 1.46.55C7.194 25.841 10.39 24 16 24s8.806 1.841 8.835 1.859a1 1 0 0 0 1.464-.549l4.625-14.166a1.51 1.51 0 0 0-.444-1.62m-5.73 14.08C23.25 22.968 20.26 22 16 22s-7.25.968-8.75 1.604L3.339 11.625l5.633 2.809a1.52 1.52 0 0 0 1.973-.574L16 5.457l5.055 8.4a1.52 1.52 0 0 0 1.971.574l5.635-2.806z"/>
</svg>
