<svg xmlns="http://www.w3.org/2000/svg" fill="none" viewBox="0 0 32 32">
  <path fill="#000" d="M22.324 11.277 16 14.93l-6.324-3.652a.5.5 0 0 1 0-.866L15.22 7.21a1.56 1.56 0 0 1 1.56 0l5.544 3.201a.499.499 0 0 1 0 .867zM8 13.486v6.194a1.63 1.63 0 0 0 .803 1.405l5.447 3.146a.5.5 0 0 0 .75-.433v-7.136l-6.25-3.609a.5.5 0 0 0-.75.433m16 6.194v-6.194a.5.5 0 0 0-.75-.432L17 16.66v7.136a.5.5 0 0 0 .75.433l5.446-3.146A1.62 1.62 0 0 0 24 19.679zM28 5h-5a1 1 0 1 0 0 2h4v4a1 1 0 0 0 2 0V6a1 1 0 0 0-1-1M9 25H5v-4a1 1 0 1 0-2 0v5a1 1 0 0 0 1 1h5a1 1 0 0 0 0-2m19-5a1 1 0 0 0-1 1v4h-4a1 1 0 0 0 0 2h5a1 1 0 0 0 1-1v-5a1 1 0 0 0-1-1M4 12a1 1 0 0 0 1-1V7h4a1 1 0 0 0 0-2H4a1 1 0 0 0-1 1v5a1 1 0 0 0 1 1"/>
</svg>
