<svg xmlns="http://www.w3.org/2000/svg" fill="none" viewBox="0 0 32 32">
  <path fill="#000" d="M16 13.848 16.808 16h-1.615zm-4.5 6.304L12.307 18h-1.614zM29 16A13 13 0 1 1 16 3a13.014 13.014 0 0 1 13 13m-2 1a1 1 0 0 0-1-1h-1.808l1.75-4.649a1 1 0 1 0-1.875-.702l-2 5.351h-3.125l-2-5.351a1 1 0 0 0-1.874 0L13.058 16H9.942l-2.007-5.351a1.001 1.001 0 0 0-1.875.702L7.811 16H6a1 1 0 0 0 0 2h2.558l2.006 5.351a1 1 0 0 0 1.875 0L14.443 18h3.115l2 5.351a1 1 0 0 0 1.875 0l2-5.351H26a1 1 0 0 0 1-1m-6.5 3.152L21.308 18h-1.616z"/>
</svg>
