<svg xmlns="http://www.w3.org/2000/svg" fill="none" viewBox="0 0 32 32">
  <path fill="#000" d="M16 3C9.271 3 4 6.075 4 10v12c0 3.925 5.271 7 12 7s12-3.075 12-7V10c0-3.925-5.271-7-12-7m10 13c0 1.203-.985 2.429-2.701 3.365C21.366 20.419 18.774 21 16 21s-5.366-.581-7.299-1.635C6.985 18.429 6 17.203 6 16v-2.08C8.133 15.795 11.779 17 16 17s7.867-1.21 10-3.08zm-2.701 9.365C21.366 26.419 18.774 27 16 27s-5.366-.581-7.299-1.635C6.985 24.429 6 23.203 6 22v-2.08C8.133 21.795 11.779 23 16 23s7.867-1.21 10-3.08V22c0 1.203-.985 2.429-2.701 3.365"/>
</svg>
