<svg xmlns="http://www.w3.org/2000/svg" fill="none" viewBox="0 0 32 32">
  <path fill="#000" d="M31 14h-3.49l-5.938-8.176a2 2 0 0 0-3.163-.09l-1.607 1.862-.024.03a.994.994 0 0 1-1.555 0l-.026-.03-1.606-1.862a2 2 0 0 0-3.163.09L4.49 14H1a1 1 0 0 0 0 2h30a1 1 0 1 0 0-2M12.043 7l.023.029 1.606 1.861a3 3 0 0 0 4.655 0l1.607-1.861.021-.029 5.083 7H6.96zM22.5 18a4.5 4.5 0 0 0-4.471 4H13.97a4.5 4.5 0 1 0-.229 2h4.515a4.5 4.5 0 1 0 4.243-6zm-13 7a2.5 2.5 0 1 1 0-5 2.5 2.5 0 0 1 0 5m13 0a2.5 2.5 0 1 1 0-5 2.5 2.5 0 0 1 0 5"/>
</svg>
