<svg xmlns="http://www.w3.org/2000/svg" fill="none" viewBox="0 0 32 32">
  <path fill="#000" d="M10 15v2a2 2 0 0 1-2 2v-6a2 2 0 0 1 2 2m21-6v14a2 2 0 0 1-2 2H3a2 2 0 0 1-2-2V9a2 2 0 0 1 2-2h26a2 2 0 0 1 2 2m-19 6a4 4 0 0 0-4-4H7a1 1 0 0 0-1 1v8a1 1 0 0 0 1 1h1a4 4 0 0 0 4-4zm4 0v-2h2a1 1 0 0 0 0-2h-3a1 1 0 0 0-1 1v8a1 1 0 0 0 1 1h3a1 1 0 0 0 0-2h-2v-2h1a1 1 0 0 0 0-2zm10.271-3.963a1 1 0 0 0-1.233.692l-1.288 4.577-1.288-4.577a1 1 0 0 0-1.924.542l2.25 8a1 1 0 0 0 1.924 0l2.25-8a1 1 0 0 0-.69-1.234z"/>
</svg>
