<svg xmlns="http://www.w3.org/2000/svg" fill="none" viewBox="0 0 32 32">
  <path fill="#000" d="M29 7H3a2 2 0 0 0-2 2v14a2 2 0 0 0 2 2h26a2 2 0 0 0 2-2V9a2 2 0 0 0-2-2m0 16H3V9h26zM16 13v2h1a1 1 0 0 1 0 2h-1v2h2a1 1 0 0 1 0 2h-3a1 1 0 0 1-1-1v-8a1 1 0 0 1 1-1h3a1 1 0 0 1 0 2zm10.962-.729-2.25 8a1 1 0 0 1-1.924 0l-2.25-8a1 1 0 0 1 1.924-.542l1.288 4.577 1.288-4.577a1 1 0 1 1 1.924.542M8 11H7a1 1 0 0 0-1 1v8a1 1 0 0 0 1 1h1a4 4 0 0 0 4-4v-2a4 4 0 0 0-4-4m2 6a2 2 0 0 1-2 2v-6a2 2 0 0 1 2 2z"/>
</svg>
