<svg xmlns="http://www.w3.org/2000/svg" fill="none" viewBox="0 0 32 32">
  <path fill="#000" d="M10.863 9.227a2.09 2.09 0 0 1 0-2.956l3.658-3.66a2.094 2.094 0 0 1 2.958 0l3.659 3.66a2.09 2.09 0 0 1 0 2.956l-3.66 3.66a2.094 2.094 0 0 1-2.957 0l-3.659-3.66zm18.526 5.294-3.66-3.66a2.09 2.09 0 0 0-2.956 0l-3.66 3.66a2.094 2.094 0 0 0 0 2.958l3.66 3.66a2.09 2.09 0 0 0 2.956 0l3.66-3.66a2.094 2.094 0 0 0 0-2.958m-16.5 0-3.662-3.66a2.09 2.09 0 0 0-2.956 0l-3.66 3.66a2.094 2.094 0 0 0 0 2.958l3.66 3.66a2.09 2.09 0 0 0 2.956 0l3.66-3.66a2.094 2.094 0 0 0 0-2.958zm4.591 4.591a2.094 2.094 0 0 0-2.957 0l-3.66 3.66a2.09 2.09 0 0 0 0 2.957l3.658 3.66a2.094 2.094 0 0 0 2.958 0l3.659-3.66a2.09 2.09 0 0 0 0-2.956l-3.658-3.66z"/>
</svg>
