<svg xmlns="http://www.w3.org/2000/svg" fill="none" viewBox="0 0 32 32">
  <path fill="#000" d="M14.521 13.388a2.094 2.094 0 0 0 2.958 0l3.909-3.91a2.09 2.09 0 0 0 0-2.957l-3.91-3.91a2.094 2.094 0 0 0-2.957 0l-3.909 3.91a2.09 2.09 0 0 0 0 2.957zm-2.5-5.453 3.91-3.909a.09.09 0 0 1 .125 0l3.91 3.91a.09.09 0 0 1 0 .124l-3.902 3.914a.09.09 0 0 1-.125 0l-3.913-3.91a.093.093 0 0 1 0-.129zm17.363 6.587-3.905-3.91a2.09 2.09 0 0 0-2.956 0l-3.91 3.91a2.094 2.094 0 0 0 0 2.957l3.91 3.91a2.093 2.093 0 0 0 2.956 0l3.91-3.91a2.094 2.094 0 0 0 0-2.957zm-1.409 1.542-3.91 3.91a.093.093 0 0 1-.125 0l-3.91-3.91a.09.09 0 0 1 0-.125l3.91-3.91a.093.093 0 0 1 .125 0l3.91 3.91a.09.09 0 0 1 0 .125m-14.588-1.543-3.91-3.91a2.093 2.093 0 0 0-2.956 0l-3.91 3.91a2.094 2.094 0 0 0 0 2.958l3.91 3.91a2.093 2.093 0 0 0 2.956 0l3.91-3.91a2.094 2.094 0 0 0 0-2.957zm-1.413 1.543-3.91 3.91a.093.093 0 0 1-.125 0l-3.914-3.91a.09.09 0 0 1 0-.125l3.91-3.912a.093.093 0 0 1 .125 0l3.91 3.91a.1.1 0 0 1 .028.063.1.1 0 0 1-.024.064m5.5 2.549a2.094 2.094 0 0 0-2.958 0l-3.903 3.91a2.09 2.09 0 0 0 0 2.956l3.908 3.91a2.094 2.094 0 0 0 2.958 0l3.909-3.91a2.09 2.09 0 0 0 0-2.956zm2.5 5.452-3.91 3.909a.09.09 0 0 1-.125 0l-3.913-3.909a.09.09 0 0 1 0-.125l3.91-3.91a.09.09 0 0 1 .125 0l3.91 3.91a.09.09 0 0 1 .003.125"/>
</svg>
