<svg xmlns="http://www.w3.org/2000/svg" fill="none" viewBox="0 0 32 32">
  <path fill="#000" d="M13 17.5a1.5 1.5 0 1 1-2.999 0 1.5 1.5 0 0 1 2.999 0m7.5-1.5a1.5 1.5 0 1 0 0 3 1.5 1.5 0 0 0 0-3m9.306 8.113-8.375 3.713a2.023 2.023 0 0 1-2.713-1.137l-1.014-2.75a26 26 0 0 1-3.408 0l-1.013 2.75a2.02 2.02 0 0 1-2.714 1.137l-8.375-3.713a1.99 1.99 0 0 1-1.133-2.314L4.75 7.25a2.01 2.01 0 0 1 1.625-1.482l4.508-.742a2.03 2.03 0 0 1 2.282 1.485l.408 1.605A25 25 0 0 1 16 8q1.237 0 2.425.116l.407-1.605a2.026 2.026 0 0 1 2.283-1.485l4.51.742A2.01 2.01 0 0 1 27.25 7.25l3.691 14.548a1.99 1.99 0 0 1-1.135 2.315M29 22.285 25.309 7.75h-.01L20.79 7a.02.02 0 0 0-.021 0l-.354 1.393c.625.117 1.25.257 1.854.427A1 1 0 0 1 22 10.79a1 1 0 0 1-.27-.038 21.5 21.5 0 0 0-5.73-.75 21.5 21.5 0 0 0-5.73.75 1 1 0 0 1-1.258-.686 1 1 0 0 1 .718-1.24c.602-.17 1.223-.31 1.852-.427L11.23 7h-.015L6.7 7.741h-.011L3 22.291l8.375 3.71a.03.03 0 0 0 .027 0l.848-2.286q-1.276-.195-2.517-.54a1 1 0 0 1 .537-1.925c1.867.507 3.795.76 5.73.75 1.935.01 3.863-.243 5.73-.75a1 1 0 0 1 .54 1.926q-1.244.345-2.52.54L20.594 26a.03.03 0 0 0 .026 0z"/>
</svg>
