<svg xmlns="http://www.w3.org/2000/svg" fill="none" viewBox="0 0 32 32">
  <path fill="#000" d="M30.939 21.799 27.25 7.25a2.01 2.01 0 0 0-1.625-1.485l-4.507-.74a2.03 2.03 0 0 0-2.283 1.485l-.026.106a.5.5 0 0 0 .409.617c1.034.151 2.054.386 3.05.702a1.025 1.025 0 0 1 .703 1.213 1 1 0 0 1-1.273.704 19.43 19.43 0 0 0-11.35-.012 1.03 1.03 0 0 1-1.285-.601 1 1 0 0 1 .635-1.292 19.6 19.6 0 0 1 3.09-.715.5.5 0 0 0 .408-.616l-.026-.106a2.027 2.027 0 0 0-2.285-1.484l-4.51.74A2.01 2.01 0 0 0 4.75 7.25L1.061 21.799a1.99 1.99 0 0 0 1.133 2.314l8.375 3.713a2.02 2.02 0 0 0 2.714-1.137l.436-1.181a.5.5 0 0 0-.409-.67 20 20 0 0 1-3.579-.774 1.025 1.025 0 0 1-.7-1.209 1 1 0 0 1 1.274-.707 19.45 19.45 0 0 0 11.39 0 1 1 0 0 1 1.274.706 1.024 1.024 0 0 1-.701 1.21 19.7 19.7 0 0 1-3.578.775.5.5 0 0 0-.409.669l.437 1.18a2.02 2.02 0 0 0 2.713 1.138l8.375-3.713a1.99 1.99 0 0 0 1.133-2.314M11.5 19a1.5 1.5 0 1 1 0-3 1.5 1.5 0 0 1 0 3m9 0a1.5 1.5 0 1 1 0-3 1.5 1.5 0 0 1 0 3"/>
</svg>
