<svg xmlns="http://www.w3.org/2000/svg" fill="none" viewBox="0 0 32 32">
  <path fill="#000" d="M25 25.563V29a1 1 0 1 1-2 0v-3.438a7.96 7.96 0 0 0-4.422-7.156l-6.05-3.023A9.95 9.95 0 0 1 7 6.438V3a1 1 0 0 1 2 0v3.438a7.96 7.96 0 0 0 4.423 7.156l6.05 3.024A9.95 9.95 0 0 1 25 25.563M20.398 24H10.375a1 1 0 0 1-1-1.066A1.024 1.024 0 0 1 10.406 22h8.307a.5.5 0 0 0 .343-.863 6 6 0 0 0-1.375-.94l-5.556-2.783a1 1 0 0 0-1.039.088A10.03 10.03 0 0 0 7 25.563v3.404A1.02 1.02 0 0 0 7.934 30 1 1 0 0 0 9 29v-2h11a1 1 0 0 0 1-1v-.438a6 6 0 0 0-.112-1.165.5.5 0 0 0-.49-.397m3.536-22A1.023 1.023 0 0 0 23 3.034V5H12a1 1 0 0 0-1 1v.438q0 .586.113 1.165a.5.5 0 0 0 .49.397h9.99a1.024 1.024 0 0 1 1.032.934 1 1 0 0 1-1 1.066h-8.337a.5.5 0 0 0-.344.863 6 6 0 0 0 1.375.94l5.556 2.783a.99.99 0 0 0 1.039-.09A10.03 10.03 0 0 0 25 6.437V3a1 1 0 0 0-1.066-1"/>
</svg>
