<svg xmlns="http://www.w3.org/2000/svg" fill="none" viewBox="0 0 32 32">
  <path fill="#000" d="m29.964 15.625-2.053-11a2 2 0 0 0-2.451-1.573l-.039.012L18.856 5h-5.712L6.579 3.07l-.039-.011A2 2 0 0 0 4.089 4.63L2.036 15.625a1.97 1.97 0 0 0 1.14 2.19c.263.12.55.184.839.185.347 0 .687-.093.985-.27V23a5 5 0 0 0 5 5h12a5 5 0 0 0 5-5v-5.269c.298.176.638.27.984.27.29 0 .576-.063.84-.184a1.97 1.97 0 0 0 1.14-2.192M4 16 6.054 5l5.258 1.546zm18 10h-5v-1.586l1.707-1.707a1 1 0 0 0-1.415-1.415L16 22.587l-1.293-1.293a1 1 0 1 0-1.415 1.415L15 24.413V26h-5a3 3 0 0 1-3-3v-7.611L13.49 7h5.019L25 15.389V23a3 3 0 0 1-3 3m6-10-7.313-9.454L25.947 5zm-15 1.5a1.5 1.5 0 1 1-3 0 1.5 1.5 0 0 1 3 0m9 0a1.5 1.5 0 1 1-3 0 1.5 1.5 0 0 1 3 0"/>
</svg>
