<svg xmlns="http://www.w3.org/2000/svg" fill="none" viewBox="0 0 32 32">
  <path fill="#000" d="M26 4H6a2 2 0 0 0-2 2v20a2 2 0 0 0 2 2h20a2 2 0 0 0 2-2V6a2 2 0 0 0-2-2M9.5 24a1.5 1.5 0 1 1 0-3 1.5 1.5 0 0 1 0 3m0-6.5a1.5 1.5 0 1 1 0-3 1.5 1.5 0 0 1 0 3m0-6.5a1.5 1.5 0 1 1 0-3 1.5 1.5 0 0 1 0 3M16 24a1.5 1.5 0 1 1 0-3 1.5 1.5 0 0 1 0 3m0-6.5a1.5 1.5 0 1 1 0-3 1.5 1.5 0 0 1 0 3m0-6.5a1.5 1.5 0 1 1 0-3 1.5 1.5 0 0 1 0 3m6.5 13a1.5 1.5 0 1 1 0-3 1.5 1.5 0 0 1 0 3m0-6.5a1.5 1.5 0 1 1 0-3 1.5 1.5 0 0 1 0 3m0-6.5a1.5 1.5 0 1 1 0-3 1.5 1.5 0 0 1 0 3"/>
</svg>
