<svg xmlns="http://www.w3.org/2000/svg" fill="none" viewBox="0 0 32 32">
  <path fill="#000" d="M8.283 10.029a1.9 1.9 0 0 1-.207-1.521 2 2 0 0 1 .25-.595L11 4.087V1a1 1 0 0 1 1.066-1A1.02 1.02 0 0 1 13 1.034v3.019l.656.822A2.99 2.99 0 0 0 16.047 6a3.08 3.08 0 0 0 2.34-1.179L19 4.053V1a1 1 0 0 1 1.066-1A1.02 1.02 0 0 1 21 1.034v3.054l2.677 3.824q.174.278.25.596a1.9 1.9 0 0 1-.22 1.543l-1.732 2.718a.5.5 0 0 1-.425.231h-11.1a.5.5 0 0 1-.421-.231L8.296 10.05zm18.562 16.195-.019-.043-5.115-10.894a.5.5 0 0 0-.453-.287H10.742a.5.5 0 0 0-.454.287L5.174 26.181a2.02 2.02 0 0 0 .026 1.694A2 2 0 0 0 7 29h18a2 2 0 0 0 1.845-2.776"/>
</svg>
