<svg xmlns="http://www.w3.org/2000/svg" fill="none" viewBox="0 0 32 32">
  <path fill="#000" d="M11.659 4.607a.5.5 0 0 1 .102-.898 13 13 0 0 1 11.083 1.243.5.5 0 0 1 .125.734 19.2 19.2 0 0 1-5.236 4.625 21.2 21.2 0 0 0-6.074-5.704m4.288 6.643a19.1 19.1 0 0 0-7-5.864.49.49 0 0 0-.5.041 13.05 13.05 0 0 0-4.792 6.5.5.5 0 0 0 .375.646c1.305.28 2.635.424 3.97.427a18.9 18.9 0 0 0 7.947-1.75m12.976 3.336a12.98 12.98 0 0 0-3.65-7.686.5.5 0 0 0-.75.042 21.2 21.2 0 0 1-5.71 5.05 21 21 0 0 1 1.693 3.738A21 21 0 0 1 26 15q1.192 0 2.375.134a.502.502 0 0 0 .547-.544zm-7.864 3.063a21 21 0 0 1 .042 9.415.5.5 0 0 0 .712.561 13.03 13.03 0 0 0 7.07-9.906.5.5 0 0 0-.435-.562 19.1 19.1 0 0 0-7.39.5zm-2.455-1.306a19 19 0 0 0-1.549-3.402A20.9 20.9 0 0 1 8 15a21 21 0 0 1-4.36-.456.5.5 0 0 0-.601.445 12.97 12.97 0 0 0 4.085 10.5.5.5 0 0 0 .769-.115 21.13 21.13 0 0 1 10.71-9.028zM9.46 26.656a.5.5 0 0 0 .19.685 13 13 0 0 0 8.607 1.461.49.49 0 0 0 .382-.33 19 19 0 0 0 .975-6.01c0-1.408-.156-2.81-.467-4.183a19.12 19.12 0 0 0-9.687 8.377"/>
</svg>
