<svg xmlns="http://www.w3.org/2000/svg" fill="none" viewBox="0 0 32 32">
  <path fill="#000" d="M16 3a13 13 0 1 0 13 13A13.013 13.013 0 0 0 16 3m10.956 12.023a21 21 0 0 0-6.449.707 21 21 0 0 0-1.68-3.73A21 21 0 0 0 23.6 8.056a10.97 10.97 0 0 1 3.355 6.967zm-4.921-8.215a19 19 0 0 1-4.285 3.507 21.2 21.2 0 0 0-4.829-4.875 11 11 0 0 1 9.125 1.367h-.011zM10.706 6.36a19.1 19.1 0 0 1 5.25 4.897A19 19 0 0 1 8 13q-1.274 0-2.535-.169a11.05 11.05 0 0 1 5.241-6.471M5 16q0-.605.066-1.205C6.038 14.931 7.02 15 8 15a21 21 0 0 0 9.065-2.05 19 19 0 0 1 1.539 3.391q-1.596.6-3.074 1.45a21.15 21.15 0 0 0-6.884 6.383A10.97 10.97 0 0 1 5 16m5.25 9.375c1.623-2.4 3.77-4.4 6.28-5.849a18.6 18.6 0 0 1 2.619-1.25 19.1 19.1 0 0 1 .03 8.254 11 11 0 0 1-8.929-1.155m11.133.216a21.1 21.1 0 0 0-.324-7.934 19 19 0 0 1 5.892-.633 11.02 11.02 0 0 1-5.569 8.566z"/>
</svg>
