<svg xmlns="http://www.w3.org/2000/svg" fill="none" viewBox="0 0 32 32">
  <path fill="#000" d="M21.75 5.969a31.8 31.8 0 0 0-5.181-4.788 1 1 0 0 0-1.148 0A31.8 31.8 0 0 0 10.25 5.97C6.814 9.915 5 14.075 5 18a11 11 0 1 0 22 0c0-3.925-1.814-8.085-5.25-12.031M23.479 23H8.52a9 9 0 0 1-1-2h16.963a9 9 0 0 1-1.005 2zM25 18q0 .502-.058 1H7.058A9 9 0 0 1 7 18q0-.5.045-1h17.91q.045.5.045 1M16 3.25c1.77 1.388 7.108 5.968 8.605 11.75H7.395C8.893 9.22 14.23 4.64 16 3.25M10.351 25H21.65a8.98 8.98 0 0 1-11.298 0z"/>
</svg>
