<svg xmlns="http://www.w3.org/2000/svg" fill="none" viewBox="0 0 32 32">
  <path fill="#000" d="M21.75 5.969a31.8 31.8 0 0 0-5.181-4.788 1 1 0 0 0-1.148 0A31.8 31.8 0 0 0 10.25 5.97C6.814 9.915 5 14.075 5 18a11 11 0 1 0 22 0c0-3.925-1.814-8.085-5.25-12.031M25 18q0 .502-.058 1H17v-2h7.955q.045.5.045 1m-2.076-7H17V9h4.611q.711.965 1.313 2M17 25h4.649A8.96 8.96 0 0 1 17 26.943zm0-2v-2h7.484a9 9 0 0 1-1 2zm0-8v-2h6.924q.413.976.681 2zm2.986-8H17V4.075A32 32 0 0 1 19.986 7M7 18c0-6.25 5.283-11.589 8-13.925v22.868A9.01 9.01 0 0 1 7 18"/>
</svg>
