<svg xmlns="http://www.w3.org/2000/svg" fill="none" viewBox="0 0 32 32">
  <path fill="#000" d="M23.5 15 16 10l6.945-4.625a1 1 0 0 1 1.11 0l5.695 3.792a1 1 0 0 1 0 1.665zM9.055 5.375a1 1 0 0 0-1.11 0L2.25 9.167a1 1 0 0 0 0 1.665L8.5 15l7.5-5zM29.75 19.167 23.5 15 16 20l6.945 4.625a1 1 0 0 0 1.11 0l5.695-3.793a1 1 0 0 0 0-1.665m-27.5 0a1 1 0 0 0 0 1.665l5.695 3.793a1 1 0 0 0 1.11 0L16 20l-7.5-5zm18.826 6.62-4.796-3.198a.5.5 0 0 0-.555 0l-4.799 3.197a.5.5 0 0 0 0 .831l4.519 3.008a1 1 0 0 0 1.11 0l4.519-3.013a.5.5 0 0 0 0-.826z"/>
</svg>
