<svg xmlns="http://www.w3.org/2000/svg" fill="none" viewBox="0 0 32 32">
  <path fill="#000" d="M27 13a1 1 0 0 1-2 0 9 9 0 0 0-18 0c0 3.337 1.066 4.365 2.196 5.455C10.276 19.5 11.5 20.676 11.5 23.5A4.5 4.5 0 0 0 16 28c1.28 0 2.306-.52 3.229-1.636a.998.998 0 0 1 1.668.156 1 1 0 0 1-.126 1.116C19.476 29.205 17.875 30 16 30a6.507 6.507 0 0 1-6.5-6.5c0-1.974-.71-2.659-1.692-3.605C6.558 18.688 5 17.188 5 13a11 11 0 1 1 22 0m-4.766 7.135a1 1 0 0 0-1.368.365A1 1 0 0 1 19 20c0-1.166.602-1.97 1.3-2.9.796-1.063 1.7-2.266 1.7-4.1a6 6 0 1 0-12 0 1 1 0 0 0 2 0 4 4 0 1 1 8 0c0 1.166-.602 1.97-1.3 2.9-.796 1.062-1.7 2.266-1.7 4.1a3 3 0 0 0 5.598 1.5 1 1 0 0 0-.364-1.365"/>
</svg>
