<svg xmlns="http://www.w3.org/2000/svg" fill="none" viewBox="0 0 32 32">
  <path fill="#000" d="M16 3a13 13 0 1 0 13 13A13.013 13.013 0 0 0 16 3m2.5 16a.6.6 0 0 0 .166-.027 1 1 0 0 1 .668 1.885A2.5 2.5 0 0 1 16 18.5c0-1.106.596-1.904 1.125-2.609.471-.625.875-1.172.875-1.891a2 2 0 0 0-4 0 1 1 0 0 1-2 0 4 4 0 1 1 8 0c0 1.384-.707 2.329-1.275 3.089-.45.601-.725.991-.725 1.411a.5.5 0 0 0 .5.5m4.5-4a1 1 0 0 1-1-1 6 6 0 1 0-12 0c0 1.488.839 2.563 1.727 3.7.875 1.115 1.773 2.269 1.773 3.8a2.5 2.5 0 0 0 4.25 1.786 1.001 1.001 0 1 1 1.399 1.428A4.5 4.5 0 0 1 11.5 21.5c0-.843-.625-1.642-1.349-2.569C9.193 17.704 8 16.176 8 14a8 8 0 1 1 16 0 1 1 0 0 1-1 1"/>
</svg>
