<svg xmlns="http://www.w3.org/2000/svg" fill="none" viewBox="0 0 32 32">
  <path fill="#000" d="M26.74 26.328a1 1 0 1 1-1.48 1.345l-4.375-4.806A3 3 0 0 1 17 20c-.002-.421.05-.841.151-1.25L12 13.083A1.001 1.001 0 0 1 10 13c0-.613.093-1.223.277-1.807L8.062 8.75A8.9 8.9 0 0 0 7 13c0 3.338 1.066 4.365 2.196 5.455C10.276 19.5 11.5 20.677 11.5 23.5A4.5 4.5 0 0 0 16 28c1.28 0 2.306-.52 3.229-1.636a1 1 0 1 1 1.542 1.273C19.476 29.205 17.875 30 16 30a6.507 6.507 0 0 1-6.5-6.5c0-1.974-.71-2.659-1.693-3.605C6.557 18.688 5 17.188 5 13a10.9 10.9 0 0 1 1.65-5.797l-1.39-1.53a1 1 0 1 1 1.48-1.345zM11.386 5.27A9 9 0 0 1 25 13.001a1 1 0 1 0 2 0 11 11 0 0 0-16.642-9.446 1 1 0 1 0 1.028 1.716zm8.654 10.625a1 1 0 0 0 1.347-.43A5.24 5.24 0 0 0 22 12.999a6 6 0 0 0-7.947-5.677 1 1 0 1 0 .65 1.892A4 4 0 0 1 20 13a3.25 3.25 0 0 1-.39 1.543 1 1 0 0 0 .43 1.347z"/>
</svg>
