<svg xmlns="http://www.w3.org/2000/svg" fill="none" viewBox="0 0 32 32">
  <path fill="#000" d="M23.332 7.445C21.06 4.036 18.317 2 16 2s-5.059 2.036-7.332 5.445C6.338 10.943 5 15.154 5 19a11 11 0 1 0 22 0c0-3.846-1.337-8.057-3.668-11.555M16 28a9.01 9.01 0 0 1-9-9c0-3.461 1.215-7.269 3.332-10.445C12.15 5.83 14.427 4 16 4c1.188 0 2.775 1.041 4.262 2.723l-5.012 5.61a1 1 0 0 0 .5 1.637l3.075.769-.813 4.065A1 1 0 0 0 19 20a1 1 0 0 0 .979-.804l1-5a1 1 0 0 0-.738-1.166l-2.395-.599 3.666-4.106q.079.113.155.23C23.785 11.731 25 15.539 25 19a9.01 9.01 0 0 1-9 9"/>
</svg>
