<svg xmlns="http://www.w3.org/2000/svg" fill="none" viewBox="0 0 32 32">
  <path fill="#000" fill-rule="evenodd" d="M5 9a3 3 0 1 1 5.526 1.619L15.49 17H19a1 1 0 1 1 0 2H8.83a3.001 3.001 0 1 1 0-2h4.125l-4.007-5.153A3 3 0 0 1 5 9m9.293 12.293A1 1 0 0 1 15 21h4a1 1 0 1 1 0 2h-3.586l-2.706 2.707a3 3 0 1 1-1.414-1.414z" clip-rule="evenodd"/>
  <path fill="#000" fill-rule="evenodd" d="M22 2a7 7 0 0 1 4 12.745V26a1 1 0 0 1-.293.707l-3 3a1 1 0 0 1-1.414 0l-3-3A1 1 0 0 1 19 25a3 3 0 0 0 2.236-5A3 3 0 0 0 19 15c-1.5 0-4-2.5-4-6a7 7 0 0 1 7-7m.5 7a1.5 1.5 0 1 1 0-3 1.5 1.5 0 0 1 0 3" clip-rule="evenodd"/>
</svg>
