<svg xmlns="http://www.w3.org/2000/svg" fill="none" viewBox="0 0 32 32">
  <path fill="#000" d="M22 4a5 5 0 0 1 2.5 9.332 1 1 0 0 0-.5.865v11.389l-2 2-2.293-2.293a1 1 0 0 0-1.414 1.414l3 3a1 1 0 0 0 1.414 0l3-3A1 1 0 0 0 26 26V14.745a7 7 0 1 0-7.5.318 1 1 0 1 0 1-1.731A5 5 0 0 1 22 4"/>
  <path fill="#000" fill-rule="evenodd" d="M3 18a3 3 0 0 0 5.83 1H19a1 1 0 1 0 0-2h-3.51l-4.964-6.381a3 3 0 1 0-1.578 1.228L12.955 17H8.83A3.001 3.001 0 0 0 3 18m6-9a1 1 0 1 0-2 0 1 1 0 0 0 2 0m-3 8a1 1 0 1 1 0 2 1 1 0 0 1 0-2" clip-rule="evenodd"/>
  <path fill="#000" d="M21 7.5a1.5 1.5 0 1 0 3 0 1.5 1.5 0 0 0-3 0"/>
  <path fill="#000" fill-rule="evenodd" d="M12.708 25.707a3 3 0 1 1-1.414-1.414l2.999-3A1 1 0 0 1 15 21h4a1 1 0 1 1 0 2h-3.586zM11 27a1 1 0 1 0-2 0 1 1 0 0 0 2 0" clip-rule="evenodd"/>
</svg>
