<svg xmlns="http://www.w3.org/2000/svg" fill="none" viewBox="0 0 32 32">
  <path fill="#000" fill-rule="evenodd" d="M21 2a7 7 0 0 1 4 12.745V26a1 1 0 0 1-.293.707l-3 3a1 1 0 0 1-1.414 0l-3-3A1 1 0 0 1 18 25a3 3 0 0 0 2.236-5A3 3 0 0 0 18 15c-1.5 0-4-2.5-4-6a7 7 0 0 1 7-7m.5 7a1.5 1.5 0 1 1 0-3 1.5 1.5 0 0 1 0 3" clip-rule="evenodd"/>
  <path fill="#000" fill-rule="evenodd" d="M4 13a3 3 0 0 0 4.72 2.458l4.699 3.356A1 1 0 0 0 14 19h4a1 1 0 1 0 0-2h-3.68l-4.437-3.17A3.001 3.001 0 1 0 4 13m6.993 11.794a3 3 0 1 1-.8-1.842l3.325-1.828A1 1 0 0 1 14 21h4a1 1 0 1 1 0 2h-3.743z" clip-rule="evenodd"/>
</svg>
