<svg xmlns="http://www.w3.org/2000/svg" fill="none" viewBox="0 0 32 32">
  <path fill="#000" d="M31 13a1 1 0 0 0-1 1v3h-2v-2a2 2 0 0 0-2-2h-1.586L20 8.586A1.98 1.98 0 0 0 18.586 8H16V6h3a1 1 0 1 0 0-2h-8a1 1 0 1 0 0 2h3v2H6a2 2 0 0 0-2 2v7H2v-3a1 1 0 1 0-2 0v8a1 1 0 1 0 2 0v-3h2v2.586A1.98 1.98 0 0 0 4.586 23L9 27.414a1.98 1.98 0 0 0 1.414.586h8.172A1.98 1.98 0 0 0 20 27.414L24.414 23H26a2 2 0 0 0 2-2v-2h2v3a1 1 0 0 0 2 0v-8a1 1 0 0 0-1-1m-5 8h-1.586a1.98 1.98 0 0 0-1.414.586L18.586 26h-8.172L6 21.586V10h12.586L23 14.414a1.98 1.98 0 0 0 1.414.586H26z"/>
</svg>
