<svg xmlns="http://www.w3.org/2000/svg" fill="none" viewBox="0 0 32 32">
  <path fill="#000" d="M10 12a1 1 0 0 1-1 1H3a1 1 0 0 1 0-2h6a1 1 0 0 1 1 1m-1 3H3a1 1 0 0 0 0 2h6a1 1 0 0 0 0-2m0 4H3a1 1 0 0 0 0 2h6a1 1 0 0 0 0-2m0 4H3a1 1 0 0 0 0 2h6a1 1 0 0 0 0-2m10-8h-6a1 1 0 0 0 0 2h6a1 1 0 0 0 0-2m0 4h-6a1 1 0 0 0 0 2h6a1 1 0 0 0 0-2m0 4h-6a1 1 0 0 0 0 2h6a1 1 0 0 0 0-2m10-12h-6a1 1 0 0 0 0 2h6a1 1 0 0 0 0-2m-6-2h6a1 1 0 1 0 0-2h-6a1 1 0 1 0 0 2m6 6h-6a1 1 0 0 0 0 2h6a1 1 0 0 0 0-2m0 4h-6a1 1 0 0 0 0 2h6a1 1 0 0 0 0-2m0 4h-6a1 1 0 0 0 0 2h6a1 1 0 0 0 0-2"/>
</svg>
