<svg xmlns="http://www.w3.org/2000/svg" fill="none" viewBox="0 0 32 32">
  <path fill="#000" d="M27 5H5a2 2 0 0 0-2 2v20a1 1 0 0 0 1.447.895L8 26.118l3.553 1.777a1 1 0 0 0 .894 0L16 26.118l3.552 1.777a1 1 0 0 0 .896 0L24 26.118l3.552 1.777A1 1 0 0 0 29 27V7a2 2 0 0 0-2-2m0 20.383-2.552-1.278a1 1 0 0 0-.896 0L20 25.882l-3.552-1.777a1 1 0 0 0-.896 0L12 25.882l-3.553-1.777a1 1 0 0 0-.894 0L5 25.382V7h22zM7.553 20.895a1 1 0 0 0 1.342-.447L9.618 19h4.764l.723 1.448a1.001 1.001 0 0 0 1.79-.896l-4-8a1 1 0 0 0-1.79 0l-4 8a1 1 0 0 0 .447 1.343zM12 14.236 13.383 17h-2.765zM17 16a1 1 0 0 1 1-1h2v-2a1 1 0 0 1 2 0v2h2a1 1 0 0 1 0 2h-2v2a1 1 0 0 1-2 0v-2h-2a1 1 0 0 1-1-1"/>
</svg>
