<svg xmlns="http://www.w3.org/2000/svg" fill="none" viewBox="0 0 32 32">
  <path fill="#000" d="M12 14.236 13.383 17h-2.765zM29 7v20a1 1 0 0 1-1.448.895L24 26.118l-3.552 1.777a1 1 0 0 1-.896 0L16 26.118l-3.553 1.777a1 1 0 0 1-.894 0L8 26.118l-3.553 1.777A1 1 0 0 1 3 27V7a2 2 0 0 1 2-2h22a2 2 0 0 1 2 2M16.895 19.552l-4-8a1 1 0 0 0-1.79 0l-4 8a1 1 0 0 0 1.79.896L9.618 19h4.764l.723 1.448a1.001 1.001 0 0 0 1.79-.896M26 16a1 1 0 0 0-1-1h-2v-2a1 1 0 0 0-2 0v2h-2a1 1 0 0 0 0 2h2v2a1 1 0 0 0 2 0v-2h2a1 1 0 0 0 1-1"/>
</svg>
