<svg xmlns="http://www.w3.org/2000/svg" fill="none" viewBox="0 0 32 32">
  <path fill="#000" d="M21.828 10.171a10 10 0 1 0-11.657 11.657 10 10 0 1 0 11.657-11.657M28 20c0 .19-.009.375-.023.564l-6.25-6.25A10 10 0 0 0 22 12.25 8.014 8.014 0 0 1 28 20m-1.684 4.9-6.578-6.576c.486-.594.903-1.242 1.242-1.93l6.482 6.48a8 8 0 0 1-1.146 2.026m-3.441 2.561-6.483-6.482a10 10 0 0 0 1.93-1.242l6.576 6.578a8 8 0 0 1-2.023 1.146M5.684 7.1l6.577 6.576a10 10 0 0 0-1.241 1.93l-6.483-6.48A8 8 0 0 1 5.684 7.1m3.44-2.562 6.483 6.483a10 10 0 0 0-1.93 1.241L7.1 5.684a8 8 0 0 1 2.026-1.147zM20 12a8.01 8.01 0 0 1-8 8 8.01 8.01 0 0 1 8-8m-.25-2a10 10 0 0 0-2.061.266l-6.25-6.25c.186-.007.37-.016.56-.016a8.014 8.014 0 0 1 7.75 6.006zM4 12c0-.19.009-.375.022-.564l6.25 6.25a10 10 0 0 0-.266 2.064A8.014 8.014 0 0 1 4 12m8.25 10a10 10 0 0 0 2.061-.267l6.25 6.25a8 8 0 0 1-.564.023A8.01 8.01 0 0 1 12.25 22"/>
</svg>
