<svg xmlns="http://www.w3.org/2000/svg" fill="none" viewBox="0 0 32 32">
  <path fill="#000" d="M28.5 21.875a1 1 0 0 1-1.365-.375l-2.375-4.15a15.4 15.4 0 0 1-4.51 2.083l.734 4.402A1 1 0 0 1 20 25a1 1 0 0 1-.985-.836l-.721-4.323a16.6 16.6 0 0 1-4.585 0l-.722 4.323a1 1 0 1 1-1.975-.329l.738-4.402a15.4 15.4 0 0 1-4.508-2.087L4.875 21.5a1.004 1.004 0 1 1-1.743-1l2.5-4.375a19 19 0 0 1-2.412-2.5 1 1 0 1 1 1.557-1.25C6.852 14.943 10.482 18 16 18c5.517 0 9.147-3.061 11.222-5.625a1.002 1.002 0 0 1 1.707.106 1 1 0 0 1-.152 1.144 19 19 0 0 1-2.412 2.5l2.5 4.375a1 1 0 0 1-.365 1.375"/>
</svg>
