<svg xmlns="http://www.w3.org/2000/svg" fill="none" viewBox="0 0 32 32">
  <path fill="#000" d="M28.867 20.5a1.001 1.001 0 1 1-1.736 1l-2.375-4.15a15.4 15.4 0 0 1-4.506 2.082l.734 4.403a1 1 0 0 1-1.63.927 1 1 0 0 1-.34-.598l-.72-4.323a16.6 16.6 0 0 1-4.585 0l-.721 4.323a1 1 0 1 1-1.976-.329l.738-4.402a15.4 15.4 0 0 1-4.508-2.087L4.875 21.5a1.004 1.004 0 1 1-1.743-1l2.5-4.375a19 19 0 0 1-2.412-2.5 1 1 0 0 1 0-1.258C5.57 9.465 9.694 6 16 6s10.43 3.465 12.777 6.375a1 1 0 0 1 0 1.258 19 19 0 0 1-2.412 2.5l2.503 4.367z"/>
</svg>
