<svg xmlns="http://www.w3.org/2000/svg" fill="none" viewBox="0 0 32 32">
  <path fill="#000" d="M28 8.413a4.47 4.47 0 0 0-1.407-3.208c-1.75-1.66-4.59-1.597-6.328.141L17.35 8.275a3 3 0 0 0-4.142.096l-.625.625a2 2 0 0 0 0 2.83l.25.258-6.375 6.375a4.97 4.97 0 0 0-1.317 4.75l-1 2.301a1.71 1.71 0 0 0 .36 1.901 1.99 1.99 0 0 0 2.213.42l2.191-.956a4.99 4.99 0 0 0 4.631-1.344l6.375-6.375.258.258a2 2 0 0 0 2.827 0l.625-.625a3 3 0 0 0 .093-4.148l2.969-2.983A4.47 4.47 0 0 0 28 8.413M17.25 19H8.76l5.5-5.5 4.242 4.25-1.25 1.25z"/>
</svg>
