<svg xmlns="http://www.w3.org/2000/svg" fill="none" viewBox="0 0 32 32">
  <path fill="#000" d="M28 8.413a4.47 4.47 0 0 0-1.407-3.208c-1.75-1.66-4.59-1.597-6.328.141L17.85 7.775a3 3 0 0 0-4.142.096l-1.125 1.125a2 2 0 0 0 0 2.83l.25.258-6.375 6.375a4.97 4.97 0 0 0-1.317 4.75l-1 2.301a1.71 1.71 0 0 0 .36 1.901 1.99 1.99 0 0 0 2.213.42l2.191-.956a4.99 4.99 0 0 0 4.631-1.344l6.375-6.375.258.258a2 2 0 0 0 2.827 0l1.125-1.125a3 3 0 0 0 .093-4.148l2.469-2.483A4.47 4.47 0 0 0 28 8.413M12.125 24.125a3 3 0 0 1-3 .75 1 1 0 0 0-.694.039L6.17 25.9l.956-2.225a1 1 0 0 0 .031-.718 3 3 0 0 1 .013-1.962h8.081zM17.25 19H8.76l5.5-5.5 4.242 4.25-1.25 1.25zm8.023-8.75L22.1 13.44a1 1 0 0 0 0 1.414l.612.61a1 1 0 0 1 0 1.415l-1.125 1.125L14 10.408l1.125-1.125a1 1 0 0 1 1.414 0l.611.61a1 1 0 0 0 1.414-.002l3.117-3.136c.977-.977 2.563-1.022 3.537-.101a2.5 2.5 0 0 1 .048 3.587z"/>
</svg>
