<svg xmlns="http://www.w3.org/2000/svg" fill="none" viewBox="0 0 32 32">
  <path fill="#000" d="M28 8.413a4.47 4.47 0 0 0-1.408-3.208c-1.75-1.66-4.59-1.597-6.327.141L17.35 8.275a3 3 0 0 0-4.143.096l-.625.625a2 2 0 0 0 0 2.83l.25.258-6.375 6.375a4.97 4.97 0 0 0-1.316 4.75l-1 2.301a1.71 1.71 0 0 0 .359 1.903 1.99 1.99 0 0 0 2.214.418l2.19-.956a4.99 4.99 0 0 0 4.632-1.344l6.375-6.375.258.258a2 2 0 0 0 2.827 0l.625-.625a3 3 0 0 0 .093-4.148l2.968-2.983A4.47 4.47 0 0 0 28 8.413M12.125 24.125a3 3 0 0 1-3 .75 1 1 0 0 0-.694.039l-2.262.989.956-2.227a1 1 0 0 0 .031-.718 2.99 2.99 0 0 1 .719-3.083L14.25 13.5l4.242 4.25z"/>
</svg>
