<svg xmlns="http://www.w3.org/2000/svg" fill="none" viewBox="0 0 32 32">
  <path fill="#000" d="M6.74 4.328a1 1 0 1 0-1.48 1.345l2.405 2.646c-4.54 2.786-6.493 7.081-6.579 7.276a1 1 0 0 0 0 .813c.044.098 1.103 2.446 3.456 4.8C7.68 24.343 11.64 26 16 26c2.24.013 4.459-.448 6.509-1.354l2.75 3.027a1 1 0 1 0 1.48-1.345zm11.125 15.21a4 4 0 0 1-5.209-5.73zm13.049-3.13c-.053.117-1.319 2.92-4.17 5.475a1 1 0 0 1-1.408-.072L12.675 7.884a1 1 0 0 1 .575-1.66A17 17 0 0 1 16 6c4.36 0 8.321 1.658 11.457 4.794 2.354 2.354 3.413 4.702 3.457 4.801a1 1 0 0 1 0 .813"/>
</svg>
