<svg xmlns="http://www.w3.org/2000/svg" fill="none" viewBox="0 0 32 32">
  <path fill="#000" d="M28 9h-.106a2 2 0 0 0-1.21-1.25l-10-3.625a2 2 0 0 0-1.368 0l-10 3.636a2 2 0 0 0-1.21 1.25H4A4 4 0 0 0 0 13v3a4 4 0 0 0 4 4h.641c.818 1.805 2.408 3.39 4.713 4.67 2.625 1.46 5.44 2.125 6.24 2.287.268.057.544.057.812 0 .8-.167 3.613-.827 6.24-2.287 2.305-1.28 3.895-2.865 4.713-4.67H28a4 4 0 0 0 4-4v-3a4 4 0 0 0-4-4M4 18a2 2 0 0 1-2-2v-3a2 2 0 0 1 2-2v6.019q0 .493.066.98H4zm17 0H11a1 1 0 1 1 0-2h10a1 1 0 0 1 0 2m0-4H11a1 1 0 1 1 0-2h10a1 1 0 0 1 0 2m9 2a2 2 0 0 1-2 2h-.066a8 8 0 0 0 .066-.981v-6.02a2 2 0 0 1 2 2v3z"/>
</svg>
