<svg xmlns="http://www.w3.org/2000/svg" fill="none" viewBox="0 0 32 32">
  <path fill="#000" d="M22 13a1 1 0 0 1-1 1H11a1 1 0 1 1 0-2h10a1 1 0 0 1 1 1m-1 3H11a1 1 0 0 0 0 2h10a1 1 0 1 0 0-2m11-3v3a4 4 0 0 1-4 4h-.641c-.818 1.805-2.408 3.39-4.713 4.67-2.625 1.46-5.44 2.125-6.24 2.287a2 2 0 0 1-.812 0c-.8-.167-3.613-.827-6.24-2.287C7.049 23.39 5.459 21.805 4.64 20H4a4 4 0 0 1-4-4v-3a4 4 0 0 1 4-4h.106a2 2 0 0 1 1.21-1.25l10-3.636a2 2 0 0 1 1.368 0l10 3.636A2 2 0 0 1 27.894 9H28a4 4 0 0 1 4 4M4.066 18A7.5 7.5 0 0 1 4 17.019v-6.02a2 2 0 0 0-2 2v3a2 2 0 0 0 2 2h.066zM26 17.019V9.636L16 6 6 9.636v7.383c0 5.72 8.98 7.766 10 7.98 1.02-.214 10-2.26 10-7.98m4-4.02a2 2 0 0 0-2-2v6.02q0 .493-.066.98H28a2 2 0 0 0 2-2z"/>
</svg>
