<svg xmlns="http://www.w3.org/2000/svg" fill="none" viewBox="0 0 32 32">
  <path fill="#000" d="M14.5 22a1 1 0 0 1-1 1H10a1 1 0 0 1 0-2h3.5a1 1 0 0 1 1 1m7.5-1h-3.5a1 1 0 0 0 0 2H22a1 1 0 0 0 0-2m9 6a1 1 0 0 1-1 1H2a1 1 0 0 1 0-2h2V11a1 1 0 0 1 1.6-.8L12 15v-4a1 1 0 0 1 1.6-.8l4.842 3.631 1.445-10.114A2.01 2.01 0 0 1 21.867 2h2.265a2.01 2.01 0 0 1 1.98 1.717l1.876 13.142s.01.097.01.141v9h2A1 1 0 0 1 31 27M20.267 15.2l1.067.8h4.514L24.133 4h-2.265zM6 26h20v-8h-5a1 1 0 0 1-.6-.2l-1.8-1.35L14 13v4a1 1 0 0 1-1.6.8L6 13z"/>
</svg>
