<svg xmlns="http://www.w3.org/2000/svg" fill="none" viewBox="0 0 32 32">
  <path fill="#000" d="M17 15v12a1 1 0 0 1-2 0V15a1 1 0 0 1 2 0m8 9a1 1 0 0 0-1 1v2a1 1 0 0 0 2 0v-2a1 1 0 0 0-1-1m3-6h-2V5a1 1 0 0 0-2 0v13h-2a1 1 0 0 0-1 1v2a1 1 0 0 0 1 1h6a1 1 0 0 0 1-1v-2a1 1 0 0 0-1-1M7 20a1 1 0 0 0-1 1v6a1 1 0 1 0 2 0v-6a1 1 0 0 0-1-1m3-6H8V5a1 1 0 0 0-2 0v9H4a1 1 0 0 0-1 1v2a1 1 0 0 0 1 1h6a1 1 0 0 0 1-1v-2a1 1 0 0 0-1-1m9-6h-2V5a1 1 0 0 0-2 0v3h-2a1 1 0 0 0-1 1v2a1 1 0 0 0 1 1h6a1 1 0 0 0 1-1V9a1 1 0 0 0-1-1"/>
</svg>
