<svg xmlns="http://www.w3.org/2000/svg" fill="none" viewBox="0 0 32 32">
  <path fill="#000" d="m26.48 16.851-7.474 7.56a1.97 1.97 0 0 1-1.4.584h-8.19l-3.708 3.713a1.001 1.001 0 0 1-1.415-1.415l2.823-2.823L15.588 16h10.537a.5.5 0 0 1 .355.851m.608-13.03a8 8 0 0 0-10.738.518l-1.2 1.185a.5.5 0 0 0-.15.351v7.875l6.875-6.875A1 1 0 0 1 23.29 8.29L17.589 14h11.047a.5.5 0 0 0 .445-.27 8.01 8.01 0 0 0-1.993-9.909M7.854 20.904 13 15.758V8.845a.5.5 0 0 0-.851-.355L7.586 13A2 2 0 0 0 7 14.414v6.136a.5.5 0 0 0 .854.354"/>
</svg>
