<svg xmlns="http://www.w3.org/2000/svg" fill="none" viewBox="0 0 32 32">
  <path fill="#000" d="m26.707 10.293-7-7A1 1 0 0 0 19 3H7a2 2 0 0 0-2 2v9a1 1 0 0 0 1 1h20a1 1 0 0 0 1-1v-3a1 1 0 0 0-.293-.707M19 11V5.5l5.5 5.5zm-8.023 13.539a2.6 2.6 0 0 1-1.148 1.903c-.649.433-1.454.558-2.187.558a7.7 7.7 0 0 1-1.892-.25 1 1 0 0 1 .537-1.926c.548.15 1.87.337 2.444-.045.11-.074.229-.19.268-.491.043-.334-.089-.513-1.598-.95-1.169-.337-3.125-.903-2.875-2.888a2.57 2.57 0 0 1 1.125-1.869c1.48-1 3.84-.413 4.104-.345a1 1 0 1 1-.509 1.935c-.56-.146-1.904-.32-2.479.07a.57.57 0 0 0-.25.459c-.013.113-.017.136.14.238.29.186.805.335 1.307.48 1.223.353 3.293.957 3.013 3.12zm7.965-5.203-2.5 7a1 1 0 0 1-1.883 0l-2.5-7a1 1 0 1 1 1.882-.672l1.559 4.362 1.558-4.362a1 1 0 1 1 1.883.672zM27 23v2.109a1 1 0 0 1-.277.691A3.76 3.76 0 0 1 24 27c-2.205 0-4-2.019-4-4.5s1.795-4.5 4-4.5a3.67 3.67 0 0 1 2.06.64 1 1 0 0 1-1.119 1.657A1.66 1.66 0 0 0 24 20c-1.102 0-2 1.125-2 2.5s.898 2.5 2 2.5c.361-.002.712-.12 1-.339V24a1 1 0 0 1 0-2h1a1 1 0 0 1 1 1"/>
</svg>
