<svg xmlns="http://www.w3.org/2000/svg" fill="none" viewBox="0 0 32 32">
  <path fill="#000" d="M6 22.5c0 1.375.897 2.5 2 2.5a1.78 1.78 0 0 0 1.277-.582 1 1 0 1 1 1.444 1.382A3.75 3.75 0 0 1 8 27c-2.206 0-4-2.019-4-4.5S5.794 18 8 18a3.75 3.75 0 0 1 2.721 1.2 1 1 0 1 1-1.444 1.383A1.77 1.77 0 0 0 8 20c-1.103 0-2 1.125-2 2.5m9.95-1.086c-.5-.145-1.018-.294-1.306-.48-.158-.102-.154-.125-.14-.238a.57.57 0 0 1 .25-.459c.575-.39 1.918-.216 2.479-.07a1 1 0 1 0 .508-1.934c-.265-.07-2.625-.653-4.104.345a2.57 2.57 0 0 0-1.125 1.868c-.25 1.985 1.705 2.551 2.875 2.889 1.51.436 1.642.615 1.598.949-.039.301-.157.417-.267.491-.576.383-1.897.195-2.444.045a1 1 0 0 0-.538 1.926 7.6 7.6 0 0 0 1.898.25c.729 0 1.537-.125 2.186-.557a2.6 2.6 0 0 0 1.149-1.904c.281-2.16-1.784-2.764-3.019-3.121m8 0c-.5-.145-1.017-.294-1.306-.48-.156-.102-.154-.125-.14-.238a.57.57 0 0 1 .25-.459c.575-.39 1.917-.216 2.477-.07a1 1 0 0 0 .509-1.934c-.264-.07-2.625-.653-4.104.345a2.57 2.57 0 0 0-1.119 1.868c-.25 1.985 1.707 2.551 2.875 2.889 1.508.436 1.64.615 1.598.949-.039.301-.157.417-.269.491-.575.383-1.895.195-2.442.045a1.001 1.001 0 1 0-.538 1.93c.62.162 1.258.246 1.899.25.727 0 1.537-.125 2.186-.558a2.6 2.6 0 0 0 1.148-1.903c.276-2.164-1.789-2.768-3.025-3.125zM5 14V5a2 2 0 0 1 2-2h12a1 1 0 0 1 .707.292l7 7A1 1 0 0 1 27 11v3a1 1 0 0 1-1 1H6a1 1 0 0 1-1-1m14-3h5.5L19 5.5z"/>
</svg>
