<svg xmlns="http://www.w3.org/2000/svg" fill="none" viewBox="0 0 32 32">
  <path fill="#000" d="M18.476 24.539a2.6 2.6 0 0 1-1.148 1.903c-.65.433-1.453.558-2.187.558a7.6 7.6 0 0 1-1.899-.25 1 1 0 1 1 .54-1.926c.547.151 1.874.338 2.443-.044.11-.075.229-.19.267-.491.043-.334-.09-.513-1.597-.949-1.169-.337-3.125-.904-2.875-2.889a2.57 2.57 0 0 1 1.125-1.869c1.481-1 3.84-.413 4.105-.345a1 1 0 0 1-.509 1.936c-.561-.147-1.903-.32-2.479.07a.57.57 0 0 0-.25.458c-.014.113-.017.135.14.238.288.186.806.335 1.306.48 1.228.352 3.292.956 3.018 3.12M9 18a1 1 0 0 0-1 1v4.75a1.25 1.25 0 0 1-2.5 0 1 1 0 1 0-2 0 3.25 3.25 0 1 0 6.5 0V19a1 1 0 0 0-1-1m17.581.186a1 1 0 0 0-1.395.233L23.5 20.78l-1.686-2.361a1 1 0 0 0-1.625 1.162L22.27 22.5l-2.085 2.919a1 1 0 0 0 1.625 1.162l1.69-2.361 1.686 2.361a1 1 0 0 0 1.625-1.162L24.73 22.5l2.085-2.919a1 1 0 0 0-.233-1.395zM27 11v3a1 1 0 0 1-2 0v-2h-6a1 1 0 0 1-1-1V5H7v9a1 1 0 1 1-2 0V5a2 2 0 0 1 2-2h12a1 1 0 0 1 .707.292l7 7A1 1 0 0 1 27 11m-3.414-1L20 6.414V10z"/>
</svg>
