<svg xmlns="http://www.w3.org/2000/svg" fill="none" viewBox="0 0 32 32">
  <path fill="#000" d="M28 19a1 1 0 0 1-1 1h-1.5v6a1 1 0 0 1-2 0v-6H22a1 1 0 0 1 0-2h5a1 1 0 0 1 1 1m-16.5 2.5A3.5 3.5 0 0 1 8 25H7v1a1 1 0 1 1-2 0v-7a1 1 0 0 1 1-1h2a3.5 3.5 0 0 1 3.5 3.5m-2 0A1.5 1.5 0 0 0 8 20H7v3h1a1.5 1.5 0 0 0 1.5-1.5m10.5 0a3.5 3.5 0 0 1-3.5 3.5h-1v1a1 1 0 0 1-2 0v-7a1 1 0 0 1 1-1h2a3.5 3.5 0 0 1 3.5 3.5m-2 0a1.5 1.5 0 0 0-1.5-1.5h-1v3h1a1.5 1.5 0 0 0 1.5-1.5M5 14V5a2 2 0 0 1 2-2h12a1 1 0 0 1 .707.292l7 7A1 1 0 0 1 27 11v3a1 1 0 0 1-1 1H6a1 1 0 0 1-1-1m14-3h5.5L19 5.5z"/>
</svg>
