<svg xmlns="http://www.w3.org/2000/svg" fill="none" viewBox="0 0 32 32">
  <path fill="#000" d="M28 19a1 1 0 0 1-1 1h-3v2h2a1 1 0 0 1 0 2h-2v2a1 1 0 0 1-2 0v-7a1 1 0 0 1 1-1h4a1 1 0 0 1 1 1m-16.5 2.5A3.5 3.5 0 0 1 8 25H7v1a1 1 0 1 1-2 0v-7a1 1 0 0 1 1-1h2a3.5 3.5 0 0 1 3.5 3.5m-2 0A1.5 1.5 0 0 0 8 20H7v3h1a1.5 1.5 0 0 0 1.5-1.5m11 1A4.5 4.5 0 0 1 16 27h-2a1 1 0 0 1-1-1v-7a1 1 0 0 1 1-1h2a4.5 4.5 0 0 1 4.5 4.5m-2 0A2.5 2.5 0 0 0 16 20h-1v5h1a2.5 2.5 0 0 0 2.5-2.5M5 14V5a2 2 0 0 1 2-2h12a1 1 0 0 1 .707.292l7 7A1 1 0 0 1 27 11v3a1 1 0 0 1-2 0v-2h-6a1 1 0 0 1-1-1V5H7v9a1 1 0 1 1-2 0m15-4h3.586L20 6.414z"/>
</svg>
