<svg xmlns="http://www.w3.org/2000/svg" fill="none" viewBox="0 0 32 32">
  <path fill="#000" d="M10 28a1 1 0 0 1-1 1H7a2 2 0 0 1-2-2v-4a1 1 0 1 1 2 0v4h2a1 1 0 0 1 1 1m17-17v6a1 1 0 0 1-2 0v-5h-6a1 1 0 0 1-1-1V5h-3a1 1 0 1 1 0-2h4a1 1 0 0 1 .707.292l7 7A1 1 0 0 1 27 11m-7-1h3.586L20 6.414zM10 3H7a2 2 0 0 0-2 2v3a1 1 0 0 0 2 0V5h3a1 1 0 1 0 0-2m16 18a1 1 0 0 0-1 1v5h-1a1 1 0 0 0 0 2h1a2 2 0 0 0 2-2v-5a1 1 0 0 0-1-1M6 19a1 1 0 0 0 1-1v-5a1 1 0 1 0-2 0v5a1 1 0 0 0 1 1m13 8h-5a1 1 0 0 0 0 2h5a1 1 0 0 0 0-2"/>
</svg>
