<svg xmlns="http://www.w3.org/2000/svg" fill="none" viewBox="0 0 32 32">
  <path fill="#000" d="M19.5 26a1 1 0 0 1-1 1H15a1 1 0 0 1-1-1v-7a1 1 0 1 1 2 0v6h2.5a1 1 0 0 1 1 1m-7.919-7.814a1 1 0 0 0-1.395.233L8.5 20.78l-1.686-2.361a1 1 0 1 0-1.625 1.162L7.27 22.5l-2.085 2.919a1 1 0 0 0 1.625 1.162L8.5 24.22l1.685 2.361a1 1 0 0 0 1.625-1.162L9.73 22.5l2.085-2.919a1 1 0 0 0-.233-1.395zm12.368 3.228c-.5-.145-1.018-.294-1.306-.48-.157-.103-.154-.125-.14-.238a.57.57 0 0 1 .25-.459c.575-.39 1.917-.214 2.477-.07a1 1 0 1 0 .509-1.934c-.264-.07-2.625-.653-4.104.345a2.57 2.57 0 0 0-1.119 1.868c-.25 1.985 1.707 2.551 2.875 2.889 1.508.436 1.64.615 1.598.949-.039.301-.158.416-.269.491-.575.383-1.895.194-2.442.044a1.002 1.002 0 1 0-.537 1.931 7.6 7.6 0 0 0 1.9.25c.727 0 1.537-.125 2.185-.558a2.6 2.6 0 0 0 1.148-1.903c.276-2.164-1.789-2.768-3.025-3.125M5 14V5a2 2 0 0 1 2-2h12a1 1 0 0 1 .708.292l7 7A1 1 0 0 1 27 11v3a1 1 0 0 1-2 0v-2h-6a1 1 0 0 1-1-1V5H7v9a1 1 0 1 1-2 0m15-4h3.585L20 6.414z"/>
</svg>
