<svg xmlns="http://www.w3.org/2000/svg" fill="none" viewBox="0 0 32 32">
  <path fill="#000" d="M27 14v-3a1 1 0 0 0-.293-.707l-7-7A1 1 0 0 0 19 3H7a2 2 0 0 0-2 2v9a1 1 0 0 0 1 1h20a1 1 0 0 0 1-1m-8-3V5.5l5.5 5.5zm-3 8a1 1 0 0 1-1 1h-1v6a1 1 0 0 1-2 0v-6h-1a1 1 0 0 1 0-2h4a1 1 0 0 1 1 1m-7 0v7a1 1 0 1 1-2 0v-2.5H5V26a1 1 0 1 1-2 0v-7a1 1 0 1 1 2 0v2.5h2V19a1 1 0 1 1 2 0m22 7a1 1 0 0 1-1 1h-2.5a1 1 0 0 1-1-1v-7a1 1 0 0 1 2 0v6H30a1 1 0 0 1 1 1m-6-7v7a1 1 0 0 1-2 0v-3.39l-1.142 1.905a1 1 0 0 1-1.716 0L19 22.61V26a1 1 0 0 1-2 0v-7a1 1 0 0 1 1.858-.515L21 22.056l2.142-3.571A1 1 0 0 1 25 19"/>
</svg>
