<svg xmlns="http://www.w3.org/2000/svg" fill="none" viewBox="0 0 32 32">
  <path fill="#000" d="m26.707 10.293-7-7A1 1 0 0 0 19 3H7a2 2 0 0 0-2 2v9a1 1 0 1 0 2 0V5h11v6a1 1 0 0 0 1 1h6v15h-2a1 1 0 0 0 0 2h2a2 2 0 0 0 2-2V11a1 1 0 0 0-.293-.707M20 6.413 23.586 10H20zM8 18H6a1 1 0 0 0-1 1v7a1 1 0 1 0 2 0v-1h1q.361 0 .716-.074l.92 1.574a1 1 0 0 0 1.728-1l-.889-1.527A3.5 3.5 0 0 0 8 18m-1 5v-3h1a1.5 1.5 0 1 1 0 3zm12.476 1.539a2.6 2.6 0 0 1-1.148 1.903c-.65.433-1.453.558-2.187.558a7.7 7.7 0 0 1-1.898-.25 1 1 0 1 1 .538-1.926c.548.15 1.869.337 2.444-.045.11-.074.229-.19.267-.491.043-.334-.088-.513-1.597-.95-1.169-.337-3.125-.903-2.875-2.888a2.57 2.57 0 0 1 1.125-1.869c1.48-1 3.839-.413 4.104-.345a1 1 0 0 1-.509 1.935c-.561-.146-1.904-.32-2.479.07a.57.57 0 0 0-.25.459c-.015.113-.017.136.139.238.289.186.806.335 1.306.48 1.23.353 3.3.957 3.02 3.12z"/>
</svg>
