<svg xmlns="http://www.w3.org/2000/svg" fill="none" viewBox="0 0 32 32">
  <path fill="#000" d="M28 19a1 1 0 0 1-1 1h-1.5v6a1 1 0 0 1-2 0v-6H22a1 1 0 0 1 0-2h5a1 1 0 0 1 1 1m-8.92-.813a1.003 1.003 0 0 0-1.4.233l-1.692 2.371-1.693-2.37a1.003 1.003 0 0 0-1.63 1.167l2.09 2.93-2.093 2.93a1.004 1.004 0 0 0 1.63 1.168l1.696-2.37 1.692 2.37a1.004 1.004 0 0 0 1.63-1.167l-2.09-2.93 2.093-2.931a1.004 1.004 0 0 0-.233-1.401M11 19a1 1 0 0 1-1 1H8.5v6a1 1 0 1 1-2 0v-6H5a1 1 0 0 1 0-2h5a1 1 0 0 1 1 1m15.707-8.707-7-7A1 1 0 0 0 19 3H7a2 2 0 0 0-2 2v9a1 1 0 0 0 1 1h20a1 1 0 0 0 1-1v-3a1 1 0 0 0-.293-.707M19 11V5.5l5.5 5.5z"/>
</svg>
