<svg xmlns="http://www.w3.org/2000/svg" fill="none" viewBox="0 0 32 32">
  <path fill="#000" d="M10.977 24.539a2.6 2.6 0 0 1-1.148 1.903c-.649.433-1.454.558-2.187.558a7.7 7.7 0 0 1-1.892-.25 1 1 0 0 1 .537-1.926c.548.15 1.87.337 2.444-.045.11-.074.229-.19.268-.491.043-.334-.089-.513-1.598-.95-1.169-.337-3.125-.903-2.875-2.888a2.57 2.57 0 0 1 1.125-1.869c1.48-1 3.84-.413 4.104-.345a1 1 0 1 1-.509 1.935c-.56-.146-1.904-.32-2.479.07a.57.57 0 0 0-.25.459c-.013.113-.017.136.14.238.29.186.805.335 1.307.48 1.223.353 3.293.957 3.013 3.12zM27 11v3a1 1 0 0 1-2 0v-2h-6a1 1 0 0 1-1-1V5H7v9a1 1 0 1 1-2 0V5a2 2 0 0 1 2-2h12a1 1 0 0 1 .706.292l7 7A1 1 0 0 1 27 11m-7-1h3.586L20 6.414zm-1.663 8.059a1 1 0 0 0-1.278.605L15.5 23.026l-1.559-4.362a1 1 0 1 0-1.882.672l2.5 7a1 1 0 0 0 1.883 0l2.5-7a1 1 0 0 0-.605-1.277M26 22h-1a1 1 0 0 0 0 2v.661A1.67 1.67 0 0 1 24 25c-1.102 0-2-1.125-2-2.5s.898-2.5 2-2.5c.337.001.665.105.941.297a1 1 0 0 0 1.119-1.657A3.67 3.67 0 0 0 24 18c-2.205 0-4 2.019-4 4.5s1.795 4.5 4 4.5a3.76 3.76 0 0 0 2.723-1.2 1 1 0 0 0 .277-.691V23a1 1 0 0 0-1-1"/>
</svg>
