<svg xmlns="http://www.w3.org/2000/svg" fill="none" viewBox="0 0 32 32">
  <path fill="#000" d="M6.5 18h-2a1 1 0 0 0-1 1v7a1 1 0 0 0 1 1h2a4.5 4.5 0 1 0 0-9m0 7h-1v-5h1a2.5 2.5 0 0 1 0 5m21.191-.614a1 1 0 0 1 .032 1.414A3.76 3.76 0 0 1 25 27c-2.206 0-4-2.019-4-4.5s1.794-4.5 4-4.5a3.76 3.76 0 0 1 2.723 1.2 1 1 0 0 1-1.445 1.383A1.78 1.78 0 0 0 25 20c-1.102 0-2 1.125-2 2.5s.898 2.5 2 2.5a1.78 1.78 0 0 0 1.277-.582 1 1 0 0 1 1.414-.032M16 18c-2.206 0-4 2.019-4 4.5s1.794 4.5 4 4.5 4-2.019 4-4.5-1.794-4.5-4-4.5m0 7c-1.102 0-2-1.125-2-2.5s.898-2.5 2-2.5 2 1.125 2 2.5-.898 2.5-2 2.5M6 15a1 1 0 0 0 1-1V5h11v6a1 1 0 0 0 1 1h6v2a1 1 0 0 0 2 0v-3a1 1 0 0 0-.293-.707l-7-7A1 1 0 0 0 19 3H7a2 2 0 0 0-2 2v9a1 1 0 0 0 1 1m14-8.586L23.586 10H20z"/>
</svg>
