<svg xmlns="http://www.w3.org/2000/svg" fill="none" viewBox="0 0 32 32">
  <path fill="#000" d="M19 22.5a5.07 5.07 0 0 1-2.5 4.364 1 1 0 0 1-1-1.728 3.06 3.06 0 0 0 0-5.272 1 1 0 0 1 1-1.728A5.07 5.07 0 0 1 19 22.5m-6.617-6.424a1 1 0 0 0-1.09.216L8.585 19H6a1 1 0 0 0-1 1v5a1 1 0 0 0 1 1h2.586l2.707 2.707A1 1 0 0 0 13 28V17a1 1 0 0 0-.617-.924M27 11v16a2 2 0 0 1-2 2h-4a1 1 0 0 1 0-2h4V12h-6a1 1 0 0 1-1-1V5H7v10a1 1 0 1 1-2 0V5a2 2 0 0 1 2-2h12a1 1 0 0 1 .707.292l7 7A1 1 0 0 1 27 11m-7-1h3.586L20 6.414z"/>
</svg>
