<svg xmlns="http://www.w3.org/2000/svg" fill="none" viewBox="0 0 32 32">
  <path fill="#000" d="M7.5 18h-2a1 1 0 0 0-1 1v7a1 1 0 1 0 2 0v-1h1a3.5 3.5 0 1 0 0-7m0 5h-1v-3h1a1.5 1.5 0 1 1 0 3M28 25.109a1 1 0 0 1-.277.691A3.76 3.76 0 0 1 25 27c-2.206 0-4-2.019-4-4.5s1.794-4.5 4-4.5a3.7 3.7 0 0 1 2.06.639 1.002 1.002 0 1 1-1.125 1.659A1.65 1.65 0 0 0 25 20c-1.102 0-2 1.125-2 2.5s.898 2.5 2 2.5a1.7 1.7 0 0 0 1-.34V24a1 1 0 0 1 0-2h1a1 1 0 0 1 1 1zM19.5 19v7a1 1 0 0 1-1.814.581L14.5 22.125V26a1 1 0 0 1-2 0v-7a1 1 0 0 1 1.814-.581l3.186 4.456V19a1 1 0 0 1 2 0M6 15a1 1 0 0 0 1-1V5h11v6a1 1 0 0 0 1 1h6v2a1 1 0 0 0 2 0v-3a1 1 0 0 0-.293-.707l-7-7A1 1 0 0 0 19 3H7a2 2 0 0 0-2 2v9a1 1 0 0 0 1 1m14-8.586L23.586 10H20z"/>
</svg>
