<svg xmlns="http://www.w3.org/2000/svg" fill="none" viewBox="0 0 32 32">
  <path fill="#000" d="M6 15a1 1 0 0 0 1-1V5h11v6a1 1 0 0 0 1 1h6v2a1 1 0 0 0 2 0v-3a1 1 0 0 0-.293-.707l-7-7A1 1 0 0 0 19 3H7a2 2 0 0 0-2 2v9a1 1 0 0 0 1 1m14-8.586L23.586 10H20zM28.5 26a1 1 0 0 1-1 1H24a1 1 0 0 1-1-1v-7a1 1 0 0 1 2 0v6h2.5a1 1 0 0 1 1 1m-17.023-1.461a2.6 2.6 0 0 1-1.148 1.903c-.649.433-1.454.558-2.187.558a7.6 7.6 0 0 1-1.892-.25 1 1 0 0 1 .537-1.926c.548.15 1.87.337 2.444-.045.111-.074.229-.19.268-.491.043-.334-.089-.513-1.598-.95-1.168-.337-3.125-.903-2.875-2.888a2.57 2.57 0 0 1 1.125-1.869c1.48-1 3.84-.413 4.104-.345a1 1 0 0 1 .249 1.832 1 1 0 0 1-.759.103c-.561-.146-1.902-.32-2.477.07a.57.57 0 0 0-.25.459c-.015.113-.018.135.14.238.288.186.804.335 1.306.48 1.223.353 3.293.957 3.013 3.12zm8.875.403A4.9 4.9 0 0 0 21 22.5c0-2.481-1.794-4.5-4-4.5s-4 2.019-4 4.5 1.794 4.5 4 4.5a3.65 3.65 0 0 0 1.988-.598l.305.305a1 1 0 1 0 1.413-1.415zM17 25c-1.102 0-2-1.125-2-2.5s.898-2.5 2-2.5 2 1.125 2 2.5c0 .319-.05.636-.148.939l-.146-.146A1.001 1.001 0 0 0 17 24a1 1 0 0 0 .294.707l.21.21A1.6 1.6 0 0 1 17 25"/>
</svg>
