<svg xmlns="http://www.w3.org/2000/svg" fill="none" viewBox="0 0 32 32">
  <path fill="#000" d="M28 19a1 1 0 0 1-1 1h-1.5v6a1 1 0 0 1-2 0v-6H22a1 1 0 0 1 0-2h5a1 1 0 0 1 1 1M5 14V5a2 2 0 0 1 2-2h12a1 1 0 0 1 .707.292l7 7A1 1 0 0 1 27 11v3a1 1 0 0 1-2 0v-2h-6a1 1 0 0 1-1-1V5H7v9a1 1 0 1 1-2 0m15-4h3.586L20 6.414zm-.92 8.187a1.003 1.003 0 0 0-1.4.233l-1.692 2.371-1.693-2.37a1.003 1.003 0 0 0-1.63 1.167l2.09 2.93-2.093 2.93a1.004 1.004 0 0 0 1.63 1.168l1.696-2.37 1.692 2.37a1.004 1.004 0 0 0 1.63-1.167l-2.09-2.93 2.093-2.931a1.004 1.004 0 0 0-.233-1.401M11 19a1 1 0 0 1-1 1H8.5v6a1 1 0 1 1-2 0v-6H5a1 1 0 0 1 0-2h5a1 1 0 0 1 1 1"/>
</svg>
