<svg xmlns="http://www.w3.org/2000/svg" fill="none" viewBox="0 0 32 32">
  <path fill="#000" d="M26.814 19.581 24.729 22.5l2.085 2.919a1 1 0 0 1-1.625 1.162L23.5 24.22l-1.686 2.361a1 1 0 1 1-1.625-1.162L22.27 22.5l-2.085-2.919a1 1 0 0 1 1.625-1.162l1.69 2.361 1.686-2.361a1 1 0 0 1 1.625 1.162zM15.45 21.414c-.5-.145-1.018-.294-1.306-.48-.156-.103-.154-.125-.139-.238a.57.57 0 0 1 .25-.459c.575-.39 1.917-.216 2.479-.07a1.001 1.001 0 1 0 .516-1.934c-.265-.07-2.625-.653-4.105.345a2.57 2.57 0 0 0-1.125 1.868c-.25 1.985 1.706 2.551 2.875 2.889 1.508.436 1.64.615 1.598.949-.04.301-.158.416-.268.491-.575.383-1.896.195-2.444.044a1.002 1.002 0 1 0-.539 1.931 7.6 7.6 0 0 0 1.9.25c.727 0 1.537-.125 2.186-.558a2.6 2.6 0 0 0 1.148-1.903c.274-2.164-1.79-2.768-3.026-3.125M10 18H5a1 1 0 0 0 0 2h1.5v6a1 1 0 1 0 2 0v-6H10a1 1 0 0 0 0-2m17-7v3a1 1 0 0 1-2 0v-2h-6a1 1 0 0 1-1-1V5H7v9a1 1 0 1 1-2 0V5a2 2 0 0 1 2-2h12a1 1 0 0 1 .707.292l7 7A1 1 0 0 1 27 11m-3.414-1L20 6.414V10z"/>
</svg>
