<svg xmlns="http://www.w3.org/2000/svg" fill="none" viewBox="0 0 32 32">
  <path fill="#000" d="m26.706 10.293-7-7A1 1 0 0 0 19 3H7a2 2 0 0 0-2 2v9a1 1 0 0 0 1 1h20a1 1 0 0 0 1-1v-3a1 1 0 0 0-.294-.707M19 11V5.5l5.5 5.5zM6 22.5c0 1.375.897 2.5 2 2.5a1.78 1.78 0 0 0 1.277-.582 1 1 0 0 1 1.446 1.382A3.76 3.76 0 0 1 8 27c-2.205 0-4-2.019-4-4.5S5.795 18 8 18a3.76 3.76 0 0 1 2.723 1.2 1 1 0 0 1-1.446 1.383A1.77 1.77 0 0 0 8 20c-1.103 0-2 1.125-2 2.5m12.976 2.039a2.6 2.6 0 0 1-1.148 1.903c-.65.433-1.453.558-2.187.558a7.7 7.7 0 0 1-1.899-.25 1 1 0 1 1 .54-1.926c.547.15 1.868.337 2.443-.045.11-.074.229-.19.267-.491.043-.334-.09-.513-1.597-.95-1.169-.337-3.125-.903-2.875-2.888a2.57 2.57 0 0 1 1.125-1.869c1.481-1 3.84-.413 4.105-.345a1 1 0 1 1-.509 1.935c-.561-.146-1.903-.32-2.479.07a.57.57 0 0 0-.25.459c-.013.113-.016.136.14.238.29.186.807.335 1.307.48 1.227.353 3.291.957 3.017 3.12zm7.965-5.203-2.5 7a1 1 0 0 1-1.883 0l-2.5-7a1 1 0 1 1 1.883-.672l1.559 4.362 1.558-4.362a1 1 0 1 1 1.883.672"/>
</svg>
