<svg xmlns="http://www.w3.org/2000/svg" fill="none" viewBox="0 0 32 32">
  <path fill="#000" d="m26.707 10.293-7-7A1 1 0 0 0 19 3H7a2 2 0 0 0-2 2v9a1 1 0 0 0 1 1h20a1 1 0 0 0 1-1v-3a1 1 0 0 0-.293-.707M19 11V5.5l5.5 5.5zm-8.057 8.336-2.5 7a1 1 0 0 1-1.884 0l-2.5-7a1 1 0 0 1 1.883-.672L7.5 23.026l1.559-4.362a1 1 0 0 1 1.884.672M23 20v1.5h2a1 1 0 0 1 0 2h-2V25h3a1 1 0 0 1 0 2h-4a1 1 0 0 1-1-1v-7a1 1 0 0 1 1-1h4a1 1 0 0 1 0 2zm-4-1v4.75a3.25 3.25 0 1 1-6.5 0V19a1 1 0 1 1 2 0v4.75a1.25 1.25 0 0 0 2.5 0V19a1 1 0 1 1 2 0"/>
</svg>
