<svg xmlns="http://www.w3.org/2000/svg" fill="none" viewBox="0 0 32 32">
  <path fill="#000" d="m26.707 10.293-7-7A1 1 0 0 0 19 3H7a2 2 0 0 0-2 2v22a2 2 0 0 0 2 2h4.5a.5.5 0 0 0 .5-.5V26h-.966A1.02 1.02 0 0 1 10 25.066 1 1 0 0 1 11 24h1v-2h-.966A1.02 1.02 0 0 1 10 21.066 1 1 0 0 1 11 20h1v-2h-.966A1.02 1.02 0 0 1 10 17.066 1 1 0 0 1 11 16h1v-.966a1.02 1.02 0 0 1 .934-1.032 1 1 0 0 1 1.066 1v1h.966a1.02 1.02 0 0 1 1.032.934 1 1 0 0 1-1 1.067h-1v2h.966a1.02 1.02 0 0 1 1.031.933 1 1 0 0 1-1 1.067h-1v2h.966a1.02 1.02 0 0 1 1.031.933 1 1 0 0 1-1 1.067h-1v2.5a.5.5 0 0 0 .5.5h10.5a2 2 0 0 0 2-2V11a1 1 0 0 0-.285-.707M19 11V5.5l5.5 5.5z"/>
</svg>
