<svg xmlns="http://www.w3.org/2000/svg" fill="none" viewBox="0 0 32 32">
  <path fill="#000" d="M6 15h20a1 1 0 0 0 1-1v-3a1 1 0 0 0-.293-.707l-7-7A1 1 0 0 0 19 3H7a2 2 0 0 0-2 2v9a1 1 0 0 0 1 1m13-9.5 5.5 5.5H19zM15 18h-2a1 1 0 0 0-1 1v7a1 1 0 0 0 2 0v-1h1a3.5 3.5 0 1 0 0-7m0 5h-1v-3h1a1.5 1.5 0 1 1 0 3m12 2.109a1 1 0 0 1-.277.691A3.76 3.76 0 0 1 24 27c-2.205 0-4-2.019-4-4.5s1.795-4.5 4-4.5a3.67 3.67 0 0 1 2.06.64 1.002 1.002 0 0 1-1.125 1.657A1.65 1.65 0 0 0 24 20c-1.102 0-2 1.125-2 2.5s.898 2.5 2 2.5c.36-.004.71-.123 1-.339V24a1 1 0 0 1 0-2h1a1 1 0 0 1 1 1zM10 19v4.75a3.25 3.25 0 1 1-6.5 0 1 1 0 1 1 2 0 1.25 1.25 0 0 0 2.5 0V19a1 1 0 1 1 2 0"/>
</svg>
