<svg xmlns="http://www.w3.org/2000/svg" fill="none" viewBox="0 0 32 32">
  <path fill="#000" d="m26.707 10.293-7-7A1 1 0 0 0 19 3H7a2 2 0 0 0-2 2v9a1 1 0 0 0 1 1h14a1 1 0 0 1 1 1v12a1 1 0 0 0 1 1h3a2 2 0 0 0 2-2V11a1 1 0 0 0-.293-.707M19 11V5.5l5.5 5.5zm-.524 13.539a2.6 2.6 0 0 1-1.148 1.903c-.65.433-1.453.558-2.187.558a7.6 7.6 0 0 1-1.891-.25 1 1 0 1 1 .537-1.926c.548.15 1.875.337 2.444-.045.11-.074.229-.19.268-.491.044-.334-.089-.513-1.598-.95-1.168-.337-3.125-.903-2.875-2.888a2.57 2.57 0 0 1 1.125-1.869c1.48-1 3.839-.413 4.104-.345a1 1 0 0 1-.509 1.935c-.561-.146-1.903-.32-2.478.07a.57.57 0 0 0-.25.459c-.016.113-.018.136.138.238.289.186.806.335 1.306.48 1.224.353 3.294.957 3.014 3.12zM11 19a1 1 0 0 1-1 1H8.5v6a1 1 0 1 1-2 0v-6H5a1 1 0 0 1 0-2h5a1 1 0 0 1 1 1"/>
</svg>
