<svg xmlns="http://www.w3.org/2000/svg" fill="none" viewBox="0 0 32 32">
  <path fill="#000" d="M10 28a1 1 0 0 1-1 1H7a2 2 0 0 1-2-2v-4a1 1 0 1 1 2 0v4h2a1 1 0 0 1 1 1m16.707-17.707-7-7A1 1 0 0 0 19 3h-4a1 1 0 1 0 0 2h3v6a1 1 0 0 0 1 1h6v5a1 1 0 0 0 2 0v-6a1 1 0 0 0-.293-.707M10 3H7a2 2 0 0 0-2 2v3a1 1 0 0 0 2 0V5h3a1 1 0 1 0 0-2m16 18a1 1 0 0 0-1 1v5h-1a1 1 0 0 0 0 2h1a2 2 0 0 0 2-2v-5a1 1 0 0 0-1-1M6 19a1 1 0 0 0 1-1v-5a1 1 0 1 0-2 0v5a1 1 0 0 0 1 1m13 8h-5a1 1 0 0 0 0 2h5a1 1 0 0 0 0-2"/>
</svg>
