<svg xmlns="http://www.w3.org/2000/svg" fill="none" viewBox="0 0 32 32">
  <path fill="#000" d="m26.707 10.293-7-7A1 1 0 0 0 19 3H7a2 2 0 0 0-2 2v9a1 1 0 0 0 1 1h20a1 1 0 0 0 1-1v-3a1 1 0 0 0-.293-.707M19 11V5.5l5.5 5.5zm-.524 13.539a2.6 2.6 0 0 1-1.148 1.903c-.65.433-1.453.558-2.187.558a7.6 7.6 0 0 1-1.891-.25 1 1 0 1 1 .537-1.926c.548.151 1.875.338 2.444-.044.11-.075.229-.19.268-.491.042-.334-.09-.513-1.598-.949-1.168-.337-3.125-.904-2.875-2.89a2.57 2.57 0 0 1 1.125-1.867c1.482-1 3.84-.414 4.105-.345a1.001 1.001 0 0 1-.509 1.934c-.56-.146-1.903-.32-2.478.07a.57.57 0 0 0-.25.46c-.015.112-.018.134.139.237.288.186.806.335 1.306.48 1.222.352 3.286.956 3.012 3.12M10 19v4.75a3.25 3.25 0 1 1-6.5 0 1 1 0 1 1 2 0 1.25 1.25 0 0 0 2.5 0V19a1 1 0 1 1 2 0m16.814.581L24.729 22.5l2.085 2.919a1 1 0 0 1-1.625 1.162L23.5 24.22l-1.686 2.361a1 1 0 1 1-1.625-1.162L22.27 22.5l-2.085-2.919a1 1 0 0 1 1.625-1.162l1.69 2.361 1.686-2.361a1 1 0 0 1 1.625 1.162z"/>
</svg>
