<svg xmlns="http://www.w3.org/2000/svg" fill="none" viewBox="0 0 32 32">
  <path fill="#000" d="M6 15h20a1 1 0 0 0 1-1v-3a1 1 0 0 0-.293-.707l-7-7A1 1 0 0 0 19 3H7a2 2 0 0 0-2 2v9a1 1 0 0 0 1 1m13-9.5 5.5 5.5H19zm.5 20.5a1 1 0 0 1-1 1H15a1 1 0 0 1-1-1v-7a1 1 0 0 1 2 0v6h2.5a1 1 0 0 1 1 1m-7.686-6.419L9.729 22.5l2.085 2.919a1 1 0 0 1-1.625 1.162L8.5 24.22l-1.686 2.361a1 1 0 1 1-1.625-1.162L7.27 22.5l-2.085-2.919a1 1 0 1 1 1.625-1.162L8.5 20.78l1.686-2.361a1 1 0 0 1 1.625 1.162zm15.16 4.958a2.6 2.6 0 0 1-1.148 1.903c-.649.433-1.459.558-2.186.558a7.6 7.6 0 0 1-1.899-.25 1 1 0 1 1 .539-1.926c.547.151 1.867.338 2.442-.044.112-.075.23-.19.27-.491.042-.334-.09-.513-1.598-.949-1.169-.337-3.125-.904-2.875-2.89a2.57 2.57 0 0 1 1.119-1.867c1.48-1 3.84-.414 4.103-.345a1 1 0 0 1-.508 1.934c-.56-.146-1.903-.32-2.478.07a.57.57 0 0 0-.25.46c-.014.112-.016.134.14.237.289.186.806.335 1.306.48 1.234.352 3.299.956 3.023 3.12"/>
</svg>
