<svg xmlns="http://www.w3.org/2000/svg" fill="none" viewBox="0 0 32 32">
  <path fill="#000" d="M12.383 16.076a1 1 0 0 0-1.09.216L8.585 19H6a1 1 0 0 0-1 1v5a1 1 0 0 0 1 1h2.586l2.707 2.707A1 1 0 0 0 13 28V17a1 1 0 0 0-.617-.924M11 25.586l-1.293-1.293A1 1 0 0 0 9 24H7v-3h2a1 1 0 0 0 .707-.293L11 19.415v6.172zm8-3.086a5.07 5.07 0 0 1-2.5 4.364 1 1 0 0 1-1-1.728 3.06 3.06 0 0 0 0-5.272 1 1 0 0 1 1-1.728A5.07 5.07 0 0 1 19 22.5m7.707-12.207-7-7A1 1 0 0 0 19 3H7a2 2 0 0 0-2 2v10a1 1 0 1 0 2 0V5h11v6a1 1 0 0 0 1 1h6v15h-4a1 1 0 0 0 0 2h4a2 2 0 0 0 2-2V11a1 1 0 0 0-.293-.707M20 6.413 23.586 10H20z"/>
</svg>
