<svg xmlns="http://www.w3.org/2000/svg" fill="none" viewBox="0 0 32 32">
  <path fill="#000" d="M16 19a1 1 0 0 1-1 1h-1v6a1 1 0 0 1-2 0v-6h-1a1 1 0 0 1 0-2h4a1 1 0 0 1 1 1m-8-1a1 1 0 0 0-1 1v2.5H5V19a1 1 0 1 0-2 0v7a1 1 0 1 0 2 0v-2.5h2V26a1 1 0 1 0 2 0v-7a1 1 0 0 0-1-1m22 7h-1.5v-6a1 1 0 0 0-2 0v7a1 1 0 0 0 1 1H30a1 1 0 0 0 0-2m-5.733-6.964a1 1 0 0 0-1.125.449L21 22.056l-2.142-3.571A1 1 0 0 0 17 19v7a1 1 0 0 0 2 0v-3.39l1.142 1.905a1 1 0 0 0 1.716 0L23 22.61V26a1 1 0 0 0 2 0v-7a1 1 0 0 0-.733-.964M26 15a1 1 0 0 1-1-1v-2h-6a1 1 0 0 1-1-1V5H7v9a1 1 0 1 1-2 0V5a2 2 0 0 1 2-2h12a1 1 0 0 1 .707.292l7 7A1 1 0 0 1 27 11v3a1 1 0 0 1-1 1m-2.414-5L20 6.414V10z"/>
</svg>
