<svg xmlns="http://www.w3.org/2000/svg" fill="none" viewBox="0 0 32 32">
  <path fill="#000" d="m10.943 19.336-2.5 7a1 1 0 0 1-1.884 0l-2.5-7a1 1 0 0 1 1.883-.672L7.5 23.026l1.559-4.362a1 1 0 0 1 1.884.672M26 20a1 1 0 0 0 0-2h-4a1 1 0 0 0-1 1v7a1 1 0 0 0 1 1h4a1 1 0 0 0 0-2h-3v-1.5h2a1 1 0 0 0 0-2h-2V20zm-8-2a1 1 0 0 0-1 1v4.75a1.25 1.25 0 1 1-2.5 0V19a1 1 0 0 0-2 0v4.75a3.25 3.25 0 1 0 6.5 0V19a1 1 0 0 0-1-1m9-7v3a1 1 0 0 1-2 0v-2h-6a1 1 0 0 1-1-1V5H7v9a1 1 0 1 1-2 0V5a2 2 0 0 1 2-2h12a1 1 0 0 1 .707.292l7 7A1 1 0 0 1 27 11m-3.414-1L20 6.414V10z"/>
</svg>
