<svg xmlns="http://www.w3.org/2000/svg" fill="none" viewBox="0 0 32 32">
  <path fill="#000" d="M15.802 3C8.842 3.106 3.152 8.761 3 15.726a12.94 12.94 0 0 0 1.69 6.693.5.5 0 0 0 .887-.038A14.9 14.9 0 0 0 7 16.006a8.97 8.97 0 0 1 3.376-7.027 1 1 0 1 1 1.232 1.576A6.98 6.98 0 0 0 9 16.009a16.9 16.9 0 0 1-2.306 8.543.5.5 0 0 0 .076.607c.25.25.511.5.781.727a.5.5 0 0 0 .75-.125 18.9 18.9 0 0 0 2.324-5.95 1 1 0 1 1 1.96.399 20.9 20.9 0 0 1-2.634 6.705.5.5 0 0 0 .2.704q.464.234.946.433a.5.5 0 0 0 .625-.2A22.9 22.9 0 0 0 15 16.034a1.02 1.02 0 0 1 .93-1.026 1 1 0 0 1 1.07 1 24.87 24.87 0 0 1-3.151 12.145.5.5 0 0 0 .368.74q.57.078 1.152.107a.5.5 0 0 0 .458-.262A26.86 26.86 0 0 0 19 16.1c.006-1.656-1.288-3.061-2.943-3.093A3 3 0 0 0 13 16a1.01 1.01 0 0 1-.911 1 1 1 0 0 1-1.09-1 5 5 0 0 1 5.053-5c2.75.029 4.96 2.396 4.947 5.145a28.9 28.9 0 0 1-2.565 11.821.5.5 0 0 0 .577.689 13 13 0 0 0 1.283-.375.5.5 0 0 0 .293-.277c.582-1.38 1.062-2.8 1.435-4.25a1 1 0 1 1 1.938.5q-.14.546-.3 1.087a.5.5 0 0 0 .807.521A13 13 0 0 0 15.802 3m8.948 17.135a1 1 0 0 1-1.984-.249c.16-1.285.24-2.58.24-3.875a7.01 7.01 0 0 0-7.875-6.946 1 1 0 0 1-.25-1.986 9.013 9.013 0 0 1 10.125 8.936 33 33 0 0 1-.256 4.12"/>
</svg>
