<svg xmlns="http://www.w3.org/2000/svg" fill="none" viewBox="0 0 32 32">
  <path fill="#000" d="M15.802 3C8.84 3.106 3.152 8.759 3 15.719a12.93 12.93 0 0 0 1.69 6.687.5.5 0 0 0 .887-.036A14.9 14.9 0 0 0 7 16c0-2.175.787-4.277 2.218-5.916a1.027 1.027 0 0 1 1.35-.2.998.998 0 0 1 .182 1.49A7 7 0 0 0 9 16c.004 3-.792 5.948-2.305 8.539a.5.5 0 0 0 .077.606q.745.756 1.603 1.381a.5.5 0 0 0 .728-.151 20 20 0 0 0 1.397-2.75 1 1 0 0 1 .924-.62 1 1 0 0 1 .926 1.382q-.631 1.527-1.48 2.943a.5.5 0 0 0 .235.717c1.003.41 2.053.69 3.125.838a.5.5 0 0 0 .51-.25 25.9 25.9 0 0 0 3.195-10.701 1 1 0 1 1 1.994.145 27.9 27.9 0 0 1-2.697 10.093.501.501 0 0 0 .51.718c.877-.118 1.74-.325 2.575-.619a.5.5 0 0 0 .293-.279A30.9 30.9 0 0 0 23 16.22c.028-3.83-2.925-7.084-6.75-7.216a7 7 0 0 0-2 .216 1 1 0 0 1-1.23-.776 1.03 1.03 0 0 1 .787-1.174A9.006 9.006 0 0 1 25 16a33.1 33.1 0 0 1-1.332 9.329.5.5 0 0 0 .809.518A13 13 0 0 0 15.802 3M16 12a4 4 0 0 1 2.982 1.334 1 1 0 0 1-.155 1.473 1.03 1.03 0 0 1-1.36-.167 2 2 0 0 0-2.098-.538 2.05 2.05 0 0 0-1.375 1.96 22 22 0 0 1-.399 4.124 1 1 0 0 1-1.157.796 1.04 1.04 0 0 1-.789-1.207A20 20 0 0 0 12 16a4 4 0 0 1 4-4"/>
</svg>
