<svg xmlns="http://www.w3.org/2000/svg" fill="none" viewBox="0 0 32 32">
  <path fill="#000" d="M21 12H11a5 5 0 0 0-5 5v1a5 5 0 0 0 5 5h10a5 5 0 0 0 5-5v-1a5 5 0 0 0-5-5m3 6a3 3 0 0 1-3 3H11a3 3 0 0 1-3-3v-1a3 3 0 0 1 3-3h10a3 3 0 0 1 3 3zm2-14a4.01 4.01 0 0 0-3.875 3H9.875A4 4 0 0 0 2 8v10a9.01 9.01 0 0 0 9 9h10a9.01 9.01 0 0 0 9-9V8a4 4 0 0 0-4-4m2 14a7.007 7.007 0 0 1-7 7H11a7.007 7.007 0 0 1-7-7V8a2 2 0 1 1 4 0 1 1 0 0 0 1 1h14a1 1 0 0 0 1-1 2 2 0 1 1 4 0zm-15-.5a1.5 1.5 0 1 1-3 0 1.5 1.5 0 0 1 3 0m9 0a1.5 1.5 0 1 1-3 0 1.5 1.5 0 0 1 3 0"/>
</svg>
