<svg xmlns="http://www.w3.org/2000/svg" fill="none" viewBox="0 0 32 32">
  <path fill="#000" d="M21 9.5a1.5 1.5 0 1 1-3 0 1.5 1.5 0 0 1 3 0m3.942 11.346c-3.382 3.375-8.677 4.794-15.79 4.244q.3 2.23.838 4.697a1 1 0 0 1-1.954.427 58 58 0 0 1-.923-5.33 59 59 0 0 1-5.327-.924 1 1 0 0 1 .428-1.954q2.463.538 4.692.838c-.548-7.111.875-12.405 4.25-15.786 5.469-5.485 14.148-3.945 15.832-3.58a2.01 2.01 0 0 1 1.535 1.535c.364 1.683 1.906 10.362-3.58 15.833zm-1.875-.986A13.015 13.015 0 0 1 12.141 8.926C9.445 11.97 8.375 16.71 8.928 23.07c6.36.556 11.1-.514 14.143-3.209h-.004zm3.5-14.424a21 21 0 0 0-6.156-.347c-2.53.25-4.675.979-6.406 2.182a11 11 0 0 0 10.724 10.73c1.202-1.732 1.936-3.876 2.182-6.407a21.1 21.1 0 0 0-.344-6.158"/>
</svg>
