<svg xmlns="http://www.w3.org/2000/svg" fill="none" viewBox="0 0 32 32">
  <path fill="#000" d="M21.008 9.493a1.5 1.5 0 1 1-3.001 0 1.5 1.5 0 0 1 3 0zm4.983 10.125c-2.595 3.296-6.731 5.092-12.301 5.346l-2.75 6.427a1 1 0 0 1-.924.61h-.064a1 1 0 0 1-.898-.723l-1.852-6.482-6.477-1.855a1 1 0 0 1-.125-1.88l6.429-2.75c.25-5.572 2.051-9.708 5.348-12.302 5.402-4.25 13.114-2.854 14.606-2.531a2 2 0 0 1 1.532 1.532c.33 1.49 1.727 9.21-2.524 14.615zm.575-14.187c-1.338-.29-8.25-1.548-12.946 2.148-.592.467-1.13 1-1.604 1.586a4.5 4.5 0 0 0 4.92 4.809 1 1 0 0 1 1.09 1.09 4.5 4.5 0 0 0 4.811 4.92 10 10 0 0 0 1.582-1.601c3.696-4.697 2.437-11.61 2.147-12.95z"/>
</svg>
