<svg xmlns="http://www.w3.org/2000/svg" fill="none" viewBox="0 0 32 32">
  <path fill="#000" d="M21.008 9.492a1.5 1.5 0 1 1-3.001 0 1.5 1.5 0 0 1 3 0zm4.983 10.125c-2.595 3.297-6.731 5.093-12.301 5.347l-2.75 6.427a1 1 0 0 1-.924.609h-.064a1 1 0 0 1-.898-.723l-1.852-6.48L.725 22.94A1 1 0 0 1 .6 21.06l6.429-2.75c.25-5.571 2.051-9.708 5.348-12.301 5.402-4.25 13.114-2.854 14.606-2.532a2 2 0 0 1 1.532 1.533c.33 1.49 1.727 9.21-2.524 14.615zm-5.791 1.96a6.51 6.51 0 0 1-4.177-5.6 6.51 6.51 0 0 1-5.598-4.176c-.875 1.983-1.345 4.389-1.413 7.203a1 1 0 0 1-.606.895L3.98 21.792l4.307 1.234a1 1 0 0 1 .687.686l1.23 4.308 1.897-4.426a1 1 0 0 1 .899-.607c2.81-.066 5.216-.538 7.2-1.41m6.366-16.143c-1.337-.29-8.25-1.55-12.946 2.147a10 10 0 0 0-1.604 1.584 4.5 4.5 0 0 0 4.92 4.809 1 1 0 0 1 1.09 1.09 4.5 4.5 0 0 0 4.811 4.92 10 10 0 0 0 1.582-1.602c3.696-4.696 2.437-11.61 2.147-12.948"/>
</svg>
