<svg xmlns="http://www.w3.org/2000/svg" fill="none" viewBox="0 0 32 32">
  <path fill="#000" d="M21 9.5a1.5 1.5 0 1 1-3 0 1.5 1.5 0 0 1 3 0m3.942 11.346c-3.382 3.375-8.677 4.794-15.79 4.244q.3 2.23.838 4.696a1 1 0 0 1-1.954.428 58 58 0 0 1-.923-5.33 59 59 0 0 1-5.327-.924 1 1 0 0 1 .428-1.954q2.463.538 4.692.838c-.548-7.112.875-12.405 4.25-15.787 5.469-5.485 14.148-3.945 15.832-3.58a2.01 2.01 0 0 1 1.535 1.535c.364 1.684 1.906 10.363-3.58 15.834zm1.625-15.41a21 21 0 0 0-6.156-.347c-2.53.25-4.675.978-6.406 2.182A11 11 0 0 0 24.729 18c1.202-1.731 1.936-3.875 2.182-6.406a21.1 21.1 0 0 0-.344-6.158"/>
</svg>
