<svg xmlns="http://www.w3.org/2000/svg" fill="none" viewBox="0 0 32 32">
  <path fill="#000" d="M27.415 5.094a1 1 0 0 0-1.07.156c-3.5 3.027-6.465 1.56-9.901-.141-3.56-1.764-7.596-3.76-12.099.14A1 1 0 0 0 4 6v21a1 1 0 1 0 2 0v-5.528c3.349-2.645 6.234-1.219 9.556.426 3.562 1.762 7.597 3.758 12.099-.14a1 1 0 0 0 .345-.75V6a1 1 0 0 0-.585-.906M26 7.95v5.581c-1.75 1.383-3.375 1.653-5 1.36V8.917a7.5 7.5 0 0 0 5-.967m-7 .47v5.875c-.832-.334-1.679-.75-2.556-1.186-1.103-.545-2.25-1.113-3.444-1.522V5.712c.832.333 1.679.75 2.556 1.185C16.66 7.444 17.808 8.011 19 8.42m-8-3.306v5.972a7.5 7.5 0 0 0-5 .969V6.472c1.75-1.382 3.375-1.65 5-1.358M9.822 18A7.5 7.5 0 0 0 6 19.054v-4.582c1.75-1.382 3.375-1.652 5-1.36v4.975A8 8 0 0 0 9.822 18m3.178.584v-4.875c.832.332 1.679.75 2.556 1.185 1.103.546 2.25 1.112 3.444 1.52v4.876c-.832-.334-1.679-.75-2.556-1.185-1.103-.546-2.251-1.113-3.444-1.521m8 3.306v-4.975q.586.087 1.177.09A7.5 7.5 0 0 0 26 15.946v4.585c-1.75 1.383-3.375 1.651-5 1.359"/>
</svg>
