<svg xmlns="http://www.w3.org/2000/svg" fill="none" viewBox="0 0 32 32">
  <path fill="#000" d="M27.415 5.094a1 1 0 0 0-1.07.156c-3.5 3.027-6.465 1.56-9.901-.141-3.56-1.764-7.596-3.76-12.099.14A1 1 0 0 0 4 6v21a1 1 0 1 0 2 0v-5.528c3.349-2.645 6.234-1.219 9.556.426 2.05 1.014 4.258 2.107 6.625 2.107 1.741 0 3.568-.594 5.478-2.25a1 1 0 0 0 .345-.75V6a1 1 0 0 0-.589-.906M6 19.054v-5.82c2.106-1.41 4.08-1.448 6-.917v5.968c-1.891-.476-3.891-.446-6 .77zm20 1.477c-2.109 1.665-4.034 1.715-6 1.114v-5.959c-2.703-.75-5.297-2.625-8-3.369V5.36c1.156.353 2.326.93 3.556 1.54 1.408.696 2.889 1.428 4.444 1.82v6.967c1.919.531 3.892.493 6-.919v5.764z"/>
</svg>
