<svg xmlns="http://www.w3.org/2000/svg" fill="none" viewBox="0 0 32 32">
  <path fill="#000" d="M4.345 5.25A1 1 0 0 0 4 6v21a1 1 0 1 0 2 0v-5.53c3.349-2.645 6.234-1.219 9.556.426 2.05 1.014 4.258 2.107 6.625 2.107 1.741 0 3.568-.594 5.478-2.25a1 1 0 0 0 .345-.75V6a1 1 0 0 0-1.659-.75c-3.5 3.029-6.465 1.561-9.901-.14-3.56-1.765-7.596-3.761-12.099.14M26 20.53c-3.349 2.645-6.234 1.218-9.556-.426C13.319 18.56 9.843 16.839 6 19.055V6.474c3.349-2.645 6.234-1.22 9.556.425C18.681 8.442 22.16 10.165 26 7.949z"/>
</svg>
