<svg xmlns="http://www.w3.org/2000/svg" fill="none" viewBox="0 0 32 32">
  <path fill="#000" d="M21.724 6.435a27.7 27.7 0 0 0-5.209-4.293 1 1 0 0 0-1.03 0 27.7 27.7 0 0 0-5.209 4.293C6.824 10.06 5 14.059 5 18a11 11 0 1 0 22 0c0-3.941-1.824-7.94-5.276-11.565M12 23c0-3.459 2.816-5.91 4-6.788 1.185.875 4 3.33 4 6.788a4 4 0 1 1-8 0m9.659 1.991c.226-.64.341-1.313.341-1.991 0-5.5-5.261-8.724-5.485-8.858a1 1 0 0 0-1.03 0C15.261 14.276 10 17.5 10 23c0 .678.115 1.352.341 1.991A8.98 8.98 0 0 1 7 18c0-4.301 2.55-7.894 4.69-10.149A27 27 0 0 1 16 4.192a27 27 0 0 1 4.31 3.66C24.186 11.936 25 15.624 25 18a8.99 8.99 0 0 1-3.341 6.991"/>
</svg>
