<svg xmlns="http://www.w3.org/2000/svg" fill="none" viewBox="0 0 32 32">
  <path fill="#000" d="M30.729 15.204a1.94 1.94 0 0 0-1.19-.917 9.2 9.2 0 0 0-2.771-.277c.5-2.481.125-4.444-.25-5.607a2.02 2.02 0 0 0-2.35-1.36 10.7 10.7 0 0 0-3.57 1.514 11.8 11.8 0 0 0-3.388-4.156 2.01 2.01 0 0 0-2.407 0 11.8 11.8 0 0 0-3.395 4.156 10.7 10.7 0 0 0-3.57-1.514 2.02 2.02 0 0 0-2.348 1.36c-.375 1.163-.75 3.124-.257 5.607a9.2 9.2 0 0 0-2.772.277 1.94 1.94 0 0 0-1.19.917 2 2 0 0 0-.2 1.532c.424 1.573 1.725 4.561 5.667 6.916C10.678 26.008 14.14 26 16.006 26c1.865 0 5.334 0 9.25-2.348 3.942-2.355 5.243-5.343 5.667-6.916a2 2 0 0 0-.194-1.532M7.763 21.936c-3.33-1.99-4.41-4.43-4.763-5.724a7.5 7.5 0 0 1 2.813-.146q.47 1.26 1.143 2.427a17.8 17.8 0 0 0 4.25 4.945 14.4 14.4 0 0 1-3.443-1.502M16 23.8c-1.166-.867-4-3.529-4-8.904C12 9.587 14.798 6.905 16 6c1.203.907 4 3.59 4 8.899 0 5.372-2.834 8.034-4 8.901m13-7.585c-.346 1.28-1.425 3.726-4.761 5.721a14.4 14.4 0 0 1-3.444 1.5 17.8 17.8 0 0 0 4.25-4.945c.448-.775.83-1.587 1.144-2.426a7.5 7.5 0 0 1 2.811.149z"/>
</svg>
