<svg xmlns="http://www.w3.org/2000/svg" fill="none" viewBox="0 0 32 32">
  <path fill="#000" d="m30.708 9.291-4-3.999a1 1 0 0 0-1.415 1.415l2.293 2.292H24a9.3 9.3 0 0 0-3.544.84c-1.702.787-3.853 2.463-4.442 5.998-.665 3.991-3.638 4.901-5.125 5.106a5 5 0 0 0-5.447-3.908 5 5 0 0 0-4.44 5.022 4.997 4.997 0 0 0 4.551 4.922 5 5 0 0 0 5.358-4.03c.9-.102 1.778-.34 2.605-.705 1.703-.75 3.86-2.424 4.47-6.084.845-5.066 5.807-5.162 6.014-5.162h3.586l-2.293 2.292a1 1 0 1 0 1.415 1.414l4-3.998a1 1 0 0 0 0-1.415M6 24.993a3 3 0 0 1-2.942-3.584 2.998 2.998 0 0 1 4.09-2.186A3 3 0 0 1 6 24.993"/>
</svg>
