<svg xmlns="http://www.w3.org/2000/svg" fill="none" viewBox="0 0 32 32">
  <path fill="#000" d="M26.294 16.17a5 5 0 0 0-.328-.17 5 5 0 1 0-4.983-8.631q.016-.187.017-.375a5 5 0 1 0-9.984.375A5 5 0 1 0 6.034 16a5 5 0 1 0 4.982 8.631 5 5 0 1 0 9.967 0c.104.071.21.14.31.199a4.97 4.97 0 0 0 3.796.497 5 5 0 0 0 1.205-9.16zM13 16a3 3 0 1 1 5.999 0A3 3 0 0 1 13 16m9.294-7.1a3 3 0 0 1 3 5.196c-.784.454-2.326.767-4.395.9a5 5 0 0 0-1.583-2.735c1.15-1.727 2.194-2.907 2.978-3.36zM16 4a3 3 0 0 1 3 3c0 .905-.5 2.399-1.42 4.257a4.98 4.98 0 0 0-3.16 0C13.5 9.4 13 7.905 13 7a3 3 0 0 1 3-3M5.607 10a3 3 0 0 1 4.1-1.099c.783.454 1.827 1.634 2.977 3.361A5 5 0 0 0 11.1 15c-2.069-.133-3.611-.445-4.395-.898A3 3 0 0 1 5.607 10m4.1 13.099a3 3 0 0 1-3-5.197c.783-.453 2.325-.766 4.394-.898a5 5 0 0 0 1.583 2.733c-1.15 1.728-2.194 2.908-2.978 3.362zm6.293 4.9a3 3 0 0 1-3-3c0-.904.5-2.398 1.42-4.257a4.98 4.98 0 0 0 3.16 0C18.5 22.602 19 24.095 19 25a3 3 0 0 1-3 3zm10.392-6a3 3 0 0 1-4.098 1.1c-.784-.454-1.828-1.634-2.978-3.362A5 5 0 0 0 20.9 17c2.069.132 3.611.445 4.395.897A3 3 0 0 1 26.392 22z"/>
</svg>
