<svg xmlns="http://www.w3.org/2000/svg" fill="none" viewBox="0 0 32 32">
  <path fill="#000" d="m30.707 22.709-4 3.998a1 1 0 0 1-1.415-1.414L27.586 23H24a9.3 9.3 0 0 1-3.544-.841c-1.702-.786-3.854-2.463-4.442-5.998-.665-3.99-3.638-4.9-5.125-5.105a5 5 0 0 1-5.447 3.908 5 5 0 0 1-4.44-5.023A4.997 4.997 0 0 1 5.553 5.02a5 5 0 0 1 5.358 4.03 9 9 0 0 1 2.605.706c1.703.75 3.859 2.424 4.47 6.084.845 5.065 5.806 5.162 6.014 5.162h3.586l-2.294-2.292a1 1 0 1 1 1.415-1.415l4 3.999a1 1 0 0 1 0 1.415M6 7.007a3 3 0 0 0-2.943 3.584 2.998 2.998 0 0 0 4.09 2.185A3 3 0 0 0 6 7.006z"/>
</svg>
