<svg xmlns="http://www.w3.org/2000/svg" fill="none" viewBox="0 0 32 32">
  <path fill="#000" d="M26 6a10.9 10.9 0 0 0-4.42.929c-1.887-3.171-4.99-4.75-5.132-4.824a1 1 0 0 0-.896 0c-.142.073-3.25 1.653-5.132 4.824A10.9 10.9 0 0 0 6 6a1 1 0 0 0-1 1v5a11.014 11.014 0 0 0 10 10.954v4.429l-4.553-2.278a1.001 1.001 0 0 0-.894 1.79l6 3a1 1 0 0 0 .895 0l6-3a1 1 0 1 0-.896-1.79L17 27.383v-4.429A11.013 11.013 0 0 0 27 12V7a1 1 0 0 0-1-1M15 20.945A9.01 9.01 0 0 1 7 12V8.055A9.013 9.013 0 0 1 15 17zm1-8.525a11.05 11.05 0 0 0-3.83-4.52c1.196-1.974 3-3.238 3.83-3.75.831.51 2.635 1.774 3.83 3.75A11.06 11.06 0 0 0 16 12.42m9-.42a9.013 9.013 0 0 1-8 8.945V17a9.013 9.013 0 0 1 8-8.945z"/>
</svg>
