<svg xmlns="http://www.w3.org/2000/svg" fill="none" viewBox="0 0 32 32">
  <path fill="#000" d="M26 6a10.9 10.9 0 0 0-4.42.929c-1.887-3.172-4.99-4.75-5.132-4.824a1 1 0 0 0-.896 0c-.142.072-3.25 1.652-5.132 4.824A10.9 10.9 0 0 0 6 6a1 1 0 0 0-1 1v5a11.014 11.014 0 0 0 10 10.954v4.428l-4.553-2.277a1 1 0 1 0-.894 1.79l6 3a1 1 0 0 0 .895 0l6-3a1 1 0 1 0-.896-1.79L17 27.382v-4.428A11.014 11.014 0 0 0 27 12V7a1 1 0 0 0-1-1M7 12V8.055A9.013 9.013 0 0 1 15 17v3.945A9.013 9.013 0 0 1 7 12m18 0a9.013 9.013 0 0 1-8 8.945V17a9.013 9.013 0 0 1 8-8.945z"/>
</svg>
