<svg xmlns="http://www.w3.org/2000/svg" fill="none" viewBox="0 0 32 32">
  <path fill="#000" d="M22.949 26.684a1 1 0 1 1-1.898.632l-1-3a1 1 0 1 1 1.898-.632zM16 23a1 1 0 0 0-1 1v4a1 1 0 1 0 2 0v-4a1 1 0 0 0-1-1m-4.684.051a1 1 0 0 0-1.265.633l-1 3a1 1 0 0 0 1.898.632l1-3a1 1 0 0 0-.633-1.265M31 14c0 2.027-1.671 3.861-4.706 5.161C23.527 20.347 19.875 21 16 21s-7.527-.653-10.294-1.839C2.671 17.861 1 16.027 1 14c0-1.046.459-2.599 2.646-4.063 1.421-.95 3.368-1.72 5.648-2.23a7.955 7.955 0 0 1 12.331-1.4c.431.426.813.9 1.139 1.412C27.929 8.886 31 11.217 31 13.999zm-21-1.896v.375a.99.99 0 0 0 .766.97c1.719.379 3.474.563 5.234.55a23.5 23.5 0 0 0 5.231-.545.99.99 0 0 0 .769-.97V12a6 6 0 0 0-6.08-6C12.656 6.042 10 8.78 10 12.104M29 14c0-1.463-2.079-2.986-5.238-3.949.159.638.238 1.292.238 1.949v.49a2.98 2.98 0 0 1-2.32 2.912c-1.865.412-3.77.612-5.68.598a25.5 25.5 0 0 1-5.68-.598A2.98 2.98 0 0 1 8 12.49v-.383c0-.696.09-1.39.266-2.065C5.09 11 3 12.532 3 14c0 2.365 5.339 5 13 5s13-2.635 13-5"/>
</svg>
