<svg xmlns="http://www.w3.org/2000/svg" fill="none" viewBox="0 0 32 32">
  <path fill="#000" d="M22.949 26.684a1 1 0 1 1-1.898.632l-1-3a1 1 0 1 1 1.898-.632zM16 23a1 1 0 0 0-1 1v4a1 1 0 1 0 2 0v-4a1 1 0 0 0-1-1m-4.684.051a1 1 0 0 0-1.265.633l-1 3a1 1 0 0 0 1.898.632l1-3a1 1 0 0 0-.633-1.265M31 14c0 2.027-1.671 3.861-4.706 5.161C23.527 20.347 19.875 21 16 21s-7.527-.653-10.294-1.839C2.671 17.861 1 16.027 1 14c0-1.046.459-2.599 2.646-4.063 1.421-.95 3.368-1.72 5.648-2.23a7.955 7.955 0 0 1 12.331-1.4c.431.426.813.9 1.139 1.412C27.929 8.886 31 11.217 31 13.999zm-9-2a5.96 5.96 0 0 0-.758-2.919l-.007-.011A6.01 6.01 0 0 0 15.92 6C12.656 6.042 10 8.78 10 12.104v.375a.99.99 0 0 0 .766.97c1.719.379 3.474.563 5.234.55a23.5 23.5 0 0 0 5.231-.545.99.99 0 0 0 .769-.97z"/>
</svg>
