<svg xmlns="http://www.w3.org/2000/svg" fill="none" viewBox="0 0 32 32">
  <path fill="#000" d="M26.826 24.828a4 4 0 1 0-5.654 0 5 5 0 0 0-2.138 2.915 1 1 0 1 0 1.932.513C21.32 26.927 22.567 26 24 26s2.68.927 3.034 2.256a.999.999 0 0 0 1.964-.12 1 1 0 0 0-.032-.393 5 5 0 0 0-2.14-2.915M24 20a2 2 0 1 1 0 4 2 2 0 0 1 0-4m3-11H16.414L13 5.586A1.98 1.98 0 0 0 11.586 5H5a2 2 0 0 0-2 2v18.076A1.925 1.925 0 0 0 4.923 27H15.07a1 1 0 1 0 0-2H5V11h22v4a1 1 0 0 0 2 0v-4a2 2 0 0 0-2-2M11.586 7l2 2H5V7z"/>
</svg>
