<svg xmlns="http://www.w3.org/2000/svg" fill="none" viewBox="0 0 32 32">
  <path fill="#000" d="M3 10V8a2 2 0 0 1 2-2h6.666a2 2 0 0 1 1.2.4L16.6 9.2a1 1 0 1 1-1.2 1.6L11.666 8H5v2a1 1 0 1 1-2 0m8 15H5v-1a1 1 0 1 0-2 0v1.078A1.925 1.925 0 0 0 4.923 27H11a1 1 0 0 0 0-2m9 0h-4a1 1 0 0 0 0 2h4a1 1 0 0 0 0-2m8-7a1 1 0 0 0-1 1v6h-2a1 1 0 0 0 0 2h2.111A1.89 1.89 0 0 0 29 25.111V19a1 1 0 0 0-1-1m-1-9h-6a1 1 0 1 0 0 2h6v3a1 1 0 0 0 2 0v-3a2 2 0 0 0-2-2M4 20a1 1 0 0 0 1-1v-4a1 1 0 1 0-2 0v4a1 1 0 0 0 1 1"/>
</svg>
