<svg xmlns="http://www.w3.org/2000/svg" fill="none" viewBox="0 0 32 32">
  <path fill="#000" d="m29.636 20.973-2.813 2.323.856 3.464a1 1 0 0 1-1.478 1.101L23 25.977l-3.201 1.884a1 1 0 0 1-1.478-1.101l.856-3.464-2.813-2.323a1 1 0 0 1 .558-1.768l3.73-.289 1.43-3.312a1 1 0 0 1 1.837 0l1.428 3.312 3.73.289a1 1 0 0 1 .56 1.768zM16.07 26a1 1 0 0 1-1 1H4.922A1.925 1.925 0 0 1 3 25.078V7a2 2 0 0 1 2-2h6.586A1.98 1.98 0 0 1 13 5.586L16.414 9H27a2 2 0 0 1 2 2v4a1 1 0 0 1-2 0v-4H5v14h10.07a1 1 0 0 1 1 1M5 9h8.586l-2-2H5z"/>
</svg>
