<svg xmlns="http://www.w3.org/2000/svg" fill="none" viewBox="0 0 32 32">
  <path fill="#000" d="M15.07 25H5V11h22v4a1 1 0 0 0 2 0v-4a2 2 0 0 0-2-2H16.414L13 5.586A1.98 1.98 0 0 0 11.586 5H5a2 2 0 0 0-2 2v18.078A1.925 1.925 0 0 0 4.923 27H15.07a1 1 0 1 0 0-2M11.586 7l2 2H5V7zm18.368 12.9a1 1 0 0 0-.875-.695l-3.73-.289-1.429-3.312a1 1 0 0 0-1.838 0l-1.428 3.312-3.73.289a1 1 0 0 0-.559 1.768l2.814 2.323-.856 3.464a1 1 0 0 0 1.477 1.101l3.2-1.884 3.201 1.884a1 1 0 0 0 1.478-1.101l-.856-3.464 2.813-2.323a1 1 0 0 0 .318-1.073m-4.89 2.25a1 1 0 0 0-.335 1.011l.437 1.765-1.659-.976a1 1 0 0 0-1.015 0l-1.658.976.437-1.765a1 1 0 0 0-.335-1.011l-1.389-1.147 1.862-.144a1 1 0 0 0 .841-.6l.75-1.74.75 1.74a1 1 0 0 0 .841.6l1.861.143z"/>
</svg>
