<svg xmlns="http://www.w3.org/2000/svg" fill="none" viewBox="0 0 32 32">
  <path fill="#000" d="M16 26a1 1 0 0 1-1 1H5a2 2 0 0 1-2-2V8a2 2 0 0 1 2-2h6.666a2 2 0 0 1 1.2.4L16.334 9H27a2 2 0 0 1 2 2v4a1 1 0 0 1-2 0v-4H16.334a2 2 0 0 1-1.2-.4L11.666 8H5v17h10a1 1 0 0 1 1 1m13.954-6.1a1 1 0 0 0-.875-.695l-3.73-.289-1.429-3.312a1 1 0 0 0-1.838 0l-1.428 3.312-3.73.289a1 1 0 0 0-.559 1.768l2.814 2.323-.856 3.464a1 1 0 0 0 1.477 1.101l3.2-1.884 3.201 1.884a.999.999 0 0 0 1.478-1.101l-.856-3.464 2.813-2.323a1 1 0 0 0 .318-1.073"/>
</svg>
