<svg xmlns="http://www.w3.org/2000/svg" fill="none" viewBox="0 0 32 32">
  <path fill="#000" d="M16 26a1 1 0 0 1-1 1H5a2 2 0 0 1-2-2V8a2 2 0 0 1 2-2h6.666a2 2 0 0 1 1.2.4L16.334 9H27a2 2 0 0 1 2 2v4a1 1 0 0 1-2 0v-4H16.334a2 2 0 0 1-1.2-.4L11.666 8H5v17h10a1 1 0 0 1 1 1m13.636-5.027-2.813 2.323.856 3.464a1 1 0 0 1-1.478 1.101L23 25.977l-3.201 1.884a.999.999 0 0 1-1.478-1.101l.856-3.464-2.813-2.323a1 1 0 0 1 .558-1.768l3.73-.289 1.43-3.312a1 1 0 0 1 1.837 0l1.428 3.312 3.73.289a1 1 0 0 1 .56 1.768zm-3.183.035-1.862-.144a1 1 0 0 1-.841-.6l-.75-1.74-.75 1.74a1 1 0 0 1-.841.6l-1.861.143 1.388 1.148a1 1 0 0 1 .335 1.011l-.437 1.765 1.659-.976a1 1 0 0 1 1.015 0l1.658.976-.437-1.765a1 1 0 0 1 .335-1.011z"/>
</svg>
