<svg xmlns="http://www.w3.org/2000/svg" fill="none" viewBox="0 0 32 32">
  <path fill="#000" d="M27.008 24v1.5a4.504 4.504 0 1 1-9.008 0V24a1 1 0 0 1 1-1h7a1 1 0 0 1 1.008 1M13 20H6a1 1 0 0 0-1 1v1.5a4.5 4.5 0 1 0 9 0V21a1 1 0 0 0-1-1M9.5 2C8.045 2 6.634 3.289 5.525 5.625c-1.741 3.672-2.32 9.125.036 12a1 1 0 0 0 .775.366h6.32a1 1 0 0 0 .774-.366c2.356-2.875 1.778-8.331.036-12C12.356 3.289 10.946 2 9.5 2m9.85 19h6.319a1 1 0 0 0 .775-.366c2.356-2.875 1.777-8.332.036-12C25.366 6.289 23.955 5 22.5 5s-2.86 1.289-3.97 3.625c-1.741 3.672-2.32 9.125.036 12a1 1 0 0 0 .78.375h.005z"/>
</svg>
