<svg xmlns="http://www.w3.org/2000/svg" fill="none" viewBox="0 0 32 32">
  <path fill="#000" d="M26.008 23H19a1 1 0 0 0-1 1v1.5a4.503 4.503 0 1 0 9.006 0V24a1 1 0 0 0-.998-1m-1 2.5a2.5 2.5 0 0 1-5 0V25h5zM13 20H6a1 1 0 0 0-1 1v1.5a4.5 4.5 0 1 0 9 0V21a1 1 0 0 0-1-1m-1 2.5a2.5 2.5 0 0 1-5 0V22h5zM9.5 2C8.045 2 6.634 3.289 5.525 5.625c-1.741 3.672-2.32 9.125.036 12a1 1 0 0 0 .775.366h6.32a1 1 0 0 0 .774-.366c2.356-2.875 1.778-8.331.036-12C12.356 3.289 10.946 2 9.5 2m2.644 14H6.848c-1.425-2.262-.902-6.588.486-9.514C8.143 4.778 9.02 4 9.5 4c.479 0 1.353.777 2.163 2.486 1.382 2.926 1.906 7.252.48 9.514zm7.201 5h6.319a1 1 0 0 0 .775-.366c2.356-2.875 1.777-8.332.036-12C25.366 6.289 23.955 5 22.5 5s-2.86 1.289-3.97 3.625c-1.741 3.672-2.32 9.125.036 12a1 1 0 0 0 .78.375zm1-11.514C21.153 7.777 22.031 7 22.5 7s1.353.777 2.161 2.486c1.388 2.926 1.912 7.25.488 9.514h-5.293c-1.425-2.262-.9-6.588.487-9.514z"/>
</svg>
