<svg xmlns="http://www.w3.org/2000/svg" fill="none" viewBox="0 0 32 32">
  <path fill="#000" d="M9 11V5a1 1 0 0 1 2 0v6a1 1 0 0 1-2 0m18-6v23a1 1 0 0 1-2 0v-6h-6a1 1 0 0 1-1-1 33.6 33.6 0 0 1 .902-7.11c1.223-5.061 3.54-8.454 6.704-9.809a1 1 0 0 1 1.394.92zm-2 1.738C20.979 9.808 20.191 17.29 20.038 20H25zM14.986 4.836a.999.999 0 1 0-1.972.33L14 11.078a4 4 0 0 1-8 0l.985-5.914a1 1 0 1 0-1.973-.329l-1 6A1 1 0 0 0 4 11a6.01 6.01 0 0 0 5 5.915V28a1 1 0 1 0 2 0V16.915A6.01 6.01 0 0 0 16 11a1 1 0 0 0-.014-.164z"/>
</svg>
