<svg xmlns="http://www.w3.org/2000/svg" fill="none" viewBox="0 0 32 32">
  <path fill="#000" d="M30.93 21.719V21.7l-2.049-10.52v-.022A7.51 7.51 0 0 0 21.501 5H10.485a7.485 7.485 0 0 0-7.375 6.19L1.073 21.701v.018a4.5 4.5 0 0 0 7.612 3.963l.044-.046L13.69 20h4.625l4.964 5.636A4.5 4.5 0 0 0 26.5 27a4.5 4.5 0 0 0 4.429-5.281zM13 14h-1v1a1 1 0 0 1-2 0v-1H9a1 1 0 0 1 0-2h1v-1a1 1 0 0 1 2 0v1h1a1 1 0 0 1 0 2m5-1a1 1 0 0 1 1-1h3a1 1 0 0 1 0 2h-3a1 1 0 0 1-1-1m10.546 10.934a2.48 2.48 0 0 1-1.612 1.028 2.51 2.51 0 0 1-2.184-.673L20.975 20h.525a7.5 7.5 0 0 0 6.375-3.547l1.093 5.625a2.48 2.48 0 0 1-.422 1.856"/>
</svg>
