<svg xmlns="http://www.w3.org/2000/svg" fill="none" viewBox="0 0 32 32">
  <path fill="#000" d="M25 3h-9.586A1.98 1.98 0 0 0 14 3.586l-1.293 1.289-1.293-1.289a2 2 0 0 0-2.828 0l-3 3a2 2 0 0 0 0 2.828l1.289 1.293L5.586 12A1.98 1.98 0 0 0 5 13.414V27a2 2 0 0 0 2 2h18a2 2 0 0 0 2-2V5a2 2 0 0 0-2-2M7 8l3-3 1.293 1.293-3 3zm15.6 15.2a1 1 0 1 1-1.2 1.6L16 20.75l-5.4 4.05a1 1 0 0 1-1.2-1.6l4.934-3.7L9.4 15.8a1 1 0 1 1 1.2-1.6l5.4 4.05 5.4-4.05a1 1 0 0 1 1.2 1.6l-4.934 3.7zM22 9h-5a1 1 0 1 1 0-2h5a1 1 0 1 1 0 2"/>
</svg>
