<svg xmlns="http://www.w3.org/2000/svg" fill="none" viewBox="0 0 32 32">
  <path fill="#000" d="M30 20v3a2 2 0 0 1-2 2H14.491a.501.501 0 0 1-.405-.794l7.698-10.581a1.027 1.027 0 0 0-.171-1.412 1 1 0 0 0-1.422.2l-9 12.383a.5.5 0 0 1-.41.204H4a2 2 0 0 1-2-2v-2.859c0-.223 0-.446.016-.666a.5.5 0 0 1 .5-.475H6a1 1 0 0 0 1-1.066A1.02 1.02 0 0 0 5.966 17H2.99a.5.5 0 0 1-.484-.625c1.5-5.48 6.208-9.641 11.94-10.285a.5.5 0 0 1 .554.5V10a1 1 0 0 0 1.066 1A1.02 1.02 0 0 0 17 9.966V6.584a.5.5 0 0 1 .554-.5 14.02 14.02 0 0 1 11.975 10.291.5.5 0 0 1-.485.625h-3.01a1.02 1.02 0 0 0-1.031.934 1 1 0 0 0 1 1.066h3.49a.5.5 0 0 1 .5.483q.009.256.007.517"/>
</svg>
