<svg xmlns="http://www.w3.org/2000/svg" fill="none" viewBox="0 0 32 32">
  <path fill="#000" d="m30.415 14.586-2-2a2 2 0 0 0-2.605-.191L19.605 6.19a2 2 0 0 0-.19-2.605l-2-2a2 2 0 0 0-2.829 0l-8 8a2 2 0 0 0 0 2.829l2 2a2 2 0 0 0 2.604.19l.896.896-8.172 8.172a3.125 3.125 0 0 0 4.415 4.415l8.171-8.172.896.895a2 2 0 0 0 .19 2.605l2 2a2 2 0 0 0 2.829 0l8-8a2 2 0 0 0 0-2.829M10 13l-2-2 8-8 2 2zM6.915 26.672a1.125 1.125 0 0 1-1.586 0 1.125 1.125 0 0 1 0-1.585l8.171-8.172 1.586 1.585zm5.71-13.465 5.582-5.582 6.168 6.168-5.581 5.582zM21 24l-2-2 .5-.5 7-7 .5-.5 2 2z"/>
</svg>
