<svg xmlns="http://www.w3.org/2000/svg" fill="none" viewBox="0 0 32 32">
  <path fill="#000" d="M29 15h-1.043a11.9 11.9 0 0 0-1.102-4.113l.904-.52a1 1 0 0 0-1-1.733l-.907.524a12.1 12.1 0 0 0-3.01-3.01l.524-.907a1 1 0 1 0-1.732-1l-.521.904A11.9 11.9 0 0 0 17 4.043V3a1 1 0 0 0-2 0v1.043c-1.426.116-2.82.49-4.113 1.102l-.52-.904a1 1 0 0 0-1.733 1l.524.907a12.1 12.1 0 0 0-3.01 3.01l-.907-.524a1 1 0 1 0-1 1.732l.904.521A11.9 11.9 0 0 0 4.043 15H3a1 1 0 0 0 0 2h1.043c.116 1.426.49 2.82 1.102 4.113l-.904.52a1 1 0 1 0 1 1.733l.907-.523a12.1 12.1 0 0 0 3.01 3.01l-.524.906a1 1 0 1 0 1.732 1l.521-.904c1.294.612 2.687.986 4.113 1.102V29a1 1 0 0 0 2 0v-1.043c1.426-.116 2.82-.49 4.113-1.102l.52.904a1 1 0 0 0 1.733-1l-.523-.907a12.1 12.1 0 0 0 3.01-3.01l.906.524A1 1 0 0 0 28.125 23a1 1 0 0 0-.365-1.366l-.904-.521A11.9 11.9 0 0 0 27.96 17H29a1 1 0 0 0 0-2M9 16a6.99 6.99 0 0 1 2.672-5.5l3.173 5.5-3.173 5.5A6.99 6.99 0 0 1 9 16m7 7a7 7 0 0 1-2.598-.5l3.176-5.5h6.35A7.01 7.01 0 0 1 16 23m.578-8-3.175-5.5a7 7 0 0 1 9.524 5.5h-6.35z"/>
</svg>
