<svg xmlns="http://www.w3.org/2000/svg" fill="none" viewBox="0 0 32 32">
  <path fill="#000" d="M27 16.27q.008-.27 0-.54l1.865-2.33a1 1 0 0 0 .185-.882 13.5 13.5 0 0 0-1.36-3.282 1 1 0 0 0-.75-.49l-2.965-.33a10 10 0 0 0-.375-.376l-.35-2.972a1 1 0 0 0-.492-.75 13.4 13.4 0 0 0-3.282-1.358 1 1 0 0 0-.882.185L16.27 5h-.54L13.4 3.14a1 1 0 0 0-.882-.185c-1.15.306-2.253.763-3.282 1.36a1 1 0 0 0-.49.75l-.33 2.97q-.196.186-.376.375l-2.972.341a1 1 0 0 0-.75.493 13.5 13.5 0 0 0-1.36 3.28 1 1 0 0 0 .187.883L5 15.73v.54L3.14 18.6a1 1 0 0 0-.185.883 13.5 13.5 0 0 0 1.36 3.28 1 1 0 0 0 .75.492l2.965.33q.186.195.375.375l.346 2.973a1 1 0 0 0 .493.75 13.5 13.5 0 0 0 3.28 1.358 1 1 0 0 0 .883-.186L15.73 27q.27.008.54 0l2.33 1.865a1 1 0 0 0 .883.185 13.4 13.4 0 0 0 3.28-1.36 1 1 0 0 0 .492-.75l.33-2.965q.195-.185.375-.375l2.973-.35a1 1 0 0 0 .75-.492 13.5 13.5 0 0 0 1.358-3.282 1 1 0 0 0-.186-.882zM16 21a5 5 0 1 1 0-10 5 5 0 0 1 0 10"/>
</svg>
