<svg xmlns="http://www.w3.org/2000/svg" fill="none" viewBox="0 0 32 32">
  <path fill="#000" d="M16 10a6 6 0 1 0 6 6 6.007 6.007 0 0 0-6-6m0 10a4 4 0 1 1 0-7.999 4 4 0 0 1 0 8zm11-3.73q.008-.27 0-.54l1.865-2.33a1 1 0 0 0 .185-.882 13.4 13.4 0 0 0-1.36-3.282 1 1 0 0 0-.75-.49l-2.965-.33a10 10 0 0 0-.375-.376l-.35-2.972a1 1 0 0 0-.492-.75 13.5 13.5 0 0 0-3.282-1.36 1 1 0 0 0-.882.187L16.27 5h-.54L13.4 3.14a1 1 0 0 0-.882-.185c-1.15.306-2.253.763-3.282 1.36a1 1 0 0 0-.49.75l-.33 2.97q-.196.186-.376.375l-2.972.341a1 1 0 0 0-.75.493 13.5 13.5 0 0 0-1.36 3.28 1 1 0 0 0 .187.883L5 15.73v.54L3.14 18.6a1 1 0 0 0-.185.883 13.4 13.4 0 0 0 1.36 3.28 1 1 0 0 0 .75.492l2.965.33q.186.195.375.375l.346 2.973a1 1 0 0 0 .493.75 13.5 13.5 0 0 0 3.28 1.358 1 1 0 0 0 .883-.186L15.73 27q.27.008.54 0l2.33 1.865a1 1 0 0 0 .883.185 13.4 13.4 0 0 0 3.28-1.36 1 1 0 0 0 .492-.75l.33-2.965q.195-.185.375-.375l2.973-.35a1 1 0 0 0 .75-.492 13.5 13.5 0 0 0 1.358-3.282 1 1 0 0 0-.186-.882zm-2.012-.812q.03.541 0 1.085a1 1 0 0 0 .217.685l1.774 2.216a11.5 11.5 0 0 1-.779 1.875l-2.825.32a1 1 0 0 0-.637.33 9 9 0 0 1-.768.767 1 1 0 0 0-.33.638l-.314 2.822c-.6.315-1.228.576-1.875.78L17.234 25.2a1 1 0 0 0-.625-.218h-.06a9 9 0 0 1-1.085 0 1 1 0 0 0-.685.217l-2.223 1.775a11.5 11.5 0 0 1-1.875-.779l-.32-2.82a1 1 0 0 0-.33-.638 9 9 0 0 1-.767-.768 1 1 0 0 0-.638-.33l-2.822-.315a11.4 11.4 0 0 1-.779-1.875L6.8 17.233a1 1 0 0 0 .217-.685 9 9 0 0 1 0-1.085 1 1 0 0 0-.217-.685l-1.774-2.222c.204-.646.464-1.274.779-1.875l2.821-.32a1 1 0 0 0 .638-.33 9 9 0 0 1 .767-.767 1 1 0 0 0 .331-.639l.314-2.821c.6-.315 1.228-.576 1.875-.779L14.768 6.8a1 1 0 0 0 .685.217 9 9 0 0 1 1.085 0 1 1 0 0 0 .685-.217l2.22-1.774q.973.306 1.876.779l.32 2.821a1 1 0 0 0 .33.638q.406.36.767.767a1 1 0 0 0 .638.33l2.822.314c.315.6.576 1.228.78 1.875L25.2 14.766a1 1 0 0 0-.217.692z"/>
</svg>
