<svg xmlns="http://www.w3.org/2000/svg" fill="none" viewBox="0 0 32 32">
  <path fill="#000" d="M29.742 13.401a1 1 0 0 0-.486-.675l-3.729-2.125-.015-4.202a1 1 0 0 0-.353-.76 14 14 0 0 0-4.59-2.584 1 1 0 0 0-.808.074L16 5.23l-3.765-2.106a1 1 0 0 0-.809-.075 14 14 0 0 0-4.585 2.594 1 1 0 0 0-.354.759l-.018 4.206-3.729 2.125a1 1 0 0 0-.486.675 13.3 13.3 0 0 0 0 5.195 1 1 0 0 0 .486.675l3.729 2.125.015 4.204a1 1 0 0 0 .353.76 14 14 0 0 0 4.59 2.583 1 1 0 0 0 .808-.073L16 26.768l3.765 2.107a1 1 0 0 0 .809.073 14 14 0 0 0 4.585-2.592 1 1 0 0 0 .354-.759l.018-4.206 3.729-2.125a1 1 0 0 0 .486-.675c.34-1.713.338-3.477-.003-5.19zM16 21a5 5 0 1 1 0-10 5 5 0 0 1 0 10"/>
</svg>
