<svg xmlns="http://www.w3.org/2000/svg" fill="none" viewBox="0 0 32 32">
  <path fill="#000" d="M18.489 14.215a3.5 3.5 0 1 1-6.978.569 3.5 3.5 0 0 1 6.978-.569M27 5v22a2 2 0 0 1-2 2H7a2 2 0 0 1-2-2V5a2 2 0 0 1 2-2h18a2 2 0 0 1 2 2m-3.5 2a1 1 0 0 0-1-1h-3.466A1.02 1.02 0 0 0 18 6.934 1 1 0 0 0 19 8h1.086l-1.971 1.971A5.5 5.5 0 1 0 14 19.907V22h-2.466a1.02 1.02 0 0 0-1.034.934 1 1 0 0 0 1 1.066H14v1.966a1.02 1.02 0 0 0 .934 1.031 1 1 0 0 0 1.066-1V24h2.466a1.02 1.02 0 0 0 1.031-.934 1 1 0 0 0-1-1.066H16v-2.093a5.5 5.5 0 0 0 3.53-8.522l1.97-1.971v1.052a1.023 1.023 0 0 0 .934 1.034 1 1 0 0 0 1.066-1z"/>
</svg>
