<svg xmlns="http://www.w3.org/2000/svg" fill="none" viewBox="0 0 32 32">
  <path fill="#000" d="M14 14.5a1.5 1.5 0 1 1-3 0 1.5 1.5 0 0 1 3 0m5.5-1.5a1.5 1.5 0 1 0 0 3 1.5 1.5 0 0 0 0-3m8.5 2v12a1 1 0 0 1-1.634.774l-3.032-2.482-3.034 2.482a1 1 0 0 1-1.266 0L16 25.292l-3.034 2.482a1 1 0 0 1-1.266 0l-3.034-2.482-3.032 2.482A1 1 0 0 1 4 27V15a12 12 0 1 1 24 0m-2 0a10 10 0 0 0-20 0v9.89l2.034-1.664a1 1 0 0 1 1.266 0l3.034 2.482 3.032-2.482a1 1 0 0 1 1.268 0l3.032 2.482 3.034-2.482a1 1 0 0 1 1.266 0L26 24.89z"/>
</svg>
