<svg xmlns="http://www.w3.org/2000/svg" fill="none" viewBox="0 0 32 32">
  <path fill="#000" d="M27 9h-4.385q.075-.06.146-.125A3.7 3.7 0 0 0 24 6.196 4.08 4.08 0 0 0 19.805 2a3.7 3.7 0 0 0-2.68 1.239A6.9 6.9 0 0 0 16 5.049a6.9 6.9 0 0 0-1.125-1.81 3.7 3.7 0 0 0-2.68-1.24A4.08 4.08 0 0 0 8 6.197a3.7 3.7 0 0 0 1.239 2.679q.072.06.146.125H5a2 2 0 0 0-2 2v4a2 2 0 0 0 2 2v8a2 2 0 0 0 2 2h18a2 2 0 0 0 2-2v-8a2 2 0 0 0 2-2v-4a2 2 0 0 0-2-2zm-8.375-4.436A1.7 1.7 0 0 1 19.875 4h.061A2.077 2.077 0 0 1 22 6.135a1.7 1.7 0 0 1-.563 1.25c-1.186 1.05-3.155 1.42-4.375 1.55.15-1.324.563-3.248 1.563-4.371m-8.011.045a2.08 2.08 0 0 1 1.46-.61h.061a1.7 1.7 0 0 1 1.25.563c1.049 1.185 1.419 3.15 1.549 4.365-1.215-.125-3.18-.5-4.365-1.548a1.7 1.7 0 0 1-.563-1.25 2.07 2.07 0 0 1 .603-1.52zM5 10.999h10v4H5zm2 6h8v8H7zm18 8h-8v-8h8zm2-10H17v-4h10z"/>
</svg>
