<svg xmlns="http://www.w3.org/2000/svg" fill="none" viewBox="0 0 32 32">
  <path fill="#000" d="M26.039 9.46a7.47 7.47 0 0 0-.673-5.96A1 1 0 0 0 24.5 3a7.47 7.47 0 0 0-6 3h-3a7.47 7.47 0 0 0-6-3 1 1 0 0 0-.866.5 7.47 7.47 0 0 0-.673 5.96A7.3 7.3 0 0 0 7 13v1a7.01 7.01 0 0 0 6.055 6.934A4.97 4.97 0 0 0 12 24v1H9a3 3 0 0 1-3-3 5 5 0 0 0-5-5 1 1 0 0 0 0 2 3 3 0 0 1 3 3 5 5 0 0 0 5 5h3v2a1 1 0 0 0 2 0v-5a3 3 0 0 1 6 0v5a1 1 0 0 0 2 0v-5c0-1.111-.37-2.19-1.055-3.066A7.01 7.01 0 0 0 27 14v-1a7.3 7.3 0 0 0-.961-3.54M25 14a5 5 0 0 1-5 5h-6a5 5 0 0 1-5-5v-1c.012-1 .312-1.975.863-2.81A1 1 0 0 0 10 9.229a5.48 5.48 0 0 1 .099-4.198 5.49 5.49 0 0 1 4.04 2.508 1 1 0 0 0 .838.461h4.044a1 1 0 0 0 .843-.461 5.48 5.48 0 0 1 4.04-2.508A5.48 5.48 0 0 1 24 9.23a1.01 1.01 0 0 0 .125.956A5.2 5.2 0 0 1 25 13.001z"/>
</svg>
