<svg xmlns="http://www.w3.org/2000/svg" fill="none" viewBox="0 0 32 32">
  <path fill="#000" d="M27 13v1a7.01 7.01 0 0 1-6.055 6.934A4.97 4.97 0 0 1 22 24v5a1 1 0 0 1-1 1h-8a1 1 0 0 1-1-1v-2H9a5 5 0 0 1-5-5 3 3 0 0 0-3-3 1 1 0 1 1 0-2 5 5 0 0 1 5 5 3 3 0 0 0 3 3h3v-1c0-1.111.37-2.19 1.055-3.066A7.01 7.01 0 0 1 7 14v-1a7.3 7.3 0 0 1 .961-3.54 7.47 7.47 0 0 1 .673-5.96A1 1 0 0 1 9.5 3a7.47 7.47 0 0 1 6 3h3a7.47 7.47 0 0 1 6-3 1 1 0 0 1 .866.5 7.47 7.47 0 0 1 .672 5.96A7.25 7.25 0 0 1 27 13"/>
</svg>
