<svg xmlns="http://www.w3.org/2000/svg" fill="none" viewBox="0 0 32 32">
  <path fill="#000" d="M28.769 14.637 26.28 5.125a1.492 1.492 0 0 0-2.848-.139L21.223 11H10.777l-2.21-6.016a1.493 1.493 0 0 0-2.85.141L3.23 14.637a7.15 7.15 0 0 0 2.75 7.625l9.159 6.47a1.49 1.49 0 0 0 1.718 0l9.158-6.47a7.15 7.15 0 0 0 2.753-7.625zm-3.905 5.988L16 26.886l-8.864-6.261a5.14 5.14 0 0 1-1.969-5.48L7.25 7.187l1.891 5.158a1 1 0 0 0 .939.655h11.84a1 1 0 0 0 .939-.655l1.891-5.158 2.079 7.957a5.14 5.14 0 0 1-1.965 5.481"/>
</svg>
