<svg xmlns="http://www.w3.org/2000/svg" fill="none" viewBox="0 0 32 32">
  <path fill="#000" d="M28.769 14.637 26.28 5.125a1.492 1.492 0 0 0-2.848-.139L21.223 11H10.777l-2.21-6.016a1.493 1.493 0 0 0-2.85.141L3.23 14.637a7.15 7.15 0 0 0 2.75 7.625l9.159 6.47a1.49 1.49 0 0 0 1.718 0l9.158-6.47a7.15 7.15 0 0 0 2.753-7.625zM7.25 7.187l1.891 5.158a1 1 0 0 0 .939.655h11.84a1 1 0 0 0 .939-.655l1.891-5.158 1.634 6.25L16 20.777l-10.388-7.34zm-2.165 8.327L14.266 22l-2.59 1.831-4.54-3.206a5.13 5.13 0 0 1-2.051-5.111M16 26.889l-2.591-1.831L16 23.225l2.591 1.83zm8.864-6.264-4.54 3.207L17.734 22l9.181-6.488a5.13 5.13 0 0 1-2.051 5.113"/>
</svg>
