<svg xmlns="http://www.w3.org/2000/svg" fill="none" viewBox="0 0 32 32">
  <path fill="#000" d="M16 3a13 13 0 1 0 13 13A13.013 13.013 0 0 0 16 3m11 13c.001 1.411-.27 2.81-.8 4.117l-5.587-3.436a2 2 0 0 0-.78-.279l-2.853-.385a2.01 2.01 0 0 0-2 .983h-1.09l-.475-.983a1.99 1.99 0 0 0-1.375-1.083l-1-.216.978-1.718h2.088c.338 0 .67-.087.966-.25l1.532-.845a2 2 0 0 0 .375-.268l3.364-3.042a1.99 1.99 0 0 0 .407-2.458l-.045-.08A11.01 11.01 0 0 1 27 16M5 16a10.94 10.94 0 0 1 1.068-4.725l1.417 3.784a2 2 0 0 0 1.453 1.25l2.678.576.476.99a2.01 2.01 0 0 0 1.8 1.125h.186l-.904 2.029a2 2 0 0 0 .357 2.171l.018.018L16 25.742l-.242 1.25A11.014 11.014 0 0 1 5 16"/>
</svg>
