<svg xmlns="http://www.w3.org/2000/svg" fill="none" viewBox="0 0 32 32">
  <path fill="#000" d="M16 3a13 13 0 1 0 13 13A13.013 13.013 0 0 0 16 3m-3.296 18h6.592c-.671 2.293-1.796 4.359-3.296 5.986-1.5-1.627-2.625-3.694-3.296-5.986m-.454-2a18.2 18.2 0 0 1 0-6h7.5a18.2 18.2 0 0 1 0 6zM5 16c0-1.014.14-2.024.416-3h4.808a20.2 20.2 0 0 0 0 6H5.416A11 11 0 0 1 5 16m14.296-5h-6.592C13.375 8.707 14.5 6.641 16 5.014 17.5 6.64 18.625 8.707 19.296 11m2.48 2h4.808a11 11 0 0 1 0 6h-4.808a20.2 20.2 0 0 0 0-6m4.02-2h-4.428a17.8 17.8 0 0 0-2.533-5.625A11.05 11.05 0 0 1 25.796 11M13.165 5.375A17.8 17.8 0 0 0 10.633 11h-4.43a11.05 11.05 0 0 1 6.962-5.625M6.204 21h4.429a17.8 17.8 0 0 0 2.532 5.625A11.05 11.05 0 0 1 6.204 21m12.631 5.625A17.8 17.8 0 0 0 21.367 21h4.43a11.05 11.05 0 0 1-6.962 5.625"/>
</svg>
