<svg xmlns="http://www.w3.org/2000/svg" fill="none" viewBox="0 0 32 32">
  <path fill="#000" d="M16 3a13 13 0 1 0 13 13A13.013 13.013 0 0 0 16 3M7.786 23.309l.315-.207A2 2 0 0 0 9 21.442l.026-4.53L11.646 13q.02.016.04.027l2.459 1.61c.412.29.92.414 1.419.345l3.936-.533a2 2 0 0 0 1.25-.676l2.771-3.22A2 2 0 0 0 24 9.25v-.791a10.98 10.98 0 0 1 2.471 10.916l-2.017-1.845a2 2 0 0 0-2.117-.375l-3.807 1.581a2.01 2.01 0 0 0-1.21 1.556l-.299 2.024a2 2 0 0 0 1.471 2.227l2.683.707.295.296A10.985 10.985 0 0 1 7.786 23.31z"/>
</svg>
