<svg xmlns="http://www.w3.org/2000/svg" fill="none" viewBox="0 0 32 32">
  <path fill="#000" d="M23 8H9a9.01 9.01 0 0 0-9 9 3.01 3.01 0 0 0 2.125 2.875C2.882 22.421 6.829 24 9 24a5.01 5.01 0 0 0 4.9-4h4.2a5.01 5.01 0 0 0 4.9 4c2.166 0 6.113-1.582 6.875-4.125A3.01 3.01 0 0 0 32 17a9.01 9.01 0 0 0-9-9M11.125 21.125a1 1 0 0 1-1.414 0l-3.069-3.069a1 1 0 0 1 1.414-1.414l3.069 3.064a1 1 0 0 1 0 1.419m14.94-.061a1 1 0 0 1-1.414 0l-3.176-3.175a1.001 1.001 0 0 1 1.415-1.415l3.175 3.176a1 1 0 0 1-.005 1.41zm3.65-3.358C28.668 15.406 25.043 14 23 14a5.01 5.01 0 0 0-4.9 4h-4.2A5.01 5.01 0 0 0 9 14c-2.043 0-5.668 1.406-6.71 3.703A1 1 0 0 1 2 17a7.01 7.01 0 0 1 7-7h14a7.01 7.01 0 0 1 7 7 1 1 0 0 1-.29.703z"/>
</svg>
