<svg xmlns="http://www.w3.org/2000/svg" fill="none" viewBox="0 0 32 32">
  <path fill="#000" d="M32 17a9.01 9.01 0 0 0-9-9H9a9.01 9.01 0 0 0-9 9 3.01 3.01 0 0 0 2.125 2.875C2.882 22.421 6.829 24 9 24a5.01 5.01 0 0 0 4.9-4h4.2a5.01 5.01 0 0 0 4.9 4c2.166 0 6.113-1.582 6.875-4.125A3.01 3.01 0 0 0 32 17M5.681 20.968C4.625 20.345 4 19.61 4 19s.614-1.326 1.641-1.944l4.652 4.65A3 3 0 0 1 9 22c-.941 0-2.275-.415-3.319-1.032m6.025-.675-4.081-4.08c.447-.131.91-.203 1.375-.213a3 3 0 0 1 2.706 4.293M20 19c0-.694.24-1.367.683-1.902l4.442 4.442c-.75.288-1.519.46-2.125.46a3 3 0 0 1-3-3m6.954 1.539-4.49-4.49A3 3 0 0 1 23 16c.941 0 2.275.415 3.319 1.032C27.363 17.65 28 18.39 28 19c0 .474-.375 1.025-1.046 1.539m2.756-2.837C28.667 15.407 25.042 14 23 14a5.01 5.01 0 0 0-4.9 4h-4.2A5.01 5.01 0 0 0 9 14c-2.043 0-5.668 1.406-6.71 3.703A1 1 0 0 1 2 17a7.01 7.01 0 0 1 7-7h14a7.01 7.01 0 0 1 7 7 1 1 0 0 1-.29.703z"/>
</svg>
