<svg xmlns="http://www.w3.org/2000/svg" fill="none" viewBox="0 0 32 32">
  <path fill="#000" d="m30.415 14.585-13-13a2 2 0 0 0-2.83 0l-13 13a2 2 0 0 0 0 2.83l13 13a2 2 0 0 0 2.83 0l13-13a2 2 0 0 0 0-2.83M7 17a1 1 0 1 1-2 0v-2a1 1 0 1 1 2 0zm5 5a1 1 0 1 1-2 0v-2a1 1 0 0 1 2 0zm0-6a1 1 0 1 1-2 0v-6a1 1 0 0 1 2 0zm5 11a1 1 0 1 1-2 0v-2a1 1 0 0 1 2 0zm0-6a1 1 0 1 1-2 0V11a1 1 0 0 1 2 0zm0-14a1 1 0 1 1-2 0V5a1 1 0 0 1 2 0zm5 15a1 1 0 1 1-2 0v-6a1 1 0 0 1 2 0zm0-10a1 1 0 1 1-2 0v-2a1 1 0 0 1 2 0zm5 5a1 1 0 1 1-2 0v-2a1 1 0 0 1 2 0z"/>
</svg>
