<svg xmlns="http://www.w3.org/2000/svg" fill="none" viewBox="0 0 32 32">
  <path fill="#000" d="m31.47 11.117-15-8a1 1 0 0 0-.94 0l-15 8a1 1 0 0 0 0 1.765L4 14.734v6.052c0 .491.18.965.508 1.331C6.145 23.941 9.814 27 16 27a16.3 16.3 0 0 0 6-1.095V30a1 1 0 1 0 2 0v-5.061a14.5 14.5 0 0 0 3.493-2.822c.327-.366.508-.84.507-1.33v-6.053l3.47-1.852a1 1 0 0 0 0-1.765M16 25c-5.409 0-8.59-2.643-10-4.214V15.8l9.53 5.082a1 1 0 0 0 .94 0L22 17.934v5.792C20.425 24.461 18.44 25 16 25m10-4.219a12.2 12.2 0 0 1-2 1.781v-5.696l2-1.066zm-2.5-5.914-.027-.016-7-3.734a1 1 0 0 0-.94 1.765L21.375 16 16 18.866 3.125 12 16 5.134 28.875 12z"/>
</svg>
