<svg xmlns="http://www.w3.org/2000/svg" fill="none" viewBox="0 0 32 32">
  <path fill="#000" d="M22 25.905q1.036-.409 2-.966V30a1 1 0 0 1-2 0zm1.47-11.054-7-3.733a1 1 0 0 0-.94 1.765L21.375 16l2.125-1.132zm8-3.733-15-8a1 1 0 0 0-.94 0l-15 8a1 1 0 0 0 0 1.765L4 14.733v6.053c0 .491.18.966.508 1.332C6.145 23.94 9.814 27 16 27a16.3 16.3 0 0 0 6-1.095v-9.571L21.375 16 16 18.866 5.48 13.25 3.125 12 16 5.134 28.875 12l-2.347 1.25h-.008l-3.02 1.618a1 1 0 0 1 .5.866v9.205a14.5 14.5 0 0 0 3.493-2.821A2 2 0 0 0 28 20.786v-6.052l3.47-1.851a1 1 0 0 0 0-1.765"/>
</svg>
