<svg xmlns="http://www.w3.org/2000/svg" fill="none" viewBox="0 0 32 32">
  <path fill="#000" d="M3 13a1 1 0 0 1 1-1h10a1 1 0 0 1 0 2H4a1 1 0 0 1-1-1m25-1H18a1 1 0 0 0 0 2h10a1 1 0 0 0 0-2M9 17H4a1 1 0 0 0 0 2h5a1 1 0 0 0 0-2m19 0h-5a1 1 0 0 0 0 2h5a1 1 0 0 0 0-2m-16 1a1 1 0 0 0 1 1h6a1 1 0 0 0 0-2h-6a1 1 0 0 0-1 1m-5 4H4a1 1 0 0 0 0 2h3a1 1 0 0 0 0-2m7 0h-3a1 1 0 0 0 0 2h3a1 1 0 0 0 0-2m7 0h-3a1 1 0 0 0 0 2h3a1 1 0 0 0 0-2m7 0h-3a1 1 0 0 0 0 2h3a1 1 0 0 0 0-2M4 9h24a1 1 0 1 0 0-2H4a1 1 0 0 0 0 2"/>
</svg>
