<svg xmlns="http://www.w3.org/2000/svg" fill="none" viewBox="0 0 32 32">
  <path fill="#000" d="M6.74 4.327a1 1 0 1 0-1.48 1.345l1.216 1.34A10 10 0 0 0 6 7a1 1 0 0 0-1 1v10a11 11 0 0 0 18.651 7.902l1.609 1.77a1.001 1.001 0 1 0 1.48-1.345zM16 20.421a11.02 11.02 0 0 0-9-6.375V9.055q.84.093 1.648.344l8.388 9.226A11 11 0 0 0 16 20.421M27 8v10c0 .988-.132 1.972-.394 2.925a1 1 0 0 1-1.704.407l-4.165-4.582a1 1 0 0 1 .288-1.564A10.8 10.8 0 0 1 25 14.044V9.056a9.04 9.04 0 0 0-6.294 3.67 1.002 1.002 0 1 1-1.625-1.174 11 11 0 0 1 3.145-2.912C19.078 6.225 16.931 4.717 16 4.15a12.5 12.5 0 0 0-2.925 2.492 1 1 0 0 1-1.526-1.29 14 14 0 0 1 4-3.25 1 1 0 0 1 .895 0c.165.082 3.784 1.928 5.573 5.643 1.27-.493 2.62-.746 3.983-.745a1 1 0 0 1 1 1"/>
</svg>
