<svg xmlns="http://www.w3.org/2000/svg" fill="none" viewBox="0 0 32 32">
  <path fill="#000" d="M26 7a10.9 10.9 0 0 0-3.98.75c-1.79-3.712-5.406-5.557-5.571-5.641a1 1 0 0 0-.895 0c-.167.08-3.783 1.925-5.573 5.641A10.9 10.9 0 0 0 6 7a1 1 0 0 0-1 1v10a11.015 11.015 0 0 0 9.435 10.887.5.5 0 0 0 .565-.5v-6.353a1.02 1.02 0 0 1 .934-1.031 1 1 0 0 1 1.066 1v6.392a.5.5 0 0 0 .565.5A11.015 11.015 0 0 0 27 18V8a1 1 0 0 0-1-1M15 18.683a11 11 0 0 0-8-4.637V9.055A9.013 9.013 0 0 1 15 18zm1-5.263a11.1 11.1 0 0 0-4.23-4.781c1.151-2.401 3.3-3.916 4.23-4.488.931.573 3.079 2.088 4.23 4.488A11.1 11.1 0 0 0 16 13.42m9 .625a11 11 0 0 0-8 4.636V18a9.013 9.013 0 0 1 8-8.945z"/>
</svg>
