<svg xmlns="http://www.w3.org/2000/svg" fill="none" viewBox="0 0 32 32">
  <path fill="#000" d="M6.74 4.328a1 1 0 1 0-1.48 1.345L6.476 7.01A10 10 0 0 0 6 7.001a1 1 0 0 0-1 1v10a11.013 11.013 0 0 0 11 11c2.856.001 5.6-1.11 7.651-3.098l1.609 1.77a1 1 0 1 0 1.48-1.345zm10.296 14.297A11 11 0 0 0 16 20.421a11.02 11.02 0 0 0-9-6.375v-4.99q.84.093 1.648.343zM15 26.945A9.013 9.013 0 0 1 7 18v-1.945A9.01 9.01 0 0 1 15 25zm2 0V25c0-1.72.494-3.403 1.42-4.851l3.885 4.274A8.98 8.98 0 0 1 17 26.945M27 18c0 .988-.132 1.972-.394 2.925a1 1 0 0 1-1.93-.529c.215-.78.324-1.586.324-2.396v-1.946a8.9 8.9 0 0 0-3.07.916 1 1 0 1 1-.905-1.782A10.8 10.8 0 0 1 25 14.045V9.056a9.04 9.04 0 0 0-6.294 3.67 1.002 1.002 0 1 1-1.625-1.173 11 11 0 0 1 3.145-2.913C19.078 6.225 16.931 4.718 16 4.15a12.5 12.5 0 0 0-2.925 2.493 1 1 0 1 1-1.526-1.292 14 14 0 0 1 4-3.25 1 1 0 0 1 .895 0c.165.083 3.784 1.93 5.573 5.644C23.287 7.252 24.637 7 26 7a1 1 0 0 1 1 1z"/>
</svg>
