<svg xmlns="http://www.w3.org/2000/svg" fill="none" viewBox="0 0 32 32">
  <path fill="#000" d="M26 7c-1.362 0-2.712.254-3.981.75-1.79-3.712-5.406-5.557-5.571-5.64a1 1 0 0 0-.896 0c-.166.083-3.78 1.928-5.57 5.64A10.9 10.9 0 0 0 6 7a1 1 0 0 0-1 1v10a11 11 0 1 0 22 0V8a1 1 0 0 0-1-1M15 26.945A9.01 9.01 0 0 1 7 18v-1.945A9.013 9.013 0 0 1 15 25zm0-8.262a11 11 0 0 0-8-4.637v-4.99A9.013 9.013 0 0 1 15 18zM11.769 8.639C12.92 6.238 15.07 4.723 16 4.15c.93.573 3.079 2.088 4.23 4.488A11.1 11.1 0 0 0 16 13.42a11.07 11.07 0 0 0-4.231-4.781M25 18a9.013 9.013 0 0 1-8 8.945V25a9.013 9.013 0 0 1 8-8.945zm0-3.954a11 11 0 0 0-8 4.637V18a9.013 9.013 0 0 1 8-8.945z"/>
</svg>
