<svg xmlns="http://www.w3.org/2000/svg" fill="none" viewBox="0 0 32 32">
  <path fill="#000" d="M25 19a3.98 3.98 0 0 0-2.441.835l-2.89-2.25c.219-.5.331-1.04.33-1.585 0-.092 0-.185-.01-.276l1.655-.552a4 4 0 1 0-.634-1.896l-1.654.552a4 4 0 0 0-4.015-1.773l-.855-1.93a4 4 0 1 0-1.827.82l.855 1.925a3.99 3.99 0 0 0-1.072 4.955L9.23 20.68a4.008 4.008 0 1 0 1.328 1.5l3.214-2.855a3.99 3.99 0 0 0 4.67-.155l2.889 2.25A4 4 0 0 0 21 23a4 4 0 1 0 4-4m0-8a2 2 0 1 1 0 4 2 2 0 0 1 0-4M10 7a2 2 0 1 1 4 0 2 2 0 0 1-4 0M7 26a2 2 0 1 1 0-4 2 2 0 0 1 0 4m18-1a2 2 0 1 1 0-4 2 2 0 0 1 0 4"/>
</svg>
