<svg xmlns="http://www.w3.org/2000/svg" fill="none" viewBox="0 0 32 32">
  <path fill="#000" d="m30.707 5.292-4-4a1 1 0 0 0-1.59 1.177l-7.552 7.55c-2.849-1.482-6.039-1.358-7.971.573A5.3 5.3 0 0 0 8.42 12.39a1.03 1.03 0 0 1-.944.61c-1.823.062-3.407.716-4.581 1.89-1.51 1.513-2.145 3.686-1.802 6.12.332 2.328 1.54 4.635 3.407 6.49 1.866 1.857 4.168 3.07 6.5 3.403q.628.094 1.262.098c1.915 0 3.604-.654 4.846-1.895 1.173-1.174 1.827-2.758 1.888-4.581a1.03 1.03 0 0 1 .615-.944 5.3 5.3 0 0 0 1.796-1.174c1.932-1.932 2.055-5.125.573-7.971l7.551-7.553a1 1 0 0 0 1.177-1.59zM25 8.585 23.415 7 26.5 3.914 28.086 5.5zM20 20.99c-.319.317-.7.566-1.119.729a3.03 3.03 0 0 0-1.875 2.736c-.045 1.308-.5 2.426-1.303 3.235-1.055 1.054-2.625 1.494-4.42 1.236-1.908-.27-3.817-1.278-5.374-2.836-1.558-1.557-2.565-3.466-2.836-5.365-.25-1.796.182-3.365 1.236-4.42.809-.806 1.927-1.259 3.235-1.306a3.03 3.03 0 0 0 2.736-1.875c.163-.421.41-.805.729-1.125.686-.686 1.625-1.016 2.672-1.016a6.2 6.2 0 0 1 2.392.523l-2.51 2.517a4 4 0 1 0 4.413 4.413l2.51-2.51c.815 1.912.698 3.874-.486 5.064m-1.3-7.685q.397.4.741.844l-1.927 1.927a4.03 4.03 0 0 0-1.585-1.585l1.927-1.928q.442.346.838.742zM14 16a2 2 0 1 1 0 4 2 2 0 0 1 0-4m6.106-4.106a11 11 0 0 0-.836-.75L22 8.414 23.586 10l-2.728 2.727q-.354-.436-.75-.835zm-8.4 12.398a1 1 0 0 1-1.413 1.415l-4-4a1 1 0 1 1 1.415-1.413z"/>
</svg>
