<svg xmlns="http://www.w3.org/2000/svg" fill="none" viewBox="0 0 32 32">
  <path fill="#000" d="m30.707 5.292-4-4a1 1 0 0 0-1.59 1.177l-7.552 7.55c-2.849-1.482-6.039-1.358-7.971.573A5.3 5.3 0 0 0 8.42 12.39a1.03 1.03 0 0 1-.944.61c-1.823.062-3.407.716-4.581 1.89-1.51 1.513-2.145 3.686-1.802 6.12.332 2.328 1.54 4.635 3.407 6.49 1.866 1.857 4.168 3.07 6.5 3.403q.628.094 1.262.098c1.915 0 3.604-.654 4.846-1.895 1.173-1.174 1.827-2.758 1.888-4.581a1.03 1.03 0 0 1 .615-.944 5.3 5.3 0 0 0 1.796-1.174c1.932-1.932 2.055-5.125.573-7.971l7.551-7.553a1 1 0 0 0 1.177-1.59zm-19 20.414a1 1 0 0 1-1.413 0l-4-4a1 1 0 0 1 1.415-1.414l4 4a1 1 0 0 1-.002 1.414m5.268-5.732a3.5 3.5 0 1 1-4.95-4.948 3.5 3.5 0 0 1 4.95 4.948m3.883-7.25q-.354-.437-.75-.835a11 11 0 0 0-.837-.75L22 8.414 23.586 10zM25 8.584 23.415 7 26.5 3.914 28.086 5.5 25 8.585z"/>
</svg>
