<svg xmlns="http://www.w3.org/2000/svg" fill="none" viewBox="0 0 32 32">
  <path fill="#000" d="M6.009 13H25.99a2 2 0 0 0 1.965-2.422C27.028 6.188 22 3 16 3S4.973 6.188 4.044 10.578A2 2 0 0 0 6.009 13M16 5c4.977 0 9.276 2.576 9.991 6H6.01L6 10.991C6.724 7.576 11.023 5 16 5m12.657 14.06-5.14 1.875-4.642-1.864a1 1 0 0 0-.742 0l-4.625 1.851-4.633-1.85a1 1 0 0 0-.713-.012l-5.5 2a1 1 0 0 0 .684 1.875L5 22.336V23a5 5 0 0 0 5 5h12a5 5 0 0 0 5-5v-1.209l2.341-.851a1 1 0 1 0-.684-1.875zM25 23a3 3 0 0 1-3 3H10a3 3 0 0 1-3-3v-1.39l1.484-.54 4.641 1.859a1 1 0 0 0 .742 0l4.625-1.851 4.625 1.85a1 1 0 0 0 .713.012l1.159-.421zM2 16a1 1 0 0 1 1-1h26a1 1 0 0 1 0 2H3a1 1 0 0 1-1-1"/>
</svg>
