<svg xmlns="http://www.w3.org/2000/svg" fill="none" viewBox="0 0 32 32">
  <path fill="#000" d="M23.034 3.741a1 1 0 0 1 1.225-.707c1.987.534 3.625 1.764 4.607 3.466a1 1 0 0 1-1.732 1c-.715-1.24-1.92-2.14-3.393-2.534a1 1 0 0 1-.707-1.225M9.948 28.215C8.775 27.29 7.795 26.11 6.866 24.5a1 1 0 0 0-1.732 1c1.061 1.838 2.196 3.199 3.575 4.285a1 1 0 0 0 1.239-1.57M24.524 7.303a2.002 2.002 0 0 0-3.68.473 2 2 0 0 0 .216 1.527l2 3.463a1 1 0 0 1-.366 1.367 4 4 0 0 0-1.464 5.463 1 1 0 1 1-1.733 1 6.01 6.01 0 0 1 1.375-7.625l-5.043-8.73a2 2 0 0 0-3.465 2l4 6.928a1 1 0 0 1-1.732 1l-5-8.661a2 2 0 1 0-3.464 2l5.5 9.526a1 1 0 1 1-1.732 1l-3.5-6.061a2.001 2.001 0 0 0-3.465 2l5.5 9.526a11 11 0 0 0 19.053-11z"/>
</svg>
