<svg xmlns="http://www.w3.org/2000/svg" fill="none" viewBox="0 0 32 32">
  <path fill="#000" d="M27 13v6.366c0 5.775-4.606 10.57-10.375 10.633a10.47 10.47 0 0 1-7.55-3.074C6.349 24.041 3.269 17 3.269 17a2 2 0 0 1 .816-2.779c.958-.5 2.138-.105 2.675.828l2.625 4.555a.76.76 0 0 0 .75.386h.015a1.02 1.02 0 0 0 .85-1.022V4a2 2 0 0 1 2.096-2C14.172 2.05 15 2.978 15 4.054V13a1 1 0 0 0 1.066 1A1.02 1.02 0 0 0 17 12.97V11a2 2 0 0 1 2.096-2c1.076.05 1.904.978 1.904 2.054V14a1 1 0 0 0 1.066 1A1.02 1.02 0 0 0 23 13.97v-.91c0-1.076.828-2 1.904-2.054A2 2 0 0 1 27 13"/>
</svg>
