<svg xmlns="http://www.w3.org/2000/svg" fill="none" viewBox="0 0 32 32">
  <path fill="#000" d="M23.5 11c-.519 0-1.032.115-1.5.339v-3.84a3.5 3.5 0 0 0-5.17-3.074A3.5 3.5 0 0 0 10 5.5v.839A3.5 3.5 0 0 0 5 9.5V19a11 11 0 1 0 22 0v-4.5a3.5 3.5 0 0 0-3.5-3.5m1.5 8a9 9 0 0 1-18 0V9.5a1.5 1.5 0 0 1 3 0V14a1 1 0 0 0 2 0V5.5a1.5 1.5 0 1 1 3 0V13a1 1 0 0 0 2 0V7.5a1.5 1.5 0 1 1 3 0V15a1 1 0 0 0 2 0v-.5a1.5 1.5 0 0 1 3 0zm-9-3c-4.565 0-6.801 4.367-6.895 4.552a1 1 0 0 0 0 .895C9.199 21.632 11.435 26 16 26s6.801-4.368 6.895-4.553a1 1 0 0 0 0-.895C22.801 20.367 20.565 16 16 16m0 7a2 2 0 1 1 0-4 2 2 0 0 1 0 4"/>
</svg>
