<svg xmlns="http://www.w3.org/2000/svg" fill="none" viewBox="0 0 32 32">
  <path fill="#000" d="M14.97 27.242a1 1 0 0 1-1.22.728l-4-1a1 1 0 0 1-.312-.139l-3-2a1 1 0 1 1 1.11-1.664l2.854 1.904 3.833.959a1 1 0 0 1 .735 1.212m16.586-12.057a2 2 0 0 1-1 1.156l-2.96 1.48-1.885 1.886-5 5a1 1 0 0 1-.95.263l-8-2a1 1 0 0 1-.338-.156l-6.94-4.955-3.035-1.518a2 2 0 0 1-.895-2.682l3.106-6.212a2 2 0 0 1 2.682-.895L9.1 7.927l6.625-1.892a1 1 0 0 1 .55 0L22.9 7.927l2.757-1.375a2 2 0 0 1 2.683.895l3.106 6.212a2 2 0 0 1 .111 1.526zM23.5 19.082l-3.464-2.773c-2.442 2-5.544 2.263-8.114.625a2 2 0 0 1-.33-3.113L17.2 8.382 16 8.04l-6.302 1.8-3.422 6.841 6.15 4.394 7.268 1.816zm2.28-2.28L22.382 10h-3.977L13 15.25c1.582 1.011 4.064 1.29 6.29-.954a1 1 0 0 1 1.335-.076l4.301 3.446z"/>
</svg>
