<svg xmlns="http://www.w3.org/2000/svg" fill="none" viewBox="0 0 32 32">
  <path fill="#000" d="m27.525 12.5-2.25-3.898a3.5 3.5 0 0 0-5.912-.24L17.445 5.04a3.5 3.5 0 0 0-6.015-.08 3.5 3.5 0 0 0-5.375 4.348l.418.724a3.5 3.5 0 0 0-2.75 5.24l4.75 8.228a10.93 10.93 0 0 0 6.678 5.125A11 11 0 0 0 27.525 12.5m-.834 7.829a9 9 0 0 1-16.487 2.17l-4.75-8.227a1.5 1.5 0 0 1 2.599-1.5l2.75 4.763a1.001 1.001 0 0 0 1.867-.628 1 1 0 0 0-.136-.372l-4.75-8.226a1.5 1.5 0 1 1 2.599-1.5l4.25 7.36a1 1 0 0 0 1.73-1l-3.25-5.624a1.5 1.5 0 0 1 2.598-1.5l4.29 7.427a6.01 6.01 0 0 0-1.376 7.625 1 1 0 0 0 1.733-1 4 4 0 0 1 1.463-5.463 1 1 0 0 0 .367-1.367l-1.25-2.165a1.5 1.5 0 0 1 2.597-1.5l2.25 3.898a8.94 8.94 0 0 1 .906 6.827zM23.034 3.74a1 1 0 0 1 1.225-.707c1.989.533 3.625 1.763 4.607 3.466a1 1 0 0 1-1.732 1c-.715-1.24-1.92-2.14-3.393-2.534a1 1 0 0 1-.707-1.225m-12.92 25.884a1 1 0 0 1-1.405.166c-1.375-1.086-2.514-2.447-3.575-4.285a1 1 0 1 1 1.732-1c.93 1.61 1.91 2.79 3.082 3.715a1 1 0 0 1 .166 1.404"/>
</svg>
