<svg xmlns="http://www.w3.org/2000/svg" fill="none" viewBox="0 0 32 32">
  <path fill="#000" d="M29 15v1a13 13 0 0 1-13.046 13c-6.75-.024-12.25-5.258-12.89-11.848a.5.5 0 0 1 .695-.5A4.49 4.49 0 0 0 9 15.325a4.49 4.49 0 0 0 6.742.291 5.05 5.05 0 0 0 1.61 1.625A6 6 0 0 0 15 22a1 1 0 0 0 1.084 1A1.027 1.027 0 0 0 17 21.968 4 4 0 0 1 21 18a1 1 0 0 0 1-1.066A1.023 1.023 0 0 0 20.969 16H20a3 3 0 0 1-3-3v-2h8a4 4 0 0 1 4 4M5.591 15C6.946 14.95 8 13.796 8 12.44V9.565C8 8.204 6.946 7.05 5.591 7A2.5 2.5 0 0 0 3 9.5v3A2.5 2.5 0 0 0 5.591 15m7 0C13.946 14.951 15 13.797 15 12.441V6.566c0-1.356-1.054-2.51-2.409-2.559A2.5 2.5 0 0 0 10 6.5v6a2.5 2.5 0 0 0 2.591 2.5M22 6.5A2.5 2.5 0 0 0 19.409 4C18.054 4.05 17 5.204 17 6.56V9h4.5a.5.5 0 0 0 .5-.5z"/>
</svg>
