<svg xmlns="http://www.w3.org/2000/svg" fill="none" viewBox="0 0 32 32">
  <path fill="#000" d="M7 8a6 6 0 1 1 12 0 1 1 0 0 1-2 0 4 4 0 0 0-8 0 1 1 0 1 1-2 0m17.904 7c-1.076.05-1.904.977-1.904 2.054v.91a1.02 1.02 0 0 1-.934 1.031 1 1 0 0 1-1.066-1v-2.939c0-1.076-.827-2-1.904-2.053A2 2 0 0 0 17 15v1.966a1.02 1.02 0 0 1-.934 1.031 1 1 0 0 1-1.066-1v-8.94c0-1.077-.827-2-1.904-2.054A2 2 0 0 0 11 8v14.968a1.024 1.024 0 0 1-.84 1.02h-.015a.76.76 0 0 1-.75-.387L6.77 19.046c-.537-.932-1.717-1.321-2.675-.827A2 2 0 0 0 3.27 21l3.875 7.506A1 1 0 0 0 8 29h17a1 1 0 0 0 .895-.552c.045-.09 1.105-1.883 1.105-5.082V17a2 2 0 0 0-2.096-2"/>
</svg>
