<svg xmlns="http://www.w3.org/2000/svg" fill="none" viewBox="0 0 32 32">
  <path fill="#000" d="M21 3V1a1 1 0 0 1 2 0v2a1 1 0 0 1-2 0m4.479 2.125a1 1 0 0 0 1.375-.332l1-1.64a1.001 1.001 0 0 0-1.09-1.497 1 1 0 0 0-.618.456l-1 1.638a1 1 0 0 0 .331 1.375zm5.93 1.574a1 1 0 0 0-1.258-.645l-1.875.606a1 1 0 1 0 .614 1.904l1.875-.607a1 1 0 0 0 .642-1.263zm-3.75 4.992a9.96 9.96 0 0 1-1.575 12.059A10 10 0 0 1 7.81 26l-4.375-7.579a3.25 3.25 0 0 1 2.397-4.846l-.5-.867a3.25 3.25 0 0 1 2.293-4.833 3.25 3.25 0 0 1 1.424-3.921 3.25 3.25 0 0 1 3.85.447 3.25 3.25 0 0 1 5.486.224l1.5 2.599a3.25 3.25 0 0 1 5.396.347zm-3.46 11.385a7.96 7.96 0 0 0-.8-6.076l-2.375-4.114a1.25 1.25 0 0 0-2.22 1.148l1.428 2.466a.999.999 0 0 1-1.475 1.293 1 1 0 0 1-.257-.293l-4.375-7.559a1.25 1.25 0 0 0-2.171 1.234L15.03 16.5a.997.997 0 0 1-.352 1.389 1 1 0 0 1-1.38-.389l-4.07-7.043a1.25 1.25 0 1 0-2.165 1.25l2 3.465 2.5 4.33a1 1 0 1 1-1.733 1l-2.5-4.33a1.25 1.25 0 0 0-2.165 1.25l4.375 7.58a8 8 0 0 0 14.656-1.93l.002.004z"/>
</svg>
