<svg xmlns="http://www.w3.org/2000/svg" fill="none" viewBox="0 0 32 32">
  <path fill="#000" d="M26 17.5V22c0 3.199-1.061 5.356-1.106 5.448a1 1 0 0 1-1.842-.132 1 1 0 0 1 .054-.763c.008-.015.895-1.852.895-4.553v-4.5a1.5 1.5 0 0 0-3 0v.5a1 1 0 0 1-2 0v-2.5a1.5 1.5 0 0 0-3 0V17a1 1 0 0 1-2 0V8.5a1.5 1.5 0 0 0-3 0V22a1 1 0 0 1-1.848.529l-2.335-3.75-.018-.029a1.5 1.5 0 1 0-2.6 1.5l3.661 6.25a1 1 0 1 1-1.726 1L2.47 21.25a3.5 3.5 0 1 1 6.051-3.521l.48.771v-10a3.5 3.5 0 0 1 7 0v3.838a3.5 3.5 0 0 1 4.83 2.086 3.5 3.5 0 0 1 5.17 3.076zm4.708-11.207-4-4a1 1 0 1 0-1.414 1.415L27.585 6H21a1 1 0 1 0 0 2h6.586l-2.293 2.293a1 1 0 0 0 1.413 1.415l4-4a1 1 0 0 0 .002-1.415"/>
</svg>
