<svg xmlns="http://www.w3.org/2000/svg" fill="none" viewBox="0 0 32 32">
  <path fill="#000" d="M26 16v6.366c0 3.199-1.06 4.991-1.105 5.081A1 1 0 0 1 24 28H7a1 1 0 0 1-.862-.494L2.268 20a2 2 0 0 1 .817-2.779c.958-.5 2.138-.105 2.675.828l2.625 4.555a.76.76 0 0 0 .75.386h.015a1.024 1.024 0 0 0 .85-1.023V7a2 2 0 0 1 2.096-2C13.172 5.05 14 5.977 14 7.054V16a1 1 0 0 0 1.066 1A1.02 1.02 0 0 0 16 15.969v-1.97a2 2 0 0 1 2.096-2c1.076.05 1.904.978 1.904 2.055V17a1 1 0 0 0 1.066 1A1.02 1.02 0 0 0 22 16.969v-.91c0-1.077.828-2 1.904-2.054A2 2 0 0 1 26 16m4-10h-6.586l2.293-2.293a1.001 1.001 0 0 0-1.415-1.415l-4 4a1 1 0 0 0 0 1.415l4 4a1 1 0 0 0 1.415 0 1 1 0 0 0 0-1.415L23.415 8H30a1 1 0 1 0 0-2"/>
</svg>
