<svg xmlns="http://www.w3.org/2000/svg" fill="none" viewBox="0 0 32 32">
  <path fill="#000" d="m29.415 22.5-4.53-4.531-4.557-15.037A2.72 2.72 0 0 0 16 1.616a2.72 2.72 0 0 0-4.327 1.316L7.115 17.97l-4.53 4.53a2 2 0 0 0 0 2.827l4.086 4.087a2 2 0 0 0 2.83 0l6.034-6.04q.251-.251.465-.535.214.284.465.536l6.035 6.04a2 2 0 0 0 2.829 0l4.086-4.086a2 2 0 0 0 0-2.83zM8.085 28 4 23.915l1.586-1.586 4.087 4.086zM15 19.844a2.98 2.98 0 0 1-.875 2.125l-3.04 3.03L7 20.916l1.706-1.708a1 1 0 0 0 .25-.417l4.625-15.278a.722.722 0 0 1 1.42.21zm2.875 2.125A2.98 2.98 0 0 1 17 19.844V3.719a.722.722 0 0 1 1.414-.21l4.625 15.277a1 1 0 0 0 .25.418l1.811 1.81-4.175 4zm6.04 6.03-1.57-1.57 4.174-4L28 23.915 23.915 28z"/>
</svg>
