<svg xmlns="http://www.w3.org/2000/svg" fill="none" viewBox="0 0 32 32">
  <path fill="#000" d="M25 10h-2V8a4 4 0 0 0-7-2.641 4 4 0 0 0-6.974 2.193A4 4 0 0 0 3 11v5a13 13 0 0 0 26 0v-2a4 4 0 0 0-4-4m-6-4a2 2 0 0 1 2 2v2h-4V8a2 2 0 0 1 2-2m-8 2a2 2 0 1 1 4 0v5a2 2 0 0 1-4 0zm-6 3a2 2 0 0 1 4 0v2a2 2 0 0 1-4 0zm22 5a11 11 0 0 1-21.99.469A3.99 3.99 0 0 0 10 15.64a3.99 3.99 0 0 0 5.572.419c.36.596.869 1.089 1.476 1.43A6 6 0 0 0 15 22a1 1 0 0 0 2 0 4 4 0 0 1 4-4 1 1 0 0 0 0-2h-2a2 2 0 0 1-2-2v-2h8a2 2 0 0 1 2 2z"/>
</svg>
