<svg xmlns="http://www.w3.org/2000/svg" fill="none" viewBox="0 0 32 32">
  <path fill="#000" d="M28.791 17.633a3.06 3.06 0 0 0-2.655-.53l-5.23 1.203A3.5 3.5 0 0 0 17.5 14h-6.258a3.98 3.98 0 0 0-2.828 1.171L5.586 18H2a2 2 0 0 0-2 2v5a2 2 0 0 0 2 2h13q.123 0 .242-.03l8-2a1 1 0 0 0 .15-.05l4.858-2.068.055-.024a3.074 3.074 0 0 0 .491-5.195zM2 20h3v5H2zm25.429 1.026-4.75 2.023L14.875 25H7v-5.586l2.829-2.828A1.98 1.98 0 0 1 11.242 16H17.5a1.5 1.5 0 1 1 0 3H14a1 1 0 0 0 0 2h4q.113 0 .224-.025l8.375-1.926.038-.01a1.075 1.075 0 0 1 .788 1.987zM20.5 12q.371 0 .738-.06a4.5 4.5 0 1 0 3.527-5.875A4.5 4.5 0 1 0 20.5 12m7.5-1.5a2.5 2.5 0 1 1-5 0 2.5 2.5 0 0 1 5 0M20.5 5a2.5 2.5 0 0 1 2.406 1.826 4.5 4.5 0 0 0-1.875 3.117A2.5 2.5 0 1 1 20.5 5"/>
</svg>
