<svg xmlns="http://www.w3.org/2000/svg" fill="none" viewBox="0 0 32 32">
  <path fill="#000" d="M26 17.5V22c0 3.199-1.061 5.356-1.106 5.448a1 1 0 1 1-1.788-.895c.008-.015.895-1.852.895-4.553v-4.5a1.5 1.5 0 1 0-3 0v.5a1 1 0 1 1-2 0v-2.5a1.5 1.5 0 1 0-3 0V17a1 1 0 1 1-2 0V8.5a1.5 1.5 0 1 0-3 0V22a1 1 0 0 1-1.849.529l-2.335-3.75-.017-.029a1.5 1.5 0 1 0-2.6 1.5l3.661 6.25a1 1 0 1 1-1.726 1L2.47 21.25a3.5 3.5 0 1 1 6.051-3.521L9 18.5v-10a3.5 3.5 0 0 1 7 0v3.838a3.5 3.5 0 0 1 4.831 2.086A3.5 3.5 0 0 1 26 17.5M30 6h-6.586l2.292-2.292a1 1 0 1 0-1.413-1.415l-4 4a1 1 0 0 0 0 1.415l4 4a1 1 0 1 0 1.413-1.415L23.414 8H30a1 1 0 1 0 0-2"/>
</svg>
