<svg xmlns="http://www.w3.org/2000/svg" fill="none" viewBox="0 0 32 32">
  <path fill="#000" d="M14.531 14h3.938l-1 4H13.53l1-4zM28 6v20a2 2 0 0 1-2 2H6a2 2 0 0 1-2-2V6a2 2 0 0 1 2-2h20a2 2 0 0 1 2 2m-2 7a1 1 0 0 0-1-1h-3.969l.939-3.758a1 1 0 0 0-1.94-.485L18.969 12H15.03l.939-3.758a1 1 0 0 0-1.94-.485L12.969 12H8a1 1 0 0 0 0 2h4.469l-1 4H7a1 1 0 0 0 0 2h3.969l-.939 3.758A1 1 0 0 0 11.008 25a1 1 0 0 0 .968-.758L13.031 20h3.938l-.939 3.758a1 1 0 0 0 1.939.485L19.03 20H24a1 1 0 0 0 0-2h-4.469l1-4H25a1 1 0 0 0 1-1"/>
</svg>
