<svg xmlns="http://www.w3.org/2000/svg" fill="none" viewBox="0 0 32 32">
  <path fill="#000" d="M9 17H4a1 1 0 0 1 0-2h4.465l1.703-2.555a1 1 0 0 1 1.665 0L15 17.195l1.168-1.75A1 1 0 0 1 17 15h3a1 1 0 0 1 0 2h-2.465l-1.703 2.555a1 1 0 0 1-1.665 0L11 14.803l-1.168 1.75A1 1 0 0 1 9 17M22.25 4C19.669 4 17.409 5.11 16 6.986 14.591 5.11 12.331 4 9.75 4A7.76 7.76 0 0 0 2 11.75v.281a1 1 0 1 0 2-.062v-.219A5.757 5.757 0 0 1 9.75 6c2.431 0 4.473 1.295 5.325 3.375a1 1 0 0 0 1.85 0C17.777 7.291 19.819 6 22.25 6A5.757 5.757 0 0 1 28 11.75c0 6.701-9.72 12.769-12 14.1-1.354-.789-5.329-3.25-8.335-6.526a1.001 1.001 0 0 0-1.475 1.352c3.896 4.25 9.116 7.085 9.336 7.204a1 1 0 0 0 .948 0C17.026 27.583 30 20.5 30 11.75A7.76 7.76 0 0 0 22.25 4"/>
</svg>
