<svg xmlns="http://www.w3.org/2000/svg" fill="none" viewBox="0 0 32 32">
  <path fill="#000" d="M30 11.75c0 8.75-12.974 15.832-13.526 16.125a1 1 0 0 1-.948 0c-.418-.225-7.944-4.336-11.585-10.111A.5.5 0 0 1 4.365 17H9a1 1 0 0 0 .832-.445L11 14.805l3.168 4.75a1 1 0 0 0 1.68-.023L17.535 17H20a1 1 0 0 0 1-1.066A1.023 1.023 0 0 0 19.969 15H17a1 1 0 0 0-.832.445L15 17.195l-3.168-4.75a1 1 0 0 0-1.68.022L8.466 15H2.941a.5.5 0 0 1-.478-.351A9.6 9.6 0 0 1 2 11.75 7.76 7.76 0 0 1 9.75 4c2.581 0 4.841 1.11 6.25 2.986C17.409 5.11 19.669 4 22.25 4A7.76 7.76 0 0 1 30 11.75"/>
</svg>
