<svg xmlns="http://www.w3.org/2000/svg" fill="none" viewBox="0 0 32 32">
  <path fill="#000" d="M21.184 6.099a1 1 0 0 0-.368-1.966C18.802 4.51 17.125 5.522 16 7c-1.408-1.875-3.67-3-6.25-3A7.76 7.76 0 0 0 2 11.75c0 8.75 12.974 15.834 13.526 16.125a.99.99 0 0 0 .948 0 41.6 41.6 0 0 0 5.136-3.402.998.998 0 0 0-.095-1.68 1 1 0 0 0-1.125.096A43 43 0 0 1 17 25.24V9.212c.73-1.618 2.242-2.75 4.184-3.113M15 25.25c-3.303-2.074-11-7.536-11-13.5A5.757 5.757 0 0 1 9.75 6c2.364 0 4.357 1.223 5.25 3.205zM29.069 12a1 1 0 0 1-.111 0 1 1 0 0 1-.993-.89 5.74 5.74 0 0 0-2.521-4.142 1 1 0 1 1 1.112-1.662 7.73 7.73 0 0 1 3.396 5.584A1 1 0 0 1 29.07 12zm-.261 4.453c-.71 1.42-1.743 2.875-3.074 4.31a.999.999 0 0 1-1.685-1.023 1 1 0 0 1 .217-.334c1.202-1.3 2.125-2.593 2.75-3.846a.999.999 0 1 1 1.789.893z"/>
</svg>
