<svg xmlns="http://www.w3.org/2000/svg" fill="none" viewBox="0 0 32 32">
  <path fill="#000" d="M22.25 4a7.7 7.7 0 0 0-5.48 2.27l-.77.77-.77-.77A7.75 7.75 0 0 0 2 11.75c0 8.75 12.974 15.834 13.526 16.125a1 1 0 0 0 .948 0C17.026 27.584 30 20.5 30 11.75A7.76 7.76 0 0 0 22.25 4M16 25.85c-2.283-1.33-12-7.389-12-14.1a5.75 5.75 0 0 1 9.816-4.066l.77.77-1.293 1.296a1 1 0 0 0 0 1.414l3.066 3.066-2.067 2.065a1.001 1.001 0 0 0 1.415 1.415l2.773-2.774a1 1 0 0 0 0-1.413l-3.066-3.07 2.77-2.77A5.75 5.75 0 0 1 28 11.75c0 6.701-9.72 12.769-12 14.1"/>
</svg>
