<svg xmlns="http://www.w3.org/2000/svg" fill="none" viewBox="0 0 32 32">
  <path fill="#000" d="M27.875 7.125a7.263 7.263 0 0 0-10.25-.008L16 8.684l-1.625-1.57A7.25 7.25 0 0 0 4.125 17.37l11.171 11.332a1 1 0 0 0 1.425 0l11.154-11.327a7.26 7.26 0 0 0 0-10.25m-1.42 8.845L16 26.575 5.536 15.96a5.25 5.25 0 0 1 7.427-7.425l.012.012 1.584 1.524-1.25 1.206a1 1 0 0 0-.014 1.428L16.586 16l-1.293 1.294a1 1 0 1 0 1.415 1.415l2-2a1 1 0 0 0 0-1.414l-3.28-3.284 3.597-3.464.014-.012a5.251 5.251 0 0 1 7.421 7.43z"/>
</svg>
