<svg xmlns="http://www.w3.org/2000/svg" fill="none" viewBox="0 0 32 32">
  <path fill="#000" d="M28.875 20.523 22.5 19.087 8.707 5.292a1 1 0 0 0-1.445.033C4.514 8.33 3 12.125 3 16v9a2 2 0 0 0 2 2h4a2 2 0 0 0 2-2v-6.118a14.06 14.06 0 0 1 5.986 6.879A1.99 1.99 0 0 0 18.84 27H30a2 2 0 0 0 2-2v-.591a3.965 3.965 0 0 0-3.125-3.886M9 25H5v-7.964a13.9 13.9 0 0 1 4 .89zm21 0H18.835a16.04 16.04 0 0 0-5.784-7.183 15.86 15.86 0 0 0-8.015-2.782 13.83 13.83 0 0 1 3.021-7.563l13.236 13.235a1 1 0 0 0 .487.268l6.655 1.5A1.976 1.976 0 0 1 30 24.413z"/>
</svg>
