<svg xmlns="http://www.w3.org/2000/svg" fill="none" viewBox="0 0 32 32">
  <path fill="#000" d="M29.832 15.445 22.796 4.89A2 2 0 0 0 21.131 4H10.875a2 2 0 0 0-1.664.89L2.174 15.445a1 1 0 0 0-.133.817L4.84 26.526A2.006 2.006 0 0 0 6.764 28H10a2 2 0 0 0 2-2v-2h8v2a2 2 0 0 0 2 2h3.236a2.006 2.006 0 0 0 1.93-1.474l2.799-10.264a1 1 0 0 0-.133-.817M10 22V8.724l3 1.713V17a1 1 0 0 0 2 0v-5.42l.5.295a1 1 0 0 0 1 0l.5-.289V16a1 1 0 0 0 2 0v-5.563l3-1.713V22zM21.131 6l.443.664L16 9.849l-5.574-3.185.449-.664zM10 26H6.764l-2.679-9.824L8 10.303V22a2 2 0 0 0 2 2zm15.236 0H22v-2a2 2 0 0 0 2-2V10.303l3.915 5.874z"/>
</svg>
