<svg xmlns="http://www.w3.org/2000/svg" fill="none" viewBox="0 0 32 32">
  <path fill="#000" d="M17 12.5a1.5 1.5 0 1 1-3 0 1.5 1.5 0 0 1 3 0m12 3.685A13.036 13.036 0 0 1 16.262 29h-.27a12.92 12.92 0 0 1-8.658-3.25 1.004 1.004 0 0 1 1.333-1.5c.754.674 1.6 1.237 2.513 1.671l3.32-4.566c-2.848-1.229-5.934-.706-7.675-.411a3.98 3.98 0 0 1-3.913-1.604l-.037-.054-1.723-2.75a1 1 0 0 1 .324-1.381L14 7.441V4a1 1 0 0 1 1-1h1a13 13 0 0 1 13 13.185m-2-.027A11 11 0 0 0 16 5v3a1 1 0 0 1-.476.851L3.382 16.324l1.17 1.875a1.99 1.99 0 0 0 1.948.772c2-.337 6.096-1.03 9.759 1.023A5.01 5.01 0 0 0 20.999 15a1 1 0 0 1 2 0 7.01 7.01 0 0 1-6.474 6.979l-3.389 4.66c1.007.26 2.046.383 3.086.361A11.037 11.037 0 0 0 27 16.157z"/>
</svg>
