<svg xmlns="http://www.w3.org/2000/svg" fill="none" viewBox="0 0 32 32">
  <path fill="#000" d="M25 14a1 1 0 0 1-1 1h-5a1 1 0 0 1 0-2h5a1 1 0 0 1 1 1m-1 3h-5a1 1 0 0 0 0 2h5a1 1 0 0 0 0-2m5-10v18a2 2 0 0 1-2 2H5a2 2 0 0 1-2-2V7a2 2 0 0 1 2-2h22a2 2 0 0 1 2 2m-2 18V7H5v18zm-10.032-4.25a1 1 0 0 1-1.938.5c-.329-1.282-1.632-2.25-3.031-2.25s-2.702.968-3.032 2.25a1 1 0 0 1-1.937-.5 4.98 4.98 0 0 1 2.149-2.918 4 4 0 1 1 5.64 0 4.97 4.97 0 0 1 2.15 2.918h-.002zM12 17a2 2 0 1 0 0-4 2 2 0 0 0 0 4"/>
</svg>
