<svg xmlns="http://www.w3.org/2000/svg" fill="none" viewBox="0 0 32 32">
  <path fill="#000" d="M24.485 12a8.5 8.5 0 1 0-16.97 0A8.5 8.5 0 1 0 16 26.706 8.5 8.5 0 1 0 24.485 12M16 24.184a6.5 6.5 0 0 1-2-4.423 8.44 8.44 0 0 0 3.988 0A6.5 6.5 0 0 1 16 24.184m-3.596-7.273A6.52 6.52 0 0 1 9.74 13.25a6.5 6.5 0 0 1 4.599.41 8.5 8.5 0 0 0-1.935 3.251m5.257-3.257a6.48 6.48 0 0 1 4.599-.404 6.52 6.52 0 0 1-2.664 3.668 8.5 8.5 0 0 0-1.935-3.264M16 5a6.507 6.507 0 0 1 6.5 6.239 8.46 8.46 0 0 0-6.5 1.055 8.47 8.47 0 0 0-6.494-1.055A6.507 6.507 0 0 1 16 5M5 19.5a6.5 6.5 0 0 1 2.904-5.411A8.55 8.55 0 0 0 12.015 19a8.47 8.47 0 0 0 2.324 6.346A6.5 6.5 0 0 1 5 19.5M20.5 26a6.46 6.46 0 0 1-2.839-.654A8.47 8.47 0 0 0 19.985 19a8.55 8.55 0 0 0 4.111-4.916A6.5 6.5 0 0 1 20.5 26"/>
</svg>
