<svg xmlns="http://www.w3.org/2000/svg" fill="none" viewBox="0 0 32 32">
  <path fill="#000" d="M31 12.934A1.02 1.02 0 0 0 29.966 12H28.81l-1.161-5.419A2.01 2.01 0 0 0 25.692 5H6.309a2.01 2.01 0 0 0-1.956 1.581L3.19 12H2.034A1.02 1.02 0 0 0 1 12.934 1 1 0 0 0 2 14h1v12a2 2 0 0 0 2 2h3a2 2 0 0 0 2-2v-3h2.5a.5.5 0 0 0 .5-.5v-5.466a1.02 1.02 0 0 1 .934-1.031 1 1 0 0 1 1.066 1v5.5a.5.5 0 0 0 .5.5h1a.5.5 0 0 0 .5-.5v-5.47a1.02 1.02 0 0 1 .934-1.03 1 1 0 0 1 1.066 1v5.5a.5.5 0 0 0 .5.5H22v3a2 2 0 0 0 2 2h3a2 2 0 0 0 2-2V14h1a1 1 0 0 0 1-1.066M8.5 19a1.5 1.5 0 1 1 0-3 1.5 1.5 0 0 1 0 3m15 0a1.5 1.5 0 1 1 0-3 1.5 1.5 0 0 1 0 3"/>
</svg>
