<svg xmlns="http://www.w3.org/2000/svg" fill="none" viewBox="0 0 32 32">
  <path fill="#000" d="M30 12h-1.191l-1.162-5.419A2.01 2.01 0 0 0 25.692 5H6.31a2.01 2.01 0 0 0-1.957 1.581L3.192 12H2a1 1 0 0 0 0 2h1v12a2 2 0 0 0 2 2h3a2 2 0 0 0 2-2v-3h12v3a2 2 0 0 0 2 2h3a2 2 0 0 0 2-2V14h1a1 1 0 0 0 0-2M6.309 7H25.69l1.072 5H5.236zM8 26H5v-3h3zm16 0v-3h3v3zm3-5h-8v-4a1 1 0 0 0-2 0v4h-2v-4a1 1 0 0 0-2 0v4H5v-7h22zM7 17.5a1.5 1.5 0 1 1 3 0 1.5 1.5 0 0 1-3 0m15 0a1.5 1.5 0 1 1 3 0 1.5 1.5 0 0 1-3 0"/>
</svg>
