<svg xmlns="http://www.w3.org/2000/svg" fill="none" viewBox="0 0 32 32">
  <path fill="#000" d="M27.939 6H4.064A2.064 2.064 0 0 0 2 8.061v15.875A2.064 2.064 0 0 0 4.061 26h23.875A2.064 2.064 0 0 0 30 23.939V8.064A2.064 2.064 0 0 0 27.939 6M28 23.939a.06.06 0 0 1-.038.056l-.023.005H4.064a.06.06 0 0 1-.057-.038l-.004-.023V8.064a.06.06 0 0 1 .06-.062H27.94a.06.06 0 0 1 .061.062v15.875zM26 16a1 1 0 0 1-1 1H7a1 1 0 0 1 0-2h18a1 1 0 0 1 1 1m0-4a1 1 0 0 1-1 1H7a1 1 0 0 1 0-2h18a1 1 0 0 1 1 1M9 20a1 1 0 0 1-1 1H7a1 1 0 0 1 0-2h1a1 1 0 0 1 1 1m12 0a1 1 0 0 1-1 1h-8a1 1 0 0 1 0-2h8a1 1 0 0 1 1 1m5 0a1 1 0 0 1-1 1h-1a1 1 0 0 1 0-2h1a1 1 0 0 1 1 1"/>
</svg>
