<svg xmlns="http://www.w3.org/2000/svg" fill="none" viewBox="0 0 32 32">
  <path fill="#000" d="M27.931 5.009a1 1 0 0 0-.94-.94C17.475 3.51 9.852 6.375 6.602 11.75a10.9 10.9 0 0 0-1.595 6.125c.072 1.99.652 4 1.724 5.981l-2.439 2.438a1 1 0 1 0 1.415 1.415l2.438-2.439c1.98 1.071 3.991 1.651 5.98 1.723a10.87 10.87 0 0 0 6.125-1.595c5.375-3.25 8.241-10.872 7.681-20.39zM19.22 23.688c-2.844 1.722-6.21 1.75-9.59.096l11.08-11.078a1 1 0 0 0-1.415-1.415L8.216 22.375c-1.649-3.375-1.625-6.75.096-9.589 2.762-4.558 9.325-7.055 17.664-6.757.299 8.332-2.199 14.897-6.757 17.659z"/>
</svg>
