<svg xmlns="http://www.w3.org/2000/svg" fill="none" viewBox="0 0 32 32">
  <path fill="#000" d="M22 29a1 1 0 0 1-1 1H11a1 1 0 0 1 0-2h10a1 1 0 0 1 1 1m5-16a10.95 10.95 0 0 1-4.205 8.651A2.03 2.03 0 0 0 22 23.25V24a2 2 0 0 1-2 2h-8a2 2 0 0 1-2-2v-.75a2 2 0 0 0-.779-1.583A10.95 10.95 0 0 1 5 13.061C4.967 7.104 9.782 2.142 15.735 2A11 11 0 0 1 27 13m-2 0a9 9 0 0 0-9.218-9C10.907 4.115 6.974 8.174 7 13.049a8.96 8.96 0 0 0 3.455 7.037A4 4 0 0 1 12 23.25V24h8v-.75a4.02 4.02 0 0 1 1.559-3.169A8.96 8.96 0 0 0 24.999 13zm-2.014-1.168a7.2 7.2 0 0 0-5.82-5.818 1 1 0 1 0-.332 1.972c2.07.349 3.828 2.106 4.18 4.181a1 1 0 1 0 1.972-.335"/>
</svg>
