<svg xmlns="http://www.w3.org/2000/svg" fill="none" viewBox="0 0 32 32">
  <path fill="#000" d="M26 4H6a2 2 0 0 0-2 2v20a2 2 0 0 0 2 2h20a2 2 0 0 0 2-2V6a2 2 0 0 0-2-2m-9.929 19.707-.682.682A5.5 5.5 0 0 1 7.61 16.61l3-3a5.51 5.51 0 0 1 6.945-.685 1 1 0 1 1-1.112 1.663 3.5 3.5 0 0 0-4.419.436l-3 3a3.5 3.5 0 1 0 4.95 4.95l.681-.683a1.001 1.001 0 0 1 1.415 1.415zm8.318-8.318-3 3a5.51 5.51 0 0 1-6.945.685 1 1 0 1 1 1.112-1.663 3.51 3.51 0 0 0 4.419-.436l3-3a3.5 3.5 0 1 0-4.95-4.95l-.681.682a1 1 0 0 1-1.415-1.415l.682-.68a5.5 5.5 0 0 1 7.778 7.777"/>
</svg>
