<svg xmlns="http://www.w3.org/2000/svg" fill="none" viewBox="0 0 32 32">
  <path fill="#000" d="M26 4H6a2 2 0 0 0-2 2v20a2 2 0 0 0 2 2h20a2 2 0 0 0 2-2V6a2 2 0 0 0-2-2m-7.93 17.707-2.681 2.682A5.5 5.5 0 0 1 7.61 16.61l2.682-2.682a1 1 0 0 1 1.414 0 1 1 0 0 1 0 1.413l-2.682 2.683a3.5 3.5 0 1 0 4.95 4.95l2.681-2.683a1 1 0 0 1 1.414 1.415zm-4.363-2a1 1 0 0 1-1.415-1.415l6-6a1 1 0 0 1 1.415 1.415zM24.39 15.39l-2.681 2.681a1 1 0 0 1-1.415-1.414l2.682-2.681a3.5 3.5 0 1 0-4.95-4.95l-2.682 2.682a1 1 0 1 1-1.414-1.415l2.682-2.68a5.5 5.5 0 0 1 7.778 7.777"/>
</svg>
