<svg xmlns="http://www.w3.org/2000/svg" fill="none" viewBox="0 0 32 32">
  <path fill="#000" d="M26 4H6a2 2 0 0 0-2 2v20a2 2 0 0 0 2 2h20a2 2 0 0 0 2-2V6a2 2 0 0 0-2-2M12 8a1 1 0 0 1 2 0v2a1 1 0 0 1-2 0zm-4 4h2a1 1 0 0 1 0 2H8a1 1 0 0 1 0-2m8.01 10.707-.901.902a4.752 4.752 0 0 1-7.755-1.537 4.75 4.75 0 0 1 1.037-5.18l.902-.902a1 1 0 0 1 1.415 1.414l-.903.901a2.75 2.75 0 1 0 3.89 3.89l.901-.902a1.003 1.003 0 0 1 1.415 0 1 1 0 0 1-.001 1.415zM20 24a1 1 0 0 1-2 0v-2a1 1 0 0 1 2 0zm4-4h-2a1 1 0 0 1 0-2h2a1 1 0 0 1 0 2m-.391-4.891-.902.901a1 1 0 0 1-1.415-1.414l.903-.901a2.75 2.75 0 0 0-3.89-3.89l-.901.902a1 1 0 1 1-1.414-1.415l.901-.9a4.75 4.75 0 1 1 6.718 6.717"/>
</svg>
