<svg xmlns="http://www.w3.org/2000/svg" fill="none" viewBox="0 0 32 32">
  <path fill="#000" d="M28.625 27.781a1 1 0 0 1-1.405-.156C27.049 27.409 23 22.233 23 12a7 7 0 0 0-14 0c0 10.233-4.046 15.409-4.22 15.625a1 1 0 0 1-1.743-.903 1 1 0 0 1 .18-.347c.018-.025.96-1.238 1.89-3.593C5.972 20.6 7 16.956 7 12a9 9 0 1 1 18 0c0 4.955 1.029 8.6 1.891 10.785.935 2.367 1.883 3.58 1.893 3.593a1 1 0 0 1-.16 1.403zM12.5 12a1.5 1.5 0 1 0 0 3 1.5 1.5 0 0 0 0-3m8.5 1.5a1.5 1.5 0 1 0-3 0 1.5 1.5 0 0 0 3 0m-8.553 3.605a1 1 0 0 0-.893 1.789l4 2a1 1 0 0 0 .893 0l4-2a1 1 0 1 0-.895-1.789L16 18.881zM16 23a6.76 6.76 0 0 0-5.875 3.514 1 1 0 0 0 1.15 1.448 1 1 0 0 0 .6-.476 4.67 4.67 0 0 1 8.25 0 1 1 0 0 0 1.361.389 1 1 0 0 0 .389-1.361A6.76 6.76 0 0 0 16 23"/>
</svg>
