<svg xmlns="http://www.w3.org/2000/svg" fill="none" viewBox="0 0 32 32">
  <path fill="#000" d="M20.152 27.218a.5.5 0 0 1-.413.782h-7.477a.5.5 0 0 1-.413-.782 5 5 0 0 1 8.303 0m8.617.42a1.04 1.04 0 0 1-.804.362H23.07a.5.5 0 0 1-.47-.331 7 7 0 0 0-13.199 0 .5.5 0 0 1-.47.331H4.03a1.02 1.02 0 0 1-.803-.366 1 1 0 0 1-.007-1.259c.007-.009.955-1.223 1.89-3.59C5.972 20.6 7 16.955 7 12a9 9 0 1 1 18 0c0 4.955 1.03 8.6 1.892 10.785.935 2.367 1.883 3.581 1.891 3.593a1 1 0 0 1-.013 1.26zM10.999 13.5a1.5 1.5 0 1 0 3.002 0 1.5 1.5 0 0 0-3.001 0zm9.896 4.052a1 1 0 0 0-1.341-.447L16 18.882l-3.553-1.777a1 1 0 1 0-.893 1.79l4 2a1 1 0 0 0 .893 0l4-2a1 1 0 0 0 .448-1.343M21 13.5a1.5 1.5 0 1 0-3 0 1.5 1.5 0 0 0 3 0"/>
</svg>
