<svg xmlns="http://www.w3.org/2000/svg" fill="none" viewBox="0 0 32 32">
  <path fill="#000" d="M28 16a1 1 0 0 1-1 1H16a1 1 0 0 1 0-2h11a1 1 0 0 1 1 1M16 9h11a1 1 0 1 0 0-2H16a1 1 0 0 0 0 2m11 14H16a1 1 0 1 0 0 2h11a1 1 0 0 0 0-2M10.292 5.293 7 8.586 5.707 7.293a1 1 0 0 0-1.415 1.415l2 2a1 1 0 0 0 1.415 0l4-4a1 1 0 1 0-1.415-1.415m0 8L7 16.586l-1.293-1.293a1 1 0 1 0-1.415 1.415l2 2a1 1 0 0 0 1.415 0l4-4a1 1 0 1 0-1.415-1.415m0 8L7 24.586l-1.293-1.293a1.001 1.001 0 0 0-1.415 1.415l2 2a1 1 0 0 0 1.415 0l4-4a1 1 0 1 0-1.415-1.415"/>
</svg>
