<svg xmlns="http://www.w3.org/2000/svg" fill="none" viewBox="0 0 32 32">
  <path fill="#000" d="M28 15v2a1 1 0 0 1-1 1H13a1 1 0 0 1-1-1v-2a1 1 0 0 1 1-1h14a1 1 0 0 1 1 1m-1-9H13a1 1 0 0 0-1 1v2a1 1 0 0 0 1 1h14a1 1 0 0 0 1-1V7a1 1 0 0 0-1-1m0 16H13a1 1 0 0 0-1 1v2a1 1 0 0 0 1 1h14a1 1 0 0 0 1-1v-2a1 1 0 0 0-1-1M5.447 6.895 6 6.617V13a1 1 0 1 0 2 0V5a1 1 0 0 0-1.448-.895l-2 1a1 1 0 0 0 .895 1.79M9.971 19.59a2.97 2.97 0 0 0-1.2-1.994 3.11 3.11 0 0 0-4.264.588c-.19.244-.34.516-.446.807a1 1 0 1 0 1.875.684 1 1 0 0 1 .148-.266 1.095 1.095 0 0 1 1.772.092.955.955 0 0 1-.07 1.11l-3.587 4.79A1 1 0 0 0 5 27h4a1 1 0 0 0 0-2H7l2.385-3.191a2.93 2.93 0 0 0 .586-2.219"/>
</svg>
