<svg xmlns="http://www.w3.org/2000/svg" fill="none" viewBox="0 0 32 32">
  <path fill="#000" d="M28 16a1 1 0 0 1-1 1H13a1 1 0 1 1 0-2h14a1 1 0 0 1 1 1M13 9h14a1 1 0 1 0 0-2H13a1 1 0 1 0 0 2m14 14H13a1 1 0 0 0 0 2h14a1 1 0 1 0 0-2M5.447 6.895 6 6.618V13a1 1 0 1 0 2 0V5a1 1 0 0 0-1.448-.895l-2 1a1 1 0 0 0 .895 1.79M9.971 19.59a2.97 2.97 0 0 0-1.2-1.994 3.107 3.107 0 0 0-4.264.588c-.19.244-.34.517-.446.807a1 1 0 1 0 1.875.684 1 1 0 0 1 .148-.266 1.095 1.095 0 0 1 1.772.092.955.955 0 0 1-.07 1.11l-3.587 4.79a1 1 0 0 0 .801 1.6h4a1 1 0 1 0 0-2H7l2.385-3.192a2.93 2.93 0 0 0 .586-2.219"/>
</svg>
