<svg xmlns="http://www.w3.org/2000/svg" fill="none" viewBox="0 0 32 32">
  <path fill="#000" d="M28 7v2a1 1 0 0 1-1 1H12a1 1 0 0 1-1-1V7a1 1 0 0 1 1-1h15a1 1 0 0 1 1 1M7 6H5a1 1 0 0 0-1 1v2a1 1 0 0 0 1 1h2a1 1 0 0 0 1-1V7a1 1 0 0 0-1-1m20 8H12a1 1 0 0 0-1 1v2a1 1 0 0 0 1 1h15a1 1 0 0 0 1-1v-2a1 1 0 0 0-1-1M7 14H5a1 1 0 0 0-1 1v2a1 1 0 0 0 1 1h2a1 1 0 0 0 1-1v-2a1 1 0 0 0-1-1m20 8H12a1 1 0 0 0-1 1v2a1 1 0 0 0 1 1h15a1 1 0 0 0 1-1v-2a1 1 0 0 0-1-1M7 22H5a1 1 0 0 0-1 1v2a1 1 0 0 0 1 1h2a1 1 0 0 0 1-1v-2a1 1 0 0 0-1-1"/>
</svg>
