<svg xmlns="http://www.w3.org/2000/svg" fill="none" viewBox="0 0 32 32">
  <path fill="#000" d="M11.707 13.292a1 1 0 0 1 0 1.415l-4 4a1 1 0 0 1-1.415 0l-2-2a1 1 0 1 1 1.415-1.415L7 16.586l3.292-3.294a1 1 0 0 1 1.415 0m-1.415-8L7 8.586 5.707 7.292a1 1 0 1 0-1.415 1.415l2 2a1 1 0 0 0 1.415 0l4-4a1 1 0 1 0-1.415-1.415m0 16L7 24.586l-1.293-1.294A1 1 0 0 0 4 24a1 1 0 0 0 .293.707l2 2a1 1 0 0 0 1.415 0l4-4a1 1 0 1 0-1.415-1.415zM27 6H16a1 1 0 0 0-1 1v2a1 1 0 0 0 1 1h11a1 1 0 0 0 1-1V7a1 1 0 0 0-1-1m0 16H16a1 1 0 0 0-1 1v2a1 1 0 0 0 1 1h11a1 1 0 0 0 1-1v-2a1 1 0 0 0-1-1m0-8H16a1 1 0 0 0-1 1v2a1 1 0 0 0 1 1h11a1 1 0 0 0 1-1v-2a1 1 0 0 0-1-1"/>
</svg>
