<svg xmlns="http://www.w3.org/2000/svg" fill="none" viewBox="0 0 32 32">
  <path fill="#000" d="M31 19a1 1 0 0 1-1 1h-2v2a1 1 0 0 1-2 0v-2h-2a1 1 0 0 1 0-2h2v-2a1 1 0 1 1 2 0v2h2a1 1 0 0 1 1 1M7 9h2v2a1 1 0 1 0 2 0V9h2a1 1 0 0 0 0-2h-2V5a1 1 0 0 0-2 0v2H7a1 1 0 0 0 0 2m16 15h-1v-1a1 1 0 0 0-2 0v1h-1a1 1 0 0 0 0 2h1v1a1 1 0 1 0 2 0v-1h1a1 1 0 0 0 0-2m4.414-14L10 27.414a2 2 0 0 1-2.828 0l-2.587-2.585a2 2 0 0 1 0-2.829L22 4.586a2 2 0 0 1 2.829 0l2.585 2.585a2 2 0 0 1 0 2.829M26 8.586 23.414 6l-4 4L22 12.586z"/>
</svg>
