<svg xmlns="http://www.w3.org/2000/svg" fill="none" viewBox="0 0 32 32">
  <path fill="#000" d="M25.875 6.281A10.93 10.93 0 0 0 18.075 3h-.041a10.94 10.94 0 0 0-7.784 3.226L2.576 14a2 2 0 0 0 .008 2.82l3.582 3.582a2 2 0 0 0 1.415.587h.012a2 2 0 0 0 1.42-.603l7.612-7.8a2.01 2.01 0 0 1 2.801-.026 1.95 1.95 0 0 1 .592 1.399 2.1 2.1 0 0 1-.607 1.5l-7.786 7.526a2 2 0 0 0-.021 2.849l3.582 3.582a2.007 2.007 0 0 0 2.815.015l7.725-7.556c4.307-4.313 4.373-11.305.15-15.594zM7.581 18.986l-3.58-3.581 2.974-3.015 3.565 3.565zM16.6 28l-3.585-3.581 3.047-2.947 3.564 3.568zm7.72-7.555-3.264 3.192-3.555-3.552 3.305-3.196.013-.011a4.12 4.12 0 0 0 1.196-2.938 3.93 3.93 0 0 0-1.205-2.815 4.025 4.025 0 0 0-5.613.063l-3.26 3.335-3.56-3.556 3.293-3.33A8.94 8.94 0 0 1 18.034 5h.034a8.94 8.94 0 0 1 6.38 2.685c3.458 3.509 3.396 9.237-.13 12.763v-.003z"/>
</svg>
