<svg xmlns="http://www.w3.org/2000/svg" fill="none" viewBox="0 0 32 32">
  <path fill="#000" d="M27.125 4.35a1.99 1.99 0 0 0-1.852-.214C23.518 4.82 19.977 5.964 16 5.964S8.48 4.819 6.724 4.136A2 2 0 0 0 4 6v6.971c0 4.48 1.206 8.707 3.397 11.898 2.27 3.307 5.325 5.125 8.603 5.125s6.332-1.821 8.602-5.125C26.794 21.68 28 17.454 28 12.974V6a2 2 0 0 0-.875-1.65M8.25 15.666a1.004 1.004 0 0 1 1.5-1.333c.335.375 1.106.667 1.75.667s1.42-.294 1.75-.667a1.002 1.002 0 1 1 1.5 1.333C14.031 16.464 12.727 17 11.5 17s-2.531-.536-3.25-1.334m11.578 7.888A1 1 0 0 1 19 24a1 1 0 0 1-.552-.167C17.634 23.293 17 23 16 23s-1.634.293-2.446.833a1 1 0 0 1-1.108-1.665C13.5 21.466 14.508 21 16 21s2.5.466 3.554 1.168a1 1 0 0 1 .279 1.386zm3.912-7.888c-.714.798-2.017 1.334-3.25 1.334-1.232 0-2.531-.536-3.25-1.334a1.007 1.007 0 0 1 1.51-1.333c.335.375 1.106.667 1.75.667s1.42-.294 1.75-.667a1.002 1.002 0 1 1 1.5 1.333z"/>
</svg>
