<svg xmlns="http://www.w3.org/2000/svg" fill="none" viewBox="0 0 32 32">
  <path fill="#000" d="M27.125 4.35a1.99 1.99 0 0 0-1.852-.214C23.518 4.82 19.977 5.964 16 5.964S8.48 4.819 6.724 4.136A2 2 0 0 0 4 6v6.971c0 4.48 1.206 8.707 3.397 11.898 2.27 3.307 5.325 5.125 8.603 5.125s6.332-1.821 8.602-5.125C26.794 21.68 28 17.454 28 12.974V6a2 2 0 0 0-.875-1.65M9.75 16.666a1.004 1.004 0 0 1-1.5-1.333C8.969 14.535 10.273 14 11.5 14s2.531.535 3.25 1.333a1.003 1.003 0 1 1-1.5 1.333c-.335-.375-1.106-.666-1.75-.666s-1.42.293-1.75.666m11.311 5.983a6.615 6.615 0 0 1-10.112 0 1 1 0 1 1 1.516-1.299 4.61 4.61 0 0 0 7.07 0 1 1 0 1 1 1.521 1.299zm2.607-5.899a1 1 0 0 1-1.413-.079c-.335-.375-1.106-.666-1.75-.666s-1.42.293-1.75.666a1.008 1.008 0 0 1-1.505-1.338C17.964 14.535 19.267 14 20.5 14s2.531.535 3.25 1.333a1 1 0 0 1-.082 1.417"/>
</svg>
