<svg xmlns="http://www.w3.org/2000/svg" fill="none" viewBox="0 0 32 32">
  <path fill="#000" d="M19.832 23.553a1 1 0 0 1-1.386.28C17.634 23.292 17 23 16 23s-1.634.292-2.446.832a1 1 0 0 1-1.108-1.665C13.5 21.466 14.508 21 16 21s2.5.466 3.554 1.167a1 1 0 0 1 .279 1.386zM28 6v6.971c0 4.48-1.206 8.706-3.398 11.898-2.27 3.307-5.325 5.125-8.602 5.125s-6.332-1.822-8.602-5.125C5.206 21.678 4 17.453 4 12.973V6a2 2 0 0 1 2.724-1.864C8.48 4.819 12.023 5.964 16 5.964s7.519-1.145 9.276-1.828A2 2 0 0 1 28 6m-2 0c-1.887.736-5.696 1.966-10 1.966S7.887 6.734 6 6v6.973c0 4.08 1.082 7.904 3.046 10.767C10.932 26.487 13.401 28 16 28s5.067-1.513 6.954-4.26C24.917 20.875 26 17.054 26 12.974zm-2.332 8.25a1 1 0 0 0-1.413.077c-.335.375-1.106.668-1.75.668s-1.42-.294-1.75-.668a1.007 1.007 0 1 0-1.505 1.339c.714.797 2.017 1.334 3.25 1.334s2.531-.537 3.25-1.334a1 1 0 0 0-.082-1.416m-8.918 1.416a1.003 1.003 0 1 0-1.5-1.334c-.335.375-1.106.668-1.75.668s-1.42-.294-1.75-.668a1.004 1.004 0 1 0-1.5 1.334C8.969 16.463 10.273 17 11.5 17s2.531-.537 3.25-1.334"/>
</svg>
