<svg xmlns="http://www.w3.org/2000/svg" fill="none" viewBox="0 0 32 32">
  <path fill="#000" d="M14 9a1 1 0 0 1-1 1H5a1 1 0 0 1 0-2h8a1 1 0 0 1 1 1m-1 13h-3v-3a1 1 0 1 0-2 0v3H5a1 1 0 1 0 0 2h3v3a1 1 0 0 0 2 0v-3h3a1 1 0 0 0 0-2m6 0h8a1 1 0 0 0 0-2h-8a1 1 0 1 0 0 2m8 2h-8a1 1 0 1 0 0 2h8a1 1 0 0 0 0-2m-7.707-11.292a1 1 0 0 0 1.415 0L23 10.414l2.293 2.294a1 1 0 0 0 1.415-1.415L24.413 9l2.293-2.292a1 1 0 0 0-1.415-1.415L23 7.586l-2.293-2.293a1 1 0 1 0-1.415 1.415L21.587 9l-2.293 2.293a1 1 0 0 0 0 1.415z"/>
</svg>
