<svg xmlns="http://www.w3.org/2000/svg" fill="none" viewBox="0 0 32 32">
  <path fill="#000" d="M26 4H6a2 2 0 0 0-2 2v20a2 2 0 0 0 2 2h20a2 2 0 0 0 2-2V6a2 2 0 0 0-2-2m-7.707 5.707a1 1 0 0 1 1.415-1.415L21 9.587l1.293-1.293a1 1 0 1 1 1.415 1.415L22.413 11l1.293 1.293a1 1 0 0 1-1.415 1.415L21 12.413l-1.293 1.293a1 1 0 1 1-1.415-1.415L19.587 11l-1.293-1.293zM14 22h-2v2a1 1 0 0 1-2 0v-2H8a1 1 0 0 1 0-2h2v-2a1 1 0 0 1 2 0v2h2a1 1 0 0 1 0 2m0-10H8a1 1 0 0 1 0-2h6a1 1 0 0 1 0 2m10 12h-6a1 1 0 0 1 0-2h6a1 1 0 0 1 0 2m0-4h-6a1 1 0 0 1 0-2h6a1 1 0 0 1 0 2"/>
</svg>
