<svg xmlns="http://www.w3.org/2000/svg" fill="none" viewBox="0 0 32 32">
  <path fill="#000" d="M30 15a6.006 6.006 0 0 0-6-6h-4.975c-.364-.021-6.702-.468-12.739-5.53A2 2 0 0 0 3 5v20a2 2 0 0 0 3.286 1.531c4.722-3.96 9.625-5.095 11.714-5.412v3.965a2 2 0 0 0 .89 1.666l1.375.916a2 2 0 0 0 3.047-1.166l1.472-5.545A6.01 6.01 0 0 0 30 15M5 24.99V5c5.351 4.489 10.829 5.625 13 5.905v8.185c-2.169.285-7.645 1.419-13 5.901zm16.375 1v.014L20 25.089v-4.09h2.7l-1.325 4.992zM24 19h-4v-8h4a4 4 0 0 1 0 8"/>
</svg>
