<svg xmlns="http://www.w3.org/2000/svg" fill="none" viewBox="0 0 32 32">
  <path fill="#000" d="M30 18.664c0 2.013-.396 3.736-1.146 4.98C27.925 25.185 26.479 26 24.68 26c-3.492 0-5.973-4.625-8.598-9.527C13.956 12.5 11.544 8 9.25 8c-1.172 0-2.492 1.25-3.531 3.334A17.3 17.3 0 0 0 4 18.664c0 1.65.298 3.015.86 3.947C5.423 23.544 6.227 24 7.32 24c1.89 0 3.856-3.067 5.529-6.069a1.002 1.002 0 1 1 1.75.975C12.682 22.34 10.384 26 7.32 26c-1.801 0-3.25-.815-4.174-2.356C2.396 22.394 2 20.678 2 18.664a19.4 19.4 0 0 1 1.928-8.222C5.353 7.578 7.242 6 9.25 6c3.492 0 5.971 4.625 8.598 9.527C19.974 19.5 22.384 24 24.68 24c1.093 0 1.898-.454 2.46-1.389s.86-2.297.86-3.947a17.3 17.3 0 0 0-1.718-7.33C25.25 9.25 23.924 8 22.75 8c-1.045 0-2.21.935-3.564 2.86a1.001 1.001 0 0 1-1.8-.793 1 1 0 0 1 .165-.358C18.676 8.116 20.426 6 22.75 6c2.006 0 3.896 1.577 5.321 4.443A19.35 19.35 0 0 1 30 18.663z"/>
</svg>
