<svg xmlns="http://www.w3.org/2000/svg" fill="none" viewBox="0 0 32 32">
  <path fill="#000" d="M16 3a13 13 0 1 0 13 13A13.013 13.013 0 0 0 16 3m9.154 18.282C24.45 22.407 23.363 23 22.009 23c-2.591 0-4.352-3.164-6.215-6.514C14.434 14.041 12.74 11 11.326 11 9.773 11 8 14.61 8 17.776c0 1.033.188 1.875.543 2.445.332.529.792.779 1.448.779.76 0 1.69-.875 2.843-2.689a1 1 0 0 1 1.686 1.074C12.48 22.589 11.028 23 9.991 23c-1.353 0-2.441-.594-3.145-1.718-.553-.884-.846-2.097-.846-3.5a12.9 12.9 0 0 1 1.375-5.65C8.418 10.113 9.821 9 11.326 9c2.591 0 4.351 3.164 6.215 6.514C18.901 17.958 20.594 21 22.01 21c.656 0 1.116-.25 1.448-.779.355-.566.543-1.412.543-2.445C24 14.61 22.227 11 20.674 11c-.425 0-.919.289-1.468.86a1 1 0 0 1-1.442-1.386C18.718 9.482 19.669 9 20.674 9c1.5 0 2.909 1.113 3.952 3.133a12.9 12.9 0 0 1 1.375 5.643c-.001 1.409-.294 2.622-.847 3.506"/>
</svg>
