<svg xmlns="http://www.w3.org/2000/svg" fill="none" viewBox="0 0 32 32">
  <path fill="#000" d="M21 2a9.01 9.01 0 0 0-9 9q.001.591.079 1.178L3.39 24.027a1.99 1.99 0 0 0 .199 2.597l1.786 1.786a1.99 1.99 0 0 0 2.598.199l11.85-8.691q.586.079 1.177.081a9 9 0 1 0 0-18zm7 9a6.97 6.97 0 0 1-1.395 4.19l-9.794-9.795A7 7 0 0 1 28.001 11zM6.79 27 5 25.21l7.768-10.585a9.05 9.05 0 0 0 4.607 4.608zM14 11a6.96 6.96 0 0 1 1.395-4.189l9.793 9.793A7 7 0 0 1 14 11m-.294 7.293a1 1 0 0 1 0 1.413l-1 1a1 1 0 1 1-1.413-1.413l1-1a1 1 0 0 1 1.416-.002z"/>
</svg>
