<svg xmlns="http://www.w3.org/2000/svg" fill="none" viewBox="0 0 32 32">
  <path fill="#000" d="M26.672 27.74a1 1 0 0 1-1.412-.068l-3.308-3.637A9.97 9.97 0 0 1 17 25.949v3.05a1 1 0 0 1-2 0v-3.05A10.014 10.014 0 0 1 6 16a1 1 0 1 1 2 0 8 8 0 0 0 12.599 6.546l-1.36-1.5A6 6 0 0 1 9.998 16v-5.114L5.26 5.672a1 1 0 1 1 1.48-1.345l20 22a1 1 0 0 1-.067 1.413zM20.26 16.226a1 1 0 0 0 1.74-.672V8a6 6 0 0 0-11.105-3.153 1 1 0 0 0 .105 1.2l9.26 10.18zm3.762 3.979a1 1 0 0 0 1.295-.569A10 10 0 0 0 26 16a1 1 0 0 0-2 0 8 8 0 0 1-.545 2.909 1 1 0 0 0 .567 1.296"/>
</svg>
