<svg xmlns="http://www.w3.org/2000/svg" fill="none" viewBox="0 0 32 32">
  <path fill="#000" d="M14 13a1 1 0 0 1-1 1h-1v5a1 1 0 0 1-2 0v-5H9a1 1 0 0 1 0-2h4a1 1 0 0 1 1 1m15-1.408V19a5 5 0 0 1-4.579 4.981A8 8 0 0 1 9.584 24H5a2 2 0 0 1-2-2V10a2 2 0 0 1 2-2h7.101a5 5 0 0 1 9.164-3.606A4 4 0 0 1 26.461 10h.947A1.595 1.595 0 0 1 29 11.592M14 7c0 .34.058.679.172 1H17a2 2 0 0 1 1.884 1.335A3 3 0 1 0 14 7m3 15V10H5v12zm6-10h-4v10a2 2 0 0 1-2 2h-5.195A6 6 0 0 0 23 21zm2-4a2 2 0 0 0-3.05-1.7A5 5 0 0 1 21 10h2a2 2 0 0 0 2-2m2 4h-2v9q0 .423-.045.844A3 3 0 0 0 27 19z"/>
</svg>
