<svg xmlns="http://www.w3.org/2000/svg" fill="none" viewBox="0 0 32 32">
  <path fill="#000" d="M27.407 10h-.946a4 4 0 0 0-5.196-5.606A5 5 0 0 0 12.101 8H5a2 2 0 0 0-2 2v12a2 2 0 0 0 2 2h4.584a8 8 0 0 0 14.837-.019A5 5 0 0 0 29 19.001v-7.408A1.595 1.595 0 0 0 27.407 10M17 4a3 3 0 0 1 1.884 5.335A2 2 0 0 0 17 8h-2.828A3 3 0 0 1 17 4m-6 16a1 1 0 0 1-1-1v-5H9a1 1 0 0 1 0-2h4a1 1 0 0 1 0 2h-1v5a1 1 0 0 1-1 1m12 1a6 6 0 0 1-11.195 3H17a2 2 0 0 0 2-2V12h4zm0-11h-2a5 5 0 0 0 .95-3.7A2 2 0 1 1 23 10m4 9a3 3 0 0 1-2.045 2.844Q25 21.424 25 21v-9h2z"/>
</svg>
