<svg xmlns="http://www.w3.org/2000/svg" fill="none" viewBox="0 0 32 32">
  <path fill="#000" d="M25 3H9a2 2 0 0 0-2 2v3H5a2 2 0 0 0-2 2v12a2 2 0 0 0 2 2h2v3a2 2 0 0 0 2 2h16a2 2 0 0 0 2-2V5a2 2 0 0 0-2-2m-5 10h5v6h-5zm5-2h-5v-1a2 2 0 0 0-2-2V5h7zM9 5h7v3H9zm-4 5h13v12H5zm4 14h7v3H9zm9 3v-3a2 2 0 0 0 2-2v-1h5v6zm-9.769-8.64L10.2 16l-1.97-2.36a1 1 0 1 1 1.538-1.28l1.731 2.078 1.731-2.078a1 1 0 0 1 1.538 1.28L12.8 16l1.968 2.36a1 1 0 0 1-1.538 1.28l-1.73-2.078-1.731 2.078a1 1 0 1 1-1.538-1.28"/>
</svg>
