<svg xmlns="http://www.w3.org/2000/svg" fill="none" viewBox="0 0 32 32">
  <path fill="#000" d="M12 12h-2a1 1 0 0 0-1 1v6a1 1 0 1 0 2 0v-1h1a3 3 0 0 0 0-6m0 4h-1v-2h1a1 1 0 0 1 0 2m5-13A13.04 13.04 0 0 0 6.75 8H5a2 2 0 0 0-2 2v12a2 2 0 0 0 2 2h1.75A13 13 0 1 0 17 3m10.954 12H20v-5a2 2 0 0 0-2-2V5.046A11.016 11.016 0 0 1 27.954 15M16 5.046V8H9.454A11.05 11.05 0 0 1 16 5.046M5 10h13v12H5zm11 14v2.954A11.05 11.05 0 0 1 9.454 24zm2 2.954V24a2 2 0 0 0 2-2v-5h7.954A11.02 11.02 0 0 1 18 26.954"/>
</svg>
