<svg xmlns="http://www.w3.org/2000/svg" fill="none" viewBox="0 0 32 32">
  <path fill="#000" d="M16 11a5 5 0 1 0 0 10 5 5 0 0 0 0-10m0 8a3 3 0 1 1 0-5.999A3 3 0 0 1 16 19M30 7H2a1 1 0 0 0-1 1v16a1 1 0 0 0 1 1h28a1 1 0 0 0 1-1V8a1 1 0 0 0-1-1m-5.794 16H7.794A7.1 7.1 0 0 0 3 18.206v-4.412A7.1 7.1 0 0 0 7.794 9h16.412A7.1 7.1 0 0 0 29 13.794v4.412A7.1 7.1 0 0 0 24.206 23M29 11.671A5.1 5.1 0 0 1 26.329 9H29zM5.671 9A5.1 5.1 0 0 1 3 11.671V9zM3 20.329A5.1 5.1 0 0 1 5.671 23H3zM26.329 23A5.1 5.1 0 0 1 29 20.329V23z"/>
</svg>
