<svg xmlns="http://www.w3.org/2000/svg" fill="none" viewBox="0 0 32 32">
  <path fill="#000" d="M27 16q-.394 0-.784.063l-4.28-11.414A1 1 0 0 0 21 4h-4a1 1 0 1 0 0 2h3.308l4.037 10.766A5 5 0 0 0 22.095 20h-5.027l-3.126-8.351A1 1 0 0 0 13 11H3a1 1 0 0 0 0 2h1v1.674A7.02 7.02 0 0 0 0 21a1 1 0 0 0 1 1h1.1a5 5 0 0 0 9.8 0h10.2a5 5 0 1 0 4.9-6M7 24a3 3 0 0 1-2.827-2h5.655A3 3 0 0 1 7 24m20 0a3 3 0 0 1-1.929-5.295l.993 2.646a1.002 1.002 0 0 0 1.938-.317 1 1 0 0 0-.063-.385L26.944 18H27a3 3 0 0 1 0 6"/>
</svg>
