<svg xmlns="http://www.w3.org/2000/svg" fill="none" viewBox="0 0 32 32">
  <path fill="#000" d="M28 16c-.34 0-.679.058-1 .172V16c0-5.223-3.884-7.807-6.72-9.695C18.52 5.133 17 4.125 17 3a1 1 0 0 0-2 0c0 1.125-1.52 2.133-3.28 3.305C8.884 8.193 5 10.778 5 16v.172A3 3 0 0 0 1 19v7a1 1 0 0 0 1 1h8a1 1 0 0 0 1-1v-4a1 1 0 0 1 2 0v4a1 1 0 0 0 1 1h4a1 1 0 0 0 1-1v-4a1 1 0 0 1 2 0v4a1 1 0 0 0 1 1h8a1 1 0 0 0 1-1v-7a3 3 0 0 0-3-3M12.829 7.97c1.208-.805 2.375-1.585 3.171-2.5.793.919 1.962 1.699 3.171 2.5 2.5 1.665 5.31 3.536 5.764 7.03H7.06c.459-3.494 3.265-5.365 5.769-7.03M3 19a1 1 0 1 1 2 0v6H3zm17 0a3 3 0 0 0-3 3v3h-2v-3a3 3 0 0 0-6 0v3H7v-8h18v8h-2v-3a3 3 0 0 0-3-3m9 6h-2v-6a1 1 0 0 1 2 0z"/>
</svg>
