<svg xmlns="http://www.w3.org/2000/svg" fill="none" viewBox="0 0 32 32">
  <path fill="#000" d="M27 15q-.415 0-.825.069l-.727-1.893A7 7 0 0 1 27 13a1 1 0 0 0 0-2h-2.39l-1.676-4.359A1 1 0 0 0 22 6h-4a1 1 0 1 0 0 2h3.314l1.154 3H19c-2.313 0-4.188.539-5.421 1.557a2 2 0 0 1-2.095.26c-1.323-.602-9.162-3.766-9.225-3.783a1 1 0 0 0-.625 1.898S8.57 13.675 9.95 15.05A6.96 6.96 0 0 1 11.929 19H9.9a5 5 0 1 0 0 2h6.515a3.99 3.99 0 0 0 3.843-2.887 7 7 0 0 1 3.323-4.215l.728 1.89A5 5 0 1 0 27 15M5 21h2.827a3 3 0 1 1 0-2H5a1 1 0 0 0 0 2m22 2a3 3 0 0 1-1.948-5.279l1.014 2.638a1 1 0 0 0 1.868-.718L26.919 17H27a3 3 0 0 1 0 6"/>
</svg>
