<svg xmlns="http://www.w3.org/2000/svg" fill="none" viewBox="0 0 32 32">
  <path fill="#000" fill-rule="evenodd" d="M13 6a3 3 0 1 1 6 0v2h.5A1.5 1.5 0 0 1 21 9.5v4a1.5 1.5 0 0 1-1.5 1.5H17v4.046l3.381 2.959q.06-.005.119-.005h.5v-2a3 3 0 1 1 6 0v2h.5a1.5 1.5 0 0 1 1.5 1.5v4a1.5 1.5 0 0 1-1.5 1.5h-7a1.5 1.5 0 0 1-1.5-1.5v-4.046l-3-2.625-3 2.625V27.5a1.5 1.5 0 0 1-1.5 1.5h-7A1.5 1.5 0 0 1 3 27.5v-4A1.5 1.5 0 0 1 4.5 22H5v-2a3 3 0 1 1 6 0v2h.5q.06 0 .119.005L15 19.046V15h-2.5a1.5 1.5 0 0 1-1.5-1.5v-4A1.5 1.5 0 0 1 12.5 8h.5zM9 22v-2a1 1 0 1 0-2 0v2zm16-2v2h-2v-2a1 1 0 1 1 2 0M17 6v2h-2V6a1 1 0 1 1 2 0" clip-rule="evenodd"/>
</svg>
