<svg xmlns="http://www.w3.org/2000/svg" fill="none" viewBox="0 0 32 32">
  <path fill="#000" d="M23.707 8.292a1 1 0 0 1 0 1.415l-2 2a1 1 0 0 1-1.415-1.415l2-2a1 1 0 0 1 1.415 0M28 9a4.96 4.96 0 0 1-1.465 3.535l-3 3a1 1 0 0 1-.538.279c-6.436 1.105-17.182 11.785-17.29 11.893a1 1 0 0 1-1.413-1.415C4.5 26.093 15.086 15.41 16.186 9a1 1 0 0 1 .279-.538l3-3A5 5 0 0 1 28 9m-2 0a3 3 0 0 0-5.125-2.125l-2.779 2.786c-.551 2.644-2.362 5.774-4.436 8.679 2.905-2.074 6.035-3.885 8.679-4.436l2.786-2.779A2.98 2.98 0 0 0 26 9"/>
</svg>
