<svg xmlns="http://www.w3.org/2000/svg" fill="none" viewBox="0 0 32 32">
  <path fill="#000" d="M27 5H5a2 2 0 0 0-2 2v20a1 1 0 0 0 1.447.894L8 26.118l3.553 1.776a1 1 0 0 0 .894 0L16 26.118l3.552 1.776a1 1 0 0 0 .896 0L24 26.118l3.552 1.776A1 1 0 0 0 29 27V7a2 2 0 0 0-2-2m0 20.383-2.552-1.278a1 1 0 0 0-.896 0L20 25.882l-3.552-1.777a1 1 0 0 0-.896 0L12 25.882l-3.553-1.777a1 1 0 0 0-.894 0L5 25.382V7h22zM17 14a1 1 0 0 1 1-1h6a1 1 0 0 1 0 2h-6a1 1 0 0 1-1-1m0 4a1 1 0 0 1 1-1h6a1 1 0 0 1 0 2h-6a1 1 0 0 1-1-1m-9 3h6a1 1 0 0 0 1-1v-8a1 1 0 0 0-1-1H8a1 1 0 0 0-1 1v8a1 1 0 0 0 1 1m1-8h4v6H9z"/>
</svg>
