<svg xmlns="http://www.w3.org/2000/svg" fill="none" viewBox="0 0 32 32">
  <path fill="#000" d="M7 18a1 1 0 0 1 1-1h8a1 1 0 1 1 0 2H8a1 1 0 0 1-1-1m1 3a1 1 0 1 0 0 2h8a1 1 0 1 0 0-2z"/>
  <path fill="#000" fill-rule="evenodd" d="M27.5 3A1.5 1.5 0 0 1 29 4.5v14a1.5 1.5 0 0 1-1.5 1.5H25v2.5a1.5 1.5 0 0 1-1.5 1.5H21v3.5a1.5 1.5 0 0 1-1.5 1.5h-15A1.5 1.5 0 0 1 3 27.5v-15A1.5 1.5 0 0 1 4.5 11H8V8.5A1.5 1.5 0 0 1 9.5 7H12V4.5A1.5 1.5 0 0 1 13.5 3zM14 7h9.5A1.5 1.5 0 0 1 25 8.5V18h2V5H14zm5.5 4H10V9h13v13h-2v-9.5a1.5 1.5 0 0 0-1.5-1.5M5 13v14h14V13z" clip-rule="evenodd"/>
</svg>
