<svg xmlns="http://www.w3.org/2000/svg" fill="none" viewBox="0 0 32 32">
  <path fill="#000" fill-rule="evenodd" d="M29 4.5A1.5 1.5 0 0 0 27.5 3h-14A1.5 1.5 0 0 0 12 4.5V7H9.5A1.5 1.5 0 0 0 8 8.5V11H4.5A1.5 1.5 0 0 0 3 12.5v15A1.5 1.5 0 0 0 4.5 29h15a1.5 1.5 0 0 0 1.5-1.5V24h2.5a1.5 1.5 0 0 0 1.5-1.5V20h2.5a1.5 1.5 0 0 0 1.5-1.5zM23.5 7H14V5h13v13h-2V8.5A1.5 1.5 0 0 0 23.5 7M10 11h9.5a1.5 1.5 0 0 1 1.5 1.5V22h2V9H10zm-2 6a1 1 0 1 0 0 2h8a1 1 0 1 0 0-2zm-1 5a1 1 0 0 1 1-1h8a1 1 0 1 1 0 2H8a1 1 0 0 1-1-1" clip-rule="evenodd"/>
</svg>
