<svg xmlns="http://www.w3.org/2000/svg" fill="none" viewBox="0 0 32 32">
  <path fill="#000" fill-rule="evenodd" d="M27 27.5a1.5 1.5 0 0 1-1.5 1.5h-19A1.5 1.5 0 0 1 5 27.5v-23A1.5 1.5 0 0 1 6.5 3h19A1.5 1.5 0 0 1 27 4.5zM10.667 9.753a1.5 1.5 0 1 1 1.666 2.494 1.5 1.5 0 0 1-1.666-2.494M16 10a1 1 0 1 0 0 2h5a1 1 0 1 0 0-2zm-1 6a1 1 0 0 1 1-1h5a1 1 0 1 1 0 2h-5a1 1 0 0 1-1-1m0 5a1 1 0 0 1 1-1h5a1 1 0 1 1 0 2h-5a1 1 0 0 1-1-1m-4.333-6.247a1.5 1.5 0 1 1 1.667 2.495 1.5 1.5 0 0 1-1.667-2.495m0 5a1.5 1.5 0 1 1 1.667 2.495 1.5 1.5 0 0 1-1.667-2.495" clip-rule="evenodd"/>
</svg>
