<svg xmlns="http://www.w3.org/2000/svg" fill="none" viewBox="0 0 32 32">
  <path fill="#000" d="M15 11a1 1 0 0 1 1-1h5a1 1 0 1 1 0 2h-5a1 1 0 0 1-1-1m1 4a1 1 0 1 0 0 2h5a1 1 0 1 0 0-2zm-1 6a1 1 0 0 1 1-1h5a1 1 0 1 1 0 2h-5a1 1 0 0 1-1-1M11.5 9.5a1.5 1.5 0 1 0 0 3 1.5 1.5 0 0 0 0-3m-.833 5.253a1.5 1.5 0 1 1 1.667 2.495 1.5 1.5 0 0 1-1.667-2.495M11.5 19.5a1.5 1.5 0 1 0 0 3 1.5 1.5 0 0 0 0-3"/>
  <path fill="#000" fill-rule="evenodd" d="M6.5 29h19a1.5 1.5 0 0 0 1.5-1.5v-23A1.5 1.5 0 0 0 25.5 3h-19A1.5 1.5 0 0 0 5 4.5v23A1.5 1.5 0 0 0 6.5 29M7 5v22h18V5z" clip-rule="evenodd"/>
</svg>
