<svg xmlns="http://www.w3.org/2000/svg" fill="none" viewBox="0 0 32 32">
  <path fill="#000" d="M13 16a1 1 0 0 1 1-1h8a1 1 0 1 1 0 2h-8a1 1 0 0 1-1-1m1 3a1 1 0 1 0 0 2h2a1 1 0 1 0 0-2z"/>
  <path fill="#000" fill-rule="evenodd" d="M5.5 4A1.5 1.5 0 0 0 4 5.5v17A1.5 1.5 0 0 0 5.5 24H8v2.5A1.5 1.5 0 0 0 9.5 28h10.293a1.5 1.5 0 0 0 1.06-.44l6.708-6.706A1.5 1.5 0 0 0 28 19.793V9.5A1.5 1.5 0 0 0 26.5 8H24V5.5A1.5 1.5 0 0 0 22.5 4zM22 8V6H6v16h2V9.5A1.5 1.5 0 0 1 9.5 8zm-12 2h16v9h-6a1 1 0 0 0-1 1v6h-9zm14.586 11L21 24.586V21z" clip-rule="evenodd"/>
</svg>
