<svg xmlns="http://www.w3.org/2000/svg" fill="none" viewBox="0 0 32 32">
  <path fill="#000" d="M19.71 11.049C20.542 12.315 21 14.074 21 16s-.457 3.684-1.29 4.951C18.819 22.311 17.57 23 16 23s-2.819-.689-3.71-2.049C11.458 19.684 11 17.926 11 16s.457-3.685 1.29-4.951C13.181 9.689 14.43 9 16 9s2.819.689 3.71 2.049M27 5v22a2 2 0 0 1-2 2H7a2 2 0 0 1-2-2V5a2 2 0 0 1 2-2h18a2 2 0 0 1 2 2m-4 11c0-2.311-.575-4.46-1.617-6.049C20.114 8.02 18.25 7 16 7s-4.115 1.02-5.383 2.951C9.575 11.54 9 13.69 9 16s.575 4.46 1.617 6.049C11.886 23.98 13.75 25 16 25s4.115-1.02 5.383-2.951C22.425 20.46 23 18.31 23 16"/>
</svg>
