<svg xmlns="http://www.w3.org/2000/svg" fill="none" viewBox="0 0 32 32">
  <path fill="#000" d="M21.5 17a1.5 1.5 0 1 1 0 3 1.5 1.5 0 0 1 0-3m1.578-4.094-8.214-3.832a8.994 8.994 0 0 0-7.856 8.589l8.522-4.546A1 1 0 0 1 17 14v12.944a8.96 8.96 0 0 0 7.589-6.25 1.003 1.003 0 0 1 1.911.606 11 11 0 1 1-20.032-8.788A4.5 4.5 0 0 1 8.5 4a1 1 0 0 1 .423.094l14.78 6.897A2.5 2.5 0 0 0 23.5 6a1 1 0 0 1 0-2 4.5 4.5 0 1 1 0 9 1 1 0 0 1-.422-.094M11 25.48V17.8l-3.811 2.032A9.02 9.02 0 0 0 11 25.48m4-9.813-2 1.068v9.75a9 9 0 0 0 2 .458zM12.016 7.75l-3.72-1.741a2.5 2.5 0 0 0-.65 4.838q.111-.133.23-.263a11 11 0 0 1 4.14-2.834"/>
</svg>
