<svg xmlns="http://www.w3.org/2000/svg" fill="none" viewBox="0 0 32 32">
  <path fill="#000" d="M31 16a1 1 0 0 1-1 1h-2.084A6.01 6.01 0 0 1 22 22h-5v3h3a4 4 0 0 1 4 4 1 1 0 0 1-2 0 2 2 0 0 0-2-2h-3v2a1 1 0 0 1-2 0v-2h-3a2 2 0 0 0-2 2 1 1 0 1 1-2 0 4 4 0 0 1 4-4h3v-3h-5a6.01 6.01 0 0 1-5.916-5H2a1 1 0 0 1 0-2h3a1 1 0 0 1 1 1 4 4 0 0 0 4 4h12a4 4 0 0 0 4-4 1 1 0 0 1 1-1h3a1 1 0 0 1 1 1m-21 2h12a2 2 0 0 0 1.98-2.283l-1.715-12A2.01 2.01 0 0 0 20.285 2h-8.57a2.01 2.01 0 0 0-1.98 1.717l-1.715 12A2 2 0 0 0 10 18"/>
</svg>
