<svg xmlns="http://www.w3.org/2000/svg" fill="none" viewBox="0 0 32 32">
  <path fill="#000" d="M32 25.5a3.5 3.5 0 0 1-7 0c0-2.946 2.758-5.186 2.875-5.281a1 1 0 0 1 1.25 0C29.243 20.314 32 22.554 32 25.5m-15.439-9.939a1.5 1.5 0 1 0-2.125-2.118 1.5 1.5 0 0 0 2.125 2.118m12.147-.832L15.27 1.293a1 1 0 0 0-1.413 0L8.78 6.375l5.054 5.053a3.5 3.5 0 1 1-1.414 1.414l-5.053-5.06-5.493 5.49a3 3 0 0 0 0 4.242l10.611 10.611a3 3 0 0 0 4.243 0l11.979-11.979a1 1 0 0 0 0-1.417zm-23-11.436a1 1 0 1 0-1.415 1.415l3.075 3.075L8.78 6.375z"/>
</svg>
