<svg xmlns="http://www.w3.org/2000/svg" fill="none" viewBox="0 0 32 32">
  <path fill="#000" d="M29.125 20.219a1 1 0 0 0-1.25 0C27.758 20.314 25 22.554 25 25.5a3.5 3.5 0 1 0 7 0c0-2.946-2.757-5.186-2.875-5.281M28.5 27a1.5 1.5 0 0 1-1.5-1.5c0-1.272.875-2.441 1.5-3.116.625.677 1.5 1.85 1.5 3.116a1.5 1.5 0 0 1-1.5 1.5m.208-12.271L15.27 1.293a1 1 0 0 0-1.413 0L8.78 6.375 5.706 3.293a1 1 0 0 0-1.413 1.415l3.075 3.075-5.493 5.488a3 3 0 0 0 0 4.243l10.611 10.611a3 3 0 0 0 4.243 0l11.979-11.979a1 1 0 0 0 0-1.417M15.314 26.708a1 1 0 0 1-1.414 0L3.293 16.1a1 1 0 0 1 0-1.414l5.488-5.49 3.64 3.64a3.5 3.5 0 1 0 1.414-1.415l-3.639-3.638 4.375-4.37 12.022 12.022zM15.5 13a1.5 1.5 0 1 1-.004 3 1.5 1.5 0 0 1 .004-3"/>
</svg>
