<svg xmlns="http://www.w3.org/2000/svg" fill="none" viewBox="0 0 32 32">
  <path fill="#000" d="M25.096 6.736A12.9 12.9 0 0 0 16 3h-.134A13 13 0 0 0 3 16c0 5.375 3.322 9.883 8.67 11.771A4 4 0 0 0 17 24a2 2 0 0 1 2-2h5.776a3.976 3.976 0 0 0 3.9-3.11c.224-.984.332-1.99.324-3a12.9 12.9 0 0 0-3.904-9.154m1.625 11.714A1.99 1.99 0 0 1 24.776 20H19a4 4 0 0 0-4 4 2 2 0 0 1-2.664 1.884C7.811 24.288 5 20.5 5 16A11 11 0 0 1 15.886 5H16a11.044 11.044 0 0 1 11 10.906c.007.856-.084 1.71-.273 2.544h-.005zM17.5 9.5a1.5 1.5 0 1 1-3 0 1.5 1.5 0 0 1 3 0m-5.5 3a1.5 1.5 0 1 1-3 0 1.5 1.5 0 0 1 3 0m0 7a1.5 1.5 0 1 1-3 0 1.5 1.5 0 0 1 3 0m11-7a1.5 1.5 0 1 1-3 0 1.5 1.5 0 0 1 3 0"/>
</svg>
