<svg xmlns="http://www.w3.org/2000/svg" fill="none" viewBox="0 0 32 32">
  <path fill="#000" d="M27 6H5a2 2 0 0 0-2 2v16a2 2 0 0 0 2 2h22a2 2 0 0 0 2-2V8a2 2 0 0 0-2-2M8 21a1 1 0 1 1-2 0V11a1 1 0 1 1 2 0zm9.163-4.976-1.546.5.956 1.312a1.002 1.002 0 1 1-1.626 1.177L14 17.7l-.954 1.314a1.003 1.003 0 0 1-1.625-1.176l.955-1.313-1.545-.5a1.002 1.002 0 0 1-.138-1.844 1 1 0 0 1 .763-.057l1.544.5V13a1 1 0 0 1 2 0v1.625l1.544-.5a1 1 0 1 1 .625 1.901zm9 0-1.546.5.956 1.312a1.002 1.002 0 1 1-1.625 1.177L23 17.7l-.954 1.314a1.003 1.003 0 1 1-1.625-1.176l.955-1.313-1.545-.5a1.003 1.003 0 0 1-.446-1.603 1 1 0 0 1 1.071-.298l1.544.5V13a1 1 0 0 1 2 0v1.625l1.544-.5a1 1 0 1 1 .625 1.901z"/>
</svg>
