<svg xmlns="http://www.w3.org/2000/svg" fill="none" viewBox="0 0 32 32">
  <path fill="#000" d="M26.5 10a3.5 3.5 0 1 0 0 7 3.5 3.5 0 0 0 0-7m0 5a1.5 1.5 0 1 1 0-3 1.5 1.5 0 0 1 0 3M9 13.5a3.5 3.5 0 1 0-7 0 3.5 3.5 0 0 0 7 0M5.5 15a1.5 1.5 0 1 1 0-3 1.5 1.5 0 0 1 0 3m6-4a3.5 3.5 0 1 0 0-7 3.5 3.5 0 0 0 0 7m0-5a1.5 1.5 0 1 1 0 3 1.5 1.5 0 0 1 0-3m9 5a3.5 3.5 0 1 0 0-7 3.5 3.5 0 0 0 0 7m0-5a1.5 1.5 0 1 1 0 3 1.5 1.5 0 0 1 0-3m2.89 12.608a4.4 4.4 0 0 1-2.109-2.643 5.5 5.5 0 0 0-10.562 0 4.4 4.4 0 0 1-2.094 2.637 5 5 0 0 0 4.315 9.007 8 8 0 0 1 6.109 0 5 5 0 0 0 4.341-9zM21 26a3 3 0 0 1-1.181-.241 10.02 10.02 0 0 0-7.649 0 3 3 0 0 1-2.589-5.408 6.4 6.4 0 0 0 3.058-3.834 3.5 3.5 0 0 1 6.722 0 6.4 6.4 0 0 0 3.066 3.84A3 3 0 0 1 21 26"/>
</svg>
