<svg xmlns="http://www.w3.org/2000/svg" fill="none" viewBox="0 0 32 32">
  <path fill="#000" d="M27.515 11.693A7 7 0 0 0 24.99 9.67 7 7 0 0 0 18 3h-7.5a2 2 0 0 0-1.94 1.515l-4.5 18A2 2 0 0 0 6 25h3.437l-.375 1.515A2 2 0 0 0 11 29h3.937a2 2 0 0 0 1.938-1.515L18 23h4a7 7 0 0 0 5.517-11.307zM6 23l4.5-18H18a5 5 0 0 1 4.912 4.061A7 7 0 0 0 22 9h-7a2 2 0 0 0-1.941 1.515L9.939 23zm20.846-5.788A4.99 4.99 0 0 1 22 21h-4a2 2 0 0 0-1.94 1.515L14.935 27H11l2.5-10H18a6.99 6.99 0 0 0 6.75-5.174c.451.3.852.67 1.185 1.096a4.97 4.97 0 0 1 .912 4.29z"/>
</svg>
