<svg xmlns="http://www.w3.org/2000/svg" fill="none" viewBox="0 0 32 32">
  <path fill="#000" d="M6.74 4.327a1 1 0 1 0-1.48 1.345l6.025 6.625L4.585 19A2 2 0 0 0 4 20.414V26a2 2 0 0 0 2 2h5.586A1.98 1.98 0 0 0 13 27.414l6.3-6.3 5.961 6.558a1 1 0 1 0 1.48-1.345zm5.893 9.455 1.992 2.185-6.125 6.12L6.414 20zM6 26v-3.586L9.586 26zm6-.414L9.915 23.5l6.051-6.051 1.987 2.185zM28.415 12l-5.54 5.542a1.002 1.002 0 1 1-1.416-1.417l1.835-1.835-2.087-2.083-1.668 1.668a1 1 0 0 1-1.414-1.414l1.669-1.669-2.087-2.085-1.5 1.5a1 1 0 0 1-1.414.001 1 1 0 0 1 0-1.414L20 3.586a2 2 0 0 1 2.829 0l5.586 5.585a2 2 0 0 1 0 2.829"/>
</svg>
