<svg xmlns="http://www.w3.org/2000/svg" fill="none" viewBox="0 0 32 32">
  <path fill="#000" d="M6.74 4.328a1 1 0 1 0-1.48 1.345l6.025 6.625L4.585 19A2 2 0 0 0 4 20.414V26a2 2 0 0 0 2 2h5.586A1.98 1.98 0 0 0 13 27.414l6.3-6.299 5.961 6.558a1 1 0 0 0 1.42.076 1 1 0 0 0 .06-1.421zM11.586 26H6v-5.586l6.633-6.625 5.32 5.851zM28.415 9.171l-5.586-5.585a2 2 0 0 0-2.829 0l-5.209 5.21a.999.999 0 1 0 1.415 1.413L17 9.414 22.586 15l-1.125 1.125a1.001 1.001 0 1 0 1.414 1.418L28.415 12a2 2 0 0 0 0-2.829M24 13.586 18.415 8l3-3L27 10.586z"/>
</svg>
