<svg xmlns="http://www.w3.org/2000/svg" fill="none" viewBox="0 0 32 32">
  <path fill="#000" d="M25.193 6.808A13 13 0 1 0 6.808 25.193 13 13 0 0 0 25.193 6.808M11 24a2 2 0 1 1 4 0v2.949a11 11 0 0 1-4-1.153zm6 0a2 2 0 1 1 4 0v1.796a11 11 0 0 1-4 1.153zm-3.591-7h5.182l1.448 3.138A3.99 3.99 0 0 0 16 21.358a3.99 3.99 0 0 0-4.039-1.22zm.924-2L16 11.386 17.668 15zm9.445 8.779q-.376.374-.778.705V22a1 1 0 0 0-.092-.419l-6-13a1 1 0 0 0-1.815 0l-6 13a1 1 0 0 0-.093.42v2.483a11 11 0 1 1 14.778-.705"/>
</svg>
