<svg xmlns="http://www.w3.org/2000/svg" fill="none" viewBox="0 0 32 32">
  <path fill="#000" d="M30 12.585a1.98 1.98 0 0 0-.586-1.414l-8.585-8.586a2 2 0 0 0-2.829 0l-3.554 3.554-7.25 2.721a2.01 2.01 0 0 0-1.277 1.544L3.014 27.835a1 1 0 0 0 1.151 1.151l17.43-2.905a2 2 0 0 0 1.544-1.271l2.721-7.25L29.414 14A1.98 1.98 0 0 0 30 12.585m-8.734 11.524L6.915 26.5l5.921-5.921a3.5 3.5 0 1 0-1.415-1.415L5.5 25.087l2.391-14.354L14.75 8.16l9.087 9.089-2.57 6.859zM13 17.5a1.5 1.5 0 1 1 2.999 0 1.5 1.5 0 0 1-2.999 0m12-1.915L16.414 7l3-3L28 12.585z"/>
</svg>
