<svg xmlns="http://www.w3.org/2000/svg" fill="none" viewBox="0 0 32 32">
  <path fill="#000" d="M29.898 11.381A1.97 1.97 0 0 0 28 10.001h-7.625l-2.471-7.593a1.991 1.991 0 0 0-3.806-.007l-2.466 7.6H4a2 2 0 0 0-1.171 3.624l6.182 4.448-2.367 7.302a1.97 1.97 0 0 0 .731 2.235 1.97 1.97 0 0 0 2.346 0L16 23.094l6.279 4.516a2 2 0 0 0 3.077-2.235l-2.375-7.307 6.186-4.452a1.97 1.97 0 0 0 .73-2.235zM16 3.02 18.265 10h-4.53zM4 12h6.984l-1.322 4.07zm4.542 14 2.174-6.699 3.568 2.568zm2.822-8.696L13.086 12h5.828l1.718 5.298L16 20.625zM23.45 26l-5.738-4.125 3.568-2.567zm-1.116-9.922L21.016 12H28z"/>
</svg>
