<svg xmlns="http://www.w3.org/2000/svg" fill="none" viewBox="0 0 32 32">
  <path fill="#000" d="m7.31 16.841-4.477-3.216A2 2 0 0 1 4 10h5.53zm-.666 8.534a1.97 1.97 0 0 0 .731 2.235 1.97 1.97 0 0 0 2.346 0l4.567-3.285-5.92-4.26zm11.26-22.968a1.991 1.991 0 0 0-3.806-.006L12.28 8h7.438l-1.815-5.593zM20.368 10h-8.735l-2.618 8.067L16 23.095l6.985-5.027zm9.53 1.383A1.97 1.97 0 0 0 28 10h-5.53l2.22 6.843 4.481-3.226a1.97 1.97 0 0 0 .727-2.236zm-6.265 8.683-5.92 4.259 4.566 3.285a2 2 0 0 0 3.077-2.235z"/>
</svg>
