<svg xmlns="http://www.w3.org/2000/svg" fill="none" viewBox="0 0 32 32">
  <path fill="#000" d="M20.909 5.053A5.01 5.01 0 0 0 16 1a1 1 0 1 0 0 2 3 3 0 0 1 2.856 2.082A8.01 8.01 0 0 0 12 13c0 5.844-3.219 9.75-9.566 11.625a2 2 0 0 0 .221 3.891A33 33 0 0 0 8.344 29c5.097 0 10.77-1.144 14.691-4.433C26.33 21.805 28 17.913 28 13a8.01 8.01 0 0 0-7.091-7.947M20 7a6.01 6.01 0 0 1 5.671 4.046L24 11.875l-3.552-1.771a1 1 0 0 0-.896 0L16 11.875l-1.671-.835A6.01 6.01 0 0 1 20 7m1.75 16.038c-2.25 1.883-5.45 3.157-9.265 3.683A31.8 31.8 0 0 1 3 26.546c7.154-2.108 10.954-6.75 11-13.427l1.555.777a1 1 0 0 0 .895 0l3.55-1.78 3.552 1.777a1 1 0 0 0 .896 0l1.55-.776c-.026 4.238-1.454 7.575-4.248 9.92z"/>
</svg>
