<svg xmlns="http://www.w3.org/2000/svg" fill="none" viewBox="0 0 32 32">
  <path fill="#000" d="M15 6a4 4 0 1 1 7.999 0A4 4 0 0 1 15 6m11 11c-3.58 0-5.226-1.662-6.969-3.421a26 26 0 0 0-1.375-1.323C13.031 8.24 5.63 15.097 5.316 15.391a1 1 0 0 0 1.369 1.458 20.5 20.5 0 0 1 3.815-2.724c1.723-.922 3.174-1.279 4.338-1.072L8.082 28.6a1 1 0 0 0 1.835.798l4.198-9.659L18 22.515V29a1 1 0 0 0 2 0v-7a1 1 0 0 0-.419-.814l-4.65-3.321L16.61 14c.33.305.657.634 1 .98C19.381 16.774 21.586 19 26 19a1 1 0 1 0 0-2"/>
</svg>
