<svg xmlns="http://www.w3.org/2000/svg" fill="none" viewBox="0 0 32 32">
  <path fill="#000" d="M20 5a4 4 0 1 0-8 0 4 4 0 0 0 8 0m-4 2a2 2 0 1 1 0-4 2 2 0 0 1 0 4m11.293 9.756-5.647-6.402a4 4 0 0 0-3-1.354h-5.292a4 4 0 0 0-3 1.354l-5.646 6.402a2.5 2.5 0 0 0 3.516 3.554l2.037-1.635-2.067 7.86A2.501 2.501 0 0 0 12.75 28.6L16 22.991l3.25 5.609a2.5 2.5 0 0 0 4.551-2.065l-2.062-7.86 2.037 1.635a2.5 2.5 0 0 0 3.517-3.554m-1.44 2.096a.5.5 0 0 1-.707 0 1 1 0 0 0-.08-.072l-4.44-3.56a1 1 0 0 0-1.593 1.03l2.86 10.875a1 1 0 0 0 .06.169.5.5 0 1 1-.907.422l-.04-.079-4.14-7.137a1 1 0 0 0-1.73 0L11 27.631l-.041.079a.5.5 0 0 1-.573.275.5.5 0 0 1-.335-.697 1 1 0 0 0 .06-.17l2.857-10.868a1 1 0 0 0-1.593-1.03l-4.44 3.56q-.043.034-.081.072a.5.5 0 1 1-.708-.706l.043-.046 5.665-6.424a2 2 0 0 1 1.5-.676h5.292a2 2 0 0 1 1.5.676l5.665 6.424.043.046a.5.5 0 0 1 0 .706z"/>
</svg>
