<svg xmlns="http://www.w3.org/2000/svg" fill="none" viewBox="0 0 32 32">
  <path fill="#000" d="M16 11a4 4 0 1 0 0-8 4 4 0 0 0 0 8m0-6a2 2 0 1 1 0 4 2 2 0 0 1 0-4M6 12a2 2 0 1 1 4 0 2 2 0 0 1-4 0m21.78 1.826a1 1 0 0 1-1.405.158c-.144-.111-2.964-2.213-7.415.076a27 27 0 0 1-.375 3.794l4.054 3.375a1 1 0 0 1 .308 1.085l-2 6a1 1 0 0 1-1.897-.633l1.784-5.352-2.76-2.3q-.27.913-.638 1.791c-1.719 4.093-4.797 6.829-9.15 8.135a1 1 0 0 1-.575-1.915c7.585-2.276 8.893-9.027 9.178-12.706C13.499 17.485 10.82 18 9.045 18a7.5 7.5 0 0 1-2.459-.409A1 1 0 0 1 7 15.675c.143 0 .284.031.414.091 0 0 3.345 1.335 9.023-2.525 6.537-4.442 11-.971 11.19-.821a1 1 0 0 1 .153 1.406"/>
</svg>
