<svg xmlns="http://www.w3.org/2000/svg" fill="none" viewBox="0 0 32 32">
  <path fill="#000" d="M12 7a4 4 0 1 1 8 0 4 4 0 0 1-8 0m15.625 5.42c-.187-.15-4.652-3.625-11.189.821-5.686 3.864-8.99 2.538-9.02 2.524a.998.998 0 0 0-1.427.873 1 1 0 0 0 .597.947c.077.035.937.409 2.46.409 1.775 0 4.454-.514 7.845-2.662-.285 3.677-1.59 10.434-9.178 12.71a1 1 0 1 0 .575 1.915c4.353-1.306 7.43-4.042 9.15-8.134a18 18 0 0 0 .637-1.792l2.76 2.3-1.784 5.353a1 1 0 1 0 1.898.632l2-6a1 1 0 0 0-.309-1.085l-4.052-3.375q.322-1.883.375-3.792c4.522-2.322 7.375-.107 7.41-.082a.999.999 0 0 0 1.514-1.262 1 1 0 0 0-.264-.298zM8 14a2 2 0 1 0 0-4 2 2 0 0 0 0 4"/>
</svg>
