<svg xmlns="http://www.w3.org/2000/svg" fill="none" viewBox="0 0 32 32">
  <path fill="#000" d="M20 5a4 4 0 1 0-8 0 4 4 0 0 0 8 0m-4 2a2 2 0 1 1 0-4 2 2 0 0 1 0 4m12.938 3.964A2.45 2.45 0 0 0 26.5 9h-21a2.5 2.5 0 0 0-1.047 4.77h.016l6.344 2.794-2.625 9.965A2.505 2.505 0 1 0 12.75 28.6L16 22.991l3.25 5.609a2.5 2.5 0 0 0 4.55-2.065l-2.625-9.965 6.344-2.794h.016a2.455 2.455 0 0 0 1.403-2.812m-2.225.987-7.117 3.133a1 1 0 0 0-.563 1.17l2.858 10.871a1 1 0 0 0 .062.169.5.5 0 1 1-.907.422 1 1 0 0 0-.042-.079L16.865 20.5a1 1 0 0 0-1.73 0L11 27.631a1 1 0 0 0-.042.079.5.5 0 1 1-.907-.422 1 1 0 0 0 .062-.17l2.855-10.868a1 1 0 0 0-.564-1.17l-7.116-3.129A.5.5 0 0 1 5.5 11h21a.5.5 0 0 1 .216.951z"/>
</svg>
