<svg xmlns="http://www.w3.org/2000/svg" fill="none" viewBox="0 0 32 32">
  <path fill="#000" d="M20.5 10a3.5 3.5 0 1 0 0-7 3.5 3.5 0 0 0 0 7m0-5a1.5 1.5 0 1 1 0 3 1.5 1.5 0 0 1 0-3M25 17a4.999 4.999 0 1 0 0 9.998A4.999 4.999 0 0 0 25 17m0 8a3 3 0 1 1 0-5.999A3 3 0 0 1 25 25M7 17a5 5 0 1 0 0 9.999A5 5 0 0 0 7 17m0 8a3 3 0 1 1 0-6 3 3 0 0 1 0 6m17-10h-5a1 1 0 0 1-.707-.293L15 11.415 12.414 14l4.293 4.293A1 1 0 0 1 17 19v6a1 1 0 0 1-2 0v-5.586l-4.707-4.707a1 1 0 0 1 0-1.415l4-4a1 1 0 0 1 1.415 0L19.413 13H24a1 1 0 0 1 0 2"/>
</svg>
