<svg xmlns="http://www.w3.org/2000/svg" fill="none" viewBox="0 0 32 32">
  <path fill="#000" d="M19 10a4 4 0 1 0 0-8 4 4 0 0 0 0 8m0-6a2 2 0 1 1 0 4 2 2 0 0 1 0-4m8 14a1 1 0 0 1-1 1c-4.414 0-6.619-2.226-8.39-4.015-.342-.346-.67-.675-1-.98l-1.679 3.86 4.65 3.321a1 1 0 0 1 .42.814v7a1 1 0 0 1-2 0v-6.485l-3.885-2.775-4.198 9.659a1 1 0 0 1-1.835-.798l6.76-15.546c-1.164-.206-2.615.15-4.338 1.072a20.5 20.5 0 0 0-3.821 2.722 1 1 0 0 1-1.369-1.458c.313-.293 7.711-7.153 12.34-3.135.479.415.935.875 1.375 1.322C20.774 15.338 22.42 17 26 17a1 1 0 0 1 1 1"/>
</svg>
