<svg xmlns="http://www.w3.org/2000/svg" fill="none" viewBox="0 0 32 32">
  <path fill="#000" d="M19 11a4 4 0 1 0 0-8 4 4 0 0 0 0 8m0-6a2 2 0 1 1 0 4 2 2 0 0 1 0-4m8.414 12.585c-.076.035-.936.41-2.459.41-1.731 0-4.319-.485-7.586-2.5a21 21 0 0 1-1.926 4.043 13 13 0 0 1 3.913 1.976C21.74 23.33 23 25.919 23 29a1 1 0 1 1-2 0c0-5.212-4.336-7.089-6.767-7.731q-.105.132-.212.262c-2.455 2.975-5.53 4.523-8.953 4.523Q4.483 26.057 3.9 26a1.005 1.005 0 1 1 .2-2c3.24.323 6.059-.936 8.375-3.75 1.561-1.892 2.625-4.201 3.156-5.875-4.865-2.831-7.972-.421-8.006-.395a1 1 0 1 1-1.25-1.56c.188-.15 4.653-3.625 11.189.821 5.684 3.864 8.991 2.539 9.022 2.524a.998.998 0 0 1 1.427.873 1 1 0 0 1-.598.947z"/>
</svg>
