<svg xmlns="http://www.w3.org/2000/svg" fill="none" viewBox="0 0 32 32">
  <path fill="#000" d="M28.948 11.266c-7.018-7.016-18.878-7.016-25.897 0-2.5 2.5-2.74 6.186-.586 8.964a2 2 0 0 0 2.297.635l6.125-2.171.037-.014a2 2 0 0 0 1.218-1.466l.738-3.69a9.57 9.57 0 0 1 6.21-.014l.776 3.719a2 2 0 0 0 1.215 1.448l.036.014 6.125 2.174a2 2 0 0 0 2.298-.633c2.149-2.78 1.907-6.466-.591-8.966zM27.959 19l-.037-.015-6.102-2.166-.777-3.718a2 2 0 0 0-1.292-1.476 11.57 11.57 0 0 0-7.543.016 2 2 0 0 0-1.29 1.5l-.737 3.689-6.101 2.152c-.013 0-.022.017-.034.022-1.541-1.99-1.375-4.53.42-6.323C7.59 9.556 11.796 7.99 16 7.99c4.203 0 8.409 1.564 11.535 4.691 1.791 1.794 1.965 4.334.424 6.319m.04 6a1 1 0 0 1-1 1H5a1 1 0 1 1 0-2h22a1 1 0 0 1 1 1z"/>
</svg>
