<svg xmlns="http://www.w3.org/2000/svg" fill="none" viewBox="0 0 32 32">
  <path fill="#000" d="M19.293 12.707a1 1 0 0 1 0-1.415L23.585 7H21a1 1 0 1 1 0-2h5a1 1 0 0 1 1 1v5a1 1 0 1 1-2 0V8.414l-4.293 4.293a1 1 0 0 1-1.415 0zm9.692 9.178A7.03 7.03 0 0 1 22 28c-9.925 0-18-8.075-18-18a7.03 7.03 0 0 1 6.115-6.985 2 2 0 0 1 2.078 1.189l2.64 5.895v.015a2 2 0 0 1-.16 1.886 1 1 0 0 1-.07.096L12 15.181c.936 1.903 2.926 3.875 4.854 4.814l3.042-2.589a1 1 0 0 1 .094-.07 1.99 1.99 0 0 1 1.896-.175l.017.008 5.888 2.638a2 2 0 0 1 1.194 2.078M27 21.635h-.014l-5.875-2.633-3.044 2.59a1 1 0 0 1-.092.07 2 2 0 0 1-1.969.143c-2.341-1.131-4.675-3.448-5.807-5.764a2 2 0 0 1 .125-1.962 1 1 0 0 1 .071-.097L13 10.894l-2.625-5.875v-.015A5.025 5.025 0 0 0 6 10a16.02 16.02 0 0 0 16 16 5.026 5.026 0 0 0 5-4.366z"/>
</svg>
