<svg xmlns="http://www.w3.org/2000/svg" fill="none" viewBox="0 0 32 32">
  <path fill="#000" d="M6.741 4.328a1 1 0 1 0-1.48 1.345L8.71 9.468a17.7 17.7 0 0 0-5.659 3.805c-2.5 2.5-2.74 6.182-.586 8.958a2 2 0 0 0 2.297.634l6.125-2.171.037-.014a2 2 0 0 0 1.218-1.465l.738-3.689q.526-.18 1.07-.3l11.314 12.447a1 1 0 1 0 1.48-1.345zm5.463 9.315a2 2 0 0 0-1.29 1.492l-.738 3.688-6.097 2.162c-.013 0-.022.016-.034.021-1.541-1.987-1.375-4.527.42-6.32a15.7 15.7 0 0 1 5.684-3.637l2.287 2.517zm17.33 8.588a2 2 0 0 1-2.297.634l-1.156-.41a1.002 1.002 0 0 1-.096-1.845 1 1 0 0 1 .765-.04l1.171.415.038.015c1.537-1.981 1.375-4.521-.424-6.314-3.208-3.207-7.735-4.908-12.419-4.663a1.001 1.001 0 1 1-.104-2c5.25-.274 10.329 1.637 13.936 5.25 2.5 2.498 2.74 6.182.587 8.958z"/>
</svg>
