<svg xmlns="http://www.w3.org/2000/svg" fill="none" viewBox="0 0 32 32">
  <path fill="#000" d="M19.034 4.741a1 1 0 0 1 1.225-.707 10.78 10.78 0 0 1 7.707 7.707 1 1 0 1 1-1.932.518 8.8 8.8 0 0 0-6.291-6.293 1 1 0 0 1-.71-1.225zm-.291 5.225c1.723.46 2.83 1.569 3.29 3.293a1 1 0 1 0 1.933-.518c-.64-2.395-2.312-4.067-4.707-4.707a1 1 0 0 0-.517 1.932zm9.053 9.842-5.889-2.64-.016-.007a2 2 0 0 0-1.896.175 1 1 0 0 0-.094.07L16.86 20c-1.928-.936-3.918-2.911-4.854-4.814l2.597-3.088a1 1 0 0 0 .072-.097 2 2 0 0 0 .165-1.882v-.015l-2.646-5.899a2 2 0 0 0-2.078-1.19A7.03 7.03 0 0 0 4 10c0 9.925 8.075 18 18 18a7.03 7.03 0 0 0 6.985-6.115 2 2 0 0 0-1.189-2.078z"/>
</svg>
