<svg xmlns="http://www.w3.org/2000/svg" fill="none" viewBox="0 0 32 32">
  <path fill="#000" d="M26.74 26.328a.999.999 0 1 1-1.48 1.345L13.944 15.226a10 10 0 0 0-1.07.3l-.737 3.69a2 2 0 0 1-1.219 1.464l-.036.014-6.125 2.171a2 2 0 0 1-2.298-.634c-2.153-2.776-1.912-6.46.587-8.958A17.7 17.7 0 0 1 8.71 9.468L5.262 5.673a1 1 0 1 1 1.48-1.345l19.997 22zm2.21-13.055c-3.608-3.61-8.688-5.52-13.937-5.25a1 1 0 0 0-.688 1.67l11.352 12.488c.11.122.25.215.405.27l1.156.41a2 2 0 0 0 2.297-.633c2.154-2.773 1.913-6.457-.586-8.955z"/>
</svg>
