<svg xmlns="http://www.w3.org/2000/svg" fill="none" viewBox="0 0 32 32">
  <path fill="#000" d="M19.293 12.707a1 1 0 0 1 0-1.415L23.585 7H21a1 1 0 1 1 0-2h5a1 1 0 0 1 1 1v5a1 1 0 1 1-2 0V8.414l-4.293 4.293a1 1 0 0 1-1.415 0zm8.5 7.1-5.89-2.638-.015-.008a2 2 0 0 0-1.897.175 1 1 0 0 0-.093.07L16.858 20c-1.927-.936-3.917-2.911-4.853-4.814l2.597-3.088a1 1 0 0 0 .072-.097 2 2 0 0 0 .165-1.882v-.015l-2.646-5.899a2 2 0 0 0-2.078-1.19A7.03 7.03 0 0 0 4 10c0 9.925 8.075 18 18 18a7.03 7.03 0 0 0 6.985-6.115 2 2 0 0 0-1.189-2.078z"/>
</svg>
