<svg xmlns="http://www.w3.org/2000/svg" fill="none" viewBox="0 0 32 32">
  <path fill="#000" d="M28.985 21.885A7.03 7.03 0 0 1 22 28c-9.925 0-18-8.075-18-18a7.03 7.03 0 0 1 6.115-6.985 2 2 0 0 1 2.078 1.19l2.64 5.894v.015a2 2 0 0 1-.16 1.886 1 1 0 0 1-.07.096L12 15.181c.936 1.903 2.926 3.875 4.854 4.814l3.042-2.589q.045-.037.094-.07a2 2 0 0 1 1.896-.175l.017.008 5.888 2.639a2 2 0 0 1 1.194 2.077M20 13h5a1 1 0 0 0 0-2h-2.585l4.293-4.293a1 1 0 1 0-1.415-1.415L21 9.586V7a1 1 0 1 0-2 0v5a1 1 0 0 0 1 1"/>
</svg>
