<svg xmlns="http://www.w3.org/2000/svg" fill="none" viewBox="0 0 32 32">
  <path fill="#000" d="M19.293 11.293 21.585 9l-2.293-2.292a1 1 0 0 1 1.415-1.415L23 7.586l2.293-2.293a1 1 0 1 1 1.415 1.415L24.415 9l2.293 2.293a1 1 0 0 1-1.415 1.415L23 10.414l-2.293 2.294a1 1 0 1 1-1.415-1.415zm9.692 10.592A7.03 7.03 0 0 1 22 28c-9.925 0-18-8.075-18-18a7.03 7.03 0 0 1 6.115-6.985 2 2 0 0 1 2.078 1.19l2.64 5.894v.015a2 2 0 0 1-.16 1.886 1 1 0 0 1-.07.097L12 15.181c.936 1.902 2.926 3.874 4.854 4.813l3.042-2.588a1 1 0 0 1 .094-.07 2 2 0 0 1 1.896-.175l.017.007 5.888 2.639a2 2 0 0 1 1.194 2.077zM27 21.635h-.014l-5.875-2.631-3.044 2.589a1 1 0 0 1-.092.07 2 2 0 0 1-1.969.142c-2.341-1.131-4.675-3.447-5.807-5.764a2 2 0 0 1 .125-1.962 1 1 0 0 1 .071-.096L13 10.894l-2.625-5.875v-.015A5.025 5.025 0 0 0 6 10a16.02 16.02 0 0 0 16 16 5.026 5.026 0 0 0 5-4.366z"/>
</svg>
