<svg xmlns="http://www.w3.org/2000/svg" fill="none" viewBox="0 0 32 32">
  <path fill="#000" d="m27.795 19.808-5.888-2.639-.015-.008a2 2 0 0 0-1.897.175 1 1 0 0 0-.094.07L16.86 20c-1.928-.936-3.918-2.911-4.854-4.813l2.597-3.09q.038-.045.072-.095a2 2 0 0 0 .165-1.883v-.015l-2.646-5.899a2 2 0 0 0-2.078-1.19A7.03 7.03 0 0 0 4 10c0 9.925 8.075 18 18 18a7.03 7.03 0 0 0 6.985-6.115 2 2 0 0 0-1.19-2.077M22 26A16.017 16.017 0 0 1 6 10a5.025 5.025 0 0 1 4.359-5v.015l2.625 5.875-2.584 3.093a1 1 0 0 0-.071.096 2 2 0 0 0-.125 1.962c1.132 2.317 3.466 4.633 5.807 5.764a2 2 0 0 0 1.969-.142 1 1 0 0 0 .093-.072l3.038-2.59 5.875 2.632H27A5.026 5.026 0 0 1 22 26M18 9a1 1 0 0 1 1-1h3V5a1 1 0 0 1 2 0v3h3a1 1 0 1 1 0 2h-3v3a1 1 0 1 1-2 0v-3h-3a1 1 0 0 1-1-1"/>
</svg>
