<svg xmlns="http://www.w3.org/2000/svg" fill="none" viewBox="0 0 32 32">
  <path fill="#000" d="M29 16.087C28.953 23.15 23.192 28.93 16.133 29a13 13 0 0 1-3.243-.375.5.5 0 0 1-.364-.608l1.08-4.318A7.6 7.6 0 0 0 17 24.5c4.625 0 8.337-4.181 7.976-9.17a9 9 0 1 0-17.321 4.045A1 1 0 0 0 9 19.911a1.023 1.023 0 0 0 .5-1.311 7 7 0 1 1 13.483-3.116C23.25 19.3 20.466 22.5 17 22.5c-1.02 0-2.02-.279-2.893-.805l1.863-7.453a1 1 0 0 0-1.94-.485L10.673 27.19a.5.5 0 0 1-.714.323A13 13 0 0 1 3 15.86C3.075 8.815 8.834 3.065 15.875 3A13 13 0 0 1 29 16.087"/>
</svg>
