<svg xmlns="http://www.w3.org/2000/svg" fill="none" viewBox="0 0 32 32">
  <path fill="#000" d="m28.708 27.293-6.053-6.052a8 8 0 0 0 .409-.133 7.5 7.5 0 0 0 4.482-9.608 1 1 0 0 0-1.28-.598l-5.526 2.01A7.499 7.499 0 0 0 11.5 2.457a1 1 0 0 0-.602 1.282l2.01 5.524q-.116-.061-.235-.116a7.5 7.5 0 0 0-10.217 9.361 1 1 0 0 0 1.282.598l5.525-2.011a7.5 7.5 0 0 0 9.245 10.453 1 1 0 0 0 .597-1.282l-2.011-5.525q.117.061.236.116c.883.413 1.837.65 2.81.698l7.153 7.154a1 1 0 1 0 1.415-1.415zM16.384 4.518a5.5 5.5 0 0 1 .466 9.731l-3.7-10.17a5.45 5.45 0 0 1 3.235.44zM4.079 16.852a5.5 5.5 0 0 1 10.171-3.7zm9.546 8.632a5.5 5.5 0 0 1-.466-9.727l3.7 10.167a5.45 5.45 0 0 1-3.234-.44m6.945-5.923h-.014a5.52 5.52 0 0 1-4.792-2.711l10.166-3.701a5.507 5.507 0 0 1-5.36 6.412"/>
</svg>
