<svg xmlns="http://www.w3.org/2000/svg" fill="none" viewBox="0 0 32 32">
  <path fill="#000" d="m28.708 27.293-6.053-6.052a8 8 0 0 0 .409-.133 7.5 7.5 0 0 0 4.482-9.608 1 1 0 0 0-1.28-.598l-5.526 2.01A7.499 7.499 0 0 0 11.5 2.457a1 1 0 0 0-.602 1.282l2.01 5.527-.235-.125a7.5 7.5 0 0 0-10.217 9.361 1 1 0 0 0 1.282.598l5.525-2.012q-.06.118-.117.237a7.5 7.5 0 0 0 9.362 10.216 1 1 0 0 0 .597-1.281l-2.01-5.523q.116.06.235.114c.883.413 1.837.65 2.81.697l7.153 7.154a1 1 0 1 0 1.415-1.415zm-15.083-1.81a5.5 5.5 0 0 1-.466-9.726l3.7 10.167a5.45 5.45 0 0 1-3.234-.44zm5.425-13.655a5.47 5.47 0 0 1-2.2 2.422l-3.7-10.171a5.5 5.5 0 0 1 5.895 7.75z"/>
</svg>
