<svg xmlns="http://www.w3.org/2000/svg" fill="none" viewBox="0 0 32 32">
  <path fill="#000" d="M29.942 7.875a2 2 0 0 0-.906-1.237 25.19 25.19 0 0 0-26.072 0 2 2 0 0 0-.671 2.75l12 19.658a2 2 0 0 0 3.42 0l12-19.658a1.98 1.98 0 0 0 .23-1.513zM7.95 14.813a3 3 0 1 1 3.059 5.01l-3.06-5.01zm10.99 8.368a3 3 0 0 1 3.06-5.01l-3.061 5.01zm4.116-6.74a5 5 0 0 0-5.172 8.47L16 28.001l-3.938-6.447a5 5 0 1 0-5.168-8.47L6.1 11.783a19 19 0 0 1 19.799 0l-2.844 4.657zm3.887-6.367a21.02 21.02 0 0 0-21.884 0L4 8.346a23.2 23.2 0 0 1 24 0l-1.058 1.728z"/>
</svg>
