<svg xmlns="http://www.w3.org/2000/svg" fill="none" viewBox="0 0 32 32">
  <path fill="#000" d="M27.902 14.469A11.992 11.992 0 0 1 8.678 25.5c3.15-.77 6.853-2.366 10.306-4.35 3.68-2.114 6.786-4.468 8.918-6.681m2.737-6.884c-.956-1.649-3.48-2.02-7.313-1.083A11.991 11.991 0 0 0 4 16q0 .772.097 1.539c-3.46 3.586-3.41 5.71-2.735 6.876C2 25.52 3.33 26 5.08 26a15.5 15.5 0 0 0 3.599-.5 12 12 0 0 1-1.77-1.678c-2.162.36-3.5.125-3.817-.41-.182-.315-.08-.906.278-1.626a10 10 0 0 1 1.285-1.881v-.011.01a12 12 0 0 0 2.25 3.915c2.617-.437 6.436-1.74 11.079-4.407 3.516-2.013 7.266-4.828 9.365-7.31a12 12 0 0 0-2.25-3.918l-.017-.02c0 .007.012.012.017.02 1.776-.294 3.421-.272 3.812.405.115.196.125.49.019.875-.211.788-.774 1.69-1.579 2.64.265.769.45 1.562.554 2.367 1.563-1.625 2.602-3.169 2.956-4.49.243-.917.169-1.722-.222-2.396"/>
</svg>
