<svg xmlns="http://www.w3.org/2000/svg" fill="none" viewBox="0 0 32 32">
  <path fill="#000" d="M30.954 4.986a1 1 0 0 0-.94-.94c-6.47-.375-11.665 1.593-13.898 5.278-1.475 2.436-1.472 5.395-.02 8.217a8.9 8.9 0 0 0-1.771 3.375l-2.034-2.04c.978-2.042.94-4.17-.125-5.937-1.65-2.724-5.459-4.184-10.187-3.906a1 1 0 0 0-.94.94C.76 14.7 2.22 18.51 4.945 20.16c.899.55 1.932.84 2.985.84a6.8 6.8 0 0 0 2.945-.709L14 23.416V27a1 1 0 0 0 2 0v-3.686a6.95 6.95 0 0 1 1.534-4.375 9.24 9.24 0 0 0 4.164 1.05 7.6 7.6 0 0 0 3.978-1.108c3.685-2.23 5.658-7.425 5.278-13.895M5.976 18.45C4.06 17.29 2.974 14.54 3 11c3.54-.03 6.289 1.059 7.45 2.976.606 1 .705 2.167.308 3.368l-3.052-3.051a1 1 0 0 0-1.413 1.413l3.05 3.052c-1.2.397-2.365.298-3.367-.308m18.664-1.277c-1.675 1.013-3.644 1.09-5.644.25l6.712-6.713a1 1 0 0 0-1.414-1.414L17.58 16c-.845-2-.768-3.97.25-5.644 1.743-2.875 5.875-4.477 11.166-4.353.12 5.29-1.48 9.427-4.357 11.17z"/>
</svg>
