<svg xmlns="http://www.w3.org/2000/svg" fill="none" viewBox="0 0 32 32">
  <path fill="#000" d="M25.676 18.884a7.6 7.6 0 0 1-3.978 1.107 9 9 0 0 1-3.42-.707A6.94 6.94 0 0 0 17 23.314V27a1 1 0 0 1-1.066 1A1.023 1.023 0 0 1 15 26.969v-1.555l-4.828-4.828A6.6 6.6 0 0 1 7.93 21a5.73 5.73 0 0 1-2.99-.834C2.216 18.511.75 14.702 1.034 9.974a1 1 0 0 1 .94-.94c4.729-.28 8.537 1.182 10.187 3.906a5.75 5.75 0 0 1 .806 3.56.499.499 0 0 1-.86.304l-2.4-2.513a1 1 0 0 0-1.414 1.414l6.735 6.906q.01-.146.026-.291a8.57 8.57 0 0 1 2.33-4.933l6.323-6.682a1 1 0 1 0-1.413-1.415l-6.125 6.477a.5.5 0 0 1-.848-.217c-.592-2.185-.331-4.36.8-6.228 2.233-3.685 7.428-5.657 13.898-5.277a1 1 0 0 1 .94.94c.375 6.471-1.598 11.666-5.283 13.899"/>
</svg>
