<svg xmlns="http://www.w3.org/2000/svg" fill="none" viewBox="0 0 32 32">
  <path fill="#000" d="M30.639 7.585c-.956-1.649-3.48-2.02-7.313-1.082A11.991 11.991 0 0 0 4 16q0 .773.097 1.539c-3.46 3.586-3.41 5.711-2.735 6.876C2 25.52 3.33 26 5.08 26a15.5 15.5 0 0 0 3.599-.5A11.991 11.991 0 0 0 28 16q0-.769-.096-1.531c1.562-1.625 2.602-3.169 2.956-4.49.244-.915.17-1.72-.221-2.394M16 6a10.014 10.014 0 0 1 9.75 7.775c-2.133 2.008-5.019 4.066-7.759 5.641-3.444 1.977-6.431 3.21-8.814 3.884A9.993 9.993 0 0 1 16 6M3.092 23.411c-.182-.313-.08-.905.278-1.625a10 10 0 0 1 1.286-1.88 12 12 0 0 0 2.25 3.914c-2.156.363-3.501.131-3.814-.409M16 26.001a9.9 9.9 0 0 1-4.82-1.243 46.3 46.3 0 0 0 7.804-3.608c2.697-1.549 5.085-3.227 7.008-4.885A10.01 10.01 0 0 1 16 26zM28.927 9.46c-.212.79-.773 1.692-1.578 2.642a12 12 0 0 0-2.25-3.92c1.776-.293 3.421-.27 3.812.406.113.196.119.49.016.872"/>
</svg>
