<svg xmlns="http://www.w3.org/2000/svg" fill="none" viewBox="0 0 32 32">
  <path fill="#000" d="M18.708 18.707 16.414 21l2.294 2.293a1 1 0 0 1-1.415 1.415l-.793-.794-2.914 2.915a4.007 4.007 0 0 1-5.657 0l-.671-.673-3.55 3.552a1.001 1.001 0 0 1-1.415-1.415l3.55-3.55-.672-.672a4 4 0 0 1 0-5.657L8.086 15.5l-.793-.793a1 1 0 1 1 1.415-1.415L11 15.587l2.293-2.293a1 1 0 1 1 1.415 1.415L12.414 17 15 19.586l2.293-2.293a1 1 0 1 1 1.415 1.415zm11-16.415a1 1 0 0 0-1.415 0l-3.55 3.552-.672-.673a4.006 4.006 0 0 0-5.657 0L15.5 8.086l-.792-.794a1 1 0 0 0-1.415 1.415l10 10a1 1 0 0 0 1.415-1.415l-.794-.792 2.915-2.914a4 4 0 0 0 0-5.657l-.673-.672 3.552-3.55a1 1 0 0 0 0-1.415"/>
</svg>
