<svg xmlns="http://www.w3.org/2000/svg" fill="none" viewBox="0 0 32 32">
  <path fill="#000" d="M29.708 2.292a1 1 0 0 0-1.415 0l-6.55 6.552-.672-.673a4.006 4.006 0 0 0-5.657 0L12.5 11.086l-.792-.793a1 1 0 0 0-1.415 1.415l.793.792-2.915 2.914a4 4 0 0 0 0 5.657l.673.671-6.551 6.55a1 1 0 1 0 1.415 1.415l6.55-6.55.67.672a4.007 4.007 0 0 0 5.658 0l2.914-2.915.793.793a1 1 0 0 0 1.415-1.415l-.794-.792 2.915-2.914a4 4 0 0 0 0-5.657l-.673-.671 6.552-6.55a1 1 0 0 0 0-1.416m-7.294 12.875-2.914 2.92-5.586-5.587 2.915-2.914a2 2 0 0 1 2.827 0l2.758 2.75a2 2 0 0 1 0 2.829v.003zM11.05 4.318a1 1 0 0 1 1.898-.633l1 3a1 1 0 0 1-1.898.632l-1-3zm-8 7.367a1 1 0 0 1 1.265-.633l3 1a1 1 0 0 1-.632 1.898l-3-1a1 1 0 0 1-.633-1.265m25.898 8.632a1 1 0 0 1-1.265.633l-3-1a1 1 0 1 1 .632-1.898l3 1a1 1 0 0 1 .633 1.265m-8 7.368a1 1 0 1 1-1.898.632l-1-3a1 1 0 0 1 1.898-.632z"/>
</svg>
