<svg xmlns="http://www.w3.org/2000/svg" fill="none" viewBox="0 0 32 32">
  <path fill="#000" d="M16 3a13 13 0 1 0 13 13A13.013 13.013 0 0 0 16 3M7.55 8.965l2.134 2.134A7.96 7.96 0 0 0 8.059 15H5.046A10.95 10.95 0 0 1 7.55 8.965M5.046 17h3.019a7.96 7.96 0 0 0 1.625 3.901l-2.14 2.134A10.95 10.95 0 0 1 5.046 17M15 26.954a10.95 10.95 0 0 1-6.035-2.5l2.134-2.134A7.96 7.96 0 0 0 15 23.935zm0-18.889a7.96 7.96 0 0 0-3.901 1.625L8.965 7.55A10.95 10.95 0 0 1 15 5.05zM26.954 15h-3.019a7.96 7.96 0 0 0-1.619-3.901l2.134-2.134A10.95 10.95 0 0 1 26.954 15M17 5.046a10.95 10.95 0 0 1 6.035 2.5l-2.134 2.138A7.96 7.96 0 0 0 17 8.059zm0 21.908v-3.019a7.96 7.96 0 0 0 3.901-1.619l2.134 2.134A10.95 10.95 0 0 1 17 26.954m7.45-3.919-2.134-2.134A7.96 7.96 0 0 0 23.935 17h3.019a10.95 10.95 0 0 1-2.504 6.035"/>
</svg>
