<svg xmlns="http://www.w3.org/2000/svg" fill="none" viewBox="0 0 32 32">
  <path fill="#000" d="M16 3a13 13 0 1 0 13 13A13.013 13.013 0 0 0 16 3m0 19a6 6 0 1 1 6-6 6.006 6.006 0 0 1-6 6m4.901-12.316A7.96 7.96 0 0 0 17 8.059V5.046a10.95 10.95 0 0 1 6.035 2.5zM15 8.065a7.96 7.96 0 0 0-3.901 1.625L8.965 7.55A10.95 10.95 0 0 1 15 5.05zm-5.316 3.034A7.96 7.96 0 0 0 8.059 15H5.046a10.95 10.95 0 0 1 2.5-6.035zM8.065 17a7.96 7.96 0 0 0 1.625 3.901l-2.14 2.134A10.95 10.95 0 0 1 5.05 17zm3.034 5.316A7.96 7.96 0 0 0 15 23.935v3.019a10.95 10.95 0 0 1-6.035-2.5zM17 23.935a7.96 7.96 0 0 0 3.901-1.619l2.134 2.134A10.95 10.95 0 0 1 17 26.95zm5.316-3.034A7.96 7.96 0 0 0 23.935 17h3.019a10.95 10.95 0 0 1-2.5 6.035zM23.935 15a7.96 7.96 0 0 0-1.619-3.901l2.134-2.134A10.95 10.95 0 0 1 26.95 15z"/>
</svg>
