<svg xmlns="http://www.w3.org/2000/svg" fill="none" viewBox="0 0 32 32">
  <path fill="#000" d="M28.83 6.17a4 4 0 0 0-6.303.845L19 6.052a4 4 0 1 0-7.549 1.794L7.21 11.665a4.006 4.006 0 0 0-5.04.506 4 4 0 0 0 5.362 5.926l8.75 6.42a4 4 0 1 0 5.946-1.836l3.424-9.699a4 4 0 0 0 3.174-6.812h.005zM13.58 4.584a2 2 0 1 1-.433 2.18 2 2 0 0 1 .438-2.18zm-10 11.83a2 2 0 1 1 2.825-2.828 2 2 0 0 1-2.825 2.829zm17.831 11a2 2 0 1 1-2.829-2.828 2 2 0 0 1 2.83 2.829zm-1.069-5.397a4 4 0 0 0-2.875.885l-8.75-6.42a4.02 4.02 0 0 0-.167-3.33l4.244-3.82a4 4 0 0 0 5.683-1.35L22 8.944a4 4 0 0 0 1.765 3.375l-3.423 9.697zm7.07-11.605a1.999 1.999 0 1 1-2.825-2.827 2 2 0 0 1 2.83 2.829z"/>
</svg>
