<svg xmlns="http://www.w3.org/2000/svg" fill="none" viewBox="0 0 32 32">
  <path fill="#000" d="M28.69 9.276a1 1 0 0 0-.891-.25A5.5 5.5 0 0 0 21 5.21a5.5 5.5 0 0 0-10 0 5.5 5.5 0 0 0-6.8 3.813 1 1 0 0 0-1.175 1.207l3.82 16.23A2 2 0 0 0 8.793 28h14.415a2 2 0 0 0 1.947-1.541l3.819-16.23a1 1 0 0 0-.284-.953M8.792 26 5.365 11.43l4.731 1.351L11.857 26zm6.466-16.78-4.312 1.725-4.821-1.378a3.5 3.5 0 0 1 5.012-2.16 1 1 0 0 0 1.445-.667 3.5 3.5 0 0 1 6.833 0 1 1 0 0 0 1.445.667 3.5 3.5 0 0 1 5.015 2.16l-4.82 1.376-4.311-1.726a2 2 0 0 0-1.486.003M23.207 26h-3.066l1.763-13.219 4.731-1.351z"/>
</svg>
