<svg xmlns="http://www.w3.org/2000/svg" fill="none" viewBox="0 0 32 32">
  <path fill="#000" d="M25 18h-9.588l.294-.294 2.508-2.507a7.45 7.45 0 0 0 3.262.795 6.2 6.2 0 0 0 3.236-.903c2.965-1.795 4.554-5.95 4.25-11.115a1 1 0 0 0-.94-.94c-5.164-.302-9.32 1.285-11.114 4.25-1.17 1.931-1.2 4.264-.11 6.5L15 15.585l-1.526-1.526c.75-1.657.696-3.375-.174-4.81-1.359-2.25-4.474-3.448-8.334-3.222a1 1 0 0 0-.939.94C3.8 10.824 5 13.94 7.25 15.3c.753.46 1.618.702 2.5.7.8-.008 1.59-.187 2.315-.524L13.585 17l-1 1H7a1 1 0 0 0 0 2h1.199l1.651 7.434A1.99 1.99 0 0 0 11.803 29h8.396a1.99 1.99 0 0 0 1.952-1.566L23.802 20H25a1 1 0 1 0 0-2m-6.375-9.678C19.933 6.165 23.03 4.947 27 5.002c.051 3.975-1.164 7.072-3.321 8.374-1.439.875-3.175.818-4.91-.147-.966-1.73-1.019-3.468-.144-4.907m-7.111 5.192c-1.15.616-2.289.645-3.229.075-1.438-.872-2.266-2.925-2.285-5.59 2.664.02 4.719.848 5.589 2.286.57.94.536 2.079-.075 3.229M20.199 27h-8.397l-1.552-7h11.5z"/>
</svg>
