<svg xmlns="http://www.w3.org/2000/svg" fill="none" viewBox="0 0 32 32">
  <path fill="#000" d="M23.707 8.293a1 1 0 0 1 0 1.414l-2 2a1 1 0 0 1-1.414-1.414l2-2a1 1 0 0 1 1.414 0"/>
  <path fill="#000" fill-rule="evenodd" d="M22.755 4a5.246 5.246 0 0 1 3.709 8.955l-10.37 10.37a1.5 1.5 0 0 1-1.002.438l-5.513.215a2 2 0 0 1-.142 0l-3.73 3.73a1 1 0 0 1-1.414-1.415l3.73-3.73a2 2 0 0 1-.001-.142l.215-5.513a1.5 1.5 0 0 1 .438-1.002l10.37-10.37A5.23 5.23 0 0 1 22.753 4zm2.294 2.95a3.246 3.246 0 0 0-4.59 0L10.228 17.183l-.187 4.777 4.777-.187 10.231-10.23a3.246 3.246 0 0 0 0-4.591z" clip-rule="evenodd"/>
</svg>
