<svg xmlns="http://www.w3.org/2000/svg" fill="none" viewBox="0 0 32 32">
  <path fill="#000" fill-rule="evenodd" d="M26.463 5.537A5.23 5.23 0 0 0 22.755 4h-.002a5.23 5.23 0 0 0-3.708 1.537l-10.37 10.37a1.5 1.5 0 0 0-.438 1.001l-.215 5.513a2 2 0 0 0 0 .142l-3.73 3.73a.997.997 0 0 0 0 1.414 1 1 0 0 0 1.415 0l3.73-3.73q.07.004.142.001l5.513-.215a1.5 1.5 0 0 0 1.002-.438l10.37-10.37a5.246 5.246 0 0 0 0-7.418zm-2.756 4.17a1 1 0 0 0-1.414-1.414l-2 2a1 1 0 0 0 1.414 1.414z" clip-rule="evenodd"/>
</svg>
