<svg xmlns="http://www.w3.org/2000/svg" fill="none" viewBox="0 0 32 32">
  <path fill="#000" d="M26.741 26.328a1 1 0 1 1-1.48 1.345l-2.73-3c-.37.904-.857 1.755-1.447 2.533a2 2 0 0 1-1.459.794h-.141a2 2 0 0 1-1.415-.586l-6.033-6.039-5.329 5.332a1 1 0 0 1-1.415-1.415l5.333-5.328-6.038-6.038a2 2 0 0 1 .163-2.972A8.7 8.7 0 0 1 8.421 9.15L5.26 5.672a1 1 0 1 1 1.48-1.345L22.787 21.98zm2.674-16.157-7.586-7.585a2 2 0 0 0-2.829 0l-5.154 5.172a1 1 0 0 0-.031 1.375l8.571 9.428a1 1 0 0 0 .718.328h.021a1 1 0 0 0 .707-.294L29.416 13a2 2 0 0 0 0-2.829z"/>
</svg>
