<svg xmlns="http://www.w3.org/2000/svg" fill="none" viewBox="0 0 32 32">
  <path fill="#000" d="M6.74 4.327a1 1 0 1 0-1.48 1.345L8.421 9.15a8.7 8.7 0 0 0-3.671 1.804 2 2 0 0 0-.161 2.972l6.036 6.038-5.332 5.328a1 1 0 0 0 1.415 1.415l5.328-5.332 6.037 6.036a2 2 0 0 0 1.415.589h.14a2 2 0 0 0 1.456-.791c.59-.778 1.077-1.63 1.447-2.534l2.73 3a1 1 0 1 0 1.48-1.345zM19.488 26 6 12.51c1.279-1.031 2.65-1.545 4.082-1.534l10.895 11.985c-.278 1.234-.947 2.318-1.49 3.039zm9.927-13-5.58 5.599a.999.999 0 1 1-1.416-1.413L28 11.587 20.415 4l-5.152 5.169a1 1 0 0 1-1.417-1.412L19 2.587a2 2 0 0 1 2.829 0l7.586 7.585a2 2 0 0 1 0 2.828"/>
</svg>
