<svg xmlns="http://www.w3.org/2000/svg" fill="none" viewBox="0 0 32 32">
  <path fill="#000" d="M27.534 19.817a1 1 0 0 0-.963-.057 2.5 2.5 0 1 1 0-4.52A1 1 0 0 0 28 14.336V9a2 2 0 0 0-2-2h-4.528a4.51 4.51 0 0 0-1.393-3.78A4.5 4.5 0 0 0 12.53 7H8a2 2 0 0 0-2 2v4.027a4.515 4.515 0 0 0-4.74 2.953 4.51 4.51 0 0 0 3.912 6.015q.416.03.829-.018V26a2 2 0 0 0 2 2h18a2 2 0 0 0 2-2v-5.336a1 1 0 0 0-.466-.847zM26 26H8v-5.336a1 1 0 0 0-1.429-.904 2.5 2.5 0 1 1 0-4.52A1 1 0 0 0 8 14.336V9h5.836a1 1 0 0 0 .904-1.429 2.5 2.5 0 1 1 4.52 0A1 1 0 0 0 20.164 9H26v4.029a4.5 4.5 0 1 0 0 8.944z"/>
</svg>
