<svg xmlns="http://www.w3.org/2000/svg" fill="none" viewBox="0 0 32 32">
  <path fill="#000" d="M13 5H7a2 2 0 0 0-2 2v6a2 2 0 0 0 2 2h6a2 2 0 0 0 2-2V7a2 2 0 0 0-2-2m0 8H7V7h6zm0 4H7a2 2 0 0 0-2 2v6a2 2 0 0 0 2 2h6a2 2 0 0 0 2-2v-6a2 2 0 0 0-2-2m0 8H7v-6h6zM25 5h-6a2 2 0 0 0-2 2v6a2 2 0 0 0 2 2h6a2 2 0 0 0 2-2V7a2 2 0 0 0-2-2m0 8h-6V7h6zm-8 9v-4a1 1 0 0 1 2 0v4a1 1 0 0 1-2 0m10-2a1 1 0 0 1-1 1h-3v5a1 1 0 0 1-1 1h-4a1 1 0 0 1 0-2h3v-7a1 1 0 0 1 2 0v1h3a1 1 0 0 1 1 1m0 4v2a1 1 0 0 1-2 0v-2a1 1 0 0 1 2 0"/>
</svg>
