<svg xmlns="http://www.w3.org/2000/svg" fill="none" viewBox="0 0 32 32">
  <path fill="#000" fill-rule="evenodd" d="M5 5a2 2 0 0 1 2-2h18a2 2 0 0 1 2 2v22a2 2 0 0 1-2 2H7a2 2 0 0 1-2-2zm12.247 20.333a1.5 1.5 0 1 0-2.495-1.667 1.5 1.5 0 0 0 2.495 1.667M12 11.447C12 9.65 13.678 8 16 8s4 1.65 4 3.447c0 1.093-.598 2.106-1.601 2.757-.755.49-1.584 1.112-2.231 1.879C15.516 16.855 15 17.83 15 19a1 1 0 1 0 2 0c0-.547.236-1.082.696-1.627.464-.55 1.107-1.048 1.791-1.492C20.977 14.916 22 13.31 22 11.448 22 8.332 19.2 6 16 6s-6 2.332-6 5.447a1 1 0 0 0 2 0" clip-rule="evenodd"/>
</svg>
