<svg xmlns="http://www.w3.org/2000/svg" fill="none" viewBox="0 0 32 32">
  <path fill="#000" d="M17.247 28.333a1.5 1.5 0 1 0-2.495-1.667 1.5 1.5 0 0 0 2.495 1.667"/>
  <path fill="#000" fill-rule="evenodd" d="M16 5c-3.415 0-6 2.47-6 5.3a1 1 0 1 1-2 0C8 6.172 11.683 3 16 3s8 3.172 8 7.3c0 2.454-1.322 4.592-3.287 5.9-.98.653-1.93 1.392-2.627 2.221C17.394 19.245 17 20.096 17 21a1 1 0 1 1-2 0c0-1.526.675-2.818 1.555-3.866.877-1.042 2.008-1.905 3.05-2.598C21.087 13.549 22 12 22 10.3 22 7.47 19.415 5 16 5" clip-rule="evenodd"/>
</svg>
