<svg xmlns="http://www.w3.org/2000/svg" fill="none" viewBox="0 0 32 32">
  <path fill="#000" d="M11.5 17H5a2 2 0 0 1-1.893-1.37 2 2 0 0 1-.098-.828 12.98 12.98 0 0 1 5.447-9.436A2 2 0 0 1 11.344 6l3.25 5.625a1.003 1.003 0 0 1-.367 1.366 1 1 0 0 1-1.366-.366L9.611 7A10.98 10.98 0 0 0 5 14.982a.02.02 0 0 0 .009.02l6.49-.002a1 1 0 0 1 0 2zm17.491-2.198a12.98 12.98 0 0 0-5.447-9.436A2 2 0 0 0 20.656 6l-3.244 5.625a1 1 0 1 0 1.733 1L22.395 7A10.98 10.98 0 0 1 27 14.982V15h-6.5a1 1 0 0 0 0 2H27a2 2 0 0 0 1.893-1.37c.09-.266.123-.548.098-.828m-9.875 4.595a1.002 1.002 0 0 0-1.832.242 1 1 0 0 0 .1.758l3.23 5.592a11.03 11.03 0 0 1-9.227 0l3.23-5.592a1.002 1.002 0 0 0-.737-1.491 1 1 0 0 0-.996.491L9.656 24.99a2 2 0 0 0 .89 2.815 13.03 13.03 0 0 0 10.908 0 2 2 0 0 0 .89-2.815l-3.228-5.592zM16 17.5a1.5 1.5 0 1 0 0-3 1.5 1.5 0 0 0 0 3"/>
</svg>
