<svg xmlns="http://www.w3.org/2000/svg" fill="none" viewBox="0 0 32 32">
  <path fill="#000" d="M14.5 16a1.5 1.5 0 1 1 3 0 1.5 1.5 0 0 1-3 0m-2.293.706A1 1 0 0 0 12.5 16a3.51 3.51 0 0 1 1.729-3.019 1 1 0 0 0 .358-1.356L11.344 6a2 2 0 0 0-2.888-.634 12.98 12.98 0 0 0-5.447 9.436 2.03 2.03 0 0 0 .52 1.547 2 2 0 0 0 1.47.65h6.5a1 1 0 0 0 .708-.293m6.91 2.691a1 1 0 0 0-1.367-.365 3.5 3.5 0 0 1-3.5 0 1 1 0 0 0-1.366.367l-3.228 5.59a2 2 0 0 0 .89 2.815 13.03 13.03 0 0 0 10.908 0 2 2 0 0 0 .89-2.815l-3.228-5.592zm9.874-4.595a12.98 12.98 0 0 0-5.447-9.436A2 2 0 0 0 20.656 6l-3.244 5.625a1 1 0 0 0 .36 1.362 3.5 3.5 0 0 1 1.728 2.83v.18a1 1 0 0 0 1 1H27a2 2 0 0 0 1.892-1.368c.09-.266.124-.547.1-.827z"/>
</svg>
