<svg xmlns="http://www.w3.org/2000/svg" fill="none" viewBox="0 0 32 32">
  <path fill="#000" d="M31 20a6.006 6.006 0 0 1-6 6h-6c-2.206 0-4-1.844-4-4.111 0-2.268 1.794-4.111 4-4.111q.21 0 .418.022A6 6 0 0 1 31 20M14 9a10.95 10.95 0 0 1 7.669 3.114 1 1 0 0 0 1.393-1.434A13 13 0 0 0 1 20v2a1 1 0 1 0 2 0v-2A11.013 11.013 0 0 1 14 9m0 4a6.95 6.95 0 0 1 4.141 1.355.998.998 0 0 0 1.628-.536 1 1 0 0 0-.444-1.069A9 9 0 0 0 5 20v2a1 1 0 1 0 2 0v-2a7.007 7.007 0 0 1 7-7m1.901 3.339a1 1 0 0 0-.742-1.204A5 5 0 0 0 9 20v2a1 1 0 1 0 2 0v-2a3 3 0 0 1 3.696-2.919 1 1 0 0 0 1.205-.742"/>
</svg>
