<svg xmlns="http://www.w3.org/2000/svg" fill="none" viewBox="0 0 32 32">
  <path fill="#000" d="m26.347 4.906-16.28-2.875A2 2 0 0 0 7.75 3.654L4.03 24.779a2 2 0 0 0 1.625 2.316l16.281 2.875a2 2 0 0 0 2.318-1.625l3.72-21.125a2 2 0 0 0-1.627-2.314m-9.41 11.539a1 1 0 0 1-1.158.811l-5.188-.916a1 1 0 0 1 .349-1.965l5.185.911a1 1 0 0 1 .812 1.159m5.875-3.023a1 1 0 0 1-1.158.81l-10.375-1.83a1 1 0 0 1 .348-1.97l10.375 1.832a1 1 0 0 1 .814 1.159h-.004zm.694-3.94a1 1 0 0 1-1.159.812L11.972 8.46a1 1 0 1 1 .348-1.969l10.375 1.832a1 1 0 0 1 .815 1.159z"/>
</svg>
