<svg xmlns="http://www.w3.org/2000/svg" fill="none" viewBox="0 0 32 32">
  <path fill="#000" d="m26.347 4.906-16.28-2.875A2 2 0 0 0 7.75 3.654L4.03 24.779a2 2 0 0 0 1.625 2.316l16.281 2.875a2 2 0 0 0 2.318-1.625l3.72-21.125a2 2 0 0 0-1.627-2.314M22.282 28 6 25.125 9.719 4l16.28 2.875L22.283 28zM11.167 7.303a1 1 0 0 1 1.16-.81L22.7 8.322a1 1 0 1 1-.349 1.97l-10.374-1.83a1 1 0 0 1-.81-1.159m-.692 3.94a1 1 0 0 1 1.159-.812l10.375 1.833a1 1 0 1 1-.352 1.97l-10.375-1.832a1 1 0 0 1-.807-1.16zM9.78 15.18a1 1 0 0 1 1.159-.806l5.185.911a1 1 0 1 1-.348 1.97l-5.187-.916a1 1 0 0 1-.809-1.159"/>
</svg>
