<svg xmlns="http://www.w3.org/2000/svg" fill="none" viewBox="0 0 32 32">
  <path fill="#000" d="M15.882 19 14 15.236 12.118 19z"/>
  <path fill="#000" fill-rule="evenodd" d="M26.5 4A1.5 1.5 0 0 1 28 5.5v16a1.5 1.5 0 0 1-1.5 1.5H24v3.5a1.5 1.5 0 0 1-1.5 1.5h-17A1.5 1.5 0 0 1 4 26.5v-17A1.5 1.5 0 0 1 5.5 8H9V5.5A1.5 1.5 0 0 1 10.5 4zM11 8h11.5A1.5 1.5 0 0 1 24 9.5V21h2V6H11zm3.895 4.553a1 1 0 0 0-1.79 0l-5 10a1 1 0 1 0 1.79.894L11.118 21h5.764l1.224 2.447a1 1 0 1 0 1.789-.894z" clip-rule="evenodd"/>
</svg>
