<svg xmlns="http://www.w3.org/2000/svg" fill="none" viewBox="0 0 32 32">
  <path fill="#000" d="M12 26a1 1 0 0 1-1 1H5a3 3 0 0 1-2.596-4.5l4.286-7.406-1.756.469a1.002 1.002 0 1 1-.518-1.938l4.097-1.096a1 1 0 0 1 1.225.707l1.098 4.096a1 1 0 0 1-.711 1.23 1 1 0 0 1-1.225-.707l-.475-1.769L4.139 23.5A1 1 0 0 0 5 25h6a1 1 0 0 1 1 1m17.591-3.5-2.892-5a1 1 0 0 0-1.73 1l2.892 5A1 1 0 0 1 27 25h-8.586l1.292-1.293a1 1 0 0 0-1.413-1.415l-3 3a1 1 0 0 0 0 1.415l3 3a1 1 0 1 0 1.413-1.415L18.414 27H27a3 3 0 0 0 2.596-4.5zM16 4a.98.98 0 0 1 .865.5l4.286 7.406-1.76-.472a1 1 0 0 0-.516 1.931l4.098 1.099a1 1 0 0 0 1.224-.708l1.098-4.098a1 1 0 1 0-1.931-.518l-.475 1.771L18.596 3.5a3 3 0 0 0-5.192 0l-2.895 5a1 1 0 0 0 1.731 1l2.895-5A.98.98 0 0 1 16 4"/>
</svg>
