<svg xmlns="http://www.w3.org/2000/svg" fill="none" viewBox="0 0 32 32">
  <path fill="#000" d="M12 26a1 1 0 0 1-1 1H5a3 3 0 0 1-2.596-4.5l3.5-6.038-1.728-1a1 1 0 0 1 .24-1.837l4.097-1.096a1 1 0 0 1 1.225.707l1.098 4.096a1 1 0 0 1-1.466 1.125l-1.735-1L4.139 23.5A1 1 0 0 0 5 25h6a1 1 0 0 1 1 1m4-22a.98.98 0 0 1 .865.5l3.5 6.037-1.727 1a1 1 0 0 0 .237 1.828l4.098 1.099a1 1 0 0 0 1.224-.708l1.098-4.098a1 1 0 0 0-1.465-1.125l-1.736 1L18.596 3.5a3 3 0 0 0-5.192 0l-2.895 5a1 1 0 0 0 1.731 1l2.895-5A.98.98 0 0 1 16 4m13.591 18.5-2.892-5a1 1 0 0 0-1.73 1l2.892 5A1 1 0 0 1 27 25h-7v-2a1 1 0 0 0-1.707-.707l-3 3a1 1 0 0 0 0 1.415l3 3A1 1 0 0 0 20 29v-2h7a3 3 0 0 0 2.596-4.5z"/>
</svg>
