<svg xmlns="http://www.w3.org/2000/svg" fill="none" viewBox="0 0 32 32">
  <path fill="#000" d="M31 13a4 4 0 0 0-6.618-3.024c-2.093-1.112-4.595-1.785-7.207-1.94l.649-3.897 2.215.34a3 3 0 1 0 .358-1.968l-3.25-.5a1 1 0 0 0-1.138.824l-.86 5.185c-2.73.118-5.352.798-7.532 1.956a4 4 0 0 0-5.323 5.968A7.4 7.4 0 0 0 2 18c0 2.741 1.5 5.294 4.239 7.186C8.859 27 12.326 28 15.999 28c3.675 0 7.14-1 9.762-2.814C28.5 23.294 30 20.741 30 18c0-.696-.1-1.388-.294-2.056A4.02 4.02 0 0 0 31 13M23 3a1 1 0 1 1 0 2 1 1 0 0 1 0-2m5.016 11.723a1 1 0 0 0-.411 1.25c.26.644.394 1.332.395 2.027 0 2.066-1.199 4.034-3.375 5.541-2.291 1.584-5.354 2.46-8.625 2.46s-6.334-.876-8.625-2.46C5.199 22.034 4 20.066 4 18.001a5.5 5.5 0 0 1 .392-2.022 1 1 0 0 0-.408-1.25 2 2 0 1 1 2.633-2.905 1 1 0 0 0 1.307.279l.045-.028C10.18 10.738 13.03 10 15.999 10c2.967 0 5.817.738 8.03 2.075l.052.031a1 1 0 0 0 1.299-.282 2 2 0 1 1 2.634 2.899zM11 18a2 2 0 1 1 0-4 2 2 0 0 1 0 4m12-2a2 2 0 1 1-4.001 0 2 2 0 0 1 4 0zm-2.116 5.531a1 1 0 0 1-.415 1.353 9.52 9.52 0 0 1-8.938 0 1 1 0 0 1-.415-1.353 1.003 1.003 0 0 1 1.353-.415 7.52 7.52 0 0 0 7.062 0 1 1 0 0 1 1.353.415"/>
</svg>
