<svg xmlns="http://www.w3.org/2000/svg" fill="none" viewBox="0 0 32 32">
  <path fill="#000" d="M31 13a4 4 0 0 0-6.618-3.024c-2.093-1.112-4.595-1.785-7.207-1.941l.649-3.896 2.215.34a3 3 0 1 0 .358-1.968l-3.25-.5a1 1 0 0 0-1.138.824l-.86 5.185c-2.73.117-5.352.797-7.532 1.956a4 4 0 0 0-5.323 5.968A7.4 7.4 0 0 0 2 18c0 2.741 1.5 5.294 4.239 7.186C8.859 27 12.326 28 15.999 28c3.675 0 7.14-1 9.762-2.814C28.5 23.294 30 20.741 30 18c0-.696-.1-1.388-.294-2.056A4.02 4.02 0 0 0 31 13M23 3a1 1 0 1 1 0 2 1 1 0 0 1 0-2M9 16a2 2 0 1 1 4 0 2 2 0 0 1-4 0m11.469 6.884a9.52 9.52 0 0 1-8.938 0 1 1 0 1 1 .938-1.768 7.52 7.52 0 0 0 7.062 0 1 1 0 1 1 .938 1.768m.53-4.884A2 2 0 1 1 21 14a2 2 0 0 1 0 4z"/>
</svg>
