<svg xmlns="http://www.w3.org/2000/svg" fill="none" viewBox="0 0 32 32">
  <path fill="#000" d="M29.875 23.51 21.709 9h7.25A1.02 1.02 0 0 0 30 8.066 1 1 0 0 0 29 7H3.034A1.02 1.02 0 0 0 2 7.934 1 1 0 0 0 3 9h7.29L2.125 23.51a1 1 0 0 0 .146 1.179 1.03 1.03 0 0 0 .75.311H14.5a.5.5 0 0 0 .5-.5v-2.466a1.02 1.02 0 0 1 .933-1.031 1 1 0 0 1 1.067 1v2.5a.5.5 0 0 0 .5.5h11.47a1.03 1.03 0 0 0 .75-.312 1 1 0 0 0 .155-1.181M17 17.5a1 1 0 1 1-2 0v-2a1 1 0 0 1 2 0zm0-6.5a1 1 0 1 1-2 0v-1a1 1 0 0 1 2 0z"/>
</svg>
