<svg xmlns="http://www.w3.org/2000/svg" fill="none" viewBox="0 0 32 32">
  <path fill="#000" d="M25 6h-8V2a1 1 0 0 0-2 0v4H7a4 4 0 0 0-4 4v14a4 4 0 0 0 4 4h18a4 4 0 0 0 4-4V10a4 4 0 0 0-4-4m2 18a2 2 0 0 1-2 2H7a2 2 0 0 1-2-2V10a2 2 0 0 1 2-2h18a2 2 0 0 1 2 2zm-6.5-7h-9a3.5 3.5 0 1 0 0 7h9a3.5 3.5 0 1 0 0-7M17 19v3h-2v-3zm-7 1.5a1.5 1.5 0 0 1 1.5-1.5H13v3h-1.5a1.5 1.5 0 0 1-1.5-1.5M20.5 22H19v-3h1.5a1.5 1.5 0 1 1 0 3M9 13.5a1.5 1.5 0 1 1 3 0 1.5 1.5 0 0 1-3 0m11 0a1.5 1.5 0 1 1 3 0 1.5 1.5 0 0 1-3 0"/>
</svg>
