<svg xmlns="http://www.w3.org/2000/svg" fill="none" viewBox="0 0 32 32">
  <path fill="#000" d="M19 28a1 1 0 0 1-1 1h-4a1 1 0 0 1 0-2h4a1 1 0 0 1 1 1m-3-14a1.5 1.5 0 1 0 0-3 1.5 1.5 0 0 0 0 3m11.953 5.479-1.545 6.954a2 2 0 0 1-3.189 1.138l-3.405-2.57h-7.625l-3.407 2.57a2 2 0 0 1-3.19-1.138l-1.544-6.954a2.01 2.01 0 0 1 .415-1.714l3.57-4.282c.12-1.574.48-3.12 1.071-4.584 1.613-4.043 4.5-6.579 5.671-7.481a2 2 0 0 1 2.45 0c1.168.902 4.059 3.438 5.671 7.48.59 1.465.952 3.01 1.072 4.585l3.57 4.282a2.01 2.01 0 0 1 .415 1.714M12.429 23h7.143c2.64-4.692 3.133-9.185 1.467-13.36C19.569 5.955 16.811 3.625 16 3c-.813.625-3.571 2.955-5.041 6.64-1.664 4.175-1.17 8.668 1.47 13.36m-1.875.731q-2.019-3.67-2.45-7.21L6 19.044 7.545 26l.023-.016zM26 19.045l-2.104-2.525q-.428 3.535-2.445 7.211l2.982 2.25.022.017z"/>
</svg>
