<svg xmlns="http://www.w3.org/2000/svg" fill="none" viewBox="0 0 32 32">
  <path fill="#000" d="M19 28a1 1 0 0 1-1 1h-4a1 1 0 0 1 0-2h4a1 1 0 0 1 1 1m8.953-8.521-1.545 6.954a2 2 0 0 1-3.189 1.138L19.814 25h-7.625l-3.407 2.571a2 2 0 0 1-3.19-1.139L4.049 19.48a2.01 2.01 0 0 1 .415-1.714l3.57-4.283c.12-1.573.48-3.12 1.071-4.583 1.613-4.043 4.5-6.579 5.671-7.482a2 2 0 0 1 2.45 0c1.168.903 4.059 3.44 5.671 7.482a15.4 15.4 0 0 1 1.072 4.584l3.57 4.282a2.01 2.01 0 0 1 .415 1.714zm-17.404 4.25q-2.013-3.666-2.445-7.209L6 19.045 7.545 26l.023-.016zM17.5 12.5a1.5 1.5 0 1 0-3 0 1.5 1.5 0 0 0 3 0m8.5 6.545-2.104-2.525q-.428 3.535-2.445 7.211l2.982 2.25.022.016z"/>
</svg>
