<svg xmlns="http://www.w3.org/2000/svg" fill="none" viewBox="0 0 32 32">
  <path fill="#000" d="M12.971 23.242C12.922 23.436 11.704 28 5 28a1 1 0 0 1-1-1c0-6.704 4.564-7.922 4.757-7.971a1 1 0 1 1 .485 1.941c-.112.031-2.802.818-3.195 4.983 4.166-.393 4.953-3.078 4.986-3.203a1 1 0 1 1 1.938.5zm11.625-8.425-.596.597v7.291a2 2 0 0 1-.585 1.42l-4.29 4.288a1.99 1.99 0 0 1-2.05.483 1.99 1.99 0 0 1-1.348-1.615l-.67-4.811-5.527-5.526-4.809-.671a2 2 0 0 1-1.134-3.398l4.288-4.29A2 2 0 0 1 9.295 8h7.291l.597-.596c3.334-3.334 7.352-3.478 8.926-3.384a2 2 0 0 1 1.875 1.875c.091 1.569-.053 5.588-3.387 8.922zM14.586 10H9.295L5 14.293l4.644.647zM22 17.414l-4.941 4.941.65 4.645L22 22.705z"/>
</svg>
