<svg xmlns="http://www.w3.org/2000/svg" fill="none" viewBox="0 0 32 32">
  <path fill="#000" d="M29.415 12 12 29.414a2 2 0 0 1-2.829 0l-6.586-6.585a2 2 0 0 1 0-2.83l3.646-3.645a.5.5 0 0 1 .708 0l4.354 4.353a1 1 0 0 0 1.463-.053 1.023 1.023 0 0 0-.075-1.387L8.352 14.94a.5.5 0 0 1 0-.707l1.875-1.875a.5.5 0 0 1 .708 0l4.354 4.354a1 1 0 0 0 1.464-.054 1.023 1.023 0 0 0-.076-1.386l-4.323-4.332a.5.5 0 0 1 0-.707l1.875-1.875a.5.5 0 0 1 .706 0l4.354 4.354a1 1 0 0 0 1.465-.054 1.02 1.02 0 0 0-.077-1.386L16.354 6.94a.5.5 0 0 1 0-.707L20 2.586a2 2 0 0 1 2.829 0l6.586 6.585a2 2 0 0 1 0 2.829"/>
</svg>
