<svg xmlns="http://www.w3.org/2000/svg" fill="none" viewBox="0 0 32 32">
  <path fill="#000" d="m29.929 16.625-4-10a1 1 0 0 0-1.145-.605L17 7.75V5a1 1 0 0 0-2 0v3.197l-8.218 1.827a1 1 0 0 0-.71.601v.008l-4 9.992A1 1 0 0 0 2 21c0 2.914 3.067 4 5 4s5-1.086 5-4a1 1 0 0 0-.071-.375l-3.564-8.904L15 10.25V26h-2a1 1 0 0 0 0 2h6a1 1 0 0 0 0-2h-2V9.803l6.375-1.416-3.304 8.238A1 1 0 0 0 20 17c0 2.914 3.067 4 5 4s5-1.086 5-4a1 1 0 0 0-.071-.375M7 23c-.941 0-2.845-.451-2.991-1.83L7 13.692l2.991 7.478C9.845 22.549 7.941 23 7 23m18-4c-.941 0-2.845-.451-2.991-1.83L25 9.692l2.991 7.478C27.845 18.549 25.941 19 25 19"/>
</svg>
