<svg xmlns="http://www.w3.org/2000/svg" fill="none" viewBox="0 0 32 32">
  <path fill="#000" d="M16 16a10.2 10.2 0 0 1 3.211.535C18.945 19.359 17.166 22 14 22c-1.975 0-3.008-1.356-3.008-2.698 0-.823.375-1.593 1.07-2.168C12.953 16.392 14.316 16 16 16M28 6v20a2 2 0 0 1-2 2H6a2 2 0 0 1-2-2V6a2 2 0 0 1 2-2h20a2 2 0 0 1 2 2m-2.264 12.324a15 15 0 0 0-4.51-3.152c-.112-1.793-.718-3.442-1.736-4.693C18.173 8.858 16.274 8 14 8c-4.445 0-7.665 4.22-7.8 4.4a1 1 0 0 0 1.599 1.202C7.826 13.566 10.564 10 14 10c1.675 0 3 .585 3.938 1.74a5.94 5.94 0 0 1 1.184 2.675A12 12 0 0 0 16 14c-2.159 0-3.964.553-5.217 1.598-1.158.96-1.79 2.277-1.79 3.704C8.992 21.58 10.75 24 14 24a6.75 6.75 0 0 0 5.441-2.654 8.75 8.75 0 0 0 1.684-3.985 13.3 13.3 0 0 1 3.141 2.315 1 1 0 1 0 1.473-1.352z"/>
</svg>
