<svg xmlns="http://www.w3.org/2000/svg" fill="none" viewBox="0 0 32 32">
  <path fill="#000" d="M30.741 19.329c-.165-.183-3.01-3.278-7.625-5.07-.215-2.303-1.057-4.396-2.426-5.99C18.86 6.125 16.198 5 13 5 6.56 5 2.361 10.773 2.186 11.019a1 1 0 0 0 1.625 1.163c.04-.05 3.79-5.182 9.19-5.182 2.595 0 4.732.889 6.175 2.571.928 1.08 1.555 2.462 1.834 4A17.6 17.6 0 0 0 16.575 13c-3.257 0-5.991.851-7.907 2.461C6.973 16.886 6 18.875 6 20.906a5.95 5.95 0 0 0 1.734 4.257C8.94 26.364 10.616 27 12.575 27c6.476 0 10.148-5.266 10.561-10.552a20.2 20.2 0 0 1 6.125 4.223 1 1 0 1 0 1.483-1.342zm-11.807 2.705C17.83 23.386 15.833 25 12.575 25 9.415 25 8 22.944 8 20.906 8 18.061 10.684 15 16.575 15c1.56.005 3.11.244 4.598.71-.057 2.345-.865 4.637-2.24 6.324z"/>
</svg>
