<svg xmlns="http://www.w3.org/2000/svg" fill="none" viewBox="0 0 32 32">
  <path fill="#000" d="M12 13a1 1 0 0 1 1-1h8a1 1 0 0 1 0 2h-8a1 1 0 0 1-1-1m1 5h8a1 1 0 0 0 0-2h-8a1 1 0 0 0 0 2m16 6a4 4 0 0 1-4 4H11a4 4 0 0 1-4-4V8a2 2 0 1 0-4 0c0 .717.604 1.203.61 1.207A1 1 0 0 1 2.401 10.8C2.256 10.693 1 9.7 1 8a4 4 0 0 1 4-4h17a4 4 0 0 1 4 4v13h1a1 1 0 0 1 .6.2c.15.108 1.4 1.099 1.4 2.8m-16.968-2.315A1.01 1.01 0 0 1 13 21h11V8a2 2 0 0 0-2-2H8.461c.354.607.54 1.297.539 2v16a2 2 0 0 0 4 0c0-.718-.604-1.203-.61-1.207a.98.98 0 0 1-.357-1.108zM27 24a1.57 1.57 0 0 0-.404-1h-11.75q.151.488.152 1a4 4 0 0 1-.537 2H25a2 2 0 0 0 2-2"/>
</svg>
