<svg xmlns="http://www.w3.org/2000/svg" fill="none" viewBox="0 0 32 32">
  <path fill="#000" d="M19 5a1 1 0 0 1-1 1h-4a1 1 0 1 1 0-2h4a1 1 0 0 1 1 1m-1 21h-4a1 1 0 0 0 0 2h4a1 1 0 0 0 0-2m8-22h-3a1 1 0 1 0 0 2h3v3a1 1 0 0 0 2 0V6a2 2 0 0 0-2-2m1 9a1 1 0 0 0-1 1v4a1 1 0 0 0 2 0v-4a1 1 0 0 0-1-1m0 9a1 1 0 0 0-1 1v3h-3a1 1 0 0 0 0 2h3a2 2 0 0 0 2-2v-3a1 1 0 0 0-1-1M5 19a1 1 0 0 0 1-1v-4a1 1 0 1 0-2 0v4a1 1 0 0 0 1 1m4 7H6v-3a1 1 0 1 0-2 0v3a2 2 0 0 0 2 2h3a1 1 0 0 0 0-2M9 4H6a2 2 0 0 0-2 2v3a1 1 0 0 0 2 0V6h3a1 1 0 0 0 0-2"/>
</svg>
