<svg xmlns="http://www.w3.org/2000/svg" fill="none" viewBox="0 0 32 32">
  <path fill="#000" d="M8 27a1 1 0 0 1-1 1H6a2 2 0 0 1-2-2v-1a1 1 0 1 1 2 0v1h1a1 1 0 0 1 1 1m6-1h-2a1 1 0 0 0 0 2h2a1 1 0 0 0 0-2m-9-5a1 1 0 0 0 1-1v-2a1 1 0 1 0-2 0v2a1 1 0 0 0 1 1m16 3a1 1 0 0 0-1 1v1h-1a1 1 0 0 0 0 2h1a2 2 0 0 0 2-2v-1a1 1 0 0 0-1-1m0-10a1 1 0 0 0 1-1v-1a2 2 0 0 0-2-2h-1a1 1 0 0 0 0 2h1v1a1 1 0 0 0 1 1M7 10H6a2 2 0 0 0-2 2v1a1 1 0 1 0 2 0v-1h1a1 1 0 0 0 0-2m19-6H12a2 2 0 0 0-2 2v5a1 1 0 0 0 1 1h3a1 1 0 0 0 0-2h-2V6h14v14h-4v-2a1 1 0 0 0-2 0v3a1 1 0 0 0 1 1h5a2 2 0 0 0 2-2V6a2 2 0 0 0-2-2"/>
</svg>
