<svg xmlns="http://www.w3.org/2000/svg" fill="none" viewBox="0 0 32 32">
  <path fill="#000" d="M19 5a1 1 0 0 1-1 1h-4a1 1 0 1 1 0-2h4a1 1 0 0 1 1 1m-1 21h-4a1 1 0 0 0 0 2h4a1 1 0 0 0 0-2m8-20v3a1 1 0 0 0 2 0V6a2 2 0 0 0-2-2h-3a1 1 0 1 0 0 2zm1 7a1 1 0 0 0-1 1v4a1 1 0 0 0 2 0v-4a1 1 0 0 0-1-1M5 19a1 1 0 0 0 1-1v-4a1 1 0 1 0-2 0v4a1 1 0 0 0 1 1m4 7H6v-3a1 1 0 1 0-2 0v3a2 2 0 0 0 2 2h3a1 1 0 0 0 0-2M9 4H6a2 2 0 0 0-2 2v3a1 1 0 0 0 2 0V6h3a1 1 0 0 0 0-2m21 22h-2v-2a1 1 0 0 0-2 0v2h-2a1 1 0 0 0 0 2h2v2a1 1 0 0 0 2 0v-2h2a1 1 0 0 0 0-2"/>
</svg>
