<svg xmlns="http://www.w3.org/2000/svg" fill="none" viewBox="0 0 32 32">
  <path fill="#000" d="m29.707 13.294-10-10A1 1 0 0 0 18 4v5.044c-3.243.277-6.824 1.865-9.77 4.364-3.548 3.01-5.756 6.888-6.22 10.92a1.5 1.5 0 0 0 2.585 1.198c1.375-1.463 6.267-6.092 13.405-6.5V24a1 1 0 0 0 1.707.706l10-10a1 1 0 0 0 0-1.412M20 21.586V18a1 1 0 0 0-1-1c-3.51 0-6.929.916-10.161 2.725a24.5 24.5 0 0 0-4.572 3.315c.725-2.98 2.553-5.814 5.257-8.107C12.426 12.47 15.969 11 19 11a1 1 0 0 0 1-1V6.415L27.586 14z"/>
</svg>
