<svg xmlns="http://www.w3.org/2000/svg" fill="none" viewBox="0 0 32 32">
  <path fill="#000" d="M16.294 18.044 16 19l-.294-.956a1 1 0 0 1 .588 0"/>
  <path fill="#000" fill-rule="evenodd" d="M16.952 9.014a1 1 0 0 1 .895.3C19.578 11.151 22 13.947 22 17.676c0 1.658-.618 3.259-1.735 4.45a6 6 0 0 1-1.041.884 3.4 3.4 0 0 1-.646.43c-.736.376-1.664.56-2.578.56s-1.842-.184-2.578-.56a3.4 3.4 0 0 1-.646-.43 6 6 0 0 1-1.04-.885C10.617 20.935 10 19.334 10 17.675c0-1.855.87-3.737 1.818-5.257a1 1 0 0 1 1.427-.287l1.387.982 1.574-3.521a1 1 0 0 1 .746-.578m1.038 12.412A3.77 3.77 0 0 1 16 22a3.77 3.77 0 0 1-1.99-.574l-.004-.004-.001-.002c.013-.058.056-.16.196-.312.184-.197.46-.397.79-.583A7.4 7.4 0 0 1 16 20.059l.103.04c.254.1.583.244.906.426.33.186.606.386.79.583.14.151.183.254.196.312l-.001.002zm1.427-1.503A4.6 4.6 0 0 0 20 17.676c0-2.308-1.211-4.234-2.595-5.865l-1.445 3.23a1 1 0 0 1-1.49.409l-1.486-1.052c-.596 1.13-.984 2.266-.984 3.278 0 .803.207 1.579.583 2.247q.075-.092.153-.176c.38-.408.852-.727 1.273-.964a9.4 9.4 0 0 1 1.648-.723l.033-.01.01-.004.004-.001h.002L16 19l.294-.956h.002l.004.002.01.003.033.01a8 8 0 0 1 .492.179c.308.121.729.303 1.156.545.42.237.894.556 1.273.964q.078.084.153.176" clip-rule="evenodd"/>
  <path fill="#000" fill-rule="evenodd" d="M4.585 5.587A2 2 0 0 1 6 5h20a2 2 0 0 1 2 2.002v7.352c0 11.204-9.495 14.914-11.359 15.534a1.9 1.9 0 0 1-1.282 0C13.495 29.268 4 25.558 4 14.353v-7.35c0-.53.21-1.04.585-1.415zM26 7H6.001L6 7.002v7.352c0 9.802 8.275 13.067 10 13.64 1.725-.573 10-3.838 10-13.64z" clip-rule="evenodd"/>
</svg>
