<svg xmlns="http://www.w3.org/2000/svg" fill="none" viewBox="0 0 32 32">
  <path fill="#000" d="M19.417 19.923A4.6 4.6 0 0 0 20 17.676c0-2.308-1.211-4.234-2.595-5.865l-1.445 3.23a1 1 0 0 1-1.49.409l-1.486-1.052c-.596 1.13-.984 2.266-.984 3.278 0 .804.207 1.579.583 2.247q.075-.092.153-.176c.38-.408.852-.727 1.273-.964a9.4 9.4 0 0 1 1.648-.723l.033-.01.01-.004.004-.001h.002a1 1 0 0 1 .588 0h.002l.004.001.01.003.033.01.111.038a9.4 9.4 0 0 1 1.537.686c.42.237.894.556 1.273.964q.078.084.153.176"/>
  <path fill="#000" fill-rule="evenodd" d="M6 5a2 2 0 0 0-2 2.002v7.352c0 11.204 9.495 14.914 11.359 15.534.414.15.868.15 1.282 0C18.505 29.268 28 25.558 28 14.353v-7.35A2.003 2.003 0 0 0 26 5zm11.847 4.314a1 1 0 0 0-1.64.278l-1.575 3.521-1.387-.982a1 1 0 0 0-1.427.287C10.871 13.938 10 15.82 10 17.676c0 1.658.618 3.259 1.736 4.45q.476.505 1.04.884c.203.173.426.316.646.43.736.377 1.664.56 2.578.56s1.842-.183 2.578-.56a3.4 3.4 0 0 0 .646-.43 6 6 0 0 0 1.04-.885c1.118-1.19 1.736-2.791 1.736-4.45 0-3.728-2.422-6.524-4.153-8.36z" clip-rule="evenodd"/>
</svg>
