<svg xmlns="http://www.w3.org/2000/svg" fill="none" viewBox="0 0 32 32">
  <path fill="#000" d="M25.125 6h-2.706l-1.712-1.707A1 1 0 0 0 20 4h-8a1 1 0 0 0-.707.293L9.58 6H6.875A1.875 1.875 0 0 0 5 7.875v19.25A1.875 1.875 0 0 0 6.875 29H14.5a.5.5 0 0 0 .5-.5V14.034a1.02 1.02 0 0 1 .934-1.032 1 1 0 0 1 1.066 1V28.5a.5.5 0 0 0 .5.5h7.625A1.875 1.875 0 0 0 27 27.125V7.875A1.875 1.875 0 0 0 25.125 6m-14.307 8.385A.5.5 0 0 1 10 14V8.414l1.905-1.905 2.934 4.401zM22 14a.5.5 0 0 1-.814.39l-4.025-3.478 2.934-4.4L22 8.413z"/>
</svg>
