<svg xmlns="http://www.w3.org/2000/svg" fill="none" viewBox="0 0 32 32">
  <path fill="#000" d="M29.921 8.762a1.64 1.64 0 0 0-1.433-1.137l-4.653-.394L22.02 3a1.655 1.655 0 0 0-3.039 0l-1.815 4.232-4.653.393a1.641 1.641 0 0 0-.937 2.882l3.52 3-1.053 4.467a1.64 1.64 0 0 0 .625 1.697 1.66 1.66 0 0 0 1.828.088l4-2.375 4 2.375a1.656 1.656 0 0 0 2.398-.842c.11-.302.13-.63.056-.943l-1.054-4.467 3.52-3a1.63 1.63 0 0 0 .505-1.745m-5.482 3.375a1.63 1.63 0 0 0-.533 1.625l.914 3.875-3.472-2.063a1.66 1.66 0 0 0-1.695 0l-3.473 2.05.914-3.874a1.63 1.63 0 0 0-.531-1.625L13.53 9.547l4.011-.34a1.65 1.65 0 0 0 1.375-.992L20.5 4.53l1.58 3.685a1.65 1.65 0 0 0 1.375.992l4.011.34zm-13.731 3.57-7 7a1 1 0 1 1-1.415-1.415l7-7a1 1 0 0 1 1.415 1.415m2 7-7 7a1.001 1.001 0 0 1-1.415-1.415l7-7a1 1 0 0 1 1.415 1.415m9-1.415a1 1 0 0 1 0 1.415l-7 7a1 1 0 0 1-1.415-1.415l7-7a1 1 0 0 1 1.415 0"/>
</svg>
