<svg xmlns="http://www.w3.org/2000/svg" fill="none" viewBox="0 0 32 32">
  <path fill="#000" d="m29.424 10.509-3.519 3 1.054 4.466a1.64 1.64 0 0 1-.625 1.698 1.66 1.66 0 0 1-1.829.087l-4-2.375-4 2.375a1.66 1.66 0 0 1-1.829-.087 1.64 1.64 0 0 1-.625-1.698l1.054-4.466-3.52-3a1.64 1.64 0 0 1 .928-2.884l4.653-.394 1.815-4.23a1.656 1.656 0 0 1 3.04 0l1.814 4.233 4.653.391a1.64 1.64 0 0 1 .936 2.883zm-18.716 3.784a1 1 0 0 0-1.415 0l-7 7a1 1 0 1 0 1.415 1.415l7-7a1 1 0 0 0 0-1.415m2 7a1 1 0 0 0-1.415 0l-7 7a1 1 0 1 0 1.415 1.415l7-7a1 1 0 0 0 0-1.415m7.586 0-7 7a1 1 0 0 0 1.415 1.415l7-7a1 1 0 0 0-1.414-1.415z"/>
</svg>
