<svg xmlns="http://www.w3.org/2000/svg" fill="none" viewBox="0 0 32 32">
  <path fill="#000" d="M3.1 3a2 2 0 0 1 1.924 1.45L6.039 8H11a1 1 0 1 1 0 2H6.61l2.94 10.28a.99.99 0 0 0 .957.72h12.986a.99.99 0 0 0 .957-.72 1 1 0 1 1 1.925.54 2.99 2.99 0 0 1-2.89 2.18h-12.97a2.99 2.99 0 0 1-2.89-2.177L3.101 5H1a1 1 0 1 1 0-2zM13 27a2 2 0 1 1-4 0 2 2 0 0 1 4 0m12 0a2 2 0 1 1-4 0 2 2 0 0 1 4 0"/>
  <path fill="#000" d="M22 4a6 6 0 1 0 4.286 10.2 1 1 0 1 1 1.428 1.399 8 8 0 1 1-.013-11.211L29 5.62V4a1 1 0 1 1 2 0v3.5A1.5 1.5 0 0 1 29.5 9H26a1 1 0 1 1 0-2h1.548l-1.25-1.186-.012-.013A5.98 5.98 0 0 0 22 4"/>
  <path fill="#000" d="M23 7a1 1 0 1 0-2 0v2.717a1.5 1.5 0 0 0 .728 1.286l2.257 1.354a1 1 0 0 0 1.03-1.714L23 9.433z"/>
</svg>
