<svg xmlns="http://www.w3.org/2000/svg" fill="none" viewBox="0 0 32 32">
  <path fill="#000" d="M26.503 8a.524.524 0 0 0-.514.556 9 9 0 1 1-17.979 0A.524.524 0 0 0 7.498 8H6.04L5.026 4.45A2.01 2.01 0 0 0 3.103 3H1a1 1 0 0 0 0 2h2.103l4.522 15.824A3.01 3.01 0 0 0 10.509 23h13.014a2.99 2.99 0 0 0 2.867-2.117l3.566-11.59A1 1 0 0 0 29 8zm-13.84 20.111a2 2 0 1 0-3.325-2.222 2 2 0 0 0 3.325 2.222m9.226-2.774a2 2 0 1 1 2.222 3.325 2 2 0 0 1-2.222-3.325"/>
  <path fill="#000" fill-rule="evenodd" d="M10 9a7 7 0 1 1 14 0 7 7 0 0 1-14 0m8-1V6a1 1 0 1 0-2 0v2h-2a1 1 0 1 0 0 2h2v2a1 1 0 1 0 2 0v-2h2a1 1 0 1 0 0-2z" clip-rule="evenodd"/>
</svg>
