<svg xmlns="http://www.w3.org/2000/svg" fill="none" viewBox="0 0 32 32">
  <path fill="#000" d="M3.1 3H1a1 1 0 0 0 0 2h2.101l4.524 15.823A2.99 2.99 0 0 0 10.515 23h12.97a2.99 2.99 0 0 0 2.886-2.165l3.584-11.538a1 1 0 1 0-1.91-.594l-3.588 11.55-.002.01-.005.017a.99.99 0 0 1-.957.72H10.507a.99.99 0 0 1-.957-.72L5.024 4.45A2 2 0 0 0 3.1 3m19.902 26a2 2 0 1 0-.004 0zm-12 0a2 2 0 1 0-.004 0z"/>
  <path fill="#000" d="M16 10h-3a1 1 0 1 1 0-2h3V5a1 1 0 1 1 2 0v3h3a1 1 0 1 1 0 2h-3v3a1 1 0 1 1-2 0z"/>
</svg>
