<svg xmlns="http://www.w3.org/2000/svg" fill="none" viewBox="0 0 32 32">
  <path fill="#000" d="M25.937 19.194c.42-.18.907.215.772.651l-.319 1.038A2.99 2.99 0 0 1 23.523 23H10.509a3.01 3.01 0 0 1-2.884-2.176L3.103 5H1a1 1 0 0 1 0-2h2.103a2.01 2.01 0 0 1 1.923 1.45L6.04 8h5.548c.317 0 .553.29.509.603Q12.001 9.288 12 10c0 5.523 4.477 10 10 10a10 10 0 0 0 3.937-.806M13 27a2 2 0 1 1-4 0 2 2 0 0 1 4 0m12 0a2 2 0 1 1-4 0 2 2 0 0 1 4 0"/>
  <path fill="#000" d="M22 4a6 6 0 1 0 4.286 10.2 1 1 0 1 1 1.428 1.399 8 8 0 1 1-.013-11.211l.255.242 1.343-1.343A1 1 0 0 1 31 4v3.5A1.5 1.5 0 0 1 29.5 9H26a1 1 0 0 1-.701-1.713l1.242-1.243-.243-.23-.012-.013A5.98 5.98 0 0 0 22 4"/>
  <path fill="#000" d="M22 6a1 1 0 0 1 1 1v2.434l2.015 1.209a1 1 0 0 1-1.03 1.714l-2.257-1.354A1.5 1.5 0 0 1 21 9.717V7a1 1 0 0 1 1-1"/>
</svg>
