<svg xmlns="http://www.w3.org/2000/svg" fill="none" viewBox="0 0 32 32">
  <path fill="#000" d="M17 14.5a1.5 1.5 0 1 1 3 0 1.5 1.5 0 0 1-3 0m10.975-3.828A10.01 10.01 0 0 1 18 20h-4a1.5 1.5 0 1 0 0 3h7a1 1 0 0 1 0 2h-6v2h4a1 1 0 0 1 0 2h-7a10 10 0 0 1 0-20h14.5a1.5 1.5 0 0 0 0-3H16a3 3 0 0 1-3-3 1 1 0 0 1 2 0 1 1 0 0 0 1 1h10.5a3.5 3.5 0 0 1 1.475 6.672M6.35 24.663l4.152-2.967V21.5q0-.476.125-.935l-6.502-2.956a7.97 7.97 0 0 0 2.23 7.052H6.35zm4.875-1.026-3.21 2.297A7.95 7.95 0 0 0 12 27h1v-2.146a3.5 3.5 0 0 1-1.77-1.218h-.005zM13 18.146V11h-1a8.01 8.01 0 0 0-7.277 4.685l6.983 3.174A3.5 3.5 0 0 1 13 18.146M25.938 11H15v7h3a8.01 8.01 0 0 0 7.938-7"/>
</svg>
