<svg xmlns="http://www.w3.org/2000/svg" fill="none" viewBox="0 0 32 32">
  <path fill="#000" d="M17 14.5a1.5 1.5 0 1 1 3 0 1.5 1.5 0 0 1-3 0m13-7a3.5 3.5 0 0 1-2.025 3.172A10.01 10.01 0 0 1 18 20h-4a1.5 1.5 0 1 0 0 3h7a1 1 0 0 1 0 2h-6v2h4a1 1 0 0 1 0 2h-7a10 10 0 0 1 0-20h14.5a1.5 1.5 0 0 0 0-3H16a3 3 0 0 1-3-3 1 1 0 0 1 2 0 1 1 0 0 0 1 1h10.5A3.5 3.5 0 0 1 30 7.5M10.715 22.775a1 1 0 0 0-1.395-.232L7.4 23.918a1 1 0 0 0 1.162 1.625l1.92-1.375a1 1 0 0 0 .233-1.393m-.188-4.452-4.833-2.198a1 1 0 1 0-.828 1.82L9.7 20.144a1 1 0 0 0 1.324-.5 1 1 0 0 0-.496-1.321zM25.938 11H15v7h3a8.01 8.01 0 0 0 7.938-7"/>
</svg>
