<svg xmlns="http://www.w3.org/2000/svg" fill="none" viewBox="0 0 32 32">
  <path fill="#000" d="M29.707 22.293a1 1 0 0 1 0 1.415l-3 3a1 1 0 0 1-1.415-1.415L26.587 24h-5.071a2 2 0 0 1-1.625-.837L10.485 10H4a1 1 0 0 1 0-2h6.485a2 2 0 0 1 1.625.838L21.515 22h5.071l-1.293-1.292a1.001 1.001 0 0 1 1.415-1.415zm-11.832-8.918a1 1 0 0 0 1.395-.232l2.25-3.14h5.071l-1.299 1.29a1 1 0 1 0 1.415 1.415l3-3a1 1 0 0 0 0-1.415l-3-3a1 1 0 1 0-1.415 1.415L26.587 8h-5.071a2 2 0 0 0-1.625.838l-2.246 3.14a1 1 0 0 0 .231 1.397zm-3.75 5.25a1 1 0 0 0-1.395.233L10.485 22H4a1 1 0 1 0 0 2h6.485a2 2 0 0 0 1.625-.837l2.244-3.14a1 1 0 0 0-.229-1.398"/>
</svg>
