<svg xmlns="http://www.w3.org/2000/svg" fill="none" viewBox="0 0 32 32">
  <path fill="#000" d="M29.707 22.293a1 1 0 0 1 0 1.415l-3 3A1 1 0 0 1 25 26v-2a9.02 9.02 0 0 1-7.206-3.767l-5.215-7.3A7.01 7.01 0 0 0 6.882 10H4a1 1 0 0 1 0-2h2.883a9.02 9.02 0 0 1 7.323 3.769l5.215 7.3A7.01 7.01 0 0 0 25 22v-2a1 1 0 0 1 1.707-.707zm-11.832-8.918a1 1 0 0 0 1.395-.232l.15-.21A7.01 7.01 0 0 1 25 10v2a1 1 0 0 0 1.707.708l3-3a1 1 0 0 0 0-1.415l-3-3A1 1 0 0 0 25 6v2a9.02 9.02 0 0 0-7.206 3.768l-.15.208a1 1 0 0 0 .231 1.4zm-3.75 5.25a1 1 0 0 0-1.395.233l-.15.208A7.01 7.01 0 0 1 6.883 22H4a1 1 0 1 0 0 2h2.883a9.02 9.02 0 0 0 7.323-3.769l.15-.208a1 1 0 0 0-.231-1.398"/>
</svg>
