<svg xmlns="http://www.w3.org/2000/svg" fill="none" viewBox="0 0 32 32">
  <path fill="#000" d="M29 21H7.982q.5-.985 1-2.014c1.868.206 4.078-1.1 6.593-3.902q.112.312.25.637c.813 1.907 1.863 2.993 3.125 3.232 1.292.25 2.572-.404 3.885-1.978C23.687 17.984 25.437 19 29 19a1 1 0 0 0 0-2c-3.83 0-4.944-1.324-5-2.027a1 1 0 0 0-1.94-.318c-1.52 2.281-2.422 2.393-2.75 2.333-1.04-.197-2.01-2.617-2.335-4.19a1 1 0 0 0-1.85-.278c-2.475 3.078-4.135 4.125-5.177 4.393 1.062-2.36 1.854-4.432 2.362-6.175.852-2.93.915-4.98.188-6.263-.375-.67-1.16-1.469-2.738-1.475h-.032c-2 .014-3.575 1.912-4.327 5.213-.449 1.963-.523 4.148-.204 6 .319 1.85.983 3.188 1.944 3.986-.465.966-.941 1.91-1.404 2.803H3a1 1 0 0 0 0 2h1.676c-1.415 2.626-2.515 4.456-2.533 4.486a1 1 0 1 0 1.714 1.03c.019-.033 1.409-2.35 3.088-5.515H29a1 1 0 0 0 0-2zm-5-6v-.026z"/>
</svg>
