<svg xmlns="http://www.w3.org/2000/svg" fill="none" viewBox="0 0 32 32">
  <path fill="#000" d="M15 2V1a1 1 0 0 1 2 0v1a1 1 0 0 1-2 0m10 4a1 1 0 0 0 .707-.293l1-1a1 1 0 0 0-1.415-1.414l-1 1A1 1 0 0 0 25 6M6.293 5.707a1 1 0 1 0 1.414-1.414l-1-1a1 1 0 1 0-1.414 1.414zm10.875 3.307a1 1 0 1 0-.33 1.972C19.207 11.385 21 13.54 21 16a1 1 0 0 0 2 0c0-3.425-2.509-6.429-5.835-6.986zM29 22v3a2 2 0 0 1-2 2H5a2 2 0 0 1-2-2v-3a2 2 0 0 1 2-2v-4A11 11 0 0 1 16.084 5C22.102 5.045 27 10.036 27 16.125V20a2 2 0 0 1 2 2M7 20h18v-3.875c0-5-4.006-9.089-8.931-9.125H16a9 9 0 0 0-9 9zm20 5v-3H5v3z"/>
</svg>
