<svg xmlns="http://www.w3.org/2000/svg" fill="none" viewBox="0 0 32 32">
  <path fill="#000" d="M16 2C8.831 2 3 7.607 3 14.5c0 4.262 2.284 8.25 6 10.535V27a2 2 0 0 0 2 2h1a.5.5 0 0 0 .5-.5v-3.466a1.02 1.02 0 0 1 .934-1.031 1 1 0 0 1 1.066 1v3.5a.5.5 0 0 0 .5.5h2a.5.5 0 0 0 .5-.5v-3.47a1.02 1.02 0 0 1 .934-1.03 1 1 0 0 1 1.066 1v3.5a.5.5 0 0 0 .5.5h1a2 2 0 0 0 2-2v-1.968c3.716-2.285 6-6.273 6-10.535C29 7.607 23.169 2 16 2m-4.5 17a2.5 2.5 0 1 1 0-5 2.5 2.5 0 0 1 0 5m9 0a2.5 2.5 0 1 1 0-5 2.5 2.5 0 0 1 0 5"/>
</svg>
