<svg xmlns="http://www.w3.org/2000/svg" fill="none" viewBox="0 0 32 32">
  <path fill="#000" d="M8 13.125V5a1 1 0 0 0-2 0v8.125a4 4 0 0 0 0 7.75V27a1 1 0 1 0 2 0v-6.125a4 4 0 0 0 0-7.75M7 19a2 2 0 1 1 0-4 2 2 0 0 1 0 4M17 7.125V5a1 1 0 1 0-2 0v2.125a4 4 0 0 0 0 7.75V27a1 1 0 0 0 2 0V14.875a4 4 0 0 0 0-7.75M16 13a2 2 0 1 1 0-4 2 2 0 0 1 0 4m13 8a4.01 4.01 0 0 0-3-3.875V5a1 1 0 1 0-2 0v12.125a4 4 0 0 0 0 7.75V27a1 1 0 0 0 2 0v-2.125A4.01 4.01 0 0 0 29 21m-4 2a2 2 0 1 1 0-4 2 2 0 0 1 0 4"/>
</svg>
