<svg xmlns="http://www.w3.org/2000/svg" fill="none" viewBox="0 0 32 32">
  <path fill="#000" d="M16 3a13 13 0 1 0 13 13A13.013 13.013 0 0 0 16 3m-6 14.5a1.5 1.5 0 1 1 3 0 1.5 1.5 0 0 1-3 0m9.832 6.054a1 1 0 0 1-1.386.279C17.634 23.293 17 23 16 23s-1.634.293-2.446.832a1 1 0 0 1-1.108-1.665C13.5 21.468 14.508 21 16 21s2.5.466 3.554 1.168a1 1 0 0 1 .279 1.386zM20.5 19a1.5 1.5 0 1 1 0-3 1.5 1.5 0 0 1 0 3m2.055-7.168-6 4a1 1 0 0 1-1.11 0l-6-4a1 1 0 0 1 1.11-1.665L16 13.8l5.445-3.625a1.002 1.002 0 0 1 1.11 1.665z"/>
</svg>
