<svg xmlns="http://www.w3.org/2000/svg" fill="none" viewBox="0 0 32 32">
  <path fill="#000" d="M16 3a13 13 0 1 0 13 13A13.013 13.013 0 0 0 16 3m4.5 9a1.5 1.5 0 1 1 0 3 1.5 1.5 0 0 1 0-3m-9 0a1.5 1.5 0 1 1 0 3 1.5 1.5 0 0 1 0-3m11.207 9.707a1 1 0 0 1-1.415 0L20 20.415l-1.293 1.293a1 1 0 0 1-1.415 0L16 20.415l-1.293 1.293a1 1 0 0 1-1.415 0L12 20.415l-1.293 1.293a1 1 0 1 1-1.414-1.415l2-2a1 1 0 0 1 1.415 0L14 19.587l1.293-1.293a1 1 0 0 1 1.415 0L18 19.585l1.293-1.293a1 1 0 0 1 1.415 0l2 2a1 1 0 0 1 0 1.415z"/>
</svg>
