<svg xmlns="http://www.w3.org/2000/svg" fill="none" viewBox="0 0 32 32">
  <path fill="#000" d="M16 3a13 13 0 1 0 13 13A13.016 13.016 0 0 0 16 3m-2.293 12.293a1 1 0 1 1-1.415 1.415L11 15.413l-1.292 1.293a1 1 0 0 1-1.415-1.415L9.586 14l-1.293-1.293a1 1 0 1 1 1.415-1.415L11 12.587l1.293-1.293a1 1 0 1 1 1.415 1.415L12.413 14l1.293 1.293zM16 24a1.5 1.5 0 1 1 0-3 1.5 1.5 0 0 1 0 3m7.707-8.707a1 1 0 0 1-1.415 1.415L21 15.413l-1.293 1.293a1 1 0 1 1-1.415-1.415L19.587 14l-1.293-1.293a1 1 0 1 1 1.415-1.415L21 12.587l1.293-1.293a1 1 0 0 1 1.415 1.415L22.413 14l1.293 1.293z"/>
</svg>
