<svg xmlns="http://www.w3.org/2000/svg" fill="none" viewBox="0 0 32 32">
  <path fill="#000" d="M16 3a13 13 0 1 0 13 13A13.013 13.013 0 0 0 16 3m0 24a11 11 0 1 1 11-11 11.01 11.01 0 0 1-11 11m7.707-11.707a1 1 0 0 1-1.415 1.415L21 15.413l-1.293 1.293a1 1 0 1 1-1.415-1.415L19.587 14l-1.293-1.293a1 1 0 1 1 1.415-1.415L21 12.587l1.293-1.293a1 1 0 0 1 1.415 1.415L22.413 14l1.293 1.293zm-10-2.585L12.415 14l1.293 1.293a1 1 0 1 1-1.415 1.415L11 15.413l-1.292 1.293a1 1 0 0 1-1.415-1.415L9.586 14l-1.293-1.293a1 1 0 1 1 1.415-1.415L11 12.587l1.293-1.293a1 1 0 1 1 1.415 1.415zM17.5 22.5a1.5 1.5 0 1 1-3 0 1.5 1.5 0 0 1 3 0"/>
</svg>
