<svg xmlns="http://www.w3.org/2000/svg" fill="none" viewBox="0 0 32 32">
  <path fill="#000" d="M11.5 19a1.5 1.5 0 1 1 0-3 1.5 1.5 0 0 1 0 3m9-3a1.5 1.5 0 1 0 0 3 1.5 1.5 0 0 0 0-3m8.5 0A13 13 0 1 1 16 3a13.014 13.014 0 0 1 13 13m-2 0a11 11 0 1 0-11 11 11.01 11.01 0 0 0 11-11m-5.555-5.832L16 13.797l-5.445-3.624a1.001 1.001 0 0 0-1.11 1.665l6 4a1 1 0 0 0 1.11 0l6-4a1 1 0 1 0-1.11-1.665zm-1.891 12C18.5 21.465 17.493 21 16 21s-2.5.466-3.554 1.168a1 1 0 0 0 1.108 1.665C14.366 23.293 15 23 16 23s1.634.293 2.446.832a1 1 0 0 0 1.401-.268 1 1 0 0 0-.293-1.396"/>
</svg>
