<svg xmlns="http://www.w3.org/2000/svg" fill="none" viewBox="0 0 32 32">
  <path fill="#000" d="M13 26a1 1 0 0 1-1 1H6a1 1 0 0 1 0-2h6a1 1 0 0 1 1 1m-4-4a1 1 0 0 0-1-1H4a1 1 0 1 0 0 2h4a1 1 0 0 0 1-1m23 2v1a2 2 0 0 1-2 2H18.414a2 2 0 0 1-1.408-.579L3.597 13.427l-.01-.011a2 2 0 0 1 0-2.828l8-8.014.018-.018a1.99 1.99 0 0 1 2.794.034l1.026 1.035a2 2 0 0 1 .582 1.317c.142 2.86 2.125 4.789 5.164 5.034A2 2 0 0 1 23 11.962V15a4 4 0 0 0 4 4 5 5 0 0 1 5 5m-2 0a3 3 0 0 0-3-3 5.96 5.96 0 0 1-3.311-1H20a1 1 0 0 1 0-2h1.808a6 6 0 0 1-.723-2H19a1 1 0 0 1 0-2h2v-2.038c-1.929-.157-3.61-.875-4.86-2.075-1.299-1.25-2.035-2.926-2.125-4.853L12.984 4 5 12l13.402 12.987.012.01H30z"/>
</svg>
