<svg xmlns="http://www.w3.org/2000/svg" fill="none" viewBox="0 0 32 32">
  <path fill="#000" d="m28.581 16.139-7.591-2.53a3 3 0 0 1-1.79-1.625L16.299 5.2v-.012a2 2 0 0 0-2.518-1.063L4.316 7.561A2.01 2.01 0 0 0 3 9.441v14.56a2 2 0 0 0 2 2h25a2 2 0 0 0 2-2v-3.118a5 5 0 0 0-3.419-4.744M14.465 6l.889 2.079-2.695.981a1 1 0 1 0 .682 1.879l2.8-1.018.593 1.384-2.075.75A1 1 0 0 0 15 14a1 1 0 0 0 .341-.061l2.2-.8c.253.464.577.886.96 1.25l-1.842.67a1 1 0 1 0 .682 1.881l3.5-1.272 7.109 2.368A3 3 0 0 1 29.866 20H5V9.441zM5 24v-2h25v2z"/>
</svg>
