<svg xmlns="http://www.w3.org/2000/svg" fill="none" viewBox="0 0 32 32">
  <path fill="#000" d="m28.581 16.139-3.507-1.169a.5.5 0 0 0-.329 0l-5.404 1.965A1 1 0 0 1 19 17a1 1 0 0 1-.964-.735 1.02 1.02 0 0 1 .653-1.216l2.311-.84a.317.317 0 0 0-.008-.6 3 3 0 0 1-1.1-.656.5.5 0 0 0-.52-.114l-3.028 1.1a1 1 0 0 1-1.305-.674 1.02 1.02 0 0 1 .652-1.216l2.559-.933a.5.5 0 0 0 .289-.667l-.383-.895a.5.5 0 0 0-.631-.274l-3.187 1.159a1 1 0 0 1-1.305-.674 1.02 1.02 0 0 1 .652-1.216l3-1.092a.5.5 0 0 0 .289-.666L16.299 5.2v-.013a2 2 0 0 0-2.518-1.062L4.316 7.561A2.01 2.01 0 0 0 3 9.441V24a2 2 0 0 0 2 2h25a2 2 0 0 0 2-2v-3.117a5 5 0 0 0-3.419-4.744M30 24H5v-2h25z"/>
</svg>
