<svg xmlns="http://www.w3.org/2000/svg" fill="none" viewBox="0 0 32 32">
  <path fill="#000" d="M32 25.051A1.99 1.99 0 0 1 30 27H18.414a2 2 0 0 1-1.408-.579L3.597 13.428l-.01-.012a2 2 0 0 1 0-2.827l8-8.015.018-.018a1.99 1.99 0 0 1 2.794.034l1.026 1.035a2 2 0 0 1 .582 1.317c.142 2.854 2.114 4.783 5.15 5.033A2.017 2.017 0 0 1 23 11.963V13.5a.5.5 0 0 1-.5.5H19a1 1 0 0 0-1 1.066 1.023 1.023 0 0 0 1.031.934h3.5a.5.5 0 0 1 .5.444q.05.458.205.892a.5.5 0 0 1-.471.663H20a1 1 0 0 0-1 1.066 1.02 1.02 0 0 0 1.031.934H27a5 5 0 0 1 5 5.052M9 22a1 1 0 0 0-1-1H4a1 1 0 0 0 0 2h4a1 1 0 0 0 1-1m3 3H6a1 1 0 0 0 0 2h6a1 1 0 0 0 0-2"/>
</svg>
