<svg xmlns="http://www.w3.org/2000/svg" fill="none" viewBox="0 0 32 32">
  <path fill="#000" d="M16 3a13 13 0 1 0 13 13A13.013 13.013 0 0 0 16 3m5.296 14.902 2.368-.845a1 1 0 0 1 1.335.993 1 1 0 0 1-.663.892l-1.935.69.565 2.11a1 1 0 1 1-1.932.517l-.697-2.6L17 17.733v3.853l1.707 1.707a1 1 0 0 1-1.415 1.415L16 23.413l-1.293 1.293a1 1 0 0 1-1.415-1.415L15 21.587v-3.853l-3.338 1.926-.696 2.6a1 1 0 0 1-1.932-.518l.565-2.108-1.935-.69a1 1 0 0 1 .672-1.886l2.368.846L14 16l-3.296-1.902-2.368.845a1 1 0 1 1-.672-1.885l1.935-.69-.565-2.11a1 1 0 1 1 1.932-.517l.697 2.6L15 14.268v-3.854l-1.707-1.707a1 1 0 0 1 1.415-1.415L16 8.587l1.293-1.293a1 1 0 1 1 1.415 1.414L17 10.415v3.854l3.337-1.927.697-2.6a1 1 0 1 1 1.932.518l-.565 2.108 1.935.69a1 1 0 1 1-.672 1.886l-2.368-.845L18 16z"/>
</svg>
