<svg xmlns="http://www.w3.org/2000/svg" fill="none" viewBox="0 0 32 32">
  <path fill="#000" d="M27.971 18.761a1 1 0 0 1-.732 1.21l-3.08.75.807 3.014a1 1 0 0 1-.707 1.225A1 1 0 0 1 24 25a1 1 0 0 1-.965-.741l-.965-3.6L17 17.733v5.853l2.707 2.707a1 1 0 0 1-.324 1.631 1 1 0 0 1-1.09-.216L16 25.414l-2.293 2.294a1.002 1.002 0 0 1-1.631-.325 1 1 0 0 1 .216-1.09L15 23.586v-5.853l-5.069 2.926-.965 3.6a1 1 0 0 1-1.934-.518l.808-3.013-3.08-.75a1 1 0 0 1 .477-1.943l3.682.904L14 16l-5.08-2.932-3.681.903a1 1 0 1 1-.478-1.942l3.08-.75-.807-3.02a1 1 0 0 1 1.932-.518l.965 3.6L15 14.268V8.414l-2.707-2.706a1 1 0 1 1 1.415-1.415L16 6.586l2.293-2.293a1 1 0 1 1 1.415 1.415L17 8.414v5.854l5.069-2.927.965-3.6a1 1 0 1 1 1.932.518l-.807 3.014 3.08.75A1 1 0 0 1 27 14a1 1 0 0 1-.239-.029l-3.681-.903L18 16l5.08 2.933 3.681-.904a1 1 0 0 1 1.21.732"/>
</svg>
