<svg xmlns="http://www.w3.org/2000/svg" fill="none" viewBox="0 0 32 32">
  <path fill="#000" d="M16 3a13 13 0 1 0 13 13A13.013 13.013 0 0 0 16 3m9.565 18.427h-4.203l-1.157-1.595 1.579-4.597 1.875-.611 3.28 2.516a10.9 10.9 0 0 1-1.374 4.287m-20.5-4.287 3.274-2.515 1.875.611 1.579 4.598-1.155 1.593H6.434a10.9 10.9 0 0 1-1.376-4.287h.006zm1.25-6.33.689 2.325-1.915 1.461c.17-1.326.581-2.609 1.215-3.786zm7.31 8.19-1.432-4.169L16 12.214l3.808 2.617L18.375 19zm11.384-5.865.689-2.325a10.9 10.9 0 0 1 1.215 3.786zm-.775-4.422-1.189 4.01-1.884.61L17 10.474V8.527l3.636-2.5c1.37.64 2.594 1.555 3.597 2.687zm-5.975-3.48L16 6.787l-2.259-1.552a11 11 0 0 1 4.518 0zm-6.895.793L15 8.526v1.948l-4.16 2.86-1.884-.611-1.188-4.01a11.1 11.1 0 0 1 3.596-2.687m-3.47 17.401h2.546l.896 2.534a11 11 0 0 1-3.442-2.534m5.856 3.34-1.485-4.178L13.419 21h5.162l1.154 1.589-1.479 4.177a11 11 0 0 1-4.512 0h.006zm6.92-.806.896-2.534h2.547a11 11 0 0 1-3.45 2.534z"/>
</svg>
