<svg xmlns="http://www.w3.org/2000/svg" fill="none" viewBox="0 0 32 32">
  <path fill="#000" d="M16 3a13 13 0 1 0 13 13A13.013 13.013 0 0 0 16 3m1 4.923 3.099-2.132a11.05 11.05 0 0 1 4.522 3.375l-1 3.368c-.025 0-.051.012-.076.021l-2.853.926a1 1 0 0 0-.125.05L17 11.077V7.924zM11.905 5.79 15 7.922v3.157l-3.57 2.458a1 1 0 0 0-.125-.05l-2.852-.926q-.038-.013-.077-.021l-1-3.368a11.05 11.05 0 0 1 4.529-3.38zM10.28 21.927H6.738a10.9 10.9 0 0 1-1.724-5.383l2.75-2.11q.035.016.072.027l2.854.928q.057.016.116.027l1.349 3.928-.055.069-1.762 2.426a1 1 0 0 0-.058.088m8.556 4.698a11 11 0 0 1-5.672 0l-1.258-3.55.049-.06 1.764-2.428a1 1 0 0 0 .057-.087h4.448q.026.046.057.087l1.764 2.428q.023.03.049.06zm2.884-4.701a1 1 0 0 0-.057-.089l-1.764-2.422-.055-.07 1.348-3.927a1 1 0 0 0 .117-.027l2.854-.928.072-.027 2.75 2.11a10.9 10.9 0 0 1-1.724 5.383z"/>
</svg>
