<svg xmlns="http://www.w3.org/2000/svg" fill="none" viewBox="0 0 32 32">
  <path fill="#000" d="M16.448 2.106a1 1 0 0 0-.896 0C15.04 2.362 3 8.48 3 17a7 7 0 0 0 9.269 6.625l-1.226 4.087A1 1 0 0 0 12 29h8a1 1 0 0 0 .957-1.288l-1.226-4.087A7 7 0 0 0 29 17C29 8.48 16.96 2.362 16.448 2.106M22 22a5 5 0 0 1-3.286-1.231 1 1 0 0 0-1.615 1.041L18.656 27h-5.312l1.557-5.19a1 1 0 0 0-1.615-1.041A5 5 0 0 1 5 17c0-3.735 3.051-7.069 5.611-9.208A35 35 0 0 1 16 4.132a35 35 0 0 1 5.389 3.66C26.026 11.668 27 14.94 27 17a5 5 0 0 1-5 5"/>
</svg>
