<svg xmlns="http://www.w3.org/2000/svg" fill="none" viewBox="0 0 32 32">
  <path fill="#000" d="m24.698 16.133-6.452-2.375L15.871 7.3a1.99 1.99 0 0 0-3.735 0L9.76 13.75l-6.457 2.375a1.99 1.99 0 0 0 0 3.735l6.448 2.39 2.375 6.453a1.99 1.99 0 0 0 3.735 0l2.375-6.452 6.456-2.375a1.99 1.99 0 0 0 0-3.735l.007-.008zm-7.15 4.242a1.99 1.99 0 0 0-1.178 1.179l-2.375 6.432-2.37-6.437a1.98 1.98 0 0 0-1.174-1.174L4.02 18l6.432-2.375a2 2 0 0 0 1.174-1.174L14 8.02l2.375 6.432a1.98 1.98 0 0 0 1.179 1.179l6.432 2.375-6.437 2.37zM18 5a1 1 0 0 1 1-1h2V2a1 1 0 1 1 2 0v2h2a1 1 0 0 1 0 2h-2v2a1 1 0 0 1-2 0V6h-2a1 1 0 0 1-1-1m13 6a1 1 0 0 1-1 1h-1v1a1 1 0 0 1-2 0v-1h-1a1 1 0 1 1 0-2h1V9a1 1 0 1 1 2 0v1h1a1 1 0 0 1 1 1"/>
</svg>
