<svg xmlns="http://www.w3.org/2000/svg" fill="none" viewBox="0 0 32 32">
  <path fill="#000" d="M19.439 3.101a1 1 0 0 0-1.053.11L9.656 10H4a2 2 0 0 0-2 2v8a2 2 0 0 0 2 2h5.656l8.73 6.788A1 1 0 0 0 20 28V4a1 1 0 0 0-.561-.899M18 25.955l-7.386-5.744A1 1 0 0 0 10 20H4v-8h6a1 1 0 0 0 .614-.211L18 6.045zm12.707-7.663a1 1 0 1 1-1.415 1.415L27 17.413l-2.293 2.294a1 1 0 1 1-1.415-1.415L25.587 16l-2.293-2.293a1 1 0 1 1 1.415-1.415L27 14.586l2.293-2.294a1 1 0 1 1 1.415 1.415L28.413 16l2.293 2.292z"/>
</svg>
