<svg xmlns="http://www.w3.org/2000/svg" fill="none" viewBox="0 0 32 32">
  <path fill="#000" d="M6.74 4.328a1 1 0 1 0-1.48 1.345L9.194 10H4a2 2 0 0 0-2 2v8a2 2 0 0 0 2 2h5.656l8.73 6.789A1 1 0 0 0 20 28v-6.114l5.26 5.787a1 1 0 1 0 1.48-1.345zM4 12h5v8H4zm19.25 5.984a3 3 0 0 0 0-3.965 1 1 0 1 1 1.5-1.322 5 5 0 0 1 0 6.61 1 1 0 1 1-1.5-1.323m-9.971-9.436a1 1 0 0 1 .125-1.463l4.981-3.875A1 1 0 0 1 20 4v9.354a1 1 0 0 1-1.74.672zM31 16a10 10 0 0 1-2.546 6.668 1 1 0 0 1-1.49-1.334 8 8 0 0 0 0-10.666.999.999 0 1 1 1.49-1.334A9.98 9.98 0 0 1 31 16"/>
</svg>
