<svg xmlns="http://www.w3.org/2000/svg" fill="none" viewBox="0 0 32 32">
  <path fill="#000" d="M23 19v-6a1 1 0 0 1 2 0v6a1 1 0 0 1-2 0m5-9a1 1 0 0 0-1 1v10a1 1 0 0 0 2 0V11a1 1 0 0 0-1-1m-1.26 16.328a1 1 0 1 1-1.48 1.345L20 21.887V28a1 1 0 0 1-1.614.789L9.656 22H4a2 2 0 0 1-2-2v-8a2 2 0 0 1 2-2h5.194L5.26 5.673a1 1 0 1 1 1.48-1.345zM18 19.686 11.012 12H4v8h6a1 1 0 0 1 .614.212L18 25.955zM14.633 8.664 18 6.039v7.309a1 1 0 0 0 2 0V4a1 1 0 0 0-1.614-.789l-4.981 3.875a1 1 0 0 0 1.228 1.58z"/>
</svg>
