<svg xmlns="http://www.w3.org/2000/svg" fill="none" viewBox="0 0 32 32">
  <path fill="#000" d="M17 4v4a1 1 0 0 1-2 0V4a1 1 0 0 1 2 0m11 11h-4a1 1 0 0 0 0 2h4a1 1 0 0 0 0-2m-5.636 5.95a1 1 0 0 0-1.414 1.414l2.828 2.828a1 1 0 1 0 1.415-1.415l-2.83-2.827zM16 23a1 1 0 0 0-1 1v4a1 1 0 0 0 2 0v-4a1 1 0 0 0-1-1m-6.364-2.05-2.828 2.828a1 1 0 1 0 1.415 1.415l2.827-2.83a1 1 0 0 0-1.414-1.413M9 16a1 1 0 0 0-1-1H4a1 1 0 0 0 0 2h4a1 1 0 0 0 1-1m-.777-9.192a1 1 0 1 0-1.416 1.415l2.83 2.827a1 1 0 0 0 1.413-1.414L8.222 6.808z"/>
</svg>
