<svg xmlns="http://www.w3.org/2000/svg" fill="none" viewBox="0 0 32 32">
  <path fill="#000" d="M16 3a13 13 0 1 0 13 13A13.013 13.013 0 0 0 16 3M6 17a1 1 0 0 1 0-2h3a1 1 0 0 1 0 2zm5.758 4.656-2.125 2.125a1 1 0 0 1-1.415 0 1 1 0 0 1 0-1.415l2.124-2.125a1 1 0 0 1 1.414 1.414zm0-9.898a1 1 0 0 1-1.414 0L8.219 9.633A1 1 0 1 1 9.636 8.22l2.125 2.125a1 1 0 0 1-.003 1.412zM17 26a1 1 0 0 1-2 0v-3a1 1 0 0 1 2 0zm0-17a1 1 0 0 1-2 0V6a1 1 0 0 1 2 0zm6.779 14.779a1 1 0 0 1-1.415 0l-2.125-2.125a1 1 0 0 1 1.413-1.414l2.125 2.125a1 1 0 0 1 .002 1.414M26 17h-3a1 1 0 0 1 0-2h3a1 1 0 0 1 0 2"/>
</svg>
