<svg xmlns="http://www.w3.org/2000/svg" fill="none" viewBox="0 0 32 32">
  <path fill="#000" d="M29 16.5a12.95 12.95 0 0 1-3.42 8.779c-.408.444-1.115-.074-.804-.589A11.93 11.93 0 0 0 26.5 18.5a10.01 10.01 0 0 0-10-10 8.01 8.01 0 0 0-8 8 6.006 6.006 0 0 0 6 6 4 4 0 0 0 4-4.102 2 2 0 0 0-1.916-1.898 1.03 1.03 0 0 0-1.084.925 1 1 0 0 0 1 1.075 2 2 0 0 1-2 2 4 4 0 0 1-4-4 6.006 6.006 0 0 1 6-6 8.01 8.01 0 0 1 8 8 10.01 10.01 0 0 1-10 10C5.23 28.5 2.904 19.931 3 16.15 3.187 9.216 8.867 3.605 15.8 3.5a13.015 13.015 0 0 1 13.2 13"/>
</svg>
