<svg xmlns="http://www.w3.org/2000/svg" fill="none" viewBox="0 0 32 32">
  <path fill="#000" d="M31 18a1 1 0 0 1-2 0A12.014 12.014 0 0 0 17 6 11.013 11.013 0 0 0 6 17a10.01 10.01 0 0 0 10 10 9.01 9.01 0 0 0 9-9 8.01 8.01 0 0 0-8-8 7.01 7.01 0 0 0-7 7 6.006 6.006 0 0 0 6 6 5 5 0 0 0 5-5 4 4 0 0 0-4-4 3 3 0 0 0-3 3 2 2 0 0 0 2 2 1 1 0 0 0 1-1 1 1 0 0 1 0-2 2 2 0 0 1 2 2 3 3 0 0 1-3 3 4 4 0 0 1-4-4 5 5 0 0 1 5-5 6.006 6.006 0 0 1 6 6 7.01 7.01 0 0 1-7 7 8.01 8.01 0 0 1-8-8 9.01 9.01 0 0 1 9-9 10.01 10.01 0 0 1 10 10 11.01 11.01 0 0 1-11 11A12.014 12.014 0 0 1 4 17 13.014 13.014 0 0 1 17 4a14.015 14.015 0 0 1 14 14"/>
</svg>
