<svg xmlns="http://www.w3.org/2000/svg" fill="none" viewBox="0 0 32 32">
  <path fill="#000" d="M16 3a13 13 0 1 0 13 13A13.013 13.013 0 0 0 16 3m3.884 18.218a1 1 0 0 1-1.352.416 5.35 5.35 0 0 0-5.065 0 1 1 0 0 1-.934-1.768 7.42 7.42 0 0 1 6.935 0 1 1 0 0 1 .416 1.352m2-3.5a1 1 0 0 1-1.353.412 9.63 9.63 0 0 0-9.06 0 1 1 0 0 1-.94-1.765 11.63 11.63 0 0 1 10.94 0 1 1 0 0 1 .412 1.355v-.002zm2-3.5a1.003 1.003 0 0 1-1.354.41 13.83 13.83 0 0 0-13.057 0 1 1 0 1 1-.943-1.764 15.83 15.83 0 0 1 14.943 0 1 1 0 0 1 .41 1.356v-.003z"/>
</svg>
