<svg xmlns="http://www.w3.org/2000/svg" fill="none" viewBox="0 0 32 32">
  <path fill="#000" d="M28.864 21.5a1 1 0 0 1-.364 1.364l-12 7a1 1 0 0 1-1.008 0l-12-7A1 1 0 0 1 4.5 21.136L16 27.842l11.5-6.706a1 1 0 0 1 1.364.364M27.5 15.136 16 21.842 4.5 15.136a1 1 0 0 0-1 1.728l12 7a1 1 0 0 0 1.008 0l12-7a1.001 1.001 0 0 0-.637-1.86 1 1 0 0 0-.371.132M3 10a1 1 0 0 1 .5-.864l12-7a1 1 0 0 1 1.008 0l12 7a1 1 0 0 1 0 1.728l-12 7a1 1 0 0 1-1.008 0l-12-7A1 1 0 0 1 3 10m2.985 0L16 15.842 26.015 10 16 4.157z"/>
</svg>
