<svg xmlns="http://www.w3.org/2000/svg" fill="none" viewBox="0 0 32 32">
  <path fill="#000" d="M19.455 24.91a10 10 0 0 1 0-17.82 1 1 0 0 0 0-1.781A11.9 11.9 0 0 0 14 4a12 12 0 1 0 0 24 11.9 11.9 0 0 0 5.455-1.309 1 1 0 0 0 0-1.78zM14 26a10.001 10.001 0 1 1 2.8-19.605 12.01 12.01 0 0 0 0 19.21A10 10 0 0 1 14 26m17.396-10.919-3.312-1.428-.289-3.73a1 1 0 0 0-1.768-.56l-2.323 2.815-3.464-.857a1 1 0 0 0-1.101 1.478L21.023 16l-1.884 3.201a1 1 0 0 0 1.101 1.478l3.464-.856 2.323 2.813a1 1 0 0 0 1.768-.558l.289-3.73 3.312-1.43a1 1 0 0 0 0-1.837m-4.66 1.67a1 1 0 0 0-.6.84l-.143 1.862-1.148-1.39a1 1 0 0 0-1.011-.334l-1.765.437.976-1.658a1 1 0 0 0 0-1.015l-.976-1.66 1.765.438a1 1 0 0 0 1.011-.335l1.148-1.388.143 1.86a1 1 0 0 0 .6.842l1.74.75-1.74.75z"/>
</svg>
