<svg xmlns="http://www.w3.org/2000/svg" fill="none" viewBox="0 0 32 32">
  <path fill="#000" d="M29.9 12.162a2 2 0 0 0-1.726-1.376l-7.424-.64-2.91-6.92a1.993 1.993 0 0 0-3.68 0l-2.9 6.92-7.433.644a2 2 0 0 0-1.14 3.508l5.64 4.927-1.69 7.318a2 2 0 0 0 2.98 2.167l6.375-3.875 6.388 3.875a2 2 0 0 0 2.98-2.167l-1.688-7.325 5.637-4.92a2 2 0 0 0 .591-2.136m-1.902.624-5.638 4.92a2 2 0 0 0-.635 1.964L23.42 27l-6.384-3.875a1.99 1.99 0 0 0-2.067 0L8.593 27l1.682-7.325a2 2 0 0 0-.635-1.963L4 12.794v-.011l7.43-.643a2 2 0 0 0 1.67-1.219l2.9-6.91 2.9 6.91a2 2 0 0 0 1.67 1.22l7.43.642v.008z"/>
</svg>
