<svg xmlns="http://www.w3.org/2000/svg" fill="none" viewBox="0 0 32 32">
  <path fill="#000" d="m29.312 14.298-.654.577a1 1 0 1 1-1.315-1.5l.654-.571v-.009l-1.084-.094a1.005 1.005 0 0 1-.56-1.767 1 1 0 0 1 .732-.232l1.087.093a2 2 0 0 1 1.139 3.509zm-7.587 5.375.357 1.551a.999.999 0 1 0 1.949-.45l-.356-1.559.982-.857a1 1 0 0 0-1.315-1.508l-.982.859a2 2 0 0 0-.635 1.966zM17 6.394v16.708l.034.018 1.485.903a1 1 0 1 1-1.038 1.71L16 24.83l-6.375 3.875a2 2 0 0 1-2.98-2.167l1.681-7.313-5.639-4.927a2 2 0 0 1 1.139-3.509l7.432-.643 2.902-6.92a1.993 1.993 0 0 1 3.68 0l2.91 6.92 1.342.117a1.004 1.004 0 0 1-.172 2l-1.345-.117a2 2 0 0 1-1.669-1.218zm-2.034 16.731.034-.018V6.393l-1.9 4.527a2 2 0 0 1-1.669 1.22L4 12.78v.013l5.641 4.918a2 2 0 0 1 .634 1.963l-1.69 7.318 6.381-3.868zm9.989 1.657a1 1 0 0 0-1.949.45L23.419 27l-1.4-.85a1 1 0 0 0-1.038 1.71l1.404.853a2 2 0 0 0 2.98-2.168z"/>
</svg>
