<svg xmlns="http://www.w3.org/2000/svg" fill="none" viewBox="0 0 32 32">
  <path fill="#000" d="M16 19a1.5 1.5 0 1 1 0-3 1.5 1.5 0 0 1 0 3m13-3A13 13 0 1 1 16 3a13.014 13.014 0 0 1 13 13M5 16v.041a16.99 16.99 0 0 1 22 0V16a11 11 0 1 0-22 0m8.438 10.698L11.306 21H6.204a11.04 11.04 0 0 0 7.234 5.698M16 27h.311l2.509-6.696a2.01 2.01 0 0 1 1.875-1.299h5.89q.072-.245.125-.5a15 15 0 0 0-21.425 0q.059.252.125.5h5.896a2.01 2.01 0 0 1 1.875 1.3l2.5 6.695zm9.796-6h-5.102l-2.136 5.699A11.04 11.04 0 0 0 25.796 21"/>
</svg>
