<svg xmlns="http://www.w3.org/2000/svg" fill="none" viewBox="0 0 32 32">
  <path fill="#000" d="M13 23.5a4.5 4.5 0 1 1-9 0 4.5 4.5 0 0 1 9 0m-8.708-8.793a1 1 0 0 0 1.415 0L7.5 12.915l1.792 1.793a1 1 0 0 0 1.415-1.415L8.914 11.5l1.793-1.793a1 1 0 1 0-1.415-1.415L7.5 10.087 5.707 8.293a1 1 0 1 0-1.415 1.415L6.086 11.5l-1.794 1.793a1 1 0 0 0 0 1.415zM25.917 23.5l1.794-1.793a1 1 0 0 0-1.415-1.415L24.5 22.087l-1.793-1.793a1 1 0 1 0-1.415 1.415l1.794 1.792-1.794 1.793a1 1 0 0 0 1.415 1.415l1.793-1.794 1.792 1.793a1 1 0 0 0 1.415-1.415zm-6.21-17.207L19.414 6H22a1 1 0 1 0 0-2h-5a1 1 0 0 0-1 1v5a1 1 0 0 0 2 0V7.414l.292.293c2.242 2.242 2.238 4.426 1.84 5.863-.58 2.096-2.42 3.971-4.376 4.46a1 1 0 1 0 .494 1.94c2.651-.662 5.044-3.075 5.816-5.866.756-2.756-.079-5.53-2.359-7.811"/>
</svg>
