<svg xmlns="http://www.w3.org/2000/svg" fill="none" viewBox="0 0 32 32">
  <path fill="#000" d="M8.5 19a4.5 4.5 0 1 0 0 9 4.5 4.5 0 0 0 0-9m0 7a2.5 2.5 0 1 1 0-5 2.5 2.5 0 0 1 0 5M4.293 13.293 6.086 11.5 4.293 9.707a1 1 0 1 1 1.415-1.415L7.5 10.087l1.793-1.793a1 1 0 0 1 1.415 1.415L8.914 11.5l1.794 1.793a1 1 0 0 1-1.415 1.415L7.5 12.913l-1.792 1.793a1 1 0 0 1-1.415-1.415zm23.415 12a1 1 0 0 1-1.415 1.415L24.5 24.913l-1.792 1.793a1.001 1.001 0 0 1-1.415-1.415l1.793-1.792-1.793-1.793a1 1 0 1 1 1.415-1.415l1.792 1.794 1.793-1.793a1 1 0 1 1 1.415 1.415L25.914 23.5zm-5.65-11.19c-.772 2.792-3.164 5.205-5.815 5.867a1 1 0 1 1-.491-1.94c1.953-.489 3.793-2.364 4.374-4.46.4-1.438.403-3.625-1.838-5.863L18 7.414V10a1 1 0 0 1-2 0V5a1 1 0 0 1 1-1h5a1 1 0 0 1 0 2h-2.586l.294.293c2.28 2.28 3.115 5.054 2.35 7.81"/>
</svg>
