<svg xmlns="http://www.w3.org/2000/svg" fill="none" viewBox="0 0 32 32">
  <path fill="#000" d="M26 4H6a2 2 0 0 0-2 2v20a2 2 0 0 0 2 2h20a2 2 0 0 0 2-2V6a2 2 0 0 0-2-2M16 23c-2.758 0-5-1.794-5-4a1 1 0 0 1 2 0c0 1.084 1.375 2 3 2s3-.916 3-2c0-1.185-1.076-1.625-3.36-2.282-1.969-.568-4.418-1.274-4.418-3.718 0-2.28 2.054-4 4.778-4 1.965 0 3.648.912 4.39 2.375a1 1 0 1 1-1.784.902C18.205 11.493 17.206 11 16 11c-1.584 0-2.777.86-2.777 2 0 .875 1.124 1.262 2.97 1.795C18.224 15.375 21 16.181 21 19c0 2.206-2.242 4-5 4"/>
</svg>
