<svg xmlns="http://www.w3.org/2000/svg" fill="none" viewBox="0 0 32 32">
  <path fill="#000" d="m28.316 7.051-12-4a1 1 0 0 0-.632 0l-12 4a1 1 0 0 0-.684.95v10a1 1 0 0 0 2 0V9.387l4.199 1.398a8 8 0 0 0 2.581 11.007c-2.25.882-4.195 2.478-5.617 4.66a1 1 0 1 0 1.675 1.093C9.72 24.656 12.695 23 16 23c3.304 0 6.279 1.656 8.163 4.546a1 1 0 0 0 1.674-1.092c-1.422-2.183-3.375-3.779-5.617-4.661a8 8 0 0 0 2.581-11l5.515-1.838a1 1 0 0 0 0-1.897V7.05zM22 15.001a6 6 0 1 1-10.831-3.557l4.515 1.5a1 1 0 0 0 .632 0l4.515-1.5A6 6 0 0 1 22 15z"/>
</svg>
