<svg xmlns="http://www.w3.org/2000/svg" fill="none" viewBox="0 0 32 32">
  <path fill="#000" d="M15 5V4a1 1 0 0 1 2 0v1a1 1 0 0 1-2 0m1 3a8 8 0 1 0 8 8 8.01 8.01 0 0 0-8-8m-8.707.707a1 1 0 1 0 1.414-1.415l-1-1a1 1 0 1 0-1.414 1.415zm0 14.585-1 1a1 1 0 1 0 1.414 1.415l1-1a1 1 0 1 0-1.415-1.415zM24 9a1 1 0 0 0 .707-.293l1-1a1 1 0 0 0-1.415-1.414l-1 1A1 1 0 0 0 24 9m.707 14.293a1 1 0 1 0-1.415 1.415l1 1a1 1 0 0 0 1.415-1.415zM5 15H4a1 1 0 0 0 0 2h1a1 1 0 0 0 0-2m11 11a1 1 0 0 0-1 1v1a1 1 0 0 0 2 0v-1a1 1 0 0 0-1-1m12-11h-1a1 1 0 0 0 0 2h1a1 1 0 0 0 0-2"/>
</svg>
