<svg xmlns="http://www.w3.org/2000/svg" fill="none" viewBox="0 0 32 32">
  <path fill="#000" d="M15 5V2a1 1 0 0 1 2 0v3a1 1 0 0 1-2 0m1 3a8 8 0 1 0 8 8 8.01 8.01 0 0 0-8-8m-8.707.707a1 1 0 1 0 1.414-1.415l-2-2a1 1 0 1 0-1.414 1.415zm0 14.585-2 2a1 1 0 1 0 1.414 1.415l2-2a1 1 0 1 0-1.415-1.415zM24 9a1 1 0 0 0 .707-.293l2-2a1 1 0 0 0-1.415-1.414l-2 2A1 1 0 0 0 24 9m.707 14.293a1 1 0 1 0-1.415 1.415l2 2a1 1 0 0 0 1.415-1.415zM6 16a1 1 0 0 0-1-1H2a1 1 0 0 0 0 2h3a1 1 0 0 0 1-1m10 10a1 1 0 0 0-1 1v3a1 1 0 0 0 2 0v-3a1 1 0 0 0-1-1m14-11h-3a1 1 0 0 0 0 2h3a1 1 0 0 0 0-2"/>
</svg>
