<svg xmlns="http://www.w3.org/2000/svg" fill="none" viewBox="0 0 32 32">
  <path fill="#000" d="M31 20a1 1 0 0 1-1 1H2a1 1 0 1 1 0-2h5.056a9 9 0 1 1 17.888 0H30a1 1 0 0 1 1 1m-5 4H6a1 1 0 0 0 0 2h20a1 1 0 1 0 0-2M10.105 7.447a1 1 0 0 0 1.79-.895l-1-2a1 1 0 0 0-1.79.895zm-7.553 5.448 2 1a1 1 0 1 0 .896-1.789l-2-1a.999.999 0 0 0-1.397 1.21 1 1 0 0 0 .502.579zM27 14a1 1 0 0 0 .446-.105l2-1a1.001 1.001 0 0 0-.895-1.789l-2 1A1 1 0 0 0 27 14m-6.448-6.105a1 1 0 0 0 1.343-.448l1-2a1 1 0 0 0-1.79-.895l-1 2a1 1 0 0 0 .447 1.343"/>
</svg>
