<svg xmlns="http://www.w3.org/2000/svg" fill="none" viewBox="0 0 32 32">
  <path fill="#000" fill-rule="evenodd" d="M6 27a1 1 0 0 0-1 1 1 1 0 1 1-2 0 3 3 0 0 1 3-3h20a3 3 0 0 1 3 3 1 1 0 1 1-2 0 1 1 0 0 0-1-1zm6-22a3 3 0 0 1 3-3h2a3 3 0 0 1 3 3v7a1 1 0 0 1-.042.287l-3 10a1 1 0 0 1-1.916 0l-3-10A1 1 0 0 1 12 12zm3-1a1 1 0 0 0-1 1v6.853l2 6.667 2-6.667V5a1 1 0 0 0-1-1zm11.832 11.445a1 1 0 0 1-.277 1.387l-2.266 1.51.605 1.21a1 1 0 0 1-.34 1.28l-3 2a1 1 0 1 1-1.109-1.664l2.266-1.51-.605-1.21a1 1 0 0 1 .34-1.28l3-2a1 1 0 0 1 1.386.277m-21.664 0a1 1 0 0 0 .277 1.387l2.266 1.51-.605 1.21a1 1 0 0 0 .34 1.28l3 2a1 1 0 1 0 1.109-1.664l-2.266-1.51.605-1.21a1 1 0 0 0-.34-1.28l-3-2a1 1 0 0 0-1.386.277" clip-rule="evenodd"/>
</svg>
