<svg xmlns="http://www.w3.org/2000/svg" fill="none" viewBox="0 0 32 32">
  <path fill="#000" d="M3 21a1 1 0 0 1 1-1c1.803 0 2.774.648 3.555 1.168C8.25 21.633 8.803 22 10 22s1.75-.367 2.445-.832c.78-.52 1.75-1.168 3.554-1.168s2.775.648 3.555 1.168c.697.465 1.25.832 2.446.832s1.75-.367 2.445-.832C25.226 20.648 26.195 20 28 20a1 1 0 0 1 0 2c-1.198 0-1.75.367-2.445.832C24.774 23.352 23.805 24 22 24s-2.775-.648-3.555-1.168C17.75 22.367 17.196 22 16 22s-1.75.367-2.445.832c-.78.52-1.75 1.168-3.554 1.168s-2.773-.648-3.555-1.168C5.75 22.367 5.198 22 4 22a1 1 0 0 1-1-1m25 4c-1.802 0-2.774.648-3.555 1.168-.695.465-1.247.832-2.445.832s-1.75-.367-2.446-.832c-.78-.52-1.75-1.168-3.555-1.168s-2.774.648-3.554 1.168C11.75 26.633 11.196 27 10 27s-1.75-.367-2.445-.832C6.774 25.648 5.803 25 4 25a1 1 0 0 0 0 2c1.197 0 1.75.367 2.445.832C7.226 28.352 8.195 29 10 29s2.774-.648 3.554-1.168c.697-.465 1.25-.832 2.445-.832s1.75.367 2.446.832c.78.52 1.75 1.168 3.555 1.168s2.774-.648 3.555-1.168C26.251 27.367 26.805 27 28 27a1 1 0 0 0 0-2m-18-7.326V4a1 1 0 0 1 2 0v1h8V4a1 1 0 0 1 2 0v13.911a1 1 0 0 1-2 0V17h-8v.674a1 1 0 0 1-2 0M12 9a1 1 0 0 0 1 1h6a1 1 0 1 0 0-2h-6a1 1 0 0 0-1 1m0 4a1 1 0 0 0 1 1h6a1 1 0 0 0 0-2h-6a1 1 0 0 0-1 1"/>
</svg>
