<svg xmlns="http://www.w3.org/2000/svg" fill="none" viewBox="0 0 32 32">
  <path fill="#000" d="M11 18.674a1 1 0 0 0 1-1V16h8v1.911a1 1 0 0 0 2 0V4a1 1 0 0 0-2 0v2h-8V4a1 1 0 0 0-2 0v13.674a1 1 0 0 0 1 1M12 14v-2h8v2zm8-6v2h-8V8zM3 21a1 1 0 0 1 1-1c1.803 0 2.774.648 3.555 1.168C8.25 21.633 8.803 22 10 22s1.75-.367 2.445-.832c.78-.52 1.75-1.168 3.554-1.168s2.775.648 3.555 1.168c.697.465 1.25.832 2.446.832s1.75-.367 2.445-.832C25.226 20.648 26.195 20 28 20a1 1 0 0 1 0 2c-1.198 0-1.75.367-2.445.832C24.774 23.352 23.805 24 22 24s-2.775-.648-3.555-1.168C17.75 22.367 17.196 22 16 22s-1.75.367-2.445.832c-.78.52-1.75 1.168-3.554 1.168s-2.773-.648-3.555-1.168C5.75 22.367 5.198 22 4 22a1 1 0 0 1-1-1m26 5a1 1 0 0 1-1 1c-1.198 0-1.75.367-2.445.832C24.774 28.352 23.805 29 22 29s-2.775-.648-3.555-1.168C17.75 27.367 17.196 27 16 27s-1.75.367-2.445.832c-.78.52-1.75 1.168-3.554 1.168s-2.773-.648-3.555-1.168C5.75 27.367 5.198 27 4 27a1 1 0 0 1 0-2c1.803 0 2.774.648 3.555 1.168C8.25 26.633 8.803 27 10 27s1.75-.367 2.445-.832c.78-.52 1.75-1.168 3.554-1.168s2.775.648 3.555 1.168c.697.465 1.25.832 2.446.832s1.75-.367 2.445-.832C25.226 25.648 26.195 25 28 25a1 1 0 0 1 1 1"/>
</svg>
