<svg xmlns="http://www.w3.org/2000/svg" fill="none" viewBox="0 0 32 32">
  <path fill="#000" d="m29.708 8.293-6-6a1 1 0 1 0-1.415 1.415L24.586 6 21 9.586l-4.292-4.293a1 1 0 0 0-1.415 1.415l.793.792L5.586 18A1.98 1.98 0 0 0 5 19.414v6.172l-2.707 2.707a1 1 0 1 0 1.415 1.415L6.414 27h6.172A1.98 1.98 0 0 0 14 26.414l10.5-10.5.793.794a1 1 0 0 0 1.415-1.415L22.414 11 26 7.414l2.293 2.294a1 1 0 1 0 1.415-1.415M12.586 25H7v-5.586l2.25-2.25 2.543 2.544a1 1 0 0 0 1.415-1.415l-2.544-2.543 1.586-1.586 2.543 2.544a1 1 0 0 0 1.415-1.415l-2.544-2.543L17.5 8.914l5.586 5.586z"/>
</svg>
