<svg xmlns="http://www.w3.org/2000/svg" fill="none" viewBox="0 0 32 32">
  <path fill="#000" d="M29.707 9.7a1 1 0 0 1-1.415 0L26 7.406 22.413 11l4.293 4.294a1 1 0 1 1-1.415 1.415l-.791-.8-10.5 10.5a2 2 0 0 1-1.419.591H6.407L3.7 29.707a1 1 0 0 1-1.465-.053 1.026 1.026 0 0 1 .076-1.388l2.681-2.682V19.41A2 2 0 0 1 5.58 18l1.897-1.898a.5.5 0 0 1 .708 0l3.604 3.602a1 1 0 0 0 1.415-1.415l-3.606-3.605a.5.5 0 0 1 0-.708l1.376-1.375a.5.5 0 0 1 .707 0l3.605 3.605a1 1 0 0 0 1.415-1.415L13.1 11.182a.5.5 0 0 1 0-.707l2.983-2.982-.793-.794a1 1 0 0 1 .022-1.436 1.03 1.03 0 0 1 1.422.05L21 9.58l3.586-3.588-2.295-2.293a1 1 0 0 1 .021-1.437 1.03 1.03 0 0 1 1.423.052l5.973 5.972a1 1 0 0 1 0 1.415z"/>
</svg>
