<svg xmlns="http://www.w3.org/2000/svg" fill="none" viewBox="0 0 32 32">
  <path fill="#000" d="M28 16a1 1 0 0 1-1 1h-5.009C23.14 17.889 24 19.15 24 21c0 1.668-.875 3.212-2.469 4.349C20.041 26.414 18.076 27 16 27s-4.041-.586-5.531-1.651C8.875 24.212 8 22.668 8 21a1 1 0 1 1 2 0c0 2.169 2.75 4 6 4s6-1.831 6-4c0-1.856-1.317-2.948-4.846-4H5a1 1 0 0 1 0-2h22a1 1 0 0 1 1 1M9.541 13a1 1 0 0 0 .951-1.311A2.2 2.2 0 0 1 10.39 11c0-2.28 2.412-4 5.611-4 2.355 0 4.27.928 5.125 2.481a1 1 0 0 0 1.75-.962C21.666 6.315 19.096 5 16 5c-4.339 0-7.611 2.579-7.611 6-.002.445.066.888.202 1.311a1 1 0 0 0 .95.689"/>
</svg>
