<svg xmlns="http://www.w3.org/2000/svg" fill="none" viewBox="0 0 32 32">
  <path fill="#000" d="M25 19.5c0 .813-.916 1.5-2 1.5s-2-.688-2-1.5.916-1.5 2-1.5 2 .688 2 1.5M9.201 17H13.8l-2.3-5.434zM29 7v18a2 2 0 0 1-2 2H5a2 2 0 0 1-2-2V7a2 2 0 0 1 2-2h22a2 2 0 0 1 2 2M17.921 21.61l-5.5-13a1 1 0 0 0-1.842 0l-5.5 13a1 1 0 0 0 1.842.78L8.355 19h6.29l1.434 3.39a1 1 0 1 0 1.842-.78M27 16.5c0-1.93-1.795-3.5-4-3.5a4.36 4.36 0 0 0-2.598.835 1 1 0 1 0 1.195 1.604c.41-.292.9-.446 1.403-.439 1.07 0 1.975.67 2 1.47a4.4 4.4 0 0 0-2-.47c-2.205 0-4 1.57-4 3.5s1.795 3.5 4 3.5a4.4 4.4 0 0 0 2.116-.532A1 1 0 0 0 27 22z"/>
</svg>
