<svg xmlns="http://www.w3.org/2000/svg" fill="none" viewBox="0 0 32 32">
  <path fill="#000" d="M26 4H6a2 2 0 0 0-2 2v20a2 2 0 0 0 2 2h20a2 2 0 0 0 2-2V6a2 2 0 0 0-2-2m-15.661 7.822C10.75 9.572 13.072 8 16 8c2.275 0 4.199.926 5.148 2.479a.999.999 0 0 1-1.09 1.493 1 1 0 0 1-.618-.45C18.867 10.581 17.549 10 16 10c-1.912 0-3.466.916-3.694 2.178a1 1 0 1 1-1.967-.356M24 17h-2.964c.635.676.981 1.573.964 2.5 0 2.524-2.635 4.5-6 4.5-2.986 0-5.479-1.598-5.929-3.8a1.002 1.002 0 0 1 1.171-1.209 1 1 0 0 1 .788.809c.25 1.234 2 2.2 3.97 2.2 2.169 0 4-1.145 4-2.5 0-1.142-.845-1.804-3.215-2.5H8a1 1 0 0 1 0-2h16a1 1 0 0 1 0 2"/>
</svg>
