<svg xmlns="http://www.w3.org/2000/svg" fill="none" viewBox="0 0 32 32">
  <path fill="#000" d="m31.114 9.715-2.5.811 1.542 2.125a1 1 0 1 1-1.617 1.175L27 11.701l-1.543 2.125a1 1 0 0 1-1.617-1.175l1.543-2.125-2.5-.811a1 1 0 0 1 .617-1.902l2.5.812V6a1 1 0 0 1 2 0v2.625l2.5-.811a1 1 0 1 1 .619 1.902zM19 23a4 4 0 1 1-5-3.875V15a1 1 0 0 1 2 0v4.125A4.01 4.01 0 0 1 19 23m-2 0a2 2 0 1 0-4 0 2 2 0 0 0 4 0m6 0a8 8 0 1 1-13-6.25V6a5 5 0 0 1 10 0v10.75A8.01 8.01 0 0 1 23 23m-2 0a6.01 6.01 0 0 0-2.573-4.925A1 1 0 0 1 18 17.25V6a3 3 0 0 0-6 0v11.25a1 1 0 0 1-.428.82A6 6 0 1 0 21 23"/>
</svg>
