<svg xmlns="http://www.w3.org/2000/svg" fill="none" viewBox="0 0 32 32">
  <path fill="#000" d="M22.176 10.068a1 1 0 0 1 .257-1.39c1.3-.898 3.334-.898 4.634 0 .625.433 1.735.433 2.366 0a1 1 0 0 1 1.134 1.644 4.33 4.33 0 0 1-4.634 0c-.625-.433-1.735-.433-2.366 0a1 1 0 0 1-1.39-.254zm7.257 2.61c-.625.433-1.735.433-2.366 0-1.3-.898-3.334-.898-4.634 0a1 1 0 1 0 1.134 1.644c.625-.433 1.735-.433 2.366 0a4.33 4.33 0 0 0 4.634 0 1 1 0 0 0-1.134-1.644M19 23a4 4 0 1 1-5-3.875V6a1 1 0 0 1 2 0v13.125A4.01 4.01 0 0 1 19 23m-2 0a2 2 0 1 0-4 0 2 2 0 0 0 4 0m6 0a8 8 0 1 1-13-6.25V6a5 5 0 0 1 10 0v10.75A8.01 8.01 0 0 1 23 23m-2 0a6.01 6.01 0 0 0-2.573-4.925A1 1 0 0 1 18 17.25V6a3 3 0 0 0-6 0v11.25a1 1 0 0 1-.428.82A6 6 0 1 0 21 23"/>
</svg>
