<svg xmlns="http://www.w3.org/2000/svg" fill="none" viewBox="0 0 32 32">
  <path fill="#000" d="m31.708 11.292-5-5a1 1 0 0 0-1.415 0L21 10.586l-4.292-4.294a1 1 0 0 0-1.415 0L11 10.586 6.708 6.292a1 1 0 0 0-1.415 0l-5 5a1 1 0 0 0 0 1.415l5 5a1 1 0 0 0 1.415 0L11 13.414 14.586 17l-4.293 4.292a1 1 0 0 0 0 1.415l5 5a1 1 0 0 0 1.415 0l5-5a1 1 0 0 0 0-1.415L17.414 17 21 13.414l4.293 4.293a1 1 0 0 0 1.415 0l5-5a1 1 0 0 0 0-1.415M6 15.586 2.414 12 6 8.414 9.586 12zm10 10L12.414 22 16 18.414 19.586 22zm0-10L12.414 12 16 8.414 19.586 12zm10 0L22.414 12 26 8.414 29.586 12z"/>
</svg>
