<svg xmlns="http://www.w3.org/2000/svg" fill="none" viewBox="0 0 32 32">
  <path fill="#000" d="M28 9a6.006 6.006 0 0 1-6-6 1 1 0 0 0-1-1h-5a1 1 0 0 0-1 1v16.5a2.499 2.499 0 1 1-3.571-2.26 1 1 0 0 0 .571-.904V11a1 1 0 0 0-1.175-.985C6.364 10.81 3 14.887 3 19.5a9.5 9.5 0 1 0 19 0v-4.964A12.9 12.9 0 0 0 28 16a1 1 0 0 0 1-1v-5a1 1 0 0 0-1-1m-1 4.955a10.9 10.9 0 0 1-5.416-2.019A1 1 0 0 0 20 12.75v6.75a7.5 7.5 0 0 1-15 0c0-3.238 2.08-6.141 5-7.2v3.459a4.5 4.5 0 1 0 7 3.741V4h3.063A8.02 8.02 0 0 0 27 10.938z"/>
</svg>
