<svg xmlns="http://www.w3.org/2000/svg" fill="none" viewBox="0 0 32 32">
  <path fill="#000" d="M7.5 11h17a.5.5 0 0 0 .5-.5V5a2 2 0 0 0-2-2H9a2 2 0 0 0-2 2v5.5a.5.5 0 0 0 .5.5M11 6h1.966A1.023 1.023 0 0 1 14 6.934 1 1 0 0 1 13 8h-1.966A1.023 1.023 0 0 1 10 7.066 1 1 0 0 1 11 6m17 8.008A1 1 0 0 0 27 13H5a1 1 0 0 0-1 1.008 12.01 12.01 0 0 0 6.46 10.634l-.434 3.034c-.065.428.006.866.204 1.25A2 2 0 0 0 12 30h7.957a2.06 2.06 0 0 0 1.215-.375 2 2 0 0 0 .808-1.904l-.44-3.075A12.01 12.01 0 0 0 28 14.007zM12 28l.366-2.563c2.365.75 4.903.75 7.268 0L20 28z"/>
</svg>
