<svg xmlns="http://www.w3.org/2000/svg" fill="none" viewBox="0 0 32 32">
  <path fill="#000" d="M28 8h-6V7a3 3 0 0 0-3-3h-6a3 3 0 0 0-3 3v1H4a2 2 0 0 0-2 2v3.5a.5.5 0 0 0 .5.5H8v-1.966A1.02 1.02 0 0 1 8.934 11 1 1 0 0 1 10 12v2h12v-1.966A1.02 1.02 0 0 1 22.934 11 1 1 0 0 1 24 12v2h5.5a.5.5 0 0 0 .5-.5V10a2 2 0 0 0-2-2m-8 0h-8V7a1 1 0 0 1 1-1h6a1 1 0 0 1 1 1zm10 8.5V24a2 2 0 0 1-2 2H4a2 2 0 0 1-2-2v-7.5a.5.5 0 0 1 .5-.5H8v2a1 1 0 0 0 1.066 1A1.02 1.02 0 0 0 10 17.966V16h12v2a1 1 0 0 0 1.066 1A1.02 1.02 0 0 0 24 17.969V16h5.5a.5.5 0 0 1 .5.5"/>
</svg>
