<svg xmlns="http://www.w3.org/2000/svg" fill="none" viewBox="0 0 32 32">
  <path fill="#000" d="M21 3H11a7 7 0 0 0-7 6.969c0 5.34 1 9.425 1.838 11.91 1.09 3.225 2.577 5.686 4.08 6.75.332.24.73.37 1.14.371a2.01 2.01 0 0 0 2-1.863C13.166 25.697 13.685 21 16 21s2.835 4.699 2.941 6.139a2.01 2.01 0 0 0 2.169 1.855c.35-.031.687-.156.973-.362 1.5-1.066 2.99-3.527 4.08-6.75C27 19.394 28 15.31 28 9.97A7 7 0 0 0 21 3m.375 7.071a1.002 1.002 0 0 1-.75 1.857L16 10.075l-4.625 1.851a1.003 1.003 0 0 1-1.376-.936 1 1 0 0 1 .626-.92L13.307 9l-2.682-1.072a1 1 0 1 1 .75-1.857L16 7.923l4.625-1.852a1.001 1.001 0 0 1 .75 1.857L18.692 9z"/>
</svg>
