<svg xmlns="http://www.w3.org/2000/svg" fill="none" viewBox="0 0 32 32">
  <path fill="#000" d="m30.394 14.536-12.93-12.93a2.07 2.07 0 0 0-2.928 0l-12.93 12.93a2.07 2.07 0 0 0 0 2.928l12.93 12.93a2.07 2.07 0 0 0 2.928 0l12.93-12.93a2.07 2.07 0 0 0 0-2.928M28.98 16.05 16.05 28.98a.073.073 0 0 1-.1 0L3.02 16.05a.07.07 0 0 1 0-.098l12.93-12.93a.073.073 0 0 1 .1 0l12.93 12.93a.07.07 0 0 1 0 .098m-7.272-1.75a1 1 0 0 1 0 1.415l-3 3a1 1 0 1 1-1.415-1.415l1.293-1.3H14a2 2 0 0 0-2 2v1a1 1 0 0 1-2 0v-1a4 4 0 0 1 4-4h4.586l-1.293-1.292a1 1 0 1 1 1.415-1.415l3 3.006z"/>
</svg>
