<svg xmlns="http://www.w3.org/2000/svg" fill="none" viewBox="0 0 32 32">
  <path fill="#000" d="M27.965 14.738 25.166 4.474A2 2 0 0 0 23.236 3H8.763a2 2 0 0 0-1.93 1.474L4.035 14.738a1 1 0 0 0 0 .524l2.798 10.264A2 2 0 0 0 8.763 27H10l-1.8 2.4a1 1 0 0 0 1.6 1.2l2.7-3.6h7l2.7 3.6a1 1 0 0 0 1.6-1.2L22 27h1.236a2 2 0 0 0 1.93-1.474l2.799-10.264a1 1 0 0 0 0-.524M8.763 5h14.473l2.514 9.211L16 15.984 6.25 14.21zM6.388 16.267 15 17.835V25H8.763zM23.236 25H17v-7.165l8.617-1.568zM11 11a1 1 0 0 1 1-1h8a1 1 0 0 1 0 2h-8a1 1 0 0 1-1-1"/>
</svg>
