<svg xmlns="http://www.w3.org/2000/svg" fill="none" viewBox="0 0 32 32">
  <path fill="#000" d="M21 11a1 1 0 0 1-1 1h-8a1 1 0 0 1 0-2h8a1 1 0 0 1 1 1m6.965 4.262-2.799 10.264A2 2 0 0 1 23.236 27H22l1.8 2.4a1 1 0 0 1-1.6 1.2L19.5 27h-7l-2.7 3.6a1 1 0 1 1-1.6-1.2L10 27H8.763a2 2 0 0 1-1.93-1.474L4.035 15.262a1 1 0 0 1 0-.524L6.833 4.474A2 2 0 0 1 8.763 3h14.473a2 2 0 0 1 1.93 1.474l2.799 10.264a1 1 0 0 1 0 .524M17 19a1 1 0 1 0-2 0v5a1 1 0 0 0 2 0zm8.75-4.789L23.236 5H8.763L6.25 14.211 16 15.984z"/>
</svg>
