<svg xmlns="http://www.w3.org/2000/svg" fill="none" viewBox="0 0 32 32">
  <path fill="#000" d="M20 16.236 21.883 20h-3.765l.795-1.587zM28 6v20a2 2 0 0 1-2 2H6a2 2 0 0 1-2-2V6a2 2 0 0 1 2-2h20a2 2 0 0 1 2 2m-2.105 17.552-5-10a1 1 0 0 0-1.79 0l-1.648 3.298a7.8 7.8 0 0 1-2.95-1.25A9.95 9.95 0 0 0 16.95 10H19a1 1 0 1 0 0-2h-5V7a1 1 0 0 0-2 0v1H7a1 1 0 0 0 0 2h7.935a7.97 7.97 0 0 1-1.912 4.256 8.2 8.2 0 0 1-1.125-1.701 1 1 0 0 0-1.79.89c.382.772.861 1.492 1.425 2.144A7.95 7.95 0 0 1 7 17a1 1 0 0 0 0 2 9.95 9.95 0 0 0 6.014-2.016 9.8 9.8 0 0 0 3.522 1.707l-2.431 4.861a1 1 0 1 0 1.79.896L17.118 22h5.765l1.222 2.448a1.001 1.001 0 0 0 1.79-.896"/>
</svg>
