<svg xmlns="http://www.w3.org/2000/svg" fill="none" viewBox="0 0 32 32">
  <path fill="#000" d="M24.762 7.825a9.5 9.5 0 0 0-17.524 0A9.03 9.03 0 0 0 2 15.975c-.014 4.853 3.92 8.9 8.768 9.025A8.96 8.96 0 0 0 15 24.061v4.94a1 1 0 0 0 2 0v-4.94a8.9 8.9 0 0 0 4 .94h.233c4.847-.126 8.78-4.17 8.767-9.023a9.03 9.03 0 0 0-5.238-8.153M21.182 23a6.95 6.95 0 0 1-4.066-1.175L17 21.754v-5.136l5.448-2.723a1 1 0 1 0-.896-1.79L17 14.383V11a1 1 0 1 0-2 0v6.383l-4.553-2.278a1 1 0 1 0-.894 1.79L15 19.618v2.132q-.06.034-.116.071A7 7 0 1 1 8.069 9.642c.454-.208.813-.58 1.006-1.04a7.5 7.5 0 0 1 13.838 0c.192.46.551.832 1.006 1.04A7 7 0 0 1 21.169 23z"/>
</svg>
