<svg xmlns="http://www.w3.org/2000/svg" fill="none" viewBox="0 0 32 32">
  <path fill="#000" d="M16 23.485h-.008a9 9 0 0 1-1 .576V29a1 1 0 0 0 2 0v-4.939a9 9 0 0 1-1-.576z"/>
  <path fill="#000" d="M24.762 7.825a9.5 9.5 0 0 0-17.524 0A9.04 9.04 0 0 0 2 15.975c-.014 4.853 3.92 8.9 8.768 9.025A8.96 8.96 0 0 0 15 24.061v-4.444l-5.447-2.722a1 1 0 1 1 .894-1.79L15 17.382V11a1 1 0 0 1 2 0v3.383l4.552-2.278a1.002 1.002 0 0 1 1.204 1.55 1 1 0 0 1-.308.24L17 16.618v7.443A8.9 8.9 0 0 0 21 25h.233c4.847-.125 8.78-4.17 8.767-9.023a9.03 9.03 0 0 0-5.238-8.152"/>
</svg>
