<svg xmlns="http://www.w3.org/2000/svg" fill="none" viewBox="0 0 32 32">
  <path fill="#000" d="M29.724 6.654a8.357 8.357 0 0 0-12.218 0A9 9 0 0 0 16 8.779a9 9 0 0 0-1.5-2.125 8.357 8.357 0 0 0-12.217 0 1 1 0 0 0 .325 1.606l7.017 3.059a8.93 8.93 0 0 0-5.42 4.151 8.83 8.83 0 0 0-.9 6.79 1 1 0 0 0 1.57.535L15 15.085V28a1 1 0 0 0 2 0V15.085l10.125 7.71a1.002 1.002 0 0 0 1.571-.535 8.83 8.83 0 0 0-.9-6.79 8.93 8.93 0 0 0-5.421-4.151l7.027-3.059a1 1 0 0 0 .325-1.606zM8.385 6a6.4 6.4 0 0 1 4.66 2.033 7.07 7.07 0 0 1 1.783 3.366L4.875 7.066A6.3 6.3 0 0 1 8.385 6M5 20.188a6.85 6.85 0 0 1 .934-3.713 6.94 6.94 0 0 1 4.25-3.236 7.07 7.07 0 0 1 3.857.062zm21.063-3.713A6.85 6.85 0 0 1 27 20.188L17.962 13.3a7.04 7.04 0 0 1 8.104 3.175zm-8.89-5.076a7.07 7.07 0 0 1 1.782-3.366A6.4 6.4 0 0 1 23.615 6c1.25 0 2.471.371 3.51 1.066L17.172 11.4z"/>
</svg>
