<svg xmlns="http://www.w3.org/2000/svg" fill="none" viewBox="0 0 32 32">
  <path fill="#000" fill-rule="evenodd" d="M11 5c0-1.135.894-1.894 1.724-2.309C13.614 2.246 14.774 2 16 2s2.386.246 3.276.691C20.106 3.106 21 3.865 21 5v22c0 1.135-.894 1.894-1.724 2.309-.89.445-2.05.691-3.276.691s-2.386-.246-3.276-.691C11.894 28.894 11 28.135 11 27zm6.5 6a1.5 1.5 0 1 1-3 0 1.5 1.5 0 0 1 3 0m-4.457 3.413a1 1 0 0 1 1.247-.668 5.9 5.9 0 0 0 3.42 0 1 1 0 0 1 .58 1.915 7.9 7.9 0 0 1-4.58 0 1 1 0 0 1-.667-1.247M13 4.998v-.003l.007-.02a.4.4 0 0 1 .07-.108c.092-.107.263-.247.542-.387C14.177 4.201 15.017 4 16 4s1.823.201 2.381.48c.279.14.45.28.541.387a.4.4 0 0 1 .077.128L19 5v.005l-.007.02a.4.4 0 0 1-.07.108c-.092.107-.263.247-.542.387-.558.279-1.398.48-2.381.48s-1.823-.201-2.381-.48c-.279-.14-.45-.28-.541-.387A.4.4 0 0 1 13 5.005z" clip-rule="evenodd"/>
</svg>
