<svg xmlns="http://www.w3.org/2000/svg" fill="none" viewBox="0 0 32 32">
  <g fill="#000" clip-path="url(#prefix__a)">
    <path d="m.293 16.707 3 2.998a1 1 0 0 0 1.415 0l3-2.998a1 1 0 1 0-1.415-1.415l-1.292 1.293V16a10.99 10.99 0 0 1 7.63-10.471 11.01 11.01 0 0 1 12.308 4.058 1 1 0 0 0 1.625-1.167 13 13 0 0 0-14.546-4.795A13 13 0 0 0 3 16v.585l-1.293-1.293a1.001 1.001 0 0 0-1.415 1.415zm31.414-1.414-3-2.998a1 1 0 0 0-1.415 0l-3 2.998a1 1 0 1 0 1.415 1.415L27 15.415V16a10.99 10.99 0 0 1-7.63 10.471 11.01 11.01 0 0 1-12.31-4.058 1 1 0 0 0-1.625 1.167 13 13 0 0 0 14.547 4.795A12.99 12.99 0 0 0 29 16v-.585l1.293 1.293a1.001 1.001 0 0 0 1.415-1.415z"/>
    <path fill-rule="evenodd" d="M11 10.003a2 2 0 0 1 2-1.999h6a2 2 0 0 1 2 1.999v6.888c0 .906-.246 1.795-.712 2.571l-2.285 3.805a1.5 1.5 0 0 1-1.286.728h-1.434a1.5 1.5 0 0 1-1.286-.728l-2.284-3.805a5 5 0 0 1-.713-2.57zm8 0h-6v6.888c0 .544.148 1.077.428 1.543l2.138 3.562h.868l2.139-3.562c.28-.466.427-1 .427-1.543z" clip-rule="evenodd"/>
  </g>
  <defs>
    <clipPath id="prefix__a">
      <path fill="#fff" d="M0 0h32v32H0z"/>
    </clipPath>
  </defs>
</svg>
