<svg xmlns="http://www.w3.org/2000/svg" fill="none" viewBox="0 0 32 32">
  <path fill="#000" d="M11 2a4 4 0 0 0-4 4v.5a.5.5 0 0 0 .5.5h17a.5.5 0 0 0 .5-.5V6a4 4 0 0 0-4-4zm.5 7a1 1 0 0 1 1 1v1.39l1.184-.394a1 1 0 1 1 .633 1.897l-1.184.395.834 1.112a1 1 0 1 1-1.6 1.2l-.867-1.156-.866 1.156a1 1 0 0 1-1.6-1.2l.834-1.112-1.184-.395a1 1 0 1 1 .633-1.897l1.183.394V10a1 1 0 0 1 1-1m9 0a1 1 0 0 1 1 1v1.39l1.184-.394a1 1 0 1 1 .633 1.897l-1.184.395.834 1.112a1 1 0 1 1-1.6 1.2l-.867-1.156-.866 1.156a1 1 0 0 1-1.6-1.2l.834-1.112-1.184-.395a1 1 0 1 1 .633-1.897l1.183.394V10a1 1 0 0 1 1-1m3.986 9H7.514a.5.5 0 0 0-.5.514l.008.311a9 9 0 0 0 1.182 3.864l3.352 5.81a3 3 0 0 0 2.6 1.501h3.689a3 3 0 0 0 2.598-1.5l3.353-5.811a9 9 0 0 0 1.182-3.87l.008-.306a.5.5 0 0 0-.5-.513"/>
</svg>
