<svg xmlns="http://www.w3.org/2000/svg" fill="none" viewBox="0 0 32 32">
  <path fill="#000" d="M5 16.918c0 2.66.54 5.292 1.588 7.736q.255.595.554 1.168a.122.122 0 0 1-.107.178 2.5 2.5 0 0 1-2.217-1.345l-2.026-3.89A7 7 0 0 1 2 17.53V9a3 3 0 0 1 2.502-2.959c.272-.045.498.183.498.459zM24.965 26a.122.122 0 0 1-.107-.178q.3-.573.554-1.168A19.6 19.6 0 0 0 27 16.918V6.5c0-.276.226-.504.498-.459A3 3 0 0 1 30 9v8.531a7 7 0 0 1-.792 3.234l-2.026 3.89A2.5 2.5 0 0 1 24.965 26"/>
  <path fill="#000" fill-rule="evenodd" d="M11 2a4 4 0 0 0-4 4v10.918c0 2.389.485 4.753 1.426 6.948a15 15 0 0 0 1.771 3.064L11.6 28.8A3 3 0 0 0 14 30h4a3 3 0 0 0 2.4-1.2l1.403-1.87a15 15 0 0 0 1.77-3.064A17.6 17.6 0 0 0 25 16.918V6a4 4 0 0 0-4-4zm.5 5A1.5 1.5 0 0 0 10 8.5v9a1.5 1.5 0 0 0 1.5 1.5h9a1.5 1.5 0 0 0 1.5-1.5v-9A1.5 1.5 0 0 0 20.5 7z" clip-rule="evenodd"/>
</svg>
