<svg xmlns="http://www.w3.org/2000/svg" fill="none" viewBox="0 0 32 32">
  <path fill="#000" fill-rule="evenodd" d="M12 9.5A1.5 1.5 0 0 1 13.5 8h5A1.5 1.5 0 0 1 20 9.5v3a1.5 1.5 0 0 1-1.5 1.5h-5a1.5 1.5 0 0 1-1.5-1.5zm2 .5v2h4v-2z" clip-rule="evenodd"/>
  <path fill="#000" fill-rule="evenodd" d="M8 6.137v13.155a9 9 0 0 0 .535 3.057l1.81 5.01A4 4 0 0 0 14.084 30h3.83a4 4 0 0 0 3.74-2.641l1.81-5.01A9 9 0 0 0 24 19.292V6.137a3.76 3.76 0 0 0-2.69-3.605 18.67 18.67 0 0 0-10.62 0A3.76 3.76 0 0 0 8 6.137m3.26-1.687a16.67 16.67 0 0 1 9.48 0A1.76 1.76 0 0 1 22 6.137V16h-4a1 1 0 1 0 0 2h4v1.292a7 7 0 0 1-.416 2.378l-1.81 5.01a2 2 0 0 1-1.88 1.32h-3.788a2 2 0 0 1-1.88-1.32l-1.81-5.01A7 7 0 0 1 10 19.292V18h4a1 1 0 0 0 0-2h-4V6.137c0-.78.512-1.466 1.26-1.687" clip-rule="evenodd"/>
</svg>
