<svg xmlns="http://www.w3.org/2000/svg" fill="none" viewBox="0 0 32 32">
  <path fill="#000" fill-rule="evenodd" d="M7 6a4 4 0 0 1 4-4h10a4 4 0 0 1 4 4v12.191a9 9 0 0 1-1.205 4.498l-3.352 5.81A3 3 0 0 1 17.845 30h-3.69a3 3 0 0 1-2.599-1.5l-3.352-5.811A9 9 0 0 1 7 18.19zm4-2a2 2 0 0 0-2 2v12.191a7 7 0 0 0 .936 3.498l3.353 5.81a1 1 0 0 0 .866.501h3.69a1 1 0 0 0 .866-.5l3.352-5.81a7 7 0 0 0 .937-3.5V6a2 2 0 0 0-2-2zm-7.553 6.106a1 1 0 0 1 .447 1.341l-.48.962a1 1 0 0 0 .062 1.002l.616.925a3 3 0 0 1 0 3.328l-.616.925a1 1 0 0 0-.063 1.002l.481.962a1 1 0 1 1-1.789.894l-.48-.962a3 3 0 0 1 .186-3.005l.617-.925a1 1 0 0 0 0-1.11l-.617-.925a3 3 0 0 1-.187-3.005l.481-.962a1 1 0 0 1 1.342-.447m25.105 0a1 1 0 0 0-.447 1.341l.481.962a1 1 0 0 1-.062 1.002l-.617.925a3 3 0 0 0 0 3.328l.617.925a1 1 0 0 1 .062 1.002l-.48.962a1 1 0 1 0 1.788.894l.481-.962a3 3 0 0 0-.187-3.005l-.617-.925a1 1 0 0 1 0-1.11l.617-.925a3 3 0 0 0 .187-3.005l-.48-.962a1 1 0 0 0-1.343-.447" clip-rule="evenodd"/>
</svg>
