<svg xmlns="http://www.w3.org/2000/svg" fill="none" viewBox="0 0 32 32">
  <path fill="#000" d="M17.247 11.833a1.5 1.5 0 1 0-2.495-1.667 1.5 1.5 0 0 0 2.495 1.667"/>
  <path fill="#000" fill-rule="evenodd" d="M11 5c0-1.135.894-1.894 1.724-2.309C13.614 2.246 14.774 2 16 2s2.386.246 3.276.691C20.106 3.106 21 3.865 21 5v22c0 1.135-.894 1.894-1.724 2.309-.89.445-2.05.691-3.276.691s-2.386-.246-3.276-.691C11.894 28.894 11 28.135 11 27zm2 .003v-.008l.007-.02a.4.4 0 0 1 .07-.108c.092-.107.263-.247.542-.387C14.177 4.201 15.017 4 16 4s1.823.201 2.381.48c.279.14.45.28.541.387a.4.4 0 0 1 .077.128L19 5v.005l-.007.02a.4.4 0 0 1-.07.108c-.092.107-.263.247-.542.387-.558.279-1.398.48-2.381.48s-1.823-.201-2.381-.48c-.279-.14-.45-.28-.541-.387A.4.4 0 0 1 13 5.005zm0 2.433c.848.365 1.897.564 3 .564s2.152-.2 3-.564v5.757c-.936.525-1.948.807-3 .807s-2.064-.282-3-.807zm0 7.973v11.596l.007.02a.5.5 0 0 0 .07.108c.092.108.263.248.542.387.558.279 1.398.48 2.381.48s1.823-.201 2.381-.48c.279-.14.45-.28.541-.387a.4.4 0 0 0 .077-.128L19 27V15.409A8 8 0 0 1 16 16a8 8 0 0 1-3-.591" clip-rule="evenodd"/>
</svg>
