<svg xmlns="http://www.w3.org/2000/svg" fill="none" viewBox="0 0 32 32">
  <path fill="#000" fill-rule="evenodd" d="M7 6a4 4 0 0 1 4-4h10a4 4 0 0 1 4 4v1.667a1 1 0 1 1-2 0V6a2 2 0 0 0-2-2H11a2 2 0 0 0-2 2v1.667a1 1 0 0 1-2 0zm1 11a1 1 0 0 1 1 1v.191a7 7 0 0 0 .937 3.498l3.352 5.81a1 1 0 0 0 .866.501h3.69a1 1 0 0 0 .866-.5l3.352-5.81a7 7 0 0 0 .937-3.5V18a1 1 0 1 1 2 0v.191a9 9 0 0 1-1.204 4.498l-3.353 5.81A3 3 0 0 1 17.845 30h-3.69a3 3 0 0 1-2.598-1.5l-3.353-5.811A9 9 0 0 1 7 18.19V18a1 1 0 0 1 1-1m3.5-8a1 1 0 0 1 1 1v1.39l1.184-.394a1 1 0 1 1 .632 1.897l-1.184.395.835 1.112a1 1 0 0 1-1.6 1.2l-.867-1.156-.867 1.156a1 1 0 1 1-1.6-1.2l.835-1.112-1.184-.395a1 1 0 1 1 .632-1.897l1.184.394V10a1 1 0 0 1 1-1m9 0a1 1 0 0 1 1 1v1.39l1.184-.394a1 1 0 1 1 .632 1.897l-1.183.395.834 1.112a1 1 0 0 1-1.6 1.2l-.867-1.156-.867 1.156a1 1 0 1 1-1.6-1.2l.834-1.112-1.183-.395a1 1 0 1 1 .632-1.897l1.184.394V10a1 1 0 0 1 1-1" clip-rule="evenodd"/>
</svg>
