<svg xmlns="http://www.w3.org/2000/svg" fill="none" viewBox="0 0 32 32">
  <g fill="#000" clip-path="url(#prefix__a)">
    <path d="m.293 16.707 3 2.998a1 1 0 0 0 1.415 0l3-2.998A1 1 0 0 0 7.001 15H5.046a10.99 10.99 0 0 1 7.585-9.471 11.01 11.01 0 0 1 12.308 4.058 1 1 0 0 0 1.625-1.167 13 13 0 0 0-14.546-4.795A13 13 0 0 0 3.038 15H1.002a1.001 1.001 0 0 0-.708 1.707z"/>
    <path d="M11 10.003a2 2 0 0 1 2-1.999h6a2 2 0 0 1 2 1.999v6.888c0 .906-.246 1.795-.712 2.571l-2.285 3.805a1.5 1.5 0 0 1-1.286.728h-1.434a1.5 1.5 0 0 1-1.286-.728l-2.284-3.805a5 5 0 0 1-.713-2.57z"/>
    <path d="m28.707 12.295 3 2.998A1 1 0 0 1 31 17h-2.038a12.99 12.99 0 0 1-8.98 11.375A13.01 13.01 0 0 1 5.437 23.58a1 1 0 1 1 1.625-1.167 11 11 0 0 0 12.308 4.058 11 11 0 0 0 7.586-9.47H25a1 1 0 0 1-.708-1.708l3-2.998a1 1 0 0 1 1.415 0"/>
  </g>
  <defs>
    <clipPath id="prefix__a">
      <path fill="#fff" d="M0 0h32v32H0z"/>
    </clipPath>
  </defs>
</svg>
