<svg xmlns="http://www.w3.org/2000/svg" fill="none" viewBox="0 0 32 32">
  <path fill="#000" fill-rule="evenodd" d="M21.31 2.531a18.67 18.67 0 0 0-10.62 0A3.76 3.76 0 0 0 8 6.136v13.155a9 9 0 0 0 .535 3.057l1.81 5.01a4 4 0 0 0 3.761 2.64h3.788a4 4 0 0 0 3.762-2.64l1.809-5.01A9 9 0 0 0 24 19.291V6.136a3.76 3.76 0 0 0-2.69-3.605M11.5 7.76a1.5 1.5 0 0 0-1.5 1.5v3a1.5 1.5 0 0 0 1.5 1.5h9a1.5 1.5 0 0 0 1.5-1.5v-3a1.5 1.5 0 0 0-1.5-1.5zm-1.5 9a1 1 0 0 1 1-1h3a1 1 0 1 1 0 2h-3a1 1 0 0 1-1-1m8-1a1 1 0 1 0 0 2h3a1 1 0 1 0 0-2z" clip-rule="evenodd"/>
</svg>
