<svg xmlns="http://www.w3.org/2000/svg" fill="none" viewBox="0 0 32 32">
  <path fill="#000" fill-rule="evenodd" d="M11 9.5A1.5 1.5 0 0 1 12.5 8h7A1.5 1.5 0 0 1 21 9.5v7a1.5 1.5 0 0 1-1.5 1.5h-7a1.5 1.5 0 0 1-1.5-1.5zm2 .5v6h6v-6z" clip-rule="evenodd"/>
  <path fill="#000" fill-rule="evenodd" d="M11 2a4 4 0 0 0-4 4H5a3 3 0 0 0-3 3v8.531a7 7 0 0 0 .792 3.234l2.026 3.89A2.5 2.5 0 0 0 7.035 26h2.519q.303.477.643.93L11.6 28.8A3 3 0 0 0 14 30h4a3 3 0 0 0 2.4-1.2l1.403-1.87q.339-.453.643-.93h2.519a2.5 2.5 0 0 0 2.217-1.345l2.026-3.89A7 7 0 0 0 30 17.53V9a3 3 0 0 0-3-3h-2a4 4 0 0 0-4-4zm12 4a2 2 0 0 0-2-2H11a2 2 0 0 0-2 2v10.918c0 2.118.43 4.214 1.264 6.16.404.942.919 1.832 1.533 2.652L13.2 27.6a1 1 0 0 0 .8.4h4a1 1 0 0 0 .8-.4l1.403-1.87c.614-.82 1.129-1.71 1.533-2.652A15.6 15.6 0 0 0 23 16.918zM7 8H5a1 1 0 0 0-1 1v8.531a5 5 0 0 0 .565 2.31l2.027 3.89a.5.5 0 0 0 .443.269h1.45l-.059-.134A17.6 17.6 0 0 1 7 16.918zm18 0h2a1 1 0 0 1 1 1v8.531a5 5 0 0 1-.565 2.31l-2.027 3.89a.5.5 0 0 1-.443.269h-1.45l.059-.134A17.6 17.6 0 0 0 25 16.918z" clip-rule="evenodd"/>
</svg>
