<svg xmlns="http://www.w3.org/2000/svg" fill="none" viewBox="0 0 32 32">
  <path fill="#000" fill-rule="evenodd" d="M11 9.5A1.5 1.5 0 0 1 12.5 8h7A1.5 1.5 0 0 1 21 9.5v7a1.5 1.5 0 0 1-1.5 1.5h-7a1.5 1.5 0 0 1-1.5-1.5zm2 .5v6h6v-6z" clip-rule="evenodd"/>
  <path fill="#000" fill-rule="evenodd" d="M7 6a4 4 0 0 1 4-4h10a4 4 0 0 1 4 4v10.918c0 2.389-.485 4.753-1.426 6.948a15 15 0 0 1-1.771 3.064L20.4 28.8A3 3 0 0 1 18 30h-4a3 3 0 0 1-2.4-1.2l-1.403-1.87a15 15 0 0 1-1.77-3.064A17.6 17.6 0 0 1 7 16.918zm4-2a2 2 0 0 0-2 2v10.918c0 2.118.43 4.214 1.264 6.16.404.942.919 1.832 1.533 2.652L13.2 27.6a1 1 0 0 0 .8.4h4a1 1 0 0 0 .8-.4l1.403-1.87c.614-.82 1.129-1.71 1.533-2.652A15.6 15.6 0 0 0 23 16.918V6a2 2 0 0 0-2-2z" clip-rule="evenodd"/>
</svg>
