<svg xmlns="http://www.w3.org/2000/svg" fill="none" viewBox="0 0 32 32">
  <path fill="#000" d="m30.927 14.625-1.75-4.375A1.99 1.99 0 0 0 27.323 9H23V8a1 1 0 0 0-1-1H3a2 2 0 0 0-2 2v14a2 2 0 0 0 2 2h2.125a4 4 0 0 0 7.75 0h6.25a4 4 0 0 0 7.75 0H29a2 2 0 0 0 2-2v-8a1 1 0 0 0-.073-.375M23 11h4.323l1.2 3H23zM3 9h18v8H3zm6 17a2 2 0 1 1 0-4 2 2 0 0 1 0 4m10.125-3h-6.25a4 4 0 0 0-7.75 0H3v-4h18v1.539A4.02 4.02 0 0 0 19.125 23M23 26a2 2 0 1 1 0-4 2 2 0 0 1 0 4m6-3h-2.125A4.01 4.01 0 0 0 23 20v-4h6z"/>
</svg>
