<svg xmlns="http://www.w3.org/2000/svg" fill="none" viewBox="0 0 32 32">
  <path fill="#000" d="m30.949 7.652-6.47-3.527A1 1 0 0 0 24 4h-4a1 1 0 0 0-1 1 3 3 0 0 1-6 0 1 1 0 0 0-1-1H8a1 1 0 0 0-.48.125L1.051 7.652a1.97 1.97 0 0 0-.824 2.658l2.41 4.601A2.05 2.05 0 0 0 4.458 16H7v10a2 2 0 0 0 2 2h14a2 2 0 0 0 2-2V16h2.543a2.05 2.05 0 0 0 1.822-1.089l2.409-4.601a1.97 1.97 0 0 0-.825-2.658M4.459 14a.1.1 0 0 1-.051-.016L2.01 9.408 7 6.685V14zm23.134-.018a.07.07 0 0 1-.052.018H25V6.685l4.99 2.723-2.397 4.575z"/>
</svg>
