<svg xmlns="http://www.w3.org/2000/svg" fill="none" viewBox="0 0 32 32">
  <path fill="#000" d="M30 15.829a14.055 14.055 0 0 0-23.531-9.11 13.95 13.95 0 0 0-4.463 9.11A2 2 0 0 0 4 18h11v7a4 4 0 1 0 8 0 1 1 0 0 0-2 0 2 2 0 0 1-4 0v-7h11a2 2 0 0 0 2-2.171M4 16a12.02 12.02 0 0 1 9.525-10.736C12.06 7.25 10.231 10.764 10.021 16zm8.019 0c.174-3.846 1.316-6.601 2.287-8.28A13.3 13.3 0 0 1 16 5.395a13.3 13.3 0 0 1 1.69 2.325c1.66 2.868 2.185 5.94 2.287 8.28zm9.956 0c-.21-5.236-2.039-8.75-3.5-10.742A12.01 12.01 0 0 1 28 16z"/>
</svg>
