<svg xmlns="http://www.w3.org/2000/svg" fill="none" viewBox="0 0 32 32">
  <path fill="#000" d="M21.828 10.171A10 10 0 1 0 10.171 21.83a10 10 0 1 0 11.657-11.66zM28 20c0 .19-.009.375-.023.564l-6.25-6.25A10 10 0 0 0 22 12.25 8.014 8.014 0 0 1 28 20M5.684 7.099l6.577 6.576a10 10 0 0 0-1.241 1.93l-6.483-6.48a8 8 0 0 1 1.147-2.026m3.44-2.561 6.483 6.482a10 10 0 0 0-1.93 1.241L7.1 5.684a8 8 0 0 1 2.026-1.146zm7.683 13.853-3.196-3.196c.452-.6.986-1.134 1.586-1.586l3.197 3.196a8 8 0 0 1-1.59 1.586zM19.414 15 17 12.586A7.9 7.9 0 0 1 20 12a7.9 7.9 0 0 1-.587 3zm-6.828 2L15 19.414A7.9 7.9 0 0 1 12 20a7.9 7.9 0 0 1 .586-3m5.739 2.739 6.576 6.577a8 8 0 0 1-2.026 1.146l-6.483-6.482c.69-.339 1.338-.755 1.933-1.241m1.413-1.414c.486-.594.903-1.241 1.242-1.93l6.482 6.48a8 8 0 0 1-1.146 2.024zm.012-8.319a10 10 0 0 0-2.061.267l-6.25-6.25c.186-.014.37-.023.56-.023a8.014 8.014 0 0 1 7.75 6.006zM4 12c0-.19.009-.375.022-.564l6.25 6.25a10 10 0 0 0-.266 2.064A8.014 8.014 0 0 1 4 12m8.25 10a10 10 0 0 0 2.061-.266l6.25 6.25a8 8 0 0 1-.564.022A8.014 8.014 0 0 1 12.25 22"/>
</svg>
