<svg xmlns="http://www.w3.org/2000/svg" fill="none" viewBox="0 0 32 32">
  <path fill="#000" d="M28.8 27.399a1 1 0 0 1-.8 1.6H4a1 1 0 0 1-.8-1.6 8.5 8.5 0 0 1 3.425-2.71 5 5 0 1 1 6.741 0 8.4 8.4 0 0 1 2.625 1.786 8.4 8.4 0 0 1 2.625-1.786 5 5 0 1 1 6.742 0 8.5 8.5 0 0 1 3.442 2.71m-25.4-11.6a1 1 0 0 0 1.4-.2 6.5 6.5 0 0 1 10.4 0 1 1 0 0 0 1.6 0 6.5 6.5 0 0 1 10.4 0 1.001 1.001 0 0 0 1.6-1.2 8.5 8.5 0 0 0-3.425-2.71 5 5 0 1 0-6.741 0 8.4 8.4 0 0 0-2.625 1.786 8.4 8.4 0 0 0-2.625-1.786 5 5 0 1 0-6.742 0 8.5 8.5 0 0 0-3.442 2.71 1 1 0 0 0 .2 1.4"/>
</svg>
