<svg xmlns="http://www.w3.org/2000/svg" fill="none" viewBox="0 0 32 32">
  <path fill="#000" d="M21 7a1 1 0 0 1 1-1h2V4a1 1 0 0 1 2 0v2h2a1 1 0 1 1 0 2h-2v2a1 1 0 1 1-2 0V8h-2a1 1 0 0 1-1-1m7.82 6.835A12.99 12.99 0 1 1 18.165 3.18a1 1 0 0 1-.33 1.973A11.01 11.01 0 0 0 5 16a10.95 10.95 0 0 0 2.78 7.301 9.96 9.96 0 0 1 4.507-3.593 6 6 0 1 1 7.425 0A9.96 9.96 0 0 1 24.22 23.3 10.95 10.95 0 0 0 27 16q0-.924-.152-1.835a.998.998 0 0 1 1.212-1.148 1 1 0 0 1 .76.818M16 19a4 4 0 1 0 0-8 4 4 0 0 0 0 8m0 8a10.95 10.95 0 0 0 6.74-2.313 8 8 0 0 0-13.48 0A10.95 10.95 0 0 0 16 27"/>
</svg>
