<svg xmlns="http://www.w3.org/2000/svg" fill="none" viewBox="0 0 32 32">
  <path fill="#000" d="m28.531 7.884-.582-.337a3 3 0 0 0 0-1.095l.582-.336a1 1 0 0 0-1-1.732l-.583.337A3 3 0 0 0 26 4.173V3.5a1 1 0 1 0-2 0v.673a3 3 0 0 0-.948.548l-.583-.337a1 1 0 0 0-1 1.732l.582.337a3 3 0 0 0 0 1.095l-.582.336a1 1 0 1 0 1 1.732l.583-.337c.28.24.601.425.948.549v.672a1 1 0 0 0 2 0v-.672c.347-.124.668-.31.948-.55l.583.338a1 1 0 1 0 1-1.733zM25 8a1 1 0 1 1 0-2 1 1 0 0 1 0 2m-9 1.5a5.5 5.5 0 1 1 0 11 5.5 5.5 0 0 1 0-11m12.82 4.335A12.99 12.99 0 1 1 18.165 3.18a1 1 0 0 1-.33 1.972A11.01 11.01 0 0 0 5 16a10.95 10.95 0 0 0 2.78 7.301 10 10 0 0 1 2.72-2.663.5.5 0 0 1 .604.04 7.476 7.476 0 0 0 9.784 0 .5.5 0 0 1 .604-.04 10 10 0 0 1 2.724 2.663A10.95 10.95 0 0 0 27 16q0-.924-.152-1.835a.999.999 0 1 1 1.972-.33"/>
</svg>
