<svg xmlns="http://www.w3.org/2000/svg" fill="none" viewBox="0 0 32 32">
  <path fill="#000" d="M24.766 24.356A1.001 1.001 0 0 1 24 26H3a1 1 0 0 1-.765-1.644c1.868-2.222 4.19-3.801 6.771-4.646a8.5 8.5 0 1 1 8.988 0c2.581.845 4.904 2.424 6.772 4.646m6.132-5.106a1 1 0 0 1-1.368.366l-.584-.337c-.28.24-.6.425-.947.549v.672a1 1 0 0 1-2 0v-.672a3 3 0 0 1-.948-.55l-.583.338a1 1 0 1 1-1-1.732l.582-.337a3 3 0 0 1 0-1.095l-.582-.336a.999.999 0 0 1 .24-1.832 1 1 0 0 1 .76.1l.583.337a3 3 0 0 1 .948-.549V13.5a1 1 0 1 1 2 0v.672c.347.123.668.31.947.55l.584-.338a1.003 1.003 0 0 1 1.366.366 1.003 1.003 0 0 1-.366 1.366l-.582.337c.068.361.068.733 0 1.095l.582.336a1 1 0 0 1 .367 1.366zM27 18a1 1 0 1 0 0-2.002A1 1 0 0 0 27 18"/>
</svg>
