<svg xmlns="http://www.w3.org/2000/svg" fill="none" viewBox="0 0 32 32">
  <path fill="#000" d="M28 6v3.5a1 1 0 0 1-2 0V6h-3.5a1 1 0 1 1 0-2H26a2 2 0 0 1 2 2m-1 15.5a1 1 0 0 0-1 1V26h-3.5a1 1 0 0 0 0 2H26a2 2 0 0 0 2-2v-3.5a1 1 0 0 0-1-1M9.5 26H6v-3.5a1 1 0 1 0-2 0V26a2 2 0 0 0 2 2h3.5a1 1 0 0 0 0-2M5 10.5a1 1 0 0 0 1-1V6h3.5a1 1 0 1 0 0-2H6a2 2 0 0 0-2 2v3.5a1 1 0 0 0 1 1m7.625 7.189a8.5 8.5 0 0 0-3.425 2.71A1 1 0 0 0 10 22h12a1 1 0 0 0 .8-1.601 8.5 8.5 0 0 0-3.425-2.71 5 5 0 1 0-6.742 0z"/>
</svg>
