<svg xmlns="http://www.w3.org/2000/svg" fill="none" viewBox="0 0 32 32">
  <path fill="#000" d="M28 6v3.5a1 1 0 0 1-2 0V6h-3.5a1 1 0 1 1 0-2H26a2 2 0 0 1 2 2m-1 15.5a1 1 0 0 0-1 1V26h-3.5a1 1 0 0 0 0 2H26a2 2 0 0 0 2-2v-3.5a1 1 0 0 0-1-1M9.5 26H6v-3.5a1 1 0 1 0-2 0V26a2 2 0 0 0 2 2h3.5a1 1 0 0 0 0-2M5 10.5a1 1 0 0 0 1-1V6h3.5a1 1 0 1 0 0-2H6a2 2 0 0 0-2 2v3.5a1 1 0 0 0 1 1M22 22a1 1 0 0 1-.801-.399 6.5 6.5 0 0 0-10.4 0 1 1 0 1 1-1.6-1.202 8.5 8.5 0 0 1 3.426-2.71 5 5 0 1 1 6.742 0 8.5 8.5 0 0 1 3.43 2.71A1 1 0 0 1 22 22m-6-5a3 3 0 1 0 0-5.999A3 3 0 0 0 16 17"/>
</svg>
