<svg xmlns="http://www.w3.org/2000/svg" fill="none" viewBox="0 0 32 32">
  <path fill="#000" d="M30.6 18.8a1 1 0 0 1-1.4-.2A6.45 6.45 0 0 0 24 16a1 1 0 0 1 0-2 3 3 0 1 0-2.905-3.75 1 1 0 1 1-1.938-.5 5 5 0 1 1 8.218 4.939 8.5 8.5 0 0 1 3.429 2.71 1 1 0 0 1-.204 1.4zm-6.735 7.7a1 1 0 1 1-1.73 1 7.124 7.124 0 0 0-12.27 0 1 1 0 1 1-1.73-1 9 9 0 0 1 4.217-3.74 6 6 0 1 1 7.295 0 9 9 0 0 1 4.218 3.74M16 22a4 4 0 1 0 0-8 4 4 0 0 0 0 8m-7-7a1 1 0 0 0-1-1 3.001 3.001 0 1 1 2.905-3.75 1 1 0 1 0 1.937-.5 5 5 0 1 0-8.217 4.939 8.5 8.5 0 0 0-3.425 2.71 1 1 0 0 0 1.6 1.2A6.45 6.45 0 0 1 8 16a1 1 0 0 0 1-1"/>
</svg>
