<svg xmlns="http://www.w3.org/2000/svg" fill="none" viewBox="0 0 32 32">
  <path fill="#000" d="M18 19.71a8.5 8.5 0 1 0-8.988 0c-2.58.845-4.903 2.424-6.77 4.646a.999.999 0 1 0 1.53 1.288C6.281 22.649 9.738 21 13.5 21s7.219 1.649 9.734 4.644a1 1 0 0 0 1.532-1.288c-1.869-2.222-4.191-3.8-6.766-4.646M7 12.5a6.5 6.5 0 1 1 6.5 6.5A6.507 6.507 0 0 1 7 12.5m23.531 5.384-.582-.336a3 3 0 0 0 0-1.095l.582-.337a1 1 0 1 0-1-1.732l-.584.337c-.279-.24-.6-.425-.947-.548V13.5a1 1 0 0 0-2 0v.673a3 3 0 0 0-.948.548l-.583-.337a.998.998 0 0 0-1.492.736 1 1 0 0 0 .492.996l.582.337a3 3 0 0 0 0 1.095l-.582.336a1 1 0 0 0 1 1.732l.583-.337c.28.24.601.426.948.549v.672a1 1 0 1 0 2 0v-.672a3 3 0 0 0 .947-.55l.584.338a1 1 0 1 0 1-1.732M26 17a1 1 0 1 1 2 0 1 1 0 0 1-2 0"/>
</svg>
