<svg xmlns="http://www.w3.org/2000/svg" fill="none" viewBox="0 0 32 32">
  <path fill="#000" d="m28.531 7.884-.582-.337a3 3 0 0 0 0-1.095l.582-.336a1 1 0 0 0-1-1.732l-.583.337A3 3 0 0 0 26 4.173V3.5a1 1 0 1 0-2 0v.673a3 3 0 0 0-.948.548l-.583-.337a1 1 0 0 0-1 1.732l.582.337a3 3 0 0 0 0 1.095l-.582.336a1 1 0 1 0 1 1.732l.583-.337c.28.24.601.425.948.549v.672a1 1 0 0 0 2 0v-.672c.347-.124.668-.31.948-.55l.583.338a1 1 0 1 0 1-1.733zM24 7a1 1 0 1 1 2 0 1 1 0 0 1-2 0m3.669 6.014a1 1 0 0 0-.822 1.151Q27 15.075 27 16a10.95 10.95 0 0 1-2.78 7.301 9.96 9.96 0 0 0-4.508-3.593 6 6 0 1 0-7.425 0A9.96 9.96 0 0 0 7.78 23.3 11 11 0 0 1 17.835 5.153a1 1 0 0 0 .33-1.973A12.99 12.99 0 1 0 28.82 13.835a1 1 0 0 0-1.151-.821M12 15a4 4 0 1 1 8 0 4 4 0 0 1-8 0m-2.74 9.688a8 8 0 0 1 13.48 0 10.98 10.98 0 0 1-13.48 0"/>
</svg>
