<svg xmlns="http://www.w3.org/2000/svg" fill="none" viewBox="0 0 32 32">
  <path fill="#000" d="M14.656 19.74a7.499 7.499 0 1 0-8.312 0A11.98 11.98 0 0 0 .44 24.454a1 1 0 1 0 1.675 1.092 10 10 0 0 1 16.768 0 1 1 0 0 0 1.675-1.092 11.98 11.98 0 0 0-5.903-4.714zM5 13.5a5.5 5.5 0 1 1 11 0 5.5 5.5 0 0 1-11 0m26.268 12.338a1 1 0 0 1-1.384-.292A9.98 9.98 0 0 0 21.5 21a1 1 0 1 1 0-2 5.5 5.5 0 1 0-2.042-10.609 1 1 0 1 1-.743-1.856 7.5 7.5 0 0 1 6.941 13.205 11.98 11.98 0 0 1 5.903 4.714 1 1 0 0 1-.291 1.384"/>
</svg>
