<svg xmlns="http://www.w3.org/2000/svg" fill="none" viewBox="0 0 32 32">
  <path fill="#000" d="M22 14.5a1.5 1.5 0 0 1-1.5 1.5H19v-3h1.5a1.5 1.5 0 0 1 1.5 1.5M32 16a10.01 10.01 0 0 1-10 10H10a10 10 0 0 1 0-20h12a10.01 10.01 0 0 1 10 10m-17.125-4.926a1 1 0 0 0-1.301.551l-2.324 5.718-2.324-5.718a1 1 0 1 0-1.852.75l3.25 8a1 1 0 0 0 1.852 0l3.25-8a1 1 0 0 0-.551-1.301m7.729 6.22A3.5 3.5 0 0 0 20.5 11H18a1 1 0 0 0-1 1v8a1 1 0 0 0 2 0v-2h1.5q.101.002.201-.006l1.43 2.5a1.003 1.003 0 1 0 1.744-.994z"/>
</svg>
