<svg xmlns="http://www.w3.org/2000/svg" fill="none" viewBox="0 0 32 32">
  <path fill="#000" d="m15.426 12.375-3.25 8a1 1 0 0 1-1.852 0l-3.25-8a1 1 0 1 1 1.852-.75l2.324 5.718 2.324-5.718a1.001 1.001 0 1 1 1.852.75M32 16a10.01 10.01 0 0 1-10 10H10a10 10 0 0 1 0-20h12a10.01 10.01 0 0 1 10 10m-2 0a8.01 8.01 0 0 0-8-8H10a8 8 0 0 0 0 16h12a8.01 8.01 0 0 0 8-8m-7.395 1.294 1.27 2.206a1 1 0 0 1-1.738.992l-1.43-2.5c-.066 0-.133.007-.2.007H19v2a1 1 0 0 1-2 0V12a1 1 0 0 1 1-1h2.5a3.5 3.5 0 0 1 2.105 6.294M19 16h1.5a1.5 1.5 0 1 0 0-3H19z"/>
</svg>
