<svg xmlns="http://www.w3.org/2000/svg" fill="none" viewBox="0 0 32 32">
  <path fill="#000" d="M17 13.5a3.5 3.5 0 1 0-7 0 3.5 3.5 0 0 0 7 0M13.5 15a1.5 1.5 0 1 1 0-3 1.5 1.5 0 0 1 0 3m8.5-1a2 2 0 1 1 0 4 2 2 0 0 1 0-4m-4 8a2 2 0 1 1-4 0 2 2 0 0 1 4 0m12-7h-2.043a11.94 11.94 0 0 0-2.798-6.744l1.549-1.549a1 1 0 0 0-1.415-1.414L23.75 6.84A11.94 11.94 0 0 0 17 4.043V2a1 1 0 0 0-2 0v2.043A11.94 11.94 0 0 0 8.256 6.84L6.707 5.293a1 1 0 1 0-1.414 1.414l1.548 1.55a11.94 11.94 0 0 0-2.798 6.75H2a1 1 0 1 0 0 2h2.043A11.94 11.94 0 0 0 6.84 23.75l-1.548 1.543a1 1 0 1 0 1.414 1.415l1.55-1.55a11.94 11.94 0 0 0 6.75 2.8V30a1 1 0 1 0 2 0v-2.043a11.94 11.94 0 0 0 6.743-2.798l1.549 1.549a1.001 1.001 0 0 0 1.415-1.415l-1.555-1.543a11.94 11.94 0 0 0 2.8-6.75H30a1 1 0 0 0 0-2M16 26a10 10 0 1 1 10-10 10.01 10.01 0 0 1-10 10"/>
</svg>
