<svg xmlns="http://www.w3.org/2000/svg" fill="none" viewBox="0 0 32 32">
  <path fill="#000" d="M16 3a13 13 0 1 0 13 13A13.013 13.013 0 0 0 16 3m10.218 17.073a11 11 0 0 1-11.687.472L16.577 17h10.375a10.9 10.9 0 0 1-.735 3.073zM11.39 6.013c.96-.444 1.98-.747 3.027-.9A11 11 0 0 1 20.668 15h-4.09zM26.954 15H22.67a13.02 13.02 0 0 0-4.47-9.779A11.02 11.02 0 0 1 26.954 15M9.659 7.016l2.14 3.707a13.02 13.02 0 0 0-6.233 8.76A10.99 10.99 0 0 1 9.66 7.017zM7.363 22.804a11 11 0 0 1 5.436-10.349L14.845 16l-5.186 8.984a11 11 0 0 1-2.296-2.18M16 27a10.9 10.9 0 0 1-4.61-1.014l2.141-3.709A13.03 13.03 0 0 0 24.222 23.3 10.98 10.98 0 0 1 16 27"/>
</svg>
