<svg xmlns="http://www.w3.org/2000/svg" fill="none" viewBox="0 0 32 32">
  <path fill="#000" d="M15 17v-7a1 1 0 0 1 2 0v7a1 1 0 1 1-2 0m14-5.556v9.112a1.98 1.98 0 0 1-.586 1.414l-6.444 6.444a1.98 1.98 0 0 1-1.414.586h-9.112a1.98 1.98 0 0 1-1.414-.586L3.586 21.97A1.98 1.98 0 0 1 3 20.556v-9.112a1.98 1.98 0 0 1 .586-1.414l6.444-6.444A1.98 1.98 0 0 1 11.444 3h9.112a1.98 1.98 0 0 1 1.414.586l6.444 6.444A1.98 1.98 0 0 1 29 11.444m-2 0L20.556 5h-9.112L5 11.444v9.112L11.444 27h9.112L27 20.556zM16 20a1.5 1.5 0 1 0 0 3 1.5 1.5 0 0 0 0-3"/>
</svg>
