<svg xmlns="http://www.w3.org/2000/svg" fill="none" viewBox="0 0 32 32">
  <path fill="#000" d="M26 16a10 10 0 0 0-4.088-8.059l-.78-4.297A2 2 0 0 0 19.165 2h-6.33a2 2 0 0 0-1.968 1.644l-.78 4.297a9.987 9.987 0 0 0 0 16.118l.78 4.297A2 2 0 0 0 12.835 30h6.33a2 2 0 0 0 1.967-1.644l.78-4.297A10 10 0 0 0 26 16M12.835 4h6.33l.489 2.694a9.97 9.97 0 0 0-7.308 0zM8 16a8 8 0 1 1 8 8 8.01 8.01 0 0 1-8-8m11.165 12h-6.33l-.489-2.694a9.97 9.97 0 0 0 7.308 0zM15 16v-5a1 1 0 1 1 2 0v4h4a1 1 0 0 1 0 2h-5a1 1 0 0 1-1-1"/>
</svg>
