<svg xmlns="http://www.w3.org/2000/svg" fill="none" viewBox="0 0 32 32">
  <path fill="#000" d="M27 5H5a2 2 0 0 0-2 2v18a2 2 0 0 0 2 2h22a2 2 0 0 0 2-2V7a2 2 0 0 0-2-2m-2.552 16.895C24.358 21.94 22.21 23 20 23c-2.236 0-3.411-.587-4.447-1.105-.96-.48-1.79-.895-3.553-.895-1.73 0-3.536.886-3.554.895a1.001 1.001 0 0 1-.893-1.79C7.643 20.06 9.789 19 12 19c2.236 0 3.411.587 4.448 1.105.96.48 1.788.895 3.552.895 1.73 0 3.536-.886 3.554-.895a1 1 0 0 1 .894 1.79m0-5C24.358 16.94 22.21 18 20 18c-2.236 0-3.411-.587-4.447-1.105-.96-.48-1.79-.895-3.553-.895-1.73 0-3.536.886-3.554.895a1 1 0 1 1-.893-1.79C7.643 15.06 9.789 14 12 14c2.236 0 3.411.588 4.448 1.105.96.48 1.788.895 3.552.895 1.73 0 3.536-.886 3.554-.895a1 1 0 0 1 .894 1.79m0-5C24.358 11.94 22.21 13 20 13c-2.236 0-3.411-.588-4.447-1.105-.96-.48-1.79-.895-3.553-.895-1.73 0-3.536.886-3.554.895a1 1 0 1 1-.893-1.79C7.643 10.06 9.789 9 12 9c2.236 0 3.411.588 4.448 1.105.96.48 1.788.895 3.552.895 1.73 0 3.536-.886 3.554-.895a1 1 0 0 1 .894 1.79"/>
</svg>
