<svg xmlns="http://www.w3.org/2000/svg" fill="none" viewBox="0 0 32 32">
  <path fill="#000" d="m26.74 26.328-20-22a1 1 0 1 0-1.48 1.345l2.093 2.302A10 10 0 0 0 15 22.95V25H4a1 1 0 0 0 0 2h20.649l.611.672a1 1 0 1 0 1.48-1.345zM8 13a7.96 7.96 0 0 1 .783-3.452l2.302 2.532a5 5 0 0 0 5.363 5.899l2.302 2.535A8 8 0 0 1 8 13m9 12v-2.051a10 10 0 0 0 3.18-.864L22.83 25zM10.69 5.664a1 1 0 0 1 .375-1.364A10 10 0 0 1 24.19 18.738a1 1 0 1 1-1.638-1.15 8 8 0 0 0-10.5-11.55 1 1 0 0 1-1.362-.374m8.164 8.265a3 3 0 0 0-3.509-3.858 1 1 0 1 1-.433-1.946 5 5 0 0 1 5.838 6.422 1 1 0 0 1-1.901-.618z"/>
</svg>
