<svg xmlns="http://www.w3.org/2000/svg" fill="none" viewBox="0 0 32 32">
  <path fill="#000" d="M22.27 23h-8.355A6 6 0 1 1 3.2 18.399 1 1 0 1 1 4.8 19.6 4 4 0 1 0 12 22a1 1 0 0 1 1-1h9.27a2 2 0 1 1 0 2M8 24a2 2 0 0 0 1.76-2.951l4.471-7.268a1 1 0 0 0-.327-1.375A4 4 0 1 1 19.666 7.4a1 1 0 1 0 1.834-.8 6 6 0 1 0-9.452 6.916L8.055 20H8a2 2 0 1 0 0 4m16-8c-.77 0-1.535.148-2.25.436L17.76 9.95A2 2 0 1 0 16 11h.055l4.473 7.269a1 1 0 0 0 1.375.326 4.001 4.001 0 1 1 3.88 6.987A4 4 0 0 1 24 26a1 1 0 0 0 0 2 6 6 0 1 0 0-12"/>
</svg>
