<svg xmlns="http://www.w3.org/2000/svg" fill="none" viewBox="0 0 32 32">
  <path fill="#000" d="m19.073 18.154 2.875 1.435A3 3 0 0 1 19 22a9.01 9.01 0 0 1-9-9 3 3 0 0 1 2.411-2.943l1.435 2.875-1.221 1.818a1 1 0 0 0-.091.939 7.06 7.06 0 0 0 3.768 3.768 1 1 0 0 0 .948-.082zM29 16A13 13 0 0 1 9.89 27.477l-4.256 1.42a2 2 0 0 1-2.53-2.53l1.418-4.257A13 13 0 1 1 29 16m-5 3a1 1 0 0 0-.552-.895l-4-2a1 1 0 0 0-1 .063l-1.837 1.224a5.07 5.07 0 0 1-2-2l1.225-1.836a1 1 0 0 0 .063-1l-2-4A1 1 0 0 0 13 8a5 5 0 0 0-5 5 11.013 11.013 0 0 0 11 11 5 5 0 0 0 5-5"/>
</svg>
