<svg xmlns="http://www.w3.org/2000/svg" fill="none" viewBox="0 0 32 32">
  <path fill="#000" d="M26.74 26.328a1 1 0 1 1-1.48 1.345l-4.209-4.625-3.512 4.235a2 2 0 0 1-1.54.717 2 2 0 0 1-1.538-.721L1.456 11.6a1.96 1.96 0 0 1-.442-1.486 2 2 0 0 1 .77-1.352A23.5 23.5 0 0 1 5.83 6.3l-.57-.625a1 1 0 0 1 1.48-1.347zm4.25-16.214a2 2 0 0 0-.771-1.352A23.33 23.33 0 0 0 15.999 4c-1.482 0-2.962.138-4.42.412a1 1 0 0 0-.554 1.655l11.831 13.015a1 1 0 0 0 .74.328h.029a1 1 0 0 0 .75-.363l6.169-7.447a1.96 1.96 0 0 0 .442-1.486z"/>
</svg>
