<svg xmlns="http://www.w3.org/2000/svg" fill="none" viewBox="0 0 32 32">
  <path fill="#000" d="M26.74 26.328a.999.999 0 0 1-.786 1.68 1 1 0 0 1-.694-.335l-6.5-7.144a7.5 7.5 0 0 0-7.176.905.998.998 0 0 1-1.576-.568 1 1 0 0 1 .398-1.048A9.43 9.43 0 0 1 16 18c.16 0 .319 0 .477.013l-3.364-3.702c-2.004.44-3.88 1.33-5.488 2.603a1 1 0 0 1-1.409-.164 1 1 0 0 1 .159-1.404 15.5 15.5 0 0 1 5.214-2.707L8.67 9.425a19.4 19.4 0 0 0-5.036 3 1.002 1.002 0 0 1-1.27-1.55A21.5 21.5 0 0 1 7.25 7.858L5.26 5.673a1 1 0 1 1 1.48-1.345zM16 24a1.5 1.5 0 1 0 0 3 1.5 1.5 0 0 0 0-3m13.635-13.125a21.54 21.54 0 0 0-16.385-4.7 1 1 0 1 0 .25 1.984 19.53 19.53 0 0 1 14.865 4.262 1 1 0 1 0 1.27-1.546m-5.26 6.039a.998.998 0 0 0 1.583-.51 1 1 0 0 0-.34-1.058 15.5 15.5 0 0 0-6.467-3.025 1.002 1.002 0 0 0-1.052 1.536 1 1 0 0 0 .651.423 13.5 13.5 0 0 1 5.625 2.634"/>
</svg>
