<svg xmlns="http://www.w3.org/2000/svg" fill="none" viewBox="0 0 32 32">
  <path fill="#000" d="M28.689 12.266a1.026 1.026 0 0 1 .076 1.388 1 1 0 0 1-1.465.053l-2.294-2.293-2.292 2.293a1 1 0 0 1-1.465-.053 1.027 1.027 0 0 1 .076-1.388L23.593 10l-2.264-2.264a1.026 1.026 0 0 1-.052-1.421 1 1 0 0 1 1.437-.022l2.292 2.293L27.3 6.293a1 1 0 0 1 1.436.022 1.026 1.026 0 0 1-.051 1.421L26.421 10zM26.5 15.59a3 3 0 0 1-.608-.468l-.526-.525a.5.5 0 0 0-.706 0l-.535.529a3 3 0 0 1-4.276-.033c-1.149-1.184-1.087-3.09.081-4.257l.476-.478a.5.5 0 0 0 0-.707l-.523-.525a3 3 0 0 1 .007-4.25.347.347 0 0 0-.19-.589A24 24 0 0 0 16 4 23.35 23.35 0 0 0 1.785 8.762a1.99 1.99 0 0 0-.704 2.14c.077.256.204.494.375.698l13.009 15.679a1.99 1.99 0 0 0 2.385.532 2 2 0 0 0 .689-.532l9.075-10.938a.502.502 0 0 0-.114-.752z"/>
</svg>
