<svg xmlns="http://www.w3.org/2000/svg" fill="none" viewBox="0 0 32 32">
  <path fill="#000" d="M23 23a4 4 0 0 1-4 4c-1.712 0-3.369-1.116-3.938-2.652a1 1 0 0 1 1.876-.695C17.218 24.409 18.125 25 19 25a2 2 0 0 0 0-4H5a1 1 0 0 1 0-2h14a4 4 0 0 1 4 4m-8-10a4 4 0 1 0 0-8c-1.713 0-3.369 1.116-3.938 2.652a1 1 0 0 0 1.876.696C13.217 7.59 14.124 7 15 7a2 2 0 0 1 0 4H3a1 1 0 0 0 0 2zm11-4c-1.712 0-3.369 1.116-3.938 2.652a1 1 0 0 0 1.875.696C24.218 11.59 25.125 11 26 11a2 2 0 0 1 0 4H4a1 1 0 0 0 0 2h22a4 4 0 1 0 0-8"/>
</svg>
