<svg xmlns="http://www.w3.org/2000/svg" fill="none" viewBox="0 0 32 32">
  <path fill="#000" d="M15 13H3a1 1 0 0 1-1-1.066A1.02 1.02 0 0 1 3.034 11H14a1 1 0 0 0 1-1.066A1.02 1.02 0 0 0 13.966 9h-2.43a.5.5 0 0 1-.5-.572A4 4 0 1 1 15 13m14.99-.286a4 4 0 0 0-7.949-.287.5.5 0 0 0 .5.573h2.43a1.02 1.02 0 0 1 1.032.934 1 1 0 0 1-1 1.066H4.033A1.02 1.02 0 0 0 3 15.934 1 1 0 0 0 4 17h22a4 4 0 0 0 3.99-4.286M19 19H5.034A1.02 1.02 0 0 0 4 19.934 1 1 0 0 0 5 21h12.966a1.02 1.02 0 0 1 1.031.934 1 1 0 0 1-1 1.066h-2.46a.498.498 0 0 0-.5.573A4 4 0 1 0 19 19"/>
</svg>
