<svg xmlns="http://www.w3.org/2000/svg" fill="none" viewBox="0 0 32 32">
  <path fill="#000" d="M28.345 8.625a1 1 0 0 0-1.605-.36l-5.037 4.649-2.154-.463-.463-2.153 4.649-5.038a1 1 0 0 0-.36-1.605A9 9 0 0 0 11 12a9 9 0 0 0 .75 3.618l-7.526 6.507q-.029.024-.054.049a4 4 0 1 0 5.706 5.605l6.507-7.529A9 9 0 0 0 29 12a9 9 0 0 0-.655-3.375M20 19a7 7 0 0 1-3.384-.875 1 1 0 0 0-1.24.221L8.39 26.44a2 2 0 0 1-2.83-2.83l8.087-6.986a1 1 0 0 0 .22-1.241 7 7 0 0 1 7.296-10.289l-3.9 4.226a1 1 0 0 0-.243.888l.708 3.291a1 1 0 0 0 .767.768l3.294.707a1 1 0 0 0 .887-.242l4.227-3.9A7.008 7.008 0 0 1 20 19"/>
</svg>
