<svg xmlns="http://www.w3.org/2000/svg" fill="none" viewBox="0 0 32 32">
  <path fill="#000" d="M29.291 8.69a3 3 0 0 0-1.811-2.05C23.195 4.985 16.375 5 16 5S8.805 4.985 4.52 6.64a3 3 0 0 0-1.811 2.05C2.385 9.938 2 12.217 2 16s.385 6.063.709 7.31a3 3 0 0 0 1.811 2.051C8.625 26.945 15.05 27 15.918 27h.165c.867 0 7.296-.055 11.397-1.639a3 3 0 0 0 1.811-2.051c.324-1.25.709-3.527.709-7.31s-.385-6.063-.709-7.31m-9.014 7.726-6 4A.5.5 0 0 1 13.5 20v-8a.5.5 0 0 1 .777-.416l6 4a.5.5 0 0 1 0 .832"/>
</svg>
