<svg fill="none" viewBox="0 0 24 24">
  <g clip-path="url(#prefix__a)">
    <path fill="#2A5ADA" d="M12 24c6.627 0 12-5.373 12-12S18.627 0 12 0 0 5.373 0 12s5.373 12 12 12Z"/>
    <path fill="#fff" d="m12 4.5-1.376.791-3.75 2.168-1.376.791v7.5l1.376.791 3.784 2.168 1.376.791 1.377-.791 3.715-2.168 1.376-.791v-7.5l-1.376-.791-3.75-2.168L12 4.5Zm-3.75 9.667V9.833L12 7.665l3.75 2.168v4.334L12 16.335l-3.75-2.168Z"/>
  </g>
  <defs>
    <clipPath id="prefix__a">
      <path fill="#fff" d="M0 0h24v24H0z"/>
    </clipPath>
  </defs>
</svg>
