<svg fill="none" viewBox="0 0 24 24">
  <g clip-path="url(#prefix__a)">
    <path fill="#F29D40" d="M12 24c6.627 0 12-5.373 12-12S18.627 0 12 0 0 5.373 0 12s5.373 12 12 12Z"/>
    <path fill="#fff" d="m17.046 7.358-.439.44a6.22 6.22 0 0 1 0 8.393l.44.44a6.848 6.848 0 0 0 0-9.283v.01Zm-9.239.038a6.22 6.22 0 0 1 8.394 0l.44-.44a6.848 6.848 0 0 0-9.283 0l.45.44Zm-.411 8.799a6.22 6.22 0 0 1 0-8.389l-.44-.44a6.847 6.847 0 0 0 0 9.284l.44-.454Zm8.799.406a6.22 6.22 0 0 1-8.393 0l-.44.44a6.847 6.847 0 0 0 9.283 0l-.45-.44Zm-1.421-6.067c-.088-.917-.88-1.224-1.88-1.318V7.954h-.773v1.239h-.617v-1.24h-.768v1.272H9.168v.827s.571-.01.562 0a.4.4 0 0 1 .44.34v3.48a.27.27 0 0 1-.094.188.267.267 0 0 1-.2.068c.01.009-.562 0-.562 0l-.146.924h1.554v1.291h.773v-1.272h.618v1.266h.774v-1.276c1.307-.08 2.217-.402 2.332-1.624.092-.984-.37-1.424-1.11-1.601.45-.221.727-.631.665-1.302Zm-1.084 2.75c0 .96-1.646.851-2.17.851v-1.704c.524.001 2.17-.15 2.17.853Zm-.359-2.401c0 .878-1.373.771-1.81.771v-1.549c.436 0 1.81-.138 1.81.778Z"/>
    <path fill="#fff" d="M11.998 20a8 8 0 1 1 .004-16 8 8 0 0 1-.004 16Zm0-15.376a7.372 7.372 0 1 0 .012 14.743A7.372 7.372 0 0 0 12 4.624Z"/>
  </g>
  <defs>
    <clipPath id="prefix__a">
      <path fill="#fff" d="M0 0h24v24H0z"/>
    </clipPath>
  </defs>
</svg>
