
<svg xmlns="http://www.w3.org/2000/svg" viewBox="0 0 320 200">
    <g fill="none" fill-rule="evenodd">
        <path fill="#7A7F80" fill-rule="nonzero" d="M152 49.75h-20a2.25 2.25 0 0 0-2.25 2.25v36a2.25 2.25 0 0 0 2.25 2.25h20a2.25 2.25 0 0 0 2.25-2.25V52a2.25 2.25 0 0 0-2.25-2.25zm-20 .5h20c.966 0 1.75.784 1.75 1.75v36a1.75 1.75 0 0 1-1.75 1.75h-20a1.75 1.75 0 0 1-1.75-1.75V52c0-.966.784-1.75 1.75-1.75z"/>
        <path fill="#7A7F80" fill-rule="nonzero" d="M152.093 51.907L153 51a.586.586 0 0 1 1 .414V89a1 1 0 0 1-1 1h-21.266a1 1 0 0 1-.865-1.501l21.065-36.386a1 1 0 0 1 .159-.206z"/>
        <rect width="22" height="38" x="131" y="51" fill="#D8D9DA" fill-rule="nonzero" rx="1"/>
        <path fill="#7A7F80" fill-rule="nonzero" d="M132 52h20l-20 32z"/>
        <circle cx="142" cy="86.5" r="1.5" fill="#7A7F80"/>
        <path fill="#FFF" fill-rule="nonzero" d="M152 52v32h-20z"/>
        <path fill="#FFF" fill-rule="nonzero" d="M151 53v31h-18z"/>
        <path fill="#C6E2BA" fill-rule="nonzero" d="M133 53h18v21l-10 9h-8z"/>
        <path fill="#FFF" d="M150 96c-2.667-7.667-3.833-14.667-3.5-21 .333-6.333 3.333-10.333 9-12 6-1.333 10.5 0 13.5 4s6.167 10 9.5 18c2.333 5 4.167 8.333 5.5 10 2 2.5 3 5 3.5 7.5.333 1.667 1.167 4.167 2.5 7.5 4.333 9.333 9.667 17.667 16 25 9.5 11-31 36-32.5 31s-13-47-14-50-1.5-4-3-6c-1-1.333-2.167-3.667-3.5-7l-3-7z"/>
        <path fill="#8FCB7F" fill-rule="nonzero" d="M153.422 62.92c2.916-1.308 6.782-1.688 9.82-.938 2.988.738 5.602 2.945 7.476 5.994l.567.936c.93 1.562 1.818 3.186 3.14 5.701l1.19 2.285c.56 1.09 1.082 2.148 1.756 3.558l3.087 6.545c.24.506.458.958.666 1.385l.878 1.772.138.166c.412.513.85 1.132 1.314 1.848l.234.367c.46.73.939 1.543 1.431 2.427a93.515 93.515 0 0 1 2.188 4.189l.351.72.563 1.187.057.174 1.014 4.753.62 1.387.474 1.031c.411.886.863 1.835 1.351 2.836 1.955 4 4.098 8 6.362 11.73 2.935 4.838 5.851 8.848 8.666 11.75l.366.373-1.174 1.174c-3.038-3.037-6.152-7.283-9.278-12.435-2.292-3.777-4.459-7.82-6.434-11.863l-.574-1.188a154.63 154.63 0 0 1-1.036-2.207l-.548-1.207-.351-.798-.05-.154-1.012-4.742-.201-.43a100.282 100.282 0 0 0-2.804-5.471c-.48-.86-.943-1.648-1.386-2.35a22.317 22.317 0 0 0-1.453-2.079l-.162-.196-.107-.162-.721-1.447c-.24-.487-.485-.995-.76-1.569l-3.067-6.505a127.832 127.832 0 0 0-2.213-4.463l-1.403-2.673c-1.25-2.357-2.1-3.87-3.094-5.486-1.663-2.705-3.94-4.628-6.459-5.25-2.673-.66-6.16-.318-8.741.84-4.313 1.938-6.484 4.504-6.77 10.44-.286 6.103.427 11.32 2.18 16.976l.224.71c1.01 3.128 1.85 5.263 4.328 11.052l1.054 2.456 4.6 6.995 2.442 9.058 2.47 9.09c.657 2.4 1.308 4.775 1.948 7.102l2.07 7.472c2.412 8.66 4.344 15.388 5.644 19.598l.437 1.396-1.583.504-.533-1.71c-1.177-3.831-2.84-9.6-4.887-16.913l-1.796-6.454-1.435-5.207c-.97-3.525-1.958-7.147-2.948-10.793l-3.364-12.456-4.493-6.831-.069-.128-1.718-4.011c-1.972-4.637-2.77-6.702-3.68-9.499l-.068-.21c-1.975-6.118-2.79-11.712-2.481-18.277.32-6.637 2.912-9.703 7.747-11.875z"/>
        <path fill="#C6E2BA" fill-rule="nonzero" d="M169.356 77.374l-.024 1.107a22.102 22.102 0 0 0-14.8 5.262c-.375.32-.564.555-.608.764l-.01.077-1.106-.049c.027-.632.364-1.085 1.005-1.634a23.21 23.21 0 0 1 15.056-5.533l.487.006z"/>
        <path fill="#8FCB7F" fill-rule="nonzero" d="M149.99 72.686a28.55 28.55 0 0 0 3.115 10.933c.234.524.576.993.947 1.332a3.741 3.741 0 0 0 1.816.647c4.253.615 8.761-.475 12.555-2.96 1.392-.912 2.542-2.417 2.831-3.793l.039-.216 1.095.158c-.257 1.778-1.647 3.656-3.358 4.777-4.014 2.63-8.793 3.784-13.29 3.133a4.83 4.83 0 0 1-2.373-.879 5.153 5.153 0 0 1-1.26-1.718 29.602 29.602 0 0 1-3.166-10.705l-.055-.624 1.104-.085zM174.722 92.112l.465 1.005c-.754.349-1.424.472-2.702.565l-1.085.078-.182.017c-3.501.354-6.658 2.047-10.842 5.38l-.422.338-.697-.861c4.551-3.681 7.961-5.566 11.85-5.958l.51-.044.512-.035c1.244-.082 1.864-.174 2.465-.428l.128-.057zM176.335 94.804l.965.543a5.2 5.2 0 0 1-2.531 2.253c-.292.129-.687.223-1.224.308l-.596.083c-.348.045-.795.1-.89.115l-.874.14-1.483.256-.716.113-.165-1.095.88-.14 1.655-.285.538-.084c.155-.023 1.015-.129 1.255-.163.563-.08.96-.167 1.184-.266a4.102 4.102 0 0 0 1.873-1.564l.129-.214z"/>
    </g>
</svg>
