<?xml version="1.0" encoding="UTF-8"?>
<svg width="14px" height="14px" viewBox="0 0 14 14" version="1.1" xmlns="http://www.w3.org/2000/svg" xmlns:xlink="http://www.w3.org/1999/xlink">
    <!-- Generator: Sketch 55.2 (78181) - https://sketchapp.com -->
    <title>ico</title>
    <desc>Created with Sketch.</desc>
    <g id="Icons" stroke="none" stroke-width="1" fill="none" fill-rule="evenodd">
        <g id="Icon/coins" transform="translate(-1.000000, -1.000000)" fill="#808080">
            <path d="M6,13 C6.63728038,13 7.25467043,12.9148394 7.84141082,12.7552775 C8.43607699,13.2218143 9.18555161,13.5 10,13.5 C11.9329966,13.5 13.5,11.9329966 13.5,10 C13.5,9.18555161 13.2218143,8.43607699 12.7552775,7.84141082 C12.9148394,7.25467043 13,6.63728038 13,6 C14.2144467,6.91184014 15,8.36418217 15,10 C15,12.7614237 12.7614237,15 10,15 C8.36418217,15 6.91184014,14.2144467 5.99963381,13 Z M6,11 C3.23857625,11 1,8.76142375 1,6 C1,3.23857625 3.23857625,1 6,1 C8.76142375,1 11,3.23857625 11,6 C11,8.76142375 8.76142375,11 6,11 Z M6,9.5 C7.93299662,9.5 9.5,7.93299662 9.5,6 C9.5,4.06700338 7.93299662,2.5 6,2.5 C4.06700338,2.5 2.5,4.06700338 2.5,6 C2.5,7.93299662 4.06700338,9.5 6,9.5 Z" id="ico"></path>
        </g>
    </g>
</svg>