<?xml version="1.0" encoding="UTF-8"?>
<svg width="24px" height="24px" viewBox="0 0 24 24" version="1.1" xmlns="http://www.w3.org/2000/svg" xmlns:xlink="http://www.w3.org/1999/xlink">
    <path d="M8.57142857,20.5714286 C9.66390922,20.5714286 10.7222922,20.425439 11.7281328,20.1519043 C12.7475606,20.9516817 14.0323742,21.4285714 15.4285714,21.4285714 C18.7422799,21.4285714 21.4285714,18.7422799 21.4285714,15.4285714 C21.4285714,14.0323742 20.9516817,12.7475606 20.1519043,11.7281328 C20.425439,10.7222922 20.5714286,9.66390922 20.5714286,8.57142857 C22.6533372,10.1345831 24,12.6243123 24,15.4285714 C24,20.1624406 20.1624406,24 15.4285714,24 C12.6243123,24 10.1345831,22.6533372 8.57080082,20.5714286 L8.57142857,20.5714286 Z M8.57142857,17.1428571 C3.83755929,17.1428571 0,13.3052979 0,8.57142857 C0,3.83755929 3.83755929,0 8.57142857,0 C13.3052979,0 17.1428571,3.83755929 17.1428571,8.57142857 C17.1428571,13.3052979 13.3052979,17.1428571 8.57142857,17.1428571 Z M8.57142857,14.5714286 C11.8851371,14.5714286 14.5714286,11.8851371 14.5714286,8.57142857 C14.5714286,5.25772008 11.8851371,2.57142857 8.57142857,2.57142857 C5.25772008,2.57142857 2.57142857,5.25772008 2.57142857,8.57142857 C2.57142857,11.8851371 5.25772008,14.5714286 8.57142857,14.5714286 Z"></path>
</svg>