<?xml version="1.0" encoding="UTF-8"?>
<svg width="24px" height="24px" viewBox="0 0 24 24" version="1.1" xmlns="http://www.w3.org/2000/svg" xmlns:xlink="http://www.w3.org/1999/xlink">
    <path d="M19,10 L22,10 C23.1045694,10 24,10.8954305 24,12 L24,22 C24,23.1045694 23.1045694,24 22,24 L10,24 C8.8954305,24 8,23.1045694 8,22 L8,17 L11,17 L11,21 L21,21 L21,13 L19,13 L19,10 Z M2,0 L14,0 C15.1045695,0 16,0.8954305 16,2 L16,12 C16,13.1045695 15.1045695,14 14,14 L2,14 C0.8954305,14 0,13.1045695 0,12 L0,2 C0,0.8954305 0.8954305,0 2,0 Z M3,3 L3,11 L13,11 L13,3 L3,3 Z"></path>
</svg>