<?xml version="1.0" encoding="UTF-8"?>
<svg width="24px" height="25px" viewBox="0 0 24 25" version="1.1" xmlns="http://www.w3.org/2000/svg" xmlns:xlink="http://www.w3.org/1999/xlink">
    <path d="M24,0 L0,0 L0,19.2 L8.13599998,19.2 L7.19999998,23.7599999 L9.59999999,24.2279999 L10.608,19.1879999 L13.44,19.1879999 L14.4,24.2399999 L16.8,23.7719999 L15.864,19.2 L24,19.2 L24,0 Z M21.5999999,16.8 L2.40000001,16.8 L2.40000001,2.40000001 L21.5999999,2.40000001 L21.5999999,16.8 Z M6,9.59999999 C5.33725829,9.59999999 4.79999999,10.1372583 4.79999999,10.8 L4.79999999,13.2 C4.79999999,13.8627417 5.33725829,14.4 6,14.4 C6.66274169,14.4 7.19999998,13.8627417 7.19999998,13.2 L7.19999998,10.8 C7.19999998,10.1372583 6.66274169,9.59999999 6,9.59999999 Z M12,7.19999998 C11.3372583,7.19999998 10.8,7.73725829 10.8,8.39999998 L10.8,13.2 C10.8,13.8627417 11.3372583,14.4 12,14.4 C12.6627417,14.4 13.2,13.8627417 13.2,13.2 L13.2,8.39999998 C13.2,7.73725829 12.6627417,7.19999998 12,7.19999998 Z M17.9999999,4.79999999 C17.3372583,4.79999999 16.8,5.33725829 16.8,6 L16.8,13.2 C16.8,13.8627417 17.3372583,14.4 17.9999999,14.4 C18.6627417,14.4 19.2,13.8627417 19.2,13.2 L19.2,6 C19.2,5.33725829 18.6627417,4.79999999 17.9999999,4.79999999 Z"></path>
</svg>