<?xml version="1.0" encoding="UTF-8"?>
<svg width="14px" height="14px" viewBox="0 0 14 14" version="1.1" xmlns="http://www.w3.org/2000/svg" xmlns:xlink="http://www.w3.org/1999/xlink">
    <!-- Generator: Sketch 55.2 (78181) - https://sketchapp.com -->
    <title>Shape</title>
    <desc>Created with Sketch.</desc>
    <g id="Icons" stroke="none" stroke-width="1" fill="none" fill-rule="evenodd">
        <g id="Icon/Dashboard" transform="translate(-1.000000, -1.000000)" fill="#808080">
            <path d="M14.6666667,1.33333333 L1.33333333,1.33333333 L1.33333333,12 L5.85333333,12 L5.33333333,14.5333333 L6.66666667,14.7933333 L7.22666667,11.9933333 L8.8,11.9933333 L9.33333333,14.8 L10.6666667,14.54 L10.1466667,12 L14.6666667,12 L14.6666667,1.33333333 Z M13.3333333,10.6666667 L2.66666667,10.6666667 L2.66666667,2.66666667 L13.3333333,2.66666667 L13.3333333,10.6666667 Z M4.66666667,6.66666667 C4.29847683,6.66666667 4,6.9651435 4,7.33333333 L4,8.66666667 C4,9.0348565 4.29847683,9.33333333 4.66666667,9.33333333 C5.0348565,9.33333333 5.33333333,9.0348565 5.33333333,8.66666667 L5.33333333,7.33333333 C5.33333333,6.9651435 5.0348565,6.66666667 4.66666667,6.66666667 Z M8,5.33333333 C7.63181017,5.33333333 7.33333333,5.63181017 7.33333333,6 L7.33333333,8.66666667 C7.33333333,9.0348565 7.63181017,9.33333333 8,9.33333333 C8.36818983,9.33333333 8.66666667,9.0348565 8.66666667,8.66666667 L8.66666667,6 C8.66666667,5.63181017 8.36818983,5.33333333 8,5.33333333 Z M11.3333333,4 C10.9651435,4 10.6666667,4.29847683 10.6666667,4.66666667 L10.6666667,8.66666667 C10.6666667,9.0348565 10.9651435,9.33333333 11.3333333,9.33333333 C11.7015232,9.33333333 12,9.0348565 12,8.66666667 L12,4.66666667 C12,4.29847683 11.7015232,4 11.3333333,4 Z" id="Shape"></path>
        </g>
    </g>
</svg>