<?xml version="1.0" encoding="UTF-8"?>
<svg width="22px" height="24px" viewBox="0 0 22 24" version="1.1" xmlns="http://www.w3.org/2000/svg" xmlns:xlink="http://www.w3.org/1999/xlink">
    <path d="M21.5999999,0 L0,0 L0,24 L21.5999999,24 L21.5999999,0 Z M19.2,21.5999999 L2.39999999,21.5999999 L2.39999999,2.40000001 L19.2,2.40000001 L19.2,21.5999999 Z M5.99999998,11.4 C5.00588743,11.4 4.19999998,12.2058874 4.19999998,13.2 C4.19999998,14.1941125 5.00588743,15 5.99999998,15 C6.99411252,15 7.79999997,14.1941125 7.79999997,13.2 C7.79999997,12.2058874 6.99411252,11.4 5.99999998,11.4 Z M10.8,11.4 C9.80588742,11.4 8.99999998,12.2058874 8.99999998,13.2 C8.99999998,14.1941125 9.80588742,15 10.8,15 C11.7941125,15 12.6,14.1941125 12.6,13.2 C12.6,12.2058874 11.7941125,11.4 10.8,11.4 Z M15.6,11.4 C14.6058874,11.4 13.8,12.2058874 13.8,13.2 C13.8,14.1941125 14.6058874,15 15.6,15 C16.5941125,15 17.4,14.1941125 17.4,13.2 C17.4,12.2058874 16.5941125,11.4 15.6,11.4 Z M5.99999998,16.1999999 C5.00588743,16.1999999 4.19999998,17.0058874 4.19999998,17.9999999 C4.19999998,18.9941125 5.00588743,19.7999999 5.99999998,19.7999999 C6.99411252,19.7999999 7.79999997,18.9941125 7.79999997,17.9999999 C7.79999997,17.0058874 6.99411252,16.1999999 5.99999998,16.1999999 Z M10.8,16.1999999 C9.80588742,16.1999999 8.99999998,17.0058874 8.99999998,17.9999999 C8.99999998,18.9941125 9.80588742,19.7999999 10.8,19.7999999 C11.7941125,19.7999999 12.6,18.9941125 12.6,17.9999999 C12.6,17.0058874 11.7941125,16.1999999 10.8,16.1999999 Z M15.6,16.1999999 C14.6058874,16.1999999 13.8,17.0058874 13.8,17.9999999 C13.8,18.9941125 14.6058874,19.7999999 15.6,19.7999999 C16.5941125,19.7999999 17.4,18.9941125 17.4,17.9999999 C17.4,17.0058874 16.5941125,16.1999999 15.6,16.1999999 Z M4.79999999,4.79999999 L4.79999999,9.59999999 L16.8,9.59999999 L16.8,4.79999999 L4.79999999,4.79999999 Z"></path>
</svg>