<?xml version="1.0" encoding="UTF-8"?>
<svg width="12px" height="14px" viewBox="0 0 12 14" version="1.1" xmlns="http://www.w3.org/2000/svg" xmlns:xlink="http://www.w3.org/1999/xlink">
    <!-- Generator: Sketch 55.2 (78181) - https://sketchapp.com -->
    <title>Shape</title>
    <desc>Created with Sketch.</desc>
    <g id="Icons" stroke="none" stroke-width="1" fill="none" fill-rule="evenodd">
        <g id="Icon/Exchange" transform="translate(-2.000000, -1.000000)" fill="#808080">
            <path d="M14,1.33333333 L2,1.33333333 L2,14.6666667 L14,14.6666667 L14,1.33333333 Z M12.6666667,13.3333333 L3.33333333,13.3333333 L3.33333333,2.66666667 L12.6666667,2.66666667 L12.6666667,13.3333333 Z M5.33333333,7.66666667 C4.78104858,7.66666667 4.33333333,8.11438192 4.33333333,8.66666667 C4.33333333,9.21895142 4.78104858,9.66666667 5.33333333,9.66666667 C5.88561808,9.66666667 6.33333333,9.21895142 6.33333333,8.66666667 C6.33333333,8.11438192 5.88561808,7.66666667 5.33333333,7.66666667 Z M8,7.66666667 C7.44771525,7.66666667 7,8.11438192 7,8.66666667 C7,9.21895142 7.44771525,9.66666667 8,9.66666667 C8.55228475,9.66666667 9,9.21895142 9,8.66666667 C9,8.11438192 8.55228475,7.66666667 8,7.66666667 Z M10.6666667,7.66666667 C10.1143819,7.66666667 9.66666667,8.11438192 9.66666667,8.66666667 C9.66666667,9.21895142 10.1143819,9.66666667 10.6666667,9.66666667 C11.2189514,9.66666667 11.6666667,9.21895142 11.6666667,8.66666667 C11.6666667,8.11438192 11.2189514,7.66666667 10.6666667,7.66666667 Z M5.33333333,10.3333333 C4.78104858,10.3333333 4.33333333,10.7810486 4.33333333,11.3333333 C4.33333333,11.8856181 4.78104858,12.3333333 5.33333333,12.3333333 C5.88561808,12.3333333 6.33333333,11.8856181 6.33333333,11.3333333 C6.33333333,10.7810486 5.88561808,10.3333333 5.33333333,10.3333333 Z M8,10.3333333 C7.44771525,10.3333333 7,10.7810486 7,11.3333333 C7,11.8856181 7.44771525,12.3333333 8,12.3333333 C8.55228475,12.3333333 9,11.8856181 9,11.3333333 C9,10.7810486 8.55228475,10.3333333 8,10.3333333 Z M10.6666667,10.3333333 C10.1143819,10.3333333 9.66666667,10.7810486 9.66666667,11.3333333 C9.66666667,11.8856181 10.1143819,12.3333333 10.6666667,12.3333333 C11.2189514,12.3333333 11.6666667,11.8856181 11.6666667,11.3333333 C11.6666667,10.7810486 11.2189514,10.3333333 10.6666667,10.3333333 Z M4.66666667,4 L4.66666667,6.66666667 L11.3333333,6.66666667 L11.3333333,4 L4.66666667,4 Z" id="Shape"></path>
        </g>
    </g>
</svg>