<svg xmlns="http://www.w3.org/2000/svg" width="16" height="16" viewBox="0 0 16 16">
    <path fill="#000" fill-rule="evenodd" d="M5 6.25l.102.007A.75.75 0 0 1 5 7.75H4l-.057.007A.25.25 0 0 0 3.75 8v4l.007.057A.25.25 0 0 0 4 12.25h5l.057-.007A.25.25 0 0 0 9.25 12v-1.5l.007-.102a.75.75 0 0 1 1.493.102V12l-.006.144A1.75 1.75 0 0 1 9 13.75H4l-.144-.006A1.75 1.75 0 0 1 2.25 12V8l.006-.144A1.75 1.75 0 0 1 4 6.25h1zM7.747 2.2l6.013.038.038 6.013a.74.74 0 0 1-.747.747.764.764 0 0 1-.75-.655l-.007-.102-.02-3.458-3.818 3.819a.75.75 0 1 1-1.06-1.06l3.815-3.818-3.455-.02a.764.764 0 0 1-.747-.646L7 2.947a.74.74 0 0 1 .645-.74l.102-.007z" opacity=".504"/>
</svg>
