<svg xmlns="http://www.w3.org/2000/svg" width="20" height="20" viewBox="0 0 20 20">
    <path fill="#000" fill-rule="evenodd" d="M16.545 3.438a.938.938 0 0 1 0 1.326L4.764 16.544a.938.938 0 0 1-1.326-1.325l11.78-11.781a.937.937 0 0 1 1.327 0zm.256 3.568l-.097-.095c.264.255.513.517.772.81l.42.491c.207.247.52.625.611.729a1.604 1.604 0 0 1 0 2.118l-.768.917c-.358.42-.683.774-1.035 1.113-1.786 1.72-3.896 2.692-6.704 2.692-.642 0-1.248-.05-1.822-.15l1.445-1.445c.124.005.25.008.378.01 2.373.012 4.15-.83 5.682-2.345.227-.224.44-.454.667-.715l.41-.488c.177-.214.428-.518.512-.616a.047.047 0 0 0 0-.064l-.69-.832a13.882 13.882 0 0 0-.899-.987l-.012-.013 1.13-1.13zM10 4.22c.631 0 1.228.049 1.793.145l-1.446 1.445a9.619 9.619 0 0 0-.346-.004c-2.373.013-4.151.854-5.68 2.351-.227.223-.443.453-.67.712l-.923 1.1a.047.047 0 0 0 0 .064l.692.83c.315.374.595.682.897.978l-1.135 1.134-.146-.143c-.17-.175-.339-.356-.512-.551l-.42-.492c-.207-.247-.52-.625-.611-.729a1.604 1.604 0 0 1 0-2.118l.768-.917c.358-.42.683-.774 1.035-1.113C5.082 5.191 7.192 4.22 10 4.22z" />
</svg>
