<?xml version="1.0" encoding="UTF-8"?>
<svg width="12px" height="12px" viewBox="0 0 12 12" version="1.1" xmlns="http://www.w3.org/2000/svg" xmlns:xlink="http://www.w3.org/1999/xlink">
    <!-- Generator: Sketch 55.2 (78181) - https://sketchapp.com -->
    <title>info</title>
    <desc>Created with Sketch.</desc>
    <g id="Icons" stroke="none" stroke-width="1" fill="none" fill-rule="evenodd">
        <g id="Icon/Info" fill="#B3B3B3">
            <path d="M6,12 C2.6862915,12 0,9.3137085 0,6 C0,2.6862915 2.6862915,0 6,0 C9.3137085,0 12,2.6862915 12,6 C12,9.3137085 9.3137085,12 6,12 Z M5.25,5.5 L5.25,9.5 L6.75,9.5 L6.75,5.5 L5.25,5.5 Z M6,4.5 C6.55228475,4.5 7,4.05228475 7,3.5 C7,2.94771525 6.55228475,2.5 6,2.5 C5.44771525,2.5 5,2.94771525 5,3.5 C5,4.05228475 5.44771525,4.5 6,4.5 Z" id="info"></path>
        </g>
    </g>
</svg>