<?xml version="1.0" encoding="UTF-8"?>
<svg width="24px" height="20px" viewBox="0 0 24 20" version="1.1" xmlns="http://www.w3.org/2000/svg" xmlns:xlink="http://www.w3.org/1999/xlink">
    <path d="M2,0 L6,0 C7.1045695,0 8,0.8954305 8,2 C8,3.1045695 7.1045695,4 6,4 L2,4 C0.8954305,4 0,3.1045695 0,2 C0,0.8954305 0.8954305,0 2,0 Z M12,0 L22,0 C23.1045694,0 24,0.8954305 24,2 C24,3.1045695 23.1045694,4 22,4 L12,4 C10.8954305,4 10,3.1045695 10,2 C10,0.8954305 10.8954305,0 12,0 Z M2,8 L22,8 C23.1045694,8 24,8.8954305 24,10 C24,11.1045695 23.1045694,12 22,12 L2,12 C0.8954305,12 0,11.1045695 0,10 C0,8.8954305 0.8954305,8 2,8 Z M2,16 L14,16 C15.1045695,16 16,16.8954306 16,18 C16,19.1045694 15.1045695,20 14,20 L2,20 C0.8954305,20 0,19.1045694 0,18 C0,16.8954306 0.8954305,16 2,16 Z M20,16 L22,16 C23.1045694,16 24,16.8954306 24,18 C24,19.1045694 23.1045694,20 22,20 L20,20 C18.8954306,20 18,19.1045694 18,18 C18,16.8954306 18.8954306,16 20,16 Z"></path>
</svg>