<?xml version="1.0" encoding="UTF-8"?>
<svg width="24px" height="20px" viewBox="0 0 24 20" version="1.1" xmlns="http://www.w3.org/2000/svg" xmlns:xlink="http://www.w3.org/1999/xlink">
    <!-- Generator: Sketch 55.2 (78181) - https://sketchapp.com -->
    <title>menu</title>
    <desc>Created with Sketch.</desc>
    <g id="Page-1" stroke="none" stroke-width="1" fill="none" fill-rule="evenodd">
        <g id="menu" fill="#000000" fill-rule="nonzero">
            <path d="M22,20 L2,20 C0.8954305,20 -3.15544362e-30,19.1045695 -3.15544362e-30,18 C-3.15544362e-30,16.8954305 0.8954305,16 2,16 L22,16 C23.1045695,16 24,16.8954305 24,18 C24,19.1045695 23.1045695,20 22,20 Z M22,4 L2,4 C0.8954305,4 -3.15544362e-30,3.1045695 -3.15544362e-30,2 C-3.15544362e-30,0.8954305 0.8954305,0 2,0 L22,0 C23.1045695,0 24,0.8954305 24,2 C24,3.1045695 23.1045695,4 22,4 Z M22,12 L2,12 C0.8954305,12 -3.15544362e-30,11.1045695 -3.15544362e-30,10 C-3.15544362e-30,8.8954305 0.8954305,8 2,8 L22,8 C23.1045695,8 24,8.8954305 24,10 C24,11.1045695 23.1045695,12 22,12 Z" id="Shape"></path>
        </g>
    </g>
</svg>