<?xml version="1.0" encoding="UTF-8"?>
<svg width="24px" height="6px" viewBox="0 0 24 6" version="1.1" xmlns="http://www.w3.org/2000/svg" xmlns:xlink="http://www.w3.org/1999/xlink">
    <path d="M2.76923077,5.53846154 C1.23982686,5.53846154 0,4.29863468 0,2.76923077 C0,1.23982686 1.23982686,0 2.76923077,0 C4.29863468,0 5.53846154,1.23982686 5.53846154,2.76923077 C5.53846154,4.29863468 4.29863468,5.53846154 2.76923077,5.53846154 Z M12,5.53846154 C10.4705961,5.53846154 9.23076923,4.29863468 9.23076923,2.76923077 C9.23076923,1.23982686 10.4705961,0 12,0 C13.5294039,0 14.7692308,1.23982686 14.7692308,2.76923077 C14.7692308,4.29863468 13.5294039,5.53846154 12,5.53846154 Z M21.2307692,5.53846154 C19.7013654,5.53846154 18.4615385,4.29863468 18.4615385,2.76923077 C18.4615385,1.23982686 19.7013654,0 21.2307692,0 C22.7601731,0 24,1.23982686 24,2.76923077 C24,4.29863468 22.7601731,5.53846154 21.2307692,5.53846154 Z"></path>
</svg>