<?xml version="1.0" encoding="UTF-8"?>
<svg width="14px" height="4px" viewBox="0 0 14 4" version="1.1" xmlns="http://www.w3.org/2000/svg" xmlns:xlink="http://www.w3.org/1999/xlink">
    <!-- Generator: Sketch 55.2 (78181) - https://sketchapp.com -->
    <title>Oval 2</title>
    <desc>Created with Sketch.</desc>
    <g id="Icons" stroke="none" stroke-width="1" fill="none" fill-rule="evenodd">
        <g id="Icon/more" transform="translate(-1.000000, -6.000000)" fill="#808080">
            <path d="M3,9.5 C2.17157288,9.5 1.5,8.82842712 1.5,8 C1.5,7.17157288 2.17157288,6.5 3,6.5 C3.82842712,6.5 4.5,7.17157288 4.5,8 C4.5,8.82842712 3.82842712,9.5 3,9.5 Z M8,9.5 C7.17157288,9.5 6.5,8.82842712 6.5,8 C6.5,7.17157288 7.17157288,6.5 8,6.5 C8.82842712,6.5 9.5,7.17157288 9.5,8 C9.5,8.82842712 8.82842712,9.5 8,9.5 Z M13,9.5 C12.1715729,9.5 11.5,8.82842712 11.5,8 C11.5,7.17157288 12.1715729,6.5 13,6.5 C13.8284271,6.5 14.5,7.17157288 14.5,8 C14.5,8.82842712 13.8284271,9.5 13,9.5 Z" id="Oval-2"></path>
        </g>
    </g>
</svg>