<?xml version="1.0" encoding="UTF-8"?>
<svg width="14px" height="11px" viewBox="0 0 14 11" version="1.1" xmlns="http://www.w3.org/2000/svg" xmlns:xlink="http://www.w3.org/1999/xlink">
    <!-- Generator: Sketch 55.2 (78181) - https://sketchapp.com -->
    <title>Shape</title>
    <desc>Created with Sketch.</desc>
    <g id="Icons" stroke="none" stroke-width="1" fill="none" fill-rule="evenodd">
        <g id="Icon/Passwords" transform="translate(0.000000, -3.000000)" fill="#808080">
            <path d="M6.63429477,8.27002248 C6.65481477,8.40740316 6.66478408,8.54776561 6.66346234,8.69013198 L13.5651956,10.5394458 L12.7024654,13.7591986 L11.4154116,13.4143335 L11.9330497,11.4824819 L10.6459958,11.1376168 L10.1283577,13.0694685 L8.84130389,12.7246035 L9.35894198,10.7927518 L6.31837028,9.97803308 C5.63611708,11.1854501 4.14294116,11.6683477 2.88394261,11.0887373 C2.20183357,10.774712 1.71184866,10.2056087 1.48127186,9.54267091 C2.03670554,9.83474802 2.66922636,10.0000285 3.34035049,10.0000285 C3.48804292,10.0000285 3.6338658,9.99202401 3.77740899,9.97642523 C4.07463132,10.0285417 4.39106412,9.98051929 4.67275794,9.81788329 C4.72666143,9.78676209 4.77756643,9.7524409 4.82537175,9.71529779 C5.56159916,9.42075692 6.1898528,8.91371918 6.63429477,8.27002248 Z M3.34035049,3.33334752 C4.55232398,3.33729994 5.60900235,4.15909318 5.91199093,5.33336181 L14,5.33336181 L14,8.66669514 L12.6675438,8.66669514 L12.6675438,6.66669514 L11.3350876,6.66669514 L11.3350876,8.66669514 L10.0026314,8.66669514 L10.0026314,6.66669514 L5.91199093,6.66669514 C5.56548747,8.00955055 4.24817338,8.86245617 2.88205996,8.62844835 C1.51594654,8.39444054 0.557141984,7.15164815 0.676730463,5.76992343 C0.796318943,4.38819871 1.95437311,3.32886205 3.34035049,3.33334752 Z M3.34035049,7.33336181 C4.07624572,7.33336181 4.67280668,6.73640814 4.67280668,6.00002847 C4.67280668,5.26364881 4.07624572,4.66669514 3.34035049,4.66669514 C2.60445525,4.66669514 2.0078943,5.26364881 2.0078943,6.00002847 C2.0078943,6.73640814 2.60445525,7.33336181 3.34035049,7.33336181 Z" id="Shape"></path>
        </g>
    </g>
</svg>