<?xml version="1.0" encoding="UTF-8"?>
<svg width="24px" height="19px" viewBox="0 0 24 19" version="1.1" xmlns="http://www.w3.org/2000/svg" xmlns:xlink="http://www.w3.org/1999/xlink">
    <path d="M10.7417306,8.88606586 C10.7786666,9.13335108 10.7966113,9.38600349 10.7942322,9.64226296 L23.2173521,12.9710278 L21.6644377,18.7665829 L19.3477409,18.1458257 L20.2794895,14.6684928 L17.9627924,14.0477356 L17.0310439,17.5250687 L14.714347,16.9043117 L15.6460956,13.4269786 L10.1730665,11.9604849 C8.94501074,14.1338356 6.25729409,15.0030513 3.9910967,13.9597525 C2.76330043,13.394507 1.88132759,12.3701211 1.46628935,11.176833 C2.46606997,11.7025718 3.60460745,12.0000767 4.81263088,12.0000767 C5.07847726,12.0000767 5.34095844,11.9856686 5.59933618,11.9575908 C6.13433638,12.0514005 6.70391542,11.9649601 7.21096429,11.6722153 C7.30799057,11.6161972 7.39961957,11.554419 7.48566915,11.4875614 C8.81087849,10.9573878 9.94173504,10.0447199 10.7417306,8.88606586 Z M4.81263088,2.53831926e-05 C6.99418316,0.00716528347 8.89620423,1.48639312 9.44158367,3.60007665 L24,3.60007665 L24,9.60007664 L21.6015788,9.60007664 L21.6015788,6.00007664 L19.2031577,6.00007664 L19.2031577,9.60007664 L16.8047365,9.60007664 L16.8047365,6.00007664 L9.44158367,6.00007664 C8.81787745,8.41721638 6.44671208,9.9524465 3.98770793,9.53123242 C1.52870377,9.11001836 -0.197144428,6.87299206 0.0181148339,4.38588757 C0.233374098,1.89878307 2.3178716,-0.00802291853 4.81263088,2.53831926e-05 Z M4.81263088,7.20007665 C6.1372423,7.20007665 7.21105202,6.12556004 7.21105202,4.80007664 C7.21105202,3.47459325 6.1372423,2.40007664 4.81263088,2.40007664 C3.48801945,2.40007664 2.41420974,3.47459325 2.41420974,4.80007664 C2.41420974,6.12556004 3.48801945,7.20007665 4.81263088,7.20007665 Z"></path>
</svg>