<?xml version="1.0" encoding="UTF-8"?>
<svg width="24px" height="24px" viewBox="0 0 24 24" version="1.1" xmlns="http://www.w3.org/2000/svg" xmlns:xlink="http://www.w3.org/1999/xlink">
    <path d="M14,14 L24,14 L24,24 L14,24 L14,14 Z M16,16 L16,22 L22,22 L22,16 L16,16 Z M18,18 L20,18 L20,20 L18,20 L18,18 Z M0,0 L10,0 L10,10 L0,10 L0,0 Z M2,2 L2,8 L8,8 L8,2 L2,2 Z M4,4 L6,4 L6,6 L4,6 L4,4 Z M14,0 L24,0 L24,10 L14,10 L14,0 Z M16,2 L16,8 L22,8 L22,2 L16,2 Z M18,4 L20,4 L20,6 L18,6 L18,4 Z M0,14 L10,14 L10,24 L0,24 L0,14 Z M2,16 L2,22 L8,22 L8,16 L2,16 Z M4,18 L6,18 L6,20 L4,20 L4,18 Z"></path>
</svg>