<?xml version="1.0" encoding="UTF-8"?>
<svg width="12px" height="12px" viewBox="0 0 12 12" version="1.1" xmlns="http://www.w3.org/2000/svg" xmlns:xlink="http://www.w3.org/1999/xlink">
    <!-- Generator: Sketch 55.2 (78181) - https://sketchapp.com -->
    <title>Rectangle 2</title>
    <desc>Created with Sketch.</desc>
    <g id="Icons" stroke="none" stroke-width="1" fill="none" fill-rule="evenodd">
        <g id="Icon/qr" transform="translate(-2.000000, -2.000000)" fill="#808080">
            <path d="M9,9 L14,9 L14,14 L9,14 L9,9 Z M10,10 L10,13 L13,13 L13,10 L10,10 Z M11,11 L12,11 L12,12 L11,12 L11,11 Z M2,2 L7,2 L7,7 L2,7 L2,2 Z M3,3 L3,6 L6,6 L6,3 L3,3 Z M4,4 L5,4 L5,5 L4,5 L4,4 Z M9,2 L14,2 L14,7 L9,7 L9,2 Z M10,3 L10,6 L13,6 L13,3 L10,3 Z M11,4 L12,4 L12,5 L11,5 L11,4 Z M2,9 L7,9 L7,14 L2,14 L2,9 Z M3,10 L3,13 L6,13 L6,10 L3,10 Z M4,11 L5,11 L5,12 L4,12 L4,11 Z" id="Rectangle-2"></path>
        </g>
    </g>
</svg>