<?xml version="1.0" encoding="UTF-8"?>
<svg width="12px" height="12px" viewBox="0 0 12 12" version="1.1" xmlns="http://www.w3.org/2000/svg" xmlns:xlink="http://www.w3.org/1999/xlink">
    <!-- Generator: Sketch 55.2 (78181) - https://sketchapp.com -->
    <title>question</title>
    <desc>Created with Sketch.</desc>
    <g id="Icons" stroke="none" stroke-width="1" fill="none" fill-rule="evenodd">
        <g id="Icon/Question" fill="#B3B3B3">
            <path d="M6,12 C9.3137085,12 12,9.3137085 12,6 C12,2.6862915 9.3137085,0 6,0 C2.6862915,0 0,2.6862915 0,6 C0,9.3137085 2.6862915,12 6,12 Z M5.14948454,7.43239437 L6.69587629,7.43239437 L6.69587629,7.13661972 C6.69587629,6.72708559 6.86277679,6.52756896 7.30198865,6.30543507 L7.41752577,6.24929577 C7.99484536,5.98309859 8.5,5.50985915 8.5,4.62253521 C8.5,3.58732394 7.56185567,2.7 6.0257732,2.7 C4.47938144,2.7 3.5,3.63661972 3.5,4.81971831 L5.14948454,4.81971831 C5.14948454,4.42535211 5.44845361,4.12957746 5.9742268,4.12957746 C6.5,4.12957746 6.79896907,4.42535211 6.79896907,4.77042254 C6.79896907,5.12893726 6.6711681,5.28375044 6.33811102,5.45708194 L6.23195876,5.50985915 C5.51030928,5.85492958 5.14948454,6.2 5.14948454,7.13661972 L5.14948454,7.43239437 Z M5.92268041,9.7 C6.39715185,9.7 6.78178694,9.33215883 6.78178694,8.87840376 C6.78178694,8.42464868 6.39715185,8.05680751 5.92268041,8.05680751 C5.44820898,8.05680751 5.06357388,8.42464868 5.06357388,8.87840376 C5.06357388,9.33215883 5.44820898,9.7 5.92268041,9.7 Z" id="question"></path>
        </g>
    </g>
</svg>