<svg xmlns="http://www.w3.org/2000/svg" width="16" height="16" viewBox="0 0 16 16">
    <path fill-rule="evenodd" d="M8 2a6 6 0 1 1 0 12A6 6 0 0 1 8 2zm0 1.25a4.75 4.75 0 1 0 0 9.5 4.75 4.75 0 0 0 0-9.5zm-.216 6.6c.439 0 .796.274.796.7 0 .425-.357.7-.796.7-.44 0-.8-.275-.8-.7 0-.426.36-.7.8-.7zM7.924 5C9.143 5 10 5.607 10 6.653c0 .763-.452 1.13-.984 1.503-.36.266-.53.421-.667.736-.15.266-.263.47-.628.47-.386 0-.58-.244-.58-.563 0-.475.233-.78.778-1.197.386-.297.658-.497.658-.864 0-.404-.373-.639-.79-.639a.959.959 0 0 0-.812.4c-.15.154-.268.239-.47.239-.334 0-.505-.235-.505-.506 0-.275.154-.554.395-.767C6.72 5.182 7.238 5 7.923 5z"/>
</svg>
