<?xml version="1.0" encoding="UTF-8"?>
<svg width="24px" height="24px" viewBox="0 0 24 24" version="1.1" xmlns="http://www.w3.org/2000/svg" xmlns:xlink="http://www.w3.org/1999/xlink">
    <path d="M12,24 C5.372583,24 0,18.627417 0,12 C0,5.372583 5.372583,0 12,0 C18.627417,0 24,5.372583 24,12 C24,18.627417 18.627417,24 12,24 Z M10.2989691,14.8647887 L13.3917526,14.8647887 L13.3917526,14.2732394 C13.3917526,13.4541712 13.7255536,13.0551379 14.6039773,12.6108701 L14.8350515,12.4985915 C15.9896907,11.9661972 17,11.0197183 17,9.24507042 C17,7.17464788 15.1237113,5.4 12.0515464,5.4 C8.95876288,5.4 7,7.27323944 7,9.63943662 L10.2989691,9.63943662 C10.2989691,8.85070422 10.8969072,8.25915492 11.9484536,8.25915492 C13,8.25915492 13.5979381,8.85070422 13.5979381,9.54084508 C13.5979381,10.2578745 13.3423362,10.5675009 12.676222,10.9141639 L12.4639175,11.0197183 C11.0206186,11.7098592 10.2989691,12.4 10.2989691,14.2732394 L10.2989691,14.8647887 Z M11.8453608,19.4 C12.7943037,19.4 13.5635739,18.6643177 13.5635739,17.7568075 C13.5635739,16.8492974 12.7943037,16.113615 11.8453608,16.113615 C10.896418,16.113615 10.1271478,16.8492974 10.1271478,17.7568075 C10.1271478,18.6643177 10.896418,19.4 11.8453608,19.4 Z"></path>
</svg>