<?xml version="1.0" encoding="UTF-8"?>
<svg width="24px" height="24px" viewBox="0 0 24 24" version="1.1" xmlns="http://www.w3.org/2000/svg" xmlns:xlink="http://www.w3.org/1999/xlink">
    <!-- Generator: Sketch 55.2 (78181) - https://sketchapp.com -->
    <title>Path</title>
    <desc>Created with Sketch.</desc>
    <g id="Page-1" stroke="none" stroke-width="1" fill="none" fill-rule="evenodd">
        <g id="refresh" fill="#000000" fill-rule="nonzero">
            <path d="M11.9958287,0 C5.36168232,0 0.00333333,5.37000001 0.00333333,12 C0.00333333,18.6300002 5.36168232,24 11.9958287,24 C17.5943277,24 22.2622451,20.1750002 23.5980801,15 L20.4761289,15 C19.2453597,18.4950002 15.9132771,21 11.9958287,21 C7.02772361,21 2.99020014,16.9650002 2.99020014,12 C2.99020014,7.03500002 7.02772361,3 11.9958287,3 C14.4873859,3 16.7087743,4.03500001 18.3297875,5.67000001 L13.4967668,10.5 L24.0033333,10.5 L24.0033333,0 L20.4761289,3.52500001 C18.2997687,1.35 15.3129018,0 11.9958287,0 Z" id="Path"></path>
        </g>
    </g>
</svg>