<?xml version="1.0" encoding="UTF-8"?>
<svg width="24px" height="24px" viewBox="0 0 24 24" version="1.1" xmlns="http://www.w3.org/2000/svg" xmlns:xlink="http://www.w3.org/1999/xlink">
    <path d="M20.4761289,4.52124766 C18.2997687,2.34624765 15.3129018,0.99624765 11.9958287,0.99624765 C5.36168232,0.99624765 0.00333333,6.36624766 0.00333333,12.9962477 C0.00333333,19.6262478 5.36168232,24.9962477 11.9958287,24.9962477 C17.5943277,24.9962477 22.2622451,21.1712478 23.5980801,15.9962477 L20.4761289,15.9962477 C19.2453597,19.4912478 15.9132771,21.9962477 11.9958287,21.9962477 C7.02772361,21.9962477 2.99020014,17.9612478 2.99020014,12.9962477 C2.99020014,8.03124767 7.02772361,3.99624765 11.9958287,3.99624765 C14.4873859,3.99624765 16.7087743,5.03124766 18.3297875,6.66624766 L13.4967668,11.4962477 L24.0033333,11.4962477 L24.0033333,0.99624765 L20.4761289,4.52124766 L20.4761289,4.52124766 Z"></path>
</svg>