<?xml version="1.0" encoding="UTF-8"?>
<svg width="12px" height="12px" viewBox="0 0 12 12" version="1.1" xmlns="http://www.w3.org/2000/svg" xmlns:xlink="http://www.w3.org/1999/xlink">
    <!-- Generator: Sketch 55.2 (78181) - https://sketchapp.com -->
    <title>Mask</title>
    <desc>Created with Sketch.</desc>
    <defs>
        <path d="M12.2397311,3.75874765 C11.151551,2.67124765 9.65811757,1.99624765 7.99958099,1.99624765 C4.68250782,1.99624765 2.00333333,4.68124765 2.00333333,7.99624765 C2.00333333,11.3112477 4.68250782,13.9962477 7.99958099,13.9962477 C10.7988305,13.9962477 13.1327892,12.0837477 13.8007067,9.49624765 L12.2397311,9.49624765 C11.6243465,11.2437477 9.95830519,12.4962477 7.99958099,12.4962477 C5.51552846,12.4962477 3.49676673,10.4787477 3.49676673,7.99624765 C3.49676673,5.51374765 5.51552846,3.49624765 7.99958099,3.49624765 C9.2453596,3.49624765 10.3560538,4.01374765 11.1665604,4.83124765 L8.75005003,7.24624765 L14.0033333,7.24624765 L14.0033333,1.99624765 L12.2397311,3.75874765 L12.2397311,3.75874765 Z" id="path-1"></path>
    </defs>
    <g id="Icons" stroke="none" stroke-width="1" fill="none" fill-rule="evenodd">
        <g id="Icon/refresh" transform="translate(-2.000000, -2.000000)">
            <mask id="mask-2" fill="white">
                <use xlink:href="#path-1"></use>
            </mask>
            <use id="Mask" fill="#808080" xlink:href="#path-1"></use>
        </g>
    </g>
</svg>