<?xml version="1.0" encoding="UTF-8"?>
<svg width="24px" height="24px" viewBox="0 0 24 24" version="1.1" xmlns="http://www.w3.org/2000/svg" xmlns:xlink="http://www.w3.org/1999/xlink">
    <path d="M18.5109118,16.6827942 L24,22.1718824 L22.1718824,24 L16.6827942,18.5109118 C14.9316294,19.8721766 12.7311762,20.6827888 10.3413944,20.6827888 C4.62999999,20.6827888 0,16.0527889 0,10.3413944 C0,4.62999999 4.62999999,0 10.3413944,0 C16.0527889,0 20.6827888,4.62999999 20.6827888,10.3413944 C20.6827888,12.7311762 19.8721766,14.9316294 18.5109118,16.6827942 Z M10.3413944,18.0974402 C14.6249402,18.0974402 18.0974402,14.6249402 18.0974402,10.3413944 C18.0974402,6.05784861 14.6249402,2.58534861 10.3413944,2.58534861 C6.05784861,2.58534861 2.58534861,6.05784861 2.58534861,10.3413944 C2.58534861,14.6249402 6.05784861,18.0974402 10.3413944,18.0974402 Z"></path>
</svg>