<?xml version="1.0" encoding="UTF-8"?>
<svg width="14px" height="14px" viewBox="0 0 14 14" version="1.1" xmlns="http://www.w3.org/2000/svg" xmlns:xlink="http://www.w3.org/1999/xlink">
    <!-- Generator: Sketch 55.2 (78181) - https://sketchapp.com -->
    <title>Oval 2</title>
    <desc>Created with Sketch.</desc>
    <g id="Icons" stroke="none" stroke-width="1" fill="none" fill-rule="evenodd">
        <g id="Icon/Search" transform="translate(-1.000000, -1.000000)" fill="#808080">
            <path d="M11.7398931,10.6792329 L14.9246212,13.863961 L13.863961,14.9246212 L10.6792329,11.7398931 C9.66322011,12.5296888 8.38653359,13 7,13 C3.6862915,13 1,10.3137085 1,7 C1,3.6862915 3.6862915,1 7,1 C10.3137085,1 13,3.6862915 13,7 C13,8.38653359 12.5296888,9.66322011 11.7398931,10.6792329 Z M7,11.5 C9.48528137,11.5 11.5,9.48528137 11.5,7 C11.5,4.51471863 9.48528137,2.5 7,2.5 C4.51471863,2.5 2.5,4.51471863 2.5,7 C2.5,9.48528137 4.51471863,11.5 7,11.5 Z" id="Oval-2"></path>
        </g>
    </g>
</svg>