<?xml version="1.0" encoding="UTF-8"?>
<svg width="12px" height="14px" viewBox="0 0 12 14" version="1.1" xmlns="http://www.w3.org/2000/svg" xmlns:xlink="http://www.w3.org/1999/xlink">
    <!-- Generator: Sketch 55.2 (78181) - https://sketchapp.com -->
    <title>Path 2</title>
    <desc>Created with Sketch.</desc>
    <g id="Icons" stroke="none" stroke-width="1" fill="none" fill-rule="evenodd">
        <g id="Icon/Send" transform="translate(-2.000000, -1.000000)" fill="#808080">
            <path d="M7.06596614,11.4319907 L7.06596614,5.00583771 L8.93403386,5.00583771 L8.93403386,11.4319907 L12.0070053,8.34967893 L13.3333333,9.67600701 L8,15 L2.66666667,9.67600701 L3.99299475,8.34967893 L7.06596614,11.4319907 Z M3.66666667,1 L12.3333333,1 C12.8856181,1 13.3333333,1.44771525 13.3333333,2 C13.3333333,2.55228475 12.8856181,3 12.3333333,3 L3.66666667,3 C3.11438192,3 2.66666667,2.55228475 2.66666667,2 C2.66666667,1.44771525 3.11438192,1 3.66666667,1 Z" id="Path-2" transform="translate(8.000000, 8.000000) scale(1, -1) translate(-8.000000, -8.000000) "></path>
        </g>
    </g>
</svg>