<?xml version="1.0" encoding="UTF-8"?>
<svg width="19px" height="24px" viewBox="0 0 19 24" version="1.1" xmlns="http://www.w3.org/2000/svg" xmlns:xlink="http://www.w3.org/1999/xlink">
    <path d="M7.54165623,17.8834126 L7.54165623,6.86715036 L10.744058,6.86715036 L10.744058,17.8834126 L16.0120091,12.5994496 L18.2857142,14.8731549 L9.14285714,24 L7.77156117e-16,14.8731549 L2.27370528,12.5994496 L7.54165623,17.8834126 Z M1.71428571,0 L16.5714285,0 C17.5182025,0 18.2857142,0.767511857 18.2857142,1.71428571 C18.2857142,2.66105957 17.5182025,3.42857143 16.5714285,3.42857143 L1.71428571,3.42857143 C0.767511857,3.42857143 7.77156117e-16,2.66105957 7.77156117e-16,1.71428571 C7.77156117e-16,0.767511857 0.767511857,0 1.71428571,0 Z" transform="translate(9.142857, 12.000000) scale(-1, 1) rotate(-180.000000) translate(-9.142857, -12.000000) "></path>
</svg>