<?xml version="1.0" encoding="UTF-8"?>
<svg width="14px" height="14px" viewBox="0 0 14 14" version="1.1" xmlns="http://www.w3.org/2000/svg" xmlns:xlink="http://www.w3.org/1999/xlink">
    <!-- Generator: Sketch 55.2 (78181) - https://sketchapp.com -->
    <title>Shape</title>
    <desc>Created with Sketch.</desc>
    <g id="Icons" stroke="none" stroke-width="1" fill="none" fill-rule="evenodd">
        <g id="Icon/Settings" transform="translate(-1.000000, -1.000000)" fill="#808080">
            <path d="M3.044,10.604 L2.169,12.067 L3.933,13.831 L5.396,12.956 C5.69824444,13.1155142 6.01459106,13.2467395 6.341,13.348 L6.754,15 L9.246,15 L9.659,13.348 C9.98540894,13.2467395 10.3017556,13.1155142 10.604,12.956 L12.067,13.831 L13.831,12.067 L12.956,10.604 C13.1155142,10.3017556 13.2467395,9.98540894 13.348,9.659 L15,9.246 L15,6.754 L13.348,6.341 C13.2467395,6.01459106 13.1155142,5.69824444 12.956,5.396 L13.831,3.933 L12.067,2.169 L10.604,3.044 C10.3017556,2.88448579 9.98540894,2.75326052 9.659,2.652 L9.246,1 L6.754,1 L6.341,2.652 C6.01459106,2.75326052 5.69824444,2.88448579 5.396,3.044 L3.933,2.169 L2.169,3.933 L3.044,5.396 C2.88448579,5.69824444 2.75326052,6.01459106 2.652,6.341 L1,6.754 L1,9.246 L2.652,9.659 C2.75326052,9.98540894 2.88448579,10.3017556 3.044,10.604 Z M2.4,7.846 L3.8,7.496 L3.898,7.076 C4.00589129,6.60899244 4.1929254,6.16389862 4.451,5.76 L4.682,5.396 L3.933,4.15 L4.15,3.933 L5.396,4.682 L5.76,4.451 C6.16222614,4.19611007 6.60486946,4.01147809 7.069,3.905 L7.489,3.807 L7.839,2.407 L8.147,2.407 L8.497,3.807 L8.917,3.905 C9.38113054,4.01147809 9.82377386,4.19611007 10.226,4.451 L10.59,4.682 L11.85,3.933 L12.067,4.15 L11.318,5.396 L11.549,5.76 C11.8038899,6.16222614 11.9885219,6.60486946 12.095,7.069 L12.193,7.489 L13.593,7.839 L13.593,8.147 L12.193,8.497 L12.095,8.917 C11.9885219,9.38113054 11.8038899,9.82377386 11.549,10.226 L11.318,10.59 L12.067,11.836 L11.85,12.053 L10.604,11.304 L10.24,11.535 C9.83777386,11.7898899 9.39513054,11.9745219 8.931,12.081 L8.511,12.179 L8.161,13.579 L7.853,13.579 L7.503,12.179 L7.083,12.081 C6.61886946,11.9745219 6.17622614,11.7898899 5.774,11.535 L5.41,11.304 L4.15,12.067 L3.933,11.85 L4.682,10.604 L4.451,10.24 C4.19611007,9.83777386 4.01147809,9.39513054 3.905,8.931 L3.8,8.504 L2.4,8.154 L2.4,7.846 Z M8,10.8 C9.5463973,10.8 10.8,9.5463973 10.8,8 C10.8,6.4536027 9.5463973,5.2 8,5.2 C6.4536027,5.2 5.2,6.4536027 5.2,8 C5.2,9.5463973 6.4536027,10.8 8,10.8 Z M8,6.6 C8.77319865,6.6 9.4,7.22680135 9.4,8 C9.4,8.77319865 8.77319865,9.4 8,9.4 C7.22680135,9.4 6.6,8.77319865 6.6,8 C6.6,7.22680135 7.22680135,6.6 8,6.6 Z" id="Shape"></path>
        </g>
    </g>
</svg>