<?xml version="1.0" encoding="UTF-8"?>
<svg width="24px" height="24px" viewBox="0 0 24 24" version="1.1" xmlns="http://www.w3.org/2000/svg" xmlns:xlink="http://www.w3.org/1999/xlink">
    <path d="M3.504,16.464 L2.004,18.972 L5.028,21.996 L7.536,20.496 C8.05413333,20.7694529 8.59644182,20.9944106 9.156,21.168 L9.864,24 L14.136,24 L14.844,21.168 C15.4035582,20.9944106 15.9458667,20.7694529 16.464,20.496 L18.972,21.996 L21.996,18.972 L20.496,16.464 C20.7694529,15.9458667 20.9944106,15.4035582 21.168,14.844 L24,14.136 L24,9.864 L21.168,9.156 C20.9944106,8.59644182 20.7694529,8.05413333 20.496,7.536 L21.996,5.028 L18.972,2.004 L16.464,3.504 C15.9458667,3.23054707 15.4035582,3.00558946 14.844,2.832 L14.136,0 L9.864,0 L9.156,2.832 C8.59644182,3.00558946 8.05413333,3.23054707 7.536,3.504 L5.028,2.004 L2.004,5.028 L3.504,7.536 C3.23054707,8.05413333 3.00558946,8.59644182 2.832,9.156 L0,9.864 L0,14.136 L2.832,14.844 C3.00558946,15.4035582 3.23054707,15.9458667 3.504,16.464 Z M2.4,11.736 L4.8,11.136 L4.968,10.416 C5.1529565,9.61541561 5.4735864,8.85239763 5.916,8.16 L6.312,7.536 L5.028,5.4 L5.4,5.028 L7.536,6.312 L8.16,5.916 C8.84953053,5.47904583 9.60834765,5.16253387 10.404,4.98 L11.124,4.812 L11.724,2.412 L12.252,2.412 L12.852,4.812 L13.572,4.98 C14.3676524,5.16253387 15.1264695,5.47904583 15.816,5.916 L16.44,6.312 L18.6,5.028 L18.972,5.4 L17.688,7.536 L18.084,8.16 C18.5209541,8.84953053 18.8374661,9.60834765 19.02,10.404 L19.188,11.124 L21.588,11.724 L21.588,12.252 L19.188,12.852 L19.02,13.572 C18.8374661,14.3676524 18.5209541,15.1264695 18.084,15.816 L17.688,16.44 L18.972,18.576 L18.6,18.948 L16.464,17.664 L15.84,18.06 C15.1504695,18.4969541 14.3916524,18.8134661 13.596,18.996 L12.876,19.164 L12.276,21.564 L11.748,21.564 L11.148,19.164 L10.428,18.996 C9.63234765,18.8134661 8.87353053,18.4969541 8.184,18.06 L7.56,17.664 L5.4,18.972 L5.028,18.6 L6.312,16.464 L5.916,15.84 C5.47904583,15.1504695 5.16253387,14.3916524 4.98,13.596 L4.8,12.864 L2.4,12.264 L2.4,11.736 Z M12,16.8 C14.6509668,16.8 16.8,14.6509668 16.8,12 C16.8,9.3490332 14.6509668,7.2 12,7.2 C9.3490332,7.2 7.2,9.3490332 7.2,12 C7.2,14.6509668 9.3490332,16.8 12,16.8 Z M12,9.6 C13.3254834,9.6 14.4,10.6745166 14.4,12 C14.4,13.3254834 13.3254834,14.4 12,14.4 C10.6745166,14.4 9.6,13.3254834 9.6,12 C9.6,10.6745166 10.6745166,9.6 12,9.6 Z"></path>
</svg>