<?xml version="1.0" encoding="UTF-8"?>
<svg width="23px" height="24px" viewBox="0 0 23 24" version="1.1" xmlns="http://www.w3.org/2000/svg" xmlns:xlink="http://www.w3.org/1999/xlink">
    <path d="M12.4439367,11.8226163 L18.8428572,5.41428571 C19.1474786,5.11578958 19.3203204,4.70802833 19.3230955,4.28154629 C19.3256849,3.85506423 19.1579856,3.44516122 18.8571429,3.14285714 C18.2219455,2.53513953 17.2209117,2.53513953 16.5857143,3.14285714 L10.1749459,9.55362554 L12.4439367,11.8226163 Z M10.324175,13.9454953 L8.05362554,11.6749459 L6.85714286,12.8714286 L6.85714286,15.1428571 L9.12857143,15.1428571 L10.324175,13.9454953 Z M14.4605362,1.2437419 C16.2155289,-0.42005328 18.9646267,-0.413809507 20.7120681,1.25794042 C22.4293107,2.99077332 22.4293107,5.78665925 20.7120681,7.51949215 L10.2515318,18 L3.99999999,18 L3.99999999,11.7384483 L14.4605362,1.2437419 Z M1.5,24 C0.671572869,24 0,23.3284272 0,22.5 C0,21.6715728 0.671572869,21 1.5,21 C2.32842713,21 3,21.6715728 3,22.5 C3,23.3284272 2.32842713,24 1.5,24 Z M6.50000001,24 C5.67157287,24 5.00000001,23.3284272 5.00000001,22.5 C5.00000001,21.6715728 5.67157287,21 6.50000001,21 C7.32842712,21 8.00000001,21.6715728 8.00000001,22.5 C8.00000001,23.3284272 7.32842712,24 6.50000001,24 Z M11.5,24 C10.6715729,24 9.99999999,23.3284272 9.99999999,22.5 C9.99999999,21.6715728 10.6715729,21 11.5,21 C12.3284271,21 13,21.6715728 13,22.5 C13,23.3284272 12.3284271,24 11.5,24 Z M16.5,24 C15.6715728,24 15,23.3284272 15,22.5 C15,21.6715728 15.6715728,21 16.5,21 C17.3284272,21 18,21.6715728 18,22.5 C18,23.3284272 17.3284272,24 16.5,24 Z M21.5000001,24 C20.6715729,24 20.0000001,23.3284272 20.0000001,22.5 C20.0000001,21.6715728 20.6715729,21 21.5000001,21 C22.3284271,21 23.0000001,21.6715728 23.0000001,22.5 C23.0000001,23.3284272 22.3284271,24 21.5000001,24 Z"></path>
</svg>