<?xml version="1.0" encoding="UTF-8"?>
<svg width="14px" height="14px" viewBox="0 0 14 14" version="1.1" xmlns="http://www.w3.org/2000/svg" xmlns:xlink="http://www.w3.org/1999/xlink">
    <!-- Generator: Sketch 55.2 (78181) - https://sketchapp.com -->
    <title>Shape</title>
    <desc>Created with Sketch.</desc>
    <g id="Icons" stroke="none" stroke-width="1" fill="none" fill-rule="evenodd">
        <g id="Icon/Sign" transform="translate(-1.000000, -1.000000)" fill="#808080">
            <path d="M8.25896307,7.8965262 L11.9916667,4.15833333 C12.1693625,3.98421059 12.2701869,3.74634986 12.2717881,3.49756867 C12.2733162,3.24878747 12.1754916,3.00967738 12,2.83333333 C11.6294682,2.47883139 11.0455318,2.47883139 10.675,2.83333333 L6.9353851,6.57294823 L8.25896307,7.8965262 Z M7.02243541,9.13487228 L5.69794823,7.8103851 L5,8.50833333 L5,9.83333333 L6.325,9.83333333 L7.02243541,9.13487228 Z M9.43531278,1.72551611 C10.4590585,0.75496892 12.0626989,0.758611121 13.0820397,1.73379858 C14.0837646,2.74461777 14.0837646,4.37555123 13.0820397,5.38637042 L6.98006022,11.5 L3.33333333,11.5 L3.33333333,7.84742816 L9.43531278,1.72551611 Z M1.875,15 C1.39175084,15 1,14.6082492 1,14.125 C1,13.6417508 1.39175084,13.25 1.875,13.25 C2.35824916,13.25 2.75,13.6417508 2.75,14.125 C2.75,14.6082492 2.35824916,15 1.875,15 Z M4.79166667,15 C4.30841751,15 3.91666667,14.6082492 3.91666667,14.125 C3.91666667,13.6417508 4.30841751,13.25 4.79166667,13.25 C5.27491582,13.25 5.66666667,13.6417508 5.66666667,14.125 C5.66666667,14.6082492 5.27491582,15 4.79166667,15 Z M7.70833333,15 C7.22508418,15 6.83333333,14.6082492 6.83333333,14.125 C6.83333333,13.6417508 7.22508418,13.25 7.70833333,13.25 C8.19158249,13.25 8.58333333,13.6417508 8.58333333,14.125 C8.58333333,14.6082492 8.19158249,15 7.70833333,15 Z M10.625,15 C10.1417508,15 9.75,14.6082492 9.75,14.125 C9.75,13.6417508 10.1417508,13.25 10.625,13.25 C11.1082492,13.25 11.5,13.6417508 11.5,14.125 C11.5,14.6082492 11.1082492,15 10.625,15 Z M13.5416667,15 C13.0584175,15 12.6666667,14.6082492 12.6666667,14.125 C12.6666667,13.6417508 13.0584175,13.25 13.5416667,13.25 C14.0249158,13.25 14.4166667,13.6417508 14.4166667,14.125 C14.4166667,14.6082492 14.0249158,15 13.5416667,15 Z" id="Shape"></path>
        </g>
    </g>
</svg>