<svg xmlns="http://www.w3.org/2000/svg" width="12" height="12" viewBox="0 0 12 12">
    <path fill-rule="evenodd" d="M2.719 9.938a.656.656 0 1 1 0 1.312.656.656 0 0 1 0-1.313zm2.187 0a.656.656 0 1 1 0 1.312.656.656 0 0 1 0-1.313zm2.188 0a.656.656 0 1 1 0 1.312.656.656 0 0 1 0-1.313zm2.187 0a.656.656 0 1 1 0 1.312.656.656 0 0 1 0-1.313zm.093-8.263c.712.719.75 1.854.112 2.616l-.112.124L4.798 9H2.062V6.26L6.64 1.67a1.982 1.982 0 0 1 2.735.005zM3.835 6.232l-.522.524v.994h.993l.522-.525-.993-.993zm3.822-3.804l-.088.072-2.806 2.804.992.992 2.801-2.802a.7.7 0 0 0 .2-.385l.01-.11a.7.7 0 0 0-.204-.499.719.719 0 0 0-.905-.072z" />
</svg>
