<?xml version="1.0" encoding="UTF-8"?>
<svg width="14px" height="14px" viewBox="0 0 14 14" version="1.1" xmlns="http://www.w3.org/2000/svg" xmlns:xlink="http://www.w3.org/1999/xlink">
    <!-- Generator: Sketch 55.2 (78181) - https://sketchapp.com -->
    <title>Fill 1</title>
    <desc>Created with Sketch.</desc>
    <g id="Icons" stroke="none" stroke-width="1" fill="none" fill-rule="evenodd">
        <g id="Icon/Support" transform="translate(-1.000000, -1.000000)" fill="#808080">
            <path d="M11.5134833,8.5256334 C11.5178327,8.49605022 11.5221822,8.46733713 11.5265316,8.43688385 C11.5413197,8.2933184 11.5526283,8.14540249 11.5526283,8.00096695 C11.5526283,7.94528096 11.5526283,7.87393328 11.5421896,7.8574015 C11.5361004,7.5841921 11.4960855,7.31359299 11.4247546,7.05778547 C11.3769106,6.87071534 11.3134087,6.69408634 11.2368585,6.53224892 L11.1829253,6.41565638 L13.3767864,5.71262074 C13.5150988,6.04151612 13.6229651,6.37563207 13.6995153,6.71409849 C13.7221325,6.80545832 13.7404001,6.90116862 13.7586678,7.01689107 C13.7699764,7.0664864 13.7786753,7.11608174 13.7838946,7.18742942 C13.7978128,7.28313971 13.8117311,7.3797201 13.8160805,7.48761171 C13.8308686,7.65553978 13.8413073,7.82346785 13.8413073,7.99661648 C13.8413073,8.17411558 13.8334783,8.34900439 13.8160805,8.5256334 L11.5134833,8.5256334 Z M13.2297751,9.6845981 C13.2158568,9.72723268 13.2010687,9.76986727 13.1871505,9.81250186 C12.8565925,10.7582936 12.2554989,11.6109854 11.4725985,12.2539845 L10.949795,10.6234291 C11.1985833,10.3476094 11.4099664,10.0282851 11.570896,9.6845981 L13.2297751,9.6845981 Z M10.8906425,5.29584589 C10.6288058,5.01393556 10.3286939,4.77291963 10.0042252,4.5867196 L10.0042252,2.87872583 C10.9880701,3.2641773 11.8440413,3.9315391 12.4634025,4.7903215 L10.8906425,5.29584589 Z M6.06275631,9.40703823 C6.01665217,9.3435214 5.96967814,9.27652419 5.91922456,9.18429427 C5.89138809,9.1390494 5.8661613,9.08858397 5.8418044,9.04246901 C5.79657015,8.94414843 5.75481546,8.84234747 5.72001988,8.74924746 C5.64085995,8.50910162 5.59997515,8.25764456 5.59997515,7.97138376 C5.59997515,7.80432579 5.61911271,7.64944913 5.66173729,7.47020984 C5.67304586,7.40060235 5.69305331,7.33012477 5.734808,7.2030911 L5.77830247,7.07344715 L5.55387101,6.63404988 C5.61041382,6.53224892 5.67391574,6.43305825 5.74785634,6.33560776 L6.12364856,6.34343861 L6.25761153,6.34169842 L6.35329937,6.25381896 C6.40201317,6.20944419 6.44985709,6.16419932 6.52640736,6.11025352 C6.62644464,6.02585444 6.74735926,5.94841611 6.89437057,5.87184787 L6.96918106,5.83791422 C7.39194731,5.62648147 7.78165776,5.53425154 8.32533864,5.622131 C8.47321983,5.63866278 8.62458059,5.6760768 8.762893,5.72132167 L8.84118305,5.75960579 C8.90468498,5.78135813 8.96905679,5.80659085 9.03342861,5.83617403 L9.15347334,5.89273011 L9.6327824,5.72480205 C9.73281968,5.79527963 9.82850752,5.87358805 9.91723624,5.95798714 L9.8546042,6.48787415 L9.93811358,6.59402557 C9.98682739,6.65493212 10.0268423,6.71931905 10.0755561,6.80719851 C10.1042625,6.85418356 10.1286194,6.90551908 10.154716,6.95598451 L10.1973406,7.04212378 C10.2269169,7.10477052 10.2521437,7.17089764 10.2747608,7.2439855 C10.3539207,7.48152106 10.3939356,7.73645849 10.3939356,8.02184919 C10.3939356,8.19064736 10.375668,8.34552402 10.3330434,8.51954274 C10.319995,8.59524089 10.2991177,8.6752895 10.2599727,8.79275214 L10.2156083,8.92413627 L10.4409097,9.35918308 C10.3843668,9.46098404 10.319995,9.55930461 10.2469243,9.6567551 L9.73194979,9.64718407 L9.63365229,9.74550465 C9.58319871,9.79597008 9.53274512,9.83773457 9.47359264,9.88297944 C9.36137691,9.97259908 9.23698273,10.0526477 9.09519075,10.1257356 L9.0255996,10.1596692 C8.61849136,10.3641412 8.14092208,10.4380992 7.66857214,10.3650113 C7.50416304,10.3476094 7.35106251,10.3110655 7.17186529,10.2449384 C7.10140425,10.2162253 7.03094321,10.1883823 6.96135206,10.1561888 L6.84217721,10.1013729 L6.36112837,10.2640804 C6.26631043,10.1979533 6.17149248,10.120515 6.08189387,10.0335056 L6.13843668,9.50970928 L6.06275631,9.40703823 Z M5.10935752,10.696517 C5.36945446,10.9784273 5.66434696,11.2150928 5.99055549,11.4012928 L5.99055549,13.113637 C5.01019013,12.7299258 4.15595874,12.062564 3.53659749,11.2029115 L5.10935752,10.696517 Z M4.48216727,7.46672947 C4.47694793,7.49718274 4.47259848,7.52850611 4.46911893,7.55895939 C4.45259103,7.70339493 4.44215235,7.85218094 4.44215235,8.00096695 C4.44215235,8.05752303 4.44302224,8.10798846 4.4465018,8.14627258 C4.45868025,8.42296235 4.49956506,8.68225025 4.5700261,8.9345774 C4.6187399,9.1251279 4.68659128,9.3165485 4.75618243,9.46011394 L4.79184789,9.54451302 C4.79793712,9.55582424 4.80315646,9.56539527 4.80837579,9.57670649 L2.61799428,10.2780019 C2.47968187,9.95084674 2.37268547,9.61934107 2.29874487,9.29044569 C2.27960731,9.19560548 2.25959985,9.09467462 2.24133217,8.9754718 C2.22915372,8.92587646 2.22132472,8.87628113 2.21610538,8.80319326 C2.20218715,8.71270353 2.18739903,8.61699323 2.18217969,8.51084181 C2.16913135,8.34291374 2.15869268,8.16976511 2.15869268,7.99661648 C2.15869268,7.82085757 2.16739157,7.64335847 2.18304958,7.46672947 L4.48216727,7.46672947 Z M2.77109482,6.30776477 C2.78414316,6.26774046 2.79806139,6.22771616 2.81197962,6.18769185 L2.81284951,6.18595166 C3.14514726,5.23667953 3.74363117,4.38398778 4.52218218,3.74359888 L5.0458556,5.37067394 C4.78749845,5.65606465 4.5778551,5.97016845 4.42127501,6.30776477 L2.77109482,6.30776477 Z M5.46253262,2.72558935 C5.75829502,2.582894 6.06536597,2.46717155 6.40375295,2.37233134 C6.56033304,2.32969675 6.71778302,2.29141263 6.89002113,2.26095936 C7.02920343,2.23224627 7.16838573,2.21310421 7.30147881,2.19483224 C7.46501802,2.17569018 7.63116689,2.16611915 7.81645334,2.16089859 C7.86603703,2.15654812 7.9182304,2.15654812 7.97129365,2.15654812 C8.25661737,2.15567803 8.56455822,2.17482009 8.8455325,2.21571449 L8.8455325,4.54321491 L8.84379272,4.54321491 C8.66111594,4.49274948 8.46278116,4.45968593 8.21225301,4.44054387 C7.70249783,4.41270087 7.17447496,4.49709995 6.7029949,4.68591027 C6.62035541,4.71897383 6.53858581,4.75638785 6.45594632,4.79554206 C6.34894992,4.84600749 6.24717286,4.90169348 6.14887536,4.96260004 C6.14452591,4.96521032 6.14104635,4.9678206 6.13669691,4.96956079 L5.42251771,2.74386132 C5.43556605,2.73864075 5.44861439,2.7325501 5.46253262,2.72558935 L5.46253262,2.72558935 Z M10.532248,13.261553 C10.2434448,13.401638 9.93550391,13.5173605 9.58841804,13.6165511 L9.58319871,13.6182913 C9.42835839,13.6644063 9.26829874,13.6965998 9.10475954,13.727053 C8.96557723,13.7557661 8.82639493,13.7801287 8.68982229,13.7984007 C8.52802287,13.8123222 8.36709333,13.8271138 8.19572511,13.8323344 C7.84950913,13.8462559 7.49807382,13.828854 7.14924817,13.7766484 L7.14924817,11.4482779 C7.15098795,11.4482779 7.15359761,11.449148 7.15533739,11.449148 C7.33888406,11.5004835 7.53547906,11.5326769 7.77469865,11.551819 C8.28358394,11.5901031 8.80203803,11.5013536 9.28482664,11.3090629 C9.37529514,11.2759993 9.45967441,11.2368451 9.54927302,11.1942105 C9.64583074,11.1463554 9.74151858,11.0941498 9.85025475,11.0323731 C9.85373431,11.0306329 9.85634398,11.0288927 9.85982354,11.0271525 L10.5713931,13.243281 C10.5583447,13.2493716 10.5461663,13.2554623 10.532248,13.261553 L10.532248,13.261553 Z M14.9625948,7.26399765 C14.9565055,7.20483129 14.9504163,7.14653502 14.9408475,7.10042005 C14.9260594,6.97425648 14.9086616,6.84809291 14.8869144,6.75847326 C14.8799553,6.68886577 14.866037,6.61055735 14.8521188,6.57053304 C14.7477321,6.04847687 14.5746241,5.5264207 14.3040885,4.9547692 C14.2362371,4.81033365 14.1622965,4.67285886 14.0866161,4.54060463 L13.9561327,4.30741954 L13.608177,4.42140181 C12.8043992,3.15889597 11.6004722,2.20266309 10.1903815,1.71454057 C10.1286194,1.69278823 10.0668572,1.67190598 10.0042252,1.65189383 L10.0042252,1.2742732 L9.75456692,1.21423674 C9.58058904,1.17160215 9.40748105,1.13505822 9.22741394,1.10373485 C8.69678141,1.01150492 8.16092954,0.984532022 7.61028955,1.00802455 C7.42239344,1.01846567 7.24145644,1.03499745 7.07182801,1.06023017 C6.96918106,1.07067129 6.86653411,1.08720307 6.76649683,1.10373485 C6.58382006,1.13592831 6.40723251,1.17334234 6.23760408,1.22032739 C5.80526904,1.32908909 5.38772213,1.48048538 4.91798186,1.70409944 C4.84317137,1.74064338 4.77271033,1.77631721 4.71616752,1.81025086 C4.55523798,1.89639013 4.40039766,1.98687987 4.24555735,2.08868082 L4.03852367,2.22354533 L4.14638996,2.5689725 C3.02162297,3.37728947 2.16304213,4.51711211 1.71504909,5.80572075 C1.65937617,5.97103854 1.6071828,6.1398367 1.56368833,6.30776477 L1.19920467,6.30776477 L1.14353175,6.56618257 C1.10612651,6.74368167 1.07915994,6.92031068 1.0574127,7.10129015 C1.01913757,7.41713413 1,7.71035568 1,7.99661648 C1,8.24633335 1.01130856,8.49082965 1.03740524,8.73358577 C1.04349447,8.79362223 1.05045359,8.8527886 1.0574127,8.89455309 C1.07481049,9.01984657 1.09220828,9.14514005 1.11308562,9.23127932 C1.12004474,9.30697747 1.13309308,9.38006533 1.1478812,9.42182982 C1.25052815,9.93692524 1.41754691,10.4441898 1.69243196,11.0445544 C1.76028334,11.1785488 1.83248416,11.3134133 1.90468498,11.4474078 L2.03516839,11.6875536 L2.38747359,11.5718312 C3.19038151,12.8334669 4.39430844,13.7905699 5.80526904,14.2786924 C5.8661613,14.3004447 5.92792345,14.321327 5.99055549,14.3413391 L5.99055549,14.7059084 L6.23151485,14.7711654 C6.40723251,14.8190205 6.58468995,14.8564346 6.76388716,14.888628 C7.16490618,14.962586 7.58071331,15 7.99739033,15 C8.12787374,15 8.2540077,14.9956495 8.39666957,14.9895589 C8.57760656,14.9791178 8.75419411,14.962586 8.92208276,14.9382234 C9.03081894,14.926042 9.13955511,14.9095103 9.21871505,14.8903682 C9.40400149,14.8633953 9.58319871,14.8198906 9.75804648,14.7729056 C10.2069094,14.6580532 10.6383745,14.5005663 11.0350441,14.3065354 C11.1194234,14.2673812 11.2046725,14.2221363 11.2620852,14.1882027 C11.4256245,14.1090241 11.5804648,14.0141839 11.7431341,13.9132531 L11.9614763,13.7792587 L11.8449111,13.4233904 C12.9670685,12.6263846 13.828259,11.4883022 14.2849509,10.1901225 C14.3406238,10.0213243 14.3928172,9.85252616 14.4354418,9.6845981 L14.795576,9.6845981 L14.8512489,9.42618029 C14.8886542,9.24868119 14.9208401,9.0711821 14.9408475,8.8928129 C14.9799925,8.5795792 15,8.28635765 15,7.99661648 C15,7.75212017 14.9886914,7.50762387 14.9625948,7.26399765 L14.9625948,7.26399765 Z" id="Fill-1"></path>
        </g>
    </g>
</svg>