<?xml version="1.0" encoding="UTF-8"?>
<svg width="24px" height="24px" viewBox="0 0 24 24" version="1.1" xmlns="http://www.w3.org/2000/svg" xmlns:xlink="http://www.w3.org/1999/xlink">
    <path d="M18.0231142,12.9010858 C18.0305703,12.8503718 18.0380266,12.8011494 18.0454827,12.7489437 C18.0708338,12.5028315 18.0902199,12.2492614 18.0902199,12.0016576 C18.0902199,11.9061959 18.0902199,11.7838856 18.072325,11.7555454 C18.0618864,11.2871865 17.9932894,10.8233023 17.8710079,10.3847751 C17.7889896,10.0640834 17.6801292,9.76129087 17.5489003,9.48385529 L17.4564434,9.28398237 L21.2173481,8.07877841 C21.4544551,8.64259906 21.6393687,9.21536926 21.7705977,9.79559741 C21.80937,9.95221426 21.8406859,10.1162891 21.8720019,10.3146704 C21.8913881,10.399691 21.9063005,10.4847116 21.9152479,10.6070219 C21.9391077,10.7710966 21.9629676,10.936663 21.9704237,11.1216201 C21.9957747,11.4094968 22.0136697,11.6973735 22.0136697,11.9941997 C22.0136697,12.2984839 22.0002485,12.5982932 21.9704237,12.9010858 L18.0231142,12.9010858 Z M20.9653287,14.8878825 C20.9414688,14.9609703 20.9161178,15.0340582 20.892258,15.107146 C20.3255871,16.7285033 19.295141,18.1902607 17.953026,19.2925449 L17.0567914,16.497307 C17.4832857,16.0244733 17.8456567,15.4770602 18.121536,14.8878825 L20.9653287,14.8878825 Z M16.9553871,7.36430724 C16.5065242,6.88103239 15.9920467,6.46786222 15.4358146,6.14866217 L15.4358146,3.22067285 C17.1224059,3.8814468 18.5897851,5.0254956 19.6515471,6.497694 L16.9553871,7.36430724 Z M8.67901082,14.4120655 C8.59997515,14.3031795 8.51944824,14.1883272 8.43295639,14.0302187 C8.38523673,13.9526561 8.3419908,13.8661439 8.30023611,13.7870897 C8.22269169,13.6185402 8.15111222,13.4440242 8.09146265,13.2844242 C7.95575991,12.8727456 7.88567169,12.4416764 7.88567169,11.9509436 C7.88567169,11.6645585 7.91847893,11.3990557 7.99154964,11.0917883 C8.01093576,10.9724612 8.04523425,10.8516425 8.11681371,10.6338705 L8.19137566,10.4116237 L7.80663602,9.65837122 C7.90356655,9.48385529 8.01242698,9.31381414 8.1391823,9.14675616 L8.78339753,9.16018047 L9.01304834,9.15719729 L9.17708463,9.00654679 C9.26059401,8.93047575 9.34261215,8.85291312 9.47384119,8.76043461 C9.64533367,8.61575047 9.85261587,8.48299905 10.1046353,8.35173921 L10.2328818,8.29356723 C10.957624,7.93111109 11.625699,7.77300264 12.5577234,7.92365314 C12.811234,7.95199334 13.0707096,8.01613166 13.3078166,8.09369429 L13.4420281,8.15932421 C13.5508885,8.19661394 13.6612402,8.23987003 13.7715919,8.29058405 L13.9773829,8.38753733 L14.7990555,8.09966066 C14.970548,8.22047937 15.1345843,8.35472237 15.2866907,8.49940653 L15.1793215,9.40778426 L15.3224804,9.58975812 C15.4059898,9.69416935 15.4745868,9.80454694 15.5580962,9.95519745 C15.6073071,10.0357432 15.6490618,10.123747 15.6937989,10.2102592 L15.7668696,10.3579265 C15.8175718,10.4653209 15.8608178,10.5786817 15.8995899,10.7039751 C16.0352926,11.111179 16.1038896,11.5482146 16.1038896,12.0374558 C16.1038896,12.326824 16.0725737,12.5923269 15.999503,12.8906447 C15.9771343,13.020413 15.9413446,13.1576391 15.8742389,13.3590037 L15.7981857,13.5842336 L16.1844166,14.3300281 C16.0874859,14.5045441 15.9771343,14.6730936 15.8518702,14.8401516 L14.9690568,14.8237441 L14.8005468,14.9922937 C14.7140549,15.0788059 14.6275631,15.1504021 14.5261588,15.2279648 C14.333789,15.3815984 14.1205418,15.5188246 13.8774699,15.6441182 L13.7581707,15.7022901 C13.0602709,16.0528135 12.2415807,16.1795986 11.431838,16.0543051 C11.1499938,16.0244733 10.8875357,15.9618266 10.5803405,15.8484658 C10.4595501,15.7992434 10.3387598,15.7515125 10.2194607,15.6963237 L10.0151609,15.6023535 L9.19050578,15.8812807 C9.02796074,15.7679199 8.86541568,15.6351686 8.71181806,15.4860096 L8.80874859,14.5880731 L8.67901082,14.4120655 Z M7.04461289,16.6226006 C7.49049336,17.1058754 7.99602336,17.5115877 8.55523798,17.8307877 L8.55523798,20.7662349 C6.87461165,20.1084442 5.41021498,18.9643954 4.34845284,17.4907054 L7.04461289,16.6226006 Z M5.96942961,11.0858219 C5.96048217,11.1380276 5.95302597,11.1917248 5.94706102,11.2439304 C5.91872748,11.4915342 5.9008326,11.7465959 5.9008326,12.0016576 C5.9008326,12.0986109 5.90232384,12.1851231 5.9082888,12.250753 C5.92916614,12.7250783 5.99925439,13.1695719 6.12004474,13.6021327 C6.20355411,13.9287907 6.31987077,14.2569403 6.43916988,14.5030525 L6.50031067,14.6477366 C6.51074935,14.6671273 6.51969679,14.6835347 6.52864421,14.7029254 L2.77370448,15.9051461 C2.53659749,15.3443087 2.35317509,14.7760133 2.22641978,14.2121926 C2.19361253,14.0496094 2.15931403,13.8765851 2.12799801,13.6722374 C2.10712066,13.5872168 2.09369952,13.5021962 2.08475208,13.3769027 C2.06089226,13.2217775 2.03554119,13.0577027 2.02659375,12.8757288 C2.00422517,12.5878521 1.98633031,12.2910259 1.98633031,11.9941997 C1.98633031,11.6928987 2.00124269,11.3886145 2.02808499,11.0858219 L5.96942961,11.0858219 Z M3.03616255,9.09902532 C3.05853113,9.03041222 3.08239095,8.96179913 3.10625078,8.89318603 L3.10774202,8.89020285 C3.6773953,7.26287919 4.70336772,5.80112191 6.03802659,4.70331237 L6.93575246,7.4925839 C6.49285449,7.98182511 6.13346589,8.52028877 5.86504287,9.09902532 L3.03616255,9.09902532 Z M7.65005592,2.95815317 C8.15707718,2.71353257 8.68348452,2.51515123 9.26357649,2.35256801 C9.5319995,2.27948014 9.80191375,2.21385022 10.0971791,2.16164462 C10.3357773,2.11242218 10.5743755,2.07960722 10.8025351,2.04828384 C11.082888,2.01546888 11.3677147,1.9990614 11.6853486,1.99011187 C11.7703492,1.98265392 11.8598235,1.98265392 11.9507891,1.98265392 C12.4399155,1.98116234 12.9678141,2.0139773 13.4494843,2.08408198 L13.4494843,6.0740827 L13.4465018,6.0740827 C13.1333416,5.98757054 12.7933391,5.93089017 12.3638623,5.89807521 C11.4899963,5.85034435 10.5848142,5.99502849 9.77656269,6.31870332 C9.63489499,6.37538371 9.49471853,6.43952203 9.35305083,6.50664353 C9.16962843,6.5931557 8.99515347,6.68861739 8.82664347,6.79302864 C8.81918727,6.79750341 8.81322231,6.80197817 8.80576613,6.80496135 L7.58145893,2.98947655 C7.60382751,2.980527 7.6261961,2.97008589 7.65005592,2.95815317 L7.65005592,2.95815317 Z M16.3409966,21.0198051 C15.8459054,21.2599509 15.3180067,21.4583323 14.7230024,21.6283733 L14.7140549,21.6313565 C14.4486144,21.7104108 14.1742264,21.7655997 13.8938735,21.8178051 C13.6552753,21.8670276 13.416677,21.9087921 13.1825525,21.9401155 C12.9051821,21.9639809 12.6293029,21.9893379 12.3355288,21.9982875 C11.7420157,22.022153 11.1395551,21.9923211 10.5415683,21.9028258 L10.5415683,17.9113335 C10.5445508,17.9113335 10.5490245,17.9128251 10.552007,17.9128251 C10.8666584,18.0008289 11.2036784,18.0560175 11.6137691,18.0888326 C12.4861439,18.1544625 13.3749223,18.0023205 14.20256,17.6726793 C14.3576488,17.6159988 14.502299,17.5488773 14.6558966,17.4757894 C14.8214241,17.3937521 14.9854604,17.3042568 15.1718653,17.1983539 C15.1778302,17.1953707 15.182304,17.1923875 15.1882689,17.1894043 L16.4081025,20.9884817 C16.3857338,20.9989227 16.3648565,21.0093639 16.3409966,21.0198051 L16.3409966,21.0198051 Z M23.9358768,10.7382817 C23.925438,10.6368536 23.9149994,10.5369172 23.8985957,10.4578629 C23.8732447,10.2415825 23.8434199,10.0253021 23.806139,9.87166845 C23.7942091,9.75234132 23.7703491,9.61809831 23.7464894,9.54948521 C23.5675407,8.65453178 23.2707842,7.75957834 22.8070089,6.77960434 C22.6906922,6.53200054 22.5639369,6.29632947 22.434199,6.06960794 L22.2105132,5.66986207 L21.6140177,5.86526025 C20.2361129,3.70096452 18.1722381,2.06170815 15.7549397,1.22492669 C15.6490618,1.18763697 15.5431838,1.15183882 15.4358146,1.11753228 L15.4358146,0.470182629 L15.007829,0.367262983 C14.7095812,0.294175115 14.4128247,0.231528378 14.1041382,0.177831172 C13.1944824,0.0197227204 12.2758792,-0.0265165333 11.3319249,0.0137563718 C11.0098173,0.0316554347 10.6996396,0.059995629 10.408848,0.10325172 C10.2328818,0.121150783 10.0569156,0.149490978 9.88542314,0.177831172 C9.57226296,0.23301996 9.26954145,0.297158298 8.97874985,0.377704098 C8.23760407,0.564152726 7.52180937,0.823689223 6.71654033,1.20702761 C6.58829378,1.26967437 6.46750342,1.3308295 6.37057289,1.38900147 C6.09469368,1.53666879 5.82925313,1.69179406 5.5638126,1.86630998 L5.20889772,2.09750628 L5.39381136,2.68966714 C3.46563938,4.07535338 1.99378651,6.02933505 1.22579844,8.23837843 C1.13035915,8.52178035 1.0408848,8.81114863 0.966322851,9.09902532 L0.34149372,9.09902532 L0.246054429,9.54202726 C0.18193116,9.84631143 0.135702754,10.149104 0.0984217714,10.4593545 C0.0328072629,11.0008014 0,11.5034669 0,11.9941997 C0,12.4222857 0.0193861029,12.8414223 0.0641232686,13.2575756 C0.0745619486,13.3604953 0.0864918686,13.4619233 0.0984217714,13.5335196 C0.128246554,13.7483084 0.158071337,13.9630972 0.193861063,14.1107645 C0.205790983,14.2405328 0.228159566,14.3658263 0.253510629,14.4374225 C0.429476829,15.3204433 0.715794703,16.1900397 1.18702622,17.2192361 C1.30334287,17.4489408 1.4271157,17.6801371 1.55088854,17.9098419 L1.77457438,18.3215205 L2.37852615,18.1231392 C3.75493973,20.2859433 5.81881447,21.9266913 8.23760407,22.7634727 C8.3419908,22.8007623 8.44786877,22.8365606 8.55523798,22.870867 L8.55523798,23.495843 L8.96831117,23.6077121 C9.26954145,23.6897494 9.5737542,23.7538879 9.88094942,23.8090766 C10.5684106,23.9358617 11.2812228,24 11.9955263,24 C12.2192121,24 12.4354418,23.992542 12.680005,23.982101 C12.9901827,23.9642019 13.2929042,23.9358617 13.5807133,23.8940973 C13.7671182,23.8732149 13.953523,23.8448748 14.0892258,23.8120598 C14.4068597,23.7658205 14.7140549,23.691241 15.013794,23.6106953 C15.7832733,23.4138055 16.5229277,23.1438279 17.2029327,22.8112035 C17.347583,22.7440821 17.4937243,22.6665194 17.5921461,22.6083475 C17.8724991,22.4726127 18.1379397,22.3100295 18.4168013,22.1370053 L18.7911022,21.9073006 L18.5912762,21.2972407 C20.5149746,19.930945 21.9913011,17.9799466 22.7742015,15.7544957 C22.8696408,15.4651274 22.9591152,15.1757591 23.0321859,14.8878825 L23.6495589,14.8878825 L23.7449981,14.4448805 C23.8091215,14.1405963 23.8642973,13.8363122 23.8985957,13.5305364 C23.9657014,12.9935643 24,12.4908988 24,11.9941997 C24,11.5750631 23.9806138,11.1559266 23.9358768,10.7382817 L23.9358768,10.7382817 Z"></path>
</svg>