<?xml version="1.0" encoding="UTF-8"?>
<svg width="10px" height="14px" viewBox="0 0 10 14" version="1.1" xmlns="http://www.w3.org/2000/svg" xmlns:xlink="http://www.w3.org/1999/xlink">
    <!-- Generator: Sketch 55.2 (78181) - https://sketchapp.com -->
    <title>Shape</title>
    <desc>Created with Sketch.</desc>
    <g id="Icons" stroke="none" stroke-width="1" fill="none" fill-rule="evenodd">
        <g id="Icon/Tips" transform="translate(-3.000000, -1.000000)" fill="#808080">
            <path d="M8,1 C5.85908402,1.00199859 3.96688178,2.39133881 3.32556165,4.43218346 C2.68424151,6.47302811 3.44203253,8.69367443 5.19758533,9.918 L5.19758533,12.2 L10.8024147,12.2 L10.8024147,9.918 C12.5579675,8.69367443 13.3157585,6.47302811 12.6744384,4.43218346 C12.0331182,2.39133881 10.140916,1.00199859 8,1 Z M9.75150917,8.931 L9.40120733,9.134 L9.40120733,10.8 L6.59879267,10.8 L6.59879267,9.127 L6.24849083,8.924 C4.87541969,8.13194006 4.20599015,6.51718673 4.61634412,4.98704443 C5.02669809,3.45690213 6.41451401,2.39291109 8,2.39291109 C9.58548599,2.39291109 10.9733019,3.45690213 11.3836559,4.98704443 C11.7940099,6.51718673 11.1245803,8.13194006 9.75150917,8.924 L9.75150917,8.931 Z M6.598189,13.6 L9.401811,13.6 C9.78841033,13.6 10.101811,13.9134007 10.101811,14.3 C10.101811,14.6865993 9.78841033,15 9.401811,15 L6.598189,15 C6.21158967,15 5.898189,14.6865993 5.898189,14.3 C5.898189,13.9134007 6.21158967,13.6 6.598189,13.6 Z" id="Shape"></path>
        </g>
    </g>
</svg>