<?xml version="1.0" encoding="UTF-8"?>
<svg width="24px" height="20px" viewBox="0 0 24 20" version="1.1" xmlns="http://www.w3.org/2000/svg" xmlns:xlink="http://www.w3.org/1999/xlink">
    <path d="M8.39999998,15 L24,15 L24,18.5999999 L8.39999998,18.5999999 L8.39999998,15 Z M2.40000001,19.1999999 C1.0745166,19.1999999 0,18.1254834 0,16.7999999 C0,15.4745165 1.0745166,14.4 2.40000001,14.4 C3.72548339,14.4 4.79999999,15.4745165 4.79999999,16.7999999 C4.79999999,18.1254834 3.72548339,19.1999999 2.40000001,19.1999999 Z M8.39999998,7.79999997 L24,7.79999997 L24,11.4 L8.39999998,11.4 L8.39999998,7.79999997 Z M2.40000001,12 C1.0745166,12 0,10.9254834 0,9.59999997 C0,8.27451657 1.0745166,7.19999998 2.40000001,7.19999998 C3.72548339,7.19999998 4.79999999,8.27451657 4.79999999,9.59999997 C4.79999999,10.9254834 3.72548339,12 2.40000001,12 Z M8.39999998,0.599999992 L24,0.599999992 L24,4.19999998 L8.39999998,4.19999998 L8.39999998,0.599999992 Z M2.40000001,4.79999997 C1.0745166,4.79999997 0,3.72548339 0,2.39999999 C0,1.07451659 1.0745166,0 2.40000001,0 C3.72548339,0 4.79999999,1.07451659 4.79999999,2.39999999 C4.79999999,3.72548339 3.72548339,4.79999997 2.40000001,4.79999997 Z"></path>
</svg>