<?xml version="1.0" encoding="UTF-8"?>
<svg width="14px" height="12px" viewBox="0 0 14 12" version="1.1" xmlns="http://www.w3.org/2000/svg" xmlns:xlink="http://www.w3.org/1999/xlink">
    <!-- Generator: Sketch 55.2 (78181) - https://sketchapp.com -->
    <title>Rectangle 2</title>
    <desc>Created with Sketch.</desc>
    <g id="Icons" stroke="none" stroke-width="1" fill="none" fill-rule="evenodd">
        <g id="Icon/Transactions" transform="translate(-1.000000, -2.000000)" fill="#808080">
            <path d="M6,11 L14.6666667,11 L14.6666667,13 L6,13 L6,11 Z M2.66666667,13.3333333 C1.930287,13.3333333 1.33333333,12.7363797 1.33333333,12 C1.33333333,11.2636203 1.930287,10.6666667 2.66666667,10.6666667 C3.40304633,10.6666667 4,11.2636203 4,12 C4,12.7363797 3.40304633,13.3333333 2.66666667,13.3333333 Z M6,7 L14.6666667,7 L14.6666667,9 L6,9 L6,7 Z M2.66666667,9.33333333 C1.930287,9.33333333 1.33333333,8.73637967 1.33333333,8 C1.33333333,7.26362033 1.930287,6.66666667 2.66666667,6.66666667 C3.40304633,6.66666667 4,7.26362033 4,8 C4,8.73637967 3.40304633,9.33333333 2.66666667,9.33333333 Z M6,3 L14.6666667,3 L14.6666667,5 L6,5 L6,3 Z M2.66666667,5.33333333 C1.930287,5.33333333 1.33333333,4.73637967 1.33333333,4 C1.33333333,3.26362033 1.930287,2.66666667 2.66666667,2.66666667 C3.40304633,2.66666667 4,3.26362033 4,4 C4,4.73637967 3.40304633,5.33333333 2.66666667,5.33333333 Z" id="Rectangle-2"></path>
        </g>
    </g>
</svg>