<?xml version="1.0" encoding="UTF-8"?>
<svg width="10px" height="14px" viewBox="0 0 10 14" version="1.1" xmlns="http://www.w3.org/2000/svg" xmlns:xlink="http://www.w3.org/1999/xlink">
    <!-- Generator: Sketch 55.2 (78181) - https://sketchapp.com -->
    <title>Path</title>
    <desc>Created with Sketch.</desc>
    <g id="Icons" stroke="none" stroke-width="1" fill="none" fill-rule="evenodd">
        <g id="Icon/Trezor" transform="translate(-3.000000, -1.000000)" fill="#808080">
            <path d="M12,1 C12.5522847,1 13,1.44771525 13,2 L13,7.71583637 C13,8.97859225 12.8436415,9.90786289 12.772136,10.1773159 C12.7054106,10.4288054 12.3998768,11.1768139 11.7780688,11.9916299 L11.6399551,12.1670993 C11.3117987,12.5713492 10.9359565,13.1226076 10.6172435,13.6138318 L9.89996275,14.7616368 C9.81652078,14.896351 9.65159801,15 9.38942034,15 L6.61057966,15 C6.34838788,15 6.18346511,14.896351 6.10003725,14.7616368 L5.69106779,14.0973252 L5.35243987,13.5671906 C5.10725658,13.1906748 4.83090762,12.7831777 4.56957497,12.4359234 L4.36004492,12.1670993 C3.64497514,11.2862055 3.29935549,10.4467689 3.22784992,10.1773159 L3.19752958,10.0459794 L3.15898515,9.83832874 C3.09172629,9.43818792 3.01436765,8.77451859 3.00177328,7.9486154 L3.00025467,2 C2.99988738,1.48716421 3.38580277,1.06439439 3.88312549,1.00650236 L4,1 L12,1 Z M4.20030172,2.2 L4.20163378,7.93031847 C4.21330258,8.69552524 4.28747819,9.39180241 4.36677574,9.77604721 L4.38770455,9.86952177 C4.45623832,10.1277762 4.75493854,10.7102139 5.18579817,11.2758144 L5.52839161,11.7143482 C5.89008806,12.1949643 6.29040677,12.7946433 6.71294627,13.4682272 L6.91719276,13.8 L9.08591812,13.8 L9.61056587,12.9606855 L9.94767593,12.4516326 C10.1662053,12.1290668 10.3715865,11.8416526 10.5594593,11.5986653 L10.8241131,11.2636406 C11.2434179,10.7141844 11.5469631,10.1157079 11.6122813,9.86952177 L11.6531458,9.67980739 C11.7282199,9.26641178 11.8,8.51067228 11.8,7.71583637 L11.8,2.2 L4.20030172,2.2 Z M10.4017798,9.1 L5.59822025,9.1 C5.21260236,9.1 4.9,8.78739764 4.9,8.40177975 L4.9,3.59822025 C4.9,3.21260236 5.21260236,2.9 5.59822025,2.9 L10.4017798,2.9 C10.7873976,2.9 11.1,3.21260236 11.1,3.59822025 L11.1,8.40177975 C11.1,8.78739764 10.7873976,9.1 10.4017798,9.1 Z M9.9,4.1 L6.1,4.1 L6.1,7.9 L9.9,7.9 L9.9,4.1 Z" id="Path"></path>
        </g>
    </g>
</svg>