<?xml version="1.0" encoding="UTF-8"?>
<svg width="18px" height="24px" viewBox="0 0 18 24" version="1.1" xmlns="http://www.w3.org/2000/svg" xmlns:xlink="http://www.w3.org/1999/xlink">
    <path d="M15.4285714,0 C16.3753452,0 17.1428571,0.767511857 17.1428571,1.71428571 L17.1428571,11.5128623 C17.1428571,13.6775867 16.874814,15.2706221 16.7522331,15.7325415 C16.6378467,16.1636664 16.1140745,17.4459667 15.0481179,18.8427941 L14.8113516,19.1435988 C14.2487978,19.8365986 13.6044969,20.781613 13.0581317,21.6237117 L11.8285076,23.5913774 C11.6854642,23.822316 11.4027394,24 10.953292,24 L6.18956513,24 C5.74009351,24 5.45736876,23.822316 5.31434957,23.5913774 L4.61325907,22.4525575 L4.03275406,21.5437553 C3.61243985,20.8982997 3.13869878,20.1997332 2.69069995,19.6044401 L2.33150558,19.1435988 C1.10567167,17.6334951 0.51318084,16.194461 0.390599863,15.7325415 L0.338622137,15.5073933 L0.272545971,15.1514207 C0.157245069,14.465465 0.0246302571,13.3277462 0.00303990857,11.9119121 L0.000436128081,1.71428571 C-0.000193062857,0.835138646 0.661376177,0.110390383 1.51392941,0.0111469029 L1.71428571,0 L15.4285714,0 Z M2.05766009,2.05714286 L2.05994362,11.8805459 C2.07994728,13.192329 2.20710547,14.385947 2.34304413,15.0446524 L2.37892209,15.2048945 C2.49640855,15.6476163 3.00846607,16.646081 3.74708258,17.6156818 L4.33438562,18.3674541 C4.95443667,19.1913674 5.64069732,20.2193885 6.36505075,21.3741038 L6.71518759,21.9428571 L10.4330025,21.9428571 L11.3323986,20.5040323 L11.9103016,19.6313702 C12.2849234,19.0784002 12.6370054,18.5856902 12.9590731,18.1691405 L13.4127653,17.5948125 C14.1315735,16.6528875 14.6519367,15.6269278 14.7639108,15.2048945 L14.8339642,14.8796698 C14.9626627,14.1709916 15.0857143,12.8754382 15.0857143,11.5128623 L15.0857143,2.05714286 L2.05766009,2.05714286 Z M12.6887654,13.8857143 L4.45409186,13.8857143 C3.79303262,13.8857143 3.25714286,13.3498245 3.25714286,12.6887653 L3.25714286,4.45409186 C3.25714286,3.79303262 3.79303262,3.25714286 4.45409186,3.25714286 L12.6887654,3.25714286 C13.3498245,3.25714286 13.8857143,3.79303262 13.8857143,4.45409186 L13.8857143,12.6887653 C13.8857143,13.3498245 13.3498245,13.8857143 12.6887654,13.8857143 Z M11.8285714,5.31428571 L5.31428571,5.31428571 L5.31428571,11.8285714 L11.8285714,11.8285714 L11.8285714,5.31428571 Z"></path>
</svg>