<?xml version="1.0" encoding="UTF-8"?>
<svg width="24px" height="24px" viewBox="0 0 24 24" version="1.1" xmlns="http://www.w3.org/2000/svg" xmlns:xlink="http://www.w3.org/1999/xlink">
    <path d="M23.9999116,17.9995866 L23.9999116,4.79988979 L21.5999667,4.79988979 L21.5999667,0 L3.60038,0 C1.61220057,0 8.83861151e-05,1.61173789 8.83861151e-05,3.59991735 L8.83861151e-05,20.3995316 C-0.00944969091,21.3501925 0.367363514,22.2640728 1.04443869,22.9314735 C1.71518029,23.6210496 2.63842615,24.006819 3.60038,23.9996535 L23.9999116,23.9996535 L23.9999116,17.9995866 Z M21.5999667,15.5996418 L15.6001045,15.5996418 C14.937378,15.5996418 14.400132,15.0623959 14.400132,14.3996694 C14.400132,13.7369429 14.937378,13.1996969 15.6001045,13.1996969 L21.5999667,13.1996969 L21.5999667,15.5996418 Z M3.60038,2.3999449 L19.2000218,2.3999449 L19.2000218,4.79988979 L3.60038,4.79988979 C3.27793988,4.79540696 2.9708736,4.66133577 2.74839958,4.42789833 C2.52959567,4.20735693 2.40485159,3.91055202 2.40040756,3.59991735 C2.40040756,2.93719087 2.93765352,2.3999449 3.60038,2.3999449 Z M3.60038,21.5995041 C3.27793988,21.5950211 2.9708736,21.4609501 2.74839958,21.2275127 C2.52959567,21.0069713 2.40485159,20.7101663 2.40040756,20.3995316 L2.40040756,6.99583937 L2.72440011,7.07983743 L2.92839543,7.07983743 C3.14808379,7.14103106 3.37308994,7.18121073 3.60038,7.19983469 L21.5999667,7.19983469 L21.5999667,10.799752 L15.6001045,10.799752 C13.6119251,10.7997521 12.0001872,12.4114899 12.0001872,14.3996694 C12.0001872,16.3878487 13.6119251,17.9995866 15.6001045,17.9995866 L21.5999667,17.9995866 L21.5999667,21.5995041 L3.60038,21.5995041 Z"></path>
</svg>