<?xml version="1.0" encoding="UTF-8"?>
<svg width="12px" height="12px" viewBox="0 0 12 12" version="1.1" xmlns="http://www.w3.org/2000/svg" xmlns:xlink="http://www.w3.org/1999/xlink">
    <!-- Generator: Sketch 55.2 (78181) - https://sketchapp.com -->
    <title>Shape</title>
    <desc>Created with Sketch.</desc>
    <g id="Icons" stroke="none" stroke-width="1" fill="none" fill-rule="evenodd">
        <g id="Icon/Wallet" transform="translate(-2.000000, -2.000000)" fill="#808080">
            <path d="M14,10.9998596 L14,4.39996257 L12.8000187,4.39996257 L12.8000187,2 L3.80015907,2 C2.80606203,2 2.00009178,2.80587488 2.00009178,3.79997193 L2.00009178,12.1998409 C1.99523093,12.6751749 2.18363892,13.1321184 2.522179,13.4658212 C2.85755227,13.8106118 3.3191786,14.0034979 3.80015907,13.9998647 L14,13.9998647 L14,10.9998596 Z M12.8000187,9.79987836 L9.8000655,9.79987836 C9.46869982,9.79987836 9.20007486,9.5312534 9.20007486,9.19988771 C9.20007486,8.86852203 9.46869982,8.59989707 9.8000655,8.59989707 L12.8000187,8.59989707 L12.8000187,9.79987836 Z M3.80015907,3.19998129 L11.6000374,3.19998129 L11.6000374,4.39996257 L3.80015907,4.39996257 C3.63893782,4.39772114 3.48540355,4.33068505 3.37416572,4.21396547 C3.26476296,4.10369396 3.20239046,3.95529041 3.20016843,3.79997193 C3.20016843,3.46860625 3.46879339,3.19998129 3.80015907,3.19998129 Z M3.80015907,12.7998316 C3.63893782,12.7975901 3.48540355,12.7305541 3.37416572,12.6138345 C3.26476296,12.503563 3.20239046,12.3551594 3.20016843,12.1998409 L3.20016843,5.49794545 L3.3621659,5.53994479 L3.46416431,5.53994479 C3.5740093,5.57054183 3.6865132,5.59063181 3.80015907,5.59994386 L12.8000187,5.59994386 L12.8000187,7.39991579 L9.8000655,7.39991579 C8.80596847,7.39991581 8.00009361,8.20579068 8.00009361,9.19988771 C8.00009361,10.1939847 8.80596847,10.9998596 9.8000655,10.9998596 L12.8000187,10.9998596 L12.8000187,12.7998316 L3.80015907,12.7998316 Z" id="Shape"></path>
        </g>
    </g>
</svg>