<svg width="176px" height="125px" viewBox="0 0 176 125" version="1.1" xmlns="http://www.w3.org/2000/svg" xmlns:xlink="http://www.w3.org/1999/xlink">
                        <title>Man</title>
                        <defs>
                            <linearGradient x1="28.5130671%" y1="41.7585686%" x2="113.067177%" y2="72.5739019%" id="linearGradient-1">
                                <stop stop-color="#10D40A" stop-opacity="0" offset="0%"></stop>
                                <stop stop-color="#0AD44C" stop-opacity="0.597061821" offset="100%"></stop>
                            </linearGradient>
                            <path d="M22.1783062,0.143577212 C7.48593939,8.62442793 0.139755967,20.9009801 0.139755967,36.9732338 C0.139755967,53.0454874 3.28603422,69.619039 9.57859073,86.6938883 L29.0980092,71.0741019 C34.2618128,50.1003522 36.8437146,36.057185 36.8437146,28.9446002 C36.8437146,21.8320154 31.9552452,12.2316744 22.1783062,0.143577212 Z" id="path-2"></path>
                        </defs>
                        <g id="Styles" stroke="none" stroke-width="1" fill="none" fill-rule="evenodd">
                            <g id="08-Connect-modals" transform="translate(-450.000000, -3429.000000)">
                                <g id="Group-7-Copy-6" transform="translate(55.000000, 166.000000)">
                                    <g id="Window-Copy-4" transform="translate(0.000000, 3045.000000)">
                                        <g id="window-copy-7">
                                            <g id="Group-2" transform="translate(395.000000, 215.000000)">
                                                <g id="Group-Copy-2" transform="translate(0.000000, 3.800984)">
                                                    <path d="M8.70774923,51.4695158 C21.94204,86.5168608 26.3855154,89.1010941 31.4040197,88.5847134 C36.422524,88.0683326 50.8406488,83.5485745 74.658394,75.0254389 L78.3157638,71.6813882 L79.2306484,69.4838485 C79.6411999,68.4977099 79.3895379,67.3600274 78.6013632,66.639054 L78.2594824,66.3263225 C77.3261247,65.4725445 75.8922004,65.4833218 74.9717812,66.3510328 L69.3176393,71.6813882 L40.1823116,78.2870802 C36.934235,79.0234987 33.670332,77.1201444 32.7117061,73.9305755 L23.7461588,44.100138 L8.70774923,51.4695158 Z" id="Path-5" fill="#DFDFDF" transform="translate(44.066587, 66.369100) rotate(14.000000) translate(-44.066587, -66.369100) "></path>
                                                    <g id="Group-5" transform="translate(66.792244, 67.222713)">
                                                        <path d="M6.64660515,11.9644624 C2.848044,16.9002849 0.948763427,22.3905958 0.948763427,28.4353949" id="Path" stroke="#000000" stroke-width="0.63375"></path>
                                                        <g id="Page-1" transform="translate(8.659662, 8.673503) rotate(29.000000) translate(-8.659662, -8.673503) translate(2.961820, 2.021781)">
                                                            <path d="M5.13498546,1.76166665 L2.36314591,7.11193256 L1.99155812,10.016396 L3.62168432,11.4978377 L6.39842103,10.016396 L9.47416387,4.34741614 C8.75241839,3.5054367 8.15943999,2.94613344 7.69522867,2.66950638 C7.23101736,2.39287932 6.37760295,2.09026608 5.13498546,1.76166665 Z" id="Path-3" fill="#231F20" transform="translate(5.732861, 6.629752) rotate(-29.000000) translate(-5.732861, -6.629752) "></path>
                                                            <g id="Group-3" transform="translate(2.532374, 1.268579)" fill="#231F20">
                                                                <path d="M5.17851511,6.71507249 C5.17851511,7.38024477 5.00188201,8.04541704 4.66570935,8.62823466 L3.9566446,9.8635546 C3.81799712,10.1042836 3.56412662,10.256323 3.28619856,10.256323 L2.4118964,10.256323 C2.13333525,10.256323 1.87376691,10.1106186 1.73511942,9.86925607 L1.04504748,8.68524942 C0.703176978,8.09609684 0.519579856,7.42458959 0.519579856,6.74041239 L0.519579856,2.09054144 C0.519579856,1.72311294 0.779148201,1.40636424 1.13937842,1.33034455 L1.27232806,1.30500465 C1.79779568,1.20364507 2.32326331,1.1466303 2.84873094,1.1466303 C3.37419856,1.1466303 3.89966619,1.20364507 4.42576691,1.30500465 L4.55871655,1.33034455 C4.91894676,1.40636424 5.17851511,1.72311294 5.17851511,2.09054144 L5.17851511,6.71507249 Z M4.65304748,0.823546627 L4.52706187,0.79820673 C3.41218417,0.576482639 2.28591079,0.576482639 1.17103309,0.79820673 L1.03808345,0.823546627 C0.437277698,0.943911133 -0.000189928058,1.47541546 -0.000189928058,2.09054144 L-0.000189928058,6.74041239 C-0.000189928058,7.51327922 0.208730935,8.27347611 0.595551079,8.93864838 L1.29132086,10.1296235 C1.51986763,10.5223919 1.94973813,10.7694559 2.4118964,10.7694559 L3.28619856,10.7694559 C3.74772374,10.7694559 4.17822734,10.5223919 4.40614101,10.1232885 L5.12153669,8.88163362 C5.49506187,8.22279632 5.6976518,7.47526938 5.6976518,6.71507249 L5.6976518,2.09054144 C5.6976518,1.47541546 5.26081727,0.943911133 4.65304748,0.823546627 Z" id="Fill-1"></path>
                                                            </g>
                                                            <path d="M7.28057554,3.9674042 L7.28057554,5.93124615 C7.28057554,6.00093087 7.22359712,6.05794563 7.15395683,6.05794563 L3.60863309,6.05794563 C3.53899281,6.05794563 3.48201439,6.00093087 3.48201439,5.93124615 L3.48201439,3.9674042 C3.48201439,3.89771948 3.53899281,3.84070472 3.60863309,3.84070472 L7.15395683,3.84070472 C7.22359712,3.84070472 7.28057554,3.89771948 7.28057554,3.9674042" id="Fill-4" fill="#17D87A"></path>
                                                        </g>
                                                    </g>
                                                    <g id="Group" transform="translate(88.386237, 69.386552) rotate(-350.000000) translate(-88.386237, -69.386552) translate(61.742314, 40.380704)">
                                                        <path d="M13.1056399,55.1817442 L41.1294816,53.1884707 L50.0977164,20.1649558 C50.281177,19.4894031 50.9775449,19.0904836 51.6530977,19.2739443 C51.6865836,19.2830381 51.719682,19.2935031 51.7523092,19.3053129 L52.3832726,19.5336978 C53.0053984,19.7588837 53.3496641,20.4247025 53.1737574,21.062516 L43.8655327,54.8128567 C43.5731997,55.8728161 42.6308902,56.6234735 41.532405,56.6714603 L14.3718269,57.8579563 L13.1056399,55.1817442 Z" id="Path-10" fill="#000000"></path>
                                                        <polygon id="Path-14" fill-opacity="0.400000006" fill="url(#linearGradient-1)" points="50.4923801 19.9058464 42.0301758 52.3453642 0.1116829 57.1199145 17.2954546 0.201820009"></polygon>
                                                    </g>
                                                    <g id="Path-11" transform="translate(0.000000, 23.926525)">
                                                        <mask id="mask-3" fill="white">
                                                            <use xlink:href="#path-2"></use>
                                                        </mask>
                                                        <use id="Mask" fill="#000000" xlink:href="#path-2"></use>
                                                    </g>
                                                    <g id="Group-4" transform="translate(154.474820, 88.689637)">
                                                        <path d="M0.00574724086,17.3299975 L9.04673754,17.3299975 C10.0158486,18.2741463 10.459983,19.2222126 10.3791408,20.1741966 C10.2982986,21.1261805 10.0243155,21.8150593 9.55719145,22.240833 L0.00574724086,22.240833 L0.00574724086,17.3299975 Z" id="Path-8" fill="#DFDFDF"></path>
                                                        <path d="M7.57063371,16.7975611 L8.18463445,11.6320512 C10.9552017,4.37868028 12.7928817,0.670540365 13.6976744,0.507631457 C13.6976744,0.507631457 13.6976744,9.25048956 13.6976744,26.7362058 L7.57063371,22.9984315 L7.57063371,16.7975611 Z" id="Path-9" fill="#000000"></path>
                                                    </g>
                                                    <path d="M22.6894516,24.0882141 L25.3134496,17.1584865 L34.3377378,0.00607653863 L49.5924407,8.83643203 C48.1205738,12.1693448 47.3846403,13.8358012 47.3846403,13.8358012 C47.3846403,13.8358012 47.610066,15.3996869 48.0609173,18.5274582 L44.9421905,17.5087135 L42.326569,23.1446523 C41.7194433,26.4336556 40.4013924,27.6015792 38.3724165,26.6484231 C36.3434406,25.6952669 34.9985477,24.8418639 34.3377378,24.0882141 L32.877652,40.0685859 L22.6894516,24.0882141 Z" id="Path-2" fill="#DFDFDF"></path>
                                                    <polygon id="Path-7" fill="#000000" points="24.0981993 94.4135486 66.3077999 94.8146924 155.917441 103.947374 155.573512 113.777236 69.893811 118.737282 47.9810207 112.979679 19.7062153 101.412265"></polygon>
                                                    <path d="M162.07769,114.2551 L171.11868,114.2551 C172.087791,115.199249 172.531925,116.147316 172.451083,117.0993 C172.370241,118.051283 172.096258,118.740162 171.629134,119.165936 L162.07769,119.165936 L162.07769,114.2551 Z" id="Path-8" fill="#DFDFDF"></path>
                                                    <path d="M11.2917923,34.4242047 L20.0616815,57.0038295 L2.37956842,65.7761306 C-0.436910629,58.3265042 0.144620994,50.9569755 4.12416329,43.6675446 C8.10370558,36.3781138 10.4929153,33.2970005 11.2917923,34.4242047 Z" id="Path-4" fill="#2B2B2B"></path>
                                                    <path d="M3.59809657,65.3416932 C15.3007955,94.24224 19.7442709,96.8264733 24.7627752,96.3100926 C29.7812795,95.7937118 45.2204655,95.3718191 71.0803332,95.0444146 L74.737703,91.7003638 L79.9106348,96.1713282 C82.3120205,96.8736837 83.5127134,96.4980458 83.5127134,95.0444146 C83.5127134,93.5907833 81.1109396,91.3693754 76.3073921,88.3801909 C75.3521148,87.5986311 74.1267833,87.245318 72.6313979,87.3202514 C71.1360124,87.3951848 68.8387393,88.8552223 65.7395784,91.7003638 L31.8713016,87.7930762 C29.3797273,87.5056303 27.2920746,85.7758418 26.5465635,83.3811015 L18.6365061,57.9723154 L3.59809657,65.3416932 Z" id="Path-5" fill="#DFDFDF"></path>
                                                    <polygon id="Path-6" fill="#2B2B2B" points="9.99535878 110.148126 25.8406633 120.933884 162.497321 120.933884 162.497321 112.526001 23.903142 98.2971878"></polygon>
                                                    <path d="M169.642576,113.722664 L170.256577,108.557154 C173.027144,101.303783 174.864824,97.5956433 175.769617,97.4327344 C175.769617,97.4327344 175.769617,106.175593 175.769617,123.661309 L169.642576,119.923534 L169.642576,113.722664 Z" id="Path-9" fill="#000000"></path>
                                                </g>
                                                <path d="M35.2854234,6.8694459 C34.6664041,5.89851658 33.4668569,5.41305192 31.6867819,5.41305192 C29.9067068,5.41305192 28.7892279,6.79872411 28.3343452,9.57006848 C28.0648175,13.1670282 27.7736329,15.3791075 27.4607914,16.2063062 C26.9915292,17.4471042 25.3563438,21.1320264 28.3343452,21.573246 C30.3196794,21.8673923 31.3123465,20.8886344 31.3123465,18.636972 C31.062566,17.3263155 30.9376757,16.1455958 30.9376757,15.0948129 C30.9376757,13.5186385 31.8730137,12.4757315 33.4233678,12.4757315 C34.9737218,12.4757315 35.2854234,13.211977 35.2854234,15.0948129 C35.2854234,16.9776487 34.3303275,19.9545613 33.8768476,20.7639036 C33.4233678,21.573246 32.2851964,23.0259455 35.2854234,26.7272287 C38.2856504,30.4285119 37.7001248,31.0752997 38.5962999,32.2949868 C39.4924751,33.5146739 41.2569431,35.1634417 44.7501059,33.5146739 C48.2432687,31.865906 46.3236074,28.5871064 45.7651748,27.8315971 C45.2067422,27.0760877 43.915219,24.5340614 46.2415391,23.5772061 C48.5678593,22.6203508 47.0177683,19.3528983 45.3082754,19.2790098 C43.5987826,19.2051214 39.605582,19.2790098 39.298089,19.2790098 C38.9905959,19.2790098 38.2167341,19.6803824 38.1601807,18.636972 C38.1224784,17.9413651 38.5017811,15.3082097 39.298089,10.7375059 C39.3563083,10.2132498 39.66801,9.95112173 40.2331939,9.95112173 C41.0809698,9.95112173 46.5411409,10.7966166 47.584092,10.3738692 C48.6270431,9.95112173 49.8843713,8.6037132 49.1733759,6.2566996 C48.4623805,3.909686 45.8054198,2.67152681 44.7501059,2.56465246 C43.694792,2.4577781 41.8700879,2.5865551 40.2331939,3.66189583 C39.1419313,4.37878965 37.4926744,5.447973 35.2854234,6.8694459 Z" id="Path-12" fill="#000000" transform="translate(37.985612, 18.371425) rotate(-345.000000) translate(-37.985612, -18.371425) "></path>
                                            </g>
                                        </g>
                                    </g>
                                </g>
                            </g>
                        </g>
                    </svg>
