<svg xmlns="http://www.w3.org/2000/svg" xmlns:xlink="http://www.w3.org/1999/xlink" width="94" height="95" viewBox="0 0 94 95">
    <defs>
        <path id="a" d="M43.593 39v-1.75h.35l1.75 1.75h.945l-1.75-1.75h.175c.804 0 1.434-.63 1.434-1.575s-.63-1.575-1.434-1.575h-2.206V39h.736zm1.434-2.45h-1.434V34.8h1.434c.386 0 .736.35.736.875s-.35.875-.735.875zm5.6 2.45v-.7h-2.485v-1.4h2.345v-.7h-2.345v-1.4h2.485v-.7h-3.22V39h3.22zm3.045.07c1.33 0 2.03-.98 2.206-1.75h-.77c-.175.525-.63 1.05-1.435 1.05-.91 0-1.61-.7-1.61-1.82s.7-1.82 1.61-1.82c.63 0 1.19.35 1.434 1.015h.77c-.21-.875-.98-1.715-2.205-1.715-1.294 0-2.344 1.015-2.344 2.52 0 1.505 1.05 2.52 2.344 2.52zm5.11 0c1.296 0 2.346-1.015 2.346-2.52 0-1.505-1.05-2.52-2.346-2.52-1.294 0-2.344 1.015-2.344 2.52 0 1.505 1.05 2.52 2.344 2.52zm0-.7c-.91 0-1.61-.7-1.61-1.82s.7-1.82 1.61-1.82c.91 0 1.61.7 1.61 1.82s-.7 1.82-1.61 1.82zm5.39.63l1.716-4.9h-.806l-1.4 4.06h-.14l-1.4-4.06h-.805l1.715 4.9h1.12zm5.496 0v-.7h-2.486v-1.4h2.346v-.7h-2.346v-1.4h2.486v-.7h-3.22V39h3.22zm1.644 0v-1.75h.35l1.75 1.75h.945l-1.75-1.75h.175c.806 0 1.436-.63 1.436-1.575s-.63-1.575-1.436-1.575h-2.204V39h.734zm1.436-2.45h-1.436V34.8h1.436c.384 0 .734.35.734.875s-.35.875-.734.875zm4.2 2.45v-1.75l1.785-3.15h-.813l-1.252 2.275h-.14L75.24 34.1h-.813l1.785 3.15V39h.736zm5.39.07c1.225 0 1.855-.63 1.855-1.435 0-.77-.456-1.19-1.436-1.365l-.77-.14c-.524-.098-.734-.35-.734-.665 0-.385.35-.735 1.014-.735.7 0 1.12.42 1.12.875h.736c0-.875-.63-1.575-1.856-1.575-1.084 0-1.75.63-1.75 1.435 0 .665.386 1.155 1.156 1.295l.945.175c.56.105.84.35.84.7 0 .42-.316.735-1.12.735-.735 0-1.19-.42-1.19-.875h-.736c0 .875.7 1.575 1.925 1.575zm5.915-.07v-.7h-2.486v-1.4h2.346v-.7h-2.346v-1.4h2.486v-.7h-3.22V39h3.22zm4.13 0v-.7h-2.486v-1.4h2.346v-.7h-2.346v-1.4h2.485v-.7h-3.22V39h3.22zm2.624 0c1.33 0 2.346-1.015 2.346-2.45 0-1.435-1.015-2.45-2.346-2.45h-1.715V39h1.715zm0-.7h-.98v-3.5h.98c.91 0 1.61.7 1.61 1.75s-.7 1.75-1.61 1.75z"/>
        <path id="b" d="M56.475 99V50h-2.45v3.5c0 1.4-.7 2.1-2.1 2.1h-8.4v2.45h10.5V99h2.45zm40.6 0v-2.45h-24.85v-.35l17.85-18.9c2.31-2.45 5.95-6.3 5.95-13.3 0-8.75-5.95-14.7-14-14.7-7.7 0-14 6.3-14 15.75h2.45c0-8.05 5.25-13.3 11.55-13.3 6.65 0 11.55 4.9 11.55 12.25 0 6.3-2.94 9.45-5.25 11.9l-19.95 21V99h28.7z"/>
    </defs>
    <g fill="none" fill-rule="nonzero">
        <path fill="#E4E4E3" d="M90.681 2.723v88.654H2.027v2.738h91.394V2.723z"/>
        <path fill="#8FCB7F" d="M1.439 1v89.906h88.803V1h.878v90.785H.561V1z"/>
        <g transform="translate(-25 -23)">
            <use fill="#000" xlink:href="#a"/>
            <use fill="#8FCB7F" xlink:href="#a"/>
        </g>
        <g transform="translate(-25 -23)">
            <use fill="#000" xlink:href="#b"/>
            <use fill="#8FCB7F" xlink:href="#b"/>
        </g>
        <path fill="#8FCB7F" d="M90.675.927v.5H1.023v-.5z"/>
    </g>
</svg>
