<svg xmlns="http://www.w3.org/2000/svg" width="360" height="280" viewBox="0 0 360 280">
    <g fill="none" fill-rule="evenodd">
        <path fill="#D8D9DA" fill-rule="nonzero" d="M161.593 101.429c-42.406 0-76.783 34.377-76.783 76.783s34.377 76.783 76.783 76.783 76.783-34.377 76.783-76.783-34.377-76.783-76.783-76.783zm0 3.877c40.265 0 72.906 32.641 72.906 72.906 0 40.264-32.641 72.905-72.906 72.905-40.265 0-72.906-32.64-72.906-72.905s32.641-72.906 72.906-72.906z"/>
        <path fill="#BEBDC0" fill-rule="nonzero" d="M201.486 239.247l2.126 3.243a76.346 76.346 0 0 1-26.655 10.967l-.865.17-.728-3.808a72.469 72.469 0 0 0 25.398-10.103l.724-.469z"/>
        <path fill="#D8D9DA" fill-rule="nonzero" d="M46.385 149.198v12.014c.015 46.286 19.752 73.132 53.786 84.825 12.85 4.416 27.184 6.432 42.316 6.524a186.775 186.775 0 0 0 29.866-2.231c58.895-9.144 101.053-45.451 101.928-87.94l.014-1.29v-10.888h3.877v10.89c-.04 45.232-44.033 83.559-105.224 93.059a190.58 190.58 0 0 1-30.484 2.278c-15.524-.095-30.263-2.169-43.553-6.735-35.223-12.102-55.97-39.963-56.397-87.058l-.006-1.433v-12.015h3.877z"/>
        <path fill="#BEBDC0" fill-rule="nonzero" d="M278.132 144.058l.01 17.04-3.877.003-.01-17.04zM270.077 115.232h12.251v22.949h-12.251z"/>
        <path fill="#D8D9DA" fill-rule="nonzero" d="M272.206 132.532h7.994v23.384h-7.994z"/>
        <path fill="#7A7F80" fill-rule="nonzero" d="M279.848 132.885v22.68h-7.29v-22.68h7.29m.705-.705h-8.7v24.09h8.7v-24.09z"/>
        <path fill="#D8D9DA" fill-rule="nonzero" d="M269.11 126.355h14.184v21.058H269.11z"/>
        <path fill="#7A7F80" fill-rule="nonzero" d="M282.943 126.708v20.352h-13.476v-20.352h13.481m.705-.705h-14.89v21.762h14.89v-21.762z"/>
        <path fill="#FFF" fill-rule="nonzero" d="M279.973 145.8h1.35v-15.975a1.35 1.35 0 0 0-1.35-1.35V145.8zM275.483 155.34h4.094v-4.096a4.094 4.094 0 0 0-4.094 4.096z"/>
        <path fill="#7A7F80" fill-rule="nonzero" d="M272.435 147.642h7.538v2.311h-7.538z"/>
        <path fill="#7A7F80" fill-rule="nonzero" d="M272.435 147.642h7.538v2.311h-7.538z"/>
        <path fill="#D8D9DA" fill-rule="nonzero" d="M268.143 124.463a5.117 5.117 0 0 1-4.708-3.103l-5.41-12.59a35.117 35.117 0 0 1-2.868-13.94V54.44a8.42 8.42 0 0 1 6.86-8.264 72.825 72.825 0 0 1 26.809 0 8.42 8.42 0 0 1 6.86 8.265v40.415c.005 4.8-.973 9.55-2.875 13.957l-5.401 12.555a5.12 5.12 0 0 1-4.708 3.1l-14.56-.005z"/>
        <path fill="#7A7F80" fill-rule="nonzero" d="M275.421 45.306c4.474 0 8.938.415 13.336 1.239a8.033 8.033 0 0 1 6.549 7.896v40.415a34.94 34.94 0 0 1-2.844 13.809l-5.402 12.555a4.75 4.75 0 0 1-4.364 2.874h-14.553a4.752 4.752 0 0 1-4.365-2.876l-5.41-12.596a34.95 34.95 0 0 1-2.836-13.792V54.44a8.033 8.033 0 0 1 6.549-7.895 72.458 72.458 0 0 1 13.34-1.24m0-.748c-4.52.002-9.029.42-13.471 1.252a8.794 8.794 0 0 0-7.167 8.632v40.39a35.478 35.478 0 0 0 2.899 14.092l5.409 12.585a5.497 5.497 0 0 0 5.052 3.329h14.559a5.492 5.492 0 0 0 5.052-3.327l5.402-12.555a35.469 35.469 0 0 0 2.906-14.104V54.435a8.794 8.794 0 0 0-7.167-8.626 73.315 73.315 0 0 0-13.474-1.252z"/>
        <rect width="32.929" height="18.413" x="258.958" y="64.322" fill="#BEBDC0" fill-rule="nonzero" rx="1.946"/>
        <rect width="13.842" height="7.303" x="258.677" y="86.315" fill="#D8D9DA" fill-rule="nonzero" rx="1.529"/>
        <path fill="#7A7F80" fill-rule="nonzero" d="M270.99 86.595c.69 0 1.249.56 1.249 1.248v4.24a1.248 1.248 0 0 1-1.248 1.248h-10.782a1.248 1.248 0 0 1-1.251-1.248v-4.24a1.246 1.246 0 0 1 1.251-1.248h10.782m0-.56h-10.782a1.811 1.811 0 0 0-1.809 1.808v4.24a1.811 1.811 0 0 0 1.81 1.815h10.78a1.811 1.811 0 0 0 1.81-1.815v-4.24a1.811 1.811 0 0 0-1.81-1.809z"/>
        <rect width="13.842" height="7.303" x="278.324" y="86.315" fill="#D8D9DA" fill-rule="nonzero" rx="1.529"/>
        <path fill="#7A7F80" fill-rule="nonzero" d="M290.637 86.595a1.246 1.246 0 0 1 1.248 1.248v4.24a1.248 1.248 0 0 1-1.248 1.248h-10.781c-.69 0-1.248-.558-1.248-1.248v-4.24c0-.689.559-1.248 1.248-1.248h10.785m0-.56h-10.785a1.811 1.811 0 0 0-1.81 1.808v4.24a1.811 1.811 0 0 0 1.81 1.815h10.785a1.811 1.811 0 0 0 1.81-1.81v-4.245a1.811 1.811 0 0 0-1.81-1.809z"/>
        <path fill="#000" fill-rule="nonzero" d="M289.941 63.948h-29.037a2.32 2.32 0 0 0-2.32 2.32v14.521a2.32 2.32 0 0 0 2.32 2.32h29.037a2.32 2.32 0 0 0 2.32-2.32V66.268a2.32 2.32 0 0 0-2.32-2.32zm-29.037.748h29.037c.868 0 1.572.704 1.572 1.572v14.521c0 .868-.704 1.572-1.572 1.572h-29.037a1.572 1.572 0 0 1-1.572-1.572V66.268c0-.868.704-1.572 1.572-1.572z"/>
        <path fill="#FFF" fill-rule="nonzero" d="M257.51 51.573l3.048-3.049 1.408 1.408-3.049 3.048zM289.941 82.361v.749h-29.04v-.749zM270.99 86.315v.561h-10.784v-.561zM290.637 86.315v.561h-10.785v-.561z"/>
        <path fill="#FFF" fill-rule="nonzero" d="M275.421 46.241c4.416.002 8.823.41 13.164 1.222a7.11 7.11 0 0 1 5.79 6.978v40.415a33.796 33.796 0 0 1-2.769 13.438l-5.4 12.557a3.814 3.814 0 0 1-3.504 2.307h-14.56a3.813 3.813 0 0 1-3.504-2.308l-5.409-12.597a33.828 33.828 0 0 1-2.762-13.423V54.44a7.11 7.11 0 0 1 5.8-6.977 71.749 71.749 0 0 1 13.154-1.222m0-.935c-4.475 0-8.941.415-13.34 1.239a8.033 8.033 0 0 0-6.55 7.896v40.39c0 4.741.966 9.434 2.837 13.79l5.41 12.592a4.752 4.752 0 0 0 4.365 2.875h14.559a4.75 4.75 0 0 0 4.363-2.874l5.402-12.555a34.94 34.94 0 0 0 2.844-13.808V54.435a8.033 8.033 0 0 0-6.549-7.896 72.453 72.453 0 0 0-13.34-1.233z"/>
        <path fill="#D8D9DA" fill-rule="nonzero" d="M265.299 123.144a4.74 4.74 0 0 0 2.844.948h14.559a4.75 4.75 0 0 0 4.363-2.874l5.402-12.555a34.94 34.94 0 0 0 2.844-13.809l-30.012 28.29z"/>
        <path fill="#FFF" fill-rule="nonzero" d="M262.08 49.267a72.376 72.376 0 0 1 26.671 0c2.865.537 5.613 2.58 5.613 5.174h.936a8.033 8.033 0 0 0-6.549-7.896 72.376 72.376 0 0 0-26.67 0 8.033 8.033 0 0 0-6.55 7.896h.936c0-2.618 2.753-4.644 5.614-5.174z"/>
        <path fill="#D8D9DA" fill-rule="nonzero" d="M268.143 124.463a5.117 5.117 0 0 1-4.708-3.103l-5.41-12.59a35.117 35.117 0 0 1-2.868-13.94V54.44a8.42 8.42 0 0 1 6.86-8.264 72.825 72.825 0 0 1 26.809 0 8.42 8.42 0 0 1 6.86 8.265v40.415c.005 4.8-.973 9.55-2.875 13.957l-5.401 12.555a5.12 5.12 0 0 1-4.708 3.1l-14.56-.005z"/>
        <path fill="#7A7F80" fill-rule="nonzero" d="M275.421 45.306c4.474 0 8.938.415 13.336 1.239a8.033 8.033 0 0 1 6.549 7.896v40.415a34.94 34.94 0 0 1-2.844 13.809l-5.402 12.555a4.75 4.75 0 0 1-4.364 2.874h-14.553a4.752 4.752 0 0 1-4.365-2.876l-5.41-12.596a34.95 34.95 0 0 1-2.836-13.792V54.44a8.033 8.033 0 0 1 6.549-7.895 72.458 72.458 0 0 1 13.34-1.24m0-.748c-4.52.002-9.029.42-13.471 1.252a8.794 8.794 0 0 0-7.167 8.632v40.39a35.478 35.478 0 0 0 2.899 14.092l5.409 12.585a5.497 5.497 0 0 0 5.052 3.329h14.559a5.492 5.492 0 0 0 5.052-3.327l5.402-12.555a35.469 35.469 0 0 0 2.906-14.104V54.435a8.794 8.794 0 0 0-7.167-8.626 73.315 73.315 0 0 0-13.474-1.252z"/>
        <path fill="#FFF" fill-rule="nonzero" d="M289.85 83.877h-28.858a2.034 2.034 0 0 1-2.034-2.036v-1.052h32.931v1.052a2.036 2.036 0 0 1-2.04 2.036z"/>
        <rect width="32.181" height="17.665" x="259.332" y="64.696" fill="#C6E2BA" fill-rule="nonzero" rx="1.572"/>
        <path fill="#7A7F80" fill-rule="nonzero" d="M289.941 65.07c.66.001 1.196.537 1.196 1.198v14.521c0 .661-.535 1.197-1.196 1.198h-29.04a1.198 1.198 0 0 1-1.195-1.198V66.262c0-.66.535-1.196 1.196-1.197h29.04m0-.749h-29.04a1.944 1.944 0 0 0-1.944 1.946v14.522a1.946 1.946 0 0 0 1.944 1.944h29.04a1.946 1.946 0 0 0 1.943-1.946v-14.52a1.944 1.944 0 0 0-1.944-1.946z"/>
        <path fill="#FFF" fill-rule="nonzero" d="M258.958 86.595h13.281v1.134h-13.281zM278.604 86.595h13.281v1.134h-13.281z"/>
        <path fill="#7A7F80" fill-rule="nonzero" d="M270.99 86.595c.69 0 1.249.56 1.249 1.248v4.24a1.248 1.248 0 0 1-1.248 1.248h-10.782a1.248 1.248 0 0 1-1.251-1.248v-4.24a1.246 1.246 0 0 1 1.251-1.248h10.782m0-.56h-10.782a1.811 1.811 0 0 0-1.809 1.808v4.24a1.811 1.811 0 0 0 1.81 1.815h10.78a1.811 1.811 0 0 0 1.81-1.815v-4.24a1.811 1.811 0 0 0-1.81-1.809zM290.637 86.595a1.246 1.246 0 0 1 1.248 1.248v4.24a1.248 1.248 0 0 1-1.248 1.248h-10.781c-.69 0-1.248-.558-1.248-1.248v-4.24c0-.689.559-1.248 1.248-1.248h10.785m0-.56h-10.785a1.811 1.811 0 0 0-1.81 1.808v4.24a1.811 1.811 0 0 0 1.81 1.815h10.785a1.811 1.811 0 0 0 1.81-1.81v-4.245a1.811 1.811 0 0 0-1.81-1.809z"/>
        <path fill="#FFF" fill-rule="nonzero" d="M257.33 51.392l3.048-3.048 1.767 1.768-3.048 3.048z"/>
        <path fill="#FFF" fill-rule="nonzero" d="M275.421 46.241c4.416.002 8.823.41 13.164 1.222a7.11 7.11 0 0 1 5.79 6.978v40.415a33.796 33.796 0 0 1-2.769 13.438l-5.4 12.557a3.814 3.814 0 0 1-3.504 2.307h-14.56a3.813 3.813 0 0 1-3.504-2.308l-5.409-12.597a33.828 33.828 0 0 1-2.762-13.423V54.44a7.11 7.11 0 0 1 5.8-6.977 71.749 71.749 0 0 1 13.154-1.222m0-.935c-4.475 0-8.941.415-13.34 1.239a8.033 8.033 0 0 0-6.55 7.896v40.39c0 4.741.966 9.434 2.837 13.79l5.41 12.592a4.752 4.752 0 0 0 4.365 2.875h14.559a4.75 4.75 0 0 0 4.363-2.874l5.402-12.555a34.94 34.94 0 0 0 2.844-13.808V54.435a8.033 8.033 0 0 0-6.549-7.896 72.453 72.453 0 0 0-13.34-1.233z"/>
        <path fill="#D8D9DA" fill-rule="nonzero" d="M265.299 123.144a4.74 4.74 0 0 0 2.844.948h14.559a4.75 4.75 0 0 0 4.363-2.874l5.402-12.555a34.94 34.94 0 0 0 2.844-13.809l-30.012 28.29z"/>
        <path fill="#FFF" fill-rule="nonzero" d="M262.08 49.267a72.376 72.376 0 0 1 26.671 0c2.865.537 5.613 2.58 5.613 5.174h.936a8.033 8.033 0 0 0-6.549-7.896 72.376 72.376 0 0 0-26.67 0 8.033 8.033 0 0 0-6.55 7.896h.936c0-2.618 2.753-4.644 5.614-5.174z"/>
        <path fill="#FFF" d="M268.755 73.122a1.144 1.144 0 0 1 1.609 0l3.308 3.272 7.855-7.774a1.147 1.147 0 0 1 1.61 0 1.117 1.117 0 0 1 0 1.587l-9.467 9.363-4.915-4.864a1.116 1.116 0 0 1 0-1.584z"/>
        <path fill="#C6E2BA" fill-rule="nonzero" d="M322.048 69.47l.019 1.058-10.555.192-.02-1.058zM240.954 70.947l.019 1.058-10.555.193-.02-1.057zM275.927 25l.192 10.555-1.057.019-.193-10.556zM301.994 94.938l7.6 7.326-.734.761-7.6-7.326zM243.607 38.641l7.598 7.327-.734.761-7.598-7.326zM307.663 37.474l.762.734-7.327 7.598-.761-.734zM251.367 95.86l.761.735-7.326 7.6-.761-.735zM309.012 83.878l9.748 4.05-.406.977-9.748-4.05zM234.111 52.762l9.748 4.05-.406.977-9.748-4.05zM293.327 28.306l.977.406-4.05 9.748-.977-.406zM259.226 28.27l4.03 9.757-.978.404-4.03-9.757zM318.392 52.85l.404.977-9.757 4.03-.404-.976zM243.426 83.81l.404.978-9.757 4.03-.404-.978z"/>
        <circle cx="161.593" cy="178.215" r="39.509" fill="#C6E2BA" fill-rule="nonzero"/>
        <path fill="#BEBDC0" fill-rule="nonzero" d="M37.32 115.248h12.251v22.949H37.32zM45.374 144.074l.011 17.04-3.877.003-.01-17.041z"/>
        <path fill="#D8D9DA" fill-rule="nonzero" d="M39.447 132.548h7.994v23.384h-7.994z"/>
        <path fill="#7A7F80" fill-rule="nonzero" d="M47.09 132.9v22.68H39.8V132.9h7.29m.704-.704h-8.7v24.09h8.7v-24.09z"/>
        <path fill="#D8D9DA" fill-rule="nonzero" d="M36.352 126.371h14.184v21.058H36.352z"/>
        <path fill="#7A7F80" fill-rule="nonzero" d="M50.184 126.723v20.353H36.705v-20.353h13.48m.704-.705H36v21.763h14.89v-21.763z"/>
        <path fill="#FFF" fill-rule="nonzero" d="M47.214 145.816h1.35v-15.975a1.35 1.35 0 0 0-1.35-1.35v17.325zM38.67 115.914h1.35v8.733h-1.35zM42.726 155.356h4.094v-4.096a4.094 4.094 0 0 0-4.094 4.096z"/>
        <path fill="#7A7F80" fill-rule="nonzero" d="M39.668 147.683h7.538v2.311h-7.538z"/>
        <path fill="#C6E2BA" fill-rule="nonzero" d="M212.401 177.71v1.057h-5.769v-1.058zM116.555 177.71v1.057h-5.768v-1.058zM162.122 127.432v5.768h-1.058v-5.768zM162.122 223.278v5.768h-1.058v-5.768zM193.814 209.712l4.079 4.08-.748.748-4.078-4.08zM126.041 141.938l4.078 4.079-.747.748-4.079-4.079zM197.145 141.938l.748.748-4.079 4.079-.747-.748zM129.372 209.712l.747.747-4.078 4.08-.748-.747zM203.076 195.789l5.286 2.309-.424.969-5.285-2.31zM115.25 157.41l5.285 2.31-.423.97-5.286-2.311zM181.452 131.471l.97.424-2.31 5.285-.968-.423zM143.075 219.298l.97.423-2.311 5.286-.97-.424zM178.517 219.981l2.104 5.37-.985.386-2.104-5.37zM143.551 130.74l2.105 5.371-.985.386-2.104-5.372zM208.706 159.212l.386.985-5.37 2.104-.386-.985zM119.466 194.177l.386.985-5.372 2.104-.386-.984zM205.932 186.17l5.666 1.082-.199 1.039-5.666-1.083zM111.788 168.186l5.665 1.082-.198 1.039-5.665-1.083zM170.607 128.235l1.038.199-1.082 5.664-1.038-.198zM152.623 222.378l1.038.199-1.082 5.666-1.038-.198zM187.337 215.2l3.242 4.77-.875.594-3.241-4.77zM133.484 135.912l3.241 4.773-.875.594-3.24-4.773zM203.325 149.254l.594.875-4.77 3.241-.595-.874zM124.04 203.108l.594.875-4.773 3.24-.594-.874zM199.046 203.26l4.759 3.261-.598.872-4.759-3.26zM119.98 149.085l4.76 3.26-.598.872-4.759-3.26zM189.876 136.028l.872.598-3.26 4.759-.873-.598zM135.7 215.094l.872.597-3.26 4.759-.873-.598zM170.384 222.414l1.06 5.671-1.04.195-1.06-5.672zM152.784 128.198l1.06 5.67-1.04.194-1.06-5.67zM211.44 168.39l.194 1.04-5.671 1.058-.194-1.039zM117.223 185.99l.194 1.04-5.67 1.058-.194-1.04z"/>
        <circle cx="182.88" cy="140.686" r="7.95" fill="#F9C447" fill-rule="nonzero" opacity=".4"/>
        <circle cx="182.88" cy="140.686" r="5.383" fill="#F9C447" fill-rule="nonzero"/>
        <path fill="#FFF" fill-rule="nonzero" d="M182.833 137.305l3.419 3.348-3.348 3.419-3.419-3.348z"/>
        <circle cx="103.883" cy="221.367" r="5.709" fill="#F9C447" fill-rule="nonzero" opacity=".4"/>
        <circle cx="103.883" cy="221.367" r="3.865" fill="#F9C447" fill-rule="nonzero"/>
        <path fill="#FFF" fill-rule="nonzero" d="M103.846 218.932l2.456 2.404-2.405 2.456-2.456-2.405z"/>
        <circle cx="188.59" cy="215.657" r="5.709" fill="#F9C447" fill-rule="nonzero" opacity=".4"/>
        <circle cx="188.59" cy="215.657" r="3.865" fill="#F9C447" fill-rule="nonzero"/>
        <path fill="#FFF" fill-rule="nonzero" d="M188.548 213.227l2.456 2.404-2.405 2.456-2.456-2.405z"/>
        <circle cx="129.775" cy="106.919" r="5.709" fill="#F9C447" fill-rule="nonzero" opacity=".4"/>
        <circle cx="129.775" cy="106.919" r="3.865" fill="#F9C447" fill-rule="nonzero"/>
        <path fill="#FFF" fill-rule="nonzero" d="M129.74 104.49l2.456 2.405-2.405 2.456-2.456-2.405z"/>
        <circle cx="128.091" cy="155.497" r="5.709" fill="#F9C447" fill-rule="nonzero" opacity=".4"/>
        <circle cx="128.091" cy="155.497" r="3.865" fill="#F9C447" fill-rule="nonzero"/>
        <path fill="#FFF" fill-rule="nonzero" d="M128.054 153.067l2.455 2.405-2.404 2.455-2.456-2.404z"/>
        <circle cx="233.397" cy="178.238" r="8.162" fill="#F9C447" fill-rule="nonzero" opacity=".4"/>
        <circle cx="233.397" cy="178.238" r="5.525" fill="#F9C447" fill-rule="nonzero"/>
        <path fill="#FFF" fill-rule="nonzero" d="M233.344 174.768l3.51 3.437-3.437 3.51-3.51-3.437z"/>
        <circle cx="65.976" cy="197.109" r="5.709" fill="#F9C447" fill-rule="nonzero" opacity=".4"/>
        <circle cx="65.976" cy="197.109" r="3.865" fill="#F9C447" fill-rule="nonzero"/>
        <path fill="#FFF" fill-rule="nonzero" d="M65.941 194.672l2.456 2.405-2.405 2.456-2.456-2.405z"/>
        <circle cx="218.11" cy="89.294" r="5.709" fill="#F9C447" fill-rule="nonzero" opacity=".4"/>
        <circle cx="218.11" cy="89.294" r="3.865" fill="#F9C447" fill-rule="nonzero"/>
        <path fill="#FFF" fill-rule="nonzero" d="M218.074 86.871l2.456 2.405-2.405 2.456-2.456-2.405z"/>
        <circle cx="92.457" cy="67.186" r="10.067" fill="#F9C447" fill-rule="nonzero" opacity=".4"/>
        <circle cx="92.457" cy="67.186" r="6.814" fill="#F9C447" fill-rule="nonzero"/>
        <path fill="#FFF" fill-rule="nonzero" d="M92.409 62.903l4.328 4.239-4.239 4.328-4.328-4.238z"/>
        <circle cx="311.534" cy="119.492" r="8.52" fill="#F9C447" fill-rule="nonzero" opacity=".4"/>
        <circle cx="311.534" cy="119.492" r="5.767" fill="#F9C447" fill-rule="nonzero"/>
        <path fill="#FFF" fill-rule="nonzero" d="M311.479 115.877l3.663 3.587-3.587 3.663-3.663-3.587z"/>
        <path fill="#FFF" d="M146.032 176.345a2.633 2.633 0 0 1 3.701 0l7.605 7.524 18.055-17.873a2.631 2.631 0 0 1 3.701 0 2.568 2.568 0 0 1 0 3.657l-21.763 21.53-11.299-11.18a2.568 2.568 0 0 1 0-3.658z"/>
    </g>
</svg>
