<svg xmlns="http://www.w3.org/2000/svg" width="257" height="200" viewBox="0 0 257 200">
    <g fill="none" fill-rule="nonzero">
        <ellipse cx="135.064" cy="93" fill="#C6E2BA" rx="74.388" ry="74.429"/>
        <ellipse cx="45.947" cy="82.835" fill="#FCDEA1" rx="7.847" ry="7.852"/>
        <ellipse cx="45.947" cy="82.835" fill="#F9C447" rx="4.931" ry="4.934"/>
        <path fill="#FFF" d="M45.947 79.733l3.099 3.1-3.1 3.1-3.098-3.1z"/>
        <ellipse cx="183.469" cy="47.135" fill="#FCDEA1" rx="7.854" ry="7.858"/>
        <ellipse cx="183.469" cy="47.135" fill="#F9C447" rx="4.935" ry="4.938"/>
        <path fill="#FFF" d="M183.468 44.032l3.102 3.103-3.102 3.104-3.102-3.104z"/>
        <ellipse cx="204.022" cy="130.709" fill="#FCDEA1" rx="6.702" ry="6.706"/>
        <ellipse cx="204.022" cy="130.709" fill="#F9C447" rx="4.212" ry="4.214"/>
        <path fill="#FFF" d="M204.022 128.058l2.646 2.648-2.646 2.648-2.647-2.648z"/>
        <ellipse cx="27.202" cy="153.979" fill="#FCDEA1" rx="5.493" ry="5.496"/>
        <ellipse cx="27.202" cy="153.979" fill="#F9C447" rx="3.451" ry="3.453"/>
        <path fill="#FFF" d="M27.202 151.807l2.17 2.17-2.17 2.172-2.17-2.171z"/>
        <ellipse cx="251.341" cy="81.548" fill="#FCDEA1" rx="5.493" ry="5.496"/>
        <ellipse cx="251.341" cy="81.548" fill="#F9C447" rx="3.451" ry="3.453"/>
        <path fill="#FFF" d="M251.343 79.376l2.17 2.171-2.17 2.172-2.17-2.172z"/>
        <ellipse cx="5.493" cy="107.744" fill="#FCDEA1" rx="5.493" ry="5.496"/>
        <ellipse cx="5.493" cy="107.744" fill="#F9C447" rx="3.451" ry="3.453"/>
        <path fill="#FFF" d="M5.493 105.573l2.17 2.17-2.17 2.172-2.17-2.171z"/>
        <ellipse cx="236.187" cy="160.783" fill="#FCDEA1" rx="4.184" ry="4.187"/>
        <ellipse cx="236.187" cy="160.783" fill="#F9C447" rx="2.629" ry="2.631"/>
        <path fill="#FFF" d="M236.187 159.127l1.653 1.654-1.653 1.654-1.653-1.654z"/>
        <ellipse cx="29.019" cy="33.049" fill="#FCDEA1" rx="4.184" ry="4.187"/>
        <ellipse cx="29.019" cy="33.049" fill="#F9C447" rx="2.629" ry="2.631"/>
        <path fill="#FFF" d="M29.02 31.395l1.654 1.654-1.653 1.654-1.654-1.654z"/>
        <ellipse cx="74.021" cy="90.686" fill="#FCDEA1" rx="4.184" ry="4.187"/>
        <ellipse cx="74.021" cy="90.686" fill="#F9C447" rx="2.629" ry="2.631"/>
        <path fill="#FFF" d="M74.02 89.03l1.653 1.654-1.653 1.654-1.653-1.654z"/>
        <ellipse cx="234.878" cy="30.418" fill="#FCDEA1" rx="5.493" ry="5.496"/>
        <ellipse cx="234.878" cy="30.418" fill="#F9C447" rx="3.451" ry="3.453"/>
        <path fill="#FFF" d="M234.876 28.246l2.17 2.171-2.17 2.172-2.17-2.172z"/>
        <ellipse cx="79.425" cy="130.812" fill="#FCDEA1" rx="6.6" ry="6.603"/>
        <ellipse cx="79.425" cy="130.812" fill="#F9C447" rx="4.146" ry="4.148"/>
        <path fill="#FFF" d="M79.427 128.203l2.606 2.608-2.606 2.607-2.606-2.607z"/>
        <ellipse cx="99.432" cy="32.675" fill="#FCDEA1" rx="6.6" ry="6.603"/>
        <ellipse cx="99.432" cy="32.675" fill="#F9C447" rx="4.146" ry="4.148"/>
        <path fill="#FFF" d="M99.431 30.066l2.606 2.607-2.606 2.608-2.606-2.608z"/>
        <ellipse cx="135.064" cy="93" fill="#FFF" rx="33.035" ry="33.053"/>
        <ellipse cx="135.064" cy="93" fill="#F9C447" rx="29.032" ry="29.049"/>
        <path fill="#BEBDC0" d="M138.478 113.238c0 2.989-.605 4.59-2.292 7.143l-.178.267c-1.593 2.37-2.083 3.585-2.083 6.139 0 2.462.456 3.68 1.917 5.887l.166.25c1.822 2.71 2.47 4.317 2.47 7.409 0 2.988-.605 4.59-2.292 7.142l-.178.267c-1.593 2.37-2.083 3.585-2.083 6.139 0 2.371.423 3.588 1.758 5.647l.325.492c1.822 2.71 2.47 4.318 2.47 7.41 0 2.988-.605 4.59-2.292 7.141l-.178.268c-1.536 2.285-2.046 3.497-2.08 5.87l-.003.268h-2.276c0-2.988.605-4.59 2.292-7.142l.178-.267c1.593-2.37 2.083-3.585 2.083-6.139 0-2.462-.456-3.68-1.917-5.889l-.166-.25c-1.822-2.71-2.47-4.318-2.47-7.41 0-2.988.605-4.589 2.292-7.141l.178-.268c1.593-2.37 2.083-3.585 2.083-6.138 0-2.463-.456-3.68-1.916-5.888l-.167-.25c-1.822-2.71-2.47-4.317-2.47-7.408 0-2.989.605-4.59 2.292-7.142l.178-.268c1.536-2.285 2.046-3.497 2.08-5.87l.003-.269h2.276z"/>
        <path fill="#FFF" d="M182.72 85.508l2.257 2.258-2.257 2.258-2.257-2.258zM96.515 59.324l2.018 2.02-2.018 2.019-2.019-2.02zM173.413 142.823l1.993 1.994-1.993 1.994-1.993-1.994zM135.064 72.858l6.196 12.867 14.147 1.92-10.318 9.874 2.546 14.054-12.571-6.765-12.574 6.765 2.546-14.054-10.315-9.874 14.146-1.92zM156.09 139.408V162.6h-1.366v-23.192zM115.404 126.495v23.193h-1.366v-23.193z"/>
    </g>
</svg>
