<svg width="100" height="26" viewBox="0 0 100 26" fill="none" xmlns="http://www.w3.org/2000/svg">
<path d="M14.7973 11.8637C14.8081 11.0291 15.0298 10.2107 15.4418 9.48474C15.8538 8.75879 16.4428 8.14885 17.1539 7.71168C16.7021 7.06652 16.1062 6.53557 15.4134 6.16102C14.7205 5.78647 13.9499 5.57863 13.1627 5.554C11.4835 5.37774 9.85552 6.55883 8.99981 6.55883C8.12754 6.55883 6.81004 5.5715 5.39131 5.60069C4.47364 5.63033 3.57929 5.89719 2.79541 6.37525C2.01154 6.8533 1.36486 7.52626 0.918393 8.32855C-1.01561 11.677 0.426982 16.598 2.27959 19.3046C3.20649 20.63 4.28977 22.1104 5.70722 22.0579C7.09428 22.0004 7.61232 21.1735 9.28662 21.1735C10.9454 21.1735 11.4314 22.0579 12.8776 22.0246C14.366 22.0004 15.3038 20.6933 16.1981 19.3554C16.8641 18.4111 17.3766 17.3673 17.7166 16.2629C16.8518 15.8972 16.1139 15.285 15.5948 14.5027C15.0757 13.7204 14.7983 12.8026 14.7973 11.8637Z" fill="black"/>
<path d="M12.0657 3.77394C12.8772 2.79974 13.277 1.54756 13.1802 0.283325C11.9404 0.413546 10.7951 1.0061 9.97262 1.94293C9.57048 2.4006 9.26248 2.93304 9.06624 3.50981C8.86999 4.08658 8.78935 4.69637 8.82891 5.30433C9.44905 5.31071 10.0626 5.1763 10.6232 4.91121C11.1839 4.64612 11.6771 4.25727 12.0657 3.77394Z" fill="black"/>
<path d="M32.3298 18.7027H27.5964L26.4597 22.0591H24.4548L28.9382 9.6411H31.0212L35.5046 22.0591H33.4656L32.3298 18.7027ZM28.0867 17.1538H31.8387L29.9891 11.7066H29.9373L28.0867 17.1538Z" fill="black"/>
<path d="M45.1873 17.5327C45.1873 20.3462 43.6814 22.1538 41.4089 22.1538C40.8333 22.1839 40.2608 22.0513 39.757 21.7712C39.2532 21.4911 38.8385 21.0747 38.5603 20.5698H38.5173V25.0542H36.6589V13.0054H38.4578V14.5112H38.4919C38.7829 14.0088 39.2046 13.5946 39.7123 13.3127C40.2199 13.0309 40.7944 12.8919 41.3748 12.9107C43.6726 12.9107 45.1873 14.7271 45.1873 17.5327ZM43.2771 17.5327C43.2771 15.6997 42.3298 14.4946 40.8845 14.4946C39.4646 14.4946 38.5095 15.7251 38.5095 17.5327C38.5095 19.357 39.4646 20.5786 40.8845 20.5786C42.3298 20.5786 43.2771 19.3823 43.2771 17.5327Z" fill="black"/>
<path d="M55.1521 17.5327C55.1521 20.3462 53.6462 22.1538 51.3738 22.1538C50.7981 22.1839 50.2256 22.0513 49.7218 21.7712C49.218 21.4911 48.8033 21.0747 48.5252 20.5698H48.4821V25.0542H46.6237V13.0054H48.4226V14.5112H48.4567C48.7477 14.0088 49.1694 13.5946 49.6771 13.3127C50.1847 13.0309 50.7592 12.8919 51.3396 12.9107C53.6374 12.9107 55.1521 14.7271 55.1521 17.5327ZM53.2419 17.5327C53.2419 15.6997 52.2947 14.4946 50.8494 14.4946C49.4294 14.4946 48.4744 15.7251 48.4744 17.5327C48.4744 19.357 49.4294 20.5786 50.8494 20.5786C52.2947 20.5786 53.2419 19.3823 53.2419 17.5327Z" fill="black"/>
<path d="M61.738 18.5991C61.8757 19.8306 63.072 20.6391 64.7068 20.6391C66.2732 20.6391 67.4002 19.8305 67.4002 18.7202C67.4002 17.7563 66.7205 17.1792 65.1111 16.7837L63.5017 16.396C61.2215 15.8452 60.1628 14.7788 60.1628 13.0483C60.1628 10.9057 62.03 9.43404 64.6814 9.43404C67.3054 9.43404 69.1043 10.9057 69.1648 13.0483H67.2888C67.1765 11.809 66.1521 11.061 64.655 11.061C63.1579 11.061 62.1335 11.8178 62.1335 12.9194C62.1335 13.7973 62.7878 14.3139 64.3884 14.7094L65.7566 15.0453C68.3044 15.6479 69.363 16.6713 69.363 18.4877C69.363 20.811 67.5124 22.266 64.5691 22.266C61.8152 22.266 59.9558 20.8451 59.8357 18.599L61.738 18.5991Z" fill="black"/>
<path d="M73.3738 10.8628V13.0054H75.0955V14.4771H73.3738V19.4683C73.3738 20.2437 73.7185 20.605 74.4753 20.605C74.6797 20.6014 74.8838 20.5871 75.0867 20.562V22.0249C74.7464 22.0885 74.4005 22.1173 74.0544 22.1108C72.2214 22.1108 71.5066 21.4223 71.5066 19.6665V14.4771H70.1902V13.0054H71.5066V10.8628H73.3738Z" fill="black"/>
<path d="M76.0926 17.5327C76.0926 14.6841 77.7703 12.8941 80.3865 12.8941C83.0115 12.8941 84.6814 14.6841 84.6814 17.5327C84.6814 20.3892 83.0203 22.1714 80.3865 22.1714C77.7537 22.1714 76.0926 20.3892 76.0926 17.5327ZM82.7879 17.5327C82.7879 15.5786 81.8924 14.4253 80.3865 14.4253C78.8807 14.4253 77.9861 15.5874 77.9861 17.5327C77.9861 19.4946 78.8807 20.6392 80.3865 20.6392C81.8924 20.6392 82.7879 19.4946 82.7879 17.5327Z" fill="black"/>
<path d="M86.2136 13.0054H87.9861V14.5464H88.0291C88.149 14.0651 88.431 13.6398 88.8276 13.3419C89.2241 13.044 89.7112 12.8917 90.2068 12.9106C90.421 12.9099 90.6346 12.9332 90.8435 12.98V14.7183C90.5732 14.6356 90.2911 14.5977 90.0085 14.606C89.7386 14.595 89.4694 14.6426 89.2196 14.7455C88.9697 14.8484 88.7451 15.0041 88.5611 15.202C88.3772 15.3999 88.2382 15.6353 88.1538 15.8919C88.0693 16.1486 88.0414 16.4205 88.072 16.689V22.0591H86.2136L86.2136 13.0054Z" fill="black"/>
<path d="M99.4119 19.3999C99.1619 21.0435 97.5613 22.1714 95.5134 22.1714C92.8796 22.1714 91.2449 20.4067 91.2449 17.5757C91.2449 14.7358 92.8884 12.8941 95.4353 12.8941C97.9402 12.8941 99.5154 14.6147 99.5154 17.3599V17.9966H93.1209V18.1089C93.0914 18.4421 93.1331 18.7778 93.2432 19.0936C93.3534 19.4094 93.5295 19.6982 93.7599 19.9408C93.9903 20.1833 94.2696 20.3741 94.5793 20.5004C94.8891 20.6267 95.2221 20.6856 95.5564 20.6733C95.9956 20.7145 96.4363 20.6128 96.813 20.3833C97.1897 20.1539 97.4823 19.809 97.6472 19.3999L99.4119 19.3999ZM93.1296 16.6978H97.656C97.6727 16.3982 97.6273 16.0984 97.5226 15.8171C97.4179 15.5359 97.2562 15.2794 97.0477 15.0636C96.8392 14.8479 96.5883 14.6775 96.3109 14.5633C96.0334 14.4491 95.7353 14.3935 95.4353 14.3999C95.1327 14.3981 94.8327 14.4562 94.5526 14.571C94.2726 14.6857 94.0181 14.8548 93.8037 15.0684C93.5893 15.2821 93.4194 15.536 93.3037 15.8157C93.188 16.0953 93.1289 16.3951 93.1296 16.6978Z" fill="black"/>
<path d="M27.8538 0.293999C28.2434 0.26604 28.6343 0.3249 28.9984 0.466333C29.3626 0.607766 29.6907 0.828247 29.9593 1.11187C30.2279 1.3955 30.4302 1.7352 30.5516 2.10647C30.673 2.47774 30.7105 2.87132 30.6614 3.25884C30.6614 5.16509 29.6311 6.26084 27.8538 6.26084H25.6985V0.293999H27.8538ZM26.6252 5.417H27.7502C28.0286 5.43364 28.3073 5.38799 28.5658 5.28338C28.8243 5.17876 29.0563 5.01782 29.2448 4.81225C29.4333 4.60669 29.5736 4.36168 29.6554 4.09506C29.7373 3.82844 29.7587 3.54692 29.718 3.271C29.7557 2.99617 29.7322 2.71639 29.6491 2.45173C29.5659 2.18707 29.4253 1.94406 29.2372 1.74013C29.0492 1.5362 28.8183 1.37639 28.5613 1.27216C28.3042 1.16792 28.0272 1.12184 27.7502 1.13721H26.6252V5.417Z" fill="black"/>
<path d="M31.7083 4.00734C31.6799 3.71142 31.7138 3.41285 31.8076 3.13078C31.9015 2.84871 32.0532 2.58937 32.2532 2.36939C32.4531 2.14941 32.6968 1.97364 32.9687 1.85337C33.2405 1.73309 33.5345 1.67096 33.8318 1.67096C34.1291 1.67096 34.423 1.73309 34.6949 1.85337C34.9667 1.97364 35.2105 2.14941 35.4104 2.36939C35.6103 2.58937 35.7621 2.84871 35.8559 3.13078C35.9498 3.41285 35.9836 3.71142 35.9553 4.00734C35.9842 4.30356 35.9507 4.60254 35.8571 4.88507C35.7635 5.16759 35.6119 5.42741 35.4119 5.64783C35.2119 5.86824 34.968 6.04437 34.6959 6.16491C34.4237 6.28544 34.1294 6.34771 33.8318 6.34771C33.5342 6.34771 33.2398 6.28544 32.9677 6.16491C32.6956 6.04437 32.4517 5.86824 32.2517 5.64783C32.0517 5.42741 31.9 5.16759 31.8064 4.88507C31.7129 4.60254 31.6794 4.30356 31.7083 4.00734ZM35.0412 4.00734C35.0412 3.03127 34.6028 2.46047 33.8332 2.46047C33.0608 2.46047 32.6262 3.03127 32.6262 4.00735C32.6262 4.99124 33.0608 5.55764 33.8332 5.55764C34.6028 5.55763 35.0412 4.98732 35.0412 4.00734Z" fill="black"/>
<path d="M41.6008 6.26075H40.679L39.7483 2.94434H39.678L38.7512 6.26075H37.8381L36.5969 1.75782H37.4983L38.3049 5.19382H38.3713L39.2971 1.75782H40.1497L41.0754 5.19382H41.1458L41.9485 1.75782H42.8372L41.6008 6.26075Z" fill="black"/>
<path d="M43.8811 1.75782H44.7366V2.47315H44.803C44.9156 2.21623 45.1056 2.00086 45.3465 1.85705C45.5874 1.71324 45.8671 1.64817 46.1467 1.6709C46.3658 1.65443 46.5858 1.68746 46.7904 1.76756C46.995 1.84765 47.179 1.97276 47.3287 2.1336C47.4783 2.29445 47.5899 2.48691 47.6551 2.69673C47.7203 2.90655 47.7375 3.12835 47.7053 3.3457V6.2607H46.8167V3.56886C46.8167 2.84523 46.5022 2.48536 45.845 2.48536C45.6962 2.47843 45.5477 2.50375 45.4097 2.55958C45.2716 2.61541 45.1472 2.70043 45.0451 2.80882C44.943 2.9172 44.8655 3.04639 44.818 3.18752C44.7705 3.32865 44.754 3.47839 44.7698 3.62647V6.26075H43.8811L43.8811 1.75782Z" fill="black"/>
<path d="M49.1213 0H50.01V6.26074H49.1213V0Z" fill="black"/>
<path d="M51.2454 4.00734C51.2171 3.7114 51.2509 3.41282 51.3448 3.13074C51.4387 2.84866 51.5905 2.58931 51.7904 2.36932C51.9904 2.14933 52.2341 1.97356 52.506 1.85329C52.7778 1.73301 53.0719 1.67088 53.3691 1.67088C53.6664 1.67088 53.9604 1.73301 54.2323 1.85329C54.5042 1.97356 54.7479 2.14933 54.9479 2.36932C55.1478 2.58931 55.2996 2.84866 55.3935 3.13074C55.4873 3.41282 55.5212 3.7114 55.4929 4.00734C55.5217 4.30357 55.4882 4.60256 55.3946 4.88508C55.301 5.16761 55.1493 5.42742 54.9493 5.64783C54.7493 5.86823 54.5054 6.04436 54.2332 6.16489C53.9611 6.28542 53.6668 6.34768 53.3691 6.34768C53.0715 6.34768 52.7772 6.28542 52.505 6.16489C52.2329 6.04436 51.989 5.86823 51.789 5.64783C51.589 5.42742 51.4373 5.16761 51.3437 4.88508C51.25 4.60256 51.2165 4.30357 51.2454 4.00734ZM54.5784 4.00734C54.5784 3.03127 54.1399 2.46047 53.3704 2.46047C52.5979 2.46047 52.1634 3.03127 52.1634 4.00735C52.1634 4.99124 52.5979 5.55764 53.3704 5.55764C54.1399 5.55763 54.5784 4.98732 54.5784 4.00734Z" fill="black"/>
<path d="M56.4285 4.98732C56.4285 4.17677 57.032 3.70949 58.1033 3.64308L59.323 3.57277V3.1841C59.323 2.70851 59.0085 2.43996 58.4011 2.43996C57.905 2.43996 57.5613 2.62209 57.4627 2.94045H56.6023C56.6931 2.16701 57.4207 1.67092 58.4421 1.67092C59.5711 1.67092 60.2078 2.23292 60.2078 3.1841V6.26076H59.3523V5.62795H59.282C59.1393 5.85494 58.9389 6.03999 58.7012 6.1642C58.4636 6.28841 58.1973 6.34733 57.9294 6.33495C57.7404 6.35461 57.5494 6.33444 57.3686 6.27575C57.1878 6.21705 57.0214 6.12112 56.88 5.99415C56.7385 5.86718 56.6253 5.71199 56.5475 5.53857C56.4698 5.36516 56.4292 5.17737 56.4285 4.98732ZM59.323 4.60255V4.22609L58.2234 4.2964C57.6033 4.3379 57.322 4.54884 57.322 4.94581C57.322 5.35108 57.6736 5.58692 58.157 5.58692C58.2987 5.60126 58.4417 5.58696 58.5777 5.54487C58.7138 5.50278 58.8399 5.43376 58.9487 5.34192C59.0575 5.25007 59.1467 5.13729 59.211 5.01027C59.2753 4.88325 59.3134 4.74459 59.323 4.60255Z" fill="black"/>
<path d="M61.3757 4.00734C61.3757 2.58449 62.1072 1.68312 63.2449 1.68312C63.5263 1.67015 63.8056 1.73756 64.0501 1.87745C64.2946 2.01735 64.4943 2.22395 64.6257 2.47312H64.6921V0H65.5808V6.26074H64.7293V5.54931H64.6589C64.5173 5.7968 64.3107 6.00084 64.0615 6.13932C63.8122 6.2778 63.5298 6.34545 63.2449 6.33495C62.0994 6.335 61.3757 5.43361 61.3757 4.00734ZM62.2937 4.00734C62.2937 4.96242 62.7439 5.53713 63.4969 5.53713C64.2459 5.53713 64.7088 4.95413 64.7088 4.01125C64.7088 3.07277 64.241 2.48146 63.4969 2.48146C62.7488 2.48146 62.2937 3.06007 62.2937 4.00734Z" fill="black"/>
<path d="M69.2576 4.00734C69.2293 3.71142 69.2631 3.41285 69.3569 3.13078C69.4508 2.84871 69.6025 2.58937 69.8025 2.36939C70.0024 2.14941 70.2461 1.97364 70.518 1.85337C70.7898 1.73309 71.0838 1.67096 71.3811 1.67096C71.6784 1.67096 71.9724 1.73309 72.2442 1.85337C72.5161 1.97364 72.7598 2.14941 72.9597 2.36939C73.1597 2.58937 73.3114 2.84871 73.4053 3.13078C73.4991 3.41285 73.5329 3.71142 73.5046 4.00734C73.5335 4.30356 73.5 4.60254 73.4064 4.88507C73.3128 5.16759 73.1612 5.42741 72.9612 5.64783C72.7612 5.86824 72.5173 6.04437 72.2452 6.16491C71.9731 6.28544 71.6787 6.34771 71.3811 6.34771C71.0835 6.34771 70.7891 6.28544 70.517 6.16491C70.2449 6.04437 70.001 5.86824 69.801 5.64783C69.601 5.42741 69.4494 5.16759 69.3558 4.88507C69.2622 4.60254 69.2287 4.30356 69.2576 4.00734ZM72.5906 4.00734C72.5906 3.03127 72.1521 2.46047 71.3826 2.46047C70.6101 2.46047 70.1756 3.03127 70.1756 4.00735C70.1756 4.99124 70.6101 5.55764 71.3826 5.55764C72.1521 5.55763 72.5906 4.98732 72.5906 4.00734Z" fill="black"/>
<path d="M74.697 1.75782H75.5525V2.47315H75.6189C75.7316 2.21623 75.9216 2.00086 76.1624 1.85705C76.4033 1.71324 76.683 1.64817 76.9627 1.6709C77.1818 1.65443 77.4017 1.68746 77.6063 1.76756C77.8109 1.84765 77.9949 1.97276 78.1446 2.1336C78.2943 2.29445 78.4058 2.48691 78.471 2.69673C78.5362 2.90655 78.5534 3.12835 78.5212 3.3457V6.2607H77.6326V3.56886C77.6326 2.84523 77.3181 2.48536 76.6609 2.48536C76.5121 2.47843 76.3636 2.50375 76.2256 2.55958C76.0875 2.61541 75.9632 2.70043 75.861 2.80882C75.7589 2.9172 75.6814 3.04639 75.6339 3.18752C75.5864 3.32865 75.5699 3.47839 75.5857 3.62647V6.26075H74.697V1.75782Z" fill="black"/>
<path d="M83.5427 0.63673V1.77833H84.5183V2.52687H83.5427V4.8423C83.5427 5.31398 83.7371 5.52052 84.1795 5.52052C84.2927 5.52016 84.4059 5.51331 84.5183 5.50001V6.24024C84.3587 6.26879 84.197 6.28398 84.0349 6.28565C83.0466 6.28565 82.6531 5.93799 82.6531 5.06983V2.52683H81.9382V1.77829H82.6531V0.63673H83.5427Z" fill="black"/>
<path d="M85.7322 0H86.613V2.48145H86.6833C86.8015 2.22213 86.9967 2.00554 87.2424 1.86119C87.4881 1.71684 87.7723 1.65176 88.0564 1.67481C88.2743 1.66295 88.4922 1.69934 88.6945 1.78138C88.8968 1.86342 89.0784 1.9891 89.2266 2.14943C89.3747 2.30977 89.4856 2.50082 89.5514 2.70896C89.6172 2.91709 89.6362 3.13718 89.6071 3.35352V6.26075H88.7176V3.57275C88.7176 2.85351 88.3826 2.48925 87.7547 2.48925C87.6019 2.47672 87.4483 2.49772 87.3045 2.55077C87.1608 2.60383 87.0303 2.68766 86.9223 2.79639C86.8143 2.90513 86.7314 3.03615 86.6793 3.18029C86.6273 3.32443 86.6073 3.4782 86.6209 3.63085V6.26073H85.7322L85.7322 0Z" fill="black"/>
<path d="M94.7888 5.04493C94.6681 5.45647 94.4065 5.81245 94.0498 6.0506C93.6931 6.28875 93.264 6.3939 92.8377 6.34766C92.541 6.35549 92.2462 6.29867 91.9737 6.18114C91.7012 6.06361 91.4575 5.88819 91.2596 5.66706C91.0617 5.44592 90.9143 5.18436 90.8276 4.90054C90.7409 4.61672 90.717 4.31743 90.7576 4.02345C90.7181 3.72856 90.7424 3.42863 90.8289 3.14396C90.9154 2.85929 91.062 2.59652 91.2589 2.37345C91.4557 2.15037 91.6982 1.9722 91.9699 1.85099C92.2417 1.72979 92.5362 1.66837 92.8337 1.67091C94.0867 1.67091 94.8425 2.52691 94.8425 3.94091V4.251H91.6628V4.3008C91.6489 4.46605 91.6697 4.63238 91.7238 4.78913C91.7779 4.94588 91.8642 5.08958 91.9771 5.21104C92.09 5.3325 92.2271 5.42902 92.3795 5.49441C92.5319 5.55981 92.6962 5.59264 92.8621 5.5908C93.0746 5.61632 93.29 5.57804 93.4808 5.48083C93.6715 5.38363 93.8291 5.23188 93.9333 5.0449L94.7888 5.04493ZM91.6628 3.59376H93.9372C93.9484 3.44263 93.9279 3.29083 93.8769 3.14811C93.826 3.0054 93.7457 2.87492 93.6413 2.76506C93.537 2.6552 93.4108 2.5684 93.2708 2.51022C93.1309 2.45205 92.9803 2.42379 92.8288 2.42726C92.6751 2.42533 92.5226 2.45419 92.3802 2.51213C92.2379 2.57008 92.1085 2.65594 91.9999 2.76465C91.8912 2.87336 91.8054 3.00273 91.7475 3.14512C91.6896 3.28752 91.6608 3.44006 91.6628 3.59376Z" fill="black"/>
</svg>
