<svg xmlns="http://www.w3.org/2000/svg" width="360" height="280" viewBox="0 0 360 280">
    <g fill="none" fill-rule="evenodd" transform="translate(43 40)">
        <path fill="#BEBDC0" fill-rule="nonzero" d="M184.148 172.903h11.168c.824 0 1.493.668 1.493 1.493v5.415c0 .824-.669 1.492-1.493 1.492h-11.168v-8.4z"/>
        <path fill="#BEBDC0" fill-rule="nonzero" d="M195.447 173.837h5.03v6.535h-5.03z"/>
        <path fill="#FFF" fill-rule="nonzero" stroke="#BEBDC0" stroke-width=".86" d="M16.897 70.587h153.856a5.422 5.422 0 0 1 5.421 5.422v95.256H11.475V76.009a5.422 5.422 0 0 1 5.422-5.422z"/>
        <path fill="#D8D9DA" fill-rule="nonzero" stroke="#7A7F80" stroke-width=".86" d="M17.82 73.37h152.526a2.609 2.609 0 0 1 2.609 2.608v95.287H14.705V76.482a3.113 3.113 0 0 1 3.114-3.112z"/>
        <path fill="#FFF" fill-rule="nonzero" stroke="#BEBDC0" stroke-width=".86" d="M0 171.265h187.66v4.473a7.22 7.22 0 0 1-7.22 7.219H7.22a7.22 7.22 0 0 1-7.22-7.22v-4.472z"/>
        <path stroke="#BEBDC0" stroke-width=".86" d="M0 171.265h187.66v4.473a7.22 7.22 0 0 1-7.22 7.219H7.22a7.22 7.22 0 0 1-7.22-7.22v-4.472z"/>
        <path fill="#D8D9DA" fill-rule="nonzero" d="M7.22 182.957h173.22a7.222 7.222 0 0 0 7.214-6.918H0a7.217 7.217 0 0 0 7.22 6.918z"/>
        <path stroke="#BEBDC0" stroke-width=".86" d="M0 171.265h187.66v4.473a7.22 7.22 0 0 1-7.22 7.219H7.22a7.22 7.22 0 0 1-7.22-7.22v-4.472z"/>
        <path stroke="#D8D9DA" stroke-linecap="round" stroke-width="4.731" d="M263.086 199.19c6.099 0 11.043-4.945 11.043-11.044s-4.944-11.043-11.043-11.043H200.48"/>
        <path stroke="#BEBDC0" stroke-width="4.731" d="M196.809 177.103h58.828"/>
        <path fill="#FFF" d="M93.097 130.402c1.49 0 2.699.931 2.699 2.366 0 1.434-1.209 2.365-2.7 2.365-1.49 0-2.713-.93-2.713-2.365s1.23-2.366 2.714-2.366zM93.57 113.953c4.14 0 7.045 2.06 7.045 5.608 0 2.58-1.533 3.835-3.335 5.097-1.222.903-1.803 1.428-2.265 2.497-.507.9-.895 1.593-2.131 1.593-1.31 0-1.966-.828-1.966-1.91 0-1.608.79-2.647 2.637-4.06 1.312-1.008 2.234-1.683 2.234-2.93 0-1.37-1.266-2.166-2.681-2.166a3.247 3.247 0 0 0-2.755 1.352c-.508.527-.91.813-1.594.813-1.133 0-1.72-.798-1.72-1.72 0-.923.522-1.88 1.342-2.6 1.107-.96 2.866-1.574 5.189-1.574z"/>
        <path stroke="#D8D9DA" stroke-width="4.731" d="M263.086 199.19h-7.19c-8.407 0-15.223-6.817-15.223-15.224V125.64"/>
        <path fill="#BEBDC0" fill-rule="nonzero" d="M233.198 94.781h14.948v28.002h-14.948z"/>
        <path stroke="#BEBDC0" stroke-width="4.731" d="M240.662 129.953l.013 20.793"/>
        <path fill="#D8D9DA" fill-rule="nonzero" d="M235.796 115.888h9.755v28.533h-9.755z"/>
        <path fill="#7A7F80" fill-rule="nonzero" d="M245.12 116.318v27.673h-8.894v-27.673h8.894m.86-.86h-10.614v29.394h10.615v-29.394z"/>
        <path fill="#D8D9DA" fill-rule="nonzero" d="M232.019 108.351h17.308v25.695h-17.308z"/>
        <path fill="#7A7F80" fill-rule="nonzero" d="M248.897 108.78v24.835h-16.448v-24.834h16.448m.86-.86h-18.168v26.554h18.168V107.92z"/>
        <path fill="#FFF" fill-rule="nonzero" d="M245.273 132.077h1.647v-19.492c0-.91-.737-1.647-1.647-1.647v21.14zM239.785 143.718h4.998v-4.998a5 5 0 0 0-4.998 4.998z"/>
        <path fill="#FFF" fill-rule="nonzero" stroke="#7A7F80" stroke-width=".86" d="M266.974 0h-52.602a7.155 7.155 0 0 0-7.155 7.155v58.15c0 8.076 1.912 15.914 6.994 22.183l14.537 17.955c.283.348.707.55 1.155.55h21.54c.448 0 .873-.202 1.155-.55l14.537-17.955c5.082-6.275 6.994-14.107 6.994-22.183V7.155A7.155 7.155 0 0 0 266.974 0z"/>
        <path fill="#D8D9DA" fill-rule="nonzero" d="M268.069 66.942V9.006a3.948 3.948 0 0 0-3.949-3.948H217.3a3.948 3.948 0 0 0-3.948 3.948v57.962c-.001 4.419 1.05 8.775 3.066 12.707l2.744 5.357-4.15 3.441 13.737 16.966c.283.348.707.55 1.155.55h21.54c.448 0 .873-.202 1.155-.55l13.737-16.966-4.113-3.424 2.759-5.36a27.852 27.852 0 0 0 3.088-12.747z"/>
        <path fill="#D8D9DA" fill-rule="nonzero" d="M216.202 10.394c-.533 0-1.049-.19-1.456-.534l-4.15-3.51a2.258 2.258 0 0 1 2.914-3.44l4.15 3.51a2.258 2.258 0 0 1-1.458 3.982v-.008z"/>
        <rect width="47.665" height="47.665" x="216.841" y="15.462" fill="#7A7F80" fill-rule="nonzero" rx="2.763"/>
        <rect width="47.665" height="47.665" x="216.841" y="20.366" fill="#FFF" fill-rule="nonzero" rx="2.763"/>
        <rect width="46.804" height="46.804" x="217.271" y="18.542" fill="#C6E2BA" fill-rule="nonzero" rx="2.333"/>
        <path fill="#E1EEDC" fill-rule="nonzero" d="M263.956 63.649V42.956l-22 22h20.693a1.307 1.307 0 0 0 1.307-1.307z"/>
        <path fill="#7A7F80" fill-rule="nonzero" d="M261.742 18.972a1.908 1.908 0 0 1 1.903 1.905v42.134a1.905 1.905 0 0 1-1.903 1.903h-42.138a1.905 1.905 0 0 1-1.903-1.903V20.877a1.908 1.908 0 0 1 1.903-1.905h42.138m0-.86h-42.138a2.763 2.763 0 0 0-2.763 2.765v42.134a2.763 2.763 0 0 0 2.763 2.763h42.138a2.764 2.764 0 0 0 2.774-2.763V20.877a2.763 2.763 0 0 0-2.763-2.765h-.011z"/>
        <path stroke="#7A7F80" stroke-width=".86" d="M266.974 0h-52.602a7.155 7.155 0 0 0-7.155 7.155v58.15c0 8.076 1.912 15.914 6.994 22.183l14.537 17.955c.283.348.707.55 1.155.55h21.54c.448 0 .873-.202 1.155-.55l14.537-17.955c5.082-6.275 6.994-14.107 6.994-22.183V7.155A7.155 7.155 0 0 0 266.974 0z"/>
    </g>
</svg>
