<svg xmlns="http://www.w3.org/2000/svg" width="300" height="234" viewBox="0 0 300 234">
    <g fill="none" fill-rule="evenodd">
        <path fill="#E6E6E6" d="M50.833 94.436H177.5a2.5 2.5 0 0 1 2.5 2.5v79.4H48.333v-79.4a2.5 2.5 0 0 1 2.5-2.5z"/>
        <path fill="#BEBDC0" fill-rule="nonzero" d="M192.083 178.007l6.514-.08c.687 0 1.244.558 1.244 1.247v4.525c0 .689-.557 1.247-1.244 1.247l-8.597.165 2.083-3.761v-3.343z"/>
        <path fill="#BEBDC0" fill-rule="nonzero" d="M198.706 178.706h4.192v5.462h-4.192zM178.127 92.06H49.914a4.883 4.883 0 0 0-4.876 4.89v79.966h137.966V96.95c0-2.7-2.184-4.89-4.877-4.89zm0 .719l.18.004a4.166 4.166 0 0 1 3.98 4.167v79.247H45.754V96.95a4.166 4.166 0 0 1 4.16-4.171h128.213z"/>
        <path fill="#7A7F80" fill-rule="nonzero" d="M177.789 94.385H50.683a2.957 2.957 0 0 0-2.954 2.96v79.571h132.592V96.925a2.536 2.536 0 0 0-2.532-2.54zm0 .72l.13.004a1.819 1.819 0 0 1 1.685 1.816v79.272H48.446V97.345a2.24 2.24 0 0 1 2.237-2.24h127.106z"/>
        <path fill="#BEBDC0" fill-rule="nonzero" d="M192.575 176.197h-157.1v4.098c0 1.695.672 3.322 1.867 4.52a6.365 6.365 0 0 0 4.507 1.873h144.352c1.69 0 3.312-.674 4.507-1.873a6.402 6.402 0 0 0 1.867-4.52v-4.098zm-156.383.719h155.666v3.379a5.682 5.682 0 0 1-1.657 4.012 5.65 5.65 0 0 1-4 1.662H41.849a5.65 5.65 0 0 1-4-1.662l-.173-.18a5.683 5.683 0 0 1-1.484-3.832v-3.38z"/>
        <path fill="#BEBDC0" fill-rule="nonzero" d="M192.575 176.197h-157.1v4.098c0 1.695.672 3.322 1.867 4.52a6.365 6.365 0 0 0 4.507 1.873h144.352c1.69 0 3.312-.674 4.507-1.873a6.402 6.402 0 0 0 1.867-4.52v-4.098zm-156.383.719h155.666v3.379a5.682 5.682 0 0 1-1.657 4.012 5.65 5.65 0 0 1-4 1.662H41.849a5.65 5.65 0 0 1-4-1.662l-.173-.18a5.683 5.683 0 0 1-1.484-3.832v-3.38z"/>
        <path fill="#D8D9DA" fill-rule="nonzero" d="M41.85 186.328H186.2c3.225 0 5.876-2.55 6.011-5.781H35.833c.134 3.234 2.789 5.785 6.016 5.781z"/>
        <path fill="#BEBDC0" fill-rule="nonzero" d="M192.575 176.197h-157.1v4.098c0 1.695.672 3.322 1.867 4.52a6.365 6.365 0 0 0 4.507 1.873h144.352c1.69 0 3.312-.674 4.507-1.873a6.402 6.402 0 0 0 1.867-4.52v-4.098zm-156.383.719h155.666v3.379a5.682 5.682 0 0 1-1.657 4.012 5.65 5.65 0 0 1-4 1.662H41.849a5.65 5.65 0 0 1-4-1.662l-.173-.18a5.683 5.683 0 0 1-1.484-3.832v-3.38z"/>
        <path fill="#D8D9DA" fill-rule="nonzero" d="M255.072 179.46c6.17 0 11.174 5.016 11.174 11.205s-5.003 11.206-11.174 11.206a1.974 1.974 0 0 1-1.972-1.977c0-1.092.883-1.977 1.972-1.977 3.993 0 7.23-3.247 7.23-7.252 0-3.932-3.12-7.133-7.013-7.249l-.217-.003H202.9a1.974 1.974 0 0 1-1.972-1.977c0-1.046.81-1.903 1.837-1.972l.135-.005h52.172z"/>
        <path fill="#BEBDC0" fill-rule="nonzero" d="M248.864 179.46v3.953H199.84v-3.954z"/>
        <path fill="#FFF" d="M113.414 142.408c1.242 0 2.25.778 2.25 1.976 0 1.2-1.008 1.977-2.25 1.977s-2.262-.778-2.262-1.977c0-1.198 1.025-1.976 2.262-1.976zM113.808 128.66c3.45 0 5.871 1.722 5.871 4.688 0 2.156-1.278 3.204-2.78 4.26-1.017.754-1.501 1.192-1.886 2.086-.423.753-.746 1.331-1.776 1.331-1.092 0-1.638-.691-1.638-1.596 0-1.344.657-2.212 2.197-3.393 1.093-.843 1.862-1.407 1.862-2.45 0-1.144-1.056-1.81-2.235-1.81a2.703 2.703 0 0 0-2.296 1.131c-.423.44-.758.68-1.328.68-.944 0-1.433-.667-1.433-1.438 0-.771.435-1.57 1.118-2.173.923-.802 2.389-1.316 4.324-1.316z"/>
        <path fill="#D8D9DA" fill-rule="nonzero" d="M238.366 138.428v48.743c0 5.849 4.659 10.606 10.458 10.743l.257.003h5.99v3.954h-5.99c-8.005 0-14.51-6.434-14.656-14.427l-.002-.273v-48.743h3.943z"/>
        <path fill="#BEBDC0" fill-rule="nonzero" d="M230.165 112.638h12.457v23.402h-12.457zM238.357 142.03l.01 17.378-3.942.003-.011-17.378z"/>
        <path fill="#D8D9DA" fill-rule="nonzero" d="M232.33 130.278h8.129v23.846h-8.129z"/>
        <path fill="#7A7F80" fill-rule="nonzero" d="M240.1 130.637v23.127h-7.412v-23.127h7.412m.717-.718h-8.846v24.564h8.846V129.92z"/>
        <path fill="#D8D9DA" fill-rule="nonzero" d="M229.183 123.979h14.423v21.473h-14.423z"/>
        <path fill="#7A7F80" fill-rule="nonzero" d="M243.247 124.338v20.755h-13.706v-20.755h13.706m.717-.719h-15.14v22.192h15.14V123.62z"/>
        <path fill="#FFF" fill-rule="nonzero" d="M240.228 143.808h1.372v-16.29c0-.76-.614-1.377-1.372-1.377v17.667zM235.654 153.536h4.165v-4.177a4.173 4.173 0 0 0-4.165 4.177z"/>
        <path fill="#7A7F80" fill-rule="nonzero" d="M258.312 33.07h-43.835c-3.491 0-6.321 2.837-6.321 6.338v48.597c0 7.408 1.888 13.792 5.908 18.765l12.114 15.005c.304.375.76.593 1.241.593h17.95c.482 0 .938-.218 1.241-.593l12.115-15.005c4.02-4.979 5.908-11.36 5.908-18.765V39.408c0-3.5-2.83-6.339-6.321-6.339zm-43.835.718h43.835c3.095 0 5.604 2.516 5.604 5.62v48.597c0 7.252-1.84 13.473-5.748 18.312l-12.115 15.006a.88.88 0 0 1-.684.326h-17.95a.88.88 0 0 1-.684-.326l-12.114-15.006c-3.907-4.833-5.748-11.058-5.748-18.312V39.408c0-3.104 2.509-5.62 5.604-5.62z"/>
        <path fill="#D8D9DA" fill-rule="nonzero" d="M259.224 89.373V40.955c0-1.822-1.473-3.3-3.29-3.3h-39.018a3.295 3.295 0 0 0-3.29 3.3v48.44c-.001 3.693.875 7.333 2.555 10.62l2.287 4.476-3.459 2.876 11.448 14.178c.235.291.589.46.962.46h17.95c.374 0 .727-.169.963-.46l11.448-14.178-3.429-2.861 2.3-4.48a23.33 23.33 0 0 0 2.573-10.653z"/>
        <path fill="#D8D9DA" fill-rule="nonzero" d="M216.002 42.115c-.444 0-.874-.158-1.213-.446l-3.46-2.933a1.891 1.891 0 0 1-.14-2.589 1.878 1.878 0 0 1 2.57-.287l3.458 2.933a1.89 1.89 0 0 1 .552 2.09 1.882 1.882 0 0 1-1.767 1.239v-.007z"/>
        <rect width="39.72" height="39.834" x="216.534" y="46.351" fill="#7A7F80" fill-rule="nonzero" rx="2.303"/>
        <rect width="39.72" height="39.834" x="216.534" y="50.448" fill="#FFF" fill-rule="nonzero" rx="2.303"/>
        <rect width="39.004" height="39.115" x="216.892" y="48.924" fill="#C6E2BA" fill-rule="nonzero" rx="1.944"/>
        <path fill="#E1EEDC" fill-rule="nonzero" d="M255.796 86.62V69.328l-18.333 18.386h17.244a1.087 1.087 0 0 0 1.09-1.092z"/>
        <path fill="#7A7F80" fill-rule="nonzero" d="M253.952 49.284a1.592 1.592 0 0 1 1.586 1.592v35.212a1.59 1.59 0 0 1-1.586 1.59h-35.115a1.59 1.59 0 0 1-1.586-1.59V50.876c0-.878.71-1.59 1.586-1.592h35.115m0-.72h-35.115a2.3 2.3 0 0 0-1.63.678 2.313 2.313 0 0 0-.673 1.634v35.212c0 .612.243 1.2.675 1.633a2.3 2.3 0 0 0 1.628.676h35.115a2.3 2.3 0 0 0 1.634-.673 2.313 2.313 0 0 0 .677-1.636V50.876c0-.613-.241-1.2-.673-1.634a2.3 2.3 0 0 0-1.63-.677h-.008z"/>
        <path fill="#7A7F80" fill-rule="nonzero" d="M258.312 33.07h-43.835c-3.491 0-6.321 2.837-6.321 6.338v48.597c0 7.408 1.888 13.792 5.908 18.765l12.114 15.005c.304.375.76.593 1.241.593h17.95c.482 0 .938-.218 1.241-.593l12.115-15.005c4.02-4.979 5.908-11.36 5.908-18.765V39.408c0-3.5-2.83-6.339-6.321-6.339zm-43.835.718h43.835c3.095 0 5.604 2.516 5.604 5.62v48.597c0 7.252-1.84 13.473-5.748 18.312l-12.115 15.006a.88.88 0 0 1-.684.326h-17.95a.88.88 0 0 1-.684-.326l-12.114-15.006c-3.907-4.833-5.748-11.058-5.748-18.312V39.408c0-3.104 2.509-5.62 5.604-5.62z"/>
    </g>
</svg>
