<svg xmlns="http://www.w3.org/2000/svg" width="36" height="44" fill="none" viewBox="0 0 36 44">
    <path fill="#C19009" d="M33.78 40.02h-1.62v-3.18c0-4.5-2.64-8.52-6.78-10.32-.78-.6-1.2-1.5-1.2-2.52 0-.96.42-1.92 1.2-2.52 4.14-1.74 6.78-5.76 6.78-10.32V7.98h1.62c.9 0 1.62-.72 1.62-1.62 0-.9-.72-1.56-1.62-1.56H8.22c-.9 0-1.62.72-1.62 1.62 0 .9.72 1.62 1.62 1.62h1.62v3.18c0 4.5 2.64 8.52 6.78 10.32.78.6 1.2 1.5 1.2 2.52 0 .96-.42 1.92-1.2 2.52-4.14 1.74-6.78 5.76-6.78 10.32v3.18H8.22c-.9 0-1.62.72-1.62 1.62 0 .9.72 1.62 1.62 1.62h25.62c.9 0 1.62-.72 1.62-1.62-.06-.96-.78-1.68-1.68-1.68zm-20.76-3.24c0-3.3 1.98-6.18 4.98-7.44l.36-.18c1.68-1.2 2.64-3.12 2.64-5.22 0-2.04-1.02-4.02-2.64-5.22l-.36-.18c-3-1.26-4.98-4.14-4.98-7.44V7.92h16.02v3.18c0 3.3-1.98 6.18-4.98 7.44l-.36.18c-1.68 1.2-2.64 3.12-2.64 5.22 0 2.04 1.02 4.02 2.7 5.22.12.12.3.18.42.24 3 1.26 4.92 4.14 4.92 7.38v3.18H13.02v-3.18z" opacity=".15"/>
    <path fill="#C19009" d="M27.78 36.02h-1.62v-3.18c0-4.5-2.64-8.52-6.78-10.32-.78-.6-1.2-1.5-1.2-2.52 0-.96.42-1.92 1.2-2.52 4.14-1.74 6.78-5.76 6.78-10.32V3.98h1.62c.9 0 1.62-.72 1.62-1.62 0-.9-.72-1.56-1.62-1.56H2.22C1.32.8.6 1.52.6 2.42c0 .9.72 1.62 1.62 1.62h1.62v3.18c0 4.5 2.64 8.52 6.78 10.32.78.6 1.2 1.5 1.2 2.52 0 .96-.42 1.92-1.2 2.52-4.14 1.74-6.78 5.76-6.78 10.32v3.18H2.22c-.9 0-1.62.72-1.62 1.62 0 .9.72 1.62 1.62 1.62h25.62c.9 0 1.62-.72 1.62-1.62-.06-.96-.78-1.68-1.68-1.68zM7.02 32.78c0-3.3 1.98-6.18 4.98-7.44l.36-.18c1.68-1.2 2.64-3.12 2.64-5.22 0-2.04-1.02-4.02-2.64-5.22l-.36-.18C9 13.28 7.02 10.4 7.02 7.1V3.92h16.02V7.1c0 3.3-1.98 6.18-4.98 7.44l-.36.18c-1.68 1.2-2.64 3.12-2.64 5.22 0 2.04 1.02 4.02 2.7 5.22.12.12.3.18.42.24 3 1.26 4.92 4.14 4.92 7.38v3.18H7.02v-3.18z"/>
</svg>
