<svg xmlns="http://www.w3.org/2000/svg" width="160" height="160" viewBox="0 0 160 160">
    <path fill="#D57A70" fill-rule="nonzero" d="M80.77 134.924l.02 14.297-2.17.003-.02-14.297 2.17-.003zM39.785 118.01l1.537 1.533-10.097 10.124-1.537-1.533 10.097-10.124zm79.76-.106l10.123 10.098-1.533 1.536-10.124-10.097 1.533-1.537zM79.61 36.23c.422 0 .812.226 1.022.592l40.914 70.87a1.179 1.179 0 0 1-1.02 1.768h-81.83a1.178 1.178 0 0 1-1.02-1.767l40.913-70.87c.21-.367.6-.593 1.021-.593zm.004 56.028a3.336 3.336 0 1 0 0 6.672 3.336 3.336 0 0 0 0-6.672zm-.001-33.28a2.468 2.468 0 0 0-2.467 2.395v24.356l.007.195a2.466 2.466 0 0 0 4.926-.195V61.372l-.01-.165a2.468 2.468 0 0 0-2.456-2.23zM24.298 78.6l.003 2.17-14.297.02L10 78.62l14.297-.02zm124.923-.165l.003 2.17-14.297.02-.003-2.17 14.297-.02zM31.091 29.687l10.124 10.097-1.533 1.537-10.123-10.097 1.532-1.537zm96.91-.128l1.537 1.532-10.097 10.124-1.537-1.533 10.098-10.123zM80.607 10l.02 14.297-2.171.003-.02-14.297 2.17-.003z"/>
</svg>
