<svg width="64" height="64" viewBox="0 0 64 64" fill="none" xmlns="http://www.w3.org/2000/svg">
    <circle cx="32" cy="32" r="32" fill="#FBF6E6"/>
    <path d="M32.0078 32.1562L24.4078 26.4563C24.2836 26.3631 24.1828 26.2423 24.1134 26.1035C24.044 25.9646 24.0078 25.8115 24.0078 25.6562V21.1562C24.0078 20.891 24.1132 20.6367 24.3007 20.4491C24.4882 20.2616 24.7426 20.1562 25.0078 20.1562H39.0078C39.273 20.1562 39.5274 20.2616 39.7149 20.4491C39.9025 20.6367 40.0078 20.891 40.0078 21.1562V25.6114C40.0078 25.766 39.972 25.9185 39.9031 26.0569C39.8342 26.1953 39.7342 26.3159 39.6108 26.4091L32.0078 32.1562Z" stroke="#D39B00" stroke-width="2" stroke-linecap="round" stroke-linejoin="round"/>
    <path d="M32.0078 32.1562L24.4078 37.8563C24.2836 37.9494 24.1828 38.0702 24.1134 38.209C24.044 38.3479 24.0078 38.501 24.0078 38.6562V43.1562C24.0078 43.4215 24.1132 43.6758 24.3007 43.8634C24.4882 44.0509 24.7426 44.1562 25.0078 44.1562H39.0078C39.273 44.1562 39.5274 44.0509 39.7149 43.8634C39.9025 43.6758 40.0078 43.4215 40.0078 43.1562V38.7011C40.0078 38.5465 39.972 38.394 39.9031 38.2556C39.8342 38.1172 39.7342 37.9966 39.6108 37.9034L32.0078 32.1562Z" stroke="#D39B00" stroke-width="2" stroke-linecap="round" stroke-linejoin="round"/>
</svg>