<svg xmlns="http://www.w3.org/2000/svg" width="64" height="54" fill="none" viewBox="0 0 64 54">
    <path fill="#E1F2DC" d="M39.634 14.887c-.787.026-1.533.358-2.08.926C31.76 21.62 27.336 26.47 21.959 31.958l-5.729-4.84c-.304-.256-.655-.451-1.034-.572-.38-.12-.78-.166-1.176-.132-.396.034-.782.145-1.136.329-.353.183-.667.434-.923.739-.256.304-.45.657-.57 1.036-.12.38-.163.78-.128 1.176.034.396.147.782.331 1.135.184.353.437.666.742.921l7.864 6.655c.58.487 1.32.74 2.075.709.756-.032 1.473-.345 2.01-.88 6.515-6.529 11.153-11.744 17.543-18.148.44-.424.74-.972.862-1.57.122-.598.06-1.219-.177-1.781-.237-.563-.639-1.04-1.153-1.37-.513-.33-1.115-.497-1.725-.478z"/>
    <path fill="#00854D" d="M49.634 14.887c-.787.026-1.533.358-2.08.926C41.76 21.62 37.336 26.47 31.959 31.958l-5.729-4.84c-.304-.256-.655-.451-1.034-.572-.38-.12-.78-.166-1.176-.132-.396.034-.782.145-1.136.329-.353.183-.667.434-.923.739-.256.304-.45.657-.57 1.036-.12.38-.163.78-.128 1.176.035.396.147.782.331 1.135.184.353.436.666.742.921l7.864 6.655c.58.487 1.32.74 2.075.709.756-.032 1.473-.345 2.01-.88 6.515-6.529 11.153-11.744 17.543-18.148.44-.424.74-.972.862-1.57.122-.598.06-1.219-.177-1.781-.237-.563-.639-1.04-1.153-1.37-.513-.33-1.115-.497-1.725-.478z"/>
</svg>
