<svg xmlns="http://www.w3.org/2000/svg" width="300" height="100" viewBox="100 90.073 335.783 105.637" fill="none">
    <g filter="url(#filter1_d_240_5446)">
        <path d="M142.557 164.114C158.881 164.114 172.114 150.881 172.114 134.557C172.114 118.233 158.881 105 142.557 105C126.233 105 113 118.233 113 134.557C113 150.881 126.233 164.114 142.557 164.114Z" fill="white" fill-opacity="0.01"/>
    </g>
    <circle cx="192.338" cy="134.557" r="11.3719" stroke-opacity="0.1" stroke="#aaaaaa" stroke-width="2.14634"/>
    <circle cx="142.557" cy="184.338" r="11.3719" stroke-opacity="0.1" stroke="#aaaaaa" stroke-width="2.14634"/>
    <circle cx="177.758" cy="169.758" r="11.3719" stroke-opacity="0.4" stroke="#cccccc" stroke-width="2.14634"/>
    <g filter="url(#filter2_d_240_5446)">
        <path d="M393.226 121.668C376.902 121.668 363.669 134.901 363.669 151.225C363.669 167.549 376.902 180.782 393.226 180.782C409.55 180.782 422.783 167.549 422.783 151.225C422.783 134.901 409.55 121.668 393.226 121.668Z" fill="white" fill-opacity="0.01"/>
    </g>
    <circle cx="343.445" cy="151.225" r="11.3719" stroke-opacity="0.1" stroke="#aaaaaa" stroke-width="2.14634"/>
    <circle cx="393.226" cy="101.445" r="11.3719" stroke-opacity="0.1" stroke="#aaaaaa" stroke-width="2.14634"/>
    <circle cx="358.025" cy="116.024" r="11.3719" stroke-opacity="0.4" stroke="#cccccc" stroke-width="2.14634"/>
    <path d="M188 176C214.5 183 263.6 170.2 264 143C264.4 115.8 313 100 347 112.5" stroke="url(#paint0_linear_240_5446)" stroke-width="2"/>
    <g filter="url(#filter3_d_240_5446)">
        <circle cx="264" cy="144" r="10" fill="white"/>
    </g>
    <path d="M267.5 144L268.267 143.267C268.723 142.796 268.975 142.164 268.969 141.509C268.963 140.853 268.701 140.226 268.237 139.763C267.774 139.299 267.146 139.036 266.491 139.03C265.836 139.025 265.204 139.277 264.733 139.732L264 140.5" stroke="#CD4949" stroke-width="1.5" stroke-linecap="round" stroke-linejoin="round"/>
    <path d="M260.5 144L259.733 144.733C259.277 145.204 259.025 145.836 259.031 146.491C259.037 147.146 259.299 147.774 259.763 148.237C260.227 148.701 260.854 148.963 261.509 148.969C262.165 148.975 262.796 148.723 263.268 148.267L264 147.5" stroke="#CD4949" stroke-width="1.5" stroke-linecap="round" stroke-linejoin="round"/>
    <path d="M267.5 146H269" stroke="#CD4949" stroke-width="1.5" stroke-linecap="round" stroke-linejoin="round"/>
    <path d="M259 142H260.5" stroke="#CD4949" stroke-width="1.5" stroke-linecap="round" stroke-linejoin="round"/>
    <path d="M266 147.5V149" stroke="#CD4949" stroke-width="1.5" stroke-linecap="round" stroke-linejoin="round"/>
    <path d="M262 139V140.5" stroke="#CD4949" stroke-width="1.5" stroke-linecap="round" stroke-linejoin="round"/>
    <defs>
        <filter id="filter1_d_240_5446" x="96.3585" y="88.3585" width="92.3972" height="92.3973" filterUnits="userSpaceOnUse" color-interpolation-filters="sRGB">
            <feFlood flood-opacity="0" result="BackgroundImageFix"/>
            <feColorMatrix in="SourceAlpha" type="matrix" values="0 0 0 0 0 0 0 0 0 0 0 0 0 0 0 0 0 0 127 0" result="hardAlpha"/>
            <feOffset/>
            <feGaussianBlur stdDeviation="8.32075"/>
            <feComposite in2="hardAlpha" operator="out"/>
            <feColorMatrix type="matrix" values="0 0 0 0 0 0 0 0 0 0 0 0 0 0 0 0 0 0 0.08 0"/>
            <feBlend mode="normal" in2="BackgroundImageFix" result="effect1_dropShadow_240_5446"/>
            <feBlend mode="normal" in="SourceGraphic" in2="effect1_dropShadow_240_5446" result="shape"/>
        </filter>
        <filter id="filter2_d_240_5446" x="347.028" y="105.026" width="92.3972" height="92.3973" filterUnits="userSpaceOnUse" color-interpolation-filters="sRGB">
            <feFlood flood-opacity="0" result="BackgroundImageFix"/>
            <feColorMatrix in="SourceAlpha" type="matrix" values="0 0 0 0 0 0 0 0 0 0 0 0 0 0 0 0 0 0 127 0" result="hardAlpha"/>
            <feOffset/>
            <feGaussianBlur stdDeviation="8.32075"/>
            <feComposite in2="hardAlpha" operator="out"/>
            <feColorMatrix type="matrix" values="0 0 0 0 0 0 0 0 0 0 0 0 0 0 0 0 0 0 0.08 0"/>
            <feBlend mode="normal" in2="BackgroundImageFix" result="effect1_dropShadow_240_5446"/>
            <feBlend mode="normal" in="SourceGraphic" in2="effect1_dropShadow_240_5446" result="shape"/>
        </filter>
        <linearGradient id="paint0_linear_240_5446" x1="347" y1="118" x2="188" y2="118.5" gradientUnits="userSpaceOnUse">
            <stop stop-color="#cccccc55"/>
            <stop offset="0.411458" stop-color="#ccccccaa"/>
            <stop offset="0.447917" stop-color="#FFC2C2"/>
            <stop offset="0.53125" stop-color="#FFADAD"/>
            <stop offset="0.598958" stop-color="#ccccccaa"/>
            <stop offset="1" stop-color="#cccccc55"/>
        </linearGradient>
        <filter id="filter3_d_240_5446" x="230" y="100" width="80" height="80" filterUnits="userSpaceOnUse" color-interpolation-filters="sRGB">
            <feFlood flood-opacity="0" result="BackgroundImageFix"/>
            <feColorMatrix in="SourceAlpha" type="matrix" values="0 0 0 0 0 0 0 0 0 0 0 0 0 0 0 0 0 0 127 0" result="hardAlpha"/>
            <feOffset/>
            <feGaussianBlur stdDeviation="6"/>
            <feComposite in2="hardAlpha" operator="out"/>
            <feColorMatrix type="matrix" values="0 0 0 0 0.791667 0 0 0 0 0 0 0 0 0 0 0 0 0 0.13 0"/>
            <feBlend mode="normal" in2="BackgroundImageFix" result="effect1_dropShadow_226_3638"/>
            <feBlend mode="normal" in="SourceGraphic" in2="effect1_dropShadow_226_3638" result="shape"/>
        </filter>
    </defs>
</svg>
