<svg xmlns="http://www.w3.org/2000/svg" width="360" height="280" viewBox="0 0 360 280">
    <defs>
        <filter id="a" width="110.3%" height="104%" x="-4.6%" y="-2%" filterUnits="objectBoundingBox">
            <feOffset dx="1" dy="2" in="SourceAlpha" result="shadowOffsetOuter1"/>
            <feColorMatrix in="shadowOffsetOuter1" result="shadowMatrixOuter1" values="0 0 0 0 0.7 0 0 0 0 0.7 0 0 0 0 0.7 0 0 0 1 0"/>
            <feMerge>
                <feMergeNode in="shadowMatrixOuter1"/>
                <feMergeNode in="SourceGraphic"/>
            </feMerge>
        </filter>
    </defs>
    <g fill="none" fill-rule="evenodd">
        <g stroke="#F9C447" stroke-width="1.661">
            <path d="M243.707 117.035l12.78 2.44M103.207 90.221l12.778 2.438M192.035 40.985l2.44-12.778M165.221 181.487l2.438-12.78M216.386 158.62l7.31 10.762M135.995 40.312l7.314 10.76M233.62 68.31l10.762-7.315M115.312 148.696l10.76-7.31M233.484 141.585l10.735 7.352M115.475 60.757l10.735 7.352M216.585 51.21l7.352-10.735M135.757 169.22l7.352-10.736M191.797 168.751l2.392 12.791M165.506 28.152l2.391 12.79M243.751 92.897l12.791-2.39M103.152 119.19l12.79-2.393"/>
        </g>
        <g filter="url(#a)" transform="translate(136 50)">
            <path stroke="#D8D9DA" stroke-width="6.09" d="M43.8 199.779v-37.203"/>
            <path fill="#BEBDC0" fill-rule="nonzero" d="M34.179 122.854H53.42v36.043H34.179z"/>
            <path stroke="#BEBDC0" stroke-width="6.09" d="M43.787 168.128l.016 26.762"/>
            <path fill="#D8D9DA" fill-rule="nonzero" d="M37.522 150.025h12.556v36.727H37.522z"/>
            <path fill="#7A7F80" fill-rule="nonzero" d="M49.525 150.579v35.62H38.076v-35.62h11.449m1.107-1.108H36.969v37.835h13.663V149.47z"/>
            <path fill="#D8D9DA" fill-rule="nonzero" d="M32.662 140.32H54.94v33.073H32.662z"/>
            <path fill="#7A7F80" fill-rule="nonzero" d="M54.386 140.874v31.966h-21.17v-31.966h21.17m1.107-1.107H32.108v34.18h23.385v-34.18z"/>
            <path fill="#FFF" fill-rule="nonzero" d="M49.721 170.86h2.12v-25.09a2.118 2.118 0 0 0-2.12-2.117v27.207zM42.668 185.844h6.433v-6.43a6.433 6.433 0 0 0-6.433 6.43z"/>
            <path fill="#FFF" fill-rule="nonzero" stroke="#7A7F80" stroke-width="1.107" d="M77.654.856H9.947a9.21 9.21 0 0 0-9.21 9.212v74.846c0 10.394 2.461 20.484 9.002 28.556l18.712 23.108c.363.45.91.711 1.487.711h27.725c.578 0 1.124-.261 1.486-.711l18.713-23.108c6.54-8.08 8.996-18.162 8.996-28.556V10.068A9.21 9.21 0 0 0 77.654.856z"/>
            <path fill="#D8D9DA" fill-rule="nonzero" d="M79.063 87.024V12.452a5.082 5.082 0 0 0-5.082-5.085H13.714a5.082 5.082 0 0 0-5.082 5.085v74.61a35.865 35.865 0 0 0 3.944 16.354l3.535 6.898-5.342 4.43 17.682 21.834c.363.449.91.711 1.487.711h27.725c.577 0 1.123-.262 1.486-.711l17.683-21.835-5.295-4.407 3.551-6.9a35.844 35.844 0 0 0 3.975-16.412z"/>
            <path fill="#D8D9DA" fill-rule="nonzero" d="M12.302 14.234a2.895 2.895 0 0 1-1.876-.686L5.086 9.03a2.904 2.904 0 1 1 3.75-4.429l5.343 4.515a2.906 2.906 0 0 1-1.877 5.126v-.008z"/>
            <rect width="61.352" height="61.352" x="13.125" y="20.761" fill="#7A7F80" fill-rule="nonzero" rx="3.557"/>
            <rect width="61.352" height="61.352" x="13.125" y="27.073" fill="#FFF" fill-rule="nonzero" rx="3.557"/>
            <rect width="60.244" height="60.244" x="13.678" y="24.725" fill="#FFF" fill-rule="nonzero" rx="3.003"/>
            <path fill="#7A7F80" fill-rule="nonzero" d="M70.92 25.279a2.453 2.453 0 0 1 2.449 2.45v54.237a2.453 2.453 0 0 1-2.45 2.45H16.681a2.453 2.453 0 0 1-2.45-2.45V27.73a2.453 2.453 0 0 1 2.45-2.45H70.92m0-1.107H16.681a3.557 3.557 0 0 0-3.556 3.557v54.237a3.557 3.557 0 0 0 3.556 3.557H70.92a3.557 3.557 0 0 0 3.557-3.557V27.73a3.557 3.557 0 0 0-3.557-3.557z"/>
            <path stroke="#7A7F80" stroke-width="1.107" d="M77.654.856H9.947a9.21 9.21 0 0 0-9.21 9.212v74.846c0 10.394 2.461 20.484 9.002 28.556l18.712 23.108c.363.45.91.711 1.487.711h27.725c.578 0 1.124-.261 1.486-.711l18.713-23.108c6.54-8.08 8.996-18.162 8.996-28.556V10.068A9.21 9.21 0 0 0 77.654.856z"/>
        </g>
        <g transform="translate(159.07 84.117)">
            <circle cx="20.73" cy="20.73" r="20.73" fill="#C6E2BA" fill-rule="nonzero"/>
            <path fill="#FFF" fill-rule="nonzero" stroke="#8FCB7F" stroke-width="1.661" d="M67.544 81.683c-9.475-9.475-18.045-29.438-18.045-29.438l-1.033-4.836s-3.535-7.687-6.164-10.796c-2.334-4.617-4.377-9.411-6.765-13.992-1.42-2.727-2.923-5.603-4.526-8.21-1.603-2.608-3.997-4.889-6.967-5.622-2.89-.715-6.566-.33-9.282.888-2.815 1.265-6.89 3.505-7.258 11.158-.578 12.324 2.987 20.26 7.881 31.628l4.567 6.946s11.02 41.164 14.987 53.623"/>
            <path stroke="#C6E2BA" stroke-width="1.107" d="M14.36 30.56c.023-.507.427-.908.812-1.238a22.657 22.657 0 0 1 15.172-5.395"/>
            <path stroke="#8FCB7F" stroke-width="1.107" d="M10.438 18.729A29.048 29.048 0 0 0 13.6 29.845a4.65 4.65 0 0 0 1.137 1.562c.608.42 1.315.675 2.051.739 4.499.65 9.135-.554 12.938-3.045 1.454-.952 2.865-2.671 3.114-4.393M20.606 45.064c3.404-2.754 7.197-5.397 11.556-5.838 1.282-.13 2.624-.072 3.793-.611M29.904 44.068c1.248-.188 1.826-.321 3.072-.51.645-.096 1.974-.202 2.569-.465a4.656 4.656 0 0 0 2.273-2.017"/>
        </g>
    </g>
</svg>
