<svg width="336" height="115" viewBox="0 0 336 115" fill="none"
    xmlns="http://www.w3.org/2000/svg">
    <path d="M92.5 89.5005C119 96.5005 168.1 83.7005 168.5 56.5005C168.9 29.3005 217.5 13.5005 251.5 26.0005" stroke="url(#paint0_linear_1116_5589)" stroke-width="2"/>
    <g filter="url(#filter0_d_1116_5589)">
        <circle cx="168.5" cy="57.5005" r="10" fill="white"/>
    </g>
    <path d="M172 57.5L172.767 56.7675C173.223 56.296 173.475 55.6645 173.469 55.009C173.463 54.3535 173.201 53.7265 172.737 53.263C172.274 52.7995 171.646 52.5366 170.991 52.5309C170.336 52.5252 169.704 52.7771 169.233 53.2325L168.5 54" stroke="#CD4949" stroke-width="1.5" stroke-linecap="round" stroke-linejoin="round"/>
    <path d="M165 57.5005L164.233 58.233C163.777 58.7045 163.525 59.336 163.531 59.9915C163.537 60.647 163.799 61.274 164.263 61.7375C164.727 62.2011 165.354 62.464 166.009 62.4697C166.665 62.4754 167.296 62.2234 167.768 61.768L168.5 61.0005" stroke="#CD4949" stroke-width="1.5" stroke-linecap="round" stroke-linejoin="round"/>
    <path d="M172 59.5005H173.5" stroke="#CD4949" stroke-width="1.5" stroke-linecap="round" stroke-linejoin="round"/>
    <path d="M163.5 55.5005H165" stroke="#CD4949" stroke-width="1.5" stroke-linecap="round" stroke-linejoin="round"/>
    <path d="M170.5 61.0005V62.5005" stroke="#CD4949" stroke-width="1.5" stroke-linecap="round" stroke-linejoin="round"/>
    <path d="M166.5 52.5005V54.0005" stroke="#CD4949" stroke-width="1.5" stroke-linecap="round" stroke-linejoin="round"/>
    <circle cx="263.023" cy="29.9422" r="11.3719" stroke-opacity="0.4" stroke="#cccccc" stroke-width="2.14634"/>
    <circle cx="306.598" cy="95.8428" r="11.3719" stroke-opacity="0.1" stroke="#aaaaaa" stroke-width="2.14634"/>
    <g clip-path="url(#clip0_1116_5589)">
        <path d="M325.398 33.3604H310.58V46.8284H325.398V33.3604Z" fill="white"/>
        <path fill-rule="evenodd" clip-rule="evenodd" d="M329.989 41.2433C329.989 47.862 324.62 53.2274 317.997 53.2274C311.374 53.2274 306.005 47.862 306.005 41.2433C306.005 34.6247 311.374 29.2593 317.997 29.2593C324.62 29.2593 329.989 34.6247 329.989 41.2433ZM314.599 46.0124H312.272C311.783 46.0124 311.541 46.0124 311.394 45.9182C311.235 45.8151 311.137 45.6444 311.126 45.4559C311.117 45.2823 311.238 45.0703 311.479 44.6463L317.226 34.5242C317.47 34.0944 317.594 33.8795 317.75 33.8C317.918 33.7146 318.118 33.7146 318.286 33.8C318.442 33.8795 318.566 34.0944 318.811 34.5242L319.992 36.585L319.998 36.5955C320.262 37.0566 320.396 37.2905 320.454 37.5359C320.519 37.8038 320.519 38.0864 320.454 38.3544C320.395 38.6016 320.263 38.8372 319.995 39.3053L316.976 44.6375L316.969 44.6512C316.703 45.1161 316.568 45.3517 316.381 45.5295C316.178 45.7239 315.933 45.8651 315.665 45.9447C315.421 46.0124 315.147 46.0124 314.599 46.0124ZM320.476 46.0124H323.811C324.303 46.0124 324.55 46.0124 324.698 45.9153C324.857 45.8123 324.957 45.6385 324.966 45.4502C324.974 45.2822 324.856 45.0784 324.625 44.6791C324.617 44.6655 324.609 44.6516 324.601 44.6376L322.93 41.7819L322.911 41.7497C322.676 41.3531 322.558 41.1527 322.406 41.0753C322.238 40.9899 322.04 40.9899 321.873 41.0753C321.719 41.1548 321.596 41.3638 321.351 41.7848L319.687 44.6405L319.681 44.6503C319.437 45.0707 319.316 45.2807 319.324 45.4531C319.336 45.6415 319.433 45.8151 319.592 45.9182C319.737 46.0124 319.984 46.0124 320.476 46.0124Z" fill="#E84142"/>
    </g>
    <g clip-path="url(#clip1_1116_5589)">
        <path fill-rule="evenodd" clip-rule="evenodd" d="M276.997 90.2437C283.625 90.2437 288.997 95.6158 288.997 102.244C288.997 108.872 283.625 114.244 276.997 114.244C270.369 114.244 264.997 108.872 264.997 102.244C264.997 95.6158 270.369 90.2437 276.997 90.2437Z" fill="#F0B90B"/>
        <path d="M271.592 102.244L271.601 105.417L274.297 107.003V108.861L270.023 106.354V101.316L271.592 102.244ZM271.592 99.0706V100.92L270.022 99.9908V98.1417L271.592 97.2129L273.17 98.1417L271.592 99.0706ZM275.423 98.1417L276.993 97.2129L278.571 98.1417L276.993 99.0706L275.423 98.1417Z" fill="white"/>
        <path d="M272.727 104.759V102.901L274.297 103.83V105.679L272.727 104.759ZM275.423 107.669L276.993 108.598L278.571 107.669V109.518L276.993 110.447L275.423 109.518V107.669ZM280.823 98.1417L282.393 97.2129L283.971 98.1417V99.9908L282.393 100.92V99.0706L280.823 98.1417ZM282.393 105.417L282.402 102.244L283.972 101.315V106.353L279.698 108.86V107.002L282.393 105.417Z" fill="white"/>
        <path d="M281.267 104.759L279.697 105.679V103.83L281.267 102.901V104.759Z" fill="white"/>
        <path d="M281.267 99.7283L281.276 101.586L278.572 103.173V106.353L277.002 107.273L275.432 106.353V103.173L272.728 101.586V99.7283L274.305 98.7994L276.992 100.394L279.696 98.7994L281.274 99.7283H281.267ZM272.727 96.5562L276.993 94.0408L281.267 96.5562L279.697 97.485L276.993 95.8908L274.297 97.485L272.727 96.5562Z" fill="white"/>
    </g>
    <g clip-path="url(#clip2_1116_5589)">
        <path d="M292.999 36.2432C299.603 36.2432 304.999 30.8384 304.999 24.2432C304.999 17.6384 299.594 12.2432 292.999 12.2432C286.394 12.2432 280.999 17.648 280.999 24.2432C280.999 30.848 286.403 36.2432 292.999 36.2432Z" fill="url(#paint1_linear_1116_5589)"/>
        <path d="M296.474 26.8352L299.872 24.8768C300.055 24.7712 300.16 24.5792 300.16 24.368V20.4512C300.16 20.24 300.045 20.048 299.872 19.9424L296.474 17.984C296.291 17.8784 296.071 17.8784 295.888 17.984L292.49 19.9424C292.307 20.048 292.202 20.24 292.202 20.4512V27.4592L289.821 28.832L287.44 27.4592V24.7136L289.821 23.3408L291.395 24.2432V22.4L290.119 21.6608C290.032 21.6128 289.927 21.584 289.831 21.584C289.725 21.584 289.629 21.6128 289.543 21.6608L286.144 23.6192C285.962 23.7248 285.856 23.9168 285.856 24.128V28.0448C285.856 28.256 285.971 28.448 286.144 28.5536L289.543 30.512C289.725 30.6176 289.946 30.6176 290.128 30.512L293.527 28.5536C293.709 28.448 293.815 28.256 293.815 28.0448V21.0368L293.853 21.008L296.195 19.6544L298.576 21.0272V23.7728L296.195 25.1456L294.631 24.2432V26.0864L295.907 26.8256C296.09 26.9312 296.311 26.9312 296.493 26.8256L296.474 26.8352Z" fill="white"/>
    </g>
    <g clip-path="url(#clip3_1116_5589)">
        <path d="M244.998 67.2439C251.625 67.2439 256.998 61.8713 256.998 55.2439C256.998 48.6165 251.625 43.2439 244.998 43.2439C238.37 43.2439 232.998 48.6165 232.998 55.2439C232.998 61.8713 238.37 67.2439 244.998 67.2439Z" fill="#13B5EC"/>
        <path fill-rule="evenodd" clip-rule="evenodd" d="M245.898 52.9189L248.598 51.3439V54.4939L245.898 52.9189ZM248.598 59.6689L244.998 61.7689L241.398 59.6689V55.9939L244.998 58.0939L248.598 55.9939V59.6689ZM241.398 51.3439L244.098 52.9189L241.398 54.4939V51.3439ZM245.448 53.6689L248.148 55.2439L245.448 56.8189V53.6689ZM244.548 56.8189L241.848 55.2439L244.548 53.6689V56.8189ZM248.148 50.5939L244.998 52.3939L241.848 50.5939L244.998 48.7189L248.148 50.5939ZM240.498 50.2939V60.1189L244.998 62.6689L249.498 60.1189V50.2939L244.998 47.7439L240.498 50.2939Z" fill="white"/>
    </g>
    <g clip-path="url(#clip4_1116_5589)">
        <path d="M323.998 83.2432C330.625 83.2432 335.998 77.8706 335.998 71.2432C335.998 64.6157 330.625 59.2432 323.998 59.2432C317.37 59.2432 311.998 64.6157 311.998 71.2432C311.998 77.8706 317.37 83.2432 323.998 83.2432Z" fill="#FF0420"/>
        <path d="M320.499 74.4304C319.783 74.4304 319.198 74.2624 318.742 73.9264C318.291 73.5856 318.065 73.096 318.065 72.4672C318.065 72.3328 318.079 72.1744 318.108 71.9824C318.185 71.5504 318.295 71.032 318.439 70.4224C318.847 68.7712 319.903 67.9456 321.603 67.9456C322.063 67.9456 322.481 68.0224 322.846 68.1808C323.211 68.3296 323.499 68.56 323.71 68.8672C323.921 69.1696 324.027 69.5296 324.027 69.9472C324.027 70.072 324.012 70.2304 323.983 70.4224C323.892 70.9552 323.787 71.4784 323.657 71.9824C323.446 72.8032 323.086 73.4224 322.567 73.8304C322.054 74.2336 321.363 74.4304 320.499 74.4304ZM320.628 73.1344C320.964 73.1344 321.247 73.0336 321.483 72.8368C321.723 72.64 321.895 72.3376 321.996 71.9248C322.135 71.3584 322.241 70.8688 322.313 70.4464C322.337 70.3216 322.351 70.192 322.351 70.0576C322.351 69.5104 322.068 69.2368 321.497 69.2368C321.161 69.2368 320.873 69.3376 320.633 69.5344C320.398 69.7312 320.23 70.0336 320.129 70.4464C320.019 70.8496 319.913 71.3392 319.803 71.9248C319.779 72.0448 319.764 72.1696 319.764 72.304C319.759 72.8608 320.052 73.1344 320.628 73.1344Z" fill="white"/>
        <path d="M324.444 74.3441C324.377 74.3441 324.329 74.3249 324.291 74.2817C324.262 74.2337 324.252 74.1809 324.262 74.1185L325.505 68.2625C325.515 68.1953 325.548 68.1425 325.606 68.0993C325.659 68.0561 325.716 68.0369 325.779 68.0369H328.174C328.841 68.0369 329.374 68.1761 329.777 68.4497C330.185 68.7281 330.392 69.1265 330.392 69.6497C330.392 69.7985 330.372 69.9569 330.339 70.1201C330.19 70.8113 329.888 71.3201 329.427 71.6513C328.976 71.9825 328.356 72.1457 327.569 72.1457H326.355L325.942 74.1185C325.928 74.1857 325.899 74.2385 325.841 74.2817C325.788 74.3249 325.731 74.3441 325.668 74.3441H324.444ZM327.632 70.9025C327.886 70.9025 328.102 70.8353 328.289 70.6961C328.481 70.5569 328.606 70.3601 328.668 70.1009C328.688 70.0001 328.697 69.9089 328.697 69.8321C328.697 69.6593 328.644 69.5249 328.544 69.4337C328.443 69.3377 328.265 69.2897 328.02 69.2897H326.94L326.6 70.9025H327.632Z" fill="white"/>
    </g>
    <path d="M241.804 79.5392V88.9472C241.804 89.552 242.121 90.0992 242.649 90.4064L250.799 95.1104C251.318 95.408 251.961 95.408 252.479 95.1104L260.63 90.4064C261.148 90.1088 261.474 89.552 261.474 88.9472V79.5392C261.474 78.9344 261.158 78.3872 260.63 78.08L252.479 73.376C251.961 73.0784 251.318 73.0784 250.799 73.376L242.649 78.08C242.13 78.3776 241.814 78.9344 241.814 79.5392H241.804Z" fill="#213147"/>
    <path d="M253.41 86.0671L252.249 89.2543C252.22 89.3407 252.22 89.4367 252.249 89.5327L254.245 95.0143L256.559 93.6799L253.785 86.0671C253.717 85.8943 253.477 85.8943 253.41 86.0671Z" fill="#12AAFF"/>
    <path d="M255.743 80.7104C255.676 80.5376 255.436 80.5376 255.369 80.7104L254.207 83.8976C254.178 83.984 254.178 84.08 254.207 84.176L257.481 93.152L259.794 91.8176L255.743 80.72V80.7104Z" fill="#12AAFF"/>
    <path d="M251.634 73.7312C251.692 73.7312 251.75 73.7504 251.798 73.7792L260.61 78.8672C260.716 78.9248 260.774 79.04 260.774 79.1552V89.3312C260.774 89.4464 260.706 89.5616 260.61 89.6192L251.798 94.7072C251.75 94.736 251.692 94.7552 251.634 94.7552C251.577 94.7552 251.519 94.736 251.471 94.7072L242.658 89.6192C242.553 89.5616 242.495 89.4464 242.495 89.3312V79.1456C242.495 79.0304 242.562 78.9152 242.658 78.8576L251.471 73.7696C251.519 73.7408 251.577 73.7216 251.634 73.7216V73.7312ZM251.634 72.2432C251.318 72.2432 251.01 72.32 250.722 72.4832L241.91 77.5712C241.343 77.8976 240.998 78.4928 240.998 79.1456V89.3216C240.998 89.9744 241.343 90.5696 241.91 90.896L250.722 95.984C251.001 96.1472 251.318 96.224 251.634 96.224C251.951 96.224 252.258 96.1472 252.546 95.984L261.359 90.896C261.926 90.5696 262.271 89.9744 262.271 89.3216V79.1456C262.271 78.4928 261.926 77.8976 261.359 77.5712L252.537 72.4832C252.258 72.32 251.942 72.2432 251.625 72.2432H251.634Z" fill="#9DCCED"/>
    <path d="M245.798 93.1615L246.614 90.9343L248.246 92.2879L246.719 93.6895L245.798 93.1615Z" fill="#213147"/>
    <path d="M250.885 78.4256H248.649C248.485 78.4256 248.332 78.5312 248.274 78.6848L243.484 91.8176L245.797 93.152L251.077 78.6848C251.125 78.5504 251.029 78.416 250.895 78.416L250.885 78.4256Z" fill="white"/>
    <path d="M254.802 78.4256H252.566C252.402 78.4256 252.249 78.5312 252.191 78.6848L246.719 93.68L249.033 95.0144L254.985 78.6848C255.033 78.5504 254.937 78.416 254.802 78.416V78.4256Z" fill="white"/>
    <circle cx="96.8382" cy="48.0579" r="11.3719" stroke-opacity="0.1" stroke="#aaaaaa" stroke-width="2.14634"/>
    <circle cx="47.0573" cy="97.8382" r="11.3719" stroke-opacity="0.1" stroke="#aaaaaa" stroke-width="2.14634"/>
    <circle cx="82.2578" cy="83.2587" r="11.3719" stroke-opacity="0.4" stroke="#cccccc" stroke-width="2.14634"/>
    <g filter="url(#filter1_d_1116_5589)">
        <path d="M47.0003 77.0006C63.569 77.0006 77.0006 63.569 77.0006 47.0003C77.0006 30.4316 63.569 17 47.0003 17C30.4316 17 17 30.4316 17 47.0003C17 63.569 30.4316 77.0006 47.0003 77.0006Z" fill="white" fill-opacity="0.01"/>
    </g>
    <defs>
        <filter id="filter0_d_1116_5589" x="146.5" y="35.5005" width="44" height="44" filterUnits="userSpaceOnUse" color-interpolation-filters="sRGB">
            <feFlood flood-opacity="0" result="BackgroundImageFix"/>
            <feColorMatrix in="SourceAlpha" type="matrix" values="0 0 0 0 0 0 0 0 0 0 0 0 0 0 0 0 0 0 127 0" result="hardAlpha"/>
            <feOffset/>
            <feGaussianBlur stdDeviation="6"/>
            <feComposite in2="hardAlpha" operator="out"/>
            <feColorMatrix type="matrix" values="0 0 0 0 0.791667 0 0 0 0 0 0 0 0 0 0 0 0 0 0.13 0"/>
            <feBlend mode="normal" in2="BackgroundImageFix" result="effect1_dropShadow_1116_5589"/>
            <feBlend mode="normal" in="SourceGraphic" in2="effect1_dropShadow_1116_5589" result="shape"/>
        </filter>
        <filter id="filter1_d_1116_5589" x="0.360001" y="0.360001" width="93.2805" height="93.2805" filterUnits="userSpaceOnUse" color-interpolation-filters="sRGB">
            <feFlood flood-opacity="0" result="BackgroundImageFix"/>
            <feColorMatrix in="SourceAlpha" type="matrix" values="0 0 0 0 0 0 0 0 0 0 0 0 0 0 0 0 0 0 127 0" result="hardAlpha"/>
            <feOffset/>
            <feGaussianBlur stdDeviation="8.32"/>
            <feComposite in2="hardAlpha" operator="out"/>
            <feColorMatrix type="matrix" values="0 0 0 0 0 0 0 0 0 0 0 0 0 0 0 0 0 0 0.08 0"/>
            <feBlend mode="normal" in2="BackgroundImageFix" result="effect1_dropShadow_1116_5589"/>
            <feBlend mode="normal" in="SourceGraphic" in2="effect1_dropShadow_1116_5589" result="shape"/>
        </filter>
        <linearGradient id="paint0_linear_1116_5589" x1="251.5" y1="31.5005" x2="92.5" y2="32.0005" gradientUnits="userSpaceOnUse">
            <stop stop-color="#cccccc55"/>
            <stop offset="0.411458" stop-color="#ccccccaa"/>
            <stop offset="0.447917" stop-color="#FFC2C2"/>
            <stop offset="0.53125" stop-color="#FFADAD"/>
            <stop offset="0.598958" stop-color="#ccccccaa"/>
            <stop offset="1" stop-color="#cccccc55"/>
        </linearGradient>
        <linearGradient id="paint1_linear_1116_5589" x1="276.609" y1="14.1921" x2="301.358" y2="29.3697" gradientUnits="userSpaceOnUse">
            <stop stop-color="#A229C5"/>
            <stop offset="1" stop-color="#7B3FE4"/>
        </linearGradient>
        <clipPath id="clip0_1116_5589">
            <rect x="305.997" y="29.2434" width="24" height="24" rx="12" fill="white"/>
        </clipPath>
        <clipPath id="clip1_1116_5589">
            <rect width="24" height="24" fill="white" transform="translate(264.997 90.2437)"/>
        </clipPath>
        <clipPath id="clip2_1116_5589">
            <rect x="280.999" y="12.2432" width="24" height="24" rx="12" fill="white"/>
        </clipPath>
        <clipPath id="clip3_1116_5589">
            <rect width="24" height="24" fill="white" transform="translate(232.998 43.2439)"/>
        </clipPath>
        <clipPath id="clip4_1116_5589">
            <rect width="24" height="24" fill="white" transform="translate(311.998 59.2432)"/>
        </clipPath>
    </defs>
</svg>
