<svg xmlns="http://www.w3.org/2000/svg" width="101" height="114" viewBox="0 0 101 114">
    <g fill="none" fill-rule="evenodd" transform="translate(1)">
        <path fill="#E4E4E3" fill-rule="nonzero" d="M89.681 17.723v88.654H1.027v2.738h91.394V17.723z"/>
        <path fill="#FFF" fill-rule="nonzero" stroke="#8FCB7F" stroke-width=".878" d="M89.681 16.031v90.346H0V16.03"/>
        <path fill="#8FCB7F" fill-rule="nonzero" d="M40.033 33.436a2.145 2.145 0 0 1 2.147 2.145v3.566a2.147 2.147 0 0 1-2.147 2.147H13.199a2.147 2.147 0 0 1-2.146-2.147v-3.566a2.145 2.145 0 0 1 2.146-2.145h26.834m0-.293H13.199a2.434 2.434 0 0 0-2.43 2.431v3.566a2.435 2.435 0 0 0 2.43 2.44h26.834a2.435 2.435 0 0 0 2.43-2.433v-3.566a2.434 2.434 0 0 0-2.43-2.43v-.008zM40.033 44.241c1.185 0 2.147.962 2.147 2.147v3.565a2.147 2.147 0 0 1-2.147 2.142H13.199a2.147 2.147 0 0 1-2.146-2.147v-3.56c0-1.185.96-2.147 2.146-2.147h26.834m0-.285H13.199a2.434 2.434 0 0 0-2.43 2.432v3.565a2.434 2.434 0 0 0 2.43 2.435h26.834a2.434 2.434 0 0 0 2.43-2.432v-3.568a2.434 2.434 0 0 0-2.43-2.432zM40.033 55.047c1.185 0 2.147.96 2.147 2.147v3.566a2.147 2.147 0 0 1-2.147 2.146H13.199a2.147 2.147 0 0 1-2.146-2.146v-3.566c0-1.186.96-2.147 2.146-2.147h26.834m0-.286H13.199a2.435 2.435 0 0 0-2.43 2.433v3.566a2.434 2.434 0 0 0 2.43 2.43h26.834a2.434 2.434 0 0 0 2.43-2.43v-3.566a2.435 2.435 0 0 0-2.43-2.433zM40.033 65.85c1.185 0 2.147.962 2.147 2.147v3.567a2.147 2.147 0 0 1-2.147 2.146H13.199a2.147 2.147 0 0 1-2.146-2.146v-3.565a2.147 2.147 0 0 1 2.146-2.148h26.834m0-.284H13.199a2.434 2.434 0 0 0-2.43 2.43v3.567a2.435 2.435 0 0 0 2.43 2.433h26.834a2.435 2.435 0 0 0 2.43-2.432V68a2.434 2.434 0 0 0-2.43-2.43v-.002zM40.033 76.659c1.185 0 2.147.961 2.147 2.147v3.564a2.147 2.147 0 0 1-2.147 2.147H13.199a2.147 2.147 0 0 1-2.146-2.147v-3.564c0-1.186.96-2.147 2.146-2.147h26.834m0-.293H13.199a2.434 2.434 0 0 0-2.43 2.432v3.565a2.434 2.434 0 0 0 2.43 2.44h26.834a2.434 2.434 0 0 0 2.43-2.433v-3.564a2.434 2.434 0 0 0-2.43-2.432v-.008zM40.033 87.464c1.185 0 2.147.961 2.147 2.147v3.566a2.145 2.145 0 0 1-2.147 2.146H13.199a2.145 2.145 0 0 1-2.146-2.146v-3.566a2.147 2.147 0 0 1 2.146-2.147h26.834m0-.292H13.199a2.435 2.435 0 0 0-2.43 2.432v3.566a2.434 2.434 0 0 0 2.43 2.438h26.834a2.434 2.434 0 0 0 2.43-2.43V89.61a2.435 2.435 0 0 0-2.43-2.432v-.007zM76.482 33.436a2.145 2.145 0 0 1 2.147 2.145v3.566a2.147 2.147 0 0 1-2.147 2.147H49.65a2.147 2.147 0 0 1-2.147-2.147v-3.566a2.145 2.145 0 0 1 2.147-2.145h26.832m0-.293H49.65a2.434 2.434 0 0 0-2.432 2.431v3.566a2.435 2.435 0 0 0 2.432 2.432h26.832a2.435 2.435 0 0 0 2.432-2.432v-3.559a2.435 2.435 0 0 0-2.432-2.43v-.008zM76.482 44.241c1.186 0 2.147.962 2.147 2.147v3.565a2.147 2.147 0 0 1-2.147 2.142H49.65a2.147 2.147 0 0 1-2.147-2.147v-3.56a2.147 2.147 0 0 1 2.147-2.147h26.832m0-.285H49.65a2.434 2.434 0 0 0-2.432 2.432v3.565a2.434 2.434 0 0 0 2.432 2.435h26.832a2.435 2.435 0 0 0 2.432-2.432v-3.568a2.435 2.435 0 0 0-2.432-2.432zM76.482 55.047c1.186 0 2.147.96 2.147 2.147v3.566a2.147 2.147 0 0 1-2.147 2.146H49.65a2.147 2.147 0 0 1-2.147-2.146v-3.566a2.147 2.147 0 0 1 2.147-2.147h26.832m0-.286H49.65a2.435 2.435 0 0 0-2.432 2.433v3.566a2.434 2.434 0 0 0 2.432 2.43h26.832a2.435 2.435 0 0 0 2.432-2.43v-3.566a2.435 2.435 0 0 0-2.432-2.433zM76.482 65.85c1.186 0 2.147.962 2.147 2.147v3.567a2.147 2.147 0 0 1-2.147 2.146H49.65a2.147 2.147 0 0 1-2.147-2.146v-3.565a2.147 2.147 0 0 1 2.147-2.148h26.832m0-.284H49.65a2.434 2.434 0 0 0-2.432 2.43v3.567a2.435 2.435 0 0 0 2.432 2.432h26.832a2.435 2.435 0 0 0 2.432-2.432v-3.565a2.435 2.435 0 0 0-2.432-2.43v-.002zM76.482 76.659c1.186 0 2.147.961 2.147 2.147v3.564a2.147 2.147 0 0 1-2.147 2.147H49.65a2.147 2.147 0 0 1-2.147-2.147v-3.564a2.147 2.147 0 0 1 2.147-2.147h26.832m0-.293H49.65a2.434 2.434 0 0 0-2.432 2.432v3.565a2.434 2.434 0 0 0 2.432 2.432h26.832a2.435 2.435 0 0 0 2.432-2.432v-3.557a2.435 2.435 0 0 0-2.432-2.432v-.008zM76.482 87.464c1.186 0 2.147.961 2.147 2.147v3.566a2.145 2.145 0 0 1-2.147 2.146H49.65a2.145 2.145 0 0 1-2.147-2.146v-3.566c0-1.186.961-2.147 2.147-2.147h26.832m0-.292H49.65a2.435 2.435 0 0 0-2.432 2.432v3.566a2.434 2.434 0 0 0 2.432 2.43h26.832a2.435 2.435 0 0 0 2.432-2.43V89.61a2.435 2.435 0 0 0-2.432-2.432v-.007z"/>
        <text fill="#8FCB7F" font-family="TTHoves-Medium, TT Hoves" font-size="7" font-weight="400">
            <tspan x="11" y="29">RECOVERY SEED</tspan>
        </text>
        <path fill="#8FCB7F" fill-rule="nonzero" stroke="#8FCB7F" stroke-width=".5" d="M.023 16.177h89.652"/>
        <circle cx="21.868" cy="14.508" r="5.373" fill="#F9C447" fill-rule="nonzero" opacity=".4"/>
        <circle cx="21.868" cy="14.508" r="3.638" fill="#F9C447" fill-rule="nonzero"/>
        <path fill="#FFF" fill-rule="nonzero" d="M21.868 12.221l2.287 2.287-2.287 2.287-2.287-2.287z"/>
        <circle cx="57.293" cy="3.638" r="3.638" fill="#F9C447" fill-rule="nonzero" opacity=".4"/>
        <circle cx="57.293" cy="3.638" r="2.463" fill="#F9C447" fill-rule="nonzero"/>
        <path fill="#FFF" fill-rule="nonzero" d="M57.293 2.09l1.547 1.547-1.547 1.548-1.548-1.548z"/>
        <circle cx="8.49" cy="107.685" r="6.139" fill="#F9C447" fill-rule="nonzero" opacity=".4"/>
        <circle cx="8.49" cy="107.685" r="3.524" fill="#F9C447" fill-rule="nonzero"/>
        <path fill="#FFF" fill-rule="nonzero" d="M8.492 105.468l2.215 2.216-2.215 2.215-2.216-2.215z"/>
        <circle cx="92.421" cy="68.47" r="6.982" fill="#F9C447" fill-rule="nonzero" opacity=".4"/>
        <circle cx="92.421" cy="68.47" r="3.868" fill="#F9C447" fill-rule="nonzero"/>
        <path fill="#FFF" fill-rule="nonzero" d="M92.422 66.039l2.431 2.432-2.431 2.431-2.432-2.431z"/>
    </g>
</svg>
