<svg width="360" height="280" viewBox="0 0 360 280" fill="none" xmlns="http://www.w3.org/2000/svg">
<path d="M243.863 116.22L256.643 118.658L256.332 120.29L243.552 117.851L243.863 116.22ZM103.363 89.405L116.141 91.844L115.829 93.475L103.052 91.037L103.363 89.405ZM193.658 28.052L195.29 28.363L192.851 41.141L191.22 40.829L193.658 28.052ZM166.844 168.551L168.475 168.863L166.037 181.643L164.405 181.332L166.844 168.551ZM217.073 158.154L224.383 168.916L223.01 169.849L215.7 159.087L217.073 158.154ZM136.682 39.846L143.996 50.606L142.622 51.539L135.309 40.779L136.682 39.846ZM243.916 60.309L244.849 61.682L234.087 68.996L233.153 67.622L243.916 60.309ZM125.605 140.7L126.539 142.073L115.779 149.383L114.846 148.01L125.605 140.7ZM233.954 140.9L244.688 148.252L243.75 149.622L233.015 142.271L233.954 140.9ZM115.945 60.072L126.68 67.424L125.741 68.794L115.006 61.443L115.945 60.072ZM223.252 40.006L224.622 40.945L217.271 51.68L215.901 50.741L223.252 40.006ZM142.424 158.015L143.794 158.954L136.443 169.688L135.073 168.75L142.424 158.015ZM192.614 168.599L195.005 181.39L193.373 181.695L190.981 168.904L192.614 168.599ZM166.322 28L168.714 40.788L167.081 41.093L164.69 28.305L166.322 28ZM256.39 89.69L256.695 91.322L243.904 93.714L243.599 92.081L256.39 89.69ZM115.788 115.981L116.093 117.614L103.305 120.005L103 118.373L115.788 115.981Z" fill="#F9C447"/>
<path d="M183.334 202.512V239.897H177.214V202.512H183.334Z" fill="#D8D9DA"/>
<path d="M170.608 162.595H189.943V198.815H170.608V162.595ZM183.32 208.087L183.337 234.983L177.217 234.987L177.2 208.091L183.32 208.087Z" fill="#BEBDC0"/>
<path d="M173.965 189.897H186.583V226.804H173.965V189.897Z" fill="#D8D9DA"/>
<path d="M186.026 190.453V226.248H174.522V190.453H186.026ZM187.139 189.341H173.409V227.361H187.139V189.341Z" fill="#7A7F80"/>
<path d="M169.081 180.147H191.468V213.382H169.081V180.147Z" fill="#D8D9DA"/>
<path d="M190.914 180.704V212.826H169.637V180.704H190.914ZM192.026 179.591H168.524V213.939H192.026V179.59V179.591Z" fill="#7A7F80"/>
<path d="M186.235 210.837H188.365V185.624C188.365 185.059 188.14 184.517 187.741 184.118C187.341 183.719 186.8 183.494 186.235 183.494V210.837ZM179.14 225.894H185.6V219.43C183.886 219.431 182.243 220.113 181.032 221.325C179.82 222.537 179.14 224.181 179.14 225.894Z" fill="white"/>
<path d="M167.874 176.852C166.308 176.853 164.776 176.394 163.469 175.533C162.161 174.671 161.136 173.444 160.519 172.005L152.067 152.332C149.102 145.454 147.577 138.041 147.585 130.551V67.4421C147.589 64.3785 148.661 61.4122 150.618 59.0548C152.574 56.6975 155.292 55.0969 158.303 54.5291C172.146 51.9369 186.349 51.9369 200.192 54.5291C203.203 55.0969 205.921 56.6975 207.877 59.0548C209.834 61.4122 210.906 64.3785 210.91 67.4421V130.592C210.918 138.092 209.39 145.513 206.419 152.399L197.979 172.016C197.362 173.455 196.336 174.681 195.028 175.542C193.72 176.404 192.189 176.862 190.623 176.861L167.874 176.851V176.852Z" fill="#D8D9DA"/>
<path d="M179.247 53.17C186.237 53.17 193.213 53.818 200.084 55.105C202.96 55.6458 205.557 57.1748 207.426 59.4275C209.294 61.6803 210.317 64.5152 210.316 67.442V130.592C210.316 138.012 208.804 145.352 205.872 152.168L197.432 171.785C196.859 173.118 195.908 174.254 194.696 175.052C193.484 175.85 192.065 176.275 190.614 176.275H167.874C166.423 176.275 165.003 175.849 163.791 175.05C162.579 174.252 161.627 173.116 161.054 171.782L152.602 152.101C149.678 145.293 148.169 137.961 148.169 130.551V67.442C148.169 64.5151 149.191 61.6801 151.06 59.4273C152.928 57.1745 155.525 55.6456 158.402 55.105C165.276 53.8173 172.254 53.1702 179.247 53.17ZM179.247 52C172.185 52.002 165.139 52.656 158.197 53.956C155.052 54.5484 152.213 56.2198 150.169 58.6818C148.125 61.1438 147.004 64.242 147 67.442V130.551C146.99 138.123 148.531 145.617 151.529 152.571L159.981 172.235C160.644 173.779 161.744 175.095 163.147 176.02C164.55 176.944 166.194 177.437 167.874 177.437H190.623C192.303 177.439 193.947 176.947 195.351 176.023C196.754 175.098 197.855 173.782 198.517 172.238L206.957 152.621C209.961 145.663 211.507 138.162 211.497 130.583V67.433C211.491 64.2347 210.369 61.1387 208.325 58.6788C206.281 56.2188 203.443 54.5489 200.3 53.957C193.358 52.657 186.31 52.0019 179.247 52Z" fill="#7A7F80"/>
<path d="M201.934 82.8818H156.564C154.885 82.8818 153.523 84.2433 153.523 85.9228V108.612C153.523 110.291 154.885 111.653 156.564 111.653H201.934C203.614 111.653 204.975 110.291 204.975 108.612V85.9228C204.975 84.2433 203.614 82.8818 201.934 82.8818Z" fill="#BEBDC0"/>
<path d="M172.324 117.246H155.473C154.154 117.246 153.084 118.316 153.084 119.635V126.268C153.084 127.587 154.154 128.657 155.473 128.657H172.324C173.643 128.657 174.713 127.587 174.713 126.268V119.635C174.713 118.316 173.643 117.246 172.324 117.246Z" fill="#D8D9DA"/>
<path d="M172.324 117.684C172.842 117.684 173.338 117.89 173.703 118.255C174.069 118.621 174.274 119.117 174.274 119.634V126.259C174.274 126.776 174.069 127.272 173.703 127.638C173.338 128.004 172.842 128.209 172.324 128.209H155.478C155.222 128.21 154.968 128.16 154.731 128.062C154.493 127.964 154.278 127.821 154.096 127.64C153.915 127.459 153.771 127.243 153.672 127.007C153.574 126.77 153.523 126.516 153.523 126.259V119.634C153.523 119.378 153.573 119.123 153.671 118.886C153.77 118.649 153.914 118.434 154.095 118.253C154.277 118.071 154.493 117.928 154.73 117.83C154.967 117.733 155.222 117.683 155.478 117.684H172.324ZM172.324 116.807H155.478C154.729 116.808 154.01 117.106 153.48 117.636C152.95 118.166 152.652 118.885 152.651 119.634V126.259C152.651 126.631 152.723 126.999 152.865 127.343C153.006 127.687 153.215 128 153.477 128.263C153.74 128.526 154.052 128.736 154.395 128.878C154.738 129.021 155.106 129.095 155.478 129.095H172.324C172.696 129.095 173.064 129.021 173.408 128.878C173.751 128.736 174.063 128.526 174.326 128.263C174.588 128 174.796 127.687 174.938 127.343C175.08 126.999 175.152 126.631 175.151 126.259V119.634C175.151 118.885 174.852 118.166 174.322 117.636C173.792 117.106 173.074 116.808 172.324 116.807Z" fill="#7A7F80"/>
<path d="M203.022 117.246H186.171C184.852 117.246 183.782 118.316 183.782 119.635V126.268C183.782 127.587 184.852 128.657 186.171 128.657H203.022C204.342 128.657 205.411 127.587 205.411 126.268V119.635C205.411 118.316 204.342 117.246 203.022 117.246Z" fill="#D8D9DA"/>
<path d="M203.022 117.684C203.278 117.684 203.532 117.734 203.768 117.832C204.005 117.93 204.22 118.073 204.401 118.254C204.583 118.436 204.726 118.651 204.824 118.887C204.922 119.124 204.972 119.378 204.972 119.634V126.259C204.972 126.776 204.766 127.272 204.401 127.638C204.035 128.004 203.539 128.209 203.022 128.209H186.176C185.658 128.209 185.162 128.004 184.797 127.638C184.431 127.272 184.226 126.776 184.226 126.259V119.634C184.226 119.117 184.431 118.621 184.797 118.255C185.162 117.89 185.658 117.684 186.176 117.684H203.028M203.028 116.807H186.176C185.426 116.808 184.708 117.106 184.178 117.636C183.648 118.166 183.349 118.885 183.349 119.634V126.259C183.348 126.631 183.42 126.999 183.562 127.343C183.704 127.687 183.912 128 184.174 128.263C184.437 128.526 184.749 128.736 185.092 128.878C185.436 129.021 185.804 129.095 186.176 129.095H203.028C203.777 129.094 204.496 128.796 205.026 128.266C205.556 127.736 205.854 127.018 205.855 126.268V119.634C205.854 118.885 205.556 118.166 205.026 117.636C204.496 117.106 203.777 116.808 203.028 116.807Z" fill="#7A7F80"/>
<path d="M201.934 82.2969H156.564C156.088 82.2967 155.617 82.3904 155.177 82.5725C154.737 82.7546 154.337 83.0216 154.001 83.3583C153.664 83.6949 153.397 84.0945 153.215 84.5344C153.032 84.9743 152.938 85.4457 152.938 85.9219V108.612C152.938 109.088 153.032 109.559 153.214 109.999C153.396 110.439 153.663 110.839 154 111.176C154.336 111.513 154.736 111.78 155.176 111.962C155.616 112.144 156.087 112.238 156.563 112.238H201.934C202.411 112.238 202.882 112.144 203.322 111.962C203.762 111.78 204.161 111.513 204.498 111.176C204.835 110.839 205.102 110.439 205.284 109.999C205.466 109.559 205.56 109.088 205.559 108.612V85.9219C205.559 84.9605 205.178 84.0384 204.498 83.3586C203.818 82.6788 202.896 82.2969 201.934 82.2969ZM156.564 83.4669H201.934C203.291 83.4669 204.39 84.5669 204.39 85.9219V108.612C204.39 109.969 203.29 111.068 201.934 111.068H156.564C156.242 111.068 155.922 111.005 155.624 110.881C155.326 110.758 155.055 110.577 154.827 110.349C154.599 110.121 154.418 109.85 154.295 109.552C154.171 109.254 154.107 108.934 154.107 108.612V85.9219C154.107 84.5659 155.208 83.4669 156.564 83.4669Z" fill="black"/>
<path d="M151.26 62.9602L156.023 58.1982L158.223 60.3982L153.459 65.1612L151.26 62.9602ZM201.934 111.068V112.238H156.56V111.068H201.934ZM172.324 117.246V118.123H155.473V117.246H172.324ZM203.022 117.246V118.123H186.17V117.246H203.022Z" fill="white"/>
<path d="M179.247 54.631C186.147 54.633 193.032 55.272 199.815 56.541C202.356 57.0209 204.65 58.3723 206.302 60.3622C207.953 62.3521 208.859 64.8559 208.863 67.442V130.592C208.871 137.813 207.399 144.959 204.536 151.589L196.099 171.209C195.639 172.279 194.874 173.191 193.901 173.832C192.928 174.473 191.788 174.814 190.623 174.814H167.874C166.708 174.814 165.569 174.472 164.595 173.831C163.622 173.19 162.859 172.277 162.399 171.206L153.946 151.525C151.092 144.901 149.623 137.763 149.631 130.551V67.442C149.635 64.8536 150.543 62.3479 152.198 60.3575C153.852 58.3671 156.15 57.0169 158.694 56.54C165.472 55.2729 172.352 54.6339 179.247 54.631ZM179.247 53.169C172.254 53.169 165.276 53.817 158.402 55.105C155.525 55.6455 152.928 57.1744 151.06 59.4272C149.191 61.68 148.169 64.5151 148.169 67.442V130.551C148.169 137.961 149.678 145.293 152.602 152.101L161.054 171.774C161.627 173.108 162.579 174.244 163.791 175.042C165.003 175.841 166.422 176.267 167.874 176.267H190.623C192.074 176.267 193.493 175.842 194.705 175.044C195.916 174.246 196.868 173.11 197.441 171.777L205.881 152.159C208.813 145.344 210.325 138.002 210.325 130.583V67.433C210.325 64.506 209.303 61.671 207.434 59.4182C205.566 57.1654 202.968 55.6365 200.092 55.096C193.218 53.8112 186.24 53.1661 179.247 53.169Z" fill="white"/>
<path d="M163.43 174.79C164.712 175.752 166.271 176.272 167.874 176.273H190.623C192.074 176.273 193.493 175.847 194.704 175.049C195.916 174.251 196.867 173.116 197.441 171.783L205.881 152.165C208.813 145.35 210.325 138.008 210.325 130.589L163.431 174.791L163.43 174.79Z" fill="#D8D9DA"/>
<path d="M158.402 59.3591C172.173 56.7776 186.304 56.7776 200.075 59.3591C204.551 60.1981 208.845 63.3901 208.845 67.4421H210.307C210.307 64.5153 209.285 61.6804 207.417 59.4276C205.548 57.1749 202.951 55.6459 200.075 55.1051C186.304 52.5236 172.173 52.5236 158.402 55.1051C155.525 55.6457 152.928 57.1746 151.06 59.4274C149.191 61.6802 148.169 64.5152 148.169 67.4421H149.631C149.631 63.3521 153.931 60.1861 158.402 59.3591Z" fill="white"/>
<path d="M167.874 176.852C166.308 176.853 164.776 176.394 163.469 175.533C162.161 174.671 161.136 173.444 160.519 172.005L152.067 152.332C149.102 145.454 147.577 138.041 147.585 130.551V67.4421C147.589 64.3785 148.661 61.4122 150.618 59.0548C152.574 56.6975 155.292 55.0969 158.303 54.5291C172.146 51.9369 186.349 51.9369 200.192 54.5291C203.203 55.0969 205.921 56.6975 207.877 59.0548C209.834 61.4122 210.906 64.3785 210.91 67.4421V130.592C210.918 138.092 209.39 145.513 206.419 152.399L197.979 172.016C197.362 173.455 196.336 174.681 195.028 175.542C193.72 176.404 192.189 176.862 190.623 176.861L167.874 176.851V176.852Z" fill="#D8D9DA"/>
<path d="M179.247 53.17C186.237 53.17 193.213 53.818 200.084 55.105C202.96 55.6458 205.557 57.1748 207.426 59.4275C209.294 61.6803 210.317 64.5152 210.316 67.442V130.592C210.316 138.012 208.804 145.352 205.872 152.168L197.432 171.785C196.859 173.118 195.908 174.254 194.696 175.052C193.484 175.85 192.065 176.275 190.614 176.275H167.874C166.423 176.275 165.003 175.849 163.791 175.05C162.579 174.252 161.627 173.116 161.054 171.782L152.602 152.101C149.678 145.293 148.169 137.961 148.169 130.551V67.442C148.169 64.5151 149.191 61.6801 151.06 59.4273C152.928 57.1745 155.525 55.6456 158.402 55.105C165.276 53.8173 172.254 53.1702 179.247 53.17ZM179.247 52C172.185 52.002 165.139 52.656 158.197 53.956C155.052 54.5484 152.213 56.2198 150.169 58.6818C148.125 61.1438 147.004 64.242 147 67.442V130.551C146.99 138.123 148.531 145.617 151.529 152.571L159.981 172.235C160.644 173.779 161.744 175.095 163.147 176.02C164.55 176.944 166.194 177.437 167.874 177.437H190.623C192.303 177.439 193.947 176.947 195.351 176.023C196.754 175.098 197.855 173.782 198.517 172.238L206.957 152.621C209.961 145.663 211.507 138.162 211.497 130.583V67.433C211.491 64.2347 210.369 61.1387 208.325 58.6788C206.281 56.2188 203.443 54.5489 200.3 53.957C193.358 52.657 186.31 52.0019 179.247 52Z" fill="#7A7F80"/>
<path d="M206.222 109H152.768C152.273 109 151.782 109.068 151.325 109.201C150.868 109.333 150.453 109.528 150.103 109.772C149.753 110.017 149.475 110.308 149.286 110.628C149.097 110.948 149 111.291 149 111.637V113H210V111.638C210 111.291 209.902 110.947 209.713 110.627C209.523 110.307 209.244 110.016 208.893 109.771C208.542 109.526 208.126 109.331 207.667 109.199C207.209 109.067 206.718 108.999 206.222 109Z" fill="white"/>
<path d="M155.5 118.96L157.185 117.684H190.275V120.456H154.5L155.5 118.96ZM184.22 117.684H204.972V120.456H184.22V117.684Z" fill="white"/>
<rect x="153" y="118" width="46" height="11" rx="5.5" stroke="#7A7F80"/>
<path d="M178.5 117.5V128.5" stroke="#7A7F80"/>
<path d="M150.978 62.68L155.741 57.916L158.503 60.678L153.74 65.441L150.978 62.68Z" fill="white"/>
<path d="M179.247 54.631C186.147 54.633 193.032 55.272 199.815 56.541C202.356 57.0209 204.65 58.3723 206.302 60.3622C207.953 62.3521 208.859 64.8559 208.863 67.442V130.592C208.871 137.813 207.399 144.959 204.536 151.589L196.099 171.209C195.639 172.279 194.874 173.191 193.901 173.832C192.928 174.473 191.788 174.814 190.623 174.814H167.874C166.708 174.814 165.569 174.472 164.595 173.831C163.622 173.19 162.859 172.277 162.399 171.206L153.946 151.525C151.092 144.901 149.623 137.763 149.631 130.551V67.442C149.635 64.8536 150.543 62.3479 152.198 60.3575C153.852 58.3671 156.15 57.0169 158.694 56.54C165.472 55.2729 172.352 54.6339 179.247 54.631ZM179.247 53.169C172.254 53.169 165.276 53.817 158.402 55.105C155.525 55.6455 152.928 57.1744 151.06 59.4272C149.191 61.68 148.169 64.5151 148.169 67.442V130.551C148.169 137.961 149.678 145.293 152.602 152.101L161.054 171.774C161.627 173.108 162.579 174.244 163.791 175.042C165.003 175.841 166.422 176.267 167.874 176.267H190.623C192.074 176.267 193.493 175.842 194.705 175.044C195.916 174.246 196.868 173.11 197.441 171.777L205.881 152.159C208.813 145.344 210.325 138.002 210.325 130.583V67.433C210.325 64.506 209.303 61.671 207.434 59.4182C205.566 57.1654 202.968 55.6365 200.092 55.096C193.218 53.8112 186.24 53.1661 179.247 53.169Z" fill="white"/>
<path d="M210 110.5H149V71V62.5L157 57.5L200.5 56L210 64.5V110.5Z" fill="white"/>
<path d="M163.43 174.79C164.712 175.752 166.271 176.272 167.874 176.273H190.623C192.074 176.273 193.493 175.847 194.704 175.049C195.916 174.251 196.867 173.116 197.441 171.783L205.881 152.165C208.813 145.35 210.325 138.008 210.325 130.589L163.431 174.791L163.43 174.79Z" fill="#D8D9DA"/>
<path d="M158.402 59.3591C172.173 56.7776 186.304 56.7776 200.075 59.3591C204.551 60.1981 208.845 63.3901 208.845 67.4421H210.307C210.307 64.5153 209.285 61.6804 207.417 59.4276C205.548 57.1749 202.951 55.6459 200.075 55.1051C186.304 52.5236 172.173 52.5236 158.402 55.1051C155.525 55.6457 152.928 57.1746 151.06 59.4274C149.191 61.6802 148.169 64.5152 148.169 67.4421H149.631C149.631 63.3521 153.931 60.1861 158.402 59.3591Z" fill="white"/>
<path d="M148 111H211" stroke="#7A7F80"/>
<path d="M194.8 147.577C206.249 147.577 215.53 138.296 215.53 126.847C215.53 115.398 206.249 106.117 194.8 106.117C183.351 106.117 174.07 115.398 174.07 126.847C174.07 138.296 183.351 147.577 194.8 147.577Z" fill="#C6E2BA"/>
<path fill-rule="evenodd" clip-rule="evenodd" d="M185.556 148.5C182.889 140.833 181.722 133.833 182.056 127.5C182.389 121.167 185.389 117.167 191.056 115.5C197.056 114.167 201.556 115.5 204.556 119.5C207.556 123.5 210.722 129.5 214.056 137.5C216.389 142.5 218.222 145.833 219.556 147.5C221.556 150 222.556 152.5 223.056 155C223.389 156.667 224.222 159.167 225.556 162.5C229.889 171.833 235.222 180.167 241.556 187.5C251.056 198.5 210.556 223.5 209.056 218.5C207.556 213.5 196.056 171.5 195.056 168.5C194.056 165.5 193.556 164.5 192.056 162.5C191.056 161.167 189.889 158.833 188.556 155.5L185.556 148.5Z" fill="white"/>
<path d="M188.493 115.037C191.409 113.729 195.275 113.349 198.313 114.1C201.301 114.838 203.914 117.044 205.788 120.093L206.215 120.796C207.245 122.51 208.194 124.247 209.696 127.115L210.908 129.451C211.388 130.394 211.858 131.351 212.441 132.574L215.646 139.367C215.957 140.018 216.231 140.583 216.501 141.13L217.071 142.274L217.21 142.442C217.622 142.954 218.06 143.572 218.524 144.29L218.758 144.656C219.218 145.386 219.697 146.2 220.19 147.083C220.8 148.182 221.387 149.293 221.95 150.417L222.557 151.64L223.169 152.918L223.291 153.179L223.349 153.353L224.364 158.108L224.771 159.026L224.981 159.493C225.512 160.659 226.124 161.959 226.808 163.36C228.762 167.36 230.905 171.361 233.169 175.091C236.105 179.928 239.02 183.939 241.835 186.841L242.201 187.213L241.027 188.388C237.99 185.35 234.876 181.104 231.749 175.953C229.457 172.175 227.29 168.132 225.315 164.089C224.822 163.079 224.365 162.119 223.949 161.224L223.36 159.938L222.806 158.69L222.756 158.535L221.743 153.789L221.543 153.363C221.385 153.03 221.225 152.699 221.064 152.368L220.887 152.006C220.206 150.617 219.489 149.245 218.739 147.892C218.259 147.033 217.796 146.244 217.353 145.542C216.908 144.822 216.423 144.129 215.9 143.464L215.738 143.267L215.631 143.105L215.114 142.072C214.809 141.456 214.504 140.827 214.151 140.09L210.947 133.3C210.281 131.895 209.588 130.502 208.87 129.122L208.03 127.512C206.458 124.521 205.509 122.81 204.374 120.962C202.71 118.257 200.432 116.334 197.914 115.712C195.241 115.052 191.754 115.394 189.173 116.552C184.86 118.49 182.69 121.056 182.404 126.992C182.117 133.095 182.83 138.312 184.583 143.968L184.941 145.09C185.984 148.274 186.928 150.6 189.836 157.364L190.187 158.181L194.79 165.181L197.23 174.239L199.21 181.523C200.032 184.54 200.849 187.523 201.65 190.431L204.228 199.73C206.46 207.711 208.246 213.903 209.455 217.798L209.8 218.898L208.218 219.401L207.684 217.691C206.444 213.653 204.664 207.462 202.462 199.579L201.002 194.324L199.566 189.118C198.597 185.592 197.608 181.971 196.618 178.324L193.255 165.871L188.761 159.037L188.692 158.909L186.974 154.899C184.954 150.146 184.165 148.095 183.227 145.189C181.251 139.071 180.437 133.478 180.745 126.913C181.065 120.275 183.657 117.21 188.493 115.037Z" fill="#8FCB7F"/>
<path d="M204.426 129.491L204.402 130.598C198.991 130.481 193.725 132.353 189.602 135.86C189.228 136.18 189.038 136.415 188.994 136.624L188.984 136.701L187.878 136.653C187.906 136.021 188.242 135.567 188.883 135.018C193.085 131.443 198.422 129.482 203.939 129.486L204.426 129.491Z" fill="#C6E2BA"/>
<path d="M185.06 124.804C185.355 128.62 186.414 132.339 188.175 135.737C188.409 136.26 188.751 136.729 189.122 137.069C189.585 137.389 190.114 137.599 190.689 137.685L190.938 137.715C195.191 138.33 199.699 137.24 203.493 134.755C204.885 133.843 206.035 132.338 206.324 130.962L206.363 130.746L207.459 130.904C207.201 132.683 205.811 134.56 204.1 135.681C200.086 138.311 195.307 139.466 190.81 138.815C189.955 138.738 189.136 138.434 188.438 137.935C187.903 137.457 187.474 136.871 187.178 136.217C185.453 132.882 184.378 129.249 184.011 125.512L183.957 124.889L185.061 124.804H185.06ZM209.793 144.23L210.257 145.235C209.557 145.558 208.929 145.688 207.82 145.779L206.38 145.886L206.288 145.895C202.788 146.248 199.63 147.941 195.446 151.273L195.024 151.612L194.328 150.752C198.878 147.07 202.288 145.185 206.177 144.793L206.573 144.758L207.696 144.678C208.62 144.603 209.149 144.504 209.664 144.286L209.793 144.23ZM211.405 146.921L212.37 147.464C211.802 148.477 210.911 149.27 209.839 149.717C209.505 149.865 209.037 149.967 208.377 150.061L207.129 150.223L206.433 150.333L204.598 150.648L204.056 150.733L203.891 149.638L204.421 149.555L206.253 149.241L206.964 149.128C207.119 149.105 207.979 148.999 208.22 148.965C208.782 148.885 209.18 148.798 209.403 148.699C210.172 148.38 210.825 147.834 211.276 147.135L211.406 146.921H211.405Z" fill="#8FCB7F"/>
<path d="M149 114.532L149.734 112L151.5 113.5L149.734 116L149 114.532Z" fill="white"/>
</svg>
