<?xml version="1.0" encoding="utf-8"?>
<svg width="360" height="280" viewBox="0 0 360 280" xmlns="http://www.w3.org/2000/svg">
  <g fill="none" fill-rule="evenodd">
    <path fill="#F9C447" fill-rule="nonzero" d="M243.863 116.22l12.78 2.438-.311 1.632-12.78-2.439zM103.363 89.405l12.778 2.439-.312 1.631-12.777-2.438zM193.658 28.052l1.632.311-2.439 12.778-1.631-.312zM166.844 168.551l1.631.312-2.438 12.78-1.632-.311zM217.073 158.154l7.31 10.762-1.373.933-7.31-10.762zM136.682 39.846l7.314 10.76-1.374.933-7.313-10.76zM243.916 60.309l.933 1.373-10.762 7.314-.934-1.374zM125.605 140.7l.934 1.373-10.76 7.31-.933-1.373zM233.954 140.9l10.734 7.352-.938 1.37-10.735-7.351zM115.945 60.072l10.735 7.352-.939 1.37-10.735-7.351zM223.252 40.006l1.37.939-7.351 10.735-1.37-.939zM142.424 158.015l1.37.939-7.351 10.734-1.37-.938zM192.614 168.599l2.391 12.791-1.632.305-2.392-12.791zM166.322 28l2.392 12.788-1.633.305-2.391-12.788zM256.39 89.69l.305 1.632-12.791 2.392-.305-1.633zM115.788 115.981l.305 1.633-12.788 2.391-.305-1.632z"/>
    <path fill="#D8D9DA" fill-rule="nonzero" d="M183.334 202.512v37.385h-6.12v-37.385z"/>
    <path fill="#BEBDC0" fill-rule="nonzero" d="M170.608 162.595h19.335v36.22h-19.335zM183.32 208.087l.017 26.896-6.12.004-.017-26.896z"/>
    <path fill="#D8D9DA" fill-rule="nonzero" d="M173.965 189.897h12.618v36.907h-12.618z"/>
    <path fill="#7A7F80" fill-rule="nonzero" d="M186.026 190.453v35.795h-11.504v-35.795h11.504m1.113-1.112h-13.73v38.02h13.73v-38.02z"/>
    <path fill="#D8D9DA" fill-rule="nonzero" d="M169.081 180.147h22.387v33.235h-22.387z"/>
    <path fill="#7A7F80" fill-rule="nonzero" d="M190.914 180.704v32.122h-21.277v-32.122h21.277m1.112-1.113h-23.502v34.348h23.502V179.59z"/>
    <path fill="#FFF" fill-rule="nonzero" d="M186.235 210.837h2.13v-25.213a2.13 2.13 0 0 0-2.13-2.13v27.343zM179.14 225.894h6.46v-6.464a6.465 6.465 0 0 0-6.46 6.464z"/>
    <path fill="#D8D9DA" fill-rule="nonzero" d="M167.874 176.852a7.996 7.996 0 0 1-7.355-4.847l-8.452-19.673a54.87 54.87 0 0 1-4.482-21.781V67.442a13.156 13.156 0 0 1 10.718-12.913 113.789 113.789 0 0 1 41.889 0 13.156 13.156 0 0 1 10.718 12.913v63.15a54.894 54.894 0 0 1-4.491 21.807l-8.44 19.617a7.999 7.999 0 0 1-7.356 4.845l-22.749-.01z"/>
    <path fill="#7A7F80" fill-rule="nonzero" d="M179.247 53.17c6.99 0 13.966.648 20.837 1.935a12.551 12.551 0 0 1 10.232 12.337v63.15c0 7.42-1.512 14.76-4.444 21.576l-8.44 19.617a7.422 7.422 0 0 1-6.818 4.49h-22.74a7.425 7.425 0 0 1-6.82-4.493l-8.452-19.681a54.609 54.609 0 0 1-4.433-21.55V67.442a12.551 12.551 0 0 1 10.233-12.337 113.215 113.215 0 0 1 20.845-1.936m0-1.169c-7.062.002-14.108.656-21.05 1.956A13.741 13.741 0 0 0 147 67.442v63.109a55.435 55.435 0 0 0 4.529 22.02l8.452 19.664a8.588 8.588 0 0 0 7.893 5.202h22.749a8.58 8.58 0 0 0 7.894-5.199l8.44-19.617a55.42 55.42 0 0 0 4.54-22.038v-63.15A13.74 13.74 0 0 0 200.3 53.957 114.555 114.555 0 0 0 179.247 52z"/>
    <rect width="51.452" height="28.771" x="153.523" y="82.882" fill="#BEBDC0" fill-rule="nonzero" rx="3.041"/>
    <rect width="21.629" height="11.411" x="153.084" y="117.246" fill="#D8D9DA" fill-rule="nonzero" rx="2.389"/>
    <path fill="#7A7F80" fill-rule="nonzero" d="M172.324 117.684a1.95 1.95 0 0 1 1.95 1.95v6.625a1.95 1.95 0 0 1-1.95 1.95h-16.846a1.95 1.95 0 0 1-1.955-1.95v-6.625a1.947 1.947 0 0 1 1.955-1.95h16.846m0-.877h-16.846a2.83 2.83 0 0 0-2.827 2.827v6.625a2.83 2.83 0 0 0 2.827 2.836h16.846a2.83 2.83 0 0 0 2.827-2.836v-6.625a2.83 2.83 0 0 0-2.827-2.827z"/>
    <rect width="21.629" height="11.411" x="183.782" y="117.246" fill="#D8D9DA" fill-rule="nonzero" rx="2.389"/>
    <path fill="#7A7F80" fill-rule="nonzero" d="M203.022 117.684a1.947 1.947 0 0 1 1.95 1.95v6.625a1.95 1.95 0 0 1-1.95 1.95h-16.846a1.95 1.95 0 0 1-1.95-1.95v-6.625a1.95 1.95 0 0 1 1.95-1.95h16.852m0-.877h-16.852a2.83 2.83 0 0 0-2.827 2.827v6.625a2.83 2.83 0 0 0 2.827 2.836h16.852a2.83 2.83 0 0 0 2.827-2.827v-6.634a2.83 2.83 0 0 0-2.827-2.827z"/>
    <path fill="#000" fill-rule="nonzero" d="M201.934 82.297h-45.37a3.625 3.625 0 0 0-3.626 3.625v22.69a3.625 3.625 0 0 0 3.625 3.626h45.371a3.625 3.625 0 0 0 3.625-3.626v-22.69a3.625 3.625 0 0 0-3.625-3.625zm-45.37 1.17h45.37c1.357 0 2.456 1.1 2.456 2.455v22.69c0 1.357-1.1 2.456-2.456 2.456h-45.37a2.456 2.456 0 0 1-2.457-2.456v-22.69c0-1.356 1.1-2.455 2.456-2.455z"/>
    <path fill="#FFF" fill-rule="nonzero" d="M151.26 62.96l4.763-4.762 2.2 2.2-4.764 4.763zM201.934 111.068v1.17H156.56v-1.17zM172.324 117.246v.877h-16.851v-.877zM203.022 117.246v.877H186.17v-.877z"/>
    <path fill="#FFF" fill-rule="nonzero" d="M179.247 54.631c6.9.002 13.785.641 20.568 1.91a11.11 11.11 0 0 1 9.048 10.901v63.15a52.807 52.807 0 0 1-4.327 20.997l-8.437 19.62a5.96 5.96 0 0 1-5.476 3.605h-22.749a5.957 5.957 0 0 1-5.475-3.608l-8.453-19.681a52.856 52.856 0 0 1-4.315-20.974V67.442a11.11 11.11 0 0 1 9.063-10.902 112.108 112.108 0 0 1 20.553-1.909m0-1.462c-6.993 0-13.971.648-20.845 1.936a12.551 12.551 0 0 0-10.233 12.337v63.109c0 7.41 1.509 14.742 4.433 21.55l8.452 19.673a7.425 7.425 0 0 0 6.82 4.493h22.749a7.422 7.422 0 0 0 6.818-4.49l8.44-19.618a54.593 54.593 0 0 0 4.444-21.576v-63.15a12.551 12.551 0 0 0-10.233-12.337 113.208 113.208 0 0 0-20.845-1.927z"/>
    <path fill="#D8D9DA" fill-rule="nonzero" d="M163.43 174.79a7.406 7.406 0 0 0 4.444 1.483h22.749a7.423 7.423 0 0 0 6.818-4.49l8.44-19.618a54.593 54.593 0 0 0 4.444-21.576l-46.894 44.202z"/>
    <path fill="#FFF" fill-rule="nonzero" d="M158.402 59.359a113.087 113.087 0 0 1 41.673 0c4.476.839 8.77 4.031 8.77 8.083h1.462a12.551 12.551 0 0 0-10.232-12.337 113.087 113.087 0 0 0-41.673 0 12.551 12.551 0 0 0-10.233 12.337h1.462c0-4.09 4.3-7.256 8.771-8.083z"/>
    <path fill="#D8D9DA" fill-rule="nonzero" d="M167.874 176.852a7.996 7.996 0 0 1-7.355-4.847l-8.452-19.673a54.87 54.87 0 0 1-4.482-21.781V67.442a13.156 13.156 0 0 1 10.718-12.913 113.789 113.789 0 0 1 41.889 0 13.156 13.156 0 0 1 10.718 12.913v63.15a54.894 54.894 0 0 1-4.491 21.807l-8.44 19.617a7.999 7.999 0 0 1-7.356 4.845l-22.749-.01z"/>
    <path fill="#7A7F80" fill-rule="nonzero" d="M179.247 53.17c6.99 0 13.966.648 20.837 1.935a12.551 12.551 0 0 1 10.232 12.337v63.15c0 7.42-1.512 14.76-4.444 21.576l-8.44 19.617a7.422 7.422 0 0 1-6.818 4.49h-22.74a7.425 7.425 0 0 1-6.82-4.493l-8.452-19.681a54.609 54.609 0 0 1-4.433-21.55V67.442a12.551 12.551 0 0 1 10.233-12.337 113.215 113.215 0 0 1 20.845-1.936m0-1.169c-7.062.002-14.108.656-21.05 1.956A13.741 13.741 0 0 0 147 67.442v63.109a55.435 55.435 0 0 0 4.529 22.02l8.452 19.664a8.588 8.588 0 0 0 7.893 5.202h22.749a8.58 8.58 0 0 0 7.894-5.199l8.44-19.617a55.42 55.42 0 0 0 4.54-22.038v-63.15A13.74 13.74 0 0 0 200.3 53.957 114.555 114.555 0 0 0 179.247 52z"/>
    <path fill="#FFF" fill-rule="nonzero" d="M201.791 113.436h-45.09a3.178 3.178 0 0 1-3.178-3.18v-1.644h51.455v1.643a3.18 3.18 0 0 1-3.187 3.181z"/>
    <rect width="50.283" height="27.602" x="154.107" y="83.467" fill="#FFF" fill-rule="nonzero" rx="2.456"/>
    <path fill="#7A7F80" fill-rule="nonzero" d="M201.934 84.051a1.871 1.871 0 0 1 1.868 1.871v22.69c0 1.033-.836 1.87-1.868 1.871H156.56a1.871 1.871 0 0 1-1.868-1.87v-22.7c0-1.032.836-1.869 1.868-1.87h45.374m0-1.17H156.56a3.038 3.038 0 0 0-3.037 3.04v22.69a3.04 3.04 0 0 0 3.037 3.038h45.374a3.04 3.04 0 0 0 3.038-3.04V85.914a3.038 3.038 0 0 0-3.038-3.04z"/>
    <path fill="#FFF" fill-rule="nonzero" d="M153.523 117.684h20.752v1.772h-20.752zM184.22 117.684h20.752v1.772H184.22z"/>
    <path fill="#7A7F80" fill-rule="nonzero" d="M172.324 117.684a1.95 1.95 0 0 1 1.95 1.95v6.625a1.95 1.95 0 0 1-1.95 1.95h-16.846a1.95 1.95 0 0 1-1.955-1.95v-6.625a1.947 1.947 0 0 1 1.955-1.95h16.846m0-.877h-16.846a2.83 2.83 0 0 0-2.827 2.827v6.625a2.83 2.83 0 0 0 2.827 2.836h16.846a2.83 2.83 0 0 0 2.827-2.836v-6.625a2.83 2.83 0 0 0-2.827-2.827zM203.022 117.684a1.947 1.947 0 0 1 1.95 1.95v6.625a1.95 1.95 0 0 1-1.95 1.95h-16.846a1.95 1.95 0 0 1-1.95-1.95v-6.625a1.95 1.95 0 0 1 1.95-1.95h16.852m0-.877h-16.852a2.83 2.83 0 0 0-2.827 2.827v6.625a2.83 2.83 0 0 0 2.827 2.836h16.852a2.83 2.83 0 0 0 2.827-2.827v-6.634a2.83 2.83 0 0 0-2.827-2.827z"/>
    <path fill="#FFF" fill-rule="nonzero" d="M150.978 62.68l4.763-4.764 2.762 2.762-4.763 4.763z"/>
    <path fill="#FFF" fill-rule="nonzero" d="M179.247 54.631c6.9.002 13.785.641 20.568 1.91a11.11 11.11 0 0 1 9.048 10.901v63.15a52.807 52.807 0 0 1-4.327 20.997l-8.437 19.62a5.96 5.96 0 0 1-5.476 3.605h-22.749a5.957 5.957 0 0 1-5.475-3.608l-8.453-19.681a52.856 52.856 0 0 1-4.315-20.974V67.442a11.11 11.11 0 0 1 9.063-10.902 112.108 112.108 0 0 1 20.553-1.909m0-1.462c-6.993 0-13.971.648-20.845 1.936a12.551 12.551 0 0 0-10.233 12.337v63.109c0 7.41 1.509 14.742 4.433 21.55l8.452 19.673a7.425 7.425 0 0 0 6.82 4.493h22.749a7.422 7.422 0 0 0 6.818-4.49l8.44-19.618a54.593 54.593 0 0 0 4.444-21.576v-63.15a12.551 12.551 0 0 0-10.233-12.337 113.208 113.208 0 0 0-20.845-1.927z"/>
    <path fill="#D8D9DA" fill-rule="nonzero" d="M163.43 174.79a7.406 7.406 0 0 0 4.444 1.483h22.749a7.423 7.423 0 0 0 6.818-4.49l8.44-19.618a54.593 54.593 0 0 0 4.444-21.576l-46.894 44.202z"/>
    <path fill="#FFF" fill-rule="nonzero" d="M158.402 59.359a113.087 113.087 0 0 1 41.673 0c4.476.839 8.77 4.031 8.77 8.083h1.462a12.551 12.551 0 0 0-10.232-12.337 113.087 113.087 0 0 0-41.673 0 12.551 12.551 0 0 0-10.233 12.337h1.462c0-4.09 4.3-7.256 8.771-8.083z"/>
    <circle cx="194.8" cy="126.847" r="20.73" fill="#C6E2BA" fill-rule="nonzero"/>
    <path fill="#FFF" d="M185.556 148.5c-2.667-7.667-3.834-14.667-3.5-21 .333-6.333 3.333-10.333 9-12 6-1.333 10.5 0 13.5 4s6.166 10 9.5 18c2.333 5 4.166 8.333 5.5 10 2 2.5 3 5 3.5 7.5.333 1.667 1.166 4.167 2.5 7.5 4.333 9.333 9.666 17.667 16 25 9.5 11-31 36-32.5 31s-13-47-14-50-1.5-4-3-6c-1-1.333-2.167-3.667-3.5-7l-3-7z"/>
    <path fill="#8FCB7F" fill-rule="nonzero" d="M188.493 115.037c2.916-1.308 6.782-1.688 9.82-.937 2.988.738 5.601 2.944 7.475 5.993l.427.703c1.03 1.714 1.979 3.451 3.481 6.319l1.212 2.336c.48.943.95 1.9 1.533 3.123l3.205 6.793c.311.651.585 1.216.855 1.763l.57 1.144.139.168c.412.512.85 1.13 1.314 1.848l.234.366c.46.73.939 1.544 1.432 2.427a89.491 89.491 0 0 1 1.76 3.334l.607 1.223.612 1.278.122.261.058.174 1.015 4.755.407.918.21.467c.531 1.166 1.143 2.466 1.827 3.867 1.954 4 4.097 8.001 6.361 11.731 2.936 4.837 5.851 8.848 8.666 11.75l.366.372-1.174 1.175c-3.037-3.038-6.151-7.284-9.278-12.435-2.292-3.778-4.459-7.821-6.434-11.864-.493-1.01-.95-1.97-1.366-2.865l-.589-1.286-.554-1.248-.05-.155-1.013-4.746-.2-.426a97.42 97.42 0 0 0-.479-.995l-.177-.362a91.897 91.897 0 0 0-2.148-4.114c-.48-.859-.943-1.648-1.386-2.35a22.317 22.317 0 0 0-1.453-2.078l-.162-.197-.107-.162-.517-1.033c-.305-.616-.61-1.245-.963-1.982l-3.204-6.79a124.37 124.37 0 0 0-2.077-4.178l-.84-1.61c-1.572-2.991-2.521-4.702-3.656-6.55-1.664-2.705-3.942-4.628-6.46-5.25-2.673-.66-6.16-.318-8.741.84-4.313 1.938-6.483 4.504-6.769 10.44-.287 6.103.426 11.32 2.179 16.976l.358 1.122c1.043 3.184 1.987 5.51 4.895 12.274l.351.817 4.603 7 2.44 9.058 1.98 7.284c.822 3.017 1.639 6 2.44 8.908l2.578 9.299c2.232 7.981 4.018 14.173 5.227 18.068l.345 1.1-1.582.503-.534-1.71c-1.24-4.038-3.02-10.229-5.222-18.112l-1.46-5.255-1.436-5.206c-.969-3.526-1.958-7.147-2.948-10.794l-3.363-12.453-4.494-6.834-.069-.128-1.718-4.01c-2.02-4.753-2.809-6.804-3.747-9.71-1.976-6.118-2.79-11.711-2.482-18.276.32-6.638 2.912-9.703 7.748-11.876z"/>
    <path fill="#C6E2BA" fill-rule="nonzero" d="M204.426 129.491l-.024 1.107a22.102 22.102 0 0 0-14.8 5.262c-.374.32-.564.555-.608.764l-.01.077-1.106-.048c.028-.632.364-1.086 1.005-1.635a23.21 23.21 0 0 1 15.056-5.532l.487.005z"/>
    <path fill="#8FCB7F" fill-rule="nonzero" d="M185.06 124.804a28.55 28.55 0 0 0 3.115 10.933c.234.523.576.992.947 1.332.463.32.992.53 1.567.616l.249.03c4.253.615 8.761-.475 12.555-2.96 1.392-.912 2.542-2.417 2.831-3.793l.039-.216 1.096.158c-.258 1.779-1.648 3.656-3.359 4.777-4.014 2.63-8.793 3.785-13.29 3.134a4.83 4.83 0 0 1-2.372-.88 5.153 5.153 0 0 1-1.26-1.718 29.602 29.602 0 0 1-3.167-10.705l-.054-.623 1.104-.085zM209.793 144.23l.464 1.005c-.7.323-1.328.453-2.437.544l-1.44.107-.092.009c-3.5.353-6.658 2.046-10.842 5.378l-.422.339-.696-.86c4.55-3.682 7.96-5.567 11.849-5.959l.396-.035 1.123-.08c.924-.075 1.453-.174 1.968-.392l.129-.057zM211.405 146.921l.965.543a5.2 5.2 0 0 1-2.531 2.253c-.334.148-.802.25-1.462.344l-1.248.162-.696.11-1.835.315-.542.085-.165-1.095.53-.083 1.832-.314.711-.113c.155-.023 1.015-.129 1.256-.163.562-.08.96-.167 1.183-.266a4.102 4.102 0 0 0 1.873-1.564l.13-.214z"/>
  </g>
  <text style="fill: rgb(255, 0, 0); font-family: Arial, sans-serif; font-size: 68px; white-space: pre;" x="155.425" y="106.712" transform="matrix(0.83032, 0, 0, 0.895892, 31.802011, 7.404957)">R</text>
</svg>