<svg version="1.2" xmlns="http://www.w3.org/2000/svg" viewBox="0 0 360 280" width="360" height="280">
	<title>device-confirm-trezor-t3t1-svg</title>
	<style>
		tspan { white-space:pre } 
		.s0 { fill: #ebebeb } 
		.s1 { fill: #f9c447 } 
		.s2 { fill: #d8d9da } 
		.s3 { fill: #bebdc0 } 
		.s4 { fill: #7a7f80 } 
		.s5 { fill: #ffffff } 
		.s6 { fill: #c6e2ba } 
		.s7 { fill: #c6e2ba;stroke: #c6e2ba;stroke-width: 2 } 
		.s8 { fill: #8fcb7f } 
		.t9 { font-size: 80px;fill: #ff0000;font-weight: 400;font-family: "DejaVuSans", "DejaVu Sans" } 
	</style>
	<path id="Layer" class="s0" d="m213.7 51.4h-67.8c-4.7 0-8.6 3.9-8.6 8.7v74.8c0 11.2 2.8 20.8 8.9 28.2l1 1.3 5.9-4.1-3.5-6.9q-1-1.9-1.7-3.9-0.8-2-1.3-4-0.5-2.1-0.7-4.2-0.3-2.1-0.3-4.2v-74.7c0-2.7 1.3-4 4.1-4h60.3c2.8 0 4.1 1.3 4.1 4v74.6h1c0 5.7-2.4 11.4-5 16.4l-3.6 6.9 5.9 4.1 0.1-0.2c2.8-3.4 5.4-7.5 7.1-12.1 1.9-5.3 2.7-11.2 2.7-17.2v-74.8c0-4.8-3.9-8.7-8.6-8.7z"/>
	<path id="Layer" class="s1" d="m243.9 116.2l12.7 2.5-0.3 1.6-12.7-2.4zm-140.5-26.9l12.7 2.5-0.3 1.6-12.8-2.4zm90.3-61.4l1.7 0.3-2.5 12.8-1.6-0.3zm-26.8 140.5l1.6 0.3-2.4 12.8-1.7-0.3zm50.3-10.4l7.3 10.7-1.4 1-7.3-10.8zm-80.4-118.3l7.3 10.8-1.3 0.9-7.4-10.8zm107.3 20.5l0.9 1.4-10.8 7.3-0.9-1.4zm-118.3 80.4l0.9 1.4-10.7 7.3-1-1.4zm108.4 0.2l10.7 7.4-0.9 1.3-10.8-7.3zm-118-80.8l10.8 7.3-1 1.4-10.7-7.4zm107.3-20l1.4 0.9-7.4 10.7-1.3-0.9zm-80.9 118l1.4 0.9-7.4 10.8-1.3-1zm50.2 10.6l2.4 12.8-1.7 0.3-2.4-12.8zm-26.3-140.6l2.4 12.8-1.6 0.3-2.4-12.8zm90.1 61.7l0.3 1.7-12.8 2.3-0.3-1.6zm-140.6 26.3l0.3 1.6-12.8 2.4-0.3-1.6z"/>
	<path id="Layer" class="s2" d="m176.8 212.6h6v37.2h-6z"/>
	<path id="Layer" class="s3" d="m170.2 172.9h19.2v36h-19.2zm12.6 45.3v26.7h-6l-0.1-26.7z"/>
	<path id="Layer" class="s2" d="m173.5 200h12.6v36.8h-12.6z"/>
	<path id="Layer" fill-rule="evenodd" class="s4" d="m186.6 237.3h-13.6v-37.8h13.6zm-12.5-36.8v35.7h11.4v-35.7z"/>
	<path id="Layer" class="s2" d="m168.7 190.3h22.2v33.1h-22.2z"/>
	<path id="Layer" fill-rule="evenodd" class="s4" d="m191.5 223.9h-23.4v-34.1h23.4zm-22.3-33.1v32h21.2v-32z"/>
	<path id="Layer" class="s5" d="m185.7 220.9h2.1v-25.1q0-0.5-0.1-0.8-0.2-0.4-0.5-0.7-0.3-0.3-0.7-0.5-0.4-0.1-0.8-0.1zm-7 14.9h6.4v-6.4c-3.5 0-6.4 2.9-6.4 6.4z"/>
	<path id="Layer" fill-rule="evenodd" class="s4" d="m223.4 60.1v74.8c0 11.4-2.9 21.2-9.1 28.9l-18.7 23.1c-0.5 0.6-1.2 0.9-1.9 0.9h-27.8c-0.7 0-1.4-0.3-1.9-0.9l-18.7-23.1c-6.2-7.6-9.1-17.5-9.1-28.9v-74.8c0-5.4 4.4-9.8 9.7-9.8h67.8c5.3 0 9.7 4.4 9.7 9.8zm-77.5-8.7c-4.7 0-8.6 3.9-8.6 8.7v74.8c0 11.2 2.8 20.8 8.9 28.2l18.7 23.1c0.2 0.4 0.6 0.5 1 0.5h27.8c0.4 0 0.8-0.2 1-0.5l18.7-23.1c6.1-7.4 8.9-17 8.9-28.2v-74.8c0-4.8-3.9-8.7-8.6-8.7z"/>
	<path id="Layer" class="s2" d="m215.1 137v-74.5-0.1c0-2.7-2.3-5-5.1-5h-60.3c-2.8 0-5.1 2.3-5.1 5v74.7q0 2.1 0.3 4.2 0.2 2.1 0.7 4.2 0.5 2 1.3 4 0.7 2 1.7 3.9l3.5 6.9-5.3 4.4 17.7 21.9c0.3 0.4 0.9 0.7 1.4 0.7h27.8c0.5 0 1.1-0.3 1.4-0.7l17.7-21.9-5.3-4.4 3.6-6.9q1-1.9 1.7-3.9 0.8-2 1.3-4 0.5-2.1 0.7-4.2 0.3-2.1 0.3-4.3z"/>
	<path id="Layer" class="s2" d="m148.3 64.2q-0.3 0-0.5 0-0.3-0.1-0.5-0.1-0.2-0.1-0.5-0.3-0.2-0.1-0.4-0.3l-5.3-4.5q-0.3-0.2-0.5-0.4-0.2-0.3-0.3-0.6-0.2-0.3-0.3-0.6 0-0.3 0-0.7 0-0.5 0.2-1.1 0.2-0.5 0.6-0.9 0.4-0.4 1-0.6 0.5-0.3 1.1-0.3c0.7 0 1.4 0.3 1.9 0.8l5.4 4.5q0.2 0.2 0.4 0.5 0.2 0.2 0.3 0.5 0.2 0.3 0.2 0.6 0.1 0.3 0.1 0.6 0 0.6-0.2 1.1-0.2 0.6-0.6 1-0.5 0.4-1 0.6-0.5 0.2-1.1 0.2z"/>
	<path id="Layer" fill-rule="evenodd" class="s4" d="m210.5 74.3q0-0.7-0.3-1.3-0.3-0.7-0.8-1.2-0.5-0.5-1.1-0.8-0.7-0.2-1.4-0.2h-54.2q-0.7 0-1.4 0.2-0.6 0.3-1.1 0.8-0.5 0.5-0.8 1.2-0.3 0.6-0.3 1.3v54.3q0 0.7 0.3 1.3 0.3 0.7 0.8 1.2 0.5 0.5 1.1 0.7 0.7 0.3 1.4 0.3h54.2q0.7 0 1.4-0.3 0.6-0.2 1.1-0.7 0.5-0.5 0.8-1.2 0.3-0.6 0.3-1.3z"/>
	<path id="Layer" fill-rule="evenodd" class="s5" d="m210.5 80.6q0-0.7-0.3-1.3-0.3-0.7-0.8-1.2-0.5-0.5-1.1-0.8-0.7-0.2-1.4-0.2h-54.2q-0.7 0-1.4 0.2-0.6 0.3-1.1 0.8-0.5 0.5-0.8 1.2-0.3 0.6-0.3 1.3v54.3q0 0.7 0.3 1.3 0.3 0.7 0.8 1.2 0.5 0.5 1.1 0.8 0.7 0.2 1.4 0.2h54.2q0.7 0 1.4-0.2 0.6-0.3 1.1-0.8 0.5-0.5 0.8-1.2 0.3-0.6 0.3-1.3z"/>
	<path id="Layer" fill-rule="evenodd" class="s5" d="m209.9 77.7q0-0.6-0.2-1.1-0.2-0.6-0.7-1-0.4-0.4-0.9-0.6-0.6-0.3-1.2-0.3h-54.2q-0.6 0-1.2 0.3-0.5 0.2-0.9 0.6-0.5 0.4-0.7 1-0.2 0.5-0.2 1.1v54.3q0 0.6 0.2 1.1 0.2 0.6 0.7 1 0.4 0.4 0.9 0.6 0.6 0.3 1.2 0.3h54.2q0.6 0 1.2-0.3 0.5-0.2 0.9-0.6 0.5-0.4 0.7-1 0.2-0.5 0.2-1.1z"/>
	<path id="Layer" fill-rule="evenodd" class="s4" d="m208.3 74.4q0.6 0.3 1.1 0.8 0.5 0.5 0.8 1.2 0.3 0.6 0.3 1.3v54.3q0 0.7-0.3 1.3-0.3 0.7-0.8 1.2-0.5 0.5-1.1 0.7-0.7 0.3-1.4 0.3h-54.2q-0.7 0-1.4-0.3-0.6-0.2-1.1-0.7-0.5-0.5-0.8-1.2-0.3-0.6-0.3-1.3v-54.3q0-0.7 0.3-1.3 0.3-0.7 0.8-1.2 0.5-0.5 1.1-0.8 0.7-0.2 1.4-0.2h54.2q0.7 0 1.4 0.2zm-55.6 0.9q-0.5 0-1 0.2-0.4 0.2-0.7 0.5-0.4 0.3-0.6 0.8-0.2 0.4-0.2 0.9v54.3q0 0.5 0.2 0.9 0.2 0.4 0.6 0.8 0.3 0.3 0.7 0.5 0.5 0.2 1 0.2h54.2q0.5 0 1-0.2 0.4-0.2 0.7-0.5 0.4-0.4 0.6-0.8 0.2-0.4 0.2-0.9v-54.3q0-0.5-0.2-0.9-0.2-0.5-0.6-0.8-0.3-0.3-0.7-0.5-0.5-0.2-1-0.2c0 0-54.2 0-54.2 0z"/>
	<path id="Layer" fill-rule="evenodd" class="s4" d="m223.4 60.1v74.8c0 11.4-2.9 21.2-9.1 28.9l-18.7 23.1c-0.5 0.6-1.2 0.9-1.9 0.9h-27.8c-0.7 0-1.4-0.3-1.9-0.9l-18.7-23.1c-6.2-7.6-9.1-17.5-9.1-28.9v-74.8c0-5.4 4.4-9.8 9.7-9.8h67.8c5.3 0 9.7 4.4 9.7 9.8zm-77.5-8.7c-4.7 0-8.6 3.9-8.6 8.7v74.8c0 11.2 2.8 20.8 8.9 28.2l18.7 23.1c0.2 0.4 0.6 0.5 1 0.5h27.8c0.4 0 0.8-0.2 1-0.5l18.7-23.1c6.1-7.4 8.9-17 8.9-28.2v-74.8c0-4.8-3.9-8.7-8.6-8.7z"/>
	<path id="Layer" class="s6" d="m179.8 125.6c-11.5 0-20.7-9.3-20.7-20.8 0-11.4 9.2-20.7 20.7-20.7 11.5 0 20.7 9.3 20.7 20.7 0 11.5-9.2 20.8-20.7 20.8z"/>
	<path id="Layer" class="s7" d="m179.8 125.8c-11.6 0-21-9.3-21-21 0-11.6 9.4-21 21-21 11.6 0 21 9.4 21 21 0 11.7-9.4 21-21 21z"/>
	<path id="Layer" fill-rule="evenodd" class="s5" d="m170.6 126.5q-4-11.5-3.5-21 0.5-9.5 9-12 9-2 13.5 4 4.5 6 9.5 18 3.5 7.5 5.5 10c2 2.5 3 5 3.5 7.5q0.5 2.5 2.5 7.5 6.5 14 16 25c9.5 11-31 36-32.5 31-1.5-5-13-47-14-50-1-3-1.5-4-3-6q-1.5-2-3.5-7z"/>
	<path id="Layer" class="s8" d="m173.5 93c2.9-1.3 6.8-1.7 9.8-0.9 3 0.7 5.6 2.9 7.5 6l0.4 0.7c1 1.7 2 3.4 3.5 6.3l1.2 2.4c0.5 0.9 1 1.9 1.5 3.1l3.2 6.8c0.4 0.6 0.6 1.2 0.9 1.7l0.6 1.2 0.1 0.1q0.6 0.8 1.3 1.9l0.3 0.4q0.6 1.1 1.4 2.4 0.2 0.4 0.4 0.8 0.3 0.4 0.5 0.8 0.2 0.5 0.4 0.9 0.2 0.4 0.4 0.8l0.7 1.2 0.6 1.3 0.1 0.3v0.2l1.1 4.7 0.4 0.9 0.2 0.5q0.2 0.5 0.4 1 0.3 0.4 0.5 0.9 0.2 0.5 0.4 1 0.3 0.5 0.5 1c2 4 4.1 8 6.4 11.7 2.9 4.8 5.8 8.8 8.6 11.7l0.4 0.4-1.2 1.2c-3-3-6.1-7.3-9.3-12.4-2.2-3.8-4.4-7.9-6.4-11.9q-0.7-1.5-1.4-2.9l-0.5-1.3-0.6-1.2v-0.2l-1.1-4.7-0.2-0.4q0-0.2-0.1-0.3 0-0.1-0.1-0.2-0.1-0.2-0.1-0.3-0.1-0.1-0.1-0.2l-0.2-0.4q-0.3-0.5-0.5-1-0.3-0.6-0.6-1.1-0.2-0.5-0.5-1-0.3-0.5-0.6-1-0.1-0.3-0.3-0.6-0.2-0.3-0.3-0.6-0.2-0.3-0.4-0.6-0.2-0.3-0.3-0.6-0.7-1-1.5-2l-0.2-0.2-0.1-0.2-0.5-1c-0.3-0.6-0.6-1.3-0.9-2l-3.3-6.8q-0.2-0.5-0.5-1.1-0.2-0.5-0.5-1-0.2-0.5-0.5-1-0.3-0.6-0.5-1.1l-0.9-1.6c-1.5-3-2.5-4.7-3.6-6.5-1.7-2.7-4-4.7-6.5-5.3-2.7-0.6-6.1-0.3-8.7 0.9-4.3 1.9-6.5 4.5-6.8 10.4-0.3 6.1 0.4 11.3 2.2 17l0.3 1.1c1.1 3.2 2 5.5 4.9 12.3l0.4 0.8 4.6 7 2.4 9 2 7.3q1.2 4.6 2.4 8.9l2.6 9.3c2.3 8 4 14.2 5.3 18.1l0.3 1.1-1.6 0.5-0.5-1.7c-1.3-4-3-10.2-5.2-18.1l-1.5-5.3-1.4-5.2c-1-3.5-2-7.1-3-10.8l-3.3-12.4-4.5-6.9-0.1-0.1-1.7-4c-2-4.8-2.8-6.8-3.8-9.7-1.9-6.1-2.8-11.7-2.5-18.3 0.4-6.6 3-9.7 7.8-11.9z"/>
	<path id="Layer" class="s6" d="m189.4 107.5v1.1q-2 0-4 0.3-2 0.3-3.9 1-1.9 0.6-3.6 1.7-1.8 1-3.3 2.3c-0.4 0.3-0.6 0.5-0.6 0.7v0.1h-1.1c0-0.7 0.3-1.1 1-1.7q1.5-1.3 3.3-2.3 1.8-1.1 3.7-1.8 1.9-0.7 4-1.1 2-0.3 4-0.3z"/>
	<path id="Layer" class="s8" d="m170.1 102.8q0.1 1.4 0.3 2.8 0.3 1.5 0.7 2.8 0.4 1.4 0.9 2.7 0.5 1.4 1.2 2.6c0.2 0.6 0.6 1 0.9 1.4q0.2 0.1 0.4 0.2 0.2 0.1 0.4 0.2 0.2 0 0.4 0.1 0.2 0.1 0.4 0.1h0.2c4.3 0.6 8.8-0.5 12.6-2.9 1.4-1 2.5-2.5 2.8-3.8l0.1-0.3 1.1 0.2c-0.3 1.8-1.7 3.7-3.4 4.8-4 2.6-8.8 3.8-13.3 3.1q-0.3 0-0.6-0.1-0.3-0.1-0.6-0.2-0.3-0.1-0.6-0.2-0.3-0.2-0.6-0.4-0.2-0.1-0.3-0.3-0.2-0.2-0.4-0.5-0.1-0.2-0.3-0.4-0.1-0.2-0.2-0.5-0.7-1.2-1.2-2.5-0.5-1.3-0.9-2.7-0.4-1.3-0.7-2.7-0.3-1.4-0.4-2.8v-0.6l1.1-0.1zm24.7 19.4l0.5 1c-0.7 0.4-1.4 0.5-2.5 0.6l-1.4 0.1h-0.1c-3.5 0.3-6.7 2-10.9 5.4l-0.4 0.3-0.7-0.8c4.6-3.7 8-5.6 11.9-6h0.4l1.1-0.1c0.9-0.1 1.4-0.2 2-0.4l0.1-0.1zm1.6 2.7l1 0.6q-0.2 0.3-0.5 0.7-0.3 0.3-0.6 0.6-0.3 0.3-0.7 0.5-0.4 0.2-0.8 0.4c-0.3 0.2-0.8 0.3-1.4 0.4l-1.3 0.1-0.7 0.1-1.8 0.3-0.5 0.1-0.2-1.1h0.5l1.9-0.4 0.7-0.1c0.1 0 1-0.1 1.2-0.1q0.9-0.2 1.2-0.3 0.3-0.1 0.6-0.3 0.2-0.1 0.5-0.3 0.2-0.2 0.4-0.5 0.2-0.2 0.4-0.5l0.1-0.2z"/>
	<text id="5" style="transform: matrix(1,0,0,1,155.04,138.043)" >
		<tspan x="0" y="0" class="t9">5
</tspan>
	</text>
</svg>