<svg xmlns="http://www.w3.org/2000/svg" width="360" height="280" viewBox="0 0 360 280">
    <g fill="none" fill-rule="nonzero">
        <g transform="translate(125 99)">
            <path fill="#7A7F80" d="M191.17 0h-189A2.17 2.17 0 0 0 0 2.17v131.142a2.17 2.17 0 0 0 2.17 2.17h189a2.17 2.17 0 0 0 2.17-2.17V2.17A2.17 2.17 0 0 0 191.17 0z"/>
            <path fill="#FFF" d="M2.17.482h189c.932 0 1.687.756 1.687 1.688v131.142c0 .932-.755 1.688-1.687 1.688h-189a1.687 1.687 0 0 1-1.688-1.688V2.17c0-.932.756-1.688 1.688-1.688z"/>
            <rect width="189" height="131.143" x="2.17" y="2.17" fill="#D8D9DA" rx=".964"/>
            <path fill="#FFF" d="M5.063 10.848h183.214v119.571H5.063z"/>
        </g>
        <g transform="translate(42 44)">
            <path fill="#7A7F80" d="M191.17 0h-189A2.17 2.17 0 0 0 0 2.17v131.142a2.17 2.17 0 0 0 2.17 2.17h189a2.17 2.17 0 0 0 2.17-2.17V2.17A2.17 2.17 0 0 0 191.17 0z"/>
            <path fill="#FFF" d="M2.17.482h189c.932 0 1.687.756 1.687 1.688v131.142c0 .932-.755 1.688-1.687 1.688h-189a1.687 1.687 0 0 1-1.688-1.688V2.17c0-.932.756-1.688 1.688-1.688z"/>
            <rect width="189" height="131.143" x="2.17" y="2.17" fill="#C6E2BA" rx=".964"/>
            <circle cx="6.027" cy="6.509" r="1.446" fill="#9DCA8A"/>
            <circle cx="11.813" cy="6.509" r="1.446" fill="#9DCA8A"/>
            <circle cx="17.598" cy="6.509" r="1.446" fill="#9DCA8A"/>
            <path fill="#FFF" d="M5.063 10.848h183.214v119.571H5.063z"/>
        </g>
    </g>
</svg>
