<svg xmlns="http://www.w3.org/2000/svg" width="360" height="280" viewBox="0 0 360 280">
    <g fill="none" fill-rule="evenodd">
        <g>
            <path fill="#FFF" fill-rule="nonzero" d="M118.842 1.594l.15.003a3.445 3.445 0 013.294 3.442v65.079H9.233V5.038a3.445 3.445 0 013.445-3.444h106.164z" transform="translate(20 98)"/>
            <path fill="#C6E2BA" d="M12.634 2.92h106.252c1.146 0 2.074.928 2.074 2.074V70.12H10.56V4.994c0-1.146.928-2.074 2.074-2.074z" transform="translate(20 98)"/>
            <path fill="#E1EEDC" fill-rule="nonzero" d="M120.96 68.643V47.08L74.88 70.12h43.126c1.632 0 2.954-.661 2.954-1.477z" transform="translate(20 98)"/>
            <path fill="#BEBDC0" fill-rule="nonzero" d="M119.842-.5a4.538 4.538 0 014.533 4.325l.005.214v67.173H7.14V4.039a4.538 4.538 0 014.324-4.534l.214-.005h108.164zm-.01 1.594H11.678a2.945 2.945 0 00-2.94 2.772l-.005.173v65.578h114.053V4.039a2.944 2.944 0 00-2.633-2.93l-.172-.012-.15-.003z" transform="translate(20 98)"/>
            <path fill="#838484" fill-rule="nonzero" d="M118.852 2.42a2.604 2.604 0 012.603 2.433l.005.164v66.197H10.06V5.364a2.951 2.951 0 012.785-2.939l.174-.005h105.833zm-.018 1.593H13.02c-.709 0-1.29.537-1.356 1.222l-.007.13v64.254h108.207V5.017c0-.489-.354-.9-.813-.986l-.108-.014-.108-.004z" transform="translate(20 98)"/>
            <path fill="#FFF" fill-rule="nonzero" d="M.596 70.712h129.368v2.783c0 1.24-.495 2.428-1.377 3.304a4.717 4.717 0 01-3.325 1.369H5.298a4.717 4.717 0 01-3.325-1.369l-.143-.149a4.657 4.657 0 01-1.234-3.155v-2.783z" transform="translate(20 98)"/>
            <path fill="#D8D9DA" fill-rule="nonzero" d="M5.466 78.76h119.633c2.672 0 4.869-2.118 4.981-4.8H.48c.11 2.685 2.311 4.803 4.986 4.8z" transform="translate(20 98)"/>
            <path fill="#BEBDC0" fill-rule="nonzero" d="M131.06 69.62v3.875c0 1.53-.611 2.996-1.7 4.078a5.814 5.814 0 01-3.534 1.66l-.289.02-.275.007H5.298a5.814 5.814 0 01-4.099-1.687 5.755 5.755 0 01-1.673-3.536l-.02-.269-.006-.273V69.62h131.56zm-1.596 1.591H1.095v2.284c0 .886.285 1.747.8 2.45l.147.188.148.17.135.142a4.212 4.212 0 002.502 1.197l.235.02.236.006h119.964c1.115 0 2.185-.44 2.973-1.223a4.16 4.16 0 001.204-2.483l.019-.233.006-.234V71.21z" transform="translate(20 98)"/>
        </g>
        <g fill-rule="nonzero" transform="rotate(180, 260, 140)">
            <g>
                <path fill="#E0DFE1" d="M143.814 15.63L141.014 23.55 75.193 23.55 75.193 15.63z" transform="translate(159 121) translate(56)"/>
                <path fill="#C8C6C9" d="M16.762 -12H48.352000000000004V51.176H16.762z" transform="translate(159 121) translate(56) rotate(-90 32.557 19.588)"/>
                <path fill="#838484" d="M15.548 20.083H16.988V50.683H15.548z" opacity=".497" transform="translate(159 121) translate(56) rotate(-90 16.268 35.383)"/>
                <path fill="#C8C6C9" d="M102.803 15.626L102.808 23.546 67.999 23.568 67.994 15.648z" transform="translate(159 121) translate(56)"/>
                <path fill="#E0DFE1" d="M44.453 11.425H92.218V27.755H44.453z" transform="translate(159 121) translate(56)"/>
                <path fill="#838484" d="M91.498 12.145v14.89H45.173v-14.89h46.325m1.44-1.44H43.733v17.77h49.205v-17.77z" transform="translate(159 121) translate(56)"/>
                <path fill="#E0DFE1" d="M31.835 1.007h38.693a4.32 4.32 0 014.32 4.32v28.526a4.32 4.32 0 01-4.32 4.32H31.835V1.007z" transform="translate(159 121) translate(56)"/>
                <path fill="#838484" d="M31.023.242v38.653h40.91a3.643 3.643 0 003.644-3.643V3.885A3.643 3.643 0 0071.933.242h-40.91zm1.44 37.213V1.683l39.47-.001c1.217 0 2.204.986 2.204 2.203v31.367l-.01.2a2.203 2.203 0 01-2.194 2.003h-39.47z" transform="translate(159 121) translate(56)"/>
                <path fill="#FFF" d="M91.033 21.059v-8.363h-8.366a8.366 8.366 0 008.366 8.363zM32.9 2.094h39.086a1.8 1.8 0 011.8 1.8v2.275H32.9V2.094z" transform="translate(159 121) translate(56)"/>
                <path fill="#838484" d="M14.4 7.285H21.380000000000003V14.265H14.4zM14.4 24.911H21.380000000000003V31.891000000000002H14.4z" transform="translate(159 121) translate(56)"/>
            </g>
            <path fill="#FCC838" d="M42.974 18.384L42.974 20.184 1.4 20.184 1.4 18.384z" transform="translate(159 121)"/>
            <path fill="#FCC838" d="M8.372 11.042L9.644 12.316 2.673 19.284 9.821 26.433 8.549 27.705 0.127 19.284z" transform="translate(159 121)"/>
        </g>
    </g>
</svg>
