<svg width="64" height="64" viewBox="0 0 64 64" fill="none" xmlns="http://www.w3.org/2000/svg">
<circle opacity="0.1" cx="32" cy="32" r="32" fill="#764EEA"/>
<path d="M33.3404 37.935L30.9383 44.455C30.8676 44.6469 30.7397 44.8125 30.5719 44.9295C30.4041 45.0465 30.2045 45.1093 29.9999 45.1093C29.7954 45.1093 29.5958 45.0465 29.428 44.9295C29.2602 44.8125 29.1323 44.6469 29.0616 44.455L26.6595 37.935C26.6095 37.7992 26.5306 37.6759 26.4283 37.5736C26.3259 37.4713 26.2026 37.3924 26.0669 37.3423L19.5469 34.9402C19.3549 34.8695 19.1893 34.7416 19.0723 34.5739C18.9553 34.4061 18.8926 34.2064 18.8926 34.0019C18.8926 33.7973 18.9553 33.5977 19.0723 33.4299C19.1893 33.2621 19.3549 33.1343 19.5469 33.0635L26.0669 30.6614C26.2026 30.6114 26.3259 30.5325 26.4283 30.4302C26.5306 30.3279 26.6095 30.2046 26.6595 30.0688L29.0616 23.5488C29.1323 23.3569 29.2602 23.1913 29.428 23.0743C29.5958 22.9573 29.7954 22.8945 29.9999 22.8945C30.2045 22.8945 30.4041 22.9573 30.5719 23.0743C30.7397 23.1913 30.8676 23.3569 30.9383 23.5488L33.3404 30.0688C33.3904 30.2046 33.4693 30.3279 33.5716 30.4302C33.6739 30.5325 33.7972 30.6114 33.933 30.6614L40.453 33.0635C40.6449 33.1343 40.8106 33.2621 40.9276 33.4299C41.0446 33.5977 41.1073 33.7973 41.1073 34.0019C41.1073 34.2064 41.0446 34.4061 40.9276 34.5739C40.8106 34.7416 40.6449 34.8695 40.453 34.9402L33.933 37.3423C33.7972 37.3924 33.6739 37.4713 33.5716 37.5736C33.4693 37.6759 33.3904 37.7992 33.3404 37.935V37.935Z" stroke="#531EEB" stroke-width="2" stroke-linecap="round" stroke-linejoin="round"/>
<path d="M38 18V24" stroke="#531EEB" stroke-width="2" stroke-linecap="round" stroke-linejoin="round"/>
<path d="M41 21H35" stroke="#531EEB" stroke-width="2" stroke-linecap="round" stroke-linejoin="round"/>
<path d="M44 25V29" stroke="#531EEB" stroke-width="2" stroke-linecap="round" stroke-linejoin="round"/>
<path d="M46 27H42" stroke="#531EEB" stroke-width="2" stroke-linecap="round" stroke-linejoin="round"/>
</svg>
