<svg xmlns="http://www.w3.org/2000/svg" viewBox="0 0 1282.45 1177.51"><defs><style>.cls-1,.cls-4{fill:#fff;}.cls-2{fill:#a3a4a9;}.cls-3{fill:#d8d9da;}.cls-4,.cls-7{stroke:#7a7f80;stroke-width:4px;}.cls-10,.cls-4,.cls-7{stroke-miterlimit:10;}.cls-5{fill:#7a7f80;}.cls-6{fill:#c6e2ba;}.cls-10,.cls-7{fill:none;}.cls-8,.cls-9{fill:#f9c447;}.cls-8{opacity:0.4;}.cls-10{stroke:#fff;stroke-width:8px;}</style></defs><title>new device</title><g id="Layer_2" data-name="Layer 2"><g id="Layer_2-2" data-name="Layer 2"><rect class="cls-1" x="580.41" y="156.46" width="672.32" height="905.51"/><path class="cls-2" d="M1249.73,159.46V1059H583.41V159.46h666.32m6-6H577.41V1065h678.32V153.46Z"/><rect class="cls-3" x="583.41" y="159.46" width="666.32" height="53.19"/><polygon class="cls-3" points="806.43 159.47 993.47 1058.98 645.42 1058.98 645.42 159.47 806.43 159.47"/><path class="cls-1" d="M1239.73,169.46V1049H593.41V169.46h646.32m10-10H583.41V1059h666.32V159.46Z"/><rect class="cls-3" x="640.32" y="159.13" width="83.74" height="25.02"/><rect class="cls-3" x="759.81" y="1033.96" width="143.92" height="25.02"/><path class="cls-3" d="M1065.2,386.12H820.6a33.28,33.28,0,0,0-33.28,33.27v270.4c0,37.55,8.9,74,32.53,103.15l67.6,83.49a6.91,6.91,0,0,0,5.37,2.56H993a6.92,6.92,0,0,0,5.38-2.56l67.6-83.49c23.63-29.18,32.52-65.6,32.52-103.15V419.39A33.28,33.28,0,0,0,1065.2,386.12Z"/><path class="cls-4" d="M1040.4,371.25H795.8a33.27,33.27,0,0,0-33.27,33.27V674.91c0,37.56,8.89,74,32.53,103.16l67.59,83.49a6.93,6.93,0,0,0,5.38,2.56H968.18a6.9,6.9,0,0,0,5.37-2.56l67.6-83.49c23.63-29.19,32.53-65.6,32.53-103.16V404.52A33.27,33.27,0,0,0,1040.4,371.25Z"/><path class="cls-3" d="M1045.49,682.53V413.13a18.36,18.36,0,0,0-18.36-18.36H809.41a18.36,18.36,0,0,0-18.36,18.36V682.65a129.52,129.52,0,0,0,14.26,59.08l12.77,24.92-19.3,16,63.87,78.89a6.93,6.93,0,0,0,5.38,2.56H968.18a6.9,6.9,0,0,0,5.37-2.56l63.88-78.89-19.13-15.92,12.83-24.93A129.56,129.56,0,0,0,1045.49,682.53Z"/><path class="cls-3" d="M795.8,371.25a33.27,33.27,0,0,0-33.27,33.27V674.91c0,37.56,8.89,74,32.53,103.16l67.59,83.49a6.93,6.93,0,0,0,5.38,2.56h50.22L815.77,371.25Z"/><path class="cls-3" d="M804.31,419.57a10.44,10.44,0,0,1-6.77-2.48l-19.3-16.31a10.5,10.5,0,0,1,13.56-16l19.3,16.32a10.5,10.5,0,0,1-6.79,18.51Z"/><rect class="cls-5" x="807.28" y="443.15" width="221.64" height="221.64" rx="12.85"/><rect class="cls-1" x="807.28" y="465.95" width="221.64" height="221.64" rx="12.85"/><rect class="cls-6" x="809.28" y="457.47" width="217.64" height="217.64" rx="10.85"/><path class="cls-5" d="M1016.07,459.47a8.87,8.87,0,0,1,8.86,8.85V664.26a8.87,8.87,0,0,1-8.86,8.85H820.13a8.86,8.86,0,0,1-8.85-8.85V468.32a8.86,8.86,0,0,1,8.85-8.85h195.94m0-4H820.13a12.85,12.85,0,0,0-12.85,12.85V664.26a12.85,12.85,0,0,0,12.85,12.85h195.94a12.85,12.85,0,0,0,12.86-12.85V468.32a12.85,12.85,0,0,0-12.86-12.85Z"/><path class="cls-7" d="M1040.4,371.25H795.8a33.27,33.27,0,0,0-33.27,33.27V674.91c0,37.56,8.89,74,32.53,103.16l67.59,83.49a6.93,6.93,0,0,0,5.38,2.56H968.18a6.9,6.9,0,0,0,5.37-2.56l67.6-83.49c23.63-29.19,32.53-65.6,32.53-103.16V404.52A33.27,33.27,0,0,0,1040.4,371.25Z"/><path class="cls-1" d="M1022.83,662.94V533.4L885.11,671.12h129.54A8.18,8.18,0,0,0,1022.83,662.94Z"/><path class="cls-2" d="M853.46,456.51H820.63a13.27,13.27,0,0,0-13.35,13.19V663a12.73,12.73,0,0,0,12.79,12.65h79.48Z"/><path class="cls-5" d="M1016.07,459.47a8.87,8.87,0,0,1,8.86,8.85V664.26a8.87,8.87,0,0,1-8.86,8.85H820.13a8.86,8.86,0,0,1-8.85-8.85V468.32a8.86,8.86,0,0,1,8.85-8.85h195.94m0-4H820.13a12.85,12.85,0,0,0-12.85,12.85V664.26a12.85,12.85,0,0,0,12.85,12.85h195.94a12.85,12.85,0,0,0,12.86-12.85V468.32a12.85,12.85,0,0,0-12.86-12.85Z"/><rect class="cls-1" x="91.66" y="179.13" width="675.42" height="935.94" transform="translate(-122.62 100.83) rotate(-11.73)"/><path class="cls-2" d="M662.53,123.78l189.11,910.51L196.2,1170.42,7.09,259.91,662.53,123.78m4.65-7.1-5.87,1.22L5.87,254,0,255.25l1.22,5.88,189.11,910.51,1.22,5.87,5.87-1.22,655.44-136.13,5.87-1.22-1.22-5.87L668.4,122.56l-1.22-5.88Z"/><path class="cls-3" d="M447.59,556.74c-4.09-19.65-24.55-32.42-45.32-28.09s-34.43,24.2-30.33,43.85l2.39,11.5-15.57,3.24L376,669.94h0l58.57,13.72,48.23-36h0l-17.15-82.33-15.58,3.25Zm-56.37,11.74c-1.93-9.27,4.69-18.38,15.07-20.55s20.09,3.56,22,12.83l2.39,11.49L393.62,580Zm67.28,70.34L429.7,660.3l-35-8.19-10.35-49.69,63.79-13.29Z"/><circle class="cls-8" cx="1209.42" cy="353.08" r="73.02"/><circle class="cls-8" cx="1216.83" cy="917.94" r="60.95"/><circle class="cls-8" cx="947.98" cy="63.13" r="63.13"/><circle class="cls-8" cx="576.66" cy="167.78" r="77.36"/><circle class="cls-9" cx="576.66" cy="167.78" r="52.36"/><rect class="cls-1" x="553.38" y="144.5" width="46.55" height="46.55" transform="translate(287.54 -358.62) rotate(45)"/><circle class="cls-9" cx="1209.42" cy="353.08" r="52.36"/><rect class="cls-1" x="1186.14" y="329.8" width="46.55" height="46.55" transform="translate(603.9 -751.78) rotate(45)"/><circle class="cls-9" cx="948.74" cy="63.13" r="38.3"/><rect class="cls-1" x="931.72" y="46.11" width="34.05" height="34.05" transform="translate(322.52 -652.37) rotate(45)"/><circle class="cls-9" cx="686.78" cy="740.24" r="38.3"/><rect class="cls-1" x="669.76" y="723.21" width="34.05" height="34.05" transform="translate(724.58 -268.82) rotate(45)"/><circle class="cls-9" cx="1216.83" cy="917.94" r="38.3"/><rect class="cls-1" x="1199.8" y="900.91" width="34.05" height="34.05" transform="translate(1005.48 -591.57) rotate(45)"/><line class="cls-10" x1="820.22" y1="677.11" x2="1016.16" y2="677.11"/></g></g></svg>