<svg xmlns="http://www.w3.org/2000/svg" width="128" height="118" viewBox="0 0 128 118">
    <defs>
        <filter id="a" width="106.6%" height="110.1%" x="-3.3%" y="-5.1%" filterUnits="objectBoundingBox">
            <feOffset dx="1" dy="1" in="SourceAlpha" result="shadowOffsetOuter1"/>
            <feColorMatrix in="shadowOffsetOuter1" result="shadowMatrixOuter1" values="0 0 0 0 0.7 0 0 0 0 0.7 0 0 0 0 0.7 0 0 0 1 0"/>
            <feMerge>
                <feMergeNode in="shadowMatrixOuter1"/>
                <feMergeNode in="SourceGraphic"/>
            </feMerge>
        </filter>
        <filter id="b" width="118.8%" height="108.8%" x="-10.9%" y="-5.1%" filterUnits="objectBoundingBox">
            <feOffset dx="1" dy="1" in="SourceAlpha" result="shadowOffsetOuter1"/>
            <feColorMatrix in="shadowOffsetOuter1" result="shadowMatrixOuter1" values="0 0 0 0 0.7 0 0 0 0 0.7 0 0 0 0 0.7 0 0 0 1 0"/>
            <feMerge>
                <feMergeNode in="shadowMatrixOuter1"/>
                <feMergeNode in="SourceGraphic"/>
            </feMerge>
        </filter>
        <filter id="c" width="155.6%" height="118.5%" x="-27.8%" y="-9.3%" filterUnits="objectBoundingBox">
            <feOffset dx="1" dy="1" in="SourceAlpha" result="shadowOffsetOuter1"/>
            <feColorMatrix in="shadowOffsetOuter1" result="shadowMatrixOuter1" values="0 0 0 0 0.7 0 0 0 0 0.7 0 0 0 0 0.7 0 0 0 1 0"/>
            <feMerge>
                <feMergeNode in="shadowMatrixOuter1"/>
                <feMergeNode in="SourceGraphic"/>
            </feMerge>
        </filter>
    </defs>
    <g fill="none" fill-rule="evenodd" transform="translate(0 1)">
        <g stroke-width="1.768" filter="url(#a)" transform="translate(5 46)">
            <circle cx="53.419" cy="34.129" r="34.129" stroke="#D8D9DA"/>
            <path stroke="#BEBDC0" d="M72.095 62.7a33.93 33.93 0 0 1-12.23 4.95"/>
            <path stroke="#D8D9DA" d="M105.695 21.361v4.965c-.019 20.333-20.006 37.335-47.234 41.562C47.493 69.591.015 74.703 0 26.378v-5.48"/>
        </g>
        <path stroke="#BEBDC0" stroke-width="2.21" d="M110.91 60.859l.006 9.713"/>
        <g filter="url(#b)" transform="translate(95.286 .153)">
            <path fill="#BEBDC0" fill-rule="nonzero" d="M12.138 44.275h6.983v13.081h-6.983z"/>
            <path fill="#D8D9DA" fill-rule="nonzero" d="M13.351 54.136h4.557v13.329h-4.557z"/>
            <path fill="#7A7F80" fill-rule="nonzero" d="M17.707 54.337v12.927h-4.155V54.337h4.155m.402-.402H13.15v13.73h4.959v-13.73z"/>
            <path fill="#D8D9DA" fill-rule="nonzero" d="M11.586 50.615h8.085v12.003h-8.085z"/>
            <path fill="#7A7F80" fill-rule="nonzero" d="M19.471 50.816v11.6H11.79v-11.6h7.684m.402-.402h-8.488v12.404h8.488V50.414z"/>
            <path fill="#FFF" fill-rule="nonzero" d="M17.778 61.698h.77v-9.105a.77.77 0 0 0-.77-.77v9.875zM15.219 67.136h2.333v-2.334a2.334 2.334 0 0 0-2.333 2.334z"/>
            <path fill="#7A7F80" fill-rule="nonzero" d="M13.482 62.748h4.297v1.317h-4.297z"/>
            <path fill="#FFF" fill-rule="nonzero" stroke="#7A7F80" stroke-width=".5" d="M27.916 0H3.343A3.343 3.343 0 0 0 0 3.342v27.165c0 3.772.894 7.434 3.268 10.362l6.791 8.387c.132.163.33.258.54.258h10.06c.21 0 .409-.095.541-.258l6.79-8.387c2.375-2.931 3.268-6.59 3.268-10.362V3.342A3.343 3.343 0 0 0 27.916 0z"/>
            <path fill="#D8D9DA" fill-rule="nonzero" d="M28.427 31.271V4.207a1.844 1.844 0 0 0-1.845-1.844H4.71a1.845 1.845 0 0 0-1.846 1.844v27.076c0 2.064.491 4.1 1.433 5.936l1.283 2.503-1.94 1.607 6.418 7.925c.132.163.33.258.54.258h10.06c.21 0 .409-.095.541-.258l6.416-7.925-1.921-1.6 1.29-2.504a13.025 13.025 0 0 0 1.442-5.954z"/>
            <path fill="#D8D9DA" fill-rule="nonzero" d="M4.197 4.855c-.249 0-.49-.088-.68-.249l-1.939-1.64A1.055 1.055 0 1 1 2.94 1.36L4.88 3a1.055 1.055 0 0 1-.683 1.86v-.004z"/>
            <rect width="22.266" height="22.266" x="4.497" y="7.223" fill="#7A7F80" fill-rule="nonzero" rx="1.291"/>
            <rect width="22.266" height="22.266" x="4.497" y="9.514" fill="#FFF" fill-rule="nonzero" rx="1.291"/>
            <rect width="21.864" height="21.864" x="4.697" y="8.662" fill="#C6E2BA" fill-rule="nonzero" rx="1.09"/>
            <path fill="#7A7F80" fill-rule="nonzero" d="M25.472 8.863a.89.89 0 0 1 .889.89v19.683a.89.89 0 0 1-.89.89H5.788a.89.89 0 0 1-.889-.89V9.753a.89.89 0 0 1 .89-.89h19.684m0-.402H5.787a1.29 1.29 0 0 0-1.29 1.292v19.683a1.29 1.29 0 0 0 1.29 1.292h19.685a1.292 1.292 0 0 0 1.286-1.292V9.753c0-.713-.577-1.292-1.29-1.292h.004z"/>
            <path stroke="#7A7F80" stroke-width=".5" d="M27.916 0H3.343A3.343 3.343 0 0 0 0 3.342v27.165c0 3.772.894 7.434 3.268 10.362l6.791 8.387c.132.163.33.258.54.258h10.06c.21 0 .409-.095.541-.258l6.79-8.387c2.375-2.931 3.268-6.59 3.268-10.362V3.342A3.343 3.343 0 0 0 27.916 0z"/>
            <path fill="#7A7F80" fill-rule="nonzero" d="M13.482 62.748h4.297v1.317h-4.297z"/>
            <path fill="#FFF" d="M11.954 19.132a.652.652 0 0 1 .917 0l1.886 1.865 4.477-4.431a.654.654 0 0 1 .917 0 .637.637 0 0 1 0 .904l-5.395 5.337-2.802-2.772a.636.636 0 0 1 0-.903z"/>
        </g>
        <circle cx="58.588" cy="80.328" r="22.52" fill="#C6E2BA" fill-rule="nonzero"/>
        <g filter="url(#c)" transform="translate(0 44.436)">
            <path fill="#BEBDC0" fill-rule="nonzero" d="M.752 0h6.983v13.081H.752z"/>
            <path stroke="#BEBDC0" stroke-width="2.21" d="M4.238 16.431l.006 9.714"/>
            <path fill="#D8D9DA" fill-rule="nonzero" d="M1.965 9.861h4.557V23.19H1.965z"/>
            <path fill="#7A7F80" fill-rule="nonzero" d="M6.32 10.062V22.99H2.167V10.062H6.32m.402-.402H1.764v13.731h4.959V9.661z"/>
            <path fill="#D8D9DA" fill-rule="nonzero" d="M.201 6.34h8.085v12.003H.201z"/>
            <path fill="#7A7F80" fill-rule="nonzero" d="M8.085 6.54v11.602H.402V6.541h7.683m.402-.402H0v12.405h8.487V6.139z"/>
            <path fill="#FFF" fill-rule="nonzero" d="M6.392 17.424h.77V8.318a.77.77 0 0 0-.77-.77v9.876zM1.522.38h1v4.978h-1zM3.834 22.862h2.333v-2.335a2.334 2.334 0 0 0-2.333 2.335z"/>
            <path fill="#7A7F80" fill-rule="nonzero" d="M2.091 18.488h4.297v1.317H2.091z"/>
        </g>
        <path fill="#FFF" d="M49.718 79.262a1.5 1.5 0 0 1 2.11 0l4.335 4.288 10.291-10.187a1.5 1.5 0 0 1 2.11 0 1.464 1.464 0 0 1 0 2.084L56.159 87.72l-6.44-6.373a1.464 1.464 0 0 1 0-2.084z"/>
    </g>
</svg>
