<svg xmlns="http://www.w3.org/2000/svg" xmlns:xlink="http://www.w3.org/1999/xlink" width="360" height="280" viewBox="0 0 360 280">
    <defs>
        <filter id="a" width="111.5%" height="104.5%" x="-5.7%" y="-2.5%" filterUnits="objectBoundingBox">
            <feOffset dx="1" dy="2" in="SourceAlpha" result="shadowOffsetOuter1"/>
            <feColorMatrix in="shadowOffsetOuter1" result="shadowMatrixOuter1" values="0 0 0 0 0.7 0 0 0 0 0.7 0 0 0 0 0.7 0 0 0 1 0"/>
            <feMerge>
                <feMergeNode in="shadowMatrixOuter1"/>
                <feMergeNode in="SourceGraphic"/>
            </feMerge>
        </filter>
        <path id="b" d="M0 10.829h89.922v62.837H0z"/>
    </defs>
    <g fill="none" fill-rule="evenodd">
        <g filter="url(#a)" transform="translate(136 50)">
            <path stroke="#D8D9DA" stroke-width="6.12" d="M43.292 199.897v-37.385"/>
            <path stroke="#BEBDC0" stroke-width="6.12" d="M43.275 168.089l.017 26.896"/>
            <path fill="#BEBDC0" fill-rule="nonzero" d="M33.623 122.595h19.335v36.22H33.623z"/>
            <path fill="#D8D9DA" fill-rule="nonzero" d="M36.983 149.897h12.618v36.907H36.983z"/>
            <path fill="#7A7F80" fill-rule="nonzero" d="M49.045 150.453v35.795H37.54v-35.795h11.505m1.112-1.112h-13.73v38.02h13.73v-38.02z"/>
            <path fill="#D8D9DA" fill-rule="nonzero" d="M32.099 140.147h22.387v33.235H32.099z"/>
            <path fill="#7A7F80" fill-rule="nonzero" d="M53.93 140.704v32.122H32.65v-32.122h21.28m1.112-1.113H31.537v34.348h23.505V139.59z"/>
            <path fill="#FFF" fill-rule="nonzero" d="M49.242 170.837h2.13v-25.213a2.13 2.13 0 0 0-2.13-2.13v27.343zM42.154 185.894h6.465v-6.464a6.465 6.465 0 0 0-6.465 6.464z"/>
            <path fill="#FFF" fill-rule="nonzero" stroke="#7A7F80" stroke-width="1.113" d="M77.312 0H9.284A9.257 9.257 0 0 0 .026 9.255V84.47c0 10.445 2.476 20.584 9.05 28.693l18.803 23.224c.365.45.914.712 1.494.712H57.22c.58 0 1.13-.261 1.496-.712l18.804-23.224c6.573-8.117 9.046-18.248 9.046-28.693V9.255A9.257 9.257 0 0 0 77.312 0z"/>
            <path fill="#D8D9DA" fill-rule="nonzero" d="M78.727 86.587V11.65a5.107 5.107 0 0 0-5.11-5.108H13.059a5.11 5.11 0 0 0-5.11 5.108v74.97c0 5.716 1.36 11.35 3.967 16.437l3.552 6.93-5.368 4.45 17.769 21.944c.365.45.914.712 1.494.712H57.22c.58 0 1.13-.261 1.496-.712l17.767-21.944-5.322-4.423 3.572-6.935a36.064 36.064 0 0 0 3.994-16.492z"/>
            <path fill="#D8D9DA" fill-rule="nonzero" d="M11.64 13.444a2.92 2.92 0 0 1-1.886-.69l-5.369-4.54a2.92 2.92 0 1 1 3.772-4.45l5.369 4.54a2.92 2.92 0 0 1-1.886 5.15v-.01z"/>
            <rect width="61.652" height="61.652" x="12.466" y="20" fill="#7A7F80" fill-rule="nonzero" rx="3.574"/>
            <rect width="61.652" height="61.652" x="12.466" y="26.342" fill="#FFF" fill-rule="nonzero" rx="3.574"/>
            <rect width="60.54" height="60.54" x="13.022" y="23.983" fill="#C9DFC9" fill-rule="nonzero" rx="3.018"/>
            <path fill="#7A7F80" fill-rule="nonzero" d="M70.544 24.54a2.465 2.465 0 0 1 2.462 2.464v54.498a2.465 2.465 0 0 1-2.462 2.462H16.04a2.465 2.465 0 0 1-2.461-2.462V27.004a2.465 2.465 0 0 1 2.461-2.464h54.504m0-1.113H16.04a3.574 3.574 0 0 0-3.574 3.577v54.498a3.574 3.574 0 0 0 3.574 3.574h54.504a3.574 3.574 0 0 0 3.574-3.574V27.004a3.574 3.574 0 0 0-3.574-3.577z"/>
            <path stroke="#7A7F80" stroke-width="1.113" d="M77.312 0H9.284A9.257 9.257 0 0 0 .026 9.255V84.47c0 10.445 2.476 20.584 9.05 28.693l18.803 23.224c.365.45.914.712 1.494.712H57.22c.58 0 1.13-.261 1.496-.712l18.804-23.224c6.573-8.117 9.046-18.248 9.046-28.693V9.255A9.257 9.257 0 0 0 77.312 0z"/>
            <path fill="#FFF" fill-rule="nonzero" d="M72.427 81.138V45.104l-38.312 38.31H70.15a2.273 2.273 0 0 0 2.278-2.276z"/>
        </g>
        <g transform="translate(134.33 60.292)">
            <mask id="c" fill="#fff">
                <use xlink:href="#b"/>
            </mask>
            <use fill="#FFF" fill-rule="nonzero" xlink:href="#b"/>
            <path fill="#D8D9DA" fill-rule="nonzero" d="M25.936 9.964a16.328 16.328 0 0 0-.618-1.98c-.17-.396 1.561-1.67 1.391-1.962-.17-.292-1.218-1.788-1.452-2.053-.233-.264-1.991.955-2.311.66a15.9 15.9 0 0 0-1.67-1.235c-.375-.223.279-2.26-.03-2.407-.309-.147-2.042-.728-2.38-.806-.34-.078-1.058 1.947-1.484 1.891-.688-.053-1.38-.06-2.07-.022C14.883 2.09 14.2.056 13.87.125c-.33.07-2.072.61-2.395.746-.322.136.278 2.192-.094 2.403-.588.36-1.151.76-1.686 1.196-.323.278-2.061-.968-2.3-.71-.24.26-1.316 1.711-1.497 2.015-.18.303 1.516 1.61 1.338 2a15.577 15.577 0 0 0-.665 1.947c-.094.425-2.225.431-2.275.776-.05.345-.061 2.164-.028 2.503.033.34 2.172.404 2.259.835.161.673.367 1.334.614 1.98.17.395-1.56 1.67-1.39 1.948.17.278 1.22 1.788 1.452 2.052.23.265 1.991-.954 2.311-.659a15.9 15.9 0 0 0 1.67 1.235c.375.223-.279 2.259.03 2.404.309.144 2.042.731 2.38.809.34.078 1.058-1.947 1.486-1.892.688.054 1.378.061 2.067.023.431-.04 1.113 1.994 1.444 1.925.33-.07 2.075-.61 2.395-.746.32-.136-.278-2.192.094-2.403a15.72 15.72 0 0 0 1.689-1.196c.32-.278 2.058.968 2.297.709.24-.259 1.316-1.71 1.497-2.014.18-.303-1.516-1.61-1.338-2 .264-.634.486-1.284.665-1.947.094-.426 2.225-.431 2.275-.776.05-.345.061-2.164.028-2.504-.033-.339-2.173-.397-2.256-.82zm-5.46 4.45a4.935 4.935 0 1 1-1.733-6.756 4.935 4.935 0 0 1 1.733 6.765v-.009zM64.39 13.844c.16.673.366 1.335.614 1.98.17.396-1.56 1.67-1.39 1.948.169.278 1.22 1.789 1.451 2.053.231.264 1.992-.954 2.312-.66a15.9 15.9 0 0 0 1.669 1.236c.375.222-.278 2.258.03 2.403.31.145 2.042.731 2.382.81.339.077 1.057-1.948 1.485-1.892.688.053 1.378.06 2.067.022.43-.039 1.112 1.995 1.443 1.925.331-.07 2.076-.61 2.395-.745.32-.137-.278-2.192.095-2.404.589-.36 1.153-.76 1.688-1.196.323-.278 2.059.968 2.298.71.24-.26 1.316-1.711 1.497-2.015.18-.303-1.516-1.61-1.336-2 .263-.634.484-1.284.662-1.947.098-.425 2.226-.43 2.276-.776.05-.345.061-2.164.028-2.503-.034-.34-2.173-.404-2.256-.835a15.855 15.855 0 0 0-.618-1.98c-.17-.395 1.56-1.67 1.391-1.961-.17-.292-1.218-1.789-1.452-2.053-.234-.264-1.992.954-2.312.66a15.855 15.855 0 0 0-1.669-1.236c-.378-.222.279-2.259-.033-2.406-.311-.148-2.042-.729-2.378-.807-.337-.078-1.06 1.947-1.486 1.892-.688-.054-1.38-.061-2.07-.022-.43.038-1.112-1.995-1.443-1.925-.33.07-2.072.609-2.395.745-.322.136.278 2.192-.094 2.403-.588.361-1.152.76-1.686 1.197-.323.278-2.061-.968-2.298-.71-.236.259-1.318 1.71-1.499 2.014-.18.303 1.516 1.61 1.338 2a15.577 15.577 0 0 0-.665 1.947c-.094.426-2.225.431-2.275.776-.05.345-.061 2.164-.028 2.504.033.34 2.175.425 2.261.848zm5.457-4.45a4.935 4.935 0 1 1-.541 3.736 4.937 4.937 0 0 1 .541-3.745v.009zM83.797 70.654a15.666 15.666 0 0 0-.618-1.978c-.17-.398 1.56-1.669 1.391-1.964-.17-.295-1.218-1.788-1.452-2.05-.233-.261-1.991.951-2.311.656a15.855 15.855 0 0 0-1.67-1.235c-.378-.222.279-2.258-.033-2.403-.311-.145-2.041-.731-2.378-.81-.337-.077-1.06 1.948-1.485 1.892-.689-.053-1.38-.06-2.07-.022-.431.039-1.113-1.995-1.444-1.925-.33.07-2.072.61-2.395.746-.322.136.279 2.191-.094 2.403a15.8 15.8 0 0 0-1.686 1.196c-.323.278-2.061-.968-2.297-.71-.237.26-1.319 1.711-1.5 2.015-.18.303 1.516 1.61 1.338 2a15.458 15.458 0 0 0-.665 1.947c-.094.422-2.225.428-2.275.773-.05.345-.061 2.167-.028 2.503.034.337 2.173.404 2.259.835.161.673.367 1.334.615 1.98.17.395-1.56 1.656-1.391 1.962.17.306 1.22 1.788 1.452 2.052.23.265 1.991-.954 2.311-.659a15.9 15.9 0 0 0 1.67 1.235c.375.223-.279 2.259.03 2.406.309.148 2.042.73 2.381.807.34.078 1.057-1.947 1.485-1.892.688.054 1.379.061 2.067.023.431-.04 1.113 1.994 1.444 1.925.33-.07 2.075-.607 2.395-.746.32-.139-.278-2.192.094-2.403.589-.36 1.153-.76 1.689-1.194.323-.278 2.058.966 2.298.707.239-.259 1.315-1.71 1.496-2.014.18-.303-1.516-1.61-1.335-2 .262-.634.483-1.284.662-1.947.097-.426 2.225-.431 2.275-.776.05-.345.061-2.164.028-2.504-.033-.339-2.17-.414-2.253-.831zm-5.46 4.45a4.935 4.935 0 1 1-8.485-5.041 4.935 4.935 0 0 1 8.485 5.041zM25.936 70.654a16.134 16.134 0 0 0-.618-1.978c-.17-.398 1.561-1.669 1.391-1.964-.17-.295-1.218-1.788-1.452-2.05-.233-.261-1.991.951-2.311.656a15.9 15.9 0 0 0-1.67-1.235c-.375-.222.279-2.258-.03-2.403-.309-.145-2.042-.731-2.38-.81-.34-.077-1.058 1.948-1.484 1.892-.688-.053-1.38-.06-2.07-.022-.43.039-1.112-1.995-1.443-1.925-.33.07-2.072.61-2.395.746-.322.136.278 2.191-.094 2.403a15.8 15.8 0 0 0-1.686 1.196c-.323.278-2.061-.968-2.3-.71-.24.26-1.316 1.711-1.497 2.015-.18.303 1.516 1.61 1.338 2a15.458 15.458 0 0 0-.665 1.947c-.094.422-2.225.428-2.275.773-.05.345-.061 2.167-.028 2.503.033.337 2.172.404 2.259.835.161.673.367 1.334.614 1.98.17.395-1.56 1.656-1.39 1.962.17.306 1.22 1.788 1.452 2.052.23.265 1.991-.954 2.311-.659a15.9 15.9 0 0 0 1.67 1.235c.375.223-.279 2.259.03 2.406.309.148 2.042.73 2.38.807.34.078 1.058-1.947 1.486-1.892.688.054 1.378.061 2.067.023.431-.04 1.113 1.994 1.444 1.925.33-.07 2.075-.607 2.395-.746.32-.139-.278-2.192.094-2.403.588-.361 1.152-.76 1.689-1.194.32-.278 2.058.966 2.297.707.24-.259 1.316-1.71 1.497-2.014.18-.303-1.516-1.61-1.338-2 .264-.634.486-1.284.665-1.947.094-.426 2.225-.431 2.275-.776.05-.345.061-2.164.028-2.504-.033-.339-2.173-.414-2.256-.831zm-5.46 4.45a4.935 4.935 0 1 1-8.485-5.041 4.935 4.935 0 0 1 8.485 5.041z" mask="url(#c)"/>
        </g>
        <path stroke="#FFF" stroke-width="1.113" d="M136.015 71.702h86.551v61.672h-86.551z"/>
        <path fill="#C6E2BA" fill-rule="nonzero" d="M111.881 112.6a38.15 38.15 0 0 0 1.608-4.749c.234-1.03 5.424-1.046 5.521-1.883.098-.837.148-5.252.07-6.095-.078-.842-5.285-.979-5.48-2.002a38.665 38.665 0 0 0-1.494-4.801c-.414-.96 3.786-4.02 3.369-4.76-.417-.74-2.96-4.34-3.522-4.979-.561-.64-4.831 2.314-5.61 1.6a38.083 38.083 0 0 0-4.034-3c-.912-.556.688-5.482-.075-5.84-.762-.36-4.954-1.775-5.774-1.948-.82-.172-2.568 4.707-3.616 4.587a38.256 38.256 0 0 0-5.007-.055c-1.046.097-2.67-4.838-3.503-4.67-.831.166-5.029 1.47-5.81 1.807-.782.337.684 5.319-.231 5.842a37.63 37.63 0 0 0-4.092 2.895c-.782.687-5.007-2.347-5.563-1.719-.557.629-3.205 4.137-3.644 4.88-.44.742 3.677 3.907 3.238 4.85a38.467 38.467 0 0 0-1.611 4.749c-.225 1.026-5.416 1.043-5.513 1.88-.098.837-.148 5.252-.07 6.095.078.843 5.285.979 5.477 2.005.396 1.63.896 3.233 1.497 4.799.411.962-3.786 4.02-3.369 4.759.417.74 2.96 4.34 3.522 4.98.562.639 4.832-2.312 5.61-1.598a38.47 38.47 0 0 0 4.034 3c.91.539-.687 5.479.075 5.84.762.362 4.954 1.772 5.775 1.948.82.175 2.567-4.71 3.616-4.587 1.666.126 3.338.145 5.007.055 1.046-.1 2.67 4.835 3.502 4.668.831-.167 5.032-1.474 5.81-1.81.78-.337-.684-5.32.231-5.842a38.017 38.017 0 0 0 4.09-2.877c.781-.69 5.006 2.345 5.577 1.72.57-.626 3.193-4.15 3.632-4.888.44-.737-3.68-3.916-3.243-4.857zm-27.933.278c-5.687-3.376-7.561-10.722-4.187-16.409 3.375-5.687 10.72-7.562 16.409-4.188 5.687 3.374 7.563 10.72 4.19 16.407a11.961 11.961 0 0 1-16.412 4.19z" />
        <path stroke="#7A7F80" d="M201.881 112.6a38.15 38.15 0 0 0 1.608-4.749c.234-1.03 5.424-1.046 5.521-1.883.098-.837.148-5.252.07-6.095-.078-.842-5.285-.979-5.48-2.002a38.665 38.665 0 0 0-1.494-4.801c-.414-.96 3.786-4.02 3.369-4.76-.417-.74-2.96-4.34-3.522-4.979-.561-.64-4.831 2.314-5.61 1.6a38.083 38.083 0 0 0-4.034-3c-.912-.556.688-5.482-.075-5.84-.762-.36-4.954-1.775-5.774-1.948-.82-.172-2.568 4.707-3.616 4.587a38.256 38.256 0 0 0-5.007-.055c-1.046.097-2.67-4.838-3.503-4.67-.831.166-5.029 1.47-5.81 1.807-.782.337.684 5.319-.231 5.842a37.63 37.63 0 0 0-4.092 2.895c-.782.687-5.007-2.347-5.563-1.719-.557.629-3.205 4.137-3.644 4.88-.44.742 3.677 3.907 3.238 4.85a38.467 38.467 0 0 0-1.611 4.749c-.225 1.026-5.416 1.043-5.513 1.88-.098.837-.148 5.252-.07 6.095.078.843 5.285.979 5.477 2.005.396 1.63.896 3.233 1.497 4.799.411.962-3.786 4.02-3.369 4.759.417.74 2.96 4.34 3.522 4.98.562.639 4.832-2.312 5.61-1.598a38.47 38.47 0 0 0 4.034 3c.91.539-.687 5.479.075 5.84.762.362 4.954 1.772 5.775 1.948.82.175 2.567-4.71 3.616-4.587 1.666.126 3.338.145 5.007.055 1.046-.1 2.67 4.835 3.502 4.668.831-.167 5.032-1.474 5.81-1.81.78-.337-.684-5.32.231-5.842a38.017 38.017 0 0 0 4.09-2.877c.781-.69 5.006 2.345 5.577 1.72.57-.626 3.193-4.15 3.632-4.888.44-.737-3.68-3.916-3.243-4.857z"/>
        <path stroke="#FEC746" stroke-width="1.669" d="M170.91 102.07c-15.19-2.903-35.993-3.384-48.38-1.635M163.483 108.894l7.427-6.823-6.821-7.427"/>
    </g>
</svg>
