<svg xmlns="http://www.w3.org/2000/svg" xmlns:xlink="http://www.w3.org/1999/xlink" width="360" height="280" viewBox="0 0 360 280">
    <defs>
        <filter id="a" width="112.3%" height="106.3%" x="-6.2%" y="-3.2%" filterUnits="objectBoundingBox">
            <feOffset dx="1" dy="2" in="SourceAlpha" result="shadowOffsetOuter1"/>
            <feColorMatrix in="shadowOffsetOuter1" result="shadowMatrixOuter1" values="0 0 0 0 0.7 0 0 0 0 0.7 0 0 0 0 0.7 0 0 0 1 0"/>
            <feMerge>
                <feMergeNode in="shadowMatrixOuter1"/>
                <feMergeNode in="SourceGraphic"/>
            </feMerge>
        </filter>
        <path id="b" d="M.063.886h70v25h-70z"/>
    </defs>
    <g fill="none" fill-rule="evenodd">
        <path fill="#D8D9DA" fill-rule="nonzero" d="M184.334 202.512v37.385h-6.12v-37.385z"/>
        <path fill="#BEBDC0" fill-rule="nonzero" d="M171.608 162.595h19.335v36.22h-19.335zM184.32 208.087l.017 26.896-6.12.004-.017-26.896z"/>
        <path fill="#D8D9DA" fill-rule="nonzero" d="M174.965 189.897h12.618v36.907h-12.618z"/>
        <path fill="#7A7F80" fill-rule="nonzero" d="M187.026 190.453v35.795h-11.504v-35.795h11.504m1.113-1.112h-13.73v38.02h13.73v-38.02z"/>
        <path fill="#D8D9DA" fill-rule="nonzero" d="M170.081 180.147h22.387v33.235h-22.387z"/>
        <path fill="#7A7F80" fill-rule="nonzero" d="M191.914 180.704v32.122h-21.277v-32.122h21.277m1.112-1.113h-23.502v34.348h23.502V179.59z"/>
        <path fill="#FFF" fill-rule="nonzero" d="M187.235 210.837h2.13v-25.213a2.13 2.13 0 0 0-2.13-2.13v27.343zM180.14 225.894h6.46v-6.464a6.465 6.465 0 0 0-6.46 6.464z"/>
        <g filter="url(#a)" transform="translate(148 52)">
            <path fill="#D8D9DA" fill-rule="nonzero" d="M20.874 124.852a7.996 7.996 0 0 1-7.355-4.847l-8.452-19.673A54.87 54.87 0 0 1 .585 78.55V15.442A13.156 13.156 0 0 1 11.303 2.53a113.789 113.789 0 0 1 41.889 0A13.156 13.156 0 0 1 63.91 15.442v63.15a54.894 54.894 0 0 1-4.491 21.807l-8.44 19.617a7.999 7.999 0 0 1-7.356 4.845l-22.749-.01z"/>
            <path fill="#7A7F80" fill-rule="nonzero" d="M32.247 1.17c6.99 0 13.966.648 20.837 1.935a12.551 12.551 0 0 1 10.232 12.337v63.15c0 7.42-1.512 14.76-4.444 21.576l-8.44 19.617a7.422 7.422 0 0 1-6.818 4.49h-22.74a7.425 7.425 0 0 1-6.82-4.493l-8.452-19.681a54.609 54.609 0 0 1-4.433-21.55V15.442A12.551 12.551 0 0 1 11.402 3.105a113.215 113.215 0 0 1 20.845-1.936m0-1.169c-7.062.002-14.108.656-21.05 1.956A13.741 13.741 0 0 0 0 15.442v63.109a55.435 55.435 0 0 0 4.529 22.02l8.452 19.664a8.588 8.588 0 0 0 7.893 5.202h22.749a8.58 8.58 0 0 0 7.894-5.199l8.44-19.617a55.42 55.42 0 0 0 4.54-22.038v-63.15A13.74 13.74 0 0 0 53.3 1.957 114.555 114.555 0 0 0 32.247 0z"/>
            <rect width="51.452" height="28.771" x="6.523" y="30.882" fill="#BEBDC0" fill-rule="nonzero" rx="3.041"/>
            <rect width="21.629" height="11.411" x="6.084" y="65.246" fill="#D8D9DA" fill-rule="nonzero" rx="2.389"/>
            <path fill="#7A7F80" fill-rule="nonzero" d="M25.324 65.684a1.95 1.95 0 0 1 1.95 1.95v6.625a1.95 1.95 0 0 1-1.95 1.95H8.478a1.95 1.95 0 0 1-1.955-1.95v-6.625a1.947 1.947 0 0 1 1.955-1.95h16.846m0-.877H8.478a2.83 2.83 0 0 0-2.827 2.827v6.625a2.83 2.83 0 0 0 2.827 2.836h16.846a2.83 2.83 0 0 0 2.827-2.836v-6.625a2.83 2.83 0 0 0-2.827-2.827z"/>
            <rect width="21.629" height="11.411" x="36.782" y="65.246" fill="#D8D9DA" fill-rule="nonzero" rx="2.389"/>
            <path fill="#7A7F80" fill-rule="nonzero" d="M56.022 65.684a1.947 1.947 0 0 1 1.95 1.95v6.625a1.95 1.95 0 0 1-1.95 1.95H39.176a1.95 1.95 0 0 1-1.95-1.95v-6.625a1.95 1.95 0 0 1 1.95-1.95h16.852m0-.877H39.176a2.83 2.83 0 0 0-2.827 2.827v6.625a2.83 2.83 0 0 0 2.827 2.836h16.852a2.83 2.83 0 0 0 2.827-2.827v-6.634a2.83 2.83 0 0 0-2.827-2.827z"/>
            <rect width="51.452" height="28.771" x="6.523" y="30.882" stroke="#000" stroke-width="1.169" rx="3.041"/>
            <path fill="#FFF" fill-rule="nonzero" d="M4.26 10.96l4.763-4.762 2.2 2.2-4.764 4.763z"/>
            <path stroke="#FFF" stroke-width="1.169" d="M9.56 59.653h45.374"/>
            <path stroke="#FFF" stroke-width=".877" d="M8.473 65.684h16.851M39.17 65.684h16.852"/>
            <path fill="#FFF" fill-rule="nonzero" d="M32.247 2.631c6.9.002 13.785.641 20.568 1.91a11.11 11.11 0 0 1 9.048 10.901v63.15a52.807 52.807 0 0 1-4.327 20.997L49.1 119.21a5.96 5.96 0 0 1-5.476 3.605H20.874a5.957 5.957 0 0 1-5.475-3.608L6.946 99.525A52.856 52.856 0 0 1 2.631 78.55V15.442A11.11 11.11 0 0 1 11.694 4.54a112.108 112.108 0 0 1 20.553-1.909m0-1.462c-6.993 0-13.971.648-20.845 1.936A12.551 12.551 0 0 0 1.169 15.442v63.109c0 7.41 1.509 14.742 4.433 21.55l8.452 19.673a7.425 7.425 0 0 0 6.82 4.493h22.749a7.422 7.422 0 0 0 6.818-4.49l8.44-19.618a54.593 54.593 0 0 0 4.444-21.576v-63.15A12.551 12.551 0 0 0 53.092 3.097 113.208 113.208 0 0 0 32.247 1.17z"/>
            <path fill="#D8D9DA" fill-rule="nonzero" d="M16.43 122.79a7.406 7.406 0 0 0 4.444 1.483h22.749a7.423 7.423 0 0 0 6.818-4.49l8.44-19.618a54.593 54.593 0 0 0 4.444-21.576L16.43 122.791z"/>
            <path fill="#FFF" fill-rule="nonzero" d="M11.402 7.359a113.087 113.087 0 0 1 41.673 0c4.476.839 8.77 4.031 8.77 8.083h1.462A12.551 12.551 0 0 0 53.075 3.105a113.087 113.087 0 0 0-41.673 0A12.551 12.551 0 0 0 1.169 15.442h1.462c0-4.09 4.3-7.256 8.771-8.083z"/>
            <path fill="#D8D9DA" fill-rule="nonzero" d="M20.874 124.852a7.996 7.996 0 0 1-7.355-4.847l-8.452-19.673A54.87 54.87 0 0 1 .585 78.55V15.442A13.156 13.156 0 0 1 11.303 2.53a113.789 113.789 0 0 1 41.889 0A13.156 13.156 0 0 1 63.91 15.442v63.15a54.894 54.894 0 0 1-4.491 21.807l-8.44 19.617a7.999 7.999 0 0 1-7.356 4.845l-22.749-.01z"/>
            <path fill="#7A7F80" fill-rule="nonzero" d="M32.247 1.17c6.99 0 13.966.648 20.837 1.935a12.551 12.551 0 0 1 10.232 12.337v63.15c0 7.42-1.512 14.76-4.444 21.576l-8.44 19.617a7.422 7.422 0 0 1-6.818 4.49h-22.74a7.425 7.425 0 0 1-6.82-4.493l-8.452-19.681a54.609 54.609 0 0 1-4.433-21.55V15.442A12.551 12.551 0 0 1 11.402 3.105a113.215 113.215 0 0 1 20.845-1.936m0-1.169c-7.062.002-14.108.656-21.05 1.956A13.741 13.741 0 0 0 0 15.442v63.109a55.435 55.435 0 0 0 4.529 22.02l8.452 19.664a8.588 8.588 0 0 0 7.893 5.202h22.749a8.58 8.58 0 0 0 7.894-5.199l8.44-19.617a55.42 55.42 0 0 0 4.54-22.038v-63.15A13.74 13.74 0 0 0 53.3 1.957 114.555 114.555 0 0 0 32.247 0z"/>
            <path fill="#FFF" fill-rule="nonzero" d="M54.791 61.436H9.701a3.178 3.178 0 0 1-3.178-3.18v-1.644h51.455v1.643a3.18 3.18 0 0 1-3.187 3.181z"/>
            <rect width="50.283" height="27.602" x="7.107" y="31.467" fill="#FFF" fill-rule="nonzero" rx="2.456"/>
            <path fill="#7A7F80" fill-rule="nonzero" d="M54.934 32.051a1.871 1.871 0 0 1 1.868 1.871v22.69c0 1.033-.836 1.87-1.868 1.871H9.56a1.871 1.871 0 0 1-1.868-1.87v-22.7c0-1.032.836-1.869 1.868-1.87h45.374m0-1.17H9.56a3.038 3.038 0 0 0-3.037 3.04v22.69a3.04 3.04 0 0 0 3.037 3.038h45.374a3.04 3.04 0 0 0 3.038-3.04V33.914a3.038 3.038 0 0 0-3.038-3.04z"/>
            <path fill="#FFF" fill-rule="nonzero" d="M6.523 65.684h20.752v1.772H6.523zM37.22 65.684h20.752v1.772H37.22z"/>
            <path fill="#7A7F80" fill-rule="nonzero" d="M25.324 65.684a1.95 1.95 0 0 1 1.95 1.95v6.625a1.95 1.95 0 0 1-1.95 1.95H8.478a1.95 1.95 0 0 1-1.955-1.95v-6.625a1.947 1.947 0 0 1 1.955-1.95h16.846m0-.877H8.478a2.83 2.83 0 0 0-2.827 2.827v6.625a2.83 2.83 0 0 0 2.827 2.836h16.846a2.83 2.83 0 0 0 2.827-2.836v-6.625a2.83 2.83 0 0 0-2.827-2.827zM56.022 65.684a1.947 1.947 0 0 1 1.95 1.95v6.625a1.95 1.95 0 0 1-1.95 1.95H39.176a1.95 1.95 0 0 1-1.95-1.95v-6.625a1.95 1.95 0 0 1 1.95-1.95h16.852m0-.877H39.176a2.83 2.83 0 0 0-2.827 2.827v6.625a2.83 2.83 0 0 0 2.827 2.836h16.852a2.83 2.83 0 0 0 2.827-2.827v-6.634a2.83 2.83 0 0 0-2.827-2.827z"/>
            <path fill="#FFF" fill-rule="nonzero" d="M3.978 10.68l4.763-4.764 2.762 2.762-4.763 4.763z"/>
            <path fill="#FFF" fill-rule="nonzero" d="M32.247 2.631c6.9.002 13.785.641 20.568 1.91a11.11 11.11 0 0 1 9.048 10.901v63.15a52.807 52.807 0 0 1-4.327 20.997L49.1 119.21a5.96 5.96 0 0 1-5.476 3.605H20.874a5.957 5.957 0 0 1-5.475-3.608L6.946 99.525A52.856 52.856 0 0 1 2.631 78.55V15.442A11.11 11.11 0 0 1 11.694 4.54a112.108 112.108 0 0 1 20.553-1.909m0-1.462c-6.993 0-13.971.648-20.845 1.936A12.551 12.551 0 0 0 1.169 15.442v63.109c0 7.41 1.509 14.742 4.433 21.55l8.452 19.673a7.425 7.425 0 0 0 6.82 4.493h22.749a7.422 7.422 0 0 0 6.818-4.49l8.44-19.618a54.593 54.593 0 0 0 4.444-21.576v-63.15A12.551 12.551 0 0 0 53.092 3.097 113.208 113.208 0 0 0 32.247 1.17z"/>
            <path fill="#D8D9DA" fill-rule="nonzero" d="M16.43 122.79a7.406 7.406 0 0 0 4.444 1.483h22.749a7.423 7.423 0 0 0 6.818-4.49l8.44-19.618a54.593 54.593 0 0 0 4.444-21.576L16.43 122.791z"/>
            <path fill="#FFF" fill-rule="nonzero" d="M11.402 7.359a113.087 113.087 0 0 1 41.673 0c4.476.839 8.77 4.031 8.77 8.083h1.462A12.551 12.551 0 0 0 53.075 3.105a113.087 113.087 0 0 0-41.673 0A12.551 12.551 0 0 0 1.169 15.442h1.462c0-4.09 4.3-7.256 8.771-8.083z"/>
        </g>
        <g transform="translate(147 84)">
            <mask id="c" fill="#fff">
                <use xlink:href="#b"/>
            </mask>
            <use fill="#FFF" fill-rule="nonzero" xlink:href="#b"/>
            <path fill="#D8D9DA" fill-rule="nonzero" d="M20.31.583a7.286 7.286 0 0 0-.285-.91c-.078-.182.717-.768.64-.903a14.689 14.689 0 0 0-.669-.944c-.106-.122-.916.439-1.063.303a7.314 7.314 0 0 0-.768-.568c-.172-.102.128-1.039-.014-1.107-.142-.068-.939-.335-1.095-.37-.156-.037-.486.895-.683.87a7.144 7.144 0 0 0-.95-.011c-.2.018-.513-.917-.665-.885-.152.032-.955.28-1.102.343-.147.062.128 1.008-.043 1.105-.271.166-.53.35-.777.55-.148.128-.947-.445-1.057-.326-.11.119-.605.787-.688.926-.083.14.701.741.617.927-.121.291-.223.59-.305.895-.044.196-1.024.199-1.047.357-.023.16-.028.996-.012 1.152.015.156.999.186 1.037.384.075.31.17.614.284.91.078.183-.718.769-.64.897.079.128.561.822.668.944.108.122.917-.439 1.064-.303.243.206.5.396.767.568.173.102-.127 1.039.015 1.105.142.067.939.337 1.094.373.154.036.487-.896.683-.87.317.024.635.028.952.01.198-.018.512.917.664.885.152-.032.953-.28 1.102-.343.148-.062-.128-1.008.043-1.105.27-.166.53-.35.776-.55.148-.128.948.445 1.058.326.11-.12.605-.787.688-.926.083-.14-.702-.743-.615-.917.121-.291.223-.59.305-.895.044-.196 1.024-.199 1.047-.357.023-.159.028-.996.013-1.152-.015-.156-1-.193-1.039-.388zM17.8 2.631a2.27 2.27 0 1 1-.795-3.108 2.271 2.271 0 0 1 .794 3.111v-.003zM59.574 22.268a10.1 10.1 0 0 0-.385-1.26c-.106-.253.977-1.063.871-1.25a19.366 19.366 0 0 0-.909-1.307c-.144-.166-1.247.606-1.447.419a9.966 9.966 0 0 0-1.045-.787c-.235-.142.175-1.439-.019-1.53a17.86 17.86 0 0 0-1.49-.516c-.213-.05-.662 1.24-.93 1.204a9.554 9.554 0 0 0-1.294-.014c-.27.025-.696-1.27-.903-1.226a19.34 19.34 0 0 0-1.5.475c-.2.087.175 1.396-.059 1.53-.368.231-.72.486-1.057.763-.2.177-1.288-.617-1.438-.452-.15.165-.824 1.09-.937 1.283-.113.193.95 1.025.838 1.273a9.964 9.964 0 0 0-.416 1.24c-.06.27-1.393.273-1.425.493-.031.22-.038 1.38-.017 1.595.02.214 1.36.257 1.412.531.103.429.232.85.387 1.262.106.251-.977 1.054-.871 1.249a17.6 17.6 0 0 0 .909 1.307c.146.169 1.247-.607 1.447-.42.33.286.68.548 1.045.787.235.142-.175 1.439.019 1.533.193.094 1.278.464 1.49.513.213.05.662-1.24.928-1.204.431.034.864.038 1.296.014.27-.025.696 1.27.903 1.226a18.827 18.827 0 0 0 1.5-.475c.202-.089-.175-1.396.059-1.53.367-.23.72-.484 1.055-.76.202-.178 1.29.614 1.44.45.15-.166.824-1.09.937-1.284.113-.193-.95-1.025-.838-1.273.166-.404.305-.818.416-1.24.06-.272 1.393-.275 1.425-.495.031-.22.038-1.378.017-1.594-.02-.217-1.36-.264-1.414-.53zm-3.416 2.835a3.06 3.06 0 0 1-4.232 1.098c-1.467-.886-1.95-2.814-1.08-4.306a3.06 3.06 0 0 1 4.23-1.101 3.138 3.138 0 0 1 1.419 1.926 3.19 3.19 0 0 1-.337 2.383z" mask="url(#c)"/>
        </g>
        <path fill="#FFF" fill-rule="nonzero" d="M217.319 84.362h-70.512v25.512h70.512V84.362zm-.513.511v24.488h-69.488V84.873h69.488z"/>
        <path fill="#7A7F80" fill-rule="nonzero" d="M173.502 104.166l.381.319c.261.211.526.411.796.602l.293.2v.062l-.008.163-.021.21-.096.72a4.699 4.699 0 0 0-.03.302l-.004.067c-.02.423.03.676.36.836l.193.081c.54.214 1.8.64 2.105.707.372.08.563-.097.812-.467l.091-.14.11-.187.287-.513.067-.116c.086-.145.154-.249.213-.326l.338.022c.332.015.661.019.989.012l.343-.014c.04.051.086.122.14.214l.226.413.218.41c.062.114.1.176.154.262.241.377.431.56.808.483.351-.071 1.975-.586 2.3-.729.306-.134.383-.353.39-.704v-.122a3.864 3.864 0 0 0-.016-.284l-.086-.811a3.612 3.612 0 0 1-.02-.374l.002-.064.29-.185c.276-.184.544-.376.805-.576l.27-.215.045.014c.067.023.142.053.235.095l.396.189.393.191c.118.056.194.088.288.124.407.156.671.19.926-.096.24-.268 1.253-1.652 1.435-1.962.17-.29.102-.516-.103-.812l-.074-.102a3.935 3.935 0 0 0-.199-.245l-.519-.583a4.1 4.1 0 0 1-.18-.22l-.043-.06c-.024-.036-.023-.032-.087.108l.185-.476c.118-.316.223-.633.318-.952l.096-.344.056-.02.155-.042c.059-.014.125-.029.203-.044l.726-.136c.158-.031.271-.058.38-.091.363-.111.582-.247.622-.599.04-.355.06-2.089.027-2.447-.031-.351-.246-.493-.603-.612l-.17-.05a4.332 4.332 0 0 0-.097-.025l-.713-.152a4.348 4.348 0 0 1-.484-.122l-.055-.02.042.163a15.56 15.56 0 0 0-.59-1.933l.048.105c.006.008.01.007.016.001l.01-.013c.041-.056.092-.118.157-.193l.302-.326.31-.328c.07-.076.116-.13.164-.189l.037-.046c.272-.341.383-.58.201-.908l-.11-.18c-.314-.494-1.08-1.587-1.282-1.821-.224-.26-.462-.264-.804-.155l-.118.04c-.095.034-.171.065-.29.118l-.451.209a8.056 8.056 0 0 1-.433.191l-.148.053c-.04.013-.032.013.083.12a14.949 14.949 0 0 0-1.593-1.206l.081.048c.026.012.032.007.034-.01v-.023c.002-.122.016-.271.045-.5l.081-.594c.02-.158.029-.255.034-.367.02-.423-.03-.676-.362-.835-.326-.156-1.95-.714-2.298-.788-.334-.071-.522.065-.737.362l-.073.105a3.686 3.686 0 0 0-.14.222l-.348.618-.067.116a2.968 2.968 0 0 1-.214.324l-.337-.02a14.703 14.703 0 0 0-.99-.012l-.342.013a2.676 2.676 0 0 1-.197-.313l-.387-.724a3.827 3.827 0 0 0-.154-.262c-.241-.377-.431-.56-.808-.483-.35.071-1.973.584-2.3.728-.306.133-.383.353-.39.704v.123c.002.09.006.173.016.283l.085.811c.015.161.021.276.02.374l-.002.064-.29.187c-.277.185-.545.379-.807.58l-.27.215-.042-.013a3.373 3.373 0 0 1-.333-.14l-.757-.366a3.594 3.594 0 0 0-.166-.072l-.054-.021c-.41-.158-.675-.19-.929.102l-.137.167c-.368.467-1.148 1.531-1.297 1.787-.17.29-.101.517.103.812l.145.194c.049.061.102.124.184.216l.286.319c.169.188.278.315.355.419l.043.06c.024.035.023.03.087-.11l-.185.476a15.42 15.42 0 0 0-.319.953l-.097.344-.054.019a4.283 4.283 0 0 1-.484.111l-.323.059a5.71 5.71 0 0 0-.653.143c-.365.11-.584.246-.624.599-.04.355-.06 2.089-.027 2.447.031.35.246.493.602.611.106.036.22.066.375.101l.606.127c.227.048.369.083.483.122l.054.019-.041-.162c.16.673.355 1.31.59 1.933l-.047-.105c-.006-.008-.01-.008-.017-.001l-.106.135a6.1 6.1 0 0 1-.214.24l-.548.586c-.04.045-.073.086-.111.134-.272.341-.383.58-.201.908l.11.18c.314.494 1.08 1.587 1.282 1.821.224.26.462.264.804.155l.227-.08c.071-.029.146-.062.256-.112l.621-.286c.071-.032.133-.058.188-.08l.148-.052c.02-.007.028-.01.017-.025l-.093-.089zm3.633-17.445l.573-.172.12.207.312.587.16.289c.278.477.47.67.81.67l.096-.005c.442-.024.896-.026 1.353-.006l.456.028c.42.05.624-.166.994-.797l.464-.816.064-.101.106.033c.333.105.832.274 1.217.413l.325.119-.01.136-.121.925c-.087.717-.056.98.245 1.197l.075.05c.378.248.75.52 1.108.81l.355.297c.334.313.59.258 1.416-.122l.681-.313.118-.048.346.481c.217.309.456.656.616.899l.052.079-.081.098a11.21 11.21 0 0 1-.273.293l-.145.152c-.704.744-.874.978-.681 1.431.212.564.395 1.161.539 1.768.078.421.28.536 1.073.71l.662.137.278.064.058.016.003.123c.004.345 0 .853-.01 1.263l-.013.405-.235.053-.763.142c-.786.154-1 .27-1.097.704-.153.584-.35 1.174-.584 1.749-.172.375-.072.597.423 1.168l.578.649.138.17-.054.08c-.207.298-.54.756-.799 1.1l-.195.255-.12-.05-.832-.402c-.7-.33-.939-.36-1.268-.065-.343.28-.71.552-1.091.806l-.386.248c-.344.2-.407.418-.351 1.096l.106 1.035.009.163-.11.04c-.333.113-.834.274-1.226.392l-.328.096-.12-.206-.31-.587-.162-.289c-.277-.477-.47-.67-.81-.669l-.096.005c-.441.024-.896.026-1.352.006l-.457-.028c-.418-.05-.623.165-.993.797l-.464.816-.064.1-.077-.023a35.95 35.95 0 0 1-1.271-.43l-.302-.112.019-.205.112-.84c.098-.796.056-1.037-.323-1.265-.498-.328-.99-.7-1.458-1.104-.29-.27-.52-.266-1.114-.013l-.922.421-.18.073-.345-.48a38.955 38.955 0 0 1-.616-.899l-.053-.081.163-.185.337-.357c.656-.692.847-.943.715-1.341l-.033-.088a14.733 14.733 0 0 1-.54-1.769c-.078-.42-.281-.536-1.073-.71l-.664-.137a6.14 6.14 0 0 1-.277-.064l-.058-.017-.002-.122c-.004-.345 0-.853.01-1.263l.012-.406.144-.033.855-.16c.788-.155 1-.27 1.095-.708.153-.58.35-1.17.584-1.745.172-.375.072-.598-.423-1.168l-.576-.647-.139-.171.051-.072c.204-.292.538-.747.8-1.095l.202-.264.116.05.832.403c.648.305.9.353 1.197.123l.07-.058c.344-.284.71-.557 1.093-.813l.386-.25c.368-.213.414-.448.336-1.247l-.093-.882-.009-.165.111-.038c.266-.091.64-.212.98-.317z"/>
        <path fill="#C6E2BA" fill-rule="nonzero" d="M111.881 112.6a38.15 38.15 0 0 0 1.608-4.749c.234-1.03 5.424-1.046 5.521-1.883.098-.837.148-5.252.07-6.095-.078-.842-5.285-.979-5.48-2.002a38.665 38.665 0 0 0-1.494-4.801c-.414-.96 3.786-4.02 3.369-4.76-.417-.74-2.96-4.34-3.522-4.979-.561-.64-4.831 2.314-5.61 1.6a38.083 38.083 0 0 0-4.034-3c-.912-.556.688-5.482-.075-5.84-.762-.36-4.954-1.775-5.774-1.948-.82-.172-2.568 4.707-3.616 4.587a38.256 38.256 0 0 0-5.007-.055c-1.046.097-2.67-4.838-3.503-4.67-.831.166-5.029 1.47-5.81 1.807-.782.337.684 5.319-.231 5.842a37.63 37.63 0 0 0-4.092 2.895c-.782.687-5.007-2.347-5.563-1.719-.557.629-3.205 4.137-3.644 4.88-.44.742 3.677 3.907 3.238 4.85a38.467 38.467 0 0 0-1.611 4.749c-.225 1.026-5.416 1.043-5.513 1.88-.098.837-.148 5.252-.07 6.095.078.843 5.285.979 5.477 2.005.396 1.63.896 3.233 1.497 4.799.411.962-3.786 4.02-3.369 4.759.417.74 2.96 4.34 3.522 4.98.562.639 4.832-2.312 5.61-1.598a38.47 38.47 0 0 0 4.034 3c.91.539-.687 5.479.075 5.84.762.362 4.954 1.772 5.775 1.948.82.175 2.567-4.71 3.616-4.587 1.666.126 3.338.145 5.007.055 1.046-.1 2.67 4.835 3.502 4.668.831-.167 5.032-1.474 5.81-1.81.78-.337-.684-5.32.231-5.842a38.017 38.017 0 0 0 4.09-2.877c.781-.69 5.006 2.345 5.577 1.72.57-.626 3.193-4.15 3.632-4.888.44-.737-3.68-3.916-3.243-4.857zm-27.933.278c-5.687-3.376-7.561-10.722-4.187-16.409 3.375-5.687 10.72-7.562 16.409-4.188 5.687 3.374 7.563 10.72 4.19 16.407a11.961 11.961 0 0 1-16.412 4.19z"/>
        <path fill="#FEC746" fill-rule="nonzero" d="M127.907 97.674c9.72-1.373 18.252-1.047 30.072 1.154l.85.16-.25 1.312-1.67-.311c-10.983-1.989-19.072-2.298-28.134-1.086l-.682.093-.186-1.322z"/>
        <path fill="#FEC746" fill-rule="nonzero" d="M152.756 94.154l.983-.903 5.908 6.433-6.433 5.91-.903-.983 5.45-5.008z"/>
    </g>
</svg>
