<svg width="38" height="38" viewBox="0 0 38 38" fill="none" xmlns="http://www.w3.org/2000/svg">
<path opacity="0.4" d="M1.29688 9.03125C1.29688 4.75967 4.75967 1.29688 9.03125 1.29688H28.9688C33.2403 1.29688 36.7031 4.75967 36.7031 9.03125V28.9688C36.7031 33.2403 33.2403 36.7031 28.9688 36.7031H9.03125C4.75967 36.7031 1.29688 33.2403 1.29688 28.9688V9.03125Z" stroke="#B0B0B0"/>
<path d="M24.9046 12.5526C24.9046 9.50164 22.2418 6.96875 19 6.96875C15.7582 6.96875 13.0954 9.50164 13.0954 12.5526V14.3372H10.6641V27.1743L19 31.0312L27.3359 27.1743V14.3947H24.9046V12.5526ZM16.1056 12.5526C16.1056 11.1135 17.3791 9.96217 19 9.96217C20.6209 9.96217 21.8944 11.1135 21.8944 12.5526V14.3372H16.1056V12.5526ZM23.9784 25.102L19 27.4046L14.0216 25.102V17.3882H23.9784V25.102Z" stroke="#B0B0B0"/>
</svg>
