<svg width="16" height="17" viewBox="0 0 16 17" fill="none" xmlns="http://www.w3.org/2000/svg">
<path d="M12.5 4.79785V2.57031C12.4997 2.3052 12.3942 2.05105 12.2067 1.86359C12.0193 1.67612 11.7651 1.57066 11.5 1.57031H4.5C4.23489 1.57066 3.98074 1.67612 3.79327 1.86359C3.60581 2.05105 3.50034 2.3052 3.5 2.57031V4.82031C3.50047 4.97549 3.53686 5.12845 3.60632 5.26721C3.67579 5.40597 3.77644 5.52676 3.90039 5.62012L7.16699 8.07031L3.8999 10.5205C3.77601 10.6139 3.67544 10.7347 3.60605 10.8735C3.53667 11.0122 3.50037 11.1652 3.5 11.3203V13.5703C3.50034 13.8354 3.60581 14.0896 3.79327 14.277C3.98074 14.4645 4.23489 14.57 4.5 14.5703H11.5C11.7651 14.57 12.0193 14.4645 12.2067 14.277C12.3942 14.0896 12.4997 13.8354 12.5 13.5703V11.3428C12.4998 11.1881 12.4638 11.0356 12.3949 10.8972C12.3259 10.7588 12.2259 10.6382 12.1025 10.5449L8.82898 8.07031L12.1025 5.5957C12.2258 5.50233 12.3258 5.38173 12.3947 5.24333C12.4637 5.10493 12.4997 4.95247 12.5 4.79785Z"/>
</svg>
