<svg xmlns="http://www.w3.org/2000/svg" width="360" height="280" viewBox="0 0 360 280">
    <g fill="none" fill-rule="evenodd">
        <g fill="#F9C447" fill-rule="nonzero">
            <path d="M112.69 70.576L122.915 72.527 122.666 73.832 112.441 71.881zM.291 49.124L10.513 51.075 10.264 52.381.042 50.43zM72.527.042L73.832.291 71.881 10.513 70.576 10.264zM26.946 9.477L32.797 18.084 31.698 18.831 25.847 10.224zM112.733 25.847L113.48 26.946 104.87 32.797 104.123 31.698zM18.085 90.16L18.831 91.259 10.224 97.107 9.477 96.008zM104.763 90.321L113.351 96.202 112.6 97.298 104.013 91.417zM10.356 25.658L18.944 31.54 18.193 32.636 9.606 26.754zM96.202 9.606L97.298 10.356 91.417 18.944 90.321 18.193zM50.658 0L52.571 10.231 51.265 10.475 49.352.244zM122.712 49.352L122.957 50.658 112.723 52.571 112.479 51.265zM10.231 70.385L10.475 71.691.244 73.604 0 72.298z" transform="translate(118 30)"/>
        </g>
        <g fill-rule="nonzero">
            <path fill="#D8D9DA" d="M12.01 67.746L12.048 92.109 7.197 92.117 7.159 67.754z" transform="translate(171 157)"/>
            <path fill="#BEBDC0" d="M11.928 67.736L12.047 89.054 7.197 89.082 7.078 67.763zM1.923 31.688H17.249000000000002V60.397H1.923z" transform="translate(171 157)"/>
            <path fill="#D8D9DA" d="M4.584 53.33H14.584999999999999V82.583H4.584z" transform="translate(171 157)"/>
            <path fill="#7A7F80" d="M14.144 53.77v28.373H5.025V53.769h9.12m.881-.882H4.143v30.138h10.883V52.887z" transform="translate(171 157)"/>
            <path fill="#D8D9DA" d="M0.713 45.603H18.457V71.946H0.713z" transform="translate(171 157)"/>
            <path fill="#7A7F80" d="M18.018 46.052v25.453H1.154V46.052h16.864m.882-.882H.272v27.216H18.9V45.17z" transform="translate(171 157)"/>
            <path fill="#FFF" d="M14.31 69.928h1.689V49.944c-.002-.932-.757-1.687-1.69-1.687v21.671z" transform="translate(171 157)"/>
            <path fill="#D8D9DA" d="M5.692 43.556h-1.69V34.77c.002-.932.758-1.686 1.69-1.686v10.47z" transform="translate(171 157)"/>
            <path fill="#FFF" d="M8.685 81.863h5.122v-5.124c-1.359 0-2.662.54-3.622 1.5-.961.962-1.5 2.265-1.5 3.624z" transform="translate(171 157)"/>
            <path fill="#FEC746" d="M9.56 23.557c-.91-6.438-1.03-13.77-.367-22l.072-.855 1.33.115c-.71 8.2-.644 15.498.197 21.895l.09.658-1.322.187z" transform="translate(171 157)"/>
            <path fill="#FEC746" d="M6.726 -1.497L7.709 -2.4 13.617 4.033 7.184 9.943 6.28 8.96 11.731 3.953z" transform="translate(171 157) rotate(-90 9.949 3.772)"/>
        </g>
        <g fill-rule="nonzero" transform="translate(154 49)">
            <path fill="#D8D9DA" d="M16.7 99.881c-2.561.002-4.877-1.523-5.885-3.877L4.053 80.265C1.681 74.763.461 68.833.468 62.841V12.354C.474 7.298 4.074 2.96 9.042 2.024c11.074-2.075 22.437-2.075 33.511 0 4.969.936 8.57 5.274 8.575 10.33v50.52c.007 6-1.216 11.936-3.593 17.445l-6.752 15.694c-1.01 2.353-3.324 3.877-5.885 3.875L16.7 99.881z"/>
            <path fill="#7A7F80" d="M25.798.936c5.592 0 11.172.518 16.669 1.548 4.748.892 8.187 5.039 8.186 9.87v50.52c0 5.935-1.21 11.808-3.555 17.26l-6.752 15.694c-.938 2.18-3.082 3.593-5.455 3.593H16.7c-2.374 0-4.52-1.414-5.457-3.595L4.481 80.08C2.142 74.634.936 68.768.936 62.84V12.354c-.001-4.831 3.438-8.978 8.186-9.87C14.62 1.454 20.203.936 25.798.936m0-.936c-5.65.001-11.287.525-16.84 1.565C3.768 2.542.007 7.073 0 12.354V62.84c-.008 6.058 1.225 12.053 3.623 17.616l6.762 15.731c1.083 2.525 3.567 4.161 6.315 4.161h18.198c2.748.003 5.232-1.633 6.315-4.158l6.753-15.694c2.403-5.567 3.64-11.567 3.632-17.63v-50.52c-.01-5.279-3.77-9.805-8.958-10.782C37.086.525 31.448 0 25.798 0z"/>
            <rect width="41.162" height="23.017" x="5.218" y="24.705" fill="#BEBDC0" rx="2.432"/>
            <rect width="17.303" height="9.129" x="4.867" y="52.197" fill="#D8D9DA" rx="1.911"/>
            <path fill="#7A7F80" d="M20.26 52.547c.861 0 1.56.699 1.56 1.56v5.3c0 .414-.165.81-.458 1.103-.292.293-.689.457-1.103.457H6.783c-.415.002-.813-.162-1.106-.455-.294-.293-.459-.69-.459-1.105v-5.3c0-.414.164-.812.458-1.105.294-.293.692-.456 1.107-.455h13.476m0-.701H6.783c-1.249.001-2.26 1.013-2.262 2.261v5.3c-.001.601.237 1.178.66 1.603.425.426 1 .665 1.602.666h13.476c.601 0 1.177-.24 1.601-.666.425-.425.662-1.002.661-1.603v-5.3c-.001-1.248-1.013-2.26-2.262-2.261z"/>
            <rect width="17.303" height="9.129" x="29.425" y="52.197" fill="#D8D9DA" rx="1.911"/>
            <path fill="#7A7F80" d="M44.818 52.547c.413 0 .81.164 1.103.457.293.292.457.69.457 1.103v5.3c0 .414-.165.81-.457 1.103-.293.293-.69.457-1.103.457H31.34c-.862 0-1.56-.698-1.56-1.56v-5.3c0-.861.698-1.56 1.56-1.56h13.481m0-.701H31.341c-1.249.001-2.26 1.013-2.262 2.261v5.3c-.001.601.237 1.178.66 1.603.425.426 1.001.665 1.602.666h13.481c1.249-.001 2.26-1.013 2.262-2.262v-5.307c-.001-1.248-1.013-2.26-2.262-2.261z"/>
            <path fill="#000" d="M43.947 24.238H7.651c-1.602 0-2.9 1.298-2.9 2.9V45.29c0 1.602 1.298 2.9 2.9 2.9h36.296c1.602 0 2.9-1.298 2.9-2.9V27.138c0-1.602-1.298-2.9-2.9-2.9zm-36.296.935h36.296c1.086 0 1.965.88 1.965 1.965V45.29c0 1.085-.88 1.965-1.965 1.965H7.651c-1.086 0-1.965-.88-1.965-1.965V27.138c0-1.085.88-1.965 1.965-1.965z"/>
            <path fill="#FFF" d="M3.498 6.499H8.887V8.988H3.498z" transform="rotate(-45 6.193 7.744)"/>
            <path fill="#FFF" d="M43.947 47.255L43.947 48.19 7.648 48.19 7.648 47.255zM20.259 52.197L20.259 52.898 6.778 52.898 6.778 52.197zM44.818 52.197L44.818 52.898 31.336 52.898 31.336 52.197z"/>
            <path fill="#FFF" d="M25.798 2.105c5.52.002 11.028.513 16.454 1.527 4.194.792 7.233 4.454 7.239 8.722v50.52c.006 5.777-1.172 11.494-3.462 16.797l-6.75 15.696c-.753 1.75-2.475 2.884-4.38 2.884h-18.2c-1.905 0-3.629-1.134-4.38-2.886L5.557 79.62C3.274 74.32 2.1 68.61 2.105 62.84V12.355c.007-4.272 3.052-7.935 7.25-8.722 5.423-1.013 10.927-1.525 16.443-1.527m0-1.17c-5.595 0-11.177.519-16.676 1.549-4.748.892-8.187 5.039-8.186 9.87V62.84c0 5.927 1.206 11.793 3.545 17.24l6.762 15.738c.937 2.18 3.083 3.595 5.457 3.595h18.198c2.373 0 4.517-1.413 5.455-3.593l6.752-15.694c2.346-5.452 3.555-11.325 3.555-17.26v-50.52c.001-4.831-3.438-8.978-8.186-9.87C36.974 1.449 31.392.933 25.798.936z"/>
            <path fill="#D8D9DA" d="M13.145 98.233c1.025.769 2.273 1.185 3.555 1.185h18.198c2.373 0 4.517-1.413 5.455-3.592l6.752-15.694c2.346-5.452 3.555-11.325 3.555-17.26l-37.515 35.36z"/>
            <path fill="#FFF" d="M9.122 5.887c11.016-2.065 22.321-2.065 33.338 0 3.58.671 7.017 3.225 7.017 6.467h1.169c.001-4.831-3.438-8.978-8.186-9.87C31.443.419 20.138.419 9.122 2.484 4.374 3.376.935 7.523.936 12.354h1.17c0-3.272 3.44-5.805 7.016-6.467z"/>
            <path fill="#D8D9DA" d="M16.7 99.881c-2.561.002-4.877-1.523-5.885-3.877L4.053 80.265C1.681 74.763.461 68.833.468 62.841V12.354C.474 7.298 4.074 2.96 9.042 2.024c11.074-2.075 22.437-2.075 33.511 0 4.969.936 8.57 5.274 8.575 10.33v50.52c.007 6-1.216 11.936-3.593 17.445l-6.752 15.694c-1.01 2.353-3.324 3.877-5.885 3.875L16.7 99.881z"/>
            <path fill="#7A7F80" d="M25.798.936c5.592 0 11.172.518 16.669 1.548 4.748.892 8.187 5.039 8.186 9.87v50.52c0 5.935-1.21 11.808-3.555 17.26l-6.752 15.694c-.938 2.18-3.082 3.593-5.455 3.593H16.7c-2.374 0-4.52-1.414-5.457-3.595L4.481 80.08C2.142 74.634.936 68.768.936 62.84V12.354c-.001-4.831 3.438-8.978 8.186-9.87C14.62 1.454 20.203.936 25.798.936m0-.936c-5.65.001-11.287.525-16.84 1.565C3.768 2.542.007 7.073 0 12.354V62.84c-.008 6.058 1.225 12.053 3.623 17.616l6.762 15.731c1.083 2.525 3.567 4.161 6.315 4.161h18.198c2.748.003 5.232-1.633 6.315-4.158l6.753-15.694c2.403-5.567 3.64-11.567 3.632-17.63v-50.52c-.01-5.279-3.77-9.805-8.958-10.782C37.086.525 31.448 0 25.798 0z"/>
            <path fill="#FFF" d="M43.833 49.149H7.76c-.674 0-1.321-.268-1.798-.745-.477-.478-.745-1.125-.744-1.8V45.29h41.164v1.314c0 .676-.269 1.324-.747 1.801-.478.478-1.126.745-1.802.744z"/>
            <rect width="40.226" height="22.081" x="5.686" y="25.173" fill="#FFF" rx="1.965"/>
            <path fill="#7A7F80" d="M43.947 25.641c.826.001 1.495.671 1.495 1.497V45.29c0 .826-.669 1.495-1.495 1.497H7.648c-.826-.002-1.494-.671-1.494-1.497V27.13c0-.825.668-1.495 1.494-1.496h36.3m0-.936h-36.3c-.645 0-1.263.257-1.719.713-.456.456-.712 1.075-.71 1.72v18.152c0 1.341 1.088 2.429 2.43 2.43h36.298c1.343-.001 2.43-1.09 2.43-2.432V27.13c.001-.645-.255-1.264-.71-1.72-.456-.456-1.075-.713-1.72-.713z"/>
            <path fill="#FFF" d="M5.218 52.547H21.819V53.964H5.218zM29.776 52.547H46.376999999999995V53.964H29.776z"/>
            <path fill="#7A7F80" d="M20.26 52.547c.861 0 1.56.699 1.56 1.56v5.3c0 .414-.165.81-.458 1.103-.292.293-.689.457-1.103.457H6.783c-.415.002-.813-.162-1.106-.455-.294-.293-.459-.69-.459-1.105v-5.3c0-.414.164-.812.458-1.105.294-.293.692-.456 1.107-.455h13.476m0-.701H6.783c-1.249.001-2.26 1.013-2.262 2.261v5.3c-.001.601.237 1.178.66 1.603.425.426 1 .665 1.602.666h13.476c.601 0 1.177-.24 1.601-.666.425-.425.662-1.002.661-1.603v-5.3c-.001-1.248-1.013-2.26-2.262-2.261zM44.818 52.547c.413 0 .81.164 1.103.457.293.292.457.69.457 1.103v5.3c0 .414-.165.81-.457 1.103-.293.293-.69.457-1.103.457H31.34c-.862 0-1.56-.698-1.56-1.56v-5.3c0-.861.698-1.56 1.56-1.56h13.481m0-.701H31.341c-1.249.001-2.26 1.013-2.262 2.261v5.3c-.001.601.237 1.178.66 1.603.425.426 1.001.665 1.602.666h13.481c1.249-.001 2.26-1.013 2.262-2.262v-5.307c-.001-1.248-1.013-2.26-2.262-2.261z"/>
            <path fill="#FFF" d="M3.498 6.181H8.887V9.306000000000001H3.498z" transform="rotate(-45 6.193 7.744)"/>
            <path fill="#FFF" d="M25.798 2.105c5.52.002 11.028.513 16.454 1.527 4.194.792 7.233 4.454 7.239 8.722v50.52c.006 5.777-1.172 11.494-3.462 16.797l-6.75 15.696c-.753 1.75-2.475 2.884-4.38 2.884h-18.2c-1.905 0-3.629-1.134-4.38-2.886L5.557 79.62C3.274 74.32 2.1 68.61 2.105 62.84V12.355c.007-4.272 3.052-7.935 7.25-8.722 5.423-1.013 10.927-1.525 16.443-1.527m0-1.17c-5.595 0-11.177.519-16.676 1.549-4.748.892-8.187 5.039-8.186 9.87V62.84c0 5.927 1.206 11.793 3.545 17.24l6.762 15.738c.937 2.18 3.083 3.595 5.457 3.595h18.198c2.373 0 4.517-1.413 5.455-3.593l6.752-15.694c2.346-5.452 3.555-11.325 3.555-17.26v-50.52c.001-4.831-3.438-8.978-8.186-9.87C36.974 1.449 31.392.933 25.798.936z"/>
            <path fill="#D8D9DA" d="M13.145 98.233c1.025.769 2.273 1.185 3.555 1.185h18.198c2.373 0 4.517-1.413 5.455-3.592l6.752-15.694c2.346-5.452 3.555-11.325 3.555-17.26l-37.515 35.36z"/>
            <path fill="#FFF" d="M9.122 5.887c11.016-2.065 22.321-2.065 33.338 0 3.58.671 7.017 3.225 7.017 6.467h1.169c.001-4.831-3.438-8.978-8.186-9.87C31.443.419 20.138.419 9.122 2.484 4.374 3.376.935 7.523.936 12.354h1.17c0-3.272 3.44-5.805 7.016-6.467z"/>
        </g>
        <g transform="rotate(-12 526.375 -714.964)">
            <circle cx="16.584" cy="16.584" r="16.584" fill="#C6E2BA" fill-rule="nonzero"/>
            <path fill="#FFF" d="M9.988 33.906c-2.133-6.133-3.066-11.733-2.8-16.8.267-5.066 2.667-8.266 7.2-9.6 4.8-1.066 8.4 0 10.8 3.2 2.4 3.2 4.934 8 7.6 14.4 1.867 4 3.334 6.667 4.4 8 1.6 2 2.4 4 2.8 6 .267 1.334.934 3.334 2 6 3.467 7.467 7.734 14.134 12.8 20 7.6 8.8-24.8 28.8-26 24.8-1.2-4-10.4-37.6-11.2-40-.8-2.4-1.2-3.2-2.4-4.8-.8-1.066-1.733-2.933-2.8-5.6l-2.4-5.6z"/>
            <path fill="#8FCB7F" fill-rule="nonzero" d="M12.338 7.136c2.333-1.047 5.426-1.35 7.856-.75 2.39.59 4.481 2.356 5.98 4.795l.342.562c.823 1.37 1.583 2.76 2.785 5.055l.97 1.869c.383.754.759 1.52 1.226 2.498L34.06 26.6c.249.52.468.973.683 1.41l.457.915.11.134c.33.41.681.905 1.052 1.479l.187.293c.368.584.751 1.235 1.145 1.942.477.854.951 1.756 1.41 2.667l.484.978.49 1.022.098.21.046.138.812 3.805.325.734.17.374c.423.933.913 1.973 1.46 3.093 1.563 3.2 3.278 6.401 5.089 9.385 2.349 3.87 4.681 7.078 6.933 9.4l.293.298-.94.94c-2.43-2.43-4.92-5.827-7.422-9.949-1.834-3.022-3.567-6.256-5.147-9.49-.395-.81-.76-1.576-1.093-2.293l-.471-1.029-.443-.998-.04-.123-.81-3.798-.16-.34c-.117-.246-.245-.513-.384-.797l-.142-.289c-.553-1.123-1.135-2.245-1.718-3.291-.383-.687-.754-1.318-1.109-1.88-.42-.668-.81-1.228-1.162-1.663l-.13-.157-.085-.13-.414-.826c-.244-.493-.489-.996-.77-1.586l-2.563-5.432c-.643-1.345-1.109-2.282-1.662-3.343l-.673-1.287c-1.257-2.393-2.016-3.762-2.924-5.24-1.33-2.164-3.153-3.703-5.168-4.2-2.138-.529-4.928-.255-6.993.672-3.45 1.55-5.187 3.603-5.415 8.351-.23 4.883.34 9.057 1.743 13.582l.287.897c.834 2.548 1.59 4.409 3.916 9.82l.28.653 3.683 5.6 1.953 7.246 1.582 5.827c.658 2.414 1.312 4.8 1.952 7.127l2.064 7.439c1.785 6.385 3.214 11.338 4.18 14.455l.277.879-1.266.403-.427-1.368c-.992-3.23-2.417-8.183-4.178-14.49l-1.168-4.203-1.149-4.166c-.774-2.82-1.566-5.717-2.358-8.634l-2.69-9.963-3.595-5.467-.055-.103-1.375-3.208c-1.616-3.802-2.247-5.443-2.998-7.768-1.58-4.894-2.232-9.369-1.985-14.62.255-5.31 2.33-7.763 6.198-9.501z"/>
            <path fill="#C6E2BA" fill-rule="nonzero" d="M25.085 18.699l-.02.886c-4.329-.094-8.542 1.404-11.84 4.21-.3.256-.45.443-.486.61l-.008.062-.885-.039c.022-.505.292-.868.804-1.308 3.365-2.862 7.636-4.428 12.045-4.425l.39.004z"/>
            <path fill="#8FCB7F" fill-rule="nonzero" d="M9.592 14.95c.235 3.044 1.078 6.01 2.492 8.746.187.418.46.793.758 1.065.37.256.793.424 1.253.493l.2.024c3.402.492 7.008-.38 10.043-2.368 1.114-.73 2.034-1.933 2.265-3.034l.031-.173.877.127c-.206 1.422-1.318 2.924-2.687 3.821-3.211 2.103-7.034 3.028-10.632 2.507-.665-.058-1.304-.288-1.898-.703-.434-.39-.78-.866-1.008-1.375-1.38-2.67-2.24-5.576-2.533-8.564l-.044-.499.883-.068zM29.378 30.49l.371.804c-.56.259-1.062.362-1.95.436l-1.152.085-.073.007c-2.8.283-5.326 1.637-8.673 4.303l-.338.27-.557-.688c3.64-2.945 6.369-4.452 9.48-4.766l.316-.029.899-.063c.739-.06 1.162-.14 1.574-.314l.103-.045zM30.668 32.643l.772.434c-.457.813-1.173 1.45-2.025 1.803-.267.118-.642.2-1.17.275l-.998.13-.557.088-1.468.252-.433.067-.132-.876.424-.066 1.465-.251.57-.09c.123-.019.811-.103 1.003-.13.45-.065.769-.134.947-.213.616-.256 1.139-.693 1.499-1.252l.103-.17z"/>
        </g>
    </g>
</svg>
