<svg xmlns="http://www.w3.org/2000/svg" width="360" height="280" viewBox="0 0 360 280">
    <g fill="none" fill-rule="evenodd">
        <g fill="#F9C447" fill-rule="nonzero">
            <path d="M112.69 70.576L122.915 72.527 122.666 73.832 112.441 71.881zM.291 49.124L10.513 51.075 10.264 52.381.042 50.43zM72.527.042L73.832.291 71.881 10.513 70.576 10.264zM26.946 9.477L32.797 18.084 31.698 18.831 25.847 10.224zM112.733 25.847L113.48 26.946 104.87 32.797 104.123 31.698zM18.085 90.16L18.831 91.259 10.224 97.107 9.477 96.008zM104.763 90.321L113.351 96.202 112.6 97.298 104.013 91.417zM10.356 25.658L18.944 31.54 18.193 32.636 9.606 26.754zM96.202 9.606L97.298 10.356 91.417 18.944 90.321 18.193zM50.658 0L52.571 10.231 51.265 10.475 49.352.244zM122.712 49.352L122.957 50.658 112.723 52.571 112.479 51.265zM10.231 70.385L10.475 71.691.244 73.604 0 72.298z" transform="translate(118 26)"/>
        </g>
        <g fill-rule="nonzero" transform="translate(145 44)">
            <path fill="#7A7F80" d="M61.976 0H7.81C5.74 0 3.752.823 2.287 2.288.822 3.753 0 5.74 0 7.813V67.69c0 9.127 2.333 16.993 7.3 23.123l14.97 18.486c.373.463.937.733 1.533.733h22.18c.597 0 1.16-.27 1.535-.734l14.968-18.485c4.967-6.135 7.296-13.995 7.296-23.123V7.813C69.783 3.5 66.29.003 61.976 0zM7.81.886h54.166c3.823.002 6.922 3.103 6.92 6.926V67.69c0 8.94-2.271 16.603-7.098 22.565l-14.97 18.487c-.206.256-.516.404-.845.404h-22.18c-.328 0-.638-.148-.844-.403L7.99 90.255C3.16 84.298.886 76.627.886 67.69V7.813c0-1.838.729-3.6 2.027-4.898 1.299-1.3 3.06-2.03 4.897-2.03z"/>
            <path fill="#D8D9DA" d="M63.103 69.377V9.719c0-1.078-.427-2.113-1.19-2.876-.762-.763-1.797-1.192-2.875-1.192H10.824c-1.078 0-2.113.429-2.875 1.192-.763.763-1.191 1.798-1.19 2.876v59.689c0 4.55 1.08 9.034 3.155 13.083l2.828 5.518-4.274 3.544 14.146 17.467c.29.36.727.57 1.19.57h22.18c.461 0 .898-.21 1.189-.57l14.146-17.467-4.237-3.526 2.841-5.52c2.09-4.061 3.181-8.563 3.18-13.13z"/>
            <path fill="#D8D9DA" d="M9.695 11.145c-.55.001-1.082-.193-1.501-.549L3.922 6.982c-.668-.525-.995-1.374-.854-2.211.142-.838.73-1.532 1.532-1.81.804-.277 1.694-.094 2.322.478l4.274 3.612c.746.63 1.019 1.659.683 2.575-.336.917-1.208 1.526-2.184 1.526v-.007z"/>
            <rect width="49.081" height="49.081" x="10.353" y="16.367" fill="#7A7F80" rx="2.846"/>
            <rect width="49.081" height="49.081" x="10.353" y="21.416" fill="#FFF" rx="2.846"/>
            <rect width="48.196" height="48.196" x="10.796" y="19.538" fill="#FFF" rx="2.403"/>
            <path fill="#7A7F80" d="M56.588 19.981c1.082.001 1.959.878 1.96 1.96v43.39c-.001 1.082-.878 1.959-1.96 1.96h-43.39c-1.082-.001-1.958-.878-1.96-1.96v-43.39c.002-1.082.878-1.959 1.96-1.96h43.39m0-.886h-43.39c-1.571 0-2.845 1.274-2.845 2.846v43.39c0 1.572 1.274 2.846 2.845 2.846h43.39c1.572 0 2.846-1.274 2.846-2.846v-43.39c0-1.572-1.274-2.846-2.846-2.846z"/>
            <path fill="#7A7F80" d="M61.976 0H7.81C5.74 0 3.752.823 2.287 2.288.822 3.753 0 5.74 0 7.813V67.69c0 9.127 2.333 16.993 7.3 23.123l14.97 18.486c.373.463.937.733 1.533.733h22.18c.597 0 1.16-.27 1.535-.734l14.968-18.485c4.967-6.135 7.296-13.995 7.296-23.123V7.813C69.783 3.5 66.29.003 61.976 0zM7.81.886h54.166c3.823.002 6.922 3.103 6.92 6.926V67.69c0 8.94-2.271 16.603-7.098 22.565l-14.97 18.487c-.206.256-.516.404-.845.404h-22.18c-.328 0-.638-.148-.844-.403L7.99 90.255C3.16 84.298.886 76.627.886 67.69V7.813c0-1.838.729-3.6 2.027-4.898 1.299-1.3 3.06-2.03 4.897-2.03z"/>
        </g>
        <g fill-rule="nonzero">
            <path fill="#D8D9DA" d="M12.01 67.746L12.048 92.109 7.197 92.117 7.159 67.754z" transform="translate(170 162)"/>
            <path fill="#BEBDC0" d="M11.928 67.736L12.047 89.054 7.197 89.082 7.078 67.763zM1.923 31.688H17.249000000000002V60.397H1.923z" transform="translate(170 162)"/>
            <path fill="#D8D9DA" d="M4.584 53.33H14.584999999999999V82.583H4.584z" transform="translate(170 162)"/>
            <path fill="#7A7F80" d="M14.144 53.77v28.373H5.025V53.769h9.12m.881-.882H4.143v30.138h10.883V52.887z" transform="translate(170 162)"/>
            <path fill="#D8D9DA" d="M0.713 45.603H18.457V71.946H0.713z" transform="translate(170 162)"/>
            <path fill="#7A7F80" d="M18.018 46.052v25.453H1.154V46.052h16.864m.882-.882H.272v27.216H18.9V45.17z" transform="translate(170 162)"/>
            <path fill="#FFF" d="M14.31 69.928h1.689V49.944c-.002-.932-.757-1.687-1.69-1.687v21.671z" transform="translate(170 162)"/>
            <path fill="#D8D9DA" d="M5.692 43.556h-1.69V34.77c.002-.932.758-1.686 1.69-1.686v10.47z" transform="translate(170 162)"/>
            <path fill="#FFF" d="M8.685 81.863h5.122v-5.124c-1.359 0-2.662.54-3.622 1.5-.961.962-1.5 2.265-1.5 3.624z" transform="translate(170 162)"/>
            <path fill="#FEC746" d="M9.56 23.557c-.91-6.438-1.03-13.77-.367-22l.072-.855 1.33.115c-.71 8.2-.644 15.498.197 21.895l.09.658-1.322.187z" transform="translate(170 162)"/>
            <path fill="#FEC746" d="M6.726 -1.497L7.709 -2.4 13.617 4.033 7.184 9.943 6.28 8.96 11.731 3.953z" transform="translate(170 162) rotate(-90 9.949 3.772)"/>
        </g>
        <g fill="#8FCB7F" fill-rule="nonzero">
            <path d="M1.912 7.733l.066.06c.19.144.46.136.64-.03l3.797-3.487-.126 1.758c-.374 5.625-.213 7.21.604 12.993.038.273.291.464.565.425l1.322-.187c.272-.038.462-.29.425-.562l-.09-.659-.209-1.646c-.543-4.472-.605-5.97-.25-10.866l.098-1.285 3.615 3.931c.187.204.503.217.706.03l.984-.903c.203-.187.216-.503.03-.707L8.179.165c-.188-.203-.504-.217-.707-.03L1.039 6.043c-.204.187-.217.503-.03.707l.903.983zM26.185 12.727l-.066-.06c-.19-.144-.46-.136-.64.03l-3.797 3.488.126-1.759c.374-5.625.213-7.21-.603-12.992-.039-.274-.292-.464-.565-.426l-1.322.187c-.273.039-.463.29-.426.563l.09.658.209 1.647c.543 4.47.605 5.97.25 10.866l-.098 1.285-3.615-3.932c-.187-.203-.503-.217-.706-.03l-.983.904c-.204.186-.217.503-.03.706l5.91 6.433c.187.203.503.217.706.03l6.434-5.908c.203-.187.216-.503.03-.706l-.904-.984z" transform="translate(166 71)"/>
        </g>
        <g>
            <path fill="#FFF" d="M3.988 27.906c-2.133-6.133-3.066-11.733-2.8-16.8.267-5.066 2.667-8.266 7.2-9.6 4.8-1.066 8.4 0 10.8 3.2 2.4 3.2 4.934 8 7.6 14.4 1.867 4 3.334 6.667 4.4 8 1.6 2 2.4 4 2.8 6 .267 1.334.934 3.334 2 6 3.467 7.467 7.734 14.134 12.8 20 7.6 8.8-24.8 28.8-26 24.8-1.2-4-10.4-37.6-11.2-40-.8-2.4-1.2-3.2-2.4-4.8-.8-1.066-1.733-2.933-2.8-5.6l-2.4-5.6z" transform="rotate(-12 552.418 -751.264)"/>
            <path fill="#8FCB7F" fill-rule="nonzero" d="M6.338 1.136C8.67.089 11.764-.214 14.194.386c2.39.59 4.481 2.356 5.98 4.795l.342.562c.823 1.37 1.583 2.76 2.785 5.055l.97 1.869c.383.754.759 1.52 1.226 2.498L28.06 20.6c.249.52.468.973.683 1.41l.457.915.11.134c.33.41.681.905 1.052 1.479l.187.293c.368.584.751 1.235 1.145 1.942.477.854.951 1.756 1.41 2.667l.484.978.49 1.022.098.21.046.138.812 3.805.325.734.17.374c.423.933.913 1.973 1.46 3.093 1.563 3.2 3.278 6.401 5.089 9.385 2.349 3.87 4.681 7.078 6.933 9.4l.293.298-.94.94c-2.43-2.43-4.92-5.827-7.422-9.949-1.834-3.022-3.567-6.256-5.147-9.49-.395-.81-.76-1.576-1.093-2.293l-.471-1.029-.443-.998-.04-.123-.81-3.798-.16-.34c-.117-.246-.245-.513-.384-.797l-.142-.289c-.553-1.123-1.135-2.245-1.718-3.291-.383-.687-.754-1.318-1.109-1.88-.42-.668-.81-1.228-1.162-1.663l-.13-.157-.085-.13-.414-.826c-.244-.493-.489-.996-.77-1.586l-2.563-5.432c-.643-1.345-1.109-2.282-1.662-3.343l-.673-1.287c-1.257-2.393-2.016-3.762-2.924-5.24-1.33-2.164-3.153-3.703-5.168-4.2-2.138-.529-4.928-.255-6.993.672-3.45 1.55-5.187 3.603-5.415 8.351-.23 4.883.34 9.057 1.743 13.582l.287.897c.834 2.548 1.59 4.409 3.916 9.82l.28.653 3.683 5.6 1.953 7.246 1.582 5.827c.658 2.414 1.312 4.8 1.952 7.127l2.064 7.439c1.785 6.385 3.214 11.338 4.18 14.455l.277.879-1.266.403-.427-1.368c-.992-3.23-2.417-8.183-4.178-14.49l-1.168-4.203-1.149-4.166c-.774-2.82-1.566-5.717-2.358-8.634l-2.69-9.963-3.595-5.467-.055-.103-1.375-3.208c-1.616-3.802-2.247-5.443-2.998-7.768C.545 20.363-.107 15.888.14 10.637c.255-5.31 2.33-7.763 6.198-9.501z" transform="rotate(-12 552.418 -751.264)"/>
            <path fill="#C6E2BA" fill-rule="nonzero" d="M19.085 12.699l-.02.886c-4.329-.094-8.542 1.404-11.84 4.21-.3.256-.45.443-.486.61l-.008.062-.885-.039c.022-.505.292-.868.804-1.308 3.365-2.862 7.636-4.428 12.045-4.425l.39.004z" transform="rotate(-12 552.418 -751.264)"/>
            <path fill="#8FCB7F" fill-rule="nonzero" d="M3.592 8.95c.235 3.044 1.078 6.01 2.492 8.746.187.418.46.793.758 1.065.37.256.793.424 1.253.493l.2.024c3.402.492 7.008-.38 10.043-2.368 1.114-.73 2.034-1.933 2.265-3.034l.031-.173.877.127c-.206 1.422-1.318 2.924-2.687 3.821-3.211 2.103-7.034 3.028-10.632 2.507-.665-.058-1.304-.288-1.898-.703-.434-.39-.78-.866-1.008-1.375-1.38-2.67-2.24-5.576-2.533-8.564l-.044-.499.883-.068zM23.378 24.49l.371.804c-.56.259-1.062.362-1.95.436l-1.152.085-.073.007c-2.8.283-5.326 1.637-8.673 4.303l-.338.27-.557-.688c3.64-2.945 6.369-4.452 9.48-4.766l.316-.029.899-.063c.739-.06 1.162-.14 1.574-.314l.103-.045zM24.668 26.643l.772.434c-.457.813-1.173 1.45-2.025 1.803-.267.118-.642.2-1.17.275l-.998.13-.557.088-1.468.252-.433.067-.132-.876.424-.066 1.465-.251.57-.09c.123-.019.811-.103 1.003-.13.45-.065.769-.134.947-.213.616-.256 1.139-.693 1.499-1.252l.103-.17z" transform="rotate(-12 552.418 -751.264)"/>
        </g>
    </g>
</svg>
