<svg width="32" height="32" viewBox="0 0 32 32" fill="none" xmlns="http://www.w3.org/2000/svg">
<path d="M15.5127 18C17.1695 18 18.5127 16.6569 18.5127 15C18.5127 13.3431 17.1695 12 15.5127 12C13.8558 12 12.5127 13.3431 12.5127 15C12.5127 16.6569 13.8558 18 15.5127 18Z" stroke="black" stroke-width="2" stroke-linecap="round" stroke-linejoin="round"/>
<path d="M11.6387 20.9999C11.8606 20.1413 12.3615 19.3807 13.0627 18.8377C13.7639 18.2947 14.6256 18 15.5125 18C16.3994 18 17.2611 18.2946 17.9623 18.8375C18.6636 19.3805 19.1645 20.141 19.3865 20.9997" stroke="black" stroke-width="2" stroke-linecap="round" stroke-linejoin="round"/>
<path d="M27 6H5C4.44772 6 4 6.44772 4 7V25C4 25.5523 4.44772 26 5 26H27C27.5523 26 28 25.5523 28 25V7C28 6.44772 27.5523 6 27 6Z" stroke="black" stroke-width="2" stroke-linecap="round" stroke-linejoin="round"/>
</svg>
