<?xml version="1.0" standalone="no"?>
<!DOCTYPE svg PUBLIC "-//W3C//DTD SVG 20010904//EN"
 "http://www.w3.org/TR/2001/REC-SVG-20010904/DTD/svg10.dtd">
<svg version="1.0" xmlns="http://www.w3.org/2000/svg"
 width="2586.000000pt" height="1078.000000pt" viewBox="0 0 2586.000000 1078.000000"
 preserveAspectRatio="xMidYMid meet">

<g transform="translate(0.000000,1078.000000) scale(0.100000,-0.100000)"
fill="#00BFD9" stroke="none">
<path d="M17101 8127 c-7 -10 -12 -161 -13 -498 l-3 -484 -189 -3 c-119 -1
-194 -7 -203 -13 -10 -9 -13 -71 -13 -290 0 -239 2 -280 16 -293 13 -13 46
-16 204 -16 l189 0 3 -1062 3 -1063 28 -100 c96 -350 325 -579 673 -672 95
-25 112 -26 418 -31 299 -4 321 -3 333 14 17 23 19 604 3 635 -10 18 -23 19
-184 19 -95 0 -198 5 -227 10 -85 16 -156 56 -194 109 -67 92 -65 50 -65 1149
l0 992 324 0 c282 0 327 2 340 16 14 13 16 54 16 293 0 202 -3 280 -12 289 -9
9 -98 12 -340 12 l-328 0 0 478 c0 416 -2 480 -16 500 l-15 22 -368 0 c-296 0
-371 -3 -380 -13z"/>
<path d="M9832 7180 c-251 -26 -487 -115 -674 -255 l-88 -65 0 130 c0 122 -1
130 -22 144 -19 14 -71 16 -368 16 -297 0 -349 -2 -368 -16 l-22 -15 0 -1748
c0 -1345 3 -1750 12 -1759 18 -18 751 -17 766 1 8 9 12 352 14 1153 l3 1139
23 80 c75 265 218 411 467 475 99 25 274 27 378 4 233 -52 389 -207 459 -459
l23 -80 3 -1149 c2 -811 6 -1154 14 -1163 15 -18 748 -19 766 -1 15 15 17
2311 2 2458 -35 335 -141 575 -342 773 -217 213 -496 325 -848 340 -63 3 -152
1 -198 -3z"/>
<path d="M6681 7143 c-404 -2 -527 -6 -533 -16 -13 -21 -10 -571 4 -585 9 -9
77 -12 245 -12 l233 0 0 -1453 c0 -1117 3 -1456 12 -1465 17 -17 749 -17 766
0 15 15 17 3494 2 3518 -11 18 9 17 -729 13z"/>
<path d="M11583 7140 c-13 -5 -23 -17 -23 -27 0 -20 1288 -3482 1303 -3500 14
-19 620 -19 635 0 16 18 1302 3474 1302 3497 0 13 -10 24 -26 30 -15 6 -178
10 -394 10 -336 0 -370 -2 -388 -17 -15 -13 -134 -352 -411 -1172 -215 -635
-392 -1156 -395 -1158 -5 -5 -29 65 -442 1276 -315 925 -362 1054 -382 1062
-30 12 -750 10 -779 -1z"/>
<path d="M15370 7143 c-8 -3 -18 -11 -22 -17 -4 -6 -8 -796 -8 -1756 0 -1345
3 -1749 12 -1758 17 -17 749 -17 766 0 9 9 12 415 12 1765 l0 1753 -26 10
c-27 11 -707 13 -734 3z"/>
<path d="M19073 7140 c-14 -6 -23 -18 -23 -30 0 -11 275 -758 610 -1659 336
-901 610 -1644 610 -1649 0 -22 -193 -550 -230 -629 -66 -141 -152 -211 -290
-233 -36 -5 -127 -10 -202 -10 -125 0 -138 -2 -148 -19 -6 -13 -10 -138 -10
-339 0 -296 1 -320 18 -335 38 -35 470 -18 642 24 284 70 485 237 620 514 21
44 397 1038 836 2209 l796 2130 -22 18 c-21 17 -51 18 -395 18 -206 0 -384 -4
-397 -9 -20 -8 -69 -144 -412 -1167 -214 -638 -392 -1162 -395 -1166 -4 -4
-186 513 -405 1150 -275 801 -404 1162 -418 1175 -18 16 -52 17 -392 16 -204
0 -381 -4 -393 -9z"/>
<path d="M4423 6502 c-10 -6 -13 -102 -15 -403 l-3 -394 -399 -3 c-274 -1
-403 -6 -413 -13 -10 -9 -13 -69 -13 -288 0 -156 4 -283 10 -291 8 -13 67 -15
415 -18 l405 -3 0 -398 c0 -355 2 -400 16 -405 9 -3 140 -6 293 -6 202 0 280
3 289 12 9 9 12 113 12 405 l0 393 391 0 c250 0 397 4 410 10 18 10 19 24 19
299 0 254 -2 290 -16 295 -9 3 -193 6 -410 6 l-394 0 0 395 c0 380 -1 395 -19
405 -23 12 -559 14 -578 2z"/>
</g>
</svg>
