<svg width="91" height="11" viewBox="0 0 91 11" fill="none" xmlns="http://www.w3.org/2000/svg">
<path d="M21.8178 6.63491V3.21959H20.8973V2.13443H21.8178V0.536133H22.9683V2.12602H24.2978V3.21118H22.9683V6.45826C22.9683 6.68538 23.0876 6.80315 23.3177 6.80315H24.2978V7.82943H23.0876C22.278 7.82943 21.8178 7.37518 21.8178 6.63491Z" fill="#828282"/>
<path d="M7.55208 2.13426H8.57477L8.69408 2.70628H8.75374C8.75374 2.70628 9.33327 2.0249 10.4241 2.0249C11.8048 2.0249 12.7337 2.93341 12.7337 4.41394V7.82926H11.5832V4.41394C11.5832 3.67368 11.0037 3.05118 10.2026 3.05118C9.33327 3.05118 8.70261 3.67368 8.70261 4.41394V7.82926H7.55208V2.13426Z" fill="#828282"/>
<path d="M12.7753 2.13477H13.9855L15.5451 6.57636H15.7752L17.3348 2.13477H18.5449L16.5251 7.82976H14.7951L12.7753 2.13477Z" fill="#828282"/>
<path d="M20.2578 2.13477H19.1073V7.82976H20.2578V2.13477Z" fill="#828282"/>
<path d="M26.9573 8.73827C26.9232 8.85604 26.7953 9.08317 26.5652 9.08317H25.4232V10.101H26.6334C27.4942 10.101 27.8436 9.75614 28.0737 9.13364L30.6049 2.13477H29.3947L27.8947 6.45859H27.6646L25.9942 2.13477H24.7841L27.1448 8.22513L26.9573 8.73827Z" fill="#828282"/>
<path d="M5.58409 2.13477H6.73342V7.82977H5.58288V3.23389H4.46765V2.1319H5.58409V2.13477Z" fill="#828282"/>
<path d="M2.54991 3.20312H1.43347V4.41113H0.21582V5.51312H1.43347V6.71938H2.54991V5.51312H3.7782V4.41113H2.54991V3.20312Z" fill="#828282"/>
<path d="M38.3731 7.62436H39.0821V5.78119H40.7834V5.11954H39.0821V3.27637H38.3731V5.11954H36.6718V5.78119H38.3731V7.62436Z" fill="#828282"/>
<path d="M65.289 5.88315C65.1472 6.63932 64.391 8.34071 62.3116 8.34071C60.5156 8.34071 59.0978 6.92288 59.0978 4.93793C59.0978 2.95298 60.5156 1.53516 62.3116 1.53516C64.2493 1.53516 65.0999 3.0475 65.289 3.94545H64.0129C63.8239 3.42559 63.304 2.71668 62.3116 2.71668C61.1773 2.71668 60.3266 3.56737 60.3266 4.93793C60.3266 6.30849 61.1773 7.15919 62.3116 7.15919C63.304 7.15919 63.8239 6.45028 64.0129 5.88315H65.289Z" fill="#828282"/>
<path fill-rule="evenodd" clip-rule="evenodd" d="M47.9354 8.24618H51.1019C52.2362 8.24618 52.9923 7.49001 52.9923 6.40302C52.9923 5.36328 52.2362 4.93793 52.2362 4.93793V4.89067C52.2362 4.89067 52.8978 4.46532 52.8978 3.47285C52.8978 2.38585 52.1416 1.62968 51.0074 1.62968H47.9354V8.24618ZM49.1642 7.15919V5.4578H50.9601C51.3855 5.4578 51.7635 5.83589 51.7635 6.30849C51.7635 6.7811 51.3855 7.15919 50.9601 7.15919H49.1642ZM49.1642 4.3708V2.71668H50.8656C51.3382 2.71668 51.669 3.0475 51.669 3.56737C51.669 4.03998 51.3382 4.3708 50.8656 4.3708H49.1642Z" fill="#828282"/>
<path d="M55.4558 8.24618H56.6846V2.8112H58.6695V1.62968H53.4708V2.8112H55.4558V8.24618Z" fill="#828282"/>
<path fill-rule="evenodd" clip-rule="evenodd" d="M66.3793 8.24618H68.6006C70.4437 8.24618 71.767 6.87562 71.767 4.93793C71.767 3.00024 70.4437 1.62968 68.6006 1.62968H66.3793V8.24618ZM67.1355 7.53727V2.33859H68.6006C69.9711 2.33859 71.0109 3.37833 71.0109 4.93793C71.0109 6.49754 69.9711 7.53727 68.6006 7.53727H67.1355Z" fill="#828282"/>
<path d="M73.6593 8.24618H72.9504V3.52011H73.6593V8.24618Z" fill="#828282"/>
<path d="M73.7066 2.52763H72.9031V1.7242H73.7066V2.52763Z" fill="#828282"/>
<path d="M75.0262 8.24618H75.7351V5.2215C75.7351 4.55985 76.1132 4.18176 76.7748 4.18176H77.4837V3.52011H76.6803C76.1604 3.52011 75.9714 3.70915 75.7823 3.99272H75.7351L75.6406 3.52011H75.0262V8.24618Z" fill="#828282"/>
<path fill-rule="evenodd" clip-rule="evenodd" d="M82.071 6.92288C81.7402 7.82084 81.0312 8.34071 80.0388 8.34071C78.7627 8.34071 77.7703 7.34823 77.7703 5.88315C77.7703 4.41806 78.7627 3.42559 80.0388 3.42559C81.2675 3.42559 82.2128 4.3708 82.2128 5.6941C82.2128 6.07219 82.1655 6.21397 82.1655 6.21397H78.4792C78.5737 7.11193 79.2448 7.67906 80.0388 7.67906C80.6059 7.67906 81.0785 7.39549 81.3148 6.92288H82.071ZM80.0388 4.08724C79.1881 4.08724 78.5737 4.70163 78.4792 5.55232H81.5039C81.4566 4.70163 80.8422 4.08724 80.0388 4.08724Z" fill="#828282"/>
<path d="M85.2356 8.34071C86.2753 8.34071 87.0788 7.72632 87.3151 6.68658H86.6062C86.4171 7.34823 85.8973 7.67906 85.2356 7.67906C84.3849 7.67906 83.676 6.97014 83.676 5.88315C83.676 4.79615 84.3849 4.08724 85.2356 4.08724C85.8973 4.08724 86.4171 4.41806 86.6062 5.03245H87.3151C87.0788 4.03998 86.2753 3.42559 85.2356 3.42559C83.9596 3.42559 82.9671 4.41806 82.9671 5.88315C82.9671 7.34823 83.9596 8.34071 85.2356 8.34071Z" fill="#828282"/>
<path d="M90.3896 8.24618H89.4444C88.9245 8.24618 88.5937 7.91536 88.5937 7.44275V4.18176H87.8375V3.52011H88.5937V2.19681H89.3026V3.52011H90.3896V4.18176H89.3026V7.30097C89.3026 7.49001 89.3971 7.58453 89.5862 7.58453H90.3896V8.24618Z" fill="#828282"/>
</svg>
