<svg width="2817" height="2817" viewBox="0 0 2817 2817" fill="none" xmlns="http://www.w3.org/2000/svg">
<path d="M2271.13 1.81237C1977.74 3.38028 1888.42 6.51609 1884.06 14.3556C1874.62 30.8186 1876.8 461.993 1886.96 472.968C1893.5 480.023 1942.88 482.375 2064.89 482.375H2234.1V1621.46C2234.1 2497.13 2236.27 2762.89 2242.81 2769.95C2255.16 2783.28 2786.75 2783.28 2799.09 2769.95C2809.99 2758.19 2811.44 30.8186 2800.54 12.0038C2792.56 -2.10739 2807.08 -1.32344 2271.13 1.81237Z" fill="#00BFD9"/>
<path d="M612.202 479.197C604.94 483.901 602.761 559.16 601.309 795.13L599.13 1104.01L309.369 1106.36C110.385 1107.14 16.703 1111.06 9.44083 1116.55C2.17865 1123.61 0 1170.64 0 1342.33C0 1464.62 2.90487 1564.19 7.26218 1570.46C13.0719 1580.65 55.9188 1582.22 308.643 1584.57L602.761 1586.92V1898.93C602.761 2177.24 604.213 2212.52 614.38 2216.43C620.916 2218.79 716.051 2221.14 827.162 2221.14C973.858 2221.14 1030.5 2218.79 1037.04 2211.73C1043.58 2204.68 1045.75 2123.14 1045.75 1894.23V1586.14H1329.71C1511.26 1586.14 1618.01 1583 1627.45 1578.3C1640.53 1570.46 1641.25 1559.48 1641.25 1343.9C1641.25 1144.77 1639.8 1116.55 1629.63 1112.63C1623.1 1110.28 1489.47 1107.93 1331.88 1107.93H1045.75V798.266C1045.75 500.364 1045.03 488.605 1031.96 480.765C1015.25 471.358 626 469.79 612.202 479.197Z" fill="#00BFD9"/>
</svg>
