<svg xmlns="http://www.w3.org/2000/svg" width="69" height="108" viewBox="0 0 69 108">
    <defs>
        <filter id="a" width="106.5%" height="106.5%" x="-3.3%" y="-3.3%" filterUnits="objectBoundingBox">
            <feOffset dx="1" dy="2" in="SourceAlpha" result="shadowOffsetOuter1"/>
            <feColorMatrix in="shadowOffsetOuter1" result="shadowMatrixOuter1" values="0 0 0 0 0.7 0 0 0 0 0.7 0 0 0 0 0.7 0 0 0 1 0"/>
            <feMerge>
                <feMergeNode in="shadowMatrixOuter1"/>
                <feMergeNode in="SourceGraphic"/>
            </feMerge>
        </filter>
    </defs>
    <g fill="none" fill-rule="evenodd" filter="url(#a)" transform="translate(.75 .5)">
        <path fill="#FFF" fill-rule="nonzero" stroke="#7A7F80" stroke-width=".974" d="M59.181 0H7.086A7.088 7.088 0 0 0 0 7.086v57.59c0 7.998 1.893 15.76 6.928 21.97l14.396 17.781c.28.345.701.545 1.146.545H43.8c.444 0 .864-.2 1.143-.545l14.398-17.782c5.033-6.215 6.928-13.971 6.928-21.969V7.086A7.088 7.088 0 0 0 59.181 0z"/>
        <path fill="#D8D9DA" fill-rule="nonzero" d="M60.274 66.297V8.92a3.91 3.91 0 0 0-3.919-3.91H9.985a3.91 3.91 0 0 0-3.91 3.91v57.403c0 4.376 1.04 8.69 3.036 12.585l2.72 5.305-4.11 3.408 13.603 16.802c.28.345.701.545 1.146.545H43.8c.444 0 .864-.2 1.143-.545L58.55 87.62l-4.075-3.387 2.733-5.31a27.588 27.588 0 0 0 3.067-12.627z"/>
        <path fill="#D8D9DA" fill-rule="nonzero" d="M8.898 10.293c-.528 0-1.04-.186-1.444-.528L3.346 6.29a2.236 2.236 0 0 1 2.888-3.407l4.11 3.476a2.236 2.236 0 0 1-1.446 3.944v-.009z"/>
        <rect width="47.205" height="47.205" x="9.531" y="15.313" fill="#7A7F80" fill-rule="nonzero" rx="3.128"/>
        <rect width="47.205" height="47.205" x="9.531" y="20.169" fill="#FFF" fill-rule="nonzero" rx="3.128"/>
        <rect width="46.353" height="46.353" x="9.957" y="18.363" fill="#C6E2BA" fill-rule="nonzero" rx="2.641"/>
        <path fill="#7A7F80" fill-rule="nonzero" d="M54 18.79a1.89 1.89 0 0 1 1.886 1.886v41.728A1.89 1.89 0 0 1 54 64.289H12.268a1.887 1.887 0 0 1-1.885-1.885V20.676c0-1.041.843-1.886 1.885-1.887h41.731m0-.852H12.268a2.739 2.739 0 0 0-2.737 2.74v41.727a2.739 2.739 0 0 0 2.737 2.74h41.731a2.739 2.739 0 0 0 2.74-2.74V20.676a2.739 2.739 0 0 0-2.74-2.739z"/>
        <path stroke="#7A7F80" stroke-width=".974" d="M59.181 0H7.086A7.088 7.088 0 0 0 0 7.086v57.59c0 7.998 1.893 15.76 6.928 21.97l14.396 17.781c.28.345.701.545 1.146.545H43.8c.444 0 .864-.2 1.143-.545l14.398-17.782c5.033-6.215 6.928-13.971 6.928-21.969V7.086A7.088 7.088 0 0 0 59.181 0z"/>
        <path fill="#E1EEDC" fill-rule="nonzero" d="M55.44 62.125v-27.59L26.106 63.867h27.59c.962 0 1.742-.78 1.742-1.742z"/>
    </g>
</svg>
