<svg xmlns="http://www.w3.org/2000/svg" width="650" height="650" fill="none" viewBox="0 0 650 650">
    <path fill="url(#paint0_radial)" fill-rule="evenodd" d="M25.303 12.744C20.694 4.937 11.23 0 .875 0v.737C10.9.737 20.058 5.515 24.52 13.072l15.922 26.97H0v.98h41.02l2.331 3.95c5.99 10.148 18.29 16.564 31.75 16.564h27.458l17.438 27.15c6.219 9.683 18.24 15.715 31.315 15.715h75.117l3.123 4.863c6.193 9.642 18.167 15.651 31.188 15.651h37.569l14.901 24.648c6.075 10.047 18.335 16.375 31.727 16.375h75.288l2.542 4.205c6.05 10.006 18.26 16.309 31.597 16.309h32.877l20.144 31.517c6.207 9.712 18.249 15.769 31.35 15.769h1.838v-.98h-1.838c-12.672 0-24.321-5.859-30.324-15.253l-19.848-31.053h74.42c12.725 0 24.421 5.883 30.451 15.317l23.506 36.777c6.182 9.673 18.175 15.706 31.222 15.706H650v-.737h-1.838c-12.725 0-24.422-5.884-30.451-15.317l-23.506-36.779c-6.182-9.673-18.175-15.704-31.222-15.704h-74.891l-3.188-4.989c-6.207-9.711-18.249-15.768-31.349-15.768h-32.941l-14.795-24.472c-6.051-10.006-18.26-16.308-31.597-16.308H299.17l-2.651-4.382c-6.074-10.048-18.333-16.375-31.725-16.375h-37.999l-17.324-26.97c-6.192-9.643-18.166-15.652-31.187-15.652H103.41l-3.239-5.042c-6.219-9.681-18.24-15.715-31.315-15.715H41.418L25.303 12.744zm16.694 28.279l2.138 3.621C49.978 54.541 61.973 60.8 75.101 60.8h26.985l-2.939-4.575c-6.015-9.365-17.644-15.201-30.29-15.201h-26.86zm61.885 20.513l17.139 26.685c6.015 9.364 17.644 15.2 30.291 15.2h74.487l-17.097-26.62c-6.041-9.404-17.719-15.265-30.418-15.265h-74.402zm123.542 42.865l2.898 4.513c6.04 9.404 17.718 15.264 30.418 15.264h37.123l-2.381-3.938c-5.876-9.718-17.734-15.839-30.688-15.839h-37.37zm72.191 20.514l14.634 24.204c5.875 9.718 17.733 15.839 30.688 15.839h74.695l-14.593-24.137c-5.901-9.76-17.809-15.906-30.817-15.906h-74.607zm121.592 41.023l2.34 3.871c5.901 9.76 17.809 15.906 30.817 15.906h32.406l-2.891-4.524c-6.004-9.394-17.652-15.253-30.324-15.253h-32.348zM41.02 106.981H0v-.98h40.441L24.519 79.03C20.058 71.473 10.899 66.695.875 66.695v-.737c10.356 0 19.819 4.937 24.428 12.744L41.419 106h27.437c13.075 0 25.096 6.033 31.315 15.715l3.238 5.042h74.875c13.021 0 24.995 6.008 31.187 15.651l17.324 26.97h37.999c13.392 0 25.651 6.328 31.725 16.375l2.651 4.382h75.052c13.337 0 25.546 6.302 31.597 16.308l14.795 24.472h32.941c13.1 0 25.142 6.057 31.349 15.769l3.188 4.987h74.891c13.047 0 25.04 6.033 31.222 15.706l23.506 36.777c6.029 9.434 17.726 15.318 30.451 15.318H650v.737h-1.838c-13.047 0-25.04-6.032-31.222-15.705l-23.506-36.779c-6.03-9.433-17.726-15.317-30.451-15.317h-74.42l19.848 31.054c6.003 9.395 17.652 15.253 30.324 15.253h1.838v.981h-1.838c-13.101 0-25.143-6.058-31.35-15.769l-20.144-31.519h-32.877c-13.337 0-25.547-6.301-31.597-16.308l-2.542-4.205h-75.288c-13.392 0-25.652-6.328-31.727-16.374l-14.902-24.649H260.74c-13.021 0-24.995-6.009-31.188-15.651l-3.123-4.862h-75.117c-13.075 0-25.096-6.033-31.315-15.715l-17.438-27.15H75.101c-13.46 0-25.76-6.417-31.75-16.565l-2.331-3.949zm.977 0l2.138 3.622c5.843 9.896 17.838 16.155 30.966 16.155h26.985l-2.939-4.576c-6.015-9.365-17.644-15.201-30.29-15.201h-26.86zm61.885 20.514l17.139 26.684c6.015 9.365 17.644 15.2 30.291 15.2h74.487l-17.097-26.62c-6.041-9.404-17.719-15.264-30.418-15.264h-74.402zm123.542 42.865l2.898 4.512c6.04 9.404 17.718 15.264 30.418 15.264h37.123l-2.381-3.937c-5.876-9.719-17.734-15.839-30.688-15.839h-37.37zm72.191 20.513l14.634 24.204c5.875 9.718 17.733 15.839 30.688 15.839h74.695l-14.593-24.137c-5.901-9.76-17.809-15.906-30.817-15.906h-74.607zm121.592 41.023l2.34 3.871c5.901 9.759 17.809 15.905 30.817 15.905h32.406l-2.891-4.523c-6.004-9.394-17.652-15.253-30.324-15.253h-32.348zM41.02 172.939H0v-.98h40.441L24.52 144.988c-4.461-7.557-13.62-12.335-23.644-12.335v-.737c10.356 0 19.819 4.936 24.428 12.743l16.116 27.3h27.437c13.075 0 25.096 6.033 31.315 15.714l3.238 5.042h74.875c13.021 0 24.995 6.008 31.187 15.651l17.324 26.972h37.999c13.392 0 25.651 6.327 31.725 16.375l2.65 4.381h75.053c13.337 0 25.546 6.301 31.597 16.308l14.795 24.471h32.941c13.1 0 25.142 6.058 31.349 15.77l3.188 4.987h74.891c13.047 0 25.04 6.033 31.222 15.705l23.506 36.779c6.029 9.433 17.726 15.317 30.451 15.317H650v.737h-1.838c-13.047 0-25.04-6.033-31.222-15.706l-23.506-36.777c-6.03-9.434-17.726-15.318-30.451-15.318h-74.42l19.848 31.054c6.003 9.394 17.652 15.254 30.324 15.254h1.838v.98h-1.838c-13.101 0-25.143-6.057-31.35-15.77l-20.144-31.518h-32.877c-13.337 0-25.547-6.301-31.597-16.308l-2.542-4.205h-75.288c-13.392 0-25.652-6.327-31.727-16.375l-14.902-24.648H260.74c-13.021 0-24.995-6.009-31.188-15.651l-3.123-4.862h-75.117c-13.075 0-25.096-6.034-31.315-15.715l-17.438-27.151H75.101c-13.46 0-25.76-6.416-31.75-16.563l-2.331-3.95zm.977 0l2.138 3.621c5.843 9.897 17.838 16.155 30.966 16.155h26.984l-2.938-4.575c-6.015-9.365-17.644-15.201-30.29-15.201h-26.86zm61.885 20.513l17.139 26.685c6.015 9.365 17.644 15.201 30.291 15.201h74.487l-17.097-26.621c-6.041-9.404-17.719-15.265-30.418-15.265h-74.402zm123.542 42.866l2.898 4.511c6.04 9.404 17.718 15.265 30.418 15.265h37.123l-2.381-3.937c-5.876-9.719-17.734-15.839-30.688-15.839h-37.37zm72.191 20.513l14.634 24.204c5.875 9.719 17.733 15.838 30.688 15.838h74.695l-14.593-24.137c-5.901-9.759-17.809-15.905-30.817-15.905h-74.607zm121.592 41.023l2.34 3.871c5.901 9.759 17.809 15.905 30.817 15.905h32.406l-2.891-4.522c-6.004-9.395-17.652-15.254-30.324-15.254h-32.348zM41.019 238.897H0v-.98h40.44L24.52 210.946c-4.461-7.557-13.62-12.335-23.644-12.335v-.737c10.356 0 19.819 4.937 24.428 12.744l16.115 27.299h27.438c13.075 0 25.096 6.033 31.315 15.715l3.239 5.042h74.874c13.021 0 24.995 6.009 31.187 15.651l17.324 26.97h37.999c13.392 0 25.651 6.328 31.725 16.375l2.651 4.382h75.052c13.337 0 25.546 6.302 31.597 16.309l14.795 24.471h32.941c13.1 0 25.142 6.057 31.349 15.768l3.188 4.989h74.891c13.047 0 25.04 6.032 31.222 15.705l23.506 36.778c6.029 9.434 17.726 15.317 30.451 15.317H650v.737h-1.838c-13.047 0-25.04-6.033-31.222-15.705l-23.506-36.778c-6.03-9.434-17.726-15.317-30.451-15.317h-74.419l19.847 31.053c6.003 9.394 17.652 15.253 30.324 15.253h1.838v.98h-1.838c-13.101 0-25.143-6.057-31.35-15.768l-20.144-31.518h-32.877c-13.337 0-25.547-6.302-31.597-16.308l-2.543-4.206h-75.287c-13.392 0-25.652-6.327-31.727-16.375l-14.901-24.648H260.74c-13.021 0-24.995-6.008-31.188-15.651l-3.124-4.863h-75.116c-13.075 0-25.096-6.032-31.315-15.714l-17.438-27.15H75.101c-13.46 0-25.76-6.417-31.75-16.564l-2.332-3.95zm.978 0l2.138 3.622c5.843 9.897 17.838 16.155 30.966 16.155h26.985l-2.939-4.576c-6.015-9.365-17.644-15.201-30.29-15.201h-26.86zm61.886 20.514l17.138 26.684c6.015 9.365 17.644 15.2 30.291 15.2h74.487l-17.097-26.62c-6.041-9.404-17.719-15.264-30.418-15.264h-74.401zm123.541 42.864l2.898 4.513c6.04 9.404 17.718 15.264 30.418 15.264h37.123l-2.381-3.938c-5.876-9.718-17.734-15.839-30.688-15.839h-37.37zm72.191 20.514l14.634 24.204c5.875 9.718 17.733 15.839 30.688 15.839h74.695l-14.593-24.137c-5.901-9.76-17.809-15.906-30.817-15.906h-74.607zm121.592 41.023l2.34 3.871c5.901 9.76 17.809 15.906 30.817 15.906h32.406l-2.891-4.524c-6.004-9.394-17.652-15.253-30.324-15.253h-32.348zM41.019 304.855H0v-.98h40.44L24.52 276.904c-4.461-7.556-13.62-12.335-23.644-12.335v-.737c10.356 0 19.819 4.937 24.428 12.744l16.115 27.299h27.438c13.075 0 25.096 6.033 31.315 15.714l3.239 5.042h74.874c13.021 0 24.995 6.009 31.187 15.652l17.324 26.971h37.999c13.392 0 25.651 6.326 31.725 16.374l2.651 4.382h75.052c13.337 0 25.546 6.302 31.597 16.308l14.795 24.472h32.941c13.1 0 25.142 6.057 31.349 15.769l3.188 4.987h74.891c13.047 0 25.04 6.033 31.222 15.706l23.506 36.777c6.029 9.434 17.726 15.318 30.451 15.318H650v.737h-1.838c-13.047 0-25.04-6.032-31.222-15.705L593.434 465.6c-6.03-9.433-17.726-15.317-30.451-15.317h-74.42l19.848 31.054c6.003 9.395 17.652 15.253 30.324 15.253h1.838v.981h-1.838c-13.101 0-25.143-6.058-31.35-15.77l-20.144-31.518h-32.877c-13.337 0-25.547-6.301-31.597-16.308l-2.542-4.205h-75.288c-13.392 0-25.652-6.327-31.727-16.374l-14.901-24.649H260.74c-13.021 0-24.995-6.009-31.188-15.651l-3.123-4.862h-75.117c-13.075 0-25.096-6.034-31.315-15.715l-17.438-27.151H75.101c-13.46 0-25.76-6.416-31.75-16.564l-2.331-3.949zm.978 0l2.138 3.622c5.843 9.897 17.838 16.154 30.966 16.154h26.985l-2.939-4.575c-6.015-9.365-17.644-15.201-30.29-15.201h-26.86zm61.885 20.513l17.139 26.684c6.015 9.366 17.644 15.202 30.291 15.202h74.487l-17.097-26.621c-6.041-9.404-17.719-15.265-30.418-15.265h-74.402zm123.542 42.866l2.898 4.512c6.04 9.404 17.718 15.264 30.418 15.264h37.123l-2.381-3.937c-5.876-9.719-17.734-15.839-30.688-15.839h-37.37zm72.191 20.513l14.634 24.203c5.875 9.72 17.733 15.84 30.688 15.84h74.695l-14.593-24.138c-5.901-9.759-17.809-15.905-30.817-15.905h-74.607zm121.592 41.023l2.34 3.871c5.901 9.759 17.809 15.905 30.817 15.905h32.406l-2.891-4.523c-6.004-9.394-17.652-15.253-30.324-15.253h-32.348zM41.02 370.814H0v-.981h40.441l-15.922-26.971c-4.461-7.557-13.62-12.334-23.644-12.334v-.737c10.356 0 19.819 4.936 24.428 12.743l16.116 27.299h27.437c13.075 0 25.096 6.033 31.315 15.715l3.238 5.041h74.875c13.021 0 24.995 6.009 31.187 15.651l17.324 26.972h37.999c13.392 0 25.651 6.327 31.725 16.375l2.651 4.382h75.052c13.337 0 25.546 6.301 31.597 16.308l14.795 24.471h32.941c13.1 0 25.142 6.058 31.349 15.769l3.188 4.987h74.891c13.047 0 25.04 6.033 31.222 15.706l23.506 36.778c6.029 9.433 17.726 15.317 30.451 15.317H650v.737h-1.838c-13.047 0-25.04-6.032-31.222-15.705l-23.506-36.778c-6.03-9.434-17.726-15.318-30.451-15.318h-74.42l19.848 31.055c6.003 9.394 17.652 15.253 30.324 15.253h1.838v.98h-1.838c-13.101 0-25.143-6.057-31.35-15.77l-20.144-31.518h-32.877c-13.337 0-25.547-6.301-31.597-16.308l-2.542-4.204h-75.288c-13.392 0-25.652-6.328-31.727-16.375l-14.902-24.649H260.74c-13.021 0-24.995-6.008-31.188-15.651l-3.123-4.862h-75.117c-13.075 0-25.096-6.033-31.315-15.715l-17.438-27.151H75.101c-13.46 0-25.76-6.416-31.75-16.563l-2.331-3.949zm.977 0l2.138 3.621c5.843 9.897 17.838 16.154 30.966 16.154h26.985l-2.939-4.575c-6.015-9.364-17.644-15.2-30.29-15.2h-26.86zm61.885 20.512l17.139 26.686c6.015 9.364 17.644 15.2 30.291 15.2h74.487l-17.097-26.621c-6.041-9.404-17.719-15.265-30.418-15.265h-74.402zm123.542 42.866l2.898 4.511c6.04 9.405 17.718 15.266 30.418 15.266h37.123l-2.381-3.938c-5.876-9.718-17.734-15.839-30.688-15.839h-37.37zm72.191 20.513l14.634 24.204c5.875 9.719 17.733 15.839 30.688 15.839h74.695l-14.593-24.137c-5.901-9.76-17.809-15.906-30.817-15.906h-74.607zm121.592 41.024l2.34 3.87c5.901 9.759 17.809 15.905 30.817 15.905h32.406l-2.891-4.522c-6.004-9.395-17.652-15.253-30.324-15.253h-32.348zM41.02 436.771H0v-.98h40.441L24.52 408.82c-4.461-7.557-13.62-12.335-23.644-12.335v-.737c10.356 0 19.819 4.937 24.428 12.744l16.116 27.299h27.437c13.075 0 25.096 6.033 31.315 15.715l3.238 5.042h74.875c13.021 0 24.995 6.008 31.187 15.651l17.324 26.971h37.999c13.392 0 25.651 6.327 31.725 16.375l2.65 4.381h75.053c13.337 0 25.546 6.302 31.597 16.308l14.796 24.472h32.94c13.1 0 25.142 6.057 31.349 15.769l3.188 4.988h74.891c13.047 0 25.04 6.032 31.222 15.704l23.506 36.779c6.029 9.433 17.726 15.317 30.451 15.317H650V650h-1.838c-13.047 0-25.04-6.033-31.222-15.705l-23.506-36.778c-6.03-9.434-17.726-15.317-30.451-15.317h-74.42l19.848 31.053c6.003 9.394 17.652 15.254 30.324 15.254h1.838v.979h-1.838c-13.101 0-25.143-6.056-31.35-15.768L487.241 582.2h-32.877c-13.337 0-25.547-6.303-31.597-16.309l-2.542-4.205h-75.288c-13.392 0-25.652-6.327-31.727-16.375l-14.902-24.648H260.74c-13.021 0-24.995-6.009-31.188-15.651l-3.123-4.862h-75.117c-13.075 0-25.096-6.033-31.315-15.715l-17.438-27.15H75.101c-13.46 0-25.76-6.417-31.75-16.565l-2.331-3.949zm.977 0l2.138 3.622c5.843 9.896 17.838 16.155 30.966 16.155h26.984l-2.938-4.576c-6.015-9.365-17.644-15.201-30.29-15.201h-26.86zm61.885 20.514l17.139 26.684c6.015 9.365 17.644 15.201 30.291 15.201h74.487l-17.097-26.621c-6.041-9.405-17.719-15.264-30.418-15.264h-74.402zm123.542 42.865l2.898 4.512c6.04 9.404 17.718 15.264 30.418 15.264h37.123l-2.381-3.937c-5.876-9.719-17.734-15.839-30.688-15.839h-37.37zm72.191 20.513l14.634 24.204c5.875 9.719 17.733 15.839 30.688 15.839h74.695l-14.593-24.137c-5.901-9.76-17.809-15.906-30.817-15.906h-74.607zm121.592 41.023l2.34 3.871c5.901 9.76 17.809 15.906 30.817 15.906h32.406l-2.891-4.524c-6.004-9.394-17.652-15.253-30.324-15.253h-32.348z" clip-rule="evenodd" opacity=".3"/>
    <defs>
        <radialGradient id="paint0_radial" cx="0" cy="0" r="1" gradientTransform="rotate(90 0 325) scale(325)" gradientUnits="userSpaceOnUse">
            <stop stop-color="#7A7A7A"/>
            <stop offset=".62" stop-color="#7C7C7C" stop-opacity=".49"/>
            <stop offset="1" stop-color="#7D7D7D" stop-opacity="0"/>
        </radialGradient>
    </defs>
</svg>
