<svg xmlns="http://www.w3.org/2000/svg" width="360" height="280" viewBox="0 0 360 280">
    <g fill="none" fill-rule="evenodd">
        <path fill="#7A7F80" fill-rule="nonzero" d="M247.37 81.316H113.168v32.22H247.37v-32.22zm-1.665 1.664v28.891H114.832V82.98h130.873z"/>
        <circle cx="129.304" cy="97.427" r="3.462" fill="#8FCB7F" fill-rule="nonzero"/>
        <circle cx="146.347" cy="97.427" r="3.462" fill="#8FCB7F" fill-rule="nonzero"/>
        <circle cx="163.39" cy="97.427" r="3.462" fill="#8FCB7F" fill-rule="nonzero"/>
        <circle cx="180.433" cy="97.427" r="3.462" fill="#8FCB7F" fill-rule="nonzero"/>
        <circle cx="197.476" cy="97.427" r="3.462" fill="#8FCB7F" fill-rule="nonzero"/>
        <circle cx="214.519" cy="97.427" r="3.462" fill="#8FCB7F" fill-rule="nonzero"/>
        <circle cx="231.462" cy="97.427" r="3.462" fill="#8FCB7F" fill-rule="nonzero"/>
        <path fill="#D8D9DA" fill-rule="nonzero" d="M183.334 202.512v37.385h-6.12v-37.385z"/>
        <path fill="#BEBDC0" fill-rule="nonzero" d="M170.608 162.595h19.335v36.22h-19.335zM183.32 208.087l.017 26.896-6.12.004-.017-26.896z"/>
        <path fill="#D8D9DA" fill-rule="nonzero" d="M173.965 189.897h12.618v36.907h-12.618z"/>
        <path fill="#7A7F80" fill-rule="nonzero" d="M186.026 190.453v35.795h-11.504v-35.795h11.504m1.113-1.112h-13.73v38.02h13.73v-38.02z"/>
        <path fill="#D8D9DA" fill-rule="nonzero" d="M169.081 180.147h22.387v33.235h-22.387z"/>
        <path fill="#7A7F80" fill-rule="nonzero" d="M190.914 180.704v32.122h-21.277v-32.122h21.277m1.112-1.113h-23.502v34.348h23.502V179.59z"/>
        <path fill="#FFF" fill-rule="nonzero" d="M186.235 210.837h2.13v-25.213a2.13 2.13 0 0 0-2.13-2.13v27.343zM179.14 225.894h6.46v-6.464a6.465 6.465 0 0 0-6.46 6.464z"/>
        <path fill="#D8D9DA" fill-rule="nonzero" d="M167.874 176.852a7.996 7.996 0 0 1-7.355-4.847l-8.452-19.673a54.87 54.87 0 0 1-4.482-21.781V67.442a13.156 13.156 0 0 1 10.718-12.913 113.789 113.789 0 0 1 41.889 0 13.156 13.156 0 0 1 10.718 12.913v63.15a54.894 54.894 0 0 1-4.491 21.807l-8.44 19.617a7.999 7.999 0 0 1-7.356 4.845l-22.749-.01z"/>
        <path fill="#7A7F80" fill-rule="nonzero" d="M179.247 53.17c6.99 0 13.966.648 20.837 1.935a12.551 12.551 0 0 1 10.232 12.337v63.15c0 7.42-1.512 14.76-4.444 21.576l-8.44 19.617a7.422 7.422 0 0 1-6.818 4.49h-22.74a7.425 7.425 0 0 1-6.82-4.493l-8.452-19.681a54.609 54.609 0 0 1-4.433-21.55V67.442a12.551 12.551 0 0 1 10.233-12.337 113.215 113.215 0 0 1 20.845-1.936m0-1.169c-7.062.002-14.108.656-21.05 1.956A13.741 13.741 0 0 0 147 67.442v63.109a55.435 55.435 0 0 0 4.529 22.02l8.452 19.664a8.588 8.588 0 0 0 7.893 5.202h22.749a8.58 8.58 0 0 0 7.894-5.199l8.44-19.617a55.42 55.42 0 0 0 4.54-22.038v-63.15A13.74 13.74 0 0 0 200.3 53.957 114.555 114.555 0 0 0 179.247 52z"/>
        <rect width="51.452" height="28.771" x="153.523" y="82.882" fill="#BEBDC0" fill-rule="nonzero" rx="3.041"/>
        <rect width="21.629" height="11.411" x="153.084" y="117.246" fill="#D8D9DA" fill-rule="nonzero" rx="2.389"/>
        <path fill="#7A7F80" fill-rule="nonzero" d="M172.324 117.684a1.95 1.95 0 0 1 1.95 1.95v6.625a1.95 1.95 0 0 1-1.95 1.95h-16.846a1.95 1.95 0 0 1-1.955-1.95v-6.625a1.947 1.947 0 0 1 1.955-1.95h16.846m0-.877h-16.846a2.83 2.83 0 0 0-2.827 2.827v6.625a2.83 2.83 0 0 0 2.827 2.836h16.846a2.83 2.83 0 0 0 2.827-2.836v-6.625a2.83 2.83 0 0 0-2.827-2.827z"/>
        <rect width="21.629" height="11.411" x="183.782" y="117.246" fill="#D8D9DA" fill-rule="nonzero" rx="2.389"/>
        <path fill="#7A7F80" fill-rule="nonzero" d="M203.022 117.684a1.947 1.947 0 0 1 1.95 1.95v6.625a1.95 1.95 0 0 1-1.95 1.95h-16.846a1.95 1.95 0 0 1-1.95-1.95v-6.625a1.95 1.95 0 0 1 1.95-1.95h16.852m0-.877h-16.852a2.83 2.83 0 0 0-2.827 2.827v6.625a2.83 2.83 0 0 0 2.827 2.836h16.852a2.83 2.83 0 0 0 2.827-2.827v-6.634a2.83 2.83 0 0 0-2.827-2.827z"/>
        <path fill="#000" fill-rule="nonzero" d="M201.934 82.297h-45.37a3.625 3.625 0 0 0-3.626 3.625v22.69a3.625 3.625 0 0 0 3.625 3.626h45.371a3.625 3.625 0 0 0 3.625-3.626v-22.69a3.625 3.625 0 0 0-3.625-3.625zm-45.37 1.17h45.37c1.357 0 2.456 1.1 2.456 2.455v22.69c0 1.357-1.1 2.456-2.456 2.456h-45.37a2.456 2.456 0 0 1-2.457-2.456v-22.69c0-1.356 1.1-2.455 2.456-2.455z"/>
        <path fill="#FFF" fill-rule="nonzero" d="M151.26 62.96l4.763-4.762 2.2 2.2-4.764 4.763zM201.934 111.068v1.17H156.56v-1.17zM172.324 117.246v.877h-16.851v-.877zM203.022 117.246v.877H186.17v-.877z"/>
        <path fill="#FFF" fill-rule="nonzero" d="M179.247 54.631c6.9.002 13.785.641 20.568 1.91a11.11 11.11 0 0 1 9.048 10.901v63.15a52.807 52.807 0 0 1-4.327 20.997l-8.437 19.62a5.96 5.96 0 0 1-5.476 3.605h-22.749a5.957 5.957 0 0 1-5.475-3.608l-8.453-19.681a52.856 52.856 0 0 1-4.315-20.974V67.442a11.11 11.11 0 0 1 9.063-10.902 112.108 112.108 0 0 1 20.553-1.909m0-1.462c-6.993 0-13.971.648-20.845 1.936a12.551 12.551 0 0 0-10.233 12.337v63.109c0 7.41 1.509 14.742 4.433 21.55l8.452 19.673a7.425 7.425 0 0 0 6.82 4.493h22.749a7.422 7.422 0 0 0 6.818-4.49l8.44-19.618a54.593 54.593 0 0 0 4.444-21.576v-63.15a12.551 12.551 0 0 0-10.233-12.337 113.208 113.208 0 0 0-20.845-1.927z"/>
        <path fill="#D8D9DA" fill-rule="nonzero" d="M163.43 174.79a7.406 7.406 0 0 0 4.444 1.483h22.749a7.423 7.423 0 0 0 6.818-4.49l8.44-19.618a54.593 54.593 0 0 0 4.444-21.576l-46.894 44.202z"/>
        <path fill="#FFF" fill-rule="nonzero" d="M158.402 59.359a113.087 113.087 0 0 1 41.673 0c4.476.839 8.77 4.031 8.77 8.083h1.462a12.551 12.551 0 0 0-10.232-12.337 113.087 113.087 0 0 0-41.673 0 12.551 12.551 0 0 0-10.233 12.337h1.462c0-4.09 4.3-7.256 8.771-8.083z"/>
        <path fill="#D8D9DA" fill-rule="nonzero" d="M167.874 176.852a7.996 7.996 0 0 1-7.355-4.847l-8.452-19.673a54.87 54.87 0 0 1-4.482-21.781V67.442a13.156 13.156 0 0 1 10.718-12.913 113.789 113.789 0 0 1 41.889 0 13.156 13.156 0 0 1 10.718 12.913v63.15a54.894 54.894 0 0 1-4.491 21.807l-8.44 19.617a7.999 7.999 0 0 1-7.356 4.845l-22.749-.01z"/>
        <path fill="#7A7F80" fill-rule="nonzero" d="M179.247 53.17c6.99 0 13.966.648 20.837 1.935a12.551 12.551 0 0 1 10.232 12.337v63.15c0 7.42-1.512 14.76-4.444 21.576l-8.44 19.617a7.422 7.422 0 0 1-6.818 4.49h-22.74a7.425 7.425 0 0 1-6.82-4.493l-8.452-19.681a54.609 54.609 0 0 1-4.433-21.55V67.442a12.551 12.551 0 0 1 10.233-12.337 113.215 113.215 0 0 1 20.845-1.936m0-1.169c-7.062.002-14.108.656-21.05 1.956A13.741 13.741 0 0 0 147 67.442v63.109a55.435 55.435 0 0 0 4.529 22.02l8.452 19.664a8.588 8.588 0 0 0 7.893 5.202h22.749a8.58 8.58 0 0 0 7.894-5.199l8.44-19.617a55.42 55.42 0 0 0 4.54-22.038v-63.15A13.74 13.74 0 0 0 200.3 53.957 114.555 114.555 0 0 0 179.247 52z"/>
        <path fill="#FFF" fill-rule="nonzero" d="M201.791 113.436h-45.09a3.178 3.178 0 0 1-3.178-3.18v-1.644h51.455v1.643a3.18 3.18 0 0 1-3.187 3.181z"/>
        <rect width="50.283" height="27.602" x="154.107" y="83.467" fill="#C6E2BA" fill-rule="nonzero" rx="2.456"/>
        <path fill="#7A7F80" fill-rule="nonzero" d="M201.934 84.051a1.871 1.871 0 0 1 1.868 1.871v22.69c0 1.033-.836 1.87-1.868 1.871H156.56a1.871 1.871 0 0 1-1.868-1.87v-22.7c0-1.032.836-1.869 1.868-1.87h45.374m0-1.17H156.56a3.038 3.038 0 0 0-3.037 3.04v22.69a3.04 3.04 0 0 0 3.037 3.038h45.374a3.04 3.04 0 0 0 3.038-3.04V85.914a3.038 3.038 0 0 0-3.038-3.04z"/>
        <path fill="#FFF" fill-rule="nonzero" d="M153.523 117.684h20.752v1.772h-20.752zM184.22 117.684h20.752v1.772H184.22z"/>
        <path fill="#7A7F80" fill-rule="nonzero" d="M172.324 117.684a1.95 1.95 0 0 1 1.95 1.95v6.625a1.95 1.95 0 0 1-1.95 1.95h-16.846a1.95 1.95 0 0 1-1.955-1.95v-6.625a1.947 1.947 0 0 1 1.955-1.95h16.846m0-.877h-16.846a2.83 2.83 0 0 0-2.827 2.827v6.625a2.83 2.83 0 0 0 2.827 2.836h16.846a2.83 2.83 0 0 0 2.827-2.836v-6.625a2.83 2.83 0 0 0-2.827-2.827zM203.022 117.684a1.947 1.947 0 0 1 1.95 1.95v6.625a1.95 1.95 0 0 1-1.95 1.95h-16.846a1.95 1.95 0 0 1-1.95-1.95v-6.625a1.95 1.95 0 0 1 1.95-1.95h16.852m0-.877h-16.852a2.83 2.83 0 0 0-2.827 2.827v6.625a2.83 2.83 0 0 0 2.827 2.836h16.852a2.83 2.83 0 0 0 2.827-2.827v-6.634a2.83 2.83 0 0 0-2.827-2.827z"/>
        <path fill="#FFF" fill-rule="nonzero" d="M150.978 62.68l4.763-4.764 2.762 2.762-4.763 4.763z"/>
        <path fill="#FFF" fill-rule="nonzero" d="M179.247 54.631c6.9.002 13.785.641 20.568 1.91a11.11 11.11 0 0 1 9.048 10.901v63.15a52.807 52.807 0 0 1-4.327 20.997l-8.437 19.62a5.96 5.96 0 0 1-5.476 3.605h-22.749a5.957 5.957 0 0 1-5.475-3.608l-8.453-19.681a52.856 52.856 0 0 1-4.315-20.974V67.442a11.11 11.11 0 0 1 9.063-10.902 112.108 112.108 0 0 1 20.553-1.909m0-1.462c-6.993 0-13.971.648-20.845 1.936a12.551 12.551 0 0 0-10.233 12.337v63.109c0 7.41 1.509 14.742 4.433 21.55l8.452 19.673a7.425 7.425 0 0 0 6.82 4.493h22.749a7.422 7.422 0 0 0 6.818-4.49l8.44-19.618a54.593 54.593 0 0 0 4.444-21.576v-63.15a12.551 12.551 0 0 0-10.233-12.337 113.208 113.208 0 0 0-20.845-1.927z"/>
        <path fill="#D8D9DA" fill-rule="nonzero" d="M163.43 174.79a7.406 7.406 0 0 0 4.444 1.483h22.749a7.423 7.423 0 0 0 6.818-4.49l8.44-19.618a54.593 54.593 0 0 0 4.444-21.576l-46.894 44.202z"/>
        <path fill="#FFF" fill-rule="nonzero" d="M158.402 59.359a113.087 113.087 0 0 1 41.673 0c4.476.839 8.77 4.031 8.77 8.083h1.462a12.551 12.551 0 0 0-10.232-12.337 113.087 113.087 0 0 0-41.673 0 12.551 12.551 0 0 0-10.233 12.337h1.462c0-4.09 4.3-7.256 8.771-8.083z"/>
        <path fill="#FFF" d="M170.146 95.974a1.803 1.803 0 0 1 2.537 0l5.221 5.162 12.4-12.27a1.808 1.808 0 0 1 2.537 0 1.764 1.764 0 0 1 0 2.504l-14.937 14.779-7.758-7.675a1.764 1.764 0 0 1 0-2.5z"/>
    </g>
</svg>
