<svg width="117" height="29" viewBox="0 0 117 29" fill="none" xmlns="http://www.w3.org/2000/svg">
<path d="M11.7447 13.5583L1.09766 24.8584C1.09866 24.8604 1.09866 24.8624 1.09966 24.8644C1.42566 26.0924 2.54666 26.9954 3.87666 26.9954C4.40866 26.9954 4.90766 26.8514 5.33566 26.5994L5.36966 26.5794L17.3537 19.6644L11.7447 13.5583Z" fill="white"/>
<path d="M22.5169 11.6344L22.5069 11.6274L17.3329 8.62744L11.5039 13.8144L17.3529 19.6624L22.4999 16.6934C23.4019 16.2064 24.0139 15.2554 24.0139 14.1584C24.0139 13.0694 23.4099 12.1224 22.5169 11.6344Z" fill="white"/>
<path d="M1.098 3.41138C1.034 3.64738 1 3.89438 1 4.15138V24.1184C1 24.3754 1.03266 24.6234 1.09766 24.8584L12.111 13.8474L1.098 3.41138Z" fill="white"/>
<path d="M11.8227 14.1344L17.3337 8.62541L5.36266 1.68541C4.92766 1.42441 4.42066 1.27441 3.87666 1.27441C2.54666 1.27441 1.42466 2.17941 1.09766 3.40841L1.098 3.41138L11.8227 14.1344Z" fill="white"/>
<path d="M1.09766 24.8584L11.7447 13.5583L17.3537 19.6644L5.36966 26.5794L5.33566 26.5994C4.90766 26.8514 4.40866 26.9954 3.87666 26.9954C2.54666 26.9954 1.42566 26.0924 1.09966 24.8644C1.09866 24.8624 1.09866 24.8604 1.09766 24.8584ZM1.09766 24.8584C1.03266 24.6234 1 24.3754 1 24.1184V4.15138C1 3.89438 1.034 3.64738 1.098 3.41138M1.09766 24.8584L12.111 13.8474L1.098 3.41138M1.098 3.41138L1.09766 3.40841C1.42466 2.17941 2.54666 1.27441 3.87666 1.27441C4.42066 1.27441 4.92766 1.42441 5.36266 1.68541L17.3337 8.62541L11.8227 14.1344L1.098 3.41138ZM22.5169 11.6344L22.5069 11.6274L17.3329 8.62744L11.5039 13.8144L17.3529 19.6624L22.4999 16.6934C23.4019 16.2064 24.0139 15.2554 24.0139 14.1584C24.0139 13.0694 23.4099 12.1224 22.5169 11.6344Z" stroke="black"/>
<path d="M59.1079 15.886C56.7559 15.886 54.8389 17.674 54.8389 20.139C54.8389 22.588 56.7559 24.392 59.1079 24.392C61.4599 24.392 63.3769 22.588 63.3769 20.139C63.3769 17.674 61.4599 15.886 59.1079 15.886ZM59.1079 22.717C57.8189 22.717 56.7069 21.654 56.7069 20.139C56.7069 18.608 57.8189 17.561 59.1079 17.561C60.3969 17.561 61.5079 18.608 61.5079 20.139C61.5079 21.653 60.3969 22.717 59.1079 22.717ZM49.7939 15.886C47.4419 15.886 45.5249 17.674 45.5249 20.139C45.5249 22.588 47.4419 24.392 49.7939 24.392C52.1459 24.392 54.0629 22.588 54.0629 20.139C54.0639 17.674 52.1459 15.886 49.7939 15.886ZM49.7939 22.717C48.5049 22.717 47.3939 21.654 47.3939 20.139C47.3939 18.608 48.5059 17.561 49.7939 17.561C51.0829 17.561 52.1939 18.608 52.1939 20.139C52.1949 21.653 51.0829 22.717 49.7939 22.717ZM38.7159 18.995H43.0339C42.9049 20.01 42.5669 20.751 42.0509 21.267C41.4229 21.895 40.4399 22.588 38.7159 22.588C36.0579 22.588 33.9799 20.445 33.9799 17.787C33.9799 15.129 36.0579 12.986 38.7159 12.986C40.1499 12.986 41.1969 13.55 41.9699 14.275L43.2429 13.002C42.1639 11.971 40.7299 11.181 38.7159 11.181C35.0749 11.181 32.0139 14.145 32.0139 17.786C32.0139 21.427 35.0749 24.391 38.7159 24.391C40.6809 24.391 42.1639 23.747 43.3239 22.538C44.5159 21.346 44.8869 19.67 44.8869 18.317C44.8869 17.898 44.8549 17.511 44.7899 17.189H38.7159V18.995ZM84.0239 18.592C83.6699 17.641 82.5899 15.885 80.3829 15.885C78.1919 15.885 76.3719 17.609 76.3719 20.138C76.3719 22.522 78.1759 24.391 80.5929 24.391C82.5419 24.391 83.6699 23.199 84.1369 22.506L82.6869 21.539C82.2039 22.248 81.5429 22.715 80.5929 22.715C79.6419 22.715 78.9659 22.28 78.5309 21.426L84.2179 19.074L84.0239 18.592ZM78.2239 20.01C78.1759 18.367 79.4969 17.529 80.4469 17.529C81.1879 17.529 81.8159 17.899 82.0259 18.431L78.2239 20.01ZM73.5999 24.134H75.4689V11.633H73.5999V24.134ZM70.5389 16.836H70.4749C70.0559 16.337 69.2509 15.885 68.2359 15.885C66.1089 15.885 64.1599 17.754 64.1599 20.154C64.1599 22.538 66.1089 24.391 68.2359 24.391C69.2509 24.391 70.0559 23.94 70.4749 23.424H70.5389V24.036C70.5389 25.663 69.6689 26.533 68.2669 26.533C67.1229 26.533 66.4139 25.711 66.1239 25.019L64.4969 25.696C64.9639 26.824 66.2049 28.209 68.2669 28.209C70.4579 28.209 72.3109 26.92 72.3109 23.779V16.143H70.5389V16.836ZM68.3969 22.717C67.1079 22.717 66.0289 21.638 66.0289 20.155C66.0289 18.657 67.1079 17.561 68.3969 17.561C69.6699 17.561 70.6679 18.656 70.6679 20.155C70.6679 21.637 69.6699 22.717 68.3969 22.717ZM92.7779 11.633H88.3069V24.134H90.1719V19.398H92.7769C94.8449 19.398 96.8779 17.901 96.8779 15.516C96.8779 13.131 94.8459 11.633 92.7779 11.633ZM92.8259 17.658H90.1719V13.373H92.8259C94.2209 13.373 95.0129 14.528 95.0129 15.516C95.0129 16.484 94.2209 17.658 92.8259 17.658ZM104.358 15.863C103.007 15.863 101.608 16.458 101.029 17.777L102.686 18.469C103.04 17.777 103.699 17.552 104.391 17.552C105.356 17.552 106.337 18.131 106.353 19.16V19.289C106.015 19.096 105.291 18.806 104.407 18.806C102.622 18.806 100.804 19.787 100.804 21.621C100.804 23.294 102.268 24.371 103.908 24.371C105.163 24.371 105.854 23.808 106.288 23.149H106.352V24.114H108.153V19.321C108.153 17.101 106.497 15.863 104.358 15.863ZM104.132 22.714C103.521 22.714 102.668 22.408 102.668 21.653C102.668 20.688 103.73 20.318 104.646 20.318C105.466 20.318 105.852 20.495 106.351 20.736C106.207 21.894 105.21 22.714 104.132 22.714ZM114.715 16.136L112.576 21.556H112.512L110.293 16.136H108.283L111.612 23.711L109.714 27.925H111.66L116.791 16.136H114.715ZM97.9079 24.134H99.7739V11.633H97.9079V24.134Z" fill="white"/>
<path d="M38.3469 3.925H35.4389V4.646H37.6179C37.5589 5.232 37.3239 5.693 36.9309 6.028C36.5369 6.363 36.0339 6.531 35.4389 6.531C34.7849 6.531 34.2319 6.305 33.7799 5.852C33.3359 5.391 33.1089 4.822 33.1089 4.134C33.1089 3.447 33.3359 2.877 33.7799 2.416C34.2319 1.964 34.7849 1.738 35.4389 1.738C35.7739 1.738 36.0929 1.796 36.3859 1.922C36.6789 2.048 36.9139 2.224 37.0979 2.45L37.6509 1.897C37.3999 1.612 37.0809 1.394 36.6879 1.235C36.2939 1.076 35.8829 1 35.4389 1C34.5669 1 33.8299 1.302 33.2269 1.905C32.6229 2.509 32.3219 3.254 32.3219 4.134C32.3219 5.014 32.6229 5.76 33.2269 6.363C33.8299 6.967 34.5669 7.268 35.4389 7.268C36.3519 7.268 37.0809 6.975 37.6429 6.38C38.1369 5.886 38.3889 5.215 38.3889 4.377C38.3889 4.235 38.3719 4.084 38.3469 3.925Z" fill="white"/>
<path d="M39.4949 1.134V7.134H42.998V6.397H40.2659V4.495H42.729V3.774H40.2659V1.872H42.998V1.134H39.4949Z" fill="white"/>
<path d="M47.9239 1.872V1.134H43.8009V1.872H45.4769V7.134H46.2479V1.872H47.9239Z" fill="white"/>
<path d="M51.6789 1.134H50.9079V7.134H51.6789V1.134Z" fill="white"/>
<path d="M56.7739 1.872V1.134H52.6509V1.872H54.3269V7.134H55.0979V1.872H56.7739Z" fill="white"/>
<path d="M64.5759 1.914C63.9809 1.302 63.2519 1 62.3799 1C61.5089 1 60.7789 1.302 60.1839 1.905C59.5889 2.5 59.2959 3.246 59.2959 4.134C59.2959 5.023 59.5889 5.768 60.1839 6.363C60.7789 6.967 61.5089 7.268 62.3799 7.268C63.2429 7.268 63.9809 6.967 64.5759 6.363C65.1709 5.768 65.4639 5.023 65.4639 4.134C65.4639 3.254 65.1709 2.509 64.5759 1.914ZM60.7379 2.416C61.1819 1.964 61.7259 1.738 62.3799 1.738C63.0339 1.738 63.5779 1.964 64.0139 2.416C64.4579 2.861 64.6759 3.439 64.6759 4.134C64.6759 4.83 64.4579 5.408 64.0139 5.852C63.5779 6.305 63.0339 6.531 62.3799 6.531C61.7259 6.531 61.1819 6.305 60.7379 5.852C60.3019 5.4 60.0839 4.83 60.0839 4.134C60.0839 3.439 60.3019 2.869 60.7379 2.416Z" fill="white"/>
<path d="M67.3159 3.397L67.2829 2.24H67.3159L70.3669 7.134H71.1709V1.134H70.3999V4.646L70.4339 5.802H70.3999L67.4839 1.134H66.5459V7.134H67.3159V3.397Z" fill="white"/>
</svg>
