<svg xmlns="http://www.w3.org/2000/svg" width="136" height="81" viewBox="0 0 136 81">
    <g fill="none" fill-rule="evenodd">
        <path fill="#FFF" fill-rule="nonzero" d="M135.794 39.618l.156.004a3.588 3.588 0 013.432 3.585v67.79H21.618v-67.79a3.588 3.588 0 013.588-3.589h110.588z" transform="translate(-12 -39)"/>
        <path fill="#C6E2BA" d="M25.16 41h110.68a2.16 2.16 0 012.16 2.16V111H23V43.16A2.16 2.16 0 0125.16 41z" transform="translate(-12 -39)"/>
        <path fill="#E1EEDC" fill-rule="nonzero" d="M138 109.462V87l-48 24h44.923c1.7 0 3.077-.689 3.077-1.538z" transform="translate(-12 -39)"/>
        <path fill="#BEBDC0" fill-rule="nonzero" d="M135.794 39H25.206A4.206 4.206 0 0021 43.207v68.41h119v-68.41A4.206 4.206 0 00135.794 39zm0 .618l.156.004a3.588 3.588 0 013.432 3.585v67.79H21.618v-67.79a3.588 3.588 0 013.588-3.589h110.588z" transform="translate(-12 -39)"/>
        <path fill="#7A7F80" fill-rule="nonzero" d="M135.804 41H25.562A2.554 2.554 0 0023 43.546v68.073h115V43.185A2.19 2.19 0 00135.804 41zm0 .618l.112.004a1.57 1.57 0 011.462 1.563V111H23.621V43.546c0-1.064.87-1.928 1.94-1.928h110.243z" transform="translate(-12 -39)"/>
        <path fill="#FFF" fill-rule="nonzero" d="M12.62 111.616h134.76v2.9c0 1.29-.517 2.529-1.435 3.442a4.913 4.913 0 01-3.463 1.425H17.518a4.913 4.913 0 01-3.463-1.425l-.15-.156a4.851 4.851 0 01-1.285-3.286v-2.9z" transform="translate(-12 -39)"/>
        <path fill="#D8D9DA" fill-rule="nonzero" d="M17.694 120H142.31c2.784 0 5.072-2.206 5.189-5h-135c.115 2.797 2.407 5.003 5.194 5z" transform="translate(-12 -39)"/>
        <path fill="#BEBDC0" fill-rule="nonzero" d="M148 111v3.516c0 1.454-.581 2.85-1.616 3.878a5.536 5.536 0 01-3.902 1.606H17.518a5.536 5.536 0 01-3.902-1.606A5.467 5.467 0 0112 114.516V111h136zm-.62.616H12.62v2.9c0 1.219.46 2.39 1.286 3.286l.15.156a4.913 4.913 0 003.462 1.425h124.964a4.913 4.913 0 003.463-1.425 4.853 4.853 0 001.434-3.442v-2.9z" transform="translate(-12 -39)"/>
        <path fill="#6DBC47" fill-rule="nonzero" d="M114 63H47v16h67V63zm-.831.826v14.347H47.83V63.826h65.338z" transform="translate(-12 -39)"/>
        <path fill="#FFF" fill-rule="nonzero" d="M113 64L113 78 48 78 48 64z" transform="translate(-12 -39)"/>
        <path fill="#C6E2BA" fill-rule="nonzero" d="M52 68H76V74H52z" transform="translate(-12 -39)"/>
    </g>
</svg>
