<svg xmlns="http://www.w3.org/2000/svg" width="94" height="94" viewBox="0 0 94 94">
    <g fill="none" fill-rule="evenodd">
        <path fill="#E4E4E3" fill-rule="nonzero" d="M90.46 2.675v88.458H2.002v2.733H93.19V2.676z"/>
        <path fill="#FFF" fill-rule="nonzero" stroke="#8FCB7F" stroke-width=".876" d="M90.481 1v90.145H1V1"/>
        <path fill="#8FCB7F" fill-rule="nonzero" d="M40.523 18.365a2.143 2.143 0 0 1 2.143 2.142v3.558a2.141 2.141 0 0 1-2.143 2.141H13.75a2.141 2.141 0 0 1-2.143-2.14v-3.559c0-1.183.96-2.142 2.143-2.142h26.772m0-.284H13.75a2.429 2.429 0 0 0-2.426 2.426v3.558a2.429 2.429 0 0 0 2.426 2.426h26.772a2.429 2.429 0 0 0 2.426-2.426v-3.558a2.429 2.429 0 0 0-2.426-2.418v-.008zM40.523 29.147a2.143 2.143 0 0 1 2.143 2.142v3.558a2.141 2.141 0 0 1-2.143 2.141H13.75a2.141 2.141 0 0 1-2.143-2.14v-3.559c0-1.183.96-2.142 2.143-2.142h26.772m0-.284H13.75a2.429 2.429 0 0 0-2.426 2.426v3.558a2.429 2.429 0 0 0 2.426 2.426h26.772a2.429 2.429 0 0 0 2.426-2.426V31.29a2.429 2.429 0 0 0-2.426-2.426zM40.523 39.928a2.143 2.143 0 0 1 2.143 2.143v3.558c-.001 1.183-.96 2.141-2.143 2.141H13.75a2.143 2.143 0 0 1-2.143-2.141v-3.558a2.143 2.143 0 0 1 2.143-2.143h26.772m0-.283H13.75a2.429 2.429 0 0 0-2.426 2.426v3.558a2.429 2.429 0 0 0 2.426 2.426h26.772a2.429 2.429 0 0 0 2.426-2.426v-3.558a2.429 2.429 0 0 0-2.426-2.426zM40.523 50.71c1.182 0 2.14.958 2.143 2.14v3.558a2.143 2.143 0 0 1-2.143 2.138H13.75a2.143 2.143 0 0 1-2.143-2.14V52.85a2.143 2.143 0 0 1 2.143-2.14h26.772m0-.292H13.75a2.43 2.43 0 0 0-2.426 2.432v3.558a2.429 2.429 0 0 0 2.426 2.43h26.772a2.429 2.429 0 0 0 2.426-2.426V52.85a2.43 2.43 0 0 0-2.426-2.424v-.008zM40.523 61.492c1.183 0 2.142.959 2.143 2.141v3.558a2.143 2.143 0 0 1-2.143 2.143H13.75a2.143 2.143 0 0 1-2.143-2.143v-3.558c0-1.182.96-2.14 2.143-2.14h26.772m0-.286H13.75a2.429 2.429 0 0 0-2.426 2.426v3.558a2.429 2.429 0 0 0 2.426 2.426h26.772a2.429 2.429 0 0 0 2.426-2.426v-3.558a2.429 2.429 0 0 0-2.426-2.426zM40.523 72.276c1.183 0 2.142.958 2.143 2.14v3.556a2.143 2.143 0 0 1-2.143 2.142H13.75a2.143 2.143 0 0 1-2.143-2.142v-3.557a2.143 2.143 0 0 1 2.143-2.14h26.772m0-.284H13.75a2.429 2.429 0 0 0-2.426 2.426v3.555a2.429 2.429 0 0 0 2.426 2.427h26.772a2.429 2.429 0 0 0 2.426-2.427v-3.557a2.429 2.429 0 0 0-2.426-2.432v.008zM76.892 18.365a2.141 2.141 0 0 1 2.142 2.142v3.558a2.141 2.141 0 0 1-2.142 2.141H50.12a2.141 2.141 0 0 1-2.141-2.14v-3.559a2.141 2.141 0 0 1 2.14-2.142h26.774m0-.284H50.12a2.429 2.429 0 0 0-2.426 2.426v3.558a2.429 2.429 0 0 0 2.426 2.426h26.773a2.429 2.429 0 0 0 2.426-2.426v-3.558a2.429 2.429 0 0 0-2.426-2.418v-.008zM76.892 29.147a2.141 2.141 0 0 1 2.142 2.142v3.558a2.141 2.141 0 0 1-2.142 2.141H50.12a2.141 2.141 0 0 1-2.141-2.14v-3.559a2.141 2.141 0 0 1 2.14-2.142h26.774m0-.284H50.12a2.429 2.429 0 0 0-2.426 2.426v3.558a2.429 2.429 0 0 0 2.426 2.426h26.773a2.429 2.429 0 0 0 2.426-2.426V31.29a2.429 2.429 0 0 0-2.426-2.426zM76.892 39.928a2.141 2.141 0 0 1 2.142 2.143v3.558a2.141 2.141 0 0 1-2.142 2.141H50.12a2.141 2.141 0 0 1-2.141-2.141v-3.558a2.141 2.141 0 0 1 2.14-2.143h26.774m0-.283H50.12a2.429 2.429 0 0 0-2.426 2.426v3.558a2.429 2.429 0 0 0 2.426 2.426h26.773a2.429 2.429 0 0 0 2.426-2.426v-3.558a2.429 2.429 0 0 0-2.426-2.426zM76.892 50.71c1.182 0 2.14.958 2.142 2.14v3.558a2.141 2.141 0 0 1-2.142 2.138H50.12a2.141 2.141 0 0 1-2.141-2.14V52.85a2.141 2.141 0 0 1 2.14-2.143h26.774m0-.292H50.12a2.43 2.43 0 0 0-2.426 2.435v3.558a2.429 2.429 0 0 0 2.426 2.43h26.773a2.429 2.429 0 0 0 2.426-2.426V52.85a2.43 2.43 0 0 0-2.426-2.427v-.008zM76.892 61.492a2.141 2.141 0 0 1 2.142 2.141v3.558a2.141 2.141 0 0 1-2.142 2.143H50.12a2.141 2.141 0 0 1-2.141-2.143v-3.558c0-1.182.958-2.14 2.14-2.14h26.774m0-.286H50.12a2.429 2.429 0 0 0-2.426 2.426v3.558a2.429 2.429 0 0 0 2.426 2.426h26.773a2.429 2.429 0 0 0 2.426-2.426v-3.558a2.429 2.429 0 0 0-2.426-2.426zM76.892 72.276c1.183 0 2.142.958 2.142 2.14v3.556a2.141 2.141 0 0 1-2.142 2.142H50.12a2.141 2.141 0 0 1-2.141-2.142v-3.557c0-1.182.959-2.14 2.14-2.14h26.774m0-.284H50.12a2.429 2.429 0 0 0-2.426 2.426v3.555a2.429 2.429 0 0 0 2.426 2.426h26.773a2.429 2.429 0 0 0 2.426-2.426v-3.557a2.429 2.429 0 0 0-2.426-2.432v.008z"/>
        <text fill="#8FCB7F" font-family="TTHoves-Medium, TT Hoves" font-size="7" font-weight="400" transform="translate(1 1)">
            <tspan x="11" y="13">RECOVERY SEED</tspan>
        </text>
        <path fill="#C6E2BA" fill-rule="nonzero" d="M13.54 20.263h16.057v3.938H13.54zM13.54 74.225h11.784v3.938H13.54zM13.54 63.444h19.241v3.938H13.54zM13.54 52.619h17.268v3.938H13.54zM13.54 41.834h21.054v3.938H13.54zM13.54 31.048h19.241v3.938H13.54zM50.291 20.263H68.19v3.938H50.291zM50.291 74.225h19.075v3.938H50.291zM50.291 63.444h19.577v3.938H50.291zM50.291 52.619h21.054v3.938H50.291zM50.291 41.834h16.217v3.938H50.291zM50.291 31.048h19.577v3.938H50.291z"/>
        <path fill="#8FCB7F" fill-rule="nonzero" stroke="#8FCB7F" stroke-width=".5" d="M1 1.148h89.481"/>
    </g>
</svg>
