<svg xmlns="http://www.w3.org/2000/svg" width="229" height="206" viewBox="0 0 229 206">
    <g fill="none" fill-rule="evenodd">
        <path fill="#D8D9DA" fill-rule="nonzero" d="M34.272 204.984a13.128 13.128 0 0 1-12.077-7.958l-13.877-32.3a90.087 90.087 0 0 1-7.358-35.76V25.354C.972 14.977 8.36 6.075 18.557 4.152a186.82 186.82 0 0 1 68.774 0c10.197 1.923 17.585 10.825 17.597 21.202v103.68a90.126 90.126 0 0 1-7.373 35.803l-13.857 32.208a13.144 13.144 0 0 1-12.077 7.953l-37.349-.014z"/>
        <path fill="#7A7F80" fill-rule="nonzero" d="M52.944 1.92c11.477 0 22.929 1.064 34.21 3.178 9.743 1.831 16.802 10.341 16.8 20.256v103.68a89.632 89.632 0 0 1-7.296 35.424L82.8 196.666a12.186 12.186 0 0 1-11.194 7.372H34.272a12.19 12.19 0 0 1-11.198-7.377L9.197 164.347a89.658 89.658 0 0 1-7.277-35.38V25.353c-.002-9.915 7.056-18.425 16.8-20.256A185.879 185.879 0 0 1 52.944 1.92m0-1.92a188.078 188.078 0 0 0-34.56 3.211C7.733 5.218.014 14.515 0 25.354v103.612a91.014 91.014 0 0 0 7.435 36.154l13.877 32.285a14.1 14.1 0 0 0 12.96 8.539h37.349a14.088 14.088 0 0 0 12.96-8.534l13.857-32.208a91.071 91.071 0 0 0 7.455-36.183V25.34c-.02-10.833-7.738-20.123-18.384-22.128A188.078 188.078 0 0 0 52.944 0z"/>
        <rect width="84.475" height="47.237" x="10.709" y="50.702" fill="#BEBDC0" fill-rule="nonzero" rx="4.992"/>
        <rect width="35.51" height="18.734" x="9.989" y="107.122" fill="#D8D9DA" fill-rule="nonzero" rx="3.922"/>
        <path fill="#7A7F80" fill-rule="nonzero" d="M41.578 107.842a3.202 3.202 0 0 1 3.201 3.201v10.877a3.202 3.202 0 0 1-3.201 3.202H13.92a3.202 3.202 0 0 1-3.211-3.202v-10.877a3.197 3.197 0 0 1 3.211-3.201h27.658m0-1.44H13.92a4.646 4.646 0 0 0-4.642 4.641v10.877a4.646 4.646 0 0 0 4.642 4.656h27.658a4.646 4.646 0 0 0 4.641-4.656v-10.877a4.646 4.646 0 0 0-4.641-4.641z"/>
        <rect width="35.51" height="18.734" x="60.389" y="107.122" fill="#D8D9DA" fill-rule="nonzero" rx="3.922"/>
        <path fill="#7A7F80" fill-rule="nonzero" d="M91.978 107.842a3.202 3.202 0 0 1 3.201 3.201v10.877a3.202 3.202 0 0 1-3.201 3.202H64.32a3.202 3.202 0 0 1-3.202-3.202v-10.877a3.202 3.202 0 0 1 3.202-3.201h27.667m0-1.44H64.32a4.646 4.646 0 0 0-4.642 4.641v10.877a4.646 4.646 0 0 0 4.642 4.656h27.667a4.646 4.646 0 0 0 4.642-4.642v-10.89a4.646 4.646 0 0 0-4.642-4.642z"/>
        <rect width="84.475" height="47.237" x="10.709" y="50.702" stroke="#000" stroke-width="1.92" rx="4.992"/>
        <path fill="#FFF" fill-rule="nonzero" d="M6.993 17.996l7.82-7.82 3.61 3.611-7.82 7.82z"/>
        <path stroke="#FFF" stroke-width="1.92" d="M15.696 97.939h74.496"/>
        <path stroke="#FFF" stroke-width="1.44" d="M13.91 107.842h27.668M64.31 107.842h27.668"/>
        <path fill="#FFF" fill-rule="nonzero" d="M52.944 4.32a184.06 184.06 0 0 1 33.768 3.134 18.24 18.24 0 0 1 14.856 17.9v103.68a86.699 86.699 0 0 1-7.104 34.473L80.606 195.72a9.773 9.773 0 0 1-8.985 5.918H34.272a9.78 9.78 0 0 1-8.99-5.923l-13.877-32.313a86.78 86.78 0 0 1-7.085-34.436V25.354a18.24 18.24 0 0 1 14.88-17.9A184.06 184.06 0 0 1 52.944 4.32m0-2.4A185.879 185.879 0 0 0 18.72 5.098C8.976 6.929 1.918 15.439 1.92 25.354v103.612a89.658 89.658 0 0 0 7.277 35.381l13.877 32.3a12.19 12.19 0 0 0 11.198 7.377h37.349c4.869 0 9.27-2.9 11.193-7.373l13.858-32.208a89.632 89.632 0 0 0 7.296-35.424V25.34c.002-9.914-7.056-18.424-16.8-20.256A185.867 185.867 0 0 0 52.944 1.92z"/>
        <path fill="#D8D9DA" fill-rule="nonzero" d="M26.976 201.6a12.159 12.159 0 0 0 7.296 2.434h37.349c4.869-.001 9.27-2.9 11.193-7.373l13.858-32.208a89.632 89.632 0 0 0 7.296-35.424L26.976 201.6z"/>
        <path fill="#FFF" fill-rule="nonzero" d="M18.72 12.082a185.669 185.669 0 0 1 68.42 0c7.348 1.377 14.4 6.619 14.4 13.272h2.4c.001-9.915-7.057-18.425-16.8-20.256a185.669 185.669 0 0 0-68.42 0C8.976 6.929 1.918 15.439 1.92 25.354h2.4c0-6.716 7.06-11.914 14.4-13.272z"/>
        <path fill="#D8D9DA" fill-rule="nonzero" d="M34.272 204.984a13.128 13.128 0 0 1-12.077-7.958l-13.877-32.3a90.087 90.087 0 0 1-7.358-35.76V25.354C.972 14.977 8.36 6.075 18.557 4.152a186.82 186.82 0 0 1 68.774 0c10.197 1.923 17.585 10.825 17.597 21.202v103.68a90.126 90.126 0 0 1-7.373 35.803l-13.857 32.208a13.144 13.144 0 0 1-12.077 7.953l-37.349-.014z"/>
        <path fill="#7A7F80" fill-rule="nonzero" d="M52.944 1.92c11.477 0 22.929 1.064 34.21 3.178 9.743 1.831 16.802 10.341 16.8 20.256v103.68a89.632 89.632 0 0 1-7.296 35.424L82.8 196.666a12.186 12.186 0 0 1-11.194 7.372H34.272a12.19 12.19 0 0 1-11.198-7.377L9.197 164.347a89.658 89.658 0 0 1-7.277-35.38V25.353c-.002-9.915 7.056-18.425 16.8-20.256A185.879 185.879 0 0 1 52.944 1.92m0-1.92a188.078 188.078 0 0 0-34.56 3.211C7.733 5.218.014 14.515 0 25.354v103.612a91.014 91.014 0 0 0 7.435 36.154l13.877 32.285a14.1 14.1 0 0 0 12.96 8.539h37.349a14.088 14.088 0 0 0 12.96-8.534l13.857-32.208a91.071 91.071 0 0 0 7.455-36.183V25.34c-.02-10.833-7.738-20.123-18.384-22.128A188.078 188.078 0 0 0 52.944 0z"/>
        <path fill="#FFF" fill-rule="nonzero" d="M89.957 100.867h-74.03a5.218 5.218 0 0 1-5.218-5.222v-2.698h84.48v2.698a5.222 5.222 0 0 1-5.232 5.222z"/>
        <rect width="82.555" height="45.317" x="11.669" y="51.662" fill="#C6E2BA" fill-rule="nonzero" rx="4.032"/>
        <path fill="#7A7F80" fill-rule="nonzero" d="M90.192 52.622a3.072 3.072 0 0 1 3.067 3.072v37.253a3.072 3.072 0 0 1-3.067 3.072H15.696a3.072 3.072 0 0 1-3.067-3.072V55.68a3.072 3.072 0 0 1 3.067-3.072h74.496m0-1.92H15.696a4.987 4.987 0 0 0-4.987 4.992v37.253a4.992 4.992 0 0 0 4.987 4.987h74.496a4.992 4.992 0 0 0 4.987-4.992V55.68a4.987 4.987 0 0 0-4.987-4.992z"/>
        <path fill="#FFF" fill-rule="nonzero" d="M10.709 107.842h34.07v2.909h-34.07zM61.109 107.842h34.07v2.909h-34.07z"/>
        <path fill="#7A7F80" fill-rule="nonzero" d="M41.578 107.842a3.202 3.202 0 0 1 3.201 3.201v10.877a3.202 3.202 0 0 1-3.201 3.202H13.92a3.202 3.202 0 0 1-3.211-3.202v-10.877a3.197 3.197 0 0 1 3.211-3.201h27.658m0-1.44H13.92a4.646 4.646 0 0 0-4.642 4.641v10.877a4.646 4.646 0 0 0 4.642 4.656h27.658a4.646 4.646 0 0 0 4.641-4.656v-10.877a4.646 4.646 0 0 0-4.641-4.641zM91.978 107.842a3.202 3.202 0 0 1 3.201 3.201v10.877a3.202 3.202 0 0 1-3.201 3.202H64.32a3.202 3.202 0 0 1-3.202-3.202v-10.877a3.202 3.202 0 0 1 3.202-3.201h27.667m0-1.44H64.32a4.646 4.646 0 0 0-4.642 4.641v10.877a4.646 4.646 0 0 0 4.642 4.656h27.667a4.646 4.646 0 0 0 4.642-4.642v-10.89a4.646 4.646 0 0 0-4.642-4.642z"/>
        <path fill="#FFF" fill-rule="nonzero" d="M6.531 17.534l7.82-7.82 4.535 4.535-7.82 7.82z"/>
        <path fill="#FFF" fill-rule="nonzero" d="M52.944 4.32a184.06 184.06 0 0 1 33.768 3.134 18.24 18.24 0 0 1 14.856 17.9v103.68a86.699 86.699 0 0 1-7.104 34.473L80.606 195.72a9.773 9.773 0 0 1-8.985 5.918H34.272a9.78 9.78 0 0 1-8.99-5.923l-13.877-32.313a86.78 86.78 0 0 1-7.085-34.436V25.354a18.24 18.24 0 0 1 14.88-17.9A184.06 184.06 0 0 1 52.944 4.32m0-2.4A185.879 185.879 0 0 0 18.72 5.098C8.976 6.929 1.918 15.439 1.92 25.354v103.612a89.658 89.658 0 0 0 7.277 35.381l13.877 32.3a12.19 12.19 0 0 0 11.198 7.377h37.349c4.869 0 9.27-2.9 11.193-7.373l13.858-32.208a89.632 89.632 0 0 0 7.296-35.424V25.34c.002-9.914-7.056-18.424-16.8-20.256A185.867 185.867 0 0 0 52.944 1.92z"/>
        <path fill="#D8D9DA" fill-rule="nonzero" d="M26.976 201.6a12.159 12.159 0 0 0 7.296 2.434h37.349c4.869-.001 9.27-2.9 11.193-7.373l13.858-32.208a89.632 89.632 0 0 0 7.296-35.424L26.976 201.6z"/>
        <path fill="#FFF" fill-rule="nonzero" d="M18.72 12.082a185.669 185.669 0 0 1 68.42 0c7.348 1.377 14.4 6.619 14.4 13.272h2.4c.001-9.915-7.057-18.425-16.8-20.256a185.669 185.669 0 0 0-68.42 0C8.976 6.929 1.918 15.439 1.92 25.354h2.4c0-6.716 7.06-11.914 14.4-13.272z"/>
        <rect width="10.646" height="10.646" x="47.621" y="68.995" fill="#FFF" fill-rule="nonzero" stroke="#8FCB7F" stroke-width="1.44" rx=".787"/>
        <rect width="10.646" height="10.646" x="61.109" y="68.995" fill="#FFF" fill-rule="nonzero" stroke="#8FCB7F" stroke-width="1.44" rx=".787"/>
        <rect width="10.646" height="10.646" x="34.133" y="68.995" fill="#FFF" fill-rule="nonzero" stroke="#8FCB7F" stroke-width="1.44" rx=".787"/>
        <rect width="10.646" height="10.646" x="47.621" y="82.512" fill="#FFF" fill-rule="nonzero" stroke="#8FCB7F" stroke-width="1.44" rx=".787"/>
        <rect width="10.646" height="10.646" x="61.109" y="82.512" fill="#FFF" fill-rule="nonzero" stroke="#8FCB7F" stroke-width="1.44" rx=".787"/>
        <rect width="10.646" height="10.646" x="34.133" y="82.512" fill="#FFF" fill-rule="nonzero" stroke="#8FCB7F" stroke-width="1.44" rx=".787"/>
        <rect width="10.646" height="10.646" x="47.621" y="55.478" fill="#FFF" fill-rule="nonzero" stroke="#8FCB7F" stroke-width="1.44" rx=".787"/>
        <rect width="10.646" height="10.646" x="61.109" y="55.478" fill="#FFF" fill-rule="nonzero" stroke="#8FCB7F" stroke-width="1.44" rx=".787"/>
        <rect width="10.646" height="10.646" x="34.133" y="55.478" fill="#FFF" fill-rule="nonzero" stroke="#8FCB7F" stroke-width="1.44" rx=".787"/>
        <text fill="#7A7F80" font-family="TTHoves-Medium, TT Hoves" font-size="7.68" font-weight="400">
            <tspan x="37.291" y="63.4">4</tspan>
        </text>
        <text fill="#7A7F80" font-family="TTHoves-Medium, TT Hoves" font-size="7.68" font-weight="400">
            <tspan x="50.75" y="63.4">6</tspan>
        </text>
        <text fill="#7A7F80" font-family="TTHoves-Medium, TT Hoves" font-size="7.68" font-weight="400">
            <tspan x="64.373" y="63.4">2</tspan>
        </text>
        <text fill="#7A7F80" font-family="TTHoves-Medium, TT Hoves" font-size="7.68" font-weight="400">
            <tspan x="37.214" y="76.878">8</tspan>
        </text>
        <text fill="#7A7F80" font-family="TTHoves-Medium, TT Hoves" font-size="7.68" font-weight="400">
            <tspan x="51.595" y="76.878">1</tspan>
        </text>
        <text fill="#7A7F80" font-family="TTHoves-Medium, TT Hoves" font-size="7.68" font-weight="400">
            <tspan x="64.277" y="76.878">5</tspan>
        </text>
        <text fill="#7A7F80" font-family="TTHoves-Medium, TT Hoves" font-size="7.68" font-weight="400">
            <tspan x="37.253" y="90.362">3</tspan>
        </text>
        <text fill="#7A7F80" font-family="TTHoves-Medium, TT Hoves" font-size="7.68" font-weight="400">
            <tspan x="50.75" y="90.362">9</tspan>
        </text>
        <text fill="#7A7F80" font-family="TTHoves-Medium, TT Hoves" font-size="7.68" font-weight="400">
            <tspan x="64.526" y="90.362">7</tspan>
        </text>
        <circle cx="39.456" cy="60.802" r="11.266" stroke="#F9C447" stroke-width="1.92"/>
        <rect width="24.384" height="24.384" x="172.238" y="82.642" fill="#FFF" fill-rule="nonzero" stroke="#8FCB7F" stroke-width="1.44" rx="2"/>
        <rect width="24.384" height="24.384" x="203.126" y="82.642" fill="#FFF" fill-rule="nonzero" stroke="#8FCB7F" stroke-width="1.44" rx="2"/>
        <rect width="24.384" height="24.384" x="141.346" y="82.642" fill="#FFF" fill-rule="nonzero" stroke="#8FCB7F" stroke-width="1.44" rx="2"/>
        <rect width="24.384" height="24.384" x="172.238" y="113.602" fill="#FFF" fill-rule="nonzero" stroke="#8FCB7F" stroke-width="1.44" rx="2"/>
        <rect width="24.384" height="24.384" x="203.126" y="113.602" fill="#FFF" fill-rule="nonzero" stroke="#8FCB7F" stroke-width="1.44" rx="2"/>
        <rect width="24.384" height="24.384" x="141.346" y="113.602" fill="#FFF" fill-rule="nonzero" stroke="#8FCB7F" stroke-width="1.44" rx="2"/>
        <rect width="24.384" height="24.384" x="172.238" y="51.686" fill="#FFF" fill-rule="nonzero" stroke="#8FCB7F" stroke-width="1.44" rx="2"/>
        <rect width="24.384" height="24.384" x="203.126" y="51.686" fill="#FFF" fill-rule="nonzero" stroke="#8FCB7F" stroke-width="1.44" rx="2"/>
        <rect width="24.384" height="24.384" x="141.346" y="51.686" fill="#D8D9DA" fill-rule="nonzero" stroke="#8FCB7F" stroke-width="1.44" rx="2"/>
        <rect width="86.17" height="24.384" x="141.346" y="20.726" fill="#FFF" fill-rule="nonzero" stroke="#8FCB7F" stroke-width="1.44" rx="2"/>
        <rect width="86.17" height="24.384" x="141.346" y="144.557" fill="#8FCB7F" fill-rule="nonzero" stroke="#8FCB7F" stroke-width="1.44" rx="2"/>
        <circle cx="153.533" cy="63.878" r="2.803" fill="#7A7F80" fill-rule="nonzero"/>
        <circle cx="184.426" cy="63.878" r="2.803" fill="#7A7F80" fill-rule="nonzero"/>
        <circle cx="215.318" cy="63.878" r="2.803" fill="#7A7F80" fill-rule="nonzero"/>
        <circle cx="153.533" cy="94.834" r="2.803" fill="#7A7F80" fill-rule="nonzero"/>
        <circle cx="184.426" cy="94.834" r="2.803" fill="#7A7F80" fill-rule="nonzero"/>
        <circle cx="215.318" cy="94.834" r="2.803" fill="#7A7F80" fill-rule="nonzero"/>
        <circle cx="153.533" cy="125.789" r="2.803" fill="#7A7F80" fill-rule="nonzero"/>
        <circle cx="184.426" cy="125.789" r="2.803" fill="#7A7F80" fill-rule="nonzero"/>
        <circle cx="215.318" cy="125.789" r="2.803" fill="#7A7F80" fill-rule="nonzero"/>
        <circle cx="153.533" cy="63.878" r="21.442" stroke="#F9C447" stroke-width="1.92"/>
        <path fill="#7A7F80" fill-rule="nonzero" d="M163.066 88.498a2.4 2.4 0 0 1-2.223-1.464l-2.601-6.101-4.224 3.931.043-19.867 14.4 13.709-5.76.33 2.601 6.102a2.4 2.4 0 0 1-1.272 3.168c-.305.13-.633.195-.964.192z"/>
        <path fill="#FFF" fill-rule="nonzero" d="M154.56 66.115l12.773 12.178-3.975.225-1.363.077.533 1.258 2.338 5.472a1.92 1.92 0 0 1 0 1.478 1.954 1.954 0 0 1-1.037 1.061c-.24.1-.498.153-.759.154a1.92 1.92 0 0 1-1.78-1.176l-2.333-5.468-.557-1.257-1.003.931-2.914 2.712.039-17.645m-.96-2.237l-.048 22.08 4.536-4.224 2.332 5.472a2.88 2.88 0 0 0 2.664 1.757 2.88 2.88 0 0 0 2.66-4.027l-2.338-5.472 6.187-.355-15.955-15.23h-.038z"/>
        <text fill="#D8D9DA" stroke="#F9C447" stroke-width=".5" font-family="TTHoves-Medium, TT Hoves" font-size="12.091" font-weight="400">
            <tspan x="147.701" y="37.712">4</tspan>
        </text>
    </g>
</svg>
