<svg width="8" height="72" viewBox="0 0 8 72" fill="none" xmlns="http://www.w3.org/2000/svg">
<mask id="mask0_1524_14801" style="mask-type:alpha" maskUnits="userSpaceOnUse" x="0" y="0" width="8" height="72">
<path d="M0 8C0 3.58172 3.58172 0 8 0V0V72V72C3.58172 72 0 68.4183 0 64V8Z" fill="#fff"/>
</mask>
<g mask="url(#mask0_1524_14801)">
<path d="M-22.4867 26.6396C-23.1779 26.0487 -23.297 25.1649 -22.7526 24.6657L7.14608 -2.75204L9.64921 -0.611915L-20.2495 26.8058C-20.7939 27.305 -21.7955 27.2306 -22.4867 26.6396Z" fill="#A9A9A9"/>
<path d="M-19.2992 34.0825C-19.9904 33.4915 -20.1095 32.6078 -19.5651 32.1086L10.3336 4.69083L12.8367 6.83096L-17.062 34.2487C-17.6064 34.7479 -18.608 34.6735 -19.2992 34.0825Z" fill="#A9A9A9"/>
<path d="M-16.1078 41.5254C-16.799 40.9344 -16.9181 40.0506 -16.3737 39.5514L13.525 12.1337L16.0281 14.2738L-13.8706 41.6916C-14.4149 42.1908 -15.4166 42.1164 -16.1078 41.5254Z" fill="#A9A9A9"/>
<path d="M-12.9164 48.9683C-13.6076 48.3773 -13.7267 47.4935 -13.1823 46.9943L16.7164 19.5766L19.2195 21.7167L-10.6792 49.1344C-11.2235 49.6336 -12.2252 49.5592 -12.9164 48.9683Z" fill="#A9A9A9"/>
<path d="M-9.725 56.4111C-10.4162 55.8201 -10.5353 54.9364 -9.99089 54.4372L19.9078 27.0194L22.4109 29.1596L-7.48776 56.5773C-8.03214 57.0765 -9.03378 57.0021 -9.725 56.4111Z" fill="#A9A9A9"/>
<path d="M-6.53359 63.854C-7.22481 63.263 -7.34386 62.3793 -6.79949 61.8801L23.0992 34.4623L25.6023 36.6024L-4.29636 64.0202C-4.84073 64.5194 -5.84237 64.445 -6.53359 63.854Z" fill="#A9A9A9"/>
<path d="M-3.34219 71.2969C-4.03341 70.7059 -4.15245 69.8221 -3.60808 69.3229L26.2906 41.9052L28.7937 44.0453L-1.10495 71.4631C-1.64932 71.9623 -2.65097 71.8879 -3.34219 71.2969Z" fill="#A9A9A9"/>
<path d="M-0.15078 78.74C-0.842 78.149 -0.961044 77.2652 -0.416673 76.766L29.482 49.3483L31.9851 51.4884L2.08645 78.9062C1.54208 79.4054 0.54044 79.331 -0.15078 78.74Z" fill="#A9A9A9"/>
</g>
</svg>
