<svg viewBox="0 0 360 280" xmlns="http://www.w3.org/2000/svg" fill-rule="evenodd" clip-rule="evenodd">
  <path d="M213.654 51.41h-67.707.001c-4.749.002-8.655 3.909-8.656 8.658v74.847c0 11.173 2.844 20.761 8.878 28.207l1.026 1.268 5.915-4.076-3.535-6.898a35.853 35.853 0 01-3.944-16.354V62.449c0-2.788 1.294-4.082 4.082-4.082h60.267c2.788 0 4.082 1.294 4.082 4.082v74.575h1c.001 5.709-2.362 11.336-4.975 16.412l-3.551 6.9 5.868 4.052.141-.175c2.756-3.448 5.349-7.534 7.02-12.106 1.938-5.305 2.738-11.238 2.738-17.193V60.068c.001-4.747-3.903-8.655-8.65-8.658z" fill="#ebebeb" fill-rule="nonzero"/>
  <path d="M243.863 116.22l12.78 2.438-.311 1.632-12.78-2.439.311-1.631zm-140.5-26.815l12.778 2.439-.312 1.631-12.777-2.438.311-1.632zm90.295-61.353l1.632.311-2.439 12.778-1.631-.312 2.438-12.777zm-26.814 140.499l1.631.312-2.438 12.78-1.632-.311 2.439-12.781zm50.229-10.397l7.31 10.762-1.373.933-7.31-10.762 1.373-.933zM136.682 39.846l7.314 10.76-1.374.933-7.313-10.76 1.373-.933zm107.234 20.463l.933 1.373-10.762 7.314-.934-1.374 10.763-7.313zM125.605 140.7l.934 1.373-10.76 7.31-.933-1.373 10.759-7.31zm108.349.2l10.734 7.352-.938 1.37-10.735-7.351.939-1.371zM115.945 60.072l10.735 7.352-.939 1.37-10.735-7.351.939-1.371zm107.307-20.066l1.37.939-7.351 10.735-1.37-.939 7.351-10.735zm-80.828 118.009l1.37.939-7.351 10.734-1.37-.938 7.351-10.735zm50.19 10.584l2.391 12.791-1.632.305-2.392-12.791 1.633-.305zM166.322 28l2.392 12.788-1.633.305-2.391-12.788 1.632-.305zm90.068 61.69l.305 1.632-12.791 2.392-.305-1.633 12.791-2.391zm-140.602 26.291l.305 1.633-12.788 2.391-.305-1.632 12.788-2.392z" fill="#f9c447" fill-rule="nonzero"/>
  <path fill="#d8d9da" fill-rule="nonzero" d="M176.755 212.576h6.09v37.203h-6.09z"/>
  <path d="M170.179 172.854h19.241v36.043h-19.241v-36.043zm12.652 45.272l.017 26.762-6.09.004-.016-26.762 6.089-.004z" fill="#bebdc0" fill-rule="nonzero"/>
  <path fill="#d8d9da" fill-rule="nonzero" d="M173.522 200.025h12.556v36.727h-12.556z"/>
  <path d="M185.525 200.579v35.62h-11.449v-35.62h11.449m1.107-1.108h-13.663v37.835h13.663V199.47v.001z" fill="#7a7f80" fill-rule="nonzero"/>
  <path fill="#d8d9da" fill-rule="nonzero" d="M168.662 190.32h22.278v33.073h-22.278z"/>
  <path d="M190.386 190.874v31.966h-21.17v-31.966h21.17m1.107-1.107h-23.385v34.18h23.385v-34.18z" fill="#7a7f80" fill-rule="nonzero"/>
  <path d="M185.721 220.86h2.12v-25.09a2.128 2.128 0 00-2.118-2.117h-.002v27.207zm-7.053 14.984h6.433v-6.43c-3.528 0-6.431 2.902-6.433 6.43z" fill="#fff" fill-rule="nonzero"/>
  <path d="M213.654 50.302h-67.707c-5.356 0-9.763 4.407-9.763 9.763v74.849c0 11.41 2.916 21.243 9.125 28.904l18.712 23.108c.467.58 1.173.917 1.917.917h27.725c.745 0 1.45-.338 1.918-.918l18.71-23.107c6.209-7.668 9.12-17.492 9.12-28.904V60.068c.002-5.39-4.366-9.762-9.757-9.766zm-67.707 1.108h67.707c4.747.003 8.651 3.911 8.65 8.658v74.846c0 11.175-2.839 20.754-8.873 28.207L194.72 186.23c-.258.32-.646.507-1.056.507h-27.725c-.41 0-.798-.186-1.055-.505l-18.714-23.11c-6.034-7.446-8.878-17.034-8.878-28.207V60.068c.001-4.749 3.907-8.656 8.656-8.658h-.001z" fill="#7a7f80" fill-rule="nonzero"/>
  <path d="M215.063 137.024V62.452v-.003c0-2.788-2.294-5.082-5.082-5.082h-60.267c-2.788 0-5.082 2.294-5.082 5.082v74.613a35.853 35.853 0 003.944 16.354l3.535 6.898-5.342 4.43 17.682 21.834c.363.449.91.711 1.487.711h27.725c.577 0 1.123-.262 1.486-.711l17.683-21.835-5.295-4.407 3.551-6.9a35.845 35.845 0 003.975-16.412z" fill="#d8d9da" fill-rule="nonzero"/>
  <path d="M148.302 64.234a2.895 2.895 0 01-1.876-.686l-5.34-4.518a2.907 2.907 0 01-1.118-2.29 2.918 2.918 0 012.904-2.904c.727 0 1.428.273 1.964.765l5.343 4.515a2.91 2.91 0 011.031 2.22 2.92 2.92 0 01-2.906 2.906h-.002v-.008z" fill="#d8d9da" fill-rule="nonzero"/>
  <path d="M210.477 74.318a3.559 3.559 0 00-3.557-3.557h-54.238a3.559 3.559 0 00-3.557 3.557v54.238a3.559 3.559 0 003.557 3.557h54.238a3.559 3.559 0 003.557-3.557V74.318z" fill="#7a7f80"/>
  <path d="M210.477 80.63a3.559 3.559 0 00-3.557-3.557h-54.238a3.559 3.559 0 00-3.557 3.557v54.238a3.559 3.559 0 003.557 3.557h54.238a3.559 3.559 0 003.557-3.557V80.63z" fill="#fff"/>
  <path d="M209.922 77.728a3.005 3.005 0 00-3.003-3.003h-54.238a3.005 3.005 0 00-3.003 3.003v54.238a3.005 3.005 0 003.003 3.003h54.238a3.005 3.005 0 003.003-3.003V77.728z" fill="#fff"/>
  <path d="M206.92 75.279a2.465 2.465 0 012.449 2.45v54.237a2.466 2.466 0 01-2.45 2.45h-54.238a2.466 2.466 0 01-2.45-2.45V77.73a2.466 2.466 0 012.45-2.45h54.238m0-1.107h-54.238a3.574 3.574 0 00-3.556 3.557v54.237a3.574 3.574 0 003.556 3.557h54.238a3.574 3.574 0 003.557-3.557V77.73a3.574 3.574 0 00-3.557-3.557z" fill="#7a7f80" fill-rule="nonzero"/>
  <path d="M213.654 50.302h-67.707c-5.356 0-9.763 4.407-9.763 9.763v74.849c0 11.41 2.916 21.243 9.125 28.904l18.712 23.108c.467.58 1.173.917 1.917.917h27.725c.745 0 1.45-.338 1.918-.918l18.71-23.107c6.209-7.668 9.12-17.492 9.12-28.904V60.068c.002-5.39-4.366-9.762-9.757-9.766zm-67.707 1.108h67.707c4.747.003 8.651 3.911 8.65 8.658v74.846c0 11.175-2.839 20.754-8.873 28.207L194.72 186.23c-.258.32-.646.507-1.056.507h-27.725c-.41 0-.798-.186-1.055-.505l-18.714-23.11c-6.034-7.446-8.878-17.034-8.878-28.207V60.068c.001-4.749 3.907-8.656 8.656-8.658h-.001z" fill="#7a7f80" fill-rule="nonzero"/>
  <circle cx="179.8" cy="104.847" r="20.73" fill="#c6e2ba"/>
  <circle cx="179.8" cy="104.847" r="21" fill="#c6e2ba" stroke="#c6e2ba" stroke-width="2"/>
  <path d="M170.556 126.5c-2.667-7.667-3.834-14.667-3.5-21 .333-6.333 3.333-10.333 9-12 6-1.333 10.5 0 13.5 4s6.166 10 9.5 18c2.333 5 4.166 8.333 5.5 10 2 2.5 3 5 3.5 7.5.333 1.667 1.166 4.167 2.5 7.5 4.333 9.333 9.666 17.667 16 25 9.5 11-31 36-32.5 31s-13-47-14-50-1.5-4-3-6c-1-1.333-2.167-3.667-3.5-7l-3-7z" fill="#fff"/>
  <path d="M173.493 93.037c2.916-1.308 6.782-1.688 9.82-.937 2.988.738 5.601 2.944 7.475 5.993l.427.703c1.03 1.714 1.979 3.451 3.481 6.319l1.212 2.336c.48.943.95 1.9 1.533 3.123l3.205 6.793c.311.651.585 1.216.855 1.763l.57 1.144.139.168c.412.512.85 1.13 1.314 1.848l.234.366c.46.73.939 1.544 1.432 2.427a89.006 89.006 0 011.76 3.334l.607 1.223.612 1.278.122.261.058.174 1.015 4.755.407.918.21.467a160.291 160.291 0 001.827 3.867c1.954 4 4.097 8.001 6.361 11.731 2.936 4.837 5.851 8.848 8.666 11.75l.366.372-1.174 1.175c-3.037-3.038-6.151-7.284-9.278-12.435-2.292-3.778-4.459-7.821-6.434-11.864-.493-1.01-.95-1.97-1.366-2.865l-.589-1.286-.554-1.248-.05-.155-1.013-4.746-.2-.426a90.905 90.905 0 00-.479-.995l-.177-.362a91.227 91.227 0 00-2.148-4.114 51.728 51.728 0 00-1.386-2.35c-.445-.72-.93-1.413-1.453-2.078l-.162-.197-.107-.162-.517-1.033c-.305-.616-.61-1.245-.963-1.982l-3.204-6.79a124.827 124.827 0 00-2.077-4.178l-.84-1.61c-1.572-2.991-2.521-4.702-3.656-6.55-1.664-2.705-3.942-4.628-6.46-5.25-2.673-.66-6.16-.318-8.741.84-4.313 1.938-6.483 4.504-6.769 10.44-.287 6.103.426 11.32 2.179 16.976l.358 1.122c1.043 3.184 1.987 5.51 4.895 12.274l.351.817 4.603 7 2.44 9.058 1.98 7.284c.822 3.017 1.639 6 2.44 8.908l2.578 9.299c2.232 7.981 4.018 14.173 5.227 18.068l.345 1.1-1.582.503-.534-1.71c-1.24-4.038-3.02-10.229-5.222-18.112l-1.46-5.255-1.436-5.206c-.969-3.526-1.958-7.147-2.948-10.794l-3.363-12.453-4.494-6.834-.069-.128-1.718-4.01c-2.02-4.753-2.809-6.804-3.747-9.71-1.976-6.118-2.79-11.711-2.482-18.276.32-6.638 2.912-9.703 7.748-11.876z" fill="#8fcb7f" fill-rule="nonzero"/>
  <path d="M189.426 107.491l-.024 1.107a22.108 22.108 0 00-14.8 5.262c-.374.32-.564.555-.608.764l-.01.077-1.106-.048c.028-.632.364-1.086 1.005-1.635a23.215 23.215 0 0115.056-5.532l.487.005z" fill="#c6e2ba" fill-rule="nonzero"/>
  <path d="M170.06 102.804a28.55 28.55 0 003.115 10.933c.234.523.576.992.947 1.332a3.7 3.7 0 001.567.616l.249.03c4.253.615 8.761-.475 12.555-2.96 1.392-.912 2.542-2.417 2.831-3.793l.039-.216 1.096.158c-.258 1.779-1.648 3.656-3.359 4.777-4.014 2.63-8.793 3.785-13.29 3.134a4.823 4.823 0 01-2.372-.88 5.163 5.163 0 01-1.26-1.718 29.598 29.598 0 01-3.167-10.705l-.054-.623 1.104-.085h-.001zm24.733 19.426l.464 1.005c-.7.323-1.328.453-2.437.544l-1.44.107-.092.009c-3.5.353-6.658 2.046-10.842 5.378l-.422.339-.696-.86c4.55-3.682 7.96-5.567 11.849-5.959l.396-.035 1.123-.08c.924-.075 1.453-.174 1.968-.392l.129-.057v.001zm1.612 2.691l.965.543a5.201 5.201 0 01-2.531 2.253c-.334.148-.802.25-1.462.344l-1.248.162-.696.11-1.835.315-.542.085-.165-1.095.53-.083 1.832-.314.711-.113c.155-.023 1.015-.129 1.256-.163.562-.08.96-.167 1.183-.266a4.103 4.103 0 001.873-1.564l.13-.214h-.001z" fill="#8fcb7f" fill-rule="nonzero"/>
</svg>