<svg xmlns="http://www.w3.org/2000/svg" width="22" height="42" viewBox="0 0 22 42">
    <g fill="none" fill-rule="nonzero" transform="translate(-19 -9)">
        <path fill="#D8D9DA" d="M26.35 50.342c-1.051 0-2-.625-2.414-1.59l-2.774-6.456a18.004 18.004 0 0 1-1.47-7.146V14.442a4.317 4.317 0 0 1 3.517-4.237c4.542-.85 9.202-.85 13.745 0a4.317 4.317 0 0 1 3.516 4.237v20.721a18.012 18.012 0 0 1-1.473 7.155l-2.77 6.437a2.625 2.625 0 0 1-2.413 1.59l-7.465-.003z"/>
        <path fill="#7A7F80" d="M30.081 9.759c2.294 0 4.583.212 6.837.635a4.118 4.118 0 0 1 3.358 4.048v20.721c0 2.434-.496 4.843-1.459 7.08l-2.769 6.437a2.435 2.435 0 0 1-2.237 1.473h-7.462c-.973 0-1.853-.58-2.238-1.474l-2.773-6.458a17.919 17.919 0 0 1-1.454-7.071V14.442a4.118 4.118 0 0 1 3.357-4.048 37.149 37.149 0 0 1 6.84-.635m0-.384c-2.317 0-4.63.215-6.907.642a4.509 4.509 0 0 0-3.674 4.425V35.15a18.19 18.19 0 0 0 1.486 7.225l2.773 6.452a2.818 2.818 0 0 0 2.59 1.707h7.465a2.816 2.816 0 0 0 2.59-1.706l2.77-6.437a18.185 18.185 0 0 0 1.49-7.23V14.438a4.509 4.509 0 0 0-3.675-4.422 37.588 37.588 0 0 0-6.908-.642z"/>
        <rect width="16.883" height="9.44" x="21.64" y="19.508" fill="#BEBDC0" rx=".998"/>
        <rect width="7.097" height="3.744" x="21.496" y="30.784" fill="#D8D9DA" rx=".784"/>
        <path fill="#7A7F80" d="M27.81 30.928a.64.64 0 0 1 .64.64v2.173a.64.64 0 0 1-.64.64h-5.528a.64.64 0 0 1-.642-.64v-2.174a.639.639 0 0 1 .642-.64h5.527m0-.287h-5.527a.929.929 0 0 0-.928.927v2.174a.929.929 0 0 0 .928.93h5.527a.929.929 0 0 0 .928-.93v-2.174a.929.929 0 0 0-.928-.927z"/>
        <rect width="7.097" height="3.744" x="31.569" y="30.784" fill="#D8D9DA" rx=".784"/>
        <path fill="#7A7F80" d="M37.882 30.928a.639.639 0 0 1 .64.64v2.173a.64.64 0 0 1-.64.64h-5.527a.64.64 0 0 1-.64-.64v-2.174a.64.64 0 0 1 .64-.64h5.53m0-.287h-5.53a.929.929 0 0 0-.928.927v2.174a.929.929 0 0 0 .928.93h5.53a.929.929 0 0 0 .927-.927v-2.177a.929.929 0 0 0-.928-.927z"/>
        <path fill="#000" d="M37.525 19.316H22.638a1.19 1.19 0 0 0-1.19 1.19v7.445c0 .657.533 1.19 1.19 1.19h14.887a1.19 1.19 0 0 0 1.19-1.19v-7.445a1.19 1.19 0 0 0-1.19-1.19zm-14.887.384h14.887c.445 0 .806.36.806.806v7.445c0 .445-.36.806-.806.806H22.638a.806.806 0 0 1-.806-.806v-7.445c0-.445.36-.806.806-.806z"/>
        <path fill="#FFF" d="M20.898 12.972l1.563-1.563.722.722-1.563 1.563zM37.525 28.757v.383H22.637v-.383zM27.81 30.784v.288h-5.53v-.288zM37.882 30.784v.288h-5.53v-.288z"/>
        <path fill="#FFF" d="M30.081 10.238c2.264.001 4.523.21 6.749.627a3.645 3.645 0 0 1 2.969 3.577v20.721c.003 2.37-.48 4.714-1.42 6.89l-2.768 6.438a1.955 1.955 0 0 1-1.797 1.182h-7.465a1.955 1.955 0 0 1-1.796-1.183l-2.774-6.458a17.343 17.343 0 0 1-1.416-6.882V14.442a3.645 3.645 0 0 1 2.974-3.577 36.785 36.785 0 0 1 6.744-.627m0-.48c-2.295 0-4.584.213-6.84.636a4.118 4.118 0 0 0-3.357 4.048V35.15c0 2.43.495 4.837 1.454 7.07l2.773 6.456a2.436 2.436 0 0 0 2.238 1.474h7.465c.973 0 1.852-.58 2.237-1.473l2.77-6.437a17.913 17.913 0 0 0 1.457-7.08V14.44a4.118 4.118 0 0 0-3.357-4.05 37.146 37.146 0 0 0-6.84-.631z"/>
        <path fill="#D8D9DA" d="M24.891 49.666c.42.315.933.486 1.458.486h7.465c.973 0 1.852-.58 2.237-1.473l2.77-6.437a17.913 17.913 0 0 0 1.457-7.08L24.891 49.666z"/>
        <path fill="#FFF" d="M23.241 11.79a37.107 37.107 0 0 1 13.674 0c1.469.275 2.878 1.322 2.878 2.652h.48a4.118 4.118 0 0 0-3.358-4.048 37.107 37.107 0 0 0-13.674 0 4.118 4.118 0 0 0-3.357 4.048h.48c0-1.342 1.41-2.381 2.877-2.652z"/>
        <path fill="#D8D9DA" d="M26.35 50.342c-1.051 0-2-.625-2.414-1.59l-2.774-6.456a18.004 18.004 0 0 1-1.47-7.146V14.442a4.317 4.317 0 0 1 3.517-4.237c4.542-.85 9.202-.85 13.745 0a4.317 4.317 0 0 1 3.516 4.237v20.721a18.012 18.012 0 0 1-1.473 7.155l-2.77 6.437a2.625 2.625 0 0 1-2.413 1.59l-7.465-.003z"/>
        <path fill="#7A7F80" d="M30.081 9.759c2.294 0 4.583.212 6.837.635a4.118 4.118 0 0 1 3.358 4.048v20.721c0 2.434-.496 4.843-1.459 7.08l-2.769 6.437a2.435 2.435 0 0 1-2.237 1.473h-7.462c-.973 0-1.853-.58-2.238-1.474l-2.773-6.458a17.919 17.919 0 0 1-1.454-7.071V14.442a4.118 4.118 0 0 1 3.357-4.048 37.149 37.149 0 0 1 6.84-.635m0-.384c-2.317 0-4.63.215-6.907.642a4.509 4.509 0 0 0-3.674 4.425V35.15a18.19 18.19 0 0 0 1.486 7.225l2.773 6.452a2.818 2.818 0 0 0 2.59 1.707h7.465a2.816 2.816 0 0 0 2.59-1.706l2.77-6.437a18.185 18.185 0 0 0 1.49-7.23V14.438a4.509 4.509 0 0 0-3.675-4.422 37.588 37.588 0 0 0-6.908-.642z"/>
        <path fill="#FFF" d="M37.478 29.534H22.683a1.043 1.043 0 0 1-1.043-1.044v-.54h16.884v.54a1.044 1.044 0 0 1-1.046 1.044z"/>
        <rect width="16.499" height="9.057" x="21.832" y="19.7" fill="#C6E2BA" rx=".806"/>
        <path fill="#7A7F80" d="M37.525 19.892c.339 0 .613.275.613.614v7.445a.614.614 0 0 1-.613.614H22.637a.614.614 0 0 1-.613-.614v-7.448c0-.339.274-.614.613-.614h14.888m0-.384H22.637a.997.997 0 0 0-.997.998v7.445c0 .55.447.996.997.997h14.888c.55 0 .997-.447.997-.998v-7.444a.997.997 0 0 0-.997-.998z"/>
        <path fill="#FFF" d="M21.64 30.928h6.809v1H21.64zM31.713 30.928h6.809v1h-6.809z"/>
        <path fill="#7A7F80" d="M27.81 30.928a.64.64 0 0 1 .64.64v2.173a.64.64 0 0 1-.64.64h-5.528a.64.64 0 0 1-.642-.64v-2.174a.639.639 0 0 1 .642-.64h5.527m0-.287h-5.527a.929.929 0 0 0-.928.927v2.174a.929.929 0 0 0 .928.93h5.527a.929.929 0 0 0 .928-.93v-2.174a.929.929 0 0 0-.928-.927zM37.882 30.928a.639.639 0 0 1 .64.64v2.173a.64.64 0 0 1-.64.64h-5.527a.64.64 0 0 1-.64-.64v-2.174a.64.64 0 0 1 .64-.64h5.53m0-.287h-5.53a.929.929 0 0 0-.928.927v2.174a.929.929 0 0 0 .928.93h5.53a.929.929 0 0 0 .927-.927v-2.177a.929.929 0 0 0-.928-.927z"/>
        <path fill="#FFF" d="M20.805 12.879l1.563-1.563.907.907-1.563 1.563z"/>
        <path fill="#FFF" d="M30.081 10.238c2.264.001 4.523.21 6.749.627a3.645 3.645 0 0 1 2.969 3.577v20.721c.003 2.37-.48 4.714-1.42 6.89l-2.768 6.438a1.955 1.955 0 0 1-1.797 1.182h-7.465a1.955 1.955 0 0 1-1.796-1.183l-2.774-6.458a17.343 17.343 0 0 1-1.416-6.882V14.442a3.645 3.645 0 0 1 2.974-3.577 36.785 36.785 0 0 1 6.744-.627m0-.48c-2.295 0-4.584.213-6.84.636a4.118 4.118 0 0 0-3.357 4.048V35.15c0 2.43.495 4.837 1.454 7.07l2.773 6.456a2.436 2.436 0 0 0 2.238 1.474h7.465c.973 0 1.852-.58 2.237-1.473l2.77-6.437a17.913 17.913 0 0 0 1.457-7.08V14.44a4.118 4.118 0 0 0-3.357-4.05 37.146 37.146 0 0 0-6.84-.631z"/>
        <path fill="#D8D9DA" d="M24.891 49.666c.42.315.933.486 1.458.486h7.465c.973 0 1.852-.58 2.237-1.473l2.77-6.437a17.913 17.913 0 0 0 1.457-7.08L24.891 49.666z"/>
        <path fill="#FFF" d="M23.241 11.79a37.107 37.107 0 0 1 13.674 0c1.469.275 2.878 1.322 2.878 2.652h.48a4.118 4.118 0 0 0-3.358-4.048 37.107 37.107 0 0 0-13.674 0 4.118 4.118 0 0 0-3.357 4.048h.48c0-1.342 1.41-2.381 2.877-2.652z"/>
        <path fill="#E1EEDC" d="M37.946 27.89v-7.003l-7.482 7.482h7.003a.48.48 0 0 0 .48-.48z"/>
    </g>
</svg>
