<svg xmlns="http://www.w3.org/2000/svg" width="30" height="46" viewBox="0 0 30 46">
    <g fill="none" fill-rule="nonzero" transform="translate(-15 -7)">
        <path fill="#7A7F80" d="M41.113 7.317H18.787a3.22 3.22 0 0 0-3.22 3.22v24.681c0 3.763.962 7.005 3.01 9.53l6.17 7.621c.155.191.387.302.633.302h9.141c.246 0 .478-.111.632-.302l6.17-7.62c2.049-2.53 3.01-5.77 3.01-9.53V10.536a3.22 3.22 0 0 0-3.22-3.22zm-22.326.366h22.326a2.855 2.855 0 0 1 2.856 2.854v24.681c0 3.683-.939 6.843-2.929 9.3l-6.17 7.622a.448.448 0 0 1-.349.166H25.38a.45.45 0 0 1-.35-.167l-6.169-7.62c-1.99-2.455-2.928-5.616-2.928-9.3V10.536a2.855 2.855 0 0 1 2.854-2.854z"/>
        <path fill="#D8D9DA" d="M41.582 35.913v-24.59a1.676 1.676 0 0 0-1.68-1.676H20.03c-.925 0-1.676.75-1.676 1.676v24.6c0 1.877.447 3.725 1.302 5.395l1.165 2.273-1.761 1.46 5.83 7.202c.12.148.3.233.49.233h9.142a.63.63 0 0 0 .49-.233l5.831-7.201-1.746-1.452 1.171-2.275a11.823 11.823 0 0 0 1.315-5.412z"/>
        <path fill="#D8D9DA" d="M19.564 11.911a.958.958 0 0 1-.62-.226l-1.76-1.49a.958.958 0 0 1 1.238-1.46l1.761 1.49a.958.958 0 0 1-.62 1.69v-.004z"/>
        <rect width="20.231" height="20.231" x="19.835" y="14.063" fill="#7A7F80" rx="3.128"/>
        <rect width="20.231" height="20.231" x="19.835" y="16.144" fill="#FFF" rx="3.128"/>
        <rect width="19.866" height="19.866" x="20.017" y="15.37" fill="#C6E2BA" rx="2.641"/>
        <path fill="#7A7F80" d="M38.893 15.553a.81.81 0 0 1 .808.808v17.883a.81.81 0 0 1-.808.808H21.008a.809.809 0 0 1-.808-.808V16.361c0-.446.361-.808.808-.808h17.885m0-.366H21.008c-.648 0-1.173.526-1.173 1.174v17.883a1.174 1.174 0 0 0 1.173 1.175h17.885a1.174 1.174 0 0 0 1.173-1.175V16.361c0-.648-.525-1.174-1.173-1.174z"/>
        <path fill="#7A7F80" d="M41.113 7.317H18.787a3.22 3.22 0 0 0-3.22 3.22v24.681c0 3.763.962 7.005 3.01 9.53l6.17 7.621c.155.191.387.302.633.302h9.141c.246 0 .478-.111.632-.302l6.17-7.62c2.049-2.53 3.01-5.77 3.01-9.53V10.536a3.22 3.22 0 0 0-3.22-3.22zm-22.326.366h22.326a2.855 2.855 0 0 1 2.856 2.854v24.681c0 3.683-.939 6.843-2.929 9.3l-6.17 7.622a.448.448 0 0 1-.349.166H25.38a.45.45 0 0 1-.35-.167l-6.169-7.62c-1.99-2.455-2.928-5.616-2.928-9.3V10.536a2.855 2.855 0 0 1 2.854-2.854z"/>
        <path fill="#E1EEDC" d="M39.51 34.125V22.3L26.939 34.87h11.824a.747.747 0 0 0 .747-.746z"/>
    </g>
</svg>
