<svg xmlns="http://www.w3.org/2000/svg" width="30" height="46" viewBox="0 0 30 46">
    <g fill="none" fill-rule="evenodd">
        <path fill="#7A7F80" fill-rule="nonzero" d="M26.113.317H3.787a3.22 3.22 0 0 0-3.22 3.22v24.681c0 3.763.962 7.005 3.01 9.53l6.17 7.621c.155.191.387.302.633.302h9.141c.246 0 .478-.111.632-.302l6.17-7.62c2.049-2.53 3.01-5.77 3.01-9.53V3.536a3.22 3.22 0 0 0-3.22-3.22z"/>
        <path fill="#E6E6E6" d="M26.113 1.058H3.787A2.48 2.48 0 0 0 1.309 3.45l-.001.087v24.681c0 3.594.907 6.594 2.725 8.914l.12.15 6.168 7.62c.01.013.023.021.037.025l.022.004h9.141a.073.073 0 0 0 .041-.013l.016-.014 6.17-7.621c1.858-2.295 2.805-5.266 2.844-8.831l.002-.234V3.537A2.48 2.48 0 0 0 26.2 1.059l-.087-.001z"/>
        <path fill="#FFF" fill-rule="nonzero" d="M14.446 26.75c1.756 0 3.179 1.033 3.179 2.625S16.202 32 14.446 32c-1.755 0-3.196-1.033-3.196-2.625s1.449-2.625 3.196-2.625zM14.521 8.375c4.689 0 7.979 2.35 7.979 6.397 0 2.943-1.736 4.373-3.777 5.813-1.384 1.03-2.041 1.628-2.565 2.848-.575 1.027-1.013 1.817-2.413 1.817-1.484 0-2.226-.944-2.226-2.178 0-1.835.893-3.02 2.985-4.63 1.486-1.151 2.53-1.921 2.53-3.344 0-1.562-1.434-2.47-3.036-2.47a3.669 3.669 0 0 0-3.12 1.543c-.575.6-1.03.927-1.805.927-1.283 0-1.948-.91-1.948-1.962s.592-2.144 1.52-2.966c1.254-1.094 3.246-1.795 5.876-1.795z"/>
    </g>
</svg>
