<svg xmlns="http://www.w3.org/2000/svg" width="360" height="280" viewBox="0 0 360 280">
    <g fill="none" fill-rule="nonzero">
        <path fill="#FFF" d="M160.18 97.352h122.366v74.808H160.179z"/>
        <path fill="#A3A4A9" d="M281.638 172.096H160.363V98.375h121.275v73.721zm1.092-74.814H159.27v75.906H282.73V97.282z"/>
        <path fill="#D8D9DA" d="M281.638 98.375v9.68H221.68l13.317 64.037H171.65v-64.037h-11.287v-9.68h121.275z" opacity=".5"/>
        <path fill="#FFF" d="M279.817 170.276H162.183v-70.081h117.634v70.081zm1.82-71.901H160.364v73.721h121.275V98.375z"/>
        <path fill="#FFF" d="M83.847 113.616l120.244-25.558 16.705 78.59-120.244 25.56z"/>
        <path fill="#A3A4A9" d="M219.827 166.582l-119.294 24.776-15.707-77.684L204.12 88.897l15.707 77.685zm-14.86-78.977l-1.07.222-119.293 24.771-1.069.227.222 1.07 15.708 77.686.222 1.068 1.068-.222 119.294-24.777 1.068-.222-.222-1.068-15.707-77.685-.222-1.07z"/>
        <circle cx="210.996" cy="101.605" r="12.996" fill="#F9C447" opacity=".4"/>
        <circle cx="210.996" cy="101.605" r="8.796" fill="#F9C447"/>
        <path fill="#FFF" d="M210.995 96.074l5.53 5.53-5.53 5.53-5.53-5.53z"/>
        <circle cx="285.004" cy="126" r="10.12" fill="#F9C447" opacity=".4"/>
        <circle cx="285.004" cy="126" r="6.851" fill="#F9C447"/>
        <path fill="#FFF" d="M284.95 121.695l4.353 4.263-4.262 4.352-4.353-4.262z"/>
        <circle cx="197.414" cy="172.846" r="10.12" fill="#F9C447" opacity=".4"/>
        <circle cx="197.414" cy="172.846" r="6.851" fill="#F9C447"/>
        <path fill="#FFF" d="M197.363 168.534l4.352 4.262-4.262 4.353-4.353-4.263z"/>
        <circle cx="266.553" cy="76.915" r="11.915" fill="#F9C447" opacity=".4"/>
        <circle cx="266.553" cy="76.915" r="8.066" fill="#F9C447"/>
        <path fill="#FFF" d="M266.495 71.848l5.123 5.016-5.017 5.123-5.123-5.016z"/>
        <circle cx="249.299" cy="189.966" r="11.915" fill="#F9C447" opacity=".4"/>
        <circle cx="249.299" cy="189.966" r="8.066" fill="#F9C447"/>
        <path fill="#FFF" d="M249.238 184.894l5.122 5.017-5.016 5.123-5.123-5.017z"/>
    </g>
</svg>
