<svg xmlns="http://www.w3.org/2000/svg" width="160" height="160" viewBox="0 0 160 160">
    <path fill="#FBD178" fill-rule="nonzero" d="M81.103 135.508l.02 14.364-2.18.003-.02-14.364 2.18-.003zm-41.18-16.99l1.544 1.54-10.142 10.17-1.544-1.54 10.142-10.17zm80.134-.11l10.17 10.143-1.539 1.544-10.17-10.143 1.54-1.544zM79.94 40.636c21.706 0 39.302 17.597 39.302 39.303 0 21.706-17.596 39.302-39.302 39.302S40.636 101.645 40.636 79.94 58.233 40.636 79.94 40.636zm0 30.343a2.48 2.48 0 0 0-2.477 2.477v24.65a2.48 2.48 0 0 0 4.956-.18v-24.47l-.005-.163a2.48 2.48 0 0 0-2.474-2.314zm-55.574 7.944l.003 2.18-14.364.02-.003-2.18 14.364-.02zm125.507-.17l.003 2.18-14.364.02-.003-2.18 14.364-.02zM79.939 60.196a3.352 3.352 0 1 0 0 6.703 3.352 3.352 0 0 0 0-6.703zM31.188 29.78l10.17 10.142-1.54 1.544-10.17-10.142 1.54-1.544zm97.363-.133l1.544 1.54-10.143 10.17-1.544-1.54 10.143-10.17zM80.933 10l.02 14.364-2.18.003-.02-14.364 2.18-.003z"/>
</svg>
