<svg width="64" height="64" viewBox="0 0 64 64" fill="none" xmlns="http://www.w3.org/2000/svg">
    <circle cx="32" cy="32" r="32" fill="#F9EEEE"/>
    <path d="M32 29V34" stroke="#CD4949" stroke-width="2" stroke-linecap="round" stroke-linejoin="round"/>
    <path d="M30.27 20.9981L19.273 39.9971C19.097 40.3011 19.0042 40.6461 19.0039 40.9974C19.0036 41.3486 19.0958 41.6938 19.2713 41.9981C19.4468 42.3024 19.6993 42.5551 20.0034 42.7308C20.3076 42.9065 20.6527 42.999 21.0039 42.999H42.998C43.3492 42.999 43.6943 42.9065 43.9985 42.7308C44.3026 42.5551 44.5551 42.3024 44.7306 41.9981C44.906 41.6938 44.9983 41.3486 44.998 40.9974C44.9977 40.6461 44.9049 40.3011 44.7289 39.9971L33.7319 20.9981C33.5562 20.6946 33.3038 20.4426 33 20.2674C32.6962 20.0922 32.3516 20 32.0009 20C31.6502 20 31.3057 20.0922 31.0019 20.2674C30.6981 20.4426 30.4457 20.6946 30.27 20.9981V20.9981Z" stroke="#CD4949" stroke-width="2" stroke-linecap="round" stroke-linejoin="round"/>
    <path d="M33.4375 38.5C33.4375 39.2939 32.7939 39.9375 32 39.9375C31.2061 39.9375 30.5625 39.2939 30.5625 38.5C30.5625 37.7061 31.2061 37.0625 32 37.0625C32.7939 37.0625 33.4375 37.7061 33.4375 38.5Z" fill="#CD4949" stroke="#CD4949" stroke-width="0.125"/>
</svg>

