<svg xmlns="http://www.w3.org/2000/svg" width="360" height="280" viewBox="0 0 360 280">
    <defs>
        <filter id="a" width="110.2%" height="104.5%" x="-5.7%" y="-2.5%" filterUnits="objectBoundingBox">
            <feOffset dx="1" dy="2" in="SourceAlpha" result="shadowOffsetOuter1"/>
            <feColorMatrix in="shadowOffsetOuter1" result="shadowMatrixOuter1" values="0 0 0 0 0.7 0 0 0 0 0.7 0 0 0 0 0.7 0 0 0 1 0"/>
            <feMerge>
                <feMergeNode in="shadowMatrixOuter1"/>
                <feMergeNode in="SourceGraphic"/>
            </feMerge>
        </filter>
    </defs>
    <g fill="none" fill-rule="evenodd">
        <g filter="url(#a)" transform="translate(53 49.912)">
            <path stroke="#D8D9DA" stroke-width="6.154" d="M43.516 201.015v-37.594"/>
            <path fill="#BEBDC0" fill-rule="nonzero" d="M33.796 123.278h19.443V159.7H33.796z"/>
            <path stroke="#BEBDC0" stroke-width="6.154" d="M43.502 169.029l.017 27.047"/>
            <path fill="#D8D9DA" fill-rule="nonzero" d="M37.172 150.736H49.86v37.113H37.172z"/>
            <path fill="#7A7F80" fill-rule="nonzero" d="M49.3 151.298v35.992H37.732v-35.992h11.57m1.119-1.119H36.613v38.23H50.42v-38.23z"/>
            <path fill="#D8D9DA" fill-rule="nonzero" d="M32.26 140.931h22.512v33.421H32.26z"/>
            <path fill="#7A7F80" fill-rule="nonzero" d="M54.215 141.49v32.3H32.82v-32.3h21.395m1.12-1.118H31.7v34.537h23.633v-34.537z"/>
            <path fill="#FFF" fill-rule="nonzero" d="M49.51 171.793h2.143v-25.354a2.143 2.143 0 0 0-2.143-2.134v27.488zM42.375 186.931h6.498v-6.497a6.498 6.498 0 0 0-6.498 6.497z"/>
            <path fill="#FFF" fill-rule="nonzero" stroke="#7A7F80" stroke-width="1.119" d="M77.726 0H9.306A9.306 9.306 0 0 0 0 9.306V84.94c0 10.506 2.487 20.7 9.1 28.856l18.906 23.354c.367.455.92.721 1.504.721h28.014c.584 0 1.136-.262 1.503-.716l18.909-23.354c6.61-8.165 9.099-18.35 9.099-28.856V9.306A9.306 9.306 0 0 0 77.725 0z"/>
            <path fill="#D8D9DA" fill-rule="nonzero" d="M79.16 87.071V11.717a5.136 5.136 0 0 0-5.135-5.135H13.113a5.136 5.136 0 0 0-5.135 5.135v75.388a36.229 36.229 0 0 0 3.988 16.526l3.572 6.97-5.398 4.476 17.866 22.07c.366.456.92.722 1.504.724h28.014c.584 0 1.136-.262 1.503-.716l17.868-22.07-5.35-4.45 3.588-6.973a36.24 36.24 0 0 0 4.028-16.59z"/>
            <path fill="#D8D9DA" fill-rule="nonzero" d="M11.687 13.516a2.92 2.92 0 0 1-1.897-.68L4.392 8.271a2.937 2.937 0 1 1 3.793-4.475l5.398 4.565a2.937 2.937 0 0 1-1.9 5.177l.004-.022z"/>
            <rect width="61.997" height="61.997" x="12.517" y="20.112" fill="#7A7F80" fill-rule="nonzero" rx="3.594"/>
            <rect width="61.997" height="61.997" x="12.517" y="26.49" fill="#FFF" fill-rule="nonzero" rx="3.594"/>
            <rect width="60.878" height="60.878" x="13.077" y="24.117" fill="#FFF" fill-rule="nonzero" rx="3.035"/>
            <path fill="#7A7F80" fill-rule="nonzero" d="M70.92 24.677a2.481 2.481 0 0 1 2.479 2.475v54.809a2.481 2.481 0 0 1-2.479 2.475H16.112a2.478 2.478 0 0 1-2.476-2.475V27.152a2.478 2.478 0 0 1 2.476-2.475H70.92m0-1.119H16.112a3.594 3.594 0 0 0-3.595 3.594v54.809a3.594 3.594 0 0 0 3.595 3.603H70.92a3.594 3.594 0 0 0 3.597-3.595V27.152a3.594 3.594 0 0 0-3.597-3.594z"/>
            <path stroke="#7A7F80" stroke-width="1.119" d="M77.726 0H9.306A9.306 9.306 0 0 0 0 9.306V84.94c0 10.506 2.487 20.7 9.1 28.856l18.906 23.354c.367.455.92.721 1.504.721h28.014c.584 0 1.136-.262 1.503-.716l18.909-23.354c6.61-8.165 9.099-18.35 9.099-28.856V9.306A9.306 9.306 0 0 0 77.725 0z"/>
            <path fill="#C6E2BA" fill-rule="nonzero" d="M23.497 28.45h31.446v6.392H23.497zM23.497 49.706h35.194v6.392H23.497zM23.497 39.11h38.087v6.392H23.497zM23.497 60.509h40.137v6.392H23.497zM23.497 71.194h31.446v6.392H23.497z"/>
            <path stroke="#6DBC47" stroke-width="1.119" d="M23.497 34.845h40.137M23.497 45.53h40.137M23.497 56.215h40.137M23.497 66.901h40.137M23.497 77.586h40.137"/>
        </g>
        <path fill="#FFF" fill-rule="nonzero" stroke="#8FCB7F" stroke-width="1.678" d="M306.799 70.524v137.013H170.79V70.524"/>
        <path fill="#8FCB7F" fill-rule="nonzero" d="M231.5 97.604a2.57 2.57 0 0 1 2.569 2.568v5.41a2.57 2.57 0 0 1-2.568 2.568h-40.694a2.57 2.57 0 0 1-2.568-2.568v-5.41a2.57 2.57 0 0 1 2.568-2.568h40.694m0-1.119h-40.694a3.69 3.69 0 0 0-3.687 3.687v5.41a3.69 3.69 0 0 0 3.687 3.687h40.694a3.69 3.69 0 0 0 3.686-3.687v-5.41a3.69 3.69 0 0 0-3.686-3.687zM231.5 113.993a2.57 2.57 0 0 1 2.569 2.568v5.407a2.57 2.57 0 0 1-2.568 2.57h-40.694a2.57 2.57 0 0 1-2.568-2.57v-5.407a2.57 2.57 0 0 1 2.568-2.568h40.694m0-1.119h-40.694a3.69 3.69 0 0 0-3.687 3.687v5.407a3.692 3.692 0 0 0 3.687 3.69h40.694a3.692 3.692 0 0 0 3.686-3.69v-5.407a3.69 3.69 0 0 0-3.686-3.687zM231.5 130.379a2.57 2.57 0 0 1 2.569 2.57v5.408a2.57 2.57 0 0 1-2.568 2.567h-40.694a2.57 2.57 0 0 1-2.568-2.567v-5.407a2.57 2.57 0 0 1 2.568-2.571h40.694m0-1.119h-40.694a3.692 3.692 0 0 0-3.687 3.69v5.407a3.69 3.69 0 0 0 3.687 3.692h40.694a3.69 3.69 0 0 0 3.686-3.687v-5.412a3.692 3.692 0 0 0-3.686-3.69zM231.5 146.768a2.57 2.57 0 0 1 2.569 2.568v5.41a2.57 2.57 0 0 1-2.568 2.567h-40.694a2.57 2.57 0 0 1-2.568-2.568v-5.41a2.57 2.57 0 0 1 2.568-2.567h40.694m0-1.119h-40.694a3.69 3.69 0 0 0-3.687 3.687v5.41a3.692 3.692 0 0 0 3.687 3.686h40.694a3.692 3.692 0 0 0 3.686-3.687v-5.41a3.69 3.69 0 0 0-3.686-3.686zM231.5 163.157a2.57 2.57 0 0 1 2.569 2.567v5.416a2.57 2.57 0 0 1-2.568 2.568h-40.694a2.57 2.57 0 0 1-2.568-2.568v-5.416a2.57 2.57 0 0 1 2.568-2.567h40.694m0-1.12h-40.694a3.69 3.69 0 0 0-3.687 3.687v5.416a3.69 3.69 0 0 0 3.687 3.687h40.694a3.69 3.69 0 0 0 3.686-3.687v-5.416a3.69 3.69 0 0 0-3.686-3.686zM231.5 179.531a2.57 2.57 0 0 1 2.569 2.568v5.41a2.57 2.57 0 0 1-2.568 2.568h-40.694a2.57 2.57 0 0 1-2.568-2.568v-5.399a2.57 2.57 0 0 1 2.568-2.567h40.694m0-1.12h-40.694a3.692 3.692 0 0 0-3.687 3.687v5.41a3.69 3.69 0 0 0 3.687 3.687h40.694a3.69 3.69 0 0 0 3.686-3.687v-5.41a3.692 3.692 0 0 0-3.686-3.697v.01zM286.779 97.604a2.57 2.57 0 0 1 2.568 2.568v5.41a2.57 2.57 0 0 1-2.568 2.568h-40.694a2.57 2.57 0 0 1-2.568-2.568v-5.41a2.57 2.57 0 0 1 2.568-2.568h40.694m0-1.119h-40.694a3.69 3.69 0 0 0-3.686 3.687v5.41a3.69 3.69 0 0 0 3.686 3.687h40.694a3.69 3.69 0 0 0 3.687-3.687v-5.41a3.69 3.69 0 0 0-3.687-3.687zM286.779 113.993a2.57 2.57 0 0 1 2.568 2.568v5.407a2.57 2.57 0 0 1-2.568 2.57h-40.694a2.57 2.57 0 0 1-2.568-2.57v-5.407a2.57 2.57 0 0 1 2.568-2.568h40.694m0-1.119h-40.694a3.69 3.69 0 0 0-3.686 3.687v5.407a3.692 3.692 0 0 0 3.686 3.69h40.694a3.692 3.692 0 0 0 3.687-3.69v-5.407a3.69 3.69 0 0 0-3.687-3.687zM286.779 130.379a2.57 2.57 0 0 1 2.568 2.57v5.408a2.57 2.57 0 0 1-2.568 2.567h-40.694a2.57 2.57 0 0 1-2.568-2.567v-5.407a2.57 2.57 0 0 1 2.568-2.571h40.694m0-1.119h-40.694a3.692 3.692 0 0 0-3.686 3.69v5.407a3.69 3.69 0 0 0 3.686 3.692h40.694a3.69 3.69 0 0 0 3.687-3.687v-5.412a3.692 3.692 0 0 0-3.687-3.69zM286.779 146.768a2.57 2.57 0 0 1 2.568 2.568v5.41a2.57 2.57 0 0 1-2.568 2.567h-40.694a2.57 2.57 0 0 1-2.568-2.568v-5.41a2.57 2.57 0 0 1 2.568-2.567h40.694m0-1.119h-40.694a3.69 3.69 0 0 0-3.686 3.687v5.41a3.692 3.692 0 0 0 3.686 3.686h40.694a3.692 3.692 0 0 0 3.687-3.687v-5.41a3.69 3.69 0 0 0-3.687-3.686zM286.779 163.157a2.57 2.57 0 0 1 2.568 2.567v5.416a2.57 2.57 0 0 1-2.568 2.568h-40.694a2.57 2.57 0 0 1-2.568-2.568v-5.416a2.57 2.57 0 0 1 2.568-2.567h40.694m0-1.12h-40.694a3.69 3.69 0 0 0-3.686 3.687v5.416a3.69 3.69 0 0 0 3.686 3.687h40.694a3.69 3.69 0 0 0 3.687-3.687v-5.416a3.69 3.69 0 0 0-3.687-3.686zM286.779 179.531a2.57 2.57 0 0 1 2.568 2.568v5.41a2.57 2.57 0 0 1-2.568 2.568h-40.694a2.57 2.57 0 0 1-2.568-2.568v-5.399a2.57 2.57 0 0 1 2.568-2.567h40.694m0-1.12h-40.694a3.692 3.692 0 0 0-3.686 3.687v5.41a3.69 3.69 0 0 0 3.686 3.687h40.694a3.69 3.69 0 0 0 3.687-3.687v-5.41a3.692 3.692 0 0 0-3.687-3.697v.01z"/>
        <text fill="#8FCB7F" font-family="TTHoves-Medium, TT Hoves" font-size="10" font-weight="400">
            <tspan x="189.842" y="90.066">RECOVERY SEED</tspan>
        </text>
        <path stroke="#FEC746" stroke-width="1.678" d="M183.811 134.979c-31.233-12.103-60.445-32.203-60.445-32.203M174.905 139.813l8.906-4.848-4.847-8.906"/>
        <path fill="#FFF" fill-rule="nonzero" stroke="#8FCB7F" stroke-width=".6" d="M169.951 70.524h137.684"/>
        <path fill="#C6E2BA" fill-rule="nonzero" d="M191.993 99.657h24.439v5.994h-24.439zM191.993 132.485h32.045v5.994h-32.045zM191.993 116.071h29.287v5.994h-29.287z"/>
        <path fill="#FFF" fill-rule="nonzero" stroke="#7A7F80" stroke-linecap="round" stroke-width="1.678" d="M227.808 134.06l-4.005 3.95"/>
        <path fill="#FFF" fill-rule="nonzero" stroke="#7A7F80" stroke-width="1.119" d="M235.655 133.11l-6.014 2.805-3.788-3.838 3.007-5.852 83.446-82.35 6.795 6.887zM257.716 97.747l6.794 6.887"/>
        <path fill="#FFF" fill-rule="nonzero" stroke="#7A7F80" stroke-width="1.119" d="M330.625 41.929a6.512 6.512 0 0 0-9.135-9.25l-33.427 32.967 9.147 9.27 33.42-32.982-.005-.005z"/>
        <path stroke="#7A7F80" stroke-width="1.119" d="M330.625 41.929a4.638 4.638 0 0 1-.042 6.556l-30.12 29.726"/>
    </g>
</svg>
