<svg xmlns="http://www.w3.org/2000/svg" xml:space="preserve" fill="none" viewBox="0 0 24 24">
  <path fill="#000" fill-rule="evenodd" d="M7.18 3.826c-.175.091-3.251 3.167-3.343 3.342a.8.8 0 0 0-.013.644c.088.177 3.161 3.255 3.344 3.351.27.14.685.07.877-.149.196-.223.253-.582.131-.826-.035-.07-.471-.538-.97-1.038l-.905-.91h6.691c6.09 0 6.703-.006 6.82-.065a.73.73 0 0 0 .428-.675.72.72 0 0 0-.408-.664c-.144-.074-.353-.076-6.84-.076H6.301l.905-.91c.499-.5.935-.968.97-1.038.127-.254.048-.673-.162-.857-.222-.195-.596-.253-.834-.129m9 9.001a.7.7 0 0 0-.344.341.8.8 0 0 0-.012.644c.035.07.471.538.97 1.038l.905.91h-6.691c-6.487 0-6.696.002-6.84.076a.72.72 0 0 0-.408.664c0 .297.15.535.428.675.117.059.73.065 6.82.065h6.691l-.905.91c-.499.501-.935.968-.97 1.038-.122.244-.065.603.131.826.192.219.607.289.877.149.183-.096 3.256-3.174 3.344-3.351a.8.8 0 0 0-.013-.644c-.096-.183-3.174-3.256-3.351-3.344-.162-.081-.476-.08-.632.003"/>
</svg>
