<svg xmlns="http://www.w3.org/2000/svg" viewBox="0 0 40 16">
  <path fill-rule="evenodd" d="M.507.151c-.836.479-.571 1.724.39 1.832C1.949 2.102 2.416.7 1.502.164 1.155-.039.845-.043.507.151m0 3c-.836.479-.571 1.724.39 1.832 1.052.119 1.519-1.283.605-1.819-.347-.203-.657-.207-.995-.013m0 3c-.836.479-.571 1.724.39 1.832 1.052.119 1.519-1.283.605-1.819-.347-.203-.657-.207-.995-.013m35.183-.078c-.271.078-.605.46-.66.755-.079.42.074.69.825 1.455l.704.717-17.896.001-17.896.001-.26.149c-.683.392-.653 1.406.052 1.741.208.099 1.749.108 18.112.108h17.884l-.739.756c-.789.807-.88.98-.787 1.478.057.306.431.68.737.737.57.107.605.082 2.446-1.759 2.368-2.368 2.361-2.057.1-4.33-1.859-1.87-2.023-1.983-2.622-1.809"/>
</svg>
