<svg xmlns="http://www.w3.org/2000/svg" fill="none" viewBox="0 0 20 21">
  <path fill="#000" fill-rule="evenodd" d="M9.607.04A2.85 2.85 0 0 0 7.46 1.562c-.238.466-.319.8-.318 1.318 0 .52.066.822.272 1.241.276.561.73 1.02 1.293 1.31L9 5.58v1.94H5.98l-.206.118c-.47.27-.646.832-.405 1.301.12.233.223.335.471.465.178.094.193.095 1.67.108L9 9.526v6.353l-.27-.166c-.7-.43-1.253-.597-2.299-.693a10 10 0 0 1-1.03-.146 3.37 3.37 0 0 1-1.689-.988c-.569-.615-.849-1.27-.952-2.225-.05-.477-.167-.76-.375-.92a1.016 1.016 0 0 0-1.393.13c-.204.227-.247.416-.217.95.103 1.78 1.018 3.333 2.545 4.321.8.516 1.673.784 2.801.857.682.044.843.083 1.35.326.337.162.461.248.701.488.47.47.748 1.095.825 1.853.041.407.122.603.33.802a.99.99 0 0 0 1.347 0c.21-.2.28-.38.346-.894.074-.57.1-.654.333-1.11.268-.526.633-.878 1.177-1.139.51-.245.666-.282 1.375-.327.896-.056 1.563-.23 2.305-.6.574-.286.798-.447 1.323-.957.567-.549.793-.842 1.082-1.4a5.4 5.4 0 0 0 .611-2.24c.03-.512-.017-.706-.218-.93a1.016 1.016 0 0 0-1.393-.13c-.208.16-.324.443-.376.92-.086.785-.237 1.226-.613 1.792a3.44 3.44 0 0 1-2 1.423c-.167.044-.56.1-.875.125-1.19.093-1.796.271-2.532.741l-.219.14V9.526l1.49-.013c1.477-.013 1.492-.014 1.67-.108.248-.13.351-.232.471-.465.241-.469.066-1.03-.405-1.3l-.206-.119H11V5.58l.298-.158a2.92 2.92 0 0 0 1.488-1.863c.106-.398.096-1.06-.022-1.44-.257-.835-.767-1.445-1.505-1.803A2.85 2.85 0 0 0 9.607.04m.763 2.064c.51.257.641.851.291 1.31-.128.168-.463.346-.65.346-.162 0-.382-.087-.556-.22-.285-.218-.39-.72-.219-1.054a.86.86 0 0 1 1.134-.382" clip-rule="evenodd"/>
</svg>
