<svg xmlns="http://www.w3.org/2000/svg" xml:space="preserve" fill="none" viewBox="0 0 20 20">
  <path fill="#000" fill-rule="evenodd" d="M8.013 1.818a5.1 5.1 0 0 0-3.086 1.665c-.623.712-1.023 1.536-1.216 2.508-.053.265-.059.643-.069 4.067-.008 2.494 0 3.817.022 3.9a.746.746 0 0 0 1.315.214l.104-.145.019-3.772c.02-4.003.016-3.926.186-4.465a3.68 3.68 0 0 1 2.125-2.287c.495-.193.788-.247 1.337-.247s.842.054 1.337.247c1.261.492 2.148 1.686 2.277 3.068.023.246.036 1.92.036 4.762v4.383l-1.292-1.288c-.71-.708-1.343-1.314-1.406-1.345-.167-.084-.483-.079-.657.01a.8.8 0 0 0-.383.457c-.046.171-.016.428.066.557.035.055.939.978 2.009 2.05 1.319 1.322 1.989 1.97 2.08 2.013a.83.83 0 0 0 .631-.002q.134-.066 2.106-2.042c1.578-1.582 1.979-2.002 2.012-2.104a1.1 1.1 0 0 0 .028-.338.67.67 0 0 0-.352-.574c-.182-.107-.495-.12-.675-.029-.065.032-.698.639-1.409 1.347l-1.291 1.288-.001-4.499c-.001-2.531-.015-4.64-.032-4.82a5.1 5.1 0 0 0-2.851-4.122c-.861-.427-1.986-.6-2.97-.457"/>
</svg>
