<svg xmlns="http://www.w3.org/2000/svg" xml:space="preserve" fill="none" viewBox="0 0 21 20">
  <path fill="#000" fill-rule="evenodd" d="M7.245 4.267a.77.77 0 0 0-.437.254c-.126.15-.163.255-.165.472a.72.72 0 0 0 .317.616l.163.114 3.289.009 3.289.009-4.432 4.436c-3.625 3.628-4.439 4.46-4.474 4.571a.8.8 0 0 0 .091.66c.203.29.64.401.947.242.08-.042 1.909-1.846 4.509-4.448 2.407-2.407 4.387-4.377 4.402-4.377.014 0 .026 1.457.026 3.239 0 3.518-.009 3.359.196 3.565a.76.76 0 0 0 .837.166.8.8 0 0 0 .402-.451c.027-.093.035-1.384.028-4.372l-.01-4.241-.106-.15a.8.8 0 0 0-.279-.239l-.174-.089-4.148-.006c-2.282-.002-4.204.007-4.271.02"/>
</svg>
