<svg xmlns="http://www.w3.org/2000/svg" fill="none" viewBox="0 0 17 16">
  <path fill="#000" fill-rule="evenodd" d="M15.677.4c-.27.055-.418.17-.496.389-.068.19-.068 14.232 0 14.422.098.276.31.398.692.398.352 0 .538-.092.658-.326l.085-.165V.882l-.085-.165a.46.46 0 0 0-.233-.238 1.06 1.06 0 0 0-.62-.078M7.472 1.663c-.182.11-.334.262-.443.444a.61.61 0 0 0 .006.544c.042.08.967 1.032 2.308 2.375l2.24 2.242H6.415c-4.943 0-5.173.004-5.3.062a.7.7 0 0 0-.19.126c-.229.256-.212.906.028 1.119.188.167-.075.159 5.47.159h5.158l-2.239 2.242c-1.34 1.343-2.266 2.295-2.308 2.375-.136.259-.07.539.186.795.258.258.545.323.821.185.094-.048 1.104-1.03 3.057-2.975C14.197 8.269 14.163 8.307 14.163 8s.034-.27-3.064-3.355C9.146 2.7 8.136 1.718 8.042 1.67c-.172-.086-.417-.09-.57-.008" clip-rule="evenodd"/>
</svg>
