<svg xmlns="http://www.w3.org/2000/svg" viewBox="0 0 24 24">
  <path fill-rule="evenodd" d="M7.18 4.326c-.178.067-.566.426-2.114 1.954-1.747 1.725-2.897 2.929-2.975 3.114q-.059.143-.044.428c.013.265.026.301.173.482.216.265 3.357 3.431 4.183 4.217.629.598.674.633.882.676a.96.96 0 0 0 1.073-.496c.148-.288.146-.7-.004-.927-.059-.088-.97-1.032-2.026-2.097L4.407 9.74l1.869-1.88c1.027-1.034 1.937-1.976 2.021-2.092.338-.469.174-1.107-.353-1.376-.189-.097-.589-.131-.764-.066m4.528-.019c-.077.013-.367.263-.94.811-.999.955-3.847 3.824-4.069 4.098-.156.193-.159.202-.158.52 0 .24.02.36.075.462.084.155 3.641 3.752 4.434 4.483.443.409.537.478.713.52a.95.95 0 0 0 .966-.319c.164-.191.231-.392.231-.689a.64.64 0 0 0-.125-.415c-.069-.109-.744-.821-1.5-1.583S9.96 10.787 9.96 10.759c0-.042.246-.046 1.252-.025.689.015 1.449.045 1.69.066 1.496.132 3.207.895 4.418 1.971a8.1 8.1 0 0 1 2.304 3.539c.19.58.284 1.081.355 1.91.075.869.126 1.045.362 1.252.411.362 1.052.32 1.415-.094.165-.187.204-.361.204-.91.001-1.957-.722-4.024-2.008-5.74-.371-.495-1.179-1.327-1.682-1.732a9.94 9.94 0 0 0-4.63-2.091q-.858-.144-2.655-.144L9.91 8.76l1.395-1.412c.767-.776 1.449-1.49 1.515-1.587.109-.159.12-.203.12-.501 0-.293-.012-.346-.121-.522a.88.88 0 0 0-.747-.439 2.3 2.3 0 0 0-.364.008"/>
</svg>
