<svg xmlns="http://www.w3.org/2000/svg" viewBox="0 0 40 40">
  <path fill-rule="evenodd" d="M17.6 3.537c-5.96.556-10.618 2.918-12.283 6.23-.39.776-.519 1.296-.586 2.366-.033.532-.062 4.332-.063 8.445l-.001 7.478.204.589c.276.792.666 1.571 1.029 2.053.388.516 1.217 1.363 1.767 1.804 2.081 1.672 5.153 2.847 8.7 3.328 7.047.956 14.254-1.146 17.131-4.997.403-.539.934-1.517 1.068-1.966.188-.632.243-3.283.218-10.567-.022-6.824-.023-6.87-.168-7.4-.338-1.233-1.228-2.578-2.354-3.555-2.071-1.798-4.852-2.968-8.495-3.573-1.206-.2-4.994-.345-6.167-.235m4.995 3.102c.617.044 1.569.23 2.731.533 3.55.925 6.102 2.82 6.413 4.761.231 1.445-.799 2.957-2.839 4.166-1.494.885-3.628 1.576-5.867 1.897-4.191.602-8.345.077-11.542-1.459-1.094-.526-1.878-1.058-2.566-1.744-.464-.462-.632-.687-.867-1.161-.264-.533-.293-.642-.314-1.161-.026-.651.096-1.098.472-1.725.485-.811 1.692-1.797 3.008-2.458 1.779-.893 4.283-1.577 6.176-1.686.913-.053 4.289-.029 5.195.037m9.183 12.537-.042 1.376-.242.44c-.881 1.606-2.654 2.83-5.371 3.708-3.85 1.245-9.029 1.23-12.863-.038-2.579-.853-4.329-2.056-5.193-3.568l-.3-.526-.062-1.286c-.037-.786-.037-1.31.001-1.348s.294.084.661.313c1.846 1.152 4.005 2 6.312 2.479 5.817 1.209 12.326.235 16.388-2.452.385-.254.712-.465.727-.468s.008.613-.016 1.37m-.002 7.43c-.035 1.1-.069 1.452-.154 1.617-.673 1.311-2.144 2.527-4.028 3.331-4.474 1.909-10.523 2.004-15.105.235-1.551-.598-2.687-1.303-3.622-2.249-.852-.861-1.04-1.239-1.132-2.282-.08-.908-.089-1.904-.016-1.949.029-.018.411.193.85.468 2.048 1.285 4.083 2 7.416 2.606.958.174 1.047.179 3.682.181 2.507.001 2.769-.01 3.666-.153 3.321-.531 5.896-1.461 7.949-2.871.267-.183.497-.334.512-.336s.007.629-.018 1.402"/>
</svg>
