<svg xmlns="http://www.w3.org/2000/svg" viewBox="0 0 33 33">
  <path fill-rule="evenodd" d="m6.27 5.989-1.512.033-.295.164c-.37.204-.692.563-.898.999l-.16.338.018 9.397c.02 10.693-.03 9.695.51 10.291.462.51.742.626 1.641.68.944.056 20.743.056 21.687 0 .899-.054 1.179-.17 1.641-.68.54-.596.49.402.51-10.291l.018-9.397-.165-.351c-.194-.416-.594-.836-.982-1.033L28.008 6l-10.113-.023c-5.562-.012-10.793-.007-11.625.012m21.12 10.924v8.992H5.445V7.92H27.39zm-16.913-4.928c-.396.026-.531.058-.674.161-.217.155-.335.368-.375.682-.04.31.142.665.464.909l.24.181 6.278-.015c6.962-.017 6.44.012 6.764-.374a.948.948 0 0 0-.231-1.442l-.201-.124-5.884-.006c-3.237-.003-6.108.009-6.381.028m-.616 4.125c-.3.217-.481.595-.433.9.05.307.22.567.489.745l.222.147h12.549l.209-.13c.263-.163.462-.46.51-.76.048-.308-.132-.684-.433-.902l-.221-.16H10.082zm.809 3.849c-.672.039-.863.119-1.085.454-.312.472-.124 1.132.399 1.395.215.108.328.11 6.434.11h6.215l.245-.138c.426-.239.617-.653.502-1.083-.065-.239-.372-.593-.603-.692-.157-.068-11.017-.109-12.107-.046"/>
</svg>
