<svg xmlns="http://www.w3.org/2000/svg" xml:space="preserve" fill="none" viewBox="0 0 24 24">
  <path fill="#000" fill-rule="evenodd" d="M6.06 4.798a1.75 1.75 0 0 0-.683.394c-.1.1-.965 1.501-2.317 3.754a347 347 0 0 0-2.228 3.742.74.74 0 0 0 0 .624c.039.081 1.042 1.765 2.228 3.742 1.354 2.255 2.217 3.654 2.317 3.754.088.087.268.216.401.286l.242.126 7.18.012c5.228.009 7.237 0 7.39-.033.445-.095.879-.466 1.054-.9l.096-.239V5.94l-.096-.239c-.168-.417-.588-.787-1.015-.895-.209-.052-14.356-.061-14.569-.008M20.24 13v6.76l-6.91-.01-6.91-.01-2.008-3.34c-1.105-1.837-2.01-3.364-2.01-3.393C2.4 12.96 6.164 6.645 6.369 6.35l.076-.11H20.24zm-10.073-2.914c-.302.149-.457.494-.388.861.024.132.16.286.973 1.103l.945.951-.926.929c-.509.512-.945.981-.969 1.043-.167.445.145.964.613 1.016.345.039.416-.011 1.416-1.003l.931-.924.909.908C14.588 15.886 14.736 16 15 16c.256 0 .546-.181.67-.419.082-.159.078-.49-.009-.662-.039-.076-.468-.539-.954-1.029l-.885-.89.885-.89c.486-.49.915-.953.954-1.029.087-.172.091-.503.009-.662-.124-.238-.414-.419-.67-.419-.264 0-.411.114-1.33 1.031l-.909.908-.911-.908c-.585-.583-.963-.929-1.059-.969a.73.73 0 0 0-.624.024"/>
</svg>
