<svg xmlns="http://www.w3.org/2000/svg" xml:space="preserve" fill="none" viewBox="0 0 24 25">
  <path fill="#000" fill-rule="evenodd" d="M11.36 3.281a9.4 9.4 0 0 0-2.28.428c-.393.12-.482.163-.608.296a.727.727 0 0 0 .364 1.23c.139.031.233.023.459-.039 1.452-.394 1.869-.455 2.925-.424.81.023 1.204.079 1.935.272a8.26 8.26 0 0 1 4.859 3.623c.575.945.92 1.86 1.135 3.013.059.315.071.602.07 1.68-.001.731-.023 1.528-.052 1.82a30 30 0 0 1-.469 3.195 5 5 0 0 0-.098.655c0 .651.866.958 1.288.457.141-.167.175-.275.309-.968.318-1.646.459-2.874.522-4.526.057-1.516-.038-2.565-.323-3.581a9.78 9.78 0 0 0-5.518-6.353c-1.357-.593-3.011-.878-4.518-.778m-5.707 2.36c-.183.093-.902.814-1.256 1.259-.948 1.192-1.632 2.638-1.93 4.08-.13.63-.179 1.098-.225 2.14-.057 1.283-.205 2.006-.62 3.03-.201.496-.22.663-.105.915a.68.68 0 0 0 .581.407c.542.044.739-.194 1.144-1.379.311-.911.456-1.78.498-2.973.053-1.538.272-2.521.816-3.66.432-.902.857-1.504 1.63-2.303.288-.298.503-.554.521-.622.087-.33-.03-.673-.293-.853a.81.81 0 0 0-.761-.041m5.481 2.182a5.8 5.8 0 0 0-2.283.976 5.45 5.45 0 0 0-1.543 1.861c-.38.752-.501 1.286-.55 2.42-.045 1.04-.067 1.304-.163 1.92a12.9 12.9 0 0 1-1.301 3.91c-.212.406-.222.437-.207.673.013.196.04.279.13.397a.765.765 0 0 0 1.019.168c.131-.088.205-.2.456-.696.595-1.178.972-2.216 1.223-3.372.202-.927.274-1.543.325-2.78.05-1.198.183-1.691.642-2.377.522-.78 1.275-1.312 2.222-1.569.404-.11 1.249-.123 1.677-.026q1.058.241 1.859 1.012c.368.355.439.393.731.393.414 0 .709-.3.709-.72 0-.286-.045-.382-.31-.662a5.3 5.3 0 0 0-2.33-1.397c-.662-.192-1.621-.246-2.306-.131m.671 4.456a.73.73 0 0 0-.527.544c-.02.086-.037.364-.037.617-.002.919-.167 2.222-.427 3.375-.16.71-.16.862.005 1.111.266.401.899.414 1.196.024.165-.217.427-1.396.583-2.627.079-.624.18-2.299.145-2.411a2 2 0 0 1-.04-.159c-.029-.133-.198-.338-.338-.41a.95.95 0 0 0-.56-.064m4.535-.002c-.178.043-.275.104-.413.261-.152.173-.153.18-.206 1.387-.109 2.481-.533 4.533-1.426 6.904-.236.626-.26.807-.137 1.048.158.308.412.435.789.392.335-.037.478-.205.732-.858.846-2.176 1.353-4.487 1.519-6.922.054-.787.054-1.613-.001-1.756-.121-.322-.524-.536-.857-.456m-6.28 7.549c-.227.12-.305.233-.682.99-.4.803-.428.907-.316 1.175.205.491.832.633 1.195.269.071-.07.289-.441.484-.824.331-.647.356-.713.358-.939.001-.198-.019-.273-.106-.405-.193-.291-.642-.419-.933-.266"/>
</svg>
