<svg xmlns="http://www.w3.org/2000/svg" fill="none" viewBox="0 0 12 17">
  <path fill="#000" fill-rule="evenodd" d="M1.33.412a1.41 1.41 0 0 0-.946.761C.25 1.466.259.879.265 8.644L.27 15.69l.054.114a.75.75 0 0 0 .88.409c.081-.024.749-.431 2.448-1.493A324 324 0 0 1 6 13.26c.006 0 1.063.657 2.348 1.46 1.699 1.062 2.367 1.469 2.448 1.493.34.098.71-.068.869-.39l.065-.132.005-7.046c.006-7.839.017-7.191-.134-7.495a1.34 1.34 0 0 0-.631-.63c-.305-.15.049-.14-4.984-.138C2.131.383 1.45.387 1.33.412m8.925 7.595c.005 5.654.003 6.136-.027 6.125a204 204 0 0 1-1.973-1.225c-1.101-.688-1.979-1.224-2.031-1.24a1 1 0 0 0-.448 0c-.052.016-.93.552-2.031 1.24a204 204 0 0 1-1.973 1.225c-.029.011-.032-.474-.032-6.117 0-3.37.006-6.134.013-6.142.008-.007 1.922-.011 4.255-.008l4.242.005z"/>
</svg>
