<svg xmlns="http://www.w3.org/2000/svg" xml:space="preserve" fill="none" viewBox="0 0 20 20">
  <path fill="#000" fill-rule="evenodd" d="M4.048 1.53a.737.737 0 0 0-.351.953c.035.078.214.281.424.484l.705.68.341.33-.2.258A6.4 6.4 0 0 0 3.734 7.05l-.056.333-.714.017c-.797.019-.84.029-1.028.258a.73.73 0 0 0 .05.987c.197.194.24.204.972.216l.675.011V9.9l-.658.001c-.75.001-.848.024-1.036.253-.304.368-.189.903.244 1.141.082.045.224.057.773.066l.672.011.012.489c.006.269.006.5 0 .514s-.306.025-.667.026c-.748.001-.846.024-1.034.253-.304.368-.189.903.244 1.141.084.046.234.057.937.065l.837.011.109.289c.662 1.751 2.151 3.17 3.942 3.755a6.36 6.36 0 0 0 6.468-1.527 6.3 6.3 0 0 0 1.458-2.228l.109-.289.837-.011c.703-.008.853-.019.937-.065.433-.238.548-.773.244-1.141-.188-.229-.286-.252-1.034-.253-.361-.001-.661-.012-.667-.026a6 6 0 0 1 0-.514l.012-.489.672-.011c.549-.009.691-.021.773-.066.433-.238.548-.773.244-1.141-.188-.229-.286-.252-1.036-.253l-.658-.001V8.872l.675-.011c.732-.012.775-.022.972-.216a.73.73 0 0 0 .05-.987c-.188-.229-.231-.239-1.028-.258l-.714-.017-.056-.333a6.36 6.36 0 0 0-1.233-2.814c-.11-.142-.2-.266-.2-.274s.314-.312.698-.674c.753-.712.81-.789.811-1.105a.72.72 0 0 0-.427-.665c-.182-.086-.537-.061-.691.05-.063.045-.425.377-.805.738l-.69.656-.28-.182a7.3 7.3 0 0 0-1.457-.695c-1.826-.597-3.86-.336-5.446.698l-.285.186-.539-.513c-.832-.792-.939-.886-1.067-.939a.9.9 0 0 0-.607.013m6.423 1.738a4.9 4.9 0 0 1 3.91 2.693c.209.415.485 1.343.421 1.414-.012.014-2.181.021-4.82.017l-4.799-.009.011-.116c.015-.168.192-.772.307-1.049.415-.997 1.248-1.897 2.237-2.416a4.8 4.8 0 0 1 2.733-.534m4.428 7.074c-.001 1.999-.034 2.365-.283 3.113-.448 1.349-1.545 2.482-2.899 2.994-.219.083-.85.251-.942.251-.033 0-.042-.641-.042-3.092 0-1.903-.013-3.136-.033-3.208a.8.8 0 0 0-.381-.437.88.88 0 0 0-.638 0 .8.8 0 0 0-.381.437c-.02.072-.033 1.305-.033 3.208 0 2.451-.009 3.092-.042 3.092-.023 0-.192-.037-.375-.081a4.75 4.75 0 0 1-2.299-1.303c-.676-.675-1.077-1.395-1.304-2.336-.118-.489-.145-.985-.146-2.638L5.1 8.867h9.8z"/>
</svg>
