<svg xmlns="http://www.w3.org/2000/svg" viewBox="0 0 24 24">
  <path fill-rule="evenodd" d="M10.656 2.24a10.04 10.04 0 0 0-7.079 4.706c-.825 1.357-1.331 2.958-1.419 4.488-.113 1.967.241 3.63 1.139 5.35.932 1.788 2.225 3.058 4.059 3.989 1.108.563 2.103.869 3.364 1.034.497.065 1.883.066 2.34.001 3-.423 5.48-1.943 7.095-4.348 2.031-3.025 2.274-6.813.647-10.056-.543-1.081-1.214-1.981-2.049-2.748-1.409-1.293-3.529-2.242-5.481-2.454-.628-.068-2.051-.047-2.616.038M8.873 7.564c.128.055.553.452 1.65 1.542L12 10.574l1.47-1.461c.954-.949 1.531-1.493 1.644-1.55.24-.122.616-.124.862-.005.205.099.407.31.492.515.091.218.077.6-.029.809-.059.116-.596.686-1.552 1.648L13.426 12l1.461 1.47c.88.885 1.494 1.534 1.542 1.63.202.402.133.822-.188 1.143-.347.347-.871.402-1.237.13-.079-.059-.787-.746-1.574-1.528L12 13.424l-1.43 1.421c-.786.782-1.495 1.469-1.574 1.528-.366.272-.89.217-1.237-.13-.321-.321-.39-.741-.188-1.143.048-.096.662-.745 1.542-1.63L10.574 12l-1.461-1.47c-.879-.884-1.494-1.535-1.542-1.631a.988.988 0 0 1 .622-1.403c.218-.058.438-.036.68.068"/>
</svg>
