<svg xmlns="http://www.w3.org/2000/svg" fill="none" viewBox="0 0 27 27">
  <path fill="#000" d="M12.557.52a14.2 14.2 0 0 0-3.566.767c-.743.27-1.951.89-2.668 1.366-4.45 2.963-6.601 8.232-5.52 13.514.159.77.605 2.088.949 2.805l.29.605-.766 2.28c-.766 2.27-.768 2.28-.744 2.694.06 1.045.816 1.8 1.86 1.861.416.024.43.02 2.706-.736l2.288-.76.596.28c.72.351 1.474.625 2.25.817 4.4 1.127 9.023-.09 12.269-3.234 1.558-1.508 2.607-3.175 3.297-5.238.466-1.393.65-2.554.65-4.07-.002-1.118-.061-1.7-.28-2.75-.86-4.138-3.865-7.706-7.827-9.295A13.24 13.24 0 0 0 12.557.52m2.032 1.981c2.512.267 4.743 1.306 6.549 3.05 2.837 2.735 3.985 6.762 3.027 10.616-.886 3.563-3.56 6.468-7.09 7.701-1.177.412-2.298.595-3.601.59-1.846-.008-3.51-.416-5.116-1.255-.302-.158-.643-.303-.757-.323-.176-.03-.583.088-2.631.77-1.332.442-2.435.792-2.451.776s.335-1.122.779-2.458c.676-2.032.802-2.462.77-2.628-.02-.109-.181-.484-.357-.833-.854-1.689-1.21-3.163-1.216-5.038a10.83 10.83 0 0 1 2.138-6.547A14 14 0 0 1 6.34 5.087c2.252-1.934 5.326-2.898 8.249-2.586"/>
</svg>
