<svg xmlns="http://www.w3.org/2000/svg" fill="none" viewBox="0 0 20 20">
  <path fill="#000" fill-rule="evenodd" d="M9.333.021C6.398.24 3.763 1.669 2.007 3.995.994 5.336.369 6.849.091 8.633c-.102.653-.102 2.081 0 2.734.428 2.744 1.753 4.993 3.903 6.625 1.328 1.007 2.858 1.639 4.639 1.917.653.102 2.081.102 2.734 0 2.43-.379 4.496-1.474 6.046-3.207 1.374-1.535 2.168-3.233 2.496-5.335.102-.653.102-2.081 0-2.734-.278-1.781-.91-3.311-1.917-4.639C16.338 1.815 13.975.443 11.25.083 10.86.031 9.7-.006 9.333.021m5.692 6.352c.244.091.515.347.645.611.184.376.167.824-.046 1.175-.161.268-6.355 6.169-6.599 6.289a1.25 1.25 0 0 1-1.113.001c-.13-.063-.497-.393-1.418-1.271C4.085 10.881 4.183 11 4.183 10.4c0-.315.01-.369.092-.537.11-.223.396-.504.617-.607.131-.06.218-.073.508-.073.542 0 .522-.013 1.901 1.306l1.167 1.117.327-.312 2.649-2.527c2.433-2.322 2.531-2.406 2.88-2.466.209-.036.484-.008.701.072"/>
</svg>
