<svg xmlns="http://www.w3.org/2000/svg" xml:space="preserve" fill="none" viewBox="0 0 24 24">
  <path fill="#000" fill-rule="evenodd" d="M19.96 6.063c-.092.039-1.88 1.799-5.17 5.088l-5.029 5.028-2.391-2.385c-1.314-1.312-2.453-2.417-2.529-2.455-.173-.087-.503-.091-.662-.008a.756.756 0 0 0-.357.98c.043.103.861.95 2.67 2.762 1.434 1.436 2.692 2.674 2.794 2.75.233.173.482.215.724.123.138-.053 1.166-1.061 5.537-5.436 5.869-5.873 5.498-5.47 5.435-5.891-.023-.153-.064-.225-.217-.377-.246-.247-.51-.305-.805-.179"/>
</svg>
