<svg xmlns="http://www.w3.org/2000/svg" viewBox="0 0 32 33">
  <path fill-rule="evenodd" d="M18.737 2.193c-.285.051-.479.179-.592.388-.074.137-.093.37-.109 1.352l-.02 1.187h-4.043l-.001-1.107c-.001-1.213-.036-1.384-.342-1.666-.124-.114-.206-.136-.569-.153-.386-.017-.444-.006-.635.12-.366.242-.39.337-.416 1.646l-.023 1.16-2.033.003a74 74 0 0 0-2.754.045c-.635.036-.756.059-1.027.192a2 2 0 0 0-1.108 1.503c-.028.171-.051 1.43-.051 2.799l-.001 2.488-1.186.018c-1.331.021-1.448.05-1.665.421-.155.263-.154.889.001 1.097.271.362.284.366 1.627.384l1.223.017v4.046l-.626.004c-.345.003-.912.022-1.26.043l-.633.039-.177.193c-.39.425-.372 1.193.034 1.493.222.165.496.199 1.606.2l1.05.002.017 2.706c.017 2.684.018 2.71.14 3.013.169.42.561.834 1.016 1.073l.369.194H12l.001.947c.002 1.502.074 1.778.517 1.967.25.106.746.09 1.017-.033.366-.166.399-.297.427-1.694l.024-1.187h4.033l.017 1.223c.019 1.343.022 1.357.385 1.627.216.162.971.16 1.188-.002.338-.251.362-.357.383-1.661l.02-1.187h5.439l.369-.194c.456-.239.847-.653 1.015-1.073.122-.303.123-.334.141-3.008l.018-2.703 1.183-.017c1.363-.021 1.462-.048 1.676-.471a1.08 1.08 0 0 0-.17-1.216l-.177-.192-.633-.039c-.348-.021-.915-.04-1.26-.043l-.626-.004v-4.044l1.213-.02c1.328-.021 1.434-.043 1.609-.331.231-.381.181-1.067-.097-1.333-.2-.192-.57-.243-1.775-.244l-.943-.001-.018-2.707c-.018-2.684-.019-2.709-.142-3.015-.164-.41-.6-.878-1.003-1.076-.275-.136-.393-.158-1.031-.194a74 74 0 0 0-2.76-.045L20 5.12l-.001-.893c-.001-1.034-.059-1.526-.202-1.718-.209-.279-.608-.399-1.06-.316m6.276 13.914v9.013H6.987V7.093h18.026zm-12.16-3.901c-.434.045-.555.113-.706.396l-.12.225v3.306c0 3.624-.015 3.448.316 3.758.106.099.227.14.499.17.197.022 1.752.041 3.455.043l3.097.003.219-.188c.121-.103.251-.277.29-.387.055-.156.07-.89.07-3.452 0-3.062-.005-3.265-.099-3.452a.9.9 0 0 0-.266-.303c-.16-.098-.324-.104-3.288-.129-1.716-.015-3.276-.01-3.467.01m5.174 3.901v2.026h-4.054V14.08h4.054z"/>
</svg>
