<svg xmlns="http://www.w3.org/2000/svg" xml:space="preserve" fill="none" viewBox="0 0 24 24">
  <path fill="#000" fill-rule="evenodd" d="M11.339 2.282c-2.031.13-4.051.95-5.639 2.29-1.744 1.471-2.941 3.588-3.318 5.87a10.7 10.7 0 0 0 0 3.116 9.8 9.8 0 0 0 3.538 6.048 9.74 9.74 0 0 0 8.5 1.826 9.9 9.9 0 0 0 3.88-2.004A9.743 9.743 0 0 0 19.606 5.92a9.4 9.4 0 0 0-2.242-2.043 9.9 9.9 0 0 0-3.806-1.495c-.344-.057-1.459-.148-1.658-.135zm1.755 1.538a8.1 8.1 0 0 1 4.64 2.258c1.14 1.108 1.887 2.394 2.269 3.908.312 1.235.319 2.728.02 3.954a8.1 8.1 0 0 1-2.101 3.794c-1.108 1.14-2.394 1.887-3.908 2.269a8.6 8.6 0 0 1-4.029 0A8.3 8.3 0 0 1 6.8 18.411C6.409 18.095 5.716 17.38 5.431 17c-1.12-1.495-1.671-3.145-1.671-5 0-1.858.55-3.503 1.671-5 .285-.38.978-1.095 1.369-1.411a8.4 8.4 0 0 1 4.065-1.767c.546-.074 1.669-.075 2.229-.002m-2.516 4.135c-.417.19-.569.688-.322 1.056.047.071.788.762 1.645 1.535.858.773 1.559 1.427 1.559 1.454s-.701.681-1.559 1.454c-.857.773-1.598 1.464-1.645 1.535-.395.589.268 1.36.912 1.06.165-.077 3.988-3.505 4.101-3.676.098-.151.098-.595 0-.746-.113-.171-3.936-3.599-4.101-3.676a.68.68 0 0 0-.59.004"/>
</svg>
