<svg xmlns="http://www.w3.org/2000/svg" xml:space="preserve" fill="none" viewBox="0 0 24 24">
  <path fill="#000" fill-rule="evenodd" d="M11.34 2.281c-1.869.115-3.691.798-5.256 1.971-.501.375-1.468 1.344-1.839 1.84a9.9 9.9 0 0 0-1.892 4.48c-.114.705-.123 2.019-.02 2.728a9.96 9.96 0 0 0 1.912 4.608c.377.504 1.343 1.47 1.847 1.847a9.95 9.95 0 0 0 4.608 1.911c.333.048.732.07 1.3.07 1.556 0 2.894-.306 4.26-.974 1.052-.515 1.77-1.03 2.621-1.881s1.367-1.57 1.88-2.621a9.67 9.67 0 0 0 .192-8.099 9.73 9.73 0 0 0-3.782-4.411 9.66 9.66 0 0 0-4.593-1.47 14 14 0 0 0-.678-.033zM9.347 8.362c.062.023.684.612 1.383 1.31L12 10.94l1.27-1.266c.698-.696 1.309-1.285 1.357-1.31.111-.056.454-.057.6-.001.154.057.331.23.398.386a1 1 0 0 1 .013.598c-.024.062-.613.685-1.309 1.383L13.062 12l1.306 1.31c.907.909 1.316 1.347 1.338 1.43.049.184.029.474-.04.609a.8.8 0 0 1-.457.369c-.187.052-.231.052-.429-.002-.134-.036-.37-.253-1.47-1.349L12 13.062l-1.31 1.306c-1.156 1.152-1.331 1.311-1.485 1.352a.75.75 0 0 1-.925-.925c.041-.154.2-.329 1.353-1.485l1.306-1.311-1.268-1.269c-.697-.699-1.286-1.321-1.309-1.383a1.03 1.03 0 0 1 .001-.574.82.82 0 0 1 .377-.396 1 1 0 0 1 .607-.015"/>
</svg>
