<svg xmlns="http://www.w3.org/2000/svg" fill-rule="evenodd" viewBox="0 0 9.69 10">
  <path d="M4.414.018c-.366.032-.848.133-.979.204-.346.189-.33.701.028.877.133.065.239.067.478.009.262-.064.467-.091.777-.102.34-.011.605.011.926.079.345.073.366.076.448.061a.502.502 0 0 0 .295-.82C6.309.236 6.169.172 5.94.122A5.2 5.2 0 0 0 4.414.018m-2.917 1.33c-.094.033-.169.093-.303.239A5 5 0 0 0 .087 3.478c-.124.377-.104.548.086.721.218.2.571.163.737-.077.023-.033.081-.18.129-.327a4 4 0 0 1 .931-1.574.7.7 0 0 0 .161-.227.493.493 0 0 0-.244-.62.37.37 0 0 0-.214-.049.7.7 0 0 0-.176.023m6.364-.001a.5.5 0 0 0-.326.462c-.002.162.035.233.228.449.454.505.747 1.018.919 1.606.058.199.087.252.184.34a.492.492 0 0 0 .821-.337.65.65 0 0 0-.044-.283 5.1 5.1 0 0 0-1.167-2.025c-.176-.185-.249-.224-.425-.23a.6.6 0 0 0-.19.018M.334 5.694A.53.53 0 0 0 0 6.163c0 .153.218.754.409 1.129.272.532.823 1.238 1.053 1.349a.55.55 0 0 0 .411.003.48.48 0 0 0 .244-.239.4.4 0 0 0 .053-.213c.001-.152-.05-.257-.209-.426a4 4 0 0 1-.921-1.562 3 3 0 0 0-.12-.318.5.5 0 0 0-.217-.179.57.57 0 0 0-.369-.013m8.715-.003c-.199.065-.275.158-.369.457-.201.634-.456 1.078-.915 1.591-.185.207-.223.282-.223.442 0 .198.133.389.318.459a.52.52 0 0 0 .402-.02c.093-.048.299-.256.497-.505a5.3 5.3 0 0 0 .893-1.725c.089-.309.006-.551-.23-.666a.56.56 0 0 0-.373-.033M3.508 8.877a.6.6 0 0 0-.155.104.45.45 0 0 0-.161.362c0 .152.046.257.162.363.097.088.2.128.506.192.356.075.521.09.993.09s.637-.015.993-.09c.285-.06.408-.105.491-.177a.486.486 0 0 0 .001-.755c-.14-.123-.294-.144-.572-.076-.341.082-.483.097-.913.097s-.572-.015-.913-.097c-.183-.045-.33-.049-.432-.013"/>
</svg>
