<svg xmlns="http://www.w3.org/2000/svg" viewBox="0 0 27.29 27.26">
  <path fill-rule="evenodd" d="M13.855.044c-.173.056-.334.211-.447.43-.087.17-.091.259-.086 1.956.004 1.742.022 1.976.16 2.187.201.307.902.415 1.32.204.435-.219.412-.089.412-2.357V.478l-.104-.14c-.173-.229-.342-.301-.753-.32-.204-.009-.43.003-.502.026m9.081 1.001c-.371.088-.521.301-.625.883-.21 1.183-.566 1.714-1.304 1.944-.148.046-.542.102-.891.127q-1.972.14-2.917 1.399c-.586.78-.905 1.751-.864 2.638.013.294.038.394.13.53.167.247.42.354.84.354.635 0 .887-.253.979-.984.125-.981.52-1.581 1.213-1.84.184-.069.441-.11.877-.139 1.187-.081 1.958-.378 2.627-1.014.529-.502.876-1.092 1.115-1.895.11-.368.162-1.28.086-1.509-.14-.426-.675-.635-1.266-.494M8.051 4.911a2.4 2.4 0 0 0-.885.602c-.103.121-.255.446-.481 1.027a244 244 0 0 0-1.9 5.149 315 315 0 0 1-2.257 6.163c-.039.1-.222.612-.408 1.137-.186.526-.675 1.887-1.087 3.025C-.01 24.894-.012 24.9.009 25.402c.022.522.181.888.55 1.266.368.377.748.545 1.283.568.5.021.57 0 3.457-1.047 1.101-.4 2.482-.896 3.07-1.104a60 60 0 0 0 1.41-.514c.532-.213 4.093-1.51 5.731-2.089 1.856-.655 5.525-2.025 5.897-2.201.85-.402 1.293-1.591.907-2.429-.058-.125-.265-.411-.46-.637-.433-.498-9.097-9.192-10.857-10.894C9.508 4.882 9.476 4.86 8.762 4.835c-.38-.013-.506 0-.711.076m5.312 6.517c4.672 4.666 7.014 7.044 7.014 7.122 0 .043-.687.305-3.131 1.192l-1.289.468-4.458-4.459-4.459-4.458.753-2.065c.818-2.245.88-2.406.928-2.406.017 0 2.106 2.073 4.642 4.606m12.722-4.394c-.348.075-2.375.739-2.957.969-.667.264-.841.446-.841.879 0 .314.127.614.362.859.191.198.232.22.414.22.262 0 .8-.146 1.979-.537 1.443-.479 1.899-.667 2.061-.852.233-.264.245-.685.033-1.101-.136-.267-.284-.41-.487-.468-.185-.053-.166-.054-.564.031m-2.98 4.924c-.276.087-.492.254-.724.562-.095.125-.132.425-.083.657.042.196.13.297 1.211 1.382 1.175 1.18 1.502 1.451 1.752 1.451.204 0 .509-.167.758-.416.276-.276.347-.493.268-.822-.046-.192-.127-.306-.541-.756-.475-.518-1.948-1.931-2.091-2.006a1.05 1.05 0 0 0-.55-.052m-12.832 5.393c1.961 1.968 3.547 3.595 3.525 3.615-.08.072-4.281 1.594-4.401 1.594-.074 0-3.952-3.818-4.454-4.383l-.277-.313.105-.301c.12-.346 1.381-3.829 1.456-4.024l.05-.129.216.181c.119.099 1.82 1.791 3.78 3.76m-4.68 4.321c1.035 1.035 1.642 1.674 1.615 1.7-.071.066-5.007 1.826-5.122 1.826-.087 0 .025-.336 1.062-3.184l.682-1.876c.025-.069.058-.125.075-.125s.776.746 1.688 1.659"/>
</svg>
