<svg xmlns="http://www.w3.org/2000/svg" xml:space="preserve" fill="none" viewBox="0 0 16 16">
  <path fill="#000" fill-rule="evenodd" d="M8.973 4.561c-.117.046-.439.358-2.672 2.592l-2.54 2.539L2.594 8.53C1.505 7.445 1.416 7.364 1.272 7.31a.72.72 0 0 0-.785.163A.7.7 0 0 0 .268 8c-.001.337-.03.303 1.593 1.923 1.391 1.389 1.466 1.46 1.619 1.516a.77.77 0 0 0 .601-.025c.086-.042.913-.853 2.951-2.89 3.115-3.113 2.952-2.932 2.954-3.273a.74.74 0 0 0-1.013-.69m5.747.003c-.136.052-.326.235-2.687 2.592l-2.54 2.537-.513-.511c-.282-.28-.551-.529-.597-.552-.491-.245-1.074.095-1.08.63a.7.7 0 0 0 .161.492c.211.261 1.587 1.601 1.707 1.661a.78.78 0 0 0 .565.041c.138-.044.271-.173 3.016-2.916 3.194-3.19 2.996-2.969 2.976-3.323-.012-.221-.066-.347-.213-.494a.75.75 0 0 0-.795-.157"/>
</svg>
