<svg xmlns="http://www.w3.org/2000/svg" fill="none" viewBox="0 0 24 24">
  <path fill="#000" d="M11.651 1.027c-.23.032-1.276.608-6.69 3.686-2.48 1.409-2.554 1.46-2.78 1.907-.118.235-.118.237-.151 1.218-.018.54-.027 2.8-.021 5.022l.011 4.04.091.253c.167.46.384.715.854.999.644.391 4.28 2.445 7.122 4.026 1.227.682 1.373.753 1.63.792.506.079.734.016 1.512-.412 2.024-1.116 6.958-3.899 7.695-4.341s.984-.818 1.045-1.594c.019-.243.029-2.495.023-5.003l-.012-4.56-.092-.255c-.178-.493-.333-.636-1.348-1.241-1.327-.791-7.814-4.411-8.021-4.475-.162-.051-.68-.088-.868-.062m2.109 2.981c1.716.954 4.634 2.609 4.974 2.82l.193.12-1.313.761C14.076 9.758 12.221 10.8 12.11 10.8c-.046 0-.337-.133-.647-.295-1.014-.532-6.003-3.326-6.276-3.516l-.112-.078.452-.259c.489-.28 4.817-2.703 5.833-3.266.341-.189.647-.334.68-.322.033.011.807.436 1.72.944m-6.167 6.621 3.497 1.95-.029 3.5c-.017 1.926-.041 3.687-.056 3.913l-.025.413-1.82-1.014c-1.001-.558-2.571-1.436-3.49-1.952L4 16.5v-3.46c0-3.202.02-4.36.073-4.36.012 0 1.596.877 3.52 1.949M20 12.59v3.911l-2.87 1.61c-1.578.886-3.14 1.76-3.47 1.943l-.6.334-.027-.324c-.032-.377.03-7.373.066-7.467.013-.034.1-.101.193-.148.092-.046 1.617-.912 3.388-1.924 1.771-1.011 3.242-1.84 3.27-1.842.04-.002.05.804.05 3.907"/>
</svg>
