<svg xmlns="http://www.w3.org/2000/svg" viewBox="0 0 22.76 28.42">
  <path fill-rule="evenodd" d="M15.685.068C15.415.168.39 9.756.239 9.924a1.04 1.04 0 0 0-.239.647c0 .118.821 2.571 2.922 8.727 1.607 4.709 2.945 8.597 2.973 8.639.105.158.276.3.473.391a.7.7 0 0 0 .438.075c.129-.01.293-.049.365-.086.221-.115 15.066-9.583 15.235-9.717a1 1 0 0 0 .346-.695c.014-.195-.181-.783-2.887-8.706A4912 4912 0 0 0 16.92.588c-.059-.152-.289-.387-.473-.482a1.02 1.02 0 0 0-.762-.038m-1.615 3.45c-.022.058-1.099 3.126-2.393 6.819s-2.364 6.727-2.379 6.742c-.014.015-1.525-1.408-3.358-3.163l-3.331-3.191.128-.08L8.474 6.99c3.086-1.967 5.616-3.576 5.623-3.576s-.006.047-.027.104m4.141 7.02c1.853 5.424 2.177 6.403 2.125 6.424-.067.028-9.111.838-9.131.818-.007-.007 1.066-3.088 2.383-6.847 1.318-3.759 2.405-6.826 2.417-6.814.011.011 1.004 2.9 2.206 6.419M6.074 16.812l2.495 2.389-.208.594c-1.324 3.78-1.588 4.518-1.61 4.493-.015-.016-.791-2.274-1.726-5.018l-1.719-5.045c-.032-.089.119.052 2.768 2.587"/>
</svg>
