<svg xmlns="http://www.w3.org/2000/svg" viewBox="0 0 24 24">
  <path fill-rule="evenodd" d="M7.8 4.04c-.932.03-1.097.059-1.637.295a3.2 3.2 0 0 0-1.066.722 3.8 3.8 0 0 0-.988 1.695c-.087.308-.087.315-.1 5.243l-.012 4.936.128.384c.256.768.464 1.123.934 1.588.48.476.906.73 1.609.96l.417.137 4.567-.001c2.558 0 4.772-.017 5.03-.039.747-.061 1.261-.26 1.876-.724.641-.483 1.052-1.09 1.309-1.936l.11-.36.014-2.434.014-2.434-.132-.22a.89.89 0 0 0-1.565.044c-.087.162-.088.197-.113 2.504-.014 1.319-.043 2.403-.065 2.485-.169.622-.791 1.181-1.425 1.28-.151.023-2.056.034-4.886.027L7.18 18.18l-.311-.149a1.82 1.82 0 0 1-.892-.889l-.157-.318V7.18l.132-.278c.171-.362.357-.585.661-.791.412-.28.379-.276 2.967-.298 2.196-.019 2.329-.024 2.486-.098.578-.272.716-.975.282-1.428a1 1 0 0 0-.228-.185c-.123-.064-3.002-.105-4.32-.062m7.416-.005c-.355.022-.423.038-.567.138-.247.172-.373.38-.396.654-.017.2-.003.264.094.453a.88.88 0 0 0 .641.484c.105.017.587.032 1.07.034l.878.002-2.721 2.73c-1.497 1.502-2.801 2.837-2.898 2.967-.164.22-.177.255-.176.48 0 .194.023.283.112.435.228.389.603.541 1.017.41.209-.066.341-.191 3.054-2.891 1.56-1.553 2.838-2.816 2.841-2.807.002.009.017.457.032.996.026.881.037.996.112 1.14.15.289.402.453.746.486.17.017.242.001.425-.093a.89.89 0 0 0 .5-.743c.014-.137.02-1.15.012-2.25-.011-1.518-.027-2.029-.066-2.12-.07-.163-.192-.288-.403-.412l-.177-.104-1.863-.007a65 65 0 0 0-2.267.018"/>
</svg>
