<svg xmlns="http://www.w3.org/2000/svg" xml:space="preserve" fill="none" viewBox="0 0 24 24">
  <path fill="#000" fill-rule="evenodd" d="M4.15 3.123a.736.736 0 0 0-.32.921c.049.11.416.545.984 1.167.498.545.905 1.004.904 1.02s-.186.149-.41.296-.606.425-.848.618c-.558.444-1.577 1.463-2.035 2.035-.481.6-1.131 1.582-1.423 2.15-.325.63-.325.709-.01 1.32.839 1.627 2.245 3.284 3.748 4.418a11.8 11.8 0 0 0 4.926 2.21c1.296.261 3.017.284 4.374.058.783-.13 1.862-.436 2.528-.717l.314-.132 1.069 1.177c1.177 1.296 1.256 1.361 1.611 1.327a.72.72 0 0 0 .67-.793.9.9 0 0 0-.079-.323C19.994 19.637 5.058 3.248 4.91 3.15a.79.79 0 0 0-.76-.027m6.43 1.458a8 8 0 0 0-.66.101c-.493.121-.743.645-.51 1.07.076.138 9.315 10.334 9.656 10.655.204.193.436.238.749.144.306-.092 1.39-1.219 2.133-2.218.418-.562.881-1.304 1.115-1.784.251-.514.245-.617-.065-1.219-.292-.567-.941-1.549-1.423-2.15-.457-.571-1.437-1.553-1.995-1.998-1.716-1.371-3.642-2.221-5.76-2.545-.732-.111-2.507-.142-3.24-.056m.86 7.907a241 241 0 0 1 2.192 2.432c.016.042-.372.219-.718.328-.257.08-.375.092-.934.091-.618-.001-.653-.006-1.02-.132a3.4 3.4 0 0 1-2.209-2.315c-.131-.453-.13-1.333.001-1.789.088-.306.429-1.026.482-1.02.014.002 1.007 1.084 2.206 2.405"/>
</svg>
