<svg xmlns="http://www.w3.org/2000/svg" fill="none" viewBox="0 0 16 20">
  <path fill="#000" fill-rule="evenodd" d="M2.737 3.798a.8.8 0 0 0-.377.323c-.067.108-.081.161-.089.335-.015.317.029.389.638 1.059.285.313.52.577.523.587s-.073.071-.17.137a8 8 0 0 0-1.144.972C1.391 7.938.877 8.625.429 9.467l-.149.28V10c0 .24.006.263.1.445a9.8 9.8 0 0 0 1.849 2.46c1.19 1.144 2.604 1.89 4.146 2.187 1.115.215 2.382.2 3.465-.042.37-.083.829-.22 1.108-.331a1 1 0 0 1 .238-.074c.017.005.328.334.69.733.725.797.776.838 1.071.857a.67.67 0 0 0 .515-.153.68.68 0 0 0 .271-.574.7.7 0 0 0-.063-.321c-.046-.1-1.347-1.547-5.133-5.712-4.266-4.691-5.091-5.587-5.198-5.639-.155-.076-.449-.095-.602-.038m4.65.975c-.449.035-.875.102-.995.156a.83.83 0 0 0-.365.369c-.134.269-.047.67.191.873.21.18.381.205.916.133a9 9 0 0 1 1.773-.001c1.524.209 2.804.852 3.927 1.975.461.462.816.907 1.165 1.463l.164.261-.06.099a9 9 0 0 1-1.309 1.656c-.438.433-.488.516-.487.816.001.244.053.373.215.53.138.135.265.187.483.199.311.017.419-.047.906-.54a10 10 0 0 0 1.555-2.035c.279-.493.327-.725.214-1.029-.114-.302-.611-1.099-.995-1.591-1.32-1.696-3.101-2.822-5.06-3.199-.634-.122-1.637-.183-2.238-.135m.784 2.091a.87.87 0 0 0-.375.343.9.9 0 0 0-.057.29c-.011.176-.003.224.053.347a.8.8 0 0 0 .315.356c.041.021.168.064.282.096.401.11.652.258.901.534.254.281.382.554.442.943.041.265.134.444.298.574a.7.7 0 0 0 .526.153.68.68 0 0 0 .474-.239c.166-.18.208-.319.187-.615-.05-.719-.379-1.401-.949-1.966a3.15 3.15 0 0 0-1.415-.812c-.322-.086-.504-.087-.682-.004M5.085 7.906l.244.267-.052.08c-.184.281-.363.742-.438 1.124-.053.276-.053.89.002 1.186.117.635.404 1.184.869 1.665a3.13 3.13 0 0 0 2.317.981 3.1 3.1 0 0 0 1.388-.303l.148-.075.269.298c.313.346.337.297-.219.432-.57.138-.952.181-1.613.181-1.007 0-1.816-.161-2.687-.532-1.274-.544-2.47-1.609-3.312-2.95L1.838 10l.19-.299c.606-.956 1.348-1.735 2.199-2.311l.24-.162.186.205zm2.364 2.601c.566.623 1.03 1.141 1.031 1.151 0 .032-.244.062-.48.059a1.72 1.72 0 0 1-1.404-.748c-.219-.307-.352-.779-.315-1.113.022-.195.095-.5.118-.491.01.005.483.518 1.05 1.142"/>
</svg>
