<svg xmlns="http://www.w3.org/2000/svg" fill="none" viewBox="0 0 64 64">
  <path fill="#0F6148" fill-rule="evenodd" d="m30.08 5.076-1.387.159c-3.174.362-6.95 1.585-9.76 3.159a33 33 0 0 0-3.84 2.577c-.962.758-3.364 3.16-4.122 4.122-3.157 4.004-5.052 8.479-5.759 13.6-.182 1.32-.182 5.294 0 6.614.707 5.121 2.602 9.596 5.759 13.6.758.962 3.16 3.364 4.122 4.122 4.004 3.157 8.479 5.052 13.6 5.759.577.08 2.001.14 3.307.14s2.73-.06 3.307-.14c5.121-.707 9.596-2.602 13.6-5.759.962-.758 3.364-3.16 4.122-4.122 3.157-4.004 5.052-8.479 5.759-13.6.182-1.32.182-5.294 0-6.614-.707-5.121-2.602-9.596-5.759-13.6-.758-.962-3.16-3.364-4.122-4.122-3.922-3.092-8.284-4.972-13.227-5.701-1.028-.151-4.834-.284-5.6-.194m5.187 2.128c10.293 1.349 18.674 8.938 21.088 19.093.429 1.806.605 3.462.605 5.703 0 4.202-.797 7.608-2.631 11.243-1.282 2.541-2.572 4.311-4.674 6.412-3.003 3.004-6.169 4.933-10.217 6.226-3.879 1.239-8.834 1.446-12.906.539C16.358 54.154 8.561 45.621 7.204 35.267c-.215-1.64-.215-4.894 0-6.534C8.666 17.577 17.484 8.722 28.64 7.207c1.504-.204 5.079-.206 6.627-.003m-16.12 16.037c-.828.38-1.121.977-1.118 2.276s.32 1.899 1.198 2.266a2.03 2.03 0 0 0 1.635-.039c.853-.387 1.156-1.073 1.096-2.481-.033-.778-.08-.97-.338-1.359-.526-.794-1.576-1.076-2.473-.663m24 0c-.828.38-1.121.977-1.118 2.276s.32 1.899 1.198 2.266a2.03 2.03 0 0 0 1.635-.039c.853-.387 1.156-1.073 1.096-2.481-.033-.778-.08-.97-.338-1.359-.526-.794-1.576-1.076-2.473-.663m-9.12 9.77v1.971l-2 .029-2 .029-.031.987-.031.986h5.982V31.04h-1.92zm-8.64 8.807c0 .654.345 1.99.716 2.769.516 1.083 1.784 2.368 2.883 2.92 2.184 1.098 4.69.935 6.767-.439l.398-.264-.586-.725-.586-.725-.596.358c-2.64 1.59-6.125.146-6.928-2.869a4.7 4.7 0 0 1-.147-.95l-.001-.4h-1.92z"/>
</svg>
