<svg xmlns="http://www.w3.org/2000/svg" viewBox="0 0 16 16">
  <path fill-rule="evenodd" d="M8.037.799c-.433.067-.918.329-1.288.696a2.55 2.55 0 0 0-.741 1.574l-.015.177-1.11.014c-.937.012-1.132.022-1.256.06-.428.131-.79.557-.855 1.005-.013.093-.025.566-.025 1.051v.883l-.227.019c-.999.081-1.83.764-2.177 1.789-.058.172-.063.227-.06.693l.002.507.095.259c.244.668.674 1.161 1.262 1.45.257.126.649.238.932.267l.173.018v.829c0 .995.021 1.22.134 1.45.111.225.372.484.604.598l.179.088 4.575.01c2.987.006 4.675 0 4.863-.018.223-.021.324-.044.438-.1.207-.102.479-.379.601-.615l.099-.191v-3.185l-.085-.159a1 1 0 0 0-.192-.25c-.197-.169-.403-.182-.816-.05a1 1 0 0 1-.455.059 1.1 1.1 0 0 1-.355-.069c-.159-.071-.388-.303-.48-.487-.063-.126-.07-.172-.07-.424 0-.254.007-.298.072-.428.091-.185.275-.365.468-.459.131-.064.181-.073.398-.073.171 0 .307.017.435.054.262.076.561.076.717 0 .174-.084.301-.236.328-.392.012-.071.022-.831.022-1.689V4.2l-.1-.209a1.3 1.3 0 0 0-.593-.604c-.23-.11-.511-.132-1.657-.133l-.857-.001-.018-.163c-.05-.436-.244-.958-.478-1.286a3 3 0 0 0-.612-.601C9.704 1.061 9.253.859 9.08.83 8.857.793 8.201.773 8.037.799m.874 1.55c.247.125.435.329.518.561.068.191.053.498-.041.823-.099.341-.1.405-.013.581.076.152.191.255.404.363l.139.07h2.829v1.508l-.274.033c-.341.04-.62.125-.89.271-.57.306-.988.799-1.207 1.422l-.096.272.001.48c0 .387.01.511.049.64.318 1.046 1.114 1.733 2.157 1.86l.26.032v1.482h-8.48l-.001-.62c-.002-1.047-.042-2.051-.087-2.159-.082-.195-.31-.341-.567-.361-.123-.01-.233.004-.451.06-.491.125-.811.066-1.084-.201-.233-.228-.29-.37-.29-.722 0-.261.006-.294.08-.444a1.03 1.03 0 0 1 .45-.445c.118-.06.168-.068.406-.068.23 0 .31.012.528.082.195.063.283.079.374.067.225-.031.423-.194.558-.462.055-.108.057-.145.057-1.08 0-.532.008-1.12.018-1.307l.017-.34h2.873l.126-.065a.65.65 0 0 0 .337-.37c.056-.17.053-.332-.013-.605a2.2 2.2 0 0 1-.055-.49c0-.229.009-.281.07-.405.082-.168.3-.376.499-.478.133-.068.156-.071.413-.058.207.011.298.028.386.073"/>
</svg>
