<svg xmlns="http://www.w3.org/2000/svg" xml:space="preserve" fill="none" viewBox="0 0 24 24">
  <path fill="#000" fill-rule="evenodd" d="M6.9 2.485c-1.106.076-2.225.483-3.257 1.184-.367.249-.476.346-.55.487L3 4.333v7.988c0 4.394.012 8.049.027 8.123.016.083.098.204.215.321.152.153.224.194.377.217.34.051.634-.094.782-.384.076-.148.079-.244.079-2.294v-2.138l.11-.087c.187-.148 1.052-.553 1.41-.66.972-.29 1.836-.285 3.006.017.64.165 1.256.395 2.754 1.024 1.539.647 2.124.862 2.833 1.044 1.526.391 2.734.378 4.027-.043.77-.25 2.038-.988 2.251-1.31l.109-.165.011-5.819.01-5.82-.085-.176a.74.74 0 0 0-.573-.401c-.256-.029-.317-.005-.805.312-.715.465-1.234.694-1.958.863-.478.112-1.573.104-2.12-.015-.872-.19-1.519-.424-3.601-1.299-1.169-.492-1.897-.752-2.546-.911-.891-.218-1.628-.29-2.413-.235m1.657 1.59c.851.184 1.51.422 3.584 1.294 1.491.627 2.249.876 3.199 1.053 1.312.244 2.865.061 3.894-.459.13-.066.248-.108.261-.094s.025 2.153.025 4.755v4.73l-.23.139c-.913.549-1.744.79-2.73.79-.954 0-1.926-.25-3.48-.895l-1.46-.606C9.737 14 8.624 13.72 7.41 13.72c-1.015.001-1.84.191-2.88.666-.04.018-.05-.941-.05-4.721V4.921l.159-.116c.503-.364 1.422-.71 2.181-.821.302-.043 1.372.012 1.737.091"/>
</svg>
