<svg xmlns="http://www.w3.org/2000/svg" xml:space="preserve" fill="none" viewBox="0 0 24 24">
  <path fill="#000" fill-rule="evenodd" d="M11.54 2.265A9.1 9.1 0 0 0 7.683 3.36c-2.173 1.186-3.8 3.28-4.397 5.66-.273 1.087-.261.804-.276 6.3-.01 3.67-.002 5.024.032 5.146.081.293.414.534.738.534.209 0 .407-.137 1.576-1.095.614-.503 1.132-.911 1.15-.908s.534.415 1.145.915c.611.499 1.185.949 1.276.998.18.098.38.111.582.037.071-.026.647-.47 1.28-.987.632-.517 1.177-.94 1.211-.94s.579.423 1.211.94 1.209.961 1.28.987a.69.69 0 0 0 .582-.037c.091-.049.672-.504 1.29-1.01.619-.506 1.134-.918 1.145-.915s.522.417 1.136.92 1.193.957 1.286 1.008c.317.175.685.072.94-.263l.11-.144v-5.043c0-5.624.011-5.371-.283-6.497a8.7 8.7 0 0 0-2.235-3.958c-1.457-1.507-3.31-2.434-5.362-2.684a13 13 0 0 0-1.56-.059m1.495 1.557A7.55 7.55 0 0 1 16.5 5.254c.411.308 1.178 1.075 1.486 1.486a7.5 7.5 0 0 1 1.493 4.004c.053.726.055 7.908.003 7.889a18 18 0 0 1-.759-.604 16 16 0 0 0-.865-.676c-.19-.112-.521-.115-.706-.006-.073.044-.644.497-1.268 1.007l-1.134.927-.185-.15c-.102-.082-.587-.48-1.079-.884-1.213-.996-1.189-.98-1.486-.98s-.278-.013-1.49.983c-.489.402-.973.799-1.075.881l-.185.15-1.134-.927c-.624-.51-1.195-.963-1.268-1.007-.185-.109-.516-.106-.706.006-.079.047-.468.351-.865.676s-.738.597-.759.604c-.053.019-.05-7.212.003-7.913a7.46 7.46 0 0 1 1.494-3.98C6.32 6.33 7.088 5.563 7.5 5.254a7.6 7.6 0 0 1 3.42-1.428c.521-.08 1.584-.082 2.115-.004m-4.06 6.003c-.358.127-.663.525-.719.939-.055.406.19.87.576 1.087.647.363 1.44.015 1.627-.716.133-.519-.095-1.007-.587-1.253a1.16 1.16 0 0 0-.897-.057m5.226.018c-.26.118-.426.256-.54.451-.459.783.148 1.764 1.047 1.695a1.12 1.12 0 0 0 .996-.818c.158-.542-.166-1.168-.696-1.349-.254-.086-.589-.078-.807.021"/>
</svg>
