<svg xmlns="http://www.w3.org/2000/svg" xml:space="preserve" viewBox="0 0 438.549 438.549">
  <path fill-rule="evenodd" d="M206.849 5.916C167.244 7.794 131.73 19.601 97.391 42.309 48.034 74.947 12.974 128.596 3.237 186.383c-8.876 52.681.614 105.428 26.867 149.336 22.048 36.873 53.732 66.619 90.132 84.616 12.196 6.031 27.266 12.081 31.988 12.844 3.973.641 8.516-1.309 10.77-4.624l1.827-2.687.214-22.263.213-22.262-2.09.418c-7.425 1.485-16.075 2.116-23.553 1.717-16.18-.861-25.755-3.411-34.103-9.079-7.627-5.18-11.146-9.968-15.968-21.728-2.913-7.104-8.565-16.237-13.422-21.689-1.672-1.877-5.271-4.883-7.999-6.68-12.858-8.471-12.64-15.118.46-14.005 12.681 1.078 24.516 9.305 33.613 23.366 8.553 13.219 18.13 20.392 29.924 22.413 6.859 1.175 18.138-.004 26.51-2.771 6.613-2.185 6.482-2.027 8.318-10.026 1.503-6.547 5.048-13.642 9.028-18.069 3.714-4.131 4.596-3.552-8.221-5.396-15.82-2.277-30.46-7.006-43.225-13.961-23.884-13.015-37.173-33.504-43.12-66.478-1.03-5.714-1.314-11.058-1.299-24.486.018-16.298.119-17.55 1.98-24.486 2.565-9.559 9.382-23.236 15.12-30.333 3.077-3.805 4.325-5.929 4.081-6.943-.193-.804-1.065-3.929-1.937-6.944-1.327-4.584-1.591-7.398-1.612-17.177-.023-10.765.153-12.373 2.223-20.237 3.345-12.709 3.277-12.609 8.881-12.874 5.786-.273 9.833.574 18.917 3.958 10.234 3.813 21.21 9.113 29.564 14.275l7.274 4.496 8.52-1.955c18.807-4.317 41.204-6.088 61.397-4.854 14.313.874 18.619 1.509 30.64 4.519l8.964 2.244 7.912-4.822c9.404-5.732 22.074-11.88 31.172-15.126 5.622-2.006 7.641-2.36 13.887-2.431l7.31-.084 2.016 6.013c5.686 16.956 6.335 33.148 1.903 47.497l-1.453 4.705 2.056 2.6c10.991 13.897 16.53 25.949 18.951 41.236 1.599 10.091 1.077 31.017-1.074 43.117-4.65 26.156-15.108 44.775-32.402 57.688-6.968 5.203-20.675 12.239-29.723 15.257-6.617 2.207-20.768 5.349-28.249 6.273-7.632.941-7.423.7-3.984 4.598 3.673 4.162 7.334 11.259 9.133 17.7 1.177 4.215 1.373 9.122 1.743 43.49.398 37.017.482 38.848 1.878 41.22 3.885 6.594 8.715 7.123 21.562 2.361 12.075-4.475 31.842-14.409 42.028-21.121 33.462-22.051 60.739-53.072 78.235-88.974 13.661-28.034 20.323-55.792 21.311-88.806 2.285-76.295-34.031-146.503-97.719-188.916-40.273-26.82-83.565-38.517-133.757-36.137"/>
</svg>
