<svg xmlns="http://www.w3.org/2000/svg" viewBox="0 0 16 12">
  <path fill-rule="evenodd" d="M12.021.558c-.157.032-.292.141-.864.703l-.537.527-.287-.083c-.774-.223-1.389-.303-2.346-.303-.801 0-1.124.03-1.76.162-1 .207-2.127.752-3 1.45-.745.596-2.153 2.177-2.282 2.563-.063.188-.064.677-.002.844.153.414 1.632 2.077 2.291 2.577l.101.076-.542.55c-.578.586-.689.723-.74.91-.153.57.488 1.103 1.025.851.104-.049.664-.593 2.784-2.703a1063 1063 0 0 0 4.835-4.85c2.058-2.084 2.184-2.217 2.222-2.345a.58.58 0 0 0-.001-.419.83.83 0 0 0-.393-.449c-.131-.061-.363-.089-.504-.061M8.84 2.694c.372.042.707.109.707.141 0 .016-1.19 1.22-2.645 2.676L4.258 8.157l-.122-.085c-.168-.118-.994-.93-1.308-1.285-.268-.304-.641-.762-.641-.787 0-.062.819-1.008 1.212-1.4 1.107-1.106 2.266-1.693 3.734-1.892.321-.043 1.369-.052 1.707-.014m3.894 1.119-.451.451.373.382c.331.338.93 1.029 1.1 1.268l.061.087-.172.219c-1.11 1.42-2.155 2.282-3.298 2.722a6.7 6.7 0 0 1-2.88.393l-.227-.021-.545.543c-.3.298-.537.55-.528.559.034.034.512.118.908.16.501.053 1.624.038 2.098-.028 1.246-.174 2.346-.628 3.387-1.395.643-.475 2.082-2.012 2.415-2.58.222-.379.187-.882-.089-1.291-.215-.317-1.357-1.614-1.65-1.874-.05-.045-.067-.031-.502.405"/>
</svg>
