<svg xmlns="http://www.w3.org/2000/svg" fill="none" viewBox="0 0 21 20">
  <path fill="#171717" d="M17.375 3.125H3.625a1.25 1.25 0 0 0-1.25 1.25v11.25a1.25 1.25 0 0 0 1.25 1.25h13.75a1.25 1.25 0 0 0 1.25-1.25V4.375a1.25 1.25 0 0 0-1.25-1.25m0 1.25v8.027l-2.037-2.036a1.25 1.25 0 0 0-1.768 0l-1.562 1.563L8.57 8.49a1.25 1.25 0 0 0-1.767 0l-3.178 3.18V4.376zm-13.75 9.063 4.063-4.063 6.25 6.25H3.624zm13.75 2.187h-1.67l-2.812-2.812 1.563-1.563 2.919 2.92zM11.75 7.813a.938.938 0 1 1 1.875 0 .938.938 0 0 1-1.875 0"/>
</svg>
