<svg xmlns="http://www.w3.org/2000/svg" fill="none" viewBox="0 0 24 24">
  <path fill="#000" fill-rule="evenodd" d="M14.042 1.321c-.812.113-1.716.378-2.368.692-1.925.93-3.376 2.574-4.029 4.567a7.6 7.6 0 0 0-.178 4.234l.102.435-2.719 2.725c-2.471 2.477-2.725 2.744-2.785 2.923-.057.172-.065.457-.065 2.223 0 2.294-.002 2.281.299 2.581.3.301.287.3 2.581.3 2.255 0 2.265-.002 2.537-.266.294-.285.321-.386.336-1.222l.013-.747.747-.013c.836-.015.937-.042 1.222-.336.225-.232.265-.413.265-1.2v-.689l.73-.015c.925-.019.947-.028 1.569-.635l.456-.446.433.101a7.6 7.6 0 0 0 4.218-.174 7.74 7.74 0 0 0 5.309-6.837c.253-3.878-2.362-7.298-6.195-8.103-.428-.089-.623-.107-1.36-.119-.473-.009-.976.001-1.118.021m2.238 2.092a5.76 5.76 0 0 1 4.307 4.307c.133.565.171 1.6.078 2.16-.264 1.613-1.165 3.026-2.485 3.9-1.54 1.02-3.375 1.241-5.15.622-.712-.248-.932-.17-1.689.594l-.52.524H9.789c-.785 0-1.063.013-1.163.055-.207.087-.43.307-.532.525-.087.186-.093.25-.094.93v.73h-.73c-.682.001-.743.007-.932.095-.237.11-.466.36-.532.58-.027.092-.046.44-.046.86V20H4v-2.34l2.71-2.712c1.49-1.49 2.665-2.695 2.61-2.674q-.147.06-.293.122a1.3 1.3 0 0 1-.232.084c-.021 0 .163-.296.41-.658l.449-.659-.125-.41c-.241-.794-.318-1.485-.249-2.236.248-2.689 2.215-4.772 4.909-5.196.127-.02.555-.03.951-.022.592.012.795.032 1.14.114m.172 2.427c-.318.104-.644.395-.8.712-.096.195-.112.277-.112.568 0 .411.108.681.384.956.275.276.545.384.956.384.396 0 .608-.079.881-.325.461-.417.592-1.013.342-1.559a1.36 1.36 0 0 0-1.651-.736" clip-rule="evenodd"/>
</svg>
