<svg xmlns="http://www.w3.org/2000/svg" xml:space="preserve" fill="none" viewBox="0 0 40 40">
  <path fill="#000" fill-rule="evenodd" d="M18.433 4.335c-2.989.335-5.712 1.42-8.03 3.199-3.213 2.467-5.354 6.117-5.982 10.199-.165 1.07-.165 3.464 0 4.534 1.067 6.931 6.381 12.245 13.312 13.312 1.07.165 3.464.165 4.534 0 6.335-.975 11.391-5.526 12.966-11.672.375-1.462.464-2.215.464-3.907 0-1.102-.031-1.704-.118-2.267-.975-6.332-5.491-11.356-11.653-12.961a20 20 0 0 0-1.593-.34c-.823-.126-3.129-.183-3.9-.097M21.3 5.802c2.67.25 5.148 1.208 7.267 2.811.33.249.687.531.794.626l.194.173-2.571 2.57-2.57 2.571-.457-.302c-1.29-.852-2.454-1.208-3.957-1.208s-2.667.356-3.957 1.208l-.456.302-2.56-2.56c-1.408-1.407-2.559-2.574-2.558-2.593.001-.018.238-.225.527-.459 2.883-2.343 6.625-3.483 10.304-3.139m-9.307 7.225 2.56 2.56-.302.456c-.852 1.29-1.208 2.454-1.208 3.957s.356 2.667 1.208 3.957l.302.457-2.571 2.57-2.57 2.571-.173-.194a19 19 0 0 1-.626-.794 14.14 14.14 0 0 1-2.828-9.584c.085-1.091.19-1.727.447-2.695.485-1.83 1.49-3.792 2.709-5.292.234-.289.441-.526.459-.527s1.186 1.15 2.593 2.558M30.77 10.65c.09.101.368.453.617.783a14.2 14.2 0 0 1 1.365 14.929c-.54 1.077-1.298 2.219-1.991 2.999l-.173.194-2.57-2.571-2.571-2.57.302-.457c.852-1.29 1.208-2.454 1.208-3.957s-.356-2.667-1.208-3.957l-.302-.456 2.56-2.56a232 232 0 0 1 2.579-2.56c.011 0 .094.082.184.183m-9.503 3.994c1.919.397 3.65 2.123 4.099 4.089.072.317.114.782.114 1.267 0 1.606-.541 2.878-1.689 3.97-1.107 1.054-2.251 1.51-3.791 1.51-.9 0-1.551-.13-2.245-.448-1.551-.71-2.755-2.163-3.121-3.765-.146-.642-.15-1.861-.006-2.521.209-.969.787-1.961 1.581-2.716 1.391-1.325 3.095-1.791 5.058-1.386m-5.209 11.115c.572.378 1.12.649 1.742.861.751.256 1.28.337 2.2.337 1.503 0 2.667-.356 3.957-1.208l.457-.302 2.57 2.571 2.571 2.57-.194.173c-.107.095-.464.377-.794.626a14.214 14.214 0 0 1-17.134 0c-.33-.249-.687-.531-.794-.626l-.193-.173 2.56-2.561c1.408-1.408 2.571-2.56 2.585-2.56s.223.131.467.292"/>
</svg>
