<svg xmlns="http://www.w3.org/2000/svg" fill="none" viewBox="0 0 21 20">
  <path fill="#000" d="M14.25 18.125a.624.624 0 0 1-.625.625h-6.25a.625.625 0 0 1 0-1.25h6.25a.624.624 0 0 1 .625.625m3.125-10a6.84 6.84 0 0 1-2.628 5.407 1.27 1.27 0 0 0-.497 1V15A1.25 1.25 0 0 1 13 16.25H8A1.25 1.25 0 0 1 6.75 15v-.469a1.25 1.25 0 0 0-.487-.989 6.84 6.84 0 0 1-2.638-5.379c-.02-3.723 2.99-6.824 6.71-6.913a6.875 6.875 0 0 1 7.04 6.875m-1.25 0a5.626 5.626 0 0 0-5.76-5.625c-3.048.072-5.506 2.609-5.49 5.655a5.6 5.6 0 0 0 2.16 4.399A2.5 2.5 0 0 1 8 14.53V15h5v-.469a2.51 2.51 0 0 1 .974-1.98 5.6 5.6 0 0 0 2.151-4.426m-1.258-.73a4.5 4.5 0 0 0-3.638-3.636.625.625 0 0 0-.208 1.232c1.295.218 2.393 1.317 2.613 2.614a.625.625 0 1 0 1.233-.21"/>
</svg>
