<svg xmlns="http://www.w3.org/2000/svg" viewBox="0 0 16 16">
  <path fill-rule="evenodd" d="M9.771.304c-.167.053-.235.114-.873.788-1.103 1.166-5.282 5.65-5.978 6.415-.594.652-.653.742-.653.991q0 .51.561.727l1.412.535c1.531.578 1.654.625 1.783.692.095.048.107.064.095.128l-.397 2.02c-.44 2.233-.452 2.302-.436 2.512.024.333.355.621.716.621a.74.74 0 0 0 .426-.138c.101-.074.691-.698 2.935-3.102 4.084-4.375 4.275-4.585 4.341-4.784a.73.73 0 0 0-.178-.719c-.142-.141-.043-.099-1.978-.829-1.293-.488-1.68-.641-1.68-.666 0-.009.179-.922.397-2.029.455-2.299.467-2.367.451-2.578-.03-.423-.51-.72-.944-.584M8.523 4.596c-.26 1.33-.276 1.439-.23 1.603a.8.8 0 0 0 .362.445c.073.039.66.269 1.305.512 1.434.54 1.68.64 1.68.677 0 .029-1.207 1.334-3.04 3.285l-1.177 1.254c-.152.162-.163.169-.15.095.007-.044.102-.536.21-1.092.265-1.361.272-1.416.216-1.596-.066-.209-.19-.337-.436-.453A36 36 0 0 0 6 8.83c-1.458-.551-1.623-.617-1.642-.646-.017-.028.009-.056 1.52-1.676 2.1-2.251 2.829-3.017 2.837-2.978.004.022-.082.501-.192 1.066"/>
</svg>
