<svg xmlns="http://www.w3.org/2000/svg" viewBox="0 0 32 32">
  <path fill-rule="evenodd" d="M14.723 2.137c-2.063.569-3.507 2.062-3.981 4.117-.072.311-.094.773-.114 2.364l-.024 1.978-2.256.036c-1.241.019-2.33.05-2.419.068-.202.04-.743.469-.873.693-.062.105-.116.36-.149.693-.029.305-.051 3.342-.052 7.197l-.002 6.669.136.273c.159.319.524.674.841.818.217.098.507.101 10.17.101 9.618 0 9.954-.003 10.167-.1.312-.142.644-.458.81-.774l.143-.27.016-6.587c.016-6.835-.005-7.7-.19-8.018-.146-.25-.676-.656-.909-.695-.108-.019-3.362-.05-7.23-.069l-7.032-.035.027-2.058c.017-1.285.05-2.148.089-2.298.097-.38.451-1.06.763-1.467.808-1.052 1.986-1.629 3.326-1.63.995-.001 1.714.227 2.556.809a4.05 4.05 0 0 1 1.546 2.016c.295.854.384.965.771.965.163 0 .447-.239.507-.426.072-.227-.311-1.346-.654-1.912-.475-.784-1.421-1.622-2.328-2.064-.779-.379-1.178-.463-2.298-.485-.841-.016-1.009-.005-1.357.091m11.173 9.78c.073.111.09.416.116 2.053l.031 1.923H5.957l.03-1.921c.025-1.646.042-1.941.116-2.054l.086-.131h19.622zm.131 6.963v1.813H5.973v-3.626h20.054zm-.014 4.914c-.028 1.801-.037 1.937-.134 2.067l-.104.139H6.225l-.105-.141c-.098-.131-.107-.259-.134-2.066l-.029-1.926h20.086z"/>
</svg>
