<svg xmlns="http://www.w3.org/2000/svg" fill="none" viewBox="0 0 16 16">
  <path fill="#000" fill-rule="evenodd" d="M2.68 4.023c-.279.03-.457.146-.588.382-.068.122-.079.169-.078.342 0 .153.014.225.06.31a.8.8 0 0 0 .322.35l.124.073h2.96l.124-.073a.8.8 0 0 0 .323-.351c.045-.084.06-.156.06-.309 0-.173-.01-.22-.079-.343a.73.73 0 0 0-.34-.327c-.103-.052-.164-.055-1.404-.064-.714-.005-1.38 0-1.484.01m5.067 0c-.333.024-.53.141-.66.39-.086.166-.096.473-.02.632.062.136.274.351.392.4.054.023.866.034 3.026.042l2.951.012.137-.075a.84.84 0 0 0 .353-.365c.083-.158.084-.466.001-.622a.73.73 0 0 0-.326-.34l-.136-.075-2.739-.008q-1.49-.012-2.979.009m-4.72 3.256c-.592.016-.623.024-.809.21-.156.155-.205.279-.204.511.001.233.05.345.231.543.1.107.137.13.275.158.236.048 10.73.047 10.96-.001a.45.45 0 0 0 .256-.13c.245-.239.327-.575.205-.841-.084-.183-.22-.339-.339-.389-.06-.025-.264-.047-.587-.062-.528-.024-9.092-.024-9.988.001m-.163 3.251c-.357.016-.382.021-.506.097a.75.75 0 0 0-.35.697c.016.158.068.27.197.43.127.155.206.19.508.219.342.034 6.232.034 6.574 0 .302-.029.381-.064.508-.219.13-.16.181-.272.197-.43a.76.76 0 0 0-.346-.697l-.144-.095-3.13-.01a199 199 0 0 0-3.508.008m8.71 0a.7.7 0 0 0-.373.219c-.27.279-.248.777.048 1.044.217.196.201.194 1.244.194 1.051 0 1.062-.002 1.251-.186.371-.361.326-.893-.1-1.176l-.147-.097-.915-.01c-.504-.005-.957 0-1.009.012" clip-rule="evenodd"/>
</svg>
