<svg xmlns="http://www.w3.org/2000/svg" viewBox="0 0 24 24">
  <path fill-rule="evenodd" d="M1.8 5.075c-.36.041-.632.288-.745.675-.084.29-.032.544.173.842.253.37.057.345 2.872.373 3.195.033 12.005.033 15.2 0 2.745-.028 2.606-.013 2.824-.292.192-.247.248-.397.248-.673 0-.358-.197-.723-.469-.872-.114-.063-.806-.068-10.003-.073-5.434-.003-9.979.006-10.1.02m-.106 6.482c-.353.058-.611.372-.644.785-.038.476.137.809.543 1.03l.201.11 9.933-.011c9.559-.011 9.938-.014 10.068-.085.237-.129.476-.411.552-.65a.944.944 0 0 0-.445-1.099l-.202-.116-9.92.004c-5.456.003-9.995.017-10.086.032m.226 6.44c-.29.02-.361.039-.486.134a1.13 1.13 0 0 0-.403.642c-.085.411.149.853.566 1.065.16.082.172.082 10.103.082 9.875 0 9.944-.001 10.101-.08.535-.273.733-.866.455-1.36a1.2 1.2 0 0 0-.289-.337c-.146-.103-.213-.121-.576-.148-.47-.035-18.953-.033-19.471.002"/>
</svg>
