<svg xmlns="http://www.w3.org/2000/svg" viewBox="0 0 21 3">
  <path fill-rule="evenodd" d="M4.057.066A1.5 1.5 0 0 0 3.01 1.505c0 .588.305 1.077.845 1.356.166.085.233.098.581.108.471.014.647-.033.948-.255a1.66 1.66 0 0 0 .552-.778c.07-.242.071-.619.001-.859C5.709.293 4.828-.18 4.057.066m6.08-.029a1.7 1.7 0 0 0-.723.44 1.49 1.49 0 0 0-.247 1.71c.132.267.419.547.694.676.185.087.237.095.64.095.424 0 .445-.004.671-.115.276-.136.558-.425.685-.701A1.51 1.51 0 0 0 11.11.134c-.19-.089-.283-.11-.534-.12a2 2 0 0 0-.439.023m5.892.043a1.503 1.503 0 0 0-.874 2.084c.128.272.41.556.689.694.192.094.229.1.659.1.428 0 .466-.006.642-.097.535-.276.845-.773.845-1.357 0-1.026-1-1.752-1.961-1.424"/>
</svg>
