<svg xmlns="http://www.w3.org/2000/svg" xml:space="preserve" style="fill-rule:evenodd;clip-rule:evenodd;stroke-linejoin:round;stroke-miterlimit:2" viewBox="0 0 48 48">
  <path d="M22.44 5.569c-4.346.452-8.065 2.241-11.023 5.304-2.604 2.696-4.171 5.892-4.751 9.687-.191 1.255-.191 3.625 0 4.88.572 3.745 2.131 6.954 4.666 9.602 4.771 4.986 11.805 6.714 18.348 4.509 1.82-.613 3.972-1.824 5.48-3.084 3.376-2.819 5.497-6.609 6.173-11.027.193-1.256.193-3.624 0-4.88-.581-3.797-2.148-6.993-4.75-9.687-2.647-2.74-5.889-4.457-9.663-5.118-.931-.163-3.625-.275-4.48-.186m3.223 2.036c3.568.39 6.754 1.922 9.301 4.47 5.451 5.458 6.042 14.068 1.39 20.266-3.736 4.978-10.179 7.22-16.247 5.656-7.191-1.855-12.078-8.648-11.549-16.055.401-5.599 3.646-10.414 8.67-12.863a15.47 15.47 0 0 1 8.435-1.474m-2.127 7.649c-.529.261-.533.287-.56 3.686L22.953 22h-3.004c-3.309 0-3.378.009-3.661.487a1.02 1.02 0 0 0 0 1.026c.283.478.352.487 3.661.487h3.004l.023 3.06c.021 2.705.04 3.089.16 3.309.144.262.565.511.864.511.294 0 .678-.228.844-.501.146-.243.157-.447.18-3.319l.023-3.06h3.004c3.309 0 3.378-.009 3.661-.487a1.02 1.02 0 0 0 0-1.026c-.283-.478-.352-.487-3.661-.487h-3.004l-.023-3.06c-.023-2.872-.034-3.076-.18-3.319-.169-.278-.553-.502-.856-.499a1.3 1.3 0 0 0-.452.132"/>
</svg>
