<svg xmlns="http://www.w3.org/2000/svg" fill-rule="evenodd" viewBox="0 0 24 24">
  <path d="m6.398 4.556-1.661.024-.233.14a1.53 1.53 0 0 0-.624.7l-.115.24-.02 5.86c-.012 3.223-.033 5.91-.048 5.971-.045.185-.339.456-.531.488-.29.049-.479-.008-.667-.202-.093-.096-.181-.224-.196-.286s-.038-2.226-.05-4.811l-.023-4.7-.123-.155a.766.766 0 0 0-1.219.005l-.128.162.001 4.554c.001 2.505.018 4.738.039 4.962.043.485.136.727.408 1.066.261.325.563.576.863.716.218.103.319.123.78.152.706.046 15.96.045 16.744 0 .574-.034.633-.045.873-.163.499-.246 1.004-.827 1.18-1.359l.086-.26.017-5.641c.011-3.721.002-5.783-.025-6.055-.03-.301-.069-.471-.144-.624-.114-.233-.389-.511-.663-.67l-.179-.104-6.34-.017a829 829 0 0 0-8.002.007m13.832 7.21c-.023 5.608-.026 5.769-.1 5.87a1.6 1.6 0 0 1-.247.234l-.169.13H5.126l.045-.13c.034-.095.05-1.716.059-6L5.243 6h15.01zM9.212 9.797c-.557.023-.569.025-.688.139a.75.75 0 0 0-.244.571c0 .237.097.429.298.592l.149.121h4.007c3.969 0 4.007-.001 4.146-.082.483-.284.46-1.067-.037-1.293-.128-.058-.496-.065-3.603-.068-1.903-.002-3.715.007-4.028.02m0 3c-.557.023-.569.025-.688.139a.75.75 0 0 0-.244.571c0 .237.097.429.298.592l.149.121h4.007c3.969 0 4.007-.001 4.146-.082.483-.284.46-1.067-.037-1.293-.128-.058-.496-.065-3.603-.068-1.903-.002-3.715.007-4.028.02"/>
</svg>
