<svg xmlns="http://www.w3.org/2000/svg" xml:space="preserve" fill="none" viewBox="0 0 24 24">
  <path fill="#000" fill-rule="evenodd" d="M11.48 2.282c-3.219.227-5.896 2.455-6.722 5.594-.173.659-.204.983-.238 2.544-.042 1.952-.136 2.839-.422 4.005a8.4 8.4 0 0 1-.668 1.815c-.278.567-.285.588-.301.94-.014.3-.002.399.071.594.188.498.631.858 1.16.943.358.058 14.919.059 15.274.001.493-.08.914-.392 1.119-.83.095-.203.107-.274.105-.648l-.002-.42-.284-.58c-.765-1.558-1.027-2.941-1.092-5.76-.036-1.534-.071-1.896-.256-2.6a7.76 7.76 0 0 0-2.68-4.054A7.7 7.7 0 0 0 13.448 2.4c-.368-.074-1.259-.166-1.468-.153zm1.508 1.558a6 6 0 0 1 4.307 3.195c.542 1.063.702 1.895.704 3.665.004 2.544.434 4.703 1.242 6.23l.164.31H4.599l.197-.393c.811-1.616 1.201-3.62 1.205-6.187.002-1.409.078-2.067.327-2.8A6.02 6.02 0 0 1 11.1 3.82a6.8 6.8 0 0 1 1.888.02M8.805 20.279c-.381.092-.618.496-.526.898.071.31.317.522.653.563.114.013 1.576.019 3.248.012 2.739-.011 3.052-.019 3.16-.078a.71.71 0 0 0 .393-.674.71.71 0 0 0-.393-.674c-.109-.06-.421-.067-3.26-.072-1.727-.004-3.201.008-3.275.025"/>
</svg>
