<svg xmlns="http://www.w3.org/2000/svg" xml:space="preserve" fill="none" viewBox="0 0 24 24">
  <path fill="#000" fill-rule="evenodd" d="M11.5 2.265A9.77 9.77 0 0 0 2.684 9.14c-.278.902-.408 1.824-.409 2.9q-.001 3.316 2.078 5.997c.364.47 1.224 1.318 1.717 1.694 1.012.773 2.406 1.461 3.222 1.591A2.97 2.97 0 0 0 12 20.336c.53-.607.758-1.293.76-2.296.001-.512.144-.834.518-1.17.113-.102.308-.227.434-.277.227-.091.24-.091 2.868-.114 2.923-.025 2.769-.012 3.34-.299.733-.369 1.314-1.061 1.535-1.826.206-.717.325-2.043.264-2.952-.065-.964-.182-1.585-.458-2.422-.691-2.101-2.032-3.852-3.913-5.113-.466-.312-1.507-.836-2.071-1.043-1.084-.397-2.615-.623-3.777-.559m1.548 1.555c3.42.451 6.246 3.02 6.997 6.36.252 1.124.26 2.512.019 3.55-.084.36-.222.623-.435.826-.216.206-.281.25-.509.347-.169.073-.333.078-2.8.098l-2.62.022-.321.1a2.9 2.9 0 0 0-1.147.67q-.518.489-.747 1.031c-.159.376-.202.615-.24 1.338-.029.552-.044.642-.141.848-.263.552-.912.925-1.478.848-.624-.085-1.806-.677-2.666-1.337-.412-.316-1.107-.998-1.41-1.384-1.516-1.93-2.117-4.434-1.626-6.777.344-1.641 1.063-2.98 2.236-4.164a10 10 0 0 1 .703-.646 8.6 8.6 0 0 1 3.152-1.554c.882-.226 2.116-.297 3.033-.176M11.62 6.068c-.286.098-.594.413-.677.693-.125.423-.051.785.225 1.098.249.284.426.36.832.36s.583-.076.832-.36a1.106 1.106 0 0 0-.771-1.844c-.158-.01-.31.009-.441.053M7.428 8.495a1.15 1.15 0 0 0-.591.47c-.122.19-.139.248-.151.539-.022.518.157.831.602 1.054.341.17.643.17.984 0 .416-.208.615-.53.615-.995 0-.432-.201-.78-.566-.979-.256-.139-.652-.179-.893-.089m8.447-.002c-.501.187-.762.554-.762 1.07 0 .465.199.787.615.995.341.17.643.17.984 0 .415-.208.608-.526.608-1.004 0-.451-.211-.795-.611-1-.21-.107-.629-.138-.834-.061m-8.447 4.882a1.17 1.17 0 0 0-.581.447c-.15.227-.181.368-.16.736.014.246.034.304.174.506.111.159.226.266.379.352.195.11.256.124.54.124.28 0 .347-.015.533-.118q.574-.317.574-.992c0-.615-.426-1.062-1.047-1.097a1.1 1.1 0 0 0-.412.042"/>
</svg>
