<svg xmlns="http://www.w3.org/2000/svg" fill="none" viewBox="0 0 24 24">
  <path fill="#000" fill-rule="evenodd" d="M3.42 4.583a.66.66 0 0 0-.345.357c-.07.153-.073.449-.073 7.06 0 6.654.002 6.906.075 7.065a.68.68 0 0 0 .584.407c.282.023.388-.007.56-.159.281-.246.259.374.259-7.314 0-5.07-.012-6.988-.045-7.052a1.1 1.1 0 0 0-.363-.371c-.144-.075-.502-.071-.652.007m6.24 3.675a1 1 0 0 1-.147.038c-.155.035-.353.216-.438.402-.065.144-.073.28-.074 1.216-.001.827-.012 1.05-.051 1.036-.028-.011-.482-.158-1.01-.328-1.021-.329-1.103-.34-1.398-.2-.273.129-.43.49-.365.837.017.092.088.206.195.316.16.164.213.186 1.128.482.528.171.973.323.989.338s-.233.387-.554.826c-.321.44-.609.857-.639.928-.126.291-.018.674.247.876.134.102.183.115.441.115.229 0 .314-.017.403-.082.107-.077.497-.581 1.098-1.415l.264-.368.628.863c.695.954.77 1.022 1.143 1.022a.8.8 0 0 0 .312-.056c.123-.065.297-.242.363-.371.064-.125.055-.492-.015-.627a18 18 0 0 0-.62-.885c-.308-.425-.56-.789-.56-.808s.391-.162.869-.315c.478-.152.953-.316 1.054-.363a.736.736 0 0 0 .248-1.139.85.85 0 0 0-.562-.275c-.073-.001-.569.143-1.104.319s-.984.32-.999.32c-.014 0-.026-.489-.026-1.086 0-1.075-.001-1.089-.096-1.251a.8.8 0 0 0-.25-.25c-.151-.085-.395-.144-.474-.115m9 0a1 1 0 0 1-.147.038c-.155.035-.353.216-.438.402-.065.144-.073.28-.074 1.216-.001.827-.012 1.05-.051 1.036-.028-.011-.482-.158-1.01-.328-1.021-.329-1.103-.34-1.398-.2-.273.129-.43.49-.365.837.017.092.088.206.195.316.16.164.213.186 1.128.482.528.171.973.323.989.338s-.233.387-.554.826c-.321.44-.609.857-.639.928-.126.291-.018.674.247.876.134.102.183.115.441.115.229 0 .314-.017.403-.082.107-.077.497-.581 1.098-1.415l.264-.368.628.863c.695.954.77 1.022 1.143 1.022a.8.8 0 0 0 .312-.056c.123-.065.297-.242.363-.371.064-.125.055-.492-.015-.627a18 18 0 0 0-.62-.885c-.308-.425-.56-.789-.56-.808s.391-.162.869-.315c.478-.152.953-.316 1.054-.363a.736.736 0 0 0 .248-1.139.85.85 0 0 0-.562-.275c-.073-.001-.569.143-1.104.319s-.984.32-.999.32c-.014 0-.026-.489-.026-1.086 0-1.075-.001-1.089-.096-1.251a.8.8 0 0 0-.25-.25c-.151-.085-.395-.144-.474-.115"/>
</svg>
