<svg xmlns="http://www.w3.org/2000/svg" xml:space="preserve" viewBox="0 0 50 50">
  <path fill-rule="evenodd" d="M5.571.082c-1.344.173-2.715 1.353-3.254 2.8l-.184.493-.002 21.583-.003 21.584.189.527c.459 1.279 1.395 2.233 2.648 2.696.483.179.599.183 5.412.216 5.637.037 6.162.005 7.066-.429.807-.388 1.545-1.127 1.955-1.956.284-.575.31-.692.364-1.629.076-1.326.076-40.724 0-41.969-.054-.873-.087-1.02-.369-1.613-.588-1.239-1.841-2.154-3.156-2.307C15.5-.007 6.239-.004 5.571.082m28.301 0c-.924.082-1.63.427-2.368 1.156-.705.697-1.076 1.415-1.176 2.278-.091.786-.093 42.168-.002 42.952.146 1.255 1.039 2.459 2.281 3.073.558.276.734.319 1.533.381 1.171.09 8.716.09 9.887 0 .801-.062.974-.105 1.542-.385a4.2 4.2 0 0 0 2.233-2.712c.128-.49.139-2.255.141-21.825.001-17.082-.02-21.382-.106-21.75-.283-1.207-1.165-2.268-2.401-2.886l-.644-.322-5.125-.01c-2.819-.005-5.427.017-5.795.05"/>
</svg>
