<svg xmlns="http://www.w3.org/2000/svg" xml:space="preserve" fill="none" viewBox="0 0 20 20">
  <path fill="#000" fill-rule="evenodd" d="M12.91 2.035a1.7 1.7 0 0 0-.4.129c-.216.101-.45.329-5.05 4.929-4.579 4.579-4.829 4.835-4.928 5.047a2 2 0 0 0-.137.461c-.019.142-.027.976-.02 2.076.014 1.96.011 1.918.183 2.244.093.177.344.428.521.521.326.172.284.169 2.244.183 1.12.007 1.933-.001 2.08-.021a1.7 1.7 0 0 0 .461-.139c.204-.099.558-.445 5.04-4.927 4.502-4.502 4.828-4.836 4.929-5.044q.188-.39.127-.838c-.058-.429-.045-.414-2.023-2.402-1.001-1.006-1.908-1.894-2.016-1.975a1.37 1.37 0 0 0-1.011-.244M15.717 7.6 15 8.317l-1.658-1.659L11.684 5l.716-.717.716-.717 1.659 1.659 1.658 1.658zm-5.159 5.158-3.375 3.375H3.867v-3.316l3.375-3.375 3.374-3.375 1.659 1.658 1.658 1.658z"/>
</svg>
