<svg xmlns="http://www.w3.org/2000/svg" xml:space="preserve" fill="none" viewBox="0 0 24 24">
  <path fill="#000" fill-rule="evenodd" d="M11.2 2.281c-.829.078-1.79.29-2.001.439-.143.102-.279.382-.279.574 0 .166.088.404.192.519.197.218.551.279.968.167 1.007-.272 2.402-.301 3.478-.072.701.149.912.159 1.117.055a.74.74 0 0 0 .348-.902c-.131-.341-.348-.459-1.143-.62-.807-.164-1.931-.231-2.68-.16M5.34 4.954c-.437.211-1.428 1.48-1.977 2.535-.437.838-.832 1.976-.791 2.28a.745.745 0 0 0 .724.631c.427 0 .612-.177.807-.775.447-1.369 1.014-2.351 1.898-3.285.315-.333.371-.455.352-.761-.026-.402-.258-.641-.665-.683a.6.6 0 0 0-.348.058m12.766-.016c-.301.108-.466.356-.466.7 0 .257.072.398.359.702a8.2 8.2 0 0 1 1.819 3.06c.202.636.281.784.486.905a.747.747 0 0 0 1.079-.366c.089-.235.064-.403-.166-1.089-.428-1.28-1.216-2.589-2.133-3.544-.386-.402-.628-.492-.978-.368M3.143 13.609a.736.736 0 0 0-.57.792c.038.327.382 1.276.688 1.899.615 1.256 1.711 2.654 2.178 2.78a.72.72 0 0 0 .787-.265c.087-.113.114-.199.127-.394.019-.306-.037-.428-.352-.761a8.2 8.2 0 0 1-1.905-3.314 2.5 2.5 0 0 0-.172-.44c-.146-.236-.477-.362-.781-.297m17.257.036c-.228.09-.354.274-.503.73-.447 1.371-1.006 2.337-1.899 3.285-.314.334-.37.456-.351.761.013.195.04.281.127.394a.72.72 0 0 0 .784.265c.438-.117 1.5-1.44 2.099-2.612.444-.871.811-1.935.771-2.237a.8.8 0 0 0-.386-.55.92.92 0 0 0-.642-.036M9.31 20.041c-.438.237-.505.864-.128 1.195.382.336 2.237.594 3.498.487.955-.081 1.89-.279 2.121-.45.247-.182.343-.563.217-.863-.167-.402-.55-.537-1.098-.39-1.001.27-2.381.301-3.446.076-.691-.145-.974-.159-1.164-.055"/>
</svg>
