<svg xmlns="http://www.w3.org/2000/svg" fill="none" viewBox="0 0 32 32">
  <path fill="#000" d="M28.643 2.056c-.111.048-.934.828-2.055 1.944l-1.871 1.865-.452-.457c-.527-.532-.82-.759-1.265-.98-.547-.272-1.083-.39-1.747-.39-1.001.003-1.741.26-2.491.863-.214.172-1.036.963-1.826 1.757l-1.438 1.443-.542-.527c-.423-.412-.585-.536-.738-.564-.43-.08-.804.096-1.076.506-.193.293-.218.535-.083.813.08.164 1.598 1.715 5.3 5.413 4.55 4.546 5.215 5.19 5.414 5.249.294.085.554.01.849-.241.37-.319.489-.742.31-1.117-.043-.093-.295-.384-.558-.646l-.478-.476 1.614-1.63c.888-.896 1.705-1.767 1.815-1.936.449-.686.635-1.32.637-2.172.002-1.244-.37-2.07-1.377-3.05l-.45-.44 1.864-1.872c1.882-1.889 2.028-2.063 2.028-2.426 0-.206-.158-.517-.355-.7-.333-.308-.672-.384-1.03-.229m-6.98 3.976c.156.033.38.108.497.166.129.064.87.76 1.877 1.762 1.94 1.933 1.955 1.954 1.96 2.786.003.435-.013.515-.172.85s-.328.524-1.746 1.947l-1.57 1.577-2.814-2.815L16.88 9.49l1.573-1.566c1.633-1.624 1.844-1.793 2.366-1.896.323-.064.528-.063.845.004m-13.96 7.004c-.405.175-.716.59-.716.955 0 .314.09.46.614.994l.503.511-1.47 1.466c-1.528 1.524-1.87 1.907-2.143 2.398-.67 1.201-.6 2.89.164 4.032.135.203.462.582.728.846l.482.479L4 26.587c-1.882 1.89-2.028 2.064-2.028 2.427 0 .45.562 1.012 1.013 1.012.362 0 .539-.148 2.424-2.02l1.87-1.857.428.434c.994 1.008 1.824 1.38 3.065 1.379.852-.003 1.487-.189 2.173-.637.169-.11 1.04-.927 1.936-1.815l1.629-1.615.476.479c.262.263.553.515.646.559.375.177.799.06 1.117-.311.253-.296.327-.556.24-.85-.057-.187-.28-.438-1.326-1.491l-1.257-1.266 1.225-1.242c.732-.74 1.265-1.323 1.323-1.447.125-.268.089-.55-.106-.82-.332-.462-.788-.642-1.175-.462-.125.058-.7.582-1.45 1.323l-1.241 1.229-1.29-1.29-1.29-1.289 1.228-1.242c.733-.742 1.266-1.325 1.324-1.45.125-.268.089-.548-.106-.82-.332-.462-.788-.64-1.175-.462-.125.059-.7.584-1.448 1.325l-1.241 1.226-1.24-1.234c-1.427-1.423-1.584-1.524-2.042-1.324m4.617 6.672 2.8 2.8-1.577 1.57c-1.423 1.419-1.612 1.588-1.946 1.747-.336.159-.415.175-.85.172-.832-.006-.853-.02-2.786-1.96-.997-1.002-1.7-1.75-1.763-1.877a2.08 2.08 0 0 1-.004-1.794c.136-.288.373-.55 1.713-1.898.855-.858 1.567-1.561 1.584-1.561.016 0 1.289 1.26 2.829 2.8"/>
</svg>
