<svg xmlns="http://www.w3.org/2000/svg" xml:space="preserve" fill="none" viewBox="0 0 24 24">
  <path fill="#000" fill-rule="evenodd" d="M11.339 2.282c-2.031.13-4.051.95-5.639 2.29-1.744 1.471-2.941 3.588-3.318 5.87a10.7 10.7 0 0 0 0 3.116 9.8 9.8 0 0 0 3.538 6.048 9.74 9.74 0 0 0 8.5 1.826 9.9 9.9 0 0 0 3.88-2.004A9.743 9.743 0 0 0 19.606 5.92a9.4 9.4 0 0 0-2.242-2.043 9.9 9.9 0 0 0-3.806-1.495c-.344-.057-1.459-.148-1.658-.135zm1.755 1.538a8.1 8.1 0 0 1 4.64 2.258c1.14 1.108 1.887 2.394 2.269 3.908.312 1.235.319 2.728.02 3.954a8.1 8.1 0 0 1-2.101 3.794c-1.108 1.14-2.394 1.887-3.908 2.269a8.6 8.6 0 0 1-4.029 0A8.3 8.3 0 0 1 6.8 18.411C6.409 18.095 5.716 17.38 5.431 17c-1.12-1.495-1.671-3.145-1.671-5 0-1.858.55-3.503 1.671-5 .285-.38.978-1.095 1.369-1.411a8.4 8.4 0 0 1 4.065-1.767c.546-.074 1.669-.075 2.229-.002M11.72 7.565c-.129.051-.309.223-.394.375-.058.105-.068.318-.078 1.708l-.012 1.588-1.588.012c-1.737.013-1.698.008-1.935.258a.72.72 0 0 0 0 .988c.237.25.198.245 1.935.258l1.588.012.012 1.588c.013 1.737.008 1.698.258 1.935a.67.67 0 0 0 .494.193.67.67 0 0 0 .494-.193c.25-.237.245-.198.258-1.935l.012-1.588 1.588-.012c1.737-.013 1.698-.008 1.935-.258A.67.67 0 0 0 16.48 12a.67.67 0 0 0-.193-.494c-.237-.25-.198-.245-1.935-.258l-1.588-.012-.012-1.588c-.01-1.39-.02-1.603-.078-1.708-.088-.159-.267-.325-.407-.377a.95.95 0 0 0-.547.002"/>
</svg>
