<svg xmlns="http://www.w3.org/2000/svg" xml:space="preserve" fill="none" viewBox="0 0 24 24">
  <path fill="#000" fill-rule="evenodd" d="M14.34 3.056a.9.9 0 0 0-.406.413c-.043.102-.054.526-.054 2.09V7.52h-2.362c-1.955 0-2.381.01-2.47.056a.9.9 0 0 0-.365.397c-.028.074-.043.784-.043 2.07V12H6.319c-2.005 0-2.342.008-2.47.062a.84.84 0 0 0-.383.318c-.033.058-.052.946-.066 3.22l-.02 3.14-.5.021c-.538.022-.681.066-.834.261-.29.368-.163.954.247 1.14.163.074.421.076 9.707.076s9.544-.002 9.707-.076c.253-.115.393-.35.393-.662 0-.203-.02-.276-.113-.416-.17-.258-.349-.322-.896-.323l-.45-.001-.01-7.61c-.01-6.994-.016-7.62-.077-7.73a.8.8 0 0 0-.403-.358c-.129-.054-.506-.062-2.92-.06-2.208.001-2.795.012-2.891.054m4.78 8.564v7.141l-1.87-.011-1.87-.01-.01-7.08c-.006-3.894-.002-7.102.008-7.13.015-.039.429-.05 1.881-.05h1.861zm-5.24 2.26v4.88h-3.76V9h3.76zm-5.25 2.25.011 2.63H4.88v-5.281l1.87.011 1.87.01z"/>
</svg>
