<svg xmlns="http://www.w3.org/2000/svg" viewBox="0 0 11 11">
  <path fill-rule="evenodd" d="M4.813.019a5.25 5.25 0 0 0-2.758 1.04 6.5 6.5 0 0 0-1.013 1.017A5.25 5.25 0 0 0 .043 4.51c-.039.284-.045 1.086-.009 1.311.155.991.463 1.755.988 2.456.901 1.202 2.192 1.934 3.669 2.081.27.027.776.023 1.069-.008a5.3 5.3 0 0 0 1.35-.333 6.2 6.2 0 0 0 1.352-.795c.177-.144.62-.587.762-.762a5.4 5.4 0 0 0 1.109-2.542c.038-.256.054-.946.027-1.21a5.1 5.1 0 0 0-.553-1.887A5.3 5.3 0 0 0 7.242.425 5.25 5.25 0 0 0 4.813.019m.825 2.428c.718.137 1.335.697 1.496 1.357.049.202.054.536.01.736-.078.362-.298.72-.59.957a2 2 0 0 1-.731.396l-.219.075-.031.095c-.063.194-.197.299-.383.299a.42.42 0 0 1-.326-.17l-.05-.073-.001-.335v-.336l.055-.078c.076-.109.181-.157.394-.181.378-.043.621-.148.834-.358.29-.286.368-.644.214-.985a1.1 1.1 0 0 0-.525-.509c-.204-.097-.321-.12-.615-.118-.236.001-.282.007-.415.051-.267.087-.549.31-.654.518-.065.129-.083.21-.104.465-.022.271-.041.347-.104.422a.4.4 0 0 1-.616-.029c-.143-.205-.098-.763.095-1.172.081-.172.256-.411.391-.532a2.2 2.2 0 0 1 1.132-.522 3.6 3.6 0 0 1 .743.027m-.219 4.812a.6.6 0 0 1 .289.276c.056.123.054.399-.004.51a.7.7 0 0 1-.308.291c-.089.041-.119.046-.251.038a.57.57 0 0 1-.51-.326c-.036-.069-.042-.11-.042-.256 0-.199.034-.293.147-.41a.57.57 0 0 1 .679-.123"/>
</svg>
