<svg xmlns="http://www.w3.org/2000/svg" xml:space="preserve" fill="none" viewBox="0 0 16 16">
  <path fill="#000" fill-rule="evenodd" d="M7.48 1.269c-1.389.143-2.482.557-3.533 1.339a8.3 8.3 0 0 0-1.339 1.339c-.712.958-1.132 1.991-1.306 3.213-.045.314-.045 1.366 0 1.68.174 1.222.594 2.255 1.306 3.213.297.399.94 1.042 1.339 1.339a6.8 6.8 0 0 0 2.373 1.142 6.72 6.72 0 0 0 5.733-1.142 8.3 8.3 0 0 0 1.339-1.339 6.72 6.72 0 0 0 1.142-5.733q-.441-1.75-1.772-3.082C11.701 2.177 10.458 1.55 8.96 1.32c-.268-.041-1.247-.074-1.48-.051m1.031 1.506a5.2 5.2 0 0 1 1.849.545 5.08 5.08 0 0 1 2.32 2.32c.97 1.934.686 4.172-.738 5.824-.714.828-1.808 1.461-2.902 1.68a5.14 5.14 0 0 1-3.4-.464 5.08 5.08 0 0 1-2.32-2.32c-.764-1.522-.764-3.198 0-4.72a5.08 5.08 0 0 1 2.32-2.32 5.17 5.17 0 0 1 2.871-.545m-.947 1.518c-1.158.21-2.027 1.209-2.052 2.36-.005.245.001.28.07.42a.727.727 0 0 0 1.002.337c.275-.137.364-.294.427-.753a1.6 1.6 0 0 1 .081-.327c.073-.166.302-.396.478-.483.135-.066.177-.074.43-.073.333.001.458.047.669.244a.9.9 0 0 1 .305.534.96.96 0 0 1-.082.64c-.08.164-.268.361-.414.436a1.4 1.4 0 0 1-.53.133c-.23.001-.496.177-.624.412-.053.098-.057.146-.057.574 0 .43.004.475.058.576.151.282.371.419.671.417a.716.716 0 0 0 .711-.506c.027-.079.057-.103.203-.164a2.43 2.43 0 0 0 1.02-.752c1.01-1.278.571-3.146-.9-3.826-.337-.155-.548-.202-.963-.213a4 4 0 0 0-.503.014m.222 6.237a.86.86 0 0 0-.467.402.85.85 0 0 0-.025.563A.78.78 0 0 0 8 12c.303 0 .612-.22.706-.505a.85.85 0 0 0-.025-.563.95.95 0 0 0-.348-.352c-.116-.06-.429-.089-.547-.05"/>
</svg>
