<svg xmlns="http://www.w3.org/2000/svg" xml:space="preserve" fill="none" viewBox="0 0 17 16">
  <path fill="#000" fill-rule="evenodd" d="M8.429 1.822a1 1 0 0 0-.246.184c-.206.228-.193-.112-.193 5.046v4.634l-1.65-1.648c-1.347-1.345-1.676-1.66-1.79-1.71a.85.85 0 0 0-.617-.005c-.151.068-.343.272-.393.42a.96.96 0 0 0 .017.567c.064.142 4.678 4.775 4.844 4.865.152.082.517.087.666.01.054-.029 1.148-1.1 2.431-2.38 1.773-1.769 2.35-2.361 2.406-2.469a.74.74 0 0 0-.161-.874.65.65 0 0 0-.497-.194c-.338-.002-.289-.043-2.104 1.77l-1.65 1.649V7.053c0-5.092.01-4.801-.172-5.02a.7.7 0 0 0-.547-.268c-.17-.01-.225 0-.344.057"/>
</svg>
