<svg xmlns="http://www.w3.org/2000/svg" xml:space="preserve" fill="none" viewBox="0 0 16 16">
  <path fill="#000" fill-rule="evenodd" d="M7.808 1.289a.74.74 0 0 0-.519.531c-.029.113-.036.849-.036 4.005v3.867L5.607 8.048C4.206 6.649 3.938 6.393 3.813 6.335a.736.736 0 0 0-.971.337.78.78 0 0 0-.003.649c.089.178 4.658 4.748 4.841 4.842.17.088.47.088.64 0 .183-.094 4.752-4.664 4.841-4.842a.78.78 0 0 0-.003-.649.736.736 0 0 0-.971-.337c-.125.058-.393.314-1.793 1.712L8.748 9.691 8.74 5.759l-.007-3.932-.056-.123a.756.756 0 0 0-.869-.415M2.257 12.801a.76.76 0 0 0-.351.266c-.22.318-.19.679.079.948.247.247-.349.225 6.015.225 6.365 0 5.768.022 6.016-.226a.67.67 0 0 0 .217-.573.8.8 0 0 0-.4-.607c-.082-.045-.392-.048-5.793-.052-3.141-.002-5.741.006-5.783.019"/>
</svg>
