<svg xmlns="http://www.w3.org/2000/svg" xml:space="preserve" style="fill-rule:evenodd;clip-rule:evenodd;stroke-linejoin:round;stroke-miterlimit:2" viewBox="0 0 48 48">
  <path d="M22.16 8.005c-2.968.316-6.28 1.746-8.564 3.698-.328.28-1.613 1.51-2.856 2.732l-2.26 2.222V10.51l-.22-.205c-.55-.513-1.107-.507-1.58.015-.156.172-.16.291-.16 4.735v4.558l.253.226c.358.32.638.336 5.267.307l4-.026.254-.181c.494-.352.532-1.001.09-1.505l-.241-.274H9.881l2.12-2.124c1.165-1.169 2.419-2.384 2.785-2.7 1.794-1.552 4.132-2.699 6.467-3.171C21.94 10.025 22.364 10 24 10c2.174 0 2.844.092 4.4.607a14.2 14.2 0 0 1 9.435 10.646c.24 1.184.241 4.31.001 5.485-.654 3.209-2.422 6.159-4.897 8.168-4.164 3.382-9.601 4.148-14.526 2.046-1.364-.582-2.508-1.309-3.773-2.396-.92-.791-1.164-.913-1.599-.796-.538.145-.852.771-.641 1.28.198.479 1.989 1.991 3.24 2.737 1.801 1.073 4.032 1.873 6.085 2.182 1.053.159 3.497.159 4.55 0 2.703-.407 5.423-1.562 7.605-3.228.655-.5 2.041-1.85 2.597-2.531 1.599-1.956 2.85-4.64 3.378-7.247.165-.812.185-1.138.185-2.953 0-1.817-.02-2.14-.186-2.956-.4-1.98-1.335-4.279-2.391-5.884-2.658-4.038-7.07-6.709-11.823-7.157-.996-.094-2.587-.093-3.48.002"/>
</svg>
