<svg xmlns="http://www.w3.org/2000/svg" fill-rule="evenodd" viewBox="0 0 16 16">
  <path d="M12.728 1.787c-.301.153-.533.49-.509.739.017.176.078.292.278.526l.171.201-2.847.001c-3.152.002-3.849.018-4.265.104-1.661.341-3.035 1.561-3.552 3.154a4.3 4.3 0 0 0-.22 1.031c-.036.35-.02.695.038.831.103.241.32.357.671.358.215.001.257-.007.4-.079.257-.128.311-.241.361-.76.038-.392.113-.769.201-1.002.402-1.067 1.266-1.814 2.398-2.071.233-.053.337-.055 3.53-.066l3.29-.012-.157.182c-.219.255-.277.359-.295.526-.019.19.067.378.262.573.168.168.331.249.501.251.206.003.301-.048.6-.322.482-.442 1.493-1.426 1.554-1.514a.8.8 0 0 0 .135-.501c-.025-.243-.107-.369-.457-.708-1.638-1.585-1.509-1.478-1.787-1.49-.152-.007-.211.003-.301.048m1.531 5.494a.6.6 0 0 0-.431.352c-.023.055-.06.265-.082.467-.052.472-.082.636-.164.899a3.2 3.2 0 0 1-.853 1.347 3.16 3.16 0 0 1-1.264.751l-.332.111-.68.02c-.374.012-1.908.022-3.409.023l-2.729.002.162-.176c.381-.416.396-.741.049-1.088-.308-.308-.571-.352-.878-.149-.068.045-.495.442-.949.882-.74.716-.834.817-.902.965a.67.67 0 0 0-.001.623c.066.145.161.248.786.856.391.38.789.761.885.846.196.176.395.281.533.281.143 0 .359-.116.522-.278.352-.352.339-.673-.045-1.091l-.162-.177 2.769-.002a182 182 0 0 0 3.476-.024c.684-.022.718-.026 1.067-.116a4.75 4.75 0 0 0 1.826-.9c.205-.162.66-.63.822-.843a4.84 4.84 0 0 0 .875-1.942c.053-.246.063-.372.063-.778v-.484l-.081-.115c-.114-.163-.312-.258-.572-.275a1.3 1.3 0 0 0-.301.013"/>
</svg>
