<svg xmlns="http://www.w3.org/2000/svg" xml:space="preserve" fill="none" viewBox="0 0 24 24">
  <path fill="#000" fill-rule="evenodd" d="M11.685 2.721a1.5 1.5 0 0 0-.66.33c-.08.071-2.009 2.424-4.286 5.229-3.039 3.742-4.175 5.169-4.268 5.36-.11.225-.128.303-.129.58q-.003.818.659 1.269c.427.291-.228.271 8.999.271 9.153 0 8.561.016 8.971-.247.371-.238.603-.597.681-1.056a1 1 0 0 0-.024-.53 2 2 0 0 0-.199-.471c-.071-.112-1.989-2.493-4.262-5.29-2.857-3.516-4.188-5.124-4.31-5.208a1.8 1.8 0 0 0-.339-.179 1.9 1.9 0 0 0-.833-.058m4.398 6.491 4.063 5.008-4.073.01c-2.24.006-5.906.006-8.146 0l-4.073-.01 4.063-5.008C10.152 6.457 11.989 4.204 12 4.204s1.848 2.253 4.083 5.008M2.7 18.817c-.248.111-.458.425-.458.683s.242.604.491.697c.158.06 18.376.06 18.534 0 .249-.093.491-.438.491-.697s-.242-.604-.491-.697c-.078-.03-2.896-.043-9.28-.041-7.589.001-9.188.01-9.287.055"/>
</svg>
