<svg xmlns="http://www.w3.org/2000/svg" xml:space="preserve" fill="none" viewBox="0 0 17 16">
  <path fill="#000" fill-rule="evenodd" d="M8.188 1.829c-.132.061-.368.285-1.534 1.452-.932.933-1.4 1.421-1.444 1.507-.052.101-.066.173-.066.34 0 .258.06.391.256.563.15.132.268.174.493.174.282-.001.368-.064 1.133-.833.382-.383.704-.697.716-.697s.021 1.202.022 2.67v2.671l.066.141c.117.252.404.44.67.44a.79.79 0 0 0 .67-.44l.066-.141V7.005c.001-1.468.01-2.67.022-2.67s.334.314.716.697c.765.769.851.832 1.133.833.225 0 .343-.042.493-.174.196-.172.256-.305.256-.563 0-.167-.014-.239-.066-.34-.044-.086-.512-.574-1.444-1.507C8.831 1.765 8.822 1.757 8.5 1.757a.7.7 0 0 0-.312.072M2.805 8.781c-.218.067-.455.287-.509.474-.023.077-.03.689-.024 2.093l.009 1.983.091.191c.107.226.321.464.513.568.313.171-.008.162 5.615.162s5.302.009 5.615-.162c.192-.104.406-.342.513-.568l.091-.191.009-1.983c.006-1.408-.001-2.016-.023-2.093-.039-.131-.227-.343-.37-.416a.75.75 0 0 0-1.008.355l-.066.142-.001 1.707v1.707H3.74v-1.707l-.001-1.707-.066-.143c-.148-.317-.551-.508-.868-.412"/>
</svg>
