<svg xmlns="http://www.w3.org/2000/svg" xml:space="preserve" fill="none" viewBox="0 0 25 24">
  <path fill="#000" fill-rule="evenodd" d="M14.79 3.094a.73.73 0 0 0 0 1.312c.185.094.195.094 2.167.094h1.98l-2.779 2.781c-1.941 1.942-2.799 2.828-2.844 2.936a.7.7 0 0 0 .014.596.63.63 0 0 0 .391.373.7.7 0 0 0 .564 0c.108-.045.994-.903 2.936-2.844L20 5.563v1.98c0 1.972 0 1.982.094 2.167a.73.73 0 0 0 1.312 0l.094-.186V6.573c0-2.561-.008-2.971-.064-3.104a.63.63 0 0 0-.373-.391c-.157-.072-.344-.076-3.127-.077L14.976 3zM4.681 6.043c-.433.086-.841.419-1.043.853l-.117.25v12.708l.116.25c.152.326.436.61.754.758l.255.117h12.708l.255-.117c.318-.148.602-.432.754-.758l.116-.25.012-3.25.011-3.25-.095-.187a.73.73 0 0 0-1.313-.002l-.094.186V19.5H5v-12h6.149l.186-.094a.73.73 0 0 0 0-1.312L11.149 6l-3.147.005c-1.731.002-3.226.02-3.321.038"/>
</svg>
