<svg xmlns="http://www.w3.org/2000/svg" xml:space="preserve" fill="none" viewBox="0 0 40 40">
  <path fill="#000" fill-rule="evenodd" d="M7.191 6.801A1.94 1.94 0 0 0 5.764 7.81l-.197.357V14c0 4.421.021 5.995.087 6.5.771 5.891 3.638 10.471 8.646 13.811 1.846 1.231 4.87 2.622 5.7 2.622s3.854-1.391 5.7-2.622c5.008-3.34 7.875-7.921 8.646-13.811.066-.505.087-2.079.087-6.5V8.167l-.206-.367c-.221-.392-.676-.787-1.082-.939-.205-.077-2.333-.094-12.945-.103-6.985-.005-12.839.014-13.009.043m25.655 1.611.154.145-.001 5.171c0 2.922-.03 5.52-.068 5.972-.479 5.662-3.163 10.108-8.098 13.412-1.178.789-3.065 1.746-4.316 2.189l-.517.183-.517-.183c-1.251-.443-3.138-1.4-4.316-2.189-4.036-2.702-6.595-6.212-7.626-10.46C7.048 20.625 7 19.834 7 13.771V8.575l.145-.154.145-.154h25.401zM19.7 14.326a1 1 0 0 0-.267.206c-.129.144-.134.256-.151 3.508-.021 3.759-.03 3.677.436 3.872.334.14.705.028.886-.266.126-.205.13-.334.113-3.595L20.7 14.67l-.173-.174c-.187-.186-.595-.27-.827-.17m-.36 11.183a1.49 1.49 0 0 0-.784 1.763c.502 1.713 2.974 1.376 2.974-.405 0-.47-.169-.843-.52-1.143-.498-.426-1.093-.503-1.67-.215"/>
</svg>
