<svg xmlns="http://www.w3.org/2000/svg" fill="none" viewBox="0 0 24 24">
  <path fill="#000" d="M4.92 3.555c-.925.025-.944.027-1.169.137-.288.142-.664.518-.805.807-.182.372-.194.635-.176 4.112.018 3.511.027 3.67.272 4.869a11.4 11.4 0 0 0 3.163 5.879c1.176 1.175 2.405 2.031 3.981 2.77 1.171.55 1.729.674 2.311.514.958-.262 2.495-1.051 3.617-1.856 2.938-2.105 4.617-4.954 5.05-8.567.055-.46.094-6.301.046-6.985-.031-.439-.051-.535-.153-.737a2.04 2.04 0 0 0-.827-.81l-.258-.127-7.056-.016c-3.881-.009-7.479-.004-7.996.01M19.233 5.54c.052.051.027 5.604-.027 6.24-.065.762-.173 1.401-.331 1.96-.786 2.782-2.729 5.023-5.595 6.452-.341.17-.776.362-.966.427l-.347.117-.393-.155c-1.911-.755-3.733-2.124-4.88-3.668a9.8 9.8 0 0 1-1.833-4.393c-.076-.491-.151-3.751-.132-5.76l.011-1.22.42-.025c.553-.034 14.039-.009 14.073.025"/>
</svg>
