<svg xmlns="http://www.w3.org/2000/svg" viewBox="0 0 16 16">
  <path fill-rule="evenodd" d="M2.609 2.318a1.22 1.22 0 0 0-.794.794c-.054.163-.055.209-.055 2.4 0 2.286.009 2.55.109 3.155.395 2.386 1.763 4.344 3.956 5.661.416.25.978.528 1.408.697.688.269.846.269 1.534 0 1.669-.655 3.177-1.828 4.111-3.198.759-1.114 1.196-2.359 1.339-3.814.025-.249.035-.958.035-2.52l.001-2.173-.059-.19a1.3 1.3 0 0 0-.785-.807l-.166-.056-5.242.001c-4.983.001-5.248.004-5.392.05M12.74 5.833c-.01 1.985-.013 2.089-.07 2.444a6.6 6.6 0 0 1-.604 1.95q-.776 1.585-2.409 2.657a9 9 0 0 1-1.397.729l-.26.103-.26-.103a9 9 0 0 1-1.397-.729c-1.569-1.031-2.557-2.432-2.929-4.151-.139-.645-.141-.691-.153-2.9L3.25 3.76h9.5zm-2.3-.01c-.102.047-.51.422-1.744 1.599l-1.61 1.537-.176-.164c-.097-.09-.413-.39-.702-.667-.585-.559-.697-.634-.957-.634a.73.73 0 0 0-.756.746c-.003.32.02.349 1.121 1.4.561.536 1.035.967 1.114 1.013.121.071.161.08.35.08s.229-.009.351-.08c.085-.049.863-.772 2.031-1.887 2.063-1.969 2.006-1.907 2.027-2.227a.724.724 0 0 0-.74-.779.66.66 0 0 0-.309.063"/>
</svg>
