<svg xmlns="http://www.w3.org/2000/svg" xml:space="preserve" fill="none" viewBox="0 0 20 20">
  <path fill="#000" fill-rule="evenodd" d="M16.1 3.032c-.357.07-.575.342-.575.718 0 .278.073.403.456.783.175.173.319.327.319.341s-.236.026-.525.026c-.627 0-.999.041-1.492.166a5.76 5.76 0 0 0-3.015 1.917c-.433.529-.523.754-.435 1.084.055.208.298.441.517.496.347.088.593-.026.889-.41.699-.908 1.517-1.448 2.561-1.691.203-.048.458-.072.9-.085l.617-.019-.319.33c-.376.388-.416.445-.463.653a.736.736 0 0 0 .715.891c.311 0 .392-.063 1.459-1.125 1.073-1.069 1.158-1.178 1.158-1.481a.9.9 0 0 0-.052-.285c-.062-.151-2.039-2.148-2.215-2.239a.83.83 0 0 0-.5-.07M2.183 4.963c-.521.242-.56.982-.068 1.286l.163.101 1.319.021c1.168.018 1.352.028 1.603.089.976.234 1.785.736 2.398 1.49.105.128.962 1.312 1.904 2.63 1.364 1.906 1.783 2.468 2.047 2.745.497.522.959.865 1.584 1.175.876.435 1.591.598 2.625.599.298.001.542.013.542.027s-.144.168-.319.341c-.383.38-.456.505-.456.783q0 .458.39.657a.84.84 0 0 0 .67-.001c.189-.098 2.165-2.089 2.23-2.247a.76.76 0 0 0-.031-.611c-.115-.232-2.003-2.115-2.218-2.212-.555-.252-1.163.232-1.031.82.044.198.112.293.48.673l.302.312-.617-.018c-.443-.013-.696-.037-.9-.085a4.3 4.3 0 0 1-2.398-1.488c-.105-.128-.931-1.268-1.835-2.533a155 155 0 0 0-1.836-2.534 5.76 5.76 0 0 0-3.014-1.917c-.567-.143-.868-.166-2.184-.165-1.113 0-1.228.006-1.35.062m6.098 6.468c-.185.044-.312.147-.521.418-.695.903-1.507 1.439-2.56 1.691-.251.061-.435.071-1.603.089l-1.319.021-.163.101c-.492.304-.453 1.044.068 1.286.123.056.237.062 1.367.062 1.332 0 1.658-.027 2.243-.182a6 6 0 0 0 1.99-.979 6.3 6.3 0 0 0 1.263-1.341c.227-.344.199-.699-.077-.967-.206-.199-.423-.262-.688-.199"/>
</svg>
