<svg xmlns="http://www.w3.org/2000/svg" fill="none" viewBox="0 0 32 32">
  <path fill="#171717" d="M29.708 22.293a1 1 0 0 1 0 1.415l-3 3a1 1 0 1 1-1.415-1.415L26.586 24h-1.468a9.02 9.02 0 0 1-7.324-3.769l-5.215-7.3A7.01 7.01 0 0 0 6.883 10H4a1 1 0 1 1 0-2h2.883a9.02 9.02 0 0 1 7.323 3.769l5.215 7.3A7.01 7.01 0 0 0 25.118 22h1.468l-1.293-1.293a1 1 0 1 1 1.415-1.415zm-11.833-8.918a1 1 0 0 0 1.395-.232l.15-.21A7.01 7.01 0 0 1 25.117 10h1.47l-1.294 1.293a1 1 0 1 0 1.415 1.415l3-3a1 1 0 0 0 0-1.415l-3-3a1 1 0 1 0-1.415 1.415L26.586 8h-1.468a9.02 9.02 0 0 0-7.324 3.769l-.15.208a1 1 0 0 0 .231 1.398m-3.75 5.25a1 1 0 0 0-1.395.233l-.15.208A7.01 7.01 0 0 1 6.883 22H4a1 1 0 0 0 0 2h2.883a9.02 9.02 0 0 0 7.323-3.769l.15-.209a1 1 0 0 0-.231-1.397"/>
</svg>
