<svg xmlns="http://www.w3.org/2000/svg" xml:space="preserve" fill="none" viewBox="0 0 24 24">
  <path fill="#000" fill-rule="evenodd" d="M4.84 3.788c-.657.11-1.285.588-1.607 1.225-.241.478-.232.193-.232 6.987 0 5.187.01 6.264.057 6.485.152.72.702 1.353 1.416 1.631l.266.104 7.82.012c5.706.009 7.877 0 8.03-.033.445-.095.879-.466 1.054-.9l.096-.239V7.94l-.096-.239c-.151-.375-.506-.713-.924-.88-.065-.026-2.857-.047-7.9-.06l-7.8-.021-.15-.093a.765.765 0 0 1-.022-1.277l.166-.11 6.623-.02c4.933-.015 6.643-.032 6.703-.067.106-.061.278-.248.341-.371.07-.135.063-.479-.012-.623a.9.9 0 0 0-.402-.376c-.078-.03-2.136-.041-6.72-.038-3.634.003-6.652.013-6.707.023m7.65 4.443 7.75.01v10.52l-7.61-.011-7.61-.01-.15-.093a1 1 0 0 1-.26-.28l-.11-.187-.011-4.979c-.006-2.739-.002-5.002.009-5.03.015-.04.041-.04.131-.001.087.039 1.804.052 7.861.061m4.127 4.346c-.183.079-.41.294-.508.479-.121.229-.121.659 0 .888.1.19.328.402.517.481.169.071.579.071.748 0 .189-.079.417-.291.517-.481.065-.123.087-.234.087-.444s-.022-.321-.087-.444c-.1-.19-.328-.402-.517-.481-.166-.07-.596-.069-.757.002"/>
</svg>
