<svg xmlns="http://www.w3.org/2000/svg" xml:space="preserve" fill="none" viewBox="0 0 24 24">
  <path fill="#000" fill-rule="evenodd" d="M8.66 3.056c-.441.11-.83.425-1.017.824-.095.203-.104.27-.116.87-.013.604-.008.663.074.833.27.557 1.063.533 1.324-.041.057-.126.073-.262.074-.612L9 4.48l5.25.01 5.25.01.01 4.87.01 4.87H9.301l.548-.55c.301-.302.566-.601.589-.663.114-.304-.015-.718-.277-.891-.2-.132-.494-.161-.691-.067-.193.092-2.58 2.465-2.655 2.64A.9.9 0 0 0 6.76 15c0 .089.025.22.055.291.075.175 2.462 2.548 2.655 2.64.197.094.491.065.691-.067.262-.173.391-.587.277-.891-.023-.062-.288-.36-.588-.662l-.547-.549 5.239-.011 5.238-.011.215-.088c.316-.129.518-.284.706-.538.297-.403.279-.034.279-5.774V4.18l-.096-.24c-.132-.328-.496-.692-.824-.824l-.24-.096-5.48-.007c-4.269-.005-5.524.004-5.68.043m5.372 2.984c-.386.116-.615.597-.47.987.023.062.288.36.588.662l.547.549-5.239.011-5.238.011-.23.093a1.6 1.6 0 0 0-.915.947c-.045.132-.055 1.069-.055 5.34v5.18l.096.24c.132.328.496.692.824.824l.24.096 5.42.012c3.946.009 5.485 0 5.659-.034a1.55 1.55 0 0 0 1.098-.838c.095-.203.104-.27.116-.87.013-.604.008-.663-.074-.833-.27-.557-1.063-.533-1.324.041-.057.126-.073.262-.074.612l-.001.45-5.25-.01-5.25-.01-.01-4.87-.01-4.87h10.219l-.548.55c-.301.303-.566.601-.589.663-.114.304.015.718.277.891.2.132.494.161.691.067.193-.092 2.58-2.465 2.655-2.64a.83.83 0 0 0 0-.582c-.076-.178-2.463-2.55-2.655-2.638a.67.67 0 0 0-.498-.031"/>
</svg>
