<svg xmlns="http://www.w3.org/2000/svg" xml:space="preserve" fill="none" viewBox="0 0 40 40">
  <path fill="#000" fill-rule="evenodd" d="M14 4.343a8 8 0 0 0-1.011.281c-3.504 1.2-6.295 5.644-7.186 11.443-.377 2.452-.388 5.332-.029 7.7.616 4.065 2.137 7.532 4.226 9.635 1.082 1.089 2.084 1.717 3.367 2.111l.6.184 4.4.022c3.026.016 4.566-.001 4.933-.053 2.899-.409 5.536-3 7.122-6.999.549-1.384 1.133-3.643 1.225-4.735.034-.402.023-.451-.143-.648-.224-.267-.539-.337-.848-.19a.85.85 0 0 0-.309.243c-.047.075-.161.542-.252 1.039-.603 3.264-1.704 5.75-3.419 7.722-1.99 2.288-4.634 2.79-6.878 1.308-1.904-1.258-3.448-3.65-4.393-6.806-1.229-4.106-1.229-9.094 0-13.2 1.407-4.7 4.141-7.645 7.114-7.664.549-.004 1.328.184 1.926.463.646.301.972.519 1.555 1.037.993.882 1.699 1.858 2.504 3.461.462.919.571 1.088.775 1.199.21.115.271.12.513.048q.513-.156.502-.713c-.008-.36-.782-1.94-1.419-2.898-.917-1.378-2.13-2.563-3.308-3.232a7.5 7.5 0 0 0-2.176-.764c-.529-.086-8.868-.081-9.391.006m3.567 2.207c-.746.754-1.398 1.594-1.864 2.4l-.182.317H12.66c-1.573 0-2.86-.023-2.86-.05s.173-.28.383-.561c1.212-1.614 2.634-2.614 4.055-2.852.181-.03 1.185-.059 2.233-.063l1.903-.008zm-2.872 4.433c-.849 1.997-1.43 4.557-1.633 7.2l-.083 1.084H7v-.355c0-.462.112-1.637.237-2.479.278-1.885.813-3.778 1.483-5.25l.205-.45h5.877zM33.9 13.062c-.073.034-2.278 2.208-4.9 4.833-2.621 2.624-4.796 4.772-4.833 4.772s-1.109-1.043-2.384-2.317l-2.317-2.317h-.295c-.506 0-.834.434-.698.925.041.149.815.965 2.711 2.859l2.653 2.65h.661l5.152-5.15c3.984-3.982 5.167-5.202 5.215-5.376.072-.258-.028-.565-.248-.761-.159-.141-.53-.202-.717-.118m-20.84 8.755c.209 2.659.788 5.206 1.635 7.2l.107.25H8.925l-.205-.45c-.922-2.026-1.538-4.683-1.693-7.3l-.047-.784h5.995zm2.643 9.233c.467.808 1.118 1.646 1.869 2.406l.814.822-2.11-.029c-2.373-.033-2.437-.043-3.443-.543-.636-.316-1.255-.793-1.883-1.451-.389-.407-1.15-1.38-1.15-1.472 0-.027 1.287-.05 2.86-.05h2.861z"/>
</svg>
