<svg xmlns="http://www.w3.org/2000/svg" viewBox="0 0 24 24">
  <path fill-rule="evenodd" d="M15.04 1.081c-2.23.029-2.121.017-2.7.306a4 4 0 0 0-.54.338c-.326.248-3.137 2.985-6.777 6.598-2.839 2.819-3.559 3.565-3.818 3.954l-.145.217.001.443c.001.508.022.565.362.988.259.323 7.317 7.386 8.157 8.164.33.305.697.621.815.703.21.145.223.148.648.162.567.017.639-.019 1.37-.696.849-.786 8.616-8.662 9.593-9.727.394-.429.61-.787.833-1.379l.161-.427V1.936l-.113-.178a1.9 1.9 0 0 0-.583-.581l-.203-.137-2.52.007c-1.387.004-3.43.02-4.541.034m2.449 3.581c.473.115 1.052.491 1.369.89.383.482.553.986.558 1.648.004.47-.043.653-.298 1.16a2.5 2.5 0 0 1-.838.98c-.439.297-.745.388-1.38.411-.484.016-.542.01-.84-.09q-.977-.327-1.508-1.261c-.243-.429-.282-.618-.266-1.311l.014-.637.191-.385a2.73 2.73 0 0 1 1.435-1.333c.427-.173 1.03-.201 1.563-.072"/>
</svg>
