<svg xmlns="http://www.w3.org/2000/svg" viewBox="0 0 18 18">
  <path fill-rule="evenodd" d="M10.095.96c-.586.025-.798.074-1.218.283-.518.257-.291.044-4.393 4.126-2.8 2.786-3.289 3.291-3.409 3.522-.139.269-.185.82-.098 1.188.068.289.229.549.55.886.51.536 3.953 3.985 4.916 4.925.864.842.955.922 1.155 1.014.277.127.468.166.807.166.31 0 .555-.055.818-.184.16-.078.442-.35 2.339-2.255 2.574-2.586 4.819-4.886 4.961-5.083.28-.391.475-.926.52-1.433.018-.199.026-1.456.021-3.165l-.009-2.835-.128-.267a1.4 1.4 0 0 0-.317-.45c-.226-.219-.462-.365-.666-.411-.175-.04-5.028-.062-5.849-.027m5.473 3.457a174 174 0 0 1-.024 2.907l-.022.919-.095.191c-.069.141-.206.309-.521.641-1.731 1.826-6.358 6.481-6.468 6.509-.054.014-.11-.004-.198-.062-.067-.045-1.402-1.357-2.966-2.916L2.43 9.77v-.255l3.173-3.149a505 505 0 0 1 3.472-3.427c.419-.39.558-.451 1.076-.479a135 135 0 0 1 2.906-.025l2.513-.005zm-3.643-1.115c-.489.039-1.017.288-1.417.669-.336.318-.53.628-.687 1.09-.071.211-.079.28-.081.699-.002.405.006.494.067.69.136.444.349.801.661 1.11a2.4 2.4 0 0 0 1.862.711 2.4 2.4 0 0 0 1.433-.522c.402-.306.758-.846.894-1.359.065-.243.073-.926.014-1.17a2.7 2.7 0 0 0-.639-1.159q-.819-.863-2.107-.759m.629 1.181c.31.462.582.883.605.937.025.059.041.208.041.372 0 .251-.008.29-.095.454a1.03 1.03 0 0 1-.471.449c-.211.103-.588.099-.818-.009a1.07 1.07 0 0 1-.502-.502 1.06 1.06 0 0 1-.008-.805c.082-.183.335-.435.521-.52.144-.065.559-.082.7-.028.045.017.086.026.092.02a4 4 0 0 0-.223-.429c-.374-.669-.466-.839-.435-.807.016.016.283.407.593.868"/>
</svg>
