<svg xmlns="http://www.w3.org/2000/svg" viewBox="0 0 24 24">
  <path fill-rule="evenodd" d="M15.33 1.943a1.2 1.2 0 0 0-.539.548c-.117.222-.124.662-.015.869.118.222.371.494 2.54 2.72l2.045 2.1-.231.026c-.126.014-3.956.027-8.51.03l-8.28.005-.202.115q-.453.261-.564.641c-.153.522.071 1.094.522 1.335.162.087.194.088 2.564.113 3.111.032 11.736.032 14.76 0 2.669-.028 2.477-.003 2.779-.364.183-.219.281-.477.281-.741 0-.227-.064-.402-.236-.64-.381-.529-4.701-5.501-5.498-6.329-.195-.202-.431-.405-.523-.45-.249-.12-.627-.111-.893.022M4.896 13.599l-2.643.021-.22.146c-.262.174-.459.453-.496.702-.042.275.007.565.123.733.329.474 6.336 6.541 6.755 6.822.222.149.25.157.516.15.533-.013.897-.303 1.053-.84a.94.94 0 0 0-.102-.783c-.144-.228-.486-.587-2.714-2.858l-1.853-1.887 8.133-.016c6.191-.012 8.174-.027 8.308-.064.551-.151.864-.834.647-1.411-.108-.285-.369-.569-.583-.635-.319-.098-9.425-.141-16.924-.08"/>
</svg>
