<svg xmlns="http://www.w3.org/2000/svg" xml:space="preserve" fill="none" viewBox="0 0 20 20">
  <path fill="#000" fill-rule="evenodd" d="M6.529 1.226a.737.737 0 0 0-.22 1.129c.056.063.163.148.238.189l.136.073h6.634l.136-.073c.075-.041.182-.126.238-.189a.737.737 0 0 0-.22-1.129l-.179-.093H6.708zm-3.696 2.46a.74.74 0 0 0-.441.678.68.68 0 0 0 .211.533c.163.164.304.211.689.229l.341.016v5.639c0 6.267-.015 5.855.226 6.215.156.232.41.44.663.542l.195.079h10.566l.195-.079a1.54 1.54 0 0 0 .661-.539c.244-.361.228.081.228-6.205V5.142l.341-.016c.385-.018.526-.065.689-.229a.75.75 0 0 0-.238-1.212c-.11-.046-.873-.052-7.166-.05-6.218.001-7.057.007-7.16.051m12.034 6.947v5.5H5.133v-11h9.734z"/>
</svg>
