<svg xmlns="http://www.w3.org/2000/svg" fill="none" viewBox="0 0 24 24">
  <path fill="#000" fill-rule="evenodd" d="M11.08 1.024c-1.398.12-2.589.317-3.265.539-.873.286-1.564 1.081-1.753 2.018-.058.286-.064.902-.053 6.039l.013 5.72.093.5c.12.644.321 1.304.559 1.837.176.393 2.136 4.068 2.358 4.421.265.422.805.774 1.32.861.192.032.814.042 2.032.032 1.915-.016 1.873-.011 2.33-.264.292-.161.645-.548.812-.888.308-.632 1.849-3.992 1.943-4.239.262-.685.42-1.381.491-2.16.032-.354.041-2.156.031-6.16-.015-6.235.005-5.766-.262-6.331-.305-.646-.89-1.171-1.544-1.386-.483-.159-1.654-.378-2.585-.484-.388-.043-2.194-.083-2.52-.055m2.32 1.539c.877.09 1.979.298 2.35.444.262.103.511.347.646.633l.104.22v5.7c0 6.104.003 5.992-.204 6.793-.14.541-.287.889-1.273 3.027-.599 1.297-.903 1.913-.982 1.987-.162.15-.311.161-2.028.146-1.428-.012-1.492-.016-1.597-.095-.073-.055-.413-.644-1.006-1.74-1.374-2.546-1.505-2.822-1.707-3.598-.207-.796-.203-.669-.203-6.64V3.86l.104-.22c.135-.286.384-.53.646-.633.514-.202 1.997-.442 3.11-.503.384-.021 1.604.014 2.04.059M9.24 6.037c-.291.09-.552.317-.658.572-.087.208-.093 3.559-.007 3.765.078.188.291.416.481.518l.164.088h5.56l.164-.088c.19-.102.403-.33.481-.518.086-.206.08-3.557-.007-3.765a1.13 1.13 0 0 0-.478-.503c-.159-.086-.175-.086-2.88-.093-1.496-.004-2.765.007-2.82.024M14 8.5v1.02h-4V7.48h4zm-5.06 4.067c-.127.07-.302.244-.364.361-.125.239-.037.693.171.88.188.17.332.192 1.253.192s1.065-.022 1.253-.192c.199-.179.296-.639.182-.861a1.1 1.1 0 0 0-.363-.371c-.138-.071-2.004-.08-2.132-.009m4 0c-.127.07-.302.244-.364.361-.125.239-.037.693.171.88.188.17.332.192 1.253.192s1.065-.022 1.253-.192c.199-.179.296-.639.182-.861a1.1 1.1 0 0 0-.363-.371c-.138-.071-2.004-.08-2.132-.009"/>
</svg>
