<svg xmlns="http://www.w3.org/2000/svg" fill="none" viewBox="0 0 26 30">
  <path fill="#000" fill-rule="evenodd" d="M12.285 10.079a4 4 0 0 0-.714.264c-.565.276-1.038.741-1.293 1.273a3 3 0 0 0-.222.623c-.062.348-.064 9.46-.001 9.934a7.07 7.07 0 0 0 1.621 3.674c.363.423 3.219 3.481 3.4 3.641.201.177.372.277.654.384.227.086.336.091 2.318.105 1.379.01 2.173-.001 2.354-.033.38-.066.683-.211.958-.46.208-.188 2.384-2.724 3.064-3.571.876-1.091 1.396-2.335 1.529-3.658.031-.311.047-2.064.046-5.113-.001-5.076.005-4.957-.255-5.496-.342-.71-.959-1.227-1.802-1.512l-.304-.102-5.525-.008c-4.683-.007-5.571.002-5.828.055m11.119 1.974c.2.066.419.235.52.4.082.132.084.259.072 5.01l-.012 4.875-.117.427c-.136.492-.46 1.189-.733 1.574-.104.147-.832 1.029-1.619 1.96l-1.43 1.692-1.863.001h-1.864l-.591-.638c-.325-.352-1.063-1.146-1.639-1.766-1.298-1.394-1.624-1.862-1.926-2.765-.197-.59-.2-.689-.188-5.652l.011-4.69.176-.176c.318-.317-.063-.298 5.787-.3 3.828-.001 5.309.012 5.416.048m-9.884 5.584v3.986h8.97V13.65h-8.97zm6.977 0v1.993h-4.984v-3.987h4.984z"/>
</svg>
