<svg xmlns="http://www.w3.org/2000/svg" xml:space="preserve" fill="none" viewBox="0 0 20 16">
  <path fill="#000" fill-rule="evenodd" d="M13.35.021c-1.407.215-2.498.927-3.135 2.046-.411.723-.581 1.706-.432 2.488.028.144.05.267.05.274s-.123.003-.275-.01c-2.141-.175-4.107-.847-5.808-1.986-.627-.42-1.1-.815-1.74-1.451L1.371.746l-.15.318C.735 2.099.714 3.192 1.162 4.232c.249.577.75 1.202 1.271 1.585l.217.159-.273-.022c-.432-.035-.983-.193-1.535-.442-.106-.048-.006.703.159 1.195.326.975 1.066 1.811 2.027 2.291.245.123.861.335.976.336.119.002.017.05-.204.097a4.4 4.4 0 0 1-1.178.067 3 3 0 0 0-.376-.022c-.022.023.224.54.365.766.67 1.071 1.754 1.732 3.115 1.902l.32.04-.331.219a8.4 8.4 0 0 1-3.098 1.28c-.615.124-1.077.16-1.864.145l-.712-.014.221.13c1.401.822 3.127 1.377 4.855 1.56.511.054 1.951.054 2.45-.001 2.863-.314 5.285-1.452 7.235-3.401a10.8 10.8 0 0 0 2.88-5.062c.206-.813.282-1.403.307-2.375l.02-.784.137-.099c.245-.175.798-.665 1.037-.919.365-.385.821-.963.761-.963-.015 0-.197.06-.404.133s-.553.178-.769.233c-.396.1-1.035.215-1.059.191-.007-.007.093-.083.222-.169A4.2 4.2 0 0 0 19.14.983c.15-.268.304-.617.282-.639-.01-.01-.098.028-.195.083-.448.256-1.303.576-1.971.741l-.394.096-.263-.224A4.1 4.1 0 0 0 13.933.018a6 6 0 0 0-.583.003"/>
</svg>
