<svg xmlns="http://www.w3.org/2000/svg" xml:space="preserve" fill="none" viewBox="0 0 20 20">
  <path fill="#000" fill-rule="evenodd" d="M3.332 2.448a1.4 1.4 0 0 0-.811.719l-.104.216-.01 1.375c-.009 1.312-.006 1.38.057 1.503.082.162.26.32.42.373.068.022.212.034.32.026.262-.019.446-.145.571-.391l.092-.181V3.867h2.225l.179-.093c.245-.129.37-.312.389-.57.017-.238-.033-.404-.169-.559-.218-.249-.195-.245-1.698-.243-1.02.002-1.372.013-1.461.046m10.418.007a.73.73 0 0 0-.41.744c.019.263.142.446.389.575l.179.093h2.225v2.221l.092.181c.125.246.309.372.571.391.108.008.252-.004.32-.026a.82.82 0 0 0 .421-.374c.063-.124.065-.189.056-1.503l-.01-1.374-.104-.216a1.4 1.4 0 0 0-.646-.646l-.216-.104-1.384-.008c-1.211-.007-1.395-.001-1.483.046M9.63 5.537c-1.192.115-2.294.994-2.684 2.143-.28.821-.221 1.781.154 2.521.1.197.38.601.484.699.045.043.082.094.081.114 0 .02-.079.074-.175.119-.254.123-.803.496-1.09.741a5.4 5.4 0 0 0-1.138 1.418c-.123.222-.141.282-.141.46 0 .554.576.899 1.079.646.15-.075.218-.154.417-.481 1.052-1.734 3.226-2.401 5.046-1.548a3.9 3.9 0 0 1 1.63 1.417c.314.484.36.539.502.61a.7.7 0 0 0 .499.069c.359-.08.58-.348.583-.71.002-.184-.014-.237-.139-.464a5.3 5.3 0 0 0-1.121-1.399c-.297-.258-.841-.631-1.107-.759-.096-.045-.175-.099-.175-.119-.001-.02.036-.071.081-.114.104-.098.384-.502.484-.699.375-.74.434-1.7.154-2.521-.4-1.177-1.487-2.027-2.745-2.146a5 5 0 0 0-.376-.029c-.009.002-.145.016-.303.032m.819 1.514c.107.028.283.098.39.155.242.129.619.519.739.764.098.2.188.573.188.78s-.09.58-.188.78c-.12.245-.497.635-.739.764a1.8 1.8 0 0 1-1.678 0c-.242-.129-.619-.519-.74-.765a1.8 1.8 0 0 1-.088-1.333c.162-.519.667-.999 1.204-1.143.238-.064.669-.065.912-.002m-7.616 6.334a.8.8 0 0 0-.37.357c-.062.12-.065.195-.056 1.5l.01 1.375.104.216c.132.276.37.514.646.646l.216.104 1.375.01c1.312.009 1.38.006 1.503-.057a.8.8 0 0 0 .373-.42c.022-.068.034-.212.026-.32-.019-.262-.145-.446-.391-.571l-.181-.092H3.867v-2.221l-.092-.181c-.132-.261-.31-.376-.601-.389a.8.8 0 0 0-.341.043m13.768-.015a.76.76 0 0 0-.388.376c-.078.169-.079.182-.079 1.279l-.001 1.108h-2.225l-.179.093c-.245.129-.37.312-.389.57-.008.108.004.252.026.32.053.16.211.338.373.42.123.063.191.066 1.503.057l1.375-.01.216-.104c.12-.057.29-.177.38-.266.089-.09.209-.26.266-.38l.104-.216.01-1.374c.009-1.307.007-1.38-.055-1.5a.77.77 0 0 0-.379-.358c-.137-.057-.431-.065-.558-.015"/>
</svg>
