<svg xmlns="http://www.w3.org/2000/svg" fill="none" viewBox="0 0 32 32">
  <path fill="#000" fill-rule="evenodd" d="M.25 16C.25 7.302 7.302.25 16 .25S31.75 7.302 31.75 16 24.698 31.75 16 31.75.25 24.698.25 16M16 1.75C8.13 1.75 1.75 8.13 1.75 16S8.13 30.25 16 30.25 30.25 23.87 30.25 16 23.87 1.75 16 1.75m0 6a.75.75 0 0 1 .75.75v8.75a.75.75 0 0 1-1.5 0V8.5a.75.75 0 0 1 .75-.75" clip-rule="evenodd"/>
  <path fill="#000" d="M17.5 22.875a1.5 1.5 0 1 1-3 0 1.5 1.5 0 0 1 3 0"/>
  <path fill="#000" fill-rule="evenodd" d="M16 21.438a1.438 1.438 0 1 0 0 2.876 1.438 1.438 0 0 0 0-2.876m-1.105.332a1.563 1.563 0 1 1 2.21 2.21 1.563 1.563 0 0 1-2.21-2.21" clip-rule="evenodd"/>
</svg>
