<svg xmlns="http://www.w3.org/2000/svg" xml:space="preserve" fill="none" viewBox="0 0 40 40">
  <path fill="#000" fill-rule="evenodd" d="M19.207 4.372c-.75.202-1.429.68-1.86 1.31-.403.589-13.978 24.099-14.099 24.418-.321.843-.283 1.701.114 2.542a3.16 3.16 0 0 0 1.957 1.692c.422.131.652.133 14.681.133s14.259-.002 14.681-.133a3.16 3.16 0 0 0 1.957-1.692c.4-.847.434-1.701.103-2.572-.114-.299-13.709-23.834-14.088-24.388-.757-1.107-2.183-1.649-3.446-1.31m1.607 1.581c.157.093.365.254.462.358.144.155 13.094 22.45 13.934 23.989.227.415.255.519.256.937.001.574-.21 1.055-.599 1.362-.543.431.565.401-14.867.401s-14.324.03-14.867-.401c-.388-.307-.6-.788-.6-1.364 0-.451.017-.502.39-1.17C6.05 28.047 18.568 6.477 18.69 6.343c.205-.224.491-.418.769-.522.364-.136 1.007-.073 1.355.132m-1.321 9.807-.226.227v3.343c0 3.619-.002 3.606.36 3.8a.83.83 0 0 0 .746 0c.362-.194.36-.181.36-3.8v-3.343l-.226-.227c-.186-.186-.277-.227-.507-.227s-.321.041-.507.227m-.126 10.967a1.524 1.524 0 0 0-.443 2.482c.623.623 1.529.623 2.152 0a1.52 1.52 0 0 0-1.091-2.608 1.7 1.7 0 0 0-.618.126"/>
</svg>
