<svg xmlns="http://www.w3.org/2000/svg" xml:space="preserve" fill="none" viewBox="0 0 16 16">
  <path fill="#000" fill-rule="evenodd" d="M7.747 1.283a1.75 1.75 0 0 0-1.027.55c-.115.127-.756 1.213-2.939 4.985a557 557 0 0 0-2.858 4.969 1.75 1.75 0 0 0 .227 1.802c.242.293.637.536.997.611.28.059 11.425.059 11.706 0 .3-.062.642-.247.857-.463.343-.343.488-.674.51-1.164.014-.324-.021-.52-.142-.786a551 551 0 0 0-2.859-4.972C9.998 2.977 9.397 1.957 9.28 1.83a1.75 1.75 0 0 0-1.053-.549 1.3 1.3 0 0 0-.48.002m.366 1.492a.4.4 0 0 1 .13.14c.037.061 1.291 2.224 2.786 4.805 2.91 5.025 2.792 4.806 2.666 4.945a.35.35 0 0 1-.146.081c-.137.038-10.966.037-11.104-.001-.107-.03-.205-.15-.205-.252 0-.061 5.511-9.593 5.6-9.685.064-.066.171-.079.273-.033m-.364 3.027a.75.75 0 0 0-.468.559c-.022.111-.029.56-.023 1.492.01 1.486.002 1.422.199 1.642a.733.733 0 0 0 1.086 0c.199-.222.19-.143.19-1.735V6.333l-.075-.152a.736.736 0 0 0-.909-.379m.037 4.861a.83.83 0 0 0-.473.427c-.056.127-.056.439 0 .567a.87.87 0 0 0 .38.387c.365.17.831-.011.994-.387.056-.128.056-.44 0-.567a.9.9 0 0 0-.352-.376c-.118-.061-.431-.089-.549-.051"/>
</svg>
