<svg xmlns="http://www.w3.org/2000/svg" fill="none" viewBox="0 0 20 20">
  <path fill="#000" fill-rule="evenodd" d="M3.483 2.546c-.232.101-.41.427-.365.667.033.174.096.256.762.985.342.374.618.691.612.703-.005.013-.271.157-.592.321-.841.429-1.72.995-2.294 1.477-.275.231-.349.354-.349.58 0 .359.262.621.621.621.184 0 .299-.062.722-.387.619-.476 1.23-.86 1.912-1.203.321-.16.871-.41.905-.41.032 0 1.797 1.975 1.783 1.994a3 3 0 0 1-.367.142c-.466.16-.757.287-1.32.578-.689.356-1.531.93-1.665 1.135-.257.392.047.951.518.951.187 0 .296-.053.701-.345a8.4 8.4 0 0 1 2.608-1.274c.218-.063.43-.114.469-.114.053 0 .35.305 1.089 1.119.56.616 1.022 1.133 1.028 1.15.006.018-.156.031-.379.031a5.73 5.73 0 0 0-3.132.958c-.338.223-.393.276-.465.45-.141.337.06.729.425.828.196.054.36.003.696-.215.839-.545 1.615-.771 2.627-.766.59.002.857.041 1.379.201l.296.09 2.101 2.308c2.204 2.423 2.195 2.413 2.467 2.412.224-.002.509-.2.589-.41a.64.64 0 0 0-.029-.473C16.754 16.472 4.213 2.676 4.043 2.576a.7.7 0 0 0-.56-.03m5.534 1.242-.467.049c-.524.053-.72.172-.8.485a.61.61 0 0 0 .335.719c.143.07.154.07.672.023.806-.073 2.028-.058 2.726.034.886.116 1.509.256 2.33.524 1.182.386 2.379 1 3.344 1.714.216.16.47.346.564.414.282.202.568.201.807-.003.238-.204.29-.571.113-.811-.14-.191-1.014-.833-1.697-1.246a13.5 13.5 0 0 0-5.854-1.888c-.387-.032-1.829-.042-2.073-.014m2.501 3.988c-.368.208-.42.677-.109.976.126.121.177.144.474.212 1.118.255 2.108.724 3.307 1.568.26.183.484.216.702.105a.56.56 0 0 0 .333-.516c.02-.351-.102-.491-.886-1.011a10 10 0 0 0-2.956-1.309c-.483-.122-.684-.128-.865-.025m-1.785 7.255c-.535.164-.822.699-.647 1.211.065.192.279.439.46.531.196.1.542.12.744.043.189-.072.423-.281.521-.465.103-.194.103-.643-.002-.839-.198-.373-.698-.596-1.076-.481"/>
</svg>
