<?xml version="1.0" encoding="utf-8"?>
<!-- Generator: Adobe Illustrator 21.0.2, SVG Export Plug-In . SVG Version: 6.00 Build 0)  -->
<svg version="1.1" id="Vrstva_1" xmlns="http://www.w3.org/2000/svg" xmlns:xlink="http://www.w3.org/1999/xlink" x="0px" y="0px"
	 viewBox="0 0 211 61" style="enable-background:new 0 0 211 61;" xml:space="preserve">
<style type="text/css">
	.st0{fill-rule:evenodd;clip-rule:evenodd;}
</style>
<path id="unlocked" class="st0" d="M12,15v-2.6c0-2.1,1.7-3.8,3.7-3.8h1.1c2,0,3.7,1.7,3.7,3.8v0.2h-2.1c-0.1-1.1-1-1.9-2.1-1.9
	c-1.2,0-2.1,1-2.1,2.2V15h6.8c0.6,0,1,0.5,1,1v6.5c0,0.6-0.5,1-1,1h-9.8c-0.6,0-1-0.5-1-1V16c0-0.6,0.5-1,1-1H12z"/>
<path id="locked" class="st0" d="M50.9,15h-0.5v-2.6c0-2.1-1.7-3.8-3.7-3.8h-1.1c-2,0-3.7,1.7-3.7,3.8V15h-0.9c-0.6,0-1,0.5-1,1v6.5
	c0,0.6,0.5,1,1,1h9.8c0.6,0,1-0.5,1-1V16C51.9,15.4,51.5,15,50.9,15z M44.1,12.8c0-1.2,0.9-2.2,2.1-2.2c1.1,0,2,1,2.1,2.1V15h-4.2
	V12.8z"/>
<g id="refresh">
	<path d="M101,14.9c0.5-2.4,2.7-4.2,5.3-4.2c1,0,1.9,0.3,2.7,0.7c0.2,0.1,0.4,0.3,0.6,0.4l-2.1,2l5.8,1l-1-5.8l-1.2,1.2
		c-0.2-0.1-0.4-0.3-0.6-0.4c-1.2-0.8-2.7-1.3-4.3-1.3c-3.7,0-6.8,2.6-7.4,6.2l-0.1,0.6h2.2L101,14.9z"/>
	<path d="M111,17.2c-0.5,2.4-2.7,4.2-5.3,4.2c-1,0-1.9-0.3-2.7-0.7c-0.2-0.1-0.4-0.3-0.6-0.4l2.1-2l-5.8-1l1,5.8l1.2-1.2
		c0.2,0.1,0.4,0.3,0.6,0.4c1.2,0.8,2.7,1.3,4.3,1.3c3.7,0,6.8-2.6,7.4-6.2l0.1-0.6h-2.2L111,17.2z"/>
</g>
<path id="settings" d="M142.7,14.5h-2.1c-0.1-0.4-0.3-0.8-0.5-1.1l1.4-1.4c0.3-0.3,0.3-0.9,0-1.2l-0.6-0.6c-0.3-0.3-0.9-0.3-1.2,0
	l-1.4,1.4c-0.4-0.2-0.8-0.4-1.2-0.5V9.3c0-0.5-0.4-0.8-0.8-0.8h-0.8c-0.5,0-0.8,0.4-0.8,0.8v1.8c-0.5,0.1-0.9,0.3-1.3,0.6l-1.2-1.2
	c-0.3-0.3-0.9-0.3-1.2,0l-0.6,0.6c-0.3,0.3-0.3,0.9,0,1.2l1.2,1.2c-0.3,0.4-0.4,0.9-0.6,1.4h-1.6c-0.5,0-0.8,0.4-0.8,0.8v0.8
	c0,0.5,0.4,0.8,0.8,0.8h1.7c0.2,0.5,0.4,1,0.7,1.4l-1.1,1.1c-0.3,0.3-0.3,0.9,0,1.2l0.6,0.6c0.3,0.3,0.9,0.3,1.2,0l1.3-1.3
	c0.4,0.2,0.9,0.4,1.4,0.4v1.7c0,0.5,0.4,0.8,0.8,0.8h0.8c0.5,0,0.8-0.4,0.8-0.8v-2c0.4-0.1,0.8-0.3,1.2-0.6l1.3,1.3
	c0.3,0.3,0.9,0.3,1.2,0l0.6-0.6c0.3-0.3,0.3-0.9,0-1.2l-1.5-1.5c0.2-0.4,0.3-0.8,0.4-1.2h2c0.5,0,0.8-0.4,0.8-0.8v-0.8
	C143.5,14.9,143.1,14.5,142.7,14.5z M135.8,18.1c-1.2,0-2.1-0.9-2.1-2.1c0-1.2,0.9-2.1,2.1-2.1c1.2,0,2.1,0.9,2.1,2.1
	C137.9,17.2,136.9,18.1,135.8,18.1z"/>
<g id="eject">
	<path d="M69.5,22.4h12.9c0.3,0,0.5-0.2,0.5-0.5V20c0-0.3-0.2-0.5-0.5-0.5H69.5c-0.3,0-0.5,0.2-0.5,0.5v1.9
		C69,22.2,69.2,22.4,69.5,22.4z"/>
	<path d="M75.8,9.7l-6.3,7.2c-0.2,0.2,0,0.5,0.2,0.5h12.6c0.3,0,0.4-0.3,0.2-0.5l-6.3-7.2C76.1,9.5,75.9,9.5,75.8,9.7z"/>
</g>
<path id="redirect" d="M76,38.5c-4.1,0-7.5,3.4-7.5,7.5c0,4.1,3.4,7.5,7.5,7.5s7.5-3.4,7.5-7.5C83.5,41.9,80.1,38.5,76,38.5z
	 M76.5,49.5v-2c-3-1-4,0-5,2c0-5,3-6,5-6v-2l4,4L76.5,49.5z"/>
<path id="warning" d="M113.5,51.9l-7-12.3c-0.3-0.5-0.7-0.5-1,0l-7,12.3c-0.3,0.5,0,0.9,0.5,0.9h14
	C113.6,52.7,113.8,52.4,113.5,51.9z M107,50.2c0,0.3-0.2,0.5-0.5,0.5h-1c-0.3,0-0.5-0.2-0.5-0.5v-1c0-0.3,0.2-0.5,0.5-0.5h1
	c0.3,0,0.5,0.2,0.5,0.5V50.2z M107,47.2c0,0.3-0.2,0.5-0.5,0.5h-1c-0.3,0-0.5-0.2-0.5-0.5v-3c0-0.3,0.2-0.5,0.5-0.5h1
	c0.3,0,0.5,0.2,0.5,0.5V47.2z"/>
<path id="chat" d="M48,38.5h-4c-3,0-5.5,2.5-5.5,5.6c0,2.8,2,5.2,4.7,5.6v3.8l3.8-3.8H48c3,0,5.5-2.5,5.5-5.6
	C53.5,41,51,38.5,48,38.5z"/>
<path id="info" d="M21.3,40.7c-2.9-2.9-7.7-2.9-10.6,0c-2.9,2.9-2.9,7.7,0,10.6c2.9,2.9,7.7,2.9,10.6,0
	C24.2,48.4,24.2,43.6,21.3,40.7z M15.9,39.8c0.8,0,1.4,0.6,1.4,1.4c0,0.8-0.6,1.4-1.4,1.4c-0.8,0-1.5-0.7-1.5-1.4
	C14.4,40.4,15.1,39.8,15.9,39.8z M18.2,50.4c0,0.3-0.1,0.4-0.4,0.4H14c-0.3,0-0.4-0.1-0.4-0.4v-0.9c0-0.3,0.1-0.4,0.4-0.4h0.7v-4H14
	c-0.3,0-0.4-0.1-0.4-0.4v-0.9c0-0.3,0.1-0.4,0.4-0.4h2.6c0.3,0,0.4,0.1,0.4,0.4V49h0.7c0.3,0,0.4,0.1,0.4,0.4V50.4z"/>
<g id="close">
	<g>
		<path d="M143.1,51.2c0.5,0.5,0.5,1.4,0,1.9c-0.3,0.3-0.6,0.4-1,0.4c-0.4,0-0.7-0.1-0.9-0.4l-5.2-5.2l-5.2,5.2
			c-0.5,0.5-1.4,0.5-1.9,0c-0.5-0.5-0.5-1.4,0-1.9l5.2-5.2l-5.2-5.2c-0.5-0.5-0.5-1.4,0-1.9c0.5-0.5,1.4-0.5,1.9,0l5.2,5.2l5.2-5.2
			c0.5-0.5,1.4-0.5,1.9,0c0.5,0.5,0.5,1.4,0,1.9l-5.2,5.2L143.1,51.2z"/>
	</g>
</g>
<g id="arrow-down">
	<g>
		<g>
			<path d="M173.5,13.2l-6.8,7.4c-0.3,0.3-0.6,0.4-1,0.4c-0.4,0-0.7-0.2-1-0.4l-6.4-7.1c-0.5-0.5-0.4-1.3,0.1-1.8
				c0.5-0.5,1.3-0.4,1.8,0.1l5.5,6l5.8-6.4c0.2-0.3,0.6-0.4,0.9-0.4c0.4,0,0.7,0.1,0.9,0.3C174,11.8,174,12.6,173.5,13.2z"/>
		</g>
	</g>
</g>
<g id="arrow-left">
	<g>
		<g>
			<path d="M170.8,52.2c0,0.3-0.1,0.7-0.3,0.9c-0.2,0.3-0.5,0.4-0.9,0.4h-0.1c-0.3,0-0.6-0.1-0.8-0.3l-7-6.4
				c-0.3-0.2-0.4-0.6-0.4-0.9c0-0.3,0.2-0.7,0.4-0.9l6.7-6.1c0.3-0.2,0.6-0.3,0.9-0.3c0.3,0,0.6,0.2,0.9,0.4
				c0.5,0.5,0.4,1.3-0.1,1.8l-5.7,5.2l6,5.5C170.6,51.6,170.7,51.9,170.8,52.2z"/>
		</g>
	</g>
</g>
<g id="arrow-right">
	<g>
		<g>
			<path d="M191.2,39.8c0-0.3,0.1-0.7,0.3-0.9c0.2-0.3,0.5-0.4,0.9-0.4h0.1c0.3,0,0.6,0.1,0.8,0.3l7,6.4c0.3,0.2,0.4,0.6,0.4,0.9
				c0,0.3-0.2,0.7-0.4,0.9l-6.7,6.1c-0.3,0.2-0.6,0.3-0.9,0.3c-0.3,0-0.6-0.2-0.9-0.4c-0.5-0.5-0.4-1.3,0.1-1.8l5.7-5.2l-6-5.5
				C191.4,40.4,191.3,40.1,191.2,39.8z"/>
		</g>
	</g>
</g>
<g id="arrow-up">
	<g>
		<g>
			<path d="M189.8,20.8c-0.3,0-0.7-0.1-0.9-0.3c-0.3-0.2-0.4-0.5-0.4-0.9v-0.1c0-0.3,0.1-0.6,0.3-0.8l6.4-7c0.2-0.3,0.6-0.4,0.9-0.4
				c0.3,0,0.7,0.2,0.9,0.4l6.1,6.7c0.2,0.3,0.3,0.6,0.3,0.9c0,0.3-0.2,0.6-0.4,0.9c-0.5,0.5-1.3,0.4-1.8-0.1l-5.2-5.7l-5.5,6
				C190.5,20.6,190.1,20.8,189.8,20.8z"/>
		</g>
	</g>
</g>

<view id="icon-external" viewBox="30 60 30 30" />
<view id="icon-heart-view" viewBox="0 32 32 32" />
<view id="icon-arrow-right-view" viewBox="0 64 32 32" />
</svg>
