<?xml version="1.0" encoding="utf-8"?>
<!-- Generator: Adobe Illustrator 15.1.0, SVG Export Plug-In . SVG Version: 6.00 Build 0)  -->
<!DOCTYPE svg PUBLIC "-//W3C//DTD SVG 1.0//EN" "http://www.w3.org/TR/2001/REC-SVG-20010904/DTD/svg10.dtd">
<svg version="1.0"
	 id="trezor" xmlns:dc="http://purl.org/dc/elements/1.1/" xmlns:sodipodi="http://sodipodi.sourceforge.net/DTD/sodipodi-0.dtd" xmlns:svg="http://www.w3.org/2000/svg" xmlns:rdf="http://www.w3.org/1999/02/22-rdf-syntax-ns#" inkscape:export-ydpi="300" xmlns:inkscape="http://www.inkscape.org/namespaces/inkscape" inkscape:export-xdpi="300" inkscape:export-filename="/home/stick/work/bitcoin/share-bitkey/logo/logo-black-horiz-2.png" sodipodi:docname="logo-black-horiz-2.svg" inkscape:version="0.48.4 r9939" xmlns:cc="http://creativecommons.org/ns#"
	 xmlns="http://www.w3.org/2000/svg" xmlns:xlink="http://www.w3.org/1999/xlink" x="0px" y="0px" width="auto" height="auto" fill="#FFFFFF"
	 viewBox="0 0 685.984 210" enable-background="new 0 0 685.984 210" xml:space="preserve">
<sodipodi:namedview  fit-margin-bottom="20" fit-margin-right="20" fit-margin-top="20" fit-margin-left="20" gridtolerance="10" inkscape:current-layer="svg2" inkscape:window-maximized="1" inkscape:window-y="25" inkscape:window-x="0" inkscape:cx="274.79362" inkscape:window-height="1129" inkscape:cy="-36.370891" showgrid="false" inkscape:window-width="1920" inkscape:pageshadow="2" inkscape:zoom="0.76280916" inkscape:pageopacity="0" guidetolerance="10" pagecolor="#ffffff" bordercolor="#666666" objecttolerance="10" borderopacity="1" id="namedview30">
	</sodipodi:namedview>
<rect id="rect25" x="320.944" y="717.998" display="none" fill="#FFFFFF" stroke="#000000" width="11" height="35"/>
<path id="path7" inkscape:connector-curvature="0" d="M97.879,19.707c-23.563,0-42.667,19.103-42.667,42.667v15.953
	c-8.269,1.479-16.614,3.522-16.614,6.133v83.586c0,0,0,2.344,2.553,3.359c9.427,3.751,46.438,16.869,54.932,19.873
	c1.119,0.396,1.355,0.385,1.743,0.385c0.408,0,0.619,0.014,1.729-0.379c8.478-2.997,45.617-16.148,54.985-19.857
	c2.433-0.963,2.503-3.347,2.503-3.347V84.464c0-2.61-8.229-4.658-16.499-6.138V62.373C140.545,38.81,121.442,19.707,97.879,19.707z
	 M97.879,40.098c13.86,0,22.292,8.416,22.292,22.276v13.898c-15.649-1.14-28.947-1.14-44.598,0V62.374
	C75.573,48.513,84.017,40.098,97.879,40.098z M97.824,96.79c19.389,0.031,35.688,1.475,35.688,4.235c0,0,0,51.321,0,52.08
	c0,0.76-0.12,0.888-0.841,1.161c-0.72,0.274-33.149,11.993-33.149,11.993s-1.331,0.442-1.697,0.442c-0.415,0-1.747-0.46-1.747-0.46
	s-32.415-11.708-33.143-11.983c-0.729-0.274-0.823-0.416-0.823-1.182c0-0.844,0-52.053,0-52.053
	C62.112,98.188,78.436,96.759,97.824,96.79z"/>
<g id="g3222" transform="matrix(0.95575135,0,0,0.95575135,91.363135,-287.43374)">
	<path id="path13" inkscape:connector-curvature="0" d="M126.229,461.703v-59.704h-21.763v-21.4h67.972v21.4h-21.646v59.704H126.229
		z"/>
	<path id="path15" inkscape:connector-curvature="0" d="M227.522,461.703l-11.185-25.534h-8.877v25.534h-24.561v-81.104h43.286
		c18.967,0,29.184,12.645,29.184,27.844c0,13.987-8.148,21.401-14.591,24.563l14.714,28.696h-27.969V461.703z M230.44,408.32
		c0-4.375-3.891-6.323-8.026-6.323h-14.957v12.767h14.957C226.549,414.763,230.44,412.822,230.44,408.32z"/>
	<path id="path17" inkscape:connector-curvature="0" d="M268.232,461.703v-81.104h61.527v21.4h-36.965v8.026h36.115v21.403h-36.115
		v8.873h36.965v21.402H268.232z"/>
	<path id="path19" inkscape:connector-curvature="0" d="M342.547,461.718v-19.454l30.883-40.249h-30.883v-21.4h63.349v19.333
		l-31.007,40.37h31.857v21.4h-64.199V461.718z"/>
	<path id="path21" inkscape:connector-curvature="0" d="M412.762,421.229c0-24.929,19.331-41.952,44.381-41.952
		c25.046,0,44.383,17.023,44.383,41.952c0,24.925-19.337,41.948-44.383,41.948C432.093,463.177,412.762,446.154,412.762,421.229z
		 M476.599,421.229c0-11.311-7.66-20.308-19.456-20.308c-11.794,0-19.457,8.998-19.457,20.308c0,11.307,7.661,20.303,19.457,20.303
		C468.937,441.532,476.599,432.534,476.599,421.229z"/>
	<path id="path23" inkscape:connector-curvature="0" d="M556.611,461.718l-11.182-25.534h-8.879v25.534h-24.563v-81.103h43.289
		c18.971,0,29.185,12.645,29.185,27.843c0,13.987-8.149,21.401-14.594,24.565l14.713,28.696H556.611z M559.531,408.336
		c0-4.376-3.89-6.323-8.026-6.323h-14.957v12.767h14.957C555.638,414.781,559.531,412.838,559.531,408.336z"/>
</g>
</svg>
