
<svg xmlns="http://www.w3.org/2000/svg" width="320" height="320" viewBox="0 0 320 320">
    <g fill="none" fill-rule="nonzero">
        <path fill="#D8D9DA" d="M210.206 202.25a1.674 1.674 0 1 1 2.216-2.51l1.574 1.406c.737.656 1.38 1.218 2.051 1.79 5.342 4.541 10.604 7.978 16.313 10.07 14.035 5.142 27.11.57 38.852-17.74a1.674 1.674 0 1 1 2.819 1.808c-12.581 19.617-27.3 24.763-42.823 19.075-6.146-2.252-11.713-5.888-17.33-10.663l-.516-.442-2.015-1.776a399.91 399.91 0 0 0-1.14-1.018z"/>
        <path fill="#D8D9DA" d="M80.512 219.974c-46.3-41.32-49.506-90.725-6.109-136.194 37.13-38.9 92.895-42.912 133.176-8.646l1.62 1.407 3.087 2.693 1.38 1.22c.669.598 1.302 1.177 1.903 1.741l.321.307.398-.324a14.267 14.267 0 0 1 7.696-2.988l.529-.03c3.36-.129 6.787.896 10.005 2.803 8.549 5.105 13.09 15.918 9.938 24.92-.455 1.3-1.051 2.496-1.783 3.54l-.165.224.128.127c1.7 1.714 3.522 3.734 5.583 6.137l2.721 3.213c3.468 4.444 6.591 8.742 9.38 12.898 13.132 19.565 18.691 35.644 18.162 48.947-.373 9.347-3.3 15.873-8.581 22.622l-1.538 1.908c-6.058 7.417-13.032 12.695-21.752 14.628-11.705 2.594-24.657-1.592-38.778-13.93l-.786-.695 3.27-3.663c13.325 11.891 24.982 15.766 35.232 13.494 7.179-1.591 13.146-5.97 18.427-12.236l1.544-1.884c5.03-6.255 7.719-11.987 8.055-20.44.484-12.149-4.738-27.25-17.332-46.015-2.722-4.056-5.777-8.26-9.112-12.537l-1.32-1.562c-2.5-2.962-4.606-5.34-6.516-7.27l-.557-.556-.486.21c-1.73.688-3.668.81-5.664.46a13.772 13.772 0 0 1-10.54-9.13l-.207-.658-.246-.096c-4.028-1.587-6.629-3.368-8.406-6.216l-.26-.436c-1.985-3.467-1.989-7.897-.177-11.503l.059-.112-.16-.155a96.044 96.044 0 0 0-2.307-2.126l-4.799-4.206c-38.343-33.617-91.872-30.115-127.59 7.306-41.44 43.419-38.443 89.632 5.826 129.14a69.212 69.212 0 0 0 7.263 5.65c16.021 10.86 36.557 15.914 62.09 17.367l1.507.081c7.954.406 29.095.544 29.578.561l2.093.082c12.121.527 16.66 1.746 26.247 6.935l.81.441-2.36 4.307c-9.729-5.332-13.414-6.334-25.929-6.82l-1.541-.044c-3.307-.032-21.733-.18-29.148-.558-27.048-1.38-48.87-6.607-66.102-18.288a74.12 74.12 0 0 1-7.777-6.051zM219.339 86.029l.38.43c2.934 3.395 4.624 6.53 5.561 10.406l.13.562c.06.28.118.564.178.888l.46 2.686 3.438 1.143c.213.075.418.148.641.229 3.187 1.152 5.838 2.62 8.558 4.804l.158.13.014-.017c.3-.473.568-1.004.798-1.584l.166-.445c2.345-6.698-1.193-15.124-7.816-19.077-2.449-1.453-4.97-2.207-7.306-2.118a9.359 9.359 0 0 0-5.248 1.874l-.112.089zm9.34 21.043l.202.211a8.822 8.822 0 0 0 4.058 2.275l.52.113.396.06-.41-.275a23.553 23.553 0 0 0-4.504-2.286l-.262-.098zM216.537 90.33l-.075.35c-.317 1.675-.082 3.432.727 4.846.736 1.282 1.803 2.292 3.391 3.204l.095.053-.06-.296-.108-.47c-.654-2.705-1.836-5.038-3.867-7.564l-.103-.123z"/>
        <path fill="#7A7F80" d="M207.605 206.832l3.376-3.566.796.731 1.01.893c.352.306.717.617 1.092.93 1.149.96 2.29 1.855 3.382 2.638a35.2 35.2 0 0 0 1.556 1.058l.488.305-2.55 4.196a37.544 37.544 0 0 1-2.355-1.568 63.186 63.186 0 0 1-3.67-2.861c-.6-.501-1.174-.996-1.712-1.472l-.97-.872-.443-.412z"/>
        <path fill="#BEBDC0" d="M191.259 199.03l-21.018-18.76 10.014-11.22 21.018 18.76z"/>
        <path fill="#D8D9DA" d="M209.241 211.595l-21.435-19.132 6.552-7.342 21.436 19.132z"/>
        <path fill="#7A7F80" d="M188.427 192.425l5.959-6.678 20.77 18.538-5.957 6.676-20.772-18.536m-1.26.072l.665.593 20.77 18.538.668.594.594-.668 5.958-6.676.595-.664-.667-.596-20.771-18.536-.664-.595-.596.666-5.958 6.676-.594.668z"/>
        <path fill="#7A7F80" d="M201.905 204.458l5.955-6.673 1.998 1.784-5.955 6.672z"/>
        <path fill="#D8D9DA" d="M198.923 207.477l-19.304-17.23 11.613-13.011 19.305 17.23z"/>
        <path fill="#7A7F80" d="M180.24 190.21l11.027-12.34 18.63 16.629-11.017 12.345-18.64-16.633m-1.26.071l.661.581 18.643 16.647.668.594.593-.665 11.02-12.346.592-.665-.666-.596-18.64-16.636-.665-.593-.596.667-11.017 12.345-.594.667z"/>
        <path fill="#FFF" d="M190.84 181.148l.39-.44a1.07 1.07 0 0 1 1.509-.09l15.708 13.914-1.099 1.24-16.508-14.624zM172.769 179.572l1.102-1.236 7.808 6.97-1.102 1.235zM211.604 207.85l3.342-3.74-3.74-3.343a5.024 5.024 0 0 0 .398 7.083z"/>
        <path fill="#BEBDC0" d="M215.294 257.859l5.62-13.947 26.126 10.53-5.62 13.946z"/>
        <path fill="#D8D9DA" d="M196.04 247.608l3.692-9.121 26.633 10.782-3.693 9.121z"/>
        <path fill="#7A7F80" d="M199.977 239.077l25.803 10.45-3.36 8.301-25.802-10.456 3.359-8.295m-.492-1.163l-.34.835-3.357 8.293-.339.836.835.34 25.805 10.447.835.34.34-.834 3.358-8.295.339-.836-.835-.34-25.814-10.45-.834-.34.007.004zM227.866 263.29l5.641-13.936 2.1.85-5.641 13.936z"/>
        <path fill="#D8D9DA" d="M204.29 255.046l6.545-16.166 23.984 9.71-6.545 16.166z"/>
        <path fill="#7A7F80" d="M211.08 239.474l23.158 9.376-6.212 15.339-23.157-9.378 6.21-15.337m-.49-1.162l-.34.834-6.212 15.339-.339.836.836.338 23.155 9.376.835.34.338-.835 6.21-15.337.34-.834-.834-.34-23.156-9.375-.835-.34.001-.002z"/>
        <path fill="#FFF" d="M210.554 242.826l.622-1.535 19.447 7.873c.547.221.811.845.59 1.392l-.22.544-20.439-8.274zM231.18 262.245l.621-1.535 9.701 3.927-.621 1.535zM198.347 243.842l1.886-4.66 4.659 1.885a5.029 5.029 0 0 1-6.545 2.775z"/>
    </g>
</svg>
