<svg xmlns="http://www.w3.org/2000/svg" width="360" height="280" viewBox="0 0 360 280">
    <defs>
        <filter id="a" width="133.3%" height="110.5%" x="-16.7%" y="-5.3%" filterUnits="objectBoundingBox">
            <feOffset dx="2" dy="2" in="SourceAlpha" result="shadowOffsetOuter1"/>
            <feColorMatrix in="shadowOffsetOuter1" result="shadowMatrixOuter1" values="0 0 0 0 0.7 0 0 0 0 0.7 0 0 0 0 0.7 0 0 0 1 0"/>
            <feMerge>
                <feMergeNode in="shadowMatrixOuter1"/>
                <feMergeNode in="SourceGraphic"/>
            </feMerge>
        </filter>
        <filter id="b" width="109.1%" height="105.8%" x="-4.5%" y="-2.9%" filterUnits="objectBoundingBox">
            <feOffset dx="2" dy="2" in="SourceAlpha" result="shadowOffsetOuter1"/>
            <feColorMatrix in="shadowOffsetOuter1" result="shadowMatrixOuter1" values="0 0 0 0 0.7 0 0 0 0 0.7 0 0 0 0 0.7 0 0 0 1 0"/>
            <feMerge>
                <feMergeNode in="shadowMatrixOuter1"/>
                <feMergeNode in="SourceGraphic"/>
            </feMerge>
        </filter>
    </defs>
    <g fill="none" fill-rule="evenodd">
        <g filter="url(#a)" transform="translate(169 153)">
            <path stroke="#D8D9DA" stroke-width="6.063" d="M11.977 45.331l.047 30.454"/>
            <path stroke="#BEBDC0" stroke-width="6.063" d="M11.876 45.331l.148 26.648"/>
            <path fill="#BEBDC0" fill-rule="nonzero" d="M2.4.254h19.157V36.14H2.4z"/>
            <path fill="#D8D9DA" fill-rule="nonzero" d="M5.727 27.307h12.501v36.567H5.727z"/>
            <path fill="#7A7F80" fill-rule="nonzero" d="M17.677 27.856v35.467H6.278V27.856h11.399m1.102-1.103H5.176v37.672h13.603V26.753z"/>
            <path fill="#D8D9DA" fill-rule="nonzero" d="M.887 17.647h22.18v32.929H.887z"/>
            <path fill="#7A7F80" fill-rule="nonzero" d="M22.52 18.21v31.815H1.438V18.21h21.08m1.103-1.103H.336v34.02h23.286v-34.02z"/>
            <path fill="#FFF" fill-rule="nonzero" d="M17.884 48.054h2.11v-24.98a2.111 2.111 0 0 0-2.11-2.108v27.088z"/>
            <path fill="#D8D9DA" fill-rule="nonzero" d="M7.111 15.089H5V4.109A2.111 2.111 0 0 1 7.111 2v13.089z"/>
            <path fill="#FFF" fill-rule="nonzero" d="M10.853 62.973h6.402v-6.405a6.402 6.402 0 0 0-6.402 6.405z"/>
        </g>
        <g stroke="#FEC746" stroke-width="1.669">
            <path d="M181.427 114.62c-.924 10.662-.802 20.122.364 28.38M188.25 122.047l-6.823-7.427-7.427 6.82"/>
        </g>
        <g fill-rule="nonzero" filter="url(#b)" transform="translate(137 -35)">
            <path fill="#FFF" stroke="#7A7F80" stroke-width="1.102" d="M77.683 1.102H10.272a9.172 9.172 0 0 0-9.17 9.17v74.522c0 10.349 2.45 20.394 8.966 28.428l18.627 23.01a1.91 1.91 0 0 0 1.483.705H57.78c.574 0 1.118-.258 1.48-.705l18.63-23.01c6.513-8.042 8.965-18.08 8.965-28.428V10.272a9.172 9.172 0 0 0-9.172-9.17z"/>
            <path fill="#D8D9DA" d="M79.097 86.891V12.645a5.06 5.06 0 0 0-5.07-5.06H14.022a5.06 5.06 0 0 0-5.06 5.06v74.28a35.71 35.71 0 0 0 3.93 16.284l3.519 6.866-5.32 4.41 17.603 21.741a1.91 1.91 0 0 0 1.483.706H57.78c.574 0 1.118-.259 1.48-.706l17.605-21.742-5.272-4.382 3.536-6.87a35.698 35.698 0 0 0 3.968-16.34z"/>
            <rect width="61.084" height="61.084" x="13.436" y="20.918" fill="#7A7F80" rx="3.541"/>
            <rect width="61.084" height="61.084" x="13.436" y="27.202" fill="#FFF" rx="3.541"/>
            <rect width="59.982" height="59.982" x="13.987" y="24.865" fill="#C6E2BA" rx="2.99"/>
            <path fill="#7A7F80" d="M70.978 25.416a2.445 2.445 0 0 1 2.442 2.442v53.995a2.445 2.445 0 0 1-2.442 2.44H16.977a2.442 2.442 0 0 1-2.44-2.44V27.858a2.442 2.442 0 0 1 2.44-2.442h54.001m0-1.103H16.977a3.544 3.544 0 0 0-3.541 3.545v53.995a3.544 3.544 0 0 0 3.541 3.547h54.001a3.544 3.544 0 0 0 3.544-3.547V27.858a3.544 3.544 0 0 0-3.544-3.545z"/>
            <path fill="#7A7F80" d="M77.683 1.102a9.172 9.172 0 0 1 9.172 9.17v74.522c0 10.349-2.452 20.394-8.965 28.428l-18.636 23.01a1.903 1.903 0 0 1-1.48.705H30.178a1.91 1.91 0 0 1-1.483-.705l-18.627-23.01c-6.516-8.042-8.966-18.08-8.966-28.428V10.272a9.172 9.172 0 0 1 9.17-9.17h67.411m0-1.102H10.272C4.602.006.006 4.601 0 10.272v74.522c0 11.776 3.098 21.588 9.21 29.123l18.626 23.01a3.001 3.001 0 0 0 2.34 1.102H57.78c.905.005 1.765-.4 2.337-1.103l18.63-23.01c6.11-7.534 9.21-17.346 9.21-29.122V10.272C87.95 4.6 83.355.006 77.684 0z"/>
            <path fill="#E1EEDC" d="M72.841 81.492V45.791L34.885 83.747h35.702a2.254 2.254 0 0 0 2.254-2.255z"/>
        </g>
        <path fill="#FFF" d="M132-38h100V64H132z"/>
    </g>
</svg>
