<svg xmlns="http://www.w3.org/2000/svg" width="18" height="18" fill="none" viewBox="0 0 18 18">
    <path fill="gray" fill-rule="evenodd" d="M5.014 12.408l.52-.665-.518.666c.101.08.184.18.24.297.058.115.087.242.088.371v.423c0 .373.148.73.412.994.263.264.621.412.994.412h4.5c.373 0 .73-.148.994-.412.264-.263.412-.621.412-.994v-.42c.001-.13.032-.26.09-.376.058-.118.141-.22.245-.3l.005-.004c1.068-.84 1.845-1.994 2.22-3.3.376-1.305.331-2.696-.128-3.975-.46-1.278-1.31-2.38-2.43-3.148C11.536 1.209 10.201.813 8.843.846 5.336.928 2.512 3.84 2.531 7.349c.005.976.23 1.938.66 2.814.431.877 1.054 1.644 1.823 2.245zm3.87-9.875c1.005-.025 1.99.268 2.82.836.827.568 1.456 1.382 1.796 2.327.34.945.373 1.973.095 2.938-.277.965-.851 1.817-1.64 2.438-.305.236-.552.539-.722.885-.172.346-.262.728-.264 1.114v.148H9.844v-2.744l2.003-2.003c.33-.33.33-.864 0-1.194-.33-.33-.864-.33-1.194 0L9 8.932 7.347 7.278c-.112-.111-.247-.185-.39-.221-.278-.07-.586.003-.804.221-.33.33-.33.864 0 1.194l.287.287 1.716 1.716v2.744H7.031v-.145c0-.385-.09-.765-.259-1.111-.17-.346-.416-.649-.72-.885-.086-.068-.17-.139-.252-.212-.453-.407-.824-.898-1.093-1.446-.318-.648-.485-1.36-.488-2.08-.013-2.398 1.78-4.424 4.098-4.76.186-.027.376-.043.568-.047z" clip-rule="evenodd"/>
    <path fill="gray" d="M6.188 15.469c-.466 0-.844.378-.844.844 0 .466.378.843.843.843h5.625c.466 0 .844-.377.844-.843 0-.466-.378-.844-.844-.844H6.189z"/>
</svg>
