<svg xmlns="http://www.w3.org/2000/svg" width="160" height="160" viewBox="0 0 160 160">
    <path fill="#C6E2BA" fill-rule="nonzero" d="M81.034 135.51l.002 14.363h-2.18l-.003-14.363h2.18zm-41.158-17.044l1.542 1.542-10.157 10.16-1.542-1.542 10.157-10.16zm80.132-.011l10.16 10.155-1.542 1.543-10.16-10.156 1.542-1.542zm-40.071-77.82c21.706 0 39.302 17.596 39.302 39.302s-17.596 39.302-39.302 39.302-39.303-17.596-39.303-39.302 17.597-39.303 39.303-39.303zm15.725 27.674a2.506 2.506 0 0 0-3.518 0L74.963 85.32l-7.234-7.16a2.51 2.51 0 0 0-3.517 0 2.445 2.445 0 0 0 0 3.48L74.96 92.278l20.702-20.479a2.445 2.445 0 0 0 0-3.489zM24.364 78.853v2.18L10 81.037v-2.18l14.364-.003zm125.51-.015v2.18l-14.364.003V78.84l14.363-.002zM31.247 29.718l10.16 10.158-1.542 1.542-10.16-10.157 1.542-1.542zm97.362-.012l1.543 1.541-10.156 10.16-1.542-1.541 10.155-10.16zM81.018 10l.003 14.364H78.84L78.838 10h2.18z"/>
</svg>
