<svg height="16" viewBox="0 0 16 16" width="16" xmlns="http://www.w3.org/2000/svg"><path d="m13 2c.5522847 0 1 .44771525 1 1v7c0 .5522847-.4477153 1-1 1h-1.251l.5690983 2.2723931c.078438.313752-.1123217.6316849-.4260737.7101229-.0464488.0116122-.0941463.017484-.1420246.017484-.4407801 0-.8249968-.2999873-.9319017-.7276069l-.5690983-2.2723931h-4.499l-.56809828 2.2723931c-.10690489.4276196-.49112158.7276069-.93190172.7276069-.04787827 0-.09557583-.0058718-.14202457-.017484-.28237682-.0705942-.46512985-.3351792-.44167539-.6161155l.01560168-.0940074.56809828-2.2723931h-1.25c-.55228475 0-1-.4477153-1-1v-7c0-.55228475.44771525-1 1-1zm-.25 1.25h-9.5v6.5h9.5zm-7.125 3.25c.34517797 0 .625.27982203.625.625v.75c0 .34517797-.27982203.625-.625.625s-.625-.27982203-.625-.625v-.75c0-.34517797.27982203-.625.625-.625zm2.37-1c.34517797 0 .625.27982203.625.625v1.75c0 .34517797-.27982203.625-.625.625s-.625-.27982203-.625-.625v-1.75c0-.34517797.27982203-.625.625-.625zm2.38-1c.345178 0 .625.27982203.625.625v2.75c0 .34517797-.279822.625-.625.625s-.625-.27982203-.625-.625v-2.75c0-.34517797.279822-.625.625-.625z" fill-rule="evenodd"/></svg>