<svg height="16" viewBox="0 0 16 16" width="16" xmlns="http://www.w3.org/2000/svg"><path d="m6.63036117 9.49928607c.3239619.21786568.78474244.53679553.99962512.70563193-.02502035-.1657598-.05242739-.43414734-.07675712-.70407865l1.0551385-.00009646c-.02432597.27475678-.05172686.54664631-.07674204.71237191.21240223-.1709579.68019503-.49580502 1.00191401-.71379638l1.13270076.00068978c.0405492.07015573.0653852.14835246.0703033.2295.0409836.22950819-.0655738.4754098-.2868853.5901639-.0163934.0163935-1.04918031.5163935-1.45901637.6803279.40983606.1639344 1.45901637.6721311 1.48360657.6967213.2213115.1147541.3032787.3196721.2704918.5491803-.0163935.3442623-.2704918.5327869-.5491803.5491804-.1147541.0081967-.22950824-.0163935-.33606561-.0819672-.02459017-.0081968-.99180328-.6557378-1.32786886-.9262296.06557377.4344263.14754099 1.6065574.14754099 1.6393443 0 .3032787-.27049181.5737705-.59836066.5737705s-.60655738-.2540984-.59836065-.5983607c0-.0245901.08196721-1.1721311.13934426-1.6147541-.33606558.2786886-1.30327869.9262296-1.32786885.9344263-.10655738.0655737-.22131148.0901639-.33606558.0819672-.28688524-.0163935-.53278688-.2131148-.54918033-.5737705-.0409836-.2213115.06557377-.4262295.27049181-.5327869.02459016-.0163934 1.09016393-.5327869 1.5-.6967213-.40983607-.1639344-1.45081968-.6639344-1.48360656-.6885246-.21311475-.1147541-.31967213-.36065573-.27868853-.59016392.00457651-.0800888.02767831-.15506717.06466877-.22190346zm6.61963883-2.74928607c.4142136 0 .75.33578644.75.75s-.3357864.75-.75.75h-10.5c-.41421356 0-.75-.33578644-.75-.75s.33578644-.75.75-.75zm-3.47015396-4.75.1.1v1l-.1.1-2.271-.001-.092.828.07279355-.03135452c.15166584-.05777794.3367019-.09712428.55768694-.1105517l.17251951-.00509378c1.01138536 0 1.79222956.67051122 1.95055916 1.61956037l-1.28280842.0000369c-.12530228-.28266501-.40650647-.45959727-.78775074-.45959727-.3625492 0-.64866631.15327702-.84.36h-1.064l-.09950372-.10995037.32-3.2.09950372-.09004963z" fill-rule="evenodd"/></svg>