<svg height="16" viewBox="0 0 16 16" width="16" xmlns="http://www.w3.org/2000/svg"><path d="m5 10c.55228475 0 1 .4477153 1 1v2c0 .5522847-.44771525 1-1 1h-2c-.55228475 0-1-.4477153-1-1v-2c0-.5522847.44771525-1 1-1zm2.5 3c.27614237 0 .5.2238576.5.5s-.22385763.5-.5.5-.5-.2238576-.5-.5.22385763-.5.5-.5zm2-3c.27614237 0 .5.2238576.5.5v3c0 .2761424-.22385763.5-.5.5s-.5-.2238576-.5-.5v-.5h-.5c-.27614237 0-.5-.2238576-.5-.5s.22385763-.5.5-.5h.5v-1h-1.5c-.27614237 0-.5-.2238576-.5-.5s.22385763-.5.5-.5zm4 2c.2761424 0 .5.2238576.5.5v1c0 .2454599-.1768752.4496084-.4101244.4919443l-.0898756.0080557h-2c-.2761424 0-.5-.2238576-.5-.5s.2238576-.5.5-.5h1.5v-.5c0-.2761424.2238576-.5.5-.5zm-8.83333333-.6666667h-1.33333334v1.3333334h1.33333334zm6.83333333-1.3333333c.2761424 0 .5.2238576.5.5v1c0 .2761424-.2238576.5-.5.5s-.5-.2238576-.5-.5v-1c0-.2761424.2238576-.5.5-.5zm1-3c.2761424 0 .5.22385763.5.5v.5h.5c.2761424 0 .5.22385763.5.5v2c0 .2761424-.2238576.5-.5.5s-.5-.2238576-.5-.5v-1.5h-3.5c-.27614237 0-.5-.22385763-.5-.5s.22385763-.5.5-.5h.5v-.5c0-.27614237.2238576-.5.5-.5s.5.22385763.5.5v.5h1v-.5c0-.27614237.2238576-.5.5-.5zm-9.5 1.5c0 .27614237-.22385763.5-.5.5s-.5-.22385763-.5-.5v-1c0-.27614237.22385763-.5.5-.5h3c.27614237 0 .5.22385763.5.5v.5h1v-1.5c0-.27614237.22385763-.5.5-.5h1c.27614237 0 .5.22385763.5.5s-.22385763.5-.5.5h-.5v1.5c0 .24545989-.17687516.44960837-.41012437.49194433l-.08987563.00805567h-2c-.27614237 0-.5-.22385763-.5-.5v-.5h-2zm2-6.5c.55228475 0 1 .44771525 1 1v2c0 .55228475-.44771525 1-1 1h-2c-.55228475 0-1-.44771525-1-1v-2c0-.55228475.44771525-1 1-1zm8 0c.5522847 0 1 .44771525 1 1v2c0 .55228475-.4477153 1-1 1h-2c-.5522847 0-1-.44771525-1-1v-2c0-.55228475.4477153-1 1-1zm-4.5 0c.27614237 0 .5.22385763.5.5v2c0 .24545989-.17687516.44960837-.41012437.49194433l-.08987563.00805567h-1c-.27614237 0-.5-.22385763-.5-.5s.22385763-.5.5-.5h.5v-1.001l-.5.001c-.27614237 0-.5-.22385763-.5-.5s.22385763-.5.5-.5zm-3.83333333 1.33333333h-1.33333334v1.33333334h1.33333334zm8.00000003 0h-1.3333334v1.33333334h1.3333334z" fill-rule="evenodd"/></svg>