<svg height="16" viewBox="0 0 16 16" width="16" xmlns="http://www.w3.org/2000/svg"><path d="m8 2c3.3137085 0 6 2.6862915 6 6s-2.6862915 6-6 6-6-2.6862915-6-6 2.6862915-6 6-6zm-.21624588 7.84929078c-.43907794 0-.80040249.27482272-.80040249.70035462s.36132455.7003546.80040249.7003546c.43907793 0 .79582876-.2748227.79582876-.7003546s-.35675083-.70035462-.79582876-.70035462zm.13940724-4.84929078c-.68496158 0-1.20307354.18173759-1.52799122.46542553-.24149286.21276596-.39517014.49202128-.39517014.76684397 0 .27039007.1712404.50531915.50493963.50531915.20197585 0 .32052689-.08421986.46981339-.2393617.20636663-.27039007.46981339-.39893617.81229418-.39893617.41712404 0 .79034029.23492908.79034029.63829787 0 .3679078-.27222832.56737589-.65861691.8643617-.54445664.41666667-.77716795.72251774-.77716795 1.19680852 0 .31914893.1931943.56294326.57958288.56294326.36443469 0 .47859495-.20390071.62788145-.46985816.13611416-.31471631.30735455-.46985815.66739846-.7358156.53128431-.37234043.98353458-.74024823.98353458-1.50265958 0-1.04609929-.85620198-1.65336879-2.07683864-1.65336879z" fill-rule="evenodd"/></svg>