<svg height="16" viewBox="0 0 16 16" width="16" xmlns="http://www.w3.org/2000/svg"><path d="m12.4854789 2.18480191c.4151014-.00261064.7494913.33177922.7468806.74688065l-.0378159 4.01286109-4.01286104.03781589c-.41510143.00261064-.74949129-.33177922-.74688065-.74688065.00261064-.41510144.34123319-.75372398.75633462-.75633463l1.65160737-.02060968c-.4305976-.7378523-.7250261-1.06099545-1.17823991-1.28760235-.8418012-.4209006-1.84422812-.52261022-2.76457075-.27600515-.73186479.19610258-1.38292098.575405-1.90565528 1.09923595-1.06493314 1.06716727-1.49682368 2.62327875-1.09954854 4.10592975.29678026 1.10759902 1.01410337 2.02588052 1.98885891 2.58562152.96876721.5563023 2.1154485.7145564 3.21630679.4195823.92748508-.2485189 1.72376388-.791542 2.28992248-1.5414017.2495888-.3305727.7199026-.3962231 1.0504753-.1466343s.3962231.7199026.1466344 1.0504753c-.7657966 1.014274-1.8456182 1.7506594-3.09880361 2.0864494-1.48788444.3986775-3.04219592.1841661-4.35149635-.567683-1.3173635-.7564793-2.28966378-2.00117-2.69078666-3.49818095-.53725246-2.00505348.04734275-4.1113634 1.48666627-5.55370649.70787331-.70935837 1.59076392-1.22372648 2.57919772-1.48857652 1.2746989-.34155454 2.65387644-.20161853 3.82361973.38325311.5825424.29127121.9788265.6394086 1.3820951 1.20914552l.0117248-1.09730044c.0026106-.41510143.3412332-.75372398.7563346-.75633462z" fill-rule="evenodd"/></svg>