<svg height="16" viewBox="0 0 16 16" width="16" xmlns="http://www.w3.org/2000/svg"><path d="m11.25 12.5c.4142136 0 .75.3357864.75.75s-.3357864.75-.75.75h-6.5c-.41421356 0-.75-.3357864-.75-.75s.33578644-.75.75-.75zm-3.25-10.5 4.2784747 4.22499498c.2953671.29167503.2953671.76457371 0 1.05624874-.295367.29167504-.7742516.29167504-1.0696187 0l-2.459856-2.43024372.001 5.399c0 .4142136-.33578644.75-.75.75s-.75-.3357864-.75-.75l-.001-5.397-2.45785604 2.42824372c-.26851549.26515913-.68869838.2892645-.98478977.07231613l-.08482891-.07231613c-.29536704-.29167503-.29536704-.76457371 0-1.05624874z" fill-rule="evenodd"/></svg>