<svg height="16" viewBox="0 0 16 16" width="16" xmlns="http://www.w3.org/2000/svg"><path d="m5.70488447 13.096057c.09474885.0429618.18940457.0827204.29070532.1226296l.10635429.6384749c.11018639.6595833.6800818 1.1428385 1.34773182 1.1428385h1.07754606l.14108633-.0072491c.60380494-.0623448 1.10182213-.5205647 1.20589244-1.1311269l.10601416-.6177528.14380731-.0585834.1600955-.0695296.5029609.3618938c.550132.3939813 1.3052271.3256242 1.7759235-.1607703l.7402273-.7649144.0988387-.114c.3665008-.4728713.3860017-1.1381656.031569-1.6347118l-.3619216-.5070772c.0471206-.1037568.0867964-.1985167.1257152-.29893022l.6385145-.10762506c.647441-.1085158 1.1263628-.66283944 1.1406299-1.32021153l.0234249-1.07932711-.0036291-.13462927c-.0472048-.62147046-.5120473-1.1403314-1.1370008-1.24507813l-.6367963-.10543509-.0574932-.14391961-.0693152-.15939055.3612966-.50488722c.3886433-.54447384.3271636-1.29061894-.1453392-1.76390272l-.7636522-.76491443-.1150843-.10303786c-.4782877-.38201231-1.1612718-.40155525-1.6633728-.02982371l-.4975207.36888566-.28969156-.12154306-.10744746-.6395699c-.11018639-.65958329-.6800818-1.14283849-1.34773182-1.14283849h-1.07754606l-.14108633.00724906c-.60380494.06234488-1.10182213.52056478-1.20589244 1.13112696l-.10492099.61884777-.14490044.05748839-.15900238.07062457-.50405408-.36298879c-.54357538-.38928565-1.28848922-.32770439-1.76099201.1455794l-.76365221.76491443-.10286782.11527452c-.38138193.47907833-.40089263 1.16319127-.0297745 1.66612218l.36937011.50053303-.12134249.28907538-.63960769.10653008c-.65849488.11036852-1.14095263.6812059-1.14095263 1.34995947v1.0793271l.0072371.14131953c.062242.60480296.51970577 1.10364332 1.12926043 1.20788564l.61782658.10618939.05749315.14391959.07040839.1604855-.3623898.5037923c-.38864326.5444738-.32716362 1.2906189.14533917 1.7639027l.76365221.7649144c.47828527.4790759 1.23451437.5355708 1.77845712.1328616zm2.82233749-10.72732888.19676928 1.17787437c.03062888.1814947.16436231.32829412.34200375.37541813.36458014.09615098.71445741.24138482 1.04006621.43173084.1541591.0990697.351819.0990697.5059781 0l.9697915-.71798716.7636522.76491443-.6933775.97139439c-.0824218.12867825-.0961588.28761537-.0412109.42637991l.0412109.08043456c.189877.32622396.3348622.67665791.4310184 1.0417853.0470463.17793506.1936035.31188953.3747987.34256904l1.1759307.19709452-.023425 1.0793271-1.1759306.19709452c-.1811952.03067951-.3277524.16463398-.3747987.34256904-.0961562.36512739-.2411414.71556134-.4310184 1.04178529-.0989062.1544139-.0989062.3524006 0 .5068145l.6933775.9713944-.7402273.7649144-.9697915-.6945235c-.1284659-.0825581-.2871407-.0963178-.4256763-.0412791l-.0803018.0412791c-.3256088.190346-.67548607.3355798-1.04006621.4317308-.17764144.047124-.31137487.1939234-.34200375.3754181l-.19676928 1.1544108h-1.07754606l-.19676928-1.1778744c-.03062888-.1814947-.16436231-.3282941-.34200374-.3754181-.36458015-.096151-.71445742-.2413848-1.0400662-.4317309-.15415909-.0990697-.35181905-.0990697-.50597814 0l-.96979145.7179872-.76365221-.7649144.69337746-.9713944c.08242186-.1286783.09615883-.2876154.04121093-.4263799l-.04121093-.0804346c-.18987697-.32622395-.33486221-.6766579-.43101842-1.04178529-.04704624-.17793506-.19360342-.31188953-.37479863-.34256904l-1.15250578-.19709452v-1.0793271l1.1759307-.19709452c.1811952-.03067951.32775238-.16463398.37479863-.34256904.0961562-.36512739.24114144-.71556134.43101842-1.0417853.09890622-.15441389.09890622-.35240057 0-.50681447l-.71680238-.97139439.76365221-.76491443.96979145.69452353c.1284659.08255808.28714076.09631777.42567631.04127904l.08030183-.04127904c.32560878-.19034602.67548605-.33557986 1.0400662-.43173085.17764143-.047124.31137486-.19392343.34200374-.37541812l.19676928-1.15441074zm-.52722196 2.63127188c-1.65685425 0-3 1.34314575-3 3s1.34314575 3 3 3 3-1.34314575 3-3-1.34314575-3-3-3zm0 1.25c.96649831 0 1.75.78350169 1.75 1.75s-.78350169 1.75-1.75 1.75-1.75-.78350169-1.75-1.75.78350169-1.75 1.75-1.75z" fill-rule="evenodd"/></svg>