<svg height="16" viewBox="0 0 16 16" width="16" xmlns="http://www.w3.org/2000/svg"><path d="m14 3c.5522847 0 1 .44771525 1 1v8c0 .5522847-.4477153 1-1 1h-9c-.55228475 0-1-.4477153-1-1v-8c0-.55228475.44771525-1 1-1zm-.25 1.25h-8.5v.75h1.25l-.0009593.01269778c.04068599-.00832556.08281205-.01269778.1259593-.01269778.34517797 0 .625.27982203.625.625s-.27982203.625-.625.625c-.04314725 0-.08527331-.00437222-.1259593-.01269778l.0009593.01269778h-1.25v3.5h1.25l-.0009593.01269778c.04068599-.00832556.08281205-.01269778.1259593-.01269778.34517797 0 .625.279822.625.625s-.27982203.625-.625.625c-.04314725 0-.08527331-.0043722-.1259593-.0126978l.0009593.0126978h-1.25v.75h8.5zm-9.751.75.001 1.25c-.96649831 0-1.75.78350169-1.75 1.75s.78350169 1.75 1.75 1.75v1.25l-.17627279-.0050927c-1.57480725-.0912464-2.82372721-1.39722642-2.82372721-2.9949073s1.24891996-2.90366088 2.82372721-2.99490731z" fill-rule="evenodd" transform="matrix(0 1 -1 0 16 0)"/></svg>