<svg height="16" viewBox="0 0 16 16" width="16" xmlns="http://www.w3.org/2000/svg"><path d="m8 3.375c2.2460999 0 3.9346734.77714343 5.363153 2.15392547.2111453.20350381.4102003.41319489.6174554.64740933l.3368756.39339135c.1647379.19732996.4158214.49967331.4881044.58297169.4258821.49039176.4258821 1.20421256.0000324 1.69456706l-.6142726.7333323c-.2866349.33680092-.5466681.6191389-.8281952.8904773-1.4284796 1.3767821-3.1170531 2.1539255-5.363153 2.1539255-2.24609994 0-3.93467343-.7771434-5.36315304-2.1539255-.21114529-.2035038-.41020028-.4131949-.61745532-.6474093l-.33687588-.39339163c-.16473859-.1973308-.41582503-.4996775-.48811971-.5829893-.42586399-.4905587-.42586399-1.20419765-.00001682-1.69454917l.61427252-.7333323c.28663497-.33680092.54666815-.61913892.82819521-.89047733 1.42847961-1.37678204 3.1170531-2.15392547 5.36315304-2.15392547zm.00067384 1.26886611c-1.89843464.01023415-3.32084719.68358506-4.54366768 1.88104443-.18207324.17829707-.35421843.36210307-.53572802.56948008l-.73903181.87988146c-.0134218.01546479-.0134218.0360329-.00000134.05145431l.55368755.66398c.25319485.30013056.4783093.54765364.72107362.78538307 1.22282049 1.19745934 2.64523304 1.87081024 4.54366768 1.88104444 1.89863293.0102352 3.32005736-.6630014 4.54605686-1.87521574.1809796-.17894469.3519131-.36312766.5331705-.57194365l.3282813-.39076998c.1411385-.17122082.3419774-.41459653.4096816-.49260372.013293-.01527467.013293-.03592695-.0001091-.0513272l-.5524008-.66550279c-.253871-.30319064-.4773173-.55109606-.7186235-.78968898-1.2259995-1.21221432-2.64742393-1.88545095-4.54605686-1.87521573zm.29677143 1.37949743c.10939068.01541431.18554969.11660673.17010954.22599377-.00113329.00802891-.00275374.01598149-.00485238.0238137l-.46270243 1.72682899c1.15461609-.66556374 1.73192413-.99834561 1.73192413-.99834561.25554943.44331898.34251367.98384509.19992752 1.5159837-.28542661 1.06522661-1.38426313 1.69964021-2.44948974 1.41421356-1.06522661-.28542661-1.69964017-1.38426313-1.41421356-2.44948974.19014973-.70964847.73487996-1.25320514 1.40302479-1.41075131.29159926-.06875807.5670233-.08484042.82627213-.04824706z" fill-rule="evenodd"/></svg>