<svg height="16" viewBox="0 0 16 16" width="16" xmlns="http://www.w3.org/2000/svg"><path d="m8.97297297 13.2735849.1191415-.0057437c.34627505-.034688.5941591-.2285227.79640954-.6364156l.26475409-.5432524c.7108216-1.4859909 1.0873633-2.51685364 1.1270074-3.02315351l.0034983-.08388761v-5.88679246l-.0030347-.36472304-.0645014-.00161533-3.2162477-.00158616-3.2162477.00158616-.06450138.00161533-.0030347.36472304v5.88679246c0 .5227604.4665075 1.77721242 1.39525977 3.65029352.20225044.4078929.45013449.6017276.79640954.6364156l.1191415.0057437zm1.94594593-11.7735849.2946066.00566582c.9134575.03888175 1.2092014.29067213 1.2724084 1.14377809l.0084474.14781866.0056187.29707705v5.88679246l-.003799.12215012c-.0403675.67204198-.4024808 1.713747-1.088497 3.1823274l-.1415226.2994247-.2898405.5948608c-.3956643.7979643-1.02477451 1.2563533-1.8284917 1.3139253l-.17487623.0061796h-1.94594594c-.88752948 0-1.57944194-.4651431-2.00336789-1.3201049l-.28984052-.5948608c-.77782706-1.6274681-1.18696097-2.76490732-1.2300196-3.4817521l-.00379902-.12215012v-5.88679246l.0056187-.29707705c.04070054-.97229079.31665062-1.25055491 1.28085582-1.29159675l.29460656-.00566582zm-3.6689189 6.5h-1.25c-.27614237 0-.5.22385763-.5.5v.5c0 .27614237.22385763.5.5.5h1.25c.27614237 0 .5-.22385763.5-.5v-.5c0-.27614237-.22385763-.5-.5-.5zm2.75 0h-1.25c-.27614237 0-.5.22385763-.5.5v.5c0 .27614237.22385763.5.5.5h1.25c.2761424 0 .5-.22385763.5-.5v-.5c0-.27614237-.2238576-.5-.5-.5zm.5-4h-5v3h5z" fill-rule="evenodd"/></svg>