<svg height="16" viewBox="0 0 16 16" width="16" xmlns="http://www.w3.org/2000/svg"><path d="m11.9997456 1c.5522847 0 1 .44771525 1 1v5.71583637c0 1.26275588-.1563585 2.19202652-.227864 2.46147953-.0667254.2514895-.3722592.999498-.9940672 1.814314l-.1381137.1754694c-.3281564.4042499-.7039986.9555083-1.0227116 1.4467325l-.71728076 1.147805c-.08344197.1347142-.24836474.2383632-.51054242.2383632h-2.77884067c-.26219178 0-.42711455-.103649-.51054241-.2383632l-.40896946-.6643116-.33862792-.5301346c-.24518329-.3765158-.52153225-.7840129-.7828649-1.1312672l-.20953005-.2688241c-.71506978-.8808938-1.06068943-1.7203304-1.132195-1.9897834l-.03032034-.1313365-.03854443-.20765066c-.06725886-.40014082-.1446175-1.06381015-.15721187-1.88971334l-.00151861-5.9486154c-.00036729-.51283579.3855481-.93560561.88287082-.99349764l.11687451-.00650236zm-.2 1.2h-7.59969829l.00133206 5.73031847c.0116688.76520677.08584441 1.46148394.16514196 1.84572874l.02092881.09347456c.06853377.25825443.36723399.84069213.79809362 1.40629263l.34259344.4385338c.36169644.4806161.76201516 1.0802951 1.18455466 1.753879l.20424649.3317728h2.16872535l.52464776-.8393145.33711006-.5090529c.21852938-.3225658.42391058-.60998.61178338-.8529673l.2646538-.3350247c.4193048-.5494562.72285-1.1479327.7881682-1.39411883l.0408645-.18971438c.0750741-.41339561.1468542-1.16913511.1468542-1.96397102zm-1.2997456 1.3v5h-5v-5z" fill-rule="evenodd"/></svg>