<svg height="16" viewBox="0 0 16 16" width="16" xmlns="http://www.w3.org/2000/svg"><path d="m6.75 13h2.5c.41421356 0 .75.3357864.75.75s-.33578644.75-.75.75h-2.5c-.41421356 0-.75-.3357864-.75-.75s.33578644-.75.75-.75zm1.25-11c2.4852814 0 4.5 2.01471863 4.5 4.5 0 1.55998526-.7937875 2.93457151-1.9994834 3.7418796l-.0005166.7581204c0 .5522847-.4477153 1-1 1h-3c-.55228475 0-1-.4477153-1-1l.00049981-.75744c-1.20626617-.80721605-2.00049981-2.18213642-2.00049981-3.74256 0-2.48528137 2.01471863-4.5 4.5-4.5zm0 1.5c-1.65685425 0-3 1.34314575-3 3 0 1.21071821.71720066 2.25392524 1.7499257 2.72794479l.0000743 1.27205521h2.5l.0010704-1.27251264c1.0321901-.47423301 1.7489296-1.51715845 1.7489296-2.72748736 0-1.65685425-1.34314575-3-3-3z" fill-rule="evenodd"/></svg>