<svg height="16" viewBox="0 0 16 16" width="16" xmlns="http://www.w3.org/2000/svg"><path d="m3.75 10.5c.41421356 0 .75.3357864.75.75s-.33578644.75-.75.75h-1c-.41421356 0-.75-.3357864-.75-.75s.33578644-.75.75-.75zm9.5 0c.4142136 0 .75.3357864.75.75s-.3357864.75-.75.75h-6.5c-.41421356 0-.75-.3357864-.75-.75s.33578644-.75.75-.75zm-9.5-3.25c.41421356 0 .75.33578644.75.75s-.33578644.75-.75.75h-1c-.41421356 0-.75-.33578644-.75-.75s.33578644-.75.75-.75zm9.5 0c.4142136 0 .75.33578644.75.75s-.3357864.75-.75.75h-6.5c-.41421356 0-.75-.33578644-.75-.75s.33578644-.75.75-.75zm-9.5-3.25c.41421356 0 .75.33578644.75.75s-.33578644.75-.75.75h-1c-.41421356 0-.75-.33578644-.75-.75s.33578644-.75.75-.75zm9.5 0c.4142136 0 .75.33578644.75.75s-.3357864.75-.75.75h-6.5c-.41421356 0-.75-.33578644-.75-.75s.33578644-.75.75-.75z" fill-rule="evenodd"/></svg>