<svg height="16" viewBox="0 0 16 16" width="16" xmlns="http://www.w3.org/2000/svg"><path d="m14 10.9998596v-5.59989703c0-.55228475-.4477153-1-1-1h-.1999813v-1.39996257c0-.55228475-.4477152-1-1-1h-7.99985963c-.99409704 0-1.80006729.80587488-1.80006729 1.79997193v8.39986897c-.00486085.475334.18354714.9322775.52208722 1.2659803.33537327.3447906.7969996.5376767 1.27798007.5340435h9.19984093c.5522847 0 1-.4477152 1-1zm-1.1999813-1.19998124h-2.9999532c-.33136568 0-.59999064-.26862496-.59999064-.59999065 0-.33136568.26862496-.59999064.59999064-.59999064h2.9999532zm-8.99985963-6.59989707h7.79987833v1.19998128h-7.79987833c-.16122125-.00224143-.31475552-.06927752-.42599335-.1859971-.10940276-.11027151-.17177526-.25867506-.17399729-.41399354 0-.33136568.26862496-.59999064.59999064-.59999064zm0 9.59985031c-.16122125-.0022415-.31475552-.0692775-.42599335-.1859971-.10940276-.1102715-.17177526-.2586751-.17399729-.4139936v-6.70189545l.16199747.04199934h.10199841c.10984499.03059704.22234889.05068702.33599476.05999907h8.99985963v1.79997193h-2.9999532c-.99409703.00000002-1.79997189.80587489-1.79997189 1.79997192 0 .99409699.80587486 1.79997189 1.79997189 1.79997189h2.9999532v1.799972z" fill-rule="evenodd"/></svg>