<svg height="16" viewBox="0 0 16 16" width="16" xmlns="http://www.w3.org/2000/svg"><path d="m7.9998453 1.85714286c-.28430725 0-.55053653.14795345-.69756224.39425406l-5.83047702 10.67553258c-.15293727.2543912-.15275622.5708007.00011958.8244469.14738829.2445416.41262305.3914807.69591076.3914807h11.66432722c.2832877 0 .5485225-.1469391.6959108-.3914807.1528758-.2536462.1530568-.5700557.0004631-.8238761l-5.83251494-10.67841253c-.14564073-.24399146-.41187001-.39194491-.69617726-.39194491zm-.0008453 1.72685714 4.985 9.273h-9.97zm.001 6.666c-.55228475 0-1 .4477153-1 1s.44771525 1 1 1 1-.4477153 1-1-.44771525-1-1-1zm0-4.25c-.41421356 0-.75.33578644-.75.75v2.25c0 .41421356.33578644.75.75.75s.75-.33578644.75-.75v-2.25c0-.41421356-.33578644-.75-.75-.75z" fill-rule="evenodd"/></svg>