<?xml version="1.0" encoding="UTF-8"?>
<svg viewBox="0 0 256 256" version="1.1" xmlns="http://www.w3.org/2000/svg" xmlns:xlink="http://www.w3.org/1999/xlink">
    <path d="M127.753055,255.425641 C198.379421,255.425641 255.588424,198.4 255.588424,128 C255.588424,57.6 198.379421,0.574358974 127.753055,0.574358974 C57.1266881,0.574358974 0,57.6 0,128 C0,198.4 57.2090032,255.425641 127.753055,255.425641" id="Path" fill="#008CE3"></path>
    <path d="M147.261736,72.2051282 L97.0495177,72.2051282 L92.9337621,95.3435897 L138.207074,95.425641 C160.514469,95.425641 167.099678,103.466667 166.935048,116.841026 C166.852733,123.733333 163.889389,135.302564 162.572347,139.076923 C159.115113,149.087179 152.118328,160.574359 125.612862,160.492308 L81.5742765,160.492308 L77.3762058,183.712821 L127.423794,183.712821 C145.039228,183.712821 152.612219,181.661538 160.514469,177.969231 C178.129904,169.846154 188.666238,152.533333 192.864309,129.887179 C199.202572,96.1641026 191.382637,72.2051282 147.261736,72.2051282" id="Path" fill="#FFFFFF"></path>
    <path d="M75.4829582,116.348718 C62.3125402,116.348718 60.4192926,124.882051 59.1845659,130.051282 C57.5382637,136.779487 57.044373,139.569231 57.044373,139.569231 L108.409003,139.569231 C121.579421,139.569231 123.472669,131.035897 124.707395,125.866667 C126.353698,119.138462 126.847588,116.348718 126.847588,116.348718 L75.4829582,116.348718 Z" id="Path" fill="#FFFFFF"></path>
</svg>