<?xml version="1.0" encoding="UTF-8"?>
<svg viewBox="0 0 256 256" version="1.1" xmlns="http://www.w3.org/2000/svg" xmlns:xlink="http://www.w3.org/1999/xlink">
    <polygon fill="#6A91C0" points="97.2249825 97.7032982 152.469333 173.623018 157.361404 158.154105 101.329965 80.9712281"></polygon>
    <path fill="#6A91C0" d="M127.532912,0 C57.0969825,0 0,57.0992281 0,127.534035 C0,197.968842 57.0969825,255.065825 127.532912,255.065825 C197.965474,255.065825 255.064702,197.967719 255.064702,127.534035 C255.064702,57.1003509 197.965474,0 127.532912,0 Z M177.329404,177.886316 C175.554246,184.63214 170.939509,190.549333 165.552281,192.977965 C161.054316,195.002386 147.618807,194.613895 147.618807,194.613895 L91.7423158,117.748772 C91.7423158,117.748772 77.3872281,171.365053 75.5244912,177.886316 C72.8016842,187.412211 68.3037193,190.133895 63.8057544,192.619789 C59.3066667,195.10793 44.9841404,194.613895 44.9841404,194.613895 C44.9841404,194.613895 74.4982456,86.8109474 77.0223158,77.1828772 C79.5486316,67.5559298 85.5859649,63.173614 90.0839298,61.5185965 C94.5830175,59.8602105 107.012491,60.5709474 107.012491,60.5709474 L162.768842,136.926316 L179.16407,76.6113684 C179.16407,76.6113684 181.354667,68.9156491 187.745684,64.0628772 C194.138947,59.2089825 209.055439,60.4204912 209.055439,60.4204912 C209.055439,60.4204912 179.105684,171.137123 177.329404,177.886316 Z"></path>
</svg>