<?xml version="1.0" encoding="UTF-8"?>
<svg viewBox="0 0 256 256" version="1.1" xmlns="http://www.w3.org/2000/svg" xmlns:xlink="http://www.w3.org/1999/xlink">
    <path fill="#2C7DF7" d="M122.285714,255.954286 C103.908571,255.954286 90.5142857,251.657143 82.1028571,242.788571 C73.6914286,233.92 69.6228571,224.64 69.6228571,214.4 C69.6228571,210.788571 70.3085714,207.588571 71.9085714,205.074286 C73.28,202.56 75.2914286,200.548571 77.8057143,199.177143 C80.32,197.805714 83.4742857,196.891429 87.1314286,196.891429 C90.7885714,196.891429 93.9428571,197.577143 96.4571429,199.177143 C98.9714286,200.548571 100.982857,202.56 102.354286,205.074286 C103.725714,207.588571 104.64,210.742857 104.64,214.4 C104.64,218.925714 103.497143,222.582857 101.44,225.28 C99.3828571,228.022857 96.6857143,230.034286 93.7142857,230.948571 C96.2285714,234.331429 100.297143,236.845714 105.737143,238.445714 C111.177143,240.045714 116.617143,240.731429 122.102857,240.731429 C129.828571,240.731429 136.64,238.674286 142.765714,234.605714 C148.891429,230.537143 153.417143,224.411429 156.388571,216.457143 C159.36,208.502857 160.685714,199.451429 160.685714,189.211429 C160.685714,178.102857 159.085714,168.777143 155.931429,161.051429 C152.731429,153.097143 148.205714,147.2 142.08,143.588571 C135.954286,139.748571 129.371429,137.92 122.102857,137.92 C117.348571,137.92 111.68,139.977143 104.64,143.817143 L91.84,149.942857 L91.84,143.588571 L149.714286,66.4228571 L69.6228571,66.4228571 L69.6228571,146.56 C69.6228571,153.142857 70.9942857,158.582857 73.92,162.925714 C76.8914286,167.222857 81.4171429,169.28 87.3142857,169.28 C92.0685714,169.28 96.4114286,167.68 100.708571,164.525714 C105.005714,161.325714 108.662857,157.485714 111.817143,153.188571 C112.274286,152.274286 112.731429,151.588571 113.188571,151.36 C113.874286,150.902857 114.331429,150.674286 115.017143,150.674286 C116.16,150.674286 117.302857,151.131429 118.857143,152.274286 C120.228571,153.874286 120.914286,155.657143 120.914286,157.714286 C120.914286,158.628571 120.457143,160 120.228571,161.782857 C117.028571,169.28 112.502857,174.948571 106.605714,178.788571 C100.708571,182.628571 94.3542857,184.685714 87.3142857,184.685714 C69.8514286,184.685714 58.0114286,181.302857 51.2,174.491429 C44.6171429,167.68 41.2342857,158.354286 41.2342857,146.788571 L41.2342857,66.4228571 L0.365714286,66.4228571 L0.365714286,51.4285714 L41.4628571,51.4285714 L41.4628571,17.3714286 L32.1371429,8.04571429 L32.1371429,0.32 L59.3828571,0.32 L69.5771429,5.53142857 L69.5771429,51.2 L175.588571,50.9714286 L186.011429,61.3942857 L121.142857,126.582857 C124.982857,124.982857 129.097143,124.068571 133.394286,123.611429 C140.434286,123.611429 148.388571,125.897143 156.982857,130.422857 C165.851429,134.72 172.662857,140.845714 177.417143,148.571429 C182.171429,156.297143 185.371429,163.565714 186.742857,170.605714 C188.114286,177.645714 189.028571,183.771429 189.028571,189.44 C189.028571,201.92 186.285714,213.485714 181.074286,224.182857 C175.862857,234.834286 167.908571,243.017143 157.028571,248.228571 C146.331429,253.44 134.765714,255.954286 122.285714,255.954286 Z"></path>
</svg>