<svg xmlns="http://www.w3.org/2000/svg" xmlns:xlink="http://www.w3.org/1999/xlink" width="360" height="280" viewBox="0 0 360 280">
    <defs>
        <filter id="a" width="109.1%" height="104.5%" x="-4.5%" y="-2.5%" filterUnits="objectBoundingBox">
            <feOffset dx="1" dy="2" in="SourceAlpha" result="shadowOffsetOuter1"/>
            <feColorMatrix in="shadowOffsetOuter1" result="shadowMatrixOuter1" values="0 0 0 0 0.7 0 0 0 0 0.7 0 0 0 0 0.7 0 0 0 1 0"/>
            <feMerge>
                <feMergeNode in="shadowMatrixOuter1"/>
                <feMergeNode in="SourceGraphic"/>
            </feMerge>
        </filter>
        <path id="b" d="M.828 10.829H90.75v62.837H.828z"/>
    </defs>
    <g fill="none" fill-rule="evenodd">
        <g filter="url(#a)" transform="translate(136 50)">
            <path stroke="#D8D9DA" stroke-width="6.12" d="M43.96 199.897v-37.385"/>
            <path stroke="#BEBDC0" stroke-width="6.12" d="M43.946 168.089l.016 26.896"/>
            <path fill="#BEBDC0" fill-rule="nonzero" d="M34.293 122.595h19.335v36.22H34.293z"/>
            <path fill="#D8D9DA" fill-rule="nonzero" d="M37.651 149.897h12.618v36.907H37.651z"/>
            <path fill="#7A7F80" fill-rule="nonzero" d="M49.715 150.453v35.795H38.22v-35.795H49.73m1.112-1.112H37.108v38.02h13.733v-38.02z"/>
            <path fill="#D8D9DA" fill-rule="nonzero" d="M32.766 140.147h22.387v33.235H32.766z"/>
            <path fill="#7A7F80" fill-rule="nonzero" d="M54.6 140.704v32.122H33.322v-32.122h21.276m1.113-1.113H32.21v34.348h23.502V139.59z"/>
            <path fill="#FFF" fill-rule="nonzero" d="M49.904 170.837h2.13v-25.213a2.128 2.128 0 0 0-2.127-2.13l-.003 27.343zM42.825 185.894h6.462v-6.464a6.465 6.465 0 0 0-6.462 6.464z"/>
            <path fill="#FFF" fill-rule="nonzero" stroke="#7A7F80" stroke-width="1.113" d="M77.98 0H9.94A9.257 9.257 0 0 0 .686 9.255V84.47c0 10.445 2.475 20.584 9.048 28.693l18.801 23.224c.367.45.916.712 1.497.712H57.89c.58 0 1.13-.262 1.497-.712l18.8-23.224c6.574-8.117 9.05-18.248 9.05-28.693V9.255A9.257 9.257 0 0 0 77.978 0z"/>
            <path fill="#D8D9DA" fill-rule="nonzero" d="M79.39 86.587V11.65a5.11 5.11 0 0 0-5.11-5.108H13.743a5.107 5.107 0 0 0-5.124 5.108v74.97c0 5.716 1.36 11.35 3.967 16.437l3.552 6.93-5.369 4.45 17.766 21.944c.367.45.916.712 1.497.712H57.89c.58 0 1.13-.261 1.497-.712l17.777-21.939-5.332-4.428 3.569-6.935a36.033 36.033 0 0 0 3.988-16.492z"/>
            <path fill="#D8D9DA" fill-rule="nonzero" d="M12.307 13.444c-.69 0-1.356-.245-1.883-.69l-5.368-4.54a2.92 2.92 0 0 1 3.772-4.45l5.368 4.54a2.92 2.92 0 0 1-1.889 5.15v-.01z"/>
            <rect width="61.652" height="61.652" x="13.134" y="20" fill="#7A7F80" fill-rule="nonzero" rx="3.574"/>
            <rect width="61.652" height="61.652" x="13.134" y="26.342" fill="#FFF" fill-rule="nonzero" rx="3.574"/>
            <rect width="60.54" height="60.54" x="13.69" y="23.983" fill="#C9DFC9" fill-rule="nonzero" rx="3.018"/>
            <path fill="#7A7F80" fill-rule="nonzero" d="M71.211 24.54a2.465 2.465 0 0 1 2.465 2.464v54.498a2.465 2.465 0 0 1-2.465 2.462h-54.5a2.465 2.465 0 0 1-2.465-2.462V27.004a2.465 2.465 0 0 1 2.465-2.464h54.5m0-1.113h-54.5a3.577 3.577 0 0 0-3.577 3.577v54.498a3.577 3.577 0 0 0 3.577 3.574h54.5c1.975 0 3.576-1.6 3.578-3.574V27.004a3.577 3.577 0 0 0-3.578-3.577z"/>
            <path stroke="#7A7F80" stroke-width="1.113" d="M77.98 0H9.94A9.257 9.257 0 0 0 .686 9.255V84.47c0 10.445 2.475 20.584 9.048 28.693l18.801 23.224c.367.45.916.712 1.497.712H57.89c.58 0 1.13-.262 1.497-.712l18.8-23.224c6.574-8.117 9.05-18.248 9.05-28.693V9.255A9.257 9.257 0 0 0 77.978 0z"/>
            <path fill="#FFF" fill-rule="nonzero" d="M73.092 81.138V45.104l-38.309 38.31h36.033a2.275 2.275 0 0 0 2.276-2.276z"/>
        </g>
        <g transform="translate(134.172 60.292)">
            <mask id="c" fill="#fff">
                <use xlink:href="#b"/>
            </mask>
            <use fill="#FFF" fill-rule="nonzero" xlink:href="#b"/>
            <path fill="#D8D9DA" fill-rule="nonzero" d="M26.76 9.964a15.839 15.839 0 0 0-.62-1.98c-.17-.396 1.561-1.67 1.391-1.962-.17-.292-1.22-1.788-1.452-2.053-.23-.264-1.991.955-2.311.66a15.9 15.9 0 0 0-1.67-1.235c-.375-.223.279-2.26-.03-2.407C21.76.84 20.026.26 19.688.181c-.34-.078-1.058 1.947-1.486 1.891a15.53 15.53 0 0 0-2.067-.022C15.704 2.09 15.022.056 14.69.125c-.33.07-2.075.61-2.395.746-.32.136.278 2.192-.094 2.403-.59.36-1.153.76-1.689 1.196-.322.278-2.058-.968-2.297-.71-.24.26-1.316 1.711-1.497 2.015-.18.303 1.524 1.61 1.34 2.014a16.014 16.014 0 0 0-.661 1.947c-.095.425-2.226.43-2.276.776-.05.345-.06 2.164-.027 2.503.033.34 2.172.404 2.255.835.163.673.37 1.334.618 1.98.17.395-1.56 1.67-1.39 1.947.169.279 1.218 1.79 1.451 2.053.234.265 1.992-.954 2.312-.659.528.448 1.086.86 1.669 1.235.375.223-.278 2.259.03 2.403.31.145 2.042.732 2.379.81.336.078 1.06-1.947 1.485-1.892.689.054 1.38.061 2.07.023.43-.04 1.112 1.994 1.443 1.925.331-.07 2.073-.61 2.395-.746.323-.136-.278-2.192.095-2.403.588-.36 1.151-.76 1.685-1.196.323-.279 2.062.968 2.3.709.24-.259 1.317-1.71 1.497-2.014.181-.303-1.527-1.613-1.338-1.992.265-.633.487-1.284.665-1.947.095-.425 2.226-.43 2.276-.776.05-.345.06-2.164.027-2.503-.033-.34-2.172-.42-2.258-.843zm-5.457 4.45a4.935 4.935 0 1 1-1.727-6.756 4.937 4.937 0 0 1 1.727 6.765v-.009zM65.214 13.844c.164.673.37 1.334.618 1.98.17.396-1.56 1.67-1.391 1.948.17.278 1.218 1.789 1.452 2.053.234.264 1.992-.954 2.311-.66a15.9 15.9 0 0 0 1.67 1.236c.375.222-.279 2.258.03 2.403.309.145 2.042.731 2.381.81.34.077 1.057-1.948 1.483-1.892.688.053 1.38.06 2.07.022.43-.039 1.112 1.995 1.443 1.925.331-.07 2.072-.61 2.395-.745.323-.137-.278-2.192.095-2.404.588-.36 1.15-.76 1.685-1.196.323-.278 2.061.968 2.3.71.24-.26 1.316-1.711 1.497-2.015.18-.303-1.516-1.61-1.338-2 .264-.633.487-1.284.665-1.947.095-.425 2.225-.43 2.275-.776.05-.345.062-2.164.028-2.503-.033-.34-2.172-.404-2.259-.835A15.839 15.839 0 0 0 84 7.983c-.17-.395 1.56-1.669 1.39-1.96-.17-.293-1.22-1.79-1.452-2.054-.23-.264-1.991.955-2.311.66a15.9 15.9 0 0 0-1.67-1.235c-.375-.223.279-2.26-.03-2.407-.308-.147-2.041-.728-2.38-.806-.34-.078-1.058 1.947-1.486 1.891a15.53 15.53 0 0 0-2.067-.022C73.562 2.09 72.88.056 72.549.125c-.33.07-2.075.61-2.395.746-.32.136.279 2.192-.094 2.403A15.72 15.72 0 0 0 68.37 4.47c-.32.278-2.058-.968-2.297-.71-.24.26-1.316 1.711-1.497 2.015-.18.303 1.527 1.61 1.34 2.014a15.577 15.577 0 0 0-.664 1.947c-.094.425-2.225.43-2.275.776-.05.345-.061 2.164-.028 2.503.033.34 2.18.406 2.264.83zm5.46-4.45a4.935 4.935 0 1 1 1.728 6.765 4.935 4.935 0 0 1-1.727-6.774v.009zM84.622 70.654a15.655 15.655 0 0 0-.615-1.978c-.17-.398 1.56-1.669 1.39-1.964-.169-.295-1.22-1.788-1.451-2.05-.231-.261-1.992.951-2.312.656a15.9 15.9 0 0 0-1.669-1.235c-.375-.222.278-2.258-.03-2.403-.31-.145-2.042-.731-2.381-.81-.34-.077-1.057 1.948-1.486 1.892a15.53 15.53 0 0 0-2.067-.022c-.43.039-1.112-1.995-1.443-1.925-.331.07-2.075.61-2.395.746-.32.136.278 2.191-.095 2.403-.588.362-1.152.762-1.688 1.196-.32.278-2.059-.968-2.298-.71-.24.26-1.316 1.711-1.496 2.015-.181.303 1.516 1.61 1.338 2a15.458 15.458 0 0 0-.665 1.947c-.095.422-2.226.428-2.276.773-.05.345-.06 2.167-.028 2.503.034.337 2.173.404 2.256.835.164.673.37 1.334.618 1.98.17.395-1.56 1.656-1.39 1.962.169.306 1.217 1.788 1.451 2.052.234.265 1.992-.954 2.312-.659a15.9 15.9 0 0 0 1.669 1.235c.375.223-.279 2.259.03 2.406.309.148 2.042.73 2.381.807.34.078 1.057-1.947 1.483-1.892.689.054 1.38.061 2.07.023.43-.04 1.112 1.994 1.443 1.925.331-.07 2.072-.607 2.395-.746.323-.139-.278-2.192.095-2.403.587-.36 1.15-.76 1.685-1.194.323-.278 2.062.966 2.3.707.24-.259 1.317-1.71 1.497-2.014.181-.303-1.516-1.61-1.338-2 .265-.634.487-1.284.665-1.947.095-.426 2.226-.431 2.276-.776.05-.345.06-2.164.027-2.504-.033-.339-2.172-.414-2.258-.831zm-5.458 4.45a4.935 4.935 0 1 1-8.486-5.039 4.935 4.935 0 0 1 8.486 5.04zM26.76 70.654a15.655 15.655 0 0 0-.62-1.984c-.17-.397 1.561-1.669 1.391-1.963-.17-.295-1.22-1.79-1.452-2.05-.23-.262-1.991.95-2.311.656a15.9 15.9 0 0 0-1.67-1.235c-.375-.223.279-2.259-.03-2.403-.309-.145-2.042-.732-2.38-.81-.34-.078-1.058 1.947-1.486 1.892a15.53 15.53 0 0 0-2.067-.023c-.431.04-1.113-1.994-1.444-1.925-.33.07-2.075.61-2.395.746-.32.136.278 2.192-.094 2.403-.589.362-1.153.761-1.689 1.196-.322.279-2.058-.968-2.297-.709-.24.259-1.316 1.71-1.497 2.014-.18.303 1.516 1.61 1.335 2a15.894 15.894 0 0 0-.662 1.947c-.097.423-2.225.428-2.275.773-.05.345-.061 2.167-.028 2.504.033.336 2.172.403 2.256.834.162.673.369 1.335.617 1.98.17.396-1.56 1.656-1.39 1.962.17.306 1.218 1.789 1.452 2.053.233.264 1.991-.954 2.311-.66.528.449 1.086.861 1.67 1.236.375.222-.279 2.258.03 2.406.309.147 2.041.729 2.378.806.337.078 1.06-1.947 1.485-1.891.69.053 1.38.06 2.07.022.428-.039 1.113 1.995 1.444 1.925.33-.07 2.072-.606 2.395-.745.322-.14-.278-2.192.094-2.404.588-.36 1.15-.759 1.686-1.193.323-.278 2.061.965 2.298.706.236-.258 1.318-1.71 1.499-2.013.18-.304-1.522-1.6-1.333-1.99.265-.633.487-1.283.665-1.946.095-.426 2.226-.432 2.276-.777.05-.344.06-2.164.027-2.503-.033-.34-2.172-.42-2.258-.837zm-5.457 4.45a4.935 4.935 0 1 1-8.486-5.039 4.935 4.935 0 0 1 8.486 5.04z" mask="url(#c)"/>
        </g>
        <path stroke="#FFF" stroke-width="1.113" d="M136.685 71.702h86.551v61.672h-86.55z"/>
        <path fill="#C6E2BA" fill-rule="nonzero" d="M201.881 112.6a38.15 38.15 0 0 0 1.608-4.749c.234-1.03 5.424-1.046 5.521-1.883.098-.837.148-5.252.07-6.095-.078-.842-5.285-.979-5.48-2.002a38.665 38.665 0 0 0-1.494-4.801c-.414-.96 3.786-4.02 3.369-4.76-.417-.74-2.96-4.34-3.522-4.979-.561-.64-4.831 2.314-5.61 1.6a38.083 38.083 0 0 0-4.034-3c-.912-.556.688-5.482-.075-5.84-.762-.36-4.954-1.775-5.774-1.948-.82-.172-2.568 4.707-3.616 4.587a38.256 38.256 0 0 0-5.007-.055c-1.046.097-2.67-4.838-3.503-4.67-.831.166-5.029 1.47-5.81 1.807-.782.337.684 5.319-.231 5.842a37.63 37.63 0 0 0-4.092 2.895c-.782.687-5.007-2.347-5.563-1.719-.557.629-3.205 4.137-3.644 4.88-.44.742 3.677 3.907 3.238 4.85a38.467 38.467 0 0 0-1.611 4.749c-.225 1.026-5.416 1.043-5.513 1.88-.098.837-.148 5.252-.07 6.095.078.843 5.285.979 5.477 2.005.396 1.63.896 3.233 1.497 4.799.411.962-3.786 4.02-3.369 4.759.417.74 2.96 4.34 3.522 4.98.562.639 4.832-2.312 5.61-1.598a38.47 38.47 0 0 0 4.034 3c.91.539-.687 5.479.075 5.84.762.362 4.954 1.772 5.775 1.948.82.175 2.567-4.71 3.616-4.587 1.666.126 3.338.145 5.007.055 1.046-.1 2.67 4.835 3.502 4.668.831-.167 5.032-1.474 5.81-1.81.78-.337-.684-5.32.231-5.842a38.017 38.017 0 0 0 4.09-2.877c.781-.69 5.006 2.345 5.577 1.72.57-.626 3.193-4.15 3.632-4.888.44-.737-3.68-3.916-3.243-4.857z"/>
        <path fill="#FFF" d="M170.38 101.357a1.669 1.669 0 0 1 2.333 0l4.804 4.754 11.405-11.288a1.669 1.669 0 0 1 2.334 0 1.622 1.622 0 0 1 0 2.312l-13.744 13.597-7.138-7.063a1.622 1.622 0 0 1 .006-2.312z"/>
    </g>
</svg>
