<svg xmlns="http://www.w3.org/2000/svg" width="51" height="99" viewBox="0 0 51 99">
    <defs>
        <filter id="a" width="106.5%" height="106.5%" x="-3.3%" y="-3.3%" filterUnits="objectBoundingBox">
            <feOffset dx="1" dy="2" in="SourceAlpha" result="shadowOffsetOuter1"/>
            <feColorMatrix in="shadowOffsetOuter1" result="shadowMatrixOuter1" values="0 0 0 0 0.7 0 0 0 0 0.7 0 0 0 0 0.7 0 0 0 1 0"/>
            <feMerge>
                <feMergeNode in="shadowMatrixOuter1"/>
                <feMergeNode in="SourceGraphic"/>
            </feMerge>
        </filter>
    </defs>
    <g fill="none" fill-rule="evenodd" filter="url(#a)" transform="translate(.5 .875)">
        <path fill="#D8D9DA" fill-rule="nonzero" d="M15.982 95.59a6.122 6.122 0 0 1-5.632-3.712L3.88 76.816A42.01 42.01 0 0 1 .447 60.141V11.823a10.073 10.073 0 0 1 8.206-9.887 87.12 87.12 0 0 1 32.07 0c4.756.897 8.201 5.048 8.207 9.887v48.349a42.028 42.028 0 0 1-3.438 16.696l-6.463 15.02a6.124 6.124 0 0 1-5.631 3.708l-17.417-.006z"/>
        <path fill="#7A7F80" fill-rule="nonzero" d="M24.69.895c5.351 0 10.692.497 15.952 1.482a9.61 9.61 0 0 1 7.834 9.446v48.349c0 5.68-1.157 11.301-3.402 16.52L38.612 91.71a5.683 5.683 0 0 1-5.22 3.438h-17.41a5.685 5.685 0 0 1-5.222-3.44l-6.471-15.07A41.81 41.81 0 0 1 .895 60.142V11.823A9.61 9.61 0 0 1 8.73 2.377 86.68 86.68 0 0 1 24.69.895m0-.895A87.706 87.706 0 0 0 8.572 1.497 10.52 10.52 0 0 0 0 11.823v48.318A42.442 42.442 0 0 0 3.467 77l6.471 15.055a6.575 6.575 0 0 0 6.044 3.982h17.417a6.57 6.57 0 0 0 6.043-3.98l6.463-15.019a42.431 42.431 0 0 0 3.476-16.873V11.816a10.52 10.52 0 0 0-8.573-10.319A87.706 87.706 0 0 0 24.689 0z"/>
        <rect width="39.393" height="22.028" x="4.994" y="23.644" fill="#BEBDC0" fill-rule="nonzero" rx="2.66"/>
        <rect width="16.559" height="8.736" x="4.658" y="49.954" fill="#D8D9DA" fill-rule="nonzero" rx="2.09"/>
        <path fill="#7A7F80" fill-rule="nonzero" d="M19.389 50.29c.824 0 1.493.668 1.493 1.492v5.073a1.493 1.493 0 0 1-1.493 1.493H6.49a1.493 1.493 0 0 1-1.497-1.493v-5.072a1.49 1.49 0 0 1 1.497-1.494H19.39m0-.671H6.49a2.167 2.167 0 0 0-2.164 2.164v5.073a2.167 2.167 0 0 0 2.164 2.17H19.39a2.167 2.167 0 0 0 2.164-2.17v-5.072a2.167 2.167 0 0 0-2.164-2.165z"/>
        <rect width="16.559" height="8.736" x="28.161" y="49.954" fill="#D8D9DA" fill-rule="nonzero" rx="2.09"/>
        <path fill="#7A7F80" fill-rule="nonzero" d="M42.892 50.29a1.49 1.49 0 0 1 1.493 1.492v5.073a1.493 1.493 0 0 1-1.493 1.493H29.994a1.493 1.493 0 0 1-1.493-1.493v-5.072c0-.825.669-1.493 1.493-1.493h12.902m0-.672H29.994a2.167 2.167 0 0 0-2.164 2.164v5.073a2.167 2.167 0 0 0 2.164 2.17h12.902a2.167 2.167 0 0 0 2.165-2.164v-5.078a2.167 2.167 0 0 0-2.165-2.165z"/>
        <rect width="39.393" height="22.028" x="4.994" y="23.644" stroke="#000" stroke-width="1.023" rx="2.66"/>
        <path fill="#FFF" fill-rule="nonzero" d="M3.261 8.392l3.647-3.647L8.592 6.43l-3.647 3.646z"/>
        <path stroke="#FFF" stroke-width="1.023" d="M7.319 45.672h34.74"/>
        <path stroke="#FFF" stroke-width=".767" d="M6.487 50.29h12.902M29.99 50.29h12.902"/>
        <path fill="#FFF" fill-rule="nonzero" d="M24.69 2.015c5.282.001 10.553.49 15.746 1.461a8.506 8.506 0 0 1 6.928 8.347v48.349a40.43 40.43 0 0 1-3.313 16.076l-6.46 15.022a4.563 4.563 0 0 1-4.192 2.76H15.982a4.56 4.56 0 0 1-4.192-2.763L5.318 76.2A40.468 40.468 0 0 1 2.015 60.14V11.823a8.506 8.506 0 0 1 6.938-8.347A85.833 85.833 0 0 1 24.69 2.015m0-1.12A86.68 86.68 0 0 0 8.73 2.377a9.61 9.61 0 0 0-7.834 9.446v48.318A41.81 41.81 0 0 0 4.29 76.64l6.47 15.062a5.685 5.685 0 0 0 5.223 3.44h17.417a5.683 5.683 0 0 0 5.22-3.438l6.462-15.02a41.798 41.798 0 0 0 3.402-16.519V11.816A9.61 9.61 0 0 0 40.65 2.37 86.675 86.675 0 0 0 24.689.895z"/>
        <path fill="#D8D9DA" fill-rule="nonzero" d="M12.58 94.012a5.67 5.67 0 0 0 3.402 1.134h17.417a5.683 5.683 0 0 0 5.22-3.438l6.462-15.02a41.798 41.798 0 0 0 3.402-16.518L12.58 94.012z"/>
        <path fill="#FFF" fill-rule="nonzero" d="M8.73 5.634a86.582 86.582 0 0 1 31.905 0c3.427.642 6.716 3.087 6.716 6.19h1.119a9.61 9.61 0 0 0-7.835-9.447 86.582 86.582 0 0 0-31.905 0 9.61 9.61 0 0 0-7.835 9.446h1.12c0-3.131 3.292-5.556 6.715-6.189z"/>
        <path fill="#D8D9DA" fill-rule="nonzero" d="M15.982 95.59a6.122 6.122 0 0 1-5.632-3.712L3.88 76.816A42.01 42.01 0 0 1 .447 60.141V11.823a10.073 10.073 0 0 1 8.206-9.887 87.12 87.12 0 0 1 32.07 0c4.756.897 8.201 5.048 8.207 9.887v48.349a42.028 42.028 0 0 1-3.438 16.696l-6.463 15.02a6.124 6.124 0 0 1-5.631 3.708l-17.417-.006z"/>
        <path fill="#7A7F80" fill-rule="nonzero" d="M24.69.895c5.351 0 10.692.497 15.952 1.482a9.61 9.61 0 0 1 7.834 9.446v48.349c0 5.68-1.157 11.301-3.402 16.52L38.612 91.71a5.683 5.683 0 0 1-5.22 3.438h-17.41a5.685 5.685 0 0 1-5.222-3.44l-6.471-15.07A41.81 41.81 0 0 1 .895 60.142V11.823A9.61 9.61 0 0 1 8.73 2.377 86.68 86.68 0 0 1 24.69.895m0-.895A87.706 87.706 0 0 0 8.572 1.497 10.52 10.52 0 0 0 0 11.823v48.318A42.442 42.442 0 0 0 3.467 77l6.471 15.055a6.575 6.575 0 0 0 6.044 3.982h17.417a6.57 6.57 0 0 0 6.043-3.98l6.463-15.019a42.431 42.431 0 0 0 3.476-16.873V11.816a10.52 10.52 0 0 0-8.573-10.319A87.706 87.706 0 0 0 24.689 0z"/>
        <path fill="#FFF" fill-rule="nonzero" d="M41.95 47.037H7.426a2.433 2.433 0 0 1-2.433-2.435v-1.258h39.395v1.258a2.435 2.435 0 0 1-2.44 2.435z"/>
        <rect width="38.498" height="21.132" x="5.441" y="24.092" fill="#C6E2BA" fill-rule="nonzero" rx="2.149"/>
        <path fill="#7A7F80" fill-rule="nonzero" d="M42.059 24.54c.79 0 1.43.642 1.43 1.432v17.372c0 .79-.64 1.431-1.43 1.432H7.319a1.433 1.433 0 0 1-1.43-1.432V25.965c0-.79.64-1.431 1.43-1.432h34.74m0-.896H7.319a2.326 2.326 0 0 0-2.325 2.328v17.372a2.328 2.328 0 0 0 2.325 2.326h34.74a2.328 2.328 0 0 0 2.326-2.328v-17.37a2.326 2.326 0 0 0-2.326-2.328z"/>
        <path fill="#FFF" fill-rule="nonzero" d="M4.994 50.29h15.888v1.356H4.994zM28.497 50.29h15.888v1.356H28.497z"/>
        <path fill="#7A7F80" fill-rule="nonzero" d="M19.389 50.29c.824 0 1.493.668 1.493 1.492v5.073a1.493 1.493 0 0 1-1.493 1.493H6.49a1.493 1.493 0 0 1-1.497-1.493v-5.072a1.49 1.49 0 0 1 1.497-1.494H19.39m0-.671H6.49a2.167 2.167 0 0 0-2.164 2.164v5.073a2.167 2.167 0 0 0 2.164 2.17H19.39a2.167 2.167 0 0 0 2.164-2.17v-5.072a2.167 2.167 0 0 0-2.164-2.165zM42.892 50.29a1.49 1.49 0 0 1 1.493 1.492v5.073a1.493 1.493 0 0 1-1.493 1.493H29.994a1.493 1.493 0 0 1-1.493-1.493v-5.072c0-.825.669-1.493 1.493-1.493h12.902m0-.672H29.994a2.167 2.167 0 0 0-2.164 2.164v5.073a2.167 2.167 0 0 0 2.164 2.17h12.902a2.167 2.167 0 0 0 2.165-2.164v-5.078a2.167 2.167 0 0 0-2.165-2.165z"/>
        <path fill="#FFF" fill-rule="nonzero" d="M3.046 8.177L6.692 4.53l2.115 2.115L5.16 10.29z"/>
        <path fill="#FFF" fill-rule="nonzero" d="M24.69 2.015c5.282.001 10.553.49 15.746 1.461a8.506 8.506 0 0 1 6.928 8.347v48.349a40.43 40.43 0 0 1-3.313 16.076l-6.46 15.022a4.563 4.563 0 0 1-4.192 2.76H15.982a4.56 4.56 0 0 1-4.192-2.763L5.318 76.2A40.468 40.468 0 0 1 2.015 60.14V11.823a8.506 8.506 0 0 1 6.938-8.347A85.833 85.833 0 0 1 24.69 2.015m0-1.12A86.68 86.68 0 0 0 8.73 2.377a9.61 9.61 0 0 0-7.834 9.446v48.318A41.81 41.81 0 0 0 4.29 76.64l6.47 15.062a5.685 5.685 0 0 0 5.223 3.44h17.417a5.683 5.683 0 0 0 5.22-3.438l6.462-15.02a41.798 41.798 0 0 0 3.402-16.519V11.816A9.61 9.61 0 0 0 40.65 2.37 86.675 86.675 0 0 0 24.689.895z"/>
        <path fill="#D8D9DA" fill-rule="nonzero" d="M12.58 94.012a5.67 5.67 0 0 0 3.402 1.134h17.417a5.683 5.683 0 0 0 5.22-3.438l6.462-15.02a41.798 41.798 0 0 0 3.402-16.518L12.58 94.012z"/>
        <path fill="#FFF" fill-rule="nonzero" d="M8.73 5.634a86.582 86.582 0 0 1 31.905 0c3.427.642 6.716 3.087 6.716 6.19h1.119a9.61 9.61 0 0 0-7.835-9.447 86.582 86.582 0 0 0-31.905 0 9.61 9.61 0 0 0-7.835 9.446h1.12c0-3.131 3.292-5.556 6.715-6.189z"/>
        <path fill="#E1EEDC" fill-rule="nonzero" d="M43.042 43.2V26.86l-17.46 17.46h16.34a1.12 1.12 0 0 0 1.12-1.12z"/>
    </g>
</svg>
