<svg xmlns="http://www.w3.org/2000/svg" width="360" height="280" viewBox="0 0 360 280">
    <defs>
        <filter id="a" width="110.3%" height="104.5%" x="-5.7%" y="-2.5%" filterUnits="objectBoundingBox">
            <feOffset dx="1" dy="2" in="SourceAlpha" result="shadowOffsetOuter1"/>
            <feColorMatrix in="shadowOffsetOuter1" result="shadowMatrixOuter1" values="0 0 0 0 0.7 0 0 0 0 0.7 0 0 0 0 0.7 0 0 0 1 0"/>
            <feMerge>
                <feMergeNode in="shadowMatrixOuter1"/>
                <feMergeNode in="SourceGraphic"/>
            </feMerge>
        </filter>
    </defs>
    <g fill="none" fill-rule="evenodd">
        <g fill-rule="nonzero" transform="translate(114 92.148)">
            <path fill="#FFF" stroke="#7A7F80" stroke-width="1.664" d="M0 0h132.538v30.555H0z"/>
            <circle cx="15.304" cy="15.279" r="3.462" fill="#8FCB7F"/>
            <circle cx="32.347" cy="15.279" r="3.462" fill="#8FCB7F"/>
            <circle cx="49.39" cy="15.279" r="3.462" fill="#8FCB7F"/>
            <circle cx="66.433" cy="15.279" r="3.462" fill="#8FCB7F"/>
            <circle cx="83.476" cy="15.279" r="3.462" fill="#8FCB7F"/>
            <circle cx="100.519" cy="15.279" r="3.462" fill="#8FCB7F"/>
            <circle cx="117.462" cy="15.279" r="3.462" fill="#8FCB7F"/>
        </g>
        <g filter="url(#a)" transform="translate(137 51)">
            <path stroke="#D8D9DA" stroke-width="6.103" d="M43.269 199.343v-37.282"/>
            <path fill="#BEBDC0" fill-rule="nonzero" d="M33.627 122.255h19.282v36.119H33.627z"/>
            <path stroke="#BEBDC0" stroke-width="6.103" d="M43.255 167.623l.017 26.821"/>
            <path fill="#D8D9DA" fill-rule="nonzero" d="M36.978 149.481h12.583v36.804H36.978z"/>
            <path fill="#7A7F80" fill-rule="nonzero" d="M49.006 150.036v35.695H37.533v-35.695h11.473m1.11-1.11H36.422v37.914h13.692v-37.914z"/>
            <path fill="#D8D9DA" fill-rule="nonzero" d="M32.107 139.759h22.325v33.143H32.107z"/>
            <path fill="#7A7F80" fill-rule="nonzero" d="M53.877 140.313v32.034H32.662v-32.034h21.215m1.11-1.11H31.551v34.253h23.434v-34.252z"/>
            <path fill="#FFF" fill-rule="nonzero" d="M49.202 170.363h2.14v-25.142a2.125 2.125 0 0 0-2.126-2.125l-.014 27.267zM42.135 185.379h6.446v-6.447a6.45 6.45 0 0 0-6.446 6.447z"/>
            <path fill="#FFF" fill-rule="nonzero" stroke="#7A7F80" stroke-width="1.11" d="M77.194 0H9.344A9.229 9.229 0 0 0 .115 9.229v75.007c0 10.416 2.466 20.527 9.02 28.613l18.753 23.16c.364.449.911.71 1.49.71h27.788c.579 0 1.126-.261 1.49-.71l18.76-23.16c6.555-8.094 9.02-18.197 9.02-28.613V9.229A9.229 9.229 0 0 0 77.195 0z"/>
            <path fill="#D8D9DA" fill-rule="nonzero" d="M78.606 86.347v-74.73a5.093 5.093 0 0 0-5.093-5.093H13.12a5.093 5.093 0 0 0-5.093 5.093V86.38c0 5.7 1.355 11.318 3.953 16.391l3.542 6.91-5.353 4.438 17.72 21.884c.364.449.911.71 1.49.71h27.788c.579 0 1.126-.261 1.49-.71l17.72-21.884-5.312-4.41 3.559-6.916a35.937 35.937 0 0 0 3.983-16.446z"/>
            <path fill="#D8D9DA" fill-rule="nonzero" d="M11.705 13.406a2.918 2.918 0 0 1-1.881-.688L4.462 8.191A2.913 2.913 0 0 1 8.22 3.753l5.353 4.527a2.913 2.913 0 0 1-1.88 5.137l.01-.01z"/>
            <rect width="61.481" height="61.481" x="12.528" y="19.945" fill="#7A7F80" fill-rule="nonzero" rx="3.564"/>
            <rect width="61.481" height="61.481" x="12.528" y="26.269" fill="#FFF" fill-rule="nonzero" rx="3.564"/>
            <rect width="60.372" height="60.372" x="13.083" y="23.917" fill="#C6E2BA" fill-rule="nonzero" rx="3.01"/>
            <path fill="#7A7F80" fill-rule="nonzero" d="M70.445 24.472a2.458 2.458 0 0 1 2.455 2.457v54.347a2.458 2.458 0 0 1-2.455 2.455H16.093a2.458 2.458 0 0 1-2.455-2.455V26.929a2.458 2.458 0 0 1 2.455-2.457h54.352m0-1.11H16.093a3.564 3.564 0 0 0-3.565 3.567v54.347a3.564 3.564 0 0 0 3.565 3.564h54.352a3.564 3.564 0 0 0 3.565-3.564V26.929a3.564 3.564 0 0 0-3.565-3.567z"/>
            <path stroke="#7A7F80" stroke-width="1.11" d="M77.194 0H9.344A9.229 9.229 0 0 0 .115 9.229v75.007c0 10.416 2.466 20.527 9.02 28.613l18.753 23.16c.364.449.911.71 1.49.71h27.788c.579 0 1.126-.261 1.49-.71l18.76-23.16c6.555-8.094 9.02-18.197 9.02-28.613V9.229A9.229 9.229 0 0 0 77.195 0z"/>
            <path fill="#FFF" d="M33.166 52.827a1.8 1.8 0 0 1 2.533 0l5.207 5.148 12.377-12.233a1.806 1.806 0 0 1 2.533 0 1.759 1.759 0 0 1 0 2.497l-14.9 14.737-7.736-7.653a1.759 1.759 0 0 1-.014-2.496z"/>
        </g>
    </g>
</svg>
