<?xml version="1.0" encoding="UTF-8"?>
<svg width="159px" height="256px" viewBox="0 0 159 256" version="1.1" xmlns="http://www.w3.org/2000/svg" xmlns:xlink="http://www.w3.org/1999/xlink">
    <!-- Generator: Sketch 55.2 (78181) - https://sketchapp.com -->
    <title>layer6</title>
    <desc>Created with Sketch.</desc>
    <g id="Page-1" stroke="none" stroke-width="1" fill="none" fill-rule="evenodd">
        <g id="Ethereum_Classic_Logo" transform="translate(-1.000000, 0.000000)" fill-rule="nonzero">
            <g id="layer6">
                <g id="g873">
                    <g id="g1006" transform="translate(1.488450, 84.598349)">
                        <g id="g1004">
                            <polygon id="path990" fill="#009F42" points="0.151054438 43.2378973 79.4959014 0.895691596 157.81771 42.9305915 79.5638767 85.3092917"></polygon>
                            <g id="g994" fill="#01C853">
                                <polygon id="path992" points="0.151054438 43.2378973 79.4959014 0.895691596 157.81771 42.9305915 79.5638767 85.3092917"></polygon>
                            </g>
                            <polygon id="path996" fill="#009F42" points="79.4959014 0.895691596 157.81771 42.9305915 79.5638767 85.3092917"></polygon>
                            <polygon id="path998" fill="#007831" points="79.4959014 49.7316988 157.81771 42.9305915 79.5638767 85.3092917 79.4958166 49.7316988"></polygon>
                            <polygon id="path1000" fill="#009F42" points="79.4957317 49.7316988 0.151054438 43.2378973 79.4277564 85.3092917 79.4958166 49.7316988"></polygon>
                        </g>
                    </g>
                    <g id="g923" transform="translate(1.263172, 138.096009)">
                        <path d="M0.367400764,1.00010884 C28.1606343,15.7421379 57.1211708,31.1941381 79.543583,43.141332 L158.072349,1.01196311 C129.639489,43.2624999 105.955739,78.4066364 79.5432243,117.305673 C53.0980411,78.4881488 23.8766341,35.6416245 0.367400764,1.00010884 Z" id="path909" fill="#009F42"></path>
                        <g id="g913" fill="#01C853">
                            <path d="M0.367400764,1.00010884 C28.1606343,15.7421379 57.1211708,31.1941381 79.543583,43.141332 L158.072349,1.01196311 C129.639489,43.2624999 105.955739,78.4066364 79.5432243,117.305673 C53.0980411,78.4881488 23.8766341,35.6416245 0.367400764,1.00010884 Z" id="path911"></path>
                        </g>
                        <path d="M79.5432243,43.141332 L158.072349,1.01196311 C129.639489,43.2624999 79.5432243,117.305673 79.5432243,117.305673 L79.5432243,43.141332 Z" id="path915" fill="#009F42"></path>
                        <path d="M79.5432243,43.141332 L158.072349,1.01196637 C129.639489,43.2624999 105.955739,78.4066364 79.5432243,117.305673 L79.5432243,43.141332 Z" id="path921" fill="#009F42"></path>
                    </g>
                    <g id="g1033" transform="translate(1.630573, 0.000000)">
                        <polygon id="path974" fill="#01C853" points="79.1606265 73.7187237 0.00922904459 115.398279 78.8169669 0 157.675223 115.650399"></polygon>
                        <polygon id="path978" fill="#009F42" points="79.1606918 73.7187204 78.8170322 -2.93503185e-06 157.675288 115.650399"></polygon>
                    </g>
                </g>
            </g>
        </g>
    </g>
</svg>