<?xml version="1.0" encoding="utf-8"?>
<!-- Generator: Adobe Illustrator 22.1.0, SVG Export Plug-In . SVG Version: 6.00 Build 0)  -->
<svg version="1.1" id="Layer_1" xmlns="http://www.w3.org/2000/svg" xmlns:xlink="http://www.w3.org/1999/xlink" x="0px" y="0px"
	 viewBox="0 0 362.6 200.7" style="enable-background:new 0 0 362.6 200.7;" xml:space="preserve">
<style type="text/css">
	.st0{fill:#FFFFFF;stroke:#7B7B7B;stroke-width:0.6;stroke-miterlimit:10;}
	.st1{fill:none;stroke:#7B7B7B;stroke-width:0.6;stroke-miterlimit:10;}
	.st2{fill:#FFFFFF;stroke:#7B7B7B;stroke-width:1.2;stroke-miterlimit:10;}
	.st3{fill:#FFFFFF;stroke:#7B7B7B;stroke-miterlimit:10;}
	.st4{font-family:'Roboto-Regular';}
	.st5{font-size:9.935px;}
	.st6{fill:#CECECE;}
	.st7{fill:none;stroke:#7B7B7B;stroke-width:3;stroke-miterlimit:10;}
</style>
<g>
	<path class="st0" d="M266.1,113.5l-28.9-10.4l-10.8,4.8c-1.8,0.8-3.2,2.2-3.9,4l-1.7,3.9c-0.8,1.8-0.6,4,0.6,5.6l10.7,14.2
		c0.8,1,2.2,1.3,3.3,0.7h0c2.3-1.3,3.7-3.6,3.7-6.2V130c0-1.1-0.3-2.2-0.9-3.2l-5-8.5l4.6-2.8c0,0,15.5,12.2,16,11.8
		C254.3,126.8,266.1,113.5,266.1,113.5z"/>
	<path class="st0" d="M272.2,93.1l-31-12.8l-16.3,13.5c-1.4,1.2-2.3,2.9-2.5,4.7l-0.3,3.9c-0.2,2.1,0.3,4.2,1.3,6.1l11.8,19
		c0.5,0.8,1.5,1.2,2.4,1l0,0c2-0.5,3.5-2,4-4l0.2-0.7c0.6-2.4,0.8-5.2-0.3-7.4l-4.1-9.5l6.4-5.8l15.1,9L272.2,93.1z"/>
	<path class="st0" d="M281.4,77.4l-41.2-15.6l-15.1,19.4c-3.7,4.8-4.1,11.4-1.1,16.6l7.6,12.8l2.6,4.4l0.9-0.2
		c1.7-0.3,3.3-1.2,4.3-2.6v0c1.9-2.5,2.8-5.7,2.5-8.8l-1.4-12.8l4.2-5.7l20.5,13.8L281.4,77.4z"/>
	<path class="st0" d="M270.2,198.7l-11-31.2l-6.4-5.2c-2.1-1.7-6.5-9.3-7.7-14.4c-1.2-5.1-1.5-10.6-1.3-14.3l1.2-27.4L272,82.9
		l-0.8-30.7l-29.3-9.6c0,0-6.5,5.3-13.2,5.1c-6-0.1-8.1-0.9-11.2-2.7c-2.9-1.7-2.5-5.1-0.1-6.8l21.6-12.6c1.9-1.1,4-1.5,6.1-1.3
		l30.8,3.8c1.7,0.2,3.4,0.8,4.9,1.7l3.6,2.1c3,1.7,5.1,4.7,5.7,8.1l7.7,40l3.5,4.4c1.6,2,2.6,4.4,2.9,7l7,61.4
		c0.4,3.4,1.6,6.7,3.4,9.5l19.3,36.3"/>
	<path class="st1" d="M218.4,42.4c0,0,3.2-1.3,5.6-2.7s3.4-3.5,1.9-6.4"/>
	<g>
		<path class="st2" d="M230.3,2.1h42.9c2.3,0,4.2,1.9,4.2,4.2v35c0,26-11,29.2-17.4,41.6c-0.1,0.1-0.2,0.2-0.3,0.2h-15.9
			c-0.1,0-0.2-0.1-0.3-0.2C237,70.5,226,67.3,226,41.3v-35C226,3.9,227.9,2.1,230.3,2.1z"/>
		<g>
			<defs>
				<path id="SVGID_1_" d="M235.2,48.9h33c1.4,0,2.6-1.2,2.6-2.6V14.6c0-1.4-1.2-2.6-2.6-2.6h-33c-1.4,0-2.6,1.2-2.6,2.6v31.7
					C232.6,47.7,233.8,48.9,235.2,48.9z"/>
			</defs>
			<use xlink:href="#SVGID_1_"  style="overflow:visible;fill:#FFFFFF;"/>
			<clipPath id="SVGID_2_">
				<use xlink:href="#SVGID_1_"  style="overflow:visible;"/>
			</clipPath>
			<use xlink:href="#SVGID_1_"  style="overflow:visible;fill:none;stroke:#00B757;stroke-width:0.6;stroke-miterlimit:10;"/>
		</g>
		
			<rect x="245.7" y="83.1" transform="matrix(-1 -4.474122e-11 4.474122e-11 -1 503.3863 184.0775)" class="st0" width="11.9" height="17.9"/>
		<line class="st3" x1="251.7" y1="101" x2="251.7" y2="198.7"/>
	</g>
	<path class="st0" d="M280.2,92"/>
	<g>
		<path class="st0" d="M270.5,97.5l-9.1-25.9c-0.3-0.9-0.8-1.8-1.4-2.5l-1.3-1.6c0,0-4.8-15.2-5.5-16.7c-0.7-1.5-2.7-6.4-8.7-6.4
			s-8.6,5-9,10c-0.2,3,1.2,17.5,2,25.2c0.3,3.2,1.9,6.1,4.5,8.1l1.7,1.3l2.2,31.1c0.7,10.2,6.8,19.2,15.9,23.7l4.3,2.1"/>
		<path class="st1" d="M253.6,57.1c0,0-0.8,2-4.8,2.7c-2.2,0.4-4.7,0-6.5-0.4c-1.5-0.3-2.4-1.4-2.8-3s-0.6-7.7-0.6-7.7"/>
		<line class="st0" x1="268.6" y1="92" x2="279" y2="96.8"/>
	</g>
</g>
<g>
	<path class="st0" d="M91.4,138.9l28.7-10.3l10.7,4.8c1.7,0.8,3.1,2.2,3.9,4l1.7,3.9c0.8,1.8,0.6,4-0.6,5.6L125.2,161
		c-0.8,1-2.2,1.3-3.3,0.7l0,0c-2.2-1.2-3.6-3.6-3.6-6.2v-0.2c0-1.1,0.3-2.2,0.9-3.2l5-8.5l-4.6-2.7c0,0-15.4,12.1-15.8,11.7
		C103.2,152.1,91.4,138.9,91.4,138.9z"/>
	<path class="st0" d="M85.4,118.6l30.8-12.8l16.2,13.4c1.4,1.2,2.3,2.9,2.5,4.7l0.3,3.8c0.2,2.1-0.3,4.2-1.3,6l-11.7,18.9
		c-0.5,0.8-1.5,1.2-2.4,1h0c-1.9-0.5-3.5-2-4-4l-0.2-0.7c-0.6-2.4-0.8-5.1,0.3-7.3l4.1-9.5l-6.3-5.8l-15,8.9L85.4,118.6z"/>
	<path class="st0" d="M76.2,103l41-15.5l15,19.3c3.7,4.8,4.1,11.3,1,16.5l-7.5,12.7l-2.6,4.3l-0.9-0.2c-1.7-0.3-3.2-1.2-4.3-2.6h0
		c-1.9-2.5-2.8-5.7-2.4-8.8l1.4-12.7l-4.2-5.7l-20.4,13.7L76.2,103z"/>
	<path class="st0" d="M96.2,198.7l2.2-6.1l6.4-5.1c2.1-1.7,6.4-9.2,7.7-14.3s1.5-10.6,1.3-14.2l-1.2-27.2l-26.9-23.2L86.4,78
		l29.1-9.6c0,0,6.4,5.2,13.2,5.1c6-0.1,8.1-0.9,11.1-2.7c2.9-1.7,2.5-5.1,0.1-6.7l-21.5-12.5c-1.8-1.1-4-1.5-6.1-1.3l-30.6,3.8
		c-1.7,0.2-3.4,0.8-4.9,1.6l-3.6,2.1c-3,1.7-5,4.7-5.7,8l-7.6,39.7l-3.5,4.4c-1.6,2-2.6,4.4-2.9,7l-6.9,61c-0.4,3.4-1.5,6.6-3.4,9.5
		l-6,11.2"/>
	<path class="st1" d="M138.8,68.2c0,0-3.2-1.3-5.6-2.7c-2.4-1.3-3.3-3.5-1.9-6.3"/>
	<path class="st0" d="M77.4,117.6"/>
	<g>
		<g>
			<rect x="72.6" y="2.1" class="st2" width="91.4" height="91.4"/>
			<text transform="matrix(1 0 0 1 95.0495 14.7455)"><tspan x="0" y="0" class="st4 st5">RECOVERY</tspan><tspan x="12.7" y="10.9" class="st4 st5">SEED</tspan></text>
		</g>
		<g>
			<rect x="78.7" y="35.9" class="st6" width="28.9" height="3.9"/>
			<rect x="78.7" y="45.2" class="st6" width="33.8" height="3.9"/>
			<rect x="78.7" y="54.4" class="st6" width="31" height="3.9"/>
			<rect x="78.7" y="63.7" class="st6" width="36.5" height="3.9"/>
			<rect x="78.7" y="72.9" class="st6" width="26.6" height="3.9"/>
			<rect x="78.7" y="82.2" class="st6" width="28.9" height="3.9"/>
		</g>
		<g>
			<rect x="122.6" y="82.2" class="st6" width="28.9" height="3.9"/>
			<rect x="122.6" y="72.9" class="st6" width="33.8" height="3.9"/>
			<rect x="122.6" y="63.7" class="st6" width="31" height="3.9"/>
			<rect x="122.6" y="54.4" class="st6" width="37.6" height="3.9"/>
			<rect x="122.6" y="45.2" class="st6" width="30.2" height="3.9"/>
			<rect x="122.6" y="35.9" class="st6" width="26.1" height="3.9"/>
		</g>
	</g>
	<g>
		<path class="st0" d="M87,123l9.1-25.7c0.3-0.9,0.8-1.8,1.4-2.5l1.3-1.6c0,0,4.8-15.1,5.5-16.6c0.7-1.5,2.6-6.4,8.7-6.4
			c6,0,8.5,4.9,8.9,9.9c0.2,3-1.2,17.3-1.9,25.1c-0.3,3.2-1.9,6.1-4.4,8l-1.7,1.3l-2.2,30.9c-0.7,10.1-6.7,19.1-15.8,23.5l-4.3,2.1"
			/>
		<path class="st1" d="M103.8,82.8c0,0,0.8,2,4.7,2.6c2.2,0.4,4.6,0,6.4-0.4c1.5-0.3,2.4-1.4,2.8-3c0.4-1.6,0.6-7.7,0.6-7.7"/>
		<line class="st0" x1="88.9" y1="117.6" x2="78.6" y2="122.3"/>
	</g>
</g>
<g>
	<path class="st7" d="M155.7,39.8c31.8-6.7,93.1-7.9,93.1-7.9"/>
	<polyline class="st7" points="239.3,22.8 248.8,31.9 239.8,41.4 	"/>
</g>
</svg>
