<svg fill="none" viewBox="0 0 24 24">
  <g clip-path="url(#prefix__a)">
    <path fill="#DD3935" d="M12 24c6.627 0 12-5.373 12-12S18.627 0 12 0 0 5.373 0 12s5.373 12 12 12Z"/>
    <path fill="#000" d="M16.295 13.142c-.008.04-.124.159-.24.245-.341.25-.952.482-1.573.594-.354.064-.707.074-.814.022-.069-.035-.079-.062-.054-.15.052-.186.22-.39.482-.58.134-.096.675-.425.928-.563.415-.228.751-.364.979-.396a.502.502 0 0 1 .185 0c.045.017.094.148.114.307.01.084.005.455-.007.521Zm-5.826.819c-.015.03-.09.062-.174.074a2.794 2.794 0 0 1-.487-.012 5.122 5.122 0 0 1-1.486-.428 1.872 1.872 0 0 1-.512-.344l-.07-.071-.007-.095c-.012-.163-.01-.42.01-.511a.672.672 0 0 1 .077-.218c.02-.025.02-.025.109-.025.109 0 .2.018.348.065.305.094.757.321 1.309.652.455.272.625.406.756.589.09.114.149.274.127.324Zm3.501 3.442c0 .008-.03.126-.067.267a9.869 9.869 0 0 0-.067.26c-.027.002-.051.005-.079.002h-.079l-.109.258c-.059.14-.113.272-.12.291l-.015.035-.052-.084-.052-.084v-.685l-.02.005a6.738 6.738 0 0 1-2.097.027 1.714 1.714 0 0 0-.163-.02c-.003.003 0 .161.005.356l.007.352-.042.064c-.022.034-.045.064-.045.067-.007.007-.032-.033-.089-.146a1.671 1.671 0 0 1-.138-.376l-.017-.072-.077.005-.077.007-.02-.091a2.572 2.572 0 0 1-.027-.168l-.007-.08-.064-.056a2.334 2.334 0 0 0-.082-.07.054.054 0 0 1-.017-.041v-.03l.309.002.309.003.01.032.01.032.106.005c.06.003.247.007.415.012l.31.008.079-.124.081-.123h.104l-.002-.258-.003-.257-.136-.06c-.438-.192-.695-.412-.791-.68-.02-.054-.02-.073-.025-.32-.002-.246-.002-.268.015-.322a.36.36 0 0 1 .255-.252c.042-.013.153-.013.737-.013l.687.003.077.037a.43.43 0 0 1 .185.146c.06.079.077.14.077.291 0 .216-.015.401-.037.475a1.024 1.024 0 0 1-.144.285 1.316 1.316 0 0 1-.554.388l-.059.022.002.26.003.26.054.004.055.005.074.112.072.11h.331c.183 0 .344.003.359.006.024.005.03.002.054-.04l.03-.044h.284c.213-.01.277-.005.277.002Z"/>
    <path fill="#000" d="M12.664 18.113c-.047.027-.079.04-.086.035-.008-.003-.042-.033-.08-.06l-.066-.054-.07.074c-.15.163-.155.17-.2.173-.069.008-.084-.005-.168-.131-.044-.064-.079-.119-.079-.119s-.032-.005-.07-.007l-.068-.008-.032.067-.033.067-.056-.017a1.183 1.183 0 0 1-.132-.052l-.074-.037v-.141l.658.002.658.003.002.066c.003.08.005.077-.104.139Z"/>
    <path fill="#fff" d="M18.847 15.096c-.003-.01-.003-.027-.005-.054a5.26 5.26 0 0 0-3.86 1.194s-.507-2.325-2.881-2.325c-2.374 0-3.255 2.325-3.255 2.325-1.33-1.432-3.11-1.328-3.754-1.234l-.002.047c-.02.359-.01.53.05.754.185.705.756 1.482 1.651 2.243 1.467 1.247 3.455 2.147 4.96 2.25 1.571.107 3.888-.81 5.431-2.15.243-.216.47-.444.683-.686.153-.178.38-.485.363-.485-.005 0 0-.005.01-.01.008-.004.015-.012.01-.017-.002-.002.003-.01.01-.012.008-.003.012-.008.01-.012-.003-.005 0-.01.01-.013.007-.002.01-.01.007-.015-.002-.005 0-.01.005-.01s.01-.007.01-.012.005-.012.01-.012.01-.005.01-.01a6.496 6.496 0 0 0 .237-.423c.141-.32.23-.604.272-.888.015-.136.028-.386.018-.445Zm-6.183 3.017c-.047.027-.079.04-.086.035-.008-.003-.042-.033-.08-.06l-.066-.054-.07.074c-.15.163-.155.17-.2.173-.069.008-.084-.005-.168-.131-.044-.064-.079-.119-.079-.119s-.032-.005-.07-.007l-.068-.008-.032.067-.033.067-.056-.017a1.191 1.191 0 0 1-.132-.052l-.074-.037v-.141l.658.002.658.003.002.066c.003.08.005.077-.104.139Zm1.237-.445a9.869 9.869 0 0 0-.067.26c-.027.002-.052.004-.079.002h-.08l-.106.26c-.059.14-.113.272-.12.291l-.015.035-.052-.084-.052-.084v-.685l-.02.005a6.738 6.738 0 0 1-2.097.027 1.71 1.71 0 0 0-.163-.02c-.003.003 0 .161.005.356l.007.352-.042.064c-.022.034-.045.064-.045.067-.007.007-.032-.033-.089-.146a1.676 1.676 0 0 1-.138-.376l-.017-.072-.077.005-.077.007-.02-.091a2.572 2.572 0 0 1-.027-.168l-.007-.08-.064-.056a2.334 2.334 0 0 0-.082-.07.054.054 0 0 1-.017-.041v-.03l.309.002.309.003.01.032.01.032.106.005c.06.003.247.007.416.012l.309.008.079-.124.081-.123h.104l-.002-.258-.003-.257-.136-.06c-.438-.192-.695-.412-.791-.68-.02-.054-.02-.073-.025-.32-.002-.246-.002-.268.015-.322a.36.36 0 0 1 .255-.252c.042-.013.153-.013.737-.013l.687.003.077.037a.431.431 0 0 1 .185.146c.06.079.077.14.077.291 0 .216-.015.401-.037.475a1.027 1.027 0 0 1-.144.285 1.317 1.317 0 0 1-.554.388l-.059.022.003.26.002.26.054.004.055.005.074.112.072.11h.331c.183 0 .344.003.359.006.024.005.03.002.054-.04l.03-.044h.284c.22 0 .284.002.284.01-.007-.003-.039.118-.076.257Z"/>
    <path fill="#FFA409" d="M18.827 14.844a7.254 7.254 0 0 0-.96-3.356.842.842 0 0 1-.054-.104c-.005-.007-.007-.015-.01-.02.077-.23.39-1.192.64-2.292.34-1.494.554-3.24-.103-3.764 0 0-1.138-.084-2.661 1.41-.413.413-.792.86-1.128 1.338l-.106-.035a7.72 7.72 0 0 0-1.89-.366 14.79 14.79 0 0 0-1.147 0 6.673 6.673 0 0 0-1.941.393c-.349-.475-.737-.92-1.165-1.328-1.585-1.5-2.764-1.414-2.764-1.414-.698.541-.46 2.366-.1 3.91.238 1.02.53 1.918.639 2.242a.558.558 0 0 1-.028.055c-.576 1.167-.887 2.292-.962 3.489.646-.094 2.424-.2 3.757 1.234 0 0 .88-2.325 3.254-2.325s2.881 2.325 2.881 2.325a5.27 5.27 0 0 1 3.86-1.194c-.002-.05-.007-.124-.012-.198ZM6.544 10.526s-.925-2.312-.688-3.633c.04-.222.114-.418.23-.566 0 0 1.049.104 2.74 1.983 0 0-.321.156-.751.488L8.07 8.8a5.945 5.945 0 0 0-1.526 1.726Zm3.925 3.435c-.015.03-.09.062-.174.074a2.794 2.794 0 0 1-.487-.012 5.122 5.122 0 0 1-1.486-.428 1.872 1.872 0 0 1-.512-.344l-.07-.071-.007-.095c-.012-.163-.01-.42.01-.511a.672.672 0 0 1 .077-.218c.02-.025.02-.025.109-.025.109 0 .2.018.348.065.305.094.757.321 1.309.652.455.272.625.406.756.589.09.114.149.274.127.324Zm5.826-.819c-.008.04-.124.159-.24.245-.341.25-.952.482-1.573.594-.354.064-.707.074-.814.022-.069-.035-.079-.062-.054-.15.052-.186.22-.39.482-.58.134-.096.675-.425.928-.563.415-.228.751-.364.979-.396a.502.502 0 0 1 .185 0c.045.017.094.148.114.307.01.084.005.455-.007.521Zm-.41-4.344-.006-.003c-.415-.331-.727-.487-.727-.487 1.635-1.88 2.646-1.983 2.646-1.983.111.15.183.343.223.566.23 1.32-.663 3.635-.663 3.635a5.89 5.89 0 0 0-1.474-1.728Z"/>
    <path fill="#FF9300" d="M18.023 6.89c-.193-.024-1.105-.029-2.139 1.908l-.005-.003c-.415-.331-.727-.487-.727-.487 1.635-1.88 2.646-1.983 2.646-1.983.114.15.186.343.225.566Z"/>
    <path fill="#FF8300" d="M17.36 10.526a5.866 5.866 0 0 0-1.476-1.728c1.034-1.937 1.944-1.932 2.14-1.907.23 1.323-.664 3.635-.664 3.635Zm.7-3.628-.037-.007.037.007Z"/>
    <path fill="#FF9300" d="M8.826 8.308s-.321.156-.751.487c0 0-.003.003-.005.003-1.071-1.94-2.013-1.932-2.216-1.907.04-.223.114-.418.23-.566.002 0 1.051.104 2.742 1.983Z"/>
    <path fill="#FF8300" d="M8.072 8.798a5.927 5.927 0 0 0-1.528 1.728s-.925-2.312-.688-3.635c.2-.025 1.145-.03 2.216 1.907ZM5.857 6.891l-.04.007.04-.007Z"/>
    <path fill="#fff" d="M14.858 11.81s-.792.049-.693-.57c.1-.617.718-.692.89-.667.174.025.866.272.743.791-.124.52-.297.42-.396.445-.099.025-.544 0-.544 0Zm-5.836 0s-.792.049-.693-.57c.1-.617.718-.692.89-.667.174.025.866.272.743.791-.124.52-.297.42-.396.445-.1.025-.544 0-.544 0Z"/>
  </g>
  <defs>
    <clipPath id="prefix__a">
      <path fill="#fff" d="M0 0h24v24H0z"/>
    </clipPath>
  </defs>
</svg>
