<svg fill="none" viewBox="0 0 24 24">
  <g clip-path="url(#prefix__a)">
    <path fill="#2775CA" d="M12 24c6.627 0 12-5.373 12-12S18.627 0 12 0 0 5.373 0 12s5.373 12 12 12Z"/>
    <path fill="#fff" d="M14.925 13.52c0-1.552-.93-2.084-2.792-2.305-1.33-.178-1.596-.532-1.596-1.153 0-.62.444-1.02 1.33-1.02.798 0 1.241.267 1.463.931a.333.333 0 0 0 .31.222h.71c.177 0 .31-.133.31-.31V9.84a2.214 2.214 0 0 0-1.995-1.817V6.96c0-.177-.133-.31-.355-.354h-.665c-.177 0-.31.133-.354.354v1.02c-1.33.177-2.172 1.064-2.172 2.172 0 1.463.886 2.039 2.748 2.26 1.241.222 1.64.488 1.64 1.197 0 .71-.62 1.197-1.463 1.197-1.152 0-1.551-.488-1.684-1.153-.044-.177-.177-.266-.31-.266h-.754a.303.303 0 0 0-.31.31v.045c.177 1.108.886 1.906 2.35 2.128v1.063c0 .178.132.31.354.355h.665c.177 0 .31-.133.354-.355V15.87c1.33-.222 2.216-1.153 2.216-2.35Z"/>
    <path fill="#fff" d="M9.74 18.173c-3.458-1.24-5.23-5.097-3.945-8.51a6.559 6.559 0 0 1 3.944-3.945c.178-.088.266-.221.266-.443v-.62c0-.178-.088-.31-.266-.355-.044 0-.133 0-.177.044-4.21 1.33-6.516 5.807-5.186 10.018a7.974 7.974 0 0 0 5.186 5.185c.177.09.355 0 .4-.177.043-.044.043-.088.043-.177v-.62c0-.134-.133-.31-.266-.4Zm4.698-13.829c-.178-.088-.355 0-.4.178-.043.044-.043.088-.043.177v.62c0 .178.133.355.266.444 3.457 1.24 5.23 5.097 3.944 8.51-.664 1.862-2.127 3.28-3.944 3.945-.178.088-.266.221-.266.443v.62c0 .178.088.31.266.355.044 0 .133 0 .177-.044 4.21-1.33 6.515-5.807 5.186-10.017a8.039 8.039 0 0 0-5.186-5.23Z"/>
  </g>
  <defs>
    <clipPath id="prefix__a">
      <path fill="#fff" d="M0 0h24v24H0z"/>
    </clipPath>
  </defs>
</svg>
