<svg fill="none" viewBox="0 0 24 24">
  <g clip-path="url(#prefix__a)">
    <path fill="#53AE94" d="M12 24c6.627 0 12-5.373 12-12S18.627 0 12 0 0 5.373 0 12s5.373 12 12 12Z"/>
    <path fill="#fff" d="M13.423 10.33V8.614h3.923V6H6.663v2.614h3.924v1.714C7.397 10.475 5 11.107 5 11.863c0 .757 2.399 1.388 5.587 1.536v5.495h2.837v-5.496C16.607 13.251 19 12.62 19 11.864s-2.393-1.387-5.576-1.534m0 2.603v-.002c-.08.005-.491.03-1.407.03-.732 0-1.247-.02-1.429-.03v.002c-2.817-.125-4.92-.615-4.92-1.202s2.103-1.077 4.92-1.202v1.915c.185.013.712.044 1.44.044.876 0 1.316-.036 1.396-.044V10.53c2.812.125 4.91.616 4.91 1.201 0 .585-2.099 1.076-4.91 1.201"/>
  </g>
  <defs>
    <clipPath id="prefix__a">
      <path fill="#fff" d="M0 0h24v24H0z"/>
    </clipPath>
  </defs>
</svg>
