<svg fill="#000000" viewBox="0 0 256 182" version="1.1" xmlns="http://www.w3.org/2000/svg" xmlns:xlink="http://www.w3.org/1999/xlink">
    <path d="M0,133.784717 L0,144.723089 L13.0419064,144.723089 L13.0419064,180.693508 L25.2423994,180.693508 L25.2423994,144.723089 L38.0739523,144.723089 L38.0739523,133.784717 L0,133.784717 Z M81.8274445,149.350863 C81.8274445,140.095317 75.3064913,133.784717 65.6302383,133.784717 L43.5431389,133.784717 L43.5431389,180.693508 L55.7436319,180.693508 L55.7436319,164.917009 L60.371405,164.917009 L68.9958915,180.693508 L83.0895644,180.693508 L72.7822514,163.234182 C77.4100246,161.551355 81.8274445,157.133936 81.8274445,149.350863 L81.8274445,149.350863 Z M55.7436319,144.723089 L64.3681183,144.723089 C67.5234181,144.723089 69.6269515,146.61627 69.6269515,149.561216 C69.6269515,152.295809 67.5234181,154.399342 64.3681183,154.399342 L55.7436319,154.399342 L55.7436319,144.723089 Z M86.665571,180.693508 L120.74281,180.693508 L120.74281,169.965489 L98.866064,169.965489 L98.866064,162.392769 L120.322104,162.392769 L120.322104,151.454396 L98.866064,151.454396 L98.866064,144.723089 L120.74281,144.723089 L120.74281,133.784717 L86.665571,133.784717 L86.665571,180.693508 Z M161.972062,143.250617 L161.972062,133.784717 L126.001643,133.784717 L126.001643,144.723089 L145.564502,144.723089 L126.001643,171.437962 L126.001643,180.693508 L161.972062,180.693508 L161.972062,169.755136 L142.409202,169.755136 L161.972062,143.250617 Z M187.635168,133.153657 C173.541495,133.153657 163.234182,143.46097 163.234182,157.344289 C163.234182,171.437962 173.541495,181.534922 187.635168,181.534922 C201.939195,181.534922 212.246507,171.227608 212.246507,157.344289 C212.246507,143.250617 201.939195,133.153657 187.635168,133.153657 Z M187.635168,170.386195 C180.483155,170.386195 175.645029,164.917009 175.645029,157.133936 C175.645029,149.350863 180.483155,143.881676 187.635168,143.881676 C194.787182,143.881676 199.835661,149.350863 199.835661,157.133936 C199.835661,165.127362 194.787182,170.386195 187.635168,170.386195 Z M245.692687,163.444536 C250.110107,161.761709 254.737879,157.344289 254.737879,149.561216 C254.737879,140.30567 248.216926,133.99507 238.540673,133.99507 L216.453574,133.99507 L216.453574,180.903861 L228.654067,180.903861 L228.654067,165.127362 L233.281841,165.127362 L241.906326,180.903861 L256,180.903861 L245.692687,163.444536 Z M228.443714,144.723089 L237.0682,144.723089 C240.2235,144.723089 242.327034,146.61627 242.327034,149.561216 C242.327034,152.295809 240.2235,154.399342 237.0682,154.399342 L228.443714,154.399342 L228.443714,144.723089 Z M147.878389,29.8701725 L147.878389,22.507806 C147.878389,10.0969597 137.360723,0 124.318817,0 C111.276911,0 100.759244,10.0969597 100.759244,22.507806 L100.759244,29.8701725 L91.0829909,29.8701725 L91.0829909,81.6170911 L124.52917,97.1832374 L157.975349,81.6170911 L157.975349,29.8701725 L147.878389,29.8701725 Z M112.749383,22.507806 C112.749383,16.8282662 118.008217,11.9901396 124.318817,11.9901396 C130.629417,11.9901396 135.888249,16.6179129 135.888249,22.507806 L135.888249,29.8701725 L112.749383,29.8701725 L112.749383,22.507806 Z M144.302383,72.9926048 L124.318817,82.2481511 L104.335251,72.9926048 L104.335251,42.0706655 L144.302383,42.0706655 L144.302383,72.9926048 Z"></path>
</svg>