<svg fill="none" viewBox="0 0 24 24">
  <g clip-path="url(#prefix__a)">
    <path fill="#A6A8A9" d="M12 24c6.627 0 12-5.373 12-12S18.627 0 12 0 0 5.373 0 12s5.373 12 12 12Z"/>
    <path fill="#fff" d="M10.763 6.102c-.68 1.156-1.241 2.112-1.25 2.125l-.013.024.276.173a5444.629 5444.629 0 0 0 2.072 1.292l.154.096.146-.091a4757.94 4757.94 0 0 0 2.35-1.468c.003-.002-.158-.281-.357-.62L12.89 5.51c-.486-.83-.886-1.51-.888-1.51l-1.238 2.102Z"/>
    <path fill="#fff" d="M9.505 8.76c0 .003 2.485 3.56 2.493 3.568.004.004.303-.42 1.254-1.781A706.93 706.93 0 0 0 14.5 8.758l-1.249.777c-.685.428-1.25.777-1.253.776A1871.956 1871.956 0 0 1 9.505 8.76Zm-5.029 5.616h2.285v.584H5.108v.826h1.556v.583H5.108v.827h1.653v.583H4.476v-3.403Zm2.914 0h1.556c.153 0 .294.028.423.083a.98.98 0 0 1 .336.233c.097.1.173.222.228.365.055.139.083.293.083.461 0 .166-.028.315-.083.448a1.023 1.023 0 0 1-.535.559c-.12.052-.246.08-.379.087l1.094 1.167h-.802l-1.094-1.167h-.194v1.167H7.39v-3.403Zm1.532 1.653c.062 0 .12-.013.175-.039a.47.47 0 0 0 .146-.107.544.544 0 0 0 .102-.578.517.517 0 0 0-.248-.282.405.405 0 0 0-.175-.04h-.9v1.046h.9Zm3.208 1.799c-.23 0-.445-.043-.646-.127a1.61 1.61 0 0 1-.525-.364 1.748 1.748 0 0 1-.355-.555 1.908 1.908 0 0 1-.126-.704 1.748 1.748 0 0 1 .481-1.259c.15-.156.324-.276.525-.36.201-.088.416-.131.647-.131.25 0 .465.043.646.13a1.527 1.527 0 0 1 .744.72c.068.143.115.272.14.39h-.655a1.166 1.166 0 0 0-.107-.21.862.862 0 0 0-.175-.204.817.817 0 0 0-.258-.156.835.835 0 0 0-.335-.063 1.01 1.01 0 0 0-.409.083.897.897 0 0 0-.32.228 1.04 1.04 0 0 0-.214.36c-.052.14-.078.296-.078.472 0 .175.026.333.078.476.051.14.123.26.213.36a.99.99 0 0 0 .321.228 1.064 1.064 0 0 0 .744.02.89.89 0 0 0 .433-.37 1.31 1.31 0 0 0 .107-.228h.656a1.552 1.552 0 0 1-.068.228 1.43 1.43 0 0 1-.127.272 1.518 1.518 0 0 1-.199.277 1.392 1.392 0 0 1-.661.423c-.14.043-.298.064-.476.064Zm1.971-.608 1.385-1.337c.03-.03.057-.058.083-.087a.423.423 0 0 0 .117-.214.586.586 0 0 0-.015-.35.401.401 0 0 0-.102-.151.473.473 0 0 0-.35-.146.504.504 0 0 0-.379.165.598.598 0 0 0-.117.185.678.678 0 0 0-.039.233h-.631c0-.175.029-.335.087-.48.058-.15.138-.276.238-.38.104-.104.227-.185.37-.243.142-.058.3-.087.471-.087.175 0 .332.027.472.082.142.055.262.131.36.229a.96.96 0 0 1 .228.345 1.131 1.131 0 0 1 .034.748 1.082 1.082 0 0 1-.127.243 1.29 1.29 0 0 1-.17.21 9.828 9.828 0 0 0-.19.184l-.801.778v.024h1.385v.608h-2.309v-.56Zm4.134.608a1.33 1.33 0 0 1-.55-.117 1.266 1.266 0 0 1-.447-.34 1.685 1.685 0 0 1-.301-.55 2.287 2.287 0 0 1-.112-.744c0-.278.037-.526.112-.743.074-.217.175-.4.301-.55a1.27 1.27 0 0 1 .447-.34c.172-.078.355-.117.55-.117.194 0 .377.04.549.117.172.078.32.191.447.34.126.15.227.333.301.55.075.217.112.465.112.744 0 .278-.037.526-.112.743-.074.217-.175.4-.3.55a1.274 1.274 0 0 1-.448.34 1.317 1.317 0 0 1-.55.117Zm0-.608a.674.674 0 0 0 .544-.277c.071-.097.128-.217.17-.36.042-.142.063-.311.063-.505 0-.195-.02-.363-.063-.506a1.096 1.096 0 0 0-.17-.355.671.671 0 0 0-.248-.214.675.675 0 0 0-.84.214 1.098 1.098 0 0 0-.171.355 1.796 1.796 0 0 0-.063.506c0 .194.02.363.063.505.042.143.099.263.17.36a.673.673 0 0 0 .544.277Z"/>
  </g>
  <defs>
    <clipPath id="prefix__a">
      <path fill="#fff" d="M0 0h24v24H0z"/>
    </clipPath>
  </defs>
</svg>
