<svg fill="none" viewBox="0 0 24 24">
  <g clip-path="url(#prefix__a)">
    <path fill="#171C1F" d="M12 24c6.627 0 12-5.373 12-12S18.627 0 12 0 0 5.373 0 12s5.373 12 12 12Z"/>
    <path fill="#F7B330" d="M8.457 10.927h.007l.115.04.108.04.115.034.108.048.114.04.108.04.115.041.108.04.108.041.108.04.115.041.108.047.115.034.108.04.115.041.108.047.114.041.108.034.108.04.115.047.115.041v-1.579H8.309l-.108.053-.257.135-.263.142-.263.128-.25.135-.263.142-.264.128-.256.142-.263.135-.257.128-.256.142-.237.122-.027 3.868.264.182.256.182.257.176.263.189.256.182.264.183.114.087.149-.189.25-.337.027-.034-.027-.02-.25-.183-.263-.182-.264-.182-.256-.182-.263-.19-.068-.04.02-3.132.048-.027.263-.128.256-.129.264-.128.263-.128.25-.135.263-.129.263-.121.257-.135.256-.128Z"/>
    <path fill="#F7B330" d="m12.926 18.305-.216.088-.243.101-.243.095-.243.1-.108.041-.128-.06-.243-.129-.243-.114-.236-.129-.243-.121-.243-.115-.243-.128-.243-.122-.243-.121-.243-.122-.244-.128-.229-.115-.243-.121-.027-.014v-3.159H8.12v3.591l.243.115.243.122.243.128.243.115.23.128.243.121.243.122.243.121.243.122.243.121.243.122.243.128.236.115.243.128.243.115.095.054.141-.067.243-.088.243-.101.243-.102.237-.094.243-.095-.243-.607-.02-.04Zm4.314-4.388.014 1.485-.061.054-.412.284-.412.297-.412.297-.411.29-.412.29-.405.297-.412.29-.243.176-.169-.128-.405-.317-.412-.31-.411-.318-.405-.31-.075-.055v-1.6l.075-.067.405-.432.411-.425.412-.432.405-.426.399-.418H9.396l.412.432.405.425.411.425.412.432.405.426.06.06v1.938l.352.277.418.317.405.31.412.318.412.31.405.318.149.114.263-.189.412-.283.405-.297.412-.297.411-.284.412-.297.412-.297.412-.283.412-.297.337-.25.068-1.823-.405-.013-.365-.014ZM6.014 10.46h.047l.007-1.984.263-.169.33-.195.325-.196.324-.203.324-.195.33-.203.318-.196.33-.196.325-.202.33-.203h.007l.31.183.332.182.324.189.324.182.324.183.324.182.324.189.317.182.014-.027.323-.587-.323-.19-.331-.181-.324-.183-.324-.182-.324-.189-.324-.182-.324-.183-.331-.189-.318-.182-.013-.007-.317.19-.324.202-.331.202-.317.203-.331.196-.324.195-.324.203-.324.196-.331.202-.317.196-.331.196-.31.196-.014 2.37h.324l.33.006Z"/>
    <path fill="#F7B330" d="m18.705 8.645-.169-.135-.169-.135-.168-.142-.17-.135-.168-.135-.175-.135-.17-.135-.168-.135-.175-.142-.129-.094-.047.054-.169.209-.169.216-.047.054.047.047.17.142.168.142.175.142.176.141.169.149.169.142.175.141.081.068.007 3.193-.088.06-.175.109-.17.108-.168.108-.175.108-.176.108-.169.108-.169.108-.168.108-.17.108-.168.108-.175.108-.17.108-.168.108-.169.108-.175.108-.169.108.169.27.175.27.027.047.142-.088.169-.1.169-.109.175-.101.169-.115.169-.101.168-.108.17-.101.168-.108.175-.102.176-.114.169-.102.169-.108.175-.1.169-.109.169-.101.168-.115.17-.101.168-.108V8.645Zm-5.569 1.904v1.377l.054-.02.23-.088.229-.095.223-.088.229-.094.23-.095.222-.087.23-.095.23-.088.222-.094.23-.088.222-.094V6.72l-.256-.162-.263-.149-.264-.148-.256-.162-.264-.149-.263-.148-.256-.155-.264-.156-.256-.155-.263-.148-.264-.156-.256-.155-.257-.148-.263-.149-.142-.08-.121.068-.264.141-.263.135-.25.149-.263.142-.263.135-.263.148.263.149.263.148.162.101.101-.054.25-.135.263-.141.264-.135.101-.054.162.094.263.149.257.148.256.155.264.156.263.148.256.155.264.156.256.148.263.149.264.162.256.148.088.048v3.078H13.15"/>
    <path fill="#F7B330" d="m13.136 11.926 2.551-1.026-2.551-.71M10.8 11.926v-1.708l-2.336.695L10.8 11.92"/>
  </g>
  <defs>
    <clipPath id="prefix__a">
      <path fill="#fff" d="M0 0h24v24H0z"/>
    </clipPath>
  </defs>
</svg>
