<svg fill="none" viewBox="0 0 24 24">
  <g clip-path="url(#prefix__a)">
    <path fill="#162B76" d="M12 24c6.627 0 12-5.373 12-12S18.627 0 12 0 0 5.373 0 12s5.373 12 12 12Z"/>
    <path fill="#88BDF3" d="M12 11.245A3.623 3.623 0 1 0 12 4a3.623 3.623 0 0 0 0 7.245Z"/>
    <path fill="#3075EE" d="M12 20a3.623 3.623 0 1 0 0-7.245A3.623 3.623 0 0 0 12 20Z"/>
    <path fill="#5795F1" d="M16.377 15.623a3.623 3.623 0 1 0 0-7.246 3.623 3.623 0 0 0 0 7.246Z"/>
    <path fill="#205FEC" d="M7.623 15.623a3.623 3.623 0 1 0 0-7.246 3.623 3.623 0 0 0 0 7.246Z"/>
    <path fill="#134BEF" d="M11.147 11.147a3.623 3.623 0 0 1-2.664-2.664 3.646 3.646 0 0 1 2.664 2.664Z"/>
    <path fill="#0932E8" d="M8.475 15.524a3.622 3.622 0 0 1 2.665-2.664 3.647 3.647 0 0 1-2.665 2.665Z"/>
    <path fill="#164BEA" d="M12.853 12.853a3.623 3.623 0 0 1 2.664 2.664 3.646 3.646 0 0 1-2.664-2.664Z"/>
    <path fill="#3170F1" d="M15.524 8.475a3.623 3.623 0 0 1-2.664 2.665 3.646 3.646 0 0 1 2.665-2.665Z"/>
  </g>
  <defs>
    <clipPath id="prefix__a">
      <path fill="#fff" d="M0 0h24v24H0z"/>
    </clipPath>
  </defs>
</svg>
