<svg xmlns="http://www.w3.org/2000/svg" width="24" height="24" fill="none" viewBox="0 0 24 24">
    <circle cx="12" cy="12" r="12" fill="#052267" fill-opacity=".76" />
    <path stroke="#fff" stroke-width=".6" d="M19.2 12c0 3.976-3.224 7.2-7.2 7.2S4.8 15.976 4.8 12 8.024 4.8 12 4.8s7.2 3.224 7.2 7.2z"/>
    <path fill="#fff" d="M15.342 10.13c-.162-.99-1.014-1.413-2.165-1.514V7.149h-.89l-.007 1.46c-.234 0-.472-.011-.712-.006l.004-1.453h-.892v1.466c-.194.005-1.802.002-1.802.002l-.001.954s.658-.013.649 0c.363-.002.48.21.514.39v4.019c-.017.112-.085.293-.335.296.012.012-.648 0-.648 0l-.179 1.067 1.801.005v1.483h.89l.004-1.493c.244.006.482.008.715.007l-.004 1.485h.892v-1.48c1.369.02 2.488-.558 2.623-1.848.075-.78-.584-1.605-1.246-1.85.514-.262.866-.748.789-1.522zm-1.25 3.175c-.152 1.273-1.9.981-2.503.984l-.015-1.967c.605-.002 2.517-.173 2.518.983zm-.382-2.772c-.106 1.139-1.6.888-2.103.886l-.016-1.785c.503.006 2.023-.206 2.12.899z"/>
</svg>
