<svg xmlns="http://www.w3.org/2000/svg" width="24" height="24" fill="none" viewBox="0 0 24 24">
    <circle cx="12" cy="12" r="12" fill="#008DE4" fill-opacity=".9" />
    <path fill="#fff" d="M14.07 6.994H9.58l-.372 2.08 4.053.005c1.996 0 2.586.725 2.569 1.926-.01.617-.275 1.659-.391 1.996-.308.9-.94 1.928-3.307 1.924l-3.94-.002-.373 2.082h4.48c1.58 0 2.252-.184 2.963-.512 1.579-.73 2.518-2.287 2.894-4.319.56-3.026-.139-5.18-4.085-5.18z"/>
    <path fill="#fff" d="M7.642 10.955c-1.176 0-1.345.767-1.455 1.23-.146.607-.193.851-.193.851h4.597c1.176 0 1.345-.766 1.455-1.229.146-.607.194-.852.194-.852H7.642z"/>
</svg>
