<svg xmlns="http://www.w3.org/2000/svg" width="24" height="24" fill="none" viewBox="0 0 24 24">
    <circle cx="12" cy="12" r="12" fill="#2768C6" fill-opacity=".9" />
    <path fill="#fff" d="M6.025 9.176h7.753s2.676-.025.826 3.427c0 0-1.351 2.7-4.702 2.65l1.805-4.611c.022-.055.03-.114.024-.172-.006-.059-.026-.115-.058-.164-.033-.05-.076-.09-.128-.119-.051-.028-.109-.044-.168-.045l-2.376-.04L6 17.405s1 .1 1.55.05l-.3.75h1.416c.04 0 .078-.011.11-.034.032-.022.057-.054.07-.091l.255-.675.6-.05-.35.85h1.381c.05 0 .1-.015.143-.043.041-.029.074-.07.092-.117l.385-.99s4.202-.7 6.103-4.102c0 0 2.55-3.952-.45-5.352-.585-.269-1.21-.438-1.851-.5l.35-.866c.01-.026.015-.053.012-.081-.002-.028-.012-.054-.027-.078-.016-.023-.036-.042-.06-.055-.025-.014-.052-.02-.08-.021h-1.296l-.4 1.05h-.55l.31-.815c.01-.026.013-.054.01-.082-.004-.027-.014-.054-.03-.077-.015-.022-.036-.041-.06-.055-.025-.013-.052-.02-.08-.021h-1.3l-.4 1.05H7.51c-.109 0-.216.03-.31.085-.092.055-.169.135-.22.23l-.956 1.811z"/>
</svg>
