<svg xmlns="http://www.w3.org/2000/svg" width="24" height="24" fill="none" viewBox="0 0 24 24">
    <circle cx="12" cy="12" r="12" fill="#C2A633" fill-opacity=".9" />
    <path fill="#fff" d="M12 24c6.627 0 12-5.373 12-12S18.627 0 12 0 0 5.373 0 12s5.373 12 12 12z" />
    <path fill="#C2A633" fill-opacity=".9"
        d="M12.288 7.908h-1.715v3.38h2.698v1.416h-2.698v3.38h1.799c.462 0 3.794.052 3.789-3.933-.005-3.985-3.232-4.243-3.873-4.243z" />
    <path fill="#C2A633" fill-opacity=".9"
        d="M12 0C5.373 0 0 5.373 0 12c0 6.628 5.373 12 12 12 6.628 0 12-5.372 12-12 0-6.627-5.372-12-12-12zm.472 18.481H8.126v-5.777H6.594v-1.416h1.532V5.511h3.73c.882 0 6.726-.184 6.726 6.593 0 6.89-6.11 6.377-6.11 6.377z" />
</svg>