<svg xmlns="http://www.w3.org/2000/svg" width="24" height="24" fill="none" viewBox="0 0 24 24">
    <circle cx="12" cy="12" r="12" fill="#454A75" fill-opacity=".9"/>
    <path fill="#fff" d="M9.83 8.711l-2.206 3.751-.024.043.487.304 2.847 1.775.81.506.272.17.258-.16 3.225-2.013c.505-.315.92-.576.925-.58.004-.003-.28-.495-.632-1.092l-2.205-3.75C12.725 6.2 12.017 5 12.015 5c-.002 0-.985 1.67-2.185 3.711z"/>
    <path fill="#fff" d="M7.609 13.401c0 .006 4.387 6.285 4.4 6.298.008.007.535-.74 2.215-3.144 1.212-1.735 2.203-3.155 2.202-3.156-.002-.002-.992.615-2.204 1.37-1.21.757-2.207 1.372-2.213 1.37-.008-.003-3.783-2.356-4.367-2.722-.018-.011-.033-.018-.033-.016z"/>
</svg>
