<svg xmlns="http://www.w3.org/2000/svg" width="24" height="24" fill="none" viewBox="0 0 24 24">
    <circle cx="12" cy="12" r="12" fill="#186C9D" fill-opacity="0.9" />
    <path fill="#fff"
        d="M14.446 17.625v-.002c.116.003.232-.01.344-.037.657-.154 1.213-.727 1.345-1.347l2.615-9.822-2.079-.01-1.714 6.425-4.636-6.447-.002.003.002-.008-.766-.005c-.116-.001-.231.011-.344.037-.656.155-1.212.729-1.345 1.348L5.25 17.584l2.08.009 1.713-6.426 4.636 6.448h.002l.765.01zM9.5 9.455l.362-1.358 4.636 6.45-.362 1.357-4.635-6.45H9.5z" />
</svg>