<svg xmlns="http://www.w3.org/2000/svg" width="24" height="24" fill="none" viewBox="0 0 24 24">
    <circle cx="12" cy="12" r="12" fill="#24292E" />
    <g clip-path="url(#clip0)">
        <path fill="#fff"
            d="M16.307 7h1.745l-3.632 3.596c-1.316 1.302-3.448 1.302-4.764 0L6.022 7H7.77l2.76 2.732c.401.396.943.618 1.508.618.564 0 1.106-.222 1.508-.618L16.307 7zM7.746 16.999H6l3.656-3.618c1.315-1.302 3.447-1.302 4.764 0l3.656 3.618H16.33l-2.783-2.754c-.402-.396-.944-.618-1.508-.618-.565 0-1.107.222-1.509.618l-2.784 2.754z" />
    </g>
    <defs>
        <clipPath id="clip0">
            <path fill="#fff" d="M0 0H12.075V10H0z" transform="translate(6 7)" />
        </clipPath>
    </defs>
</svg>