<svg fill="none" viewBox="0 0 24 24">
  <path fill="#052267" fill-opacity=".76" d="M12 24c6.627 0 12-5.373 12-12S18.627 0 12 0 0 5.373 0 12s5.373 12 12 12"/>
  <path stroke="#fff" stroke-width=".6" d="M19.2 12a7.2 7.2 0 1 1-14.4 0 7.2 7.2 0 0 1 14.4 0Z"/>
  <path fill="#fff" d="M15.342 10.132c-.162-.991-1.014-1.414-2.165-1.516V7.15h-.89l-.007 1.46c-.234 0-.472-.012-.712-.006l.004-1.453h-.892v1.466c-.194.005-1.802.001-1.802.001l-.001.955s.658-.013.649-.001c.363-.001.48.21.514.39v4.02c-.017.112-.085.293-.335.296.012.011-.648-.001-.648-.001l-.179 1.067s1.592.004 1.801.006v1.483h.89l.004-1.493q.366.009.715.007l-.004 1.485h.892v-1.481c1.369.02 2.488-.557 2.623-1.847.075-.78-.584-1.605-1.246-1.85.514-.262.866-.748.789-1.522m-1.25 3.174c-.152 1.273-1.9.981-2.503.984l-.015-1.967c.605-.003 2.517-.174 2.518.982Zm-.382-2.772c-.106 1.138-1.6.887-2.103.886l-.016-1.785c.503.005 2.023-.206 2.12.899Z"/>
</svg>
