<svg fill="none" viewBox="0 0 24 24">
  <path fill="#E75F5F" d="M12 24c6.628 0 12-5.372 12-12 0-6.627-5.372-12-12-12C5.374 0 0 5.373 0 12c0 6.628 5.373 12 12 12"/>
  <path fill="#fff" fill-rule="evenodd" d="m8.338 6.055.009.003a.1.1 0 0 1-.029.02zm.083.023.026-.097-.1.077zm0 0-.137.535c-.054.213-.108.427-.162.631-.036.075 0 .112.072.112l.174.044c.242.06.503.126.764.216.325.111.506.446.434.743a271 271 0 0 1-1.372 5.722c-.036.26-.253.408-.541.334a6 6 0 0 1-.795-.186c-.108 0-.144 0-.18.112a19 19 0 0 1-.487 1.17c-.027.065-.054.13-.09.204.866.223 1.696.446 2.526.67a.24.24 0 0 1-.023.099q-.012.026-.013.049c-.18.594-.325 1.226-.47 1.857-.035.075-.035.112.073.15.36.073.722.148 1.083.26.095.032.106.007.133-.05l.011-.025c.036-.167.081-.335.126-.502q.07-.25.127-.501c.036-.168.081-.335.126-.502s.09-.334.126-.502c.325.075.614.15.903.223.052.027.048.054.041.095a.3.3 0 0 0-.005.054c-.18.595-.325 1.226-.47 1.858-.035.074-.035.111.073.148.162.038.334.084.505.13q.26.073.505.13c.173.072.18.04.213-.092l.004-.019c.072-.297.144-.604.217-.91.072-.307.144-.613.216-.91q.054-.168.217-.112c.722.111 1.444.186 2.201.074a2.22 2.22 0 0 0 1.48-.817c.325-.409.506-.855.65-1.375.108-.409.144-.854.072-1.263a2.34 2.34 0 0 0-.866-1.263c-.072-.056-.144-.102-.217-.149a3 3 0 0 1-.216-.149.2.2 0 0 0 .097-.023.1.1 0 0 1 .047-.014c.289-.111.578-.26.794-.483.289-.297.433-.668.542-1.077.144-.595.108-1.19-.217-1.746a3.1 3.1 0 0 0-.938-.892l-1.191-.557c-.109-.038-.145-.075-.109-.186.072-.186.109-.372.145-.557.108-.446.216-.892.325-1.375-.019 0-.028-.01-.037-.019-.009-.01-.018-.018-.036-.018q-.255-.071-.496-.13c-.212-.053-.417-.104-.623-.168-.072-.037-.108 0-.108.075l-.108.446a20 20 0 0 0-.361 1.411l-.036.046c-.024.033-.048.066-.072.066l-.452-.112-.45-.111c.035-.074.035-.111.035-.149.073-.297.145-.603.217-.91.072-.306.144-.613.216-.91.037-.074.037-.112-.072-.149a11 11 0 0 1-1.046-.26c-.109-.037-.145 0-.18.112q-.109.47-.218.928c-.072.307-.144.613-.216.93-.036.11-.072.148-.18.11-.199-.055-.398-.101-.596-.148a14 14 0 0 1-.596-.148c-.198-.056-.397-.103-.595-.15a19 19 0 0 1-.513-.125m1.758 9.155c.036 0 .072.037.072.037l.274.072c.496.131 1.014.268 1.531.3.433.037.83.037 1.227-.112.686-.223.975-1.151.578-1.746-.18-.297-.47-.483-.758-.669-.63-.36-1.364-.51-2.066-.655l-.064-.014c-.099-.033-.107-.005-.135.084l-.01.028a9 9 0 0 1-.126.539 9 9 0 0 0-.126.539c-.082.296-.153.592-.225.896q-.08.342-.172.701m3.429-3.864a2.3 2.3 0 0 1-.397.074c-.42 0-.781-.059-1.155-.119a18 18 0 0 0-.433-.067q-.106-.027-.199-.055l-.198-.056c-.073-.037-.109-.074-.073-.149.217-.78.397-1.523.578-2.303.036-.112.072-.149.18-.112l.319.086c.423.112.829.219 1.233.397.325.149.65.372.83.706.362.632 0 1.45-.685 1.598" clip-rule="evenodd"/>
</svg>
