<svg fill="none" viewBox="0 0 24 24">
  <path fill="#E75F5F" d="M12 24c6.628 0 12-5.372 12-12 0-6.627-5.372-12-12-12C5.373 0 0 5.373 0 12c0 6.628 5.373 12 12 12"/>
  <path fill="#fff" d="m9.83 8.711-2.206 3.751-.024.043.487.304 2.847 1.775.81.506.272.17.258-.16 3.225-2.013c.505-.315.92-.576.925-.58.004-.003-.28-.495-.632-1.092l-2.205-3.75A740 740 0 0 0 12.015 5c-.002 0-.985 1.67-2.185 3.711"/>
  <path fill="#fff" d="M7.609 13.401c0 .006 4.387 6.285 4.4 6.298.008.007.535-.74 2.215-3.144 1.212-1.735 2.203-3.155 2.202-3.156-.002-.002-.992.615-2.204 1.37-1.21.757-2.207 1.372-2.213 1.37-.008-.003-3.783-2.356-4.367-2.722-.018-.011-.033-.018-.033-.016"/>
</svg>
