<svg xmlns="http://www.w3.org/2000/svg" width="360" height="280" viewBox="0 0 360 280">
    <defs>
        <filter id="a" width="105.2%" height="107.9%" x="-2.6%" y="-3.9%" filterUnits="objectBoundingBox">
            <feOffset dx="1" dy="2" in="SourceAlpha" result="shadowOffsetOuter1"/>
            <feColorMatrix in="shadowOffsetOuter1" result="shadowMatrixOuter1" values="0 0 0 0 0.7 0 0 0 0 0.7 0 0 0 0 0.7 0 0 0 1 0"/>
            <feMerge>
                <feMergeNode in="shadowMatrixOuter1"/>
                <feMergeNode in="SourceGraphic"/>
            </feMerge>
        </filter>
        <filter id="b" width="118.2%" height="107.6%" x="-9.1%" y="-4.2%" filterUnits="objectBoundingBox">
            <feOffset dx="1" dy="2" in="SourceAlpha" result="shadowOffsetOuter1"/>
            <feColorMatrix in="shadowOffsetOuter1" result="shadowMatrixOuter1" values="0 0 0 0 0.7 0 0 0 0 0.7 0 0 0 0 0.7 0 0 0 1 0"/>
            <feMerge>
                <feMergeNode in="shadowMatrixOuter1"/>
                <feMergeNode in="SourceGraphic"/>
            </feMerge>
        </filter>
        <filter id="c" width="153.3%" height="117.4%" x="-26.7%" y="-8.7%" filterUnits="objectBoundingBox">
            <feOffset dx="1" dy="2" in="SourceAlpha" result="shadowOffsetOuter1"/>
            <feColorMatrix in="shadowOffsetOuter1" result="shadowMatrixOuter1" values="0 0 0 0 0.7 0 0 0 0 0.7 0 0 0 0 0.7 0 0 0 1 0"/>
            <feMerge>
                <feMergeNode in="shadowMatrixOuter1"/>
                <feMergeNode in="SourceGraphic"/>
            </feMerge>
        </filter>
    </defs>
    <g fill="none" fill-rule="evenodd" transform="translate(36 25.009)">
        <g stroke-width="3.877" filter="url(#a)" transform="translate(8.446 78.359)">
            <circle cx="117.147" cy="74.844" r="74.844" stroke="#D8D9DA"/>
            <path stroke="#BEBDC0" d="M158.103 137.501a74.407 74.407 0 0 1-26.821 10.855"/>
            <path stroke="#D8D9DA" d="M231.787 46.844v10.889c-.04 44.59-43.873 81.874-103.583 91.145C104.15 152.612.034 163.822 0 57.845V45.831"/>
        </g>
        <path stroke="#BEBDC0" stroke-width="3.877" d="M240.193 119.05l.011 17.041"/>
        <g stroke="#C6E2BA" stroke-width="1.057">
            <path d="M275.502 45.182l10.555-.192M194.408 46.661l10.555-.194M239.59 10.555L239.398 0M241.067 91.649l-.192-10.555M265.627 70.31l7.6 7.326M207.24 14.013l7.598 7.327M264.718 20.43l7.326-7.598M208.421 78.819l7.327-7.6M272.809 59.358l9.748 4.05M197.908 28.242l9.748 4.05M253.766 13.248l4.05-9.748M222.65 88.149l4.05-9.748M253.699 78.429l4.029 9.757M222.738 3.463l4.029 9.757M272.837 32.36l9.757-4.03M197.871 63.32l9.757-4.029"/>
        </g>
        <g filter="url(#b)" transform="translate(212.783 12.549)">
            <path fill="#BEBDC0" fill-rule="nonzero" d="M21.294 77.675h12.251v22.949H21.294z"/>
            <path fill="#D8D9DA" fill-rule="nonzero" d="M23.423 94.975h7.994v23.384h-7.994z"/>
            <path fill="#7A7F80" fill-rule="nonzero" d="M31.065 95.328v22.679h-7.29v-22.68h7.29m.705-.704h-8.7v24.089h8.7v-24.09z"/>
            <path fill="#D8D9DA" fill-rule="nonzero" d="M20.326 88.798H34.51v21.058H20.326z"/>
            <path fill="#7A7F80" fill-rule="nonzero" d="M34.16 89.15v20.353H20.684V89.15h13.481m.705-.705H19.98v21.763h14.89V88.445z"/>
            <path fill="#FFF" fill-rule="nonzero" d="M31.19 108.243h1.35V92.268a1.35 1.35 0 0 0-1.35-1.35v17.325zM26.7 117.783h4.094v-4.096a4.094 4.094 0 0 0-4.095 4.096z"/>
            <path fill="#7A7F80" fill-rule="nonzero" d="M23.652 110.085h7.538v2.311h-7.538z"/>
            <path fill="#FFF" fill-rule="nonzero" stroke="#7A7F80" stroke-width=".705" d="M48.975 0H5.865A5.865 5.865 0 0 0 0 5.864V53.52c0 6.618 1.569 13.043 5.733 18.18l11.914 14.715c.232.285.58.451.947.451h17.65c.369 0 .717-.166.949-.451L49.105 71.7c4.167-5.143 5.734-11.562 5.734-18.18V5.864A5.865 5.865 0 0 0 48.975 0z"/>
            <path fill="#D8D9DA" fill-rule="nonzero" d="M49.872 54.862V7.382a3.236 3.236 0 0 0-3.238-3.237H8.264a3.238 3.238 0 0 0-3.237 3.236v47.502c0 3.621.861 7.191 2.513 10.414l2.25 4.39-3.401 2.82 11.258 13.904c.232.286.58.451.947.451h17.65c.369 0 .717-.165.949-.45L48.45 72.506l-3.372-2.806 2.263-4.393a22.85 22.85 0 0 0 2.531-10.446z"/>
            <path fill="#D8D9DA" fill-rule="nonzero" d="M7.364 8.518c-.437 0-.86-.155-1.194-.437L2.77 5.205a1.85 1.85 0 1 1 2.39-2.82L8.56 5.26a1.85 1.85 0 0 1-1.196 3.264v-.007z"/>
            <rect width="39.063" height="39.063" x="7.889" y="12.672" fill="#7A7F80" fill-rule="nonzero" rx="2.265"/>
            <rect width="39.063" height="39.063" x="7.889" y="16.69" fill="#FFF" fill-rule="nonzero" rx="2.265"/>
            <rect width="38.358" height="38.358" x="8.241" y="15.196" fill="#C6E2BA" fill-rule="nonzero" rx="1.912"/>
            <path fill="#7A7F80" fill-rule="nonzero" d="M44.687 15.548c.862.001 1.56.7 1.56 1.562v34.532c0 .861-.698 1.56-1.56 1.561H10.153a1.562 1.562 0 0 1-1.56-1.561V17.11c0-.862.699-1.56 1.56-1.562h34.534m0-.705H10.153A2.265 2.265 0 0 0 7.89 17.11v34.532a2.265 2.265 0 0 0 2.264 2.266h34.534a2.267 2.267 0 0 0 2.258-2.266V17.11a2.267 2.267 0 0 0-2.265-2.267h.007z"/>
            <path stroke="#7A7F80" stroke-width=".705" d="M48.975 0H5.865A5.865 5.865 0 0 0 0 5.864V53.52c0 6.618 1.569 13.043 5.733 18.18l11.914 14.715c.232.285.58.451.947.451h17.65c.369 0 .717-.166.949-.451L49.105 71.7c4.167-5.143 5.734-11.562 5.734-18.18V5.864A5.865 5.865 0 0 0 48.975 0z"/>
            <path fill="#7A7F80" fill-rule="nonzero" d="M23.652 110.085h7.538v2.311h-7.538z"/>
            <path fill="#FFF" d="M20.971 33.564a1.144 1.144 0 0 1 1.61 0l3.308 3.273 7.855-7.774a1.147 1.147 0 0 1 1.609 0 1.117 1.117 0 0 1 0 1.586l-9.466 9.364-4.916-4.864a1.116 1.116 0 0 1 0-1.585z"/>
        </g>
        <circle cx="125.593" cy="153.206" r="39.509" fill="#C6E2BA" fill-rule="nonzero"/>
        <g filter="url(#c)" transform="translate(0 90.24)">
            <path fill="#BEBDC0" fill-rule="nonzero" d="M1.32 0h12.251v22.949H1.32z"/>
            <path stroke="#BEBDC0" stroke-width="3.877" d="M7.436 28.827l.01 17.041"/>
            <path fill="#D8D9DA" fill-rule="nonzero" d="M3.447 17.3h7.994v23.384H3.447z"/>
            <path fill="#7A7F80" fill-rule="nonzero" d="M11.09 17.653v22.679H3.8v-22.68h7.29m.704-.704h-8.7v24.089h8.7v-24.09z"/>
            <path fill="#D8D9DA" fill-rule="nonzero" d="M.352 11.123h14.184v21.058H.352z"/>
            <path fill="#7A7F80" fill-rule="nonzero" d="M14.184 11.475v20.353H.705V11.475h13.48m.704-.705H0v21.763h14.89V10.77z"/>
            <path fill="#FFF" fill-rule="nonzero" d="M11.214 30.568h1.35V14.593a1.35 1.35 0 0 0-1.35-1.35v17.325zM2.67.666h1.35v8.733H2.67zM6.726 40.108h4.094v-4.096a4.094 4.094 0 0 0-4.094 4.096z"/>
            <path fill="#7A7F80" fill-rule="nonzero" d="M3.668 32.434h7.538v2.311H3.668z"/>
        </g>
        <path stroke="#C6E2BA" stroke-width="1.057" d="M170.632 153.229h5.769M74.787 153.229h5.768M125.593 108.192v-5.769M125.593 204.037v-5.768M157.441 185.077l4.078 4.08M89.667 117.304l4.079 4.078M157.441 121.382l4.078-4.078M89.667 189.157l4.079-4.08M166.864 171.265l5.286 2.308M79.038 132.885l5.285 2.311M143.628 111.96l2.309-5.286M105.249 199.786l2.311-5.285M142.024 195.165l2.105 5.37M107.059 105.923l2.104 5.372M167.529 136.8l5.37-2.105M78.287 171.765l5.372-2.104M169.832 161.68l5.667 1.082M75.689 143.696l5.665 1.082M134.044 108.99l1.082-5.664M116.06 203.135l1.082-5.666M150.9 190.488l3.241 4.771M97.047 111.2l3.241 4.773M162.851 127.924l4.771-3.241M83.564 181.778l4.773-3.242M162.747 178.688l4.759 3.261M83.682 124.512l4.759 3.26M151.052 116.077l3.26-4.759M96.876 195.142l3.26-4.758M133.864 197.502l1.059 5.672M116.264 103.287l1.06 5.67M169.866 144.96l5.671-1.059M75.65 162.56l5.67-1.059"/>
        <circle cx="146.88" cy="115.677" r="7.95" fill="#F9C447" fill-rule="nonzero" opacity=".4"/>
        <circle cx="146.88" cy="115.677" r="5.383" fill="#F9C447" fill-rule="nonzero"/>
        <path fill="#FFF" fill-rule="nonzero" d="M146.833 112.296l3.42 3.348-3.349 3.42-3.419-3.349z"/>
        <circle cx="67.883" cy="196.358" r="5.709" fill="#F9C447" fill-rule="nonzero" opacity=".4"/>
        <circle cx="67.883" cy="196.358" r="3.865" fill="#F9C447" fill-rule="nonzero"/>
        <path fill="#FFF" fill-rule="nonzero" d="M67.846 193.923l2.455 2.405-2.405 2.456-2.455-2.405z"/>
        <circle cx="152.59" cy="190.648" r="5.709" fill="#F9C447" fill-rule="nonzero" opacity=".4"/>
        <circle cx="152.59" cy="190.648" r="3.865" fill="#F9C447" fill-rule="nonzero"/>
        <path fill="#FFF" fill-rule="nonzero" d="M152.548 188.218l2.455 2.405-2.405 2.456-2.455-2.405z"/>
        <circle cx="93.775" cy="81.91" r="5.709" fill="#F9C447" fill-rule="nonzero" opacity=".4"/>
        <circle cx="93.775" cy="81.91" r="3.865" fill="#F9C447" fill-rule="nonzero"/>
        <path fill="#FFF" fill-rule="nonzero" d="M93.74 79.481l2.456 2.405-2.405 2.456-2.455-2.405z"/>
        <circle cx="92.091" cy="130.488" r="5.709" fill="#F9C447" fill-rule="nonzero" opacity=".4"/>
        <circle cx="92.091" cy="130.488" r="3.865" fill="#F9C447" fill-rule="nonzero"/>
        <path fill="#FFF" fill-rule="nonzero" d="M92.054 128.058l2.456 2.405-2.405 2.455-2.456-2.404z"/>
        <circle cx="197.397" cy="153.229" r="8.162" fill="#F9C447" fill-rule="nonzero" opacity=".4"/>
        <circle cx="197.397" cy="153.229" r="5.525" fill="#F9C447" fill-rule="nonzero"/>
        <path fill="#FFF" fill-rule="nonzero" d="M197.345 149.76l3.509 3.436-3.437 3.51-3.51-3.437z"/>
        <circle cx="29.976" cy="172.1" r="5.709" fill="#F9C447" fill-rule="nonzero" opacity=".4"/>
        <circle cx="29.976" cy="172.1" r="3.865" fill="#F9C447" fill-rule="nonzero"/>
        <path fill="#FFF" fill-rule="nonzero" d="M29.941 169.663l2.456 2.405-2.405 2.456-2.455-2.405z"/>
        <circle cx="182.11" cy="64.285" r="5.709" fill="#F9C447" fill-rule="nonzero" opacity=".4"/>
        <circle cx="182.11" cy="64.285" r="3.865" fill="#F9C447" fill-rule="nonzero"/>
        <path fill="#FFF" fill-rule="nonzero" d="M182.074 61.862l2.456 2.405-2.405 2.456-2.456-2.405z"/>
        <circle cx="56.457" cy="42.177" r="10.067" fill="#F9C447" fill-rule="nonzero" opacity=".4"/>
        <circle cx="56.457" cy="42.177" r="6.814" fill="#F9C447" fill-rule="nonzero"/>
        <path fill="#FFF" fill-rule="nonzero" d="M56.409 37.894l4.328 4.239-4.238 4.328-4.329-4.238z"/>
        <circle cx="275.534" cy="94.483" r="8.52" fill="#F9C447" fill-rule="nonzero" opacity=".4"/>
        <circle cx="275.534" cy="94.483" r="5.767" fill="#F9C447" fill-rule="nonzero"/>
        <path fill="#FFF" fill-rule="nonzero" d="M275.478 90.868l3.663 3.587-3.587 3.664-3.663-3.588z"/>
        <path fill="#FFF" d="M110.032 151.336a2.633 2.633 0 0 1 3.701 0l7.605 7.524 18.055-17.873a2.631 2.631 0 0 1 3.701 0 2.568 2.568 0 0 1 0 3.657l-21.763 21.53-11.299-11.18a2.568 2.568 0 0 1 0-3.658z"/>
    </g>
</svg>
