<svg xmlns="http://www.w3.org/2000/svg" width="160" height="160" viewBox="0 0 160 160">
    <g fill="none" fill-rule="evenodd" stroke="#D57A70" transform="translate(10 10)">
        <path stroke-width="2.171" d="M30.448 30.553L20.325 20.455M118.9 118.77l-10.123-10.097M30.553 108.777L20.455 118.9M118.77 20.325l-10.097 10.123M69.54 14.3L69.52.002M69.705 139.223l-.02-14.297M14.3 69.685l-14.298.02M139.223 69.52l-14.297.02"/>
        <path fill="#D57A70" fill-rule="nonzero" stroke-width=".543" d="M68.59 26.821l-40.913 70.87a1.179 1.179 0 0 0 1.02 1.768h81.83a1.178 1.178 0 0 0 1.02-1.767l-40.915-70.87a1.176 1.176 0 0 0-2.043 0z"/>
        <circle cx="69.614" cy="85.593" r="3.336" fill="#FFF" fill-rule="nonzero" stroke-width=".543"/>
        <path fill="#FFF" stroke-width=".543" d="M69.614 78.194a2.466 2.466 0 0 0 2.465-2.466V51.372a2.468 2.468 0 0 0-4.933 0v24.356a2.466 2.466 0 0 0 2.468 2.466z"/>
    </g>
</svg>
