<svg xmlns="http://www.w3.org/2000/svg" width="130" height="120" viewBox="0 0 130 120">
    <g fill="none" fill-rule="evenodd">
        <path fill="#FFF" fill-rule="nonzero" d="M58.688 15.82h67.981v91.56H58.688z"/>
        <path fill="#A3A4A9" fill-rule="nonzero" d="M126.366 16.124v90.956H58.99V16.124h67.375m.606-.607H58.384v92.17h68.588v-92.17z"/>
        <path fill="#D8D9DA" fill-rule="nonzero" d="M58.991 16.124h67.375v5.378H58.991z"/>
        <path fill="#D8D9DA" fill-rule="nonzero" d="M81.542 16.125l18.912 90.953H65.261V16.125z"/>
        <path fill="#FFF" fill-rule="nonzero" d="M125.355 17.135v88.934H60.002V17.135h65.353m1.01-1.011H58.992v90.956h67.375V16.124z"/>
        <path fill="#D8D9DA" fill-rule="nonzero" d="M64.746 16.09h8.467v2.53h-8.467zM76.828 104.548H91.38v2.53H76.828zM107.707 39.042H82.974a3.365 3.365 0 0 0-3.365 3.364v27.342c0 3.797.9 7.482 3.29 10.43l6.835 8.442a.699.699 0 0 0 .543.259h10.13a.7.7 0 0 0 .544-.26l6.835-8.441c2.39-2.95 3.288-6.633 3.288-10.43V42.406a3.364 3.364 0 0 0-3.367-3.364z"/>
        <path fill="#FFF" fill-rule="nonzero" stroke="#7A7F80" stroke-width=".541" d="M105.2 37.539H80.466a3.364 3.364 0 0 0-3.364 3.364v27.34c0 3.798.899 7.483 3.289 10.431l6.834 8.442a.7.7 0 0 0 .544.259h10.127c.21 0 .41-.095.543-.259l6.835-8.442c2.39-2.951 3.29-6.633 3.29-10.43V40.902a3.364 3.364 0 0 0-3.366-3.364z"/>
        <path fill="#D8D9DA" fill-rule="nonzero" d="M105.714 69.014v-27.24a1.856 1.856 0 0 0-1.856-1.857H81.843a1.856 1.856 0 0 0-1.856 1.856v27.253c0 2.077.494 4.125 1.441 5.974l1.292 2.52-1.952 1.617 6.458 7.977a.7.7 0 0 0 .544.259h10.127c.21 0 .41-.095.543-.259l6.46-7.977-1.935-1.61 1.297-2.52a13.097 13.097 0 0 0 1.452-5.993z"/>
        <path fill="#D8D9DA" fill-rule="nonzero" d="M80.467 37.539a3.364 3.364 0 0 0-3.364 3.364v27.34c0 3.798.899 7.483 3.289 10.431l6.834 8.442a.7.7 0 0 0 .544.259h5.078L82.486 37.539h-2.02z"/>
        <path fill="#D8D9DA" fill-rule="nonzero" d="M81.327 42.425c-.25 0-.493-.089-.684-.251l-1.952-1.65a1.062 1.062 0 0 1 1.371-1.617l1.952 1.65a1.062 1.062 0 0 1-.687 1.872v-.004z"/>
        <rect width="22.411" height="22.411" x="81.628" y="44.809" fill="#7A7F80" fill-rule="nonzero" rx="1.299"/>
        <rect width="22.411" height="22.411" x="81.628" y="47.114" fill="#FFF" fill-rule="nonzero" rx="1.299"/>
        <rect width="22.007" height="22.007" x="81.83" y="46.257" fill="#C6E2BA" fill-rule="nonzero" rx="1.097"/>
        <path fill="#7A7F80" fill-rule="nonzero" d="M102.74 46.459c.493 0 .894.4.895.895v19.812a.897.897 0 0 1-.896.895H82.927a.896.896 0 0 1-.895-.895V47.354c0-.494.4-.894.895-.895h19.812m0-.404H82.927a1.3 1.3 0 0 0-1.3 1.299v19.812a1.3 1.3 0 0 0 1.3 1.3h19.812a1.3 1.3 0 0 0 1.3-1.3V47.354a1.3 1.3 0 0 0-1.3-1.3z"/>
        <path stroke="#7A7F80" stroke-width=".541" d="M105.2 37.539H80.466a3.364 3.364 0 0 0-3.364 3.364v27.34c0 3.798.899 7.483 3.289 10.431l6.834 8.442a.7.7 0 0 0 .544.259h10.127c.21 0 .41-.095.543-.259l6.835-8.442c2.39-2.951 3.29-6.633 3.29-10.43V40.902a3.364 3.364 0 0 0-3.366-3.364z"/>
        <path fill="#E1EEDC" fill-rule="nonzero" d="M103.423 67.033V53.934L89.497 67.86h13.099a.827.827 0 0 0 .827-.827z"/>
        <path fill="#A3A4A9" fill-rule="nonzero" d="M86.297 46.16h-3.32a1.342 1.342 0 0 0-1.35 1.333V67.04c.005.71.584 1.282 1.294 1.279h8.036l-4.66-22.158z"/>
        <path fill="#7A7F80" fill-rule="nonzero" d="M102.74 46.459c.493 0 .894.4.895.895v19.812a.897.897 0 0 1-.896.895H82.927a.896.896 0 0 1-.895-.895V47.354c0-.494.4-.894.895-.895h19.812m0-.404H82.927a1.3 1.3 0 0 0-1.3 1.299v19.812a1.3 1.3 0 0 0 1.3 1.3h19.812a1.3 1.3 0 0 0 1.3-1.3V47.354a1.3 1.3 0 0 0-1.3-1.3z"/>
        <path fill="#FFF" fill-rule="nonzero" d="M.358 26.045l66.869-13.884 19.24 92.66-66.87 13.885z"/>
        <path fill="#A3A4A9" fill-rule="nonzero" d="M66.991 12.516l19.122 92.066-66.274 13.764L.717 26.281 66.99 12.516m.47-.718l-.593.123L.594 25.683 0 25.809l.123.595 19.122 92.066.123.593.594-.123 66.274-13.765.594-.123-.123-.594-19.122-92.065-.124-.595z"/>
        <path fill="#D8D9DA" fill-rule="nonzero" d="M45.258 56.294c-.414-1.986-2.483-3.278-4.583-2.84-2.1.438-3.481 2.447-3.067 4.434l.242 1.163-1.574.327 1.743 8.363 5.922 1.387 4.877-3.64-1.734-8.325-1.575.329-.251-1.198zm-5.7 1.187c-.195-.937.474-1.858 1.524-2.077 1.05-.22 2.031.36 2.224 1.297l.242 1.162-3.747.783-.243-1.165zm6.803 7.113l-2.912 2.172-3.54-.828-1.046-5.025 6.45-1.343 1.048 5.024z"/>
        <circle cx="122.29" cy="35.701" r="7.383" fill="#F9C447" fill-rule="nonzero" opacity=".4"/>
        <circle cx="123.039" cy="92.817" r="6.163" fill="#F9C447" fill-rule="nonzero" opacity=".4"/>
        <circle cx="95.854" cy="6.383" r="6.383" fill="#F9C447" fill-rule="nonzero" opacity=".4"/>
        <circle cx="58.309" cy="16.965" r="7.822" fill="#F9C447" fill-rule="nonzero" opacity=".4"/>
        <circle cx="58.309" cy="16.965" r="5.294" fill="#F9C447" fill-rule="nonzero"/>
        <path fill="#FFF" fill-rule="nonzero" d="M58.308 13.636l3.329 3.328-3.329 3.329-3.328-3.329z"/>
        <circle cx="122.29" cy="35.701" r="5.294" fill="#F9C447" fill-rule="nonzero"/>
        <path fill="#FFF" fill-rule="nonzero" d="M122.29 32.372l3.329 3.329-3.329 3.328-3.328-3.328z"/>
        <circle cx="95.931" cy="6.383" r="3.873" fill="#F9C447" fill-rule="nonzero"/>
        <path fill="#FFF" fill-rule="nonzero" d="M95.931 3.95l2.435 2.434L95.93 8.82l-2.434-2.435z"/>
        <circle cx="69.443" cy="74.849" r="3.873" fill="#F9C447" fill-rule="nonzero"/>
        <path fill="#FFF" fill-rule="nonzero" d="M69.444 72.414l2.434 2.434-2.434 2.435-2.435-2.435z"/>
        <circle cx="123.039" cy="92.817" r="3.873" fill="#F9C447" fill-rule="nonzero"/>
        <path fill="#FFF" fill-rule="nonzero" d="M123.038 90.382l2.435 2.434-2.435 2.435-2.434-2.435z"/>
        <path stroke="#FFF" stroke-width=".809" d="M82.936 68.469h19.812"/>
    </g>
</svg>
