<svg xmlns="http://www.w3.org/2000/svg" width="83" height="114" viewBox="0 0 83 114">
    <defs>
        <filter id="a" width="112.5%" height="106.6%" x="-6.2%" y="-3.8%" filterUnits="objectBoundingBox">
            <feOffset dy="1" in="SourceAlpha" result="shadowOffsetOuter1"/>
            <feColorMatrix in="shadowOffsetOuter1" result="shadowMatrixOuter1" values="0 0 0 0 0.7 0 0 0 0 0.7 0 0 0 0 0.7 0 0 0 1 0"/>
            <feMerge>
                <feMergeNode in="shadowMatrixOuter1"/>
                <feMergeNode in="SourceGraphic"/>
            </feMerge>
        </filter>
    </defs>
    <g fill="none" fill-rule="evenodd">
        <g filter="url(#a)" transform="translate(20.625 21.5)">
            <path stroke="#D8D9DA" stroke-width="2.772" d="M20.029 90.624V73.689"/>
            <path stroke="#BEBDC0" stroke-width="2.772" d="M20.022 76.215l.007 12.183"/>
            <path fill="#BEBDC0" fill-rule="nonzero" d="M15.65 55.608h8.758v16.406H15.65z"/>
            <path fill="#D8D9DA" fill-rule="nonzero" d="M17.172 67.975h5.715v16.718h-5.715z"/>
            <path fill="#66686F" fill-rule="nonzero" d="M22.635 68.227v16.214h-5.211V68.227h5.211m.504-.504h-6.22v17.222h6.22V67.723z"/>
            <path fill="#D8D9DA" fill-rule="nonzero" d="M14.958 63.559h10.14v15.054h-10.14z"/>
            <path fill="#66686F" fill-rule="nonzero" d="M24.848 63.81v14.551H15.21v-14.55h9.638m.504-.504H14.706v15.558h10.646V63.307z"/>
            <path fill="#FFF" fill-rule="nonzero" d="M22.724 77.46h.966V66.04a.965.965 0 0 0-.966-.966V77.46zM19.514 84.28h2.932v-2.928a2.928 2.928 0 0 0-2.932 2.929z"/>
            <path fill="#FFF" fill-rule="nonzero" stroke="#7A7F80" stroke-width=".563" d="M35.44.076H4.62A4.193 4.193 0 0 0 .426 4.268v34.07c0 4.732 1.122 9.325 4.099 12.997l8.518 10.52a.87.87 0 0 0 .676.323h12.62a.873.873 0 0 0 .677-.323l8.516-10.52c2.979-3.676 4.1-8.265 4.1-12.996V4.269A4.193 4.193 0 0 0 35.438.075z"/>
            <path fill="#D8D9DA" fill-rule="nonzero" d="M36.08 39.297V5.353a2.313 2.313 0 0 0-2.314-2.313H6.334A2.315 2.315 0 0 0 4.02 5.353v33.96c0 2.588.614 5.14 1.794 7.445l1.609 3.139-2.432 2.016 8.05 9.94a.87.87 0 0 0 .676.322h12.621a.873.873 0 0 0 .678-.322l8.048-9.94-2.412-2.004 1.617-3.141a16.322 16.322 0 0 0 1.811-7.47z"/>
            <path fill="#D8D9DA" fill-rule="nonzero" d="M5.688 6.166c-.312 0-.615-.111-.853-.313L2.412 3.797A1.323 1.323 0 0 1 4.121 1.78l2.431 2.056a1.323 1.323 0 0 1-.864 2.329z"/>
            <rect width="27.927" height="27.927" x="6.065" y="9.137" fill="#7A7F80" fill-rule="nonzero" rx="1.619"/>
            <rect width="27.927" height="27.927" x="6.065" y="12.008" fill="#FFF" fill-rule="nonzero" rx="1.619"/>
            <rect width="27.423" height="27.423" x="6.317" y="10.94" fill="#C6E2BA" fill-rule="nonzero" rx="1.367"/>
            <path fill="#E1EEDC" fill-rule="nonzero" d="M33.75 37.248V21.375L16.875 38.25h15.873c.553 0 1.002-.449 1.002-1.002z"/>
            <path fill="#7A7F80" fill-rule="nonzero" d="M32.374 11.192c.615.001 1.114.5 1.115 1.116v24.689c-.001.615-.5 1.114-1.115 1.115H7.685c-.616 0-1.115-.5-1.116-1.115V12.312c.001-.616.5-1.115 1.116-1.116h24.689m0-.504H7.685a1.62 1.62 0 0 0-1.619 1.62v24.685c0 .894.726 1.619 1.62 1.619h24.688a1.62 1.62 0 0 0 1.619-1.62V12.313a1.62 1.62 0 0 0-1.62-1.62z"/>
            <path stroke="#7A7F80" stroke-width=".563" d="M35.44.076H4.62A4.193 4.193 0 0 0 .426 4.268v34.07c0 4.732 1.122 9.325 4.099 12.997l8.518 10.52a.87.87 0 0 0 .676.323h12.62a.873.873 0 0 0 .677-.323l8.516-10.52c2.979-3.676 4.1-8.265 4.1-12.996V4.269A4.193 4.193 0 0 0 35.438.075z"/>
        </g>
        <g fill-rule="nonzero" transform="translate(.375 .125)">
            <circle cx="9.747" cy="23.704" r="9.747" fill="#F9C447" opacity=".4"/>
            <circle cx="9.747" cy="23.704" r="6.597" fill="#F9C447"/>
            <path fill="#FFF" d="M9.746 19.556l4.147 4.147-4.147 4.148L5.6 23.703z"/>
            <circle cx="74.253" cy="44.25" r="7.59" fill="#F9C447" opacity=".4"/>
            <circle cx="74.253" cy="44.25" r="5.138" fill="#F9C447"/>
            <path fill="#FFF" d="M74.213 41.022l3.265 3.197-3.197 3.264-3.264-3.197z"/>
            <circle cx="14.561" cy="78.634" r="7.59" fill="#F9C447" opacity=".4"/>
            <circle cx="14.561" cy="78.634" r="5.138" fill="#F9C447"/>
            <path fill="#FFF" d="M14.522 75.4l3.264 3.197-3.196 3.264-3.265-3.197z"/>
            <circle cx="64.165" cy="8.936" r="8.936" fill="#F9C447" opacity=".4"/>
            <circle cx="64.165" cy="8.936" r="6.049" fill="#F9C447"/>
            <path fill="#FFF" d="M64.122 5.137l3.842 3.762-3.763 3.843-3.842-3.763z"/>
            <circle cx="53.474" cy="86.225" r="8.936" fill="#F9C447" opacity=".4"/>
            <circle cx="53.474" cy="86.225" r="6.049" fill="#F9C447"/>
            <path fill="#FFF" d="M53.428 82.42l3.843 3.763-3.763 3.842-3.843-3.762z"/>
        </g>
    </g>
</svg>
