<svg xmlns="http://www.w3.org/2000/svg" width="106" height="121" viewBox="0 0 106 121">
    <g fill="none" fill-rule="nonzero">
        <path fill="#E4E4E3" d="M85.56 13.38l.327-1.888-41.23-7.143-1.566 9.03H4.259v107.482h41.845v-7.18l17.239 2.988v4.192h41.845V13.38z"/>
        <path fill="#FFF" stroke="#8FC97E" stroke-width="1.045" d="M42.843 10.121v107.481H1V10.121"/>
        <path fill="#FFF" d="M7.954 49.867c-1.3 0-2.358-1.174-2.358-2.612v-4.107c0-1.444 1.057-2.612 2.358-2.612h27.937c1.299 0 2.358 1.173 2.358 2.612v4.096c0 1.444-1.06 2.613-2.358 2.613l-27.937.01z"/>
        <path fill="#8FC97E" d="M35.89 40.71c1.204 0 2.185 1.097 2.185 2.438v4.096c0 1.348-.981 2.439-2.184 2.439H7.954c-1.205 0-2.184-1.096-2.184-2.439v-4.096c0-1.346.98-2.438 2.184-2.438h27.937m0-.349H7.954c-1.393 0-2.532 1.253-2.532 2.787v4.096c0 1.54 1.136 2.787 2.532 2.787h27.937c1.393 0 2.532-1.252 2.532-2.787v-4.096c0-1.54-1.137-2.787-2.532-2.787z"/>
        <path fill="#FFF" d="M7.954 37.838c-1.3 0-2.358-1.174-2.358-2.613v-4.094c0-1.444 1.057-2.613 2.358-2.613h27.937c1.299 0 2.358 1.174 2.358 2.613v4.096c0 1.444-1.06 2.612-2.358 2.612l-27.937-.001z"/>
        <path fill="#8FC97E" d="M35.89 28.68c1.204 0 2.185 1.097 2.185 2.438v4.097c0 1.348-.981 2.438-2.184 2.438H7.954c-1.205 0-2.184-1.095-2.184-2.438V31.13c0-1.347.98-2.439 2.184-2.439h27.937m0-.348H7.954c-1.393 0-2.532 1.252-2.532 2.787v4.096c0 1.54 1.136 2.787 2.532 2.787h27.937c1.393 0 2.532-1.253 2.532-2.787v-4.096c0-1.54-1.137-2.787-2.532-2.787z"/>
        <path fill="#FFF" d="M7.954 25.576c-1.3 0-2.358-1.173-2.358-2.612v-4.1c0-1.444 1.057-2.612 2.358-2.612h27.937c1.299 0 2.358 1.175 2.358 2.612v4.095c0 1.444-1.06 2.612-2.358 2.612l-27.937.005z"/>
        <path fill="#8FC97E" d="M35.89 16.419c1.204 0 2.185 1.097 2.185 2.438v4.095c0 1.348-.981 2.438-2.184 2.438H7.954c-1.205 0-2.184-1.097-2.184-2.438v-4.088c0-1.348.98-2.438 2.184-2.438h27.937m0-.348H7.954c-1.393 0-2.532 1.252-2.532 2.786v4.095c0 1.54 1.136 2.786 2.532 2.786h27.937c1.393 0 2.532-1.254 2.532-2.786v-4.095c0-1.541-1.137-2.786-2.532-2.786z"/>
        <path fill="#FFF" d="M7.954 62.278c-1.3 0-2.358-1.174-2.358-2.612v-4.102c0-1.444 1.057-2.612 2.358-2.612h27.937c1.299 0 2.358 1.174 2.358 2.612v4.097c0 1.443-1.06 2.612-2.358 2.612l-27.937.005z"/>
        <path fill="#8FC97E" d="M35.89 53.12c1.204 0 2.185 1.096 2.185 2.44v4.095c0 1.348-.981 2.439-2.184 2.439H7.954c-1.205 0-2.184-1.096-2.184-2.439v-4.09c0-1.349.98-2.439 2.184-2.439h27.937m0-.348H7.954c-1.393 0-2.532 1.252-2.532 2.786v4.097c0 1.54 1.136 2.786 2.532 2.786h27.937c1.393 0 2.532-1.252 2.532-2.786v-4.097c0-1.54-1.137-2.786-2.532-2.786z"/>
        <path fill="#FFF" d="M7.954 74.69c-1.3 0-2.358-1.174-2.358-2.613v-4.102c0-1.444 1.057-2.612 2.358-2.612h27.937c1.299 0 2.358 1.174 2.358 2.612v4.097c0 1.444-1.06 2.612-2.358 2.612l-27.937.005z"/>
        <path fill="#8FC97E" d="M35.89 65.532c1.204 0 2.185 1.095 2.185 2.438v4.096c0 1.347-.981 2.439-2.184 2.439H7.954c-1.205 0-2.184-1.097-2.184-2.439v-4.09c0-1.349.98-2.439 2.184-2.439h27.937m0-.348H7.954c-1.393 0-2.532 1.252-2.532 2.786v4.097c0 1.54 1.136 2.786 2.532 2.786h27.937c1.393 0 2.532-1.252 2.532-2.786v-4.097c0-1.54-1.137-2.786-2.532-2.786z"/>
        <path fill="#FFF" d="M7.954 87.1c-1.3 0-2.358-1.175-2.358-2.612v-4.102c0-1.443 1.057-2.612 2.358-2.612h27.937c1.299 0 2.358 1.174 2.358 2.612v4.095c0 1.444-1.06 2.612-2.358 2.612L7.954 87.1z"/>
        <path fill="#8FC97E" d="M35.89 77.943c1.204 0 2.185 1.095 2.185 2.438v4.095c0 1.348-.981 2.438-2.184 2.438H7.954c-1.205 0-2.184-1.097-2.184-2.438v-4.09c0-1.348.98-2.438 2.184-2.438h27.937m0-.348H7.954c-1.393 0-2.532 1.252-2.532 2.786v4.095c0 1.541 1.136 2.787 2.532 2.787h27.937c1.393 0 2.532-1.253 2.532-2.787v-4.095c0-1.54-1.137-2.786-2.532-2.786z"/>
        <path fill="#FFF" d="M7.954 99.511c-1.3 0-2.358-1.175-2.358-2.612v-4.102c0-1.443 1.057-2.612 2.358-2.612h27.937c1.299 0 2.358 1.176 2.358 2.612v4.095c0 1.444-1.06 2.612-2.358 2.612l-27.937.007z"/>
        <path fill="#8FC97E" d="M35.89 90.347c1.204 0 2.185 1.097 2.185 2.438v4.095c0 1.348-.981 2.438-2.184 2.438H7.954c-1.205 0-2.184-1.097-2.184-2.438v-4.083c0-1.348.98-2.438 2.184-2.438h27.937m0-.348H7.954c-1.393 0-2.532 1.254-2.532 2.786v4.095c0 1.54 1.136 2.787 2.532 2.787h27.937c1.393 0 2.532-1.254 2.532-2.787v-4.095c0-1.54-1.137-2.786-2.532-2.786z"/>
        <path fill="#FFF" d="M7.954 111.922c-1.3 0-2.358-1.175-2.358-2.612v-4.102c0-1.443 1.057-2.612 2.358-2.612h27.937c1.299 0 2.358 1.176 2.358 2.612v4.095c0 1.444-1.06 2.613-2.358 2.613l-27.937.006z"/>
        <path fill="#8FC97E" d="M35.89 102.763c1.204 0 2.185 1.097 2.185 2.438v4.095c0 1.348-.981 2.438-2.184 2.438H7.954c-1.205 0-2.184-1.097-2.184-2.438v-4.088c0-1.348.98-2.438 2.184-2.438h27.937m0-.348H7.954c-1.393 0-2.532 1.252-2.532 2.786v4.095c0 1.54 1.136 2.787 2.532 2.787h27.937c1.393 0 2.532-1.254 2.532-2.787v-4.095c0-1.54-1.137-2.786-2.532-2.786z"/>
        <path fill="#8FC97E" stroke="#8FC97E" stroke-width=".6" d="M1 10.29h41.845"/>
        <path fill="#FFF" stroke="#8FC97E" stroke-width="1.045" d="M101.929 10.121v107.481H60.084V10.121"/>
        <path fill="#FFF" d="M67.038 49.867c-1.3 0-2.358-1.174-2.358-2.612v-4.107c0-1.444 1.057-2.612 2.358-2.612h27.936c1.3 0 2.359 1.173 2.359 2.612v4.096c0 1.444-1.06 2.613-2.359 2.613l-27.936.01z"/>
        <path fill="#8FC97E" d="M94.974 40.71c1.204 0 2.184 1.097 2.184 2.438v4.096c0 1.348-.98 2.439-2.184 2.439H67.038c-1.205 0-2.184-1.096-2.184-2.439v-4.096c0-1.346.98-2.438 2.184-2.438h27.936m0-.349H67.038c-1.393 0-2.532 1.253-2.532 2.787v4.096c0 1.54 1.136 2.787 2.532 2.787h27.936c1.394 0 2.533-1.252 2.533-2.787v-4.096c0-1.54-1.136-2.787-2.533-2.787z"/>
        <path fill="#FFF" d="M67.038 37.838c-1.3 0-2.358-1.174-2.358-2.613v-4.094c0-1.444 1.057-2.613 2.358-2.613h27.936c1.3 0 2.359 1.174 2.359 2.613v4.096c0 1.444-1.06 2.612-2.359 2.612l-27.936-.001z"/>
        <path fill="#8FC97E" d="M94.974 28.68c1.204 0 2.184 1.097 2.184 2.438v4.097c0 1.348-.98 2.438-2.184 2.438H67.038c-1.205 0-2.184-1.095-2.184-2.438V31.13c0-1.347.98-2.439 2.184-2.439h27.936m0-.348H67.038c-1.393 0-2.532 1.252-2.532 2.787v4.096c0 1.54 1.136 2.787 2.532 2.787h27.936c1.394 0 2.533-1.253 2.533-2.787v-4.096c0-1.54-1.136-2.787-2.533-2.787z"/>
        <path fill="#FFF" d="M67.038 25.576c-1.3 0-2.358-1.173-2.358-2.612v-4.1c0-1.444 1.057-2.612 2.358-2.612h27.936c1.3 0 2.359 1.175 2.359 2.612v4.095c0 1.444-1.06 2.612-2.359 2.612l-27.936.005z"/>
        <path fill="#8FC97E" d="M94.974 16.419c1.204 0 2.184 1.097 2.184 2.438v4.095c0 1.348-.98 2.438-2.184 2.438H67.038c-1.205 0-2.184-1.097-2.184-2.438v-4.088c0-1.348.98-2.438 2.184-2.438h27.936m0-.348H67.038c-1.393 0-2.532 1.252-2.532 2.786v4.095c0 1.54 1.136 2.786 2.532 2.786h27.936c1.394 0 2.533-1.254 2.533-2.786v-4.095c0-1.541-1.136-2.786-2.533-2.786z"/>
        <path fill="#FFF" d="M67.038 62.278c-1.3 0-2.358-1.174-2.358-2.612v-4.102c0-1.444 1.057-2.612 2.358-2.612h27.936c1.3 0 2.359 1.174 2.359 2.612v4.097c0 1.443-1.06 2.612-2.359 2.612l-27.936.005z"/>
        <path fill="#8FC97E" d="M94.974 53.12c1.204 0 2.184 1.096 2.184 2.44v4.095c0 1.348-.98 2.439-2.184 2.439H67.038c-1.205 0-2.184-1.096-2.184-2.439v-4.09c0-1.349.98-2.439 2.184-2.439h27.936m0-.348H67.038c-1.393 0-2.532 1.252-2.532 2.786v4.097c0 1.54 1.136 2.786 2.532 2.786h27.936c1.394 0 2.533-1.252 2.533-2.786v-4.097c0-1.54-1.136-2.786-2.533-2.786z"/>
        <path fill="#FFF" d="M67.038 74.69c-1.3 0-2.358-1.174-2.358-2.613v-4.102c0-1.444 1.057-2.612 2.358-2.612h27.936c1.3 0 2.359 1.174 2.359 2.612v4.097c0 1.444-1.06 2.612-2.359 2.612l-27.936.005z"/>
        <path fill="#8FC97E" d="M94.974 65.532c1.204 0 2.184 1.095 2.184 2.438v4.096c0 1.347-.98 2.439-2.184 2.439H67.038c-1.205 0-2.184-1.097-2.184-2.439v-4.09c0-1.349.98-2.439 2.184-2.439h27.936m0-.348H67.038c-1.393 0-2.532 1.252-2.532 2.786v4.097c0 1.54 1.136 2.786 2.532 2.786h27.936c1.394 0 2.533-1.252 2.533-2.786v-4.097c0-1.54-1.136-2.786-2.533-2.786z"/>
        <path fill="#FFF" d="M67.038 87.1c-1.3 0-2.358-1.175-2.358-2.612v-4.102c0-1.443 1.057-2.612 2.358-2.612h27.936c1.3 0 2.359 1.174 2.359 2.612v4.095c0 1.444-1.06 2.612-2.359 2.612l-27.936.007z"/>
        <path fill="#8FC97E" d="M94.974 77.943c1.204 0 2.184 1.095 2.184 2.438v4.095c0 1.348-.98 2.438-2.184 2.438H67.038c-1.205 0-2.184-1.097-2.184-2.438v-4.09c0-1.348.98-2.438 2.184-2.438h27.936m0-.348H67.038c-1.393 0-2.532 1.252-2.532 2.786v4.095c0 1.541 1.136 2.787 2.532 2.787h27.936c1.394 0 2.533-1.253 2.533-2.787v-4.095c0-1.54-1.136-2.786-2.533-2.786z"/>
        <path fill="#FFF" d="M67.038 99.511c-1.3 0-2.358-1.175-2.358-2.612v-4.102c0-1.443 1.057-2.612 2.358-2.612h27.936c1.3 0 2.359 1.176 2.359 2.612v4.095c0 1.444-1.06 2.612-2.359 2.612l-27.936.007z"/>
        <path fill="#8FC97E" d="M94.974 90.347c1.204 0 2.184 1.097 2.184 2.438v4.095c0 1.348-.98 2.438-2.184 2.438H67.038c-1.205 0-2.184-1.097-2.184-2.438v-4.083c0-1.348.98-2.438 2.184-2.438h27.936m0-.348H67.038c-1.393 0-2.532 1.254-2.532 2.786v4.095c0 1.54 1.136 2.787 2.532 2.787h27.936c1.394 0 2.533-1.254 2.533-2.787v-4.095c0-1.54-1.136-2.786-2.533-2.786z"/>
        <path fill="#FFF" d="M67.038 111.922c-1.3 0-2.358-1.175-2.358-2.612v-4.102c0-1.443 1.057-2.612 2.358-2.612h27.936c1.3 0 2.359 1.176 2.359 2.612v4.095c0 1.444-1.06 2.613-2.359 2.613l-27.936.006z"/>
        <path fill="#8FC97E" d="M94.974 102.763c1.204 0 2.184 1.097 2.184 2.438v4.095c0 1.348-.98 2.438-2.184 2.438H67.038c-1.205 0-2.184-1.097-2.184-2.438v-4.088c0-1.348.98-2.438 2.184-2.438h27.936m0-.348H67.038c-1.393 0-2.532 1.252-2.532 2.786v4.095c0 1.54 1.136 2.787 2.532 2.787h27.936c1.394 0 2.533-1.254 2.533-2.787v-4.095c0-1.54-1.136-2.786-2.533-2.786z"/>
        <path fill="#8FC97E" stroke="#8FC97E" stroke-width=".6" d="M60.084 10.29h41.845"/>
        <path fill="#FFF" stroke="#8FC97E" stroke-width="1.045" d="M82.626 8.233L64.278 114.136l-41.23-7.144L41.396 1.089"/>
        <path fill="#FFF" d="M69.355 46.241c-.123 0-.245-.01-.366-.031l-27.518-4.77a2.231 2.231 0 0 1-1.505-1.033 2.757 2.757 0 0 1-.37-1.95l.696-4.035c.217-1.259 1.252-2.208 2.405-2.208.122 0 .244.01.364.031l27.518 4.769c.627.113 1.176.49 1.507 1.034.361.58.493 1.275.369 1.948l-.697 4.035c-.221 1.26-1.25 2.21-2.403 2.21z"/>
        <path fill="#8FC97E" d="M42.692 32.388c.112 0 .224.01.334.028l27.527 4.77c.58.104 1.087.451 1.393.955.34.544.463 1.194.349 1.825l-.697 4.035c-.204 1.178-1.163 2.066-2.233 2.066-.112 0-.224-.01-.334-.03L41.513 41.27a2.062 2.062 0 0 1-1.394-.956 2.574 2.574 0 0 1-.348-1.826l.697-4.035c.205-1.177 1.165-2.064 2.234-2.064m0-.348c-1.219 0-2.339.98-2.577 2.353l-.697 4.035c-.263 1.517.643 2.945 2.017 3.184l27.518 4.769c.13.022.263.034.395.034 1.22 0 2.34-.982 2.576-2.354l.697-4.034c.263-1.519-.643-2.947-2.019-3.184l-27.518-4.77a2.325 2.325 0 0 0-.394-.033h.002z"/>
        <path fill="#FFF" d="M71.408 34.388c-.122 0-.244-.011-.364-.032l-27.518-4.768c-1.282-.223-2.123-1.568-1.876-2.984l.697-4.035c.218-1.26 1.252-2.209 2.405-2.209.122 0 .244.01.364.032l27.527 4.768c.627.114 1.175.49 1.506 1.035.362.58.494 1.276.37 1.949l-.697 4.035c-.218 1.26-1.252 2.209-2.405 2.209h-.009z"/>
        <path fill="#8FC97E" d="M44.745 20.534c.112 0 .224.01.335.03l27.526 4.769c.58.103 1.089.451 1.394.956.339.544.463 1.195.348 1.825l-.697 4.035c-.203 1.178-1.163 2.064-2.232 2.064-.112 0-.224-.009-.335-.028l-27.518-4.77a2.059 2.059 0 0 1-1.393-.954 2.588 2.588 0 0 1-.349-1.827l.697-4.036c.204-1.175 1.163-2.064 2.233-2.064m0-.348c-1.22 0-2.34.982-2.578 2.353l-.696 4.035c-.263 1.517.642 2.947 2.016 3.184l27.519 4.77c.13.023.261.034.393.034 1.228 0 2.34-.983 2.576-2.353l.697-4.036c.263-1.517-.643-2.945-2.019-3.183l-27.518-4.77a2.149 2.149 0 0 0-.394-.034h.004z"/>
        <path fill="#FFF" d="M73.502 22.307c-.123 0-.245-.01-.366-.03l-27.518-4.771a2.231 2.231 0 0 1-1.505-1.033 2.757 2.757 0 0 1-.371-1.95l.697-4.034c.217-1.26 1.252-2.209 2.405-2.209.122 0 .244.01.364.031l27.521 4.77c.629.112 1.179.488 1.51 1.034.361.58.493 1.274.37 1.947l-.697 4.035c-.225 1.26-1.257 2.21-2.41 2.21z"/>
        <path fill="#8FC97E" d="M46.839 8.454c.112 0 .224.01.334.028l27.527 4.77c1.186.206 1.964 1.453 1.742 2.787l-.697 4.036c-.204 1.177-1.164 2.065-2.233 2.065-.113 0-.225-.01-.336-.03l-27.518-4.768a2.062 2.062 0 0 1-1.394-.956 2.574 2.574 0 0 1-.348-1.825l.697-4.036c.204-1.177 1.165-2.064 2.234-2.064m0-.348c-1.228 0-2.339.98-2.577 2.353l-.697 4.035c-.263 1.517.643 2.945 2.017 3.184l27.514 4.762c.131.022.263.034.396.035 1.219 0 2.339-.983 2.576-2.355l.696-4.034c.263-1.519-.642-2.947-2.018-3.184L47.232 8.141a2.325 2.325 0 0 0-.393-.033l.008.005z"/>
        <path fill="#FFF" d="M67.235 58.475c-.122 0-.244-.01-.364-.032l-27.518-4.768c-1.28-.223-2.123-1.568-1.876-2.984l.697-4.035c.22-1.26 1.252-2.209 2.405-2.209.123 0 .245.01.366.032l27.52 4.765c1.28.223 2.121 1.567 1.875 2.983l-.696 4.036c-.218 1.259-1.252 2.208-2.405 2.208l-.004.004z"/>
        <path fill="#8FC97E" d="M40.572 44.616c.113 0 .225.01.336.028l27.527 4.774a2.06 2.06 0 0 1 1.393.954 2.58 2.58 0 0 1 .349 1.827l-.697 4.036c-.207 1.172-1.176 2.065-2.245 2.065-.112 0-.224-.01-.334-.03l-27.518-4.768a2.048 2.048 0 0 1-1.394-.956 2.564 2.564 0 0 1-.348-1.825l.697-4.036c.203-1.175 1.163-2.064 2.232-2.064m0-.348c-1.219 0-2.339.982-2.576 2.353l-.696 4.036c-.261 1.517.642 2.945 2.018 3.183l27.519 4.765c.13.023.261.034.393.034 1.228 0 2.34-.983 2.578-2.353l.696-4.036c.263-1.517-.642-2.945-2.016-3.184l-27.519-4.77a2.344 2.344 0 0 0-.395-.033l-.002.005z"/>
        <path fill="#FFF" d="M65.117 70.698c-.122 0-.244-.01-.364-.032l-27.527-4.768c-1.28-.223-2.12-1.568-1.875-2.984l.696-4.035c.218-1.26 1.253-2.209 2.406-2.209.122 0 .243.01.364.032l27.526 4.77c1.282.221 2.123 1.567 1.876 2.982l-.697 4.035c-.217 1.26-1.252 2.209-2.405 2.209z"/>
        <path fill="#8FC97E" d="M38.454 56.844c.112 0 .224.01.335.03l27.518 4.769c1.186.205 1.964 1.452 1.741 2.786l-.696 4.036c-.204 1.177-1.164 2.064-2.233 2.064-.112 0-.224-.01-.334-.028l-27.529-4.776a2.059 2.059 0 0 1-1.393-.954 2.586 2.586 0 0 1-.349-1.826l.697-4.035c.206-1.177 1.165-2.066 2.235-2.066m0-.348c-1.228 0-2.34.982-2.578 2.353l-.697 4.035c-.263 1.52.643 2.947 2.017 3.184l27.534 4.772c.13.023.263.034.395.033 1.228 0 2.34-.98 2.576-2.353l.697-4.035c.263-1.517-.643-2.945-2.019-3.184l-27.518-4.768a2.327 2.327 0 0 0-.393-.035l-.014-.002z"/>
        <path fill="#FFF" d="M63.003 82.927c-.122 0-.244-.011-.364-.033L35.12 78.126c-1.28-.222-2.123-1.568-1.876-2.982l.697-4.035c.22-1.26 1.252-2.21 2.405-2.21.122 0 .245.01.366.03L64.23 73.7c.626.113 1.174.49 1.505 1.033.36.581.493 1.276.37 1.949l-.696 4.035c-.225 1.26-1.26 2.21-2.407 2.21z"/>
        <path fill="#8FC97E" d="M36.335 69.073c.112 0 .225.01.336.03l27.527 4.768c.58.106 1.086.453 1.393.956.34.544.463 1.195.348 1.825l-.696 4.036c-.204 1.177-1.165 2.065-2.235 2.065-.112 0-.224-.01-.334-.03l-27.538-4.768a2.06 2.06 0 0 1-1.393-.956 2.567 2.567 0 0 1-.348-1.825l.696-4.036c.204-1.177 1.164-2.065 2.233-2.065m0-.349c-1.219 0-2.339.983-2.576 2.355l-.696 4.035c-.262 1.517.642 2.946 2.018 3.184l27.518 4.769c.13.023.262.034.394.035 1.22 0 2.339-.983 2.578-2.355l.696-4.036c.263-1.517-.64-2.945-2.017-3.183l-27.518-4.769a2.348 2.348 0 0 0-.395-.035h-.002z"/>
        <path fill="#FFF" d="M60.88 95.156c-.122 0-.244-.01-.364-.032l-27.527-4.777c-1.282-.221-2.123-1.559-1.876-2.982l.697-4.035c.218-1.26 1.252-2.209 2.405-2.209.122 0 .244.01.364.032l27.527 4.768c1.282.222 2.123 1.568 1.876 2.982l-.697 4.035c-.218 1.26-1.252 2.21-2.405 2.21v.008z"/>
        <path fill="#8FC97E" d="M34.217 81.302c.112 0 .224.01.334.028l27.527 4.77c.58.104 1.088.452 1.393.955.34.544.464 1.195.349 1.825l-.697 4.036c-.204 1.177-1.163 2.065-2.233 2.065-.112 0-.224-.01-.334-.03l-27.518-4.768a2.062 2.062 0 0 1-1.394-.956 2.585 2.585 0 0 1-.348-1.825l.697-4.036c.205-1.177 1.165-2.064 2.234-2.064m0-.348c-1.228 0-2.339.98-2.577 2.353l-.697 4.036c-.263 1.517.643 2.945 2.017 3.183l27.527 4.769c.13.023.262.034.395.035 1.228 0 2.34-.983 2.576-2.355l.697-4.034c.263-1.518-.643-2.947-2.019-3.183l-27.532-4.77a2.325 2.325 0 0 0-.394-.034h.007z"/>
        <path fill="#FFF" d="M58.76 107.384c-.122 0-.244-.01-.364-.032l-27.518-4.768a2.233 2.233 0 0 1-1.506-1.035 2.757 2.757 0 0 1-.37-1.949l.697-4.035c.22-1.26 1.252-2.209 2.405-2.209.123 0 .245.01.366.032l27.518 4.768c1.28.223 2.121 1.568 1.876 2.984l-.697 4.035c-.22 1.26-1.254 2.209-2.407 2.209z"/>
        <path fill="#8FC97E" d="M32.097 93.53c.113.001.225.01.336.028l27.519 4.77a2.06 2.06 0 0 1 1.393.955 2.58 2.58 0 0 1 .348 1.827l-.696 4.036c-.204 1.175-1.166 2.064-2.235 2.064-.112 0-.224-.01-.334-.03l-27.529-4.769a2.048 2.048 0 0 1-1.393-.956 2.572 2.572 0 0 1-.349-1.825l.697-4.036c.204-1.175 1.163-2.063 2.233-2.063m0-.349c-1.22 0-2.34.983-2.576 2.353l-.697 4.036c-.263 1.517.641 2.945 2.017 3.183l27.518 4.77c.13.023.262.034.394.034 1.228 0 2.339-.982 2.577-2.353l.697-4.035c.263-1.517-.64-2.946-2.017-3.184l-27.518-4.77a2.344 2.344 0 0 0-.395-.034z"/>
        <path fill="#8FC97E" stroke="#8FC97E" stroke-width=".6" d="M41.368 1.256L82.598 8.4"/>
    </g>
</svg>
