<svg xmlns="http://www.w3.org/2000/svg" width="94" height="95" viewBox="0 0 94 95">
    <g fill="none" fill-rule="evenodd">
        <path fill="#E4E4E3" fill-rule="nonzero" d="M90.681 2.723v88.654H2.027v2.738h91.394V2.723z"/>
        <path fill="#FFF" fill-rule="nonzero" stroke="#8FCB7F" stroke-width=".878" d="M90.681 1.031v90.346H1V1.03"/>
        <path fill="#8FCB7F" fill-rule="nonzero" d="M41.033 18.436a2.145 2.145 0 0 1 2.147 2.145v3.566a2.147 2.147 0 0 1-2.147 2.147H14.199a2.147 2.147 0 0 1-2.146-2.147v-3.566a2.145 2.145 0 0 1 2.146-2.145h26.834m0-.293H14.199a2.434 2.434 0 0 0-2.43 2.431v3.566a2.435 2.435 0 0 0 2.43 2.44h26.834a2.435 2.435 0 0 0 2.43-2.433v-3.566a2.434 2.434 0 0 0-2.43-2.43v-.008zM41.033 29.241c1.185 0 2.147.962 2.147 2.147v3.565a2.147 2.147 0 0 1-2.147 2.142H14.199a2.147 2.147 0 0 1-2.146-2.147v-3.56c0-1.185.96-2.147 2.146-2.147h26.834m0-.285H14.199a2.434 2.434 0 0 0-2.43 2.432v3.565a2.434 2.434 0 0 0 2.43 2.435h26.834a2.434 2.434 0 0 0 2.43-2.432v-3.568a2.434 2.434 0 0 0-2.43-2.432zM41.033 40.047c1.185 0 2.147.96 2.147 2.147v3.566a2.147 2.147 0 0 1-2.147 2.146H14.199a2.147 2.147 0 0 1-2.146-2.146v-3.566c0-1.186.96-2.147 2.146-2.147h26.834m0-.286H14.199a2.435 2.435 0 0 0-2.43 2.433v3.566a2.434 2.434 0 0 0 2.43 2.43h26.834a2.434 2.434 0 0 0 2.43-2.43v-3.566a2.435 2.435 0 0 0-2.43-2.433zM41.033 50.85c1.185 0 2.147.962 2.147 2.147v3.567a2.147 2.147 0 0 1-2.147 2.146H14.199a2.147 2.147 0 0 1-2.146-2.146v-3.565a2.147 2.147 0 0 1 2.146-2.148h26.834m0-.284H14.199a2.434 2.434 0 0 0-2.43 2.43v3.567a2.435 2.435 0 0 0 2.43 2.433h26.834a2.435 2.435 0 0 0 2.43-2.432V53a2.434 2.434 0 0 0-2.43-2.43v-.002zM41.033 61.659c1.185 0 2.147.961 2.147 2.147v3.564a2.147 2.147 0 0 1-2.147 2.147H14.199a2.147 2.147 0 0 1-2.146-2.147v-3.564c0-1.186.96-2.147 2.146-2.147h26.834m0-.293H14.199a2.434 2.434 0 0 0-2.43 2.432v3.565a2.434 2.434 0 0 0 2.43 2.44h26.834a2.434 2.434 0 0 0 2.43-2.433v-3.564a2.434 2.434 0 0 0-2.43-2.432v-.008zM41.033 72.464c1.185 0 2.147.961 2.147 2.147v3.566a2.145 2.145 0 0 1-2.147 2.146H14.199a2.145 2.145 0 0 1-2.146-2.146v-3.566a2.147 2.147 0 0 1 2.146-2.147h26.834m0-.292H14.199a2.435 2.435 0 0 0-2.43 2.432v3.566a2.434 2.434 0 0 0 2.43 2.438h26.834a2.434 2.434 0 0 0 2.43-2.43V74.61a2.435 2.435 0 0 0-2.43-2.432v-.007zM77.482 18.436a2.145 2.145 0 0 1 2.147 2.145v3.566a2.147 2.147 0 0 1-2.147 2.147H50.65a2.147 2.147 0 0 1-2.147-2.147v-3.566a2.145 2.145 0 0 1 2.147-2.145h26.832m0-.293H50.65a2.434 2.434 0 0 0-2.432 2.431v3.566a2.435 2.435 0 0 0 2.432 2.432h26.832a2.435 2.435 0 0 0 2.432-2.432v-3.559a2.435 2.435 0 0 0-2.432-2.43v-.008zM77.482 29.241c1.186 0 2.147.962 2.147 2.147v3.565a2.147 2.147 0 0 1-2.147 2.142H50.65a2.147 2.147 0 0 1-2.147-2.147v-3.56a2.147 2.147 0 0 1 2.147-2.147h26.832m0-.285H50.65a2.434 2.434 0 0 0-2.432 2.432v3.565a2.434 2.434 0 0 0 2.432 2.435h26.832a2.435 2.435 0 0 0 2.432-2.432v-3.568a2.435 2.435 0 0 0-2.432-2.432zM77.482 40.047c1.186 0 2.147.96 2.147 2.147v3.566a2.147 2.147 0 0 1-2.147 2.146H50.65a2.147 2.147 0 0 1-2.147-2.146v-3.566a2.147 2.147 0 0 1 2.147-2.147h26.832m0-.286H50.65a2.435 2.435 0 0 0-2.432 2.433v3.566a2.434 2.434 0 0 0 2.432 2.43h26.832a2.435 2.435 0 0 0 2.432-2.43v-3.566a2.435 2.435 0 0 0-2.432-2.433zM77.482 50.85c1.186 0 2.147.962 2.147 2.147v3.567a2.147 2.147 0 0 1-2.147 2.146H50.65a2.147 2.147 0 0 1-2.147-2.146v-3.565a2.147 2.147 0 0 1 2.147-2.148h26.832m0-.284H50.65a2.434 2.434 0 0 0-2.432 2.43v3.567a2.435 2.435 0 0 0 2.432 2.432h26.832a2.435 2.435 0 0 0 2.432-2.432v-3.565a2.435 2.435 0 0 0-2.432-2.43v-.002zM77.482 61.659c1.186 0 2.147.961 2.147 2.147v3.564a2.147 2.147 0 0 1-2.147 2.147H50.65a2.147 2.147 0 0 1-2.147-2.147v-3.564a2.147 2.147 0 0 1 2.147-2.147h26.832m0-.293H50.65a2.434 2.434 0 0 0-2.432 2.432v3.565a2.434 2.434 0 0 0 2.432 2.432h26.832a2.435 2.435 0 0 0 2.432-2.432v-3.557a2.435 2.435 0 0 0-2.432-2.432v-.008zM77.482 72.464c1.186 0 2.147.961 2.147 2.147v3.566a2.145 2.145 0 0 1-2.147 2.146H50.65a2.145 2.145 0 0 1-2.147-2.146v-3.566c0-1.186.961-2.147 2.147-2.147h26.832m0-.292H50.65a2.435 2.435 0 0 0-2.432 2.432v3.566a2.434 2.434 0 0 0 2.432 2.43h26.832a2.435 2.435 0 0 0 2.432-2.43V74.61a2.435 2.435 0 0 0-2.432-2.432v-.007z"/>
        <text fill="#8FCB7F" font-family="TTHoves-Medium, TT Hoves" font-size="7" font-weight="400" transform="translate(1 1)">
            <tspan x="11" y="13">RECOVERY SEED</tspan>
        </text>
        <path fill="#8FCB7F" fill-rule="nonzero" stroke="#8FCB7F" stroke-width=".5" d="M1.023 1.177h89.652"/>
    </g>
</svg>
