<svg xmlns="http://www.w3.org/2000/svg" width="360" height="280" viewBox="0 0 360 280">
    <g fill="none" fill-rule="evenodd">
        <path fill="#D8D9DA" fill-rule="nonzero" d="M183.59 212.754v37.632h-6.16v-37.632z"/>
        <path fill="#BEBDC0" fill-rule="nonzero" d="M183.573 218.366l.017 27.073-6.16.004-.017-27.073zM170.777 172.574h19.463v36.459h-19.463z"/>
        <path fill="#D8D9DA" fill-rule="nonzero" d="M174.159 200.056h12.701v37.15h-12.701z"/>
        <path fill="#66686F" fill-rule="nonzero" d="M186.3 200.616v36.03h-11.58v-36.03h11.58m1.12-1.12H173.6v38.27h13.82v-38.27z"/>
        <path fill="#D8D9DA" fill-rule="nonzero" d="M169.24 190.242h22.534v33.454H169.24z"/>
        <path fill="#66686F" fill-rule="nonzero" d="M191.217 190.802v32.334H169.8v-32.334h21.417m1.12-1.12H168.68v34.574h23.657v-34.574z"/>
        <path fill="#FFF" fill-rule="nonzero" d="M186.499 221.134h2.145v-25.38a2.145 2.145 0 0 0-2.145-2.144v27.524zM179.364 236.29h6.516v-6.507a6.507 6.507 0 0 0-6.516 6.507z"/>
        <path fill="#7A7F80" fill-rule="nonzero" d="M214.754 48.61h-68.488c-5.455 0-9.877 4.42-9.879 9.875v75.712c0 11.538 2.952 21.486 9.234 29.234l18.927 23.377a2.493 2.493 0 0 0 1.94.925h28.041a2.5 2.5 0 0 0 1.941-.924l18.926-23.378c6.283-7.756 9.233-17.695 9.233-29.234V58.485c-.001-5.454-4.422-9.874-9.875-9.876zm-68.488 1.12h68.488a8.758 8.758 0 0 1 8.755 8.755v75.712c0 11.299-2.876 20.99-8.983 28.53L195.6 186.103a1.38 1.38 0 0 1-1.07.509h-28.043c-.415 0-.808-.187-1.068-.51l-18.928-23.377c-6.105-7.53-8.984-17.23-8.984-28.53V58.486a8.758 8.758 0 0 1 8.759-8.756z"/>
        <path fill="#D8D9DA" fill-rule="nonzero" d="M216.179 136.328V60.896a5.14 5.14 0 0 0-5.144-5.141h-60.959a5.144 5.144 0 0 0-5.143 5.14v75.466a36.285 36.285 0 0 0 3.987 16.545l3.576 6.975-5.404 4.48 17.886 22.09c.367.453.92.716 1.504.716h28.047a1.94 1.94 0 0 0 1.507-.717l17.883-22.089-5.359-4.452 3.592-6.98a36.271 36.271 0 0 0 4.027-16.601z"/>
        <path fill="#D8D9DA" fill-rule="nonzero" d="M148.64 62.702a2.937 2.937 0 0 1-1.896-.695l-5.384-4.57a2.94 2.94 0 0 1 3.797-4.48l5.404 4.57a2.94 2.94 0 0 1-1.921 5.175z"/>
        <rect width="62.059" height="62.059" x="149.477" y="69.304" fill="#7A7F80" fill-rule="nonzero" rx="3.598"/>
        <rect width="62.059" height="62.059" x="149.477" y="75.685" fill="#FFF" fill-rule="nonzero" rx="3.598"/>
        <rect width="60.939" height="60.939" x="150.037" y="73.311" fill="#C6E2BA" fill-rule="nonzero" rx="3.038"/>
        <path fill="#7A7F80" fill-rule="nonzero" d="M207.941 73.87a2.484 2.484 0 0 1 2.478 2.482v54.863a2.48 2.48 0 0 1-2.478 2.478h-54.863a2.484 2.484 0 0 1-2.48-2.478V76.36a2.486 2.486 0 0 1 2.48-2.48h54.863m0-1.12h-54.863a3.6 3.6 0 0 0-3.598 3.6v54.855a3.6 3.6 0 0 0 3.6 3.598h54.861a3.6 3.6 0 0 0 3.598-3.598V76.36a3.6 3.6 0 0 0-3.598-3.6z"/>
        <path fill="#7A7F80" fill-rule="nonzero" d="M214.754 48.61h-68.488c-5.455 0-9.877 4.42-9.879 9.875v75.712c0 11.538 2.952 21.486 9.234 29.234l18.927 23.377a2.493 2.493 0 0 0 1.94.925h28.041a2.5 2.5 0 0 0 1.941-.924l18.926-23.378c6.283-7.756 9.233-17.695 9.233-29.234V58.485c-.001-5.454-4.422-9.874-9.875-9.876zm-68.488 1.12h68.488a8.758 8.758 0 0 1 8.755 8.755v75.712c0 11.299-2.876 20.99-8.983 28.53L195.6 186.103a1.38 1.38 0 0 1-1.07.509h-28.043c-.415 0-.808-.187-1.068-.51l-18.928-23.377c-6.105-7.53-8.984-17.23-8.984-28.53V58.486a8.758 8.758 0 0 1 8.759-8.756z"/>
        <path fill="#FFF" d="M170.264 102.492c.708-.7 1.849-.7 2.557 0l5.255 5.2 12.48-12.35a1.823 1.823 0 0 1 2.556 0 1.775 1.775 0 0 1 0 2.52l-15.038 14.898-7.81-7.725a1.775 1.775 0 0 1 0-2.543z"/>
        <circle cx="110.661" cy="54.676" r="21.661" fill="#F9C447" fill-rule="nonzero" opacity=".4"/>
        <circle cx="110.661" cy="54.676" r="14.661" fill="#F9C447" fill-rule="nonzero"/>
        <path fill="#FFF" fill-rule="nonzero" d="M110.659 45.458l9.216 9.216-9.216 9.217-9.217-9.217z"/>
        <circle cx="254.007" cy="100.334" r="16.867" fill="#F9C447" fill-rule="nonzero" opacity=".4"/>
        <circle cx="254.007" cy="100.334" r="11.418" fill="#F9C447" fill-rule="nonzero"/>
        <path fill="#FFF" fill-rule="nonzero" d="M253.919 93.16l7.254 7.104-7.104 7.254-7.254-7.104z"/>
        <circle cx="121.357" cy="176.743" r="16.867" fill="#F9C447" fill-rule="nonzero" opacity=".4"/>
        <circle cx="121.357" cy="176.743" r="11.418" fill="#F9C447" fill-rule="nonzero"/>
        <path fill="#FFF" fill-rule="nonzero" d="M121.27 169.557l7.255 7.104-7.104 7.254-7.254-7.104z"/>
        <circle cx="231.588" cy="21.858" r="19.858" fill="#F9C447" fill-rule="nonzero" opacity=".4"/>
        <circle cx="231.588" cy="21.858" r="13.443" fill="#F9C447" fill-rule="nonzero"/>
        <path fill="#FFF" fill-rule="nonzero" d="M231.493 13.414l8.538 8.36-8.361 8.539-8.538-8.361z"/>
        <circle cx="207.832" cy="193.61" r="19.858" fill="#F9C447" fill-rule="nonzero" opacity=".4"/>
        <circle cx="207.832" cy="193.61" r="13.443" fill="#F9C447" fill-rule="nonzero"/>
        <path fill="#FFF" fill-rule="nonzero" d="M207.73 185.156l8.538 8.361-8.361 8.538-8.538-8.36z"/>
    </g>
</svg>
