<svg xmlns="http://www.w3.org/2000/svg" width="100" height="122" viewBox="0 0 100 122">
    <g fill="none" fill-rule="evenodd" transform="translate(2 2)">
        <path fill="#D8D9DA" fill-rule="nonzero" d="M50.579 63.317l-8.1-1.686-5.137 24.704 1.86.387-1.063 5.11 4.38.91 1.064-5.11 1.859.388z"/>
        <path stroke="#D8D9DA" stroke-linecap="round" stroke-width="1.674" d="M57.886 114.685c-23.382-1.091-18.31-20.92-17.416-25.34"/>
        <path fill="#D8D9DA" fill-rule="nonzero" d="M67.336 26.805l-25.905-5.387a3.6 3.6 0 0 0-4.258 2.79L31.22 52.846c-.827 3.977-.687 8.03 1.174 11.641l5.32 10.33c.103.202.292.345.513.39l10.602 2.207a.75.75 0 0 0 .626-.153l8.997-7.353c3.146-2.567 4.89-6.232 5.717-10.21l5.955-28.637a3.6 3.6 0 0 0-2.787-4.256z"/>
        <path stroke="#D8D9DA" stroke-width="2.455" d="M38.22 89.124c-4.182 20.118 8.106 24.076 14.326 25.088 5.293.86 18.877 3.322 31.71-28.387 1.492-4.16 3.188-8.437 2.414-12.774-.49-2.737-1.523-5.738-.123-8.146.9-1.547 2.74-2.456 4.527-2.344 1.787.112 3.46 1.178 4.413 2.694.81 1.286 1.116 2.841 1.098 4.361-.062 4.28-3.099 8.55-7.306 9.346-1.257.237-2.658.14-3.662-.653-.571-.452-.968-1.097-1.22-1.786a5.654 5.654 0 0 1 .77-5.234c.829-1.11 2.035-1.865 3.038-2.819 3.083-2.935 3.616-7.477 4.478-11.666C97.86 30.754 82.07 8.117 56.708 1.95 25.989-5.52 6.74 8.907.753 37.7c-4.197 20.183 10.295 41.411 14.982 50.232 3.163 5.955 3.781 7.94 3.915 13.938M49.724.605C30.888-2.078 16.974 4.273 8.474 17.58"/>
        <path fill="#A3A4A9" fill-rule="nonzero" stroke="#7A7F80" stroke-width="2.455" d="M37.419 94.984c.055-2.422.79-5.501.79-5.501"/>
        <path fill="#BEBDC0" fill-rule="nonzero" d="M36.308 80.17l2.868-13.791 7.362 1.531-2.868 13.791z"/>
        <path fill="#D8D9DA" fill-rule="nonzero" d="M35.361 91.097l2.926-14.065 4.817 1.002L40.178 92.1z"/>
        <path fill="#7A7F80" fill-rule="nonzero" d="M38.46 77.292l4.38.91-2.834 13.63-4.38-.912 2.833-13.628m-.346-.528l-.09.436-2.835 13.629-.09.437.437.09 4.38.911.437.092.091-.438 2.834-13.628.091-.436-.437-.092-4.38-.91-.438-.09z"/>
        <path fill="#7A7F80" fill-rule="nonzero" d="M36.618 86.136l4.379.91-.273 1.311-4.378-.91z"/>
        <path fill="#D8D9DA" fill-rule="nonzero" d="M34.565 85.6L37.2 72.932l8.537 1.775-2.635 12.667z"/>
        <path fill="#7A7F80" fill-rule="nonzero" d="M37.371 73.193l8.1 1.69-2.542 12.224-8.1-1.684 2.542-12.23m-.346-.528l-.086.432-2.548 12.235-.09.437.436.09 8.101 1.686.437.09.091-.438 2.543-12.23.09-.436-.437-.091-8.1-1.684-.437-.09z"/>
        <path fill="#FFF" fill-rule="nonzero" d="M43.945 75.517l.288.06a.535.535 0 0 1 .417.63l-2.098 10.28-.812-.165 2.205-10.805zM40.11 67.299l.98.203-1.066 5.124-.98-.204zM37.574 91.184l2.455.512.513-2.455a2.512 2.512 0 0 0-2.968 1.943z"/>
        <path fill="#BEBDC0" fill-rule="nonzero" d="M16.842 105.284l7.444-1.053 1.972 13.945-7.444 1.053z"/>
        <path fill="#D8D9DA" fill-rule="nonzero" d="M16.467 94.384l4.873-.681 1.989 14.227-4.873.681z"/>
        <path fill="#7A7F80" fill-rule="nonzero" d="M21.146 93.956l1.926 13.786-4.435.62-1.923-13.787 4.432-.62m.38-.502l-.446.061-4.43.62-.447.062.061.446 1.928 13.786.061.446.446-.061 4.432-.62.446-.062-.061-.446-1.928-13.79-.062-.447v.005zM17.634 112.085l7.444-1.041.157 1.122-7.444 1.041z"/>
        <path fill="#D8D9DA" fill-rule="nonzero" d="M15.31 99.816l8.635-1.207 1.792 12.813-8.636 1.207z"/>
        <path fill="#7A7F80" fill-rule="nonzero" d="M23.75 98.863l1.73 12.372-8.196 1.145-1.728-12.372 8.193-1.145m.38-.503l-.446.06-8.194 1.146-.447.062.063.447 1.729 12.37.06.447.447-.063 8.194-1.145.446-.061-.061-.446-1.73-12.371-.061-.446z"/>
        <path fill="#FFF" fill-rule="nonzero" d="M22.167 99.473l.82-.114 1.453 10.389a.535.535 0 0 1-.456.603l-.29.041-1.527-10.919zM18.915 113.26l.99-.139.725 5.183-.99.138zM18.675 94.441l2.49-.348.348 2.489a2.514 2.514 0 0 1-2.838-2.14z"/>
        <path fill="#FFF" fill-rule="nonzero" stroke="#7A7F80" stroke-width=".5" d="M65.766 23.61l-25.89-5.452a3.6 3.6 0 0 0-4.265 2.78L29.585 49.56c-.837 3.975-.708 8.028 1.144 11.644l5.293 10.344c.103.2.291.345.512.392l10.602 2.232a.751.751 0 0 0 .627-.152l9.016-7.33c3.153-2.567 4.91-6.22 5.743-10.194l6.026-28.622a3.6 3.6 0 0 0-2.782-4.263z"/>
        <path fill="#D8D9DA" fill-rule="nonzero" d="M59.37 56.674l6.007-28.515a1.988 1.988 0 0 0-1.543-2.354L40.788 20.95a1.986 1.986 0 0 0-2.352 1.535l-6.008 28.53a14.029 14.029 0 0 0 .192 6.57l.796 2.921-2.4 1.265 5.002 9.775c.104.2.292.344.513.392l10.602 2.231a.748.748 0 0 0 .627-.151l8.52-6.927-1.675-2.112 1.914-2.352a14.007 14.007 0 0 0 2.851-5.953z"/>
        <path fill="#D8D9DA" fill-rule="nonzero" d="M39.698 23.464a1.134 1.134 0 0 1-.662-.414l-1.68-2.158a1.136 1.136 0 0 1 1.794-1.396l1.674 2.159a1.136 1.136 0 0 1-1.13 1.809h.004z"/>
        <rect width="23.976" height="23.976" x="36.762" y="28.236" fill="#7A7F80" fill-rule="nonzero" rx="1.391" transform="rotate(11.89 48.75 40.224)"/>
        <rect width="23.976" height="23.976" x="36.253" y="30.649" fill="#FFF" fill-rule="nonzero" rx="1.391" transform="rotate(11.89 48.241 42.637)"/>
        <path fill="#C6E2BA" fill-rule="nonzero" d="M56.659 55.252c-.082 0-.163-.008-.243-.025l-20.74-4.368a1.168 1.168 0 0 1-.9-1.383l4.367-20.74a1.164 1.164 0 0 1 1.383-.902l20.742 4.369a1.168 1.168 0 0 1 .9 1.388L57.8 54.325a1.17 1.17 0 0 1-1.14.927z"/>
        <path fill="#7A7F80" fill-rule="nonzero" d="M40.287 28.031a.97.97 0 0 1 .196.022l20.741 4.367a.944.944 0 0 1 .729 1.116L57.585 54.28a.949.949 0 0 1-1.118.73L35.723 50.64a.945.945 0 0 1-.73-1.116l4.369-20.743a.947.947 0 0 1 .922-.75m0-.446a1.393 1.393 0 0 0-1.36 1.105l-4.368 20.74a1.39 1.39 0 0 0 1.074 1.646l20.74 4.37a1.392 1.392 0 0 0 1.647-1.074l4.367-20.74a1.39 1.39 0 0 0-1.074-1.648l-20.738-4.369a1.4 1.4 0 0 0-.288-.03z"/>
        <path stroke="#7A7F80" stroke-width=".5" d="M65.766 23.61l-25.89-5.452a3.6 3.6 0 0 0-4.265 2.78L29.585 49.56c-.837 3.975-.708 8.028 1.144 11.644l5.293 10.344c.103.2.291.345.512.392l10.602 2.232a.751.751 0 0 0 .627-.152l9.016-7.33c3.153-2.567 4.91-6.22 5.743-10.194l6.026-28.622a3.6 3.6 0 0 0-2.782-4.263z"/>
        <path fill="#E1EEDC" fill-rule="nonzero" d="M57.402 54.095l2.888-13.712-17.648 11.51 13.715 2.886a.884.884 0 0 0 1.045-.684z"/>
        <circle cx="37.814" cy="55.94" r="1.418" fill="#BEBDC0" fill-rule="nonzero"/>
        <path fill="#BEBDC0" fill-rule="nonzero" d="M49.916 23.169a1.713 1.713 0 1 1-2.88-1.252l2.737.566c.094.216.143.45.143.686z"/>
        <path stroke="#BEBDC0" stroke-width=".5" d="M38.676 64.628s10.49-2.79 18.795-2.467"/>
    </g>
</svg>
