<svg xmlns="http://www.w3.org/2000/svg" xml:space="preserve" fill="none" viewBox="0 0 24 24">
  <path fill="#000" fill-rule="evenodd" d="M4.348 3.479c-.384.15-.724.494-.871.879-.075.198-.077.397-.077 7.642s.002 7.444.077 7.642c.148.39.481.723.891.891l.212.087h14.84l.212-.087c.41-.168.733-.491.901-.901l.087-.212V4.58l-.087-.212a1.6 1.6 0 0 0-.891-.891c-.198-.075-.395-.077-7.652-.075-7.189.002-7.457.004-7.642.077M11.24 12v7.12H4.88V4.88h6.36zm7.88-6.18v.94h-6.36V4.88h6.36zm0 3.18v.76h-6.36V8.24h6.36zm0 3v.76h-6.36v-1.52h6.36zm0 3v.76h-6.36v-1.52h6.36zm0 3.18v.94h-6.36v-1.88h6.36z"/>
</svg>
