<svg xmlns="http://www.w3.org/2000/svg" xml:space="preserve" fill="none" viewBox="0 0 24 24">
  <path fill="#000" fill-rule="evenodd" d="M7.18 3.827a.7.7 0 0 0-.344.341c-.074.144-.076.353-.076 6.84v6.691l-.91-.905c-.5-.499-.968-.935-1.038-.97-.244-.122-.603-.065-.826.131-.219.192-.289.607-.149.877.096.183 3.174 3.256 3.351 3.344a.8.8 0 0 0 .312.064.8.8 0 0 0 .312-.064c.177-.088 3.255-3.161 3.351-3.344.14-.27.07-.685-.149-.877-.223-.196-.582-.253-.826-.131-.07.035-.538.471-1.038.97l-.91.905v-6.691c0-6.487-.002-6.696-.076-6.84a.68.68 0 0 0-.352-.343c-.162-.082-.475-.081-.632.002m9-.001c-.175.091-3.251 3.167-3.343 3.342-.14.27-.07.685.149.877.223.196.582.253.826.131.07-.035.538-.471 1.038-.97l.91-.905v6.691c0 6.487.002 6.696.076 6.84a.72.72 0 0 0 .664.408.72.72 0 0 0 .664-.408c.074-.144.076-.353.076-6.84V6.301l.91.905c.501.499.968.935 1.038.97.254.127.673.048.857-.162a.78.78 0 0 0 .118-.846c-.096-.183-3.174-3.256-3.351-3.344-.162-.081-.475-.08-.632.002"/>
</svg>
