<svg xmlns="http://www.w3.org/2000/svg" viewBox="0 0 40 16">
  <path fill-rule="evenodd" d="M.507 3.151c-.836.479-.571 1.724.39 1.832 1.052.119 1.519-1.283.605-1.819-.347-.203-.657-.207-.995-.013m3 0c-.836.479-.571 1.724.39 1.832 1.052.119 1.519-1.283.605-1.819-.347-.203-.657-.207-.995-.013m3 0c-.836.479-.571 1.724.39 1.832 1.052.119 1.519-1.283.605-1.819-.347-.203-.657-.207-.995-.013m3.587-.056c-.585.255-.758 1.018-.348 1.539.305.388-.482.366 12.919.366H35v5.559l-.683-.671c-.376-.368-.78-.719-.897-.779-.3-.153-.596-.136-.922.055-.454.267-.62.793-.397 1.262.056.117.843.952 1.75 1.855 2.3 2.291 1.998 2.291 4.298 0 .907-.903 1.694-1.738 1.75-1.855.405-.853-.48-1.739-1.319-1.319-.117.058-.521.41-.897.782l-.683.675V7.176c0-3.824.014-3.712-.498-4.012L36.222 3l-12.961.003c-10.697.002-12.997.018-13.167.092"/>
</svg>
