<svg xmlns="http://www.w3.org/2000/svg" viewBox="0 0 14 14"><path d="M0.000 1.820 L 0.000 2.637 0.811 2.631 L 1.622 2.625 1.628 1.814 L 1.634 1.003 0.817 1.003 L 0.000 1.003 0.000 1.820 M0.000 5.063 L 0.000 5.880 0.817 5.880 L 1.633 5.880 1.633 5.063 L 1.633 4.247 0.817 4.247 L 0.000 4.247 0.000 5.063 M8.120 5.063 L 8.120 5.880 8.937 5.880 L 9.753 5.880 9.753 6.697 L 9.753 7.513 10.558 7.513 L 11.363 7.513 11.363 8.318 L 11.363 9.123 10.558 9.123 L 9.753 9.123 9.753 9.940 L 9.753 10.757 8.937 10.757 L 8.120 10.757 8.120 11.562 L 8.120 12.367 8.937 12.367 L 9.753 12.367 9.753 11.562 L 9.753 10.757 10.564 10.751 L 11.375 10.745 11.381 9.934 L 11.387 9.123 12.192 9.123 L 12.997 9.123 12.997 8.318 L 12.997 7.513 12.192 7.513 L 11.387 7.513 11.387 6.697 L 11.387 5.880 10.570 5.880 L 9.753 5.880 9.753 5.063 L 9.753 4.247 8.937 4.247 L 8.120 4.247 8.120 5.063 M0.000 8.318 L 0.000 9.123 0.817 9.123 L 1.633 9.123 1.633 8.318 L 1.633 7.513 0.817 7.513 L 0.000 7.513 0.000 8.318 M3.243 8.318 L 3.243 9.123 4.060 9.123 L 4.877 9.123 4.877 8.318 L 4.877 7.513 4.060 7.513 L 3.243 7.513 3.243 8.318 M6.487 8.318 L 6.487 9.123 7.303 9.123 L 8.120 9.123 8.120 8.318 L 8.120 7.513 7.303 7.513 L 6.487 7.513 6.487 8.318 " stroke="none" fill-rule="evenodd" fill="black"></path></svg>