<svg xmlns="http://www.w3.org/2000/svg" viewBox="0 0 14 14"><path d="M0.490 1.318 L 0.490 2.123 1.307 2.123 L 2.123 2.123 2.123 1.318 L 2.123 0.513 1.307 0.513 L 0.490 0.513 0.490 1.318 M3.757 1.318 L 3.757 2.123 4.562 2.123 L 5.367 2.123 5.367 1.318 L 5.367 0.513 4.562 0.513 L 3.757 0.513 3.757 1.318 M7.000 1.318 L 7.000 2.123 7.817 2.123 L 8.633 2.123 8.633 1.318 L 8.633 0.513 7.817 0.513 L 7.000 0.513 7.000 1.318 M7.000 4.562 L 7.000 5.367 7.817 5.367 L 8.633 5.367 8.633 4.562 L 8.633 3.757 7.817 3.757 L 7.000 3.757 7.000 4.562 M7.000 7.817 L 7.000 8.633 7.817 8.633 L 8.633 8.633 8.633 7.817 L 8.633 7.000 7.817 7.000 L 7.000 7.000 7.000 7.817 M3.757 9.438 L 3.757 10.243 4.562 10.243 L 5.367 10.243 5.367 11.060 L 5.367 11.877 6.183 11.877 L 7.000 11.877 7.000 12.694 L 7.000 13.511 7.811 13.504 L 8.622 13.498 8.628 12.688 L 8.634 11.877 9.439 11.877 L 10.243 11.877 10.243 11.060 L 10.243 10.243 11.060 10.243 L 11.877 10.243 11.877 9.438 L 11.877 8.633 11.060 8.633 L 10.243 8.633 10.243 9.438 L 10.243 10.243 9.438 10.243 L 8.633 10.243 8.633 11.060 L 8.633 11.877 7.817 11.877 L 7.000 11.877 7.000 11.060 L 7.000 10.243 6.183 10.243 L 5.367 10.243 5.367 9.438 L 5.367 8.633 4.562 8.633 L 3.757 8.633 3.757 9.438 " stroke="none" fill-rule="evenodd" fill="black"></path></svg>