<svg xmlns="http://www.w3.org/2000/svg" fill-rule="evenodd" viewBox="0 0 24 24"><path d="M4.718 3.797 L 3.257 3.820 3.024 3.960 C 2.738 4.132,2.502 4.389,2.364 4.680 L 2.260 4.900 2.260 12.000 L 2.260 19.100 2.368 19.331 C 2.507 19.628,2.852 19.973,3.149 20.112 L 3.380 20.220 12.000 20.220 L 20.620 20.220 20.851 20.112 C 21.148 19.973,21.493 19.628,21.632 19.331 L 21.740 19.100 21.740 12.000 L 21.740 4.900 21.632 4.669 C 21.494 4.375,21.167 4.048,20.860 3.898 L 20.620 3.780 13.400 3.777 C 9.429 3.775,5.522 3.784,4.718 3.797 M20.240 12.000 L 20.240 18.760 12.000 18.760 L 3.760 18.760 3.760 12.000 L 3.760 5.240 12.000 5.240 L 20.240 5.240 20.240 12.000 M6.091 6.999 C 5.793 7.070,5.488 7.440,5.450 7.778 C 5.407 8.161,5.706 8.643,6.060 8.760 C 6.432 8.883,6.931 8.709,7.154 8.378 C 7.282 8.187,7.287 8.168,7.274 7.853 C 7.262 7.568,7.245 7.505,7.140 7.353 C 6.921 7.037,6.511 6.899,6.091 6.999 M9.729 7.042 C 9.148 7.339,9.025 8.067,9.479 8.521 C 10.168 9.210,11.259 8.533,10.995 7.580 C 10.937 7.371,10.841 7.239,10.646 7.104 C 10.418 6.946,9.975 6.916,9.729 7.042 " stroke="none" fill-rule="evenodd" fill="black"></path></svg>