<svg xmlns="http://www.w3.org/2000/svg" fill-rule="evenodd" viewBox="0 0 24 24">
  <path d="m4.718 3.797-1.461.023-.233.14a1.7 1.7 0 0 0-.66.72l-.104.22v14.2l.108.231c.139.297.484.642.781.781l.231.108h17.24l.231-.108c.297-.139.642-.484.781-.781l.108-.231V4.9l-.108-.231c-.138-.294-.465-.621-.772-.771l-.24-.118-7.22-.003c-3.971-.002-7.878.007-8.682.02M20.24 12v6.76H3.76V5.24h16.48zM6.091 6.999c-.298.071-.603.441-.641.779-.043.383.256.865.61.982.372.123.871-.051 1.094-.382.128-.191.133-.21.12-.525-.012-.285-.029-.348-.134-.5-.219-.316-.629-.454-1.049-.354m3.638.043c-.581.297-.704 1.025-.25 1.479.689.689 1.78.012 1.516-.941a.78.78 0 0 0-.349-.476c-.228-.158-.671-.188-.917-.062"/>
</svg>
