<svg xmlns="http://www.w3.org/2000/svg" fill="none" viewBox="0 0 24 24"><path d="M13.193 4.174 C 12.717 4.307,12.387 4.743,12.386 5.240 C 12.385 5.736,12.305 5.641,15.051 8.390 L 17.538 10.879 10.479 10.890 L 3.420 10.900 3.260 10.986 C 2.867 11.199,2.641 11.569,2.641 12.000 C 2.641 12.431,2.867 12.801,3.260 13.014 L 3.420 13.100 10.470 13.120 L 17.520 13.140 15.077 15.580 C 12.487 18.168,12.454 18.204,12.412 18.618 C 12.360 19.114,12.687 19.623,13.157 19.779 C 13.428 19.869,13.792 19.846,14.041 19.721 C 14.311 19.587,21.167 12.727,21.277 12.480 C 21.389 12.232,21.389 11.768,21.278 11.520 C 21.163 11.264,14.266 4.372,14.000 4.247 C 13.766 4.137,13.430 4.107,13.193 4.174 " fill="currentColor" stroke="none" fill-rule="evenodd"></path></svg>