<svg xmlns="http://www.w3.org/2000/svg" fill-rule="evenodd" stroke-linejoin="round" stroke-miterlimit="2" clip-rule="evenodd" viewBox="0 0 24 24">
  <path d="M7.365 6.048c-.216.048-.506.321-1.822 1.712-2.872 3.038-3.438 3.668-3.504 3.905a.8.8 0 0 0 .119.682c.222.3 3.327 3.62 4.319 4.621.78.785.972.883 1.463.747.41-.113.656-.68.479-1.102-.084-.203-.586-.759-2.79-3.093-.364-.385-.653-.708-.644-.718s3.694-.031 8.187-.047 8.217-.041 8.278-.056c.248-.063.55-.509.55-.811 0-.33-.294-.741-.58-.813-.103-.026-3.047-.049-8.312-.063-4.483-.012-8.146-.036-8.14-.053s.536-.586 1.176-1.265c1.973-2.093 2.209-2.363 2.28-2.605.101-.342-.012-.752-.253-.92-.236-.164-.462-.198-.806-.121"/>
</svg>
