<svg xmlns="http://www.w3.org/2000/svg" fill="none" viewBox="0 0 24 24">
  <path fill="currentColor" fill-rule="evenodd" d="M13.193 4.174a1.11 1.11 0 0 0-.807 1.066c-.001.496-.081.401 2.665 3.15l2.487 2.489-7.059.011-7.059.01-.16.086A1.13 1.13 0 0 0 2.641 12c0 .431.226.801.619 1.014l.16.086 7.05.02 7.05.02-2.443 2.44c-2.59 2.588-2.623 2.624-2.665 3.038a1.135 1.135 0 0 0 .745 1.161c.271.09.635.067.884-.058.27-.134 7.126-6.994 7.236-7.241.112-.248.112-.712.001-.96-.115-.256-7.012-7.148-7.278-7.273-.234-.11-.57-.14-.807-.073"/>
</svg>
