<svg xmlns="http://www.w3.org/2000/svg" fill-rule="evenodd" stroke-linejoin="round" stroke-miterlimit="2" clip-rule="evenodd" viewBox="0 0 24 24"><path d="M7.365 6.048 C 7.149 6.096,6.859 6.369,5.543 7.760 C 2.671 10.798,2.105 11.428,2.039 11.665 C 1.973 11.898,2.019 12.159,2.158 12.347 C 2.380 12.647,5.485 15.967,6.477 16.968 C 7.257 17.753,7.449 17.851,7.940 17.715 C 8.350 17.602,8.596 17.035,8.419 16.613 C 8.335 16.410,7.833 15.854,5.629 13.520 C 5.265 13.135,4.976 12.812,4.985 12.802 C 4.995 12.792,8.679 12.771,13.172 12.755 C 17.664 12.739,21.389 12.714,21.450 12.699 C 21.698 12.636,22.000 12.190,22.000 11.888 C 22.000 11.558,21.706 11.147,21.420 11.075 C 21.317 11.049,18.373 11.026,13.108 11.012 C 8.625 11.000,4.962 10.976,4.968 10.959 C 4.975 10.942,5.504 10.373,6.144 9.694 C 8.117 7.601,8.353 7.331,8.424 7.089 C 8.525 6.747,8.412 6.337,8.171 6.169 C 7.935 6.005,7.709 5.971,7.365 6.048 " stroke="none" fill-rule="evenodd" fill="black"></path></svg>