<svg xmlns="http://www.w3.org/2000/svg" viewBox="0 0 24 24"><path d="M7.180 4.326 C 7.002 4.393,6.614 4.752,5.066 6.280 C 3.319 8.005,2.169 9.209,2.091 9.394 C 2.052 9.490,2.037 9.631,2.047 9.822 C 2.060 10.087,2.073 10.123,2.220 10.304 C 2.436 10.569,5.577 13.735,6.403 14.521 C 7.032 15.119,7.077 15.154,7.285 15.197 C 7.730 15.289,8.156 15.092,8.358 14.701 C 8.506 14.413,8.504 14.001,8.354 13.774 C 8.295 13.686,7.384 12.742,6.328 11.677 L 4.407 9.740 6.276 7.860 C 7.303 6.826,8.213 5.884,8.297 5.768 C 8.635 5.299,8.471 4.661,7.944 4.392 C 7.755 4.295,7.355 4.261,7.180 4.326 M11.708 4.307 C 11.631 4.320,11.341 4.570,10.768 5.118 C 9.769 6.073,6.921 8.942,6.699 9.216 C 6.543 9.409,6.540 9.418,6.541 9.736 C 6.541 9.976,6.561 10.096,6.616 10.198 C 6.700 10.353,10.257 13.950,11.050 14.681 C 11.493 15.090,11.587 15.159,11.763 15.201 C 12.128 15.288,12.481 15.172,12.729 14.882 C 12.893 14.691,12.960 14.490,12.960 14.193 C 12.960 14.018,12.935 13.937,12.835 13.778 C 12.766 13.669,12.091 12.957,11.335 12.195 C 10.579 11.433,9.960 10.787,9.960 10.759 C 9.960 10.717,10.206 10.713,11.212 10.734 C 11.901 10.749,12.661 10.779,12.902 10.800 C 14.398 10.932,16.109 11.695,17.320 12.771 C 18.378 13.710,19.170 14.926,19.624 16.310 C 19.814 16.890,19.908 17.391,19.979 18.220 C 20.054 19.089,20.105 19.265,20.341 19.472 C 20.752 19.834,21.393 19.792,21.756 19.378 C 21.921 19.191,21.960 19.017,21.960 18.468 C 21.961 16.511,21.238 14.444,19.952 12.728 C 19.581 12.233,18.773 11.401,18.270 10.996 C 16.904 9.896,15.333 9.187,13.640 8.905 C 13.069 8.809,12.182 8.761,10.985 8.761 L 9.910 8.760 11.305 7.348 C 12.072 6.572,12.754 5.858,12.820 5.761 C 12.929 5.602,12.940 5.558,12.940 5.260 C 12.940 4.967,12.928 4.914,12.819 4.738 C 12.648 4.462,12.398 4.315,12.072 4.299 C 11.933 4.293,11.770 4.296,11.708 4.307 " stroke="none" fill-rule="evenodd" fill="black"></path></svg>