<svg xmlns="http://www.w3.org/2000/svg" xml:space="preserve" fill="none" viewBox="0 0 20 20"><path d="M8.013 1.818 C 6.814 1.993,5.709 2.589,4.927 3.483 C 4.304 4.195,3.904 5.019,3.711 5.991 C 3.658 6.256,3.652 6.634,3.642 10.058 C 3.634 12.552,3.642 13.875,3.664 13.958 C 3.683 14.027,3.745 14.140,3.802 14.209 C 4.111 14.583,4.695 14.565,4.979 14.172 L 5.083 14.027 5.102 10.255 C 5.122 6.252,5.118 6.329,5.288 5.790 C 5.613 4.760,6.422 3.890,7.413 3.503 C 7.908 3.310,8.201 3.256,8.750 3.256 C 9.299 3.256,9.592 3.310,10.087 3.503 C 11.348 3.995,12.235 5.189,12.364 6.571 C 12.387 6.817,12.400 8.491,12.400 11.333 L 12.400 15.716 11.108 14.428 C 10.398 13.720,9.765 13.114,9.702 13.083 C 9.535 12.999,9.219 13.004,9.045 13.093 C 8.871 13.183,8.709 13.376,8.662 13.550 C 8.616 13.721,8.646 13.978,8.728 14.107 C 8.763 14.162,9.667 15.085,10.737 16.157 C 12.056 17.479,12.726 18.127,12.817 18.170 C 12.995 18.253,13.273 18.252,13.448 18.168 C 13.538 18.124,14.239 17.444,15.554 16.126 C 17.132 14.544,17.533 14.124,17.566 14.022 C 17.589 13.951,17.601 13.799,17.594 13.684 C 17.578 13.428,17.462 13.239,17.242 13.110 C 17.060 13.003,16.747 12.990,16.567 13.081 C 16.502 13.113,15.869 13.720,15.158 14.428 L 13.867 15.716 13.866 11.217 C 13.865 8.686,13.851 6.577,13.834 6.397 C 13.659 4.604,12.605 3.079,10.983 2.275 C 10.122 1.848,8.997 1.675,8.013 1.818 " stroke="none" fill-rule="evenodd" fill="black"></path></svg>