<svg xmlns="http://www.w3.org/2000/svg" xml:space="preserve" fill="none" viewBox="0 0 9 7"><path d="M1.550 0.031 C 1.363 0.063,1.137 0.184,1.003 0.324 C 0.745 0.595,0.659 0.978,0.777 1.329 C 0.807 1.417,1.185 2.092,2.256 3.968 C 3.047 5.354,3.718 6.523,3.746 6.566 C 3.822 6.682,3.992 6.832,4.116 6.893 C 4.275 6.972,4.361 6.990,4.580 6.990 C 4.747 6.990,4.787 6.985,4.887 6.951 C 5.087 6.885,5.261 6.757,5.375 6.595 C 5.446 6.494,8.276 1.544,8.334 1.419 C 8.456 1.157,8.436 0.770,8.288 0.517 C 8.185 0.341,8.024 0.197,7.827 0.105 C 7.625 0.010,7.786 0.015,4.562 0.017 C 2.948 0.018,1.593 0.024,1.550 0.031 " stroke="none" fill-rule="evenodd"></path></svg>