<svg xmlns="http://www.w3.org/2000/svg" fill="none" viewBox="0 0 20 20">
  <path fill="#000" fill-rule="evenodd" d="M12.25 2.563a.62.62 0 0 0-.332.345c-.044.107-.051.39-.051 2.099.001 1.85.005 1.985.063 2.11a.62.62 0 0 0 1.14 0c.057-.123.062-.241.063-1.442 0-.72.01-1.308.021-1.308.046 0 .699.594.984.895 1.063 1.123 1.722 2.311 2 3.605.067.307.076.447.077 1.15.001.854-.024 1.071-.202 1.766a7.2 7.2 0 0 1-1.36 2.663c-.132.158-.234.316-.255.396-.125.462.304.882.773.757.255-.067.711-.605 1.172-1.38 1.006-1.695 1.384-3.771 1.02-5.602-.241-1.216-.831-2.443-1.689-3.517a14 14 0 0 0-.751-.823l-.497-.506.979-.01c1.103-.012 1.142-.02 1.343-.272.091-.115.102-.153.102-.353 0-.28-.102-.457-.325-.565-.144-.07-.175-.071-2.144-.07-1.871 0-2.006.004-2.131.062m-7.4 1.834c-.159.039-.232.09-.398.275-.828.92-1.514 2.338-1.783 3.684-.362 1.806-.143 3.42.682 5.043.425.837.931 1.516 1.745 2.343l.516.525H4.605c-1.117 0-1.148.005-1.329.211-.255.29-.153.781.199.951.144.07.175.071 2.144.07 1.871 0 2.006-.004 2.131-.062a.62.62 0 0 0 .332-.345c.044-.107.051-.39.051-2.099-.001-1.85-.005-1.985-.063-2.11a.62.62 0 0 0-1.14 0c-.057.123-.062.241-.063 1.442 0 .72-.012 1.308-.026 1.308-.015 0-.199-.155-.409-.344-1.369-1.23-2.248-2.648-2.566-4.139-.091-.428-.126-1.413-.068-1.919.157-1.35.718-2.683 1.549-3.677.196-.236.286-.409.286-.554 0-.198-.157-.46-.329-.547a.8.8 0 0 0-.454-.056"/>
</svg>
