<svg xmlns="http://www.w3.org/2000/svg" xml:space="preserve" fill="none" viewBox="0 0 9 7"><path d="M4.357 0.038 C 4.069 0.102,3.834 0.290,3.656 0.600 C 3.602 0.695,2.939 1.856,2.183 3.179 C 0.722 5.740,0.748 5.690,0.726 5.928 C 0.686 6.380,0.989 6.824,1.430 6.959 L 1.533 6.990 4.574 6.990 C 7.931 6.990,7.667 6.997,7.867 6.897 C 8.043 6.808,8.190 6.670,8.288 6.503 C 8.436 6.251,8.456 5.863,8.335 5.603 C 8.276 5.477,5.445 0.524,5.374 0.424 C 5.258 0.259,5.055 0.117,4.845 0.053 C 4.726 0.017,4.486 0.010,4.357 0.038 " fill="#00854D" stroke="none" fill-rule="evenodd"></path></svg>