<svg xmlns="http://www.w3.org/2000/svg" fill="none" viewBox="0 0 20 20">
  <path fill="#171717" d="M8.125 13.125v3.75a.625.625 0 0 1-.625.625H3.75a.625.625 0 1 1 0-1.25h1.863C4.25 15.041 2.5 12.921 2.5 10c0-3.345 1.974-5.358 2.058-5.442a.625.625 0 0 1 .886.883C5.423 5.46 3.75 7.194 3.75 10c0 2.734 1.926 4.706 3.125 5.669v-2.544a.625.625 0 1 1 1.25 0m3.75-10v3.75a.625.625 0 1 0 1.25 0V4.331c1.2.964 3.125 2.935 3.125 5.669 0 2.806-1.673 4.538-1.694 4.56a.625.625 0 1 0 .886.882c.084-.084 2.058-2.097 2.058-5.442 0-2.921-1.75-5.041-3.113-6.25h1.863a.625.625 0 1 0 0-1.25H12.5a.625.625 0 0 0-.625.625"/>
</svg>
