<svg xmlns="http://www.w3.org/2000/svg" viewBox="0 0 20 20"><path d="M4.633 1.920 C 4.277 2.016,3.922 2.296,3.763 2.607 C 3.592 2.941,3.600 2.585,3.600 10.117 C 3.600 17.677,3.591 17.290,3.769 17.638 C 3.861 17.818,4.069 18.040,4.261 18.162 C 4.605 18.380,4.184 18.367,10.603 18.367 C 16.347 18.367,16.429 18.366,16.644 18.299 C 17.010 18.186,17.317 17.911,17.496 17.533 L 17.583 17.350 17.593 12.117 C 17.600 8.309,17.593 6.847,17.566 6.750 C 17.534 6.637,17.187 6.275,15.239 4.323 C 13.933 3.014,12.893 1.997,12.817 1.956 L 12.683 1.883 8.750 1.877 C 5.368 1.871,4.791 1.877,4.633 1.920 M11.733 5.263 L 11.733 7.159 11.826 7.337 C 11.885 7.449,11.973 7.553,12.063 7.616 L 12.206 7.717 14.153 7.726 L 16.100 7.735 16.100 12.301 L 16.100 16.867 10.600 16.867 L 5.100 16.867 5.100 10.117 L 5.100 3.367 8.417 3.367 L 11.733 3.367 11.733 5.263 M14.150 5.333 L 15.050 6.233 14.141 6.233 L 13.233 6.233 13.233 5.333 C 13.233 4.838,13.237 4.433,13.242 4.433 C 13.247 4.433,13.655 4.838,14.150 5.333 M7.763 10.093 C 7.517 10.221,7.392 10.405,7.373 10.663 C 7.355 10.915,7.409 11.076,7.574 11.254 C 7.813 11.513,7.678 11.503,10.672 11.492 L 13.322 11.483 13.485 11.382 C 13.724 11.235,13.850 11.015,13.848 10.753 C 13.846 10.420,13.628 10.115,13.333 10.033 C 13.262 10.013,12.187 10.000,10.579 10.000 L 7.941 10.000 7.763 10.093 M7.763 12.593 C 7.517 12.721,7.392 12.905,7.373 13.163 C 7.355 13.415,7.409 13.576,7.574 13.754 C 7.813 14.013,7.678 14.003,10.672 13.992 L 13.322 13.983 13.485 13.882 C 13.724 13.735,13.850 13.515,13.848 13.253 C 13.846 12.920,13.628 12.615,13.333 12.533 C 13.262 12.513,12.187 12.500,10.579 12.500 L 7.941 12.500 7.763 12.593 " stroke="none" fill-rule="evenodd" fill="black"></path></svg>