<svg xmlns="http://www.w3.org/2000/svg" viewBox="0 0 20 20">
  <path fill-rule="evenodd" d="M4.633 1.92c-.356.096-.711.376-.87.687-.171.334-.163-.022-.163 7.51 0 7.56-.009 7.173.169 7.521.092.18.3.402.492.524.344.218-.077.205 6.342.205 5.744 0 5.826-.001 6.041-.068.366-.113.673-.388.852-.766l.087-.183.01-5.233c.007-3.808 0-5.27-.027-5.367-.032-.113-.379-.475-2.327-2.427-1.306-1.309-2.346-2.326-2.422-2.367l-.134-.073-3.933-.006c-3.382-.006-3.959 0-4.117.043m7.1 3.343v1.896l.093.178a.8.8 0 0 0 .237.279l.143.101 1.947.009 1.947.009v9.132h-11v-13.5h6.633zm2.417.07.9.9h-1.817v-.9c0-.495.004-.9.009-.9s.413.405.908.9m-6.387 4.76c-.246.128-.371.312-.39.57-.018.252.036.413.201.591.239.259.104.249 3.098.238l2.65-.009.163-.101a.71.71 0 0 0 .363-.629c-.002-.333-.22-.638-.515-.72-.071-.02-1.146-.033-2.754-.033H7.941zm0 2.5c-.246.128-.371.312-.39.57-.018.252.036.413.201.591.239.259.104.249 3.098.238l2.65-.009.163-.101a.71.71 0 0 0 .363-.629c-.002-.333-.22-.638-.515-.72-.071-.02-1.146-.033-2.754-.033H7.941z"/>
</svg>
