<svg xmlns="http://www.w3.org/2000/svg" style="fill-rule:evenodd;clip-rule:evenodd;stroke-linejoin:round;stroke-miterlimit:2" viewBox="0 0 24 24">
  <path d="M10.76 5.65c0 2.557-.012 4.799-.026 4.98l-.026.33-.373-.201c-.205-.11-1.242-.701-2.304-1.313-1.493-.861-5.416-3.113-5.555-3.19-.022-.012-.765 1.27-.745 1.287.005.005 1.233.715 2.729 1.578 3.101 1.789 5.022 2.908 5.335 3.107.198.127.209.141.14.188-.14.095-1.226.728-4.315 2.514-2.865 1.656-3.902 2.26-3.932 2.289-.026.026.124.333.395.807.267.466.288.491.37.448.11-.057 2.557-1.465 5.742-3.302 1.35-.779 2.466-1.405 2.48-1.391.034.035.075 3.382.081 6.589L10.76 23h1.507l.028-4.628c.015-2.545.034-4.635.042-4.643.033-.032.868.44 5.363 3.031 2.725 1.571 2.922 1.68 3.016 1.68.07 0 .845-1.179.799-1.216-.008-.006-1.833-1.059-4.055-2.34-2.222-1.282-4.101-2.376-4.175-2.432l-.134-.103.234-.148c.129-.082 1.189-.703 2.355-1.38a802 802 0 0 0 5.13-2.989l.53-.315-.1-.198c-.141-.277-.499-.885-.57-.967-.056-.064-.072-.062-.265.035-.191.097-2.143 1.213-5.845 3.341-1.758 1.011-2.257 1.288-2.28 1.265-.009-.008-.029-2.26-.044-5.004L12.267 1H10.76z"/>
</svg>
