<svg xmlns="http://www.w3.org/2000/svg" style="fill-rule:evenodd;clip-rule:evenodd;stroke-linejoin:round;stroke-miterlimit:2" viewBox="0 0 24 24"><path d="M10.760 5.650 C 10.760 8.207,10.748 10.449,10.734 10.630 L 10.708 10.960 10.335 10.759 C 10.130 10.649,9.093 10.058,8.031 9.446 C 6.538 8.585,2.615 6.333,2.476 6.256 C 2.454 6.244,1.711 7.526,1.731 7.543 C 1.736 7.548,2.964 8.258,4.460 9.121 C 7.561 10.910,9.482 12.029,9.795 12.228 C 9.993 12.355,10.004 12.369,9.935 12.416 C 9.795 12.511,8.709 13.144,5.620 14.930 C 2.755 16.586,1.718 17.190,1.688 17.219 C 1.662 17.245,1.812 17.552,2.083 18.026 C 2.350 18.492,2.371 18.517,2.453 18.474 C 2.563 18.417,5.010 17.009,8.195 15.172 C 9.545 14.393,10.661 13.767,10.675 13.781 C 10.709 13.816,10.750 17.163,10.756 20.370 L 10.760 23.000 11.513 23.000 L 12.267 23.000 12.295 18.372 C 12.310 15.827,12.329 13.737,12.337 13.729 C 12.370 13.697,13.205 14.169,17.700 16.760 C 20.425 18.331,20.622 18.440,20.716 18.440 C 20.786 18.440,21.561 17.261,21.515 17.224 C 21.507 17.218,19.682 16.165,17.460 14.884 C 15.238 13.602,13.359 12.508,13.285 12.452 L 13.151 12.349 13.385 12.201 C 13.514 12.119,14.574 11.498,15.740 10.821 C 19.345 8.727,20.321 8.159,20.870 7.832 L 21.400 7.517 21.300 7.319 C 21.159 7.042,20.801 6.434,20.730 6.352 C 20.674 6.288,20.658 6.290,20.465 6.387 C 20.274 6.484,18.322 7.600,14.620 9.728 C 12.862 10.739,12.363 11.016,12.340 10.993 C 12.331 10.985,12.311 8.733,12.296 5.989 L 12.267 1.000 11.514 1.000 L 10.760 1.000 10.760 5.650 " stroke="none" fill-rule="evenodd" fill="black"></path></svg>