<svg xmlns="http://www.w3.org/2000/svg" viewBox="0 0 33 33"><path d="M6.270 5.989 L 4.758 6.022 4.463 6.186 C 4.093 6.390,3.771 6.749,3.565 7.185 L 3.405 7.523 3.423 16.920 C 3.443 27.613,3.393 26.615,3.933 27.211 C 4.395 27.721,4.675 27.837,5.574 27.891 C 6.518 27.947,26.317 27.947,27.261 27.891 C 28.160 27.837,28.440 27.721,28.902 27.211 C 29.442 26.615,29.392 27.613,29.412 16.920 L 29.430 7.523 29.265 7.172 C 29.071 6.756,28.671 6.336,28.283 6.139 L 28.008 6.000 17.895 5.977 C 12.333 5.965,7.102 5.970,6.270 5.989 M27.390 16.913 L 27.390 25.905 16.418 25.905 L 5.445 25.905 5.445 16.913 L 5.445 7.920 16.418 7.920 L 27.390 7.920 27.390 16.913 M10.477 11.985 C 10.081 12.011,9.946 12.043,9.803 12.146 C 9.586 12.301,9.468 12.514,9.428 12.828 C 9.388 13.138,9.570 13.493,9.892 13.737 L 10.132 13.918 16.410 13.903 C 23.372 13.886,22.850 13.915,23.174 13.529 C 23.564 13.067,23.458 12.407,22.943 12.087 L 22.742 11.963 16.858 11.957 C 13.621 11.954,10.750 11.966,10.477 11.985 M9.861 16.110 C 9.561 16.327,9.380 16.705,9.428 17.010 C 9.478 17.317,9.648 17.577,9.917 17.755 L 10.139 17.902 16.413 17.902 L 22.688 17.902 22.897 17.772 C 23.160 17.609,23.359 17.312,23.407 17.012 C 23.455 16.704,23.275 16.328,22.974 16.110 L 22.753 15.950 16.417 15.950 L 10.082 15.950 9.861 16.110 M10.670 19.959 C 9.998 19.998,9.807 20.078,9.585 20.413 C 9.273 20.885,9.461 21.545,9.984 21.808 C 10.199 21.916,10.312 21.918,16.418 21.918 L 22.633 21.918 22.878 21.780 C 23.304 21.541,23.495 21.127,23.380 20.697 C 23.315 20.458,23.008 20.104,22.777 20.005 C 22.620 19.937,11.760 19.896,10.670 19.959 " stroke="none" fill-rule="evenodd" fill="black"></path></svg>