<svg xmlns="http://www.w3.org/2000/svg" viewBox="0 0 40 40"><path d="M17.600 3.537 C 11.640 4.093,6.982 6.455,5.317 9.767 C 4.927 10.543,4.798 11.063,4.731 12.133 C 4.698 12.665,4.669 16.465,4.668 20.578 L 4.667 28.056 4.871 28.645 C 5.147 29.437,5.537 30.216,5.900 30.698 C 6.288 31.214,7.117 32.061,7.667 32.502 C 9.748 34.174,12.820 35.349,16.367 35.830 C 23.414 36.786,30.621 34.684,33.498 30.833 C 33.901 30.294,34.432 29.316,34.566 28.867 C 34.754 28.235,34.809 25.584,34.784 18.300 C 34.762 11.476,34.761 11.430,34.616 10.900 C 34.278 9.667,33.388 8.322,32.262 7.345 C 30.191 5.547,27.410 4.377,23.767 3.772 C 22.561 3.572,18.773 3.427,17.600 3.537 M22.595 6.639 C 23.212 6.683,24.164 6.869,25.326 7.172 C 28.876 8.097,31.428 9.992,31.739 11.933 C 31.970 13.378,30.940 14.890,28.900 16.099 C 27.406 16.984,25.272 17.675,23.033 17.996 C 18.842 18.598,14.688 18.073,11.491 16.537 C 10.397 16.011,9.613 15.479,8.925 14.793 C 8.461 14.331,8.293 14.106,8.058 13.632 C 7.794 13.099,7.765 12.990,7.744 12.471 C 7.718 11.820,7.840 11.373,8.216 10.746 C 8.701 9.935,9.908 8.949,11.224 8.288 C 13.003 7.395,15.507 6.711,17.400 6.602 C 18.313 6.549,21.689 6.573,22.595 6.639 M31.778 19.176 L 31.736 20.552 31.494 20.992 C 30.613 22.598,28.840 23.822,26.123 24.700 C 22.273 25.945,17.094 25.930,13.260 24.662 C 10.681 23.809,8.931 22.606,8.067 21.094 L 7.767 20.568 7.705 19.282 C 7.668 18.496,7.668 17.972,7.706 17.934 C 7.744 17.896,8.000 18.018,8.367 18.247 C 10.213 19.399,12.372 20.247,14.679 20.726 C 20.496 21.935,27.005 20.961,31.067 18.274 C 31.452 18.020,31.779 17.809,31.794 17.806 C 31.809 17.803,31.802 18.419,31.778 19.176 M31.776 26.606 C 31.741 27.706,31.707 28.058,31.622 28.223 C 30.949 29.534,29.478 30.750,27.594 31.554 C 23.120 33.463,17.071 33.558,12.489 31.789 C 10.938 31.191,9.802 30.486,8.867 29.540 C 8.015 28.679,7.827 28.301,7.735 27.258 C 7.655 26.350,7.646 25.354,7.719 25.309 C 7.748 25.291,8.130 25.502,8.569 25.777 C 10.617 27.062,12.652 27.777,15.985 28.383 C 16.943 28.557,17.032 28.562,19.667 28.564 C 22.174 28.565,22.436 28.554,23.333 28.411 C 26.654 27.880,29.229 26.950,31.282 25.540 C 31.549 25.357,31.779 25.206,31.794 25.204 C 31.809 25.202,31.801 25.833,31.776 26.606 " stroke="none" fill-rule="evenodd" fill="black"></path></svg>