<svg xmlns="http://www.w3.org/2000/svg" viewBox="0 0 24 25">
  <path fill-rule="evenodd" d="M5.44 1.077 3.62 1.1l-.343.165c-.579.278-.933.667-1.169 1.283l-.088.232-.012 9.18c-.012 9.829-.003 10.41.165 10.773.221.479.653.915 1.117 1.127.193.089.316.11.838.144.381.024 3.553.035 8.392.028l7.78-.012.234-.089a2.27 2.27 0 0 0 1.336-1.316l.11-.275V7.26l-.109-.273a3 3 0 0 0-.241-.469c-.133-.197-3.608-4.043-4.211-4.659-.352-.36-.642-.564-.979-.688-.215-.079-.328-.081-4.7-.099a579 579 0 0 0-6.3.005m13.166 4.195 1.447 1.588-1.393.011c-1.581.011-1.573.013-1.8-.308l-.12-.17-.011-1.586-.01-1.587.221.232c.121.128.871.947 1.666 1.82m-6.408 3.811c.733.118 1.362.753 1.589 1.6.081.305.093 1.274.02 1.657-.058.302-.314.823-.525 1.066a1.94 1.94 0 0 1-1.832.62c-.729-.155-1.23-.633-1.516-1.446-.108-.305-.113-.354-.113-1.04-.001-.6.012-.757.074-.94.389-1.141 1.225-1.692 2.303-1.517m4.305.001c.544.099 1.052.5 1.348 1.063.234.446.279.716.259 1.533-.015.611-.028.73-.109.938-.313.803-.802 1.251-1.546 1.412-.783.17-1.66-.255-2.055-.996-.246-.462-.287-.64-.309-1.334-.024-.787.013-1.009.252-1.493.211-.429.559-.816.863-.961a2.2 2.2 0 0 1 1.297-.162M8.2 11.02v1.9h1.12V14H5.96v-1.08h1.12v-2.24H5.96V9.647l.503-.014c.576-.015.617-.037.617-.341V9.12H8.2zm3.34-.824c-.446.207-.707.829-.646 1.541.045.53.229.911.535 1.105.345.218.608.193.912-.087.44-.406.571-1.379.274-2.035-.128-.282-.228-.388-.475-.505-.24-.113-.387-.118-.6-.019m4.308-.033c-.172.052-.436.32-.533.54-.195.44-.185 1.325.02 1.725.397.778 1.256.707 1.588-.131.08-.201.094-.309.095-.717.001-.564-.066-.834-.275-1.107a.83.83 0 0 0-.895-.31M7.965 15.08c.694.13 1.292.727 1.541 1.54.06.195.074.371.072.94-.001.652-.009.722-.109 1.023-.258.771-.8 1.29-1.504 1.439-.342.073-.533.072-.827-.003-.833-.214-1.401-.876-1.563-1.819-.076-.447-.054-1.159.048-1.54.21-.785.787-1.397 1.475-1.564a2.2 2.2 0 0 1 .867-.016m4.475 1.94v1.9h1.12V20h-3.32v-1.08h1.12v-2.24h-1.12v-1.04h.462c.437 0 .467-.005.56-.098.072-.072.098-.142.098-.26v-.162h1.08zm4.28 0v1.9h1.12V20h-3.36v-1.08h1.12v-2.24h-1.12v-1.032l.494-.014c.586-.017.626-.037.626-.319v-.195h1.12zm-9.353-.86c-.644.152-.962 1.358-.581 2.206.124.278.38.529.608.597.346.104.718-.112.923-.534.226-.466.253-1.008.08-1.571-.101-.325-.368-.626-.617-.694-.179-.049-.223-.049-.413-.004"/>
</svg>
