<svg xmlns="http://www.w3.org/2000/svg" xml:space="preserve" fill="none" viewBox="0 0 24 25"><path d="M11.360 3.281 C 10.554 3.335,9.896 3.458,9.080 3.709 C 8.687 3.829,8.598 3.872,8.472 4.005 C 8.063 4.432,8.262 5.106,8.836 5.235 C 8.975 5.266,9.069 5.258,9.295 5.196 C 10.747 4.802,11.164 4.741,12.220 4.772 C 13.030 4.795,13.424 4.851,14.155 5.044 C 16.142 5.568,17.946 6.913,19.014 8.667 C 19.589 9.612,19.934 10.527,20.149 11.680 C 20.208 11.995,20.220 12.282,20.219 13.360 C 20.218 14.091,20.196 14.888,20.167 15.180 C 20.054 16.356,19.903 17.379,19.698 18.375 C 19.644 18.637,19.600 18.931,19.600 19.030 C 19.600 19.681,20.466 19.988,20.888 19.487 C 21.029 19.320,21.063 19.212,21.197 18.519 C 21.515 16.873,21.656 15.645,21.719 13.993 C 21.776 12.477,21.681 11.428,21.396 10.412 C 20.593 7.554,18.587 5.244,15.878 4.059 C 14.521 3.466,12.867 3.181,11.360 3.281 M5.653 5.641 C 5.470 5.734,4.751 6.455,4.397 6.900 C 3.449 8.092,2.765 9.538,2.467 10.980 C 2.337 11.610,2.288 12.078,2.242 13.120 C 2.185 14.403,2.037 15.126,1.622 16.150 C 1.421 16.646,1.402 16.813,1.517 17.065 C 1.624 17.301,1.836 17.450,2.098 17.472 C 2.640 17.516,2.837 17.278,3.242 16.093 C 3.553 15.182,3.698 14.313,3.740 13.120 C 3.793 11.582,4.012 10.599,4.556 9.460 C 4.988 8.558,5.413 7.956,6.186 7.157 C 6.474 6.859,6.689 6.603,6.707 6.535 C 6.794 6.205,6.677 5.862,6.414 5.682 C 6.213 5.544,5.878 5.526,5.653 5.641 M11.134 7.823 C 10.380 7.950,9.469 8.339,8.851 8.799 C 8.237 9.256,7.673 9.936,7.308 10.660 C 6.928 11.412,6.807 11.946,6.758 13.080 C 6.713 14.120,6.691 14.384,6.595 15.000 C 6.391 16.315,5.937 17.678,5.294 18.910 C 5.082 19.316,5.072 19.347,5.087 19.583 C 5.100 19.779,5.127 19.862,5.217 19.980 C 5.454 20.290,5.908 20.365,6.236 20.148 C 6.367 20.060,6.441 19.948,6.692 19.452 C 7.287 18.274,7.664 17.236,7.915 16.080 C 8.117 15.153,8.189 14.537,8.240 13.300 C 8.290 12.102,8.423 11.609,8.882 10.923 C 9.404 10.143,10.157 9.611,11.104 9.354 C 11.508 9.244,12.353 9.231,12.781 9.328 C 13.485 9.488,14.107 9.827,14.640 10.340 C 15.008 10.695,15.079 10.733,15.371 10.733 C 15.785 10.733,16.080 10.433,16.080 10.013 C 16.080 9.727,16.035 9.631,15.770 9.351 C 15.161 8.710,14.329 8.211,13.440 7.954 C 12.778 7.762,11.819 7.708,11.134 7.823 M11.805 12.279 C 11.548 12.341,11.340 12.556,11.278 12.823 C 11.258 12.909,11.241 13.187,11.241 13.440 C 11.239 14.359,11.074 15.662,10.814 16.815 C 10.654 17.525,10.654 17.677,10.819 17.926 C 11.085 18.327,11.718 18.340,12.015 17.950 C 12.180 17.733,12.442 16.554,12.598 15.323 C 12.677 14.699,12.778 13.024,12.743 12.912 C 12.734 12.884,12.716 12.812,12.703 12.753 C 12.674 12.620,12.505 12.415,12.365 12.343 C 12.220 12.269,11.967 12.240,11.805 12.279 M16.340 12.277 C 16.162 12.320,16.065 12.381,15.927 12.538 C 15.775 12.711,15.774 12.718,15.721 13.925 C 15.612 16.406,15.188 18.458,14.295 20.829 C 14.059 21.455,14.035 21.636,14.158 21.877 C 14.316 22.185,14.570 22.312,14.947 22.269 C 15.282 22.232,15.425 22.064,15.679 21.411 C 16.525 19.235,17.032 16.924,17.198 14.489 C 17.252 13.702,17.252 12.876,17.197 12.733 C 17.076 12.411,16.673 12.197,16.340 12.277 M10.060 19.826 C 9.833 19.946,9.755 20.059,9.378 20.816 C 8.978 21.619,8.950 21.723,9.062 21.991 C 9.267 22.482,9.894 22.624,10.257 22.260 C 10.328 22.190,10.546 21.819,10.741 21.436 C 11.072 20.789,11.097 20.723,11.099 20.497 C 11.100 20.299,11.080 20.224,10.993 20.092 C 10.800 19.801,10.351 19.673,10.060 19.826 " stroke="none" fill-rule="evenodd" fill="black"></path></svg>