<svg xmlns="http://www.w3.org/2000/svg" xml:space="preserve" fill="none" viewBox="0 0 24 25">
  <path stroke="#1B1A19" stroke-linecap="round" stroke-linejoin="round" stroke-width="1.5" d="M16.5 13a22.53 22.53 0 0 1-1.678 8.55M15.356 10A4.5 4.5 0 0 0 7.5 13a13.368 13.368 0 0 1-1.688 6.534"/>
  <path stroke="#1B1A19" stroke-linecap="round" stroke-linejoin="round" stroke-width="1.5" d="M9 4.516A9 9 0 0 1 21 13a27.498 27.498 0 0 1-.666 6m-18.15-2.25A8.953 8.953 0 0 0 3 13a8.972 8.972 0 0 1 3-6.703M10.369 20.5a14.87 14.87 0 0 1-.619 1.219M12 13c.002 1.518-.19 3.03-.572 4.5"/>
</svg>
