<svg xmlns="http://www.w3.org/2000/svg" viewBox="0 0 16 16">
  <path fill-rule="evenodd" d="M7.347 1.039c-.909.068-1.964.399-2.8.879C2.61 3.03 1.349 4.916 1.051 7.147a8 8 0 0 0 0 1.693 7.15 7.15 0 0 0 1.355 3.36c.268.361 1.004 1.103 1.354 1.364a7 7 0 0 0 3.2 1.356c.576.09 1.457.096 2.023.013a7.1 7.1 0 0 0 3.31-1.409 9.5 9.5 0 0 0 1.1-1.071 6.96 6.96 0 0 0 1.591-4.072 6.98 6.98 0 0 0-1.513-4.741c-.208-.265-.911-.96-1.169-1.155-1.003-.757-2.14-1.241-3.302-1.406-.33-.047-1.26-.069-1.653-.04m.946 1.495c.602.03.924.087 1.427.252 1.85.607 3.238 2.158 3.659 4.089.072.327.074.365.074 1.125 0 .723-.005.81-.062 1.076a5.8 5.8 0 0 1-.592 1.594c-.219.377-.378.61-.417.61-.052 0-7.662-7.604-7.662-7.656 0-.057.457-.352.853-.549a5.6 5.6 0 0 1 1.747-.527c.338-.046.351-.046.973-.014M7.56 8.611c3.286 3.288 3.754 3.766 3.72 3.799-.102.098-.527.356-.84.51a5.43 5.43 0 0 1-4.17.291c-1.843-.604-3.211-2.131-3.648-4.071-.072-.318-.074-.349-.074-1.14s.002-.822.074-1.14a5.8 5.8 0 0 1 .79-1.882l.189-.289.099.081c.055.044 1.792 1.773 3.86 3.841"/>
</svg>
