<svg xmlns="http://www.w3.org/2000/svg" fill="none" viewBox="0 0 12 17"><path d="M1.330 0.412 C 0.937 0.493,0.556 0.800,0.384 1.173 C 0.250 1.466,0.259 0.879,0.265 8.644 L 0.270 15.690 0.324 15.804 C 0.480 16.139,0.857 16.313,1.204 16.213 C 1.285 16.189,1.953 15.782,3.652 14.720 C 4.937 13.917,5.994 13.260,6.000 13.260 C 6.006 13.260,7.063 13.917,8.348 14.720 C 10.047 15.782,10.715 16.189,10.796 16.213 C 11.136 16.311,11.506 16.145,11.665 15.823 L 11.730 15.691 11.735 8.645 C 11.741 0.806,11.752 1.454,11.601 1.150 C 11.459 0.864,11.254 0.659,10.970 0.520 C 10.665 0.370,11.019 0.380,5.986 0.382 C 2.131 0.383,1.450 0.387,1.330 0.412 M10.255 8.007 C 10.260 13.661,10.258 14.143,10.228 14.132 C 10.210 14.125,9.322 13.574,8.255 12.907 C 7.154 12.219,6.276 11.683,6.224 11.667 C 6.108 11.632,5.892 11.632,5.776 11.667 C 5.724 11.683,4.846 12.219,3.745 12.907 C 2.678 13.574,1.790 14.125,1.772 14.132 C 1.743 14.143,1.740 13.658,1.740 8.015 C 1.740 4.645,1.746 1.881,1.753 1.873 C 1.761 1.866,3.675 1.862,6.008 1.865 L 10.250 1.870 10.255 8.007 " stroke="none" fill-rule="evenodd" fill="black"></path></svg>