<svg xmlns="http://www.w3.org/2000/svg" viewBox="0 0 12 12">
  <path fill-rule="evenodd" d="M6.893.212a.54.54 0 0 0-.321.335c-.069.219-.021.326.31.693.313.348.479.561.718.923.574.87.987 2.004 1.099 3.021.027.252.027 1.38 0 1.632a7.4 7.4 0 0 1-.488 1.864c-.307.748-.733 1.415-1.329 2.08-.329.366-.376.471-.313.689a.52.52 0 0 0 .332.339c.132.04.166.04.297.001.088-.026.134-.06.272-.2A8 8 0 0 0 9.538 7.82a7.8 7.8 0 0 0 .091-3.193 8.2 8.2 0 0 0-1.562-3.541C7.881.848 7.462.382 7.372.313q-.235-.18-.479-.101M4.45 2.128a.52.52 0 0 0-.297.452c-.002.146.057.253.293.523.226.259.402.505.547.763a4.33 4.33 0 0 1-.058 4.371c-.123.204-.343.5-.531.711-.192.216-.253.331-.252.475a.4.4 0 0 0 .062.22c.159.283.494.354.744.157.213-.168.672-.753.882-1.123a5.9 5.9 0 0 0 .674-1.937c.05-.326.049-1.156 0-1.48a5.65 5.65 0 0 0-1.11-2.578c-.184-.236-.461-.515-.549-.551a.74.74 0 0 0-.405-.003M1.861 4.253c-.14.03-.3.205-.343.376-.041.165.006.299.182.521.203.256.294.481.313.78.021.335-.088.646-.332.95a1 1 0 0 0-.153.248c-.084.251.069.535.338.624q.377.127.79-.509a2.27 2.27 0 0 0 .358-1.105 2.24 2.24 0 0 0-.56-1.644c-.153-.178-.243-.232-.407-.242a1 1 0 0 0-.186.001"/>
</svg>
