<svg xmlns="http://www.w3.org/2000/svg" viewBox="0 0 12 12"><path d="M6.893 0.212 C 6.753 0.256,6.619 0.396,6.572 0.547 C 6.503 0.766,6.551 0.873,6.882 1.240 C 7.195 1.588,7.361 1.801,7.600 2.163 C 8.174 3.033,8.587 4.167,8.699 5.184 C 8.726 5.436,8.726 6.564,8.699 6.816 C 8.636 7.389,8.451 8.096,8.211 8.680 C 7.904 9.428,7.478 10.095,6.882 10.760 C 6.553 11.126,6.506 11.231,6.569 11.449 C 6.614 11.604,6.751 11.744,6.901 11.788 C 7.033 11.828,7.067 11.828,7.198 11.789 C 7.286 11.763,7.332 11.729,7.470 11.589 C 8.472 10.579,9.201 9.250,9.538 7.820 C 9.790 6.753,9.819 5.729,9.629 4.627 C 9.412 3.367,8.849 2.090,8.067 1.086 C 7.881 0.848,7.462 0.382,7.372 0.313 C 7.215 0.193,7.056 0.160,6.893 0.212 M4.450 2.128 C 4.280 2.202,4.155 2.392,4.153 2.580 C 4.151 2.726,4.210 2.833,4.446 3.103 C 4.672 3.362,4.848 3.608,4.993 3.866 C 5.765 5.240,5.743 6.892,4.935 8.237 C 4.812 8.441,4.592 8.737,4.404 8.948 C 4.212 9.164,4.151 9.279,4.152 9.423 C 4.153 9.510,4.167 9.560,4.214 9.643 C 4.373 9.926,4.708 9.997,4.958 9.800 C 5.171 9.632,5.630 9.047,5.840 8.677 C 6.166 8.102,6.416 7.385,6.514 6.740 C 6.564 6.414,6.563 5.584,6.514 5.260 C 6.371 4.331,5.978 3.418,5.404 2.682 C 5.220 2.446,4.943 2.167,4.855 2.131 C 4.765 2.093,4.533 2.091,4.450 2.128 M1.861 4.253 C 1.721 4.283,1.561 4.458,1.518 4.629 C 1.477 4.794,1.524 4.928,1.700 5.150 C 1.903 5.406,1.994 5.631,2.013 5.930 C 2.034 6.265,1.925 6.576,1.681 6.880 C 1.614 6.964,1.546 7.073,1.528 7.128 C 1.444 7.379,1.597 7.663,1.866 7.752 C 2.118 7.836,2.380 7.667,2.656 7.243 C 2.866 6.921,2.995 6.524,3.014 6.138 C 3.046 5.507,2.861 4.965,2.454 4.494 C 2.301 4.316,2.211 4.262,2.047 4.252 C 1.972 4.247,1.888 4.248,1.861 4.253 " stroke="none" fill-rule="evenodd" fill="black"></path></svg>