<svg xmlns="http://www.w3.org/2000/svg" xml:space="preserve" fill="none" viewBox="0 0 20 20"><path d="M4.048 1.530 C 3.702 1.687,3.536 2.138,3.697 2.483 C 3.732 2.561,3.911 2.764,4.121 2.967 C 4.321 3.159,4.638 3.465,4.826 3.647 L 5.167 3.977 4.967 4.235 C 4.335 5.052,3.906 6.032,3.734 7.050 L 3.678 7.383 2.964 7.400 C 2.167 7.419,2.124 7.429,1.936 7.658 C 1.694 7.950,1.716 8.378,1.986 8.645 C 2.183 8.839,2.226 8.849,2.958 8.861 L 3.633 8.872 3.633 9.386 L 3.633 9.900 2.975 9.901 C 2.225 9.902,2.127 9.925,1.939 10.154 C 1.635 10.522,1.750 11.057,2.183 11.295 C 2.265 11.340,2.407 11.352,2.956 11.361 L 3.628 11.372 3.640 11.861 C 3.646 12.130,3.646 12.361,3.640 12.375 C 3.634 12.389,3.334 12.400,2.973 12.401 C 2.225 12.402,2.127 12.425,1.939 12.654 C 1.635 13.022,1.750 13.557,2.183 13.795 C 2.267 13.841,2.417 13.852,3.120 13.860 L 3.957 13.871 4.066 14.160 C 4.728 15.911,6.217 17.330,8.008 17.915 C 10.290 18.660,12.781 18.073,14.476 16.388 C 15.128 15.740,15.622 14.985,15.934 14.160 L 16.043 13.871 16.880 13.860 C 17.583 13.852,17.733 13.841,17.817 13.795 C 18.250 13.557,18.365 13.022,18.061 12.654 C 17.873 12.425,17.775 12.402,17.027 12.401 C 16.666 12.400,16.366 12.389,16.360 12.375 C 16.354 12.361,16.354 12.130,16.360 11.861 L 16.372 11.372 17.044 11.361 C 17.593 11.352,17.735 11.340,17.817 11.295 C 18.250 11.057,18.365 10.522,18.061 10.154 C 17.873 9.925,17.775 9.902,17.025 9.901 L 16.367 9.900 16.367 9.386 L 16.367 8.872 17.042 8.861 C 17.774 8.849,17.817 8.839,18.014 8.645 C 18.284 8.378,18.306 7.950,18.064 7.658 C 17.876 7.429,17.833 7.419,17.036 7.400 L 16.322 7.383 16.266 7.050 C 16.094 6.032,15.665 5.052,15.033 4.236 C 14.923 4.094,14.833 3.970,14.833 3.962 C 14.833 3.953,15.147 3.650,15.531 3.288 C 16.284 2.576,16.341 2.499,16.342 2.183 C 16.342 1.892,16.185 1.646,15.915 1.518 C 15.733 1.432,15.378 1.457,15.224 1.568 C 15.161 1.613,14.799 1.945,14.419 2.306 L 13.729 2.962 13.449 2.780 C 13.073 2.535,12.430 2.228,11.992 2.085 C 10.166 1.488,8.132 1.749,6.546 2.783 L 6.261 2.969 5.722 2.456 C 4.890 1.664,4.783 1.570,4.655 1.517 C 4.492 1.449,4.213 1.455,4.048 1.530 M10.471 3.268 C 12.160 3.439,13.617 4.442,14.381 5.961 C 14.590 6.376,14.866 7.304,14.802 7.375 C 14.790 7.389,12.621 7.396,9.982 7.392 L 5.183 7.383 5.194 7.267 C 5.209 7.099,5.386 6.495,5.501 6.218 C 5.916 5.221,6.749 4.321,7.738 3.802 C 8.590 3.354,9.520 3.172,10.471 3.268 M14.899 10.342 C 14.898 12.341,14.865 12.707,14.616 13.455 C 14.168 14.804,13.071 15.937,11.717 16.449 C 11.498 16.532,10.867 16.700,10.775 16.700 C 10.742 16.700,10.733 16.059,10.733 13.608 C 10.733 11.705,10.720 10.472,10.700 10.400 C 10.655 10.237,10.480 10.036,10.319 9.963 C 10.143 9.883,9.857 9.883,9.681 9.963 C 9.520 10.036,9.345 10.237,9.300 10.400 C 9.280 10.472,9.267 11.705,9.267 13.608 C 9.267 16.059,9.258 16.700,9.225 16.700 C 9.202 16.700,9.033 16.663,8.850 16.619 C 7.960 16.402,7.214 15.979,6.551 15.316 C 5.875 14.641,5.474 13.921,5.247 12.980 C 5.129 12.491,5.102 11.995,5.101 10.342 L 5.100 8.867 10.000 8.867 L 14.900 8.867 14.899 10.342 " stroke="none" fill-rule="evenodd" fill="black"></path></svg>