<svg xmlns="http://www.w3.org/2000/svg" fill="none" viewBox="0 0 24 24">
  <path fill="#000" fill-rule="evenodd" d="M7.333 1.621c-.287.172-.347.318-.366.887L6.95 3l-1.185.001c-.847 0-1.25.015-1.412.054-.413.097-.77.392-.998.825l-.095.18v15.88l.095.18c.249.469.624.762 1.076.839.198.034 2.286.043 7.949.034 6.477-.011 7.702-.022 7.82-.069.233-.093.551-.321.685-.49a2 2 0 0 0 .22-.387l.093-.227V4.18l-.093-.227a1.42 1.42 0 0 0-.556-.683c-.37-.244-.376-.244-1.774-.261l-1.285-.015-.017-.467c-.014-.403-.03-.491-.114-.641-.271-.481-.992-.491-1.284-.018-.08.129-.094.214-.108.64L15.95 3H8.49l-.017-.47c-.014-.406-.03-.494-.114-.644a.745.745 0 0 0-1.026-.265M6.96 4.89c0 .225.019.477.042.559a.747.747 0 0 0 .989.489c.365-.152.456-.336.481-.968l.019-.49h7.469v.41c0 .225.019.477.042.559a.747.747 0 0 0 .989.489c.365-.152.456-.336.481-.968l.019-.49h2.229v3.04h-15V4.48h2.24zm12.76 9.37v5.26h-15V9h15z"/>
</svg>
