<svg xmlns="http://www.w3.org/2000/svg" viewBox="0 0 32 32">
  <path fill-rule="evenodd" d="M5.623 4.074c-.254.113-.546.489-.586.755-.069.461.013.608.876 1.558l.545.6-.283.002c-1.356.008-2.534.784-2.976 1.958a3.7 3.7 0 0 0-.162.786c-.026.264-.048 3.696-.049 7.627l-.001 7.147.151.404c.342.915.955 1.541 1.869 1.907l.353.142 9.627.015 9.626.015.427.419c.591.582.791.667 1.256.538.343-.096.691-.576.691-.955 0-.358.2-.114-3.066-3.739C18.915 17.696 9.289 7.109 7.15 4.808c-.31-.333-.623-.636-.696-.674-.218-.111-.646-.143-.831-.06m6.457-.026c-.553.04-.681.105-.96.486-.468.637-.447 1.248.055 1.631.342.261 1.006.216 1.28-.087.092-.102.184-.105 3.544-.105h3.449l.833 1.246c.458.686.9 1.325.98 1.421.276.328.304.332 2.779.377 2.477.045 2.51.049 2.757.387.103.142.112.247.144 1.813.019.915.037 4.052.04 6.973l.006 5.309.157.248a1.01 1.01 0 0 0 1.714-.003l.159-.251L29 16.507c-.015-6.475-.023-7.01-.11-7.303a3 3 0 0 0-1.477-1.814c-.654-.343-.764-.358-2.942-.388l-1.956-.028-.625-.94c-.985-1.483-1.223-1.795-1.449-1.907-.19-.093-.414-.099-4.041-.107-2.112-.004-4.056.008-4.32.028m-2.392 6.499c.764.843 1.552 1.719 1.75 1.947l.362.413-.269.413c-1.056 1.621-1.288 3.215-.72 4.936.256.774.623 1.38 1.213 1.999 1.001 1.051 2.169 1.603 3.577 1.691 1.166.073 1.985-.1 3.042-.642l.556-.285.654.706c1.09 1.178 2.892 3.182 2.912 3.239.029.083-16.869.039-17.107-.044a1 1 0 0 1-.53-.467c-.081-.146-.088-.764-.084-7.498l.005-7.339.15-.197c.282-.369.389-.392 1.924-.4l1.176-.006zm5.855 6.437 2.275 2.504-.184.095c-.7.359-1.549.486-2.276.341a3.3 3.3 0 0 1-1.788-.958c-.769-.775-1.066-1.542-1.024-2.646.02-.529.047-.672.191-1.04.175-.445.413-.845.488-.816.023.009 1.067 1.143 2.318 2.52"/>
</svg>
