<svg xmlns="http://www.w3.org/2000/svg" viewBox="0 0 24 24"><path d="M10.656 2.240 C 7.712 2.686,5.118 4.410,3.577 6.946 C 2.752 8.303,2.246 9.904,2.158 11.434 C 2.045 13.401,2.399 15.064,3.297 16.784 C 4.229 18.572,5.522 19.842,7.356 20.773 C 8.464 21.336,9.459 21.642,10.720 21.807 C 11.217 21.872,12.603 21.873,13.060 21.808 C 16.060 21.385,18.540 19.865,20.155 17.460 C 22.186 14.435,22.429 10.647,20.802 7.404 C 20.259 6.323,19.588 5.423,18.753 4.656 C 17.344 3.363,15.224 2.414,13.272 2.202 C 12.644 2.134,11.221 2.155,10.656 2.240 M8.873 7.564 C 9.001 7.619,9.426 8.016,10.523 9.106 L 12.000 10.574 13.470 9.113 C 14.424 8.164,15.001 7.620,15.114 7.563 C 15.354 7.441,15.730 7.439,15.976 7.558 C 16.181 7.657,16.383 7.868,16.468 8.073 C 16.559 8.291,16.545 8.673,16.439 8.882 C 16.380 8.998,15.843 9.568,14.887 10.530 L 13.426 12.000 14.887 13.470 C 15.767 14.355,16.381 15.004,16.429 15.100 C 16.631 15.502,16.562 15.922,16.241 16.243 C 15.894 16.590,15.370 16.645,15.004 16.373 C 14.925 16.314,14.217 15.627,13.430 14.845 L 12.000 13.424 10.570 14.845 C 9.784 15.627,9.075 16.314,8.996 16.373 C 8.630 16.645,8.106 16.590,7.759 16.243 C 7.438 15.922,7.369 15.502,7.571 15.100 C 7.619 15.004,8.233 14.355,9.113 13.470 L 10.574 12.000 9.113 10.530 C 8.234 9.646,7.619 8.995,7.571 8.899 C 7.288 8.335,7.588 7.657,8.193 7.496 C 8.411 7.438,8.631 7.460,8.873 7.564 " stroke="none" fill-rule="evenodd" fill="black"></path></svg>