<svg xmlns="http://www.w3.org/2000/svg" fill="none" viewBox="0 0 14 14">
  <path fill="#000" fill-rule="evenodd" d="M6.453.28a6.5 6.5 0 0 0-2.426.68A6.58 6.58 0 0 0 .958 4.028C.475 5.01.271 5.892.271 7s.204 1.99.687 2.973a6.57 6.57 0 0 0 3.07 3.069c.981.483 1.863.687 2.972.687 1.11 0 1.994-.204 2.973-.687a6.56 6.56 0 0 0 3.07-3.07c.482-.978.687-1.862.687-2.972s-.205-1.991-.687-2.973a6.58 6.58 0 0 0-3.07-3.07A6.4 6.4 0 0 0 7.977.334 8.5 8.5 0 0 0 6.453.28m1.134 1.496a5.26 5.26 0 0 1 3.218 1.606 5.236 5.236 0 0 1 .027 7.209 5.24 5.24 0 0 1-7.636.029c-.804-.842-1.285-1.877-1.425-3.07a6.4 6.4 0 0 1 .053-1.474 5.28 5.28 0 0 1 4.552-4.298 7.3 7.3 0 0 1 1.211-.002M4.498 5.558a.8.8 0 0 0-.413.363c-.046.085-.058.153-.058.333 0 .199.01.242.071.347.081.136 2.335 2.648 2.458 2.74.14.105.315.153.49.135.233-.014.34-.068.537-.27.38-.391 2.254-2.496 2.32-2.605.061-.105.07-.148.07-.347 0-.268-.048-.38-.235-.553a.735.735 0 0 0-1.009.026c-.05.048-.455.492-.899.987-.445.495-.818.9-.83.9s-.395-.417-.852-.926a26 26 0 0 0-.94-1.014.84.84 0 0 0-.473-.165 1 1 0 0 0-.237.049" clip-rule="evenodd"/>
</svg>
