<svg xmlns="http://www.w3.org/2000/svg" xml:space="preserve" fill="none" viewBox="0 0 16 16">
  <path fill="#000" fill-rule="evenodd" d="M1.808 3.29a.734.734 0 0 0 .036 1.428c.086.019.796.029 2.044.029H5.8L7.417 7.98c1.814 3.629 1.699 3.429 2.097 3.627l.229.113 1.225.008 1.225.008-.398.405c-.467.476-.527.575-.525.859.001.22.045.337.187.495a.7.7 0 0 0 .543.238c.328 0 .341-.01 1.537-1.208q1.071-1.071 1.133-1.192a.86.86 0 0 0 0-.666q-.062-.12-1.133-1.192C12.341 8.277 12.328 8.267 12 8.267q-.328 0-.543.238A.64.64 0 0 0 11.27 9c-.002.284.058.383.526.86l.399.407h-1.982L8.61 7.06c-.881-1.764-1.644-3.263-1.695-3.332-.102-.141-.379-.336-.582-.412-.125-.046-.26-.05-2.266-.055-1.668-.004-2.161.002-2.259.029m7.493 0a.76.76 0 0 0-.5.452c-.046.123-.033.443.023.567a.83.83 0 0 0 .374.368c.122.056.131.056 2.549.056h2.426l.152-.074A.69.69 0 0 0 14.73 4c0-.3-.141-.529-.405-.659l-.152-.074-2.373-.006c-1.859-.004-2.401.003-2.499.029"/>
</svg>
