<svg xmlns="http://www.w3.org/2000/svg" xml:space="preserve" fill="none" viewBox="0 0 24 24"><path d="M19.960 6.063 C 19.868 6.102,18.080 7.862,14.790 11.151 L 9.761 16.179 7.370 13.794 C 6.056 12.482,4.917 11.377,4.841 11.339 C 4.668 11.252,4.338 11.248,4.179 11.331 C 3.813 11.522,3.664 11.932,3.822 12.311 C 3.865 12.414,4.683 13.261,6.492 15.073 C 7.926 16.509,9.184 17.747,9.286 17.823 C 9.519 17.996,9.768 18.038,10.010 17.946 C 10.148 17.893,11.176 16.885,15.547 12.510 C 21.416 6.637,21.045 7.040,20.982 6.619 C 20.959 6.466,20.918 6.394,20.765 6.242 C 20.519 5.995,20.255 5.937,19.960 6.063 " stroke="none" fill-rule="evenodd" fill="black"></path></svg>