<svg width="17" height="18" viewBox="0 0 17 18" fill="none" xmlns="http://www.w3.org/2000/svg">
    <path fill-rule="evenodd" clip-rule="evenodd" d="M12.4803 6.60736C12.7662 6.9071 12.7549 7.38184 12.4552 7.66772L7.86819 12.0427C7.57824 12.3193 7.12213 12.3191 6.83243 12.0423L4.54243 9.85427C4.24295 9.56812 4.23213 9.09337 4.51828 8.79389C4.80443 8.4944 5.27918 8.48358 5.57866 8.76973L7.351 10.4631L11.4199 6.58228C11.7196 6.29639 12.1944 6.30762 12.4803 6.60736Z" fill="white"/>
    <path fill-rule="evenodd" clip-rule="evenodd" d="M2.66637 3.16637C4.21354 1.61919 6.31196 0.75 8.5 0.75C10.688 0.75 12.7865 1.61919 14.3336 3.16637C15.8808 4.71354 16.75 6.81196 16.75 9C16.75 11.188 15.8808 13.2865 14.3336 14.8336C12.7865 16.3808 10.688 17.25 8.5 17.25C6.31196 17.25 4.21354 16.3808 2.66637 14.8336C1.11919 13.2865 0.25 11.188 0.25 9C0.25 6.81196 1.11919 4.71354 2.66637 3.16637ZM8.5 2.25C6.70979 2.25 4.9929 2.96116 3.72703 4.22703C2.46116 5.4929 1.75 7.20979 1.75 9C1.75 10.7902 2.46116 12.5071 3.72703 13.773C4.9929 15.0388 6.70979 15.75 8.5 15.75C10.2902 15.75 12.0071 15.0388 13.273 13.773C14.5388 12.5071 15.25 10.7902 15.25 9C15.25 7.20979 14.5388 5.4929 13.273 4.22703C12.0071 2.96116 10.2902 2.25 8.5 2.25Z" fill="white"/>
</svg>
