<svg xmlns="http://www.w3.org/2000/svg" viewBox="0 0 33 33">
  <path fill-rule="evenodd" d="M11.679 5.412c-.096.043-.968.863-1.939 1.823L7.976 8.979l-.743-.721c-.693-.672-1.056-.943-1.265-.943-.305 0-.931.573-.995.91-.071.382.037.532 1.319 1.815 1.626 1.629 1.629 1.63 2.575.773.81-.734 3.798-3.769 3.977-4.04.125-.189.146-.269.122-.475-.067-.595-.805-1.103-1.287-.886m5.616 2.006c-.885.04-1.013.09-1.183.465-.189.414-.11.953.179 1.231.159.151.173.154 1.051.19 1.152.046 9.028.046 10.222-.001.878-.034.924-.041 1.066-.173.451-.416.374-1.325-.136-1.618-.183-.105-.328-.109-5.307-.118-2.816-.006-5.467.005-5.892.024m-5.864 6.177c-.161.127-1.004.935-1.873 1.796l-1.58 1.566-.717-.695c-.953-.924-1.192-1.041-1.646-.809-.364.185-.665.631-.665.985 0 .196.544.823 1.656 1.907 1.15 1.122 1.255 1.179 1.682.929.281-.164 2.764-2.587 3.957-3.861.678-.725.735-.802.735-.995 0-.502-.533-1.053-1.019-1.053-.194 0-.289.041-.53.23m5.427 1.854c-.212.019-.441.071-.509.116-.17.112-.304.414-.33.743-.025.324.139.694.389.876.154.113.186.113 6.05.113 5.844 0 5.896 0 6.087-.112.263-.154.352-.362.352-.822 0-.461-.089-.669-.352-.823-.19-.111-.252-.113-5.748-.119-3.055-.003-5.728.009-5.939.028m-5.179 5.971c-.096.041-.968.86-1.939 1.82l-1.764 1.744-.743-.721c-.857-.831-1.099-.986-1.403-.894-.511.152-.928.68-.862 1.087.047.29.385.689 1.534 1.807 1.401 1.363 1.451 1.377 2.309.612.686-.612 3.872-3.854 4.046-4.116.257-.389.086-.876-.441-1.258-.245-.178-.461-.201-.737-.081m6.138 2.008c-1.466.033-1.518.047-1.705.46-.227.5-.059 1.12.361 1.33.214.107.345.11 5.225.125 2.752.008 5.406-.005 5.897-.03.872-.044.896-.049 1.051-.197.375-.359.374-1.144-.002-1.505l-.161-.154-2.43-.035c-2.775-.04-6.339-.037-8.236.006"/>
</svg>
