<svg xmlns="http://www.w3.org/2000/svg" fill="none" viewBox="0 0 20 20"><path d="M9.333 0.021 C 6.398 0.240,3.763 1.669,2.007 3.995 C 0.994 5.336,0.369 6.849,0.091 8.633 C -0.011 9.286,-0.011 10.714,0.091 11.367 C 0.519 14.111,1.844 16.360,3.994 17.992 C 5.322 18.999,6.852 19.631,8.633 19.909 C 9.286 20.011,10.714 20.011,11.367 19.909 C 13.797 19.530,15.863 18.435,17.413 16.702 C 18.787 15.167,19.581 13.469,19.909 11.367 C 20.011 10.714,20.011 9.286,19.909 8.633 C 19.631 6.852,18.999 5.322,17.992 3.994 C 16.338 1.815,13.975 0.443,11.250 0.083 C 10.860 0.031,9.700 -0.006,9.333 0.021 M15.025 6.373 C 15.269 6.464,15.540 6.720,15.670 6.984 C 15.854 7.360,15.837 7.808,15.624 8.159 C 15.463 8.427,9.269 14.328,9.025 14.448 C 8.669 14.622,8.266 14.622,7.912 14.449 C 7.782 14.386,7.415 14.056,6.494 13.178 C 4.085 10.881,4.183 11.000,4.183 10.400 C 4.183 10.085,4.193 10.031,4.275 9.863 C 4.385 9.640,4.671 9.359,4.892 9.256 C 5.023 9.196,5.110 9.183,5.400 9.183 C 5.942 9.183,5.922 9.170,7.301 10.489 L 8.468 11.606 8.795 11.294 C 8.975 11.123,10.167 9.986,11.444 8.767 C 13.877 6.445,13.975 6.361,14.324 6.301 C 14.533 6.265,14.808 6.293,15.025 6.373 " fill="#0F6148" stroke="none" fill-rule="evenodd"></path></svg>