<svg xmlns="http://www.w3.org/2000/svg" viewBox="0 0 33 33"><path d="M11.679 5.412 C 11.583 5.455,10.711 6.275,9.740 7.235 L 7.976 8.979 7.233 8.258 C 6.540 7.586,6.177 7.315,5.968 7.315 C 5.663 7.315,5.037 7.888,4.973 8.225 C 4.902 8.607,5.010 8.757,6.292 10.040 C 7.918 11.669,7.921 11.670,8.867 10.813 C 9.677 10.079,12.665 7.044,12.844 6.773 C 12.969 6.584,12.990 6.504,12.966 6.298 C 12.899 5.703,12.161 5.195,11.679 5.412 M17.295 7.418 C 16.410 7.458,16.282 7.508,16.112 7.883 C 15.923 8.297,16.002 8.836,16.291 9.114 C 16.450 9.265,16.464 9.268,17.342 9.304 C 18.494 9.350,26.370 9.350,27.564 9.303 C 28.442 9.269,28.488 9.262,28.630 9.130 C 29.081 8.714,29.004 7.805,28.494 7.512 C 28.311 7.407,28.166 7.403,23.187 7.394 C 20.371 7.388,17.720 7.399,17.295 7.418 M11.431 13.595 C 11.270 13.722,10.427 14.530,9.558 15.391 L 7.978 16.957 7.261 16.262 C 6.308 15.338,6.069 15.221,5.615 15.453 C 5.251 15.638,4.950 16.084,4.950 16.438 C 4.950 16.634,5.494 17.261,6.606 18.345 C 7.756 19.467,7.861 19.524,8.288 19.274 C 8.569 19.110,11.052 16.687,12.245 15.413 C 12.923 14.688,12.980 14.611,12.980 14.418 C 12.980 13.916,12.447 13.365,11.961 13.365 C 11.767 13.365,11.672 13.406,11.431 13.595 M16.858 15.449 C 16.646 15.468,16.417 15.520,16.349 15.565 C 16.179 15.677,16.045 15.979,16.019 16.308 C 15.994 16.632,16.158 17.002,16.408 17.184 C 16.562 17.297,16.594 17.297,22.458 17.297 C 28.302 17.297,28.354 17.297,28.545 17.185 C 28.808 17.031,28.897 16.823,28.897 16.363 C 28.897 15.902,28.808 15.694,28.545 15.540 C 28.355 15.429,28.293 15.427,22.797 15.421 C 19.742 15.418,17.069 15.430,16.858 15.449 M11.679 21.420 C 11.583 21.461,10.711 22.280,9.740 23.240 L 7.976 24.984 7.233 24.263 C 6.376 23.432,6.134 23.277,5.830 23.369 C 5.319 23.521,4.902 24.049,4.968 24.456 C 5.015 24.746,5.353 25.145,6.502 26.263 C 7.903 27.626,7.953 27.640,8.811 26.875 C 9.497 26.263,12.683 23.021,12.857 22.759 C 13.114 22.370,12.943 21.883,12.416 21.501 C 12.171 21.323,11.955 21.300,11.679 21.420 M17.817 23.428 C 16.351 23.461,16.299 23.475,16.112 23.888 C 15.885 24.388,16.053 25.008,16.473 25.218 C 16.687 25.325,16.818 25.328,21.698 25.343 C 24.450 25.351,27.104 25.338,27.595 25.313 C 28.467 25.269,28.491 25.264,28.646 25.116 C 29.021 24.757,29.020 23.972,28.644 23.611 L 28.483 23.457 26.053 23.422 C 23.278 23.382,19.714 23.385,17.817 23.428 " stroke="none" fill-rule="evenodd" fill="black"></path></svg>