<svg fill="none" viewBox="0 0 20 20">
    <path d="m20 10c0 5.5228-4.4772 10-10 10-5.5228 0-10-4.4772-10-10 0-5.5228 4.4772-10 10-10 5.5228 0 10 4.4772 10 10zm-4.5538-1.5956c0.4995-0.47653 0.5181-1.2678 0.0416-1.7673-0.4766-0.49952-1.2678-0.51814-1.7673-0.0416l-5.251 5.0094-2.1892-2.092c-0.4991-0.47697-1.2904-0.45902-1.7673 0.0401-0.47697 0.49913-0.45902 1.2903 0.0401 1.7673l3.0521 2.9166c0.48287 0.4615 1.2432 0.4618 1.7264 8e-4l6.1146-5.8334z" clip-rule="evenodd" fill="#0F6148" fill-rule="evenodd"/>
</svg>