<svg xmlns="http://www.w3.org/2000/svg" viewBox="0 0 16 16">
  <path fill-rule="evenodd" d="M7.2 2.064a6.2 6.2 0 0 0-2.219.769c-.761.43-1.517 1.154-2.034 1.949a6 6 0 0 0-.938 3.005c-.094 2.412 1.36 4.729 3.57 5.69 1.178.513 2.365.645 3.59.401a6.05 6.05 0 0 0 4.01-2.865c.342-.579.628-1.388.759-2.146.064-.375.064-1.359 0-1.734-.234-1.354-.784-2.434-1.711-3.36-.517-.517-.891-.785-1.581-1.13a5.5 5.5 0 0 0-1.681-.553c-.354-.057-1.46-.073-1.765-.026m3.869 3.531c.293.142.409.35.394.706l-.01.224-.13.158c-.277.333-4.28 4.277-4.342 4.277-.034 0-2.217-2.166-2.35-2.332-.082-.103-.084-.113-.084-.374 0-.224.01-.285.059-.377.124-.233.347-.356.647-.356.337 0 .376.028 1.245.889l.485.48 1.209-1.186c1.362-1.338 1.994-1.947 2.121-2.044a1 1 0 0 1 .187-.103.88.88 0 0 1 .569.038"/>
</svg>
