<svg xmlns="http://www.w3.org/2000/svg" xml:space="preserve" fill="none" viewBox="0 0 24 24"><path d="M8.720 3.805 C 8.589 3.857,8.408 4.030,8.331 4.179 C 8.248 4.338,8.252 4.668,8.338 4.841 C 8.377 4.917,9.986 6.559,11.914 8.490 L 15.419 12.000 11.914 15.510 C 9.986 17.441,8.377 19.083,8.338 19.159 C 8.251 19.333,8.248 19.662,8.332 19.825 C 8.543 20.232,9.061 20.363,9.433 20.105 C 9.514 20.048,11.283 18.296,13.365 16.211 C 16.443 13.129,17.160 12.391,17.200 12.265 C 17.271 12.042,17.232 11.750,17.107 11.571 C 17.049 11.488,15.305 9.724,13.231 7.652 C 10.581 5.003,9.416 3.865,9.311 3.822 C 9.145 3.753,8.871 3.745,8.720 3.805 " stroke="none" fill-rule="evenodd" fill="black"></path></svg>