<svg xmlns="http://www.w3.org/2000/svg" fill="none" viewBox="0 0 24 24"><path d="M11.540 4.437 C 11.297 4.579,7.522 8.352,7.420 8.556 C 7.382 8.632,7.342 8.794,7.331 8.918 C 7.295 9.312,7.538 9.711,7.906 9.865 C 8.081 9.938,8.447 9.935,8.631 9.859 C 8.733 9.817,9.292 9.285,10.390 8.189 L 12.000 6.580 13.590 8.169 C 15.296 9.872,15.351 9.917,15.742 9.919 C 16.449 9.922,16.905 9.112,16.541 8.500 C 16.395 8.256,12.614 4.505,12.412 4.404 C 12.152 4.274,11.796 4.288,11.540 4.437 M15.440 14.090 C 15.334 14.122,14.896 14.535,13.650 15.775 L 12.000 17.418 10.370 15.792 C 8.901 14.326,8.722 14.162,8.560 14.119 C 8.125 14.004,7.688 14.171,7.461 14.538 C 7.356 14.708,7.340 14.772,7.340 15.017 C 7.340 15.253,7.358 15.330,7.447 15.480 C 7.601 15.738,11.376 19.490,11.588 19.596 C 11.848 19.725,12.204 19.712,12.460 19.563 C 12.590 19.487,13.349 18.755,14.626 17.473 C 16.539 15.553,16.594 15.494,16.664 15.268 C 16.896 14.520,16.208 13.859,15.440 14.090 " stroke="none" fill-rule="evenodd" fill="black"></path></svg>