<svg xmlns="http://www.w3.org/2000/svg" xml:space="preserve" fill="none" viewBox="0 0 24 24">
  <path fill="#000" fill-rule="evenodd" d="M4.163 7.59a.766.766 0 0 0-.363.915c.04.126.755.863 3.834 3.949 2.082 2.087 3.866 3.847 3.964 3.91a.6.6 0 0 0 .402.116c.18 0 .26-.023.402-.116.098-.063 1.882-1.823 3.964-3.91 3.079-3.086 3.794-3.823 3.834-3.949.158-.496-.183-.985-.687-.985a1 1 0 0 0-.3.042c-.064.023-1.664 1.592-3.663 3.59L12 14.7l-3.55-3.548c-1.999-1.998-3.599-3.567-3.663-3.59a.94.94 0 0 0-.624.028"/>
</svg>
