<svg xmlns="http://www.w3.org/2000/svg" xml:space="preserve" fill="none" viewBox="0 0 24 24"><path d="M11.680 6.823 C 11.531 6.887,4.085 14.294,3.896 14.567 C 3.637 14.939,3.768 15.457,4.175 15.668 C 4.338 15.752,4.667 15.749,4.841 15.662 C 4.917 15.623,6.559 14.014,8.490 12.086 L 12.000 8.581 15.510 12.086 C 17.441 14.014,19.083 15.623,19.159 15.662 C 19.333 15.749,19.662 15.752,19.825 15.668 C 20.232 15.457,20.363 14.939,20.104 14.567 C 20.048 14.486,18.305 12.724,16.231 10.652 C 13.581 8.003,12.416 6.865,12.311 6.822 C 12.125 6.744,11.862 6.745,11.680 6.823 " stroke="none" fill-rule="evenodd" fill="black"></path></svg>