<svg fill="none" viewBox="0 0 24 24">
  <g fill="#171717" fill-rule="evenodd" clip-rule="evenodd">
    <path d="M11.47 4.72a.75.75 0 0 1 1.06 0l3.75 3.75a.75.75 0 0 1-1.06 1.06L12 6.31 8.78 9.53a.75.75 0 0 1-1.06-1.06zm-3.75 9.75a.75.75 0 0 1 1.06 0L12 17.69l3.22-3.22a.75.75 0 1 1 1.06 1.06l-3.75 3.75a.75.75 0 0 1-1.06 0l-3.75-3.75a.75.75 0 0 1 0-1.06"/>
    <path d="M11.329 4.579a.95.95 0 0 1 1.342 0l3.756 3.755a.95.95 0 0 1-1.343 1.342l-.005-.004L12 6.593 8.917 9.677a.95.95 0 0 1-1.343-1.343l.005-.005zM12 6.31l3.22 3.22a.75.75 0 0 0 1.06-1.06l-3.75-3.75a.75.75 0 0 0-1.06 0L7.72 8.47a.75.75 0 0 0 1.06 1.06zm-3.078 8.02L12 17.407l3.076-3.076a.95.95 0 1 1 1.343 1.343l-3.748 3.748a.95.95 0 0 1-1.342 0l-3.75-3.75a.95.95 0 0 1 1.343-1.343Zm7.358 1.201a.75.75 0 1 0-1.06-1.06L12 17.69l-3.22-3.22a.75.75 0 0 0-1.06 1.06l3.75 3.75a.75.75 0 0 0 1.06 0z"/>
  </g>
</svg>
