<svg xmlns="http://www.w3.org/2000/svg" fill="none" viewBox="0 0 24 24">
  <path fill="#000" fill-rule="evenodd" d="M11.54 4.437c-.243.142-4.018 3.915-4.12 4.119a1.2 1.2 0 0 0-.089.362.96.96 0 0 0 .575.947c.175.073.541.07.725-.006.102-.042.661-.574 1.759-1.67L12 6.58l1.59 1.589c1.706 1.703 1.761 1.748 2.152 1.75.707.003 1.163-.807.799-1.419-.146-.244-3.927-3.995-4.129-4.096a.96.96 0 0 0-.872.033m3.9 9.653c-.106.032-.544.445-1.79 1.685L12 17.418l-1.63-1.626c-1.469-1.466-1.648-1.63-1.81-1.673a.98.98 0 0 0-1.099.419c-.105.17-.121.234-.121.479 0 .236.018.313.107.463.154.258 3.929 4.01 4.141 4.116.26.129.616.116.872-.033.13-.076.889-.808 2.166-2.09 1.913-1.92 1.968-1.979 2.038-2.205.232-.748-.456-1.409-1.224-1.178"/>
</svg>
