<svg xmlns="http://www.w3.org/2000/svg" xml:space="preserve" fill="none" viewBox="0 0 24 24">
  <path fill="#000" fill-rule="evenodd" d="M8.72 3.805a.9.9 0 0 0-.389.374c-.083.159-.079.489.007.662.039.076 1.648 1.718 3.576 3.649L15.419 12l-3.505 3.51c-1.928 1.931-3.537 3.573-3.576 3.649-.087.174-.09.503-.006.666a.757.757 0 0 0 1.101.28c.081-.057 1.85-1.809 3.932-3.894 3.078-3.082 3.795-3.82 3.835-3.946a.85.85 0 0 0-.093-.694c-.058-.083-1.802-1.847-3.876-3.919-2.65-2.649-3.815-3.787-3.92-3.83a.93.93 0 0 0-.591-.017"/>
</svg>
