<svg xmlns="http://www.w3.org/2000/svg" xml:space="preserve" fill="none" viewBox="0 0 24 24"><path d="M14.680 3.823 C 14.530 3.888,7.084 11.296,6.893 11.571 C 6.768 11.750,6.729 12.042,6.800 12.265 C 6.840 12.391,7.557 13.129,10.635 16.211 C 12.717 18.296,14.486 20.048,14.567 20.105 C 14.939 20.363,15.457 20.232,15.668 19.825 C 15.752 19.662,15.749 19.333,15.662 19.159 C 15.623 19.083,14.014 17.441,12.086 15.510 L 8.581 12.000 12.086 8.490 C 14.014 6.559,15.623 4.917,15.662 4.841 C 15.748 4.668,15.752 4.338,15.669 4.179 C 15.588 4.024,15.409 3.856,15.267 3.803 C 15.110 3.743,14.845 3.752,14.680 3.823 " stroke="none" fill-rule="evenodd" fill="black"></path></svg>