<svg xmlns="http://www.w3.org/2000/svg" viewBox="0 0 32 33"><path d="M18.737 2.193 C 18.452 2.244,18.258 2.372,18.145 2.581 C 18.071 2.718,18.052 2.951,18.036 3.933 L 18.016 5.120 15.995 5.120 L 13.973 5.120 13.972 4.013 C 13.971 2.800,13.936 2.629,13.630 2.347 C 13.506 2.233,13.424 2.211,13.061 2.194 C 12.675 2.177,12.617 2.188,12.426 2.314 C 12.060 2.556,12.036 2.651,12.010 3.960 L 11.987 5.120 9.954 5.123 C 8.835 5.125,7.596 5.145,7.200 5.168 C 6.565 5.204,6.444 5.227,6.173 5.360 C 5.571 5.656,5.174 6.194,5.065 6.863 C 5.037 7.034,5.014 8.293,5.014 9.662 L 5.013 12.150 3.827 12.168 C 2.496 12.189,2.379 12.218,2.162 12.589 C 2.007 12.852,2.008 13.478,2.163 13.686 C 2.434 14.048,2.447 14.052,3.790 14.070 L 5.013 14.087 5.013 16.110 L 5.013 18.133 4.387 18.137 C 4.042 18.140,3.475 18.159,3.127 18.180 L 2.494 18.219 2.317 18.412 C 1.927 18.837,1.945 19.605,2.351 19.905 C 2.573 20.070,2.847 20.104,3.957 20.105 L 5.007 20.107 5.024 22.813 C 5.041 25.497,5.042 25.523,5.164 25.826 C 5.333 26.246,5.725 26.660,6.180 26.899 L 6.549 27.093 9.274 27.093 L 12.000 27.093 12.001 28.040 C 12.003 29.542,12.075 29.818,12.518 30.007 C 12.768 30.113,13.264 30.097,13.535 29.974 C 13.901 29.808,13.934 29.677,13.962 28.280 L 13.986 27.093 16.003 27.093 L 18.019 27.093 18.036 28.316 C 18.055 29.659,18.058 29.673,18.421 29.943 C 18.637 30.105,19.392 30.103,19.609 29.941 C 19.947 29.690,19.971 29.584,19.992 28.280 L 20.012 27.093 22.731 27.093 L 25.451 27.093 25.820 26.899 C 26.276 26.660,26.667 26.246,26.835 25.826 C 26.957 25.523,26.958 25.492,26.976 22.818 L 26.994 20.115 28.177 20.098 C 29.540 20.077,29.639 20.050,29.853 19.627 C 30.056 19.228,29.988 18.744,29.683 18.411 L 29.506 18.219 28.873 18.180 C 28.525 18.159,27.958 18.140,27.613 18.137 L 26.987 18.133 26.987 16.111 L 26.987 14.089 28.200 14.069 C 29.528 14.048,29.634 14.026,29.809 13.738 C 30.040 13.357,29.990 12.671,29.712 12.405 C 29.512 12.213,29.142 12.162,27.937 12.161 L 26.994 12.160 26.976 9.453 C 26.958 6.769,26.957 6.744,26.834 6.438 C 26.670 6.028,26.234 5.560,25.831 5.362 C 25.556 5.226,25.438 5.204,24.800 5.168 C 24.404 5.145,23.162 5.125,22.040 5.123 L 20.000 5.120 19.999 4.227 C 19.998 3.193,19.940 2.701,19.797 2.509 C 19.588 2.230,19.189 2.110,18.737 2.193 M25.013 16.107 L 25.013 25.120 16.000 25.120 L 6.987 25.120 6.987 16.107 L 6.987 7.093 16.000 7.093 L 25.013 7.093 25.013 16.107 M12.853 12.206 C 12.419 12.251,12.298 12.319,12.147 12.602 L 12.027 12.827 12.027 16.133 C 12.027 19.757,12.012 19.581,12.343 19.891 C 12.449 19.990,12.570 20.031,12.842 20.061 C 13.039 20.083,14.594 20.102,16.297 20.104 L 19.394 20.107 19.613 19.919 C 19.734 19.816,19.864 19.642,19.903 19.532 C 19.958 19.376,19.973 18.642,19.973 16.080 C 19.973 13.018,19.968 12.815,19.874 12.628 C 19.820 12.518,19.700 12.382,19.608 12.325 C 19.448 12.227,19.284 12.221,16.320 12.196 C 14.604 12.181,13.044 12.186,12.853 12.206 M18.027 16.107 L 18.027 18.133 16.000 18.133 L 13.973 18.133 13.973 16.107 L 13.973 14.080 16.000 14.080 L 18.027 14.080 18.027 16.107 " stroke="none" fill-rule="evenodd" fill="black"></path></svg>