<svg xmlns="http://www.w3.org/2000/svg" xml:space="preserve" fill="none" viewBox="0 0 20 20"><path d="M9.200 1.787 C 8.094 1.920,7.304 2.148,6.383 2.598 C 5.479 3.041,4.918 3.444,4.181 4.181 C 3.444 4.918,3.041 5.479,2.598 6.383 C 2.310 6.972,2.144 7.420,2.000 8.000 C 1.815 8.743,1.783 9.037,1.783 10.000 C 1.783 10.963,1.815 11.257,2.000 12.000 C 2.144 12.580,2.310 13.028,2.598 13.617 C 3.041 14.521,3.444 15.082,4.181 15.819 C 4.918 16.556,5.479 16.959,6.383 17.402 C 6.972 17.690,7.420 17.856,8.000 18.000 C 8.743 18.185,9.037 18.217,10.000 18.217 C 10.963 18.217,11.257 18.185,12.000 18.000 C 13.070 17.733,14.114 17.228,15.050 16.523 C 15.394 16.264,16.264 15.394,16.523 15.050 C 17.387 13.903,17.923 12.656,18.156 11.250 C 18.204 10.960,18.217 10.698,18.217 10.000 C 18.217 9.037,18.185 8.743,18.000 8.000 C 17.733 6.930,17.228 5.886,16.523 4.950 C 16.264 4.606,15.394 3.736,15.050 3.477 C 14.135 2.787,13.087 2.275,12.050 2.011 C 11.366 1.836,11.037 1.797,10.150 1.785 C 9.692 1.778,9.264 1.779,9.200 1.787 M10.967 3.322 C 13.075 3.618,14.949 4.936,15.963 6.838 C 16.754 8.320,16.958 10.133,16.515 11.753 C 15.949 13.822,14.467 15.490,12.503 16.267 C 11.189 16.787,9.710 16.888,8.362 16.548 C 6.428 16.061,4.797 14.737,3.932 12.950 C 3.464 11.983,3.260 11.087,3.260 10.000 C 3.260 8.619,3.634 7.380,4.394 6.247 C 5.847 4.081,8.372 2.957,10.967 3.322 M8.879 6.464 C 8.714 6.505,8.551 6.621,8.448 6.770 C 8.374 6.877,8.350 6.954,8.339 7.122 C 8.313 7.530,8.284 7.494,9.736 8.803 C 10.450 9.445,11.033 9.984,11.033 10.000 C 11.033 10.016,10.450 10.555,9.736 11.197 C 8.284 12.505,8.313 12.470,8.339 12.878 C 8.365 13.286,8.649 13.548,9.065 13.546 C 9.200 13.546,9.322 13.525,9.385 13.492 C 9.441 13.463,10.221 12.778,11.118 11.971 C 12.886 10.382,12.933 10.331,12.933 10.011 C 12.933 9.662,12.937 9.666,11.140 8.049 C 10.231 7.231,9.447 6.541,9.399 6.516 C 9.285 6.457,9.012 6.430,8.879 6.464 " stroke="none" fill-rule="evenodd" fill="black"></path></svg>