<svg xmlns="http://www.w3.org/2000/svg" xml:space="preserve" fill="none" viewBox="0 0 20 20">
  <path fill="#000" fill-rule="evenodd" d="M9.2 1.787c-1.106.133-1.896.361-2.817.811-.904.443-1.465.846-2.202 1.583s-1.14 1.298-1.583 2.202A7.5 7.5 0 0 0 2 8c-.185.743-.217 1.037-.217 2s.032 1.257.217 2c.144.58.31 1.028.598 1.617.443.904.846 1.465 1.583 2.202s1.298 1.14 2.202 1.583A7.5 7.5 0 0 0 8 18c.743.185 1.037.217 2 .217s1.257-.032 2-.217a8.5 8.5 0 0 0 3.05-1.477c.344-.259 1.214-1.129 1.473-1.473a8.5 8.5 0 0 0 1.633-3.8c.048-.29.061-.552.061-1.25 0-.963-.032-1.257-.217-2a8.5 8.5 0 0 0-1.477-3.05c-.259-.344-1.129-1.214-1.473-1.473-.915-.69-1.963-1.202-3-1.466-.684-.175-1.013-.214-1.9-.226a17 17 0 0 0-.95.002m1.767 1.535c2.108.296 3.982 1.614 4.996 3.516a6.8 6.8 0 0 1 .552 4.915c-.566 2.069-2.048 3.737-4.012 4.514a6.84 6.84 0 0 1-4.141.281 6.77 6.77 0 0 1-4.43-3.598A6.4 6.4 0 0 1 3.26 10a6.56 6.56 0 0 1 1.134-3.753 6.73 6.73 0 0 1 6.573-2.925M8.879 6.464a.77.77 0 0 0-.431.306c-.074.107-.098.184-.109.352-.026.408-.055.372 1.397 1.681.714.642 1.297 1.181 1.297 1.197s-.583.555-1.297 1.197c-1.452 1.308-1.423 1.273-1.397 1.681s.31.67.726.668a.8.8 0 0 0 .32-.054c.056-.029.836-.714 1.733-1.521 1.768-1.589 1.815-1.64 1.815-1.96 0-.349.004-.345-1.793-1.962-.909-.818-1.693-1.508-1.741-1.533a1 1 0 0 0-.52-.052"/>
</svg>
