<svg width="16" height="16" viewBox="0 0 16 16" fill="none" xmlns="http://www.w3.org/2000/svg">
    <path fill-rule="evenodd" clip-rule="evenodd" d="M3.22703 3.22703C4.4929 1.96116 6.20979 1.25 8 1.25C8.88642 1.25 9.76417 1.42459 10.5831 1.76381C11.4021 2.10303 12.1462 2.60023 12.773 3.22703C13.3998 3.85382 13.897 4.59794 14.2362 5.41689C14.5754 6.23584 14.75 7.11358 14.75 8C14.75 8.88642 14.5754 9.76416 14.2362 10.5831C13.897 11.4021 13.3998 12.1462 12.773 12.773C12.1462 13.3998 11.4021 13.897 10.5831 14.2362C9.76417 14.5754 8.88642 14.75 8 14.75C6.20979 14.75 4.4929 14.0388 3.22703 12.773C1.96116 11.5071 1.25 9.79021 1.25 8C1.25 6.20979 1.96116 4.4929 3.22703 3.22703ZM8 2.75C6.60761 2.75 5.27226 3.30312 4.28769 4.28769C3.30312 5.27226 2.75 6.60761 2.75 8C2.75 9.39239 3.30312 10.7277 4.28769 11.7123C5.27226 12.6969 6.60761 13.25 8 13.25C8.68944 13.25 9.37213 13.1142 10.0091 12.8504C10.646 12.5865 11.2248 12.1998 11.7123 11.7123C12.1998 11.2248 12.5865 10.646 12.8504 10.0091C13.1142 9.37213 13.25 8.68944 13.25 8C13.25 7.31056 13.1142 6.62787 12.8504 5.99091C12.5865 5.35395 12.1998 4.7752 11.7123 4.28769C11.2248 3.80018 10.646 3.41347 10.0091 3.14963C9.37213 2.8858 8.68944 2.75 8 2.75Z" fill="black"/>
    <path fill-rule="evenodd" clip-rule="evenodd" d="M8 3.75C8.41421 3.75 8.75 4.08579 8.75 4.5V7.25H11.5C11.9142 7.25 12.25 7.58579 12.25 8C12.25 8.41421 11.9142 8.75 11.5 8.75H8C7.58579 8.75 7.25 8.41421 7.25 8V4.5C7.25 4.08579 7.58579 3.75 8 3.75Z" fill="black"/>
</svg>
