<svg xmlns="http://www.w3.org/2000/svg" xml:space="preserve" fill="none" viewBox="0 0 24 24">
  <path fill="#000" fill-rule="evenodd" d="M11.1 3.041c-2.069.231-4.055 1.176-5.46 2.6-2.093 2.121-3.013 5.054-2.495 7.959.318 1.785 1.207 3.466 2.536 4.798 1.705 1.708 4.209 2.69 6.599 2.588 1.79-.076 3.456-.626 4.84-1.599.668-.47 1.316-1.063 1.398-1.28a.76.76 0 0 0-.603-1.011c-.258-.036-.46.069-.895.465-2.07 1.884-4.963 2.445-7.62 1.478-1.844-.672-3.353-2.059-4.211-3.874-1.056-2.235-.899-4.981.403-7.077C6.642 6.4 8.176 5.26 10.1 4.74c1.842-.497 3.94-.222 5.616.738.681.389 1.137.773 2.344 1.97l1.16 1.15-1.04.002c-.921.002-1.059.01-1.202.075-.57.259-.596 1.055-.042 1.323.16.078.244.081 2.219.083 2.305.002 2.218.012 2.462-.295l.123-.153V5.327l-.124-.153c-.177-.219-.344-.305-.59-.305-.328 0-.624.207-.707.494-.021.075-.039.591-.039 1.147 0 .555-.014 1.01-.03 1.01-.017 0-.516-.487-1.11-1.083-1.131-1.134-1.459-1.43-2.02-1.824-1.1-.773-2.425-1.295-3.84-1.512-.498-.077-1.729-.111-2.18-.06m.67 3.751c-.138.043-.361.236-.44.38-.064.117-.071.325-.083 2.448-.014 2.496-.005 2.633.184 2.852.067.077.845.549 2.029 1.231 2.19 1.261 2.153 1.241 2.354 1.278.34.064.755-.244.808-.602a.73.73 0 0 0-.196-.638c-.069-.068-.922-.581-1.894-1.141l-1.769-1.017-.011-2.122c-.011-2.029-.015-2.128-.092-2.278a.69.69 0 0 0-.584-.404 1.1 1.1 0 0 0-.306.013"/>
</svg>
