<svg xmlns="http://www.w3.org/2000/svg" xml:space="preserve" fill="none" viewBox="0 0 24 24"><path d="M4.940 4.567 C 4.813 4.637,4.638 4.811,4.576 4.928 C 4.510 5.055,4.502 5.387,4.562 5.547 C 4.585 5.610,6.001 7.058,7.772 8.830 L 10.939 12.000 7.772 15.170 C 6.001 16.942,4.585 18.390,4.562 18.453 C 4.507 18.601,4.508 18.943,4.565 19.053 C 4.631 19.182,4.805 19.359,4.928 19.424 C 5.073 19.499,5.414 19.495,5.572 19.416 C 5.642 19.381,7.117 17.937,8.850 16.206 L 12.000 13.060 15.150 16.206 C 16.883 17.937,18.358 19.381,18.428 19.416 C 18.586 19.495,18.927 19.499,19.072 19.424 C 19.195 19.359,19.369 19.182,19.435 19.053 C 19.501 18.925,19.490 18.576,19.416 18.428 C 19.381 18.358,17.937 16.883,16.206 15.150 L 13.060 12.000 16.206 8.850 C 17.937 7.117,19.381 5.642,19.416 5.572 C 19.495 5.414,19.499 5.073,19.424 4.928 C 19.359 4.805,19.182 4.631,19.053 4.565 C 18.943 4.508,18.601 4.507,18.453 4.562 C 18.390 4.585,16.942 6.001,15.170 7.772 L 12.000 10.939 8.830 7.772 C 7.058 6.001,5.610 4.585,5.547 4.562 C 5.401 4.507,5.042 4.510,4.940 4.567 " stroke="none" fill-rule="evenodd" fill="black"></path></svg>