<svg xmlns="http://www.w3.org/2000/svg" xml:space="preserve" fill="none" viewBox="0 0 24 24">
  <path fill="#000" fill-rule="evenodd" d="M4.94 4.567c-.127.07-.302.244-.364.361-.066.127-.074.459-.014.619.023.063 1.439 1.511 3.21 3.283L10.939 12l-3.167 3.17c-1.771 1.772-3.187 3.22-3.21 3.283-.055.148-.054.49.003.6.066.129.24.306.363.371.145.075.486.071.644-.008.07-.035 1.545-1.479 3.278-3.21L12 13.06l3.15 3.146c1.733 1.731 3.208 3.175 3.278 3.21.158.079.499.083.644.008.123-.065.297-.242.363-.371.066-.128.055-.477-.019-.625-.035-.07-1.479-1.545-3.21-3.278L13.06 12l3.146-3.15c1.731-1.733 3.175-3.208 3.21-3.278.079-.158.083-.499.008-.644a1.1 1.1 0 0 0-.371-.363c-.11-.057-.452-.058-.6-.003-.063.023-1.511 1.439-3.283 3.21L12 10.939 8.83 7.772c-1.772-1.771-3.22-3.187-3.283-3.21-.146-.055-.505-.052-.607.005"/>
</svg>
