<svg xmlns="http://www.w3.org/2000/svg" fill="none" viewBox="0 0 32 32"><path d="M10.160 5.074 C 5.665 5.422,2.163 7.084,1.242 9.307 C 1.014 9.856,1.005 10.017,1.023 13.173 L 1.040 16.187 1.180 16.546 C 1.762 18.042,3.305 19.241,5.707 20.063 C 6.385 20.295,7.511 20.572,8.307 20.703 L 9.013 20.819 9.013 21.375 C 9.013 21.710,9.047 22.061,9.098 22.258 C 9.377 23.333,10.209 24.292,11.569 25.105 C 13.054 25.992,15.182 26.619,17.627 26.889 C 18.484 26.984,21.516 26.984,22.373 26.889 C 26.514 26.432,29.573 24.983,30.609 22.988 C 30.997 22.241,30.993 22.288,30.975 18.864 L 30.960 15.813 30.820 15.454 C 30.592 14.868,30.350 14.510,29.813 13.968 C 28.849 12.995,27.524 12.282,25.707 11.760 C 25.081 11.580,23.810 11.306,23.240 11.228 L 22.987 11.193 22.987 10.631 C 22.987 9.540,22.636 8.755,21.768 7.904 C 20.201 6.368,17.283 5.342,13.709 5.068 C 12.880 5.005,11.013 5.008,10.160 5.074 M14.147 7.122 C 16.415 7.354,18.472 7.982,19.783 8.842 C 20.202 9.116,20.704 9.633,20.852 9.942 C 21.657 11.618,18.578 13.412,14.056 13.901 C 12.988 14.016,11.012 14.016,9.944 13.901 C 7.067 13.590,4.701 12.752,3.607 11.658 C 2.824 10.875,2.821 10.130,3.597 9.358 C 3.984 8.973,4.335 8.736,5.048 8.380 C 7.276 7.267,10.805 6.778,14.147 7.122 M23.794 13.363 C 26.346 13.861,28.386 14.920,28.872 16.000 C 29.588 17.590,26.638 19.347,22.373 19.870 C 21.581 19.967,19.021 20.035,18.838 19.963 C 18.731 19.922,18.778 19.891,19.211 19.715 C 20.269 19.285,21.304 18.601,21.955 17.900 C 22.372 17.451,22.620 17.062,22.819 16.546 C 22.953 16.196,22.957 16.149,22.975 14.707 C 22.986 13.851,23.015 13.227,23.043 13.227 C 23.070 13.227,23.408 13.288,23.794 13.363 M3.556 14.099 C 4.289 14.539,5.427 15.008,6.440 15.288 L 6.987 15.438 6.987 16.893 C 6.987 17.692,6.976 18.347,6.963 18.347 C 6.872 18.347,5.979 18.034,5.516 17.839 C 4.405 17.374,3.507 16.707,3.172 16.099 C 3.016 15.815,3.015 15.807,2.995 14.777 L 2.975 13.740 3.101 13.820 C 3.170 13.864,3.375 13.990,3.556 14.099 M21.004 14.933 C 20.984 15.788,20.979 15.822,20.827 16.099 C 20.494 16.706,19.596 17.374,18.484 17.839 C 18.021 18.034,17.128 18.347,17.037 18.347 C 17.024 18.347,17.013 17.691,17.013 16.890 L 17.013 15.434 17.630 15.264 C 18.690 14.972,19.782 14.506,20.640 13.980 L 20.987 13.768 21.005 13.911 C 21.016 13.989,21.015 14.449,21.004 14.933 M10.533 15.949 C 11.713 16.037,12.973 16.010,14.573 15.863 L 14.987 15.825 14.987 17.296 C 14.987 18.650,14.979 18.768,14.893 18.793 C 14.842 18.807,14.536 18.851,14.213 18.890 C 13.070 19.027,9.707 18.963,9.107 18.793 C 9.021 18.768,9.013 18.650,9.013 17.295 L 9.013 15.825 9.453 15.863 C 9.695 15.884,10.181 15.922,10.533 15.949 M29.005 20.787 C 28.988 21.718,28.978 21.805,28.857 22.053 C 28.485 22.814,27.337 23.573,25.720 24.127 L 25.013 24.369 25.013 22.906 L 25.013 21.443 25.320 21.358 C 26.512 21.030,27.942 20.436,28.640 19.981 C 28.801 19.876,28.954 19.789,28.978 19.788 C 29.003 19.787,29.015 20.237,29.005 20.787 M14.267 21.214 L 14.960 21.427 14.974 22.898 L 14.988 24.369 14.308 24.136 C 13.031 23.697,12.210 23.249,11.626 22.670 C 11.180 22.229,11.039 21.940,11.002 21.399 L 10.974 20.987 12.274 20.994 L 13.573 21.000 14.267 21.214 M18.107 21.925 C 19.242 22.038,21.949 21.984,22.813 21.832 L 22.987 21.801 22.987 23.294 L 22.987 24.786 22.520 24.847 C 21.473 24.986,20.038 25.036,18.973 24.971 C 18.409 24.937,17.737 24.881,17.480 24.847 L 17.013 24.786 17.013 23.293 L 17.013 21.800 17.267 21.833 C 17.407 21.852,17.785 21.893,18.107 21.925 " fill="#171717" stroke="none" fill-rule="evenodd"></path></svg>