<svg xmlns="http://www.w3.org/2000/svg" fill="none" viewBox="0 0 32 32">
  <path fill="#171717" fill-rule="evenodd" d="M10.16 5.074c-4.495.348-7.997 2.01-8.918 4.233-.228.549-.237.71-.219 3.866l.017 3.014.14.359c.582 1.496 2.125 2.695 4.527 3.517.678.232 1.804.509 2.6.64l.706.116v.556c0 .335.034.686.085.883.279 1.075 1.111 2.034 2.471 2.847 1.485.887 3.613 1.514 6.058 1.784.857.095 3.889.095 4.746 0 4.141-.457 7.2-1.906 8.236-3.901.388-.747.384-.7.366-4.124l-.015-3.051-.14-.359c-.228-.586-.47-.944-1.007-1.486-.964-.973-2.289-1.686-4.106-2.208a24 24 0 0 0-2.467-.532l-.253-.035v-.562c0-1.091-.351-1.876-1.219-2.727-1.567-1.536-4.485-2.562-8.059-2.836-.829-.063-2.696-.06-3.549.006m3.987 2.048c2.268.232 4.325.86 5.636 1.72.419.274.921.791 1.069 1.1.805 1.676-2.274 3.47-6.796 3.959-1.068.115-3.044.115-4.112 0-2.877-.311-5.243-1.149-6.337-2.243-.783-.783-.786-1.528-.01-2.3.387-.385.738-.622 1.451-.978 2.228-1.113 5.757-1.602 9.099-1.258m9.647 6.241c2.552.498 4.592 1.557 5.078 2.637.716 1.59-2.234 3.347-6.499 3.87-.792.097-3.352.165-3.535.093-.107-.041-.06-.072.373-.248 1.058-.43 2.093-1.114 2.744-1.815.417-.449.665-.838.864-1.354.134-.35.138-.397.156-1.839.011-.856.04-1.48.068-1.48.027 0 .365.061.751.136m-20.238.736c.733.44 1.871.909 2.884 1.189l.547.15v1.455c0 .799-.011 1.454-.024 1.454-.091 0-.984-.313-1.447-.508-1.111-.465-2.009-1.132-2.344-1.74-.156-.284-.157-.292-.177-1.322l-.02-1.037.126.08c.069.044.274.17.455.279m17.448.834c-.02.855-.025.889-.177 1.166-.333.607-1.231 1.275-2.343 1.74-.463.195-1.356.508-1.447.508-.013 0-.024-.656-.024-1.457v-1.456l.617-.17c1.06-.292 2.152-.758 3.01-1.284l.347-.212.018.143c.011.078.01.538-.001 1.022m-10.471 1.016c1.18.088 2.44.061 4.04-.086l.414-.038v1.471c0 1.354-.008 1.472-.094 1.497-.051.014-.357.058-.68.097-1.143.137-4.506.073-5.106-.097-.086-.025-.094-.143-.094-1.498v-1.47l.44.038c.242.021.728.059 1.08.086m18.472 4.838c-.017.931-.027 1.018-.148 1.266-.372.761-1.52 1.52-3.137 2.074l-.707.242v-2.926l.307-.085c1.192-.328 2.622-.922 3.32-1.377.161-.105.314-.192.338-.193s.037.449.027.999m-14.738.427.693.213.014 1.471.014 1.471-.68-.233c-1.277-.439-2.098-.887-2.682-1.466-.446-.441-.587-.73-.624-1.271l-.028-.412 1.3.007 1.299.006zm3.84.711c1.135.113 3.842.059 4.706-.093l.174-.031v2.985l-.467.061a20.6 20.6 0 0 1-3.547.124 29 29 0 0 1-1.493-.124l-.467-.061V21.8l.254.033c.14.019.518.06.84.092"/>
</svg>
