<svg xmlns="http://www.w3.org/2000/svg" viewBox="0 0 30 28">
  <path fill-rule="evenodd" d="M16.25 4.884c-2.9.375-5.981 1.363-8.081 2.591C5.538 9.013 4 10.934 4 12.681c0 .476.098.889.769 3.248.464 1.632.683 2.299.844 2.571.74 1.248 2.627 2.114 4.921 2.259 1.039.066 2.842-.012 3.691-.16 3.256-.568 6.232-1.708 8.313-3.184 1.304-.925 2.387-2.15 2.763-3.126.316-.818.366-1.275.224-2.026-.144-.755-1.277-4.666-1.455-5.021-.521-1.037-1.915-1.872-3.751-2.247-.489-.1-.713-.112-2.219-.122-.921-.007-1.754-.002-1.85.011m7.568 6.753c.257.898.314 1.29.237 1.634-.078.35-.336.865-.622 1.243-.289.383-.779.936-.829.936-.022 0-.213-.608-.425-1.35l-.386-1.351.166-.136c.341-.28.815-.752 1.205-1.202.222-.255.42-.446.441-.425.02.021.116.314.213.651m-2.938 3.429c.31 1.088.369 1.35.319 1.411-.199.239-1.629.968-2.829 1.441-.835.33-1.151.422-1.216.355-.053-.054-.743-2.454-.765-2.658-.013-.122.014-.144.311-.256 1.498-.567 2.897-1.191 3.525-1.572.11-.067.217-.107.238-.089s.208.634.417 1.368m-13.974.909c.297.096.839.234 1.205.306.365.073.669.136.675.141.016.013.431 1.46.611 2.135l.149.554-.223-.034c-.225-.033-.883-.246-1.245-.402-.457-.196-.922-.568-1.158-.925-.084-.128-.62-1.798-.62-1.933 0-.034.074-.014.606.158m8.033.188c.053.144.239.775.414 1.403.266.96.305 1.148.244 1.186-.103.064-.819.222-1.547.342-.772.128-1.657.205-2.354.205l-.53.001-.335-1.221a33 33 0 0 1-.364-1.395l-.028-.174.493-.034c1.285-.089 3.054-.342 3.643-.522.246-.075.264-.065.364.209"/>
</svg>
