<svg xmlns="http://www.w3.org/2000/svg" viewBox="0 0 16 16">
  <path fill-rule="evenodd" d="M6.653 2.816c-1.438.14-2.634.449-3.666.948-1.133.547-1.786 1.17-2.102 2.006-.084.22-.095.282-.117.657-.013.227-.02 1.091-.015 1.92.01 1.472.011 1.511.07 1.705.375 1.237 1.621 2.186 3.611 2.749.693.196 1.504.338 2.286.4.499.04 2.061.04 2.56 0 1.293-.103 2.533-.399 3.53-.844 1.275-.568 2.094-1.371 2.37-2.323.06-.206.06-.217.06-2.034 0-1.825 0-1.827-.061-2.04-.253-.881-.946-1.596-2.105-2.172-1.068-.532-2.513-.889-3.994-.987-.565-.038-1.977-.029-2.427.015m2.196 1.477c1.922.098 3.729.695 4.511 1.492.272.277.36.455.36.722a.6.6 0 0 1-.09.365c-.396.732-1.774 1.402-3.497 1.7a13.5 13.5 0 0 1-3.849.066c-1.871-.249-3.491-.977-3.911-1.758a.6.6 0 0 1-.093-.373c0-.269.089-.448.36-.724.658-.668 2.05-1.203 3.707-1.425.608-.081 1.647-.108 2.502-.065M2.667 9.086c.139.077.328.173.42.213l.166.073v.643c0 .353-.007.65-.017.66-.009.009-.102-.043-.206-.115-.355-.245-.649-.588-.727-.848-.023-.077-.036-.255-.036-.493v-.372l.073.049c.04.027.187.112.327.19m11.084.187c-.015.362-.021.395-.102.562-.062.128-.151.243-.314.407-.226.227-.54.464-.572.432a7 7 0 0 1-.016-.652v-.635l.286-.145c.158-.081.377-.199.487-.263.11-.065.211-.111.224-.104s.017.178.007.398m-8.431.724c.517.096.902.149 1.467.203.234.022.435.04.446.04.029 0 .025 1.419-.004 1.464-.044.069-1.3-.087-2.016-.252l-.362-.082c-.068-.015-.07-.022-.087-.273-.022-.332-.022-1.013 0-1.122.014-.07.027-.083.073-.072.031.008.248.05.483.094m5.916.221c.021.401.018.973-.006 1.062-.016.059-.05.075-.298.137-.436.109-.976.201-1.58.266-.482.053-.559.056-.58.022-.014-.021-.025-.358-.025-.749v-.711l.153-.016.58-.057a15 15 0 0 0 1.493-.235c.263-.064.243-.086.263.281"/>
</svg>
