<svg xmlns="http://www.w3.org/2000/svg" xml:space="preserve" fill="none" viewBox="0 0 16 16"><path d="M8.973 4.561 C 8.856 4.607,8.534 4.919,6.301 7.153 L 3.761 9.692 2.594 8.530 C 1.505 7.445,1.416 7.364,1.272 7.310 C 0.983 7.203,0.692 7.263,0.487 7.473 C 0.333 7.631,0.268 7.787,0.268 8.000 C 0.267 8.337,0.238 8.303,1.861 9.923 C 3.252 11.312,3.327 11.383,3.480 11.439 C 3.677 11.512,3.903 11.503,4.081 11.414 C 4.167 11.372,4.994 10.561,7.032 8.524 C 10.147 5.411,9.984 5.592,9.986 5.251 C 9.988 4.729,9.462 4.370,8.973 4.561 M14.720 4.564 C 14.584 4.616,14.394 4.799,12.033 7.156 L 9.493 9.693 8.980 9.182 C 8.698 8.902,8.429 8.653,8.383 8.630 C 7.892 8.385,7.309 8.725,7.303 9.260 C 7.301 9.464,7.347 9.606,7.464 9.752 C 7.675 10.013,9.051 11.353,9.171 11.413 C 9.336 11.496,9.557 11.512,9.736 11.454 C 9.874 11.410,10.007 11.281,12.752 8.538 C 15.946 5.348,15.748 5.569,15.728 5.215 C 15.716 4.994,15.662 4.868,15.515 4.721 C 15.313 4.519,15.004 4.458,14.720 4.564 " stroke="none" fill-rule="evenodd" fill="black"></path></svg>