<svg xmlns="http://www.w3.org/2000/svg" viewBox="0 0 24 24">
  <path fill-rule="evenodd" d="M11.219 2.061c-2.072.206-3.801.879-5.359 2.087-.421.327-1.313 1.207-1.661 1.64C3.266 6.947 2.536 8.502 2.221 10c-.213 1.013-.224 2.936-.022 3.889.433 2.046 1.321 3.702 2.753 5.134.861.861 1.616 1.417 2.547 1.874 2.192 1.076 4.688 1.343 6.982.746 1.82-.473 3.262-1.298 4.58-2.62 1.68-1.686 2.65-3.794 2.898-6.297.063-.634.057-.722-.049-.765l-.09-.036.09-.002c.111-.004.112-.044.006-.389-.168-.545-.465-.896-.956-1.131l-.3-.143-.8-.001c-.85-.001-.993-.023-1.358-.208-.284-.144-.679-.538-.818-.817a3 3 0 0 1-.185-.543c-.248-1.132-.327-1.326-.66-1.627-.257-.232-.532-.345-1.149-.47-.799-.162-.963-.231-1.293-.543-.55-.518-.732-1.069-.637-1.93.052-.475.015-.728-.162-1.101-.23-.486-.791-.89-1.358-.979-.308-.048-.346-.047-1.021.02m.519 2.546c.031.648.111 1.015.34 1.562.287.683.99 1.47 1.646 1.842.329.187.96.414 1.406.507.123.025.242.068.264.094.022.027.087.237.146.467.227.895.556 1.493 1.126 2.045.779.755 1.701 1.127 2.809 1.133l.535.003-.026.34c-.036.47-.241 1.46-.401 1.94-.645 1.928-2.093 3.621-3.876 4.535-1.698.87-3.583 1.131-5.34.74-2.7-.6-4.77-2.326-5.758-4.8-.862-2.16-.79-4.438.204-6.476.409-.839.784-1.395 1.328-1.973a8.4 8.4 0 0 1 4.166-2.387c.33-.078.965-.169 1.217-.175L11.709 4zM7.56 9.077c-.294.09-.545.3-.689.578-.132.253-.117.681.035.977.211.413.689.661 1.109.576.303-.062.403-.108.586-.273.232-.21.328-.419.351-.764.016-.255.006-.315-.09-.51-.229-.469-.815-.732-1.302-.584m4.9 1.489c-.088.02-.241.096-.34.168q-.551.405-.439 1.09c.138.853 1.219 1.19 1.836.573.374-.374.427-1.011.12-1.435-.211-.291-.789-.486-1.177-.396m-4.08 3.755c-.219.033-.38.125-.551.314-.196.218-.272.375-.297.622-.068.66.428 1.19 1.114 1.19.346 0 .567-.101.809-.37a.97.97 0 0 0 .252-.801c-.079-.67-.624-1.063-1.327-.955m5.96.756c-.427.104-.751.488-.806.953-.049.414.176.823.572 1.039.326.178.567.204.857.094.578-.217.872-.789.703-1.366-.084-.29-.256-.486-.553-.634a1.07 1.07 0 0 0-.773-.086"/>
</svg>
