<svg xmlns="http://www.w3.org/2000/svg" viewBox="0 0 24 24"><path d="M11.219 2.061 C 9.147 2.267,7.418 2.940,5.860 4.148 C 5.439 4.475,4.547 5.355,4.199 5.788 C 3.266 6.947,2.536 8.502,2.221 10.000 C 2.008 11.013,1.997 12.936,2.199 13.889 C 2.632 15.935,3.520 17.591,4.952 19.023 C 5.813 19.884,6.568 20.440,7.499 20.897 C 9.691 21.973,12.187 22.240,14.481 21.643 C 16.301 21.170,17.743 20.345,19.061 19.023 C 20.741 17.337,21.711 15.229,21.959 12.726 C 22.022 12.092,22.016 12.004,21.910 11.961 L 21.820 11.925 21.910 11.923 C 22.021 11.919,22.022 11.879,21.916 11.534 C 21.748 10.989,21.451 10.638,20.960 10.403 L 20.660 10.260 19.860 10.259 C 19.010 10.258,18.867 10.236,18.502 10.051 C 18.218 9.907,17.823 9.513,17.684 9.234 C 17.620 9.106,17.537 8.862,17.499 8.691 C 17.251 7.559,17.172 7.365,16.839 7.064 C 16.582 6.832,16.307 6.719,15.690 6.594 C 14.891 6.432,14.727 6.363,14.397 6.051 C 13.847 5.533,13.665 4.982,13.760 4.121 C 13.812 3.646,13.775 3.393,13.598 3.020 C 13.368 2.534,12.807 2.130,12.240 2.041 C 11.932 1.993,11.894 1.994,11.219 2.061 M11.738 4.607 C 11.769 5.255,11.849 5.622,12.078 6.169 C 12.365 6.852,13.068 7.639,13.724 8.011 C 14.053 8.198,14.684 8.425,15.130 8.518 C 15.253 8.543,15.372 8.586,15.394 8.612 C 15.416 8.639,15.481 8.849,15.540 9.079 C 15.767 9.974,16.096 10.572,16.666 11.124 C 17.445 11.879,18.367 12.251,19.475 12.257 L 20.010 12.260 19.984 12.600 C 19.948 13.070,19.743 14.060,19.583 14.540 C 18.938 16.468,17.490 18.161,15.707 19.075 C 14.009 19.945,12.124 20.206,10.367 19.815 C 7.667 19.215,5.597 17.489,4.609 15.015 C 3.747 12.855,3.819 10.577,4.813 8.539 C 5.222 7.700,5.597 7.144,6.141 6.566 C 7.245 5.394,8.707 4.556,10.307 4.179 C 10.637 4.101,11.272 4.010,11.524 4.004 L 11.709 4.000 11.738 4.607 M7.560 9.077 C 7.266 9.167,7.015 9.377,6.871 9.655 C 6.739 9.908,6.754 10.336,6.906 10.632 C 7.117 11.045,7.595 11.293,8.015 11.208 C 8.318 11.146,8.418 11.100,8.601 10.935 C 8.833 10.725,8.929 10.516,8.952 10.171 C 8.968 9.916,8.958 9.856,8.862 9.661 C 8.633 9.192,8.047 8.929,7.560 9.077 M12.460 10.566 C 12.372 10.586,12.219 10.662,12.120 10.734 C 11.753 11.004,11.606 11.367,11.681 11.824 C 11.819 12.677,12.900 13.014,13.517 12.397 C 13.891 12.023,13.944 11.386,13.637 10.962 C 13.426 10.671,12.848 10.476,12.460 10.566 M8.380 14.321 C 8.161 14.354,8.000 14.446,7.829 14.635 C 7.633 14.853,7.557 15.010,7.532 15.257 C 7.464 15.917,7.960 16.447,8.646 16.447 C 8.992 16.447,9.213 16.346,9.455 16.077 C 9.660 15.849,9.743 15.583,9.707 15.276 C 9.628 14.606,9.083 14.213,8.380 14.321 M14.340 15.077 C 13.913 15.181,13.589 15.565,13.534 16.030 C 13.485 16.444,13.710 16.853,14.106 17.069 C 14.432 17.247,14.673 17.273,14.963 17.163 C 15.541 16.946,15.835 16.374,15.666 15.797 C 15.582 15.507,15.410 15.311,15.113 15.163 C 14.860 15.037,14.618 15.010,14.340 15.077 " stroke="none" fill-rule="evenodd" fill="black"></path></svg>