<svg xmlns="http://www.w3.org/2000/svg" xml:space="preserve" fill="none" viewBox="0 0 16 16">
  <path fill="#000" fill-rule="evenodd" d="M5.62 1.811a1.28 1.28 0 0 0-.849.977 3 3 0 0 0-.019.519c.009.301.02.381.071.493a.69.69 0 0 0 .63.434c.166.011.215.003.338-.053.296-.136.448-.379.449-.717v-.203l.222-.014c.263-.016.421-.078.564-.221a.7.7 0 0 0 .21-.519.73.73 0 0 0-.383-.663c-.116-.069-.133-.071-.6-.077-.408-.005-.502.001-.633.044m3.116-.009c-.509.187-.638.88-.231 1.247.208.187.227.191.988.191h.68l.152-.075a.742.742 0 0 0-.018-1.342c-.129-.06-.156-.062-.8-.061-.508.001-.692.011-.771.04m3.463.02a.76.76 0 0 0-.38.387c-.056.123-.064.172-.053.338.027.416.302.667.767.699l.207.014.014.207c.032.465.283.74.699.767.166.011.215.003.338-.053a.75.75 0 0 0 .389-.389c.063-.136.065-.159.056-.628l-.009-.487-.103-.207a1.25 1.25 0 0 0-.594-.594l-.207-.103-.495-.007c-.474-.008-.5-.006-.629.056M2.75 4.776c-.308.06-.619.278-.805.563-.2.308-.188.045-.18 4.236l.008 3.748.103.207c.134.271.323.46.594.594l.207.103 3.748.008c3.429.007 3.763.004 3.916-.037.43-.114.8-.519.885-.968.018-.094.027-1.402.027-3.734-.001-3.913.004-3.801-.152-4.089a1.5 1.5 0 0 0-.508-.508c-.289-.156-.172-.152-4.113-.149-1.987.001-3.666.013-3.73.026m10.522.516a.75.75 0 0 0-.5.568c-.047.227-.022 1.298.033 1.424a.9.9 0 0 0 .382.387.8.8 0 0 0 .657-.012.82.82 0 0 0 .366-.431c.019-.063.03-.343.029-.751 0-.596-.005-.66-.054-.77-.158-.349-.572-.537-.913-.415M9.753 9.5l.007 3.247H3.253V6.24l3.247.007 3.247.006zm3.548-.717c-.35.098-.554.401-.554.823v.154h-.207q-.516.002-.721.449c-.056.123-.064.172-.053.338a.69.69 0 0 0 .434.63c.112.051.192.062.493.071.201.006.431-.002.519-.019.465-.086.868-.45.987-.889.037-.135.044-.256.037-.621-.009-.434-.012-.457-.08-.572a1 1 0 0 0-.147-.192.8.8 0 0 0-.708-.172"/>
</svg>
