<svg xmlns="http://www.w3.org/2000/svg" viewBox="0 0 24 24"><path d="M5.440 1.077 L 3.620 1.100 3.277 1.265 C 2.698 1.543,2.344 1.932,2.108 2.548 L 2.020 2.780 2.008 11.960 C 2.001 17.822,2.011 21.393,2.037 21.839 C 2.075 22.492,2.086 22.554,2.197 22.780 C 2.435 23.264,2.823 23.639,3.340 23.886 L 3.580 24.000 12.000 24.000 L 20.420 24.000 20.660 23.886 C 21.157 23.649,21.545 23.277,21.773 22.820 C 21.992 22.381,21.980 22.836,21.980 14.780 L 21.980 7.300 21.890 7.038 C 21.840 6.895,21.732 6.675,21.650 6.551 C 21.399 6.173,17.303 1.684,17.036 1.495 C 16.827 1.347,16.515 1.188,16.320 1.129 C 16.155 1.079,8.282 1.042,5.440 1.077 M18.529 5.197 C 19.338 6.084,19.989 6.825,19.977 6.845 C 19.965 6.864,19.338 6.880,18.584 6.880 L 17.212 6.880 17.043 6.758 C 16.744 6.541,16.744 6.541,16.731 4.780 L 16.718 3.220 16.889 3.402 C 16.983 3.502,17.721 4.309,18.529 5.197 M8.700 10.841 C 9.014 10.886,9.590 11.138,9.770 11.310 C 9.958 11.490,9.914 11.640,9.565 12.010 C 9.391 12.194,9.306 12.198,9.036 12.030 C 8.853 11.916,8.787 11.898,8.500 11.886 C 8.085 11.869,7.844 11.962,7.580 12.244 C 7.272 12.574,7.142 12.987,7.141 13.640 C 7.139 14.532,7.524 15.137,8.186 15.285 C 8.462 15.346,8.712 15.295,9.105 15.094 C 9.462 14.913,9.536 14.927,9.778 15.224 C 10.030 15.533,10.043 15.612,9.875 15.786 C 9.689 15.979,9.346 16.179,9.060 16.263 C 8.728 16.359,7.987 16.360,7.660 16.263 C 6.826 16.018,6.233 15.386,5.993 14.485 C 5.929 14.247,5.911 14.057,5.911 13.620 C 5.911 12.949,5.989 12.601,6.249 12.109 C 6.635 11.379,7.265 10.956,8.160 10.825 C 8.342 10.799,8.417 10.801,8.700 10.841 M12.900 10.953 C 13.283 11.085,13.671 11.330,13.704 11.460 C 13.716 11.510,13.700 11.603,13.667 11.666 C 13.567 11.859,13.278 12.160,13.193 12.160 C 13.149 12.160,12.989 12.105,12.837 12.039 C 12.296 11.801,11.860 11.793,11.587 12.016 C 11.460 12.119,11.402 12.373,11.474 12.508 C 11.528 12.609,11.899 12.802,12.640 13.115 C 13.318 13.401,13.594 13.598,13.800 13.943 L 13.940 14.177 13.940 14.679 C 13.940 15.127,13.930 15.201,13.844 15.375 C 13.631 15.808,13.106 16.180,12.540 16.300 C 11.836 16.448,10.899 16.266,10.361 15.876 C 10.128 15.708,10.093 15.610,10.193 15.416 C 10.312 15.188,10.611 14.880,10.714 14.880 C 10.762 14.880,10.940 14.950,11.111 15.036 C 11.636 15.302,11.990 15.372,12.329 15.278 C 12.540 15.220,12.712 15.061,12.743 14.898 C 12.805 14.566,12.717 14.492,11.742 14.058 C 11.026 13.740,10.812 13.612,10.597 13.373 C 10.301 13.045,10.262 12.943,10.246 12.457 C 10.232 12.030,10.236 12.006,10.353 11.777 C 10.608 11.275,11.134 10.925,11.780 10.825 C 12.056 10.783,12.579 10.843,12.900 10.953 M15.192 11.100 C 15.221 11.188,15.460 12.105,15.724 13.137 C 15.988 14.169,16.217 15.038,16.234 15.068 C 16.252 15.101,16.408 14.564,16.615 13.752 C 16.917 12.566,17.238 11.339,17.305 11.110 C 17.350 10.956,17.436 10.920,17.757 10.920 C 17.929 10.920,18.152 10.931,18.254 10.945 C 18.436 10.970,18.440 10.974,18.440 11.115 C 18.440 11.323,17.999 12.879,17.334 15.020 C 17.016 16.042,16.941 16.225,16.827 16.256 C 16.714 16.286,15.766 16.286,15.653 16.256 C 15.550 16.228,15.472 16.056,15.243 15.347 C 14.942 14.417,14.088 11.545,14.034 11.286 C 13.961 10.930,13.987 10.914,14.639 10.929 L 15.140 10.940 15.192 11.100 " stroke="none" fill-rule="evenodd" fill="black"></path></svg>