<svg xmlns="http://www.w3.org/2000/svg" viewBox="0 0 24 24">
  <path fill-rule="evenodd" d="M5.44 1.077 3.62 1.1l-.343.165c-.579.278-.933.667-1.169 1.283l-.088.232-.012 9.18c-.007 5.862.003 9.433.029 9.879.038.653.049.715.16.941.238.484.626.859 1.143 1.106l.24.114h16.84l.24-.114a2.36 2.36 0 0 0 1.113-1.066c.219-.439.207.016.207-8.04V7.3l-.09-.262a2.7 2.7 0 0 0-.24-.487c-.251-.378-4.347-4.867-4.614-5.056a3 3 0 0 0-.716-.366c-.165-.05-8.038-.087-10.88-.052m13.089 4.12c.809.887 1.46 1.628 1.448 1.648-.012.019-.639.035-1.393.035h-1.372l-.169-.122c-.299-.217-.299-.217-.312-1.978l-.013-1.56.171.182c.094.1.832.907 1.64 1.795M8.7 10.841c.314.045.89.297 1.07.469.188.18.144.33-.205.7-.174.184-.259.188-.529.02-.183-.114-.249-.132-.536-.144-.415-.017-.656.076-.92.358-.308.33-.438.743-.439 1.396-.002.892.383 1.497 1.045 1.645.276.061.526.01.919-.191.357-.181.431-.167.673.13.252.309.265.388.097.562a2.1 2.1 0 0 1-.815.477c-.332.096-1.073.097-1.4 0-.834-.245-1.427-.877-1.667-1.778-.064-.238-.082-.428-.082-.865 0-.671.078-1.019.338-1.511.386-.73 1.016-1.153 1.911-1.284.182-.026.257-.024.54.016m4.2.112c.383.132.771.377.804.507a.35.35 0 0 1-.037.206c-.1.193-.389.494-.474.494-.044 0-.204-.055-.356-.121-.541-.238-.977-.246-1.25-.023-.127.103-.185.357-.113.492.054.101.425.294 1.166.607.678.286.954.483 1.16.828l.14.234v.502c0 .448-.01.522-.096.696-.213.433-.738.805-1.304.925-.704.148-1.641-.034-2.179-.424-.233-.168-.268-.266-.168-.46.119-.228.418-.536.521-.536.048 0 .226.07.397.156.525.266.879.336 1.218.242.211-.058.383-.217.414-.38.062-.332-.026-.406-1.001-.84-.716-.318-.93-.446-1.145-.685-.296-.328-.335-.43-.351-.916-.014-.427-.01-.451.107-.68.255-.502.781-.852 1.427-.952.276-.042.799.018 1.12.128m2.292.147c.029.088.268 1.005.532 2.037s.493 1.901.51 1.931c.018.033.174-.504.381-1.316.302-1.186.623-2.413.69-2.642.045-.154.131-.19.452-.19.172 0 .395.011.497.025.182.025.186.029.186.17 0 .208-.441 1.764-1.106 3.905-.318 1.022-.393 1.205-.507 1.236s-1.061.03-1.174 0c-.103-.028-.181-.2-.41-.909-.301-.93-1.155-3.802-1.209-4.061-.073-.356-.047-.372.605-.357l.501.011z"/>
</svg>
