<svg xmlns="http://www.w3.org/2000/svg" fill="none" viewBox="0 0 24 24"><path d="M11.651 1.027 C 11.421 1.059,10.375 1.635,4.961 4.713 C 2.481 6.122,2.407 6.173,2.181 6.620 C 2.063 6.855,2.063 6.857,2.030 7.838 C 2.012 8.378,2.003 10.638,2.009 12.860 L 2.020 16.900 2.111 17.153 C 2.278 17.613,2.495 17.868,2.965 18.152 C 3.609 18.543,7.245 20.597,10.087 22.178 C 11.314 22.860,11.460 22.931,11.717 22.970 C 12.223 23.049,12.451 22.986,13.229 22.558 C 15.253 21.442,20.187 18.659,20.924 18.217 C 21.662 17.774,21.908 17.399,21.969 16.623 C 21.988 16.380,21.998 14.128,21.992 11.620 L 21.980 7.060 21.888 6.805 C 21.710 6.312,21.555 6.169,20.540 5.564 C 19.213 4.773,12.726 1.153,12.519 1.089 C 12.357 1.038,11.839 1.001,11.651 1.027 M13.760 4.008 C 15.476 4.962,18.394 6.617,18.734 6.828 L 18.927 6.948 17.614 7.709 C 14.076 9.758,12.221 10.800,12.110 10.800 C 12.064 10.800,11.773 10.667,11.463 10.505 C 10.449 9.973,5.460 7.179,5.187 6.989 L 5.075 6.911 5.527 6.652 C 6.016 6.372,10.344 3.949,11.360 3.386 C 11.701 3.197,12.007 3.052,12.040 3.064 C 12.073 3.075,12.847 3.500,13.760 4.008 M7.593 10.629 L 11.090 12.579 11.061 16.079 C 11.044 18.005,11.020 19.766,11.005 19.992 L 10.980 20.405 9.160 19.391 C 8.159 18.833,6.589 17.955,5.670 17.439 L 4.000 16.500 4.000 13.040 C 4.000 9.838,4.020 8.680,4.073 8.680 C 4.085 8.680,5.669 9.557,7.593 10.629 M20.000 12.590 L 20.000 16.501 17.130 18.111 C 15.552 18.997,13.990 19.871,13.660 20.054 L 13.060 20.388 13.033 20.064 C 13.001 19.687,13.063 12.691,13.099 12.597 C 13.112 12.563,13.199 12.496,13.292 12.449 C 13.384 12.403,14.909 11.537,16.680 10.525 C 18.451 9.514,19.922 8.685,19.950 8.683 C 19.990 8.681,20.000 9.487,20.000 12.590 " stroke="none" fill-rule="evenodd"></path></svg>