<svg xmlns="http://www.w3.org/2000/svg" viewBox="0 0 22.76 28.42"><path d="M15.685 0.068 C 15.415 0.168,0.390 9.756,0.239 9.924 C 0.096 10.085,-0.000 10.344,-0.000 10.571 C 0.000 10.689,0.821 13.142,2.922 19.298 C 4.529 24.007,5.867 27.895,5.895 27.937 C 6.000 28.095,6.171 28.237,6.368 28.328 C 6.537 28.406,6.611 28.419,6.806 28.403 C 6.935 28.393,7.099 28.354,7.171 28.317 C 7.392 28.202,22.237 18.734,22.406 18.600 C 22.601 18.444,22.733 18.180,22.752 17.905 C 22.766 17.710,22.571 17.122,19.865 9.199 C 18.269 4.525,16.944 0.651,16.920 0.588 C 16.861 0.436,16.631 0.201,16.447 0.106 C 16.235 -0.003,15.920 -0.019,15.685 0.068 M14.070 3.518 C 14.048 3.576,12.971 6.644,11.677 10.337 C 10.383 14.030,9.313 17.064,9.298 17.079 C 9.284 17.094,7.773 15.671,5.940 13.916 L 2.609 10.725 2.737 10.645 C 2.807 10.601,5.389 8.956,8.474 6.990 C 11.560 5.023,14.090 3.414,14.097 3.414 C 14.104 3.414,14.091 3.461,14.070 3.518 M18.211 10.538 C 20.064 15.962,20.388 16.941,20.336 16.962 C 20.269 16.990,11.225 17.800,11.205 17.780 C 11.198 17.773,12.271 14.692,13.588 10.933 C 14.906 7.174,15.993 4.107,16.005 4.119 C 16.016 4.130,17.009 7.019,18.211 10.538 M6.074 16.812 L 8.569 19.201 8.361 19.795 C 7.037 23.575,6.773 24.313,6.751 24.288 C 6.736 24.272,5.960 22.014,5.025 19.270 C 4.090 16.527,3.316 14.256,3.306 14.225 C 3.274 14.136,3.425 14.277,6.074 16.812 " stroke="none" fill-rule="evenodd" fill="black"></path></svg>