<svg xmlns="http://www.w3.org/2000/svg" viewBox="0 0 16 16">
  <path fill-rule="evenodd" d="M2.767 2.029c-.281.066-.538.28-.671.558l-.083.173v7.493l.07.147c.146.307.427.524.755.584.087.016.438.029.78.029s.622.006.622.013-.133.544-.295 1.193c-.221.886-.29 1.204-.278 1.273a.67.67 0 0 0 .211.369c.338.297 1.007.08 1.228-.398.034-.074.192-.655.351-1.292l.289-1.158h4.508l.289 1.158c.159.637.317 1.218.351 1.292.174.376.648.612 1.026.511a.63.63 0 0 0 .4-.431c.031-.14.025-.169-.264-1.323-.163-.648-.296-1.185-.296-1.193 0-.007.28-.014.622-.014s.693-.013.78-.029c.328-.06.609-.277.755-.584l.07-.147V2.76l-.076-.163a1.13 1.13 0 0 0-.511-.509l-.16-.075-5.187-.004c-2.958-.002-5.229.006-5.286.02m9.98 4.478V9.76H3.253V3.253h9.494zm-2.627-1.95a.8.8 0 0 0-.192.14c-.173.182-.168.132-.168 1.814 0 1.493.001 1.528.056 1.641a.65.65 0 0 0 .64.344.65.65 0 0 0 .53-.505c.02-.098.027-.597.022-1.581-.008-1.415-.009-1.438-.066-1.543a.75.75 0 0 0-.334-.319.7.7 0 0 0-.488.009m-2.267.961a.62.62 0 0 0-.452.433c-.06.204-.06 1.894 0 2.098.095.32.413.508.731.431a.6.6 0 0 0 .411-.323l.07-.141V5.984l-.069-.14a.58.58 0 0 0-.374-.313.5.5 0 0 0-.317-.013M5.387 6.549a.76.76 0 0 0-.328.318c-.05.093-.058.161-.067.536-.013.511.016.684.138.844a.622.622 0 0 0 1.061-.107c.059-.119.062-.157.062-.62 0-.35-.01-.523-.036-.597a.75.75 0 0 0-.337-.367.73.73 0 0 0-.493-.007"/>
</svg>
