<svg xmlns="http://www.w3.org/2000/svg" xml:space="preserve" fill="none" viewBox="0 0 20 20"><path d="M9.133 1.787 C 7.386 1.944,6.190 2.254,4.964 2.868 C 3.585 3.559,2.657 4.601,2.447 5.694 C 2.405 5.911,2.398 6.562,2.399 10.007 C 2.401 14.411,2.397 14.311,2.586 14.789 C 3.272 16.523,5.494 17.781,8.533 18.156 C 9.213 18.240,10.787 18.240,11.467 18.156 C 14.497 17.782,16.733 16.519,17.409 14.800 C 17.605 14.303,17.599 14.438,17.601 10.009 C 17.603 6.383,17.597 5.917,17.549 5.681 C 17.227 4.111,15.586 2.799,13.133 2.153 C 12.692 2.037,12.032 1.914,11.500 1.849 C 11.071 1.797,9.490 1.756,9.133 1.787 M11.200 3.300 C 14.250 3.621,16.478 5.120,16.087 6.588 C 15.748 7.860,13.744 8.926,11.161 9.205 C 10.674 9.258,9.326 9.258,8.839 9.205 C 6.255 8.925,4.252 7.861,3.913 6.588 C 3.636 5.547,4.715 4.412,6.583 3.777 C 7.443 3.486,8.190 3.346,9.383 3.253 C 9.649 3.233,10.853 3.264,11.200 3.300 M4.267 9.229 C 5.143 9.815,6.312 10.263,7.617 10.513 C 8.458 10.674,8.941 10.715,10.000 10.715 C 11.059 10.715,11.542 10.674,12.383 10.513 C 13.403 10.318,14.189 10.057,15.033 9.633 C 15.409 9.444,16.003 9.075,16.048 9.003 C 16.116 8.894,16.133 9.014,16.133 9.580 C 16.133 10.311,16.091 10.491,15.832 10.880 C 15.244 11.758,13.858 12.478,12.117 12.811 C 11.344 12.958,11.038 12.983,10.000 12.983 C 8.962 12.983,8.656 12.958,7.883 12.811 C 6.139 12.478,4.757 11.759,4.168 10.880 C 3.908 10.491,3.867 10.311,3.867 9.578 C 3.867 9.094,3.876 8.969,3.908 8.990 C 3.931 9.005,4.093 9.112,4.267 9.229 M4.445 13.097 C 6.774 14.522,10.463 14.889,13.488 13.996 C 14.415 13.723,15.336 13.287,15.955 12.829 L 16.133 12.698 16.133 13.307 C 16.132 13.983,16.106 14.138,15.935 14.459 C 15.419 15.426,13.832 16.276,11.945 16.596 C 11.260 16.712,10.815 16.746,10.000 16.746 C 8.294 16.746,6.966 16.469,5.717 15.851 C 4.876 15.435,4.349 14.991,4.065 14.459 C 3.894 14.138,3.868 13.983,3.867 13.307 L 3.867 12.698 4.045 12.829 C 4.142 12.902,4.323 13.022,4.445 13.097 " stroke="none" fill-rule="evenodd" fill="black"></path></svg>