<svg xmlns="http://www.w3.org/2000/svg" xml:space="preserve" fill="none" viewBox="0 0 20 20">
  <path fill="#000" fill-rule="evenodd" d="M9.133 1.787c-1.747.157-2.943.467-4.169 1.081-1.379.691-2.307 1.733-2.517 2.826-.042.217-.049.868-.048 4.313.002 4.404-.002 4.304.187 4.782.686 1.734 2.908 2.992 5.947 3.367.68.084 2.254.084 2.934 0 3.03-.374 5.266-1.637 5.942-3.356.196-.497.19-.362.192-4.791.002-3.626-.004-4.092-.052-4.328-.322-1.57-1.963-2.882-4.416-3.528a14 14 0 0 0-1.633-.304c-.429-.052-2.01-.093-2.367-.062M11.2 3.3c3.05.321 5.278 1.82 4.887 3.288-.339 1.272-2.343 2.338-4.926 2.617-.487.053-1.835.053-2.322 0-2.584-.28-4.587-1.344-4.926-2.617-.277-1.041.802-2.176 2.67-2.811.86-.291 1.607-.431 2.8-.524.266-.02 1.47.011 1.817.047M4.267 9.229c.876.586 2.045 1.034 3.35 1.284.841.161 1.324.202 2.383.202s1.542-.041 2.383-.202c1.02-.195 1.806-.456 2.65-.88.376-.189.97-.558 1.015-.63.068-.109.085.011.085.577 0 .731-.042.911-.301 1.3-.588.878-1.974 1.598-3.715 1.931-.773.147-1.079.172-2.117.172s-1.344-.025-2.117-.172c-1.744-.333-3.126-1.052-3.715-1.931-.26-.389-.301-.569-.301-1.302 0-.484.009-.609.041-.588zm.178 3.868c2.329 1.425 6.018 1.792 9.043.899.927-.273 1.848-.709 2.467-1.167l.178-.131v.609c-.001.676-.027.831-.198 1.152-.516.967-2.103 1.817-3.99 2.137-.685.116-1.13.15-1.945.15-1.706 0-3.034-.277-4.283-.895-.841-.416-1.368-.86-1.652-1.392-.171-.321-.197-.476-.198-1.152v-.609l.178.131c.097.073.278.193.4.268"/>
</svg>
