<svg xmlns="http://www.w3.org/2000/svg" xml:space="preserve" fill="none" viewBox="0 0 22 20"><path d="M8.177 2.910 C 7.943 2.975,7.767 3.066,7.601 3.208 C 7.519 3.277,6.658 4.472,5.608 5.972 L 3.758 8.615 2.706 8.616 C 2.108 8.616,1.575 8.633,1.473 8.655 C 0.805 8.799,0.688 9.695,1.295 10.020 L 1.448 10.102 11.000 10.102 L 20.552 10.102 20.705 10.020 C 21.312 9.695,21.195 8.799,20.527 8.655 C 20.425 8.633,19.892 8.616,19.294 8.616 L 18.242 8.615 16.392 5.972 C 15.343 4.474,14.479 3.276,14.398 3.207 C 14.218 3.053,13.982 2.941,13.731 2.890 C 13.338 2.811,12.819 2.984,12.542 3.284 C 12.463 3.369,12.084 3.911,11.699 4.488 L 10.999 5.538 10.302 4.490 C 9.918 3.914,9.540 3.373,9.461 3.287 C 9.290 3.101,9.004 2.949,8.731 2.897 C 8.484 2.851,8.385 2.853,8.177 2.910 M9.269 5.594 C 9.728 6.284,10.053 6.734,10.136 6.797 C 10.208 6.853,10.362 6.942,10.478 6.996 C 10.654 7.077,10.739 7.093,11.000 7.093 C 11.261 7.093,11.346 7.077,11.522 6.996 C 11.638 6.942,11.792 6.853,11.864 6.797 C 11.947 6.734,12.272 6.284,12.731 5.594 C 13.135 4.988,13.478 4.479,13.492 4.463 C 13.513 4.439,16.374 8.468,16.421 8.586 C 16.427 8.603,13.988 8.617,11.000 8.617 C 8.012 8.617,5.573 8.603,5.579 8.586 C 5.626 8.468,8.487 4.439,8.508 4.463 C 8.522 4.479,8.865 4.988,9.269 5.594 M6.472 11.170 C 5.810 11.308,5.396 11.529,4.919 11.999 C 4.507 12.406,4.241 12.894,4.119 13.470 C 4.043 13.827,4.072 14.512,4.179 14.887 C 4.448 15.827,5.272 16.625,6.223 16.869 C 7.731 17.254,9.256 16.438,9.753 14.978 L 9.815 14.795 11.040 14.785 L 12.265 14.776 12.366 15.062 C 12.503 15.451,12.773 15.850,13.121 16.174 C 13.463 16.495,13.726 16.659,14.116 16.797 C 15.330 17.227,16.694 16.812,17.455 15.783 C 17.833 15.271,18.010 14.727,18.013 14.062 C 18.019 13.073,17.580 12.218,16.787 11.671 C 16.253 11.304,15.744 11.146,15.095 11.147 C 14.257 11.149,13.646 11.402,13.055 11.991 C 12.717 12.329,12.522 12.626,12.365 13.044 L 12.265 13.310 11.042 13.301 L 9.820 13.292 9.701 12.991 C 9.349 12.105,8.612 11.458,7.685 11.221 C 7.468 11.165,7.288 11.148,6.970 11.151 C 6.736 11.153,6.512 11.162,6.472 11.170 M7.469 12.692 C 7.865 12.839,8.133 13.088,8.310 13.475 C 8.387 13.644,8.401 13.730,8.402 14.033 C 8.404 14.431,8.356 14.607,8.180 14.863 C 7.563 15.760,6.256 15.691,5.708 14.732 C 5.498 14.366,5.484 13.853,5.672 13.451 C 5.786 13.208,6.048 12.913,6.247 12.805 C 6.627 12.597,7.096 12.554,7.469 12.692 M15.701 12.732 C 16.284 13.000,16.638 13.650,16.539 14.268 C 16.351 15.435,14.932 15.904,14.098 15.074 C 13.997 14.973,13.866 14.795,13.806 14.678 C 13.714 14.496,13.696 14.414,13.684 14.117 C 13.672 13.825,13.683 13.734,13.750 13.554 C 13.898 13.162,14.281 12.791,14.662 12.669 C 14.935 12.581,15.441 12.612,15.701 12.732 " stroke="none" fill-rule="evenodd" fill="black"></path></svg>