<svg xmlns="http://www.w3.org/2000/svg" xml:space="preserve" fill="none" viewBox="0 0 22 20">
  <path fill="#000" fill-rule="evenodd" d="M8.177 2.91c-.234.065-.41.156-.576.298-.082.069-.943 1.264-1.993 2.764l-1.85 2.643-1.052.001c-.598 0-1.131.017-1.233.039-.668.144-.785 1.04-.178 1.365l.153.082h19.104l.153-.082c.607-.325.49-1.221-.178-1.365-.102-.022-.635-.039-1.233-.039l-1.052-.001-1.85-2.643c-1.049-1.498-1.913-2.696-1.994-2.765a1.5 1.5 0 0 0-.667-.317c-.393-.079-.912.094-1.189.394-.079.085-.458.627-.843 1.204l-.7 1.05-.697-1.048c-.384-.576-.762-1.117-.841-1.203a1.4 1.4 0 0 0-.73-.39c-.247-.046-.346-.044-.554.013m1.092 2.684c.459.69.784 1.14.867 1.203.072.056.226.145.342.199.176.081.261.097.522.097s.346-.016.522-.097c.116-.054.27-.143.342-.199.083-.063.408-.513.867-1.203.404-.606.747-1.115.761-1.131.021-.024 2.882 4.005 2.929 4.123.006.017-2.433.031-5.421.031s-5.427-.014-5.421-.031c.047-.118 2.908-4.147 2.929-4.123.014.016.357.525.761 1.131M6.472 11.17c-.662.138-1.076.359-1.553.829a2.85 2.85 0 0 0-.8 1.471c-.076.357-.047 1.042.06 1.417.269.94 1.093 1.738 2.044 1.982 1.508.385 3.033-.431 3.53-1.891l.062-.183 1.225-.01 1.225-.009.101.286c.137.389.407.788.755 1.112.342.321.605.485.995.623a2.94 2.94 0 0 0 3.339-1.014c.378-.512.555-1.056.558-1.721.006-.989-.433-1.844-1.226-2.391a2.8 2.8 0 0 0-1.692-.524c-.838.002-1.449.255-2.04.844a2.74 2.74 0 0 0-.69 1.053l-.1.266-1.223-.009-1.222-.009-.119-.301a2.93 2.93 0 0 0-2.016-1.77c-.217-.056-.397-.073-.715-.07a6 6 0 0 0-.498.019m.997 1.522c.396.147.664.396.841.783.077.169.091.255.092.558.002.398-.046.574-.222.83-.617.897-1.924.828-2.472-.131-.21-.366-.224-.879-.036-1.281.114-.243.376-.538.575-.646.38-.208.849-.251 1.222-.113m8.232.04c.583.268.937.918.838 1.536-.188 1.167-1.607 1.636-2.441.806a2 2 0 0 1-.292-.396c-.092-.182-.11-.264-.122-.561-.012-.292-.001-.383.066-.563.148-.392.531-.763.912-.885.273-.088.779-.057 1.039.063"/>
</svg>
