<svg xmlns="http://www.w3.org/2000/svg" xml:space="preserve" fill="none" viewBox="0 0 24 24">
  <path fill="#000" fill-rule="evenodd" d="M9.36 3.281a8.4 8.4 0 0 0-3.22.879c-2.805 1.379-4.618 4.072-4.867 7.23-.138 1.749.34 3.688 1.28 5.203a9.1 9.1 0 0 0 2.854 2.854c1.515.94 3.454 1.418 5.203 1.28 4.391-.346 7.771-3.726 8.117-8.117.214-2.713-.977-5.533-3.073-7.281-1.792-1.493-3.976-2.204-6.294-2.048m1.588 1.54a7.24 7.24 0 0 1 6.05 5.308 7.27 7.27 0 0 1-.947 5.851c-1.077 1.637-2.72 2.738-4.691 3.145-.404.084-.569.095-1.36.095s-.956-.011-1.36-.095c-1.975-.408-3.612-1.505-4.691-3.145a7.24 7.24 0 0 1-1.128-4.928 7.24 7.24 0 0 1 5.308-6.05 7.6 7.6 0 0 1 2.819-.181m6.932.717c0 .009.101.158.224.33.302.42.623.97.864 1.481.187.396.227.45.667.886.794.788 1.217 1.529 1.487 2.605.12.479.151 1.479.063 1.989a5.7 5.7 0 0 1-.87 2.159 7 7 0 0 1-.68.777c-.44.436-.48.49-.667.886a10 10 0 0 1-.865 1.484c-.125.173-.219.322-.211.331.037.036.761-.25 1.188-.471a6.4 6.4 0 0 0 1.68-1.235c1.408-1.408 2.095-3.258 1.955-5.266-.183-2.635-1.96-4.971-4.448-5.849-.371-.131-.387-.136-.387-.107"/>
</svg>
