<svg xmlns="http://www.w3.org/2000/svg" xml:space="preserve" fill="none" viewBox="0 0 24 24"><path d="M9.360 3.281 C 8.234 3.357,7.200 3.639,6.140 4.160 C 3.335 5.539,1.522 8.232,1.273 11.390 C 1.135 13.139,1.613 15.078,2.553 16.593 C 3.255 17.724,4.276 18.745,5.407 19.447 C 6.922 20.387,8.861 20.865,10.610 20.727 C 15.001 20.381,18.381 17.001,18.727 12.610 C 18.941 9.897,17.750 7.077,15.654 5.329 C 13.862 3.836,11.678 3.125,9.360 3.281 M10.948 4.821 C 13.845 5.197,16.249 7.306,16.998 10.129 C 17.528 12.126,17.182 14.262,16.051 15.980 C 14.974 17.617,13.331 18.718,11.360 19.125 C 10.956 19.209,10.791 19.220,10.000 19.220 C 9.209 19.220,9.044 19.209,8.640 19.125 C 6.665 18.717,5.028 17.620,3.949 15.980 C 2.993 14.528,2.596 12.791,2.821 11.052 C 3.197 8.155,5.303 5.754,8.129 5.002 C 9.008 4.768,10.030 4.702,10.948 4.821 M17.880 5.538 C 17.880 5.547,17.981 5.696,18.104 5.868 C 18.406 6.288,18.727 6.838,18.968 7.349 C 19.155 7.745,19.195 7.799,19.635 8.235 C 20.429 9.023,20.852 9.764,21.122 10.840 C 21.242 11.319,21.273 12.319,21.185 12.829 C 21.052 13.590,20.742 14.360,20.315 14.988 C 20.199 15.160,19.893 15.509,19.635 15.765 C 19.195 16.201,19.155 16.255,18.968 16.651 C 18.727 17.163,18.406 17.713,18.103 18.135 C 17.978 18.308,17.884 18.457,17.892 18.466 C 17.929 18.502,18.653 18.216,19.080 17.995 C 19.727 17.661,20.227 17.293,20.760 16.760 C 22.168 15.352,22.855 13.502,22.715 11.494 C 22.532 8.859,20.755 6.523,18.267 5.645 C 17.896 5.514,17.880 5.509,17.880 5.538 " fill="#1B1A19" stroke="none" fill-rule="evenodd"></path></svg>