<svg xmlns="http://www.w3.org/2000/svg" fill="none" viewBox="0 0 16 16">
  <path fill="#8A6300" fill-rule="evenodd" d="m8 1.976-1.4 3.8a1.39 1.39 0 0 1-.823.823L1.977 8l3.8 1.4a1.39 1.39 0 0 1 .822.823L8 14.023l1.4-3.8a1.39 1.39 0 0 1 .823-.822L14.023 8l-3.8-1.4a1.39 1.39 0 0 1-.822-.823zm2.79 8.814 4.058-1.495h.002a1.38 1.38 0 0 0 0-2.59L10.79 5.21 9.295 1.152V1.15a1.38 1.38 0 0 0-2.59 0v.002L5.21 5.21 1.152 6.705H1.15a1.38 1.38 0 0 0 0 2.59h.002L5.21 10.79l1.495 4.058v.002a1.38 1.38 0 0 0 2.59 0v-.002z" clip-rule="evenodd"/>
</svg>
