<svg xmlns="http://www.w3.org/2000/svg" xml:space="preserve" fill="none" viewBox="0 0 24 24"><path d="M11.693 2.720 C 11.515 2.757,11.343 2.835,11.127 2.974 C 10.958 3.084,2.657 13.289,2.509 13.570 C 2.281 14.002,2.289 14.518,2.529 14.971 C 2.744 15.374,3.127 15.640,3.606 15.718 C 3.958 15.775,20.042 15.775,20.394 15.718 C 20.873 15.640,21.256 15.374,21.471 14.971 C 21.711 14.518,21.719 14.002,21.491 13.570 C 21.345 13.293,13.045 3.086,12.873 2.972 C 12.524 2.741,12.061 2.642,11.693 2.720 M16.090 9.220 L 20.150 14.220 16.075 14.230 C 13.834 14.236,10.166 14.236,7.925 14.230 L 3.849 14.220 7.915 9.211 C 10.151 6.456,11.991 4.206,12.005 4.211 C 12.019 4.216,13.858 6.470,16.090 9.220 M2.700 18.823 C 2.412 18.973,2.269 19.198,2.269 19.500 C 2.269 19.807,2.460 20.095,2.733 20.197 C 2.891 20.257,21.109 20.257,21.267 20.197 C 21.542 20.094,21.731 19.806,21.731 19.494 C 21.731 19.248,21.645 19.081,21.426 18.904 L 21.273 18.780 12.046 18.770 C 3.743 18.761,2.808 18.766,2.700 18.823 " stroke="none" fill-rule="evenodd" fill="black"></path></svg>