<svg xmlns="http://www.w3.org/2000/svg" xml:space="preserve" fill="none" viewBox="0 0 24 24">
  <path fill="#000" fill-rule="evenodd" d="M11.693 2.72c-.178.037-.35.115-.566.254-.169.11-8.47 10.315-8.618 10.596-.228.432-.22.948.02 1.401.215.403.598.669 1.077.747.352.057 16.436.057 16.788 0 .479-.078.862-.344 1.077-.747.24-.453.248-.969.02-1.401-.146-.277-8.446-10.484-8.618-10.598-.349-.231-.812-.33-1.18-.252m4.397 6.5 4.06 5-4.075.01c-2.241.006-5.909.006-8.15 0l-4.076-.01 4.066-5.009c2.236-2.755 4.076-5.005 4.09-5S13.858 6.47 16.09 9.22M2.7 18.823q-.431.224-.431.677a.75.75 0 0 0 .464.697c.158.06 18.376.06 18.534 0a.75.75 0 0 0 .464-.703c0-.246-.086-.413-.305-.59l-.153-.124-9.227-.01c-8.303-.009-9.238-.004-9.346.053"/>
</svg>
