<svg xmlns="http://www.w3.org/2000/svg" fill="none" viewBox="0 0 32 28"><path d="M9.431 0.055 C 8.460 0.218,7.566 0.729,6.988 1.450 C 6.746 1.752,0.582 12.117,0.308 12.683 C -0.024 13.369,-0.081 14.219,0.158 14.933 C 0.307 15.379,6.626 26.100,7.030 26.593 C 7.502 27.168,8.243 27.642,9.040 27.878 C 9.338 27.966,9.826 27.974,16.080 27.988 C 23.565 28.005,23.193 28.022,23.960 27.641 C 24.241 27.502,24.455 27.339,24.742 27.045 C 25.112 26.665,25.340 26.296,28.382 21.149 C 30.167 18.129,31.677 15.526,31.737 15.365 C 32.098 14.399,32.076 13.343,31.675 12.453 C 31.585 12.252,25.320 1.651,25.117 1.356 C 24.872 1.000,24.346 0.552,23.934 0.349 C 23.199 -0.012,23.506 0.001,16.240 0.007 C 12.632 0.010,9.568 0.031,9.431 0.055 M21.600 2.315 C 21.600 2.394,15.685 12.330,15.553 12.473 C 15.461 12.572,15.291 12.698,15.173 12.752 C 14.970 12.846,14.706 12.851,9.541 12.852 C 6.140 12.853,4.014 12.873,3.834 12.907 C 3.453 12.978,2.958 13.226,2.635 13.506 C 2.447 13.670,2.397 13.696,2.458 13.600 C 2.504 13.527,3.869 11.215,5.492 8.464 C 7.115 5.713,8.461 3.481,8.484 3.504 C 8.507 3.527,9.295 4.855,10.237 6.453 C 11.431 8.482,12.011 9.417,12.157 9.550 C 12.596 9.951,13.219 9.966,13.679 9.587 C 14.064 9.269,14.209 8.674,14.000 8.264 C 13.948 8.163,13.281 7.019,12.517 5.722 C 11.015 3.172,10.844 2.940,10.242 2.619 C 10.072 2.528,9.792 2.420,9.620 2.378 C 9.343 2.311,10.026 2.302,15.453 2.298 C 18.834 2.295,21.600 2.303,21.600 2.315 M24.126 2.813 C 24.018 3.169,24.028 3.749,24.149 4.139 C 24.205 4.318,24.407 4.714,24.598 5.019 C 24.789 5.324,25.909 7.205,27.086 9.200 L 29.226 12.827 25.560 12.853 L 21.893 12.880 21.639 13.030 C 21.499 13.112,21.319 13.278,21.239 13.399 C 21.114 13.588,21.093 13.674,21.093 14.005 C 21.093 14.347,21.112 14.417,21.254 14.622 C 21.359 14.774,21.514 14.904,21.703 15.000 L 21.992 15.147 25.038 15.147 C 27.611 15.147,28.134 15.134,28.402 15.064 C 28.862 14.945,29.137 14.798,29.480 14.488 C 29.766 14.228,29.776 14.223,29.669 14.400 C 29.607 14.503,28.244 16.807,26.641 19.520 C 25.037 22.233,23.707 24.472,23.685 24.495 C 23.642 24.539,17.739 14.616,17.642 14.338 C 17.612 14.251,17.598 14.053,17.611 13.897 C 17.633 13.635,17.874 13.209,20.906 8.087 C 22.706 5.047,24.183 2.560,24.190 2.560 C 24.197 2.560,24.168 2.674,24.126 2.813 M15.061 15.205 C 15.484 15.322,15.601 15.499,18.348 20.160 C 21.179 24.962,21.235 25.046,21.868 25.383 C 22.035 25.472,22.301 25.580,22.459 25.622 C 22.715 25.691,22.071 25.700,16.624 25.703 C 13.256 25.705,10.511 25.689,10.523 25.667 C 10.536 25.645,11.340 24.279,12.312 22.631 C 13.414 20.760,14.097 19.548,14.129 19.404 C 14.287 18.700,13.742 18.063,12.982 18.061 C 12.579 18.060,12.237 18.240,12.010 18.575 C 11.926 18.699,11.009 20.240,9.973 22.000 C 8.937 23.760,8.054 25.248,8.011 25.307 C 7.937 25.409,7.935 25.409,7.969 25.310 C 7.989 25.252,8.031 25.036,8.063 24.830 C 8.179 24.079,8.225 24.174,5.426 19.433 C 4.055 17.112,2.933 15.198,2.933 15.180 C 2.933 15.118,14.836 15.142,15.061 15.205 " fill="#494D4C" stroke="none" fill-rule="evenodd"></path></svg>