<svg xmlns="http://www.w3.org/2000/svg" fill="none" viewBox="0 0 32 28">
  <path fill="#494D4C" fill-rule="evenodd" d="M9.431.055C8.46.218 7.566.729 6.988 1.45 6.746 1.752.582 12.117.308 12.683a3.07 3.07 0 0 0-.15 2.25c.149.446 6.468 11.167 6.872 11.66.472.575 1.213 1.049 2.01 1.285.298.088.786.096 7.04.11 7.485.017 7.113.034 7.88-.347.281-.139.495-.302.782-.596.37-.38.598-.749 3.64-5.896 1.785-3.02 3.295-5.623 3.355-5.784.361-.966.339-2.022-.062-2.912-.09-.201-6.355-10.802-6.558-11.097C24.872 1 24.346.552 23.934.349c-.735-.361-.428-.348-7.694-.342-3.608.003-6.672.024-6.809.048M21.6 2.315c0 .079-5.915 10.015-6.047 10.158a1.4 1.4 0 0 1-.38.279c-.203.094-.467.099-5.632.1-3.401.001-5.527.021-5.707.055-.381.071-.876.319-1.199.599-.188.164-.238.19-.177.094.046-.073 1.411-2.385 3.034-5.136s2.969-4.983 2.992-4.96.811 1.351 1.753 2.949c1.194 2.029 1.774 2.964 1.92 3.097a1.136 1.136 0 0 0 1.522.037c.385-.318.53-.913.321-1.323-.052-.101-.719-1.245-1.483-2.542-1.502-2.55-1.673-2.782-2.275-3.103a3.2 3.2 0 0 0-.622-.241c-.277-.067.406-.076 5.833-.08 3.381-.003 6.147.005 6.147.017m2.526.498c-.108.356-.098.936.023 1.326.056.179.258.575.449.88s1.311 2.186 2.488 4.181l2.14 3.627-3.666.026-3.667.027-.254.15c-.14.082-.32.248-.4.369-.125.189-.146.275-.146.606 0 .342.019.412.161.617.105.152.26.282.449.378l.289.147h3.046c2.573 0 3.096-.013 3.364-.083.46-.119.735-.266 1.078-.576.286-.26.296-.265.189-.088-.062.103-1.425 2.407-3.028 5.12a666 666 0 0 1-2.956 4.975c-.043.044-5.946-9.879-6.043-10.157a1.4 1.4 0 0 1-.031-.441c.022-.262.263-.688 3.295-5.81 1.8-3.04 3.277-5.527 3.284-5.527s-.022.114-.064.253m-9.065 12.392c.423.117.54.294 3.287 4.955 2.831 4.802 2.887 4.886 3.52 5.223.167.089.433.197.591.239.256.069-.388.078-5.835.081-3.368.002-6.113-.014-6.101-.036l1.789-3.036c1.102-1.871 1.785-3.083 1.817-3.227.158-.704-.387-1.341-1.147-1.343a1.13 1.13 0 0 0-.972.514c-.084.124-1.001 1.665-2.037 3.425a302 302 0 0 1-1.962 3.307c-.074.102-.076.102-.042.003.02-.058.062-.274.094-.48.116-.751.162-.656-2.637-5.397-1.371-2.321-2.493-4.235-2.493-4.253 0-.062 11.903-.038 12.128.025"/>
</svg>
