<svg xmlns="http://www.w3.org/2000/svg" fill="none" viewBox="0 0 16 16">
  <path fill="#4A2D86" fill-rule="evenodd" d="M12.26 3.74 8.582 5.437a1.39 1.39 0 0 1-1.164 0L3.74 3.74l1.697 3.678a1.39 1.39 0 0 1 0 1.164L3.74 12.26l3.678-1.697a1.39 1.39 0 0 1 1.164 0l3.678 1.697-1.697-3.678a1.39 1.39 0 0 1 0-1.164zM8 11.823l.047.101zm0 .123 3.927 1.812h.001a1.381 1.381 0 0 0 1.83-1.83L11.947 8l1.812-3.927v-.001a1.381 1.381 0 0 0-1.83-1.83h-.001L8 4.054 4.073 2.242h-.001a1.38 1.38 0 0 0-1.83 1.83v.001L4.054 8l-1.812 3.927v.001a1.38 1.38 0 0 0 1.83 1.83h.001z" clip-rule="evenodd"/>
</svg>
