<svg xmlns="http://www.w3.org/2000/svg" viewBox="0 0 24 24">
  <path fill-rule="evenodd" d="M16.039.626a1.46 1.46 0 0 0-.45.474c-.074.142-.086.246-.101.905l-.017.745-.75.018c-.725.017-.755.021-.932.125a1.1 1.1 0 0 0-.494.601.6.6 0 0 0-.017.411c.063.285.259.566.494.711.192.118.195.118.95.136l.758.018.001.545c.001.761.042 1.004.209 1.236.169.236.552.449.807.449.219 0 .631-.203.759-.373.221-.296.236-.362.256-1.132l.018-.725.753-.018c.75-.018.753-.018.945-.136.235-.145.431-.426.494-.711a.6.6 0 0 0-.017-.411 1.1 1.1 0 0 0-.494-.601c-.177-.104-.207-.108-.933-.125l-.751-.018-.014-.725c-.013-.651-.024-.742-.102-.89q-.2-.377-.469-.5c-.218-.098-.761-.104-.903-.009m-5.794 3.579c-.513.065-1.065.48-1.301.977-.093.197-.979 2.542-1.653 4.376l-.198.539-1.336.492c-3.391 1.249-3.906 1.466-4.136 1.748a2.45 2.45 0 0 0-.427.918c-.085.422.073.959.404 1.378.252.319.404.385 3.519 1.54l1.976.734.734 1.976c1.231 3.319 1.232 3.323 1.671 3.614.642.426 1.363.425 2.008-.003.416-.276.528-.519 1.728-3.771l.67-1.817 1.818-.673c3.078-1.138 3.335-1.246 3.6-1.519.355-.367.575-1.04.482-1.479-.067-.318-.29-.761-.477-.948-.265-.265-.826-.499-4.082-1.698-1.328-.489-1.335-.492-1.389-.63-.029-.077-.323-.868-.652-1.759-1.149-3.112-1.208-3.249-1.52-3.529a1.8 1.8 0 0 0-1.439-.466M20.49 5.919c-.115.067-.254.19-.307.272-.107.164-.183.509-.183.831v.207l-.31.027a4 4 0 0 0-.468.07c-.712.188-.934 1.068-.407 1.615.201.208.471.299.892.299H20v.258c0 .6.165.913.596 1.132.317.161.473.164.786.016.423-.201.573-.455.607-1.028l.022-.368.385-.019c.284-.014.427-.04.549-.103a1 1 0 0 0 .475-1.207c-.138-.416-.462-.613-1.097-.666l-.313-.026-.02-.357c-.027-.475-.161-.754-.447-.931-.17-.104-.241-.123-.52-.133-.299-.011-.339-.002-.533.111m-9.308 2.583c.99 2.669.987 2.662 1.267 2.962.163.174.319.294.486.373.135.064 1.073.426 2.085.803s1.928.724 2.034.77l.195.084-.135.068a60 60 0 0 1-1.807.695c-2.458.921-2.744 1.053-2.985 1.386-.136.188-.381.798-1.082 2.697-.587 1.589-.72 1.916-.762 1.873-.017-.018-.286-.717-.596-1.553-1.088-2.932-1.153-3.074-1.533-3.315-.299-.189-.765-.38-2.656-1.088a61 61 0 0 1-1.808-.695l-.136-.069.356-.142c.195-.079 1.111-.425 2.035-.77s1.791-.68 1.926-.744c.302-.144.664-.52.804-.836.101-.228.526-1.355 1.17-3.101.414-1.121.432-1.164.484-1.112.02.02.316.791.658 1.714"/>
</svg>
