<svg xmlns="http://www.w3.org/2000/svg" viewBox="0 0 24 24">
  <path fill-rule="evenodd" d="M7.153 4.043c-.59.088-1.19.325-1.648.652-.756.539-1.319 1.466-1.465 2.408-.029.188-.039 1.81-.031 5.077l.011 4.8.109.346c.215.685.427 1.058.87 1.528a3.8 3.8 0 0 0 1.741 1.035l.32.091 4.798.011c5.293.012 5.095.02 5.812-.239.637-.231 1.344-.8 1.746-1.407.21-.319.416-.838.508-1.28.068-.333.075-.57.075-2.668L20 12.094l-.11-.217c-.155-.306-.371-.448-.711-.47-.441-.028-.777.191-.921.6-.048.134-.058.552-.058 2.39 0 2.465-.001 2.476-.256 2.91-.234.4-.616.698-1.064.832-.199.059-.674.065-4.888.062-4.1-.003-4.693-.011-4.88-.066a1.86 1.86 0 0 1-1.249-1.252C5.807 16.69 5.8 16.141 5.8 12s.007-4.69.063-4.883c.123-.421.398-.788.769-1.026.439-.281.299-.267 2.928-.29l2.38-.021.191-.094c.622-.306.645-1.198.04-1.554l-.191-.112-2.3-.006c-1.265-.003-2.402.01-2.527.029m7.711.006c-.211.056-.523.363-.58.571-.123.449.049.854.456 1.074.15.081.224.087 1.177.099l1.018.012-2.846 2.848c-3.011 3.011-2.969 2.965-2.969 3.322a.96.96 0 0 0 .583.848.93.93 0 0 0 .724-.058c.088-.046 1.341-1.269 2.953-2.883l2.8-2.802.02 1.01c.019.946.026 1.021.109 1.176.299.56 1.034.658 1.444.193.084-.096.174-.245.2-.331.033-.112.047-.763.047-2.256 0-2.388.004-2.356-.301-2.625a1.1 1.1 0 0 0-.331-.2c-.204-.061-4.272-.059-4.504.002"/>
</svg>
