<svg xmlns="http://www.w3.org/2000/svg" fill="none" viewBox="0 0 30 20"><path d="M14.025 0.029 C 13.915 0.040,13.566 0.074,13.250 0.104 C 8.632 0.543,4.334 3.167,1.425 7.325 C 0.966 7.981,0.458 8.825,0.193 9.372 C -0.120 10.017,-0.073 10.237,0.635 11.446 C 1.963 13.714,3.870 15.783,5.950 17.209 C 8.088 18.676,10.367 19.531,13.150 19.908 C 13.783 19.994,16.217 19.994,16.850 19.908 C 20.023 19.478,22.625 18.395,24.975 16.526 C 26.935 14.967,28.853 12.622,29.823 10.598 C 30.053 10.117,30.054 9.911,29.827 9.419 C 29.084 7.811,27.453 5.678,25.874 4.250 C 23.277 1.901,20.315 0.528,16.975 0.125 C 16.352 0.049,14.443 -0.012,14.025 0.029 M16.130 2.051 C 17.400 2.152,18.793 2.444,19.832 2.825 C 21.096 3.290,22.641 4.170,23.777 5.073 C 24.428 5.591,25.664 6.832,26.219 7.525 C 26.659 8.074,27.456 9.241,27.730 9.737 L 27.875 10.000 27.751 10.234 C 27.682 10.363,27.451 10.736,27.237 11.064 C 24.330 15.509,19.931 18.002,15.000 17.999 C 10.266 17.997,6.122 15.785,3.201 11.702 C 2.789 11.126,2.150 10.091,2.150 10.000 C 2.150 9.908,2.789 8.874,3.207 8.290 C 4.737 6.153,6.657 4.489,8.821 3.426 C 9.832 2.929,10.421 2.706,11.338 2.471 C 12.917 2.066,14.536 1.924,16.130 2.051 M14.425 4.028 C 12.939 4.232,11.846 4.734,10.866 5.665 C 8.186 8.211,8.441 12.559,11.401 14.794 C 14.661 17.256,19.390 15.767,20.696 11.869 C 21.825 8.499,19.678 4.817,16.179 4.121 C 15.820 4.050,14.700 3.991,14.425 4.028 M15.700 6.072 C 17.789 6.451,19.225 8.385,18.962 10.462 C 18.757 12.076,17.720 13.318,16.150 13.830 C 15.765 13.955,15.656 13.968,15.000 13.968 C 14.344 13.968,14.235 13.955,13.850 13.830 C 12.278 13.318,11.244 12.080,11.039 10.462 C 10.704 7.832,13.079 5.595,15.700 6.072 " stroke="none" fill-rule="evenodd"></path></svg>