<svg xmlns="http://www.w3.org/2000/svg" fill="none" viewBox="0 0 30 20">
  <path fill="#000" d="M29.914 9.595c-.044-.099-1.103-2.448-3.457-4.801C23.322 1.658 19.36 0 15 0S6.679 1.658 3.542 4.794C1.19 7.148.125 9.5.086 9.595a1 1 0 0 0 0 .813c.044.098 1.103 2.446 3.456 4.8C6.68 18.343 10.64 20 15 20s8.321-1.657 11.458-4.792c2.353-2.354 3.412-4.702 3.456-4.8a1 1 0 0 0 0-.813M15 18c-3.847 0-7.209-1.399-9.991-4.156A16.7 16.7 0 0 1 2.125 10a16.7 16.7 0 0 1 2.884-3.844C7.79 3.4 11.152 2 15 2s7.209 1.399 9.991 4.156A16.7 16.7 0 0 1 27.881 10c-.901 1.682-4.827 8-12.881 8m0-14a6 6 0 1 0 6 6 6.006 6.006 0 0 0-6-6m0 10a4 4 0 1 1 0-8 4 4 0 0 1 0 8"/>
</svg>
