<svg xmlns="http://www.w3.org/2000/svg" fill="none" viewBox="0 0 30 20">
  <path d="m14.025.029-.775.075C8.632.543 4.334 3.167 1.425 7.325c-.459.656-.967 1.5-1.232 2.047-.313.645-.266.865.442 2.074 1.328 2.268 3.235 4.337 5.315 5.763 2.138 1.467 4.417 2.322 7.2 2.699.633.086 3.067.086 3.7 0 3.173-.43 5.775-1.513 8.125-3.382 1.96-1.559 3.878-3.904 4.848-5.928.23-.481.231-.687.004-1.179-.743-1.608-2.374-3.741-3.953-5.169C23.277 1.901 20.315.528 16.975.125c-.623-.076-2.532-.137-2.95-.096m2.105 2.022c1.27.101 2.663.393 3.702.774 1.264.465 2.809 1.345 3.945 2.248.651.518 1.887 1.759 2.442 2.452.44.549 1.237 1.716 1.511 2.212l.145.263-.124.234c-.069.129-.3.502-.514.83-2.907 4.445-7.306 6.938-12.237 6.935-4.734-.002-8.878-2.214-11.799-6.297C2.789 11.126 2.15 10.091 2.15 10c0-.092.639-1.126 1.057-1.71 1.53-2.137 3.45-3.801 5.614-4.864 1.011-.497 1.6-.72 2.517-.955a14.6 14.6 0 0 1 4.792-.42m-1.705 1.977c-1.486.204-2.579.706-3.559 1.637-2.68 2.546-2.425 6.894.535 9.129 3.26 2.462 7.989.973 9.295-2.925 1.129-3.37-1.018-7.052-4.517-7.748-.359-.071-1.479-.13-1.754-.093M15.7 6.072c2.089.379 3.525 2.313 3.262 4.39-.205 1.614-1.242 2.856-2.812 3.368-.385.125-.494.138-1.15.138s-.765-.013-1.15-.138c-1.572-.512-2.606-1.75-2.811-3.368-.335-2.63 2.04-4.867 4.661-4.39"/>
</svg>
