<svg xmlns="http://www.w3.org/2000/svg" fill="none" viewBox="0 0 17 17">
  <path fill="#000" fill-rule="evenodd" d="M2.203 6.414a.75.75 0 0 0-.464.492c-.121.404-.004.611.815 1.438l.392.397-.583 1.02c-.321.561-.602 1.069-.623 1.13a.73.73 0 0 0 .183.753.73.73 0 0 0 .777.183c.244-.083.322-.187.9-1.202.297-.521.545-.952.549-.957s.154.072.332.172c.398.223.788.402 1.214.558.179.065.329.122.334.127a33 33 0 0 1-.165 1.038c-.118.7-.168 1.071-.157 1.154a.753.753 0 0 0 1.422.226c.023-.046.119-.538.213-1.094.093-.555.172-1.013.176-1.016.003-.004.219.007.479.024.342.022.597.022.92 0 .245-.018.454-.022.464-.011.009.011.09.459.178.995.089.537.184 1.028.212 1.091a.82.82 0 0 0 .354.364c.164.087.495.087.656.001a.76.76 0 0 0 .41-.66c0-.086-.074-.599-.165-1.139l-.165-.983.229-.076a8 8 0 0 0 1.391-.634c.138-.08.26-.135.272-.123s.258.436.547.942c.29.505.568.962.619 1.015.21.219.541.291.808.176a.9.9 0 0 0 .419-.416 1 1 0 0 0 .047-.281c.001-.211.017-.179-.655-1.353-.284-.496-.53-.931-.546-.967-.027-.059-.008-.086.204-.288.337-.321.865-.931.936-1.083a.86.86 0 0 0 .011-.592.9.9 0 0 0-.367-.384c-.087-.046-.163-.061-.326-.061-.284 0-.39.06-.668.374-.791.892-1.535 1.493-2.365 1.91a6.67 6.67 0 0 1-4.347.558C5.606 8.931 4.267 8.1 3.166 6.81c-.174-.204-.283-.306-.376-.35-.163-.079-.441-.101-.587-.046"/>
</svg>
