<svg xmlns="http://www.w3.org/2000/svg" xml:space="preserve" fill="none" viewBox="0 0 24 24">
  <path fill="#000" fill-rule="evenodd" d="M4.58 3.823a3 3 0 0 0-.64.233 3.06 3.06 0 0 0-1.589 1.887l-.089.317-.014 4.52c-.016 5.31-.014 5.339.323 6.174.376.931 1.258 1.824 2.179 2.207.594.248.842.293 1.61.296.608.003.745-.009 1.04-.088.491-.132 1.237-.513 1.599-.819a4.24 4.24 0 0 0 1.439-2.5l.049-.29h3.019l.082.413c.179.911.679 1.76 1.385 2.352a3.8 3.8 0 0 0 1.067.643c.598.253.814.292 1.6.289.782-.003 1.039-.052 1.641-.312.929-.403 1.773-1.264 2.148-2.191.337-.835.339-.864.323-6.174l-.014-4.52-.089-.317a3.05 3.05 0 0 0-1.589-1.884c-.597-.293-1.299-.384-1.65-.214a.73.73 0 0 0-.33.975c.123.254.321.378.674.422.155.019.331.047.393.062.371.09.776.432.964.813l.109.223.011 2.91c.006 1.601 0 2.91-.012 2.91a1.3 1.3 0 0 1-.211-.144c-.259-.198-.926-.516-1.29-.615-.62-.168-1.519-.176-2.124-.019a4.25 4.25 0 0 0-2.283 1.554c-.24.323-.506.831-.594 1.134l-.05.17h-3.334l-.05-.17c-.088-.303-.354-.811-.594-1.134a4.2 4.2 0 0 0-2.269-1.548c-.596-.163-1.507-.158-2.138.013-.364.099-1.031.417-1.29.615a1.3 1.3 0 0 1-.211.144c-.012 0-.018-1.309-.012-2.91l.011-2.91.105-.22c.177-.373.596-.726.968-.816.062-.015.238-.043.393-.062.353-.044.551-.168.674-.422a.73.73 0 0 0-.33-.975c-.207-.1-.572-.109-1.01-.022M7 12.822c.779.183 1.511.821 1.811 1.578.281.713.248 1.46-.097 2.16-.234.475-.679.92-1.154 1.154-.7.345-1.447.378-2.16.097-.757-.3-1.395-1.032-1.578-1.811a3.1 3.1 0 0 1 .017-1.296 2.65 2.65 0 0 1 1.849-1.863A3.2 3.2 0 0 1 7 12.822m11.44.052c.75.243 1.447.939 1.686 1.685.117.365.144 1.046.056 1.421a2.7 2.7 0 0 1-1.582 1.831 2.6 2.6 0 0 1-2.16-.097c-.681-.336-1.226-1.042-1.385-1.794-.135-.642.004-1.414.353-1.951s.98-.998 1.572-1.147c.347-.087 1.116-.06 1.46.052"/>
</svg>
