<svg xmlns="http://www.w3.org/2000/svg" fill="none" viewBox="0 0 30 24"><path d="M4.575 0.091 C 4.061 0.337,3.848 0.957,4.112 1.440 C 4.174 1.553,4.759 2.230,5.412 2.945 C 6.064 3.660,6.604 4.266,6.612 4.293 C 6.619 4.319,6.445 4.458,6.225 4.602 C 4.051 6.026,2.028 8.180,0.635 10.554 C -0.064 11.746,-0.117 11.983,0.177 12.598 C 0.953 14.216,2.499 16.259,3.975 17.616 C 6.666 20.090,9.489 21.411,13.150 21.908 C 13.887 22.008,16.269 21.992,17.050 21.882 C 18.579 21.666,19.956 21.298,21.205 20.773 L 21.520 20.640 21.647 20.792 C 21.718 20.875,22.359 21.586,23.072 22.372 C 24.455 23.894,24.581 24.001,25.003 23.999 C 25.260 23.998,25.577 23.865,25.735 23.693 C 25.977 23.430,26.064 22.997,25.944 22.653 C 25.879 22.469,5.869 0.414,5.557 0.183 C 5.300 -0.007,4.866 -0.047,4.575 0.091 M13.700 2.053 C 12.599 2.149,12.090 2.242,11.854 2.388 C 11.205 2.790,11.264 3.748,11.961 4.105 C 12.183 4.219,12.399 4.223,13.125 4.126 C 15.289 3.836,17.873 4.106,19.832 4.825 C 20.622 5.115,21.977 5.808,22.703 6.293 C 23.948 7.123,25.265 8.333,26.225 9.526 C 26.636 10.037,27.528 11.348,27.750 11.767 L 27.874 12.002 27.730 12.264 C 27.456 12.760,26.659 13.927,26.219 14.475 C 25.977 14.778,25.433 15.374,25.010 15.800 C 24.587 16.226,24.211 16.632,24.175 16.702 C 23.810 17.401,24.436 18.246,25.230 18.127 C 25.505 18.086,25.728 17.919,26.389 17.263 C 27.708 15.954,28.918 14.333,29.701 12.827 C 30.068 12.121,30.082 11.970,29.827 11.419 C 29.082 9.807,27.419 7.635,25.849 6.225 C 23.248 3.888,20.301 2.527,16.975 2.125 C 16.182 2.029,14.414 1.990,13.700 2.053 M9.168 7.060 C 9.763 7.711,10.250 8.268,10.250 8.296 C 10.250 8.324,10.147 8.500,10.022 8.686 C 9.005 10.197,8.750 12.211,9.357 13.939 C 9.685 14.874,10.175 15.630,10.906 16.328 C 11.426 16.825,11.811 17.090,12.468 17.404 C 14.131 18.197,16.033 18.176,17.691 17.346 L 18.256 17.063 18.496 17.319 C 19.095 17.959,20.050 19.028,20.050 19.058 C 20.050 19.101,18.950 19.464,18.425 19.595 C 15.883 20.229,12.967 20.113,10.475 19.278 C 7.258 18.199,4.300 15.709,2.408 12.486 C 2.266 12.244,2.150 12.023,2.150 11.995 C 2.150 11.825,3.132 10.340,3.782 9.525 C 4.333 8.835,5.520 7.640,6.170 7.122 C 6.757 6.654,7.952 5.845,8.030 5.863 C 8.061 5.869,8.573 6.408,9.168 7.060 M15.525 6.195 C 15.017 6.429,14.808 7.025,15.055 7.536 C 15.203 7.840,15.403 7.972,15.950 8.124 C 16.800 8.360,17.351 8.693,17.948 9.333 C 18.403 9.820,18.765 10.524,18.885 11.150 C 19.013 11.822,19.043 11.924,19.164 12.105 C 19.421 12.486,20.009 12.631,20.425 12.415 C 20.937 12.149,21.061 11.716,20.878 10.843 C 20.408 8.602,18.755 6.821,16.595 6.229 C 16.041 6.077,15.797 6.069,15.525 6.195 M14.274 12.687 C 16.543 15.183,16.843 15.531,16.769 15.585 C 16.650 15.672,15.979 15.885,15.628 15.947 C 14.729 16.107,13.558 15.855,12.819 15.344 C 11.984 14.766,11.412 13.973,11.142 13.021 C 10.983 12.459,10.984 11.541,11.143 10.975 C 11.260 10.558,11.581 9.850,11.653 9.850 C 11.676 9.850,12.856 11.127,14.274 12.687 " stroke="none" fill-rule="evenodd"></path></svg>