<svg xmlns="http://www.w3.org/2000/svg" xml:space="preserve" fill="none" viewBox="0 0 24 24">
  <path fill="#757575" d="M23.184 11.7c-.028-.075-.825-1.837-2.587-3.61C18.244 5.748 15.272 4.5 12 4.5a12.4 12.4 0 0 0-2.062.169.76.76 0 0 0-.432 1.247l9.497 10.443a.75.75 0 0 0 .553.244.8.8 0 0 0 .507-.187c2.137-1.922 3.084-4.022 3.122-4.107a.77.77 0 0 0 0-.609ZM5.053 3.244a.75.75 0 0 0-1.106 1.012l1.8 1.978C2.344 8.325.881 11.55.816 11.7a.77.77 0 0 0 0 .61c.028.065.825 1.827 2.587 3.6C5.756 18.252 8.728 19.5 12 19.5a11.9 11.9 0 0 0 4.884-1.012l2.063 2.268a.75.75 0 0 0 1.06.047.74.74 0 0 0 .046-1.06zM12 15.375a3.375 3.375 0 0 1-2.766-5.306l4.425 4.865a3.3 3.3 0 0 1-1.659.441"/>
</svg>
