<svg xmlns="http://www.w3.org/2000/svg" fill="none" viewBox="0 0 30 24">
  <path fill="#000" d="M5.74.328a1 1 0 1 0-1.48 1.345l2.405 2.646C2.125 7.105.172 11.4.086 11.595a1 1 0 0 0 0 .813c.044.098 1.103 2.446 3.456 4.8C6.68 20.343 10.64 22 15 22c2.24.013 4.459-.448 6.509-1.354l2.75 3.027a1 1 0 1 0 1.48-1.345zm5.916 9.48 5.209 5.73a4 4 0 0 1-5.209-5.73M15 20c-3.847 0-7.209-1.399-9.991-4.156A16.6 16.6 0 0 1 2.125 12c.586-1.099 2.457-4.174 5.919-6.172l2.25 2.468a6 6 0 0 0 7.957 8.75l1.842 2.025a14 14 0 0 1-5.093.93m.75-11.929a1 1 0 1 1 .375-1.965 6.02 6.02 0 0 1 4.846 5.33 1 1 0 0 1-.902 1.09 1 1 0 0 1-.094 0 1 1 0 0 1-1-.908A4.01 4.01 0 0 0 15.75 8.07m14.16 4.337c-.052.117-1.319 2.92-4.17 5.475a1 1 0 1 1-1.334-1.49A16.6 16.6 0 0 0 27.881 12a16.6 16.6 0 0 0-2.89-3.846C22.21 5.399 18.848 4 15 4c-.81 0-1.62.065-2.42.196a1 1 0 1 1-.33-1.972A17 17 0 0 1 15 2c4.36 0 8.321 1.658 11.458 4.794 2.353 2.354 3.412 4.702 3.456 4.801a1 1 0 0 1 0 .813z"/>
</svg>
