<svg xmlns="http://www.w3.org/2000/svg" fill="none" viewBox="0 0 16 20"><path d="M2.737 3.798 C 2.592 3.851,2.454 3.970,2.360 4.121 C 2.293 4.229,2.279 4.282,2.271 4.456 C 2.256 4.773,2.300 4.845,2.909 5.515 C 3.194 5.828,3.429 6.092,3.432 6.102 C 3.436 6.112,3.359 6.173,3.262 6.239 C 2.905 6.480,2.536 6.794,2.118 7.211 C 1.391 7.938,0.877 8.625,0.429 9.467 L 0.280 9.747 0.280 10.000 C 0.280 10.240,0.286 10.263,0.380 10.445 C 0.830 11.314,1.495 12.199,2.229 12.905 C 3.419 14.049,4.833 14.795,6.375 15.092 C 7.490 15.307,8.757 15.292,9.840 15.050 C 10.210 14.967,10.669 14.830,10.948 14.719 C 11.062 14.674,11.168 14.641,11.186 14.645 C 11.203 14.650,11.514 14.979,11.876 15.378 C 12.601 16.175,12.652 16.216,12.947 16.235 C 13.162 16.249,13.303 16.207,13.462 16.082 C 13.648 15.934,13.733 15.753,13.733 15.508 C 13.733 15.367,13.717 15.287,13.670 15.187 C 13.624 15.087,12.323 13.640,8.537 9.475 C 4.271 4.784,3.446 3.888,3.339 3.836 C 3.184 3.760,2.890 3.741,2.737 3.798 M7.387 4.773 C 6.938 4.808,6.512 4.875,6.392 4.929 C 6.254 4.990,6.107 5.139,6.027 5.298 C 5.893 5.567,5.980 5.968,6.218 6.171 C 6.428 6.351,6.599 6.376,7.134 6.304 C 7.580 6.244,8.470 6.244,8.907 6.303 C 10.431 6.512,11.711 7.155,12.834 8.278 C 13.295 8.740,13.650 9.185,13.999 9.741 L 14.163 10.002 14.103 10.101 C 13.765 10.662,13.271 11.287,12.794 11.757 C 12.356 12.190,12.306 12.273,12.307 12.573 C 12.308 12.817,12.360 12.946,12.522 13.103 C 12.660 13.238,12.787 13.290,13.005 13.302 C 13.316 13.319,13.424 13.255,13.911 12.762 C 14.519 12.147,15.074 11.421,15.466 10.727 C 15.745 10.234,15.793 10.002,15.680 9.698 C 15.566 9.396,15.069 8.599,14.685 8.107 C 13.365 6.411,11.584 5.285,9.625 4.908 C 8.991 4.786,7.988 4.725,7.387 4.773 M8.171 6.864 C 8.019 6.934,7.864 7.076,7.796 7.207 C 7.770 7.257,7.746 7.380,7.739 7.497 C 7.728 7.673,7.736 7.721,7.792 7.844 C 7.863 7.998,7.987 8.138,8.107 8.200 C 8.148 8.221,8.275 8.264,8.389 8.296 C 8.790 8.406,9.041 8.554,9.290 8.830 C 9.544 9.111,9.672 9.384,9.732 9.773 C 9.773 10.038,9.866 10.217,10.030 10.347 C 10.185 10.469,10.354 10.518,10.556 10.500 C 10.750 10.482,10.892 10.411,11.030 10.261 C 11.196 10.081,11.238 9.942,11.217 9.646 C 11.167 8.927,10.838 8.245,10.268 7.680 C 9.873 7.288,9.391 7.012,8.853 6.868 C 8.531 6.782,8.349 6.781,8.171 6.864 M5.085 7.906 L 5.329 8.173 5.277 8.253 C 5.093 8.534,4.914 8.995,4.839 9.377 C 4.786 9.653,4.786 10.267,4.841 10.563 C 4.958 11.198,5.245 11.747,5.710 12.228 C 6.338 12.877,7.126 13.210,8.027 13.209 C 8.544 13.208,9.019 13.104,9.415 12.906 L 9.563 12.831 9.832 13.129 C 10.145 13.475,10.169 13.426,9.613 13.561 C 9.043 13.699,8.661 13.742,8.000 13.742 C 6.993 13.742,6.184 13.581,5.313 13.210 C 4.039 12.666,2.843 11.601,2.001 10.260 L 1.838 10.000 2.028 9.701 C 2.634 8.745,3.376 7.966,4.227 7.390 L 4.467 7.228 4.653 7.433 C 4.756 7.546,4.950 7.759,5.085 7.906 M7.449 10.507 C 8.015 11.130,8.479 11.648,8.480 11.658 C 8.480 11.690,8.236 11.720,8.000 11.717 C 7.431 11.709,6.936 11.446,6.596 10.969 C 6.377 10.662,6.244 10.190,6.281 9.856 C 6.303 9.661,6.376 9.356,6.399 9.365 C 6.409 9.370,6.882 9.883,7.449 10.507 " stroke="none" fill-rule="evenodd" fill="black"></path></svg>