<svg xmlns="http://www.w3.org/2000/svg" fill="none" viewBox="0 0 30 24">
  <path d="M4.575.091c-.514.246-.727.866-.463 1.349.062.113.647.79 1.3 1.505.652.715 1.192 1.321 1.2 1.348.007.026-.167.165-.387.309C4.051 6.026 2.028 8.18.635 10.554c-.699 1.192-.752 1.429-.458 2.044.776 1.618 2.322 3.661 3.798 5.018 2.691 2.474 5.514 3.795 9.175 4.292.737.1 3.119.084 3.9-.026 1.529-.216 2.906-.584 4.155-1.109l.315-.133.127.152c.071.083.712.794 1.425 1.58 1.383 1.522 1.509 1.629 1.931 1.627.257-.001.574-.134.732-.306a1.08 1.08 0 0 0 .209-1.04C25.879 22.469 5.869.414 5.557.183c-.257-.19-.691-.23-.982-.092M13.7 2.053c-1.101.096-1.61.189-1.846.335-.649.402-.59 1.36.107 1.717.222.114.438.118 1.164.021 2.164-.29 4.748-.02 6.707.699.79.29 2.145.983 2.871 1.468 1.245.83 2.562 2.04 3.522 3.233.411.511 1.303 1.822 1.525 2.241l.124.235-.144.262c-.274.496-1.071 1.663-1.511 2.211-.242.303-.786.899-1.209 1.325s-.799.832-.835.902c-.365.699.261 1.544 1.055 1.425.275-.041.498-.208 1.159-.864 1.319-1.309 2.529-2.93 3.312-4.436.367-.706.381-.857.126-1.408-.745-1.612-2.408-3.784-3.978-5.194-2.601-2.337-5.548-3.698-8.874-4.1-.793-.096-2.561-.135-3.275-.072M9.168 7.06c.595.651 1.082 1.208 1.082 1.236s-.103.204-.228.39c-1.017 1.511-1.272 3.525-.665 5.253a5.9 5.9 0 0 0 1.549 2.389c.52.497.905.762 1.562 1.076a5.9 5.9 0 0 0 5.223-.058l.565-.283.24.256c.599.64 1.554 1.709 1.554 1.739 0 .043-1.1.406-1.625.537-2.542.634-5.458.518-7.95-.317-3.217-1.079-6.175-3.569-8.067-6.792-.142-.242-.258-.463-.258-.491 0-.17.982-1.655 1.632-2.47.551-.69 1.738-1.885 2.388-2.403.587-.468 1.782-1.277 1.86-1.259.031.006.543.545 1.138 1.197m6.357-.865a.99.99 0 0 0-.47 1.341c.148.304.348.436.895.588.85.236 1.401.569 1.998 1.209.455.487.817 1.191.937 1.817.128.672.158.774.279.955.257.381.845.526 1.261.31.512-.266.636-.699.453-1.572-.47-2.241-2.123-4.022-4.283-4.614-.554-.152-.798-.16-1.07-.034m-1.251 6.492c2.269 2.496 2.569 2.844 2.495 2.898-.119.087-.79.3-1.141.362-.899.16-2.07-.092-2.809-.603a4.17 4.17 0 0 1-1.677-2.323c-.159-.562-.158-1.48.001-2.046.117-.417.438-1.125.51-1.125.023 0 1.203 1.277 2.621 2.837"/>
</svg>
