<svg xmlns="http://www.w3.org/2000/svg" xml:space="preserve" fill="none" viewBox="0 0 21 20"><path d="M9.380 0.021 C 7.942 0.151,6.852 0.447,5.653 1.032 C 3.965 1.856,2.537 3.139,1.524 4.743 C 1.242 5.188,0.810 6.070,0.618 6.591 C -0.072 8.467,-0.184 10.534,0.301 12.463 C 1.072 15.532,3.233 18.059,6.160 19.314 C 6.858 19.613,8.296 20.032,8.401 19.967 C 8.423 19.954,8.435 18.637,8.435 16.395 L 8.435 12.845 7.193 12.845 L 5.950 12.845 5.950 11.445 L 5.950 10.045 7.193 10.045 L 8.435 10.045 8.435 8.899 C 8.435 8.268,8.451 7.578,8.470 7.365 C 8.578 6.144,9.102 5.178,9.979 4.582 C 10.685 4.103,11.581 3.887,12.688 3.931 C 13.155 3.949,14.403 4.073,14.516 4.113 C 14.550 4.124,14.560 4.414,14.560 5.403 L 14.560 6.679 13.659 6.693 C 12.669 6.709,12.545 6.730,12.242 6.931 C 12.153 6.990,12.033 7.113,11.974 7.204 C 11.786 7.497,11.761 7.697,11.761 8.934 L 11.760 10.045 13.093 10.045 L 14.426 10.045 14.406 10.141 C 14.395 10.194,14.299 10.789,14.193 11.463 C 14.086 12.136,13.991 12.723,13.981 12.766 L 13.964 12.845 12.862 12.845 L 11.760 12.845 11.760 16.395 C 11.760 19.200,11.751 19.948,11.716 19.964 C 11.544 20.043,12.655 19.778,13.073 19.641 C 14.199 19.271,15.278 18.696,16.240 17.955 C 16.678 17.618,17.660 16.628,17.995 16.188 C 19.079 14.759,19.729 13.235,20.003 11.480 C 20.079 10.990,20.111 9.660,20.059 9.128 C 19.822 6.702,18.739 4.470,16.992 2.804 C 15.424 1.309,13.475 0.375,11.323 0.087 C 10.919 0.033,9.707 -0.008,9.380 0.021 " fill="#fff" stroke="none" fill-rule="evenodd"></path></svg>