<svg fill="none" viewBox="0 0 64 64">
  <path fill="#FFF" fill-rule="evenodd" d="M22.305 8.653a1.675 1.675 0 0 1-1.652 1.698c-3.263.044-4.826.248-6.002.848a7.9 7.9 0 0 0-3.453 3.452c-.582 1.143-.793 2.66-.844 5.767a1.676 1.676 0 1 1-3.35-.054c.05-3.07.233-5.32 1.209-7.235a11.25 11.25 0 0 1 4.916-4.916c1.961-1 4.278-1.17 7.478-1.213a1.676 1.676 0 0 1 1.698 1.653M8.653 41.694a1.676 1.676 0 0 1 1.698 1.653c.044 3.263.248 4.826.848 6.002a7.9 7.9 0 0 0 3.452 3.452c1.176.6 2.739.804 6.002.848a1.676 1.676 0 1 1-.045 3.35c-3.2-.043-5.518-.213-7.479-1.212a11.25 11.25 0 0 1-4.916-4.916c-1-1.962-1.17-4.279-1.213-7.479a1.676 1.676 0 0 1 1.653-1.698m46.694 0A1.676 1.676 0 0 1 57 43.392c-.044 3.2-.214 5.517-1.213 7.479a11.25 11.25 0 0 1-4.916 4.916c-1.916.976-4.165 1.16-7.235 1.21a1.676 1.676 0 1 1-.054-3.352c3.108-.05 4.624-.261 5.767-.844a7.9 7.9 0 0 0 3.452-3.452c.6-1.176.804-2.739.848-6.002a1.676 1.676 0 0 1 1.698-1.653M41.934 8.652a1.676 1.676 0 0 1 1.702-1.648c3.07.05 5.32.233 7.235 1.209a11.25 11.25 0 0 1 4.916 4.916c.976 1.916 1.16 4.165 1.21 7.235a1.676 1.676 0 0 1-3.351.054c-.05-3.108-.262-4.624-.845-5.768a7.9 7.9 0 0 0-3.452-3.452c-1.143-.582-2.66-.793-5.767-.844a1.676 1.676 0 0 1-1.648-1.702m-8.976 14.97c.925 0 1.675.75 1.675 1.676v8.805l.002.042a4.3 4.3 0 0 1-.109 1.06 4.43 4.43 0 0 1-1.239 2.186c-.843.819-1.886 1.078-2.568 1.164a6 6 0 0 1-1.273.02l-.031-.004-.012-.001h-.008l-.001-.001.212-1.662-.213 1.662a1.676 1.676 0 0 1 .421-3.325l.099.005c.096.003.233 0 .384-.019.338-.042.552-.143.655-.243a1.08 1.08 0 0 0 .333-.709v-.005l-.003-.037v-8.938c0-.925.75-1.676 1.676-1.676m-11.251-.119c1.058 0 1.915.857 1.915 1.915v4.188a1.915 1.915 0 1 1-3.83 0v-4.188c0-1.058.858-1.915 1.915-1.915m20.585 0c1.058 0 1.915.857 1.915 1.915v4.188a1.915 1.915 0 1 1-3.83 0v-4.188c0-1.058.858-1.915 1.915-1.915M25.919 41.742a1.676 1.676 0 0 0-2.45 2.286l1.23-1.137a195 195 0 0 0-1.229 1.138l.001.002.003.002.006.007.014.015a5 5 0 0 0 .168.166q.157.152.438.382c.374.304.917.694 1.627 1.078 1.428.772 3.525 1.518 6.273 1.518s4.845-.746 6.273-1.518c.71-.384 1.253-.774 1.627-1.078a8 8 0 0 0 .606-.548l.014-.015.006-.007.003-.002v-.002c.002 0 .002 0-1.228-1.138l1.23 1.137a1.676 1.676 0 0 0-2.45-2.285l-.002.001-.044.043c-.048.045-.13.12-.246.214-.234.19-.605.459-1.11.733-1.007.544-2.56 1.114-4.679 1.114s-3.672-.57-4.678-1.114a7 7 0 0 1-1.11-.733 4 4 0 0 1-.29-.257q-.002 0-.002-.002Z" clip-rule="evenodd"/>
</svg>
