<svg xmlns="http://www.w3.org/2000/svg" fill="none" viewBox="0 0 64 64">
  <path fill="#FFF" fill-rule="evenodd" d="M17.285 7.156c-2.937.283-5.06 1.234-6.967 3.124-2.331 2.308-3.279 5.002-3.278 9.316.001 1.173.03 1.413.213 1.712.598.981 2.129 1.037 2.795.102.203-.285.246-.57.364-2.415.074-1.151.208-2.441.296-2.867.471-2.259 2.488-4.488 4.741-5.24.721-.241 2.065-.408 4.205-.523 1.698-.091 1.878-.152 2.366-.806.316-.423.307-1.384-.018-1.839-.411-.577-.789-.682-2.391-.665-.784.008-1.83.053-2.326.101m25.498.112c-.603.419-.81.782-.81 1.425 0 .614.19.974.723 1.372.241.18.591.231 2.351.348 1.137.076 2.412.209 2.834.297 2.152.449 4.291 2.314 5.157 4.499.271.682.406 1.621.55 3.795.114 1.732.162 2.052.35 2.304.714.958 2.11.92 2.782-.076.217-.323.24-.484.24-1.679 0-1.586-.151-3.076-.433-4.284-.695-2.971-2.84-5.617-5.712-7.045-1.55-.77-2.977-1.052-5.802-1.146-1.838-.062-1.872-.059-2.23.19m-21.45 16.308c-.496.086-.774.246-1.1.634-.423.503-.523 1.26-.481 3.665.031 1.843.065 2.21.237 2.558.796 1.608 3.196 1.304 3.573-.454.152-.708.153-4.204.002-4.91-.233-1.087-1.127-1.685-2.231-1.493m20.587 0c-.788.137-1.304.656-1.484 1.493-.149.695-.151 4.198-.003 4.889a1.91 1.91 0 0 0 3.043 1.135c.652-.497.731-.828.772-3.218.024-1.364-.008-2.369-.086-2.747-.237-1.142-1.113-1.749-2.242-1.552m-9.895.344c-.19.132-.441.435-.559.674-.203.414-.213.651-.213 5.203 0 5.425.035 5.203-.833 5.38a7 7 0 0 1-.919.117c-1.246.046-1.964 1.547-1.232 2.575.499.702 1.571.911 2.975.58 1.759-.415 2.991-1.709 3.32-3.488.067-.363.098-2.441.079-5.395-.029-4.683-.035-4.811-.253-5.105-.39-.526-.871-.781-1.474-.781-.392 0-.643.067-.891.24m-8.159 17.597a1.66 1.66 0 0 0-.614.671c-.483 1-.139 1.715 1.335 2.771 3.082 2.21 7.651 2.832 11.613 1.582 2.269-.715 4.525-2.283 4.711-3.273.239-1.275-1.027-2.344-2.234-1.885-.149.056-.547.328-.885.603-.752.613-2.038 1.24-3.179 1.551-.716.195-1.136.233-2.613.233s-1.897-.038-2.613-.233c-1.13-.308-2.425-.937-3.158-1.534-.326-.265-.694-.537-.817-.603-.364-.195-1.105-.138-1.546.117m-16.015.425c-.772.454-.835.701-.775 3.018.079 3.085.488 4.857 1.509 6.546 1.702 2.816 4.295 4.618 7.468 5.191 1.014.184 4.634.341 5.106.223.469-.118.987-.66 1.134-1.186.117-.417.11-.548-.048-.963a1.9 1.9 0 0 0-.562-.77c-.366-.279-.44-.291-2.257-.372-2.095-.093-3.451-.289-4.297-.623-1.341-.528-2.882-1.876-3.657-3.197-.729-1.245-.936-2.263-1.107-5.463-.071-1.325-.118-1.619-.298-1.86-.566-.758-1.473-.981-2.216-.544m46.869-.116c-.394.157-.834.617-.949.992-.056.181-.132 1.025-.169 1.875-.112 2.528-.293 3.52-.85 4.65-.785 1.593-2.33 3.052-3.879 3.662-.821.324-2.135.525-3.931.6-1.859.079-2.158.153-2.585.639-.606.691-.544 1.617.153 2.292l.383.371 1.994-.009c2.234-.009 3.453-.178 4.907-.679 2.803-.965 5.461-3.623 6.425-6.425.468-1.361.648-2.592.705-4.834.048-1.86.036-2.057-.153-2.4-.378-.684-1.324-1.023-2.051-.734"/>
</svg>
