<svg xmlns="http://www.w3.org/2000/svg" xml:space="preserve" fill="none" viewBox="0 0 21 20">
  <path fill="#000" fill-rule="evenodd" d="M9.38.021c-1.438.13-2.528.426-3.727 1.011a10.15 10.15 0 0 0-4.129 3.711 12.4 12.4 0 0 0-.906 1.848 10 10 0 0 0-.317 5.872 10.14 10.14 0 0 0 5.859 6.851c.698.299 2.136.718 2.241.653.022-.013.034-1.33.034-3.572v-3.55H5.95v-2.8h2.485V8.899c0-.631.016-1.321.035-1.534.108-1.221.632-2.187 1.509-2.783.706-.479 1.602-.695 2.709-.651.467.018 1.715.142 1.828.182.034.011.044.301.044 1.29v1.276l-.901.014c-.99.016-1.114.037-1.417.238a1.1 1.1 0 0 0-.268.273c-.188.293-.213.493-.213 1.73l-.001 1.111h2.666l-.02.096c-.011.053-.107.648-.213 1.322-.107.673-.202 1.26-.212 1.303l-.017.079H11.76v3.55c0 2.805-.009 3.553-.044 3.569-.172.079.939-.186 1.357-.323a10.7 10.7 0 0 0 3.167-1.686c.438-.337 1.42-1.327 1.755-1.767a10.2 10.2 0 0 0 2.008-4.708c.076-.49.108-1.82.056-2.352a10.06 10.06 0 0 0-3.067-6.324A10.08 10.08 0 0 0 11.323.087C10.919.033 9.707-.008 9.38.021"/>
</svg>
