<svg xmlns="http://www.w3.org/2000/svg" fill="none" viewBox="0 0 64 64"><path d="M30.080 5.076 C 29.875 5.099,29.251 5.171,28.693 5.235 C 25.519 5.597,21.743 6.820,18.933 8.394 C 17.740 9.063,16.216 10.085,15.093 10.971 C 14.131 11.729,11.729 14.131,10.971 15.093 C 7.814 19.097,5.919 23.572,5.212 28.693 C 5.030 30.013,5.030 33.987,5.212 35.307 C 5.919 40.428,7.814 44.903,10.971 48.907 C 11.729 49.869,14.131 52.271,15.093 53.029 C 19.097 56.186,23.572 58.081,28.693 58.788 C 29.270 58.868,30.694 58.928,32.000 58.928 C 33.306 58.928,34.730 58.868,35.307 58.788 C 40.428 58.081,44.903 56.186,48.907 53.029 C 49.869 52.271,52.271 49.869,53.029 48.907 C 56.186 44.903,58.081 40.428,58.788 35.307 C 58.970 33.987,58.970 30.013,58.788 28.693 C 58.081 23.572,56.186 19.097,53.029 15.093 C 52.271 14.131,49.869 11.729,48.907 10.971 C 44.985 7.879,40.623 5.999,35.680 5.270 C 34.652 5.119,30.846 4.986,30.080 5.076 M35.267 7.204 C 45.560 8.553,53.941 16.142,56.355 26.297 C 56.784 28.103,56.960 29.759,56.960 32.000 C 56.960 36.202,56.163 39.608,54.329 43.243 C 53.047 45.784,51.757 47.554,49.655 49.655 C 46.652 52.659,43.486 54.588,39.438 55.881 C 35.559 57.120,30.604 57.327,26.532 56.420 C 16.358 54.154,8.561 45.621,7.204 35.267 C 6.989 33.627,6.989 30.373,7.204 28.733 C 8.666 17.577,17.484 8.722,28.640 7.207 C 30.144 7.003,33.719 7.001,35.267 7.204 M19.147 23.241 C 18.319 23.621,18.026 24.218,18.029 25.517 C 18.032 26.816,18.349 27.416,19.227 27.783 C 19.747 28.000,20.329 27.986,20.862 27.744 C 21.715 27.357,22.018 26.671,21.958 25.263 C 21.925 24.485,21.878 24.293,21.620 23.904 C 21.094 23.110,20.044 22.828,19.147 23.241 M43.147 23.241 C 42.319 23.621,42.026 24.218,42.029 25.517 C 42.032 26.816,42.349 27.416,43.227 27.783 C 43.747 28.000,44.329 27.986,44.862 27.744 C 45.715 27.357,46.018 26.671,45.958 25.263 C 45.925 24.485,45.878 24.293,45.620 23.904 C 45.094 23.110,44.044 22.828,43.147 23.241 M34.027 33.011 L 34.027 34.982 32.027 35.011 L 30.027 35.040 29.996 36.027 L 29.965 37.013 32.956 37.013 L 35.947 37.013 35.947 34.027 L 35.947 31.040 34.987 31.040 L 34.027 31.040 34.027 33.011 M25.387 41.818 C 25.387 42.472,25.732 43.808,26.103 44.587 C 26.619 45.670,27.887 46.955,28.986 47.507 C 31.170 48.605,33.676 48.442,35.753 47.068 L 36.151 46.804 35.565 46.079 L 34.979 45.354 34.383 45.712 C 31.743 47.302,28.258 45.858,27.455 42.843 C 27.375 42.541,27.309 42.113,27.308 41.893 L 27.307 41.493 26.347 41.493 L 25.387 41.493 25.387 41.818 " fill="#0F6148" stroke="none" fill-rule="evenodd"></path></svg>