<svg xmlns="http://www.w3.org/2000/svg" fill="none" viewBox="0 0 64 64"><path d="M17.285 7.156 C 14.348 7.439,12.225 8.390,10.318 10.280 C 7.987 12.588,7.039 15.282,7.040 19.596 C 7.041 20.769,7.070 21.009,7.253 21.308 C 7.851 22.289,9.382 22.345,10.048 21.410 C 10.251 21.125,10.294 20.840,10.412 18.995 C 10.486 17.844,10.620 16.554,10.708 16.128 C 11.179 13.869,13.196 11.640,15.449 10.888 C 16.170 10.647,17.514 10.480,19.654 10.365 C 21.352 10.274,21.532 10.213,22.020 9.559 C 22.336 9.136,22.327 8.175,22.002 7.720 C 21.591 7.143,21.213 7.038,19.611 7.055 C 18.827 7.063,17.781 7.108,17.285 7.156 M42.783 7.268 C 42.180 7.687,41.973 8.050,41.973 8.693 C 41.973 9.307,42.163 9.667,42.696 10.065 C 42.937 10.245,43.287 10.296,45.047 10.413 C 46.184 10.489,47.459 10.622,47.881 10.710 C 50.033 11.159,52.172 13.024,53.038 15.209 C 53.309 15.891,53.444 16.830,53.588 19.004 C 53.702 20.736,53.750 21.056,53.938 21.308 C 54.652 22.266,56.048 22.228,56.720 21.232 C 56.937 20.909,56.960 20.748,56.960 19.553 C 56.960 17.967,56.809 16.477,56.527 15.269 C 55.832 12.298,53.687 9.652,50.815 8.224 C 49.265 7.454,47.838 7.172,45.013 7.078 C 43.175 7.016,43.141 7.019,42.783 7.268 M21.333 23.576 C 20.837 23.662,20.559 23.822,20.233 24.210 C 19.810 24.713,19.710 25.470,19.752 27.875 C 19.783 29.718,19.817 30.085,19.989 30.433 C 20.785 32.041,23.185 31.737,23.562 29.979 C 23.714 29.271,23.715 25.775,23.564 25.069 C 23.331 23.982,22.437 23.384,21.333 23.576 M41.920 23.576 C 41.132 23.713,40.616 24.232,40.436 25.069 C 40.287 25.764,40.285 29.267,40.433 29.958 C 40.734 31.359,42.342 31.959,43.476 31.093 C 44.128 30.596,44.207 30.265,44.248 27.875 C 44.272 26.511,44.240 25.506,44.162 25.128 C 43.925 23.986,43.049 23.379,41.920 23.576 M32.025 23.920 C 31.835 24.052,31.584 24.355,31.466 24.594 C 31.263 25.008,31.253 25.245,31.253 29.797 C 31.253 35.222,31.288 35.000,30.420 35.177 C 30.145 35.233,29.731 35.285,29.501 35.294 C 28.255 35.340,27.537 36.841,28.269 37.869 C 28.768 38.571,29.840 38.780,31.244 38.449 C 33.003 38.034,34.235 36.740,34.564 34.961 C 34.631 34.598,34.662 32.520,34.643 29.566 C 34.614 24.883,34.608 24.755,34.390 24.461 C 34.000 23.935,33.519 23.680,32.916 23.680 C 32.524 23.680,32.273 23.747,32.025 23.920 M23.866 41.517 C 23.621 41.659,23.382 41.920,23.252 42.188 C 22.769 43.188,23.113 43.903,24.587 44.959 C 27.669 47.169,32.238 47.791,36.200 46.541 C 38.469 45.826,40.725 44.258,40.911 43.268 C 41.150 41.993,39.884 40.924,38.677 41.383 C 38.528 41.439,38.130 41.711,37.792 41.986 C 37.040 42.599,35.754 43.226,34.613 43.537 C 33.897 43.732,33.477 43.770,32.000 43.770 C 30.523 43.770,30.103 43.732,29.387 43.537 C 28.257 43.229,26.962 42.600,26.229 42.003 C 25.903 41.738,25.535 41.466,25.412 41.400 C 25.048 41.205,24.307 41.262,23.866 41.517 M7.851 41.942 C 7.079 42.396,7.016 42.643,7.076 44.960 C 7.155 48.045,7.564 49.817,8.585 51.506 C 10.287 54.322,12.880 56.124,16.053 56.697 C 17.067 56.881,20.687 57.038,21.159 56.920 C 21.628 56.802,22.146 56.260,22.293 55.734 C 22.410 55.317,22.403 55.186,22.245 54.771 C 22.135 54.483,21.909 54.174,21.683 54.001 C 21.317 53.722,21.243 53.710,19.426 53.629 C 17.331 53.536,15.975 53.340,15.129 53.006 C 13.788 52.478,12.247 51.130,11.472 49.809 C 10.743 48.564,10.536 47.546,10.365 44.346 C 10.294 43.021,10.247 42.727,10.067 42.486 C 9.501 41.728,8.594 41.505,7.851 41.942 M54.720 41.826 C 54.326 41.983,53.886 42.443,53.771 42.818 C 53.715 42.999,53.639 43.843,53.602 44.693 C 53.490 47.221,53.309 48.213,52.752 49.343 C 51.967 50.936,50.422 52.395,48.873 53.005 C 48.052 53.329,46.738 53.530,44.942 53.605 C 43.083 53.684,42.784 53.758,42.357 54.244 C 41.751 54.935,41.813 55.861,42.510 56.536 L 42.893 56.907 44.887 56.898 C 47.121 56.889,48.340 56.720,49.794 56.219 C 52.597 55.254,55.255 52.596,56.219 49.794 C 56.687 48.433,56.867 47.202,56.924 44.960 C 56.972 43.100,56.960 42.903,56.771 42.560 C 56.393 41.876,55.447 41.537,54.720 41.826 " fill="#FFF" stroke="none" fill-rule="evenodd"></path></svg>