<svg xmlns="http://www.w3.org/2000/svg" fill="none" viewBox="0 0 24 24"><path d="M5.840 2.037 L 4.820 2.060 4.548 2.189 C 4.226 2.342,3.858 2.678,3.704 2.960 C 3.608 3.137,3.591 3.224,3.559 3.730 C 3.512 4.453,3.511 19.886,3.557 20.407 C 3.601 20.896,3.739 21.176,4.104 21.517 C 4.429 21.822,4.682 21.921,5.240 21.963 C 5.788 22.005,18.212 22.005,18.760 21.963 C 19.318 21.921,19.571 21.822,19.896 21.517 C 20.245 21.191,20.395 20.899,20.442 20.450 C 20.462 20.253,20.479 17.442,20.479 14.038 L 20.480 7.976 20.356 7.778 C 20.178 7.493,14.955 2.284,14.700 2.136 L 14.500 2.020 10.680 2.017 C 8.579 2.015,6.401 2.024,5.840 2.037 M13.288 6.270 C 13.298 8.025,13.313 8.567,13.353 8.660 C 13.424 8.823,13.584 8.986,13.800 9.114 L 13.980 9.220 16.250 9.234 L 18.520 9.247 18.520 14.624 L 18.520 20.000 12.000 20.000 L 5.480 20.000 5.480 12.000 L 5.480 4.000 9.378 4.000 L 13.276 4.000 13.288 6.270 M17.040 7.230 C 17.040 7.269,16.837 7.280,16.140 7.280 L 15.240 7.280 15.240 6.330 L 15.240 5.381 16.140 6.280 C 16.635 6.775,17.040 7.202,17.040 7.230 " stroke="none" fill-rule="evenodd"></path></svg>