<svg xmlns="http://www.w3.org/2000/svg" fill="none" viewBox="0 0 24 24">
  <path fill="#000" d="m5.84 2.037-1.02.023-.272.129c-.322.153-.69.489-.844.771-.096.177-.113.264-.145.77-.047.723-.048 16.156-.002 16.677.044.489.182.769.547 1.11.325.305.578.404 1.136.446.548.042 12.972.042 13.52 0 .558-.042.811-.141 1.136-.446.349-.326.499-.618.546-1.067.02-.197.037-3.008.037-6.412l.001-6.062-.124-.198c-.178-.285-5.401-5.494-5.656-5.642l-.2-.116-3.82-.003c-2.101-.002-4.279.007-4.84.02m7.448 4.233c.01 1.755.025 2.297.065 2.39.071.163.231.326.447.454l.18.106 2.27.014 2.27.013V20H5.48V4h7.796zm3.752.96c0 .039-.203.05-.9.05h-.9V5.381l.9.899c.495.495.9.922.9.95"/>
</svg>
