<svg xmlns="http://www.w3.org/2000/svg" viewBox="0 0 21 20"><path d="M10.325 0.024 C 9.011 0.118,7.649 0.443,7.231 0.762 C 6.905 1.010,6.767 1.394,6.873 1.758 C 6.982 2.131,7.432 2.501,7.769 2.495 C 7.856 2.494,8.222 2.421,8.581 2.333 C 9.614 2.080,9.852 2.055,11.039 2.074 C 12.140 2.092,12.263 2.109,13.141 2.367 C 15.044 2.927,16.737 4.292,17.740 6.077 C 18.534 7.489,18.800 8.705,18.748 10.693 C 18.711 12.105,18.597 13.223,18.333 14.735 C 18.155 15.761,18.137 16.213,18.265 16.437 C 18.358 16.599,18.610 16.804,18.791 16.865 C 18.948 16.918,19.327 16.916,19.508 16.862 C 19.710 16.802,19.924 16.577,20.019 16.324 C 20.270 15.661,20.559 13.902,20.707 12.145 C 20.792 11.141,20.792 9.392,20.709 8.768 C 20.522 7.378,20.053 6.035,19.331 4.824 C 18.566 3.541,17.420 2.370,16.163 1.589 C 15.725 1.317,14.723 0.812,14.276 0.637 C 13.250 0.238,11.382 -0.052,10.325 0.024 M4.323 2.451 C 4.093 2.596,3.420 3.281,3.033 3.764 C 2.259 4.730,1.754 5.658,1.362 6.831 C 1.037 7.803,0.952 8.278,0.840 9.748 C 0.711 11.442,0.643 11.835,0.324 12.740 C 0.040 13.549,0.025 13.606,0.051 13.806 C 0.121 14.334,0.509 14.679,1.033 14.678 C 1.318 14.678,1.497 14.602,1.699 14.394 C 1.967 14.119,2.368 13.110,2.572 12.198 C 2.693 11.659,2.781 10.961,2.851 9.993 C 2.983 8.169,3.127 7.562,3.695 6.440 C 4.114 5.612,4.405 5.199,5.159 4.358 C 5.384 4.107,5.613 3.836,5.667 3.754 C 5.926 3.368,5.782 2.763,5.362 2.469 C 5.223 2.372,5.185 2.363,4.854 2.352 C 4.504 2.340,4.494 2.342,4.323 2.451 M9.695 4.624 C 8.767 4.819,8.076 5.158,7.323 5.789 C 6.548 6.440,6.169 6.958,5.757 7.928 C 5.462 8.622,5.393 8.982,5.303 10.273 C 5.154 12.417,4.927 13.455,4.296 14.875 C 3.799 15.997,3.709 16.211,3.675 16.364 C 3.552 16.911,4.128 17.507,4.728 17.455 C 5.201 17.413,5.490 17.100,5.918 16.164 C 6.822 14.184,7.200 12.587,7.333 10.185 C 7.396 9.049,7.596 8.442,8.119 7.796 C 8.453 7.385,8.915 7.028,9.423 6.790 C 9.809 6.610,9.942 6.584,10.615 6.557 C 11.775 6.511,12.231 6.673,13.257 7.493 C 13.791 7.919,13.887 7.962,14.254 7.936 C 14.663 7.907,14.986 7.635,15.107 7.217 C 15.179 6.968,15.134 6.672,14.992 6.467 C 14.835 6.241,14.225 5.685,13.883 5.456 C 13.494 5.195,12.825 4.868,12.433 4.746 C 11.783 4.543,10.380 4.481,9.695 4.624 M10.486 9.048 C 10.208 9.154,9.939 9.436,9.872 9.692 C 9.853 9.761,9.813 10.188,9.783 10.640 C 9.694 11.954,9.630 12.443,9.364 13.843 C 9.217 14.614,9.246 14.813,9.554 15.123 C 9.953 15.525,10.522 15.537,10.919 15.151 C 11.103 14.974,11.176 14.801,11.325 14.197 C 11.593 13.105,11.750 11.871,11.783 10.587 C 11.808 9.652,11.810 9.661,11.563 9.356 C 11.330 9.069,10.816 8.922,10.486 9.048 M14.985 9.038 C 14.828 9.091,14.504 9.391,14.414 9.566 C 14.356 9.680,14.334 9.835,14.295 10.392 C 14.186 11.946,14.170 12.148,14.120 12.600 C 13.954 14.104,13.662 15.334,13.000 17.321 C 12.818 17.867,12.660 18.373,12.648 18.446 C 12.592 18.796,12.950 19.297,13.346 19.424 C 13.528 19.482,13.816 19.475,13.977 19.407 C 14.421 19.222,14.696 18.688,15.211 17.016 C 15.441 16.269,15.742 15.084,15.887 14.363 C 16.164 12.981,16.373 10.637,16.283 9.936 C 16.206 9.345,15.907 9.060,15.316 9.015 C 15.199 9.006,15.050 9.016,14.985 9.038 M8.884 16.517 C 8.724 16.569,8.476 16.761,8.371 16.915 C 8.153 17.232,7.623 18.372,7.578 18.621 C 7.518 18.947,7.878 19.456,8.258 19.582 C 8.656 19.714,9.067 19.589,9.327 19.259 C 9.519 19.014,9.977 18.127,10.098 17.764 C 10.202 17.454,10.198 17.321,10.077 17.046 C 9.928 16.711,9.625 16.516,9.223 16.498 C 9.088 16.492,8.936 16.500,8.884 16.517 " stroke="none" fill-rule="evenodd" fill="black"></path></svg>