<svg xmlns="http://www.w3.org/2000/svg" viewBox="0 0 21 20">
  <path fill-rule="evenodd" d="M10.325.024C9.011.118 7.649.443 7.231.762c-.326.248-.464.632-.358.996.109.373.559.743.896.737.087-.001.453-.074.812-.162 1.033-.253 1.271-.278 2.458-.259 1.101.018 1.224.035 2.102.293 1.903.56 3.596 1.925 4.599 3.71.794 1.412 1.06 2.628 1.008 4.616-.037 1.412-.151 2.53-.415 4.042-.178 1.026-.196 1.478-.068 1.702.093.162.345.367.526.428.157.053.536.051.717-.003.202-.06.416-.285.511-.538.251-.663.54-2.422.688-4.179.085-1.004.085-2.753.002-3.377a10.4 10.4 0 0 0-1.378-3.944 9.86 9.86 0 0 0-3.168-3.235 16 16 0 0 0-1.887-.952C13.25.238 11.382-.052 10.325.024M4.323 2.451c-.23.145-.903.83-1.29 1.313a9.4 9.4 0 0 0-1.671 3.067c-.325.972-.41 1.447-.522 2.917-.129 1.694-.197 2.087-.516 2.992-.284.809-.299.866-.273 1.066.07.528.458.873.982.872.285 0 .464-.076.666-.284.268-.275.669-1.284.873-2.196.121-.539.209-1.237.279-2.205.132-1.824.276-2.431.844-3.553.419-.828.71-1.241 1.464-2.082.225-.251.454-.522.508-.604.259-.386.115-.991-.305-1.285-.139-.097-.177-.106-.508-.117-.35-.012-.36-.01-.531.099m5.372 2.173c-.928.195-1.619.534-2.372 1.165-.775.651-1.154 1.169-1.566 2.139-.295.694-.364 1.054-.454 2.345-.149 2.144-.376 3.182-1.007 4.602-.497 1.122-.587 1.336-.621 1.489-.123.547.453 1.143 1.053 1.091.473-.042.762-.355 1.19-1.291.904-1.98 1.282-3.577 1.415-5.979.063-1.136.263-1.743.786-2.389A3.8 3.8 0 0 1 9.423 6.79c.386-.18.519-.206 1.192-.233 1.16-.046 1.616.116 2.642.936.534.426.63.469.997.443.409-.029.732-.301.853-.719a.92.92 0 0 0-.115-.75c-.157-.226-.767-.782-1.109-1.011-.389-.261-1.058-.588-1.45-.71-.65-.203-2.053-.265-2.738-.122m.791 4.424c-.278.106-.547.388-.614.644-.019.069-.059.496-.089.948-.089 1.314-.153 1.803-.419 3.203-.147.771-.118.97.19 1.28.399.402.968.414 1.365.028.184-.177.257-.35.406-.954.268-1.092.425-2.326.458-3.61.025-.935.027-.926-.22-1.231-.233-.287-.747-.434-1.077-.308m4.499-.01c-.157.053-.481.353-.571.528-.058.114-.08.269-.119.826-.109 1.554-.125 1.756-.175 2.208-.166 1.504-.458 2.734-1.12 4.721a20 20 0 0 0-.352 1.125c-.056.35.302.851.698.978.182.058.47.051.631-.017.444-.185.719-.719 1.234-2.391.23-.747.531-1.932.676-2.653.277-1.382.486-3.726.396-4.427-.077-.591-.376-.876-.967-.921a1 1 0 0 0-.331.023m-6.101 7.479a1.25 1.25 0 0 0-.513.398c-.218.317-.748 1.457-.793 1.706-.06.326.3.835.68.961a.95.95 0 0 0 1.069-.323c.192-.245.65-1.132.771-1.495.104-.31.1-.443-.021-.718-.149-.335-.452-.53-.854-.548a1.4 1.4 0 0 0-.339.019"/>
</svg>
