<svg xmlns="http://www.w3.org/2000/svg" viewBox="0 0 16 16"><path d="M8.037 0.799 C 7.604 0.866,7.119 1.128,6.749 1.495 C 6.327 1.912,6.056 2.487,6.008 3.069 L 5.993 3.246 4.883 3.260 C 3.946 3.272,3.751 3.282,3.627 3.320 C 3.199 3.451,2.837 3.877,2.772 4.325 C 2.759 4.418,2.747 4.891,2.747 5.376 L 2.747 6.259 2.520 6.278 C 1.521 6.359,0.690 7.042,0.343 8.067 C 0.285 8.239,0.280 8.294,0.283 8.760 L 0.285 9.267 0.380 9.526 C 0.624 10.194,1.054 10.687,1.642 10.976 C 1.899 11.102,2.291 11.214,2.574 11.243 L 2.747 11.261 2.747 12.090 C 2.747 13.085,2.768 13.310,2.881 13.540 C 2.992 13.765,3.253 14.024,3.485 14.138 L 3.664 14.226 8.239 14.236 C 11.226 14.242,12.914 14.236,13.102 14.218 C 13.325 14.197,13.426 14.174,13.540 14.118 C 13.747 14.016,14.019 13.739,14.141 13.503 L 14.240 13.312 14.240 11.720 L 14.240 10.127 14.155 9.968 C 14.109 9.881,14.022 9.768,13.963 9.718 C 13.766 9.549,13.560 9.536,13.147 9.668 C 12.951 9.730,12.889 9.738,12.692 9.727 C 12.542 9.718,12.421 9.695,12.337 9.658 C 12.178 9.587,11.949 9.355,11.857 9.171 C 11.794 9.045,11.787 8.999,11.787 8.747 C 11.787 8.493,11.794 8.449,11.859 8.319 C 11.950 8.134,12.134 7.954,12.327 7.860 C 12.458 7.796,12.508 7.787,12.725 7.787 C 12.896 7.787,13.032 7.804,13.160 7.841 C 13.422 7.917,13.721 7.917,13.877 7.841 C 14.051 7.757,14.178 7.605,14.205 7.449 C 14.217 7.378,14.227 6.618,14.227 5.760 L 14.227 4.200 14.127 3.991 C 14.001 3.727,13.784 3.506,13.534 3.387 C 13.304 3.277,13.023 3.255,11.877 3.254 L 11.020 3.253 11.002 3.090 C 10.952 2.654,10.758 2.132,10.524 1.804 C 10.388 1.615,10.098 1.329,9.912 1.203 C 9.704 1.061,9.253 0.859,9.080 0.830 C 8.857 0.793,8.201 0.773,8.037 0.799 M8.911 2.349 C 9.158 2.474,9.346 2.678,9.429 2.910 C 9.497 3.101,9.482 3.408,9.388 3.733 C 9.289 4.074,9.288 4.138,9.375 4.314 C 9.451 4.466,9.566 4.569,9.779 4.677 L 9.918 4.747 11.332 4.747 L 12.747 4.747 12.747 5.501 L 12.747 6.255 12.473 6.288 C 12.132 6.328,11.853 6.413,11.583 6.559 C 11.013 6.865,10.595 7.358,10.376 7.981 L 10.280 8.253 10.281 8.733 C 10.281 9.120,10.291 9.244,10.330 9.373 C 10.648 10.419,11.444 11.106,12.487 11.233 L 12.747 11.265 12.747 12.006 L 12.747 12.747 8.507 12.747 L 4.267 12.747 4.266 12.127 C 4.264 11.080,4.224 10.076,4.179 9.968 C 4.097 9.773,3.869 9.627,3.612 9.607 C 3.489 9.597,3.379 9.611,3.161 9.667 C 2.670 9.792,2.350 9.733,2.077 9.466 C 1.844 9.238,1.787 9.096,1.787 8.744 C 1.787 8.483,1.793 8.450,1.867 8.300 C 1.960 8.115,2.123 7.953,2.317 7.855 C 2.435 7.795,2.485 7.787,2.723 7.787 C 2.953 7.787,3.033 7.799,3.251 7.869 C 3.446 7.932,3.534 7.948,3.625 7.936 C 3.850 7.905,4.048 7.742,4.183 7.474 C 4.238 7.366,4.240 7.329,4.240 6.394 C 4.240 5.862,4.248 5.274,4.258 5.087 L 4.275 4.747 5.712 4.747 L 7.148 4.747 7.274 4.682 C 7.442 4.597,7.559 4.468,7.611 4.312 C 7.667 4.142,7.664 3.980,7.598 3.707 C 7.562 3.558,7.544 3.390,7.543 3.217 C 7.543 2.988,7.552 2.936,7.613 2.812 C 7.695 2.644,7.913 2.436,8.112 2.334 C 8.245 2.266,8.268 2.263,8.525 2.276 C 8.732 2.287,8.823 2.304,8.911 2.349 " stroke="none" fill-rule="evenodd" fill="black"></path></svg>