<svg xmlns="http://www.w3.org/2000/svg" fill="none" viewBox="0 0 16 17">
  <path fill="#fff" d="M15.134 2.184a.63.63 0 0 0-.668.097c-2.188 1.892-4.041.975-6.189-.088C6.052 1.091 3.53-.157.716 2.281A.63.63 0 0 0 .5 2.75v13.125a.625.625 0 1 0 1.25 0v-3.456c2.093-1.653 3.896-.761 5.973.267 2.225 1.1 4.747 2.348 7.561-.088a.63.63 0 0 0 .216-.47V2.75a.63.63 0 0 0-.366-.566m-.884 1.785v3.488c-1.094.864-2.11 1.033-3.125.85V4.573a4.7 4.7 0 0 0 3.125-.604m-4.375.293v3.672c-.52-.208-1.05-.468-1.598-.741-.689-.34-1.406-.695-2.152-.95V2.57c.52.208 1.05.47 1.598.74.689.342 1.407.697 2.152.952m-5-2.066V5.93a4.7 4.7 0 0 0-3.125.605v-3.49c1.094-.864 2.11-1.032 3.125-.849m-.736 8.054a4.7 4.7 0 0 0-2.389.659V8.045c1.094-.864 2.11-1.033 3.125-.85v3.11a5 5 0 0 0-.736-.055m1.986.365V7.568c.52.208 1.05.469 1.598.74.689.342 1.406.696 2.152.951v3.047a23 23 0 0 1-1.598-.74c-.689-.342-1.407-.696-2.152-.951m5 2.066v-3.11q.366.055.736.057a4.7 4.7 0 0 0 2.389-.662v2.866c-1.094.864-2.11 1.032-3.125.85"/>
</svg>
