<svg xmlns="http://www.w3.org/2000/svg" xml:space="preserve" fill="none" viewBox="0 0 24 24"><path d="M6.900 2.485 C 5.794 2.561,4.675 2.968,3.643 3.669 C 3.276 3.918,3.167 4.015,3.093 4.156 L 3.000 4.333 3.000 12.321 C 3.000 16.715,3.012 20.370,3.027 20.444 C 3.043 20.527,3.125 20.648,3.242 20.765 C 3.394 20.918,3.466 20.959,3.619 20.982 C 3.959 21.033,4.253 20.888,4.401 20.598 C 4.477 20.450,4.480 20.354,4.480 18.304 L 4.480 16.166 4.590 16.079 C 4.777 15.931,5.642 15.526,6.000 15.419 C 6.972 15.129,7.836 15.134,9.006 15.436 C 9.646 15.601,10.262 15.831,11.760 16.460 C 13.299 17.107,13.884 17.322,14.593 17.504 C 16.119 17.895,17.327 17.882,18.620 17.461 C 19.390 17.211,20.658 16.473,20.871 16.151 L 20.980 15.986 20.991 10.167 L 21.001 4.347 20.916 4.171 C 20.811 3.955,20.586 3.798,20.343 3.770 C 20.087 3.741,20.026 3.765,19.538 4.082 C 18.823 4.547,18.304 4.776,17.580 4.945 C 17.102 5.057,16.007 5.049,15.460 4.930 C 14.588 4.740,13.941 4.506,11.859 3.631 C 10.690 3.139,9.962 2.879,9.313 2.720 C 8.422 2.502,7.685 2.430,6.900 2.485 M8.557 4.075 C 9.408 4.259,10.067 4.497,12.141 5.369 C 13.632 5.996,14.390 6.245,15.340 6.422 C 16.652 6.666,18.205 6.483,19.234 5.963 C 19.364 5.897,19.482 5.855,19.495 5.869 C 19.509 5.882,19.520 8.022,19.520 10.624 L 19.520 15.354 19.290 15.493 C 18.377 16.042,17.546 16.283,16.560 16.283 C 15.606 16.283,14.634 16.033,13.080 15.388 C 12.739 15.247,12.082 14.974,11.620 14.782 C 9.737 14.000,8.624 13.720,7.410 13.720 C 6.395 13.721,5.570 13.911,4.530 14.386 C 4.490 14.404,4.480 13.445,4.480 9.665 L 4.480 4.921 4.639 4.805 C 5.142 4.441,6.061 4.095,6.820 3.984 C 7.122 3.941,8.192 3.996,8.557 4.075 " stroke="none" fill-rule="evenodd" fill="black"></path></svg>