<svg xmlns="http://www.w3.org/2000/svg" viewBox="0 0 12 12"><path d="M3.550 1.013 C 3.080 1.069,2.666 1.269,2.339 1.598 C 2.085 1.854,1.917 2.149,1.815 2.516 C 1.779 2.646,1.772 2.724,1.773 3.010 C 1.773 3.322,1.777 3.365,1.827 3.530 C 1.899 3.768,1.977 3.932,2.121 4.151 C 2.186 4.251,2.240 4.341,2.240 4.351 C 2.239 4.361,2.179 4.404,2.105 4.446 C 1.752 4.644,1.378 4.970,1.139 5.285 C 0.968 5.512,0.942 5.636,1.032 5.816 C 1.087 5.927,1.199 6.036,1.317 6.092 C 1.423 6.143,1.598 6.152,1.678 6.111 C 1.713 6.093,1.856 5.961,1.996 5.817 C 2.368 5.436,2.556 5.305,2.953 5.152 C 3.248 5.038,3.409 5.014,3.827 5.025 C 4.143 5.033,4.212 5.041,4.360 5.086 C 4.828 5.227,5.201 5.468,5.522 5.837 C 5.891 6.261,6.102 6.264,6.465 5.851 C 6.800 5.470,7.165 5.230,7.630 5.087 C 7.803 5.034,7.827 5.032,8.240 5.032 C 8.720 5.032,8.826 5.051,9.146 5.189 C 9.465 5.327,9.607 5.429,9.971 5.784 C 10.175 5.982,10.336 6.123,10.368 6.131 C 10.447 6.151,10.599 6.132,10.683 6.092 C 10.859 6.008,11.020 5.797,11.020 5.649 C 11.020 5.475,10.871 5.254,10.536 4.928 C 10.348 4.746,9.971 4.468,9.815 4.398 C 9.785 4.385,9.760 4.364,9.760 4.353 C 9.760 4.341,9.814 4.251,9.879 4.151 C 10.023 3.932,10.101 3.768,10.173 3.530 C 10.223 3.365,10.227 3.322,10.227 3.010 C 10.228 2.724,10.221 2.646,10.185 2.516 C 10.081 2.143,9.917 1.855,9.661 1.598 C 9.424 1.361,9.159 1.200,8.820 1.089 C 8.667 1.039,8.615 1.032,8.308 1.025 C 7.929 1.015,7.765 1.042,7.484 1.159 C 6.563 1.541,6.060 2.561,6.321 3.520 C 6.375 3.718,6.531 4.036,6.659 4.210 C 6.734 4.313,6.755 4.354,6.736 4.365 C 6.471 4.524,6.305 4.634,6.168 4.744 L 6.000 4.879 5.832 4.744 C 5.695 4.634,5.529 4.524,5.264 4.365 C 5.245 4.354,5.265 4.313,5.340 4.210 C 5.472 4.029,5.606 3.756,5.673 3.530 C 5.722 3.366,5.727 3.319,5.728 3.010 C 5.729 2.713,5.724 2.648,5.683 2.500 C 5.531 1.947,5.140 1.470,4.630 1.218 C 4.306 1.058,3.869 0.975,3.550 1.013 M3.930 2.022 C 4.192 2.070,4.495 2.288,4.616 2.516 C 4.930 3.104,4.618 3.805,3.971 3.970 C 3.456 4.101,2.890 3.746,2.782 3.224 C 2.696 2.810,2.866 2.389,3.208 2.171 C 3.436 2.025,3.679 1.975,3.930 2.022 M8.430 2.022 C 8.692 2.070,8.995 2.288,9.116 2.516 C 9.430 3.104,9.118 3.805,8.471 3.970 C 7.956 4.101,7.390 3.746,7.282 3.224 C 7.196 2.810,7.366 2.389,7.708 2.171 C 7.936 2.025,8.179 1.975,8.430 2.022 M3.500 5.903 C 3.406 5.910,3.282 5.931,3.224 5.949 C 2.519 6.169,2.033 6.656,1.828 7.350 C 1.757 7.593,1.740 7.986,1.789 8.250 C 1.842 8.530,1.987 8.849,2.189 9.129 L 2.260 9.227 2.133 9.301 C 1.764 9.515,1.477 9.751,1.241 10.034 C 0.995 10.328,0.947 10.454,1.004 10.644 C 1.056 10.818,1.284 10.993,1.487 11.014 C 1.656 11.031,1.754 10.968,2.008 10.677 C 2.326 10.313,2.775 10.048,3.269 9.935 C 3.509 9.880,3.954 9.876,4.196 9.928 C 4.598 10.013,4.955 10.186,5.263 10.445 C 5.314 10.488,5.434 10.612,5.530 10.721 C 5.625 10.830,5.734 10.938,5.771 10.961 C 5.856 11.013,6.023 11.032,6.136 11.001 C 6.226 10.977,6.237 10.968,6.604 10.586 C 6.820 10.362,6.980 10.246,7.261 10.112 C 7.765 9.870,8.340 9.820,8.875 9.970 C 9.278 10.084,9.725 10.367,9.998 10.683 C 10.243 10.965,10.345 11.031,10.513 11.014 C 10.784 10.986,11.021 10.744,11.020 10.498 C 11.018 10.230,10.483 9.668,9.902 9.322 L 9.741 9.226 9.811 9.128 C 10.013 8.849,10.158 8.529,10.211 8.250 C 10.260 7.986,10.243 7.593,10.172 7.350 C 10.112 7.146,9.993 6.885,9.897 6.745 C 9.702 6.462,9.360 6.186,9.027 6.042 C 8.735 5.917,8.692 5.910,8.250 5.910 C 7.808 5.910,7.765 5.917,7.473 6.042 C 7.140 6.186,6.798 6.462,6.603 6.745 C 6.507 6.885,6.388 7.146,6.328 7.350 C 6.257 7.593,6.240 7.986,6.289 8.250 C 6.342 8.529,6.487 8.849,6.688 9.128 L 6.759 9.226 6.565 9.344 C 6.458 9.409,6.287 9.526,6.185 9.603 L 6.000 9.744 5.815 9.603 C 5.713 9.526,5.542 9.409,5.435 9.344 L 5.241 9.226 5.312 9.128 C 5.629 8.688,5.753 8.299,5.735 7.800 C 5.723 7.485,5.672 7.281,5.532 6.990 C 5.377 6.667,5.112 6.376,4.798 6.182 C 4.411 5.944,4.030 5.862,3.500 5.903 M3.928 6.900 C 4.350 6.969,4.698 7.341,4.730 7.761 C 4.757 8.105,4.670 8.354,4.445 8.578 C 4.289 8.733,4.154 8.807,3.940 8.851 C 3.406 8.963,2.866 8.595,2.777 8.058 C 2.747 7.872,2.771 7.616,2.833 7.486 C 3.041 7.045,3.457 6.822,3.928 6.900 M8.428 6.900 C 8.850 6.969,9.198 7.341,9.230 7.761 C 9.257 8.105,9.170 8.354,8.945 8.578 C 8.789 8.733,8.654 8.807,8.440 8.851 C 7.906 8.963,7.366 8.595,7.277 8.058 C 7.247 7.872,7.271 7.616,7.333 7.486 C 7.541 7.045,7.957 6.822,8.428 6.900 " stroke="none" fill-rule="evenodd" fill="black"></path></svg>