<svg xmlns="http://www.w3.org/2000/svg" viewBox="0 0 12 12">
  <path fill-rule="evenodd" d="M3.55 1.013a2.03 2.03 0 0 0-1.735 1.503c-.036.13-.043.208-.042.494 0 .312.004.355.054.52.072.238.15.402.294.621.065.1.119.19.119.2a.5.5 0 0 1-.135.095 3.4 3.4 0 0 0-.966.839c-.171.227-.197.351-.107.531.055.111.167.22.285.276.106.051.281.06.361.019.035-.018.178-.15.318-.294.372-.381.56-.512.957-.665.295-.114.456-.138.874-.127.316.008.385.016.533.061.468.141.841.382 1.162.751.369.424.58.427.943.014.335-.381.7-.621 1.165-.764.173-.053.197-.055.61-.055.48 0 .586.019.906.157.319.138.461.24.825.595.204.198.365.339.397.347a.6.6 0 0 0 .315-.039c.176-.084.337-.295.337-.443 0-.174-.149-.395-.484-.721-.188-.182-.565-.46-.721-.53-.03-.013-.055-.034-.055-.045 0-.012.054-.102.119-.202.144-.219.222-.383.294-.621.05-.165.054-.208.054-.52.001-.286-.006-.364-.042-.494A2.04 2.04 0 0 0 8.82 1.089c-.153-.05-.205-.057-.512-.064-.379-.01-.543.017-.824.134A2 2 0 0 0 6.321 3.52c.054.198.21.516.338.69.075.103.096.144.077.155a5 5 0 0 0-.568.379L6 4.879l-.168-.135a5 5 0 0 0-.568-.379c-.019-.011.001-.052.076-.155.132-.181.266-.454.333-.68.049-.164.054-.211.055-.52.001-.297-.004-.362-.045-.51A2.05 2.05 0 0 0 4.63 1.218c-.324-.16-.761-.243-1.08-.205m.38 1.009c.262.048.565.266.686.494a1 1 0 0 1-.645 1.454c-.515.131-1.081-.224-1.189-.746a1 1 0 0 1 .426-1.053.97.97 0 0 1 .722-.149m4.5 0c.262.048.565.266.686.494a1 1 0 0 1-.645 1.454c-.515.131-1.081-.224-1.189-.746a1 1 0 0 1 .426-1.053.97.97 0 0 1 .722-.149M3.5 5.903a1.6 1.6 0 0 0-.276.046c-.705.22-1.191.707-1.396 1.401a2.3 2.3 0 0 0-.039.9c.053.28.198.599.4.879l.071.098-.127.074c-.369.214-.656.45-.892.733-.246.294-.294.42-.237.61.052.174.28.349.483.37.169.017.267-.046.521-.337a2.4 2.4 0 0 1 1.261-.742c.24-.055.685-.059.927-.007q.604.128 1.067.517c.051.043.171.167.267.276.095.109.204.217.241.24a.54.54 0 0 0 .365.04c.09-.024.101-.033.468-.415.216-.224.376-.34.657-.474a2.3 2.3 0 0 1 1.614-.142 2.5 2.5 0 0 1 1.123.713c.245.282.347.348.515.331.271-.028.508-.27.507-.516-.002-.268-.537-.83-1.118-1.176l-.161-.096.07-.098c.202-.279.347-.599.4-.878a2.3 2.3 0 0 0-.039-.9 2.5 2.5 0 0 0-.275-.605 2.2 2.2 0 0 0-.87-.703c-.292-.125-.335-.132-.777-.132s-.485.007-.777.132c-.333.144-.675.42-.87.703a2.5 2.5 0 0 0-.275.605 2.3 2.3 0 0 0-.039.9c.053.279.198.599.399.878l.071.098-.194.118a6 6 0 0 0-.38.259L6 9.744l-.185-.141a6 6 0 0 0-.38-.259l-.194-.118.071-.098c.317-.44.441-.829.423-1.328a1.8 1.8 0 0 0-.203-.81 2 2 0 0 0-.734-.808c-.387-.238-.768-.32-1.298-.279m.428.997c.422.069.77.441.802.861.027.344-.06.593-.285.817a.9.9 0 0 1-.505.273.987.987 0 0 1-1.163-.793c-.03-.186-.006-.442.056-.572.208-.441.624-.664 1.095-.586m4.5 0c.422.069.77.441.802.861.027.344-.06.593-.285.817a.9.9 0 0 1-.505.273.987.987 0 0 1-1.163-.793c-.03-.186-.006-.442.056-.572.208-.441.624-.664 1.095-.586"/>
</svg>
