<svg xmlns="http://www.w3.org/2000/svg" viewBox="0 0 24 24"><path d="M11.030 2.490 C 10.863 2.606,10.545 2.859,10.325 3.053 C 8.645 4.531,7.668 6.172,7.776 7.336 C 7.851 8.148,8.278 9.529,8.936 11.092 C 9.264 11.869,9.474 12.327,10.551 14.603 C 11.887 17.427,12.220 18.200,12.405 18.900 C 12.489 19.220,12.499 19.343,12.496 20.000 C 12.492 20.870,12.450 21.117,12.076 22.457 C 11.942 22.940,11.829 23.417,11.826 23.517 L 11.820 23.700 11.954 23.694 C 12.440 23.671,14.352 21.712,15.366 20.200 C 15.938 19.346,16.148 18.778,16.104 18.200 C 16.006 16.903,15.344 15.203,13.080 10.440 C 11.546 7.212,11.428 6.894,11.360 5.809 C 11.317 5.113,11.360 3.920,11.459 3.058 C 11.526 2.481,11.507 2.280,11.388 2.280 C 11.359 2.280,11.198 2.374,11.030 2.490 M4.456 4.755 C 3.907 5.116,2.988 6.054,2.557 6.693 C 2.282 7.102,2.022 7.621,1.963 7.880 C 1.940 7.979,1.922 8.206,1.921 8.385 C 1.918 9.435,2.352 10.613,4.139 14.400 C 4.925 16.065,5.114 16.483,5.318 16.998 C 5.558 17.605,5.581 17.738,5.575 18.540 C 5.570 19.320,5.579 19.276,5.142 20.914 C 5.068 21.190,5.053 21.309,5.082 21.364 C 5.136 21.464,5.155 21.461,5.363 21.323 C 6.085 20.843,7.374 19.412,8.015 18.377 C 8.343 17.847,8.414 17.626,8.413 17.140 C 8.412 16.208,7.932 14.956,6.059 11.000 C 5.233 9.256,4.993 8.708,4.850 8.240 C 4.752 7.920,4.745 7.839,4.729 6.888 C 4.717 6.131,4.729 5.724,4.778 5.276 C 4.814 4.946,4.832 4.660,4.819 4.638 C 4.777 4.571,4.698 4.596,4.456 4.755 M18.016 4.754 C 17.437 5.131,16.570 6.017,16.113 6.698 C 15.636 7.409,15.480 7.824,15.480 8.383 C 15.480 9.422,15.991 10.813,17.659 14.320 C 19.059 17.261,19.189 17.640,19.148 18.658 C 19.124 19.246,19.097 19.386,18.764 20.657 C 18.672 21.007,18.606 21.318,18.617 21.347 C 18.737 21.660,20.068 20.431,21.120 19.035 C 21.930 17.960,22.092 17.477,21.922 16.640 C 21.733 15.708,21.262 14.508,20.191 12.220 C 18.147 7.859,18.313 8.326,18.291 6.880 C 18.280 6.170,18.293 5.684,18.333 5.282 C 18.365 4.965,18.383 4.681,18.372 4.652 C 18.340 4.569,18.269 4.590,18.016 4.754 " stroke="none" fill-rule="evenodd" fill="black"></path></svg>