<svg xmlns="http://www.w3.org/2000/svg" viewBox="0 0 24 24">
  <path fill-rule="evenodd" d="M11.03 2.49a10 10 0 0 0-.705.563c-1.68 1.478-2.657 3.119-2.549 4.283.075.812.502 2.193 1.16 3.756.328.777.538 1.235 1.615 3.511 1.336 2.824 1.669 3.597 1.854 4.297.084.32.094.443.091 1.1-.004.87-.046 1.117-.42 2.457-.134.483-.247.96-.25 1.06l-.006.183.134-.006c.486-.023 2.398-1.982 3.412-3.494.572-.854.782-1.422.738-2-.098-1.297-.76-2.997-3.024-7.76-1.534-3.228-1.652-3.546-1.72-4.631-.043-.696 0-1.889.099-2.751.067-.577.048-.778-.071-.778-.029 0-.19.094-.358.21M4.456 4.755c-.549.361-1.468 1.299-1.899 1.938-.275.409-.535.928-.594 1.187a3 3 0 0 0-.042.505c-.003 1.05.431 2.228 2.218 6.015.786 1.665.975 2.083 1.179 2.598.24.607.263.74.257 1.542-.005.78.004.736-.433 2.374-.074.276-.089.395-.06.45.054.1.073.097.281-.041.722-.48 2.011-1.911 2.652-2.946.328-.53.399-.751.398-1.237-.001-.932-.481-2.184-2.354-6.14-.826-1.744-1.066-2.292-1.209-2.76-.098-.32-.105-.401-.121-1.352-.012-.757 0-1.164.049-1.612.036-.33.054-.616.041-.638-.042-.067-.121-.042-.363.117m13.56-.001c-.579.377-1.446 1.263-1.903 1.944-.477.711-.633 1.126-.633 1.685 0 1.039.511 2.43 2.179 5.937 1.4 2.941 1.53 3.32 1.489 4.338-.024.588-.051.728-.384 1.999-.092.35-.158.661-.147.69.12.313 1.451-.916 2.503-2.312.81-1.075.972-1.558.802-2.395-.189-.932-.66-2.132-1.731-4.42-2.044-4.361-1.878-3.894-1.9-5.34-.011-.71.002-1.196.042-1.598.032-.317.05-.601.039-.63-.032-.083-.103-.062-.356.102"/>
</svg>
