<svg xmlns="http://www.w3.org/2000/svg" xml:space="preserve" viewBox="0 0 438.549 438.549"><path d="M206.849 5.916 C 167.244 7.794,131.730 19.601,97.391 42.309 C 48.034 74.947,12.974 128.596,3.237 186.383 C -5.639 239.064,3.851 291.811,30.104 335.719 C 52.152 372.592,83.836 402.338,120.236 420.335 C 132.432 426.366,147.502 432.416,152.224 433.179 C 156.197 433.820,160.740 431.870,162.994 428.555 L 164.821 425.868 165.035 403.605 L 165.248 381.343 163.158 381.761 C 155.733 383.246,147.083 383.877,139.605 383.478 C 123.425 382.617,113.850 380.067,105.502 374.399 C 97.875 369.219,94.356 364.431,89.534 352.671 C 86.621 345.567,80.969 336.434,76.112 330.982 C 74.440 329.105,70.841 326.099,68.113 324.302 C 55.255 315.831,55.473 309.184,68.573 310.297 C 81.254 311.375,93.089 319.602,102.186 333.663 C 110.739 346.882,120.316 354.055,132.110 356.076 C 138.969 357.251,150.248 356.072,158.620 353.305 C 165.233 351.120,165.102 351.278,166.938 343.279 C 168.441 336.732,171.986 329.637,175.966 325.210 C 179.680 321.079,180.562 321.658,167.745 319.814 C 151.925 317.537,137.285 312.808,124.520 305.853 C 100.636 292.838,87.347 272.349,81.400 239.375 C 80.370 233.661,80.086 228.317,80.101 214.889 C 80.119 198.591,80.220 197.339,82.081 190.403 C 84.646 180.844,91.463 167.167,97.201 160.070 C 100.278 156.265,101.526 154.141,101.282 153.127 C 101.089 152.323,100.217 149.198,99.345 146.183 C 98.018 141.599,97.754 138.785,97.733 129.006 C 97.710 118.241,97.886 116.633,99.956 108.769 C 103.301 96.060,103.233 96.160,108.837 95.895 C 114.623 95.622,118.670 96.469,127.754 99.853 C 137.988 103.666,148.964 108.966,157.318 114.128 L 164.592 118.624 173.112 116.669 C 191.919 112.352,214.316 110.581,234.509 111.815 C 248.822 112.689,253.128 113.324,265.149 116.334 L 274.113 118.578 282.025 113.756 C 291.429 108.024,304.099 101.876,313.197 98.630 C 318.819 96.624,320.838 96.270,327.084 96.199 L 334.394 96.115 336.410 102.128 C 342.096 119.084,342.745 135.276,338.313 149.625 L 336.860 154.330 338.916 156.930 C 349.907 170.827,355.446 182.879,357.867 198.166 C 359.466 208.257,358.944 229.183,356.793 241.283 C 352.143 267.439,341.685 286.058,324.391 298.971 C 317.423 304.174,303.716 311.210,294.668 314.228 C 288.051 316.435,273.900 319.577,266.419 320.501 C 258.787 321.442,258.996 321.201,262.435 325.099 C 266.108 329.261,269.769 336.358,271.568 342.799 C 272.745 347.014,272.941 351.921,273.311 386.289 C 273.709 423.306,273.793 425.137,275.189 427.509 C 279.074 434.103,283.904 434.632,296.751 429.870 C 308.826 425.395,328.593 415.461,338.779 408.749 C 372.241 386.698,399.518 355.677,417.014 319.775 C 430.675 291.741,437.337 263.983,438.325 230.969 C 440.610 154.674,404.294 84.466,340.606 42.053 C 300.333 15.233,257.041 3.536,206.849 5.916 " stroke="none" fill-rule="evenodd" fill="black"></path></svg>