<svg xmlns="http://www.w3.org/2000/svg" viewBox="0 0 24 24">
  <path fill-rule="evenodd" d="M5.057 4.034c-.355.023-.428.041-.6.147a1 1 0 0 0-.329.34l-.131.219.011 2.9c.011 2.559.02 2.916.076 3.04.073.16.384.46.546.528.078.032.973.051 3.037.063l2.926.018.207-.113c.226-.123.357-.259.492-.511l.088-.165V4.78l-.108-.205a1.04 1.04 0 0 0-.499-.48c-.1-.042-.683-.057-2.72-.07-1.426-.009-2.775-.005-2.996.009m8.701.002c-.394.019-.527.04-.62.099a1.05 1.05 0 0 0-.412.445l-.106.2-.013 2.52c-.007 1.386.004 2.703.024 2.927.034.371.049.424.175.6.078.109.233.251.356.326l.218.133 2.94-.016c2.098-.012 2.972-.03 3.051-.063.175-.072.5-.4.557-.561.079-.221.076-5.799-.003-6.022-.072-.203-.355-.485-.551-.547-.168-.054-4.661-.087-5.616-.041m-8.343 8.719-.764.025-.199.135c-.275.189-.37.343-.417.683-.024.172-.035 1.35-.027 2.974.011 2.36.02 2.705.076 2.828.099.217.26.385.467.487l.189.093H7.7c3.328 0 3.046.026 3.397-.311.292-.281.283-.181.283-3.309 0-2.17-.011-2.818-.052-2.952-.065-.216-.282-.459-.501-.563-.159-.076-.272-.081-2.407-.097-1.232-.01-2.584-.007-3.005.007m8.565 0c-.799.028-.877.051-1.136.346-.225.257-.224.236-.224 3.259 0 3.128-.009 3.028.283 3.309.351.337.069.311 3.397.311h2.96l.189-.093a1 1 0 0 0 .467-.487c.057-.124.064-.463.064-2.98 0-1.562-.015-2.909-.032-2.992-.038-.181-.255-.434-.485-.567l-.163-.095-2.3-.018c-1.265-.01-2.624-.007-3.02.007"/>
</svg>
