<svg xmlns="http://www.w3.org/2000/svg" viewBox="0 0 32 32"><path d="M12.747 2.110 C 11.606 2.355,10.594 3.284,10.181 4.465 C 10.102 4.692,10.066 4.964,10.046 5.493 C 10.030 5.889,10.009 6.242,9.999 6.276 C 9.985 6.320,9.896 6.306,9.697 6.227 C 9.468 6.136,9.263 6.110,8.629 6.092 C 7.944 6.071,7.798 6.083,7.482 6.179 C 6.965 6.337,6.485 6.636,6.054 7.068 C 5.642 7.482,5.391 7.868,5.182 8.414 L 5.044 8.773 5.042 14.347 C 5.040 20.380,5.038 20.329,5.336 21.547 C 6.055 24.483,7.864 26.929,10.450 28.458 C 13.497 30.261,17.315 30.455,20.560 28.971 C 23.979 27.408,26.384 24.151,26.888 20.400 C 26.989 19.653,26.991 14.133,26.891 13.707 C 26.640 12.635,25.699 11.592,24.650 11.221 C 24.338 11.111,24.195 11.095,23.511 11.094 C 22.878 11.094,22.665 11.113,22.391 11.199 C 22.205 11.258,22.035 11.306,22.013 11.306 C 21.991 11.306,21.973 10.436,21.973 9.372 C 21.973 8.308,21.948 7.235,21.917 6.988 C 21.748 5.642,20.662 4.443,19.327 4.129 C 18.796 4.003,17.927 4.050,17.360 4.234 C 17.125 4.310,16.909 4.372,16.880 4.372 C 16.851 4.373,16.737 4.199,16.628 3.986 C 16.253 3.259,15.735 2.750,15.013 2.400 C 14.292 2.051,13.495 1.949,12.747 2.110 M14.186 4.159 C 14.464 4.302,14.867 4.765,14.936 5.025 C 14.974 5.166,15.007 6.807,15.031 9.807 C 15.061 13.501,15.082 14.399,15.141 14.507 C 15.283 14.768,15.426 14.875,15.714 14.935 C 16.247 15.046,16.730 14.858,16.880 14.480 C 16.904 14.421,16.939 12.741,16.959 10.747 C 16.995 7.163,16.997 7.117,17.111 6.895 C 17.289 6.550,17.525 6.312,17.842 6.157 C 18.098 6.032,18.181 6.018,18.573 6.034 C 18.970 6.051,19.046 6.072,19.300 6.236 C 19.473 6.347,19.657 6.528,19.771 6.700 L 19.958 6.981 19.987 11.531 L 20.016 16.081 19.492 16.228 C 18.882 16.400,18.130 16.743,17.647 17.071 C 17.170 17.395,16.430 18.123,16.118 18.577 C 15.409 19.605,14.987 20.988,15.049 22.082 C 15.067 22.393,15.094 22.477,15.233 22.650 C 15.450 22.919,15.830 23.025,16.263 22.938 C 16.786 22.833,16.897 22.639,17.014 21.627 C 17.115 20.759,17.331 20.218,17.851 19.534 C 18.197 19.078,18.662 18.693,19.176 18.436 C 19.670 18.189,20.011 18.094,20.746 17.998 C 21.084 17.954,21.408 17.904,21.467 17.886 C 21.596 17.848,21.802 17.665,21.880 17.521 C 21.914 17.457,21.953 16.750,21.978 15.753 C 22.012 14.342,22.032 14.064,22.110 13.912 C 22.287 13.566,22.511 13.339,22.837 13.177 C 23.235 12.978,23.732 12.953,24.080 13.115 C 24.393 13.260,24.721 13.567,24.851 13.836 C 24.961 14.062,24.967 14.165,24.996 16.302 C 25.028 18.658,24.974 20.100,24.828 20.800 C 24.643 21.688,24.232 22.748,23.760 23.549 C 22.343 25.957,19.972 27.532,17.173 27.926 C 16.314 28.047,15.028 28.001,14.187 27.820 C 12.553 27.469,11.160 26.757,9.937 25.648 C 8.575 24.415,7.544 22.616,7.176 20.829 C 7.026 20.107,6.979 18.155,6.996 13.520 L 7.013 9.093 7.173 8.804 C 7.361 8.465,7.753 8.134,8.070 8.049 C 8.614 7.902,9.356 8.135,9.660 8.548 C 9.993 9.000,9.979 8.864,10.022 12.239 C 10.059 15.145,10.068 15.353,10.164 15.550 C 10.314 15.857,10.541 15.956,11.050 15.936 C 11.523 15.917,11.687 15.827,11.862 15.490 C 11.970 15.284,11.972 15.191,12.002 10.156 L 12.032 5.032 12.179 4.782 C 12.334 4.518,12.785 4.123,12.978 4.082 C 13.042 4.068,13.141 4.046,13.200 4.032 C 13.405 3.983,13.987 4.058,14.186 4.159 " stroke="none" fill-rule="evenodd" fill="black"></path></svg>