<svg xmlns="http://www.w3.org/2000/svg" viewBox="0 0 24 24">
  <path fill-rule="evenodd" d="M14.496 2.138a3.59 3.59 0 0 0-2.378 1.956c-.25.534-.318.86-.318 1.526 0 .696.074 1.027.356 1.6a3.53 3.53 0 0 0 1.624 1.623c.511.249.952.358 1.537.38l.457.017.173.325a3.52 3.52 0 0 0 2.033 1.71q1.405.466 2.72-.17c.951-.46 1.613-1.261 1.922-2.325.055-.187.07-.391.069-.921 0-.67-.003-.688-.137-1.081-.306-.892-.819-1.528-1.625-2.012-.543-.327-1.165-.483-1.93-.485l-.261-.001-.145-.292c-.372-.752-1.122-1.422-1.937-1.732-.623-.236-1.514-.285-2.16-.118m1.484 1.978c.411.182.86.622.86.843 0 .057-.095.192-.256.363-.448.474-.843 1.152-.949 1.625-.07.313-.143.353-.505.278-.548-.115-.992-.447-1.22-.914-.101-.208-.11-.264-.11-.701 0-.425.01-.495.099-.672.13-.261.426-.594.636-.717.384-.225 1.062-.274 1.445-.105m3.468 2.168c1.174.246 1.688 1.66.946 2.599-.354.448-.981.697-1.508.6-.783-.144-1.318-.737-1.358-1.505a1.7 1.7 0 0 1 .05-.562 1.61 1.61 0 0 1 1.87-1.132M8.2 10.319c-.439.021-.595.045-.836.131-.61.218-.84.398-2.121 1.657l-1.188 1.166-1.497.014-1.498.013-.273.134c-.171.083-.37.228-.53.385L0 14.071v5.557l.138.182c.173.226.479.453.775.575l.227.093 5.13.001 5.13.001 3.07-.766 3.07-.766 1.66-.71c2.272-.971 2.373-1.02 2.67-1.295.3-.278.572-.676.717-1.049.095-.246.106-.328.107-.794.002-.822-.179-1.273-.731-1.822-.503-.501-1.051-.734-1.723-.733-.435.001-.633.039-2.735.521-.811.186-1.48.333-1.486.326a5 5 0 0 1-.054-.452 5 5 0 0 0-.107-.66c-.227-.764-.903-1.49-1.681-1.805-.291-.118-.368-.131-.937-.159-.733-.035-4.266-.033-5.04.003m5.348 2.057a.868.868 0 0 1 .241 1.325c-.222.269-.236.271-1.949.301s-1.725.031-2.013.31c-.234.225-.283.346-.283.688 0 .431.178.707.576.895.173.082.245.085 1.83.097l1.649.013 2.591-.601c3.778-.876 4.021-.929 4.119-.905.14.035.362.251.411.401a.48.48 0 0 1-.134.527c-.16.135-.442.265-2.229 1.027l-1.457.622-2.89.722-2.889.722H5.48v-3.87l1.08-1.064c.594-.586 1.153-1.113 1.242-1.172.225-.149.451-.161 3.186-.168l2.328-.006zM3.52 16.88v1.64H1.772l-.026-.606a50 50 0 0 1-.026-1.64V15.24h1.8z"/>
</svg>
