<svg xmlns="http://www.w3.org/2000/svg" viewBox="0 0 32 32">
  <path fill-rule="evenodd" d="M12.747 2.11c-1.141.245-2.153 1.174-2.566 2.355-.079.227-.115.499-.135 1.028-.016.396-.037.749-.047.783-.014.044-.103.03-.302-.049-.229-.091-.434-.117-1.068-.135-.685-.021-.831-.009-1.147.087-.517.158-.997.457-1.428.889-.412.414-.663.8-.872 1.346l-.138.359-.002 5.574c-.002 6.033-.004 5.982.294 7.2.719 2.936 2.528 5.382 5.114 6.911 3.047 1.803 6.865 1.997 10.11.513 3.419-1.563 5.824-4.82 6.328-8.571.101-.747.103-6.267.003-6.693-.251-1.072-1.192-2.115-2.241-2.486-.312-.11-.455-.126-1.139-.127-.633 0-.846.019-1.12.105a4 4 0 0 1-.378.107c-.022 0-.04-.87-.04-1.934s-.025-2.137-.056-2.384c-.169-1.346-1.255-2.545-2.59-2.859-.531-.126-1.4-.079-1.967.105a5 5 0 0 1-.48.138c-.029.001-.143-.173-.252-.386A3.43 3.43 0 0 0 15.013 2.4a3.5 3.5 0 0 0-2.266-.29m1.439 2.049c.278.143.681.606.75.866.038.141.071 1.782.095 4.782.03 3.694.051 4.592.11 4.7.142.261.285.368.573.428.533.111 1.016-.077 1.166-.455.024-.059.059-1.739.079-3.733.036-3.584.038-3.63.152-3.852a1.6 1.6 0 0 1 .731-.738c.256-.125.339-.139.731-.123.397.017.473.038.727.202.173.111.357.292.471.464l.187.281.029 4.55.029 4.55-.524.147c-.61.172-1.362.515-1.845.843-.477.324-1.217 1.052-1.529 1.506-.709 1.028-1.131 2.411-1.069 3.505.018.311.045.395.184.568.217.269.597.375 1.03.288.523-.105.634-.299.751-1.311.101-.868.317-1.409.837-2.093a3.84 3.84 0 0 1 1.325-1.098c.494-.247.835-.342 1.57-.438.338-.044.662-.094.721-.112.129-.038.335-.221.413-.365.034-.064.073-.771.098-1.768.034-1.411.054-1.689.132-1.841.177-.346.401-.573.727-.735.398-.199.895-.224 1.243-.062.313.145.641.452.771.721.11.226.116.329.145 2.466.032 2.356-.022 3.798-.168 4.498a9.8 9.8 0 0 1-1.068 2.749c-1.417 2.408-3.788 3.983-6.587 4.377-.859.121-2.145.075-2.986-.106a8.97 8.97 0 0 1-4.25-2.172c-1.362-1.233-2.393-3.032-2.761-4.819-.15-.722-.197-2.674-.18-7.309l.017-4.427.16-.289c.188-.339.58-.67.897-.755.544-.147 1.286.086 1.59.499.333.452.319.316.362 3.691.037 2.906.046 3.114.142 3.311.15.307.377.406.886.386.473-.019.637-.109.812-.446.108-.206.11-.299.14-5.334l.03-5.124.147-.25c.155-.264.606-.659.799-.7l.222-.05c.205-.049.787.026.986.127"/>
</svg>
