<svg xmlns="http://www.w3.org/2000/svg" xml:space="preserve" fill="none" viewBox="0 0 24 24">
  <path fill="#000" fill-rule="evenodd" d="M11.163.845a4.16 4.16 0 0 0-2.941 2.392c-.3.689-.313.79-.339 2.623L7.86 7.5l-1.88.02c-1.839.02-1.884.022-2.073.109-.465.214-.788.619-.865 1.082-.032.192-.041 1.828-.033 5.709l.011 5.44.112.24c.147.315.455.624.764.767l.244.113h15.72l.244-.113c.309-.143.617-.452.764-.767l.112-.24.011-5.44c.008-3.881-.001-5.517-.033-5.709-.081-.483-.423-.895-.911-1.096-.227-.093-.231-.093-2.077-.094l-1.85-.001V6.05c0-1.933-.057-2.288-.497-3.114a4.12 4.12 0 0 0-4.46-2.091m1.343 1.454c.514.097.929.327 1.34.74.28.282.376.412.506.685.262.551.268.601.268 2.276v1.5H9.38V5.98c.001-1.701.01-1.776.291-2.32.219-.424.729-.919 1.169-1.135a2.52 2.52 0 0 1 1.666-.226M19.51 14.25l-.01 5.25h-15l-.01-5.25L4.48 9h15.04z"/>
</svg>
