<svg xmlns="http://www.w3.org/2000/svg" xml:space="preserve" fill="none" viewBox="0 0 24 24"><path d="M11.163 0.845 C 9.861 1.118,8.753 2.019,8.222 3.237 C 7.922 3.926,7.909 4.027,7.883 5.860 L 7.860 7.500 5.980 7.520 C 4.141 7.540,4.096 7.542,3.907 7.629 C 3.442 7.843,3.119 8.248,3.042 8.711 C 3.010 8.903,3.001 10.539,3.009 14.420 L 3.020 19.860 3.132 20.100 C 3.279 20.415,3.587 20.724,3.896 20.867 L 4.140 20.980 12.000 20.980 L 19.860 20.980 20.104 20.867 C 20.413 20.724,20.721 20.415,20.868 20.100 L 20.980 19.860 20.991 14.420 C 20.999 10.539,20.990 8.903,20.958 8.711 C 20.877 8.228,20.535 7.816,20.047 7.615 C 19.820 7.522,19.816 7.522,17.970 7.521 L 16.120 7.520 16.120 6.050 C 16.120 4.117,16.063 3.762,15.623 2.936 C 14.770 1.331,12.937 0.472,11.163 0.845 M12.506 2.299 C 13.020 2.396,13.435 2.626,13.846 3.039 C 14.126 3.321,14.222 3.451,14.352 3.724 C 14.614 4.275,14.620 4.325,14.620 6.000 L 14.620 7.500 12.000 7.500 L 9.380 7.500 9.380 5.980 C 9.381 4.279,9.390 4.204,9.671 3.660 C 9.890 3.236,10.400 2.741,10.840 2.525 C 11.384 2.257,11.909 2.186,12.506 2.299 M19.510 14.250 L 19.500 19.500 12.000 19.500 L 4.500 19.500 4.490 14.250 L 4.480 9.000 12.000 9.000 L 19.520 9.000 19.510 14.250 " stroke="none" fill-rule="evenodd" fill="black"></path></svg>