<svg viewBox="0 0 16 12" xmlns="http://www.w3.org/2000/svg">
    <path d="M11.9995 0.556463C11.8285 0.612463 11.7085 0.711463 11.1835 1.23046L10.6215 1.78746L10.2915 1.69246C9.14953 1.36346 7.79753 1.29246 6.57253 1.49546C5.89572 1.60305 5.23942 1.81383 4.62653 2.12046C3.51553 2.66346 2.68053 3.37246 1.52853 4.75246C0.929531 5.47146 0.894531 5.53846 0.894531 5.99946C0.894531 6.27546 0.902531 6.32446 0.969531 6.48646C1.13153 6.87246 2.54953 8.45946 3.16653 8.94346L3.33353 9.07446L2.74653 9.66746C2.12653 10.2935 2.06553 10.3755 2.03553 10.6355C2.02553 10.7195 2.03553 10.8185 2.06553 10.9215C2.10253 11.0505 2.13853 11.1075 2.26253 11.2285C2.39053 11.3535 2.44353 11.3845 2.59053 11.4245C2.68535 11.4523 2.78498 11.4597 2.88288 11.4463C2.98078 11.4328 3.07472 11.3988 3.15853 11.3465C3.32953 11.2455 12.8095 1.74246 12.8785 1.60446C13.1125 1.13446 12.7745 0.569463 12.2445 0.543463C12.1626 0.537723 12.0804 0.542089 11.9995 0.556463ZM8.86953 2.69246C9.18153 2.73146 9.57253 2.80346 9.57253 2.82246C9.57253 2.83146 8.37553 4.03646 6.91253 5.49946L4.25153 8.16046L4.02553 7.98146C3.68953 7.71646 3.02353 7.03546 2.57853 6.50246C2.36253 6.24446 2.18653 6.01846 2.18653 6.00046C2.18653 5.94946 2.94053 5.06046 3.29253 4.69646C4.54153 3.40646 5.87853 2.77646 7.62653 2.65546C7.85053 2.64046 8.63253 2.66346 8.86953 2.69246ZM12.7335 3.81246L12.2815 4.26446L12.6175 4.60546C13.0035 4.99846 13.0505 5.05046 13.4885 5.57646C13.6665 5.79146 13.8125 5.98046 13.8125 5.99746C13.8125 6.03746 13.0965 6.89746 12.8015 7.21046C11.5525 8.53646 10.2865 9.18246 8.63953 9.33146C8.24457 9.36382 7.84766 9.36482 7.45253 9.33446L7.23953 9.31346L6.68753 9.86146C6.38353 10.1635 6.13853 10.4145 6.14353 10.4195C6.14853 10.4245 6.26553 10.4515 6.40253 10.4785C7.32753 10.6645 8.61853 10.6645 9.58653 10.4785C10.7495 10.2529 11.8394 9.74539 12.7605 9.00046C13.1645 8.67946 13.9355 7.89046 14.4565 7.26446C15.0335 6.57146 15.1185 6.40946 15.1185 5.99946C15.1185 5.62846 15.0225 5.41546 14.6575 4.97546C14.2782 4.51092 13.8792 4.06285 13.4615 3.63246L13.1855 3.35946L12.7335 3.81246Z" fill="black"/>
</svg>
