<svg xmlns="http://www.w3.org/2000/svg" viewBox="0 0 16 12"><path d="M12.021 0.558 C 11.864 0.590,11.729 0.699,11.157 1.261 L 10.620 1.788 10.333 1.705 C 9.559 1.482,8.944 1.402,7.987 1.402 C 7.186 1.402,6.863 1.432,6.227 1.564 C 5.227 1.771,4.100 2.316,3.227 3.014 C 2.482 3.610,1.074 5.191,0.945 5.577 C 0.882 5.765,0.881 6.254,0.943 6.421 C 1.096 6.835,2.575 8.498,3.234 8.998 L 3.335 9.074 2.793 9.624 C 2.215 10.210,2.104 10.347,2.053 10.534 C 1.900 11.104,2.541 11.637,3.078 11.385 C 3.182 11.336,3.742 10.792,5.862 8.682 C 7.321 7.229,9.497 5.046,10.697 3.832 C 12.755 1.748,12.881 1.615,12.919 1.487 C 12.971 1.315,12.970 1.244,12.918 1.068 C 12.868 0.899,12.690 0.696,12.525 0.619 C 12.394 0.558,12.162 0.530,12.021 0.558 M8.840 2.694 C 9.212 2.736,9.547 2.803,9.547 2.835 C 9.547 2.851,8.357 4.055,6.902 5.511 L 4.258 8.157 4.136 8.072 C 3.968 7.954,3.142 7.142,2.828 6.787 C 2.560 6.483,2.187 6.025,2.187 6.000 C 2.187 5.938,3.006 4.992,3.399 4.600 C 4.506 3.494,5.665 2.907,7.133 2.708 C 7.454 2.665,8.502 2.656,8.840 2.694 M12.734 3.813 L 12.283 4.264 12.656 4.646 C 12.987 4.984,13.586 5.675,13.756 5.914 L 13.817 6.001 13.645 6.220 C 12.535 7.640,11.490 8.502,10.347 8.942 C 9.484 9.274,8.403 9.421,7.467 9.335 L 7.240 9.314 6.695 9.857 C 6.395 10.155,6.158 10.407,6.167 10.416 C 6.201 10.450,6.679 10.534,7.075 10.576 C 7.576 10.629,8.699 10.614,9.173 10.548 C 10.419 10.374,11.519 9.920,12.560 9.153 C 13.203 8.678,14.642 7.141,14.975 6.573 C 15.197 6.194,15.162 5.691,14.886 5.282 C 14.671 4.965,13.529 3.668,13.236 3.408 C 13.186 3.363,13.169 3.377,12.734 3.813 " stroke="none" fill-rule="evenodd" fill="black"></path></svg>