<svg xmlns="http://www.w3.org/2000/svg" xml:space="preserve" fill="none" viewBox="0 0 24 24"><path d="M11.532 2.592 C 11.418 2.633,11.255 2.714,11.170 2.773 C 10.859 2.988,3.360 9.842,3.257 10.004 C 3.003 10.407,3.020 10.037,3.020 15.180 L 3.020 19.860 3.132 20.100 C 3.279 20.415,3.587 20.724,3.896 20.867 L 4.140 20.980 6.580 20.992 C 8.265 21.000,9.103 20.990,9.289 20.958 C 9.772 20.877,10.184 20.534,10.385 20.047 L 10.478 19.820 10.479 17.410 L 10.480 15.000 12.000 15.000 L 13.520 15.000 13.521 17.410 L 13.522 19.820 13.615 20.047 C 13.816 20.534,14.228 20.877,14.711 20.958 C 14.897 20.990,15.735 21.000,17.420 20.992 L 19.860 20.980 20.104 20.867 C 20.413 20.724,20.721 20.415,20.868 20.100 L 20.980 19.860 20.980 15.180 C 20.980 10.038,20.997 10.407,20.743 10.005 C 20.658 9.870,13.703 3.498,12.980 2.892 C 12.685 2.645,12.439 2.548,12.060 2.532 C 11.822 2.521,11.687 2.537,11.532 2.592 M15.776 7.444 L 19.520 10.848 19.510 15.174 L 19.500 19.500 17.250 19.510 L 15.000 19.521 14.999 17.210 C 14.999 15.491,14.985 14.838,14.947 14.656 C 14.850 14.193,14.483 13.777,14.019 13.603 C 13.806 13.524,13.720 13.520,12.000 13.520 C 10.280 13.520,10.194 13.524,9.981 13.603 C 9.517 13.777,9.150 14.193,9.053 14.656 C 9.015 14.838,9.001 15.491,9.001 17.210 L 9.000 19.521 6.750 19.510 L 4.500 19.500 4.490 15.174 L 4.480 10.848 8.224 7.444 C 10.283 5.572,11.982 4.040,12.000 4.040 C 12.018 4.040,13.717 5.572,15.776 7.444 " stroke="none" fill-rule="evenodd" fill="black"></path></svg>