<svg xmlns="http://www.w3.org/2000/svg" fill="none" viewBox="0 0 40 41">
  <path fill="#000" fill-rule="evenodd" d="M18.933 4.802a15.7 15.7 0 0 0-5.9 1.598c-5.335 2.617-8.766 8.136-8.766 14.1 0 3.529 1.237 7.052 3.454 9.833 2.504 3.141 6.176 5.21 10.246 5.772.507.07 1.252.11 2.033.11 2.498 0 4.708-.513 6.967-1.617 5.327-2.604 8.766-8.134 8.766-14.098 0-1.678-.262-3.277-.813-4.954A15.68 15.68 0 0 0 26.967 6.4c-1.001-.49-2.559-1.046-3.534-1.26a17.2 17.2 0 0 0-4.5-.338M22.5 6.457c1.53.291 2.635.667 3.98 1.353 4.098 2.089 6.921 6.009 7.63 10.596.162 1.046.162 3.142 0 4.188a14.5 14.5 0 0 1-1.48 4.521c-1.834 3.496-5.152 6.155-8.925 7.151-1.445.381-1.86.43-3.705.43-1.852 0-2.258-.048-3.732-.437-.98-.259-1.734-.552-2.731-1.06C9.42 31.1 6.601 27.19 5.89 22.594c-.162-1.046-.162-3.142 0-4.188.711-4.598 3.528-8.505 7.647-10.605 1.587-.809 2.882-1.199 4.963-1.494.11-.015.89-.019 1.733-.009 1.22.015 1.684.047 2.267.159m-3.012 4.145c-.376.076-.606.203-.914.508-.367.364-.532.763-.532 1.29 0 1.185 1.043 2.015 2.226 1.771a1.817 1.817 0 0 0 1.445-1.95c-.111-1.078-1.15-1.834-2.225-1.619m-1.14 8.035c-.165.116-.348.431-.348.6 0 .226.216.555.432.658.122.058.359.105.527.105h.305l.018 4.165.018 4.165.185.185c.18.18.207.186 1.043.207 1.002.025 1.218-.043 1.384-.44.082-.197.087-.291.024-.499-.102-.342-.39-.516-.853-.516h-.35v-8.28l-.226-.227-.227-.227h-.892c-.7 0-.924.023-1.04.104"/>
</svg>
