<svg xmlns="http://www.w3.org/2000/svg" xml:space="preserve" fill="none" viewBox="0 0 16 16">
  <path fill="#000" fill-rule="evenodd" d="M7.467 1.281c-.548.04-1.244.19-1.776.385a9 9 0 0 0-1.384.695 7 7 0 0 0-1.946 1.946 9 9 0 0 0-.695 1.384 6.83 6.83 0 0 0-.036 4.519c.142.416.505 1.149.75 1.515a6.66 6.66 0 0 0 2.647 2.317c.982.483 1.864.687 2.973.687 1.11 0 1.994-.204 2.973-.687a6.65 6.65 0 0 0 2.647-2.318 8.4 8.4 0 0 0 .75-1.514c.75-2.198.34-4.59-1.099-6.408a7.1 7.1 0 0 0-1.578-1.441 9 9 0 0 0-1.384-.695 6.85 6.85 0 0 0-2.842-.385m1.12 1.494a5.26 5.26 0 0 1 3.217 1.606 5.255 5.255 0 0 1 .36 6.832 7 7 0 0 1-.857.874 5.6 5.6 0 0 1-1.56.873 5.29 5.29 0 0 1-5.054-.873 7 7 0 0 1-.857-.874 5.4 5.4 0 0 1-1.065-2.652 6.5 6.5 0 0 1 .053-1.486 5.28 5.28 0 0 1 4.552-4.298 7.3 7.3 0 0 1 1.211-.002m-.774 1.25a.73.73 0 0 0-.594.722.71.71 0 0 0 .741.731.69.69 0 0 0 .64-.389.74.74 0 0 0-.364-1.019.85.85 0 0 0-.423-.045M7.2 6.828a.71.71 0 0 0-.426.68c-.001.296.138.526.391.646l.086.042.008 1.495c.009 1.667-.001 1.583.198 1.804a1 1 0 0 0 .236.176c.123.057.169.062.56.062.394 0 .437-.005.56-.063.27-.128.412-.36.412-.67a.7.7 0 0 0-.36-.642l-.116-.069-.008-1.484C8.733 7.35 8.732 7.318 8.676 7.2a.8.8 0 0 0-.309-.341c-.107-.071-.119-.072-.578-.08-.427-.006-.48-.002-.589.049"/>
</svg>
