<svg xmlns="http://www.w3.org/2000/svg" xml:space="preserve" fill="none" viewBox="0 0 24 24">
  <path fill="#000" fill-rule="evenodd" d="M7.52 2.455c-2.101.424-3.877.801-3.946.837-.167.087-.275.23-.35.46-.033.104-.396 1.88-.806 3.948-.666 3.362-.744 3.792-.729 4.066.034.604-.336.196 5.306 5.842 4.568 4.571 5.088 5.079 5.299 5.175.411.187.92.19 1.302.009.266-.126 9.076-8.931 9.197-9.192.184-.396.18-.889-.011-1.308-.095-.208-.627-.753-5.174-5.297-5.715-5.712-5.239-5.284-5.906-5.302-.332-.009-.677.054-4.182.762m9.03 5.595 4.89 4.89-4.25 4.25-4.25 4.25-4.89-4.89-4.89-4.89.71-3.54.71-3.54 3.5-.706c1.925-.388 3.518-.708 3.54-.71s2.241 2.197 4.93 4.886M7.56 6.795a1.25 1.25 0 0 0-.739.697c-.093.242-.069.658.051.893.111.218.407.473.637.552C8.24 9.186 9 8.637 9 7.86c0-.375-.234-.759-.588-.967-.14-.082-.244-.108-.466-.118a1.6 1.6 0 0 0-.386.02"/>
</svg>
