<svg xmlns="http://www.w3.org/2000/svg" xml:space="preserve" fill="none" viewBox="0 0 24 24"><path d="M7.520 2.455 C 5.419 2.879,3.643 3.256,3.574 3.292 C 3.407 3.379,3.299 3.522,3.224 3.752 C 3.191 3.856,2.828 5.632,2.418 7.700 C 1.752 11.062,1.674 11.492,1.689 11.766 C 1.723 12.370,1.353 11.962,6.995 17.608 C 11.563 22.179,12.083 22.687,12.294 22.783 C 12.705 22.970,13.214 22.973,13.596 22.792 C 13.862 22.666,22.672 13.861,22.793 13.600 C 22.977 13.204,22.973 12.711,22.782 12.292 C 22.687 12.084,22.155 11.539,17.608 6.995 C 11.893 1.283,12.369 1.711,11.702 1.693 C 11.370 1.684,11.025 1.747,7.520 2.455 M16.550 8.050 L 21.440 12.940 17.190 17.190 L 12.940 21.440 8.050 16.550 L 3.160 11.660 3.870 8.120 L 4.580 4.580 8.080 3.874 C 10.005 3.486,11.598 3.166,11.620 3.164 C 11.642 3.162,13.861 5.361,16.550 8.050 M7.560 6.795 C 7.239 6.900,6.939 7.184,6.821 7.492 C 6.728 7.734,6.752 8.150,6.872 8.385 C 6.983 8.603,7.279 8.858,7.509 8.937 C 8.240 9.186,9.000 8.637,9.000 7.860 C 9.000 7.485,8.766 7.101,8.412 6.893 C 8.272 6.811,8.168 6.785,7.946 6.775 C 7.789 6.768,7.615 6.777,7.560 6.795 " stroke="none" fill-rule="evenodd" fill="black"></path></svg>