<svg xmlns="http://www.w3.org/2000/svg" viewBox="0 0 16 16"><path d="M9.771 0.304 C 9.604 0.357,9.536 0.418,8.898 1.092 C 7.795 2.258,3.616 6.742,2.920 7.507 C 2.326 8.159,2.267 8.249,2.267 8.498 C 2.267 8.837,2.455 9.081,2.828 9.225 C 2.952 9.273,3.587 9.513,4.240 9.760 C 5.771 10.338,5.894 10.385,6.023 10.452 C 6.118 10.500,6.130 10.516,6.118 10.580 C 6.111 10.620,5.932 11.529,5.721 12.600 C 5.281 14.833,5.269 14.902,5.285 15.112 C 5.309 15.445,5.640 15.733,6.001 15.733 C 6.149 15.733,6.312 15.681,6.427 15.595 C 6.528 15.521,7.118 14.897,9.362 12.493 C 13.446 8.118,13.637 7.908,13.703 7.709 C 13.782 7.471,13.708 7.172,13.525 6.990 C 13.383 6.849,13.482 6.891,11.547 6.161 C 10.254 5.673,9.867 5.520,9.867 5.495 C 9.867 5.486,10.046 4.573,10.264 3.466 C 10.719 1.167,10.731 1.099,10.715 0.888 C 10.685 0.465,10.205 0.168,9.771 0.304 M8.523 4.596 C 8.263 5.926,8.247 6.035,8.293 6.199 C 8.341 6.369,8.494 6.557,8.655 6.644 C 8.728 6.683,9.315 6.913,9.960 7.156 C 11.394 7.696,11.640 7.796,11.640 7.833 C 11.640 7.862,10.433 9.167,8.600 11.118 C 8.043 11.711,7.513 12.275,7.423 12.372 C 7.271 12.534,7.260 12.541,7.273 12.467 C 7.280 12.423,7.375 11.931,7.483 11.375 C 7.748 10.014,7.755 9.959,7.699 9.779 C 7.633 9.570,7.509 9.442,7.263 9.326 C 7.147 9.272,6.579 9.049,6.000 8.830 C 4.542 8.279,4.377 8.213,4.358 8.184 C 4.341 8.156,4.367 8.128,5.878 6.508 C 7.978 4.257,8.707 3.491,8.715 3.530 C 8.719 3.552,8.633 4.031,8.523 4.596 " stroke="none" fill-rule="evenodd" fill="black"></path></svg>