<svg xmlns="http://www.w3.org/2000/svg" viewBox="0 0 22 22">
  <path fill-rule="evenodd" d="M10.047.552a8.2 8.2 0 0 0-2.719.824C4.44 2.819 2.642 5.838 2.762 9.038a8.2 8.2 0 0 0 .72 3.102c.519 1.162 1.205 2.044 2.417 3.109.481.422.555.604.591 1.453.021.485.043.664.1.81.162.418.493.746.913.905l.215.081h6.564l.215-.081c.42-.159.751-.487.913-.905.057-.146.079-.325.1-.81.037-.857.108-1.028.611-1.471 1.273-1.12 1.993-2.082 2.506-3.344a8.23 8.23 0 0 0-.224-6.779c-1.157-2.371-3.417-4.045-6.084-4.505C11.909.532 10.47.5 10.047.552m1.797 1.503a6.96 6.96 0 0 1 3.068 1.198c.491.346 1.22 1.07 1.559 1.55 1.601 2.267 1.699 5.177.251 7.513-.39.63-.76 1.039-1.701 1.887a2.9 2.9 0 0 0-.715.928c-.203.403-.269.704-.29 1.323l-.018.559H8.002l-.018-.559c-.022-.659-.089-.932-.35-1.438-.183-.355-.342-.53-1.229-1.352a6.3 6.3 0 0 1-1.495-2.022c-.637-1.342-.808-2.784-.508-4.278.217-1.08.805-2.233 1.585-3.111a6.8 6.8 0 0 1 4.029-2.179c.418-.06 1.406-.071 1.828-.019m-.445 1.536c-.364.199-.491.618-.305 1.01.101.213.289.325.738.436 1.42.352 2.543 1.474 2.875 2.871.113.475.201.625.438.746.307.157.647.11.87-.121.227-.234.274-.484.174-.917-.318-1.37-1.147-2.542-2.357-3.329-.892-.581-2.042-.909-2.433-.696M6.847 20.128c-.47.298-.445 1.015.044 1.274l.162.086 3.984-.01 3.984-.01.147-.101a.745.745 0 0 0-.015-1.239l-.171-.108H7.018z"/>
</svg>
