<svg xmlns="http://www.w3.org/2000/svg" viewBox="0 0 12 12"><path d="M7.530 1.421 C 7.122 1.452,6.552 1.682,6.182 1.966 C 5.984 2.118,5.389 2.728,5.340 2.830 C 5.241 3.035,5.328 3.264,5.568 3.430 C 5.675 3.504,5.694 3.510,5.817 3.510 C 5.987 3.510,6.027 3.483,6.440 3.090 C 6.790 2.758,6.932 2.649,7.143 2.551 C 7.398 2.434,7.513 2.411,7.860 2.413 C 8.231 2.414,8.341 2.438,8.640 2.583 C 8.834 2.677,8.868 2.703,9.081 2.918 C 9.278 3.115,9.326 3.177,9.404 3.330 C 9.568 3.650,9.586 3.740,9.575 4.186 C 9.565 4.602,9.555 4.653,9.425 4.910 C 9.315 5.127,9.179 5.282,8.501 5.963 C 7.808 6.658,7.691 6.756,7.430 6.866 C 7.174 6.973,7.093 6.987,6.730 6.986 C 6.415 6.985,6.378 6.981,6.231 6.931 C 6.017 6.859,5.843 6.765,5.650 6.618 C 5.562 6.550,5.454 6.479,5.410 6.458 C 5.235 6.377,5.048 6.429,4.892 6.602 C 4.657 6.863,4.665 7.047,4.923 7.299 C 5.228 7.597,5.729 7.850,6.220 7.953 C 6.347 7.980,6.484 7.989,6.760 7.989 C 7.100 7.990,7.148 7.985,7.349 7.934 C 7.712 7.842,8.023 7.706,8.310 7.513 C 8.605 7.314,9.963 5.940,10.155 5.645 C 10.359 5.333,10.517 4.926,10.573 4.573 C 10.612 4.327,10.600 3.807,10.551 3.585 C 10.365 2.751,9.865 2.095,9.117 1.701 C 8.895 1.584,8.565 1.469,8.370 1.442 C 8.170 1.414,7.763 1.404,7.530 1.421 M4.648 4.068 C 4.236 4.166,3.873 4.344,3.530 4.614 C 3.325 4.776,2.055 6.060,1.921 6.241 C 1.543 6.750,1.342 7.465,1.401 8.090 C 1.463 8.750,1.735 9.331,2.202 9.799 C 2.723 10.321,3.399 10.603,4.130 10.604 C 4.718 10.605,5.262 10.430,5.747 10.085 C 5.911 9.968,6.471 9.430,6.610 9.254 C 6.752 9.076,6.726 8.851,6.543 8.664 C 6.417 8.535,6.320 8.490,6.168 8.490 C 6.011 8.491,5.982 8.511,5.559 8.912 C 5.181 9.271,5.035 9.382,4.834 9.464 C 4.380 9.649,3.889 9.651,3.456 9.468 C 3.069 9.306,2.695 8.933,2.534 8.550 C 2.426 8.292,2.416 8.229,2.423 7.815 L 2.430 7.430 2.504 7.252 C 2.643 6.922,2.701 6.845,3.253 6.282 C 4.000 5.518,4.237 5.305,4.465 5.192 C 4.746 5.053,4.916 5.014,5.240 5.013 C 5.703 5.013,5.959 5.098,6.356 5.388 C 6.571 5.544,6.656 5.584,6.771 5.584 C 6.981 5.584,7.279 5.277,7.279 5.060 C 7.279 4.894,7.109 4.691,6.791 4.477 C 6.498 4.280,6.242 4.166,5.890 4.076 C 5.760 4.043,5.649 4.034,5.290 4.028 C 4.880 4.021,4.836 4.024,4.648 4.068 " stroke="none" fill-rule="evenodd" fill="black"></path></svg>