<svg xmlns="http://www.w3.org/2000/svg" viewBox="0 0 12 12">
  <path fill-rule="evenodd" d="M7.53 1.421c-.408.031-.978.261-1.348.545-.198.152-.793.762-.842.864-.099.205-.012.434.228.6.107.074.126.08.249.08.17 0 .21-.027.623-.42.35-.332.492-.441.703-.539.255-.117.37-.14.717-.138.371.001.481.025.78.17.194.094.228.12.441.335.197.197.245.259.323.412.164.32.182.41.171.856-.01.416-.02.467-.15.724-.11.217-.246.372-.924 1.053-.693.695-.81.793-1.071.903-.256.107-.337.121-.7.12-.315-.001-.352-.005-.499-.055a1.9 1.9 0 0 1-.581-.313 2 2 0 0 0-.24-.16c-.175-.081-.362-.029-.518.144-.235.261-.227.445.031.697.305.298.806.551 1.297.654.127.027.264.036.54.036.34.001.388-.004.589-.055.363-.092.674-.228.961-.421.295-.199 1.653-1.573 1.845-1.868.204-.312.362-.719.418-1.072a3.7 3.7 0 0 0-.022-.988 2.75 2.75 0 0 0-1.434-1.884 2.7 2.7 0 0 0-.747-.259 5 5 0 0 0-.84-.021M4.648 4.068a2.8 2.8 0 0 0-1.118.546c-.205.162-1.475 1.446-1.609 1.627a2.8 2.8 0 0 0-.52 1.849c.062.66.334 1.241.801 1.709a2.7 2.7 0 0 0 1.928.805 2.73 2.73 0 0 0 1.617-.519c.164-.117.724-.655.863-.831.142-.178.116-.403-.067-.59-.126-.129-.223-.174-.375-.174-.157.001-.186.021-.609.422-.378.359-.524.47-.725.552a1.8 1.8 0 0 1-1.378.004 1.85 1.85 0 0 1-.922-.918c-.108-.258-.118-.321-.111-.735l.007-.385.074-.178c.139-.33.197-.407.749-.97.747-.764.984-.977 1.212-1.09a1.5 1.5 0 0 1 .775-.179c.463 0 .719.085 1.116.375.215.156.3.196.415.196.21 0 .508-.307.508-.524 0-.166-.17-.369-.488-.583a2.7 2.7 0 0 0-.901-.401c-.13-.033-.241-.042-.6-.048-.41-.007-.454-.004-.642.04"/>
</svg>
