<svg xmlns="http://www.w3.org/2000/svg" xml:space="preserve" fill="none" viewBox="0 0 24 24">
  <path fill="#000" fill-rule="evenodd" d="M11.161.845A4.14 4.14 0 0 0 7.94 4.184c-.046.267-.06.688-.06 1.841V7.52l-1.85.001c-1.846.001-1.85.001-2.077.094-.488.201-.83.613-.911 1.096-.032.192-.041 1.828-.033 5.709l.011 5.44.112.24c.147.315.455.624.764.767l.244.113h15.72l.244-.113c.309-.143.617-.452.764-.767l.112-.24.011-5.44c.008-3.881-.001-5.517-.033-5.709-.077-.463-.4-.868-.865-1.082-.189-.087-.234-.089-2.073-.109l-1.88-.02-.023-1.62c-.025-1.7-.041-1.865-.232-2.377a4.1 4.1 0 0 0-.937-1.49A4.12 4.12 0 0 0 11.161.845m1.345 1.454c.509.096.928.327 1.339.737.282.282.373.406.505.684.264.556.27.604.27 2.28v1.5H9.38V6c0-1.676.006-1.724.27-2.28.226-.477.703-.956 1.19-1.195a2.52 2.52 0 0 1 1.666-.226M19.51 14.25l-.01 5.25h-15l-.01-5.25L4.48 9h15.04z"/>
</svg>
