<svg xmlns="http://www.w3.org/2000/svg" viewBox="0 0 32 32"><path d="M14.723 2.137 C 12.660 2.706,11.216 4.199,10.742 6.254 C 10.670 6.565,10.648 7.027,10.628 8.618 L 10.604 10.596 8.348 10.632 C 7.107 10.651,6.018 10.682,5.929 10.700 C 5.727 10.740,5.186 11.169,5.056 11.393 C 4.994 11.498,4.940 11.753,4.907 12.086 C 4.878 12.391,4.856 15.428,4.855 19.283 L 4.853 25.952 4.989 26.225 C 5.148 26.544,5.513 26.899,5.830 27.043 C 6.047 27.141,6.337 27.144,16.000 27.144 C 25.618 27.144,25.954 27.141,26.167 27.044 C 26.479 26.902,26.811 26.586,26.977 26.270 L 27.120 26.000 27.136 19.413 C 27.152 12.578,27.131 11.713,26.946 11.395 C 26.800 11.145,26.270 10.739,26.037 10.700 C 25.929 10.681,22.675 10.650,18.807 10.631 L 11.775 10.596 11.802 8.538 C 11.819 7.253,11.852 6.390,11.891 6.240 C 11.988 5.860,12.342 5.180,12.654 4.773 C 13.462 3.721,14.640 3.144,15.980 3.143 C 16.975 3.142,17.694 3.370,18.536 3.952 C 19.268 4.458,19.799 5.151,20.082 5.968 C 20.377 6.822,20.466 6.933,20.853 6.933 C 21.016 6.933,21.300 6.694,21.360 6.507 C 21.432 6.280,21.049 5.161,20.706 4.595 C 20.231 3.811,19.285 2.973,18.378 2.531 C 17.599 2.152,17.200 2.068,16.080 2.046 C 15.239 2.030,15.071 2.041,14.723 2.137 M25.896 11.917 C 25.969 12.028,25.986 12.333,26.012 13.970 L 26.043 15.893 16.000 15.893 L 5.957 15.893 5.987 13.972 C 6.012 12.326,6.029 12.031,6.103 11.918 L 6.189 11.787 16.000 11.787 L 25.811 11.787 25.896 11.917 M26.027 18.880 L 26.027 20.693 16.000 20.693 L 5.973 20.693 5.973 18.880 L 5.973 17.067 16.000 17.067 L 26.027 17.067 26.027 18.880 M26.013 23.794 C 25.985 25.595,25.976 25.731,25.879 25.861 L 25.775 26.000 16.000 26.000 L 6.225 26.000 6.120 25.859 C 6.022 25.728,6.013 25.600,5.986 23.793 L 5.957 21.867 16.000 21.867 L 26.043 21.867 26.013 23.794 " stroke="none" fill-rule="evenodd" fill="black"></path></svg>