<svg xmlns="http://www.w3.org/2000/svg" xml:space="preserve" fill="none" viewBox="0 0 24 24"><path d="M11.161 0.845 C 9.511 1.191,8.231 2.519,7.940 4.184 C 7.894 4.451,7.880 4.872,7.880 6.025 L 7.880 7.520 6.030 7.521 C 4.184 7.522,4.180 7.522,3.953 7.615 C 3.465 7.816,3.123 8.228,3.042 8.711 C 3.010 8.903,3.001 10.539,3.009 14.420 L 3.020 19.860 3.132 20.100 C 3.279 20.415,3.587 20.724,3.896 20.867 L 4.140 20.980 12.000 20.980 L 19.860 20.980 20.104 20.867 C 20.413 20.724,20.721 20.415,20.868 20.100 L 20.980 19.860 20.991 14.420 C 20.999 10.539,20.990 8.903,20.958 8.711 C 20.881 8.248,20.558 7.843,20.093 7.629 C 19.904 7.542,19.859 7.540,18.020 7.520 L 16.140 7.500 16.117 5.880 C 16.092 4.180,16.076 4.015,15.885 3.503 C 15.662 2.909,15.389 2.474,14.948 2.013 C 13.986 1.008,12.529 0.558,11.161 0.845 M12.506 2.299 C 13.015 2.395,13.434 2.626,13.845 3.036 C 14.127 3.318,14.218 3.442,14.350 3.720 C 14.614 4.276,14.620 4.324,14.620 6.000 L 14.620 7.500 12.000 7.500 L 9.380 7.500 9.380 6.000 C 9.380 4.324,9.386 4.276,9.650 3.720 C 9.876 3.243,10.353 2.764,10.840 2.525 C 11.384 2.257,11.909 2.186,12.506 2.299 M19.510 14.250 L 19.500 19.500 12.000 19.500 L 4.500 19.500 4.490 14.250 L 4.480 9.000 12.000 9.000 L 19.520 9.000 19.510 14.250 " stroke="none" fill-rule="evenodd" fill="black"></path></svg>