<svg xmlns="http://www.w3.org/2000/svg" viewBox="0 0 25.24 19.6"><path d="M4.396 0.028 C 4.281 0.059,4.050 0.237,3.973 0.356 C 3.872 0.509,-0.000 11.991,0.000 12.136 C 0.000 12.306,0.160 12.615,0.301 12.717 C 0.362 12.762,4.910 14.320,10.407 16.180 C 19.454 19.241,20.426 19.561,20.665 19.561 C 20.947 19.560,21.085 19.499,21.237 19.305 C 21.345 19.169,25.240 7.654,25.240 7.473 C 25.240 7.299,25.082 6.990,24.940 6.886 C 24.794 6.780,4.867 0.036,4.648 0.019 C 4.556 0.011,4.442 0.016,4.396 0.028 M14.380 4.856 L 20.116 6.798 20.136 7.216 C 20.210 8.792,20.906 10.151,22.182 11.211 L 22.385 11.379 21.856 12.932 C 21.566 13.787,21.328 14.492,21.328 14.499 C 21.328 14.507,21.160 14.513,20.955 14.513 C 20.023 14.513,18.996 14.843,18.118 15.425 C 17.816 15.625,17.120 16.282,16.886 16.587 L 16.763 16.748 10.955 14.783 L 5.147 12.817 5.097 12.245 C 5.009 11.215,4.725 10.400,4.166 9.572 C 3.947 9.247,3.443 8.709,3.060 8.390 L 2.860 8.224 3.381 6.689 L 3.902 5.153 4.422 5.106 C 5.037 5.051,5.320 4.996,5.812 4.835 C 6.418 4.638,7.019 4.303,7.509 3.890 C 7.781 3.661,8.224 3.204,8.362 3.011 C 8.446 2.892,8.489 2.865,8.557 2.887 C 8.605 2.902,11.226 3.788,14.380 4.856 M11.961 6.117 C 11.180 6.266,10.611 6.559,10.039 7.107 C 9.527 7.596,9.199 8.147,8.994 8.859 C 8.914 9.140,8.899 9.289,8.901 9.823 C 8.902 10.385,8.915 10.494,9.016 10.824 C 9.273 11.663,9.744 12.337,10.427 12.842 C 10.711 13.052,11.336 13.346,11.695 13.439 C 12.077 13.538,12.850 13.571,13.223 13.504 C 15.061 13.175,16.364 11.641,16.364 9.806 C 16.364 8.100,15.214 6.610,13.566 6.182 C 13.133 6.069,12.373 6.038,11.961 6.117 " stroke="none" fill-rule="evenodd" fill="black"></path></svg>