<svg xmlns="http://www.w3.org/2000/svg" viewBox="0 0 21 3"><path d="M4.057 0.066 C 3.430 0.267,3.010 0.844,3.010 1.505 C 3.010 2.093,3.315 2.582,3.855 2.861 C 4.021 2.946,4.088 2.959,4.436 2.969 C 4.907 2.983,5.083 2.936,5.384 2.714 C 5.624 2.537,5.856 2.210,5.936 1.936 C 6.006 1.694,6.007 1.317,5.937 1.077 C 5.709 0.293,4.828 -0.180,4.057 0.066 M10.137 0.037 C 9.904 0.095,9.600 0.281,9.414 0.477 C 8.975 0.941,8.880 1.603,9.167 2.187 C 9.299 2.454,9.586 2.734,9.861 2.863 C 10.046 2.950,10.098 2.958,10.501 2.958 C 10.925 2.958,10.946 2.954,11.172 2.843 C 11.448 2.707,11.730 2.418,11.857 2.142 C 12.207 1.379,11.877 0.493,11.110 0.134 C 10.920 0.045,10.827 0.024,10.576 0.014 C 10.409 0.008,10.211 0.018,10.137 0.037 M16.029 0.080 C 15.166 0.374,14.765 1.329,15.155 2.164 C 15.283 2.436,15.565 2.720,15.844 2.858 C 16.036 2.952,16.073 2.958,16.503 2.958 C 16.931 2.958,16.969 2.952,17.145 2.861 C 17.680 2.585,17.990 2.088,17.990 1.504 C 17.990 0.478,16.990 -0.248,16.029 0.080 " stroke="none" fill-rule="evenodd" fill="black"></path></svg>