<svg xmlns="http://www.w3.org/2000/svg" fill-rule="evenodd" viewBox="0 0 24 24"><path d="M6.398 4.556 L 4.737 4.580 4.504 4.720 C 4.221 4.890,4.033 5.101,3.880 5.420 L 3.765 5.660 3.745 11.520 C 3.733 14.743,3.712 17.430,3.697 17.491 C 3.652 17.676,3.358 17.947,3.166 17.979 C 2.876 18.028,2.687 17.971,2.499 17.777 C 2.406 17.681,2.318 17.553,2.303 17.491 C 2.288 17.430,2.265 15.265,2.253 12.680 L 2.230 7.980 2.107 7.825 C 1.791 7.424,1.208 7.426,0.888 7.830 L 0.760 7.992 0.761 12.546 C 0.762 15.051,0.779 17.284,0.800 17.508 C 0.843 17.993,0.936 18.235,1.208 18.574 C 1.469 18.899,1.771 19.150,2.071 19.290 C 2.289 19.393,2.390 19.413,2.851 19.442 C 3.557 19.488,18.811 19.487,19.595 19.442 C 20.169 19.408,20.228 19.397,20.468 19.279 C 20.967 19.033,21.472 18.452,21.648 17.920 L 21.734 17.660 21.751 12.019 C 21.762 8.298,21.753 6.236,21.726 5.964 C 21.696 5.663,21.657 5.493,21.582 5.340 C 21.468 5.107,21.193 4.829,20.919 4.670 L 20.740 4.566 14.400 4.549 C 10.913 4.540,7.312 4.543,6.398 4.556 M20.230 11.766 C 20.207 17.374,20.204 17.535,20.130 17.636 C 20.087 17.693,19.976 17.799,19.883 17.870 L 19.714 18.000 12.420 18.000 L 5.126 18.000 5.171 17.870 C 5.205 17.775,5.221 16.154,5.230 11.870 L 5.243 6.000 12.748 6.000 L 20.253 6.000 20.230 11.766 M9.212 9.797 C 8.655 9.820,8.643 9.822,8.524 9.936 C 8.358 10.095,8.280 10.277,8.280 10.507 C 8.280 10.744,8.377 10.936,8.578 11.099 L 8.727 11.220 12.734 11.220 C 16.703 11.220,16.741 11.219,16.880 11.138 C 17.363 10.854,17.340 10.071,16.843 9.845 C 16.715 9.787,16.347 9.780,13.240 9.777 C 11.337 9.775,9.525 9.784,9.212 9.797 M9.212 12.797 C 8.655 12.820,8.643 12.822,8.524 12.936 C 8.358 13.095,8.280 13.277,8.280 13.507 C 8.280 13.744,8.377 13.936,8.578 14.099 L 8.727 14.220 12.734 14.220 C 16.703 14.220,16.741 14.219,16.880 14.138 C 17.363 13.854,17.340 13.071,16.843 12.845 C 16.715 12.787,16.347 12.780,13.240 12.777 C 11.337 12.775,9.525 12.784,9.212 12.797 " stroke="none" fill-rule="evenodd" fill="black"></path></svg>