<svg xmlns="http://www.w3.org/2000/svg" xml:space="preserve" fill="none" viewBox="0 0 40 40">
  <path fill="#000" fill-rule="evenodd" d="M18.567 8.041c-3.193.26-5.741.905-8.495 2.152-2.171.982-4.561 2.602-6.247 4.235-.602.582-.626.617-.626.895.001.241.04.329.228.517.183.184.278.227.498.227.251 0 .33-.053 1.024-.677 2.112-1.902 3.989-3.118 6.417-4.155 3.106-1.327 6.274-1.866 9.923-1.688 1.405.069 1.461.067 1.633-.061.256-.19.369-.565.253-.84-.149-.351-.31-.445-.883-.513-.584-.07-3.205-.134-3.725-.092m8.666.019c-.206.091-.422.356-.439.54-.04.442-.02.468 1.705 2.198l1.7 1.704-1.667 1.666c-1.696 1.694-1.826 1.86-1.751 2.251.018.093.121.254.23.358.156.15.259.19.493.19h.295l1.718-1.717 1.717-1.717L32.9 15.2c1.115 1.116 1.738 1.691 1.883 1.739.47.155.95-.217.95-.736 0-.212-.133-.365-1.7-1.935-.935-.938-1.7-1.733-1.7-1.768s.765-.83 1.7-1.768c1.567-1.57 1.7-1.723 1.7-1.935 0-.519-.48-.891-.95-.736-.145.048-.768.623-1.883 1.739l-1.666 1.667-1.703-1.702c-1.457-1.457-1.736-1.706-1.933-1.732a.85.85 0 0 0-.365.027m-9.295 7.578c-3.276.42-6.575 1.963-8.884 4.154-.536.509-.554.536-.554.829 0 .244.038.343.193.505.369.385.719.336 1.271-.181a14.69 14.69 0 0 1 11.782-3.841c.949.116 1.09.089 1.345-.254.247-.335.109-.911-.252-1.048-.664-.252-3.48-.347-4.901-.164m.862 7.464c-1.672.234-3.419 1.05-4.583 2.143-.369.346-.417.42-.417.643 0 .493.281.779.764.779.175 0 .326-.084.68-.377 1.292-1.066 2.553-1.611 4.06-1.754 2.009-.19 3.792.384 5.452 1.754.354.293.505.377.68.377.483 0 .764-.286.764-.779 0-.223-.048-.297-.417-.643a9 9 0 0 0-.956-.751 8.67 8.67 0 0 0-6.027-1.392m.848 6.663c-1.441.371-1.534 2.453-.13 2.931.423.144.725.129 1.12-.055 1.126-.524 1.202-2.121.129-2.71-.416-.227-.711-.271-1.119-.166"/>
</svg>
