<svg xmlns="http://www.w3.org/2000/svg" xml:space="preserve" fill="none" viewBox="0 0 40 40"><path d="M18.567 8.041 C 15.374 8.301,12.826 8.946,10.072 10.193 C 7.901 11.175,5.511 12.795,3.825 14.428 C 3.223 15.010,3.199 15.045,3.199 15.323 C 3.200 15.564,3.239 15.652,3.427 15.840 C 3.610 16.024,3.705 16.067,3.925 16.067 C 4.176 16.067,4.255 16.014,4.949 15.390 C 7.061 13.488,8.938 12.272,11.366 11.235 C 14.472 9.908,17.640 9.369,21.289 9.547 C 22.694 9.616,22.750 9.614,22.922 9.486 C 23.178 9.296,23.291 8.921,23.175 8.646 C 23.026 8.295,22.865 8.201,22.292 8.133 C 21.708 8.063,19.087 7.999,18.567 8.041 M27.233 8.060 C 27.027 8.151,26.811 8.416,26.794 8.600 C 26.754 9.042,26.774 9.068,28.499 10.798 L 30.199 12.502 28.532 14.168 C 26.836 15.862,26.706 16.028,26.781 16.419 C 26.799 16.512,26.902 16.673,27.011 16.777 C 27.167 16.927,27.270 16.967,27.504 16.967 L 27.799 16.967 29.517 15.250 L 31.234 13.533 32.900 15.200 C 34.015 16.316,34.638 16.891,34.783 16.939 C 35.253 17.094,35.733 16.722,35.733 16.203 C 35.733 15.991,35.600 15.838,34.033 14.268 C 33.098 13.330,32.333 12.535,32.333 12.500 C 32.333 12.465,33.098 11.670,34.033 10.732 C 35.600 9.162,35.733 9.009,35.733 8.797 C 35.733 8.278,35.253 7.906,34.783 8.061 C 34.638 8.109,34.015 8.684,32.900 9.800 L 31.234 11.467 29.531 9.765 C 28.074 8.308,27.795 8.059,27.598 8.033 C 27.471 8.016,27.307 8.028,27.233 8.060 M17.938 15.638 C 14.662 16.058,11.363 17.601,9.054 19.792 C 8.518 20.301,8.500 20.328,8.500 20.621 C 8.500 20.865,8.538 20.964,8.693 21.126 C 9.062 21.511,9.412 21.462,9.964 20.945 C 13.113 17.996,17.457 16.580,21.746 17.104 C 22.695 17.220,22.836 17.193,23.091 16.850 C 23.338 16.515,23.200 15.939,22.839 15.802 C 22.175 15.550,19.359 15.455,17.938 15.638 M18.800 23.102 C 17.128 23.336,15.381 24.152,14.217 25.245 C 13.848 25.591,13.800 25.665,13.800 25.888 C 13.800 26.381,14.081 26.667,14.564 26.667 C 14.739 26.667,14.890 26.583,15.244 26.290 C 16.536 25.224,17.797 24.679,19.304 24.536 C 21.313 24.346,23.096 24.920,24.756 26.290 C 25.110 26.583,25.261 26.667,25.436 26.667 C 25.919 26.667,26.200 26.381,26.200 25.888 C 26.200 25.665,26.152 25.591,25.783 25.245 C 25.554 25.030,25.124 24.692,24.827 24.494 C 23.033 23.299,20.907 22.808,18.800 23.102 M19.648 29.765 C 18.207 30.136,18.114 32.218,19.518 32.696 C 19.941 32.840,20.243 32.825,20.638 32.641 C 21.764 32.117,21.840 30.520,20.767 29.931 C 20.351 29.704,20.056 29.660,19.648 29.765 " stroke="none" fill-rule="evenodd" fill="black"></path></svg>