<svg xmlns="http://www.w3.org/2000/svg" viewBox="0 0 22 17">
  <path fill-rule="evenodd" d="M7.579.073C6.833.145 5.77.435 5.038.765a8.55 8.55 0 0 0-4.95 6.552c-.089.611-.09 1.826-.001 2.398.439 2.851 2.155 5.201 4.698 6.437.615.299 1.07.465 1.776.65l.571.15 1.001.016c1.245.02 1.768-.022 2.426-.195a8.3 8.3 0 0 0 1.706-.639c.901-.442 1.591-.949 2.329-1.71 1.071-1.106 1.699-2.235 2.147-3.862.07-.251.114-.468.098-.482-.015-.015-.344-.038-.731-.053l-.703-.026-.037.142c-.021.078-.057.22-.08.316l-.043.174H11.92l.023-.317.022-.318-.672.025c-.37.014-.693.042-.718.063-.024.02-.056.152-.07.293l-.026.256-1.955-.01c-1.075-.005-1.965-.02-1.977-.033-.139-.139-.151-4.02-.013-4.159a86 86 0 0 1 1.977-.038l1.965-.026.025.253c.014.139.04.278.059.308.028.045.159.057.719.067l.685.012-.026-.314-.025-.315h3.332l.024.125c.013.069.048.21.079.312l.055.186h.715c.547 0 .719-.011.732-.047.024-.061-.242-1-.411-1.452-.489-1.309-1.417-2.598-2.552-3.547C12.761 1.016 11.242.344 9.753.128 9.291.061 8.028.029 7.579.073m3.21 1.765c1.496.549 2.785 1.554 3.592 2.8l.214.33-1.385.011c-.762.005-1.418.002-1.459-.008-.057-.014-.089-.079-.141-.285-.214-.847-.638-1.881-1.122-2.734-.083-.146-.142-.265-.131-.265s.206.068.432.151m-4.297.151a11 11 0 0 0-1.139 2.842l-.039.156H3.885c-1.172 0-1.428-.009-1.428-.05 0-.102.453-.747.835-1.188.259-.3.805-.755 1.31-1.092.575-.384 1.725-.927 1.973-.932.057-.001.045.038-.083.264m2.403.22c.339.45.635.952.867 1.471.199.443.431 1.106.431 1.229v.078H8.509c-1.003 0-1.693-.014-1.706-.035-.031-.049.181-.688.39-1.175a7.6 7.6 0 0 1 1.048-1.753c.279-.36.232-.374.654.185m9.815 3.097c-.11.021-.259.206-.287.356-.041.221.011.29 1.125 1.477.401.427.729.784.729.793 0 .008-1.498.026-3.328.039-1.83.012-3.836.033-4.457.045-1.13.023-1.13.023-1.237.112a.445.445 0 0 0 .013.687c.103.076.121.076 4.527.106 2.434.016 4.431.036 4.438.044.027.026-.098.173-.704.823-1.074 1.152-1.167 1.284-1.089 1.546.08.268.4.37.663.212.27-.162 2.638-2.678 2.784-2.959.098-.187-.035-.378-.948-1.363a68 68 0 0 0-1.117-1.164c-.532-.542-.724-.715-.825-.743a.44.44 0 0 0-.287-.011M5.08 6.478c-.118.472-.119 3.713 0 4.086.021.067-.03.069-1.648.069H1.763l-.042-.155c-.19-.7-.218-.954-.217-1.962 0-.895.008-1.018.088-1.407.049-.234.107-.494.13-.577l.041-.152h3.342zm-.096 5.654.346.023.141.495c.232.811.64 1.765 1.078 2.518.037.065.056.129.042.143-.04.04-.546-.151-1.091-.411-.844-.404-1.608-.966-2.18-1.603-.27-.3-.7-.869-.824-1.091l-.078-.137 1.11.02c.611.011 1.266.03 1.456.043m5.173.179c-.169.609-.571 1.486-.944 2.062-.284.437-.669.923-.719.907-.082-.025-.573-.672-.798-1.049-.344-.576-.815-1.662-.888-2.049l-.023-.119h3.44zm4.361-.187c.064.058-.501.811-.966 1.29a7 7 0 0 1-1.914 1.426c-.39.199-1.211.513-1.247.477-.012-.013.087-.218.22-.457.432-.775.823-1.762.998-2.516l.066-.287 1.413.026c.778.014 1.421.033 1.43.041"/>
</svg>
