<svg xmlns="http://www.w3.org/2000/svg" viewBox="0 0 12 12"><path d="M5.415 1.059 C 4.875 1.153,4.418 1.341,3.980 1.650 C 3.209 2.194,2.672 3.067,2.539 3.994 C 2.524 4.100,2.519 4.316,2.525 4.604 C 2.534 4.991,2.542 5.078,2.586 5.260 C 2.741 5.902,3.029 6.438,3.460 6.887 C 3.581 7.013,3.744 7.167,3.820 7.230 C 3.897 7.293,3.960 7.351,3.960 7.358 C 3.960 7.365,3.899 7.397,3.825 7.429 C 3.321 7.643,2.736 7.995,2.337 8.324 C 2.103 8.518,1.712 8.912,1.520 9.149 C 1.331 9.382,1.030 9.841,0.982 9.970 C 0.878 10.248,0.974 10.446,1.285 10.591 C 1.409 10.649,1.553 10.655,1.654 10.607 C 1.737 10.567,1.822 10.463,2.062 10.109 C 2.775 9.052,3.808 8.361,5.070 8.095 L 5.370 8.031 6.000 8.031 L 6.630 8.031 6.930 8.095 C 7.876 8.295,8.694 8.736,9.363 9.406 C 9.609 9.652,9.775 9.858,10.010 10.212 C 10.273 10.607,10.336 10.656,10.549 10.634 C 10.770 10.612,11.007 10.431,11.058 10.247 C 11.097 10.108,11.006 9.893,10.751 9.520 C 10.530 9.197,10.309 8.934,10.017 8.649 C 9.708 8.348,9.525 8.199,9.181 7.970 C 8.923 7.798,8.468 7.553,8.175 7.429 C 8.101 7.397,8.040 7.365,8.040 7.358 C 8.040 7.351,8.103 7.293,8.180 7.230 C 8.411 7.041,8.747 6.676,8.900 6.448 C 9.145 6.081,9.345 5.606,9.430 5.190 C 9.506 4.818,9.506 4.182,9.430 3.810 C 9.344 3.385,9.113 2.852,8.864 2.501 C 8.683 2.245,8.335 1.889,8.080 1.698 C 7.834 1.513,7.368 1.270,7.092 1.182 C 6.726 1.064,6.549 1.038,6.070 1.029 C 5.703 1.022,5.594 1.027,5.415 1.059 M6.218 2.022 C 7.068 2.101,7.793 2.577,8.197 3.320 C 8.384 3.665,8.460 3.963,8.475 4.403 C 8.494 4.986,8.385 5.398,8.091 5.850 C 7.715 6.429,7.136 6.822,6.465 6.953 C 6.230 6.999,5.732 6.998,5.513 6.951 C 4.745 6.787,4.099 6.286,3.764 5.596 C 3.644 5.348,3.591 5.189,3.551 4.952 C 3.511 4.721,3.511 4.281,3.551 4.050 C 3.740 2.962,4.658 2.121,5.765 2.022 C 5.867 2.013,5.959 2.004,5.970 2.003 C 5.981 2.001,6.093 2.010,6.218 2.022 " stroke="none" fill-rule="evenodd" fill="black"></path></svg>