<svg xmlns="http://www.w3.org/2000/svg" viewBox="0 0 12 12">
  <path fill-rule="evenodd" d="M5.415 1.059c-.54.094-.997.282-1.435.591a3.53 3.53 0 0 0-1.441 2.344 5 5 0 0 0-.014.61c.009.387.017.474.061.656.155.642.443 1.178.874 1.627.121.126.284.28.36.343s.14.121.14.128a.5.5 0 0 1-.135.071 6.6 6.6 0 0 0-1.488.895 7.5 7.5 0 0 0-.817.825c-.189.233-.49.692-.538.821-.104.278-.008.476.303.621a.45.45 0 0 0 .369.016c.083-.04.168-.144.408-.498.713-1.057 1.746-1.748 3.008-2.014l.3-.064h1.26l.3.064a4.77 4.77 0 0 1 3.08 2.117c.263.395.326.444.539.422.221-.022.458-.203.509-.387.039-.139-.052-.354-.307-.727a5.5 5.5 0 0 0-.734-.871 5 5 0 0 0-.836-.679 7.4 7.4 0 0 0-1.006-.541.5.5 0 0 1-.135-.071c0-.007.063-.065.14-.128.231-.189.567-.554.72-.782.245-.367.445-.842.53-1.258a4.2 4.2 0 0 0 0-1.38 3.8 3.8 0 0 0-.566-1.309 4.3 4.3 0 0 0-.784-.803 4.2 4.2 0 0 0-.988-.516c-.366-.118-.543-.144-1.022-.153-.367-.007-.476-.002-.655.03m.803.963c.85.079 1.575.555 1.979 1.298.187.345.263.643.278 1.083.019.583-.09.995-.384 1.447a2.5 2.5 0 0 1-1.626 1.103 3.3 3.3 0 0 1-.952-.002 2.52 2.52 0 0 1-1.749-1.355 2.1 2.1 0 0 1-.213-.644 3.4 3.4 0 0 1 0-.902 2.48 2.48 0 0 1 2.214-2.028l.205-.019c.011-.002.123.007.248.019"/>
</svg>
