<svg xmlns="http://www.w3.org/2000/svg" fill-rule="evenodd" stroke-linejoin="round" stroke-miterlimit="2" clip-rule="evenodd" viewBox="0 0 21 24"><path d="M9.625 1.333 C 9.278 1.371,8.848 1.484,8.611 1.599 C 8.385 1.710,7.948 2.132,7.756 2.426 C 7.589 2.683,7.437 3.097,7.359 3.511 C 7.271 3.976,7.280 5.388,7.378 6.423 C 7.493 7.636,7.497 7.734,7.456 8.062 C 7.384 8.639,7.206 8.954,6.363 10.000 C 6.086 10.342,5.808 10.699,5.744 10.791 C 5.565 11.052,5.339 11.566,5.233 11.953 C 5.001 12.801,4.888 13.086,4.374 14.140 C 3.941 15.027,3.843 15.256,3.795 15.497 C 3.753 15.715,3.746 15.833,3.771 15.975 C 3.801 16.151,3.794 16.185,3.668 16.491 C 3.460 16.991,3.465 16.988,2.826 17.012 C 2.252 17.034,2.164 17.058,1.988 17.243 C 1.860 17.378,1.748 17.642,1.726 17.861 C 1.716 17.961,1.742 18.317,1.785 18.655 C 1.894 19.515,1.883 19.608,1.595 20.175 C 1.358 20.643,1.324 20.783,1.399 20.979 C 1.487 21.210,1.963 21.403,2.908 21.592 C 3.608 21.731,4.237 21.904,5.382 22.275 C 6.460 22.623,6.621 22.659,7.010 22.639 C 7.358 22.620,7.650 22.499,7.937 22.253 C 8.199 22.029,8.420 21.919,8.806 21.821 C 9.530 21.637,10.668 21.628,12.278 21.794 L 12.849 21.853 12.969 22.016 C 13.262 22.416,13.626 22.640,14.144 22.737 C 14.628 22.829,15.008 22.750,15.428 22.469 C 15.541 22.394,15.946 22.063,16.330 21.734 C 17.133 21.045,17.572 20.737,18.212 20.416 C 18.777 20.133,19.089 19.938,19.179 19.811 C 19.218 19.757,19.266 19.634,19.287 19.537 C 19.365 19.174,19.203 18.938,18.671 18.640 C 18.350 18.459,18.028 18.223,17.924 18.091 C 17.847 17.993,17.745 17.708,17.745 17.591 C 17.745 17.426,17.568 16.818,17.483 16.689 C 17.434 16.616,17.356 16.546,17.307 16.534 C 17.259 16.522,17.220 16.507,17.220 16.501 C 17.220 16.495,17.251 16.358,17.290 16.198 C 17.621 14.814,17.309 13.110,16.442 11.568 C 16.214 11.162,16.067 10.946,15.596 10.325 C 14.776 9.244,14.114 8.127,13.988 7.613 C 13.881 7.177,13.794 6.517,13.665 5.180 C 13.561 4.094,13.378 3.320,13.100 2.791 C 12.949 2.503,12.563 2.079,12.274 1.883 C 11.566 1.402,10.678 1.218,9.625 1.333 M11.519 4.587 C 11.815 4.738,11.943 5.046,11.948 5.618 C 11.952 5.972,11.881 6.602,11.829 6.687 C 11.806 6.724,11.775 6.722,11.666 6.676 C 11.593 6.645,11.495 6.609,11.449 6.596 C 11.368 6.573,11.370 6.568,11.523 6.437 C 11.641 6.336,11.691 6.262,11.721 6.146 C 11.805 5.810,11.730 5.471,11.522 5.254 C 11.286 5.007,11.007 4.999,10.772 5.235 C 10.621 5.386,10.570 5.565,10.570 5.945 C 10.570 6.205,10.565 6.222,10.501 6.205 C 10.348 6.165,10.196 5.490,10.256 5.119 C 10.314 4.768,10.466 4.603,10.805 4.528 C 11.049 4.474,11.345 4.498,11.519 4.587 M8.715 4.720 C 8.996 4.925,9.124 5.275,9.089 5.742 C 9.054 6.196,8.982 6.264,8.949 5.874 C 8.921 5.540,8.784 5.260,8.601 5.163 L 8.470 5.093 8.342 5.163 C 8.271 5.201,8.165 5.293,8.105 5.367 C 8.005 5.493,7.998 5.521,7.998 5.787 C 7.998 6.138,8.077 6.371,8.230 6.468 L 8.337 6.535 8.230 6.612 L 8.123 6.688 8.000 6.520 C 7.826 6.282,7.770 6.093,7.770 5.741 C 7.770 5.192,7.924 4.815,8.201 4.686 C 8.372 4.607,8.578 4.621,8.715 4.720 M8.568 5.337 C 8.716 5.462,8.815 5.863,8.692 5.839 C 8.656 5.832,8.611 5.758,8.578 5.653 C 8.539 5.530,8.502 5.474,8.453 5.466 C 8.346 5.447,8.320 5.405,8.363 5.324 C 8.414 5.229,8.442 5.231,8.568 5.337 M11.397 5.336 C 11.498 5.406,11.557 5.565,11.544 5.727 L 11.533 5.863 11.431 5.705 C 11.376 5.618,11.281 5.505,11.221 5.452 C 11.130 5.372,11.121 5.351,11.165 5.322 C 11.238 5.272,11.312 5.277,11.397 5.336 M10.063 6.200 C 10.198 6.236,11.263 6.626,11.520 6.734 C 11.753 6.832,12.075 7.038,12.132 7.124 C 12.290 7.365,12.045 7.661,11.253 8.186 C 10.212 8.877,9.731 9.048,9.213 8.910 C 8.955 8.841,8.768 8.723,8.454 8.430 C 8.216 8.207,7.926 7.848,7.958 7.815 C 7.965 7.809,8.063 7.865,8.176 7.940 C 8.898 8.416,9.607 8.425,10.518 7.970 C 10.785 7.837,11.395 7.480,11.457 7.421 C 11.490 7.390,11.425 7.245,11.378 7.245 C 11.362 7.245,11.223 7.331,11.069 7.435 C 10.722 7.672,10.190 7.958,9.933 8.046 C 9.614 8.156,9.258 8.199,9.033 8.153 C 8.727 8.092,8.280 7.860,8.064 7.652 C 7.907 7.500,7.875 7.448,7.875 7.348 C 7.875 7.125,8.110 6.848,8.543 6.561 C 8.792 6.395,9.230 6.179,9.380 6.149 C 9.497 6.125,9.889 6.154,10.063 6.200 M9.170 6.326 C 9.072 6.375,9.048 6.408,9.048 6.490 C 9.048 6.637,9.118 6.639,9.261 6.496 C 9.444 6.313,9.392 6.215,9.170 6.326 M9.660 6.309 C 9.660 6.393,9.837 6.615,9.903 6.615 C 10.046 6.615,10.001 6.421,9.835 6.323 C 9.717 6.254,9.660 6.249,9.660 6.309 M12.078 8.408 C 12.162 8.606,12.374 9.059,12.549 9.415 C 12.822 9.969,12.872 10.096,12.890 10.292 C 12.927 10.695,13.122 11.152,13.530 11.795 C 13.824 12.259,13.936 12.499,14.048 12.916 C 14.223 13.561,14.245 13.791,14.245 14.941 C 14.245 15.530,14.235 16.094,14.223 16.193 L 14.201 16.373 14.057 16.307 C 13.756 16.171,13.518 16.242,13.328 16.524 C 13.158 16.778,13.111 17.004,13.114 17.548 C 13.116 17.815,13.128 18.148,13.141 18.287 L 13.165 18.542 12.867 18.889 C 12.105 19.776,11.243 20.259,10.159 20.406 C 9.791 20.456,8.982 20.436,8.680 20.369 C 8.406 20.309,8.083 20.155,7.920 20.008 C 7.767 19.869,7.543 19.484,7.572 19.409 C 7.582 19.383,7.640 19.351,7.700 19.338 C 7.833 19.308,8.234 18.943,8.295 18.796 C 8.358 18.642,8.313 18.476,8.142 18.246 C 7.799 17.781,7.341 17.359,6.685 16.904 C 5.842 16.319,5.372 15.882,5.193 15.517 C 5.097 15.321,5.093 15.292,5.093 14.823 C 5.094 14.275,5.135 14.088,5.402 13.405 C 5.578 12.953,6.098 11.896,6.176 11.832 C 6.219 11.796,6.252 11.794,6.317 11.823 L 6.402 11.862 6.209 12.170 C 5.892 12.674,5.624 13.289,5.404 14.021 C 5.323 14.288,5.310 14.400,5.306 14.806 L 5.303 15.280 5.425 15.482 C 5.561 15.708,5.657 15.809,5.696 15.770 C 5.711 15.756,5.732 15.490,5.744 15.178 C 5.777 14.325,5.904 13.877,6.429 12.762 C 6.977 11.598,7.069 11.378,7.173 10.996 C 7.303 10.519,7.343 10.418,7.715 9.633 C 7.881 9.281,8.044 8.891,8.077 8.767 C 8.110 8.642,8.149 8.540,8.165 8.540 C 8.180 8.540,8.328 8.658,8.494 8.803 C 8.857 9.120,9.027 9.184,9.504 9.181 C 10.081 9.178,10.658 8.923,11.485 8.306 C 11.698 8.146,11.885 8.023,11.900 8.033 C 11.915 8.042,11.995 8.211,12.078 8.408 M14.607 11.509 C 14.987 11.712,15.409 12.353,15.523 12.898 C 15.634 13.432,15.576 14.563,15.404 15.215 L 15.337 15.468 15.447 15.484 C 15.508 15.493,15.722 15.525,15.924 15.555 C 16.519 15.645,16.882 15.855,17.060 16.213 C 17.215 16.524,17.145 16.699,16.981 16.412 C 16.862 16.204,16.667 16.000,16.511 15.920 C 16.124 15.723,15.302 15.637,15.050 15.767 C 14.983 15.802,14.797 15.954,14.636 16.105 C 14.278 16.444,14.217 16.465,14.349 16.207 C 14.423 16.063,14.743 15.721,14.947 15.570 C 15.053 15.492,15.086 15.430,15.166 15.168 C 15.342 14.592,15.374 14.373,15.373 13.738 C 15.373 13.198,15.365 13.114,15.281 12.835 C 15.103 12.237,14.883 11.925,14.435 11.634 C 14.321 11.560,14.221 11.496,14.214 11.491 C 14.206 11.486,14.220 11.457,14.245 11.428 C 14.298 11.364,14.366 11.379,14.607 11.509 M4.845 16.188 C 5.229 16.369,5.485 16.663,5.966 17.476 C 6.135 17.761,6.523 18.343,6.830 18.771 C 7.263 19.375,7.445 19.664,7.648 20.073 C 7.948 20.675,8.022 20.925,8.028 21.368 C 8.032 21.653,8.023 21.698,7.936 21.847 C 7.825 22.036,7.624 22.209,7.350 22.352 C 7.176 22.443,7.125 22.452,6.808 22.452 L 6.458 22.453 5.198 22.026 C 4.006 21.622,3.669 21.530,2.725 21.351 C 2.064 21.225,1.746 21.099,1.625 20.914 C 1.548 20.796,1.592 20.620,1.822 20.123 C 1.917 19.919,2.021 19.645,2.054 19.514 C 2.111 19.280,2.111 19.264,2.014 18.634 C 1.908 17.939,1.913 17.833,2.067 17.531 C 2.178 17.314,2.241 17.291,2.881 17.238 C 3.550 17.181,3.690 17.137,3.764 16.960 C 3.792 16.892,3.815 16.805,3.815 16.765 C 3.815 16.673,3.962 16.381,4.048 16.303 C 4.151 16.210,4.416 16.102,4.543 16.101 C 4.607 16.100,4.743 16.140,4.845 16.188 M13.993 16.499 C 14.146 16.578,14.200 16.662,14.312 16.990 C 14.485 17.497,14.646 17.682,15.038 17.820 C 15.198 17.877,15.300 17.889,15.510 17.877 C 15.903 17.855,16.068 17.760,16.608 17.244 C 16.858 17.006,17.099 16.792,17.143 16.768 C 17.291 16.690,17.303 16.716,17.498 17.531 C 17.651 18.165,17.822 18.403,18.355 18.721 C 18.561 18.843,18.784 18.999,18.850 19.067 C 18.996 19.217,19.056 19.413,19.010 19.582 C 18.941 19.831,18.859 19.896,18.190 20.225 C 17.350 20.639,17.063 20.835,16.195 21.584 C 15.434 22.240,15.157 22.425,14.787 22.521 C 14.505 22.595,14.262 22.589,13.978 22.501 C 13.699 22.415,13.498 22.285,13.318 22.077 C 13.094 21.817,13.092 21.808,13.164 21.298 C 13.334 20.080,13.343 19.961,13.372 18.515 C 13.388 17.716,13.416 17.007,13.433 16.940 C 13.479 16.759,13.567 16.606,13.672 16.523 C 13.780 16.438,13.862 16.431,13.993 16.499 " stroke="none" fill-rule="evenodd" fill="black"></path></svg>