<svg xmlns="http://www.w3.org/2000/svg" fill-rule="evenodd" stroke-linejoin="round" stroke-miterlimit="2" clip-rule="evenodd" viewBox="0 0 21 24">
  <path d="M9.625 1.333c-.347.038-.777.151-1.014.266-.226.111-.663.533-.855.827-.167.257-.319.671-.397 1.085-.088.465-.079 1.877.019 2.912.115 1.213.119 1.311.078 1.639-.072.577-.25.892-1.093 1.938-.277.342-.555.699-.619.791-.179.261-.405.775-.511 1.162-.232.848-.345 1.133-.859 2.187-.433.887-.531 1.116-.579 1.357-.042.218-.049.336-.024.478.03.176.023.21-.103.516-.208.5-.203.497-.842.521-.574.022-.662.046-.838.231-.128.135-.24.399-.262.618-.01.1.016.456.059.794.109.86.098.953-.19 1.52-.237.468-.271.608-.196.804.088.231.564.424 1.509.613.7.139 1.329.312 2.474.683 1.078.348 1.239.384 1.628.364.348-.019.64-.14.927-.386.262-.224.483-.334.869-.432.724-.184 1.862-.193 3.472-.027l.571.059.12.163c.293.4.657.624 1.175.721.484.092.864.013 1.284-.268.113-.075.518-.406.902-.735.803-.689 1.242-.997 1.882-1.318.565-.283.877-.478.967-.605a.9.9 0 0 0 .108-.274c.078-.363-.084-.599-.616-.897-.321-.181-.643-.417-.747-.549a1.2 1.2 0 0 1-.179-.5c0-.165-.177-.773-.262-.902-.049-.073-.127-.143-.176-.155s-.087-.027-.087-.033.031-.143.07-.303c.331-1.384.019-3.088-.848-4.63-.228-.406-.375-.622-.846-1.243-.82-1.081-1.482-2.198-1.608-2.712-.107-.436-.194-1.096-.323-2.433-.104-1.086-.287-1.86-.565-2.389-.151-.288-.537-.712-.826-.908-.708-.481-1.596-.665-2.649-.55m1.894 3.254c.296.151.424.459.429 1.031.004.354-.067.984-.119 1.069-.023.037-.054.035-.163-.011a2 2 0 0 0-.217-.08c-.081-.023-.079-.028.074-.159.118-.101.168-.175.198-.291.084-.336.009-.675-.199-.892-.236-.247-.515-.255-.75-.019-.151.151-.202.33-.202.71 0 .26-.005.277-.069.26-.153-.04-.305-.715-.245-1.086.058-.351.21-.516.549-.591.244-.054.54-.03.714.059m-2.804.133c.281.205.409.555.374 1.022-.035.454-.107.522-.14.132-.028-.334-.165-.614-.348-.711l-.131-.07-.128.07a1 1 0 0 0-.237.204c-.1.126-.107.154-.107.42 0 .351.079.584.232.681l.107.067-.107.077-.107.076L8 6.52c-.174-.238-.23-.427-.23-.779 0-.549.154-.926.431-1.055a.53.53 0 0 1 .514.034m-.147.617c.148.125.247.526.124.502-.036-.007-.081-.081-.114-.186-.039-.123-.076-.179-.125-.187-.107-.019-.133-.061-.09-.142.051-.095.079-.093.205.013m2.829-.001c.101.07.16.229.147.391l-.011.136-.102-.158a1.4 1.4 0 0 0-.21-.253c-.091-.08-.1-.101-.056-.13.073-.05.147-.045.232.014m-1.334.864c.135.036 1.2.426 1.457.534.233.098.555.304.612.39.158.241-.087.537-.879 1.062-1.041.691-1.522.862-2.04.724-.258-.069-.445-.187-.759-.48-.238-.223-.528-.582-.496-.615.007-.006.105.05.218.125.722.476 1.431.485 2.342.03.267-.133.877-.49.939-.549.033-.031-.032-.176-.079-.176-.016 0-.155.086-.309.19-.347.237-.879.523-1.136.611-.319.11-.675.153-.9.107-.306-.061-.753-.293-.969-.501-.157-.152-.189-.204-.189-.304 0-.223.235-.5.668-.787.249-.166.687-.382.837-.412.117-.024.509.005.683.051m-.893.126c-.098.049-.122.082-.122.164q0 .22.213.006c.183-.183.131-.281-.091-.17m.49-.017c0 .084.177.306.243.306.143 0 .098-.194-.068-.292q-.176-.104-.175-.014m2.418 2.099c.084.198.296.651.471 1.007.273.554.323.681.341.877.037.403.232.86.64 1.503.294.464.406.704.518 1.121.175.645.197.875.197 2.025 0 .589-.01 1.153-.022 1.252l-.022.18-.144-.066c-.301-.136-.539-.065-.729.217-.17.254-.217.48-.214 1.024.002.267.014.6.027.739l.024.255-.298.347c-.762.887-1.624 1.37-2.708 1.517-.368.05-1.177.03-1.479-.037-.274-.06-.597-.214-.76-.361-.153-.139-.377-.524-.348-.599.01-.026.068-.058.128-.071.133-.03.534-.395.595-.542.063-.154.018-.32-.153-.55-.343-.465-.801-.887-1.457-1.342-.843-.585-1.313-1.022-1.492-1.387-.096-.196-.1-.225-.1-.694.001-.548.042-.735.309-1.418.176-.452.696-1.509.774-1.573.043-.036.076-.038.141-.009l.085.039-.193.308q-.475.754-.805 1.851c-.081.267-.094.379-.098.785l-.003.474.122.202c.136.226.232.327.271.288.015-.014.036-.28.048-.592.033-.853.16-1.301.685-2.416.548-1.164.64-1.384.744-1.766.13-.477.17-.578.542-1.363.166-.352.329-.742.362-.866.033-.125.072-.227.088-.227.015 0 .163.118.329.263.363.317.533.381 1.01.378.577-.003 1.154-.258 1.981-.875.213-.16.4-.283.415-.273s.095.178.178.375m2.529 3.101c.38.203.802.844.916 1.389.111.534.053 1.665-.119 2.317l-.067.253.11.016.477.071c.595.09.958.3 1.136.658.155.311.085.486-.079.199-.119-.208-.314-.412-.47-.492-.387-.197-1.209-.283-1.461-.153a3 3 0 0 0-.414.338c-.358.339-.419.36-.287.102.074-.144.394-.486.598-.637.106-.078.139-.14.219-.402.176-.576.208-.795.207-1.43 0-.54-.008-.624-.092-.903-.178-.598-.398-.91-.846-1.201l-.221-.143c-.008-.005.006-.034.031-.063.053-.064.121-.049.362.081m-9.762 4.679c.384.181.64.475 1.121 1.288.169.285.557.867.864 1.295.433.604.615.893.818 1.302.3.602.374.852.38 1.295.004.285-.005.33-.092.479-.111.189-.312.362-.586.505-.174.091-.225.1-.542.1l-.35.001-1.26-.427c-1.192-.404-1.529-.496-2.473-.675-.661-.126-.979-.252-1.1-.437-.077-.118-.033-.294.197-.791a4.4 4.4 0 0 0 .232-.609c.057-.234.057-.25-.04-.88-.106-.695-.101-.801.053-1.103.111-.217.174-.24.814-.293.669-.057.809-.101.883-.278a.7.7 0 0 0 .051-.195c0-.092.147-.384.233-.462.103-.093.368-.201.495-.202.064-.001.2.039.302.087m9.148.311c.153.079.207.163.319.491.173.507.334.692.726.83.16.057.262.069.472.057.393-.022.558-.117 1.098-.633.25-.238.491-.452.535-.476.148-.078.16-.052.355.763.153.634.324.872.857 1.19.206.122.429.278.495.346.146.15.206.346.16.515-.069.249-.151.314-.82.643-.84.414-1.127.61-1.995 1.359-.761.656-1.038.841-1.408.937a1.4 1.4 0 0 1-.809-.02 1.34 1.34 0 0 1-.66-.424c-.224-.26-.226-.269-.154-.779.17-1.218.179-1.337.208-2.783.016-.799.044-1.508.061-1.575.046-.181.134-.334.239-.417.108-.085.19-.092.321-.024"/>
</svg>
