<svg xmlns="http://www.w3.org/2000/svg" fill-rule="evenodd" stroke-linejoin="round" stroke-miterlimit="2" clip-rule="evenodd" viewBox="0 0 24 24"><path d="M15.506 1.065 C 14.673 1.244,13.703 1.815,12.937 2.579 C 12.288 3.225,12.020 3.693,11.699 4.740 C 11.568 5.168,11.552 5.266,11.554 5.642 C 11.555 5.874,11.574 6.113,11.597 6.172 L 11.638 6.280 12.124 6.280 C 12.564 6.280,12.645 6.268,12.975 6.155 C 13.745 5.892,14.210 5.594,14.759 5.013 C 15.225 4.522,15.459 4.198,15.681 3.740 C 16.010 3.063,16.128 2.609,16.197 1.760 C 16.243 1.189,16.232 1.107,16.095 1.045 C 15.970 0.988,15.847 0.992,15.506 1.065 M15.155 6.283 C 14.643 6.358,13.997 6.547,12.800 6.971 L 11.900 7.290 11.600 7.203 C 11.435 7.155,10.949 6.992,10.520 6.842 C 8.919 6.280,8.405 6.210,7.404 6.416 C 6.496 6.604,6.077 6.773,5.383 7.231 C 4.976 7.500,4.312 8.183,3.991 8.661 C 3.510 9.380,3.031 10.520,2.864 11.340 C 2.724 12.029,2.684 12.987,2.761 13.766 C 2.899 15.149,3.281 16.630,3.857 18.011 C 4.275 19.015,4.431 19.290,5.161 20.321 C 6.255 21.865,6.896 22.498,7.719 22.848 C 8.002 22.968,8.049 22.976,8.500 22.975 C 9.079 22.975,9.226 22.942,10.100 22.618 C 11.099 22.248,11.323 22.195,11.985 22.171 C 12.685 22.145,13.028 22.211,14.041 22.563 C 15.345 23.016,15.845 23.075,16.487 22.852 C 17.404 22.534,18.383 21.568,19.380 20.000 C 19.937 19.124,20.606 17.701,20.666 17.262 C 20.695 17.050,20.663 17.017,20.066 16.650 C 19.101 16.056,18.397 15.168,18.015 14.060 C 17.908 13.751,17.904 13.705,17.889 12.760 L 17.873 11.780 18.021 11.320 C 18.194 10.780,18.380 10.362,18.565 10.093 C 18.774 9.788,19.343 9.221,19.748 8.912 C 20.156 8.601,20.185 8.542,20.030 8.335 C 19.566 7.716,18.910 7.177,18.160 6.800 C 17.443 6.440,17.049 6.337,16.160 6.279 C 15.506 6.237,15.467 6.237,15.155 6.283 " stroke="none" fill-rule="evenodd" fill="black"></path></svg>