<svg xmlns="http://www.w3.org/2000/svg" fill-rule="evenodd" stroke-linejoin="round" stroke-miterlimit="2" clip-rule="evenodd" viewBox="0 0 24 24">
  <path d="M15.506 1.065c-.833.179-1.803.75-2.569 1.514-.649.646-.917 1.114-1.238 2.161-.131.428-.147.526-.145.902.001.232.02.471.043.53l.041.108h.486c.44 0 .521-.012.851-.125.77-.263 1.235-.561 1.784-1.142.466-.491.7-.815.922-1.273.329-.677.447-1.131.516-1.98.046-.571.035-.653-.102-.715-.125-.057-.248-.053-.589.02m-.351 5.218c-.512.075-1.158.264-2.355.688l-.9.319-.3-.087a32 32 0 0 1-1.08-.361c-1.601-.562-2.115-.632-3.116-.426-.908.188-1.327.357-2.021.815-.407.269-1.071.952-1.392 1.43-.481.719-.96 1.859-1.127 2.679-.14.689-.18 1.647-.103 2.426.138 1.383.52 2.864 1.096 4.245.418 1.004.574 1.279 1.304 2.31 1.094 1.544 1.735 2.177 2.558 2.527.283.12.33.128.781.127.579 0 .726-.033 1.6-.357.999-.37 1.223-.423 1.885-.447.7-.026 1.043.04 2.056.392 1.304.453 1.804.512 2.446.289.917-.318 1.896-1.284 2.893-2.852.557-.876 1.226-2.299 1.286-2.738.029-.212-.003-.245-.6-.612-.965-.594-1.669-1.482-2.051-2.59-.107-.309-.111-.355-.126-1.3l-.016-.98.148-.46c.173-.54.359-.958.544-1.227.209-.305.778-.872 1.183-1.181.408-.311.437-.37.282-.577A5.36 5.36 0 0 0 18.16 6.8c-.717-.36-1.111-.463-2-.521-.654-.042-.693-.042-1.005.004"/>
</svg>
