<svg xmlns="http://www.w3.org/2000/svg" viewBox="0 0 48.745 48.747"><path d="M0.000 11.577 L 0.000 23.154 11.557 23.134 L 23.113 23.113 23.134 11.557 L 23.154 0.000 11.577 0.000 L 0.000 0.000 0.000 11.577 M25.611 11.557 L 25.632 23.113 37.188 23.134 L 48.745 23.154 48.745 11.577 L 48.745 0.000 37.168 0.000 L 25.591 0.000 25.611 11.557 M0.000 37.209 L 0.000 48.745 11.577 48.745 L 23.154 48.745 23.154 37.209 L 23.154 25.672 11.577 25.672 L 0.000 25.672 0.000 37.209 M25.591 37.209 L 25.591 48.745 37.168 48.745 L 48.745 48.745 48.745 37.209 L 48.745 25.672 37.168 25.672 L 25.591 25.672 25.591 37.209 " stroke="none" fill-rule="evenodd" fill="black"></path></svg>