<svg xmlns="http://www.w3.org/2000/svg" xml:space="preserve" fill="none" viewBox="0 0 24 24">
  <path stroke="#1B1A19" stroke-linecap="round" stroke-linejoin="round" stroke-width="1.5" d="M20.775 14.006A9 9 0 0 0 21 11.925c-.038-4.96-4.144-8.972-9.094-8.925A9 9 0 0 0 9 20.484a2.24 2.24 0 0 0 3-2.119V18a2.24 2.24 0 0 1 2.25-2.25h4.331a2.25 2.25 0 0 0 2.194-1.744"/>
  <path fill="#1B1A19" d="M12 8.25A1.125 1.125 0 1 0 12 6a1.125 1.125 0 0 0 0 2.25m-4.219 2.438a1.125 1.125 0 1 0 0-2.25 1.125 1.125 0 0 0 0 2.25m0 4.875a1.125 1.125 0 1 0 0-2.25 1.125 1.125 0 0 0 0 2.25m8.438-4.875a1.125 1.125 0 1 0 0-2.25 1.125 1.125 0 0 0 0 2.25"/>
</svg>
