<svg xmlns="http://www.w3.org/2000/svg" xml:space="preserve" fill="none" viewBox="0 0 24 24"><path d="M11.500 2.265 C 7.398 2.494,3.888 5.231,2.684 9.140 C 2.406 10.042,2.276 10.964,2.275 12.040 C 2.274 14.250,2.967 16.250,4.353 18.037 C 4.717 18.507,5.577 19.355,6.070 19.731 C 7.082 20.504,8.476 21.192,9.292 21.322 C 10.303 21.483,11.323 21.112,12.000 20.336 C 12.530 19.729,12.758 19.043,12.760 18.040 C 12.761 17.528,12.904 17.206,13.278 16.870 C 13.391 16.768,13.586 16.643,13.712 16.593 C 13.939 16.502,13.952 16.502,16.580 16.479 C 19.503 16.454,19.349 16.467,19.920 16.180 C 20.653 15.811,21.234 15.119,21.455 14.354 C 21.661 13.637,21.780 12.311,21.719 11.402 C 21.654 10.438,21.537 9.817,21.261 8.980 C 20.570 6.879,19.229 5.128,17.348 3.867 C 16.882 3.555,15.841 3.031,15.277 2.824 C 14.193 2.427,12.662 2.201,11.500 2.265 M13.048 3.820 C 16.468 4.271,19.294 6.840,20.045 10.180 C 20.297 11.304,20.305 12.692,20.064 13.730 C 19.980 14.090,19.842 14.353,19.629 14.556 C 19.413 14.762,19.348 14.806,19.120 14.903 C 18.951 14.976,18.787 14.981,16.320 15.001 L 13.700 15.023 13.379 15.123 C 12.940 15.260,12.566 15.478,12.232 15.793 C 11.886 16.119,11.638 16.462,11.485 16.824 C 11.326 17.200,11.283 17.439,11.245 18.162 C 11.216 18.714,11.201 18.804,11.104 19.010 C 10.841 19.562,10.192 19.935,9.626 19.858 C 9.002 19.773,7.820 19.181,6.960 18.521 C 6.548 18.205,5.853 17.523,5.550 17.137 C 4.034 15.207,3.433 12.703,3.924 10.360 C 4.268 8.719,4.987 7.380,6.160 6.196 C 6.391 5.963,6.707 5.672,6.863 5.550 C 7.782 4.828,8.882 4.286,10.015 3.996 C 10.897 3.770,12.131 3.699,13.048 3.820 M11.620 6.068 C 11.334 6.166,11.026 6.481,10.943 6.761 C 10.818 7.184,10.892 7.546,11.168 7.859 C 11.417 8.143,11.594 8.219,12.000 8.219 C 12.406 8.219,12.583 8.143,12.832 7.859 C 13.451 7.156,12.998 6.072,12.061 6.015 C 11.903 6.005,11.751 6.024,11.620 6.068 M7.428 8.495 C 7.170 8.591,6.979 8.743,6.837 8.965 C 6.715 9.155,6.698 9.213,6.686 9.504 C 6.664 10.022,6.843 10.335,7.288 10.558 C 7.629 10.728,7.931 10.728,8.272 10.558 C 8.688 10.350,8.887 10.028,8.887 9.563 C 8.887 9.131,8.686 8.783,8.321 8.584 C 8.065 8.445,7.669 8.405,7.428 8.495 M15.875 8.493 C 15.374 8.680,15.113 9.047,15.113 9.563 C 15.113 10.028,15.312 10.350,15.728 10.558 C 16.069 10.728,16.371 10.728,16.712 10.558 C 17.127 10.350,17.320 10.032,17.320 9.554 C 17.320 9.103,17.109 8.759,16.709 8.554 C 16.499 8.447,16.080 8.416,15.875 8.493 M7.428 13.375 C 7.179 13.468,6.980 13.621,6.847 13.822 C 6.697 14.049,6.666 14.190,6.687 14.558 C 6.701 14.804,6.721 14.862,6.861 15.064 C 6.972 15.223,7.087 15.330,7.240 15.416 C 7.435 15.526,7.496 15.540,7.780 15.540 C 8.060 15.540,8.127 15.525,8.313 15.422 C 8.696 15.210,8.887 14.880,8.887 14.430 C 8.887 13.815,8.461 13.368,7.840 13.333 C 7.679 13.324,7.522 13.340,7.428 13.375 " stroke="none" fill-rule="evenodd" fill="black"></path></svg>