<svg xmlns="http://www.w3.org/2000/svg" xml:space="preserve" fill="none" viewBox="0 0 24 24">
  <path fill="#000" fill-rule="evenodd" d="M3.25 3.044c-.72.12-1.439.552-1.866 1.119a3.02 3.02 0 0 0-.009 3.664c.35.462.847.554 1.199.22.171-.161.226-.299.226-.561 0-.208-.017-.261-.141-.432a4 4 0 0 1-.268-.454c-.113-.23-.128-.299-.128-.6 0-.297.016-.374.125-.608a1.56 1.56 0 0 1 .724-.745c.202-.095.276-.107.648-.107.385 0 .439.01.651.117.285.144.56.432.702.734l.107.229.021 6.42.02 6.42.087.306a3.06 3.06 0 0 0 2.114 2.122l.318.092h11.44l.312-.091a3.04 3.04 0 0 0 2.151-2.269c.067-.295.056-.993-.022-1.32-.13-.551-.571-1.285-.871-1.449-.101-.055-.257-.075-.71-.091l-.58-.02-.02-5.2c-.019-4.931-.024-5.211-.095-5.42-.371-1.099-1.291-1.9-2.388-2.078-.319-.051-13.436-.05-13.747.002m13.47 1.478a1.48 1.48 0 0 1 1.219 1.061c.052.17.06.88.061 5.187v4.99h-4.122c-3.717 0-4.135.006-4.25.065-.307.155-.428.349-.428.689 0 .208.017.261.141.432.078.107.198.311.268.454.114.231.128.298.128.6-.001.285-.018.378-.11.577q-.332.724-1.083.881c-.68.142-1.354-.204-1.657-.849l-.107-.229-.021-6.42-.02-6.42-.087-.306a3.6 3.6 0 0 0-.189-.509 2 2 0 0 1-.103-.224c0-.042 10.092-.022 10.36.021M9.525 9.029c-.053.01-.182.104-.287.209-.156.156-.197.227-.22.381-.051.339.11.66.398.796.122.058.47.065 3.342.065 3.488 0 3.307.012 3.527-.226.156-.169.195-.267.195-.493 0-.214-.093-.449-.227-.569-.216-.196-.156-.192-3.502-.187-1.722.003-3.174.014-3.226.024m0 3c-.053.01-.182.104-.287.209-.156.156-.197.227-.22.381-.051.339.11.66.398.796.122.058.47.065 3.342.065 3.488 0 3.307.012 3.527-.226.156-.169.195-.267.195-.493 0-.214-.093-.449-.227-.569-.216-.196-.156-.192-3.502-.187-1.722.003-3.174.014-3.226.024m10.607 5.401c.071.153.088.263.088.571 0 .349-.011.403-.131.647a1.49 1.49 0 0 1-1.136.83c-.312.051-8.073.058-8.073.008 0-.019.053-.152.117-.294a2.84 2.84 0 0 0 .23-1.35 4 4 0 0 0-.049-.512l-.027-.09h8.893z"/>
</svg>
