<svg xmlns="http://www.w3.org/2000/svg" xml:space="preserve" viewBox="0 0 50 50"><path d="M5.571 0.082 C 4.227 0.255,2.856 1.435,2.317 2.882 L 2.133 3.375 2.131 24.958 L 2.128 46.542 2.317 47.069 C 2.776 48.348,3.712 49.302,4.965 49.765 C 5.448 49.944,5.564 49.948,10.377 49.981 C 16.014 50.018,16.539 49.986,17.443 49.552 C 18.250 49.164,18.988 48.425,19.398 47.596 C 19.682 47.021,19.708 46.904,19.762 45.967 C 19.838 44.641,19.838 5.243,19.762 3.998 C 19.708 3.125,19.675 2.978,19.393 2.385 C 18.805 1.146,17.552 0.231,16.237 0.078 C 15.500 -0.007,6.239 -0.004,5.571 0.082 M33.872 0.082 C 32.948 0.164,32.242 0.509,31.504 1.238 C 30.799 1.935,30.428 2.653,30.328 3.516 C 30.237 4.302,30.235 45.684,30.326 46.468 C 30.472 47.723,31.365 48.927,32.607 49.541 C 33.165 49.817,33.341 49.860,34.140 49.922 C 35.311 50.012,42.856 50.012,44.027 49.922 C 44.828 49.860,45.001 49.817,45.569 49.537 C 46.687 48.986,47.496 48.003,47.802 46.825 C 47.930 46.335,47.941 44.570,47.943 25.000 C 47.944 7.918,47.923 3.618,47.837 3.250 C 47.554 2.043,46.672 0.982,45.436 0.364 L 44.792 0.042 39.667 0.032 C 36.848 0.027,34.240 0.049,33.872 0.082 " stroke="none" fill-rule="evenodd" fill="black"></path></svg>