<svg xmlns="http://www.w3.org/2000/svg" xml:space="preserve" fill="none" viewBox="0 0 20 20">
  <path fill="#000" fill-rule="evenodd" d="M4.007 1.818c-.51.138-.901.595-.977 1.143-.019.134-.028 1.665-.023 3.725l.01 3.497.072.134c.144.267.381.416.661.416s.517-.149.661-.416l.072-.134.01-3.475.009-3.475h6.629l.01 1.925.009 1.925.09.153a1 1 0 0 0 .23.25l.141.097 1.942.009 1.943.01.01 1.29c.01 1.249.013 1.296.083 1.425.144.267.381.416.661.416s.517-.149.661-.416c.071-.131.073-.167.083-1.784.008-1.172 0-1.703-.028-1.833l-.039-.183-2.305-2.312c-1.575-1.579-2.348-2.332-2.439-2.374-.128-.06-.291-.063-4.066-.061-3.291.001-3.962.009-4.11.048m9.526 3.399.917.916H12.6v-.916c0-.504.004-.917.009-.917s.42.413.924.917M3.45 12.462a.77.77 0 0 0-.413.502c-.05.232-.051 3.833-.002 4.064.124.575.87.767 1.259.324.153-.174.176-.252.197-.644l.019-.341.336-.001c.683-.001 1.134-.174 1.554-.597.274-.274.457-.594.535-.936.059-.256.05-.752-.018-.986a2.02 2.02 0 0 0-1.067-1.262c-.346-.166-.496-.185-1.427-.184-.74 0-.855.008-.973.061m5.123.009a.8.8 0 0 0-.224.177c-.187.246-.182.182-.182 2.364v2.014l.093.178a.8.8 0 0 0 .236.279l.143.1.838.01c.913.011 1.137-.016 1.538-.183a2.8 2.8 0 0 0 1.383-1.36c.268-.611.268-1.493-.001-2.1-.246-.558-.793-1.105-1.347-1.348-.381-.167-.641-.202-1.517-.202-.766 0-.825.004-.96.071m5.827-.018a.8.8 0 0 0-.378.364c-.072.132-.072.146-.072 2.183s0 2.051.072 2.183c.148.274.381.417.68.417a.68.68 0 0 0 .519-.228c.163-.168.212-.371.212-.875v-.423l.642-.014c.831-.018.971-.072 1.146-.443.173-.369.036-.763-.335-.96-.124-.066-.196-.074-.794-.084l-.659-.012v-.69l.825-.011.825-.01.153-.09a.68.68 0 0 0 .357-.559c.018-.236-.033-.402-.171-.559-.21-.239-.22-.241-1.639-.24-1.057.001-1.286.009-1.383.051m-9.167 1.472a.6.6 0 0 1 .194.175c.066.098.077.148.065.31-.011.168-.029.209-.13.311-.137.136-.279.177-.62.178L4.5 14.9v-1.033h.308c.227 0 .339.015.425.058m5.234.045c.233.11.453.329.563.563.072.153.087.231.087.467 0 .342-.091.567-.32.797-.231.23-.45.317-.839.331l-.325.012v-2.28l.325.012c.265.01.36.028.509.098"/>
</svg>
