<svg xmlns="http://www.w3.org/2000/svg" xml:space="preserve" fill="none" viewBox="0 0 20 20"><path d="M4.007 1.818 C 3.497 1.956,3.106 2.413,3.030 2.961 C 3.011 3.095,3.002 4.626,3.007 6.686 L 3.017 10.183 3.089 10.317 C 3.233 10.584,3.470 10.733,3.750 10.733 C 4.030 10.733,4.267 10.584,4.411 10.317 L 4.483 10.183 4.493 6.708 L 4.502 3.233 7.817 3.233 L 11.131 3.233 11.141 5.158 L 11.150 7.083 11.240 7.236 C 11.289 7.319,11.393 7.432,11.470 7.486 L 11.611 7.583 13.553 7.592 L 15.496 7.602 15.506 8.892 C 15.516 10.141,15.519 10.188,15.589 10.317 C 15.733 10.584,15.970 10.733,16.250 10.733 C 16.530 10.733,16.767 10.584,16.911 10.317 C 16.982 10.186,16.984 10.150,16.994 8.533 C 17.002 7.361,16.994 6.830,16.966 6.700 L 16.927 6.517 14.622 4.205 C 13.047 2.626,12.274 1.873,12.183 1.831 C 12.055 1.771,11.892 1.768,8.117 1.770 C 4.826 1.771,4.155 1.779,4.007 1.818 M13.533 5.217 L 14.450 6.133 13.525 6.133 L 12.600 6.133 12.600 5.217 C 12.600 4.713,12.604 4.300,12.609 4.300 C 12.613 4.300,13.029 4.713,13.533 5.217 M3.450 12.462 C 3.251 12.553,3.081 12.759,3.037 12.964 C 2.987 13.196,2.986 16.797,3.035 17.028 C 3.159 17.603,3.905 17.795,4.294 17.352 C 4.447 17.178,4.470 17.100,4.491 16.708 L 4.510 16.367 4.846 16.366 C 5.529 16.365,5.980 16.192,6.400 15.769 C 6.674 15.495,6.857 15.175,6.935 14.833 C 6.994 14.577,6.985 14.081,6.917 13.847 C 6.756 13.291,6.367 12.832,5.850 12.585 C 5.504 12.419,5.354 12.400,4.423 12.401 C 3.683 12.401,3.568 12.409,3.450 12.462 M8.573 12.471 C 8.495 12.510,8.394 12.589,8.349 12.648 C 8.162 12.894,8.167 12.830,8.167 15.012 L 8.167 17.026 8.260 17.204 C 8.318 17.315,8.407 17.420,8.496 17.483 L 8.639 17.583 9.477 17.593 C 10.390 17.604,10.614 17.577,11.015 17.410 C 11.589 17.170,12.148 16.620,12.398 16.050 C 12.666 15.439,12.666 14.557,12.397 13.950 C 12.151 13.392,11.604 12.845,11.050 12.602 C 10.669 12.435,10.409 12.400,9.533 12.400 C 8.767 12.400,8.708 12.404,8.573 12.471 M14.400 12.453 C 14.248 12.519,14.112 12.650,14.022 12.817 C 13.950 12.949,13.950 12.963,13.950 15.000 C 13.950 17.037,13.950 17.051,14.022 17.183 C 14.170 17.457,14.403 17.600,14.702 17.600 C 14.907 17.600,15.068 17.529,15.221 17.372 C 15.384 17.204,15.433 17.001,15.433 16.497 L 15.433 16.074 16.075 16.060 C 16.906 16.042,17.046 15.988,17.221 15.617 C 17.394 15.248,17.257 14.854,16.886 14.657 C 16.762 14.591,16.690 14.583,16.092 14.573 L 15.433 14.561 15.433 14.216 L 15.433 13.871 16.258 13.860 L 17.083 13.850 17.236 13.760 C 17.454 13.632,17.576 13.441,17.593 13.201 C 17.611 12.965,17.560 12.799,17.422 12.642 C 17.212 12.403,17.202 12.401,15.783 12.402 C 14.726 12.403,14.497 12.411,14.400 12.453 M5.233 13.925 C 5.296 13.957,5.384 14.036,5.427 14.100 C 5.493 14.198,5.504 14.248,5.492 14.410 C 5.481 14.578,5.463 14.619,5.362 14.721 C 5.225 14.857,5.083 14.898,4.742 14.899 L 4.500 14.900 4.500 14.383 L 4.500 13.867 4.808 13.867 C 5.035 13.867,5.147 13.882,5.233 13.925 M10.467 13.970 C 10.700 14.080,10.920 14.299,11.030 14.533 C 11.102 14.686,11.117 14.764,11.117 15.000 C 11.117 15.342,11.026 15.567,10.797 15.797 C 10.566 16.027,10.347 16.114,9.958 16.128 L 9.633 16.140 9.633 15.000 L 9.633 13.860 9.958 13.872 C 10.223 13.882,10.318 13.900,10.467 13.970 " stroke="none" fill-rule="evenodd" fill="black"></path></svg>