<svg xmlns="http://www.w3.org/2000/svg" fill="none" viewBox="0 0 16 20">
  <path fill="#000" fill-rule="evenodd" d="M10.176 3.496c-.319.075-.185-.051-4.313 4.075-3.859 3.857-3.884 3.884-3.987 4.094l-.103.212v3.443l.099.207c.132.276.325.469.601.601l.207.099 5.49.007 5.491.007.136-.063a.73.73 0 0 0 .442-.685c0-.294-.147-.526-.426-.671l-.12-.062-2.932-.007-2.932-.008 3.242-3.246c3.181-3.184 3.244-3.25 3.343-3.452.091-.186.102-.234.113-.469.014-.292-.026-.487-.146-.698-.08-.142-2.929-3.014-3.164-3.189a1.12 1.12 0 0 0-.72-.222 2 2 0 0 0-.321.027m2.291 4.477L12 8.44l-1.22-1.22L9.56 6l.467-.467.466-.467 1.22 1.22 1.22 1.22zm-4.154 4.154-2.62 2.62h-2.44v-2.44l2.62-2.62 2.62-2.62 1.22 1.22 1.22 1.22z"/>
</svg>
