<svg xmlns="http://www.w3.org/2000/svg" fill="none" viewBox="0 0 16 20"><path d="M10.176 3.496 C 9.857 3.571,9.991 3.445,5.863 7.571 C 2.004 11.428,1.979 11.455,1.876 11.665 L 1.773 11.877 1.773 13.599 L 1.773 15.320 1.872 15.527 C 2.004 15.803,2.197 15.996,2.473 16.128 L 2.680 16.227 8.170 16.234 L 13.661 16.241 13.797 16.178 C 14.076 16.050,14.239 15.797,14.239 15.493 C 14.239 15.199,14.092 14.967,13.813 14.822 L 13.693 14.760 10.761 14.753 L 7.829 14.745 11.071 11.499 C 14.252 8.315,14.315 8.249,14.414 8.047 C 14.505 7.861,14.516 7.813,14.527 7.578 C 14.541 7.286,14.501 7.091,14.381 6.880 C 14.301 6.738,11.452 3.866,11.217 3.691 C 11.012 3.537,10.782 3.466,10.497 3.469 C 10.378 3.471,10.233 3.483,10.176 3.496 M12.467 7.973 L 12.000 8.440 10.780 7.220 L 9.560 6.000 10.027 5.533 L 10.493 5.066 11.713 6.286 L 12.933 7.506 12.467 7.973 M8.313 12.127 L 5.693 14.747 4.473 14.747 L 3.253 14.747 3.253 13.527 L 3.253 12.307 5.873 9.687 L 8.493 7.067 9.713 8.287 L 10.933 9.507 8.313 12.127 " stroke="none" fill-rule="evenodd" fill="black"></path></svg>