<svg xmlns="http://www.w3.org/2000/svg" viewBox="0 0 16 16">
  <path fill-rule="evenodd" d="M4.411 2.292c-.916.106-1.762.82-2.036 1.719a3 3 0 0 0-.088 1.062c.125.982.841 1.801 1.82 2.081.268.077.987.084 1.248.013a2.52 2.52 0 0 0 1.783-1.719c.065-.214.072-.273.071-.661-.001-.477-.037-.695-.168-1.002a2.7 2.7 0 0 0-.811-1.029 3.1 3.1 0 0 0-.873-.42 3.6 3.6 0 0 0-.946-.044m7.835.51c-.06.018-.387.319-1.066.983-1.425 1.39-7.706 7.692-8.042 8.068-.362.405-.395.472-.361.718.032.221.094.352.222.464a.68.68 0 0 0 .435.19c.241.031.312-.005.713-.363.377-.337 6.982-6.92 8.176-8.15.508-.522.839-.884.864-.943.046-.112.052-.338.011-.499-.035-.138-.207-.346-.345-.417-.12-.061-.477-.091-.607-.051M5.174 3.848c.082.039.205.127.275.197.5.5.351 1.311-.297 1.617-.157.074-.206.084-.405.084-.189 0-.252-.012-.379-.071a1.16 1.16 0 0 1-.504-.482c-.087-.159-.091-.179-.091-.446 0-.255.007-.293.075-.421q.305-.582.939-.558c.193.007.269.023.387.08M10.827 8.8c-.357.045-.838.267-1.173.541a2.9 2.9 0 0 0-.599.738 4 4 0 0 0-.179.429c-.085.246-.087.263-.088.719-.001.386.008.496.05.64.134.451.329.794.625 1.102a2.52 2.52 0 0 0 1.403.74c.245.042.741.015 1.008-.054a2.52 2.52 0 0 0 1.785-1.783c.047-.169.057-.281.057-.632 0-.389-.006-.448-.072-.665-.261-.853-.919-1.505-1.737-1.721-.217-.058-.815-.087-1.08-.054m.589 1.467a1 1 0 0 1 .728.56c.075.156.083.198.083.427 0 .233-.008.268-.088.431-.098.2-.277.378-.478.478-.11.054-.167.063-.408.063-.252.001-.294-.007-.431-.074a1.15 1.15 0 0 1-.502-.544 1.16 1.16 0 0 1-.014-.674 1 1 0 0 1 .721-.657.7.7 0 0 1 .389-.01"/>
</svg>
