<svg xmlns="http://www.w3.org/2000/svg" fill="none" viewBox="0 0 24 18">
  <path fill="#000" d="m9.9.026-.496.058C8.608.176 7.692.453 6.9.841a8.24 8.24 0 0 0-4.568 6.277l-.069.478-.202.066C.885 8.044.03 9.184.022 10.383c-.002.32.009.379.094.503.274.4.783.466 1.145.148.158-.139.204-.263.258-.687.05-.392.218-.723.492-.97.224-.201.309-.223.309-.079 0 .216.173.976.341 1.494a8.5 8.5 0 0 0 1.424 2.633c.232.285.235.293.836 1.98.333.932.648 1.769.701 1.86.137.237.465.516.73.623.215.087.28.092 1.148.092.865 0 .933-.005 1.146-.091.266-.108.563-.357.719-.604.062-.097.159-.318.217-.491l.105-.315 2.685.011 2.686.01.122.32c.169.444.224.536.45.747.397.371.624.432 1.612.433.864 0 1.106-.045 1.437-.271.413-.282.431-.32 1.299-2.745l.792-2.213.309-.026c.627-.052 1.084-.259 1.505-.681.321-.321.538-.718.615-1.124.032-.165.042-.824.034-2.1-.013-1.856-.013-1.861-.109-2.1-.284-.711-.839-1.225-1.504-1.396a10 10 0 0 0-.35-.083c-.061-.012-.11-.043-.11-.069 0-.105-.53-1.12-.777-1.488-.482-.717-1.213-1.503-1.839-1.976l-.276-.208h.964c1.13 0 1.31-.028 1.526-.234.39-.372.28-.985-.218-1.211-.152-.07-.409-.073-5.34-.068-2.849.003-5.234.011-5.3.019m4.64 2.29c.392.181.558.605.385.986a.73.73 0 0 1-.535.418c-.146.032-.799.042-2.15.033-2.179-.015-2.071 0-2.332-.323-.307-.378-.107-1.008.364-1.15.059-.018 1.008-.034 2.108-.036 1.863-.002 2.011.003 2.16.072m2.802 4.539c.27.126.522.417.604.698.272.938-.707 1.752-1.578 1.311-.639-.324-.801-1.133-.347-1.729.054-.071.209-.184.345-.252.321-.16.671-.17.976-.028"/>
</svg>
