<svg xmlns="http://www.w3.org/2000/svg" viewBox="0 0 32 32">
  <path fill-rule="evenodd" d="m15.627 4.906-2.534.029-.64.151c-1.552.368-2.807.941-4.026 1.839-.892.657-1.982 1.859-2.571 2.835a10.8 10.8 0 0 0-1.404 4.032c-.049.349-.111.662-.139.696-.027.033-.133.076-.234.095s-.401.144-.667.277a3.84 3.84 0 0 0-1.416 1.277c-.234.364-.444 1.012-.485 1.491-.041.491.045.673.378.8.232.088.244.088.422-.022.211-.131.272-.263.356-.779.11-.681.422-1.192.955-1.566.317-.222.689-.408.732-.365.012.012.069.34.126.728a10.4 10.4 0 0 0 2.082 4.909c.441.577.387.45 1.517 3.574.281.777.568 1.499.638 1.604.156.237.561.501.894.584.318.08 2.189.044 2.405-.046.233-.096.56-.381.725-.631a4.3 4.3 0 0 0 .325-.71l.174-.481h7.432l.23.592c.259.67.439.906.868 1.144l.283.157h1.12c.832 0 1.168-.019 1.307-.074.321-.128.588-.337.72-.562.152-.261.627-1.52 1.551-4.117l.685-1.927.509-.026c1.07-.056 1.894-.561 2.3-1.41.225-.472.258-.862.258-3.004 0-1.041-.022-2.069-.05-2.284-.139-1.066-.986-1.912-2.095-2.091l-.39-.063-.124-.328c-.21-.554-.736-1.528-1.112-2.061-.419-.592-1.619-1.819-2.205-2.254a17 17 0 0 0-.877-.597c-.259-.162-.46-.298-.447-.301s.942-.023 2.065-.045c2.034-.039 2.041-.04 2.172-.163a.57.57 0 0 0-.036-.836c-.085-.067-7.946-.114-11.777-.071m2.853 1.118c1.756.079 2.617.28 3.893.912a9.07 9.07 0 0 1 4.51 4.96c.095.248.218.516.274.595.112.161.377.255.72.255.634.001 1.106.275 1.359.788.124.252.124.255.123 2.439-.002 2.445-.002 2.449-.363 2.84-.33.358-.435.393-1.325.446-.459.027-.836.075-.898.113-.135.085-.332.559-.984 2.361-1.476 4.081-1.51 4.165-1.71 4.241-.189.072-1.515.067-1.726-.006-.197-.069-.265-.186-.517-.883a9 9 0 0 0-.262-.658c-.176-.34.106-.32-4.614-.32s-4.438-.02-4.614.32a9 9 0 0 0-.262.658c-.265.733-.32.821-.551.891-.121.036-.501.052-.965.042-.722-.017-.77-.025-.863-.14-.123-.152-.272-.536-1.089-2.812l-.651-1.814-.366-.453a9.2 9.2 0 0 1-1.903-3.987c-.108-.506-.122-.714-.121-1.799.002-1.062.018-1.299.12-1.768.783-3.593 3.523-6.333 7.065-7.062.901-.186 3.509-.258 5.72-.159m-3.959 3.197c-.417.072-.638.423-.47.748.187.362.096.351 2.909.351 2.823 0 2.734.011 2.912-.363.069-.145.071-.202.011-.383-.124-.378-.086-.373-2.763-.383-1.305-.005-2.475.009-2.599.03m7.692 4.702c-.238.07-.56.361-.672.607-.348.766.226 1.634 1.079 1.629.575-.004 1.169-.661 1.093-1.211-.102-.746-.807-1.228-1.5-1.025"/>
</svg>
