<svg width="24" height="18" viewBox="0 0 24 18" fill="none" xmlns="http://www.w3.org/2000/svg"><path d="M9.900 0.026 C 9.834 0.034,9.611 0.060,9.404 0.084 C 8.608 0.176,7.692 0.453,6.900 0.841 C 4.411 2.060,2.731 4.369,2.332 7.118 L 2.263 7.596 2.061 7.662 C 0.885 8.044,0.030 9.184,0.022 10.383 C 0.020 10.703,0.031 10.762,0.116 10.886 C 0.390 11.286,0.899 11.352,1.261 11.034 C 1.419 10.895,1.465 10.771,1.519 10.347 C 1.569 9.955,1.737 9.624,2.011 9.377 C 2.235 9.176,2.320 9.154,2.320 9.298 C 2.320 9.514,2.493 10.274,2.661 10.792 C 2.960 11.718,3.490 12.698,4.085 13.425 C 4.317 13.710,4.320 13.718,4.921 15.405 C 5.254 16.337,5.569 17.174,5.622 17.265 C 5.759 17.502,6.087 17.781,6.352 17.888 C 6.567 17.975,6.632 17.980,7.500 17.980 C 8.365 17.980,8.433 17.975,8.646 17.889 C 8.912 17.781,9.209 17.532,9.365 17.285 C 9.427 17.188,9.524 16.967,9.582 16.794 L 9.687 16.479 12.372 16.490 L 15.058 16.500 15.180 16.820 C 15.349 17.264,15.404 17.356,15.630 17.567 C 16.027 17.938,16.254 17.999,17.242 18.000 C 18.106 18.000,18.348 17.955,18.679 17.729 C 19.092 17.447,19.110 17.409,19.978 14.984 L 20.770 12.771 21.079 12.745 C 21.706 12.693,22.163 12.486,22.584 12.064 C 22.905 11.743,23.122 11.346,23.199 10.940 C 23.231 10.775,23.241 10.116,23.233 8.840 C 23.220 6.984,23.220 6.979,23.124 6.740 C 22.840 6.029,22.285 5.515,21.620 5.344 C 21.488 5.311,21.331 5.273,21.270 5.261 C 21.209 5.249,21.160 5.218,21.160 5.192 C 21.160 5.087,20.630 4.072,20.383 3.704 C 19.901 2.987,19.170 2.201,18.544 1.728 L 18.268 1.520 19.232 1.520 C 20.362 1.520,20.542 1.492,20.758 1.286 C 21.148 0.914,21.038 0.301,20.540 0.075 C 20.388 0.005,20.131 0.002,15.200 0.007 C 12.351 0.010,9.966 0.018,9.900 0.026 M14.540 2.316 C 14.932 2.497,15.098 2.921,14.925 3.302 C 14.825 3.522,14.642 3.665,14.390 3.720 C 14.244 3.752,13.591 3.762,12.240 3.753 C 10.061 3.738,10.169 3.753,9.908 3.430 C 9.601 3.052,9.801 2.422,10.272 2.280 C 10.331 2.262,11.280 2.246,12.380 2.244 C 14.243 2.242,14.391 2.247,14.540 2.316 M17.342 6.855 C 17.612 6.981,17.864 7.272,17.946 7.553 C 18.218 8.491,17.239 9.305,16.368 8.864 C 15.729 8.540,15.567 7.731,16.021 7.135 C 16.075 7.064,16.230 6.951,16.366 6.883 C 16.687 6.723,17.037 6.713,17.342 6.855 " stroke="none" fill-rule="evenodd"></path></svg>