<svg xmlns="http://www.w3.org/2000/svg" fill="none" viewBox="0 0 12 10">
  <path fill="#000" fill-rule="evenodd" d="M1.76.52C.97.615.327 1.165.078 1.96l-.063.2v5.68l.063.2c.113.364.257.602.523.868.204.204.28.26.494.365.492.24-.048.218 5.414.228 3.49.006 4.878 0 4.978-.021a.647.647 0 0 0 .158-1.208l-.11-.06L6.668 8.2 1.8 8.187l-.107-.058a.8.8 0 0 1-.331-.356C1.31 7.655 1.309 7.61 1.309 5s0-2.655.054-2.773a.8.8 0 0 1 .33-.356l.108-.058L6.668 1.8l4.866-.013.11-.06a.645.645 0 0 0-.152-1.205C11.336.489 2.045.487 1.76.52m1.903 3.54a1.01 1.01 0 0 0-.648 1.092.996.996 0 0 0 1.688.55A.995.995 0 0 0 4.43 4.1a1.2 1.2 0 0 0-.767-.04m2.975.015a.9.9 0 0 0-.408.294c-.163.199-.212.344-.213.63 0 .217.01.276.068.4.194.417.646.663 1.075.586.33-.06.614-.28.757-.585.058-.125.068-.184.068-.4s-.01-.275-.068-.4a1 1 0 0 0-.47-.486c-.155-.076-.21-.088-.42-.095-.202-.006-.263.003-.39.056m3.025-.014a1.01 1.01 0 0 0-.648 1.09.996.996 0 0 0 1.688.55.995.995 0 0 0-.272-1.601 1.2 1.2 0 0 0-.767-.04m.608.526a.46.46 0 0 1 .219.418c0 .13-.013.175-.078.268a.46.46 0 0 1-.411.219.46.46 0 0 1-.411-.22c-.065-.092-.078-.137-.078-.267 0-.404.422-.636.759-.418" clip-rule="evenodd"/>
</svg>
