<svg xmlns="http://www.w3.org/2000/svg" xml:space="preserve" fill="none" viewBox="0 0 24 24">
  <path fill="#000" fill-rule="evenodd" d="M11.72 3.064a.8.8 0 0 0-.394.356c-.06.109-.067.475-.077 3.969l-.011 3.849-3.849.011c-3.494.01-3.86.017-3.969.077-.242.134-.42.419-.42.674s.178.54.42.674c.109.06.475.067 3.969.077l3.849.011.011 3.849c.01 3.494.017 3.86.077 3.969.134.242.419.42.674.42s.54-.178.674-.42c.06-.109.067-.475.077-3.969l.011-3.849 3.849-.011c3.494-.01 3.86-.017 3.969-.077.242-.134.42-.419.42-.674s-.178-.54-.42-.674c-.109-.06-.475-.067-3.969-.077l-3.849-.011-.011-3.849c-.01-3.494-.017-3.86-.077-3.969-.194-.352-.608-.506-.954-.356"/>
</svg>
