<svg xmlns="http://www.w3.org/2000/svg" xml:space="preserve" fill="none" viewBox="0 0 24 24"><path d="M11.720 3.064 C 11.550 3.138,11.414 3.260,11.326 3.420 C 11.266 3.529,11.259 3.895,11.249 7.389 L 11.238 11.238 7.389 11.249 C 3.895 11.259,3.529 11.266,3.420 11.326 C 3.178 11.460,3.000 11.745,3.000 12.000 C 3.000 12.255,3.178 12.540,3.420 12.674 C 3.529 12.734,3.895 12.741,7.389 12.751 L 11.238 12.762 11.249 16.611 C 11.259 20.105,11.266 20.471,11.326 20.580 C 11.460 20.822,11.745 21.000,12.000 21.000 C 12.255 21.000,12.540 20.822,12.674 20.580 C 12.734 20.471,12.741 20.105,12.751 16.611 L 12.762 12.762 16.611 12.751 C 20.105 12.741,20.471 12.734,20.580 12.674 C 20.822 12.540,21.000 12.255,21.000 12.000 C 21.000 11.745,20.822 11.460,20.580 11.326 C 20.471 11.266,20.105 11.259,16.611 11.249 L 12.762 11.238 12.751 7.389 C 12.741 3.895,12.734 3.529,12.674 3.420 C 12.480 3.068,12.066 2.914,11.720 3.064 " stroke="none" fill-rule="evenodd" fill="black"></path></svg>