<svg xmlns="http://www.w3.org/2000/svg" xml:space="preserve" fill="none" viewBox="0 0 24 24"><path d="M14.340 3.056 C 14.182 3.126,14.002 3.309,13.934 3.469 C 13.891 3.571,13.880 3.995,13.880 5.559 L 13.880 7.520 11.518 7.520 C 9.563 7.520,9.137 7.530,9.048 7.576 C 8.903 7.652,8.735 7.835,8.683 7.973 C 8.655 8.047,8.640 8.757,8.640 10.043 L 8.640 12.000 6.319 12.000 C 4.314 12.000,3.977 12.008,3.849 12.062 C 3.689 12.129,3.540 12.253,3.466 12.380 C 3.433 12.438,3.414 13.326,3.400 15.600 L 3.380 18.740 2.880 18.761 C 2.342 18.783,2.199 18.827,2.046 19.022 C 1.756 19.390,1.883 19.976,2.293 20.162 C 2.456 20.236,2.714 20.238,12.000 20.238 C 21.286 20.238,21.544 20.236,21.707 20.162 C 21.960 20.047,22.100 19.812,22.100 19.500 C 22.100 19.297,22.080 19.224,21.987 19.084 C 21.817 18.826,21.638 18.762,21.091 18.761 L 20.641 18.760 20.631 11.150 C 20.621 4.156,20.615 3.530,20.554 3.420 C 20.464 3.257,20.328 3.136,20.151 3.062 C 20.022 3.008,19.645 3.000,17.231 3.002 C 15.023 3.003,14.436 3.014,14.340 3.056 M19.120 11.620 L 19.120 18.761 17.250 18.750 L 15.380 18.740 15.370 11.660 C 15.364 7.766,15.368 4.558,15.378 4.530 C 15.393 4.491,15.807 4.480,17.259 4.480 L 19.120 4.480 19.120 11.620 M13.880 13.880 L 13.880 18.760 12.000 18.760 L 10.120 18.760 10.120 13.880 L 10.120 9.000 12.000 9.000 L 13.880 9.000 13.880 13.880 M8.630 16.130 L 8.641 18.760 6.760 18.760 L 4.880 18.760 4.880 16.120 L 4.880 13.479 6.750 13.490 L 8.620 13.500 8.630 16.130 " stroke="none" fill-rule="evenodd" fill="black"></path></svg>