<svg width="176" height="176" viewBox="0 0 176 176" fill="none" xmlns="http://www.w3.org/2000/svg">
    <path d="M0 0H176V176H0V0Z" fill="black"/>
    <path d="M12.6201 12.3081C12.492 12.3843 12.3848 12.4912 12.3081 12.6191C12.2081 12.8071 12.2031 13.3171 12.2031 25.1391C12.2031 36.9611 12.2091 37.4701 12.3081 37.6591C12.3671 37.7691 12.5081 37.9101 12.6191 37.9691C12.8071 38.0691 13.3171 38.0751 25.1391 38.0751C36.9611 38.0751 37.4701 38.0691 37.6591 37.9691C37.7864 37.8929 37.8929 37.7864 37.9691 37.6591C38.0691 37.4701 38.0751 36.9601 38.0751 25.1391C38.0751 13.3181 38.0691 12.8071 37.9691 12.6191C37.8929 12.4918 37.7864 12.3853 37.6591 12.3091C37.4701 12.2091 36.9601 12.2031 25.1391 12.2031C13.3181 12.2031 12.8081 12.2091 12.6201 12.3081ZM34.2321 16.0451L34.3791 16.1861V34.0911L34.2321 34.2321L34.0921 34.3791H16.1851L16.0451 34.2321L15.8981 34.0921V16.1851L16.0441 16.0451L16.1851 15.8981H34.0901L34.2311 16.0441L34.2321 16.0451Z" fill="black"/>
    <path d="M20.0117 19.7001C19.8843 19.7766 19.7778 19.8835 19.7017 20.0111C19.6017 20.1991 19.5957 20.4751 19.5957 25.1391C19.5957 29.8031 19.6017 30.0791 19.7007 30.2661C19.7597 30.3781 19.9007 30.5181 20.0117 30.5771C20.1997 30.6771 20.4757 30.6831 25.1397 30.6831C29.8037 30.6831 30.0797 30.6771 30.2667 30.5771C30.3944 30.5011 30.5012 30.3946 30.5777 30.2671C30.6777 30.0781 30.6837 29.8031 30.6837 25.1391C30.6837 20.4751 30.6777 20.1991 30.5777 20.0111C30.5015 19.8838 30.395 19.7773 30.2677 19.7011C30.0787 19.6011 29.8037 19.5951 25.1397 19.5951C20.4757 19.5951 20.1997 19.6011 20.0117 19.7001ZM68.0607 12.3081C67.6787 12.5141 67.6437 12.6601 67.6437 14.0511C67.6437 15.9161 67.6607 15.8991 65.7957 15.8991C63.9297 15.8991 63.9477 15.8811 63.9477 17.7471C63.9477 19.1371 63.9117 19.2841 63.5307 19.4891C63.3427 19.5891 63.0677 19.5951 58.4037 19.5951C53.7397 19.5951 53.4637 19.6011 53.2757 19.7001C53.1483 19.7766 53.0418 19.8835 52.9657 20.0111C52.8657 20.1931 52.8597 20.4161 52.8597 23.2911C52.8597 26.1661 52.8537 26.3881 52.7537 26.5711C52.5487 26.9511 52.4017 26.9871 51.0117 26.9871C49.1457 26.9871 49.1637 27.0041 49.1637 25.1391C49.1637 23.2731 49.1807 23.2911 47.3157 23.2911C45.4497 23.2911 45.4677 23.3081 45.4677 21.4431C45.4677 19.5771 45.4847 19.5951 43.6197 19.5951C42.2297 19.5951 42.0827 19.6301 41.8767 20.0111C41.7767 20.1931 41.7717 20.4161 41.7717 23.2911C41.7717 26.1661 41.7777 26.3881 41.8767 26.5711C42.0827 26.9511 42.2287 26.9871 43.6197 26.9871C45.4847 26.9871 45.4677 26.9691 45.4677 28.8351C45.4677 30.7001 45.4497 30.6831 47.3157 30.6831C48.7057 30.6831 48.8527 30.7181 49.0577 31.0991C49.1577 31.2811 49.1637 31.5041 49.1637 34.3791C49.1637 37.2541 49.1697 37.4761 49.2687 37.6591C49.4747 38.0391 49.6207 38.0751 51.0117 38.0751C52.8767 38.0751 52.8597 38.0921 52.8597 36.2271C52.8597 34.3611 52.8417 34.3791 54.7077 34.3791C56.0977 34.3791 56.2447 34.3441 56.4497 33.9621C56.5497 33.7801 56.5557 33.5571 56.5557 30.6821C56.5557 27.8071 56.5617 27.5851 56.6607 27.4031C56.7372 27.2757 56.844 27.1692 56.9717 27.0931C57.1537 26.9931 57.3767 26.9871 60.2517 26.9871C63.1267 26.9871 63.3487 26.9931 63.5317 27.0921C63.9117 27.2981 63.9477 27.4441 63.9477 28.8351C63.9477 30.7001 63.9297 30.6831 65.7957 30.6831C67.1857 30.6831 67.3327 30.6481 67.5377 30.2661C67.6377 30.0781 67.6437 29.8031 67.6437 25.1391C67.6437 20.4751 67.6497 20.1991 67.7487 20.0111C67.9547 19.6301 68.1007 19.5951 69.4917 19.5951C71.3567 19.5951 71.3397 19.5771 71.3397 21.4431C71.3397 23.3081 71.3217 23.2911 73.1877 23.2911C74.5777 23.2911 74.7247 23.2561 74.9297 22.8741C75.0297 22.6921 75.0357 22.4691 75.0357 19.5941C75.0357 16.7191 75.0297 16.4971 74.9297 16.3151C74.7247 15.9341 74.5777 15.8991 73.1877 15.8991C71.3217 15.8991 71.3397 15.9161 71.3397 14.0511C71.3397 12.6611 71.3047 12.5141 70.9227 12.3081C70.7467 12.2141 70.5767 12.2031 69.4917 12.2031C68.4057 12.2031 68.2367 12.2141 68.0607 12.3081ZM93.9317 12.3081C93.5507 12.5141 93.5157 12.6601 93.5157 14.0511C93.5157 15.9161 93.5327 15.8991 91.6677 15.8991C90.2777 15.8991 90.1307 15.9341 89.9247 16.3151C89.8247 16.5031 89.8197 16.7791 89.8197 21.4431C89.8197 26.1071 89.8257 26.3831 89.9247 26.5701C90.1307 26.9511 90.2767 26.9871 91.6677 26.9871C93.5327 26.9871 93.5157 26.9691 93.5157 28.8351C93.5157 30.7001 93.5327 30.6831 91.6677 30.6831C89.8017 30.6831 89.8197 30.6651 89.8197 32.5311C89.8197 34.3961 89.8017 34.3791 91.6677 34.3791C93.0577 34.3791 93.2047 34.4141 93.4097 34.7951C93.5097 34.9831 93.5157 35.2591 93.5157 39.9231C93.5157 44.5871 93.5097 44.8631 93.4097 45.0501C93.3336 45.1778 93.2271 45.2846 93.0997 45.3611C92.9167 45.4611 92.6937 45.4671 89.8197 45.4671C86.9447 45.4671 86.7217 45.4721 86.5397 45.5721C86.1587 45.7781 86.1237 45.9241 86.1237 47.3151C86.1237 48.7051 86.1587 48.8521 86.5397 49.0571C86.7277 49.1571 87.1207 49.1631 95.3637 49.1631C103.607 49.1631 103.999 49.1571 104.187 49.0571C104.569 48.8521 104.604 48.7051 104.604 47.3151C104.604 45.9251 104.569 45.7781 104.187 45.5721C104.005 45.4721 103.782 45.4671 100.908 45.4671C98.0327 45.4671 97.8097 45.4611 97.6277 45.3611C97.5004 45.2849 97.3939 45.1784 97.3177 45.0511C97.2177 44.8621 97.2117 44.5871 97.2117 39.9231C97.2117 35.2591 97.2177 34.9831 97.3167 34.7951C97.5227 34.4141 97.6687 34.3791 99.0597 34.3791C100.925 34.3791 100.908 34.3961 100.908 32.5311C100.908 30.6651 100.89 30.6831 102.756 30.6831C104.146 30.6831 104.293 30.6471 104.498 30.2661C104.598 30.0841 104.604 29.8611 104.604 26.9861C104.604 24.1111 104.598 23.8891 104.498 23.7071C104.293 23.3261 104.146 23.2911 102.756 23.2911C101.366 23.2911 101.219 23.2551 101.013 22.8741C100.914 22.6921 100.908 22.4691 100.908 19.5941C100.908 16.7191 100.914 16.4971 101.013 16.3151C101.219 15.9341 101.365 15.8991 102.756 15.8991C104.146 15.8991 104.293 15.9341 104.498 16.3151C104.598 16.4971 104.604 16.7201 104.604 19.5951C104.604 22.4701 104.61 22.6921 104.709 22.8741C104.915 23.2551 105.061 23.2911 106.452 23.2911C108.317 23.2911 108.3 23.2731 108.3 25.1391C108.3 27.0041 108.282 26.9871 110.148 26.9871C111.538 26.9871 111.685 26.9511 111.89 26.5701C111.99 26.3821 111.996 26.1071 111.996 21.4431C111.996 16.7791 112.002 16.5031 112.101 16.3151C112.177 16.1877 112.284 16.0812 112.412 16.0051C112.594 15.9051 112.817 15.8991 115.692 15.8991C118.567 15.8991 118.789 15.8931 118.971 15.7931C119.353 15.5881 119.388 15.4411 119.388 14.0511C119.388 12.6611 119.353 12.5141 118.971 12.3081C118.783 12.2081 118.273 12.2031 106.452 12.2031C94.6307 12.2031 94.1197 12.2081 93.9317 12.3081ZM96.7947 19.7001C97.1767 19.9061 97.2117 20.0521 97.2117 21.4431C97.2117 23.3081 97.2287 23.2911 95.3637 23.2911C93.4977 23.2911 93.5157 23.3081 93.5157 21.4431C93.5157 20.0531 93.5507 19.9051 93.9317 19.7001C94.1077 19.6061 94.2777 19.5951 95.3637 19.5951C96.4497 19.5951 96.6187 19.6061 96.7947 19.7001ZM123.5 12.3081C123.119 12.5141 123.084 12.6601 123.084 14.0511C123.084 15.9161 123.066 15.8991 124.932 15.8991C126.797 15.8991 126.78 15.9161 126.78 14.0511C126.78 12.9651 126.768 12.7951 126.674 12.6191C126.469 12.2381 126.322 12.2031 124.932 12.2031C123.846 12.2031 123.676 12.2141 123.5 12.3081ZM138.284 12.3081C138.156 12.3845 138.049 12.4913 137.973 12.6191C137.874 12.8071 137.868 13.3171 137.868 25.1391C137.868 36.9611 137.874 37.4701 137.973 37.6591C138.032 37.7691 138.173 37.9101 138.284 37.9691C138.472 38.0691 138.982 38.0751 150.804 38.0751C162.626 38.0751 163.135 38.0691 163.323 37.9691C163.45 37.8931 163.557 37.7866 163.634 37.6591C163.734 37.4701 163.74 36.9601 163.74 25.1391C163.74 13.3181 163.734 12.8071 163.634 12.6191C163.557 12.4917 163.45 12.3852 163.323 12.3091C163.135 12.2091 162.625 12.2031 150.804 12.2031C138.983 12.2031 138.472 12.2091 138.284 12.3081ZM159.897 16.0451L160.044 16.1861V34.0911L159.897 34.2321L159.756 34.3791H141.851L141.71 34.2321L141.564 34.0921V16.1851L141.71 16.0451L141.851 15.8981H159.756L159.897 16.0451Z" fill="black"/>
    <path d="M145.675 19.6994C145.547 19.7758 145.44 19.8826 145.364 20.0104C145.265 20.1984 145.259 20.4744 145.259 25.1384C145.259 29.8024 145.265 30.0784 145.364 30.2654C145.423 30.3774 145.564 30.5174 145.675 30.5764C145.863 30.6764 146.139 30.6824 150.803 30.6824C155.467 30.6824 155.742 30.6764 155.93 30.5764C156.057 30.5004 156.164 30.3939 156.241 30.2664C156.341 30.0774 156.347 29.8024 156.347 25.1384C156.347 20.4744 156.341 20.1984 156.241 20.0104C156.164 19.883 156.057 19.7765 155.93 19.7004C155.742 19.6004 155.467 19.5944 150.803 19.5944C146.139 19.5944 145.863 19.6004 145.675 19.6994ZM45.8828 16.0034C45.5018 16.2094 45.4668 16.3554 45.4668 17.7464C45.4668 19.6114 45.4488 19.5944 47.3148 19.5944C49.1798 19.5944 49.1628 19.6114 49.1628 17.7464C49.1628 16.6604 49.1508 16.4904 49.0568 16.3144C48.8518 15.9334 48.7048 15.8984 47.3148 15.8984C46.2288 15.8984 46.0588 15.9104 45.8828 16.0034ZM119.803 16.0034C119.422 16.2094 119.387 16.3554 119.387 17.7464C119.387 19.6114 119.404 19.5944 117.539 19.5944C115.673 19.5944 115.691 19.5764 115.691 21.4424C115.691 22.8324 115.726 22.9794 116.107 23.1844C116.295 23.2844 116.571 23.2904 121.235 23.2904C125.899 23.2904 126.174 23.2844 126.362 23.1844C126.744 22.9794 126.779 22.8324 126.779 21.4424C126.779 20.3564 126.767 20.1864 126.673 20.0104C126.468 19.6294 126.321 19.5944 124.931 19.5944C123.541 19.5944 123.394 19.5594 123.188 19.1774C123.094 19.0014 123.083 18.8314 123.083 17.7464C123.083 16.6604 123.071 16.4904 122.977 16.3144C122.772 15.9334 122.625 15.8984 121.235 15.8984C120.149 15.8984 119.979 15.9104 119.803 16.0034Z" fill="black"/>
    <path d="M130.892 16.0034C130.764 16.0798 130.657 16.1866 130.581 16.3144C130.482 16.5024 130.476 16.7784 130.476 21.4424C130.476 26.1064 130.47 26.3824 130.37 26.5694C130.294 26.6972 130.187 26.8041 130.059 26.8804C129.871 26.9804 129.478 26.9864 121.236 26.9864C112.994 26.9864 112.6 26.9924 112.412 27.0914C112.031 27.2974 111.996 27.4434 111.996 28.8344C111.996 30.6994 111.978 30.6824 113.844 30.6824C115.234 30.6824 115.381 30.7174 115.586 31.0984C115.686 31.2804 115.692 31.5034 115.692 34.3784C115.692 37.2534 115.686 37.4754 115.586 37.6584C115.381 38.0384 115.234 38.0744 113.844 38.0744C112.454 38.0744 112.307 38.1094 112.101 38.4904C112.002 38.6724 111.996 38.8954 111.996 41.7704C111.996 44.6454 112.002 44.8674 112.101 45.0504C112.307 45.4304 112.453 45.4664 113.844 45.4664C115.709 45.4664 115.692 45.4484 115.692 47.3144C115.692 49.1794 115.674 49.1624 117.54 49.1624C118.93 49.1624 119.077 49.1274 119.282 48.7454C119.382 48.5634 119.388 48.3414 119.388 45.4654C119.388 42.5914 119.394 42.3684 119.493 42.1864C119.699 41.8054 119.845 41.7704 121.236 41.7704C123.101 41.7704 123.084 41.7524 123.084 43.6184C123.084 45.0084 123.119 45.1554 123.5 45.3604C123.682 45.4604 123.905 45.4664 126.78 45.4664C129.655 45.4664 129.877 45.4604 130.059 45.3604C130.441 45.1554 130.476 45.0084 130.476 43.6184C130.476 41.7524 130.493 41.7704 128.628 41.7704C127.237 41.7704 127.091 41.7354 126.885 41.3534C126.786 41.1714 126.78 40.9494 126.78 38.0734C126.78 35.1994 126.774 34.9764 126.674 34.7944C126.469 34.4134 126.322 34.3784 124.932 34.3784C123.066 34.3784 123.084 34.3604 123.084 36.2264C123.084 38.0914 123.101 38.0744 121.236 38.0744C119.845 38.0744 119.699 38.0394 119.493 37.6574C119.394 37.4754 119.388 37.2534 119.388 34.3774C119.388 31.5034 119.394 31.2804 119.493 31.0984C119.569 30.971 119.676 30.8645 119.804 30.7884C119.992 30.6884 120.268 30.6824 124.932 30.6824C129.596 30.6824 129.871 30.6884 130.059 30.7874C130.171 30.8474 130.311 30.9874 130.37 31.0984C130.47 31.2804 130.476 31.5034 130.476 34.3784C130.476 37.2534 130.482 37.4754 130.581 37.6584C130.787 38.0384 130.933 38.0744 132.324 38.0744C133.714 38.0744 133.861 38.0394 134.066 37.6574C134.166 37.4704 134.172 37.0174 134.172 26.9864C134.172 16.9544 134.166 16.5024 134.066 16.3144C133.861 15.9334 133.714 15.8984 132.324 15.8984C131.238 15.8984 131.068 15.9104 130.892 16.0034ZM79.148 19.6994C79.0205 19.7759 78.914 19.8828 78.838 20.0104C78.738 20.1924 78.732 20.4154 78.732 23.2904C78.732 26.1654 78.726 26.3874 78.626 26.5704C78.421 26.9504 78.274 26.9864 76.884 26.9864C75.494 26.9864 75.347 27.0214 75.141 27.4024C75.041 27.5844 75.036 27.8074 75.036 30.6824C75.036 33.5574 75.042 33.7794 75.141 33.9624C75.347 34.3424 75.493 34.3784 76.884 34.3784C78.749 34.3784 78.732 34.3954 78.732 32.5304C78.732 30.6644 78.714 30.6824 80.58 30.6824C82.445 30.6824 82.428 30.6994 82.428 28.8344C82.428 26.9684 82.41 26.9864 84.276 26.9864C86.141 26.9864 86.124 27.0034 86.124 25.1384C86.124 23.2724 86.141 23.2904 84.276 23.2904C82.41 23.2904 82.428 23.3074 82.428 21.4424C82.428 19.5764 82.445 19.5944 80.58 19.5944C79.494 19.5944 79.324 19.6054 79.148 19.6994ZM60.668 30.7874C60.287 30.9934 60.252 31.1394 60.252 32.5304C60.252 34.3954 60.234 34.3784 62.1 34.3784C63.965 34.3784 63.948 34.3954 63.948 32.5304C63.948 31.1404 63.912 30.9934 63.531 30.7874C63.355 30.6934 63.185 30.6824 62.1 30.6824C61.014 30.6824 60.844 30.6934 60.668 30.7874Z" fill="black"/>
    <path d="M105.019 30.7886C104.638 30.9946 104.603 31.1406 104.603 32.5316C104.603 34.3966 104.585 34.3796 106.451 34.3796C108.316 34.3796 108.299 34.3616 108.299 36.2276C108.299 37.6176 108.334 37.7646 108.715 37.9696C108.891 38.0636 109.061 38.0756 110.147 38.0756C111.537 38.0756 111.684 38.0396 111.889 37.6586C111.989 37.4766 111.995 37.2536 111.995 34.3786C111.995 31.5036 111.989 31.2816 111.889 31.0996C111.813 30.9722 111.706 30.8657 111.578 30.7896C111.396 30.6896 111.173 30.6836 108.299 30.6836C105.424 30.6836 105.201 30.6896 105.019 30.7886ZM42.1875 34.4846C41.8065 34.6906 41.7715 34.8366 41.7715 36.2276C41.7715 38.0926 41.7535 38.0756 43.6195 38.0756C45.4845 38.0756 45.4675 38.0926 45.4675 36.2276C45.4675 35.1416 45.4555 34.9716 45.3615 34.7956C45.1565 34.4146 45.0095 34.3796 43.6195 34.3796C42.5335 34.3796 42.3635 34.3906 42.1875 34.4846ZM56.9715 34.4846C56.5905 34.6906 56.5555 34.8366 56.5555 36.2276C56.5555 38.0926 56.5725 38.0756 54.7075 38.0756C53.3175 38.0756 53.1705 38.1106 52.9645 38.4916C52.8645 38.6736 52.8595 38.8966 52.8595 41.7716C52.8595 44.6466 52.8655 44.8686 52.9645 45.0516C53.1705 45.4316 53.3165 45.4676 54.7075 45.4676C56.5725 45.4676 56.5555 45.4846 56.5555 43.6196C56.5555 41.7536 56.5375 41.7716 58.4035 41.7716C60.2685 41.7716 60.2515 41.7536 60.2515 43.6196C60.2515 45.4846 60.2685 45.4676 58.4035 45.4676C56.5375 45.4676 56.5555 45.4496 56.5555 47.3156C56.5555 48.7056 56.5905 48.8526 56.9715 49.0576C57.1595 49.1576 57.4355 49.1636 62.0995 49.1636C66.7635 49.1636 67.0395 49.1576 67.2265 49.0576C67.3542 48.9815 67.461 48.875 67.5375 48.7476C67.6375 48.5646 67.6435 48.3416 67.6435 45.4676C67.6435 42.5926 67.6375 42.3696 67.5375 42.1876C67.3325 41.8066 67.1855 41.7716 65.7955 41.7716C63.9295 41.7716 63.9475 41.7886 63.9475 39.9236C63.9475 38.5336 63.9115 38.3856 63.5305 38.1806C63.3545 38.0866 63.1845 38.0756 62.0995 38.0756C60.2335 38.0756 60.2515 38.0926 60.2515 36.2276C60.2515 34.3616 60.2685 34.3796 58.4035 34.3796C57.3175 34.3796 57.1475 34.3906 56.9715 34.4846ZM64.3635 34.4846C63.9825 34.6906 63.9475 34.8366 63.9475 36.2276C63.9475 38.0926 63.9295 38.0756 65.7955 38.0756C67.6605 38.0756 67.6435 38.0926 67.6435 36.2276C67.6435 34.8376 67.6085 34.6906 67.2265 34.4846C67.0505 34.3906 66.8805 34.3796 65.7955 34.3796C64.7095 34.3796 64.5395 34.3906 64.3635 34.4846ZM71.7555 34.4846C71.6281 34.5611 71.5216 34.6679 71.4455 34.7956C71.3455 34.9776 71.3395 35.2006 71.3395 38.0756C71.3395 40.9506 71.3455 41.1726 71.4445 41.3556C71.6505 41.7356 71.7965 41.7716 73.1875 41.7716C74.5775 41.7716 74.7245 41.7366 74.9295 41.3546C75.0295 41.1726 75.0355 40.9496 75.0355 38.0746C75.0355 35.1996 75.0295 34.9776 74.9295 34.7956C74.7245 34.4146 74.5775 34.3796 73.1875 34.3796C72.1015 34.3796 71.9315 34.3916 71.7555 34.4846ZM79.1475 34.4846C79.0201 34.5611 78.9136 34.6679 78.8375 34.7956C78.7375 34.9776 78.7315 35.2006 78.7315 38.0756C78.7315 40.9506 78.7375 41.1726 78.8365 41.3556C79.0425 41.7356 79.1885 41.7716 80.5795 41.7716C81.9695 41.7716 82.1165 41.7366 82.3215 41.3546C82.4215 41.1726 82.4275 40.9496 82.4275 38.0746C82.4275 35.1996 82.4215 34.9776 82.3215 34.7956C82.1165 34.4146 81.9695 34.3796 80.5795 34.3796C79.4935 34.3796 79.3235 34.3916 79.1475 34.4846ZM86.5405 34.4846C86.4123 34.5608 86.3051 34.6677 86.2285 34.7956C86.1285 34.9776 86.1235 35.2006 86.1235 38.0756C86.1235 40.9506 86.1295 41.1726 86.2285 41.3556C86.4345 41.7356 86.5805 41.7716 87.9715 41.7716C89.3615 41.7716 89.5085 41.7366 89.7135 41.3546C89.8135 41.1726 89.8195 40.9496 89.8195 38.0746C89.8195 35.1996 89.8135 34.9776 89.7135 34.7956C89.5085 34.4146 89.3615 34.3796 87.9715 34.3796C86.8855 34.3796 86.7165 34.3916 86.5405 34.4846Z" fill="black"/>
    <path d="M101.323 34.4839C101.195 34.5603 101.088 34.6671 101.012 34.7949C100.913 34.9769 100.907 35.1999 100.907 38.0749C100.907 40.9499 100.913 41.1719 101.012 41.3549C101.071 41.4649 101.212 41.6069 101.323 41.6649C101.505 41.7649 101.728 41.7709 104.603 41.7709C107.478 41.7709 107.7 41.7649 107.882 41.6649C108.264 41.4599 108.299 41.3129 108.299 39.9229C108.299 38.0569 108.316 38.0749 106.451 38.0749C104.585 38.0749 104.603 38.0919 104.603 36.2269C104.603 34.3609 104.62 34.3789 102.755 34.3789C101.669 34.3789 101.499 34.3909 101.323 34.4839ZM45.8831 38.1799C45.5021 38.3859 45.4671 38.5319 45.4671 39.9229C45.4671 41.7879 45.4491 41.7709 47.3151 41.7709C49.1801 41.7709 49.1631 41.7879 49.1631 39.9229C49.1631 38.8369 49.1511 38.6669 49.0571 38.4909C48.8521 38.1099 48.7051 38.0749 47.3151 38.0749C46.2291 38.0749 46.0591 38.0859 45.8831 38.1799ZM23.7071 41.8759C23.5797 41.9524 23.4732 42.0592 23.3971 42.1869C23.2971 42.3689 23.2911 42.5919 23.2911 45.4669C23.2911 48.3419 23.2971 48.5639 23.3961 48.7469C23.6021 49.1269 23.7481 49.1629 25.1391 49.1629C27.0041 49.1629 26.9871 49.1799 26.9871 47.3149C26.9871 45.4489 26.9691 45.4669 28.8351 45.4669C30.7001 45.4669 30.6831 45.4839 30.6831 43.6189C30.6831 42.2289 30.6481 42.0819 30.2661 41.8759C30.0841 41.7759 29.8611 41.7709 26.9861 41.7709C24.1111 41.7709 23.8891 41.7769 23.7071 41.8759ZM34.7951 41.8759C34.4141 42.0819 34.3791 42.2279 34.3791 43.6189C34.3791 45.4839 34.3611 45.4669 36.2271 45.4669C38.0921 45.4669 38.0751 45.4489 38.0751 47.3149C38.0751 49.1799 38.0921 49.1629 36.2271 49.1629C34.3611 49.1629 34.3791 49.1449 34.3791 51.0109C34.3791 52.4009 34.4141 52.5479 34.7951 52.7529C34.9831 52.8529 35.2591 52.8589 39.9231 52.8589C44.5871 52.8589 44.8631 52.8529 45.0501 52.7529C45.4321 52.5479 45.4671 52.4009 45.4671 51.0109C45.4671 49.1449 45.4491 49.1629 47.3151 49.1629C49.1801 49.1629 49.1631 49.1449 49.1631 51.0109C49.1631 52.8759 49.1801 52.8589 47.3151 52.8589C45.4491 52.8589 45.4671 52.8409 45.4671 54.7069C45.4671 56.5719 45.4491 56.5549 47.3151 56.5549C48.7051 56.5549 48.8521 56.5899 49.0571 56.9709C49.1571 57.1589 49.1631 57.4349 49.1631 62.0989C49.1631 66.7629 49.1571 67.0389 49.0571 67.2259C48.8521 67.6069 48.7051 67.6429 47.3151 67.6429C45.4491 67.6429 45.4671 67.6249 45.4671 69.4909C45.4671 70.8809 45.5021 71.0279 45.8831 71.2329C46.0651 71.3329 46.2881 71.3389 49.1631 71.3389C52.0381 71.3389 52.2601 71.3329 52.4431 71.2329C52.8231 71.0279 52.8591 70.8809 52.8591 69.4909C52.8591 67.6249 52.8411 67.6429 54.7071 67.6429C56.0971 67.6429 56.2441 67.6069 56.4491 67.2259C56.5491 67.0439 56.5551 66.8209 56.5551 63.9459C56.5551 61.0709 56.5491 60.8489 56.4491 60.6669C56.2441 60.2859 56.0971 60.2509 54.7071 60.2509C52.8411 60.2509 52.8591 60.2679 52.8591 58.4029C52.8591 56.5369 52.8411 56.5549 54.7071 56.5549C56.5721 56.5549 56.5551 56.5719 56.5551 54.7069C56.5551 52.8409 56.5721 52.8589 54.7071 52.8589C53.3171 52.8589 53.1701 52.8229 52.9641 52.4419C52.8641 52.2599 52.8591 52.0369 52.8591 49.1619C52.8591 46.2869 52.8531 46.0649 52.7531 45.8829C52.6769 45.7556 52.5704 45.6491 52.4431 45.5729C52.2541 45.4729 51.9791 45.4669 47.3151 45.4669C42.6511 45.4669 42.3751 45.4609 42.1871 45.3609C41.8061 45.1559 41.7711 45.0089 41.7711 43.6189C41.7711 42.2289 41.7361 42.0809 41.3541 41.8759C41.1721 41.7759 40.9491 41.7709 38.0741 41.7709C35.1991 41.7709 34.9771 41.7759 34.7951 41.8759ZM75.4511 41.8759C75.3237 41.9524 75.2172 42.0592 75.1411 42.1869C75.0411 42.3689 75.0351 42.5919 75.0351 45.4669C75.0351 48.3419 75.0411 48.5639 75.1401 48.7469C75.3461 49.1269 75.4921 49.1629 76.8831 49.1629C78.2731 49.1629 78.4201 49.1269 78.6251 48.7459C78.7251 48.5639 78.7311 48.3409 78.7311 45.4659C78.7311 42.5909 78.7251 42.3689 78.6251 42.1869C78.4201 41.8059 78.2731 41.7709 76.8831 41.7709C75.7971 41.7709 75.6271 41.7819 75.4511 41.8759ZM82.8431 41.8759C82.4621 42.0819 82.4271 42.2279 82.4271 43.6189C82.4271 45.4839 82.4091 45.4669 84.2751 45.4669C86.1401 45.4669 86.1231 45.4839 86.1231 43.6189C86.1231 42.2289 86.0881 42.0819 85.7061 41.8759C85.5301 41.7829 85.3601 41.7709 84.2751 41.7709C83.1891 41.7709 83.0191 41.7819 82.8431 41.8759ZM149.371 41.8759C148.99 42.0819 148.955 42.2279 148.955 43.6189C148.955 45.4839 148.937 45.4669 150.803 45.4669C152.668 45.4669 152.651 45.4489 152.651 47.3149C152.651 48.7049 152.686 48.8519 153.067 49.0569C153.249 49.1569 153.472 49.1629 156.347 49.1629C159.222 49.1629 159.444 49.1569 159.626 49.0569C160.008 48.8519 160.043 48.7049 160.043 47.3149C160.043 45.4489 160.06 45.4669 158.195 45.4669C156.329 45.4669 156.347 45.4839 156.347 43.6189C156.347 42.2289 156.312 42.0809 155.93 41.8759C155.748 41.7759 155.525 41.7709 152.651 41.7709C149.776 41.7709 149.553 41.7759 149.371 41.8759ZM108.715 45.5719C108.334 45.7779 108.299 45.9239 108.299 47.3149C108.299 49.1799 108.281 49.1629 110.147 49.1629C112.012 49.1629 111.995 49.1799 111.995 47.3149C111.995 45.9249 111.96 45.7779 111.578 45.5719C111.402 45.4789 111.232 45.4669 110.147 45.4669C109.061 45.4669 108.891 45.4789 108.715 45.5719ZM130.891 45.5719C130.763 45.6483 130.656 45.7551 130.58 45.8829C130.481 46.0649 130.475 46.2879 130.475 49.1629C130.475 52.0379 130.481 52.2599 130.58 52.4429C130.639 52.5529 130.78 52.6939 130.891 52.7529C131.073 52.8529 131.296 52.8589 134.171 52.8589C137.046 52.8589 137.268 52.8529 137.45 52.7529C137.832 52.5479 137.867 52.4009 137.867 51.0109C137.867 49.1449 137.849 49.1629 139.715 49.1629C141.58 49.1629 141.563 49.1449 141.563 51.0109C141.563 52.8759 141.545 52.8589 143.411 52.8589C145.276 52.8589 145.259 52.8759 145.259 51.0109C145.259 49.1449 145.241 49.1629 147.107 49.1629C148.972 49.1629 148.955 49.1799 148.955 47.3149C148.955 45.9249 148.92 45.7779 148.538 45.5719C148.35 45.4719 147.957 45.4669 139.715 45.4669C131.473 45.4669 131.079 45.4719 130.891 45.5719ZM12.6201 49.2679C12.492 49.3441 12.3848 49.451 12.3081 49.5789C12.2081 49.7609 12.2031 49.9839 12.2031 52.8589C12.2031 55.7339 12.2091 55.9559 12.3081 56.1389C12.3671 56.2489 12.5081 56.3899 12.6191 56.4489C12.8011 56.5489 13.0241 56.5549 15.8991 56.5549C18.7741 56.5549 18.9961 56.5489 19.1791 56.4489C19.5591 56.2439 19.5951 56.0969 19.5951 54.7069C19.5951 52.8409 19.6121 52.8589 17.7471 52.8589C15.8811 52.8589 15.8991 52.8759 15.8991 51.0109C15.8991 49.1449 15.9161 49.1629 14.0511 49.1629C12.9651 49.1629 12.7961 49.1739 12.6201 49.2679ZM27.4031 49.2679C27.2757 49.3444 27.1692 49.4512 27.0931 49.5789C26.9931 49.7669 26.9871 50.0429 26.9871 54.7069C26.9871 59.3709 26.9931 59.6469 27.0921 59.8339C27.2981 60.2149 27.4441 60.2509 28.8351 60.2509C30.7001 60.2509 30.6831 60.2679 30.6831 58.4029C30.6831 56.5369 30.6651 56.5549 32.5311 56.5549C34.3961 56.5549 34.3791 56.5719 34.3791 54.7069C34.3791 52.8409 34.3961 52.8589 32.5311 52.8589C30.6651 52.8589 30.6831 52.8759 30.6831 51.0109C30.6831 49.1449 30.7001 49.1629 28.8351 49.1629C27.7491 49.1629 27.5791 49.1749 27.4031 49.2679ZM149.371 49.2679C148.99 49.4739 148.955 49.6199 148.955 51.0109C148.955 52.8759 148.937 52.8589 150.803 52.8589C152.668 52.8589 152.651 52.8759 152.651 51.0109C152.651 49.9249 152.639 49.7549 152.545 49.5789C152.34 49.1979 152.193 49.1629 150.803 49.1629C149.717 49.1629 149.547 49.1739 149.371 49.2679ZM160.459 49.2679C160.078 49.4739 160.043 49.6199 160.043 51.0109C160.043 52.8759 160.025 52.8589 161.891 52.8589C163.756 52.8589 163.739 52.8759 163.739 51.0109C163.739 49.6209 163.704 49.4739 163.322 49.2679C163.146 49.1739 162.976 49.1629 161.891 49.1629C160.805 49.1629 160.635 49.1739 160.459 49.2679ZM58.4901 50.9809V124.901H87.9301C110.751 124.901 117.386 124.884 117.439 124.831C117.492 124.778 117.509 116.483 117.509 87.8709V50.9799H58.4911L58.4901 50.9809ZM88.9401 65.0669C89.7321 65.1489 90.6591 65.3069 90.9341 65.4069C91.0161 65.4369 91.1981 65.4899 91.3451 65.5309C91.4921 65.5659 91.6501 65.6189 91.6971 65.6479C91.7501 65.6709 91.8731 65.7129 91.9791 65.7359C92.0841 65.7539 92.1661 65.7999 92.1661 65.8299C92.1661 65.8599 92.2311 65.8829 92.3131 65.8829C92.3951 65.8829 92.4601 65.9059 92.4601 65.9409C92.4601 65.9709 92.5071 65.9999 92.5651 65.9999C92.6241 65.9999 92.7241 66.0409 92.7881 66.0879C92.8509 66.1368 92.926 66.1672 93.0051 66.1759C93.0581 66.1759 93.1051 66.1989 93.1051 66.2289C93.1051 66.2589 93.1521 66.2929 93.2111 66.3109C93.2631 66.3279 93.4691 66.4399 93.6621 66.5569C93.8561 66.6689 94.0731 66.7919 94.1491 66.8329C94.2191 66.8679 94.2791 66.9209 94.2791 66.9499C94.2791 66.9739 94.3191 66.9969 94.3661 66.9969C94.4131 66.9969 94.4541 67.0209 94.4541 67.0499C94.4541 67.0799 94.5011 67.1199 94.5601 67.1379C94.6403 67.1745 94.7153 67.2216 94.7831 67.2779C94.8421 67.3319 95.0291 67.4839 95.1881 67.6129C95.5581 67.9129 96.1501 68.5049 96.5661 68.9919C96.7421 69.2029 96.9061 69.3789 96.9361 69.3909C96.9591 69.4029 96.9771 69.4439 96.9771 69.4789C96.9771 69.5199 97.0361 69.6189 97.1121 69.7019C97.1821 69.7839 97.2701 69.9019 97.3061 69.9599C97.3411 70.0249 97.4171 70.1709 97.4821 70.2829C97.5401 70.3939 97.6051 70.4999 97.6221 70.5169C97.7101 70.5999 97.8571 70.8749 97.8571 70.9569C97.8571 71.0039 97.8871 71.0449 97.9161 71.0449C97.9511 71.0449 97.9741 71.0689 97.9741 71.1039C97.9741 71.1339 98.0391 71.2979 98.1151 71.4679C98.1911 71.6379 98.3031 71.9079 98.3551 72.0719C98.4081 72.2299 98.4791 72.4179 98.5021 72.4819C98.5431 72.5939 98.5721 72.6879 98.7371 73.3039C98.9421 74.0609 99.0241 75.1339 99.0241 77.2759L99.0301 79.0829H103.548V103.488L103.401 103.523C103.319 103.541 103.254 103.582 103.254 103.611C103.254 103.641 103.225 103.664 103.184 103.664C103.149 103.664 102.973 103.734 102.791 103.817C102.204 104.092 101.477 104.433 100.931 104.697C100.638 104.837 100.368 104.955 100.333 104.955C100.292 104.955 100.262 104.978 100.262 105.013C100.262 105.043 100.227 105.072 100.192 105.072C100.151 105.072 99.9341 105.16 99.7051 105.271C98.8781 105.676 98.2681 105.952 98.2091 105.952C98.1936 105.952 98.1787 105.958 98.1677 105.969C98.1567 105.98 98.1504 105.995 98.1501 106.011C98.1501 106.04 98.1101 106.069 98.0681 106.069C98.0211 106.069 97.8571 106.134 97.7051 106.216C97.5521 106.298 97.3941 106.363 97.3531 106.363C97.3061 106.363 97.2701 106.386 97.2701 106.421C97.2701 106.451 97.2351 106.48 97.2001 106.48C97.1591 106.48 96.9421 106.568 96.7131 106.679C95.8861 107.084 95.2761 107.36 95.2171 107.36C95.2016 107.36 95.1867 107.366 95.1757 107.377C95.1647 107.388 95.1584 107.403 95.1581 107.419C95.1581 107.448 95.1181 107.477 95.0761 107.477C95.0291 107.477 94.8651 107.542 94.7121 107.624C94.5601 107.706 94.4021 107.771 94.3601 107.771C94.3141 107.771 94.2781 107.794 94.2781 107.829C94.2781 107.859 94.2551 107.888 94.2201 107.888C94.1671 107.888 93.7391 108.082 92.5361 108.657C92.2661 108.78 91.8321 108.991 91.5681 109.114C91.1695 109.298 90.7725 109.486 90.3771 109.677L89.3801 110.147C89.2211 110.217 88.8401 110.405 88.5351 110.551L87.9781 110.821L87.5491 110.616C87.3151 110.505 87.0981 110.411 87.0621 110.411C87.0331 110.411 87.0041 110.381 87.0041 110.352C87.0041 110.317 86.9691 110.293 86.9341 110.293C86.8921 110.293 86.6751 110.205 86.4461 110.094C85.5191 109.648 85.0091 109.413 84.9501 109.413C84.9349 109.412 84.9204 109.406 84.9097 109.395C84.8989 109.385 84.8926 109.37 84.8921 109.355C84.8921 109.319 84.8511 109.296 84.8101 109.296C84.7631 109.296 84.5981 109.231 84.4461 109.149C84.2931 109.067 84.1351 109.003 84.0941 109.003C84.0471 109.003 84.0121 108.973 84.0121 108.944C84.0121 108.909 83.9771 108.885 83.9421 108.885C83.9001 108.885 83.6831 108.797 83.4541 108.686C83.2311 108.574 82.7561 108.351 82.3981 108.181C82.0461 108.011 81.6181 107.812 81.4601 107.735C81.2951 107.659 81.1311 107.595 81.0901 107.595C81.0551 107.595 81.0201 107.565 81.0201 107.536C81.0201 107.501 80.9671 107.477 80.9021 107.477C80.8381 107.477 80.7851 107.448 80.7851 107.419C80.7851 107.383 80.7551 107.36 80.7201 107.36C80.6851 107.36 80.4391 107.26 80.1751 107.137C79.9171 107.014 79.6121 106.873 79.5121 106.826C79.4061 106.779 79.3181 106.726 79.3181 106.703C79.3181 106.674 79.2781 106.656 79.2251 106.656C79.1378 106.647 79.0535 106.619 78.9781 106.574C78.4621 106.304 77.9461 106.069 77.8751 106.069C77.8281 106.069 77.7931 106.04 77.7931 106.011C77.7929 105.995 77.7866 105.98 77.7756 105.969C77.7646 105.958 77.7497 105.952 77.7341 105.952C77.6991 105.952 77.4001 105.817 77.0661 105.659C76.7311 105.494 76.4321 105.365 76.3911 105.365C76.3561 105.365 76.3261 105.336 76.3261 105.307C76.3261 105.271 76.2861 105.248 76.2321 105.248C76.1453 105.234 76.0619 105.204 75.9861 105.16C75.7008 105.017 75.4135 104.878 75.1241 104.743C74.7295 104.56 74.3362 104.374 73.9441 104.186C73.6861 104.063 73.4401 103.957 73.4041 103.957C73.3641 103.957 73.3341 103.928 73.3341 103.899C73.3341 103.863 73.2991 103.84 73.2521 103.84C73.2121 103.84 73.0521 103.775 72.9001 103.693C72.7947 103.632 72.6827 103.583 72.5661 103.547C72.3311 103.547 72.3371 103.969 72.3371 91.2329V79.0829H76.9071L76.9371 76.9229C76.9481 75.7389 76.9771 74.6359 76.9951 74.4769C77.0601 73.9839 77.2121 73.1919 77.2711 73.0869C77.3035 73.0088 77.3215 72.9254 77.3241 72.8409C77.3241 72.7579 77.3471 72.6819 77.3771 72.6649C77.4061 72.6469 77.4471 72.5349 77.4701 72.4179C77.4881 72.3009 77.5291 72.1599 77.5581 72.1079L77.6641 71.8669C77.6941 71.7839 77.7931 71.5729 77.8751 71.3909C77.9571 71.2099 78.0281 71.0339 78.0281 70.9979C78.0281 70.9579 78.0451 70.9279 78.0751 70.9279C78.0981 70.9279 78.1691 70.8109 78.2331 70.6639C78.2981 70.5169 78.3631 70.3999 78.3861 70.3999C78.4091 70.3999 78.4441 70.3349 78.4621 70.2529C78.4851 70.1709 78.5261 70.1069 78.5561 70.1069C78.5911 70.1069 78.6141 70.0659 78.6141 70.0189C78.6141 69.9719 78.6381 69.9309 78.6671 69.9309C78.6971 69.9309 78.7371 69.8839 78.7551 69.8249C78.7921 69.7447 78.8395 69.6697 78.8961 69.6019C78.9762 69.5108 79.0507 69.415 79.1191 69.3149C79.3891 68.8919 80.2991 67.9889 81.0791 67.3549C81.1601 67.2849 81.2541 67.2079 81.2951 67.1729C81.3361 67.1439 81.3891 67.1149 81.4251 67.1149C81.4406 67.1135 81.4555 67.1085 81.4687 67.1004C81.4819 67.0922 81.493 67.0811 81.5011 67.0679C81.5241 67.0029 82.1751 66.5869 82.2461 66.5869C82.2761 66.5869 82.3101 66.5689 82.3221 66.5399C82.3401 66.5039 83.4841 65.9239 83.7481 65.8239C84.1181 65.6839 84.4111 65.5889 84.4931 65.5889C84.5461 65.5889 84.5981 65.5719 84.6101 65.5419C84.6341 65.4959 85.3961 65.2959 85.5721 65.2959C85.6349 65.2971 85.6965 65.2786 85.7481 65.2429C85.7781 65.2129 85.9591 65.1729 86.1531 65.1549C86.3471 65.1319 86.7161 65.0969 86.9741 65.0669C87.6277 64.9996 88.2865 64.9996 88.9401 65.0669Z" fill="black"/>
    <path d="M86.8567 70.8704C86.8397 70.8994 86.7517 70.9284 86.6627 70.9284C86.5047 70.9344 85.9177 71.1164 85.8477 71.1864C85.8297 71.2044 85.7597 71.2214 85.7007 71.2214C85.6417 71.2214 85.5957 71.2454 85.5957 71.2684C85.5957 71.2924 85.4657 71.3624 85.3017 71.4274C85.1437 71.4914 85.0087 71.5564 85.0087 71.5734C85.0087 71.5914 84.9267 71.6564 84.8207 71.7144C84.5687 71.8674 84.4687 71.9494 84.0057 72.4064C83.7827 72.6184 83.6007 72.8234 83.6007 72.8524C83.6007 72.8884 83.5827 72.9224 83.5597 72.9344C83.4487 72.9814 83.0197 73.7684 82.8437 74.2434C82.6797 74.6834 82.6437 75.1584 82.6207 77.0714L82.5977 79.0834H93.2807V76.9184C93.2807 75.7214 93.2577 74.7364 93.2277 74.7184C93.2047 74.7004 93.1637 74.5834 93.1517 74.4604C93.1167 74.2254 92.7117 73.3224 92.6237 73.2874C92.6007 73.2754 92.5767 73.2344 92.5767 73.1934C92.5767 73.1344 92.3887 72.8884 91.9667 72.3954C91.8197 72.2254 90.9807 71.5974 90.7867 71.5094C90.7152 71.4783 90.6465 71.4408 90.5817 71.3974C90.4117 71.2924 89.9897 71.1104 89.8017 71.0754C89.7162 71.0569 89.6335 71.0273 89.5557 70.9874C89.4377 70.8994 89.0037 70.8524 87.9597 70.8284C87.2617 70.8174 86.8857 70.8294 86.8567 70.8704ZM78.6727 84.8324V99.3824L79.2297 99.6454C79.5407 99.7924 79.8167 99.9094 79.8457 99.9094C79.8817 99.9094 79.9047 99.9334 79.9047 99.9694C79.9047 99.9974 79.9397 100.027 79.9807 100.027C80.0217 100.027 80.2387 100.121 80.4677 100.232C80.6907 100.344 80.9077 100.437 80.9487 100.437C80.9847 100.437 81.0187 100.461 81.0187 100.496C81.0187 100.525 81.0487 100.555 81.0837 100.555C81.1427 100.555 81.7937 100.836 82.0287 100.971C82.0867 101.001 82.1747 101.024 82.2217 101.024C82.2687 101.024 82.3097 101.042 82.3097 101.071C82.3097 101.118 82.7387 101.317 82.8377 101.317C82.8737 101.317 82.8967 101.341 82.8967 101.376C82.8967 101.405 82.9317 101.435 82.9727 101.435C83.0077 101.435 83.1787 101.499 83.3367 101.581C83.5007 101.658 83.6657 101.728 83.7067 101.728C83.7417 101.728 83.7767 101.752 83.7767 101.787C83.7767 101.816 83.8297 101.845 83.8937 101.845C83.9587 101.845 84.0117 101.869 84.0117 101.904C84.0117 101.933 84.0407 101.963 84.0817 101.963C84.1167 101.963 84.2927 102.033 84.4747 102.115C85.2497 102.479 86.0647 102.866 86.4517 103.054C86.6807 103.165 86.8977 103.253 86.9327 103.253C86.9737 103.253 87.0027 103.277 87.0027 103.312C87.0027 103.341 87.0387 103.371 87.0797 103.371C87.1147 103.371 87.2847 103.441 87.4437 103.523C87.7607 103.688 88.2357 103.746 88.2767 103.617C88.2937 103.582 88.3347 103.547 88.3707 103.547C88.4107 103.547 88.5757 103.482 88.7337 103.4C88.8987 103.324 89.0627 103.253 89.1037 103.253C89.1387 103.253 89.1737 103.224 89.1737 103.195C89.1737 103.16 89.2037 103.136 89.2437 103.136C89.2797 103.136 89.4737 103.06 89.6667 102.966C90.4297 102.608 90.5647 102.549 90.6287 102.549C90.6697 102.549 90.6987 102.526 90.6987 102.503C90.6987 102.479 90.8347 102.409 90.9927 102.344C91.1567 102.28 91.2857 102.209 91.2857 102.186C91.2857 102.162 91.3217 102.139 91.3627 102.139C91.4027 102.139 91.5797 102.074 91.7437 101.992C91.9137 101.91 92.0727 101.845 92.1077 101.845C92.1377 101.845 92.1657 101.816 92.1657 101.787C92.1657 101.752 92.1957 101.728 92.2357 101.728C92.2717 101.728 92.4657 101.652 92.6587 101.558C93.4217 101.2 93.5567 101.141 93.6207 101.141C93.6617 101.141 93.6907 101.118 93.6907 101.094C93.6907 101.071 93.8267 101.001 93.9847 100.936C94.1487 100.872 94.2777 100.801 94.2777 100.778C94.2777 100.754 94.3137 100.731 94.3547 100.731C94.3947 100.731 94.5717 100.666 94.7357 100.584C94.9057 100.502 95.0647 100.437 95.0997 100.437C95.1297 100.437 95.1577 100.408 95.1577 100.379C95.1577 100.344 95.1937 100.32 95.2277 100.32C95.2927 100.32 95.8277 100.08 96.3487 99.8164C96.4278 99.7748 96.5133 99.7467 96.6017 99.7334C96.6477 99.7334 96.6837 99.7104 96.6837 99.6864C96.6837 99.6634 96.8187 99.5934 96.9767 99.5284L97.2697 99.4174V84.8324H78.6727ZM119.804 52.9644C119.676 53.0407 119.569 53.1476 119.493 53.2754C119.394 53.4574 119.388 53.6804 119.388 56.5554C119.388 59.4304 119.394 59.6524 119.493 59.8354C119.699 60.2154 119.845 60.2514 121.236 60.2514C123.101 60.2514 123.084 60.2684 123.084 58.4034C123.084 56.5374 123.066 56.5554 124.932 56.5554C126.797 56.5554 126.78 56.5374 126.78 58.4034C126.78 59.7934 126.745 59.9404 126.363 60.1454C126.187 60.2394 126.017 60.2514 124.932 60.2514C123.066 60.2514 123.084 60.2334 123.084 62.0994C123.084 63.9644 123.101 63.9474 121.236 63.9474C119.37 63.9474 119.388 63.9294 119.388 65.7954C119.388 67.6604 119.37 67.6434 121.236 67.6434C123.101 67.6434 123.084 67.6254 123.084 69.4914C123.084 71.3564 123.101 71.3394 121.236 71.3394C119.845 71.3394 119.699 71.3744 119.493 71.7554C119.394 71.9434 119.388 72.2194 119.388 76.8834C119.388 81.5474 119.394 81.8234 119.493 82.0104C119.552 82.1224 119.693 82.2624 119.804 82.3214C119.986 82.4214 120.209 82.4274 123.084 82.4274C125.959 82.4274 126.181 82.4214 126.363 82.3214C126.49 82.2453 126.597 82.1388 126.674 82.0114C126.774 81.8224 126.78 81.4884 126.78 75.0354C126.78 68.5824 126.786 68.2474 126.885 68.0594C127.091 67.6784 127.237 67.6434 128.628 67.6434C130.493 67.6434 130.476 67.6254 130.476 69.4914C130.476 71.3564 130.458 71.3394 132.324 71.3394C134.189 71.3394 134.172 71.3214 134.172 73.1874C134.172 74.5774 134.207 74.7244 134.588 74.9294C134.77 75.0294 134.993 75.0354 137.868 75.0354C140.743 75.0354 140.965 75.0294 141.147 74.9294C141.529 74.7244 141.564 74.5774 141.564 73.1874C141.564 71.3214 141.581 71.3394 139.716 71.3394C137.85 71.3394 137.868 71.3564 137.868 69.4914C137.868 67.6254 137.885 67.6434 136.02 67.6434C134.154 67.6434 134.172 67.6604 134.172 65.7954C134.172 63.9294 134.154 63.9474 136.02 63.9474C137.885 63.9474 137.868 63.9644 137.868 62.0994C137.868 60.2334 137.85 60.2514 139.716 60.2514C141.581 60.2514 141.564 60.2334 141.564 62.0994C141.564 63.9644 141.581 63.9474 139.716 63.9474C137.85 63.9474 137.868 63.9294 137.868 65.7954C137.868 67.6604 137.85 67.6434 139.716 67.6434C141.581 67.6434 141.564 67.6254 141.564 69.4914C141.564 71.3564 141.546 71.3394 143.412 71.3394C144.802 71.3394 144.949 71.3744 145.154 71.7554C145.254 71.9374 145.26 72.1604 145.26 75.0354C145.26 77.9104 145.266 78.1324 145.365 78.3154C145.571 78.6954 145.717 78.7314 147.108 78.7314C148.973 78.7314 148.956 78.7134 148.956 80.5794C148.956 82.4444 148.973 82.4274 147.108 82.4274C145.242 82.4274 145.26 82.4444 145.26 80.5794C145.26 79.1894 145.225 79.0424 144.843 78.8364C144.655 78.7364 144.321 78.7314 137.868 78.7314C131.414 78.7314 131.08 78.7374 130.892 78.8364C130.511 79.0424 130.476 79.1884 130.476 80.5794C130.476 81.9694 130.511 82.1164 130.892 82.3214C131.074 82.4214 131.297 82.4274 134.172 82.4274C137.047 82.4274 137.269 82.4334 137.451 82.5324C137.833 82.7384 137.868 82.8844 137.868 84.2754C137.868 85.6654 137.833 85.8124 137.451 86.0174C137.263 86.1174 136.929 86.1234 130.476 86.1234C124.022 86.1234 123.688 86.1294 123.5 86.2284C123.119 86.4344 123.084 86.5804 123.084 87.9714C123.084 89.3614 123.119 89.5084 123.5 89.7134C123.682 89.8134 123.905 89.8194 126.78 89.8194C129.655 89.8194 129.877 89.8254 130.059 89.9244C130.171 89.9834 130.311 90.1244 130.37 90.2354C130.47 90.4174 130.476 90.6404 130.476 93.5154C130.476 96.3904 130.47 96.6124 130.37 96.7954C130.165 97.1754 130.018 97.2114 128.628 97.2114C126.762 97.2114 126.78 97.1934 126.78 99.0594C126.78 100.924 126.797 100.907 124.932 100.907C123.066 100.907 123.084 100.889 123.084 102.755C123.084 104.145 123.119 104.292 123.5 104.497C123.682 104.597 123.905 104.603 126.78 104.603C129.655 104.603 129.877 104.609 130.059 104.708C130.441 104.914 130.476 105.06 130.476 106.451C130.476 108.316 130.493 108.299 128.628 108.299C127.237 108.299 127.091 108.334 126.885 108.715C126.786 108.897 126.78 109.12 126.78 111.995C126.78 114.87 126.786 115.092 126.885 115.274C127.091 115.656 127.237 115.691 128.628 115.691C130.493 115.691 130.476 115.708 130.476 113.843C130.476 112.452 130.511 112.306 130.892 112.1C131.074 112.001 131.297 111.995 134.172 111.995C137.047 111.995 137.269 112.001 137.451 112.1C137.833 112.306 137.868 112.452 137.868 113.843C137.868 115.233 137.903 115.38 138.284 115.585C138.472 115.685 138.806 115.691 145.26 115.691C151.714 115.691 152.047 115.697 152.235 115.796C152.617 116.002 152.652 116.148 152.652 117.539C152.652 119.404 152.634 119.387 154.5 119.387C156.365 119.387 156.348 119.404 156.348 117.539C156.348 115.673 156.33 115.691 158.196 115.691C160.061 115.691 160.044 115.708 160.044 113.843C160.044 112.452 160.009 112.306 159.627 112.1C159.439 112.001 159.046 111.995 150.804 111.995C142.562 111.995 142.168 111.989 141.98 111.889C141.599 111.684 141.564 111.537 141.564 110.147C141.564 108.757 141.529 108.61 141.147 108.404C140.965 108.305 140.742 108.299 137.868 108.299C134.993 108.299 134.77 108.293 134.588 108.193C134.46 108.117 134.353 108.01 134.277 107.882C134.178 107.7 134.172 107.477 134.172 104.603C134.172 101.728 134.178 101.505 134.277 101.323C134.483 100.942 134.629 100.907 136.02 100.907C137.885 100.907 137.868 100.924 137.868 99.0594C137.868 97.1934 137.885 97.2114 136.02 97.2114C134.629 97.2114 134.483 97.1764 134.277 96.7944C134.178 96.6124 134.172 96.3894 134.172 93.5144C134.172 90.6394 134.178 90.4174 134.277 90.2354C134.483 89.8544 134.629 89.8194 136.02 89.8194C137.885 89.8194 137.868 89.8014 137.868 91.6674C137.868 93.5324 137.85 93.5154 139.716 93.5154C141.581 93.5154 141.564 93.4974 141.564 95.3634C141.564 97.2284 141.546 97.2114 143.412 97.2114C145.277 97.2114 145.26 97.2284 145.26 95.3634C145.26 93.4974 145.242 93.5154 147.108 93.5154C148.973 93.5154 148.956 93.4974 148.956 95.3634C148.956 97.2284 148.938 97.2114 150.804 97.2114C152.669 97.2114 152.652 97.2284 152.652 95.3634C152.652 93.4974 152.634 93.5154 154.5 93.5154C156.365 93.5154 156.348 93.5324 156.348 91.6674C156.348 90.2774 156.313 90.1304 155.931 89.9244C155.749 89.8244 155.526 89.8194 152.652 89.8194C149.777 89.8194 149.554 89.8134 149.372 89.7134C148.991 89.5084 148.956 89.3614 148.956 87.9714C148.956 86.5814 148.991 86.4344 149.372 86.2284C149.554 86.1284 149.777 86.1234 152.652 86.1234C155.527 86.1234 155.749 86.1174 155.931 86.0174C156.313 85.8124 156.348 85.6654 156.348 84.2754C156.348 82.4094 156.365 82.4274 154.5 82.4274C153.109 82.4274 152.963 82.3914 152.757 82.0104C152.658 81.8284 152.652 81.6054 152.652 78.7304C152.652 75.8554 152.646 75.6334 152.546 75.4514C152.341 75.0704 152.194 75.0354 150.804 75.0354C149.414 75.0354 149.267 75.0004 149.061 74.6184C148.962 74.4364 148.956 74.2134 148.956 71.3384C148.956 68.4634 148.95 68.2414 148.85 68.0594C148.645 67.6784 148.498 67.6434 147.108 67.6434C145.242 67.6434 145.26 67.6604 145.26 65.7954C145.26 63.9294 145.242 63.9474 147.108 63.9474C148.973 63.9474 148.956 63.9644 148.956 62.0994C148.956 60.2334 148.938 60.2514 150.804 60.2514C152.669 60.2514 152.652 60.2334 152.652 62.0994C152.652 63.9644 152.669 63.9474 150.804 63.9474C148.938 63.9474 148.956 63.9294 148.956 65.7954C148.956 67.6604 148.938 67.6434 150.804 67.6434C152.669 67.6434 152.652 67.6254 152.652 69.4914C152.652 70.8814 152.687 71.0284 153.068 71.2334C153.25 71.3334 153.473 71.3394 156.348 71.3394C159.223 71.3394 159.445 71.3334 159.627 71.2334C160.009 71.0284 160.044 70.8814 160.044 69.4914C160.044 67.6254 160.061 67.6434 158.196 67.6434C156.33 67.6434 156.348 67.6604 156.348 65.7954C156.348 63.9294 156.33 63.9474 158.196 63.9474C160.061 63.9474 160.044 63.9294 160.044 65.7954C160.044 67.6604 160.026 67.6434 161.892 67.6434C163.282 67.6434 163.429 67.6084 163.634 67.2264C163.734 67.0384 163.74 66.7634 163.74 62.0994C163.74 57.4354 163.734 57.1594 163.634 56.9714C163.429 56.5904 163.282 56.5554 161.892 56.5554C160.026 56.5554 160.044 56.5374 160.044 58.4034C160.044 60.2684 160.061 60.2514 158.196 60.2514C156.33 60.2514 156.348 60.2684 156.348 58.4034C156.348 57.0134 156.313 56.8664 155.931 56.6604C155.749 56.5604 155.526 56.5554 152.652 56.5554C149.777 56.5554 149.554 56.5494 149.372 56.4494C148.991 56.2444 148.956 56.0974 148.956 54.7074C148.956 52.8414 148.973 52.8594 147.108 52.8594C145.242 52.8594 145.26 52.8414 145.26 54.7074C145.26 56.0974 145.225 56.2444 144.843 56.4494C144.655 56.5494 144.38 56.5554 139.716 56.5554C135.052 56.5554 134.776 56.5604 134.588 56.6604C134.207 56.8664 134.172 57.0124 134.172 58.4034C134.172 60.2684 134.189 60.2514 132.324 60.2514C130.933 60.2514 130.787 60.2164 130.581 59.8344C130.482 59.6524 130.476 59.4294 130.476 56.5544C130.476 53.6794 130.47 53.4574 130.37 53.2754C130.293 53.148 130.186 53.0415 130.059 52.9654C129.871 52.8654 129.596 52.8594 124.932 52.8594C120.268 52.8594 119.992 52.8644 119.804 52.9644ZM144.843 86.2284C145.225 86.4344 145.26 86.5804 145.26 87.9714C145.26 89.8364 145.277 89.8194 143.412 89.8194C142.021 89.8194 141.875 89.7844 141.669 89.4024C141.575 89.2264 141.564 89.0564 141.564 87.9714C141.564 86.8854 141.575 86.7154 141.669 86.5394C141.875 86.1584 142.021 86.1234 143.412 86.1234C144.497 86.1234 144.667 86.1344 144.843 86.2284ZM20.0117 56.6604C19.6307 56.8664 19.5957 57.0124 19.5957 58.4034C19.5957 60.2684 19.5777 60.2514 21.4437 60.2514C23.3087 60.2514 23.2917 60.2684 23.2917 58.4034C23.2917 56.5374 23.3087 56.5554 21.4437 56.5554C20.3577 56.5554 20.1877 56.5664 20.0117 56.6604ZM34.7957 56.6604C34.4147 56.8664 34.3797 57.0124 34.3797 58.4034C34.3797 60.2684 34.3617 60.2514 36.2277 60.2514C38.0927 60.2514 38.0757 60.2684 38.0757 58.4034C38.0757 57.3174 38.0637 57.1474 37.9697 56.9714C37.7647 56.5904 37.6177 56.5554 36.2277 56.5554C35.1417 56.5554 34.9717 56.5664 34.7957 56.6604Z" fill="black"/>
    <path d="M12.6201 60.357C12.492 60.4332 12.3848 60.54 12.3081 60.668C12.2081 60.85 12.2031 61.073 12.2031 63.948C12.2031 66.823 12.2091 67.045 12.3081 67.228C12.3671 67.338 12.5081 67.479 12.6191 67.538C12.8011 67.638 13.0241 67.644 15.8991 67.644C18.7741 67.644 18.9961 67.65 19.1791 67.749C19.2891 67.808 19.4301 67.949 19.4891 68.06C19.5891 68.242 19.5951 68.465 19.5951 71.34C19.5951 74.215 19.5891 74.437 19.4891 74.62C19.2841 75 19.1371 75.036 17.7471 75.036C15.8811 75.036 15.8991 75.053 15.8991 73.188C15.8991 71.322 15.9161 71.34 14.0511 71.34C12.6611 71.34 12.5141 71.375 12.3081 71.756C12.2081 71.938 12.2031 72.161 12.2031 75.036C12.2031 77.911 12.2091 78.133 12.3081 78.316C12.5141 78.696 12.6601 78.732 14.0511 78.732C15.9161 78.732 15.8991 78.714 15.8991 80.58C15.8991 82.445 15.8811 82.428 17.7471 82.428C19.6121 82.428 19.5951 82.445 19.5951 80.58C19.5951 79.19 19.6301 79.043 20.0111 78.837C20.1991 78.737 20.5331 78.732 26.9871 78.732C33.4411 78.732 33.7741 78.726 33.9621 78.626C34.3431 78.421 34.3791 78.274 34.3791 76.884C34.3791 75.494 34.3441 75.347 33.9621 75.141C33.7741 75.041 33.4991 75.036 28.8351 75.036C24.1711 75.036 23.8951 75.03 23.7071 74.93C23.3261 74.725 23.2911 74.578 23.2911 73.188C23.2911 71.798 23.3261 71.651 23.7071 71.445C23.8951 71.345 24.1711 71.34 28.8351 71.34C33.4991 71.34 33.7751 71.334 33.9621 71.234C34.3431 71.029 34.3791 70.882 34.3791 69.492C34.3791 68.102 34.3441 67.955 33.9621 67.749C33.7801 67.649 33.5571 67.644 30.6821 67.644C27.8071 67.644 27.5851 67.638 27.4031 67.538C27.2758 67.4618 27.1693 67.3553 27.0931 67.228C26.9931 67.045 26.9871 66.822 26.9871 63.948C26.9871 61.073 26.9811 60.85 26.8811 60.668C26.6761 60.287 26.5291 60.252 25.1391 60.252C23.2731 60.252 23.2911 60.234 23.2911 62.1C23.2911 63.49 23.2561 63.637 22.8741 63.842C22.6921 63.942 22.4691 63.948 19.5941 63.948C16.7191 63.948 16.4971 63.942 16.3151 63.842C15.9341 63.637 15.8991 63.49 15.8991 62.1C15.8991 60.234 15.9161 60.252 14.0511 60.252C12.9651 60.252 12.7961 60.264 12.6201 60.357ZM31.1001 60.357C30.7181 60.563 30.6831 60.709 30.6831 62.1C30.6831 63.965 30.6651 63.948 32.5311 63.948C34.3961 63.948 34.3791 63.965 34.3791 62.1C34.3791 61.014 34.3671 60.844 34.2731 60.668C34.0681 60.287 33.9211 60.252 32.5311 60.252C31.4451 60.252 31.2761 60.264 31.1001 60.357ZM38.4911 60.357C38.1101 60.563 38.0751 60.709 38.0751 62.1C38.0751 63.965 38.0571 63.948 39.9231 63.948C41.7881 63.948 41.7711 63.93 41.7711 65.796C41.7711 66.881 41.7821 67.051 41.8761 67.227C42.0821 67.609 42.2281 67.644 43.6191 67.644C45.0091 67.644 45.1561 67.609 45.3611 67.227C45.4611 67.045 45.4671 66.823 45.4671 63.947C45.4671 61.073 45.4611 60.85 45.3611 60.668C45.2849 60.5407 45.1784 60.4342 45.0511 60.358C44.8681 60.258 44.6451 60.252 41.7711 60.252C38.8961 60.252 38.6731 60.258 38.4911 60.357ZM34.7951 64.053C34.4141 64.259 34.3791 64.405 34.3791 65.796C34.3791 67.661 34.3611 67.644 36.2271 67.644C38.0921 67.644 38.0751 67.661 38.0751 65.796C38.0751 64.406 38.0391 64.259 37.6581 64.053C37.4821 63.959 37.3121 63.948 36.2271 63.948C35.1411 63.948 34.9711 63.959 34.7951 64.053Z" fill="black"/>
    <path d="M34.7951 71.4448C34.4141 71.6508 34.3791 71.7968 34.3791 73.1878C34.3791 75.0528 34.3611 75.0359 36.2271 75.0359C38.0921 75.0359 38.0751 75.0528 38.0751 73.1878C38.0751 71.7978 38.0391 71.6508 37.6581 71.4448C37.4821 71.3508 37.3121 71.3398 36.2271 71.3398C35.1411 71.3398 34.9711 71.3508 34.7951 71.4448ZM42.1871 71.4448C42.0597 71.5213 41.9532 71.6282 41.8771 71.7558C41.7771 71.9438 41.7711 72.2199 41.7711 76.8839C41.7711 81.5479 41.7771 81.8238 41.8761 82.0108C42.0821 82.3928 42.2281 82.4278 43.6191 82.4278C45.0091 82.4278 45.1561 82.3928 45.3611 82.0108C45.4611 81.8228 45.4671 81.5479 45.4671 76.8839C45.4671 72.2199 45.4611 71.9438 45.3611 71.7558C45.1561 71.3748 45.0091 71.3398 43.6191 71.3398C42.5331 71.3398 42.3631 71.3508 42.1871 71.4448ZM53.2751 71.4448C52.8941 71.6508 52.8591 71.7968 52.8591 73.1878C52.8591 75.0528 52.8761 75.0359 51.0111 75.0359C49.6211 75.0359 49.4741 75.0708 49.2681 75.4518C49.1681 75.6338 49.1631 75.8568 49.1631 78.7318C49.1631 81.6068 49.1691 81.8288 49.2681 82.0118C49.4741 82.3918 49.6201 82.4278 51.0111 82.4278C52.8761 82.4278 52.8591 82.4448 52.8591 80.5798C52.8591 78.7138 52.8411 78.7318 54.7071 78.7318C56.0971 78.7318 56.2441 78.6968 56.4491 78.3148C56.5491 78.1328 56.5551 77.9098 56.5551 75.0348C56.5551 72.1598 56.5491 71.9378 56.4491 71.7558C56.2441 71.3748 56.0971 71.3398 54.7071 71.3398C53.6211 71.3398 53.4511 71.3508 53.2751 71.4448ZM160.459 75.1408C160.078 75.3468 160.043 75.4929 160.043 76.8839C160.043 78.7489 160.06 78.7318 158.195 78.7318C156.329 78.7318 156.347 78.7138 156.347 80.5798C156.347 82.4448 156.329 82.4278 158.195 82.4278C160.06 82.4278 160.043 82.4098 160.043 84.2758C160.043 86.1408 160.06 86.1238 158.195 86.1238C156.329 86.1238 156.347 86.1058 156.347 87.9718C156.347 89.8368 156.329 89.8198 158.195 89.8198C160.06 89.8198 160.043 89.8018 160.043 91.6678C160.043 93.5328 160.025 93.5158 161.891 93.5158C163.281 93.5158 163.428 93.4798 163.633 93.0988C163.733 92.9108 163.739 92.5188 163.739 84.2758C163.739 76.0328 163.733 75.6398 163.633 75.4518C163.428 75.0708 163.281 75.0359 161.891 75.0359C160.805 75.0359 160.635 75.0468 160.459 75.1408ZM34.7951 78.8368C34.4141 79.0428 34.3791 79.1888 34.3791 80.5798C34.3791 82.4448 34.3611 82.4278 36.2271 82.4278C38.0921 82.4278 38.0751 82.4448 38.0751 80.5798C38.0751 79.1898 38.0391 79.0428 37.6581 78.8368C37.4821 78.7438 37.3121 78.7318 36.2271 78.7318C35.1411 78.7318 34.9711 78.7438 34.7951 78.8368ZM12.6201 82.5328C12.2381 82.7388 12.2031 82.8848 12.2031 84.2758C12.2031 86.1408 12.1851 86.1238 14.0511 86.1238C15.9161 86.1238 15.8991 86.1408 15.8991 84.2758C15.8991 82.4098 15.9161 82.4278 14.0511 82.4278C12.9651 82.4278 12.7961 82.4388 12.6201 82.5328ZM27.4031 82.5328C27.0221 82.7388 26.9871 82.8848 26.9871 84.2758C26.9871 86.1408 26.9691 86.1238 28.8351 86.1238C30.2251 86.1238 30.3721 86.1588 30.5771 86.5398C30.6771 86.7218 30.6831 86.9448 30.6831 89.8198C30.6831 92.6948 30.6771 92.9168 30.5771 93.0998C30.5009 93.2272 30.3944 93.3336 30.2671 93.4098C30.0841 93.5098 29.8611 93.5158 26.9871 93.5158C24.1121 93.5158 23.8891 93.5218 23.7071 93.6208C23.3261 93.8268 23.2911 93.9728 23.2911 95.3638C23.2911 96.7538 23.3261 96.9009 23.7071 97.1059C23.8951 97.2059 24.2881 97.2118 32.5311 97.2118C40.7741 97.2118 41.1661 97.2059 41.3541 97.1059C41.4818 97.0298 41.5887 96.9233 41.6651 96.7958C41.7651 96.6128 41.7711 96.3898 41.7711 93.5158C41.7711 90.6408 41.7651 90.4178 41.6651 90.2358C41.4601 89.8548 41.3131 89.8198 39.9231 89.8198C38.0571 89.8198 38.0751 89.8018 38.0751 91.6678C38.0751 93.5328 38.0921 93.5158 36.2271 93.5158C34.3611 93.5158 34.3791 93.5328 34.3791 91.6678C34.3791 89.8018 34.3611 89.8198 36.2271 89.8198C38.0921 89.8198 38.0751 89.8368 38.0751 87.9718C38.0751 86.1058 38.0921 86.1238 36.2271 86.1238C34.3611 86.1238 34.3791 86.1408 34.3791 84.2758C34.3791 82.8858 34.3441 82.7388 33.9621 82.5328C33.7801 82.4328 33.5571 82.4278 30.6821 82.4278C27.8071 82.4278 27.5851 82.4338 27.4031 82.5328Z" fill="black"/>
    <path d="M38.4911 82.5327C38.1101 82.7387 38.0751 82.8847 38.0751 84.2757C38.0751 86.1407 38.0571 86.1237 39.9231 86.1237C41.7881 86.1237 41.7711 86.1407 41.7711 84.2757C41.7711 82.8857 41.7361 82.7387 41.3541 82.5327C41.1781 82.4397 41.0081 82.4277 39.9231 82.4277C38.8371 82.4277 38.6671 82.4387 38.4911 82.5327ZM45.8831 82.5327C45.5021 82.7387 45.4671 82.8847 45.4671 84.2757C45.4671 86.1407 45.4491 86.1237 47.3151 86.1237C49.1801 86.1237 49.1631 86.1407 49.1631 84.2757C49.1631 82.8857 49.1281 82.7387 48.7461 82.5327C48.5701 82.4397 48.4001 82.4277 47.3151 82.4277C46.2291 82.4277 46.0591 82.4387 45.8831 82.5327ZM20.0111 86.2287C19.6301 86.4347 19.5951 86.5807 19.5951 87.9717C19.5951 89.8367 19.5771 89.8197 21.4431 89.8197C23.3081 89.8197 23.2911 89.8367 23.2911 87.9717C23.2911 86.1057 23.3081 86.1237 21.4431 86.1237C20.3571 86.1237 20.1871 86.1357 20.0111 86.2287ZM53.2751 86.2287C52.8941 86.4347 52.8591 86.5807 52.8591 87.9717C52.8591 89.8367 52.8411 89.8197 54.7071 89.8197C56.5721 89.8197 56.5551 89.8367 56.5551 87.9717C56.5551 86.8857 56.5431 86.7157 56.4491 86.5397C56.2441 86.1587 56.0971 86.1237 54.7071 86.1237C53.6211 86.1237 53.4511 86.1357 53.2751 86.2287ZM12.6201 89.9247C12.492 90.001 12.3848 90.1078 12.3081 90.2357C12.2081 90.4177 12.2031 90.6407 12.2031 93.5157C12.2031 96.3907 12.2091 96.6127 12.3081 96.7957C12.3671 96.9057 12.5081 97.0467 12.6191 97.1057C12.8011 97.2057 13.0241 97.2117 15.8991 97.2117C18.7741 97.2117 18.9961 97.2057 19.1791 97.1057C19.5591 96.9007 19.5951 96.7537 19.5951 95.3637C19.5951 93.4977 19.6121 93.5157 17.7471 93.5157C15.8811 93.5157 15.8991 93.5327 15.8991 91.6677C15.8991 89.8017 15.9161 89.8197 14.0511 89.8197C12.9651 89.8197 12.7961 89.8307 12.6201 89.9247ZM45.8831 89.9247C45.7557 90.0012 45.6492 90.1081 45.5731 90.2357C45.4731 90.4177 45.4671 90.6407 45.4671 93.5157C45.4671 96.3907 45.4731 96.6127 45.5721 96.7957C45.7781 97.1757 45.9241 97.2117 47.3151 97.2117C48.7051 97.2117 48.8521 97.2467 49.0571 97.6277C49.1571 97.8097 49.1631 98.0327 49.1631 100.908C49.1631 103.783 49.1691 104.005 49.2681 104.187C49.4741 104.569 49.6201 104.604 51.0111 104.604C52.8761 104.604 52.8591 104.586 52.8591 106.452C52.8591 108.317 52.8411 108.3 54.7071 108.3C56.0971 108.3 56.2441 108.265 56.4491 107.883C56.5491 107.701 56.5551 107.478 56.5551 104.604C56.5551 101.729 56.5491 101.506 56.4491 101.324C56.2441 100.943 56.0971 100.908 54.7071 100.908C52.8411 100.908 52.8591 100.925 52.8591 99.0597C52.8591 97.1937 52.8411 97.2117 54.7071 97.2117C56.5721 97.2117 56.5551 97.2287 56.5551 95.3637C56.5551 93.9737 56.5201 93.8267 56.1381 93.6207C55.9561 93.5207 55.7331 93.5157 52.8581 93.5157C49.9831 93.5157 49.7611 93.5097 49.5791 93.4097C49.1981 93.2047 49.1631 93.0577 49.1631 91.6677C49.1631 90.5827 49.1511 90.4117 49.0571 90.2357C48.8521 89.8547 48.7051 89.8197 47.3151 89.8197C46.2291 89.8197 46.0591 89.8307 45.8831 89.9247ZM42.1871 97.3167C41.8061 97.5227 41.7711 97.6687 41.7711 99.0597C41.7711 100.925 41.7531 100.908 43.6191 100.908C45.4841 100.908 45.4671 100.925 45.4671 99.0597C45.4671 97.9737 45.4551 97.8037 45.3611 97.6277C45.1561 97.2467 45.0091 97.2117 43.6191 97.2117C42.5331 97.2117 42.3631 97.2227 42.1871 97.3167ZM119.803 97.3167C119.422 97.5227 119.387 97.6687 119.387 99.0597C119.387 100.145 119.398 100.315 119.492 100.491C119.698 100.873 119.844 100.908 121.235 100.908C123.1 100.908 123.083 100.925 123.083 99.0597C123.083 97.6697 123.048 97.5227 122.666 97.3167C122.49 97.2227 122.32 97.2117 121.235 97.2117C120.149 97.2117 119.979 97.2227 119.803 97.3167ZM145.675 97.3167C145.294 97.5227 145.259 97.6687 145.259 99.0597C145.259 100.45 145.224 100.597 144.842 100.802C144.66 100.902 144.437 100.908 141.563 100.908C138.688 100.908 138.465 100.914 138.283 101.013C137.902 101.219 137.867 101.365 137.867 102.756C137.867 104.621 137.849 104.604 139.715 104.604C141.58 104.604 141.563 104.586 141.563 106.452C141.563 108.317 141.545 108.3 143.411 108.3C145.276 108.3 145.259 108.317 145.259 106.452C145.259 105.061 145.294 104.915 145.675 104.709C145.857 104.61 146.08 104.604 148.955 104.604C151.83 104.604 152.052 104.598 152.234 104.498C152.616 104.293 152.651 104.146 152.651 102.756C152.651 100.89 152.668 100.908 150.803 100.908C148.937 100.908 148.955 100.925 148.955 99.0597C148.955 97.1937 148.972 97.2117 147.107 97.2117C146.021 97.2117 145.851 97.2227 145.675 97.3167ZM12.6201 101.013C12.492 101.089 12.3848 101.196 12.3081 101.324C12.2081 101.506 12.2031 101.729 12.2031 104.604C12.2031 107.479 12.2091 107.701 12.3081 107.883C12.5141 108.264 12.6601 108.3 14.0511 108.3C15.9161 108.3 15.8991 108.282 15.8991 110.148C15.8991 112.013 15.9161 111.996 14.0511 111.996C12.6611 111.996 12.5141 112.031 12.3081 112.412C12.2081 112.6 12.2031 113.052 12.2031 123.084C12.2031 133.116 12.2091 133.567 12.3081 133.755C12.3671 133.867 12.5081 134.007 12.6191 134.066C12.8011 134.166 13.0241 134.172 15.8991 134.172C18.7741 134.172 18.9961 134.166 19.1791 134.066C19.5591 133.861 19.5951 133.714 19.5951 132.324C19.5951 130.458 19.5771 130.476 21.4431 130.476C23.3081 130.476 23.2911 130.493 23.2911 128.628C23.2911 126.762 23.2731 126.78 25.1391 126.78C27.0041 126.78 26.9871 126.797 26.9871 124.932C26.9871 123.066 26.9691 123.084 28.8351 123.084C30.7001 123.084 30.6831 123.066 30.6831 124.932C30.6831 126.797 30.7001 126.78 28.8351 126.78C26.9691 126.78 26.9871 126.762 26.9871 128.628C26.9871 130.493 27.0041 130.476 25.1391 130.476C23.2731 130.476 23.2911 130.458 23.2911 132.324C23.2911 133.714 23.3261 133.861 23.7071 134.066C23.8891 134.166 24.1121 134.172 26.9871 134.172C29.8621 134.172 30.0841 134.166 30.2671 134.066C30.6471 133.861 30.6831 133.714 30.6831 132.324C30.6831 130.458 30.6651 130.476 32.5311 130.476C34.3961 130.476 34.3791 130.493 34.3791 128.628C34.3791 127.237 34.4141 127.091 34.7951 126.885C34.9771 126.786 35.2001 126.78 38.0751 126.78C40.9501 126.78 41.1721 126.774 41.3551 126.674C41.4826 126.597 41.5891 126.49 41.6651 126.363C41.7651 126.175 41.7711 125.9 41.7711 121.236C41.7711 116.572 41.7771 116.296 41.8761 116.108C42.0821 115.727 42.2281 115.692 43.6191 115.692C45.4841 115.692 45.4671 115.709 45.4671 113.844C45.4671 111.978 45.4841 111.996 43.6191 111.996C41.7531 111.996 41.7711 112.013 41.7711 110.148C41.7711 108.757 41.8061 108.611 42.1871 108.405C42.3691 108.306 42.5921 108.3 45.4671 108.3C48.3421 108.3 48.5641 108.294 48.7471 108.194C49.1271 107.989 49.1631 107.842 49.1631 106.452C49.1631 105.062 49.1281 104.915 48.7461 104.709C48.5581 104.61 48.2831 104.604 43.6191 104.604C38.9551 104.604 38.6791 104.61 38.4911 104.709C38.1101 104.915 38.0751 105.061 38.0751 106.452C38.0751 108.317 38.0921 108.3 36.2271 108.3C34.3611 108.3 34.3791 108.282 34.3791 110.148C34.3791 112.013 34.3611 111.996 36.2271 111.996C38.0921 111.996 38.0751 111.978 38.0751 113.844C38.0751 115.709 38.0921 115.692 36.2271 115.692C34.3611 115.692 34.3791 115.709 34.3791 113.844C34.3791 111.978 34.3961 111.996 32.5311 111.996C31.1411 111.996 30.9941 112.031 30.7881 112.412C30.6881 112.594 30.6831 112.817 30.6831 115.692C30.6831 118.567 30.6771 118.789 30.5771 118.971C30.3721 119.352 30.2251 119.388 28.8351 119.388C27.4451 119.388 27.2981 119.352 27.0921 118.971C26.9921 118.789 26.9871 118.566 26.9871 115.692C26.9871 112.817 26.9811 112.594 26.8811 112.412C26.6761 112.031 26.5291 111.996 25.1391 111.996C23.7491 111.996 23.6021 112.031 23.3961 112.412C23.2961 112.594 23.2911 112.817 23.2911 115.692C23.2911 118.567 23.2851 118.789 23.1851 118.971C23.1091 119.098 23.0026 119.205 22.8751 119.282C22.6921 119.382 22.4691 119.388 19.5951 119.388C16.7201 119.388 16.4971 119.382 16.3151 119.282C15.9341 119.077 15.8991 118.93 15.8991 117.54C15.8991 115.674 15.8811 115.692 17.7471 115.692C19.6121 115.692 19.5951 115.709 19.5951 113.844C19.5951 111.978 19.5771 111.996 21.4431 111.996C22.8331 111.996 22.9801 111.96 23.1851 111.579C23.2851 111.397 23.2911 111.174 23.2911 108.3C23.2911 105.425 23.2851 105.202 23.1851 105.02C23.1091 104.892 23.0026 104.785 22.8751 104.709C22.6921 104.61 22.4691 104.604 19.5951 104.604C16.7201 104.604 16.4971 104.598 16.3151 104.498C15.9341 104.293 15.8991 104.146 15.8991 102.756C15.8991 100.89 15.9161 100.908 14.0511 100.908C12.9651 100.908 12.7961 100.919 12.6201 101.013ZM37.6581 119.493C38.0391 119.699 38.0751 119.845 38.0751 121.236C38.0751 123.101 38.0921 123.084 36.2271 123.084C34.3611 123.084 34.3791 123.101 34.3791 121.236C34.3791 119.37 34.3611 119.388 36.2271 119.388C37.3121 119.388 37.4821 119.399 37.6581 119.493Z" fill="black"/>
    <path d="M31.0993 101.011C30.7173 101.217 30.6823 101.363 30.6823 102.754C30.6823 104.144 30.7173 104.291 31.0983 104.496C31.2803 104.596 31.5033 104.602 34.3783 104.602C37.2533 104.602 37.4753 104.596 37.6583 104.496C38.0383 104.291 38.0743 104.144 38.0743 102.754C38.0743 101.364 38.0383 101.217 37.6573 101.011C37.4753 100.912 37.2523 100.906 34.3773 100.906C31.5023 100.906 31.2813 100.912 31.0993 101.011ZM156.762 101.011C156.381 101.217 156.346 101.363 156.346 102.754C156.346 104.619 156.363 104.602 154.498 104.602C152.632 104.602 152.65 104.584 152.65 106.45C152.65 107.84 152.685 107.987 153.066 108.192C153.248 108.292 153.471 108.298 156.346 108.298C159.221 108.298 159.443 108.303 159.625 108.403C160.007 108.609 160.042 108.755 160.042 110.146C160.042 112.011 160.024 111.994 161.89 111.994C163.28 111.994 163.427 111.958 163.632 111.577C163.732 111.395 163.738 111.172 163.738 108.298C163.738 105.423 163.732 105.2 163.632 105.018C163.427 104.637 163.28 104.602 161.89 104.602C160.024 104.602 160.042 104.619 160.042 102.754C160.042 100.888 160.059 100.906 158.194 100.906C157.108 100.906 156.938 100.917 156.762 101.011ZM27.4023 104.707C27.0213 104.913 26.9863 105.059 26.9863 106.45C26.9863 108.315 26.9683 108.298 28.8343 108.298C30.6993 108.298 30.6823 108.315 30.6823 106.45C30.6823 105.059 30.6473 104.913 30.2653 104.707C30.0893 104.614 29.9193 104.602 28.8343 104.602C27.7483 104.602 27.5783 104.614 27.4023 104.707ZM119.802 108.403C119.421 108.609 119.386 108.755 119.386 110.146C119.386 111.231 119.397 111.401 119.491 111.577C119.697 111.958 119.843 111.994 121.234 111.994C123.099 111.994 123.082 112.011 123.082 110.146C123.082 108.755 123.047 108.609 122.665 108.403C122.489 108.309 122.319 108.298 121.234 108.298C120.148 108.298 119.978 108.309 119.802 108.403ZM53.2743 112.099C52.8933 112.305 52.8583 112.451 52.8583 113.842C52.8583 115.707 52.8403 115.69 54.7063 115.69C56.5713 115.69 56.5543 115.707 56.5543 113.842C56.5543 112.451 56.5193 112.305 56.1373 112.099C55.9613 112.005 55.7913 111.994 54.7063 111.994C53.6203 111.994 53.4503 112.005 53.2743 112.099ZM130.89 115.795C130.763 115.872 130.656 115.978 130.579 116.106C130.48 116.294 130.474 116.57 130.474 121.234C130.474 125.898 130.48 126.174 130.579 126.361C130.785 126.743 130.931 126.778 132.322 126.778C133.712 126.778 133.859 126.743 134.064 126.361C134.164 126.179 134.17 125.956 134.17 123.082C134.17 120.207 134.176 119.984 134.275 119.802C134.481 119.421 134.627 119.386 136.018 119.386C137.883 119.386 137.866 119.403 137.866 117.538C137.866 116.147 137.831 116.001 137.449 115.795C137.267 115.696 137.044 115.69 134.17 115.69C131.295 115.69 131.072 115.696 130.89 115.795ZM119.802 119.491C119.421 119.697 119.386 119.843 119.386 121.234C119.386 122.624 119.421 122.771 119.802 122.976C119.978 123.07 120.148 123.082 121.234 123.082C123.099 123.082 123.082 123.099 123.082 121.234C123.082 119.368 123.099 119.386 121.234 119.386C120.148 119.386 119.978 119.397 119.802 119.491Z" fill="black"/>
    <path d="M138.284 119.492C138.156 119.568 138.049 119.675 137.973 119.803C137.874 119.991 137.868 120.267 137.868 124.931C137.868 129.595 137.862 129.87 137.762 130.058C137.686 130.186 137.579 130.292 137.451 130.369C137.269 130.469 137.046 130.475 134.172 130.475C131.297 130.475 131.074 130.481 130.892 130.58C130.764 130.656 130.657 130.763 130.581 130.891C130.482 131.079 130.476 131.413 130.476 137.867C130.476 144.321 130.47 144.654 130.37 144.842C130.165 145.224 130.018 145.259 128.628 145.259C126.762 145.259 126.78 145.241 126.78 147.107C126.78 148.972 126.797 148.955 124.932 148.955C123.066 148.955 123.084 148.937 123.084 150.803C123.084 152.193 123.049 152.34 122.667 152.545C122.479 152.645 122.204 152.651 117.54 152.651C112.876 152.651 112.6 152.657 112.412 152.756C112.284 152.832 112.177 152.939 112.101 153.067C112.002 153.255 111.996 153.531 111.996 158.195C111.996 162.859 112.002 163.135 112.101 163.322C112.307 163.704 112.453 163.739 113.844 163.739C115.234 163.739 115.381 163.704 115.586 163.322C115.686 163.14 115.692 162.917 115.692 160.043C115.692 157.168 115.698 156.945 115.797 156.763C115.873 156.635 115.98 156.528 116.108 156.452C116.29 156.353 116.513 156.347 119.388 156.347C122.263 156.347 122.485 156.353 122.667 156.452C123.049 156.658 123.084 156.804 123.084 158.195C123.084 160.06 123.101 160.043 121.236 160.043C119.37 160.043 119.388 160.025 119.388 161.891C119.388 163.281 119.423 163.428 119.804 163.633C119.986 163.733 120.209 163.739 123.084 163.739C125.959 163.739 126.181 163.733 126.363 163.633C126.491 163.556 126.598 163.45 126.674 163.322C126.774 163.14 126.78 162.917 126.78 160.043C126.78 157.168 126.786 156.945 126.885 156.763C127.091 156.382 127.237 156.347 128.628 156.347C130.018 156.347 130.165 156.312 130.37 155.93C130.47 155.748 130.476 155.525 130.476 152.651C130.476 149.776 130.482 149.553 130.581 149.371C130.787 148.99 130.933 148.955 132.324 148.955C134.189 148.955 134.172 148.937 134.172 150.803C134.172 152.193 134.207 152.34 134.588 152.545C134.77 152.645 134.993 152.651 137.868 152.651C140.743 152.651 140.965 152.645 141.147 152.545C141.529 152.34 141.564 152.193 141.564 150.803C141.564 149.413 141.599 149.266 141.98 149.06C142.168 148.961 142.444 148.955 147.108 148.955C151.772 148.955 152.047 148.961 152.235 149.06C152.617 149.266 152.652 149.412 152.652 150.803C152.652 152.193 152.617 152.34 152.235 152.545C152.053 152.645 151.83 152.651 148.956 152.651C146.081 152.651 145.858 152.657 145.676 152.756C145.295 152.962 145.26 153.108 145.26 154.499C145.26 156.364 145.242 156.347 147.108 156.347C148.973 156.347 148.956 156.329 148.956 158.195C148.956 160.06 148.938 160.043 150.804 160.043C152.669 160.043 152.652 160.06 152.652 158.195C152.652 156.329 152.634 156.347 154.5 156.347C156.365 156.347 156.348 156.329 156.348 158.195C156.348 160.06 156.33 160.043 158.196 160.043C160.061 160.043 160.044 160.06 160.044 158.195C160.044 156.329 160.026 156.347 161.892 156.347C163.757 156.347 163.74 156.364 163.74 154.499C163.74 152.633 163.757 152.651 161.892 152.651C160.026 152.651 160.044 152.668 160.044 150.803C160.044 148.937 160.061 148.955 158.196 148.955C156.805 148.955 156.659 148.92 156.453 148.538C156.354 148.356 156.348 148.133 156.348 145.259C156.348 142.384 156.342 142.161 156.242 141.979C156.166 141.851 156.059 141.744 155.931 141.668C155.749 141.569 155.526 141.563 152.652 141.563C149.777 141.563 149.554 141.557 149.372 141.457C148.991 141.252 148.956 141.105 148.956 139.715C148.956 138.325 148.991 138.178 149.372 137.972C149.56 137.873 149.894 137.867 156.348 137.867C162.802 137.867 163.136 137.861 163.323 137.761C163.451 137.684 163.558 137.578 163.634 137.45C163.734 137.262 163.74 136.869 163.74 128.627C163.74 120.385 163.734 119.991 163.634 119.803C163.429 119.422 163.282 119.387 161.892 119.387C160.026 119.387 160.044 119.369 160.044 121.235C160.044 123.1 160.061 123.083 158.196 123.083C156.33 123.083 156.348 123.065 156.348 124.931C156.348 126.796 156.33 126.779 158.196 126.779C160.061 126.779 160.044 126.761 160.044 128.627C160.044 130.492 160.061 130.475 158.196 130.475C156.33 130.475 156.348 130.457 156.348 132.323C156.348 133.713 156.313 133.86 155.931 134.065C155.749 134.165 155.526 134.171 152.652 134.171C149.777 134.171 149.554 134.165 149.372 134.065C149.244 133.988 149.137 133.882 149.061 133.754C148.962 133.572 148.956 133.349 148.956 130.475C148.956 127.6 148.95 127.377 148.85 127.195C148.774 127.067 148.667 126.96 148.539 126.884C148.357 126.785 148.134 126.779 145.26 126.779C142.385 126.779 142.162 126.773 141.98 126.673C141.599 126.468 141.564 126.321 141.564 124.931C141.564 123.541 141.599 123.394 141.98 123.188C142.162 123.089 142.385 123.083 145.26 123.083C148.135 123.083 148.357 123.089 148.539 123.188C148.921 123.394 148.956 123.54 148.956 124.931C148.956 126.796 148.938 126.779 150.804 126.779C152.194 126.779 152.341 126.744 152.546 126.362C152.646 126.18 152.652 125.957 152.652 123.083C152.652 120.208 152.646 119.985 152.546 119.803C152.47 119.675 152.363 119.568 152.235 119.492C152.047 119.393 151.713 119.387 145.26 119.387C138.806 119.387 138.472 119.393 138.284 119.492ZM144.843 134.276C144.955 134.335 145.095 134.476 145.154 134.587C145.254 134.775 145.26 135.051 145.26 139.715C145.26 144.379 145.254 144.654 145.154 144.842C145.078 144.97 144.971 145.076 144.843 145.153C144.655 145.253 144.38 145.259 139.716 145.259C135.052 145.259 134.776 145.253 134.588 145.153C134.46 145.076 134.353 144.97 134.277 144.842C134.178 144.654 134.172 144.379 134.172 139.715C134.172 135.051 134.178 134.775 134.277 134.587C134.353 134.459 134.46 134.352 134.588 134.276C134.776 134.177 135.052 134.171 139.716 134.171C144.38 134.171 144.655 134.177 144.843 134.276Z" fill="black"/>
    <path d="M138.283 137.973C137.902 138.179 137.867 138.325 137.867 139.716C137.867 141.581 137.849 141.564 139.715 141.564C141.58 141.564 141.563 141.581 141.563 139.716C141.563 137.85 141.58 137.868 139.715 137.868C138.629 137.868 138.459 137.879 138.283 137.973ZM45.8828 123.189C45.5018 123.395 45.4668 123.541 45.4668 124.932C45.4668 126.797 45.4488 126.78 47.3148 126.78C49.1798 126.78 49.1628 126.797 49.1628 124.932C49.1628 123.846 49.1508 123.676 49.0568 123.5C48.8518 123.119 48.7048 123.084 47.3148 123.084C46.2288 123.084 46.0588 123.096 45.8828 123.189Z" fill="black"/>
    <path d="M53.2755 123.189C52.8945 123.395 52.8595 123.541 52.8595 124.932C52.8595 126.797 52.8765 126.78 51.0115 126.78C49.1455 126.78 49.1635 126.762 49.1635 128.628C49.1635 130.018 49.1285 130.165 48.7465 130.37C48.5645 130.47 48.3415 130.476 45.4665 130.476C42.5915 130.476 42.3695 130.482 42.1875 130.581C42.0601 130.657 41.9536 130.764 41.8775 130.892C41.7775 131.08 41.7715 131.356 41.7715 136.02C41.7715 140.684 41.7775 140.96 41.8765 141.147C42.0825 141.529 42.2285 141.564 43.6195 141.564C45.0095 141.564 45.1565 141.529 45.3615 141.147C45.4615 140.965 45.4675 140.742 45.4675 137.868C45.4675 134.993 45.4735 134.77 45.5725 134.588C45.7785 134.207 45.9245 134.172 47.3155 134.172C48.7055 134.172 48.8525 134.207 49.0575 134.588C49.1575 134.77 49.1635 134.993 49.1635 137.868C49.1635 140.743 49.1695 140.965 49.2685 141.147C49.4745 141.529 49.6205 141.564 51.0115 141.564C52.4015 141.564 52.5485 141.529 52.7535 141.147C52.8535 140.96 52.8595 140.684 52.8595 136.02C52.8595 131.356 52.8655 131.08 52.9645 130.892C53.1705 130.511 53.3165 130.476 54.7075 130.476C56.5725 130.476 56.5555 130.458 56.5555 132.324C56.5555 134.189 56.5375 134.172 58.4035 134.172C59.7935 134.172 59.9405 134.207 60.1455 134.588C60.2455 134.77 60.2515 134.993 60.2515 137.868C60.2515 140.743 60.2455 140.965 60.1455 141.147C59.9405 141.529 59.7935 141.564 58.4035 141.564C57.0135 141.564 56.8665 141.599 56.6605 141.98C56.5605 142.162 56.5555 142.385 56.5555 145.26C56.5555 148.135 56.5615 148.357 56.6605 148.539C56.8665 148.921 57.0125 148.956 58.4035 148.956C60.2685 148.956 60.2515 148.973 60.2515 147.108C60.2515 145.717 60.2865 145.571 60.6675 145.365C60.8555 145.266 61.1315 145.26 65.7955 145.26C70.4595 145.26 70.7355 145.266 70.9225 145.365C71.3045 145.571 71.3395 145.717 71.3395 147.108C71.3395 148.973 71.3215 148.956 73.1875 148.956C75.0525 148.956 75.0355 148.973 75.0355 147.108C75.0355 145.717 75.0705 145.571 75.4515 145.365C75.6395 145.266 75.9155 145.26 80.5795 145.26C85.2435 145.26 85.5195 145.254 85.7065 145.154C86.0885 144.949 86.1235 144.802 86.1235 143.412C86.1235 141.546 86.1405 141.564 84.2755 141.564C82.4095 141.564 82.4275 141.581 82.4275 139.716C82.4275 138.325 82.3915 138.179 82.0105 137.973C81.8285 137.874 81.6055 137.868 78.7305 137.868C75.8555 137.868 75.6335 137.874 75.4515 137.973C75.0705 138.179 75.0355 138.325 75.0355 139.716C75.0355 141.106 75.0005 141.253 74.6185 141.458C74.4305 141.558 74.1555 141.564 69.4915 141.564C64.8275 141.564 64.5515 141.558 64.3635 141.458C64.2361 141.382 64.1296 141.275 64.0535 141.147C63.9535 140.965 63.9475 140.742 63.9475 137.868C63.9475 134.993 63.9535 134.77 64.0525 134.588C64.2585 134.207 64.4045 134.172 65.7955 134.172C67.1855 134.172 67.3325 134.137 67.5375 133.755C67.6375 133.573 67.6435 133.35 67.6435 130.476C67.6435 127.601 67.6375 127.378 67.5375 127.196C67.3325 126.815 67.1855 126.78 65.7955 126.78C63.9295 126.78 63.9475 126.762 63.9475 128.628C63.9475 130.493 63.9645 130.476 62.0995 130.476C60.2335 130.476 60.2515 130.493 60.2515 128.628C60.2515 127.542 60.2395 127.372 60.1455 127.196C59.9405 126.815 59.7935 126.78 58.4035 126.78C56.5375 126.78 56.5555 126.797 56.5555 124.932C56.5555 123.541 56.5205 123.395 56.1385 123.189C55.9625 123.096 55.7925 123.084 54.7075 123.084C53.6215 123.084 53.4515 123.096 53.2755 123.189Z" fill="black"/>
    <path d="M71.7551 126.884C71.6277 126.961 71.5212 127.068 71.4451 127.195C71.3451 127.383 71.3391 127.659 71.3391 132.323C71.3391 136.987 71.3451 137.262 71.4441 137.45C71.6501 137.831 71.7961 137.867 73.1871 137.867C75.0521 137.867 75.0351 137.884 75.0351 136.019C75.0351 134.153 75.0171 134.171 76.8831 134.171C78.2731 134.171 78.4201 134.135 78.6251 133.754C78.7251 133.572 78.7311 133.349 78.7311 130.475C78.7311 127.6 78.7251 127.377 78.6251 127.195C78.5491 127.068 78.4426 126.961 78.3151 126.884C78.1321 126.785 77.9091 126.779 75.0351 126.779C72.1601 126.779 71.9371 126.785 71.7551 126.884ZM82.8431 126.884C82.7157 126.961 82.6092 127.068 82.5331 127.195C82.4331 127.377 82.4271 127.6 82.4271 130.475C82.4271 133.35 82.4331 133.572 82.5321 133.754C82.5911 133.866 82.7321 134.006 82.8431 134.065C83.0311 134.165 83.3071 134.171 87.9711 134.171C92.6351 134.171 92.9111 134.165 93.0981 134.065C93.4801 133.86 93.5151 133.713 93.5151 132.323C93.5151 130.457 93.4971 130.475 95.3631 130.475C97.2281 130.475 97.2111 130.492 97.2111 128.627C97.2111 127.236 97.1761 127.09 96.7941 126.884C96.6121 126.785 96.3891 126.779 93.5141 126.779C90.6391 126.779 90.4171 126.785 90.2351 126.884C89.8541 127.09 89.8191 127.236 89.8191 128.627C89.8191 130.492 89.8361 130.475 87.9711 130.475C86.1051 130.475 86.1231 130.492 86.1231 128.627C86.1231 127.541 86.1111 127.371 86.0171 127.195C85.8121 126.814 85.6651 126.779 84.2751 126.779C83.1891 126.779 83.0191 126.79 82.8431 126.884ZM108.715 126.884C108.334 127.09 108.299 127.236 108.299 128.627C108.299 130.492 108.316 130.475 106.451 130.475C105.06 130.475 104.914 130.51 104.708 130.891C104.609 131.079 104.603 131.355 104.603 136.019C104.603 140.683 104.609 140.958 104.708 141.146C104.767 141.258 104.908 141.398 105.019 141.457C105.201 141.557 105.424 141.563 108.299 141.563C111.174 141.563 111.396 141.557 111.578 141.457C111.706 141.381 111.813 141.274 111.889 141.146C111.989 140.964 111.995 140.741 111.995 137.867C111.995 134.992 112.001 134.769 112.1 134.587C112.306 134.206 112.452 134.171 113.843 134.171C115.708 134.171 115.691 134.153 115.691 136.019C115.691 137.409 115.726 137.556 116.107 137.761C116.295 137.861 116.571 137.867 121.235 137.867C125.899 137.867 126.174 137.861 126.362 137.761C126.744 137.556 126.779 137.409 126.779 136.019C126.779 134.629 126.744 134.482 126.362 134.276C126.18 134.177 125.957 134.171 123.083 134.171C120.208 134.171 119.985 134.165 119.803 134.065C119.422 133.86 119.387 133.713 119.387 132.323C119.387 130.933 119.352 130.786 118.97 130.58C118.788 130.481 118.565 130.475 115.691 130.475C112.816 130.475 112.593 130.469 112.411 130.369C112.03 130.164 111.995 130.017 111.995 128.627C111.995 126.761 112.012 126.779 110.147 126.779C109.061 126.779 108.891 126.79 108.715 126.884ZM153.067 126.884C152.686 127.09 152.651 127.236 152.651 128.627C152.651 130.492 152.633 130.475 154.499 130.475C156.364 130.475 156.347 130.492 156.347 128.627C156.347 126.761 156.364 126.779 154.499 126.779C153.413 126.779 153.243 126.791 153.067 126.884ZM34.7951 130.58C34.4141 130.786 34.3791 130.932 34.3791 132.323C34.3791 134.188 34.3611 134.171 36.2271 134.171C38.0921 134.171 38.0751 134.188 38.0751 132.323C38.0751 130.932 38.0391 130.786 37.6581 130.58C37.4821 130.486 37.3121 130.475 36.2271 130.475C35.1411 130.475 34.9711 130.486 34.7951 130.58ZM97.6271 130.58C97.4997 130.657 97.3932 130.764 97.3171 130.891C97.2171 131.073 97.2111 131.296 97.2111 134.171C97.2111 137.046 97.2171 137.268 97.3161 137.45C97.5221 137.831 97.6681 137.867 99.0591 137.867C100.449 137.867 100.596 137.831 100.801 137.45C100.901 137.268 100.907 137.045 100.907 134.171C100.907 131.296 100.901 131.073 100.801 130.891C100.596 130.51 100.449 130.475 99.0591 130.475C97.9731 130.475 97.8031 130.486 97.6271 130.58ZM12.6201 137.972C12.492 138.049 12.3848 138.155 12.3081 138.283C12.2081 138.471 12.2031 138.981 12.2031 150.803C12.2031 162.625 12.2091 163.135 12.3081 163.322C12.3671 163.434 12.5081 163.575 12.6191 163.633C12.8071 163.733 13.3171 163.739 25.1391 163.739C36.9611 163.739 37.4701 163.733 37.6591 163.633C37.7866 163.557 37.8931 163.45 37.9691 163.322C38.0691 163.135 38.0751 162.624 38.0751 150.803C38.0751 138.982 38.0691 138.471 37.9691 138.283C37.8931 138.156 37.7866 138.049 37.6591 137.972C37.4701 137.873 36.9601 137.867 25.1391 137.867C13.3181 137.867 12.8081 137.873 12.6201 137.972ZM34.2321 141.709L34.3791 141.85V159.755L34.2321 159.896L34.0921 160.043H16.1851L16.0451 159.896L15.8981 159.755V141.85L16.0441 141.709L16.1851 141.563H34.0901L34.2321 141.709Z" fill="black"/>
    <path d="M20.0117 145.364C19.8843 145.441 19.7778 145.548 19.7017 145.675C19.6017 145.863 19.5957 146.139 19.5957 150.803C19.5957 155.467 19.6017 155.742 19.7007 155.93C19.7597 156.042 19.9007 156.182 20.0117 156.241C20.1997 156.341 20.4757 156.347 25.1397 156.347C29.8037 156.347 30.0797 156.341 30.2667 156.241C30.3945 156.165 30.5014 156.058 30.5777 155.93C30.6777 155.742 30.6837 155.467 30.6837 150.803C30.6837 146.139 30.6777 145.863 30.5777 145.675C30.5016 145.548 30.3951 145.441 30.2677 145.364C30.0787 145.265 29.8037 145.259 25.1397 145.259C20.4757 145.259 20.1997 145.265 20.0117 145.364ZM86.5407 137.972C86.1587 138.178 86.1237 138.324 86.1237 139.715C86.1237 141.105 86.1587 141.252 86.5397 141.457C86.7217 141.557 86.9447 141.563 89.8197 141.563C92.6947 141.563 92.9167 141.557 93.0997 141.457C93.4797 141.252 93.5157 141.105 93.5157 139.715C93.5157 138.325 93.4807 138.178 93.0987 137.972C92.9167 137.873 92.6937 137.867 89.8187 137.867C86.9437 137.867 86.7227 137.873 86.5407 137.972ZM112.412 141.668C112.031 141.874 111.996 142.02 111.996 143.411C111.996 144.801 111.961 144.948 111.579 145.153C111.397 145.253 111.174 145.259 108.3 145.259C105.425 145.259 105.202 145.265 105.02 145.364C104.639 145.57 104.604 145.716 104.604 147.107C104.604 148.972 104.621 148.955 102.756 148.955C100.89 148.955 100.908 148.972 100.908 147.107C100.908 145.716 100.873 145.57 100.491 145.364C100.303 145.265 100.028 145.259 95.3637 145.259C90.6997 145.259 90.4237 145.265 90.2357 145.364C89.8547 145.57 89.8197 145.716 89.8197 147.107C89.8197 148.497 89.7847 148.644 89.4027 148.849C89.2207 148.949 88.9977 148.955 86.1227 148.955C83.2477 148.955 83.0257 148.961 82.8437 149.06C82.4627 149.266 82.4277 149.412 82.4277 150.803C82.4277 152.193 82.4627 152.34 82.8437 152.545C83.0257 152.645 83.2487 152.651 86.1237 152.651C88.9987 152.651 89.2207 152.657 89.4037 152.756C89.7837 152.962 89.8197 153.108 89.8197 154.499C89.8197 156.364 89.8017 156.347 91.6677 156.347C93.0577 156.347 93.2047 156.311 93.4097 155.93C93.5097 155.748 93.5157 155.525 93.5157 152.651C93.5157 149.776 93.5217 149.553 93.6207 149.371C93.8267 148.99 93.9727 148.955 95.3637 148.955C97.2287 148.955 97.2117 148.937 97.2117 150.803C97.2117 152.193 97.2467 152.34 97.6277 152.545C97.8157 152.645 98.1497 152.651 104.604 152.651C111.058 152.651 111.391 152.645 111.579 152.545C111.961 152.34 111.996 152.193 111.996 150.803C111.996 148.937 111.978 148.955 113.844 148.955C115.234 148.955 115.381 148.919 115.586 148.538C115.686 148.356 115.692 148.133 115.692 145.259C115.692 142.384 115.686 142.161 115.586 141.979C115.381 141.598 115.234 141.563 113.844 141.563C112.758 141.563 112.588 141.574 112.412 141.668ZM123.5 141.668C123.119 141.874 123.084 142.02 123.084 143.411C123.084 145.276 123.066 145.259 124.932 145.259C126.797 145.259 126.78 145.276 126.78 143.411C126.78 141.545 126.797 141.563 124.932 141.563C123.846 141.563 123.676 141.575 123.5 141.668ZM42.1877 145.364C42.0603 145.441 41.9538 145.548 41.8777 145.675C41.7777 145.857 41.7717 146.08 41.7717 148.955C41.7717 151.83 41.7777 152.052 41.8767 152.234C42.0827 152.616 42.2287 152.651 43.6197 152.651C45.4847 152.651 45.4677 152.668 45.4677 150.803C45.4677 148.937 45.4497 148.955 47.3157 148.955C49.1807 148.955 49.1637 148.937 49.1637 150.803C49.1637 152.668 49.1457 152.651 51.0117 152.651C52.4017 152.651 52.5487 152.616 52.7537 152.234C52.8537 152.052 52.8597 151.83 52.8597 148.955C52.8597 146.08 52.8537 145.857 52.7537 145.675C52.6776 145.548 52.5711 145.441 52.4437 145.364C52.2547 145.265 51.9797 145.259 47.3157 145.259C42.6517 145.259 42.3757 145.265 42.1877 145.364Z" fill="black"/>
    <path d="M119.803 145.365C119.422 145.571 119.387 145.717 119.387 147.108C119.387 148.973 119.369 148.956 121.235 148.956C123.1 148.956 123.083 148.973 123.083 147.108C123.083 145.242 123.1 145.26 121.235 145.26C120.149 145.26 119.979 145.272 119.803 145.365ZM160.459 145.365C160.078 145.571 160.043 145.717 160.043 147.108C160.043 148.973 160.025 148.956 161.891 148.956C163.756 148.956 163.739 148.973 163.739 147.108C163.739 145.242 163.756 145.26 161.891 145.26C160.805 145.26 160.635 145.272 160.459 145.365ZM64.3628 149.061C63.9818 149.267 63.9468 149.413 63.9468 150.804C63.9468 152.194 63.9108 152.341 63.5298 152.546C63.3418 152.646 63.0668 152.652 58.4028 152.652C53.7388 152.652 53.4628 152.658 53.2748 152.757C52.8938 152.963 52.8588 153.109 52.8588 154.5C52.8588 156.365 52.8758 156.348 51.0108 156.348C49.1448 156.348 49.1628 156.365 49.1628 154.5C49.1628 152.634 49.1798 152.652 47.3148 152.652C45.9248 152.652 45.7778 152.687 45.5718 153.068C45.4718 153.25 45.4668 153.473 45.4668 156.348C45.4668 159.223 45.4728 159.445 45.5718 159.627C45.6308 159.739 45.7718 159.879 45.8828 159.938C46.0648 160.038 46.2878 160.044 49.1628 160.044C52.0378 160.044 52.2598 160.05 52.4428 160.149C52.8228 160.355 52.8588 160.501 52.8588 161.892C52.8588 163.282 52.8938 163.429 53.2748 163.634C53.4568 163.734 53.6798 163.74 56.5548 163.74C59.4298 163.74 59.6518 163.734 59.8348 163.634C60.2148 163.429 60.2508 163.282 60.2508 161.892C60.2508 160.026 60.2678 160.044 58.4028 160.044C56.5368 160.044 56.5548 160.061 56.5548 158.196C56.5548 156.33 56.5368 156.348 58.4028 156.348C60.2678 156.348 60.2508 156.33 60.2508 158.196C60.2508 159.586 60.2858 159.733 60.6668 159.938C60.8548 160.038 61.2478 160.044 69.4908 160.044C77.7338 160.044 78.1258 160.05 78.3138 160.149C78.6958 160.355 78.7308 160.501 78.7308 161.892C78.7308 163.757 78.7128 163.74 80.5788 163.74C81.9688 163.74 82.1158 163.705 82.3208 163.323C82.4208 163.135 82.4268 162.86 82.4268 158.196C82.4268 153.532 82.4208 153.256 82.3208 153.068C82.1158 152.687 81.9688 152.652 80.5788 152.652C78.7128 152.652 78.7308 152.634 78.7308 154.5C78.7308 155.89 78.6958 156.037 78.3138 156.242C78.1318 156.342 77.9088 156.348 75.0338 156.348C72.1588 156.348 71.9368 156.342 71.7548 156.242C71.3738 156.037 71.3388 155.89 71.3388 154.5C71.3388 152.634 71.3558 152.652 69.4908 152.652C67.6248 152.652 67.6428 152.669 67.6428 150.804C67.6428 148.938 67.6598 148.956 65.7948 148.956C64.7088 148.956 64.5388 148.967 64.3628 149.061ZM86.5398 156.453C86.1578 156.659 86.1228 156.805 86.1228 158.196C86.1228 160.061 86.1048 160.044 87.9708 160.044C89.8358 160.044 89.8188 160.061 89.8188 158.196C89.8188 156.33 89.8358 156.348 87.9708 156.348C86.8848 156.348 86.7158 156.359 86.5398 156.453ZM101.323 156.453C100.942 156.659 100.907 156.805 100.907 158.196C100.907 160.061 100.889 160.044 102.755 160.044C104.62 160.044 104.603 160.061 104.603 158.196C104.603 156.33 104.62 156.348 102.755 156.348C101.669 156.348 101.499 156.359 101.323 156.453ZM130.891 156.453C130.51 156.659 130.475 156.805 130.475 158.196C130.475 160.061 130.457 160.044 132.323 160.044C134.188 160.044 134.171 160.026 134.171 161.892C134.171 163.282 134.206 163.429 134.587 163.634C134.769 163.734 134.992 163.74 137.867 163.74C140.742 163.74 140.964 163.734 141.146 163.634C141.528 163.429 141.563 163.282 141.563 161.892C141.563 160.026 141.545 160.044 143.411 160.044C145.276 160.044 145.259 160.061 145.259 158.196C145.259 156.805 145.224 156.659 144.842 156.453C144.654 156.354 144.32 156.348 137.867 156.348C131.413 156.348 131.079 156.354 130.891 156.453ZM145.675 160.149C145.294 160.355 145.259 160.501 145.259 161.892C145.259 163.757 145.241 163.74 147.107 163.74C148.972 163.74 148.955 163.757 148.955 161.892C148.955 160.026 148.972 160.044 147.107 160.044C146.021 160.044 145.851 160.055 145.675 160.149ZM153.067 160.149C152.686 160.355 152.651 160.501 152.651 161.892C152.651 163.757 152.633 163.74 154.499 163.74C156.364 163.74 156.347 163.757 156.347 161.892C156.347 160.026 156.364 160.044 154.499 160.044C153.413 160.044 153.243 160.055 153.067 160.149Z" fill="black"/>
</svg>
