<svg xmlns="http://www.w3.org/2000/svg" xml:space="preserve" fill="none" viewBox="0 0 24 24">
  <path fill="#000" fill-rule="evenodd" d="M4.772 3.834a1.55 1.55 0 0 0-.901.829l-.091.197v5.28l.108.229a1.7 1.7 0 0 0 .743.743l.229.108h5.28l.229-.108a1.7 1.7 0 0 0 .743-.743l.108-.229V4.86l-.108-.229a1.7 1.7 0 0 0-.743-.743l-.229-.108-2.58-.009c-2.401-.009-2.594-.005-2.788.063m9 0a1.55 1.55 0 0 0-.901.829l-.091.197v5.28l.108.229a1.7 1.7 0 0 0 .743.743l.229.108h5.28l.229-.108a1.7 1.7 0 0 0 .743-.743l.108-.229V4.86l-.108-.229a1.7 1.7 0 0 0-.743-.743l-.229-.108-2.58-.009c-2.401-.009-2.594-.005-2.788.063M9.76 7.5v2.26H5.24V5.24h4.52zm9 0v2.26h-4.52V5.24h4.52zM4.772 12.834a1.55 1.55 0 0 0-.901.829l-.091.197v5.28l.108.229a1.7 1.7 0 0 0 .743.743l.229.108h5.28l.229-.108a1.7 1.7 0 0 0 .743-.743l.108-.229v-5.28l-.108-.229a1.7 1.7 0 0 0-.743-.743l-.229-.108-2.58-.009c-2.401-.009-2.594-.005-2.788.063m8.408-.007a.7.7 0 0 0-.344.341c-.071.139-.076.259-.076 1.832s.005 1.693.076 1.832a.72.72 0 0 0 .664.408.72.72 0 0 0 .664-.408c.071-.139.076-.259.076-1.832s-.005-1.693-.076-1.832a.68.68 0 0 0-.352-.343c-.162-.082-.475-.081-.632.002m3 0a.7.7 0 0 0-.344.341c-.072.142-.076.279-.076 2.87v2.722h-1.222c-1.289 0-1.337.006-1.552.195-.21.184-.289.604-.161.857a.68.68 0 0 0 .343.352c.139.071.259.076 1.832.076s1.693-.005 1.832-.076a.68.68 0 0 0 .343-.352c.057-.113.065-.36.065-2.087v-1.96l1.23-.012c1.342-.014 1.346-.015 1.577-.259A.67.67 0 0 0 20.24 15a.67.67 0 0 0-.193-.494c-.231-.244-.235-.245-1.577-.259l-1.23-.012v-.459c0-.596-.08-.775-.428-.951-.162-.082-.475-.081-.632.002M9.76 16.5v2.26H5.24v-4.52h4.52zm9.66.76a2 2 0 0 1-.149.037c-.147.032-.39.251-.457.411-.04.096-.054.368-.054 1.053 0 .966.012 1.045.195 1.253.255.291.835.291 1.09 0 .183-.208.195-.287.195-1.249 0-.553-.017-.965-.043-1.032a.9.9 0 0 0-.357-.391c-.108-.055-.355-.104-.42-.082"/>
</svg>
