<svg xmlns="http://www.w3.org/2000/svg" xml:space="preserve" fill="none" viewBox="0 0 176 176">
  <g fill="#000" clip-path="url(#prefix__a)" opacity=".2">
    <path d="M12.62 12.308a.877.877 0 0 0-.312.311c-.1.188-.105.698-.105 12.52 0 11.821.006 12.331.105 12.52.059.11.2.251.311.31.188.1.698.106 12.52.106 11.821 0 12.331-.006 12.52-.106a.878.878 0 0 0 .31-.31c.1-.189.106-.699.106-12.52 0-11.822-.006-12.332-.106-12.52a.878.878 0 0 0-.31-.31c-.189-.1-.699-.106-12.52-.106-11.822 0-12.332.006-12.52.105Zm21.612 3.737.147.141v17.905l-.147.141-.14.147H16.185l-.14-.147-.147-.14V16.185l.146-.14.141-.147H34.09l.141.146Z"/>
    <path d="M20.011 19.7a.877.877 0 0 0-.31.311c-.1.188-.106.464-.106 5.128s.006 4.94.105 5.127c.059.112.2.252.311.311.188.1.464.106 5.128.106s4.94-.006 5.127-.106a.877.877 0 0 0 .311-.31c.1-.189.106-.464.106-5.128s-.006-4.94-.106-5.128a.879.879 0 0 0-.31-.31c-.189-.1-.464-.106-5.128-.106s-4.94.006-5.128.105Zm48.049-7.392c-.382.206-.417.352-.417 1.743 0 1.865.017 1.848-1.848 1.848-1.866 0-1.848-.018-1.848 1.848 0 1.39-.036 1.537-.417 1.742-.188.1-.463.106-5.127.106s-4.94.006-5.128.105a.879.879 0 0 0-.31.311c-.1.182-.106.405-.106 3.28 0 2.874-.006 3.097-.106 3.28-.205.38-.352.416-1.742.416-1.866 0-1.848.017-1.848-1.848 0-1.866.017-1.848-1.848-1.848-1.866 0-1.848.017-1.848-1.848 0-1.866.017-1.848-1.848-1.848-1.39 0-1.537.035-1.743.416-.1.182-.105.405-.105 3.28 0 2.874.006 3.097.105 3.28.206.38.352.416 1.743.416 1.865 0 1.848-.018 1.848 1.848 0 1.865-.018 1.848 1.848 1.848 1.39 0 1.537.035 1.742.416.1.182.106.405.106 3.28 0 2.874.006 3.097.105 3.28.206.38.352.416 1.743.416 1.865 0 1.848.017 1.848-1.848 0-1.866-.018-1.848 1.848-1.848 1.39 0 1.537-.035 1.742-.417.1-.182.106-.405.106-3.28 0-2.874.006-3.097.105-3.279a.879.879 0 0 1 .311-.31c.182-.1.405-.106 3.28-.106 2.874 0 3.097.006 3.28.105.38.206.416.352.416 1.743 0 1.865-.018 1.848 1.848 1.848 1.39 0 1.537-.035 1.742-.417.1-.188.106-.463.106-5.127s.006-4.94.105-5.128c.206-.381.352-.416 1.743-.416 1.865 0 1.848-.018 1.848 1.848 0 1.865-.018 1.848 1.848 1.848 1.39 0 1.537-.035 1.742-.417.1-.182.106-.405.106-3.28 0-2.874-.006-3.097-.106-3.279-.205-.381-.352-.416-1.742-.416-1.866 0-1.848.017-1.848-1.848 0-1.39-.035-1.537-.417-1.743-.176-.094-.346-.105-1.431-.105-1.086 0-1.256.011-1.432.105Zm25.871 0c-.381.206-.416.352-.416 1.743 0 1.865.017 1.848-1.848 1.848-1.39 0-1.537.035-1.743.416-.1.188-.105.464-.105 5.128s.006 4.94.105 5.127c.206.381.352.417 1.743.417 1.865 0 1.848-.018 1.848 1.848 0 1.865.017 1.848-1.848 1.848-1.866 0-1.848-.018-1.848 1.848 0 1.865-.018 1.848 1.848 1.848 1.39 0 1.537.035 1.742.416.1.188.106.464.106 5.128s-.006 4.94-.106 5.127a.879.879 0 0 1-.31.311c-.183.1-.406.106-3.28.106-2.875 0-3.098.005-3.28.105-.381.206-.416.352-.416 1.743 0 1.39.035 1.537.416 1.742.188.1.581.106 8.824.106 8.242 0 8.635-.006 8.823-.106.382-.205.417-.352.417-1.742 0-1.39-.035-1.537-.417-1.743-.182-.1-.405-.105-3.279-.105-2.875 0-3.098-.006-3.28-.106a.878.878 0 0 1-.31-.31c-.1-.189-.106-.464-.106-5.128s.006-4.94.105-5.128c.206-.381.352-.416 1.743-.416 1.865 0 1.848.017 1.848-1.848 0-1.866-.018-1.848 1.848-1.848 1.39 0 1.537-.036 1.742-.417.1-.182.106-.405.106-3.28 0-2.874-.006-3.097-.106-3.279-.205-.381-.352-.416-1.742-.416-1.391 0-1.537-.036-1.743-.417-.099-.182-.105-.405-.105-3.28 0-2.874.006-3.097.105-3.279.206-.381.352-.416 1.743-.416 1.39 0 1.537.035 1.742.416.1.182.106.405.106 3.28 0 2.874.006 3.097.105 3.279.206.381.352.417 1.743.417 1.865 0 1.848-.018 1.848 1.848 0 1.865-.018 1.848 1.848 1.848 1.39 0 1.537-.036 1.742-.417.1-.188.106-.463.106-5.127s.006-4.94.105-5.128a.883.883 0 0 1 .311-.31c.182-.1.405-.106 3.28-.106 2.874 0 3.097-.006 3.279-.106.382-.205.417-.352.417-1.742 0-1.39-.035-1.537-.417-1.743-.188-.1-.698-.105-12.519-.105-11.822 0-12.332.005-12.52.105Zm2.863 7.392c.382.206.417.352.417 1.743 0 1.865.017 1.848-1.848 1.848-1.866 0-1.848.017-1.848-1.848 0-1.39.035-1.538.416-1.743.176-.094.346-.105 1.432-.105 1.085 0 1.255.011 1.431.105Zm26.705-7.392c-.381.206-.416.352-.416 1.743 0 1.865-.018 1.848 1.848 1.848 1.865 0 1.848.017 1.848-1.848 0-1.086-.012-1.256-.106-1.432-.205-.381-.352-.416-1.742-.416-1.086 0-1.256.011-1.432.105Zm14.784 0a.885.885 0 0 0-.311.311c-.099.188-.105.698-.105 12.52 0 11.821.006 12.331.105 12.52.059.11.2.251.311.31.188.1.698.106 12.52.106 11.821 0 12.331-.006 12.519-.106a.876.876 0 0 0 .311-.31c.1-.189.106-.699.106-12.52 0-11.822-.006-12.332-.106-12.52a.876.876 0 0 0-.311-.31c-.188-.1-.698-.106-12.519-.106-11.822 0-12.332.006-12.52.105Zm21.613 3.737.147.141v17.905l-.147.141-.141.147H141.85l-.141-.147-.146-.14V16.185l.146-.14.141-.147h17.905l.141.146Z"/>
    <path d="M145.675 19.7a.885.885 0 0 0-.311.311c-.099.188-.105.464-.105 5.128s.006 4.94.105 5.127c.059.112.2.252.311.311.188.1.464.106 5.128.106s4.939-.006 5.127-.106a.875.875 0 0 0 .311-.31c.1-.189.106-.464.106-5.128s-.006-4.94-.106-5.128a.876.876 0 0 0-.311-.31c-.188-.1-.463-.106-5.127-.106s-4.94.006-5.128.105Zm-99.792-3.696c-.381.206-.416.352-.416 1.743 0 1.865-.018 1.848 1.848 1.848 1.865 0 1.848.017 1.848-1.848 0-1.086-.012-1.256-.106-1.432-.205-.381-.352-.416-1.742-.416-1.086 0-1.256.012-1.432.105Zm73.92 0c-.381.206-.416.352-.416 1.743 0 1.865.017 1.848-1.848 1.848-1.866 0-1.848-.018-1.848 1.848 0 1.39.035 1.537.416 1.742.188.1.464.106 5.128.106s4.939-.006 5.127-.106c.382-.205.417-.352.417-1.742 0-1.086-.012-1.256-.106-1.432-.205-.381-.352-.416-1.742-.416-1.391 0-1.537-.035-1.743-.417-.094-.176-.105-.346-.105-1.431 0-1.086-.012-1.256-.106-1.432-.205-.381-.352-.416-1.742-.416-1.086 0-1.256.012-1.432.105Z"/>
    <path d="M130.891 16.004a.885.885 0 0 0-.311.311c-.099.188-.105.464-.105 5.128s-.006 4.94-.106 5.127a.875.875 0 0 1-.311.311c-.188.1-.581.106-8.823.106-8.243 0-8.636.006-8.824.105-.381.206-.416.352-.416 1.743 0 1.865-.018 1.848 1.848 1.848 1.39 0 1.537.035 1.742.416.1.182.106.405.106 3.28s-.006 3.097-.106 3.28c-.205.38-.352.416-1.742.416-1.391 0-1.537.035-1.743.416-.099.182-.105.405-.105 3.28 0 2.874.006 3.097.105 3.28.206.38.352.416 1.743.416 1.865 0 1.848-.018 1.848 1.848 0 1.865-.018 1.848 1.848 1.848 1.39 0 1.537-.035 1.742-.417.1-.182.106-.404.106-3.28 0-2.874.006-3.097.105-3.279.206-.381.352-.416 1.743-.416 1.865 0 1.848-.018 1.848 1.848 0 1.39.035 1.537.416 1.742.182.1.405.106 3.28.106 2.874 0 3.097-.006 3.279-.106.382-.205.417-.352.417-1.742 0-1.866.017-1.848-1.848-1.848-1.391 0-1.537-.035-1.743-.417-.099-.182-.105-.404-.105-3.28 0-2.874-.006-3.097-.106-3.279-.205-.381-.352-.416-1.742-.416-1.866 0-1.848-.018-1.848 1.848 0 1.865.017 1.848-1.848 1.848-1.391 0-1.537-.035-1.743-.417-.099-.182-.105-.404-.105-3.28 0-2.874.006-3.097.105-3.279a.884.884 0 0 1 .311-.31c.188-.1.464-.106 5.128-.106s4.939.006 5.127.105c.112.06.252.2.311.311.1.182.106.405.106 3.28s.006 3.097.105 3.28c.206.38.352.416 1.743.416 1.39 0 1.537-.035 1.742-.417.1-.187.106-.64.106-10.671 0-10.032-.006-10.484-.106-10.672-.205-.381-.352-.416-1.742-.416-1.086 0-1.256.012-1.432.105ZM79.147 19.7a.878.878 0 0 0-.31.311c-.1.182-.106.405-.106 3.28 0 2.874-.006 3.097-.106 3.28-.205.38-.352.416-1.742.416-1.39 0-1.537.035-1.743.416-.1.182-.105.405-.105 3.28 0 2.874.006 3.097.105 3.28.206.38.352.416 1.743.416 1.865 0 1.848.017 1.848-1.848 0-1.866-.018-1.848 1.848-1.848 1.865 0 1.848.017 1.848-1.848 0-1.866-.018-1.848 1.848-1.848 1.865 0 1.848.017 1.848-1.848 0-1.866.017-1.848-1.848-1.848-1.866 0-1.848.017-1.848-1.848 0-1.866.017-1.848-1.848-1.848-1.086 0-1.256.011-1.432.105Zm-18.48 11.088c-.381.206-.416.352-.416 1.743 0 1.865-.018 1.848 1.848 1.848 1.865 0 1.848.017 1.848-1.848 0-1.39-.036-1.537-.417-1.743-.176-.094-.346-.105-1.431-.105-1.086 0-1.256.011-1.432.105Z"/>
    <path d="M105.019 30.788c-.381.206-.416.352-.416 1.743 0 1.865-.018 1.848 1.848 1.848 1.865 0 1.848-.018 1.848 1.848 0 1.39.035 1.537.416 1.742.176.094.346.106 1.432.106 1.39 0 1.537-.036 1.742-.417.1-.182.106-.405.106-3.28 0-2.874-.006-3.097-.106-3.279a.876.876 0 0 0-.311-.31c-.182-.1-.405-.106-3.279-.106-2.875 0-3.098.006-3.28.105Zm-62.832 3.696c-.381.206-.416.352-.416 1.743 0 1.865-.018 1.848 1.848 1.848 1.865 0 1.848.017 1.848-1.848 0-1.086-.012-1.256-.106-1.432-.205-.381-.352-.416-1.742-.416-1.086 0-1.256.011-1.432.105Zm14.784 0c-.381.206-.416.352-.416 1.743 0 1.865.017 1.848-1.848 1.848-1.39 0-1.537.035-1.743.416-.1.182-.105.405-.105 3.28 0 2.874.006 3.097.105 3.28.206.38.352.416 1.743.416 1.865 0 1.848.017 1.848-1.848 0-1.866-.018-1.848 1.848-1.848 1.865 0 1.848-.018 1.848 1.848 0 1.865.017 1.848-1.848 1.848-1.866 0-1.848-.018-1.848 1.848 0 1.39.035 1.537.416 1.742.188.1.464.106 5.128.106s4.94-.006 5.127-.106a.879.879 0 0 0 .311-.31c.1-.183.106-.406.106-3.28 0-2.875-.006-3.098-.106-3.28-.205-.381-.352-.416-1.742-.416-1.866 0-1.848.017-1.848-1.848 0-1.39-.036-1.538-.417-1.743-.176-.094-.346-.105-1.431-.105-1.866 0-1.848.017-1.848-1.848 0-1.866.017-1.848-1.848-1.848-1.086 0-1.256.011-1.432.105Zm7.392 0c-.381.206-.416.352-.416 1.743 0 1.865-.018 1.848 1.848 1.848 1.865 0 1.848.017 1.848-1.848 0-1.39-.035-1.537-.417-1.743-.176-.094-.346-.105-1.431-.105-1.086 0-1.256.011-1.432.105Zm7.392 0a.878.878 0 0 0-.31.311c-.1.182-.106.405-.106 3.28 0 2.874.006 3.097.105 3.28.206.38.352.416 1.743.416 1.39 0 1.537-.035 1.742-.417.1-.182.106-.405.106-3.28 0-2.874-.006-3.097-.106-3.279-.205-.381-.352-.416-1.742-.416-1.086 0-1.256.012-1.432.105Zm7.392 0a.878.878 0 0 0-.31.311c-.1.182-.106.405-.106 3.28 0 2.874.006 3.097.105 3.28.206.38.352.416 1.743.416 1.39 0 1.537-.035 1.742-.417.1-.182.106-.405.106-3.28 0-2.874-.006-3.097-.106-3.279-.205-.381-.352-.416-1.742-.416-1.086 0-1.256.012-1.432.105Zm7.393 0a.878.878 0 0 0-.312.311c-.1.182-.105.405-.105 3.28 0 2.874.006 3.097.105 3.28.206.38.352.416 1.743.416 1.39 0 1.537-.035 1.742-.417.1-.182.106-.405.106-3.28 0-2.874-.006-3.097-.106-3.279-.205-.381-.352-.416-1.742-.416-1.086 0-1.256.012-1.432.105Z"/>
    <path d="M101.323 34.484a.884.884 0 0 0-.311.311c-.099.182-.105.405-.105 3.28 0 2.874.006 3.097.105 3.28.059.11.2.252.311.31.182.1.405.106 3.28.106 2.874 0 3.097-.006 3.279-.106.382-.205.417-.352.417-1.742 0-1.866.017-1.848-1.848-1.848-1.866 0-1.848.017-1.848-1.848 0-1.866.017-1.848-1.848-1.848-1.086 0-1.256.012-1.432.105Zm-55.44 3.696c-.381.206-.416.352-.416 1.743 0 1.865-.018 1.848 1.848 1.848 1.865 0 1.848.017 1.848-1.848 0-1.086-.012-1.256-.106-1.432-.205-.381-.352-.416-1.742-.416-1.086 0-1.256.011-1.432.105Zm-22.176 3.696a.876.876 0 0 0-.31.311c-.1.182-.106.405-.106 3.28s.006 3.097.105 3.28c.206.38.352.416 1.743.416 1.865 0 1.848.017 1.848-1.848 0-1.866-.018-1.848 1.848-1.848 1.865 0 1.848.017 1.848-1.848 0-1.39-.035-1.537-.417-1.743-.182-.1-.405-.105-3.28-.105-2.874 0-3.097.006-3.279.105Zm11.088 0c-.381.206-.416.352-.416 1.743 0 1.865-.018 1.848 1.848 1.848 1.865 0 1.848-.018 1.848 1.848 0 1.865.017 1.848-1.848 1.848-1.866 0-1.848-.018-1.848 1.848 0 1.39.035 1.537.416 1.742.188.1.464.106 5.128.106s4.94-.006 5.127-.106c.382-.205.417-.352.417-1.742 0-1.866-.018-1.848 1.848-1.848 1.865 0 1.848-.018 1.848 1.848 0 1.865.017 1.848-1.848 1.848-1.866 0-1.848-.018-1.848 1.848 0 1.865-.018 1.848 1.848 1.848 1.39 0 1.537.035 1.742.416.1.188.106.464.106 5.128s-.006 4.94-.106 5.127c-.205.381-.352.417-1.742.417-1.866 0-1.848-.018-1.848 1.848 0 1.39.035 1.537.416 1.742.182.1.405.106 3.28.106 2.874 0 3.097-.006 3.28-.106.38-.205.416-.352.416-1.742 0-1.866-.018-1.848 1.848-1.848 1.39 0 1.537-.036 1.742-.417.1-.182.106-.405.106-3.28 0-2.874-.006-3.097-.106-3.279-.205-.381-.352-.416-1.742-.416-1.866 0-1.848.017-1.848-1.848 0-1.866-.018-1.848 1.848-1.848 1.865 0 1.848.017 1.848-1.848 0-1.866.017-1.848-1.848-1.848-1.39 0-1.537-.036-1.743-.417-.1-.182-.105-.405-.105-3.28 0-2.874-.006-3.097-.106-3.279a.879.879 0 0 0-.31-.31c-.189-.1-.464-.106-5.128-.106s-4.94-.006-5.128-.106c-.381-.205-.416-.352-.416-1.742 0-1.39-.035-1.538-.417-1.743-.182-.1-.405-.105-3.28-.105-2.874 0-3.097.005-3.279.105Zm40.656 0a.879.879 0 0 0-.31.311c-.1.182-.106.405-.106 3.28 0 2.874.006 3.097.105 3.28.206.38.352.416 1.743.416 1.39 0 1.537-.036 1.742-.417.1-.182.106-.405.106-3.28 0-2.874-.006-3.097-.106-3.279-.205-.381-.352-.416-1.742-.416-1.086 0-1.256.011-1.432.105Zm7.392 0c-.381.206-.416.352-.416 1.743 0 1.865-.018 1.848 1.848 1.848 1.865 0 1.848.017 1.848-1.848 0-1.39-.035-1.537-.417-1.743-.176-.093-.346-.105-1.431-.105-1.086 0-1.256.011-1.432.105Zm66.528 0c-.381.206-.416.352-.416 1.743 0 1.865-.018 1.848 1.848 1.848 1.865 0 1.848-.018 1.848 1.848 0 1.39.035 1.537.416 1.742.182.1.405.106 3.28.106 2.874 0 3.097-.006 3.279-.106.382-.205.417-.352.417-1.742 0-1.866.017-1.848-1.848-1.848-1.866 0-1.848.017-1.848-1.848 0-1.39-.035-1.538-.417-1.743-.182-.1-.405-.105-3.279-.105-2.875 0-3.098.005-3.28.105Zm-40.656 3.696c-.381.206-.416.352-.416 1.743 0 1.865-.018 1.848 1.848 1.848 1.865 0 1.848.017 1.848-1.848 0-1.39-.035-1.537-.417-1.743-.176-.093-.346-.105-1.431-.105-1.086 0-1.256.012-1.432.105Zm22.176 0a.884.884 0 0 0-.311.311c-.099.182-.105.405-.105 3.28 0 2.874.006 3.097.105 3.28.059.11.2.251.311.31.182.1.405.106 3.28.106 2.874 0 3.097-.006 3.279-.106.382-.205.417-.352.417-1.742 0-1.866-.018-1.848 1.848-1.848 1.865 0 1.848-.018 1.848 1.848 0 1.865-.018 1.848 1.848 1.848 1.865 0 1.848.017 1.848-1.848 0-1.866-.018-1.848 1.848-1.848 1.865 0 1.848.017 1.848-1.848 0-1.39-.035-1.537-.417-1.743-.188-.1-.581-.105-8.823-.105-8.243 0-8.636.005-8.824.105ZM12.62 49.268a.876.876 0 0 0-.312.311c-.1.182-.105.405-.105 3.28 0 2.874.006 3.097.105 3.28.059.11.2.251.311.31.182.1.405.106 3.28.106 2.874 0 3.097-.006 3.28-.106.38-.205.416-.352.416-1.742 0-1.866.017-1.848-1.848-1.848-1.866 0-1.848.017-1.848-1.848 0-1.866.017-1.848-1.848-1.848-1.086 0-1.256.011-1.432.105Zm14.783 0a.876.876 0 0 0-.31.311c-.1.188-.106.464-.106 5.128s.006 4.94.105 5.127c.206.381.352.417 1.743.417 1.865 0 1.848.017 1.848-1.848 0-1.866-.018-1.848 1.848-1.848 1.865 0 1.848.017 1.848-1.848 0-1.866.017-1.848-1.848-1.848-1.866 0-1.848.017-1.848-1.848 0-1.866.017-1.848-1.848-1.848-1.086 0-1.256.012-1.432.105Zm121.968 0c-.381.206-.416.352-.416 1.743 0 1.865-.018 1.848 1.848 1.848 1.865 0 1.848.017 1.848-1.848 0-1.086-.012-1.256-.106-1.432-.205-.381-.352-.416-1.742-.416-1.086 0-1.256.011-1.432.105Zm11.088 0c-.381.206-.416.352-.416 1.743 0 1.865-.018 1.848 1.848 1.848 1.865 0 1.848.017 1.848-1.848 0-1.39-.035-1.537-.417-1.743-.176-.094-.346-.105-1.431-.105-1.086 0-1.256.011-1.432.105ZM58.49 50.981v73.92h29.44c22.821 0 29.456-.017 29.509-.07.053-.053.07-8.348.07-36.96V50.98H58.491Zm30.45 14.086c.792.082 1.719.24 1.994.34.082.03.264.083.411.124.147.035.305.088.352.117.053.023.176.065.282.088.105.018.187.064.187.094s.065.053.147.053c.082 0 .147.023.147.058 0 .03.047.059.105.059.059 0 .159.041.223.088a.428.428 0 0 0 .217.088c.053 0 .1.023.1.053s.047.064.106.082c.052.017.258.129.451.246.194.112.411.235.487.276.07.035.13.088.13.117 0 .024.04.047.087.047.047 0 .088.024.088.053 0 .03.047.07.106.088a.875.875 0 0 1 .223.14c.059.054.246.206.405.335.37.3.962.892 1.378 1.379.176.211.34.387.37.399.023.012.041.053.041.088 0 .041.059.14.135.223.07.082.158.2.194.258.035.065.111.211.176.323.058.111.123.217.14.234.088.083.235.358.235.44 0 .047.03.088.059.088.035 0 .058.024.058.059 0 .03.065.194.141.364.076.17.188.44.24.604.053.158.124.346.147.41.041.112.07.206.235.822.205.757.287 1.83.287 3.972l.006 1.807h4.518v24.405l-.147.035c-.082.018-.147.059-.147.088 0 .03-.029.053-.07.053-.035 0-.211.07-.393.153-.587.275-1.314.616-1.86.88-.293.14-.563.258-.598.258-.041 0-.071.023-.071.058 0 .03-.035.059-.07.059-.041 0-.258.088-.487.199-.827.405-1.437.681-1.496.681a.059.059 0 0 0-.059.059c0 .029-.04.058-.082.058-.047 0-.211.065-.363.147-.153.082-.311.147-.352.147-.047 0-.083.023-.083.058 0 .03-.035.059-.07.059-.041 0-.258.088-.487.199-.827.405-1.437.681-1.496.681a.059.059 0 0 0-.059.059c0 .029-.04.058-.082.058-.047 0-.211.065-.364.147-.152.082-.31.147-.352.147-.046 0-.082.023-.082.058 0 .03-.023.059-.058.059-.053 0-.481.194-1.684.769-.27.123-.704.334-.968.457a74.4 74.4 0 0 0-1.191.563l-.997.47c-.159.07-.54.258-.845.404l-.557.27-.429-.205c-.234-.111-.451-.205-.487-.205-.029 0-.058-.03-.058-.059 0-.035-.035-.059-.07-.059-.042 0-.259-.088-.488-.199-.927-.446-1.437-.681-1.496-.681a.062.062 0 0 1-.058-.058c0-.036-.041-.059-.082-.059-.047 0-.212-.065-.364-.147-.153-.082-.311-.146-.352-.146-.047 0-.082-.03-.082-.059 0-.035-.035-.059-.07-.059-.042 0-.259-.088-.488-.199-.223-.112-.698-.335-1.056-.505-.352-.17-.78-.369-.938-.446-.165-.076-.329-.14-.37-.14-.035 0-.07-.03-.07-.059 0-.035-.053-.059-.118-.059-.064 0-.117-.029-.117-.058 0-.036-.03-.059-.065-.059s-.281-.1-.545-.223c-.258-.123-.563-.264-.663-.311-.106-.047-.194-.1-.194-.123 0-.029-.04-.047-.093-.047a.633.633 0 0 1-.247-.082c-.516-.27-1.032-.505-1.103-.505-.047 0-.082-.029-.082-.058a.059.059 0 0 0-.059-.059c-.035 0-.334-.135-.668-.293-.335-.165-.634-.294-.675-.294-.035 0-.065-.029-.065-.058 0-.036-.04-.059-.094-.059a.66.66 0 0 1-.246-.088 32.806 32.806 0 0 0-.862-.417 95.507 95.507 0 0 1-1.18-.557c-.258-.123-.504-.229-.54-.229-.04 0-.07-.029-.07-.058 0-.036-.035-.059-.082-.059-.04 0-.2-.065-.352-.147a1.566 1.566 0 0 0-.334-.146c-.235 0-.229.422-.229-12.314v-12.15h4.57l.03-2.16c.011-1.184.04-2.287.058-2.446.065-.493.217-1.285.276-1.39a.66.66 0 0 0 .053-.246c0-.083.023-.159.053-.176.029-.018.07-.13.093-.247.018-.117.059-.258.088-.31l.106-.241c.03-.083.129-.294.211-.476.082-.181.153-.357.153-.393 0-.04.017-.07.047-.07.023 0 .094-.117.158-.264.065-.147.13-.264.153-.264.023 0 .058-.065.076-.147.023-.082.064-.146.094-.146.035 0 .058-.041.058-.088 0-.047.024-.088.053-.088.03 0 .07-.047.088-.106a.87.87 0 0 1 .141-.223 3.31 3.31 0 0 0 .223-.287c.27-.423 1.18-1.326 1.96-1.96.081-.07.175-.147.216-.182.041-.029.094-.058.13-.058a.099.099 0 0 0 .076-.047c.023-.065.674-.481.745-.481.03 0 .064-.018.076-.047.018-.036 1.162-.616 1.426-.716.37-.14.663-.235.745-.235.053 0 .105-.017.117-.047.024-.046.786-.246.962-.246a.314.314 0 0 0 .176-.053c.03-.03.211-.07.405-.088.194-.023.563-.058.821-.088a9.565 9.565 0 0 1 1.966 0Z"/>
    <path d="M86.856 70.87c-.017.029-.105.058-.194.058-.158.006-.745.188-.815.258-.018.018-.088.035-.147.035-.058 0-.105.024-.105.047 0 .024-.13.094-.294.159-.158.064-.293.129-.293.146 0 .018-.082.083-.188.141-.252.153-.352.235-.815.692-.223.212-.405.417-.405.446 0 .036-.018.07-.041.082-.111.047-.54.834-.716 1.309-.164.44-.2.915-.223 2.828l-.023 2.012H93.28v-2.165c0-1.197-.023-2.182-.053-2.2-.023-.018-.064-.135-.076-.258-.035-.235-.44-1.138-.528-1.173-.023-.012-.047-.053-.047-.094 0-.059-.188-.305-.61-.798-.147-.17-.986-.798-1.18-.886a1.34 1.34 0 0 1-.205-.112c-.17-.105-.592-.287-.78-.322a.937.937 0 0 1-.246-.088c-.118-.088-.552-.135-1.596-.159-.698-.011-1.074 0-1.103.041Zm-8.184 13.962v14.55l.557.263c.311.147.587.264.616.264.036 0 .059.024.059.06 0 .028.035.058.076.058.041 0 .258.094.487.205.223.112.44.205.481.205.036 0 .07.024.07.059 0 .029.03.059.065.059.059 0 .71.281.945.416.058.03.146.053.193.053.047 0 .088.018.088.047 0 .047.429.246.528.246.036 0 .059.024.059.059 0 .029.035.059.076.059.035 0 .206.064.364.146.164.077.329.147.37.147.035 0 .07.024.07.059 0 .029.053.058.117.058.065 0 .118.024.118.059 0 .029.029.059.07.059.035 0 .211.07.393.152.775.364 1.59.751 1.977.939.229.111.446.199.481.199.041 0 .07.024.07.059 0 .029.036.059.077.059.035 0 .205.07.364.152.317.165.792.223.833.094.017-.035.058-.07.094-.07.04 0 .205-.065.363-.147.165-.076.329-.147.37-.147.035 0 .07-.029.07-.058 0-.035.03-.059.07-.059.036 0 .23-.076.423-.17.763-.358.898-.417.962-.417.041 0 .07-.023.07-.046 0-.024.136-.094.294-.159.164-.064.293-.135.293-.158 0-.024.036-.047.077-.047.04 0 .217-.065.381-.147.17-.082.329-.147.364-.147.03 0 .058-.029.058-.058 0-.035.03-.059.07-.059.036 0 .23-.076.423-.17.763-.358.898-.417.962-.417.041 0 .07-.023.07-.047 0-.023.136-.093.294-.158.164-.064.293-.135.293-.158 0-.024.036-.047.077-.047.04 0 .217-.065.381-.147.17-.082.329-.147.364-.147.03 0 .058-.029.058-.058 0-.035.036-.059.07-.059.065 0 .6-.24 1.121-.504a.763.763 0 0 1 .253-.083c.046 0 .082-.023.082-.047 0-.023.135-.093.293-.158l.293-.111V84.832H78.672Zm41.131-31.868a.883.883 0 0 0-.311.311c-.099.182-.105.405-.105 3.28 0 2.874.006 3.097.105 3.28.206.38.352.416 1.743.416 1.865 0 1.848.017 1.848-1.848 0-1.866-.018-1.848 1.848-1.848 1.865 0 1.848-.018 1.848 1.848 0 1.39-.035 1.537-.417 1.742-.176.094-.346.106-1.431.106-1.866 0-1.848-.018-1.848 1.848 0 1.865.017 1.848-1.848 1.848-1.866 0-1.848-.018-1.848 1.848 0 1.865-.018 1.848 1.848 1.848 1.865 0 1.848-.018 1.848 1.848 0 1.865.017 1.848-1.848 1.848-1.391 0-1.537.035-1.743.416-.099.188-.105.464-.105 5.128s.006 4.94.105 5.127c.059.112.2.252.311.311.182.1.405.106 3.28.106 2.874 0 3.097-.006 3.279-.106a.876.876 0 0 0 .311-.31c.1-.189.106-.523.106-6.976 0-6.454.006-6.788.105-6.976.206-.381.352-.416 1.743-.416 1.865 0 1.848-.018 1.848 1.848 0 1.865-.018 1.848 1.848 1.848 1.865 0 1.848-.018 1.848 1.848 0 1.39.035 1.537.416 1.742.182.1.405.106 3.28.106 2.874 0 3.097-.006 3.279-.106.382-.205.417-.352.417-1.742 0-1.866.017-1.848-1.848-1.848-1.866 0-1.848.017-1.848-1.848 0-1.866.017-1.848-1.848-1.848-1.866 0-1.848.017-1.848-1.848 0-1.866-.018-1.848 1.848-1.848 1.865 0 1.848.017 1.848-1.848 0-1.866-.018-1.848 1.848-1.848 1.865 0 1.848-.018 1.848 1.848 0 1.865.017 1.848-1.848 1.848-1.866 0-1.848-.018-1.848 1.848 0 1.865-.018 1.848 1.848 1.848 1.865 0 1.848-.018 1.848 1.848 0 1.865-.018 1.848 1.848 1.848 1.39 0 1.537.035 1.742.416.1.182.106.405.106 3.28 0 2.874.006 3.097.105 3.28.206.38.352.416 1.743.416 1.865 0 1.848-.018 1.848 1.848 0 1.865.017 1.848-1.848 1.848-1.866 0-1.848.017-1.848-1.848 0-1.39-.035-1.537-.417-1.743-.188-.1-.522-.105-6.975-.105-6.454 0-6.788.006-6.976.105-.381.206-.416.352-.416 1.743 0 1.39.035 1.537.416 1.742.182.1.405.106 3.28.106 2.874 0 3.097.006 3.279.105.382.206.417.352.417 1.743 0 1.39-.035 1.537-.417 1.742-.188.1-.522.106-6.975.106-6.454 0-6.788.006-6.976.105-.381.206-.416.352-.416 1.743 0 1.39.035 1.537.416 1.742.182.1.405.106 3.28.106 2.874 0 3.097.006 3.279.105.112.059.252.2.311.311.1.182.106.405.106 3.28 0 2.874-.006 3.097-.106 3.28-.205.38-.352.416-1.742.416-1.866 0-1.848-.018-1.848 1.848 0 1.865.017 1.848-1.848 1.848-1.866 0-1.848-.018-1.848 1.848 0 1.39.035 1.537.416 1.742.182.1.405.106 3.28.106 2.874 0 3.097.006 3.279.105.382.206.417.352.417 1.743 0 1.865.017 1.848-1.848 1.848-1.391 0-1.537.035-1.743.416-.099.182-.105.405-.105 3.28 0 2.874.006 3.097.105 3.279.206.382.352.417 1.743.417 1.865 0 1.848.017 1.848-1.848 0-1.391.035-1.537.416-1.743.182-.099.405-.105 3.28-.105 2.874 0 3.097.006 3.279.105.382.206.417.352.417 1.743 0 1.39.035 1.537.416 1.742.188.1.522.106 6.976.106 6.453 0 6.787.006 6.975.105.382.206.417.352.417 1.743 0 1.865-.018 1.848 1.848 1.848 1.865 0 1.848.017 1.848-1.848 0-1.866-.018-1.848 1.848-1.848 1.865 0 1.848.017 1.848-1.848 0-1.391-.035-1.537-.417-1.743-.188-.099-.581-.105-8.823-.105-8.243 0-8.636-.006-8.824-.106-.381-.205-.416-.352-.416-1.742 0-1.391-.035-1.537-.417-1.743-.182-.099-.405-.105-3.279-.105-2.875 0-3.098-.006-3.28-.106a.882.882 0 0 1-.311-.311c-.099-.182-.105-.405-.105-3.279 0-2.875.006-3.098.105-3.28.206-.381.352-.416 1.743-.416 1.865 0 1.848.017 1.848-1.848 0-1.866.017-1.848-1.848-1.848-1.391 0-1.537-.035-1.743-.417-.099-.182-.105-.405-.105-3.28 0-2.874.006-3.097.105-3.279.206-.381.352-.416 1.743-.416 1.865 0 1.848-.018 1.848 1.848 0 1.865-.018 1.848 1.848 1.848 1.865 0 1.848-.018 1.848 1.848 0 1.865-.018 1.848 1.848 1.848 1.865 0 1.848.017 1.848-1.848 0-1.866-.018-1.848 1.848-1.848 1.865 0 1.848-.018 1.848 1.848 0 1.865-.018 1.848 1.848 1.848 1.865 0 1.848.017 1.848-1.848 0-1.866-.018-1.848 1.848-1.848 1.865 0 1.848.017 1.848-1.848 0-1.39-.035-1.537-.417-1.743-.182-.1-.405-.105-3.279-.105-2.875 0-3.098-.006-3.28-.106-.381-.205-.416-.352-.416-1.742 0-1.39.035-1.537.416-1.743.182-.1.405-.105 3.28-.105 2.874 0 3.097-.006 3.279-.106.382-.205.417-.352.417-1.742 0-1.866.017-1.848-1.848-1.848-1.391 0-1.537-.036-1.743-.417-.099-.182-.105-.405-.105-3.28 0-2.874-.006-3.097-.106-3.279-.205-.381-.352-.416-1.742-.416-1.391 0-1.537-.035-1.743-.417-.099-.182-.105-.405-.105-3.28 0-2.874-.006-3.097-.106-3.279-.205-.381-.352-.416-1.742-.416-1.866 0-1.848.017-1.848-1.848 0-1.866-.018-1.848 1.848-1.848 1.865 0 1.848.017 1.848-1.848 0-1.866-.018-1.848 1.848-1.848 1.865 0 1.848-.018 1.848 1.848 0 1.865.017 1.848-1.848 1.848-1.866 0-1.848-.018-1.848 1.848 0 1.865-.018 1.848 1.848 1.848 1.865 0 1.848-.018 1.848 1.848 0 1.39.035 1.537.416 1.742.182.1.405.106 3.28.106 2.874 0 3.097-.006 3.279-.106.382-.205.417-.352.417-1.742 0-1.866.017-1.848-1.848-1.848-1.866 0-1.848.017-1.848-1.848 0-1.866-.018-1.848 1.848-1.848 1.865 0 1.848-.018 1.848 1.848 0 1.865-.018 1.848 1.848 1.848 1.39 0 1.537-.035 1.742-.417.1-.188.106-.463.106-5.127s-.006-4.94-.106-5.128c-.205-.381-.352-.416-1.742-.416-1.866 0-1.848-.018-1.848 1.848 0 1.865.017 1.848-1.848 1.848-1.866 0-1.848.017-1.848-1.848 0-1.39-.035-1.537-.417-1.743-.182-.1-.405-.105-3.279-.105-2.875 0-3.098-.006-3.28-.106-.381-.205-.416-.352-.416-1.742 0-1.866.017-1.848-1.848-1.848-1.866 0-1.848-.018-1.848 1.848 0 1.39-.035 1.537-.417 1.742-.188.1-.463.106-5.127.106s-4.94.005-5.128.105c-.381.206-.416.352-.416 1.743 0 1.865.017 1.848-1.848 1.848-1.391 0-1.537-.035-1.743-.417-.099-.182-.105-.405-.105-3.28 0-2.874-.006-3.097-.106-3.279a.875.875 0 0 0-.311-.31c-.188-.1-.463-.106-5.127-.106s-4.94.005-5.128.105Zm25.039 33.264c.382.206.417.352.417 1.743 0 1.865.017 1.848-1.848 1.848-1.391 0-1.537-.035-1.743-.417-.094-.176-.105-.346-.105-1.431 0-1.086.011-1.256.105-1.432.206-.381.352-.416 1.743-.416 1.085 0 1.255.011 1.431.105ZM20.011 56.66c-.381.206-.416.352-.416 1.743 0 1.865-.018 1.848 1.848 1.848 1.865 0 1.848.017 1.848-1.848 0-1.866.017-1.848-1.848-1.848-1.086 0-1.256.011-1.432.105Zm14.784 0c-.381.206-.416.352-.416 1.743 0 1.865-.018 1.848 1.848 1.848 1.865 0 1.848.017 1.848-1.848 0-1.086-.012-1.256-.106-1.432-.205-.381-.352-.416-1.742-.416-1.086 0-1.256.011-1.432.105Z"/>
    <path d="M12.62 60.356a.876.876 0 0 0-.312.311c-.1.182-.105.405-.105 3.28 0 2.874.006 3.097.105 3.28.059.11.2.251.311.31.182.1.405.106 3.28.106 2.874 0 3.097.006 3.28.105.11.059.251.2.31.311.1.182.106.405.106 3.28 0 2.874-.006 3.097-.106 3.28-.205.38-.352.416-1.742.416-1.866 0-1.848.017-1.848-1.848 0-1.866.017-1.848-1.848-1.848-1.39 0-1.537.035-1.743.416-.1.182-.105.405-.105 3.28 0 2.874.006 3.097.105 3.28.206.38.352.416 1.743.416 1.865 0 1.848-.018 1.848 1.848 0 1.865-.018 1.848 1.848 1.848 1.865 0 1.848.017 1.848-1.848 0-1.39.035-1.537.416-1.743.188-.1.522-.105 6.976-.105 6.453 0 6.787-.006 6.975-.106.381-.205.417-.352.417-1.742 0-1.39-.035-1.537-.417-1.743-.188-.1-.463-.105-5.127-.105s-4.94-.006-5.128-.106c-.381-.205-.416-.352-.416-1.742 0-1.39.035-1.537.416-1.743.188-.1.464-.105 5.128-.105s4.94-.006 5.127-.106c.381-.205.417-.352.417-1.742 0-1.39-.035-1.537-.417-1.743-.182-.1-.405-.105-3.28-.105-2.874 0-3.097-.006-3.279-.106a.875.875 0 0 1-.31-.31c-.1-.183-.106-.406-.106-3.28 0-2.875-.006-3.098-.106-3.28-.205-.381-.352-.416-1.742-.416-1.866 0-1.848-.018-1.848 1.848 0 1.39-.035 1.537-.417 1.742-.182.1-.405.106-3.28.106-2.874 0-3.097-.006-3.279-.106-.381-.205-.416-.352-.416-1.742 0-1.866.017-1.848-1.848-1.848-1.086 0-1.256.012-1.432.105Zm18.48 0c-.382.206-.417.352-.417 1.743 0 1.865-.018 1.848 1.848 1.848 1.865 0 1.848.017 1.848-1.848 0-1.086-.012-1.256-.106-1.432-.205-.381-.352-.416-1.742-.416-1.086 0-1.256.012-1.432.105Zm7.391 0c-.381.206-.416.352-.416 1.743 0 1.865-.018 1.848 1.848 1.848 1.865 0 1.848-.018 1.848 1.848 0 1.085.011 1.255.105 1.431.206.382.352.417 1.743.417 1.39 0 1.537-.035 1.742-.417.1-.182.106-.404.106-3.28 0-2.874-.006-3.097-.106-3.279a.878.878 0 0 0-.31-.31c-.183-.1-.406-.106-3.28-.106-2.875 0-3.098.006-3.28.105Zm-3.696 3.696c-.381.206-.416.352-.416 1.743 0 1.865-.018 1.848 1.848 1.848 1.865 0 1.848.017 1.848-1.848 0-1.39-.036-1.537-.417-1.743-.176-.094-.346-.105-1.431-.105-1.086 0-1.256.011-1.432.105Z"/>
    <path d="M34.795 71.444c-.381.206-.416.352-.416 1.743 0 1.865-.018 1.848 1.848 1.848 1.865 0 1.848.017 1.848-1.848 0-1.39-.036-1.537-.417-1.743-.176-.094-.346-.105-1.431-.105-1.086 0-1.256.011-1.432.105Zm7.392 0a.877.877 0 0 0-.31.311c-.1.188-.106.464-.106 5.128s.006 4.94.105 5.127c.206.382.352.417 1.743.417 1.39 0 1.537-.035 1.742-.417.1-.188.106-.463.106-5.127s-.006-4.94-.106-5.128c-.205-.381-.352-.416-1.742-.416-1.086 0-1.256.011-1.432.105Zm11.088 0c-.381.206-.416.352-.416 1.743 0 1.865.017 1.848-1.848 1.848-1.39 0-1.537.035-1.743.416-.1.182-.105.405-.105 3.28 0 2.874.006 3.097.105 3.28.206.38.352.416 1.743.416 1.865 0 1.848.017 1.848-1.848 0-1.866-.018-1.848 1.848-1.848 1.39 0 1.537-.035 1.742-.417.1-.182.106-.405.106-3.28 0-2.874-.006-3.097-.106-3.279-.205-.381-.352-.416-1.742-.416-1.086 0-1.256.011-1.432.105Zm107.184 3.696c-.381.206-.416.352-.416 1.743 0 1.865.017 1.848-1.848 1.848-1.866 0-1.848-.018-1.848 1.848 0 1.865-.018 1.848 1.848 1.848 1.865 0 1.848-.018 1.848 1.848 0 1.865.017 1.848-1.848 1.848-1.866 0-1.848-.018-1.848 1.848 0 1.865-.018 1.848 1.848 1.848 1.865 0 1.848-.018 1.848 1.848 0 1.865-.018 1.848 1.848 1.848 1.39 0 1.537-.036 1.742-.417.1-.188.106-.58.106-8.823s-.006-8.636-.106-8.824c-.205-.381-.352-.416-1.742-.416-1.086 0-1.256.011-1.432.105ZM34.795 78.836c-.381.206-.416.352-.416 1.743 0 1.865-.018 1.848 1.848 1.848 1.865 0 1.848.017 1.848-1.848 0-1.39-.036-1.537-.417-1.743-.176-.093-.346-.105-1.431-.105-1.086 0-1.256.012-1.432.105ZM12.62 82.532c-.382.206-.417.352-.417 1.743 0 1.865-.018 1.848 1.848 1.848 1.865 0 1.848.017 1.848-1.848 0-1.866.017-1.848-1.848-1.848-1.086 0-1.256.011-1.432.105Zm14.783 0c-.381.206-.416.352-.416 1.743 0 1.865-.018 1.848 1.848 1.848 1.39 0 1.537.035 1.742.416.1.182.106.405.106 3.28 0 2.874-.006 3.097-.106 3.28a.879.879 0 0 1-.31.31c-.183.1-.406.106-3.28.106-2.875 0-3.098.006-3.28.105-.381.206-.416.352-.416 1.743 0 1.39.035 1.537.416 1.742.188.1.581.106 8.824.106 8.242 0 8.635-.006 8.823-.106a.879.879 0 0 0 .311-.31c.1-.183.106-.406.106-3.28 0-2.875-.006-3.098-.106-3.28-.205-.381-.352-.416-1.742-.416-1.866 0-1.848-.018-1.848 1.848 0 1.865.017 1.848-1.848 1.848-1.866 0-1.848.017-1.848-1.848 0-1.866-.018-1.848 1.848-1.848 1.865 0 1.848.017 1.848-1.848 0-1.866.017-1.848-1.848-1.848-1.866 0-1.848.017-1.848-1.848 0-1.39-.035-1.537-.417-1.743-.182-.1-.405-.105-3.28-.105-2.874 0-3.097.006-3.279.105Z"/>
    <path d="M38.491 82.532c-.381.206-.416.352-.416 1.743 0 1.865-.018 1.848 1.848 1.848 1.865 0 1.848.017 1.848-1.848 0-1.39-.035-1.537-.417-1.743-.176-.093-.346-.105-1.431-.105-1.086 0-1.256.011-1.432.105Zm7.392 0c-.381.206-.416.352-.416 1.743 0 1.865-.018 1.848 1.848 1.848 1.865 0 1.848.017 1.848-1.848 0-1.39-.035-1.537-.417-1.743-.176-.093-.346-.105-1.431-.105-1.086 0-1.256.011-1.432.105Zm-25.872 3.696c-.381.206-.416.352-.416 1.743 0 1.865-.018 1.848 1.848 1.848 1.865 0 1.848.017 1.848-1.848 0-1.866.017-1.848-1.848-1.848-1.086 0-1.256.012-1.432.105Zm33.264 0c-.381.206-.416.352-.416 1.743 0 1.865-.018 1.848 1.848 1.848 1.865 0 1.848.017 1.848-1.848 0-1.086-.012-1.256-.106-1.432-.205-.381-.352-.416-1.742-.416-1.086 0-1.256.012-1.432.105ZM12.62 89.924a.877.877 0 0 0-.312.311c-.1.182-.105.405-.105 3.28 0 2.874.006 3.097.105 3.28.059.11.2.251.311.31.182.1.405.106 3.28.106 2.874 0 3.097-.006 3.28-.106.38-.205.416-.352.416-1.742 0-1.866.017-1.848-1.848-1.848-1.866 0-1.848.017-1.848-1.848 0-1.866.017-1.848-1.848-1.848-1.086 0-1.256.011-1.432.105Zm33.263 0a.879.879 0 0 0-.31.311c-.1.182-.106.405-.106 3.28 0 2.874.006 3.097.105 3.28.206.38.352.416 1.743.416 1.39 0 1.537.035 1.742.416.1.182.106.405.106 3.28 0 2.874.006 3.097.105 3.279.206.382.352.417 1.743.417 1.865 0 1.848-.018 1.848 1.848 0 1.865-.018 1.848 1.848 1.848 1.39 0 1.537-.035 1.742-.417.1-.182.106-.405.106-3.279 0-2.875-.006-3.098-.106-3.28-.205-.381-.352-.416-1.742-.416-1.866 0-1.848.017-1.848-1.848 0-1.866-.018-1.848 1.848-1.848 1.865 0 1.848.017 1.848-1.848 0-1.39-.035-1.537-.417-1.743-.182-.1-.405-.105-3.28-.105-2.874 0-3.097-.006-3.279-.106-.381-.205-.416-.352-.416-1.742 0-1.085-.012-1.256-.106-1.432-.205-.381-.352-.416-1.742-.416-1.086 0-1.256.011-1.432.105Zm-3.696 7.392c-.381.206-.416.352-.416 1.743 0 1.865-.018 1.848 1.848 1.848 1.865 0 1.848.017 1.848-1.848 0-1.086-.012-1.256-.106-1.432-.205-.381-.352-.416-1.742-.416-1.086 0-1.256.011-1.432.105Zm77.616 0c-.381.206-.416.352-.416 1.743 0 1.085.011 1.255.105 1.431.206.382.352.417 1.743.417 1.865 0 1.848.017 1.848-1.848 0-1.39-.035-1.537-.417-1.743-.176-.094-.346-.105-1.431-.105-1.086 0-1.256.011-1.432.105Zm25.872 0c-.381.206-.416.352-.416 1.743 0 1.39-.035 1.537-.417 1.742-.182.1-.405.106-3.279.106-2.875 0-3.098.006-3.28.105-.381.206-.416.352-.416 1.743 0 1.865-.018 1.848 1.848 1.848 1.865 0 1.848-.018 1.848 1.848 0 1.865-.018 1.848 1.848 1.848 1.865 0 1.848.017 1.848-1.848 0-1.391.035-1.537.416-1.743.182-.099.405-.105 3.28-.105 2.874 0 3.097-.006 3.279-.106.382-.205.417-.352.417-1.742 0-1.866.017-1.848-1.848-1.848-1.866 0-1.848.017-1.848-1.848 0-1.866.017-1.848-1.848-1.848-1.086 0-1.256.011-1.432.105ZM12.62 101.012a.883.883 0 0 0-.312.311c-.1.182-.105.405-.105 3.28 0 2.874.006 3.097.105 3.279.206.381.352.417 1.743.417 1.865 0 1.848-.018 1.848 1.848 0 1.865.017 1.848-1.848 1.848-1.39 0-1.537.035-1.743.416-.1.188-.105.64-.105 10.672s.006 10.483.105 10.671c.059.112.2.252.311.311.182.1.405.106 3.28.106 2.874 0 3.097-.006 3.28-.106.38-.205.416-.352.416-1.742 0-1.866-.018-1.848 1.848-1.848 1.865 0 1.848.017 1.848-1.848 0-1.866-.018-1.848 1.848-1.848 1.865 0 1.848.017 1.848-1.848 0-1.866-.018-1.848 1.848-1.848 1.865 0 1.848-.018 1.848 1.848 0 1.865.017 1.848-1.848 1.848-1.866 0-1.848-.018-1.848 1.848 0 1.865.017 1.848-1.848 1.848-1.866 0-1.848-.018-1.848 1.848 0 1.39.035 1.537.416 1.742.182.1.405.106 3.28.106 2.874 0 3.097-.006 3.28-.106.38-.205.416-.352.416-1.742 0-1.866-.018-1.848 1.848-1.848 1.865 0 1.848.017 1.848-1.848 0-1.391.035-1.537.416-1.743.182-.099.405-.105 3.28-.105 2.874 0 3.097-.006 3.28-.106a.876.876 0 0 0 .31-.311c.1-.188.106-.463.106-5.127s.006-4.94.105-5.128c.206-.381.352-.416 1.743-.416 1.865 0 1.848.017 1.848-1.848 0-1.866.017-1.848-1.848-1.848-1.866 0-1.848.017-1.848-1.848 0-1.391.035-1.537.416-1.743.182-.099.405-.105 3.28-.105 2.874 0 3.097-.006 3.28-.106.38-.205.416-.352.416-1.742 0-1.391-.035-1.537-.417-1.743-.188-.099-.463-.105-5.127-.105s-4.94.006-5.128.105c-.381.206-.416.352-.416 1.743 0 1.865.017 1.848-1.848 1.848-1.866 0-1.848-.018-1.848 1.848 0 1.865-.018 1.848 1.848 1.848 1.865 0 1.848-.018 1.848 1.848 0 1.865.017 1.848-1.848 1.848-1.866 0-1.848.017-1.848-1.848 0-1.866.017-1.848-1.848-1.848-1.39 0-1.537.035-1.743.416-.1.182-.105.405-.105 3.28 0 2.874-.006 3.097-.106 3.279-.205.381-.352.417-1.742.417-1.39 0-1.537-.036-1.743-.417-.1-.182-.105-.405-.105-3.279 0-2.875-.006-3.098-.106-3.28-.205-.381-.352-.416-1.742-.416-1.39 0-1.537.035-1.743.416-.1.182-.105.405-.105 3.28 0 2.874-.006 3.097-.106 3.279a.876.876 0 0 1-.31.311c-.183.1-.406.106-3.28.106-2.875 0-3.098-.006-3.28-.106-.381-.205-.416-.352-.416-1.742 0-1.866-.018-1.848 1.848-1.848 1.865 0 1.848.017 1.848-1.848 0-1.866-.018-1.848 1.848-1.848 1.39 0 1.537-.036 1.742-.417.1-.182.106-.405.106-3.279 0-2.875-.006-3.098-.106-3.28a.884.884 0 0 0-.31-.311c-.183-.099-.406-.105-3.28-.105-2.875 0-3.098-.006-3.28-.106-.381-.205-.416-.352-.416-1.742 0-1.866.017-1.848-1.848-1.848-1.086 0-1.256.011-1.432.105Zm25.038 18.48c.381.206.417.352.417 1.743 0 1.865.017 1.848-1.848 1.848-1.866 0-1.848.017-1.848-1.848 0-1.866-.018-1.848 1.848-1.848 1.085 0 1.255.011 1.431.105Z"/>
    <path d="M31.1 101.012c-.382.206-.417.352-.417 1.743 0 1.39.035 1.537.416 1.742.182.1.405.106 3.28.106 2.874 0 3.097-.006 3.28-.106.38-.205.416-.352.416-1.742 0-1.391-.036-1.537-.417-1.743-.182-.099-.405-.105-3.28-.105-2.874 0-3.097.006-3.279.105Zm125.663 0c-.381.206-.416.352-.416 1.743 0 1.865.017 1.848-1.848 1.848-1.866 0-1.848-.018-1.848 1.848 0 1.39.035 1.537.416 1.742.182.1.405.106 3.28.106 2.874 0 3.097.005 3.279.105.382.206.417.352.417 1.743 0 1.865-.018 1.848 1.848 1.848 1.39 0 1.537-.036 1.742-.417.1-.182.106-.405.106-3.279 0-2.875-.006-3.098-.106-3.28-.205-.381-.352-.416-1.742-.416-1.866 0-1.848.017-1.848-1.848 0-1.866.017-1.848-1.848-1.848-1.086 0-1.256.011-1.432.105Zm-129.36 3.696c-.381.206-.416.352-.416 1.743 0 1.865-.018 1.848 1.848 1.848 1.865 0 1.848.017 1.848-1.848 0-1.391-.035-1.537-.417-1.743-.176-.093-.346-.105-1.431-.105-1.086 0-1.256.012-1.432.105Zm92.4 3.696c-.381.206-.416.352-.416 1.743 0 1.085.011 1.255.105 1.431.206.381.352.417 1.743.417 1.865 0 1.848.017 1.848-1.848 0-1.391-.035-1.537-.417-1.743-.176-.094-.346-.105-1.431-.105-1.086 0-1.256.011-1.432.105ZM53.275 112.1c-.381.206-.416.352-.416 1.743 0 1.865-.018 1.848 1.848 1.848 1.865 0 1.848.017 1.848-1.848 0-1.391-.035-1.537-.417-1.743-.176-.094-.346-.105-1.431-.105-1.086 0-1.256.011-1.432.105Zm77.616 3.696a.89.89 0 0 0-.311.311c-.099.188-.105.464-.105 5.128s.006 4.94.105 5.127c.206.382.352.417 1.743.417 1.39 0 1.537-.035 1.742-.417.1-.182.106-.405.106-3.279 0-2.875.006-3.098.105-3.28.206-.381.352-.416 1.743-.416 1.865 0 1.848.017 1.848-1.848 0-1.391-.035-1.537-.417-1.743-.182-.099-.405-.105-3.279-.105-2.875 0-3.098.006-3.28.105Zm-11.088 3.696c-.381.206-.416.352-.416 1.743 0 1.39.035 1.537.416 1.742.176.094.346.106 1.432.106 1.865 0 1.848.017 1.848-1.848 0-1.866.017-1.848-1.848-1.848-1.086 0-1.256.011-1.432.105Z"/>
    <path d="M138.283 119.492a.89.89 0 0 0-.311.311c-.099.188-.105.464-.105 5.128s-.006 4.939-.106 5.127a.874.874 0 0 1-.311.311c-.182.1-.405.106-3.279.106-2.875 0-3.098.006-3.28.105a.89.89 0 0 0-.311.311c-.099.188-.105.522-.105 6.976 0 6.453-.006 6.787-.106 6.975-.205.382-.352.417-1.742.417-1.866 0-1.848-.018-1.848 1.848 0 1.865.017 1.848-1.848 1.848-1.866 0-1.848-.018-1.848 1.848 0 1.39-.035 1.537-.417 1.742-.188.1-.463.106-5.127.106s-4.94.006-5.128.105a.89.89 0 0 0-.311.311c-.099.188-.105.464-.105 5.128s.006 4.94.105 5.127c.206.382.352.417 1.743.417 1.39 0 1.537-.035 1.742-.417.1-.182.106-.405.106-3.279 0-2.875.006-3.098.105-3.28a.89.89 0 0 1 .311-.311c.182-.099.405-.105 3.28-.105 2.874 0 3.097.006 3.279.105.382.206.417.352.417 1.743 0 1.865.017 1.848-1.848 1.848-1.866 0-1.848-.018-1.848 1.848 0 1.39.035 1.537.416 1.742.182.1.405.106 3.28.106 2.874 0 3.097-.006 3.279-.106a.866.866 0 0 0 .311-.311c.1-.182.106-.405.106-3.279 0-2.875.006-3.098.105-3.28.206-.381.352-.416 1.743-.416 1.39 0 1.537-.035 1.742-.417.1-.182.106-.405.106-3.279 0-2.875.006-3.098.105-3.28.206-.381.352-.416 1.743-.416 1.865 0 1.848-.018 1.848 1.848 0 1.39.035 1.537.416 1.742.182.1.405.106 3.28.106 2.874 0 3.097-.006 3.279-.106.382-.205.417-.352.417-1.742 0-1.391.035-1.537.416-1.743.188-.099.464-.105 5.128-.105s4.939.006 5.127.105c.382.206.417.352.417 1.743 0 1.39-.035 1.537-.417 1.742-.182.1-.405.106-3.279.106-2.875 0-3.098.006-3.28.105-.381.206-.416.352-.416 1.743 0 1.865-.018 1.848 1.848 1.848 1.865 0 1.848-.018 1.848 1.848 0 1.865-.018 1.848 1.848 1.848 1.865 0 1.848.017 1.848-1.848 0-1.866-.018-1.848 1.848-1.848 1.865 0 1.848-.018 1.848 1.848 0 1.865-.018 1.848 1.848 1.848 1.865 0 1.848.017 1.848-1.848 0-1.866-.018-1.848 1.848-1.848 1.865 0 1.848.017 1.848-1.848 0-1.866.017-1.848-1.848-1.848-1.866 0-1.848.017-1.848-1.848 0-1.866.017-1.848-1.848-1.848-1.391 0-1.537-.035-1.743-.417-.099-.182-.105-.405-.105-3.279 0-2.875-.006-3.098-.106-3.28a.882.882 0 0 0-.311-.311c-.182-.099-.405-.105-3.279-.105-2.875 0-3.098-.006-3.28-.106-.381-.205-.416-.352-.416-1.742 0-1.391.035-1.537.416-1.743.188-.099.522-.105 6.976-.105 6.453 0 6.788-.006 6.975-.106a.866.866 0 0 0 .311-.311c.1-.188.106-.581.106-8.823 0-8.243-.006-8.636-.106-8.824-.205-.381-.352-.416-1.742-.416-1.866 0-1.848-.018-1.848 1.848 0 1.865.017 1.848-1.848 1.848-1.866 0-1.848-.018-1.848 1.848 0 1.865-.018 1.848 1.848 1.848 1.865 0 1.848-.018 1.848 1.848 0 1.865.017 1.848-1.848 1.848-1.866 0-1.848-.018-1.848 1.848 0 1.39-.035 1.537-.417 1.742-.182.1-.405.106-3.279.106-2.875 0-3.098-.006-3.28-.106a.882.882 0 0 1-.311-.311c-.099-.182-.105-.405-.105-3.279 0-2.875-.006-3.098-.106-3.28a.882.882 0 0 0-.311-.311c-.182-.099-.405-.105-3.279-.105-2.875 0-3.098-.006-3.28-.106-.381-.205-.416-.352-.416-1.742 0-1.391.035-1.537.416-1.743.182-.099.405-.105 3.28-.105 2.874 0 3.097.006 3.279.105.382.206.417.352.417 1.743 0 1.865-.018 1.848 1.848 1.848 1.39 0 1.537-.035 1.742-.417.1-.182.106-.405.106-3.279 0-2.875-.006-3.098-.106-3.28a.882.882 0 0 0-.311-.311c-.188-.099-.522-.105-6.975-.105-6.454 0-6.788.006-6.976.105Zm6.559 14.784c.112.059.252.2.311.311.1.188.106.464.106 5.128s-.006 4.939-.106 5.127a.874.874 0 0 1-.311.311c-.188.1-.463.106-5.127.106s-4.94-.006-5.128-.106a.882.882 0 0 1-.311-.311c-.099-.188-.105-.463-.105-5.127s.006-4.94.105-5.128a.89.89 0 0 1 .311-.311c.188-.099.464-.105 5.128-.105s4.939.006 5.127.105Z"/>
    <path d="M138.283 137.972c-.381.206-.416.352-.416 1.743 0 1.865-.018 1.848 1.848 1.848 1.865 0 1.848.017 1.848-1.848 0-1.866.017-1.848-1.848-1.848-1.086 0-1.256.011-1.432.105Zm-92.4-14.784c-.381.206-.416.352-.416 1.743 0 1.865-.018 1.848 1.848 1.848 1.865 0 1.848.017 1.848-1.848 0-1.086-.012-1.256-.106-1.432-.205-.381-.352-.416-1.742-.416-1.086 0-1.256.012-1.432.105Z"/>
    <path d="M53.275 123.188c-.381.206-.416.352-.416 1.743 0 1.865.017 1.848-1.848 1.848-1.866 0-1.848-.018-1.848 1.848 0 1.39-.035 1.537-.417 1.742-.182.1-.405.106-3.28.106-2.874 0-3.097.006-3.279.105a.885.885 0 0 0-.31.311c-.1.188-.106.464-.106 5.128s.006 4.94.105 5.127c.206.382.352.417 1.743.417 1.39 0 1.537-.035 1.742-.417.1-.182.106-.405.106-3.279 0-2.875.006-3.098.105-3.28.206-.381.352-.416 1.743-.416 1.39 0 1.537.035 1.742.416.1.182.106.405.106 3.28 0 2.874.006 3.097.105 3.279.206.382.352.417 1.743.417 1.39 0 1.537-.035 1.742-.417.1-.187.106-.463.106-5.127s.006-4.94.105-5.128c.206-.381.352-.416 1.743-.416 1.865 0 1.848-.018 1.848 1.848 0 1.865-.018 1.848 1.848 1.848 1.39 0 1.537.035 1.742.416.1.182.106.405.106 3.28 0 2.874-.006 3.097-.106 3.279-.205.382-.352.417-1.742.417-1.39 0-1.537.035-1.743.416-.1.182-.105.405-.105 3.28 0 2.874.006 3.097.105 3.279.206.382.352.417 1.743.417 1.865 0 1.848.017 1.848-1.848 0-1.391.035-1.537.416-1.743.188-.099.464-.105 5.128-.105s4.94.006 5.127.105c.382.206.417.352.417 1.743 0 1.865-.018 1.848 1.848 1.848 1.865 0 1.848.017 1.848-1.848 0-1.391.035-1.537.416-1.743.188-.099.464-.105 5.128-.105s4.94-.006 5.127-.106c.382-.205.417-.352.417-1.742 0-1.866.017-1.848-1.848-1.848-1.866 0-1.848.017-1.848-1.848 0-1.391-.036-1.537-.417-1.743-.182-.099-.405-.105-3.28-.105-2.874 0-3.097.006-3.279.105-.381.206-.416.352-.416 1.743 0 1.39-.035 1.537-.417 1.742-.188.1-.463.106-5.127.106s-4.94-.006-5.128-.106a.869.869 0 0 1-.31-.311c-.1-.182-.106-.405-.106-3.279 0-2.875.006-3.098.105-3.28.206-.381.352-.416 1.743-.416 1.39 0 1.537-.035 1.742-.417.1-.182.106-.405.106-3.279 0-2.875-.006-3.098-.106-3.28-.205-.381-.352-.416-1.742-.416-1.866 0-1.848-.018-1.848 1.848 0 1.865.017 1.848-1.848 1.848-1.866 0-1.848.017-1.848-1.848 0-1.086-.012-1.256-.106-1.432-.205-.381-.352-.416-1.742-.416-1.866 0-1.848.017-1.848-1.848 0-1.391-.035-1.537-.417-1.743-.176-.093-.346-.105-1.431-.105-1.086 0-1.256.012-1.432.105Z"/>
    <path d="M71.755 126.884a.885.885 0 0 0-.31.311c-.1.188-.106.464-.106 5.128s.006 4.939.105 5.127c.206.381.352.417 1.743.417 1.865 0 1.848.017 1.848-1.848 0-1.866-.018-1.848 1.848-1.848 1.39 0 1.537-.036 1.742-.417.1-.182.106-.405.106-3.279 0-2.875-.006-3.098-.106-3.28a.883.883 0 0 0-.31-.311c-.183-.099-.406-.105-3.28-.105-2.875 0-3.098.006-3.28.105Zm11.088 0a.885.885 0 0 0-.31.311c-.1.182-.106.405-.106 3.28 0 2.874.006 3.097.105 3.279.059.112.2.252.311.311.188.1.464.106 5.128.106s4.94-.006 5.127-.106c.382-.205.417-.352.417-1.742 0-1.866-.018-1.848 1.848-1.848 1.865 0 1.848.017 1.848-1.848 0-1.391-.035-1.537-.417-1.743-.182-.099-.405-.105-3.28-.105-2.874 0-3.097.006-3.279.105-.381.206-.416.352-.416 1.743 0 1.865.017 1.848-1.848 1.848-1.866 0-1.848.017-1.848-1.848 0-1.086-.012-1.256-.106-1.432-.205-.381-.352-.416-1.742-.416-1.086 0-1.256.011-1.432.105Zm25.872 0c-.381.206-.416.352-.416 1.743 0 1.865.017 1.848-1.848 1.848-1.391 0-1.537.035-1.743.416-.099.188-.105.464-.105 5.128s.006 4.939.105 5.127c.059.112.2.252.311.311.182.1.405.106 3.28.106 2.874 0 3.097-.006 3.279-.106a.874.874 0 0 0 .311-.311c.1-.182.106-.405.106-3.279 0-2.875.006-3.098.105-3.28.206-.381.352-.416 1.743-.416 1.865 0 1.848-.018 1.848 1.848 0 1.39.035 1.537.416 1.742.188.1.464.106 5.128.106s4.939-.006 5.127-.106c.382-.205.417-.352.417-1.742 0-1.391-.035-1.537-.417-1.743-.182-.099-.405-.105-3.279-.105-2.875 0-3.098-.006-3.28-.106-.381-.205-.416-.352-.416-1.742 0-1.391-.035-1.537-.417-1.743-.182-.099-.405-.105-3.279-.105-2.875 0-3.098-.006-3.28-.106-.381-.205-.416-.352-.416-1.742 0-1.866.017-1.848-1.848-1.848-1.086 0-1.256.011-1.432.105Zm44.352 0c-.381.206-.416.352-.416 1.743 0 1.865-.018 1.848 1.848 1.848 1.865 0 1.848.017 1.848-1.848 0-1.866.017-1.848-1.848-1.848-1.086 0-1.256.012-1.432.105ZM34.795 130.58c-.381.206-.416.352-.416 1.743 0 1.865-.018 1.848 1.848 1.848 1.865 0 1.848.017 1.848-1.848 0-1.391-.036-1.537-.417-1.743-.176-.094-.346-.105-1.431-.105-1.086 0-1.256.011-1.432.105Zm62.832 0a.884.884 0 0 0-.31.311c-.1.182-.106.405-.106 3.28 0 2.874.006 3.097.105 3.279.206.381.352.417 1.743.417 1.39 0 1.537-.036 1.742-.417.1-.182.106-.405.106-3.279 0-2.875-.006-3.098-.106-3.28-.205-.381-.352-.416-1.742-.416-1.086 0-1.256.011-1.432.105Zm-85.007 7.392a.883.883 0 0 0-.312.311c-.1.188-.105.698-.105 12.52 0 11.821.006 12.332.105 12.519.059.112.2.253.311.311.188.1.698.106 12.52.106 11.821 0 12.331-.006 12.52-.106a.868.868 0 0 0 .31-.311c.1-.187.106-.698.106-12.519 0-11.822-.006-12.332-.106-12.52a.884.884 0 0 0-.31-.311c-.189-.099-.699-.105-12.52-.105-11.822 0-12.332.006-12.52.105Zm21.612 3.737.147.141v17.905l-.147.141-.14.147H16.185l-.14-.147-.147-.141V141.85l.146-.141.141-.146H34.09l.141.146Z"/>
    <path d="M20.011 145.364a.883.883 0 0 0-.31.311c-.1.188-.106.464-.106 5.128s.006 4.939.105 5.127c.059.112.2.252.311.311.188.1.464.106 5.128.106s4.94-.006 5.127-.106a.876.876 0 0 0 .311-.311c.1-.188.106-.463.106-5.127s-.006-4.94-.106-5.128a.885.885 0 0 0-.31-.311c-.189-.099-.464-.105-5.128-.105s-4.94.006-5.128.105Zm66.529-7.392c-.382.206-.417.352-.417 1.743 0 1.39.035 1.537.416 1.742.182.1.405.106 3.28.106 2.874 0 3.097-.006 3.28-.106.38-.205.416-.352.416-1.742 0-1.391-.035-1.537-.417-1.743-.182-.099-.405-.105-3.28-.105-2.874 0-3.097.006-3.279.105Zm25.871 3.696c-.381.206-.416.352-.416 1.743 0 1.39-.035 1.537-.417 1.742-.182.1-.405.106-3.279.106-2.875 0-3.098.006-3.28.105-.381.206-.416.352-.416 1.743 0 1.865.017 1.848-1.848 1.848-1.866 0-1.848.017-1.848-1.848 0-1.391-.035-1.537-.417-1.743-.188-.099-.463-.105-5.127-.105s-4.94.006-5.128.105c-.381.206-.416.352-.416 1.743 0 1.39-.035 1.537-.417 1.742-.182.1-.405.106-3.28.106-2.874 0-3.097.006-3.279.105-.381.206-.416.352-.416 1.743 0 1.39.035 1.537.416 1.742.182.1.405.106 3.28.106 2.874 0 3.097.006 3.28.105.38.206.416.352.416 1.743 0 1.865-.018 1.848 1.848 1.848 1.39 0 1.537-.036 1.742-.417.1-.182.106-.405.106-3.279 0-2.875.006-3.098.105-3.28.206-.381.352-.416 1.743-.416 1.865 0 1.848-.018 1.848 1.848 0 1.39.035 1.537.416 1.742.188.1.522.106 6.976.106 6.453 0 6.787-.006 6.975-.106.382-.205.417-.352.417-1.742 0-1.866-.018-1.848 1.848-1.848 1.39 0 1.537-.036 1.742-.417.1-.182.106-.405.106-3.279 0-2.875-.006-3.098-.106-3.28-.205-.381-.352-.416-1.742-.416-1.086 0-1.256.011-1.432.105Zm11.088 0c-.381.206-.416.352-.416 1.743 0 1.865-.018 1.848 1.848 1.848 1.865 0 1.848.017 1.848-1.848 0-1.866.017-1.848-1.848-1.848-1.086 0-1.256.012-1.432.105Zm-81.312 3.696a.885.885 0 0 0-.31.311c-.1.182-.106.405-.106 3.28s.006 3.097.105 3.279c.206.382.352.417 1.743.417 1.865 0 1.848.017 1.848-1.848 0-1.866-.018-1.848 1.848-1.848 1.865 0 1.848-.018 1.848 1.848 0 1.865-.018 1.848 1.848 1.848 1.39 0 1.537-.035 1.742-.417.1-.182.106-.404.106-3.279s-.006-3.098-.106-3.28a.885.885 0 0 0-.31-.311c-.189-.099-.464-.105-5.128-.105s-4.94.006-5.128.105Z"/>
    <path d="M119.803 145.364c-.381.206-.416.352-.416 1.743 0 1.865-.018 1.848 1.848 1.848 1.865 0 1.848.017 1.848-1.848 0-1.866.017-1.848-1.848-1.848-1.086 0-1.256.012-1.432.105Zm40.656 0c-.381.206-.416.352-.416 1.743 0 1.865-.018 1.848 1.848 1.848 1.865 0 1.848.017 1.848-1.848 0-1.866.017-1.848-1.848-1.848-1.086 0-1.256.012-1.432.105Zm-96.096 3.696c-.381.206-.416.352-.416 1.743 0 1.39-.036 1.537-.417 1.742-.188.1-.463.106-5.127.106s-4.94.006-5.128.105c-.381.206-.416.352-.416 1.743 0 1.865.017 1.848-1.848 1.848-1.866 0-1.848.017-1.848-1.848 0-1.866.017-1.848-1.848-1.848-1.39 0-1.537.035-1.743.416-.1.182-.105.405-.105 3.28 0 2.874.006 3.097.105 3.279.059.112.2.252.311.311.182.1.405.106 3.28.106 2.874 0 3.097.006 3.28.105.38.206.416.352.416 1.743 0 1.39.035 1.537.416 1.742.182.1.405.106 3.28.106 2.874 0 3.097-.006 3.28-.106.38-.205.416-.352.416-1.742 0-1.866.017-1.848-1.848-1.848-1.866 0-1.848.017-1.848-1.848 0-1.866-.018-1.848 1.848-1.848 1.865 0 1.848-.018 1.848 1.848 0 1.39.035 1.537.416 1.742.188.1.581.106 8.824.106 8.242 0 8.635.006 8.823.105.382.206.417.352.417 1.743 0 1.865-.018 1.848 1.848 1.848 1.39 0 1.537-.035 1.742-.417.1-.188.106-.463.106-5.127s-.006-4.94-.106-5.128c-.205-.381-.352-.416-1.742-.416-1.866 0-1.848-.018-1.848 1.848 0 1.39-.035 1.537-.417 1.742-.182.1-.405.106-3.28.106-2.874 0-3.097-.006-3.279-.106-.381-.205-.416-.352-.416-1.742 0-1.866.017-1.848-1.848-1.848-1.866 0-1.848.017-1.848-1.848 0-1.866.017-1.848-1.848-1.848-1.086 0-1.256.011-1.432.105Zm22.177 7.392c-.382.206-.417.352-.417 1.743 0 1.865-.018 1.848 1.848 1.848 1.865 0 1.848.017 1.848-1.848 0-1.866.017-1.848-1.848-1.848-1.086 0-1.256.011-1.432.105Zm14.783 0c-.381.206-.416.352-.416 1.743 0 1.865-.018 1.848 1.848 1.848 1.865 0 1.848.017 1.848-1.848 0-1.866.017-1.848-1.848-1.848-1.086 0-1.256.011-1.432.105Zm29.568 0c-.381.206-.416.352-.416 1.743 0 1.865-.018 1.848 1.848 1.848 1.865 0 1.848-.018 1.848 1.848 0 1.39.035 1.537.416 1.742.182.1.405.106 3.28.106 2.874 0 3.097-.006 3.279-.106.382-.205.417-.352.417-1.742 0-1.866-.018-1.848 1.848-1.848 1.865 0 1.848.017 1.848-1.848 0-1.391-.035-1.537-.417-1.743-.188-.099-.522-.105-6.975-.105-6.454 0-6.788.006-6.976.105Zm14.784 3.696c-.381.206-.416.352-.416 1.743 0 1.865-.018 1.848 1.848 1.848 1.865 0 1.848.017 1.848-1.848 0-1.866.017-1.848-1.848-1.848-1.086 0-1.256.011-1.432.105Zm7.392 0c-.381.206-.416.352-.416 1.743 0 1.865-.018 1.848 1.848 1.848 1.865 0 1.848.017 1.848-1.848 0-1.866.017-1.848-1.848-1.848-1.086 0-1.256.011-1.432.105Z"/>
  </g>
  <defs>
    <clipPath id="prefix__a">
      <path fill="#fff" d="M0 0h176v176H0z"/>
    </clipPath>
  </defs>
</svg>
