<svg fill="none" viewBox="0 0 16 16">
  <g clip-path="url(#prefix__a)">
    <path fill="#333" d="M7.38 8.567c.513-.927 1.5-1.474 2.073-2.294.607-.86.267-2.466-1.453-2.466-1.127 0-1.68.853-1.913 1.56L4.36 4.64C4.833 3.22 6.12 2 7.993 2c1.567 0 2.64.713 3.187 1.607.467.766.74 2.2.02 3.266-.8 1.18-1.567 1.54-1.98 2.3-.167.307-.233.507-.233 1.494H7.06c-.007-.52-.087-1.367.32-2.1m1.953 4.766c0 .734-.6 1.334-1.333 1.334s-1.333-.6-1.333-1.334C6.667 12.6 7.267 12 8 12s1.333.6 1.333 1.333"/>
  </g>
  <defs>
    <clipPath id="prefix__a">
      <path fill="#fff" d="M0 0h16v16H0z"/>
    </clipPath>
  </defs>
</svg>
