<svg xmlns="http://www.w3.org/2000/svg" fill="none" viewBox="0 0 16 16">
  <path fill="#333" fill-rule="evenodd" d="M7.52 2.028a3.63 3.63 0 0 0-2.136 1.005c-.302.29-.5.539-.684.86-.157.275-.336.684-.318.73.012.032 1.693.754 1.707.734.004-.006.04-.095.08-.199a2.6 2.6 0 0 1 .542-.83c.149-.147.252-.22.442-.314.334-.165.56-.21.967-.192.515.022.88.165 1.173.458.455.455.564 1.171.272 1.786-.134.281-.345.522-1.073 1.227-.369.358-.742.746-.845.879-.333.431-.52.909-.58 1.481a5 5 0 0 0-.01.89l.017.124h1.913v-.22c0-.35.052-.82.111-.993.059-.175.211-.449.341-.614.046-.059.339-.365.65-.68 1.135-1.15 1.448-1.669 1.538-2.547a3.5 3.5 0 0 0-.442-1.992c-.321-.539-.902-1.035-1.521-1.299a4.4 4.4 0 0 0-.891-.254 6 6 0 0 0-1.253-.04m.267 9.988c-.536.099-.983.528-1.091 1.045a1.35 1.35 0 0 0 1.032 1.576c.444.093.881-.041 1.207-.368.417-.418.511-1.001.25-1.541-.135-.277-.422-.527-.744-.646a1.8 1.8 0 0 0-.654-.066"/>
</svg>
