<svg xmlns="http://www.w3.org/2000/svg" viewBox="0 0 11 11"><path d="M4.813 0.019 C 3.828 0.089,2.867 0.452,2.055 1.059 C 1.761 1.278,1.266 1.776,1.042 2.076 C 0.505 2.797,0.164 3.627,0.043 4.510 C 0.004 4.794,-0.002 5.596,0.034 5.821 C 0.189 6.812,0.497 7.576,1.022 8.277 C 1.923 9.479,3.214 10.211,4.691 10.358 C 4.961 10.385,5.467 10.381,5.760 10.350 C 6.214 10.301,6.722 10.176,7.110 10.017 C 7.546 9.837,8.115 9.503,8.462 9.222 C 8.639 9.078,9.082 8.635,9.224 8.460 C 9.799 7.749,10.191 6.850,10.333 5.918 C 10.371 5.662,10.387 4.972,10.360 4.708 C 10.289 4.009,10.124 3.447,9.807 2.821 C 9.281 1.784,8.318 0.885,7.242 0.425 C 6.482 0.100,5.640 -0.041,4.813 0.019 M5.638 2.447 C 6.356 2.584,6.973 3.144,7.134 3.804 C 7.183 4.006,7.188 4.340,7.144 4.540 C 7.066 4.902,6.846 5.260,6.554 5.497 C 6.318 5.690,6.145 5.783,5.823 5.893 L 5.604 5.968 5.573 6.063 C 5.510 6.257,5.376 6.362,5.190 6.362 C 5.066 6.362,4.934 6.293,4.864 6.192 L 4.814 6.119 4.813 5.784 L 4.813 5.448 4.868 5.370 C 4.944 5.261,5.049 5.213,5.262 5.189 C 5.640 5.146,5.883 5.041,6.096 4.831 C 6.386 4.545,6.464 4.187,6.310 3.846 C 6.218 3.642,6.019 3.449,5.785 3.337 C 5.581 3.240,5.464 3.217,5.170 3.219 C 4.934 3.220,4.888 3.226,4.755 3.270 C 4.488 3.357,4.206 3.580,4.101 3.788 C 4.036 3.917,4.018 3.998,3.997 4.253 C 3.975 4.524,3.956 4.600,3.893 4.675 C 3.736 4.862,3.417 4.847,3.277 4.646 C 3.134 4.441,3.179 3.883,3.372 3.474 C 3.453 3.302,3.628 3.063,3.763 2.942 C 4.065 2.670,4.509 2.465,4.895 2.420 C 5.067 2.400,5.468 2.415,5.638 2.447 M5.419 7.259 C 5.549 7.319,5.655 7.420,5.708 7.535 C 5.764 7.658,5.762 7.934,5.704 8.045 C 5.645 8.159,5.515 8.282,5.396 8.336 C 5.307 8.377,5.277 8.382,5.145 8.374 C 4.912 8.362,4.741 8.252,4.635 8.048 C 4.599 7.979,4.593 7.938,4.593 7.792 C 4.593 7.593,4.627 7.499,4.740 7.382 C 4.925 7.192,5.172 7.147,5.419 7.259 " stroke="none" fill-rule="evenodd" fill="black"></path></svg>