<svg xmlns="http://www.w3.org/2000/svg" xml:space="preserve" fill="none" viewBox="0 0 20 20">
  <path fill="#000" fill-rule="evenodd" d="M9.133 1.806c-.984.092-2.201.473-3.086.965C4.179 3.81 2.848 5.41 2.184 7.414a8.24 8.24 0 0 0 2.649 9.006c1.864 1.51 4.391 2.13 6.767 1.661A8.23 8.23 0 0 0 18.233 10a8.24 8.24 0 0 0-3.066-6.42A8.35 8.35 0 0 0 10.8 1.802a11 11 0 0 0-1.667.004m1.884 1.51c2.618.405 4.812 2.354 5.496 4.884.382 1.414.315 2.878-.195 4.2a6.82 6.82 0 0 1-5.33 4.29c-.505.078-1.471.078-1.976 0a6.82 6.82 0 0 1-5.316-4.249 8 8 0 0 1-.386-1.453c-.078-.505-.078-1.471 0-1.976A6.81 6.81 0 0 1 7.6 3.681a7.6 7.6 0 0 1 1.5-.378l.417-.05c.199-.029 1.174.013 1.5.063M9.7 5.535a2.7 2.7 0 0 0-1.017.299 2.8 2.8 0 0 0-1.299 1.309 2.6 2.6 0 0 0-.295 1.174c-.005.307.001.345.084.486a.74.74 0 0 0 1.115.188c.161-.141.234-.302.262-.574.045-.455.163-.724.437-.996A1.4 1.4 0 0 1 10 7c.795 0 1.434.638 1.433 1.43-.001.426-.119.713-.418 1.018-.252.256-.499.37-.934.43-.362.051-.482.098-.621.244-.164.173-.193.298-.193.819.001.554.037.672.266.867a.71.71 0 0 0 .934 0c.144-.123.264-.333.266-.462 0-.057.037-.084.174-.128 1.94-.635 2.642-3.012 1.363-4.616-.604-.759-1.572-1.16-2.57-1.067m-.017 7.827a.9.9 0 0 0-.416.455.85.85 0 0 0 .09.663c.225.319.596.433.937.286.772-.332.538-1.469-.301-1.465a.9.9 0 0 0-.31.061"/>
</svg>
