<svg xmlns="http://www.w3.org/2000/svg" xml:space="preserve" fill="none" viewBox="0 0 16 16"><path d="M7.808 1.289 C 7.550 1.361,7.357 1.559,7.289 1.820 C 7.260 1.933,7.253 2.669,7.253 5.825 L 7.253 9.692 5.607 8.048 C 4.206 6.649,3.938 6.393,3.813 6.335 C 3.450 6.166,3.020 6.315,2.842 6.672 C 2.746 6.865,2.745 7.133,2.839 7.321 C 2.928 7.499,7.497 12.069,7.680 12.163 C 7.850 12.251,8.150 12.251,8.320 12.163 C 8.503 12.069,13.072 7.499,13.161 7.321 C 13.255 7.133,13.254 6.865,13.158 6.672 C 12.980 6.315,12.550 6.166,12.187 6.335 C 12.062 6.393,11.794 6.649,10.394 8.047 L 8.748 9.691 8.740 5.759 L 8.733 1.827 8.677 1.704 C 8.524 1.375,8.147 1.195,7.808 1.289 M2.257 12.801 C 2.139 12.836,1.985 12.953,1.906 13.067 C 1.686 13.385,1.716 13.746,1.985 14.015 C 2.232 14.262,1.636 14.240,8.000 14.240 C 14.365 14.240,13.768 14.262,14.016 14.014 C 14.185 13.845,14.253 13.665,14.233 13.441 C 14.211 13.194,14.052 12.954,13.833 12.834 C 13.751 12.789,13.441 12.786,8.040 12.782 C 4.899 12.780,2.299 12.788,2.257 12.801 " stroke="none" fill-rule="evenodd" fill="black"></path></svg>