<svg xmlns="http://www.w3.org/2000/svg" xml:space="preserve" fill="none" viewBox="0 0 17 16"><path d="M8.429 1.822 C 8.351 1.859,8.240 1.942,8.183 2.006 C 7.977 2.234,7.990 1.894,7.990 7.052 L 7.990 11.686 6.340 10.038 C 4.993 8.693,4.664 8.378,4.550 8.328 C 4.372 8.249,4.104 8.247,3.933 8.323 C 3.782 8.391,3.590 8.595,3.540 8.743 C 3.487 8.896,3.496 9.176,3.557 9.310 C 3.621 9.452,8.235 14.085,8.401 14.175 C 8.553 14.257,8.918 14.262,9.067 14.185 C 9.121 14.156,10.215 13.085,11.498 11.805 C 13.271 10.036,13.848 9.444,13.904 9.336 C 14.052 9.048,13.984 8.679,13.743 8.462 C 13.583 8.318,13.459 8.269,13.246 8.268 C 12.908 8.266,12.957 8.225,11.142 10.038 L 9.492 11.687 9.492 7.053 C 9.492 1.961,9.502 2.252,9.320 2.033 C 9.178 1.861,9.009 1.778,8.773 1.765 C 8.603 1.755,8.548 1.765,8.429 1.822 " stroke="none" fill-rule="evenodd" fill="black"></path></svg>