<svg xmlns="http://www.w3.org/2000/svg" xml:space="preserve" style="fill-rule:evenodd;clip-rule:evenodd;stroke-linejoin:round;stroke-miterlimit:2" viewBox="0 0 48 48"><path d="M22.160 8.005 C 19.192 8.321,15.880 9.751,13.596 11.703 C 13.268 11.983,11.983 13.213,10.740 14.435 L 8.480 16.657 8.480 13.584 L 8.480 10.510 8.260 10.305 C 7.710 9.792,7.153 9.798,6.680 10.320 C 6.524 10.492,6.520 10.611,6.520 15.055 L 6.520 19.613 6.773 19.839 C 7.131 20.159,7.411 20.175,12.040 20.146 L 16.040 20.120 16.294 19.939 C 16.788 19.587,16.826 18.938,16.384 18.434 L 16.143 18.160 13.012 18.160 L 9.881 18.160 12.001 16.036 C 13.166 14.867,14.420 13.652,14.786 13.336 C 16.580 11.784,18.918 10.637,21.253 10.165 C 21.940 10.025,22.364 10.000,24.000 10.000 C 26.174 10.000,26.844 10.092,28.400 10.607 C 33.209 12.196,36.829 16.279,37.835 21.253 C 38.075 22.437,38.076 25.563,37.836 26.738 C 37.182 29.947,35.414 32.897,32.939 34.906 C 28.775 38.288,23.338 39.054,18.413 36.952 C 17.049 36.370,15.905 35.643,14.640 34.556 C 13.720 33.765,13.476 33.643,13.041 33.760 C 12.503 33.905,12.189 34.531,12.400 35.040 C 12.598 35.519,14.389 37.031,15.640 37.777 C 17.441 38.850,19.672 39.650,21.725 39.959 C 22.778 40.118,25.222 40.118,26.275 39.959 C 28.978 39.552,31.698 38.397,33.880 36.731 C 34.535 36.231,35.921 34.881,36.477 34.200 C 38.076 32.244,39.327 29.560,39.855 26.953 C 40.020 26.141,40.040 25.815,40.040 24.000 C 40.040 22.183,40.020 21.860,39.854 21.044 C 39.454 19.064,38.519 16.765,37.463 15.160 C 34.805 11.122,30.393 8.451,25.640 8.003 C 24.644 7.909,23.053 7.910,22.160 8.005 " stroke="none" fill-rule="evenodd" fill="black"></path></svg>