<svg xmlns="http://www.w3.org/2000/svg" xml:space="preserve" fill="none" viewBox="0 0 24 24"><path d="M10.200 2.028 C 6.759 2.287,3.766 4.550,2.543 7.816 C 1.907 9.513,1.833 11.546,2.342 13.303 C 2.757 14.735,3.465 15.960,4.497 17.031 C 5.237 17.800,6.024 18.373,6.980 18.839 C 8.279 19.472,9.427 19.736,10.880 19.736 C 12.679 19.736,14.283 19.256,15.746 18.280 C 16.007 18.105,16.262 17.932,16.313 17.895 C 16.405 17.827,16.407 17.829,18.433 19.850 C 20.382 21.795,20.468 21.875,20.677 21.936 C 20.948 22.016,21.013 22.016,21.283 21.936 C 21.581 21.847,21.847 21.581,21.936 21.283 C 22.016 21.013,22.016 20.948,21.936 20.677 C 21.875 20.468,21.795 20.382,19.848 18.431 L 17.824 16.402 17.922 16.271 C 18.845 15.045,19.428 13.657,19.666 12.119 C 19.762 11.492,19.763 10.272,19.666 9.640 C 19.372 7.717,18.565 6.074,17.242 4.705 C 15.423 2.824,12.810 1.831,10.200 2.028 M11.566 4.042 C 13.619 4.252,15.432 5.343,16.581 7.060 C 18.880 10.496,17.634 15.194,13.940 17.017 C 13.084 17.440,12.350 17.644,11.391 17.727 C 9.740 17.870,7.996 17.344,6.660 16.300 C 4.235 14.404,3.361 11.162,4.505 8.308 C 5.202 6.571,6.571 5.202,8.308 4.505 C 9.353 4.086,10.458 3.929,11.566 4.042 " fill="currentColor" stroke="none" fill-rule="evenodd"></path></svg>