<svg xmlns="http://www.w3.org/2000/svg" xml:space="preserve" fill="none" viewBox="0 0 24 24">
  <path fill="currentColor" fill-rule="evenodd" d="M10.2 2.028c-3.441.259-6.434 2.522-7.657 5.788-.636 1.697-.71 3.73-.201 5.487a8.8 8.8 0 0 0 2.155 3.728 8.5 8.5 0 0 0 2.483 1.808c1.299.633 2.447.897 3.9.897 1.799 0 3.403-.48 4.866-1.456.261-.175.516-.348.567-.385.092-.068.094-.066 2.12 1.955 1.949 1.945 2.035 2.025 2.244 2.086.271.08.336.08.606 0 .298-.089.564-.355.653-.653.08-.27.08-.335 0-.606-.061-.209-.141-.295-2.088-2.246l-2.024-2.029.098-.131a9.1 9.1 0 0 0 1.744-4.152c.096-.627.097-1.847 0-2.479q-.44-2.883-2.424-4.935A8.93 8.93 0 0 0 10.2 2.028m1.366 2.014a6.83 6.83 0 0 1 5.015 3.018c2.299 3.436 1.053 8.134-2.641 9.957a6.6 6.6 0 0 1-2.549.71c-1.651.143-3.395-.383-4.731-1.427a6.87 6.87 0 0 1-2.155-7.992 6.83 6.83 0 0 1 3.803-3.803 6.84 6.84 0 0 1 3.258-.463"/>
</svg>
