<svg width="32" height="33" viewBox="0 0 32 33" fill="none" xmlns="http://www.w3.org/2000/svg">
    <path fill-rule="evenodd" clip-rule="evenodd" d="M0.25 14.625C0.25 6.96179 6.46179 0.75 14.125 0.75C21.7882 0.75 28 6.96179 28 14.625C28 18.1867 26.6581 21.4349 24.4523 23.8916L31.5303 30.9697C31.8232 31.2626 31.8232 31.7374 31.5303 32.0303C31.2374 32.3232 30.7626 32.3232 30.4697 32.0303L23.3916 24.9523C20.9349 27.1581 17.6867 28.5 14.125 28.5C6.46179 28.5 0.25 22.2882 0.25 14.625ZM14.125 2.25C7.29021 2.25 1.75 7.79021 1.75 14.625C1.75 21.4598 7.29021 27 14.125 27C20.9598 27 26.5 21.4598 26.5 14.625C26.5 7.79021 20.9598 2.25 14.125 2.25Z" fill="black"/>
</svg>
