<svg xmlns="http://www.w3.org/2000/svg" xml:space="preserve" style="fill-rule:evenodd;clip-rule:evenodd;stroke-linejoin:round;stroke-miterlimit:2" viewBox="0 0 48 49">
  <path d="M6.435 8.845c-.592.356-.872.618-1.133 1.061-.2.339-.206.392-.269 2.48-.035 1.174-.065 6.544-.066 11.934-.003 9.035.065 13.958.202 14.628.062.305.801 1.151 1.175 1.344.162.084.636.146 1.487.193 1.629.09 30.709.09 32.338 0 .851-.047 1.325-.109 1.487-.193.373-.193 1.113-1.038 1.176-1.344.133-.645.203-5.749.201-14.708-.002-5.302-.031-10.618-.066-11.813-.062-2.133-.067-2.179-.268-2.52-.262-.444-.542-.706-1.134-1.062l-.476-.285H6.911zm34.196 1.845.25.05-.02 13.823c-.012 7.603-.051 13.854-.088 13.89-.087.088-33.459.087-33.546 0-.037-.036-.067-6.282-.067-13.88V10.76l.68-.045c.946-.063 32.482-.087 32.791-.025m-22.243 4.908c-6.603.04-6.857.048-7.02.195-.421.381-.392 1.257.052 1.547.2.132.971.14 13.06.14 12.309 0 12.856-.006 13.07-.146.28-.184.476-.634.409-.94a1.2 1.2 0 0 0-.27-.464c-.174-.186-.308-.244-.654-.279-.681-.069-11.095-.099-18.647-.053m-7.028 5.24c-.249.259-.28.338-.28.72 0 .504.209.791.675.929.195.057 4.258.076 12.885.058 11.697-.023 12.618-.035 12.849-.161.518-.284.64-1.016.241-1.446-.169-.182-.263-.205-1.018-.248-.458-.025-6.286-.068-12.952-.095l-12.12-.048zm.984 4.822c-.885.025-.899.028-1.061.256-.339.476-.272 1.157.141 1.427.195.128 1.057.137 13.056.137 12.127 0 12.859-.008 13.062-.141.51-.334.571-.951.139-1.393-.21-.215-.307-.248-.851-.294-.596-.05-22.687-.043-24.486.008m-.978 5.185c-.285.325-.363.574-.294.943.057.299.296.559.633.687.31.117 14.611.117 15.334 0 .581-.095.755-.213.883-.6.112-.34-.038-.882-.29-1.047-.212-.139-1.577-.169-10.207-.224l-5.815-.036z"/>
</svg>
