<svg xmlns="http://www.w3.org/2000/svg" xml:space="preserve" style="fill-rule:evenodd;clip-rule:evenodd;stroke-linejoin:round;stroke-miterlimit:2" viewBox="0 0 48 49"><path d="M6.435 8.845 C 5.843 9.201,5.563 9.463,5.302 9.906 C 5.102 10.245,5.096 10.298,5.033 12.386 C 4.998 13.560,4.968 18.930,4.967 24.320 C 4.964 33.355,5.032 38.278,5.169 38.948 C 5.231 39.253,5.970 40.099,6.344 40.292 C 6.506 40.376,6.980 40.438,7.831 40.485 C 9.460 40.575,38.540 40.575,40.169 40.485 C 41.020 40.438,41.494 40.376,41.656 40.292 C 42.029 40.099,42.769 39.254,42.832 38.948 C 42.965 38.303,43.035 33.199,43.033 24.240 C 43.031 18.938,43.002 13.622,42.967 12.427 C 42.905 10.294,42.900 10.248,42.699 9.907 C 42.437 9.463,42.157 9.201,41.565 8.845 L 41.089 8.560 24.000 8.560 L 6.911 8.560 6.435 8.845 M40.631 10.690 L 40.881 10.740 40.861 24.563 C 40.849 32.166,40.810 38.417,40.773 38.453 C 40.686 38.541,7.314 38.540,7.227 38.453 C 7.190 38.417,7.160 32.171,7.160 24.573 L 7.160 10.760 7.840 10.715 C 8.786 10.652,40.322 10.628,40.631 10.690 M18.388 15.598 C 11.785 15.638,11.531 15.646,11.368 15.793 C 10.947 16.174,10.976 17.050,11.420 17.340 C 11.620 17.472,12.391 17.480,24.480 17.480 C 36.789 17.480,37.336 17.474,37.550 17.334 C 37.830 17.150,38.026 16.700,37.959 16.394 C 37.931 16.268,37.810 16.059,37.689 15.930 C 37.515 15.744,37.381 15.686,37.035 15.651 C 36.354 15.582,25.940 15.552,18.388 15.598 M11.360 20.838 C 11.111 21.097,11.080 21.176,11.080 21.558 C 11.080 22.062,11.289 22.349,11.755 22.487 C 11.950 22.544,16.013 22.563,24.640 22.545 C 36.337 22.522,37.258 22.510,37.489 22.384 C 38.007 22.100,38.129 21.368,37.730 20.938 C 37.561 20.756,37.467 20.733,36.712 20.690 C 36.254 20.665,30.426 20.622,23.760 20.595 L 11.640 20.547 11.360 20.838 M12.344 25.660 C 11.459 25.685,11.445 25.688,11.283 25.916 C 10.944 26.392,11.011 27.073,11.424 27.343 C 11.619 27.471,12.481 27.480,24.480 27.480 C 36.607 27.480,37.339 27.472,37.542 27.339 C 38.052 27.005,38.113 26.388,37.681 25.946 C 37.471 25.731,37.374 25.698,36.830 25.652 C 36.234 25.602,14.143 25.609,12.344 25.660 M11.366 30.845 C 11.081 31.170,11.003 31.419,11.072 31.788 C 11.129 32.087,11.368 32.347,11.705 32.475 C 12.015 32.592,26.316 32.592,27.039 32.475 C 27.620 32.380,27.794 32.262,27.922 31.875 C 28.034 31.535,27.884 30.993,27.632 30.828 C 27.420 30.689,26.055 30.659,17.425 30.604 L 11.610 30.568 11.366 30.845 " stroke="none" fill-rule="evenodd" fill="black"></path></svg>