<svg xmlns="http://www.w3.org/2000/svg" xml:space="preserve" style="fill-rule:evenodd;clip-rule:evenodd;stroke-linejoin:round;stroke-miterlimit:2" viewBox="0 0 48 49">
  <path d="M13.678 7.832c-.163.172-.316.415-.341.54-.058.296.19.863.435.996.224.122 1.468.137 17.644.22 6.257.031 11.396.077 11.42.101s.077 4.74.119 10.48c.049 6.792.105 10.513.158 10.654.107.28.531.536.887.536s.778-.255.892-.539c.062-.155.099-3.372.126-10.86l.037-10.64-.293-.48c-.381-.624-.554-.803-.977-1.007-.337-.163-.503-.171-5.206-.237-2.673-.038-9.302-.071-14.731-.073l-9.873-.003zm-3.986 3.996c-.464.464-.498.938-.099 1.365.21.224.237.23 1.291.279.592.027 7.113.078 14.493.112 7.379.034 13.435.082 13.459.105.024.024.077 4.74.119 10.48.049 6.792.105 10.513.158 10.654.107.28.531.536.887.536s.778-.255.892-.539c.062-.155.1-3.375.129-10.829l.04-10.61-.23-.423c-.314-.577-.825-1.086-1.202-1.196-.452-.133-8.99-.234-20.169-.238L10 11.52zM7.2 15.675c-1.691.042-1.818.056-2.092.227-.311.193-.785.682-.961.991-.087.152-.111 1.915-.129 9.467-.024 9.793.029 12.632.244 13.043.274.523.841.915 1.538 1.062.266.056 5.235.104 14.85.142l14.45.058.51-.286c.539-.303.872-.614 1.219-1.138l.211-.318-.001-10.802-.001-10.801-.242-.424c-.31-.54-.81-1.026-1.184-1.15-.223-.074-3.386-.099-13.452-.107-7.238-.005-13.97.011-14.96.036m27.722 8.465c.067 7.221.003 14.263-.13 14.345-.134.083-13.016.14-21.158.094l-7.531-.043-.051-.768c-.067-1.013-.066-16.742.001-18.668l.052-1.5h28.756zM9.376 22.834c-.295.336-.373.582-.304.954.061.322.327.589.695.694.424.122 22.194.096 22.55-.027.334-.114.643-.541.643-.887 0-.417-.241-.794-.56-.876-.155-.039-5.304-.088-11.526-.109l-11.245-.037zm.887 4.824c-.794.027-.82.034-.98.258-.339.476-.272 1.157.141 1.427.195.128.974.137 11.576.137s11.381-.009 11.576-.137c.427-.28.482-1 .111-1.463l-.192-.24-10.707-.005c-5.89-.003-11.075.007-11.525.023m-.898 5.188c-.286.326-.362.573-.291.95.061.327.421.657.788.725.142.026 3.21.036 6.818.023 7.291-.027 6.909.004 7.189-.569.132-.269.137-.347.048-.666-.058-.207-.179-.412-.283-.48-.208-.136-1.353-.164-9.29-.224l-4.736-.036z"/>
</svg>
