<svg xmlns="http://www.w3.org/2000/svg" xml:space="preserve" fill="none" viewBox="0 0 16 16">
  <path fill="#000" fill-rule="evenodd" d="M2.241 1.806c-.172.061-.38.278-.44.459a.74.74 0 0 0 .186.76c.125.125.213.167.416.2.238.039 10.958.039 11.197 0 .615-.1.851-.804.415-1.24-.247-.247.351-.225-6.026-.223-5.057.002-5.641.006-5.748.044m5.548 1.983a1 1 0 0 0-.2.104c-.06.042-1.143 1.112-2.408 2.378C3.402 8.053 2.87 8.6 2.828 8.693a.82.82 0 0 0 .014.635.736.736 0 0 0 .971.337c.125-.058.393-.314 1.793-1.712l1.646-1.644.008 3.932.007 3.932.056.123a.742.742 0 0 0 1.354 0l.056-.123.007-3.932.008-3.932 1.646 1.644c1.4 1.398 1.668 1.654 1.793 1.712.363.169.793.02.971-.337a.78.78 0 0 0 .003-.649c-.091-.181-4.66-4.75-4.84-4.84a.9.9 0 0 0-.532-.05"/>
</svg>
