<svg xmlns="http://www.w3.org/2000/svg" xml:space="preserve" fill="none" viewBox="0 0 17 16">
  <path fill="#000" fill-rule="evenodd" d="M7.961 1.781a1 1 0 0 0-.155.069c-.047.024-1.138 1.1-2.426 2.391C3.757 5.869 3.025 6.622 2.989 6.7a.93.93 0 0 0-.002.596.73.73 0 0 0 .68.444c.34.002.289.045 2.106-1.77l1.65-1.648v4.634c0 5.133-.012 4.804.187 5.036.159.186.294.245.564.245s.405-.059.564-.245c.199-.232.187.097.187-5.036V4.322l1.65 1.648c1.815 1.813 1.767 1.772 2.104 1.77.097 0 .221-.02.276-.043a.9.9 0 0 0 .399-.386c.073-.166.076-.456.005-.611-.067-.147-4.68-4.779-4.845-4.865-.123-.064-.43-.094-.553-.054"/>
</svg>
