<svg xmlns="http://www.w3.org/2000/svg" xml:space="preserve" fill="none" viewBox="0 0 16 16"><path d="M2.241 1.806 C 2.069 1.867,1.861 2.084,1.801 2.265 C 1.712 2.531,1.783 2.822,1.987 3.025 C 2.112 3.150,2.200 3.192,2.403 3.225 C 2.641 3.264,13.361 3.264,13.600 3.225 C 14.215 3.125,14.451 2.421,14.015 1.985 C 13.768 1.738,14.366 1.760,7.989 1.762 C 2.932 1.764,2.348 1.768,2.241 1.806 M7.789 3.789 C 7.738 3.805,7.648 3.852,7.589 3.893 C 7.529 3.935,6.446 5.005,5.181 6.271 C 3.402 8.053,2.870 8.600,2.828 8.693 C 2.747 8.875,2.753 9.149,2.842 9.328 C 3.020 9.685,3.450 9.834,3.813 9.665 C 3.938 9.607,4.206 9.351,5.606 7.953 L 7.252 6.309 7.260 10.241 L 7.267 14.173 7.323 14.296 C 7.541 14.767,8.156 14.882,8.519 14.519 C 8.575 14.464,8.646 14.363,8.677 14.296 L 8.733 14.173 8.740 10.241 L 8.748 6.309 10.394 7.953 C 11.794 9.351,12.062 9.607,12.187 9.665 C 12.550 9.834,12.980 9.685,13.158 9.328 C 13.254 9.135,13.255 8.867,13.161 8.679 C 13.070 8.498,8.501 3.929,8.321 3.839 C 8.184 3.771,7.928 3.747,7.789 3.789 " stroke="none" fill-rule="evenodd" fill="black"></path></svg>