<svg xmlns="http://www.w3.org/2000/svg" xml:space="preserve" fill="none" viewBox="0 0 24 24">
  <path stroke="#1B1A19" stroke-linecap="round" stroke-linejoin="round" stroke-width="1.5" d="M12 16.5a4.5 4.5 0 1 0 0-9 4.5 4.5 0 0 0 0 9Z"/>
  <path stroke="#1B1A19" stroke-linecap="round" stroke-linejoin="round" stroke-width="1.5" d="M18.506 7.565c.226.323.424.665.59 1.022l2.429 1.35a9.562 9.562 0 0 1 .01 4.125l-2.438 1.35a6.904 6.904 0 0 1-.59 1.022l.046 2.784a9.75 9.75 0 0 1-3.572 2.072l-2.39-1.434a8.286 8.286 0 0 1-1.182 0L9.03 21.28a9.62 9.62 0 0 1-3.582-2.063l.047-2.775a7.51 7.51 0 0 1-.59-1.03l-2.429-1.35a9.562 9.562 0 0 1-.01-4.126l2.438-1.35a6.9 6.9 0 0 1 .59-1.022L5.448 4.78A9.75 9.75 0 0 1 9.02 2.708l2.39 1.434a8.277 8.277 0 0 1 1.182 0l2.38-1.425a9.618 9.618 0 0 1 3.582 2.063l-.047 2.784Z"/>
</svg>
