<svg xmlns="http://www.w3.org/2000/svg" xml:space="preserve" fill="none" viewBox="0 0 24 24">
  <path fill="#000" fill-rule="evenodd" d="M8.74 2.006c-1.133.414-1.931.813-2.7 1.349-.627.437-1.192.936-1.269 1.121-.048.114-.056.382-.046 1.501l.012 1.363-.199.351-.198.351-1.16.642c-.638.354-1.193.673-1.234.709-.171.154-.26.482-.368 1.357-.153 1.238-.009 3.2.271 3.698.102.181.14.205 1.513.966l.982.544.195.351.196.351.002 1.42.003 1.42.096.135c.273.382 1.581 1.309 2.45 1.735 1.019.5 1.637.705 1.908.632.086-.023.663-.345 1.282-.716l1.126-.673.409.005.409.005 1.105.663c.607.366 1.172.686 1.254.714a.8.8 0 0 0 .306.024c.391-.063 1.519-.553 2.221-.966.84-.494 1.812-1.269 1.922-1.53.049-.117.057-.375.048-1.513l-.011-1.372.197-.343.198-.342 1.06-.586c1.229-.679 1.379-.774 1.46-.932.162-.313.305-1.446.305-2.419 0-1.05-.147-2.135-.334-2.469-.102-.18-.138-.204-1.511-.966l-.98-.543-.197-.349-.196-.348.009-1.389c.011-1.568.023-1.497-.303-1.799-.936-.871-2.399-1.717-3.637-2.103-.306-.095-.369-.103-.517-.063-.092.025-.668.345-1.28.712l-1.111.668-.404.004-.404.004-1.164-.692c-1.052-.626-1.186-.694-1.38-.71a1 1 0 0 0-.336.028M12 4.86h.86l1.093-.657 1.093-.658.227.077c.608.205 1.684.816 2.267 1.288l.24.194V7.82l.203.32c.112.176.272.451.356.611s.203.334.264.386c.062.051.577.351 1.145.664.567.314 1.054.591 1.08.615.075.068.172.977.172 1.604 0 .508-.084 1.45-.138 1.536-.011.019-.516.309-1.122.644-.671.372-1.141.657-1.203.731a2.3 2.3 0 0 0-.224.362 8 8 0 0 1-.327.564l-.206.323.012 1.345.013 1.345-.173.149c-.489.422-1.51 1.022-2.248 1.322l-.316.128-1.104-.664-1.104-.665h-1.72l-1.093.657-1.093.658-.227-.077c-.596-.201-1.676-.816-2.261-1.288l-.275-.22.029-1.265c.033-1.413.042-1.351-.254-1.822a9 9 0 0 1-.302-.528 2 2 0 0 0-.242-.373c-.051-.048-.585-.362-1.187-.698l-1.095-.611-.05-.297c-.087-.517-.106-1.75-.036-2.307a5 5 0 0 1 .085-.528c.013-.02.5-.301 1.083-.623s1.111-.628 1.174-.68.181-.227.265-.387.244-.435.356-.611l.203-.32-.012-1.335c-.011-1.238-.007-1.34.06-1.414.125-.139.857-.653 1.259-.884.33-.189 1.16-.58 1.352-.636.032-.009.554.281 1.16.646l1.101.663zm-.845 1.963c-1.63.255-3.106 1.353-3.866 2.877-.581 1.166-.688 2.627-.284 3.889A5.16 5.16 0 0 0 8.3 15.7c2.028 2.028 5.259 2.055 7.355.063.129-.123.363-.394.521-.603a5.226 5.226 0 0 0 0-6.32 5.27 5.27 0 0 0-5.021-2.017m1.705 1.534a3.63 3.63 0 0 1 1.782 1.001c.73.73 1.092 1.606 1.092 2.642s-.362 1.912-1.092 2.642-1.606 1.092-2.642 1.092-1.912-.362-2.642-1.092S8.266 13.036 8.266 12s.362-1.912 1.092-2.642c.611-.611 1.322-.955 2.262-1.094.237-.035.926.017 1.24.093"/>
</svg>
