<svg xmlns="http://www.w3.org/2000/svg" xml:space="preserve" fill="none" viewBox="0 0 24 24">
  <path stroke="#1B1A19" stroke-linecap="round" stroke-linejoin="round" stroke-width="1.5" d="M12 16.5a4.5 4.5 0 1 0 0-9 4.5 4.5 0 0 0 0 9"/>
  <path stroke="#1B1A19" stroke-linecap="round" stroke-linejoin="round" stroke-width="1.5" d="M18.506 7.565q.34.485.59 1.022l2.429 1.35a9.6 9.6 0 0 1 .01 4.125l-2.438 1.35a7 7 0 0 1-.59 1.022l.046 2.784a9.75 9.75 0 0 1-3.572 2.072l-2.39-1.434a8 8 0 0 1-1.182 0L9.03 21.28a9.6 9.6 0 0 1-3.582-2.063l.047-2.775a7.5 7.5 0 0 1-.59-1.03l-2.429-1.35a9.6 9.6 0 0 1-.01-4.126l2.438-1.35a7 7 0 0 1 .59-1.022L5.448 4.78A9.75 9.75 0 0 1 9.02 2.708l2.39 1.434a8 8 0 0 1 1.182 0l2.38-1.425a9.6 9.6 0 0 1 3.582 2.063l-.047 2.784Z"/>
</svg>
