<svg xmlns="http://www.w3.org/2000/svg" xml:space="preserve" fill="none" viewBox="0 0 17 16"><path d="M8.188 1.829 C 8.056 1.890,7.820 2.114,6.654 3.281 C 5.722 4.214,5.254 4.702,5.210 4.788 C 5.158 4.889,5.144 4.961,5.144 5.128 C 5.144 5.386,5.204 5.519,5.400 5.691 C 5.550 5.823,5.668 5.865,5.893 5.865 C 6.175 5.864,6.261 5.801,7.026 5.032 C 7.408 4.649,7.730 4.335,7.742 4.335 C 7.754 4.335,7.763 5.537,7.764 7.005 L 7.764 9.676 7.830 9.817 C 7.947 10.069,8.234 10.257,8.500 10.257 C 8.766 10.257,9.053 10.069,9.170 9.817 L 9.236 9.676 9.236 7.005 C 9.237 5.537,9.246 4.335,9.258 4.335 C 9.270 4.335,9.592 4.649,9.974 5.032 C 10.739 5.801,10.825 5.864,11.107 5.865 C 11.332 5.865,11.450 5.823,11.600 5.691 C 11.796 5.519,11.856 5.386,11.856 5.128 C 11.856 4.961,11.842 4.889,11.790 4.788 C 11.746 4.702,11.278 4.214,10.346 3.281 C 8.831 1.765,8.822 1.757,8.500 1.757 C 8.393 1.757,8.295 1.780,8.188 1.829 M2.805 8.781 C 2.587 8.848,2.350 9.068,2.296 9.255 C 2.273 9.332,2.266 9.944,2.272 11.348 L 2.281 13.331 2.372 13.522 C 2.479 13.748,2.693 13.986,2.885 14.090 C 3.198 14.261,2.877 14.252,8.500 14.252 C 14.123 14.252,13.802 14.261,14.115 14.090 C 14.307 13.986,14.521 13.748,14.628 13.522 L 14.719 13.331 14.728 11.348 C 14.734 9.940,14.727 9.332,14.705 9.255 C 14.666 9.124,14.478 8.912,14.335 8.839 C 13.969 8.653,13.503 8.817,13.327 9.194 L 13.261 9.336 13.260 11.043 L 13.260 12.750 8.500 12.750 L 3.740 12.750 3.740 11.043 L 3.739 9.336 3.673 9.193 C 3.525 8.876,3.122 8.685,2.805 8.781 " stroke="none" fill-rule="evenodd" fill="black"></path></svg>