<svg xmlns="http://www.w3.org/2000/svg" fill="none" viewBox="0 0 16 16">
  <path fill="#000" d="M3.25 3.75v3.419c0 4.58 3.76 6.197 4.75 6.542.99-.345 4.75-1.961 4.75-6.542V3.75zM2.116 2.616A1.25 1.25 0 0 1 3 2.25h10a1.25 1.25 0 0 1 1.25 1.25v3.669c0 5.765-4.896 7.673-5.848 7.99a1.2 1.2 0 0 1-.804 0c-.952-.317-5.848-2.225-5.848-7.99V3.5c0-.332.132-.65.366-.884"/>
  <path fill="#000" d="M6.055 6.055a.75.75 0 0 1 1.06 0l2.83 2.83a.749.749 0 0 1-.529 1.289.75.75 0 0 1-.533-.23L6.055 7.117a.75.75 0 0 1 0-1.06z"/>
  <path fill="#000" d="M9.943 6.055a.75.75 0 0 1 0 1.061l-2.828 2.83a.749.749 0 0 1-1.289-.529.75.75 0 0 1 .23-.533l2.827-2.829a.75.75 0 0 1 1.06 0"/>
</svg>
