<svg xmlns="http://www.w3.org/2000/svg" viewBox="0 0 16 16"><path d="M2.609 2.318 C 2.231 2.439,1.945 2.725,1.815 3.112 C 1.761 3.275,1.760 3.321,1.760 5.512 C 1.760 7.798,1.769 8.062,1.869 8.667 C 2.264 11.053,3.632 13.011,5.825 14.328 C 6.241 14.578,6.803 14.856,7.233 15.025 C 7.921 15.294,8.079 15.294,8.767 15.025 C 10.436 14.370,11.944 13.197,12.878 11.827 C 13.637 10.713,14.074 9.468,14.217 8.013 C 14.242 7.764,14.252 7.055,14.252 5.493 L 14.253 3.320 14.194 3.130 C 14.080 2.769,13.762 2.442,13.409 2.323 L 13.243 2.267 8.001 2.268 C 3.018 2.269,2.753 2.272,2.609 2.318 M12.740 5.833 C 12.730 7.818,12.727 7.922,12.670 8.277 C 12.552 9.017,12.368 9.610,12.066 10.227 C 11.548 11.285,10.747 12.168,9.657 12.884 C 9.268 13.140,8.668 13.453,8.260 13.613 L 8.000 13.716 7.740 13.613 C 7.332 13.453,6.732 13.140,6.343 12.884 C 4.774 11.853,3.786 10.452,3.414 8.733 C 3.275 8.088,3.273 8.042,3.261 5.833 L 3.250 3.760 8.000 3.760 L 12.750 3.760 12.740 5.833 M10.440 5.823 C 10.338 5.870,9.930 6.245,8.696 7.422 L 7.086 8.959 6.910 8.795 C 6.813 8.705,6.497 8.405,6.208 8.128 C 5.623 7.569,5.511 7.494,5.251 7.494 C 4.818 7.493,4.497 7.808,4.495 8.240 C 4.492 8.560,4.515 8.589,5.616 9.640 C 6.177 10.176,6.651 10.607,6.730 10.653 C 6.851 10.724,6.891 10.733,7.080 10.733 C 7.269 10.733,7.309 10.724,7.431 10.653 C 7.516 10.604,8.294 9.881,9.462 8.766 C 11.525 6.797,11.468 6.859,11.489 6.539 C 11.517 6.106,11.187 5.760,10.749 5.760 C 10.621 5.760,10.537 5.777,10.440 5.823 " stroke="none" fill-rule="evenodd" fill="black"></path></svg>