<svg xmlns="http://www.w3.org/2000/svg" fill="none" viewBox="0 0 24 24"><path d="M4.920 3.555 C 3.995 3.580,3.976 3.582,3.751 3.692 C 3.463 3.834,3.087 4.210,2.946 4.499 C 2.764 4.871,2.752 5.134,2.770 8.611 C 2.788 12.122,2.797 12.281,3.042 13.480 C 3.504 15.744,4.568 17.722,6.205 19.359 C 7.381 20.534,8.610 21.390,10.186 22.129 C 11.357 22.679,11.915 22.803,12.497 22.643 C 13.455 22.381,14.992 21.592,16.114 20.787 C 19.052 18.682,20.731 15.833,21.164 12.220 C 21.219 11.760,21.258 5.919,21.210 5.235 C 21.179 4.796,21.159 4.700,21.057 4.498 C 20.900 4.188,20.551 3.846,20.230 3.688 L 19.972 3.561 12.916 3.545 C 9.035 3.536,5.437 3.541,4.920 3.555 M19.233 5.540 C 19.285 5.591,19.260 11.144,19.206 11.780 C 19.141 12.542,19.033 13.181,18.875 13.740 C 18.089 16.522,16.146 18.763,13.280 20.192 C 12.939 20.362,12.504 20.554,12.314 20.619 L 11.967 20.736 11.574 20.581 C 9.663 19.826,7.841 18.457,6.694 16.913 C 5.730 15.616,5.110 14.131,4.861 12.520 C 4.785 12.029,4.710 8.769,4.729 6.760 L 4.740 5.540 5.160 5.515 C 5.713 5.481,19.199 5.506,19.233 5.540 " stroke="none" fill-rule="evenodd"></path></svg>