<svg xmlns="http://www.w3.org/2000/svg" viewBox="0 0 16 16">
  <path fill-rule="evenodd" d="M7.307 3.414c-1.458.084-2.873.641-4.095 1.612-.623.494-1.995 2.003-2.213 2.432-.123.243-.144.671-.048.976.049.155.243.421.668.915 1.145 1.334 1.865 1.949 2.903 2.479a7.1 7.1 0 0 0 2.571.747c.511.054 1.606.04 2.08-.027 1.496-.21 2.891-.871 3.95-1.872.822-.777 1.719-1.813 1.901-2.196.078-.163.083-.192.083-.481 0-.302-.002-.313-.099-.507-.214-.434-1.31-1.679-1.996-2.269-1.633-1.404-3.341-1.945-5.705-1.809M9.2 4.742c1.536.288 2.696.998 3.906 2.391.359.414.707.841.707.867 0 .024-.487.618-.788.961-1.368 1.561-2.825 2.303-4.692 2.389a8 8 0 0 1-1.52-.1c-1.325-.236-2.505-.887-3.489-1.926-.458-.483-1.137-1.272-1.137-1.32 0-.027.21-.288.582-.724C4.118 5.7 5.38 4.956 7.133 4.707c.404-.058 1.689-.036 2.067.035M7.56 6.054c-.568.113-1.102.537-1.358 1.077-.144.303-.182.488-.183.882-.001.309.007.37.072.56.231.677.71 1.147 1.376 1.35.286.087.781.087 1.065 0a2.15 2.15 0 0 0 1.188-.909c.183-.293.3-.783.272-1.142-.017-.217-.128-.644-.194-.745-.076-.117-.074-.118-1.061.451-.38.218-.697.391-.705.383s.071-.342.176-.741c.291-1.104.29-1.096.165-1.159-.075-.038-.636-.043-.813-.007"/>
</svg>
