<svg xmlns="http://www.w3.org/2000/svg" xml:space="preserve" fill="none" viewBox="0 0 20 20"><path d="M16.100 3.032 C 15.743 3.102,15.525 3.374,15.525 3.750 C 15.525 4.028,15.598 4.153,15.981 4.533 C 16.156 4.706,16.300 4.860,16.300 4.874 C 16.300 4.888,16.064 4.900,15.775 4.900 C 15.148 4.900,14.776 4.941,14.283 5.066 C 13.116 5.359,12.034 6.047,11.268 6.983 C 10.835 7.512,10.745 7.737,10.833 8.067 C 10.888 8.275,11.131 8.508,11.350 8.563 C 11.697 8.651,11.943 8.537,12.239 8.153 C 12.938 7.245,13.756 6.705,14.800 6.462 C 15.003 6.414,15.258 6.390,15.700 6.377 L 16.317 6.358 15.998 6.688 C 15.622 7.076,15.582 7.133,15.535 7.341 C 15.434 7.795,15.785 8.232,16.250 8.232 C 16.561 8.232,16.642 8.169,17.709 7.107 C 18.782 6.038,18.867 5.929,18.867 5.626 C 18.867 5.537,18.844 5.409,18.815 5.341 C 18.753 5.190,16.776 3.193,16.600 3.102 C 16.457 3.029,16.256 3.001,16.100 3.032 M2.183 4.963 C 1.662 5.205,1.623 5.945,2.115 6.249 L 2.278 6.350 3.597 6.371 C 4.765 6.389,4.949 6.399,5.200 6.460 C 6.176 6.694,6.985 7.196,7.598 7.950 C 7.703 8.078,8.560 9.262,9.502 10.580 C 10.866 12.486,11.285 13.048,11.549 13.325 C 12.046 13.847,12.508 14.190,13.133 14.500 C 14.009 14.935,14.724 15.098,15.758 15.099 C 16.056 15.100,16.300 15.112,16.300 15.126 C 16.300 15.140,16.156 15.294,15.981 15.467 C 15.598 15.847,15.525 15.972,15.525 16.250 C 15.525 16.555,15.655 16.774,15.915 16.907 C 16.095 17.000,16.406 16.999,16.585 16.906 C 16.774 16.808,18.750 14.817,18.815 14.659 C 18.892 14.473,18.880 14.241,18.784 14.048 C 18.669 13.816,16.781 11.933,16.566 11.836 C 16.011 11.584,15.403 12.068,15.535 12.656 C 15.579 12.854,15.647 12.949,16.015 13.329 L 16.317 13.641 15.700 13.623 C 15.257 13.610,15.004 13.586,14.800 13.538 C 13.836 13.314,13.017 12.805,12.402 12.050 C 12.297 11.922,11.471 10.782,10.567 9.517 C 9.662 8.252,8.836 7.112,8.731 6.983 C 7.969 6.049,6.884 5.360,5.717 5.066 C 5.150 4.923,4.849 4.900,3.533 4.901 C 2.420 4.901,2.305 4.907,2.183 4.963 M8.281 11.431 C 8.096 11.475,7.969 11.578,7.760 11.849 C 7.065 12.752,6.253 13.288,5.200 13.540 C 4.949 13.601,4.765 13.611,3.597 13.629 L 2.278 13.650 2.115 13.751 C 1.623 14.055,1.662 14.795,2.183 15.037 C 2.306 15.093,2.420 15.099,3.550 15.099 C 4.882 15.099,5.208 15.072,5.793 14.917 C 6.472 14.736,7.202 14.377,7.783 13.938 C 8.209 13.617,8.756 13.036,9.046 12.597 C 9.273 12.253,9.245 11.898,8.969 11.630 C 8.763 11.431,8.546 11.368,8.281 11.431 " stroke="none" fill-rule="evenodd" fill="black"></path></svg>