<svg xmlns="http://www.w3.org/2000/svg" xml:space="preserve" fill="none" viewBox="0 0 40 41"><path d="M12.200 7.938 C 8.038 10.364,4.558 12.422,4.467 12.510 C 4.333 12.638,4.300 12.735,4.300 13.000 C 4.300 13.265,4.333 13.362,4.467 13.490 C 4.558 13.578,8.023 15.627,12.167 18.042 C 19.104 22.086,19.724 22.433,20.000 22.433 C 20.276 22.433,20.896 22.086,27.833 18.042 C 31.977 15.627,35.442 13.578,35.533 13.490 C 35.667 13.362,35.700 13.265,35.700 13.000 C 35.700 12.735,35.667 12.638,35.533 12.510 C 35.442 12.422,31.977 10.373,27.833 7.958 C 21.807 4.445,20.247 3.563,20.033 3.546 C 19.787 3.528,19.199 3.857,12.200 7.938 M26.788 9.064 C 30.461 11.207,33.467 12.978,33.467 13.000 C 33.467 13.065,20.112 20.833,20.000 20.833 C 19.888 20.833,6.533 13.065,6.533 13.000 C 6.533 12.927,19.899 5.144,20.005 5.155 C 20.062 5.161,23.115 6.920,26.788 9.064 M4.867 19.778 C 4.339 19.944,4.125 20.399,4.361 20.855 C 4.433 20.995,6.240 22.079,12.106 25.500 C 18.435 29.193,19.799 29.964,20.000 29.964 C 20.201 29.964,21.565 29.193,27.894 25.500 C 33.760 22.079,35.567 20.995,35.639 20.855 C 35.906 20.339,35.551 19.764,34.975 19.780 C 34.813 19.785,32.850 20.898,27.378 24.090 L 20.000 28.395 12.650 24.108 C 8.607 21.750,5.225 19.804,5.133 19.784 C 5.042 19.764,4.922 19.761,4.867 19.778 M4.700 27.326 C 4.430 27.443,4.300 27.665,4.300 28.005 C 4.300 28.265,4.334 28.363,4.467 28.490 C 4.558 28.578,8.023 30.627,12.167 33.042 C 19.104 37.086,19.724 37.433,20.000 37.433 C 20.276 37.433,20.896 37.086,27.833 33.042 C 31.977 30.627,35.442 28.578,35.533 28.490 C 35.667 28.362,35.700 28.265,35.700 28.000 C 35.700 27.728,35.667 27.637,35.515 27.485 C 35.364 27.333,35.273 27.301,35.015 27.303 C 34.721 27.307,34.210 27.593,27.374 31.587 C 23.345 33.941,20.026 35.867,20.000 35.867 C 19.974 35.867,16.655 33.943,12.626 31.592 C 7.583 28.649,5.227 27.310,5.067 27.293 C 4.938 27.279,4.773 27.294,4.700 27.326 " stroke="none" fill-rule="evenodd" fill="black"></path></svg>