<svg width="24" height="18" viewBox="0 0 24 18" fill="none" xmlns="http://www.w3.org/2000/svg">
  <path d="M21.1875 5.25751C21.15 5.16376 21.1106 5.07001 21.0703 4.97626C20.4654 3.58129 19.4865 2.38078 18.2419 1.50751H20.25C20.4489 1.50751 20.6397 1.42849 20.7803 1.28784C20.921 1.14718 21 0.95642 21 0.757507C21 0.558595 20.921 0.367829 20.7803 0.227177C20.6397 0.0865247 20.4489 0.00750732 20.25 0.00750732H10.5C8.42634 0.0101404 6.42951 0.792528 4.90601 2.19931C3.38252 3.60609 2.4438 5.53438 2.27625 7.60126C1.6284 7.7623 1.05277 8.13483 0.640489 8.65986C0.228203 9.1849 0.00281392 9.83245 0 10.5C0 10.6989 0.0790176 10.8897 0.21967 11.0303C0.360322 11.171 0.551088 11.25 0.75 11.25C0.948912 11.25 1.13968 11.171 1.28033 11.0303C1.42098 10.8897 1.5 10.6989 1.5 10.5C1.50017 10.2265 1.57512 9.95827 1.71673 9.7243C1.85834 9.49032 2.06122 9.29951 2.30344 9.17251C2.49012 10.8552 3.19176 12.4392 4.3125 13.7081L5.49 17.0044C5.5941 17.2959 5.78586 17.5481 6.03898 17.7264C6.29209 17.9047 6.59416 18.0002 6.90375 18H8.09625C8.40568 18 8.70754 17.9044 8.96047 17.7261C9.2134 17.5479 9.40502 17.2958 9.50906 17.0044L9.68906 16.5H15.0609L15.2409 17.0044C15.345 17.2958 15.5366 17.5479 15.7895 17.7261C16.0425 17.9044 16.3443 18 16.6537 18H17.8463C18.1557 18 18.4575 17.9044 18.7105 17.7261C18.9634 17.5479 19.155 17.2958 19.2591 17.0044L20.7787 12.75H21C21.5967 12.75 22.169 12.513 22.591 12.091C23.0129 11.669 23.25 11.0967 23.25 10.5V7.50001C23.2501 6.93567 23.0381 6.39191 22.6561 5.97654C22.274 5.56118 21.7499 5.30454 21.1875 5.25751ZM14.25 3.75001H10.5C10.3011 3.75001 10.1103 3.67099 9.96967 3.53034C9.82902 3.38968 9.75 3.19892 9.75 3.00001C9.75 2.80109 9.82902 2.61033 9.96967 2.46968C10.1103 2.32903 10.3011 2.25001 10.5 2.25001H14.25C14.4489 2.25001 14.6397 2.32903 14.7803 2.46968C14.921 2.61033 15 2.80109 15 3.00001C15 3.19892 14.921 3.38968 14.7803 3.53034C14.6397 3.67099 14.4489 3.75001 14.25 3.75001ZM16.875 9.00001C16.6525 9.00001 16.435 8.93403 16.25 8.81041C16.065 8.68679 15.9208 8.51109 15.8356 8.30553C15.7505 8.09996 15.7282 7.87376 15.7716 7.65553C15.815 7.4373 15.9222 7.23685 16.0795 7.07951C16.2368 6.92218 16.4373 6.81503 16.6555 6.77162C16.8738 6.72822 17.1 6.75049 17.3055 6.83564C17.5111 6.92079 17.6868 7.06499 17.8104 7.24999C17.934 7.435 18 7.6525 18 7.87501C18 8.17338 17.8815 8.45952 17.6705 8.6705C17.4595 8.88148 17.1734 9.00001 16.875 9.00001Z" fill="#616161"/>
</svg>