<svg xmlns="http://www.w3.org/2000/svg" xml:space="preserve" fill="none" viewBox="0 0 24 24">
  <path stroke="#0F6148" stroke-linecap="round" stroke-linejoin="round" stroke-width="1.5" d="M7.5 15h12a.75.75 0 0 0 .75-.75V4.5a.75.75 0 0 0-.75-.75H9a.75.75 0 0 0-.75.75v.75"/>
  <path stroke="#0F6148" stroke-linecap="round" stroke-linejoin="round" stroke-width="1.5" d="M9.75 12.75 7.5 15l2.25 2.25"/>
  <path stroke="#0F6148" stroke-linecap="round" stroke-linejoin="round" stroke-width="1.5" d="M16.5 9h-12a.75.75 0 0 0-.75.75v9.75a.75.75 0 0 0 .75.75H15a.75.75 0 0 0 .75-.75v-.75"/>
  <path stroke="#0F6148" stroke-linecap="round" stroke-linejoin="round" stroke-width="1.5" d="M14.25 11.25 16.5 9l-2.25-2.25"/>
</svg>
