<svg xmlns="http://www.w3.org/2000/svg" xml:space="preserve" fill="none" viewBox="0 0 24 24"><path d="M8.660 3.056 C 8.219 3.166,7.830 3.481,7.643 3.880 C 7.548 4.083,7.539 4.150,7.527 4.750 C 7.514 5.354,7.519 5.413,7.601 5.583 C 7.871 6.140,8.664 6.116,8.925 5.542 C 8.982 5.416,8.998 5.280,8.999 4.930 L 9.000 4.480 14.250 4.490 L 19.500 4.500 19.510 9.370 L 19.520 14.240 14.411 14.240 L 9.301 14.240 9.849 13.690 C 10.150 13.388,10.415 13.089,10.438 13.027 C 10.552 12.723,10.423 12.309,10.161 12.136 C 9.961 12.004,9.667 11.975,9.470 12.069 C 9.277 12.161,6.890 14.534,6.815 14.709 C 6.785 14.780,6.760 14.911,6.760 15.000 C 6.760 15.089,6.785 15.220,6.815 15.291 C 6.890 15.466,9.277 17.839,9.470 17.931 C 9.667 18.025,9.961 17.996,10.161 17.864 C 10.423 17.691,10.552 17.277,10.438 16.973 C 10.415 16.911,10.150 16.613,9.850 16.311 L 9.303 15.762 14.542 15.751 L 19.780 15.740 19.995 15.652 C 20.311 15.523,20.513 15.368,20.701 15.114 C 20.998 14.711,20.980 15.080,20.980 9.340 L 20.980 4.180 20.884 3.940 C 20.752 3.612,20.388 3.248,20.060 3.116 L 19.820 3.020 14.340 3.013 C 10.071 3.008,8.816 3.017,8.660 3.056 M14.032 6.040 C 13.646 6.156,13.417 6.637,13.562 7.027 C 13.585 7.089,13.850 7.387,14.150 7.689 L 14.697 8.238 9.458 8.249 L 4.220 8.260 3.990 8.353 C 3.559 8.527,3.218 8.880,3.075 9.300 C 3.030 9.432,3.020 10.369,3.020 14.640 L 3.020 19.820 3.116 20.060 C 3.248 20.388,3.612 20.752,3.940 20.884 L 4.180 20.980 9.600 20.992 C 13.546 21.001,15.085 20.992,15.259 20.958 C 15.736 20.867,16.157 20.546,16.357 20.120 C 16.452 19.917,16.461 19.850,16.473 19.250 C 16.486 18.646,16.481 18.587,16.399 18.417 C 16.129 17.860,15.336 17.884,15.075 18.458 C 15.018 18.584,15.002 18.720,15.001 19.070 L 15.000 19.520 9.750 19.510 L 4.500 19.500 4.490 14.630 L 4.480 9.760 9.589 9.760 L 14.699 9.760 14.151 10.310 C 13.850 10.613,13.585 10.911,13.562 10.973 C 13.448 11.277,13.577 11.691,13.839 11.864 C 14.039 11.996,14.333 12.025,14.530 11.931 C 14.723 11.839,17.110 9.466,17.185 9.291 C 17.255 9.127,17.255 8.873,17.185 8.709 C 17.109 8.531,14.722 6.159,14.530 6.071 C 14.369 5.997,14.206 5.987,14.032 6.040 " stroke="none" fill-rule="evenodd" fill="black"></path></svg>