<svg xmlns="http://www.w3.org/2000/svg" xml:space="preserve" fill="none" viewBox="0 0 40 40"><path d="M14.000 4.343 C 13.798 4.376,13.344 4.503,12.989 4.624 C 9.485 5.824,6.694 10.268,5.803 16.067 C 5.426 18.519,5.415 21.399,5.774 23.767 C 6.390 27.832,7.911 31.299,10.000 33.402 C 11.082 34.491,12.084 35.119,13.367 35.513 L 13.967 35.697 18.367 35.719 C 21.393 35.735,22.933 35.718,23.300 35.666 C 26.199 35.257,28.836 32.666,30.422 28.667 C 30.971 27.283,31.555 25.024,31.647 23.932 C 31.681 23.530,31.670 23.481,31.504 23.284 C 31.280 23.017,30.965 22.947,30.656 23.094 C 30.533 23.152,30.394 23.261,30.347 23.337 C 30.300 23.412,30.186 23.879,30.095 24.376 C 29.492 27.640,28.391 30.126,26.676 32.098 C 24.686 34.386,22.042 34.888,19.798 33.406 C 17.894 32.148,16.350 29.756,15.405 26.600 C 14.176 22.494,14.176 17.506,15.405 13.400 C 16.812 8.700,19.546 5.755,22.519 5.736 C 23.068 5.732,23.847 5.920,24.445 6.199 C 25.091 6.500,25.417 6.718,26.000 7.236 C 26.993 8.118,27.699 9.094,28.504 10.697 C 28.966 11.616,29.075 11.785,29.279 11.896 C 29.489 12.011,29.550 12.016,29.792 11.944 C 30.133 11.841,30.302 11.601,30.294 11.231 C 30.286 10.871,29.512 9.291,28.875 8.333 C 27.958 6.955,26.745 5.770,25.567 5.101 C 24.985 4.770,24.059 4.445,23.391 4.337 C 22.862 4.251,14.523 4.256,14.000 4.343 M17.567 6.550 C 16.821 7.304,16.169 8.144,15.703 8.950 L 15.521 9.267 12.660 9.267 C 11.087 9.267,9.800 9.244,9.800 9.217 C 9.800 9.189,9.973 8.937,10.183 8.656 C 11.395 7.042,12.817 6.042,14.238 5.804 C 14.419 5.774,15.423 5.745,16.471 5.741 L 18.374 5.733 17.567 6.550 M14.695 10.983 C 13.846 12.980,13.265 15.540,13.062 18.183 L 12.979 19.267 9.989 19.267 L 7.000 19.267 7.000 18.912 C 7.000 18.450,7.112 17.275,7.237 16.433 C 7.515 14.548,8.050 12.655,8.720 11.183 L 8.925 10.733 11.863 10.733 L 14.802 10.733 14.695 10.983 M33.900 13.062 C 33.827 13.096,31.622 15.270,29.000 17.895 C 26.379 20.519,24.204 22.667,24.167 22.667 C 24.131 22.667,23.058 21.624,21.783 20.350 L 19.466 18.033 19.171 18.033 C 18.665 18.033,18.337 18.467,18.473 18.958 C 18.514 19.107,19.288 19.923,21.184 21.817 L 23.837 24.467 24.168 24.467 L 24.498 24.467 29.650 19.317 C 33.634 15.335,34.817 14.115,34.865 13.941 C 34.937 13.683,34.837 13.376,34.617 13.180 C 34.458 13.039,34.087 12.978,33.900 13.062 M13.060 21.817 C 13.269 24.476,13.848 27.023,14.695 29.017 L 14.802 29.267 11.863 29.267 L 8.925 29.267 8.720 28.817 C 7.798 26.791,7.182 24.134,7.027 21.517 L 6.980 20.733 9.978 20.733 L 12.975 20.733 13.060 21.817 M15.703 31.050 C 16.170 31.858,16.821 32.696,17.572 33.456 L 18.386 34.278 16.276 34.249 C 13.903 34.216,13.839 34.206,12.833 33.706 C 12.197 33.390,11.578 32.913,10.950 32.255 C 10.561 31.848,9.800 30.875,9.800 30.783 C 9.800 30.756,11.087 30.733,12.660 30.733 L 15.521 30.733 15.703 31.050 " stroke="none" fill-rule="evenodd" fill="black"></path></svg>