<svg xmlns="http://www.w3.org/2000/svg" viewBox="0 0 24 24"><path d="M15.040 1.081 C 12.810 1.110,12.919 1.098,12.340 1.387 C 12.186 1.464,11.943 1.616,11.800 1.725 C 11.474 1.973,8.663 4.710,5.023 8.323 C 2.184 11.142,1.464 11.888,1.205 12.277 L 1.060 12.494 1.061 12.937 C 1.062 13.445,1.083 13.502,1.423 13.925 C 1.682 14.248,8.740 21.311,9.580 22.089 C 9.910 22.394,10.277 22.710,10.395 22.792 C 10.605 22.937,10.618 22.940,11.043 22.954 C 11.610 22.971,11.682 22.935,12.413 22.258 C 13.262 21.472,21.029 13.596,22.006 12.531 C 22.400 12.102,22.616 11.744,22.839 11.152 L 23.000 10.725 23.000 6.330 L 23.000 1.936 22.887 1.758 C 22.743 1.531,22.561 1.350,22.304 1.177 L 22.101 1.040 19.581 1.047 C 18.194 1.051,16.151 1.067,15.040 1.081 M17.489 4.662 C 17.962 4.777,18.541 5.153,18.858 5.552 C 19.241 6.034,19.411 6.538,19.416 7.200 C 19.420 7.670,19.373 7.853,19.118 8.360 C 18.907 8.779,18.631 9.102,18.280 9.340 C 17.841 9.637,17.535 9.728,16.900 9.751 C 16.416 9.767,16.358 9.761,16.060 9.661 C 15.407 9.442,14.907 9.024,14.552 8.400 C 14.309 7.971,14.270 7.782,14.286 7.089 L 14.300 6.452 14.491 6.067 C 14.796 5.453,15.293 4.992,15.926 4.734 C 16.353 4.561,16.956 4.533,17.489 4.662 " stroke="none" fill-rule="evenodd" fill="black"></path></svg>