<svg xmlns="http://www.w3.org/2000/svg" viewBox="0 0 12 12">
  <path fill-rule="evenodd" d="M2.532 1.961a1.95 1.95 0 0 0-1.133.578 1.9 1.9 0 0 0-.512.852c-.05.166-.054.205-.055.549-.002.355.001.377.055.54.083.246.171.427.301.618.063.092.11.178.105.192a.5.5 0 0 1-.14.097 3.4 3.4 0 0 0-.66.511c-.383.373-.512.625-.425.828.076.177.328.354.506.354.146 0 .212-.044.481-.321.314-.324.449-.428.751-.579.281-.139.472-.189.889-.231.162-.016.324-.039.359-.05.081-.027.193-.151.228-.251a.7.7 0 0 0-.025-.47c-.068-.145-.149-.197-.354-.223-.432-.054-.585-.116-.785-.316a.99.99 0 0 1 .374-1.642c.167-.061.469-.061.636 0 .159.058.287.142.408.27.119.126.176.234.264.5.05.152.082.215.138.271q.188.187.525.083c.137-.043.256-.142.296-.247.062-.165-.008-.514-.167-.83a2.02 2.02 0 0 0-1.357-1.056 2.7 2.7 0 0 0-.703-.027m6.421.001a2 2 0 0 0-.803.276 2.4 2.4 0 0 0-.675.673c-.183.308-.288.699-.246.918.022.121.15.243.306.291q.34.105.527-.082c.056-.056.088-.118.138-.271.092-.28.166-.41.312-.546a.97.97 0 0 1 1.023-.21.99.99 0 0 1 .336 1.641c-.193.189-.349.25-.774.303-.205.026-.286.078-.354.223a.7.7 0 0 0-.025.47c.035.1.147.224.228.251.035.011.195.034.356.05.367.037.541.076.766.172.343.148.476.243.822.587.175.175.348.33.384.345.209.087.518-.06.637-.304.106-.216.036-.392-.291-.735a3.7 3.7 0 0 0-.865-.681l-.075-.044.126-.182c.247-.357.352-.668.369-1.088a1.8 1.8 0 0 0-.099-.728 2.03 2.03 0 0 0-1.325-1.26c-.143-.042-.544-.098-.621-.088zM5.69 4.22c-.485.045-.979.288-1.361.669a2.32 2.32 0 0 0-.697 1.651c-.001.287.027.471.113.74.105.332.267.615.505.879.071.081.13.153.13.161a1 1 0 0 1-.171.117c-.51.305-.957.759-1.247 1.267-.237.415-.234.63.013.799.202.139.39.171.546.092.092-.046.106-.066.398-.528.278-.442.784-.83 1.311-1.004.263-.088.453-.109.874-.098.317.009.391.017.556.063.229.065.537.209.752.352.209.139.53.468.665.681.31.487.31.488.402.534.156.079.344.047.546-.092.247-.169.25-.384.013-.799a3.6 3.6 0 0 0-1.247-1.267.8.8 0 0 1-.171-.12c0-.009.049-.071.11-.137.308-.335.502-.713.602-1.175.05-.23.046-.68-.007-.917A2.4 2.4 0 0 0 7.319 4.6a2.7 2.7 0 0 0-.719-.327 3.2 3.2 0 0 0-.91-.053m.71 1.031c.21.063.38.168.561.348.142.143.187.203.264.361.106.216.135.35.135.609a1.24 1.24 0 0 1-.126.583 1.4 1.4 0 0 1-.894.741 1.4 1.4 0 0 1-.36.035 1 1 0 0 1-.39-.056 1.37 1.37 0 0 1-.824-.72 1.24 1.24 0 0 1-.125-.592c0-.401.114-.677.398-.96.222-.221.444-.342.701-.381.159-.024.532-.006.66.032"/>
</svg>
