<svg xmlns="http://www.w3.org/2000/svg" viewBox="0 0 12 13"><path d="M4.560 0.707 C 4.408 0.787,4.256 0.941,4.194 1.076 C 4.159 1.152,4.151 1.208,4.150 1.370 C 4.150 1.546,4.157 1.584,4.205 1.686 C 4.278 1.843,4.444 2.003,4.594 2.062 C 4.700 2.103,4.755 2.108,5.230 2.119 C 5.645 2.128,5.722 2.134,5.610 2.147 C 5.036 2.214,4.619 2.314,4.187 2.487 C 2.656 3.103,1.575 4.401,1.229 6.040 C 1.134 6.487,1.117 7.298,1.191 7.764 C 1.329 8.618,1.732 9.489,2.307 10.172 C 3.008 11.004,4.074 11.607,5.190 11.802 C 5.420 11.842,5.514 11.847,6.010 11.846 C 6.488 11.845,6.604 11.839,6.800 11.803 C 7.945 11.596,8.990 11.006,9.693 10.172 C 10.270 9.486,10.663 8.637,10.813 7.750 C 10.861 7.465,10.861 6.535,10.813 6.250 C 10.645 5.260,10.190 4.344,9.503 3.615 C 9.176 3.269,8.622 2.869,8.150 2.640 C 7.572 2.358,7.121 2.232,6.390 2.147 C 6.278 2.134,6.355 2.128,6.770 2.119 C 7.245 2.108,7.300 2.103,7.406 2.062 C 7.549 2.006,7.712 1.852,7.792 1.699 C 7.843 1.600,7.848 1.571,7.849 1.380 C 7.850 1.190,7.845 1.159,7.795 1.058 C 7.734 0.933,7.599 0.797,7.455 0.712 L 7.360 0.656 6.025 0.647 L 4.690 0.639 4.560 0.707 M6.270 3.639 C 6.988 3.698,7.720 4.009,8.230 4.469 L 8.330 4.559 8.210 4.499 C 7.980 4.384,7.724 4.382,7.515 4.494 C 7.440 4.534,7.190 4.768,6.632 5.320 C 5.750 6.193,5.381 6.585,5.315 6.718 C 5.278 6.795,5.270 6.842,5.271 7.001 C 5.271 7.171,5.278 7.206,5.330 7.311 C 5.449 7.555,5.680 7.714,5.944 7.734 C 6.155 7.750,6.275 7.711,6.450 7.567 C 6.625 7.424,8.058 6.005,8.318 5.717 C 8.521 5.493,8.570 5.403,8.593 5.209 C 8.607 5.089,8.561 4.891,8.488 4.760 L 8.438 4.670 8.540 4.780 C 8.675 4.926,8.913 5.284,9.030 5.518 C 9.487 6.436,9.484 7.577,9.023 8.493 C 8.299 9.933,6.692 10.671,5.156 10.268 C 3.408 9.810,2.316 8.040,2.701 6.290 C 2.763 6.006,2.833 5.811,2.981 5.510 C 3.521 4.413,4.555 3.725,5.800 3.634 C 5.982 3.620,6.055 3.621,6.270 3.639 " stroke="none" fill-rule="evenodd" fill="black"></path></svg>