<svg xmlns="http://www.w3.org/2000/svg" viewBox="0 0 12 13">
  <path fill-rule="evenodd" d="M4.56.707a.9.9 0 0 0-.366.369c-.035.076-.043.132-.044.294 0 .176.007.214.055.316a.8.8 0 0 0 .389.376c.106.041.161.046.636.057.415.009.492.015.38.028-.574.067-.991.167-1.423.34-1.531.616-2.612 1.914-2.958 3.553-.095.447-.112 1.258-.038 1.724a5.1 5.1 0 0 0 1.116 2.408c.701.832 1.767 1.435 2.883 1.63.23.04.324.045.82.044.478-.001.594-.007.79-.043 1.145-.207 2.19-.797 2.893-1.631a5.1 5.1 0 0 0 1.12-2.422c.048-.285.048-1.215 0-1.5a5.1 5.1 0 0 0-1.31-2.635A5.2 5.2 0 0 0 8.15 2.64c-.578-.282-1.029-.408-1.76-.493-.112-.013-.035-.019.38-.028.475-.011.53-.016.636-.057a.84.84 0 0 0 .386-.363c.051-.099.056-.128.057-.319.001-.19-.004-.221-.054-.322a.9.9 0 0 0-.34-.346L7.36.656 6.025.647 4.69.639zm1.71 2.932c.718.059 1.45.37 1.96.83l.1.09-.12-.06a.75.75 0 0 0-.695-.005c-.075.04-.325.274-.883.826-.882.873-1.251 1.265-1.317 1.398-.037.077-.045.124-.044.283 0 .17.007.205.059.31.119.244.35.403.614.423.211.016.331-.023.506-.167.175-.143 1.608-1.562 1.868-1.85.203-.224.252-.314.275-.508a.9.9 0 0 0-.105-.449l-.05-.09.102.11c.135.146.373.504.49.738a3.39 3.39 0 0 1-.007 2.975c-.724 1.44-2.331 2.178-3.867 1.775C3.408 9.81 2.316 8.04 2.701 6.29c.062-.284.132-.479.28-.78.54-1.097 1.574-1.785 2.819-1.876.182-.014.255-.013.47.005"/>
</svg>
