<svg xmlns="http://www.w3.org/2000/svg" fill="none" viewBox="0 0 16 16">
  <path fill="#000" fill-rule="evenodd" d="M5.147 2.282c-.052.006-.226.024-.387.039C2.525 2.539.769 3.463.359 4.638.246 4.96.236 5.145.246 6.64c.01 1.354.012 1.406.07 1.596.143.473.452.887.937 1.255.68.517 1.741.924 2.881 1.107l.095.016.029.273c.017.155.059.358.099.47.311.883 1.344 1.621 2.856 2.039.856.237 1.732.345 2.787.345.674 0 1.061-.025 1.6-.103 2.131-.309 3.654-1.167 4.041-2.276.112-.322.123-.508.113-2.002-.011-1.536-.009-1.519-.182-1.89-.203-.436-.64-.882-1.185-1.208-.631-.378-1.504-.685-2.372-.835a3 3 0 0 1-.242-.047 8 8 0 0 1-.032-.273c-.065-.608-.365-1.109-.924-1.545-.812-.632-1.949-1.038-3.453-1.232-.293-.038-1.979-.074-2.217-.048m2.078 1.543c1.335.177 2.357.566 2.835 1.078.07.074.139.167.154.205.067.176.002.35-.205.549-.507.486-1.512.852-2.822 1.028-.493.066-1.881.066-2.374 0-1.299-.174-2.302-.536-2.806-1.014-.223-.21-.29-.382-.22-.564.037-.099.28-.349.453-.467.349-.237.912-.473 1.453-.61.517-.13.83-.18 1.6-.254.254-.025 1.643.01 1.932.049m5.085 3.203c1.037.263 1.93.82 1.93 1.204 0 .333-.509.741-1.283 1.031a7.8 7.8 0 0 1-2.239.457c-.253.013-.296.01-.255-.019q.806-.56 1.093-1.132c.149-.296.182-.483.197-1.096l.014-.568.096.018c.053.009.255.056.447.105m-9.748.661c.141.052.354.123.474.156l.217.061v.46c0 .282-.01.461-.026.461-.051 0-.376-.133-.61-.249-.394-.196-.646-.39-.781-.603-.07-.11-.076-.139-.076-.378v-.26l.273.128c.151.071.389.172.529.224m7.637.232c-.109.212-.413.457-.816.657-.235.117-.559.249-.611.249-.017 0-.024-.165-.019-.457l.007-.456.387-.127c.364-.12.732-.268.973-.393l.107-.055.007.25c.006.188-.003.27-.035.332M6 8.227c.418 0 .871-.009 1.007-.02l.246-.02v.982l-.1.016a10 10 0 0 1-2.306 0l-.1-.016v-.982l.246.02c.136.011.589.02 1.007.02m8.24 2.358c0 .131-.012.27-.027.309-.044.116-.314.377-.539.522a5.6 5.6 0 0 1-.867.409l-.06.019v-.93l.313-.1a7.5 7.5 0 0 0 .989-.387 1.3 1.3 0 0 1 .171-.079c.011-.001.02.106.02.237m-7.436.188c.079.028.212.071.296.095l.153.042v.934l-.06-.019a5.6 5.6 0 0 1-.867-.409c-.225-.145-.495-.406-.539-.522-.056-.148-.063-.145.42-.154.245-.004.448-.011.451-.014a1 1 0 0 1 .146.047m4.443 1.401a7 7 0 0 1-.404.04c-.405.034-1.672.02-1.95-.021l-.133-.02-.007-.488-.008-.488.341.022c.425.026 1.655.02 1.941-.01l.213-.022.007.49c.004.27.004.494 0 .497"/>
</svg>
