<svg xmlns="http://www.w3.org/2000/svg" fill="none" viewBox="0 0 16 16">
  <path stroke="#000" stroke-linecap="round" stroke-linejoin="round" stroke-width="1.5" d="M11 5.25C11 6.493 8.761 7.5 6 7.5S1 6.493 1 5.25m10 0C11 4.007 8.761 3 6 3S1 4.007 1 5.25m10 0v2.5C11 8.992 8.761 10 6 10S1 8.992 1 7.75v-2.5m3 2.063v2.5m7-3.768c2.283.209 4 1.116 4 2.205m0 0c0 1.242-2.239 2.25-5 2.25-1.225 0-2.347-.198-3.217-.527M15 8.25v2.5c0 1.242-2.239 2.25-5 2.25s-5-1.008-5-2.25v-.795m7 .357v2.5m-4-5.5v5.5"/>
</svg>
