<svg xmlns="http://www.w3.org/2000/svg" xml:space="preserve" fill="none" viewBox="0 0 24 24">
  <path fill="#000" fill-rule="evenodd" d="M11.08 2.045a10.4 10.4 0 0 0-3.567 1.018c-1.63.821-3.132 2.21-4.062 3.757-1.988 3.31-1.919 7.435.179 10.64.41.628.746 1.039 1.309 1.601s.973.899 1.601 1.309a10 10 0 0 0 10.92 0 10 10 0 0 0 4.362-6.524c.529-2.851-.176-5.72-1.976-8.046-.339-.437-1.209-1.307-1.646-1.646-2.067-1.599-4.554-2.336-7.12-2.109m.16 9.957v8.482l-.13-.021-.43-.065c-1.004-.149-2.275-.62-3.158-1.17a9.1 9.1 0 0 1-2.75-2.75c-.579-.929-1.023-2.157-1.194-3.298-.078-.526-.089-1.721-.02-2.22C4 7.773 6.015 5.202 8.961 4.067c.647-.249 1.676-.5 2.229-.543.04-.003.05 1.717.05 8.478m2.08-8.4c1.004.149 2.275.62 3.158 1.17a9.1 9.1 0 0 1 2.75 2.75c.579.929 1.023 2.156 1.194 3.298.088.591.088 1.769 0 2.36a9.2 9.2 0 0 1-.841 2.658c-.411.818-.887 1.47-1.58 2.163-1.394 1.393-2.975 2.159-5.071 2.456l-.17.024v-1.517l.15-.025c1.338-.217 2.336-.628 3.314-1.364a7.08 7.08 0 0 0 2.617-4.104 7.3 7.3 0 0 0-.201-3.682c-.344-1.038-1.062-2.161-1.847-2.887-1.095-1.014-2.295-1.583-3.883-1.841l-.15-.025v-1.52l.13.021zm-.16 3.02c.718.166 1.46.494 2.019.891a7 7 0 0 1 1.308 1.308c.449.632.8 1.481.938 2.27.085.485.085 1.339.001 1.818a5.9 5.9 0 0 1-.939 2.27 7 7 0 0 1-1.308 1.308 5.9 5.9 0 0 1-2.019.891c-.439.102-.4.169-.4-.693v-.755l.27-.068c.331-.082.913-.353 1.255-.584.326-.22.773-.667.993-.993.252-.373.507-.939.609-1.347.126-.509.126-1.367 0-1.876a4.9 4.9 0 0 0-.609-1.347 4.4 4.4 0 0 0-.993-.993c-.342-.231-.924-.502-1.255-.584l-.27-.068v-.755c0-.862-.039-.795.4-.693m-.056 3.137A2.46 2.46 0 0 1 14.485 12c0 .778-.33 1.479-.914 1.939-.233.185-.659.421-.757.421-.045 0-.054-.414-.054-2.36s.009-2.36.054-2.36c.029 0 .16.054.29.119"/>
</svg>
