<svg xmlns="http://www.w3.org/2000/svg" xml:space="preserve" fill="none" viewBox="0 0 24 24"><path d="M11.080 2.045 C 9.911 2.148,8.573 2.530,7.513 3.063 C 5.883 3.884,4.381 5.273,3.451 6.820 C 1.463 10.130,1.532 14.255,3.630 17.460 C 4.040 18.088,4.376 18.499,4.939 19.061 C 5.501 19.624,5.912 19.960,6.540 20.370 C 9.843 22.532,14.157 22.532,17.460 20.370 C 19.748 18.873,21.328 16.509,21.822 13.846 C 22.351 10.995,21.646 8.126,19.846 5.800 C 19.507 5.363,18.637 4.493,18.200 4.154 C 16.133 2.555,13.646 1.818,11.080 2.045 M11.240 12.002 L 11.240 20.484 11.110 20.463 C 11.038 20.452,10.845 20.423,10.680 20.398 C 9.676 20.249,8.405 19.778,7.522 19.228 C 6.474 18.575,5.425 17.526,4.772 16.478 C 4.193 15.549,3.749 14.321,3.578 13.180 C 3.500 12.654,3.489 11.459,3.558 10.960 C 4.000 7.773,6.015 5.202,8.961 4.067 C 9.608 3.818,10.637 3.567,11.190 3.524 C 11.230 3.521,11.240 5.241,11.240 12.002 M13.320 3.602 C 14.324 3.751,15.595 4.222,16.478 4.772 C 17.526 5.425,18.575 6.474,19.228 7.522 C 19.807 8.451,20.251 9.678,20.422 10.820 C 20.510 11.411,20.510 12.589,20.422 13.180 C 20.289 14.069,19.980 15.047,19.581 15.838 C 19.170 16.656,18.694 17.308,18.001 18.001 C 16.607 19.394,15.026 20.160,12.930 20.457 L 12.760 20.481 12.760 19.722 L 12.760 18.964 12.910 18.939 C 14.248 18.722,15.246 18.311,16.224 17.575 C 17.534 16.591,18.502 15.072,18.841 13.471 C 19.093 12.278,19.020 10.935,18.640 9.789 C 18.296 8.751,17.578 7.628,16.793 6.902 C 15.698 5.888,14.498 5.319,12.910 5.061 L 12.760 5.036 12.760 4.276 L 12.760 3.516 12.890 3.537 C 12.962 3.548,13.155 3.577,13.320 3.602 M13.160 6.622 C 13.878 6.788,14.620 7.116,15.179 7.513 C 15.588 7.804,16.196 8.412,16.487 8.821 C 16.936 9.453,17.287 10.302,17.425 11.091 C 17.510 11.576,17.510 12.430,17.426 12.909 C 17.285 13.701,16.935 14.548,16.487 15.179 C 16.196 15.588,15.588 16.196,15.179 16.487 C 14.620 16.884,13.878 17.212,13.160 17.378 C 12.721 17.480,12.760 17.547,12.760 16.685 L 12.760 15.930 13.030 15.862 C 13.361 15.780,13.943 15.509,14.285 15.278 C 14.611 15.058,15.058 14.611,15.278 14.285 C 15.530 13.912,15.785 13.346,15.887 12.938 C 16.013 12.429,16.013 11.571,15.887 11.062 C 15.785 10.654,15.530 10.088,15.278 9.715 C 15.058 9.389,14.611 8.942,14.285 8.722 C 13.943 8.491,13.361 8.220,13.030 8.138 L 12.760 8.070 12.760 7.315 C 12.760 6.453,12.721 6.520,13.160 6.622 M13.104 9.759 C 13.972 10.196,14.485 11.029,14.485 12.000 C 14.485 12.778,14.155 13.479,13.571 13.939 C 13.338 14.124,12.912 14.360,12.814 14.360 C 12.769 14.360,12.760 13.946,12.760 12.000 C 12.760 10.054,12.769 9.640,12.814 9.640 C 12.843 9.640,12.974 9.694,13.104 9.759 " stroke="none" fill-rule="evenodd" fill="black"></path></svg>