<svg xmlns="http://www.w3.org/2000/svg" fill="none" viewBox="0 0 64 64"><path d="M29.904 6.085 C 25.542 6.334,21.236 7.650,17.851 9.771 C 13.185 12.695,9.675 16.972,7.417 22.486 C 6.797 23.999,6.726 24.471,7.024 25.088 C 7.402 25.868,8.207 26.135,9.018 25.751 C 9.467 25.538,9.605 25.324,10.090 24.091 C 12.032 19.148,14.928 15.469,18.995 12.774 C 22.893 10.191,27.010 8.960,31.747 8.960 C 35.467 8.960,38.008 9.501,41.072 10.945 C 42.560 11.647,43.008 11.746,43.520 11.490 C 43.853 11.324,44.160 10.729,44.160 10.247 C 44.160 9.694,43.417 9.049,41.863 8.253 C 39.145 6.862,36.945 6.305,33.279 6.082 C 32.312 6.023,31.472 5.982,31.413 5.990 C 31.355 5.999,30.676 6.041,29.904 6.085 M30.080 12.062 C 24.260 12.454,18.567 15.852,15.223 20.929 C 13.059 24.216,11.947 27.930,11.947 31.873 C 11.947 33.892,12.043 34.570,12.706 37.250 C 13.301 39.652,13.462 41.167,13.237 42.247 C 13.060 43.094,12.546 44.119,11.956 44.800 C 11.310 45.545,11.200 45.758,11.200 46.260 C 11.202 47.572,12.646 48.117,13.679 47.194 C 14.720 46.265,15.454 45.002,15.840 43.475 C 16.385 41.320,16.306 39.923,15.452 36.614 C 14.926 34.575,14.907 34.447,14.853 32.663 C 14.794 30.710,14.896 29.546,15.265 27.947 C 16.217 23.819,18.972 19.930,22.613 17.573 C 25.469 15.724,28.200 14.922,31.627 14.925 C 35.732 14.929,38.810 15.943,41.867 18.299 C 45.362 20.994,47.994 25.598,49.057 30.880 C 49.787 34.504,49.895 39.603,49.324 43.520 C 49.123 44.901,48.537 47.368,48.168 48.386 C 47.825 49.336,47.816 49.880,48.137 50.356 C 48.462 50.840,48.807 51.005,49.372 50.949 C 49.934 50.894,50.337 50.619,50.582 50.126 C 50.865 49.557,51.499 47.254,51.842 45.547 C 52.416 42.693,52.518 41.537,52.521 37.867 C 52.524 34.979,52.491 34.260,52.287 32.750 C 51.545 27.263,49.686 22.626,46.787 19.029 C 43.614 15.093,38.510 12.403,33.653 12.107 C 31.677 11.986,31.277 11.981,30.080 12.062 M46.667 12.159 C 46.307 12.395,45.973 12.944,45.973 13.298 C 45.973 13.768,46.212 14.129,47.221 15.188 C 49.444 17.520,51.146 19.939,52.482 22.667 C 53.783 25.321,54.497 27.739,54.939 30.987 C 55.279 33.484,55.347 33.764,55.721 34.190 C 56.368 34.928,57.427 34.764,57.826 33.863 C 58.038 33.383,58.039 33.344,57.870 32.020 C 57.059 25.688,55.222 20.620,52.307 16.673 C 51.010 14.916,48.900 12.671,48.053 12.146 C 47.638 11.889,47.069 11.894,46.667 12.159 M30.220 18.037 C 28.024 18.233,25.747 19.072,23.791 20.407 C 22.033 21.608,20.083 23.896,19.164 25.839 C 18.660 26.906,18.165 28.502,17.974 29.680 C 17.770 30.937,17.769 33.373,17.971 34.613 C 18.235 36.234,19.139 39.163,19.586 39.845 C 19.956 40.408,20.797 40.590,21.499 40.257 C 21.873 40.079,22.293 39.392,22.293 38.958 C 22.293 38.833,22.030 37.990,21.708 37.085 C 20.821 34.591,20.758 34.263,20.754 32.107 C 20.751 30.518,20.786 30.099,20.990 29.293 C 21.796 26.100,23.924 23.439,26.827 21.995 C 28.564 21.130,30.038 20.847,32.360 20.935 C 34.024 20.998,34.612 21.138,36.288 21.876 C 37.356 22.346,37.667 22.381,38.149 22.088 C 38.805 21.688,38.901 20.532,38.329 19.920 C 37.617 19.159,35.109 18.266,33.037 18.035 C 31.905 17.908,31.656 17.909,30.220 18.037 M41.209 23.050 C 40.781 23.174,40.349 23.682,40.258 24.170 C 40.199 24.481,40.258 24.684,40.585 25.314 C 42.137 28.298,42.531 29.255,43.028 31.253 C 43.568 33.428,43.746 34.944,43.809 37.929 C 43.871 40.873,43.782 42.318,43.408 44.427 C 42.767 48.038,41.722 50.863,40.179 53.156 C 39.791 53.733,39.443 54.365,39.406 54.561 C 39.206 55.626,40.117 56.462,41.173 56.183 C 41.687 56.047,41.763 55.972,42.483 54.880 C 44.422 51.940,45.908 47.498,46.461 42.987 C 46.818 40.072,46.768 36.007,46.338 33.126 C 45.885 30.082,44.953 27.249,43.558 24.676 C 43.067 23.770,42.387 23.040,42.035 23.040 C 41.923 23.040,41.767 23.020,41.689 22.996 C 41.611 22.972,41.395 22.997,41.209 23.050 M29.760 24.165 C 26.791 24.798,24.706 26.777,23.988 29.644 C 23.636 31.046,23.733 32.751,24.312 35.360 C 24.968 38.314,25.070 38.941,25.140 40.490 C 25.288 43.721,24.472 46.931,22.860 49.468 C 22.312 50.330,21.332 51.491,20.687 52.042 C 19.958 52.665,19.734 53.052,19.734 53.693 C 19.733 54.154,19.780 54.258,20.147 54.626 C 20.492 54.971,20.634 55.040,20.994 55.040 C 21.704 55.040,21.971 54.868,23.205 53.619 C 25.312 51.488,26.684 48.993,27.457 45.886 C 27.925 44.005,27.998 43.347,27.997 41.013 C 27.996 38.515,27.941 38.129,27.147 35.034 C 26.399 32.113,26.415 30.716,27.213 29.218 C 28.620 26.579,33.035 26.059,35.045 28.295 C 36.781 30.225,37.670 33.483,37.833 38.507 C 37.951 42.162,37.561 44.911,36.455 48.213 C 35.586 50.806,34.258 53.054,32.507 54.897 C 31.488 55.969,31.467 56.002,31.467 56.502 C 31.468 57.461,32.191 58.135,33.048 57.974 C 33.789 57.835,35.429 55.980,36.664 53.885 C 38.415 50.914,39.675 47.105,40.287 42.933 C 40.559 41.076,40.556 35.886,40.282 34.080 C 39.686 30.157,38.719 27.821,36.961 26.057 C 35.509 24.599,33.896 23.990,31.537 24.008 C 30.941 24.013,30.141 24.083,29.760 24.165 M6.991 28.745 C 6.498 28.922,6.224 29.237,6.109 29.760 C 5.957 30.450,6.034 34.112,6.228 35.413 C 6.480 37.107,6.916 39.014,7.159 39.491 C 7.542 40.241,8.635 40.473,9.270 39.939 C 9.836 39.463,9.884 39.047,9.559 37.475 C 9.111 35.314,8.964 33.918,8.962 31.787 C 8.960 30.122,8.931 29.756,8.773 29.448 C 8.420 28.754,7.726 28.481,6.991 28.745 M31.153 31.448 C 30.761 31.659,30.400 32.219,30.400 32.617 C 30.400 32.753,30.541 33.408,30.713 34.072 C 31.410 36.754,31.622 39.576,31.311 42.035 C 31.147 43.334,31.145 43.523,31.289 43.867 C 31.693 44.834,33.079 44.940,33.726 44.053 C 34.028 43.641,34.239 42.351,34.311 40.480 C 34.406 38.003,34.076 35.185,33.443 33.075 C 33.128 32.024,32.965 31.745,32.501 31.462 C 32.074 31.202,31.622 31.197,31.153 31.448 M19.893 43.396 C 19.544 43.610,19.500 43.685,18.950 44.994 C 18.243 46.677,17.548 47.575,15.817 49.044 C 15.063 49.683,14.863 50.135,15.042 50.785 C 15.258 51.568,16.146 51.945,16.963 51.599 C 18.904 50.778,21.975 46.486,21.973 44.597 C 21.972 43.538,20.783 42.853,19.893 43.396 M30.602 47.497 C 30.216 47.756,30.135 47.893,29.388 49.533 C 28.696 51.055,27.850 52.262,26.520 53.627 C 25.370 54.809,25.350 54.837,25.309 55.387 C 25.258 56.082,25.533 56.578,26.100 56.815 C 26.883 57.142,27.661 56.739,28.969 55.328 C 30.363 53.823,31.546 51.968,32.255 50.173 C 32.856 48.654,32.742 47.765,31.904 47.430 C 31.312 47.193,31.033 47.207,30.602 47.497 " fill="#0F6148" stroke="none" fill-rule="evenodd"></path></svg>