<svg fill="none" viewBox="0 0 64 64">
  <path fill="#0F6148" d="M8.85 40.183a1.2 1.2 0 0 0 .792-.685q.255-.544.093-1.182a32 32 0 0 1-.675-3.735q-.232-1.939-.14-4.421.024-.686-.348-1.087a1.3 1.3 0 0 0-.907-.45q-.699-.046-1.117.331-.419.379-.488 1.04a29 29 0 0 0 .046 4.35q.21 2.293.884 4.776.186.686.721.969.558.283 1.14.094ZM7.78 25.858q.583.212 1.164-.048.605-.26.86-.969 1.86-5.248 5.233-8.77 3.396-3.546 7.699-5.343a22.7 22.7 0 0 1 8.931-1.82q3.093 0 5.559.614a18.7 18.7 0 0 1 4.558 1.773q.675.378 1.303.331t.93-.685q.28-.639.046-1.088-.232-.473-.767-.803-2.675-1.702-5.489-2.364Q35.017 6 31.667 6q-4.047 0-7.792 1.087a24.5 24.5 0 0 0-6.977 3.286q-3.233 2.199-5.745 5.461t-4.116 7.589q-.35.945-.093 1.584.279.638.837.85Zm48.89 8.794q.604 0 .976-.45.395-.472.35-1.134-.513-4.87-1.745-8.629t-3.187-6.69a28.7 28.7 0 0 0-4.675-5.39q-.51-.496-1.116-.425a1.37 1.37 0 0 0-.93.496 1.4 1.4 0 0 0-.35 1.017q.024.567.56 1.063a29.8 29.8 0 0 1 5.814 7.825q2.302 4.444 2.86 10.804.093.638.466 1.087.372.426.976.426Zm-45.238 12.41a1.45 1.45 0 0 0 1 .615q.652.094 1.163-.378 1.28-1.087 1.93-2.766a9.9 9.9 0 0 0 .652-3.57q0-1.63-.349-2.907a164 164 0 0 1-.697-2.695q-.35-1.395-.35-3.428 0-3.498 1.303-6.572a17.9 17.9 0 0 1 3.628-5.437 17.3 17.3 0 0 1 5.35-3.712q3.046-1.347 6.489-1.347 5.512 0 9.582 2.86 4.094 2.86 6.326 7.99 2.256 5.13 2.256 11.939 0 4.019-.535 6.832t-1.186 4.373q-.232.615-.046 1.182.21.568.697.828.536.236 1.14.023a1.33 1.33 0 0 0 .86-.827q.675-1.867 1.303-4.965.628-3.12.628-7.47 0-5.744-1.489-10.449-1.487-4.704-4.256-8.108-2.745-3.405-6.628-5.248-3.861-1.844-8.652-1.844-4.024 0-7.582 1.584a20.2 20.2 0 0 0-6.28 4.302 20.3 20.3 0 0 0-4.233 6.36q-1.536 3.616-1.535 7.706 0 1.962.349 3.546.372 1.56.72 2.908.373 1.323.396 2.553 0 1.23-.442 2.293a4.8 4.8 0 0 1-1.21 1.797 1.65 1.65 0 0 0-.534.992q-.07.591.232 1.04m5.699 4.469q.906-.45 1.884-1.513.976-1.065 1.767-2.364.814-1.324 1.14-2.554a1.6 1.6 0 0 0-.07-1.11q-.233-.544-.837-.757a1.23 1.23 0 0 0-1.047.095q-.512.284-.72.921-.466 1.514-1.303 2.672a8.7 8.7 0 0 1-2.094 2.033q-.65.473-.814 1.016-.14.568.07 1.017.233.52.791.709.558.213 1.233-.165m5.023-13.215q-.441-1.206-.976-2.719-.512-1.536-.512-3.546 0-3.12 1.465-5.65a11.2 11.2 0 0 1 3.977-4.042q2.49-1.49 5.559-1.49 1.185 0 1.93.119.767.095 1.466.378.697.26 1.72.733.582.283 1.07.142a1.06 1.06 0 0 0 .698-.591q.302-.544.14-1.135-.163-.614-.814-.993-1.163-.685-2.814-1.135a12.7 12.7 0 0 0-3.396-.449q-2.907 0-5.42 1.088a13.9 13.9 0 0 0-4.418 3.026 13.8 13.8 0 0 0-2.977 4.491q-1.07 2.553-1.07 5.508 0 2.223.488 4.066.512 1.845 1.093 3.31.257.661.791.922.558.236 1.233-.024.58-.235.767-.804.21-.567 0-1.205m18.42-12.931q1.652 2.529 2.49 5.91.837 3.38.837 7.612 0 4.491-1.14 8.487-1.116 3.995-3.047 6.406a1.86 1.86 0 0 0-.349 1.04q-.023.615.419 1.017.465.45 1.116.401.652-.046 1.047-.567 2.163-2.979 3.465-7.446 1.303-4.468 1.303-9.433 0-3.663-.489-6.383-.465-2.742-1.302-4.798a26.6 26.6 0 0 0-1.837-3.783q-.396-.614-1-.804a1.38 1.38 0 0 0-1.117.095q-.58.307-.698.946-.115.637.303 1.3Zm-18.49 29.313q2.909-2.388 4.443-6.004 1.558-3.641 1.535-7.825-.023-2.128-.395-3.735a56 56 0 0 0-.745-2.931q-.348-1.3-.349-2.436 0-2.22 1.373-3.546 1.395-1.347 3.674-1.347 2.256 0 3.582 1.56 1.349 1.56 1.954 4.232.628 2.67.72 5.98.118 3.666-.627 6.904-.744 3.239-2.117 5.768-1.371 2.553-3.14 4.113-.465.379-.558.922-.07.545.233 1.04.348.52.977.591.651.094 1.163-.378 1.86-1.725 3.395-4.68 1.56-2.956 2.466-6.667.907-3.735.883-7.801 0-4.185-.883-7.447-.884-3.285-2.838-5.153-1.953-1.892-5.21-1.892-2.233 0-4.023.946a7.3 7.3 0 0 0-2.814 2.648q-1.024 1.701-1.024 3.948 0 1.371.35 2.907.348 1.537.697 3.168.372 1.631.395 3.286.024 3.546-1.256 6.572-1.255 3.002-3.651 4.964-.489.45-.582.993a1.45 1.45 0 0 0 .233 1.064q.396.567 1 .614.628.048 1.14-.378Zm5.513 1.915q1.395-1.04 2.837-3.097a14.7 14.7 0 0 0 2.163-4.302 1.9 1.9 0 0 0-.023-1.064q-.14-.591-.744-.78-.651-.237-1.163.047a1.48 1.48 0 0 0-.698.804q-.837 2.2-1.884 3.64-1.047 1.443-2.233 2.412-.465.378-.581.945a1.4 1.4 0 0 0 .21 1.088q.3.543.93.614.651.095 1.186-.307m6.419-13.238q.326-1.632.326-3.475a24 24 0 0 0-.256-3.76 21 21 0 0 0-.837-3.71q-.234-.71-.745-.993a1.27 1.27 0 0 0-1.093-.119 1.45 1.45 0 0 0-.86.71q-.256.496-.07 1.158.534 1.725.767 3.404.255 1.678.233 3.286 0 1.584-.28 3.097a1.63 1.63 0 0 0 .14 1.087q.279.473.93.591.606.119 1.117-.236.511-.354.628-1.04"/>
</svg>
