<svg fill="none" viewBox="0 0 64 64">
  <path fill="#0F6148" d="M8.85 40.183a1.2 1.2 0 0 0 .792-.685c.17-.363.201-.757.093-1.182a32.353 32.353 0 0 1-.675-3.735c-.155-1.293-.201-2.766-.14-4.421.016-.457-.1-.82-.348-1.087a1.299 1.299 0 0 0-.907-.45c-.466-.031-.838.08-1.117.331-.279.252-.442.6-.488 1.04a29.34 29.34 0 0 0 .046 4.35c.14 1.529.434 3.12.884 4.776.124.457.365.78.721.969.372.189.752.22 1.14.094ZM7.78 25.858c.389.141.776.126 1.164-.048.403-.173.69-.496.86-.969 1.24-3.499 2.985-6.422 5.233-8.77 2.264-2.364 4.83-4.145 7.699-5.343a22.7 22.7 0 0 1 8.931-1.82c2.062 0 3.915.205 5.559.614a18.736 18.736 0 0 1 4.558 1.773c.45.252.884.363 1.303.331.418-.031.728-.26.93-.685.186-.426.202-.788.046-1.088-.155-.315-.41-.583-.767-.803-1.783-1.135-3.613-1.923-5.489-2.364C35.947 6.229 33.9 6 31.667 6c-2.698 0-5.295.362-7.792 1.087a24.466 24.466 0 0 0-6.977 3.286c-2.155 1.466-4.07 3.286-5.745 5.461-1.674 2.175-3.046 4.705-4.116 7.589-.233.63-.264 1.158-.093 1.584.186.425.465.709.837.85Zm48.89 8.794c.402 0 .728-.15.976-.45.264-.315.38-.693.35-1.134-.342-3.247-.924-6.123-1.745-8.629-.822-2.506-1.884-4.736-3.187-6.69a28.723 28.723 0 0 0-4.675-5.39c-.34-.33-.713-.473-1.116-.425a1.369 1.369 0 0 0-.93.496 1.403 1.403 0 0 0-.35 1.017c.016.378.203.732.56 1.063a29.832 29.832 0 0 1 5.814 7.825c1.535 2.963 2.488 6.564 2.86 10.804.062.425.218.788.466 1.087.248.284.573.426.976.426Zm-45.238 12.41a1.45 1.45 0 0 0 1 .615c.435.063.822-.063 1.163-.378.853-.725 1.497-1.647 1.93-2.766a9.903 9.903 0 0 0 .652-3.57c0-1.087-.116-2.056-.349-2.907a163.7 163.7 0 0 1-.697-2.695c-.233-.93-.35-2.073-.35-3.428 0-2.332.435-4.523 1.303-6.572a17.863 17.863 0 0 1 3.628-5.437 17.344 17.344 0 0 1 5.35-3.712c2.03-.898 4.194-1.347 6.489-1.347 3.674 0 6.869.954 9.582 2.86 2.729 1.907 4.838 4.57 6.326 7.99 1.504 3.42 2.256 7.4 2.256 11.939 0 2.68-.178 4.956-.535 6.832-.356 1.875-.752 3.333-1.186 4.373-.155.41-.17.804-.046 1.182.14.379.372.654.697.828.357.157.737.165 1.14.023a1.33 1.33 0 0 0 .86-.827c.45-1.245.884-2.9 1.303-4.965.419-2.08.628-4.57.628-7.47 0-3.83-.496-7.312-1.489-10.449-.992-3.136-2.41-5.839-4.256-8.108-1.83-2.27-4.039-4.019-6.628-5.248-2.574-1.23-5.458-1.844-8.652-1.844-2.683 0-5.21.528-7.582 1.584a20.185 20.185 0 0 0-6.28 4.302 20.264 20.264 0 0 0-4.233 6.36c-1.024 2.41-1.535 4.98-1.535 7.706 0 1.308.116 2.49.349 3.546.248 1.04.488 2.01.72 2.908.249.882.38 1.733.396 2.553 0 .82-.147 1.584-.442 2.293a4.813 4.813 0 0 1-1.21 1.797 1.652 1.652 0 0 0-.534.992c-.047.394.03.741.232 1.04Zm5.699 4.469c.604-.3 1.232-.804 1.884-1.513.65-.71 1.24-1.498 1.767-2.364.543-.883.923-1.734 1.14-2.554a1.613 1.613 0 0 0-.07-1.11c-.155-.363-.434-.615-.837-.757a1.227 1.227 0 0 0-1.047.095c-.341.189-.581.496-.72.921-.311 1.01-.745 1.9-1.303 2.672a8.656 8.656 0 0 1-2.094 2.033c-.434.315-.705.654-.814 1.016-.093.379-.07.717.07 1.017.155.346.419.583.791.709.372.142.783.087 1.233-.165Zm5.023-13.215c-.294-.804-.62-1.71-.976-2.719-.342-1.024-.512-2.206-.512-3.546 0-2.08.488-3.963 1.465-5.65a11.204 11.204 0 0 1 3.977-4.042c1.66-.993 3.512-1.49 5.559-1.49.79 0 1.434.04 1.93.119.512.063 1 .189 1.466.378.465.173 1.038.418 1.72.733.388.189.745.236 1.07.142a1.06 1.06 0 0 0 .698-.591c.202-.363.248-.741.14-1.135-.109-.41-.38-.74-.814-.993-.775-.457-1.714-.835-2.814-1.135a12.696 12.696 0 0 0-3.396-.449c-1.938 0-3.745.363-5.42 1.088a13.87 13.87 0 0 0-4.418 3.026 13.782 13.782 0 0 0-2.977 4.491c-.713 1.702-1.07 3.538-1.07 5.508 0 1.482.163 2.837.488 4.066.341 1.23.706 2.333 1.093 3.31.171.441.435.748.791.922.372.157.783.15 1.233-.024.387-.157.643-.425.767-.804.14-.378.14-.78 0-1.205Zm18.42-12.931c1.102 1.686 1.931 3.656 2.49 5.91.558 2.253.837 4.79.837 7.612 0 2.994-.38 5.823-1.14 8.487-.744 2.663-1.76 4.799-3.047 6.406a1.86 1.86 0 0 0-.349 1.04c-.015.41.124.749.419 1.017.31.3.682.433 1.116.401.435-.031.783-.22 1.047-.567 1.442-1.986 2.597-4.468 3.465-7.446.869-2.979 1.303-6.123 1.303-9.433 0-2.442-.163-4.57-.489-6.383-.31-1.828-.744-3.427-1.302-4.798a26.581 26.581 0 0 0-1.837-3.783c-.264-.41-.597-.677-1-.804a1.38 1.38 0 0 0-1.117.095c-.387.205-.62.52-.698.946-.077.425.024.858.303 1.3Zm-18.49 29.313c1.939-1.592 3.42-3.593 4.443-6.004 1.039-2.427 1.55-5.036 1.535-7.825-.016-1.419-.147-2.663-.395-3.735a56.01 56.01 0 0 0-.745-2.931c-.232-.867-.349-1.679-.349-2.436 0-1.48.458-2.663 1.373-3.546.93-.898 2.155-1.347 3.674-1.347 1.504 0 2.698.52 3.582 1.56.9 1.04 1.55 2.451 1.954 4.232.419 1.78.659 3.774.72 5.98.078 2.444-.13 4.745-.627 6.904-.496 2.159-1.202 4.082-2.117 5.768-.914 1.702-1.961 3.073-3.14 4.113-.31.252-.496.56-.558.922-.046.363.031.71.233 1.04.232.347.558.544.977.591.434.063.822-.063 1.163-.378 1.24-1.15 2.372-2.71 3.395-4.68 1.04-1.97 1.861-4.193 2.466-6.667.604-2.49.9-5.09.883-7.801 0-2.79-.294-5.272-.883-7.447-.59-2.19-1.535-3.908-2.838-5.153-1.302-1.261-3.039-1.892-5.21-1.892-1.488 0-2.83.316-4.023.946a7.274 7.274 0 0 0-2.814 2.648c-.683 1.134-1.024 2.45-1.024 3.948 0 .914.116 1.883.35 2.907.232 1.025.464 2.08.697 3.168.248 1.087.38 2.183.395 3.286.016 2.364-.403 4.554-1.256 6.572-.837 2.001-2.054 3.656-3.651 4.964-.326.3-.52.63-.582.993a1.45 1.45 0 0 0 .233 1.064c.264.378.597.583 1 .614.419.032.799-.094 1.14-.378Zm5.513 1.915c.93-.693 1.876-1.726 2.837-3.097a14.74 14.74 0 0 0 2.163-4.302 1.914 1.914 0 0 0-.023-1.064c-.093-.394-.341-.654-.744-.78-.434-.158-.822-.142-1.163.047a1.477 1.477 0 0 0-.698.804c-.558 1.466-1.186 2.68-1.884 3.64-.698.962-1.442 1.766-2.233 2.412-.31.252-.503.567-.581.945a1.41 1.41 0 0 0 .21 1.088c.2.362.511.567.93.614.434.063.83-.039 1.186-.307Zm6.419-13.238c.217-1.088.326-2.246.326-3.475a23.685 23.685 0 0 0-.256-3.76 21.11 21.11 0 0 0-.837-3.71c-.156-.473-.404-.804-.745-.993a1.269 1.269 0 0 0-1.093-.119 1.445 1.445 0 0 0-.86.71c-.171.33-.194.717-.07 1.158.356 1.15.612 2.285.767 3.404.17 1.119.248 2.214.233 3.286 0 1.056-.093 2.088-.28 3.097a1.63 1.63 0 0 0 .14 1.087c.186.316.496.512.93.591.404.08.776 0 1.117-.236.341-.236.55-.583.628-1.04Z"/>
</svg>
