<svg xmlns="http://www.w3.org/2000/svg" fill="none" viewBox="0 0 64 64">
  <path fill="#0F6148" fill-rule="evenodd" d="M29.904 6.085c-4.362.249-8.668 1.565-12.053 3.686-4.666 2.924-8.176 7.201-10.434 12.715-.62 1.513-.691 1.985-.393 2.602.378.78 1.183 1.047 1.994.663.449-.213.587-.427 1.072-1.66 1.942-4.943 4.838-8.622 8.905-11.317 3.898-2.583 8.015-3.814 12.752-3.814 3.72 0 6.261.541 9.325 1.985 1.488.702 1.936.801 2.448.545.333-.166.64-.761.64-1.243 0-.553-.743-1.198-2.297-1.994-2.718-1.391-4.918-1.948-8.584-2.171-.967-.059-1.807-.1-1.866-.092-.058.009-.737.051-1.509.095m.176 5.977c-5.82.392-11.513 3.79-14.857 8.867a19.66 19.66 0 0 0-3.276 10.944c0 2.019.096 2.697.759 5.377.595 2.402.756 3.917.531 4.997-.177.847-.691 1.872-1.281 2.553-.646.745-.756.958-.756 1.46.002 1.312 1.446 1.857 2.479.934 1.041-.929 1.775-2.192 2.161-3.719.545-2.155.466-3.552-.388-6.861-.526-2.039-.545-2.167-.599-3.951-.059-1.953.043-3.117.412-4.716.952-4.128 3.707-8.017 7.348-10.374 2.856-1.849 5.587-2.651 9.014-2.648 4.105.004 7.183 1.018 10.24 3.374 3.495 2.695 6.127 7.299 7.19 12.581.73 3.624.838 8.723.267 12.64-.201 1.381-.787 3.848-1.156 4.866-.343.95-.352 1.494-.031 1.97.325.484.67.649 1.235.593q.843-.083 1.21-.823c.283-.569.917-2.872 1.26-4.579.574-2.854.676-4.01.679-7.68.003-2.888-.03-3.607-.234-5.117-.742-5.487-2.601-10.124-5.5-13.721-3.173-3.936-8.277-6.626-13.134-6.922-1.976-.121-2.376-.126-3.573-.045m16.587.097c-.36.236-.694.785-.694 1.139 0 .47.239.831 1.248 1.89 2.223 2.332 3.925 4.751 5.261 7.479 1.301 2.654 2.015 5.072 2.457 8.32.34 2.497.408 2.777.782 3.203.647.738 1.706.574 2.105-.327.212-.48.213-.519.044-1.843-.811-6.332-2.648-11.4-5.563-15.347-1.297-1.757-3.407-4.002-4.254-4.527a1.32 1.32 0 0 0-1.386.013M30.22 18.037c-2.196.196-4.473 1.035-6.429 2.37-1.758 1.201-3.708 3.489-4.627 5.432-.504 1.067-.999 2.663-1.19 3.841-.204 1.257-.205 3.693-.003 4.933.264 1.621 1.168 4.55 1.615 5.232.37.563 1.211.745 1.913.412.374-.178.794-.865.794-1.299 0-.125-.263-.968-.585-1.873-.887-2.494-.95-2.822-.954-4.978-.003-1.589.032-2.008.236-2.814.806-3.193 2.934-5.854 5.837-7.298 1.737-.865 3.211-1.148 5.533-1.06 1.664.063 2.252.203 3.928.941 1.068.47 1.379.505 1.861.212.656-.4.752-1.556.18-2.168-.712-.761-3.22-1.654-5.292-1.885-1.132-.127-1.381-.126-2.817.002m10.989 5.013c-.428.124-.86.632-.951 1.12-.059.311 0 .514.327 1.144 1.552 2.984 1.946 3.941 2.443 5.939.54 2.175.718 3.691.781 6.676.062 2.944-.027 4.389-.401 6.498-.641 3.611-1.686 6.436-3.229 8.729-.388.577-.736 1.209-.773 1.405-.2 1.065.711 1.901 1.767 1.622.514-.136.59-.211 1.31-1.303 1.939-2.94 3.425-7.382 3.978-11.893.357-2.915.307-6.98-.123-9.861-.453-3.044-1.385-5.877-2.78-8.45-.491-.906-1.171-1.636-1.523-1.636-.112 0-.268-.02-.346-.044s-.294.001-.48.054M29.76 24.165c-2.969.633-5.054 2.612-5.772 5.479-.352 1.402-.255 3.107.324 5.716.656 2.954.758 3.581.828 5.13.148 3.231-.668 6.441-2.28 8.978-.548.862-1.528 2.023-2.173 2.574-.729.623-.953 1.01-.953 1.651-.001.461.046.565.413.933.345.345.487.414.847.414.71 0 .977-.172 2.211-1.421 2.107-2.131 3.479-4.626 4.252-7.733.468-1.881.541-2.539.54-4.873-.001-2.498-.056-2.884-.85-5.979-.748-2.921-.732-4.318.066-5.816 1.407-2.639 5.822-3.159 7.832-.923 1.736 1.93 2.625 5.188 2.788 10.212.118 3.655-.272 6.404-1.378 9.706-.869 2.593-2.197 4.841-3.948 6.684-1.019 1.072-1.04 1.105-1.04 1.605.001.959.724 1.633 1.581 1.472.741-.139 2.381-1.994 3.616-4.089 1.751-2.971 3.011-6.78 3.623-10.952.272-1.857.269-7.047-.005-8.853-.596-3.923-1.563-6.259-3.321-8.023-1.452-1.458-3.065-2.067-5.424-2.049-.596.005-1.396.075-1.777.157m-22.769 4.58c-.493.177-.767.492-.882 1.015-.152.69-.075 4.352.119 5.653.252 1.694.688 3.601.931 4.078.383.75 1.476.982 2.111.448.566-.476.614-.892.289-2.464-.448-2.161-.595-3.557-.597-5.688-.002-1.665-.031-2.031-.189-2.339-.353-.694-1.047-.967-1.782-.703m24.162 2.703c-.392.211-.753.771-.753 1.169 0 .136.141.791.313 1.455.697 2.682.909 5.504.598 7.963-.164 1.299-.166 1.488-.022 1.832.404.967 1.79 1.073 2.437.186.302-.412.513-1.702.585-3.573.095-2.477-.235-5.295-.868-7.405-.315-1.051-.478-1.33-.942-1.613-.427-.26-.879-.265-1.348-.014m-11.26 11.948c-.349.214-.393.289-.943 1.598-.707 1.683-1.402 2.581-3.133 4.05-.754.639-.954 1.091-.775 1.741.216.783 1.104 1.16 1.921.814 1.941-.821 5.012-5.113 5.01-7.002-.001-1.059-1.19-1.744-2.08-1.201m10.709 4.101c-.386.259-.467.396-1.214 2.036-.692 1.522-1.538 2.729-2.868 4.094-1.15 1.182-1.17 1.21-1.211 1.76-.051.695.224 1.191.791 1.428.783.327 1.561-.076 2.869-1.487 1.394-1.505 2.577-3.36 3.286-5.155.601-1.519.487-2.408-.351-2.743-.592-.237-.871-.223-1.302.067"/>
</svg>
