<svg xmlns="http://www.w3.org/2000/svg" xml:space="preserve" fill="none" viewBox="0 0 16 16"><path d="M5.013 1.815 C 4.842 1.892,1.920 4.807,1.821 4.999 C 1.771 5.097,1.753 5.174,1.752 5.295 C 1.749 5.607,1.733 5.589,3.392 7.245 C 4.534 8.385,4.922 8.757,5.013 8.798 C 5.157 8.863,5.425 8.871,5.559 8.815 C 5.702 8.756,5.885 8.570,5.938 8.431 C 5.965 8.362,5.985 8.241,5.984 8.160 C 5.980 7.876,5.944 7.829,4.994 6.876 L 4.124 6.001 7.522 5.994 C 10.840 5.987,10.923 5.985,11.026 5.934 C 11.277 5.810,11.420 5.584,11.423 5.308 C 11.425 5.091,11.350 4.921,11.192 4.786 C 10.980 4.604,11.175 4.613,7.456 4.613 L 4.095 4.613 5.004 3.700 C 5.989 2.711,5.982 2.720,5.982 2.427 C 5.982 2.166,5.825 1.921,5.587 1.811 C 5.439 1.742,5.171 1.744,5.013 1.815 M10.907 7.989 C 10.785 8.042,10.623 8.200,10.554 8.333 C 10.515 8.408,10.499 8.492,10.498 8.613 C 10.496 8.924,10.516 8.951,11.486 9.924 L 12.357 10.799 8.958 10.806 L 5.560 10.813 5.440 10.876 C 5.276 10.961,5.207 11.030,5.127 11.187 C 5.032 11.373,5.032 11.623,5.126 11.805 C 5.210 11.968,5.409 12.122,5.581 12.159 C 5.665 12.177,6.846 12.187,9.047 12.187 L 12.386 12.187 11.476 13.100 C 10.485 14.095,10.494 14.082,10.497 14.387 C 10.499 14.644,10.655 14.882,10.893 14.990 C 11.042 15.058,11.310 15.055,11.467 14.985 C 11.637 14.908,14.559 11.994,14.660 11.800 C 14.747 11.633,14.756 11.377,14.681 11.213 C 14.606 11.051,11.627 8.074,11.467 8.002 C 11.321 7.936,11.044 7.930,10.907 7.989 " fill="#1B1A19" stroke="none" fill-rule="evenodd"></path></svg>