<svg xmlns="http://www.w3.org/2000/svg" xml:space="preserve" fill="none" viewBox="0 0 16 16">
  <path fill="#1B1A19" stroke="#1B1A19" stroke-width=".067" d="M2.437 5.964h7.281c.337 0 .674.005 1.01 0h.015a.676.676 0 0 0 .466-.193.67.67 0 0 0 .193-.466.66.66 0 0 0-.193-.465.683.683 0 0 0-.466-.194H3.462c-.337 0-.674-.004-1.01 0h-.015a.676.676 0 0 0-.466.194.66.66 0 0 0 .466 1.124Z"/>
  <path fill="#1B1A19" stroke="#1B1A19" stroke-width=".067" d="m5.768 7.708-.97-.97L3.25 5.19l-.35-.351v.931a88847.507 88847.507 0 0 0 2.516-2.517l.351-.351a.679.679 0 0 0 .194-.466.663.663 0 0 0-.659-.659.686.686 0 0 0-.466.194l-.97.97L2.32 4.488l-.351.352a.668.668 0 0 0 0 .931l.97.97 1.547 1.547.351.351a.68.68 0 0 0 .466.194.663.663 0 0 0 .659-.659.682.682 0 0 0-.194-.466Zm8.277 3.126H6.764c-.337 0-.674-.004-1.01 0h-.015a.676.676 0 0 0-.466.193.67.67 0 0 0-.193.466.66.66 0 0 0 .193.466.683.683 0 0 0 .466.193h7.281c.337 0 .674.004 1.01 0h.015a.676.676 0 0 0 .466-.193.67.67 0 0 0 .193-.466.661.661 0 0 0-.659-.659Z"/>
  <path fill="#1B1A19" stroke="#1B1A19" stroke-width=".067" d="m11.642 14.829.97-.971 1.547-1.546.351-.352a.668.668 0 0 0 0-.931l-.97-.97-1.547-1.547-.351-.351a.68.68 0 0 0-.466-.194.663.663 0 0 0-.659.659.69.69 0 0 0 .194.466l.97.97 1.547 1.547.351.351v-.931l-.97.97-1.547 1.547a582.1 582.1 0 0 1-.351.351.68.68 0 0 0-.194.466.663.663 0 0 0 .659.659.692.692 0 0 0 .466-.194Z"/>
</svg>
