<svg xmlns="http://www.w3.org/2000/svg" xml:space="preserve" fill="none" viewBox="0 0 16 16">
  <path fill="#1B1A19" fill-rule="evenodd" d="M5.013 1.815c-.171.077-3.093 2.992-3.192 3.184a.6.6 0 0 0-.069.296c-.003.312-.019.294 1.64 1.95 1.142 1.14 1.53 1.512 1.621 1.553a.85.85 0 0 0 .546.017.83.83 0 0 0 .379-.384.9.9 0 0 0 .046-.271c-.004-.284-.04-.331-.99-1.284l-.87-.875 3.398-.007c3.318-.007 3.401-.009 3.504-.06a.68.68 0 0 0 .397-.626.64.64 0 0 0-.231-.522c-.212-.182-.017-.173-3.736-.173H4.095l.909-.913c.985-.989.978-.98.978-1.273a.69.69 0 0 0-.395-.616.8.8 0 0 0-.574.004m5.894 6.174a.9.9 0 0 0-.353.344.6.6 0 0 0-.056.28c-.002.311.018.338.988 1.311l.871.875-3.399.007-3.398.007-.12.063a.6.6 0 0 0-.313.311.71.71 0 0 0-.001.618.75.75 0 0 0 .455.354c.084.018 1.265.028 3.466.028h3.339l-.91.913c-.991.995-.982.982-.979 1.287a.67.67 0 0 0 .396.603.82.82 0 0 0 .574-.005c.17-.077 3.092-2.991 3.193-3.185a.74.74 0 0 0 .021-.587c-.075-.162-3.054-3.139-3.214-3.211a.86.86 0 0 0-.56-.013"/>
</svg>
