<svg xmlns="http://www.w3.org/2000/svg" viewBox="0 0 24 24"><path d="M15.330 1.943 C 15.102 2.056,14.927 2.235,14.791 2.491 C 14.674 2.713,14.667 3.153,14.776 3.360 C 14.894 3.582,15.147 3.854,17.316 6.080 L 19.361 8.180 19.130 8.206 C 19.004 8.220,15.174 8.233,10.620 8.236 L 2.340 8.241 2.138 8.356 C 1.837 8.530,1.647 8.744,1.574 8.997 C 1.421 9.519,1.645 10.091,2.096 10.332 C 2.258 10.419,2.290 10.420,4.660 10.445 C 7.771 10.477,16.396 10.477,19.420 10.445 C 22.089 10.417,21.897 10.442,22.199 10.081 C 22.382 9.862,22.480 9.604,22.480 9.340 C 22.480 9.113,22.416 8.938,22.244 8.700 C 21.863 8.171,17.543 3.199,16.746 2.371 C 16.551 2.169,16.315 1.966,16.223 1.921 C 15.974 1.801,15.596 1.810,15.330 1.943 M4.896 13.599 L 2.253 13.620 2.033 13.766 C 1.771 13.940,1.574 14.219,1.537 14.468 C 1.495 14.743,1.544 15.033,1.660 15.201 C 1.989 15.675,7.996 21.742,8.415 22.023 C 8.637 22.172,8.665 22.180,8.931 22.173 C 9.464 22.160,9.828 21.870,9.984 21.333 C 10.065 21.054,10.030 20.782,9.882 20.550 C 9.738 20.322,9.396 19.963,7.168 17.692 L 5.315 15.805 13.448 15.789 C 19.639 15.777,21.622 15.762,21.756 15.725 C 22.307 15.574,22.620 14.891,22.403 14.314 C 22.295 14.029,22.034 13.745,21.820 13.679 C 21.501 13.581,12.395 13.538,4.896 13.599 " stroke="none" fill-rule="evenodd" fill="black"></path></svg>