<svg xmlns="http://www.w3.org/2000/svg" xml:space="preserve" fill="none" viewBox="0 0 20 20"><path d="M6.529 1.226 C 6.112 1.444,6.002 2.006,6.309 2.355 C 6.365 2.418,6.472 2.503,6.547 2.544 L 6.683 2.617 10.000 2.617 L 13.317 2.617 13.453 2.544 C 13.528 2.503,13.635 2.418,13.691 2.355 C 13.998 2.006,13.888 1.444,13.471 1.226 L 13.292 1.133 10.000 1.133 L 6.708 1.133 6.529 1.226 M2.833 3.686 C 2.566 3.802,2.394 4.067,2.392 4.364 C 2.390 4.589,2.453 4.748,2.603 4.897 C 2.766 5.061,2.907 5.108,3.292 5.126 L 3.633 5.142 3.633 10.781 C 3.633 17.048,3.618 16.636,3.859 16.996 C 4.015 17.228,4.269 17.436,4.522 17.538 L 4.717 17.617 10.000 17.617 L 15.283 17.617 15.478 17.538 C 15.729 17.437,15.984 17.229,16.139 16.999 C 16.383 16.638,16.367 17.080,16.367 10.794 L 16.367 5.142 16.708 5.126 C 17.093 5.108,17.234 5.061,17.397 4.897 C 17.766 4.529,17.640 3.886,17.159 3.685 C 17.049 3.639,16.286 3.633,9.993 3.635 C 3.775 3.636,2.936 3.642,2.833 3.686 M14.867 10.633 L 14.867 16.133 10.000 16.133 L 5.133 16.133 5.133 10.633 L 5.133 5.133 10.000 5.133 L 14.867 5.133 14.867 10.633 " stroke="none" fill-rule="evenodd" fill="black"></path></svg>