<svg xmlns="http://www.w3.org/2000/svg" xml:space="preserve" fill="none" viewBox="0 0 20 20">
  <path fill="#000" fill-rule="evenodd" d="M12.708 2.448c-.285.09-.58.327-.748.602-.159.259-.172.334-.191 1.1l-.019.733-.517.021c-.4.016-.569.038-.75.096-.746.238-1.339.767-1.627 1.452-.19.454-.198.517-.214 1.706l-.014 1.109H7.009l-.017-.559c-.014-.463-.03-.59-.089-.746a1.42 1.42 0 0 0-.798-.802c-.186-.075-.21-.076-1.884-.087-1.102-.007-1.777.002-1.927.026a1.35 1.35 0 0 0-1.031.776l-.113.242v3.766l.113.242c.198.422.574.705 1.031.776.15.024.825.033 1.927.026 1.674-.011 1.698-.012 1.884-.087a1.42 1.42 0 0 0 .798-.802c.059-.156.075-.283.089-.746l.017-.559h1.624l.001.992c.002 1.102.028 1.335.194 1.751.297.74.879 1.276 1.655 1.524.181.058.35.08.75.096l.517.021.019.733c.019.787.03.843.215 1.135.132.208.339.389.582.508l.184.09h4.5l.184-.09c.369-.181.64-.495.748-.867.047-.163.053-.437.044-2.33l-.009-2.146-.104-.218a1.4 1.4 0 0 0-.976-.765c-.241-.045-4.033-.045-4.274 0-.417.079-.789.37-.976.764l-.104.219-.011.742-.011.741h-.339c-.499-.001-.755-.094-1.001-.366a1.1 1.1 0 0 1-.288-.623c-.05-.332-.026-5.32.027-5.478.111-.334.435-.654.753-.747.111-.032.31-.052.514-.052h.334l.011.741.011.742.104.218c.185.392.562.687.976.765.108.02.954.034 2.137.034s2.029-.014 2.137-.034c.414-.078.791-.373.976-.765l.104-.218.009-2.146c.009-1.893.003-2.167-.044-2.33a1.42 1.42 0 0 0-.748-.867l-.184-.09-2.2-.007c-1.761-.005-2.228.002-2.342.038m4.051 3.177-.009 1.758h-3.5l-.009-1.758-.008-1.758h3.534zM5.5 10.017v1.45l-1.442-.008-1.441-.009-.009-1.442-.009-1.441H5.5zm11.259 4.358.008 1.758h-3.534v-1.744c0-.96.01-1.755.023-1.767s.803-.019 1.758-.014l1.736.009z"/>
</svg>
