<svg xmlns="http://www.w3.org/2000/svg" xml:space="preserve" fill="none" viewBox="0 0 20 20">
  <path stroke="#616161" stroke-linecap="round" stroke-linejoin="round" stroke-width="1.5" d="M5.625 7.813H2.5a.625.625 0 0 0-.625.625v3.124c0 .346.28.626.625.626h3.125c.345 0 .625-.28.625-.626V8.438a.625.625 0 0 0-.625-.626Zm11.25-4.688h-3.75a.625.625 0 0 0-.625.625V7.5c0 .345.28.625.625.625h3.75c.345 0 .625-.28.625-.625V3.75a.625.625 0 0 0-.625-.625m0 8.75h-3.75a.625.625 0 0 0-.625.625v3.75c0 .345.28.625.625.625h3.75c.345 0 .625-.28.625-.625V12.5a.625.625 0 0 0-.625-.625M6.25 10h3.125"/>
  <path stroke="#616161" stroke-linecap="round" stroke-linejoin="round" stroke-width="1.5" d="M12.5 14.375h-1.25A1.865 1.865 0 0 1 9.375 12.5v-5a1.867 1.867 0 0 1 1.875-1.875h1.25"/>
</svg>
