<svg xmlns="http://www.w3.org/2000/svg" viewBox="0 0 17 16">
  <path fill-rule="evenodd" d="M1.945 3.8c-.26.137-.499.482-.5.721 0 .173.101.307.729.964.652.683 3.912 3.925 4.152 4.13.246.21.461.234.727.082.069-.039.593-.535 1.164-1.102l1.04-1.03 2.058 2.068c1.132 1.138 2.058 2.079 2.058 2.092 0 .023-1.236.062-1.995.062-.439 0-.541.024-.678.157-.154.15-.198.271-.199.551-.001.372.111.588.365.698.103.045.322.052 2.328.074l2.216.024.164-.084a1 1 0 0 0 .227-.15c.096-.103.215-.386.216-.516.001-.064-.009-1.06-.022-2.214-.025-2.247-.017-2.149-.173-2.335-.143-.169-.264-.207-.619-.196-.361.012-.459.051-.591.239-.072.102-.083.15-.106.452-.015.187-.027.758-.027 1.27l-.001.931-2.316-2.303a205 205 0 0 0-2.506-2.466c-.218-.188-.358-.228-.578-.167-.154.043-.341.215-1.52 1.386l-.815.809-1.551-1.545c-2.056-2.049-2.6-2.574-2.714-2.622a.76.76 0 0 0-.533.02"/>
</svg>
