<svg xmlns="http://www.w3.org/2000/svg" viewBox="0 0 16 16"><path d="M12.253 2.746 C 10.881 2.760,10.273 2.775,10.192 2.797 C 10.124 2.816,10.032 2.874,9.962 2.941 C 9.808 3.089,9.747 3.285,9.767 3.572 C 9.792 3.933,9.914 4.113,10.193 4.203 C 10.313 4.242,10.502 4.251,11.500 4.264 L 12.667 4.280 10.588 6.359 L 8.509 8.437 7.501 7.439 C 6.947 6.889,6.426 6.394,6.343 6.338 C 6.068 6.151,5.880 6.168,5.580 6.407 C 5.344 6.596,2.309 9.605,1.445 10.507 C 0.782 11.199,0.720 11.283,0.720 11.486 C 0.720 11.757,0.936 12.064,1.232 12.212 C 1.514 12.353,1.658 12.322,1.976 12.051 C 2.084 11.959,3.034 11.025,4.086 9.977 L 5.999 8.071 7.006 9.069 C 7.560 9.618,8.082 10.114,8.167 10.171 C 8.350 10.296,8.549 10.328,8.689 10.255 C 8.862 10.166,9.212 9.830,11.439 7.614 C 13.661 5.404,13.719 5.349,13.736 5.427 C 13.746 5.471,13.755 5.922,13.757 6.429 C 13.761 7.672,13.772 7.812,13.878 7.970 C 13.933 8.053,14.003 8.115,14.093 8.160 C 14.210 8.219,14.261 8.227,14.507 8.226 C 14.823 8.226,14.945 8.182,15.081 8.021 C 15.256 7.814,15.247 7.946,15.257 5.507 L 15.267 3.293 15.196 3.160 C 15.040 2.867,14.819 2.742,14.440 2.732 C 14.308 2.729,13.324 2.735,12.253 2.746 " stroke="none" fill-rule="evenodd" fill="black"></path></svg>