<svg xmlns="http://www.w3.org/2000/svg" viewBox="0 0 16 16">
  <path fill-rule="evenodd" d="M12.253 2.746c-1.372.014-1.98.029-2.061.051a.6.6 0 0 0-.23.144c-.154.148-.215.344-.195.631.025.361.147.541.426.631.12.039.309.048 1.307.061l1.167.016-2.079 2.079-2.079 2.078-1.008-.998c-.554-.55-1.075-1.045-1.158-1.101-.275-.187-.463-.17-.763.069-.236.189-3.271 3.198-4.135 4.1-.663.692-.725.776-.725.979 0 .271.216.578.512.726.282.141.426.11.744-.161.108-.092 1.058-1.026 2.11-2.074l1.913-1.906 1.007.998c.554.549 1.076 1.045 1.161 1.102.183.125.382.157.522.084.173-.089.523-.425 2.75-2.641 2.222-2.21 2.28-2.265 2.297-2.187.01.044.019.495.021 1.002.004 1.243.015 1.383.121 1.541a.54.54 0 0 0 .215.19c.117.059.168.067.414.066.316 0 .438-.044.574-.205.175-.207.166-.075.176-2.514l.01-2.214-.071-.133c-.156-.293-.377-.418-.756-.428-.132-.003-1.116.003-2.187.014"/>
</svg>
