<svg xmlns="http://www.w3.org/2000/svg" viewBox="0 0 17 16"><path d="M1.945 3.800 C 1.685 3.937,1.446 4.282,1.445 4.521 C 1.445 4.694,1.546 4.828,2.174 5.485 C 2.826 6.168,6.086 9.410,6.326 9.615 C 6.572 9.825,6.787 9.849,7.053 9.697 C 7.122 9.658,7.646 9.162,8.217 8.595 L 9.257 7.565 11.315 9.633 C 12.447 10.771,13.373 11.712,13.373 11.725 C 13.373 11.748,12.137 11.787,11.378 11.787 C 10.939 11.787,10.837 11.811,10.700 11.944 C 10.546 12.094,10.502 12.215,10.501 12.495 C 10.500 12.867,10.612 13.083,10.866 13.193 C 10.969 13.238,11.188 13.245,13.194 13.267 L 15.410 13.291 15.574 13.207 C 15.665 13.162,15.767 13.094,15.801 13.057 C 15.897 12.954,16.016 12.671,16.017 12.541 C 16.018 12.477,16.008 11.481,15.995 10.327 C 15.970 8.080,15.978 8.178,15.822 7.992 C 15.679 7.823,15.558 7.785,15.203 7.796 C 14.842 7.808,14.744 7.847,14.612 8.035 C 14.540 8.137,14.529 8.185,14.506 8.487 C 14.491 8.674,14.479 9.245,14.479 9.757 L 14.478 10.688 12.162 8.385 C 10.888 7.119,9.760 6.009,9.656 5.919 C 9.438 5.731,9.298 5.691,9.078 5.752 C 8.924 5.795,8.737 5.967,7.558 7.138 L 6.743 7.947 5.192 6.402 C 3.136 4.353,2.592 3.828,2.478 3.780 C 2.337 3.721,2.076 3.731,1.945 3.800 " stroke="none" fill-rule="evenodd" fill="black"></path></svg>