<svg xmlns="http://www.w3.org/2000/svg" viewBox="0 0 32 32">
  <path fill-rule="evenodd" d="M20.862 6.822c-.283.027-.359.056-.467.181-.174.202-.171.478.008.712l.136.178 3.05.003c1.678.002 3.147.022 3.264.045l.214.041-5.037 5.047-5.037 5.048-2.163-2.149c-1.288-1.279-2.268-2.209-2.421-2.299-.251-.147-.263-.149-.44-.064-.204.097-5.247 5.083-7.55 7.465-1.547 1.599-1.573 1.635-1.425 1.92.083.162.319.352.439.355.055.001.223-.087.373-.195.151-.109 2.086-2.003 4.301-4.21l4.026-4.011 2.225 2.206c1.223 1.214 2.3 2.246 2.392 2.293a.48.48 0 0 0 .297.055c.177-.044 1.02-.866 6.325-6.158l4.571-4.562.015 3.291c.015 3.228.017 3.292.124 3.398a.6.6 0 0 0 .613.141c.358-.116.343.06.361-4.401l.015-4.022-.173-.178-.172-.179-3.763.008c-2.07.005-3.915.023-4.101.041"/>
</svg>
