<svg xmlns="http://www.w3.org/2000/svg" viewBox="0 0 32 32"><path d="M20.862 6.822 C 20.579 6.849,20.503 6.878,20.395 7.003 C 20.221 7.205,20.224 7.481,20.403 7.715 L 20.539 7.893 23.589 7.896 C 25.267 7.898,26.736 7.918,26.853 7.941 L 27.067 7.982 22.030 13.029 L 16.993 18.077 14.830 15.928 C 13.542 14.649,12.562 13.719,12.409 13.629 C 12.158 13.482,12.146 13.480,11.969 13.565 C 11.765 13.662,6.722 18.648,4.419 21.030 C 2.872 22.629,2.846 22.665,2.994 22.950 C 3.077 23.112,3.313 23.302,3.433 23.305 C 3.488 23.306,3.656 23.218,3.806 23.110 C 3.957 23.001,5.892 21.107,8.107 18.900 L 12.133 14.889 14.358 17.095 C 15.581 18.309,16.658 19.341,16.750 19.388 C 16.848 19.439,16.972 19.462,17.047 19.443 C 17.224 19.399,18.067 18.577,23.372 13.285 L 27.943 8.723 27.958 12.014 C 27.973 15.242,27.975 15.306,28.082 15.412 C 28.239 15.569,28.476 15.624,28.695 15.553 C 29.053 15.437,29.038 15.613,29.056 11.152 L 29.071 7.130 28.898 6.952 L 28.726 6.773 24.963 6.781 C 22.893 6.786,21.048 6.804,20.862 6.822 " stroke="none" fill-rule="evenodd" fill="black"></path></svg>