<svg viewBox="0 0 24 24" fill="none" xmlns="http://www.w3.org/2000/svg">
    <path d="M6.75 4.116c0-.9.613-1.684 1.486-1.903a15.52 15.52 0 0 1 7.528 0 1.962 1.962 0 0 1 1.486 1.903v10.626a7.25 7.25 0 0 1-.667 3.038l-1.728 3.743a1.25 1.25 0 0 1-1.135.726h-3.025a1.25 1.25 0 0 1-1.101-.657L7.617 17.92a7.25 7.25 0 0 1-.867-3.438V4.116z" stroke="#171717" stroke-width="1.5"/>
    <path d="M9.25 6.999a.25.25 0 0 1 .25-.25h5a.25.25 0 0 1 .25.25v3a.25.25 0 0 1-.25.25h-5a.25.25 0 0 1-.25-.25v-3z" stroke="#171717" stroke-width="1.5"/>
    <path d="M9.25 13.249h1.5M13.25 13.249h1.5" stroke="#171717" stroke-width="1.5" stroke-linecap="round"/>
</svg>