<svg xmlns="http://www.w3.org/2000/svg" fill="none" viewBox="0 0 26 30"><path d="M10.617 0.717 C 10.385 0.820,10.150 1.075,10.074 1.304 C 10.016 1.477,10.008 1.739,10.019 3.018 L 10.032 4.528 10.153 4.735 C 10.470 5.273,11.188 5.391,11.636 4.977 C 11.980 4.660,11.980 4.662,11.996 3.115 C 12.004 2.258,11.992 1.649,11.963 1.491 C 11.869 0.981,11.542 0.683,11.055 0.661 C 10.864 0.653,10.718 0.672,10.617 0.717 M3.813 3.536 C 3.311 3.753,3.063 4.416,3.309 4.884 C 3.345 4.950,3.867 5.496,4.471 6.095 C 5.640 7.256,5.673 7.281,6.088 7.279 C 6.429 7.277,6.783 7.034,6.939 6.695 C 7.046 6.462,7.044 6.099,6.934 5.873 C 6.880 5.762,6.451 5.301,5.775 4.629 C 4.623 3.484,4.597 3.465,4.160 3.469 C 4.053 3.469,3.897 3.500,3.813 3.536 M17.420 3.535 C 17.247 3.609,15.200 5.625,15.091 5.828 C 14.918 6.153,14.948 6.582,15.166 6.882 C 15.315 7.088,15.678 7.280,15.918 7.280 C 16.329 7.280,16.377 7.245,17.521 6.113 C 18.129 5.512,18.636 4.974,18.686 4.877 C 18.807 4.642,18.806 4.240,18.684 4.001 C 18.583 3.802,18.377 3.612,18.169 3.525 C 17.986 3.448,17.611 3.453,17.420 3.535 M12.285 10.074 C 11.304 10.290,10.454 11.018,10.132 11.917 L 10.032 12.198 10.018 16.965 C 10.009 20.298,10.020 21.855,10.054 22.143 C 10.182 23.227,10.536 24.207,11.126 25.112 C 11.478 25.651,11.676 25.879,13.468 27.804 C 14.516 28.931,15.121 29.547,15.283 29.654 C 15.753 29.963,15.725 29.960,18.097 29.976 C 19.899 29.989,20.270 29.981,20.514 29.924 C 20.871 29.841,21.070 29.741,21.355 29.502 C 21.665 29.240,24.473 25.898,24.825 25.372 C 25.468 24.409,25.837 23.386,25.954 22.236 C 25.983 21.950,26.000 20.104,25.999 17.145 C 25.999 13.229,25.989 12.454,25.935 12.198 C 25.772 11.421,25.207 10.720,24.439 10.341 C 23.735 9.993,24.057 10.010,17.947 10.013 C 13.641 10.016,12.492 10.029,12.285 10.074 M0.975 10.351 C 0.373 10.625,0.205 11.398,0.642 11.883 C 0.943 12.217,0.948 12.218,2.687 12.218 C 4.425 12.218,4.430 12.217,4.731 11.883 C 5.067 11.511,5.067 10.979,4.731 10.607 C 4.430 10.273,4.425 10.272,2.687 10.272 C 1.291 10.272,1.132 10.279,0.975 10.351 M23.508 12.106 C 23.750 12.220,23.891 12.355,23.960 12.537 C 23.992 12.621,24.007 14.120,24.007 17.309 C 24.007 22.289,24.007 22.291,23.787 23.010 C 23.668 23.400,23.312 24.109,23.086 24.406 C 22.886 24.669,20.505 27.496,20.220 27.809 L 20.052 27.993 18.205 27.991 L 16.358 27.988 14.744 26.246 C 13.856 25.289,13.031 24.369,12.910 24.202 C 12.603 23.779,12.283 23.110,12.144 22.598 L 12.026 22.165 12.013 17.420 C 12.006 14.810,12.011 12.633,12.023 12.581 C 12.063 12.420,12.272 12.212,12.500 12.106 L 12.718 12.004 18.005 12.004 L 23.292 12.004 23.508 12.106 M13.520 17.637 L 13.520 21.623 18.005 21.623 L 22.490 21.623 22.490 17.637 L 22.490 13.650 18.005 13.650 L 13.520 13.650 13.520 17.637 M5.701 15.275 C 5.573 15.320,5.260 15.605,4.452 16.410 C 3.859 17.001,3.345 17.540,3.310 17.606 C 2.988 18.213,3.480 19.024,4.169 19.023 C 4.598 19.023,4.628 19.001,5.775 17.861 C 6.451 17.189,6.880 16.728,6.934 16.617 C 7.044 16.391,7.046 16.028,6.939 15.795 C 6.720 15.318,6.196 15.098,5.701 15.275 M20.497 17.637 L 20.497 19.630 18.005 19.630 L 15.513 19.630 15.513 17.637 L 15.513 15.643 18.005 15.643 L 20.497 15.643 20.497 17.637 " stroke="none" fill-rule="evenodd" fill="black"></path></svg>