<svg xmlns="http://www.w3.org/2000/svg" fill="none" viewBox="0 0 32 32"><path d="M10.096 2.106 C 9.915 2.146,9.567 2.273,9.323 2.388 C 8.063 2.983,7.259 4.061,7.041 5.449 C 6.997 5.733,6.985 7.667,6.998 12.507 L 7.016 19.173 7.136 19.780 C 7.289 20.546,7.620 21.540,7.926 22.150 C 8.280 22.856,11.553 28.517,11.795 28.840 C 12.180 29.357,12.797 29.751,13.493 29.926 C 13.917 30.033,18.083 30.033,18.507 29.926 C 19.203 29.751,19.820 29.357,20.205 28.840 C 20.448 28.515,23.710 22.872,24.067 22.160 C 24.513 21.270,24.833 20.160,24.958 19.067 C 25.032 18.413,25.033 5.914,24.958 5.440 C 24.712 3.884,23.742 2.743,22.185 2.179 L 21.840 2.054 16.133 2.044 C 11.492 2.036,10.365 2.047,10.096 2.106 M21.824 4.196 C 22.262 4.404,22.599 4.731,22.804 5.150 L 22.960 5.467 22.960 12.293 C 22.960 18.749,22.955 19.144,22.861 19.571 C 22.725 20.191,22.532 20.748,22.280 21.253 C 21.973 21.868,18.675 27.577,18.546 27.719 C 18.296 27.992,18.166 28.005,15.916 27.989 L 13.832 27.973 13.617 27.831 C 13.428 27.706,13.192 27.324,11.640 24.631 C 9.722 21.304,9.575 21.030,9.368 20.410 C 9.023 19.377,9.040 19.809,9.040 12.293 L 9.040 5.467 9.196 5.150 C 9.458 4.615,9.981 4.192,10.546 4.057 C 10.659 4.030,13.096 4.013,16.107 4.018 L 21.467 4.027 21.824 4.196 " fill="#171717" stroke="none" fill-rule="evenodd"></path></svg>