<svg xmlns="http://www.w3.org/2000/svg" fill="none" viewBox="0 0 32 32">
  <path fill="#171717" fill-rule="evenodd" d="M10.096 2.106a4.6 4.6 0 0 0-.773.282c-1.26.595-2.064 1.673-2.282 3.061-.044.284-.056 2.218-.043 7.058l.018 6.666.12.607c.153.766.484 1.76.79 2.37.354.706 3.627 6.367 3.869 6.69.385.517 1.002.911 1.698 1.086.424.107 4.59.107 5.014 0 .696-.175 1.313-.569 1.698-1.086.243-.325 3.505-5.968 3.862-6.68.446-.89.766-2 .891-3.093.074-.654.075-13.153 0-13.627-.246-1.556-1.216-2.697-2.773-3.261l-.345-.125-5.707-.01c-4.641-.008-5.768.003-6.037.062m11.728 2.09c.438.208.775.535.98.954l.156.317v6.826c0 6.456-.005 6.851-.099 7.278a7.2 7.2 0 0 1-.581 1.682c-.307.615-3.605 6.324-3.734 6.466-.25.273-.38.286-2.63.27l-2.084-.016-.215-.142c-.189-.125-.425-.507-1.977-3.2-1.918-3.327-2.065-3.601-2.272-4.221-.345-1.033-.328-.601-.328-8.117V5.467l.156-.317a2.1 2.1 0 0 1 1.35-1.093c.113-.027 2.55-.044 5.561-.039l5.36.009z"/>
</svg>
