<svg viewBox="0 0 32 32" fill="none" xmlns="http://www.w3.org/2000/svg">
  <path fill-rule="evenodd" clip-rule="evenodd" d="M7 6C7 3.79086 8.79086 2 11 2H21C23.2091 2 25 3.79086 25 6V18.1911C25 19.77 24.5847 21.321 23.7957 22.6886L20.4434 28.4992C19.9077 29.4278 18.917 30 17.8449 30H14.1551C13.083 30 12.0923 29.4278 11.5566 28.4992L8.20433 22.6886C7.41534 21.321 7 19.77 7 18.1911V6ZM11 4C9.89543 4 9 4.89543 9 6V18.1911C9 19.4191 9.32304 20.6255 9.9367 21.6892L13.2889 27.4997C13.4675 27.8093 13.7977 28 14.1551 28H17.8449C18.2023 28 18.5325 27.8093 18.7111 27.4997L22.0633 21.6892C22.677 20.6255 23 19.4191 23 18.1911V6C23 4.89543 22.1046 4 21 4H11Z" fill="#171717"/>
</svg>