<svg xmlns="http://www.w3.org/2000/svg" fill="none" viewBox="0 0 24 24"><path d="M6.499 1.043 C 5.375 1.234,4.426 2.083,4.112 3.178 L 4.020 3.500 4.020 8.900 C 4.020 13.934,4.025 14.331,4.093 14.754 C 4.316 16.141,4.870 17.431,5.694 18.480 C 6.080 18.970,8.767 22.140,9.011 22.392 C 9.286 22.675,9.682 22.894,10.035 22.960 C 10.161 22.983,11.082 23.000,12.235 22.999 C 14.416 22.999,14.524 22.989,14.958 22.758 C 15.083 22.691,15.266 22.559,15.366 22.463 C 15.567 22.270,18.296 18.735,18.657 18.200 C 19.178 17.427,19.660 16.263,19.836 15.352 C 19.994 14.533,20.005 14.075,19.992 8.660 L 19.980 3.460 19.879 3.139 C 19.575 2.177,18.823 1.425,17.861 1.121 L 17.540 1.020 12.120 1.014 C 9.139 1.011,6.609 1.024,6.499 1.043 M17.548 2.605 C 17.946 2.772,18.228 3.054,18.395 3.452 L 18.500 3.700 18.512 8.620 C 18.524 13.769,18.508 14.446,18.357 15.144 C 18.186 15.932,17.865 16.691,17.424 17.350 C 17.182 17.712,14.570 21.118,14.387 21.311 C 14.319 21.383,14.195 21.460,14.111 21.482 C 14.016 21.508,13.282 21.519,12.123 21.512 C 10.340 21.500,10.282 21.498,10.173 21.418 C 10.007 21.296,6.917 17.639,6.642 17.238 C 5.994 16.295,5.612 15.190,5.521 13.995 C 5.470 13.326,5.467 4.161,5.518 3.810 C 5.614 3.143,6.127 2.616,6.774 2.520 C 6.887 2.503,9.302 2.491,12.140 2.494 L 17.300 2.500 17.548 2.605 M7.673 5.063 C 7.412 5.143,7.140 5.421,7.061 5.690 C 7.008 5.867,7.000 6.443,7.000 10.020 C 7.000 14.669,6.981 14.374,7.306 14.700 C 7.623 15.016,7.365 15.000,12.000 15.000 C 16.641 15.000,16.377 15.017,16.697 14.697 C 17.017 14.377,17.000 14.641,17.000 10.000 C 17.000 5.359,17.017 5.623,16.697 5.303 C 16.376 4.983,16.643 5.000,11.983 5.003 C 8.513 5.005,7.830 5.015,7.673 5.063 M15.500 10.000 L 15.500 13.500 12.000 13.500 L 8.500 13.500 8.490 10.040 C 8.484 8.137,8.488 6.557,8.499 6.530 C 8.514 6.490,9.237 6.482,12.009 6.490 L 15.500 6.500 15.500 10.000 " stroke="none" fill-rule="evenodd" fill="black"></path></svg>