<svg xmlns="http://www.w3.org/2000/svg" xml:space="preserve" fill="none" viewBox="0 0 24 35">
  <path fill="#fff" fill-rule="evenodd" d="M11.14.045C8.868.26 6.601 1.487 5.233 3.242c-.872 1.12-1.391 2.276-1.634 3.638-.08.449-.092.671-.109 2.17l-.019 1.67H0l.01 9.341.01 9.341 5.988 2.8 5.987 2.8 5.993-2.8 5.992-2.8.01-9.301L24 10.8h-3.47l-.021-1.69c-.022-1.804-.045-2.066-.251-2.877-.488-1.928-1.75-3.67-3.478-4.803-.5-.328-1.468-.795-2.04-.984a9 9 0 0 0-3.6-.401m1.602 4.374c1.462.237 2.695 1.175 3.172 2.413.22.57.246.825.246 2.432v1.456H7.834l.016-1.61c.015-1.527.02-1.626.105-1.91.582-1.951 2.617-3.133 4.787-2.781m6.418 16.352v5.611l-3.582 1.674-3.582 1.674-3.578-1.671-3.578-1.672V15.16h14.32z"/>
</svg>
