<svg xmlns="http://www.w3.org/2000/svg" fill="none" viewBox="0 0 24 24">
  <path fill="#000" fill-rule="evenodd" d="M6.499 1.043a3.04 3.04 0 0 0-2.387 2.135L4.02 3.5v5.4c0 5.034.005 5.431.073 5.854.223 1.387.777 2.677 1.601 3.726.386.49 3.073 3.66 3.317 3.912a2.05 2.05 0 0 0 1.024.568c.126.023 1.047.04 2.2.039 2.181 0 2.289-.01 2.723-.241.125-.067.308-.199.408-.295.201-.193 2.93-3.728 3.291-4.263.521-.773 1.003-1.937 1.179-2.848.158-.819.169-1.277.156-6.692l-.012-5.2-.101-.321a3.09 3.09 0 0 0-2.018-2.018l-.321-.101-5.42-.006c-2.981-.003-5.511.01-5.621.029m11.049 1.562q.597.25.847.847l.105.248.012 4.92c.012 5.149-.004 5.826-.155 6.524a6.5 6.5 0 0 1-.933 2.206c-.242.362-2.854 3.768-3.037 3.961a.7.7 0 0 1-.276.171c-.095.026-.829.037-1.988.03-1.783-.012-1.841-.014-1.95-.094-.166-.122-3.256-3.779-3.531-4.18a6.56 6.56 0 0 1-1.121-3.243c-.051-.669-.054-9.834-.003-10.185a1.51 1.51 0 0 1 1.256-1.29c.113-.017 2.528-.029 5.366-.026l5.16.006zM7.673 5.063c-.261.08-.533.358-.612.627-.053.177-.061.753-.061 4.33 0 4.649-.019 4.354.306 4.68.317.316.059.3 4.694.3 4.641 0 4.377.017 4.697-.303S17 14.641 17 10s.017-4.377-.303-4.697c-.321-.32-.054-.303-4.714-.3-3.47.002-4.153.012-4.31.06M15.5 10v3.5h-7l-.01-3.46c-.006-1.903-.002-3.483.009-3.51.015-.04.738-.048 3.51-.04l3.491.01z"/>
</svg>
