<svg xmlns="http://www.w3.org/2000/svg" fill="none" viewBox="0 0 24 24">
  <path stroke="#171717" stroke-width="1.5" d="M5.75 3.79c0-.866.645-1.606 1.521-1.723a35.5 35.5 0 0 1 9.458 0 1.745 1.745 0 0 1 1.521 1.722v11.152a5.17 5.17 0 0 1-.705 2.605l-2.384 4.086c-.223.38-.634.618-1.083.618H9.922c-.449 0-.86-.237-1.083-.618l-2.384-4.086a5.17 5.17 0 0 1-.705-2.605V3.789z"/>
  <path stroke="#171717" stroke-linecap="round" stroke-width="1.5" d="M8 14h3m2 0h3"/>
  <path stroke="#171717" stroke-width="1.5" d="M6 11.25h12"/>
</svg>
