<svg xmlns="http://www.w3.org/2000/svg" xml:space="preserve" fill="none" viewBox="0 0 24 24">
  <path fill="#000" fill-rule="evenodd" d="M7.5 7a1 1 0 0 1 1-1h7a1 1 0 0 1 1 1v6.25a1 1 0 0 1-1 1h-7a1 1 0 0 1-1-1zM9 12.75V7.5h6v5.25z" clip-rule="evenodd"/>
  <path fill="#000" fill-rule="evenodd" d="M7.667 1.5A3.417 3.417 0 0 0 4.25 4.917V15.75c0 .557.213 1.138.457 1.638.253.518.583 1.033.9 1.482a19 19 0 0 0 1.245 1.568l.023.025.006.008.002.002h.001l.555-.504-.555.505.012.012 1.955 1.958a2.75 2.75 0 0 0 1.946.806h2.427a2.75 2.75 0 0 0 1.91-.773l2.055-1.984.015-.017-.552-.507.552.507.003-.003.006-.007.023-.025.08-.09a17 17 0 0 0 1.126-1.44c.308-.445.627-.959.871-1.484.24-.515.437-1.102.437-1.677V4.915A3.416 3.416 0 0 0 16.333 1.5zm2.245 19.884-1.93-1.932-.011-.013-.073-.082a17 17 0 0 1-1.067-1.353 9.6 9.6 0 0 1-.776-1.274c-.213-.435-.305-.767-.305-.98V4.917C5.75 3.858 6.608 3 7.667 3h8.666c1.06 0 1.917.857 1.917 1.915V15.75c0 .256-.096.611-.297 1.044a9 9 0 0 1-.744 1.261 15 15 0 0 1-1.089 1.383l-.007.009-2.02 1.952a1.25 1.25 0 0 1-.87.351h-2.426a1.25 1.25 0 0 1-.885-.366" clip-rule="evenodd"/>
</svg>
