<svg xmlns="http://www.w3.org/2000/svg" xml:space="preserve" fill="none" viewBox="0 0 24 35"><path d="M11.140 0.045 C 8.868 0.260,6.601 1.487,5.233 3.242 C 4.361 4.362,3.842 5.518,3.599 6.880 C 3.519 7.329,3.507 7.551,3.490 9.050 L 3.471 10.720 1.735 10.720 L -0.000 10.720 0.010 20.061 L 0.020 29.402 6.008 32.202 L 11.995 35.002 17.988 32.202 L 23.980 29.402 23.990 20.101 L 24.000 10.800 22.265 10.800 L 20.530 10.800 20.509 9.110 C 20.487 7.306,20.464 7.044,20.258 6.233 C 19.770 4.305,18.508 2.563,16.780 1.430 C 16.280 1.102,15.312 0.635,14.740 0.446 C 13.618 0.074,12.337 -0.068,11.140 0.045 M12.742 4.419 C 14.204 4.656,15.437 5.594,15.914 6.832 C 16.134 7.402,16.160 7.657,16.160 9.264 L 16.160 10.720 11.997 10.720 L 7.834 10.720 7.850 9.110 C 7.865 7.583,7.870 7.484,7.955 7.200 C 8.537 5.249,10.572 4.067,12.742 4.419 M19.160 20.771 L 19.160 26.382 15.578 28.056 L 11.996 29.730 8.418 28.059 L 4.840 26.387 4.840 20.774 L 4.840 15.160 12.000 15.160 L 19.160 15.160 19.160 20.771 " fill="#fff" stroke="none" fill-rule="evenodd"></path></svg>