<svg xmlns="http://www.w3.org/2000/svg" fill="none" viewBox="0 0 24 24">
  <path fill="#000" fill-rule="evenodd" d="M10.4 1.043c-1.399.064-3.316.263-3.665.38-.391.131-.672.31-.995.635-.34.341-.522.635-.646 1.042-.07.229-.074.533-.074 6.38v6.14l.091.451c.104.511.274 1.02.478 1.429.305.612 2.681 4.641 2.846 4.827.221.247.429.39.785.537l.28.116h5l.28-.116c.356-.147.564-.29.785-.537.165-.186 2.541-4.215 2.846-4.827.204-.409.374-.918.478-1.429l.091-.451V3.3l-.093-.26a2.5 2.5 0 0 0-.644-1.005c-.312-.313-.678-.537-1.039-.634-.228-.061-1.207-.181-2.104-.258a37 37 0 0 0-4.7-.1m2.64 1.477c1.826.063 3.611.243 3.908.394.202.103.427.352.497.551.045.127.055.784.055 3.595v3.44h-11V7.06c0-2.811.01-3.468.055-3.595.07-.199.295-.448.497-.551.283-.144 2.136-.338 3.748-.391.495-.017.945-.033 1-.036s.613.012 1.24.033m4.469 11.23c-.021 1.847-.028 1.934-.232 2.57a5 5 0 0 1-.233.56c-.217.433-2.515 4.363-2.615 4.47a.56.56 0 0 1-.226.13c-.192.053-4.214.053-4.406 0a.56.56 0 0 1-.226-.13c-.1-.107-2.398-4.037-2.615-4.47a5 5 0 0 1-.233-.56c-.204-.636-.211-.723-.232-2.57L6.472 12h11.056zm-9.704-.471c-.615.15-.744.984-.209 1.348.187.128.385.14 2.084.126 1.628-.014 1.618-.013 1.834-.208.15-.136.219-.308.219-.545s-.069-.409-.219-.545c-.217-.197-.196-.195-1.934-.202-.902-.004-1.701.008-1.775.026m5 0c-.615.15-.744.984-.209 1.348.187.128.385.14 2.084.126 1.628-.014 1.618-.013 1.834-.208.15-.136.219-.308.219-.545s-.069-.409-.219-.545c-.217-.197-.196-.195-1.934-.202-.902-.004-1.701.008-1.775.026"/>
</svg>
