<svg xmlns="http://www.w3.org/2000/svg" fill="none" viewBox="0 0 24 24"><path d="M10.400 1.043 C 9.001 1.107,7.084 1.306,6.735 1.423 C 6.344 1.554,6.063 1.733,5.740 2.058 C 5.400 2.399,5.218 2.693,5.094 3.100 C 5.024 3.329,5.020 3.633,5.020 9.480 L 5.020 15.620 5.111 16.071 C 5.215 16.582,5.385 17.091,5.589 17.500 C 5.894 18.112,8.270 22.141,8.435 22.327 C 8.656 22.574,8.864 22.717,9.220 22.864 L 9.500 22.980 12.000 22.980 L 14.500 22.980 14.780 22.864 C 15.136 22.717,15.344 22.574,15.565 22.327 C 15.730 22.141,18.106 18.112,18.411 17.500 C 18.615 17.091,18.785 16.582,18.889 16.071 L 18.980 15.620 18.980 9.460 L 18.980 3.300 18.887 3.040 C 18.739 2.630,18.569 2.363,18.243 2.035 C 17.931 1.722,17.565 1.498,17.204 1.401 C 16.976 1.340,15.997 1.220,15.100 1.143 C 13.525 1.009,11.891 0.974,10.400 1.043 M13.040 2.520 C 14.866 2.583,16.651 2.763,16.948 2.914 C 17.150 3.017,17.375 3.266,17.445 3.465 C 17.490 3.592,17.500 4.249,17.500 7.060 L 17.500 10.500 12.000 10.500 L 6.500 10.500 6.500 7.060 C 6.500 4.249,6.510 3.592,6.555 3.465 C 6.625 3.266,6.850 3.017,7.052 2.914 C 7.335 2.770,9.188 2.576,10.800 2.523 C 11.295 2.506,11.745 2.490,11.800 2.487 C 11.855 2.484,12.413 2.499,13.040 2.520 M17.509 13.750 C 17.488 15.597,17.481 15.684,17.277 16.320 C 17.231 16.463,17.126 16.715,17.044 16.880 C 16.827 17.313,14.529 21.243,14.429 21.350 C 14.384 21.400,14.282 21.458,14.203 21.480 C 14.011 21.533,9.989 21.533,9.797 21.480 C 9.718 21.458,9.616 21.400,9.571 21.350 C 9.471 21.243,7.173 17.313,6.956 16.880 C 6.874 16.715,6.769 16.463,6.723 16.320 C 6.519 15.684,6.512 15.597,6.491 13.750 L 6.472 12.000 12.000 12.000 L 17.528 12.000 17.509 13.750 M7.805 13.279 C 7.190 13.429,7.061 14.263,7.596 14.627 C 7.783 14.755,7.981 14.767,9.680 14.753 C 11.308 14.739,11.298 14.740,11.514 14.545 C 11.664 14.409,11.733 14.237,11.733 14.000 C 11.733 13.763,11.664 13.591,11.514 13.455 C 11.297 13.258,11.318 13.260,9.580 13.253 C 8.678 13.249,7.879 13.261,7.805 13.279 M12.805 13.279 C 12.190 13.429,12.061 14.263,12.596 14.627 C 12.783 14.755,12.981 14.767,14.680 14.753 C 16.308 14.739,16.298 14.740,16.514 14.545 C 16.664 14.409,16.733 14.237,16.733 14.000 C 16.733 13.763,16.664 13.591,16.514 13.455 C 16.297 13.258,16.318 13.260,14.580 13.253 C 13.678 13.249,12.879 13.261,12.805 13.279 " stroke="none" fill-rule="evenodd" fill="black"></path></svg>