<svg xmlns="http://www.w3.org/2000/svg" fill="none" viewBox="0 0 26 30"><path d="M12.285 10.079 C 12.118 10.114,11.797 10.232,11.571 10.343 C 11.006 10.619,10.533 11.084,10.278 11.616 C 10.182 11.817,10.082 12.097,10.056 12.239 C 9.994 12.587,9.992 21.699,10.055 22.173 C 10.236 23.545,10.802 24.828,11.676 25.847 C 12.039 26.270,14.895 29.328,15.076 29.488 C 15.277 29.665,15.448 29.765,15.730 29.872 C 15.957 29.958,16.066 29.963,18.048 29.977 C 19.427 29.987,20.221 29.976,20.402 29.944 C 20.782 29.878,21.085 29.733,21.360 29.484 C 21.568 29.296,23.744 26.760,24.424 25.913 C 25.300 24.822,25.820 23.578,25.953 22.255 C 25.984 21.944,26.000 20.191,25.999 17.142 C 25.998 12.066,26.004 12.185,25.744 11.646 C 25.402 10.936,24.785 10.419,23.942 10.134 L 23.638 10.032 18.113 10.024 C 13.430 10.017,12.542 10.026,12.285 10.079 M23.404 12.053 C 23.604 12.119,23.823 12.288,23.924 12.453 C 24.006 12.585,24.008 12.712,23.996 17.463 L 23.984 22.338 23.867 22.765 C 23.731 23.257,23.407 23.954,23.134 24.339 C 23.030 24.486,22.302 25.368,21.515 26.299 L 20.085 27.991 18.222 27.992 L 16.358 27.992 15.767 27.354 C 15.442 27.002,14.704 26.208,14.128 25.588 C 12.830 24.194,12.504 23.726,12.202 22.823 C 12.005 22.233,12.002 22.134,12.014 17.171 L 12.025 12.481 12.201 12.305 C 12.519 11.988,12.138 12.007,17.988 12.005 C 21.816 12.004,23.297 12.017,23.404 12.053 M13.520 17.637 L 13.520 21.623 18.005 21.623 L 22.490 21.623 22.490 17.637 L 22.490 13.650 18.005 13.650 L 13.520 13.650 13.520 17.637 M20.497 17.637 L 20.497 19.630 18.005 19.630 L 15.513 19.630 15.513 17.637 L 15.513 15.643 18.005 15.643 L 20.497 15.643 20.497 17.637 " stroke="none" fill-rule="evenodd" fill="black"></path></svg>