<svg xmlns="http://www.w3.org/2000/svg" fill="none" viewBox="0 0 26 30">
  <path fill="#000" fill-rule="evenodd" d="M10.617.717a1.1 1.1 0 0 0-.543.587c-.058.173-.066.435-.055 1.714l.013 1.51.121.207c.317.538 1.035.656 1.483.242.344-.317.344-.315.36-1.862.008-.857-.004-1.466-.033-1.624-.094-.51-.421-.808-.908-.83q-.287-.012-.438.056M3.813 3.536c-.502.217-.75.88-.504 1.348.036.066.558.612 1.162 1.211C5.64 7.256 5.673 7.281 6.088 7.279c.341-.002.695-.245.851-.584a1.08 1.08 0 0 0-.005-.822c-.054-.111-.483-.572-1.159-1.244-1.152-1.145-1.178-1.164-1.615-1.16-.107 0-.263.031-.347.067m13.607-.001c-.173.074-2.22 2.09-2.329 2.293-.173.325-.143.754.075 1.054.149.206.512.398.752.398.411 0 .459-.035 1.603-1.167.608-.601 1.115-1.139 1.165-1.236.121-.235.12-.637-.002-.876a1.1 1.1 0 0 0-.515-.476c-.183-.077-.558-.072-.749.01m-5.135 6.539c-.981.216-1.831.944-2.153 1.843l-.1.281-.014 4.767c-.009 3.333.002 4.89.036 5.178a6.8 6.8 0 0 0 1.072 2.969c.352.539.55.767 2.342 2.692q1.572 1.69 1.815 1.85c.47.309.442.306 2.814.322 1.802.013 2.173.005 2.417-.052a1.75 1.75 0 0 0 .841-.422c.31-.262 3.118-3.604 3.47-4.13a6.74 6.74 0 0 0 1.129-3.136c.029-.286.046-2.132.045-5.091 0-3.916-.01-4.691-.064-4.947-.163-.777-.728-1.478-1.496-1.857-.704-.348-.382-.331-6.492-.328-4.306.003-5.455.016-5.662.061m-11.31.277c-.602.274-.77 1.047-.333 1.532.301.334.306.335 2.045.335s1.743-.001 2.044-.335a.934.934 0 0 0 0-1.276c-.301-.334-.306-.335-2.044-.335-1.396 0-1.555.007-1.712.079m22.533 1.755c.242.114.383.249.452.431.032.084.047 1.583.047 4.772 0 4.98 0 4.982-.22 5.701-.119.39-.475 1.099-.701 1.396-.2.263-2.581 3.09-2.866 3.403l-.168.184-1.847-.002-1.847-.003-1.614-1.742c-.888-.957-1.713-1.877-1.834-2.044a5.6 5.6 0 0 1-.766-1.604l-.118-.433-.013-4.745c-.007-2.61-.002-4.787.01-4.839.04-.161.249-.369.477-.475l.218-.102h10.574zm-9.988 5.531v3.986h8.97V13.65h-8.97zm-7.819-2.362c-.128.045-.441.33-1.249 1.135-.593.591-1.107 1.13-1.142 1.196-.322.607.17 1.418.859 1.417.429 0 .459-.022 1.606-1.162.676-.672 1.105-1.133 1.159-1.244.11-.226.112-.589.005-.822a.98.98 0 0 0-1.238-.52m14.796 2.362v1.993h-4.984v-3.987h4.984z"/>
</svg>
