<svg xmlns="http://www.w3.org/2000/svg" xml:space="preserve" fill="none" viewBox="0 0 20 16"><path d="M13.350 0.021 C 11.943 0.236,10.852 0.948,10.215 2.067 C 9.804 2.790,9.634 3.773,9.783 4.555 C 9.811 4.699,9.833 4.822,9.833 4.829 C 9.833 4.836,9.710 4.832,9.558 4.819 C 7.417 4.644,5.451 3.972,3.750 2.833 C 3.123 2.413,2.650 2.018,2.010 1.382 L 1.371 0.746 1.221 1.064 C 0.735 2.099,0.714 3.192,1.162 4.232 C 1.411 4.809,1.912 5.434,2.433 5.817 L 2.650 5.976 2.377 5.954 C 1.945 5.919,1.394 5.761,0.842 5.512 C 0.736 5.464,0.836 6.215,1.001 6.707 C 1.327 7.682,2.067 8.518,3.028 8.998 C 3.273 9.121,3.889 9.333,4.004 9.334 C 4.123 9.336,4.021 9.384,3.800 9.431 C 3.451 9.505,2.996 9.530,2.622 9.498 C 2.421 9.480,2.252 9.470,2.246 9.476 C 2.224 9.499,2.470 10.016,2.611 10.242 C 3.281 11.313,4.365 11.974,5.726 12.144 L 6.046 12.184 5.715 12.403 C 4.738 13.051,3.769 13.451,2.617 13.683 C 2.002 13.807,1.540 13.843,0.753 13.828 L 0.041 13.814 0.262 13.944 C 1.663 14.766,3.389 15.321,5.117 15.504 C 5.628 15.558,7.068 15.558,7.567 15.503 C 10.430 15.189,12.852 14.051,14.802 12.102 C 16.225 10.678,17.190 8.983,17.682 7.040 C 17.888 6.227,17.964 5.637,17.989 4.665 L 18.009 3.881 18.146 3.782 C 18.391 3.607,18.944 3.117,19.183 2.863 C 19.548 2.478,20.004 1.900,19.944 1.900 C 19.929 1.900,19.747 1.960,19.540 2.033 C 19.333 2.107,18.987 2.211,18.771 2.266 C 18.375 2.366,17.736 2.481,17.712 2.457 C 17.705 2.450,17.805 2.374,17.934 2.288 C 18.383 1.989,18.877 1.454,19.140 0.983 C 19.290 0.715,19.444 0.366,19.422 0.344 C 19.412 0.334,19.324 0.372,19.227 0.427 C 18.779 0.683,17.924 1.003,17.256 1.168 L 16.862 1.264 16.599 1.040 C 15.817 0.375,14.957 0.045,13.933 0.018 C 13.667 0.011,13.405 0.012,13.350 0.021 " fill="#fff" stroke="none" fill-rule="evenodd"></path></svg>