<svg xmlns="http://www.w3.org/2000/svg" xml:space="preserve" fill="none" viewBox="0 0 20 16">
  <path fill="#fff" d="M20 1.864a8.8 8.8 0 0 1-2.36.611A3.98 3.98 0 0 0 19.45.306a8.5 8.5 0 0 1-2.61.956A4.16 4.16 0 0 0 14.51.055a4.27 4.27 0 0 0-2.616.407 4 4 0 0 0-1.809 1.852 3.76 3.76 0 0 0-.245 2.521 12.1 12.1 0 0 1-4.681-1.19A11.6 11.6 0 0 1 1.39.735a3.84 3.84 0 0 0-.55 1.978 3.77 3.77 0 0 0 .482 1.847A4 4 0 0 0 2.66 5.972 4.2 4.2 0 0 1 .8 5.485v.048c.005.902.336 1.776.937 2.472A4.14 4.14 0 0 0 4.1 9.355a4 4 0 0 1-1.1.162 5 5 0 0 1-.77-.067 3.94 3.94 0 0 0 1.461 1.941 4.24 4.24 0 0 0 2.369.772A8.47 8.47 0 0 1 0 13.787a11.97 11.97 0 0 0 6.29 1.768 12.1 12.1 0 0 0 4.493-.818 11.7 11.7 0 0 0 3.812-2.415 11.1 11.1 0 0 0 2.538-3.636c.584-1.36.879-2.82.867-4.29v-.507a8.2 8.2 0 0 0 2-2.025"/>
</svg>
