<svg xmlns="http://www.w3.org/2000/svg" xml:space="preserve" fill="none" viewBox="0 0 20 16">
  <path fill="#fff" d="M20 1.864a8.804 8.804 0 0 1-2.36.611A3.984 3.984 0 0 0 19.45.306a8.445 8.445 0 0 1-2.61.956A4.159 4.159 0 0 0 14.51.055a4.267 4.267 0 0 0-2.616.407 3.995 3.995 0 0 0-1.809 1.852 3.757 3.757 0 0 0-.245 2.521 12.067 12.067 0 0 1-4.681-1.19A11.557 11.557 0 0 1 1.39.735a3.839 3.839 0 0 0-.55 1.978 3.77 3.77 0 0 0 .482 1.847A3.977 3.977 0 0 0 2.66 5.972 4.196 4.196 0 0 1 .8 5.485v.048c.005.902.336 1.776.937 2.472A4.14 4.14 0 0 0 4.1 9.355a4.1 4.1 0 0 1-1.1.162 5.123 5.123 0 0 1-.77-.067 3.939 3.939 0 0 0 1.461 1.941 4.236 4.236 0 0 0 2.369.772A8.466 8.466 0 0 1 0 13.787a11.966 11.966 0 0 0 6.29 1.768 12.07 12.07 0 0 0 4.493-.818 11.646 11.646 0 0 0 3.812-2.415 11.054 11.054 0 0 0 2.538-3.636c.584-1.36.879-2.82.867-4.29v-.507a8.22 8.22 0 0 0 2-2.025Z"/>
</svg>
