<svg xmlns="http://www.w3.org/2000/svg" viewBox="0 0 12 12"><path d="M3.880 2.142 C 3.480 2.184,3.175 2.271,2.830 2.441 C 2.200 2.752,1.675 3.301,1.427 3.910 C 1.251 4.345,1.192 4.677,1.207 5.160 C 1.231 5.972,1.498 6.576,2.088 7.160 C 2.194 7.264,2.280 7.355,2.280 7.363 C 2.280 7.370,2.175 7.432,2.047 7.500 C 1.539 7.769,1.221 7.999,0.870 8.350 C 0.501 8.720,0.255 9.058,0.229 9.231 C 0.209 9.360,0.250 9.454,0.382 9.583 C 0.462 9.661,0.533 9.709,0.613 9.740 C 0.832 9.822,0.965 9.769,1.174 9.515 C 1.441 9.191,1.540 9.083,1.730 8.915 C 1.840 8.817,1.998 8.692,2.080 8.637 C 2.304 8.489,2.751 8.269,2.986 8.190 C 3.890 7.888,4.904 7.965,5.762 8.402 C 6.192 8.621,6.533 8.881,6.801 9.194 C 7.150 9.600,7.194 9.649,7.267 9.708 C 7.335 9.763,7.359 9.770,7.467 9.769 C 7.754 9.768,8.047 9.484,8.014 9.239 C 7.997 9.112,7.916 8.967,7.733 8.740 C 7.320 8.225,6.789 7.798,6.170 7.483 C 6.082 7.438,5.999 7.394,5.986 7.386 C 5.970 7.375,6.038 7.291,6.196 7.129 C 6.640 6.671,6.892 6.197,7.013 5.590 C 7.062 5.340,7.063 4.781,7.013 4.533 C 6.843 3.679,6.347 2.975,5.610 2.538 C 5.386 2.406,5.077 2.277,4.844 2.221 C 4.565 2.152,4.125 2.116,3.880 2.142 M7.680 2.142 C 7.012 2.213,6.781 2.355,6.780 2.692 C 6.780 2.871,6.883 3.082,7.010 3.160 C 7.114 3.224,7.229 3.229,7.512 3.180 C 7.968 3.101,8.412 3.147,8.750 3.307 C 9.372 3.603,9.778 4.166,9.860 4.847 C 9.950 5.603,9.555 6.379,8.890 6.751 C 8.638 6.892,8.413 6.950,7.861 7.019 C 7.653 7.044,7.566 7.096,7.499 7.233 C 7.461 7.310,7.451 7.363,7.451 7.490 C 7.450 7.628,7.458 7.666,7.510 7.770 C 7.599 7.948,7.657 7.972,8.110 8.010 C 8.520 8.044,8.637 8.062,8.890 8.131 C 9.386 8.264,9.835 8.499,10.274 8.854 C 10.476 9.017,10.593 9.138,10.811 9.410 C 11.062 9.722,11.161 9.793,11.322 9.773 C 11.445 9.759,11.562 9.698,11.681 9.587 C 11.925 9.359,11.896 9.167,11.553 8.740 C 11.145 8.231,10.601 7.789,10.040 7.510 C 9.957 7.469,9.866 7.418,9.837 7.398 L 9.784 7.360 9.944 7.205 C 10.424 6.740,10.706 6.228,10.833 5.589 C 10.882 5.341,10.883 4.780,10.833 4.533 C 10.715 3.938,10.441 3.422,10.020 3.000 C 9.546 2.525,8.947 2.230,8.320 2.162 C 7.998 2.128,7.857 2.123,7.680 2.142 M4.460 3.161 C 4.842 3.221,5.192 3.407,5.490 3.708 C 5.747 3.968,5.906 4.241,5.995 4.579 C 6.064 4.844,6.068 5.245,6.003 5.509 C 5.951 5.720,5.816 6.015,5.692 6.187 C 5.573 6.354,5.341 6.575,5.164 6.689 C 4.194 7.316,2.882 6.941,2.381 5.892 C 2.244 5.605,2.211 5.441,2.212 5.060 C 2.213 4.674,2.245 4.525,2.387 4.230 C 2.652 3.682,3.149 3.292,3.740 3.170 C 3.898 3.138,4.283 3.133,4.460 3.161 " stroke="none" fill-rule="evenodd" fill="black"></path></svg>