<svg xmlns="http://www.w3.org/2000/svg" viewBox="0 0 12 12">
  <path fill-rule="evenodd" d="M3.88 2.142a2.9 2.9 0 0 0-1.05.299c-.63.311-1.155.86-1.403 1.469a2.8 2.8 0 0 0-.22 1.25c.024.812.291 1.416.881 2 .106.104.192.195.192.203 0 .007-.105.069-.233.137-.508.269-.826.499-1.177.85-.369.37-.615.708-.641.881-.02.129.021.223.153.352.08.078.151.126.231.157.219.082.352.029.561-.225.267-.324.366-.432.556-.6.11-.098.268-.223.35-.278.224-.148.671-.368.906-.447a3.63 3.63 0 0 1 2.776.212c.43.219.771.479 1.039.792.349.406.393.455.466.514.068.055.092.062.2.061.287-.001.58-.285.547-.53-.017-.127-.098-.272-.281-.499A4.8 4.8 0 0 0 6.17 7.483l-.184-.097q-.026-.015.21-.257c.444-.458.696-.932.817-1.539a3.8 3.8 0 0 0 0-1.057 2.95 2.95 0 0 0-2.169-2.312 3.4 3.4 0 0 0-.964-.079m3.8 0c-.668.071-.899.213-.9.55 0 .179.103.39.23.468.104.064.219.069.502.02.456-.079.9-.033 1.238.127a1.94 1.94 0 0 1 1.11 1.54 1.96 1.96 0 0 1-.97 1.904c-.252.141-.477.199-1.029.268-.208.025-.295.077-.362.214a.5.5 0 0 0-.048.257.47.47 0 0 0 .059.28c.089.178.147.202.6.24.41.034.527.052.78.121.496.133.945.368 1.384.723.202.163.319.284.537.556.251.312.35.383.511.363a.63.63 0 0 0 .359-.186c.244-.228.215-.42-.128-.847a4.7 4.7 0 0 0-1.513-1.23 2 2 0 0 1-.203-.112l-.053-.038.16-.155c.48-.465.762-.977.889-1.616.049-.248.05-.809 0-1.056A2.94 2.94 0 0 0 10.02 3a2.85 2.85 0 0 0-1.7-.838c-.322-.034-.463-.039-.64-.02M4.46 3.161c.382.06.732.246 1.03.547.257.26.416.533.505.871.069.265.073.666.008.93a2.3 2.3 0 0 1-.311.678 2.3 2.3 0 0 1-.528.502 1.93 1.93 0 0 1-2.783-.797c-.137-.287-.17-.451-.169-.832.001-.386.033-.535.175-.83A1.94 1.94 0 0 1 3.74 3.17a3 3 0 0 1 .72-.009"/>
</svg>
