<svg xmlns="http://www.w3.org/2000/svg" fill-rule="evenodd" viewBox="0 0 20 20">
  <path d="M6.32 3.667a4.9 4.9 0 0 0-3.7 2.535c-.186.35-.399.979-.473 1.398-.077.432-.076 1.312 0 1.711.188.984.636 1.806 1.402 2.574l.434.434-.45.22c-.8.391-1.403.826-2.069 1.492-.584.583-.916 1.034-.98 1.331-.103.476.597 1.003 1.035.778.146-.075.241-.171.541-.544a6.23 6.23 0 0 1 3.305-2.15c.638-.164 1.127-.203 1.941-.153.925.056 1.441.196 2.311.624.811.401 1.431.906 2.096 1.711.378.456.528.572.742.572.255-.001.649-.25.758-.48a.74.74 0 0 0-.006-.556c-.08-.158-.387-.561-.687-.905-.541-.618-1.471-1.313-2.312-1.726-.243-.119-.437-.226-.433-.238s.114-.117.244-.233c.803-.72 1.332-1.613 1.556-2.624.095-.43.104-1.47.016-1.905a4.7 4.7 0 0 0-1.322-2.468c-.701-.701-1.472-1.125-2.393-1.316-.429-.089-1.186-.129-1.556-.082m6.38 0c-.672.079-1.123.248-1.238.466-.121.228-.058.68.129.929.159.211.385.249.88.148.421-.086 1.157-.078 1.546.018.403.099.964.379 1.308.653a3.35 3.35 0 0 1 1.177 2c.065.402.025 1.1-.084 1.469a3.2 3.2 0 0 1-.85 1.418c-.594.593-1.13.837-2.119.964-.541.069-.658.101-.775.21-.157.147-.218.569-.126.873.097.322.261.398.982.452.719.054 1.102.124 1.646.302.432.141 1.25.556 1.622.822.38.273.953.832 1.346 1.315.421.515.617.591 1.017.392.232-.116.424-.319.473-.5.063-.234-.079-.529-.514-1.065-.647-.798-1.452-1.436-2.465-1.953l-.529-.271.145-.128q1.844-1.627 1.751-3.931c-.054-1.366-.569-2.472-1.576-3.384-.598-.542-1.551-1.013-2.324-1.147-.353-.062-1.104-.089-1.422-.052M7.622 5.22c.904.182 1.773.875 2.211 1.763.267.541.316.765.316 1.434-.001.475-.013.615-.076.866-.216.867-.888 1.688-1.725 2.11a6 6 0 0 1-.55.225l-.348.122-.6-.019c-.66-.021-.839-.055-1.259-.24A3.26 3.26 0 0 1 3.896 9.85c-.236-.493-.309-.825-.31-1.417 0-.592.073-.92.315-1.416a3.47 3.47 0 0 1 1.204-1.373 3.5 3.5 0 0 1 1.262-.479c.247-.036.961-.004 1.255.055"/>
</svg>
