<svg xmlns="http://www.w3.org/2000/svg" fill-rule="evenodd" viewBox="0 0 20 20"><path d="M6.320 3.667 C 4.751 3.864,3.355 4.820,2.620 6.202 C 2.434 6.552,2.221 7.181,2.147 7.600 C 2.070 8.032,2.071 8.912,2.147 9.311 C 2.335 10.295,2.783 11.117,3.549 11.885 L 3.983 12.319 3.533 12.539 C 2.733 12.930,2.130 13.365,1.464 14.031 C 0.880 14.614,0.548 15.065,0.484 15.362 C 0.381 15.838,1.081 16.365,1.519 16.140 C 1.665 16.065,1.760 15.969,2.060 15.596 C 2.917 14.529,4.071 13.779,5.365 13.446 C 6.003 13.282,6.492 13.243,7.306 13.293 C 8.231 13.349,8.747 13.489,9.617 13.917 C 10.428 14.318,11.048 14.823,11.713 15.628 C 12.091 16.084,12.241 16.200,12.455 16.200 C 12.710 16.199,13.104 15.950,13.213 15.720 C 13.284 15.570,13.281 15.309,13.207 15.164 C 13.127 15.006,12.820 14.603,12.520 14.259 C 11.979 13.641,11.049 12.946,10.208 12.533 C 9.965 12.414,9.771 12.307,9.775 12.295 C 9.780 12.283,9.889 12.178,10.019 12.062 C 10.822 11.342,11.351 10.449,11.575 9.438 C 11.670 9.008,11.679 7.968,11.591 7.533 C 11.396 6.563,10.967 5.763,10.269 5.065 C 9.568 4.364,8.797 3.940,7.876 3.749 C 7.447 3.660,6.690 3.620,6.320 3.667 M12.700 3.667 C 12.028 3.746,11.577 3.915,11.462 4.133 C 11.341 4.361,11.404 4.813,11.591 5.062 C 11.750 5.273,11.976 5.311,12.471 5.210 C 12.892 5.124,13.628 5.132,14.017 5.228 C 14.420 5.327,14.981 5.607,15.325 5.881 C 15.929 6.363,16.381 7.129,16.502 7.881 C 16.567 8.283,16.527 8.981,16.418 9.350 C 16.253 9.908,15.992 10.343,15.568 10.768 C 14.974 11.361,14.438 11.605,13.449 11.732 C 12.908 11.801,12.791 11.833,12.674 11.942 C 12.517 12.089,12.456 12.511,12.548 12.815 C 12.645 13.137,12.809 13.213,13.530 13.267 C 14.249 13.321,14.632 13.391,15.176 13.569 C 15.608 13.710,16.426 14.125,16.798 14.391 C 17.178 14.664,17.751 15.223,18.144 15.706 C 18.565 16.221,18.761 16.297,19.161 16.098 C 19.393 15.982,19.585 15.779,19.634 15.598 C 19.697 15.364,19.555 15.069,19.120 14.533 C 18.473 13.735,17.668 13.097,16.655 12.580 L 16.126 12.309 16.271 12.181 C 17.501 11.095,18.083 9.787,18.022 8.250 C 17.968 6.884,17.453 5.778,16.446 4.866 C 15.848 4.324,14.895 3.853,14.122 3.719 C 13.769 3.657,13.018 3.630,12.700 3.667 M7.622 5.220 C 8.526 5.402,9.395 6.095,9.833 6.983 C 10.100 7.524,10.149 7.748,10.149 8.417 C 10.148 8.892,10.136 9.032,10.073 9.283 C 9.857 10.150,9.185 10.971,8.348 11.393 C 8.237 11.449,7.989 11.550,7.798 11.618 L 7.450 11.740 6.850 11.721 C 6.190 11.700,6.011 11.666,5.591 11.481 C 4.816 11.141,4.256 10.602,3.896 9.850 C 3.660 9.357,3.587 9.025,3.586 8.433 C 3.586 7.841,3.659 7.513,3.901 7.017 C 4.172 6.460,4.604 5.969,5.105 5.644 C 5.460 5.415,5.966 5.223,6.367 5.165 C 6.614 5.129,7.328 5.161,7.622 5.220 " stroke="none" fill-rule="evenodd" fill="black"></path></svg>