<svg xmlns="http://www.w3.org/2000/svg" xml:space="preserve" fill="none" viewBox="0 0 20 20">
  <path stroke="#616161" stroke-linecap="round" stroke-linejoin="round" stroke-width="1.5" d="M14.063 3.125h2.187a.625.625 0 0 1 .625.625v2.188m-2.812 10.937h2.187a.624.624 0 0 0 .625-.625v-2.188M5.938 16.875H3.75a.625.625 0 0 1-.625-.625v-2.188M5.938 3.125H3.75a.625.625 0 0 0-.625.625v2.188M10 11.25a2.5 2.5 0 1 0 0-5 2.5 2.5 0 0 0 0 5"/>
  <path stroke="#616161" stroke-linecap="round" stroke-linejoin="round" stroke-width="1.5" d="M5.852 13.75a4.696 4.696 0 0 1 8.296 0"/>
</svg>
