<svg xmlns="http://www.w3.org/2000/svg" xml:space="preserve" fill="none" viewBox="0 0 20 20"><path d="M3.332 2.448 C 2.957 2.586,2.682 2.830,2.521 3.167 L 2.417 3.383 2.407 4.758 C 2.398 6.070,2.401 6.138,2.464 6.261 C 2.546 6.423,2.724 6.581,2.884 6.634 C 2.952 6.656,3.096 6.668,3.204 6.660 C 3.466 6.641,3.650 6.515,3.775 6.269 L 3.867 6.088 3.867 4.977 L 3.867 3.867 4.980 3.867 L 6.092 3.867 6.271 3.774 C 6.516 3.645,6.641 3.462,6.660 3.204 C 6.677 2.966,6.627 2.800,6.491 2.645 C 6.273 2.396,6.296 2.400,4.793 2.402 C 3.773 2.404,3.421 2.415,3.332 2.448 M13.750 2.455 C 13.459 2.610,13.316 2.868,13.340 3.199 C 13.359 3.462,13.482 3.645,13.729 3.774 L 13.908 3.867 15.020 3.867 L 16.133 3.867 16.133 4.977 L 16.133 6.088 16.225 6.269 C 16.350 6.515,16.534 6.641,16.796 6.660 C 16.904 6.668,17.048 6.656,17.116 6.634 C 17.276 6.581,17.454 6.423,17.537 6.260 C 17.600 6.136,17.602 6.071,17.593 4.757 L 17.583 3.383 17.479 3.167 C 17.347 2.891,17.109 2.653,16.833 2.521 L 16.617 2.417 15.233 2.409 C 14.022 2.402,13.838 2.408,13.750 2.455 M9.630 5.537 C 8.438 5.652,7.336 6.531,6.946 7.680 C 6.666 8.501,6.725 9.461,7.100 10.201 C 7.200 10.398,7.480 10.802,7.584 10.900 C 7.629 10.943,7.666 10.994,7.665 11.014 C 7.665 11.034,7.586 11.088,7.490 11.133 C 7.236 11.256,6.687 11.629,6.400 11.874 C 5.979 12.236,5.551 12.768,5.262 13.292 C 5.139 13.514,5.121 13.574,5.121 13.752 C 5.121 14.306,5.697 14.651,6.200 14.398 C 6.350 14.323,6.418 14.244,6.617 13.917 C 7.669 12.183,9.843 11.516,11.663 12.369 C 12.336 12.684,12.891 13.167,13.293 13.786 C 13.607 14.270,13.653 14.325,13.795 14.396 C 13.971 14.484,14.116 14.504,14.294 14.465 C 14.653 14.385,14.874 14.117,14.877 13.755 C 14.879 13.571,14.863 13.518,14.738 13.291 C 14.449 12.769,14.046 12.265,13.617 11.892 C 13.320 11.634,12.776 11.261,12.510 11.133 C 12.414 11.088,12.335 11.034,12.335 11.014 C 12.334 10.994,12.371 10.943,12.416 10.900 C 12.520 10.802,12.800 10.398,12.900 10.201 C 13.275 9.461,13.334 8.501,13.054 7.680 C 12.654 6.503,11.567 5.653,10.309 5.534 C 10.112 5.515,9.942 5.502,9.933 5.505 C 9.924 5.507,9.788 5.521,9.630 5.537 M10.449 7.051 C 10.556 7.079,10.732 7.149,10.839 7.206 C 11.081 7.335,11.458 7.725,11.578 7.970 C 11.676 8.170,11.766 8.543,11.766 8.750 C 11.766 8.957,11.676 9.330,11.578 9.530 C 11.458 9.775,11.081 10.165,10.839 10.294 C 10.320 10.571,9.680 10.571,9.161 10.294 C 8.919 10.165,8.542 9.775,8.421 9.529 C 8.224 9.126,8.192 8.646,8.333 8.196 C 8.495 7.677,9.000 7.197,9.537 7.053 C 9.775 6.989,10.206 6.988,10.449 7.051 M2.833 13.385 C 2.681 13.453,2.543 13.586,2.463 13.742 C 2.401 13.862,2.398 13.937,2.407 15.242 L 2.417 16.617 2.521 16.833 C 2.653 17.109,2.891 17.347,3.167 17.479 L 3.383 17.583 4.758 17.593 C 6.070 17.602,6.138 17.599,6.261 17.536 C 6.423 17.454,6.581 17.276,6.634 17.116 C 6.656 17.048,6.668 16.904,6.660 16.796 C 6.641 16.534,6.515 16.350,6.269 16.225 L 6.088 16.133 4.977 16.133 L 3.867 16.133 3.867 15.023 L 3.867 13.912 3.775 13.731 C 3.643 13.470,3.465 13.355,3.174 13.342 C 3.024 13.336,2.912 13.350,2.833 13.385 M16.601 13.370 C 16.439 13.435,16.292 13.578,16.213 13.746 C 16.135 13.915,16.134 13.928,16.134 15.025 L 16.133 16.133 15.020 16.133 L 13.908 16.133 13.729 16.226 C 13.484 16.355,13.359 16.538,13.340 16.796 C 13.332 16.904,13.344 17.048,13.366 17.116 C 13.419 17.276,13.577 17.454,13.739 17.536 C 13.862 17.599,13.930 17.602,15.242 17.593 L 16.617 17.583 16.833 17.479 C 16.953 17.422,17.123 17.302,17.213 17.213 C 17.302 17.123,17.422 16.953,17.479 16.833 L 17.583 16.617 17.593 15.243 C 17.602 13.936,17.600 13.863,17.538 13.743 C 17.455 13.581,17.317 13.451,17.159 13.385 C 17.022 13.328,16.728 13.320,16.601 13.370 " stroke="none" fill-rule="evenodd" fill="black"></path></svg>