<svg xmlns="http://www.w3.org/2000/svg" fill="none" viewBox="0 0 22 22">
  <path fill="#000" fill-rule="evenodd" d="M10.7.283C10 .375 9.466.699 8.547 1.59c-.303.294-.662.606-.797.693-.398.257-.529.282-1.672.32-.634.02-1.118.055-1.28.092q-1.477.335-1.944 1.574c-.192.508-.22.71-.256 1.772-.02.658-.053 1.093-.09 1.227-.095.345-.302.634-.91 1.268C.973 9.189.805 9.399.586 9.8c-.443.814-.443 1.586 0 2.4.22.402.387.612 1.013 1.265.608.634.815.923.91 1.268.037.134.07.569.09 1.227.035 1.062.064 1.264.256 1.772a2.36 2.36 0 0 0 1.412 1.412c.51.192.708.22 1.792.256 1.164.038 1.296.062 1.69.316.133.087.501.407.816.71.62.598.831.768 1.234.987.814.443 1.586.443 2.4 0 .403-.22.614-.39 1.234-.986.315-.304.683-.624.817-.711.393-.254.525-.278 1.69-.316 1.082-.035 1.282-.064 1.788-.255a2.39 2.39 0 0 0 1.415-1.413c.192-.508.221-.71.256-1.772.021-.658.053-1.093.09-1.227.095-.345.302-.634.91-1.268.626-.653.794-.863 1.013-1.265.52-.954.426-1.881-.287-2.86-.08-.11-.407-.472-.726-.805-.608-.634-.815-.923-.91-1.268-.037-.134-.069-.57-.09-1.227-.035-1.062-.064-1.264-.256-1.772-.255-.68-.746-1.162-1.447-1.426-.447-.168-.726-.206-1.777-.24-1.14-.038-1.274-.063-1.667-.317-.133-.086-.51-.415-.839-.73-.62-.597-.997-.88-1.424-1.072a2.4 2.4 0 0 0-1.289-.2m.68 2.14c.11.074.39.31.62.527 1.483 1.385 1.801 1.533 3.47 1.61 1.357.064 1.544.092 1.711.259.148.148.18.344.238 1.463.102 1.95.21 2.197 1.631 3.718.897.96.897 1.042 0 2.002-.578.619-.88.98-1.095 1.309-.374.573-.46.96-.535 2.409-.03.583-.073 1.117-.094 1.185-.132.429-.284.477-1.706.535-.98.04-1.453.109-1.833.263-.335.136-.825.477-1.288.897-1.21 1.096-1.344 1.193-1.579 1.14-.168-.036-.503-.292-1.04-.795-.913-.854-1.424-1.202-1.973-1.342-.378-.097-.984-.162-1.502-.162-.582 0-1.238-.073-1.43-.158-.303-.134-.352-.343-.414-1.748-.077-1.733-.217-2.038-1.613-3.533-.897-.96-.897-1.042 0-2.002 1.396-1.495 1.536-1.8 1.613-3.533.06-1.332.114-1.6.355-1.724.175-.091.574-.137 1.55-.18 1.251-.056 1.663-.152 2.228-.522.324-.211.723-.545 1.278-1.07.425-.4.741-.644.894-.688.161-.047.284-.013.514.14m3.303 5.448c-.14.075-.963.835-2.61 2.41a255 255 0 0 1-2.436 2.312c-.016.006-.513-.451-1.104-1.016-.646-.618-1.138-1.056-1.234-1.101-.215-.098-.625-.098-.843 0-.493.225-.714.845-.477 1.34.091.19 2.961 2.95 3.2 3.077.215.114.655.12.872.013.195-.097 5.817-5.46 5.942-5.667.13-.218.16-.58.067-.822-.216-.564-.864-.821-1.377-.546" clip-rule="evenodd"/>
</svg>
