<svg xmlns="http://www.w3.org/2000/svg" xml:space="preserve" fill="none" viewBox="0 0 40 40"><path d="M19.207 4.372 C 18.457 4.574,17.778 5.052,17.347 5.682 C 16.944 6.271,3.369 29.781,3.248 30.100 C 2.927 30.943,2.965 31.801,3.362 32.642 C 3.751 33.467,4.440 34.063,5.319 34.334 C 5.741 34.465,5.971 34.467,20.000 34.467 C 34.029 34.467,34.259 34.465,34.681 34.334 C 35.560 34.063,36.249 33.467,36.638 32.642 C 37.038 31.795,37.072 30.941,36.741 30.070 C 36.627 29.771,23.032 6.236,22.653 5.682 C 21.896 4.575,20.470 4.033,19.207 4.372 M20.814 5.953 C 20.971 6.046,21.179 6.207,21.276 6.311 C 21.420 6.466,34.370 28.761,35.210 30.300 C 35.437 30.715,35.465 30.819,35.466 31.237 C 35.467 31.811,35.256 32.292,34.867 32.599 C 34.324 33.030,35.432 33.000,20.000 33.000 C 4.568 33.000,5.676 33.030,5.133 32.599 C 4.745 32.292,4.533 31.811,4.533 31.235 C 4.533 30.784,4.550 30.733,4.923 30.065 C 6.050 28.047,18.568 6.477,18.690 6.343 C 18.895 6.119,19.181 5.925,19.459 5.821 C 19.823 5.685,20.466 5.748,20.814 5.953 M19.493 15.760 L 19.267 15.987 19.267 19.330 C 19.267 22.949,19.265 22.936,19.627 23.130 C 19.847 23.248,20.153 23.248,20.373 23.130 C 20.735 22.936,20.733 22.949,20.733 19.330 L 20.733 15.987 20.507 15.760 C 20.321 15.574,20.230 15.533,20.000 15.533 C 19.770 15.533,19.679 15.574,19.493 15.760 M19.367 26.727 C 18.381 27.184,18.157 28.442,18.924 29.209 C 19.547 29.832,20.453 29.832,21.076 29.209 C 22.055 28.230,21.372 26.596,19.985 26.601 C 19.786 26.602,19.518 26.656,19.367 26.727 " stroke="none" fill-rule="evenodd" fill="black"></path></svg>