<svg xmlns="http://www.w3.org/2000/svg" xml:space="preserve" fill="none" viewBox="0 0 16 16"><path d="M7.747 1.283 C 7.359 1.340,6.984 1.540,6.720 1.833 C 6.605 1.960,5.964 3.046,3.781 6.818 C 2.246 9.470,0.960 11.706,0.923 11.787 C 0.655 12.372,0.747 13.098,1.150 13.589 C 1.392 13.882,1.787 14.125,2.147 14.200 C 2.427 14.259,13.572 14.259,13.853 14.200 C 14.153 14.138,14.495 13.953,14.710 13.737 C 15.053 13.394,15.198 13.063,15.220 12.573 C 15.234 12.249,15.199 12.053,15.078 11.787 C 15.041 11.706,13.755 9.469,12.219 6.815 C 9.998 2.977,9.397 1.957,9.280 1.830 C 9.003 1.529,8.640 1.340,8.227 1.281 C 8.014 1.251,7.968 1.251,7.747 1.283 M8.113 2.775 C 8.148 2.791,8.206 2.854,8.243 2.915 C 8.280 2.976,9.534 5.139,11.029 7.720 C 13.939 12.745,13.821 12.526,13.695 12.665 C 13.668 12.695,13.602 12.732,13.549 12.746 C 13.412 12.784,2.583 12.783,2.445 12.745 C 2.338 12.715,2.240 12.595,2.240 12.493 C 2.240 12.432,7.751 2.900,7.840 2.808 C 7.904 2.742,8.011 2.729,8.113 2.775 M7.749 5.802 C 7.510 5.889,7.331 6.104,7.281 6.361 C 7.259 6.472,7.252 6.921,7.258 7.853 C 7.268 9.339,7.260 9.275,7.457 9.495 C 7.747 9.816,8.253 9.816,8.543 9.495 C 8.742 9.273,8.733 9.352,8.733 7.760 L 8.733 6.333 8.658 6.181 C 8.490 5.838,8.098 5.674,7.749 5.802 M7.786 10.663 C 7.587 10.729,7.394 10.902,7.313 11.090 C 7.257 11.217,7.257 11.529,7.313 11.657 C 7.376 11.804,7.544 11.974,7.693 12.044 C 8.058 12.214,8.524 12.033,8.687 11.657 C 8.743 11.529,8.743 11.217,8.687 11.090 C 8.629 10.956,8.465 10.780,8.335 10.714 C 8.217 10.653,7.904 10.625,7.786 10.663 " stroke="none" fill-rule="evenodd" fill="black"></path></svg>