<svg xmlns="http://www.w3.org/2000/svg" xml:space="preserve" fill="none" viewBox="0 0 20 20"><path d="M6.747 1.816 C 6.672 1.840,6.560 1.885,6.497 1.917 C 6.350 1.991,2.054 6.274,1.948 6.453 C 1.762 6.765,1.767 6.661,1.767 10.000 C 1.767 13.257,1.765 13.201,1.918 13.505 C 1.991 13.651,6.275 17.947,6.453 18.052 C 6.765 18.238,6.661 18.233,10.000 18.233 C 13.257 18.233,13.201 18.235,13.505 18.082 C 13.629 18.020,17.885 13.789,18.022 13.592 C 18.070 13.523,18.137 13.382,18.171 13.278 C 18.230 13.100,18.233 12.927,18.233 10.003 C 18.233 6.743,18.235 6.798,18.082 6.495 C 18.009 6.349,13.725 2.053,13.547 1.948 C 13.234 1.762,13.342 1.767,9.983 1.770 C 7.552 1.773,6.854 1.783,6.747 1.816 M14.775 5.225 L 16.767 7.216 16.767 10.000 L 16.767 12.783 14.775 14.775 L 12.784 16.767 10.000 16.767 L 7.216 16.767 5.225 14.775 L 3.233 12.783 3.233 10.000 L 3.233 7.217 5.225 5.225 L 7.216 3.233 10.000 3.233 L 12.783 3.233 14.775 5.225 M9.746 5.554 C 9.670 5.581,9.554 5.657,9.489 5.723 C 9.255 5.956,9.263 5.847,9.274 8.505 L 9.283 10.893 9.388 11.038 C 9.524 11.227,9.784 11.367,10.000 11.367 C 10.216 11.367,10.476 11.227,10.612 11.038 L 10.717 10.893 10.726 8.505 C 10.737 5.848,10.745 5.956,10.512 5.723 C 10.309 5.520,10.021 5.456,9.746 5.554 M9.738 12.712 C 9.676 12.735,9.566 12.803,9.492 12.865 C 9.073 13.217,9.176 13.905,9.683 14.137 C 9.957 14.263,10.332 14.194,10.546 13.980 C 10.761 13.765,10.829 13.391,10.704 13.115 C 10.546 12.768,10.099 12.582,9.738 12.712 " stroke="none" fill-rule="evenodd" fill="black"></path></svg>