<svg xmlns="http://www.w3.org/2000/svg" xml:space="preserve" fill="none" viewBox="0 0 16 16"><path d="M7.480 1.269 C 6.098 1.411,4.968 1.840,3.930 2.615 C 3.591 2.868,2.868 3.591,2.615 3.930 C 1.910 4.873,1.475 5.945,1.302 7.160 C 1.257 7.474,1.257 8.526,1.302 8.840 C 1.475 10.055,1.910 11.127,2.615 12.070 C 2.868 12.409,3.591 13.132,3.930 13.385 C 4.873 14.090,5.945 14.525,7.160 14.698 C 7.474 14.743,8.526 14.743,8.840 14.698 C 10.117 14.517,11.226 14.050,12.200 13.285 C 12.441 13.095,13.095 12.441,13.285 12.200 C 14.050 11.226,14.517 10.117,14.698 8.840 C 14.743 8.526,14.743 7.474,14.698 7.160 C 14.517 5.884,14.053 4.781,13.285 3.800 C 13.064 3.517,12.367 2.838,12.070 2.616 C 11.159 1.933,10.113 1.497,8.960 1.320 C 8.692 1.279,7.713 1.246,7.480 1.269 M8.511 2.775 C 9.608 2.886,10.656 3.345,11.491 4.081 C 12.455 4.931,13.093 6.185,13.225 7.489 C 13.370 8.923,12.893 10.386,11.919 11.491 C 11.069 12.455,9.815 13.093,8.511 13.225 C 7.076 13.371,5.615 12.894,4.509 11.919 C 3.544 11.068,2.907 9.816,2.775 8.511 C 2.629 7.076,3.106 5.615,4.081 4.509 C 4.505 4.028,5.032 3.625,5.627 3.325 C 6.549 2.861,7.523 2.675,8.511 2.775 M7.691 4.318 C 7.556 4.379,7.406 4.525,7.327 4.674 L 7.267 4.787 7.259 6.716 L 7.252 8.646 7.315 8.783 C 7.453 9.083,7.686 9.238,8.000 9.238 C 8.314 9.238,8.547 9.083,8.685 8.783 L 8.748 8.646 8.741 6.716 L 8.733 4.787 8.673 4.674 C 8.526 4.398,8.310 4.268,8.000 4.268 C 7.862 4.268,7.766 4.283,7.691 4.318 M7.747 10.046 C 7.556 10.111,7.351 10.321,7.296 10.508 C 7.212 10.789,7.261 11.030,7.445 11.240 C 7.611 11.428,7.729 11.479,8.000 11.479 C 8.271 11.479,8.389 11.428,8.555 11.240 C 8.967 10.771,8.665 10.048,8.041 10.010 C 7.936 10.003,7.834 10.016,7.747 10.046 " stroke="none" fill-rule="evenodd" fill="black"></path></svg>