<svg xmlns="http://www.w3.org/2000/svg" xml:space="preserve" fill="none" viewBox="0 0 20 20">
  <path stroke="#AC3939" stroke-linecap="round" stroke-linejoin="round" stroke-width="1.5" d="M10 6.25v4.375M12.852 2.5H7.148a.62.62 0 0 0-.437.18L2.68 6.71a.62.62 0 0 0-.18.438v5.704a.62.62 0 0 0 .18.437l4.03 4.031a.62.62 0 0 0 .438.18h5.704a.62.62 0 0 0 .437-.18l4.031-4.03a.62.62 0 0 0 .18-.438V7.148a.62.62 0 0 0-.18-.437L13.29 2.68a.62.62 0 0 0-.438-.18"/>
  <path fill="#AC3939" d="M10 14.219a.781.781 0 1 0 0-1.563.781.781 0 0 0 0 1.563"/>
</svg>
