<svg width="32" height="32" viewBox="0 0 32 32" fill="none" xmlns="http://www.w3.org/2000/svg">
    <path fill-rule="evenodd" clip-rule="evenodd" d="M0.25 16C0.25 7.30179 7.30179 0.25 16 0.25C24.6982 0.25 31.75 7.30179 31.75 16C31.75 24.6982 24.6982 31.75 16 31.75C7.30179 31.75 0.25 24.6982 0.25 16ZM16 1.75C8.13021 1.75 1.75 8.13021 1.75 16C1.75 23.8698 8.13021 30.25 16 30.25C23.8698 30.25 30.25 23.8698 30.25 16C30.25 8.13021 23.8698 1.75 16 1.75ZM16 7.75C16.4142 7.75 16.75 8.08579 16.75 8.5V17.25C16.75 17.6642 16.4142 18 16 18C15.5858 18 15.25 17.6642 15.25 17.25V8.5C15.25 8.08579 15.5858 7.75 16 7.75Z" fill="black"/>
</svg>
