<svg xmlns="http://www.w3.org/2000/svg" xml:space="preserve" fill="none" viewBox="0 0 16 16">
  <path fill="#000" fill-rule="evenodd" d="M7.48 1.269c-1.382.142-2.512.571-3.55 1.346-.339.253-1.062.976-1.315 1.315-.705.943-1.14 2.015-1.313 3.23-.045.314-.045 1.366 0 1.68.173 1.215.608 2.287 1.313 3.23.253.339.976 1.062 1.315 1.315.943.705 2.015 1.14 3.23 1.313.314.045 1.366.045 1.68 0 1.277-.181 2.386-.648 3.36-1.413.241-.19.895-.844 1.085-1.085.765-.974 1.232-2.083 1.413-3.36.045-.314.045-1.366 0-1.68-.181-1.276-.645-2.379-1.413-3.36-.221-.283-.918-.962-1.215-1.184A6.86 6.86 0 0 0 8.96 1.32c-.268-.041-1.247-.074-1.48-.051m1.031 1.506a5.34 5.34 0 0 1 2.98 1.306c.964.85 1.602 2.104 1.734 3.408a5.3 5.3 0 0 1-1.306 4.002c-.85.964-2.104 1.602-3.408 1.734a5.28 5.28 0 0 1-4.002-1.306 5.32 5.32 0 0 1-1.734-3.408 5.28 5.28 0 0 1 1.306-4.002 5.2 5.2 0 0 1 1.546-1.184 5.2 5.2 0 0 1 2.884-.55m-.82 1.543a.87.87 0 0 0-.364.356l-.06.113-.008 1.929-.007 1.93.063.137c.138.3.371.455.685.455s.547-.155.685-.455l.063-.137-.007-1.93-.008-1.929-.06-.113c-.147-.276-.363-.406-.673-.406a.7.7 0 0 0-.309.05m.056 5.728a.8.8 0 0 0-.451.462c-.084.281-.035.522.149.732.166.188.284.239.555.239s.389-.051.555-.239a.738.738 0 0 0-.514-1.23.8.8 0 0 0-.294.036"/>
</svg>
