<svg xmlns="http://www.w3.org/2000/svg" fill="none" viewBox="0 0 20 20"><path d="M3.483 2.546 C 3.251 2.647,3.073 2.973,3.118 3.213 C 3.151 3.387,3.214 3.469,3.880 4.198 C 4.222 4.572,4.498 4.889,4.492 4.901 C 4.487 4.914,4.221 5.058,3.900 5.222 C 3.059 5.651,2.180 6.217,1.606 6.699 C 1.331 6.930,1.257 7.053,1.257 7.279 C 1.257 7.638,1.519 7.900,1.878 7.900 C 2.062 7.900,2.177 7.838,2.600 7.513 C 3.219 7.037,3.830 6.653,4.512 6.310 C 4.833 6.150,5.383 5.900,5.417 5.900 C 5.449 5.900,7.214 7.875,7.200 7.894 C 7.191 7.906,7.026 7.970,6.833 8.036 C 6.367 8.196,6.076 8.323,5.513 8.614 C 4.824 8.970,3.982 9.544,3.848 9.749 C 3.591 10.141,3.895 10.700,4.366 10.700 C 4.553 10.700,4.662 10.647,5.067 10.355 C 5.880 9.770,6.738 9.351,7.675 9.081 C 7.893 9.018,8.105 8.967,8.144 8.967 C 8.197 8.967,8.494 9.272,9.233 10.086 C 9.793 10.702,10.255 11.219,10.261 11.236 C 10.267 11.254,10.105 11.267,9.882 11.267 C 8.794 11.267,7.686 11.605,6.750 12.225 C 6.412 12.448,6.357 12.501,6.285 12.675 C 6.144 13.012,6.345 13.404,6.710 13.503 C 6.906 13.557,7.070 13.506,7.406 13.288 C 8.245 12.743,9.021 12.517,10.033 12.522 C 10.623 12.524,10.890 12.563,11.412 12.723 L 11.708 12.813 13.809 15.121 C 16.013 17.544,16.004 17.534,16.276 17.533 C 16.500 17.531,16.785 17.333,16.865 17.123 C 16.917 16.983,16.906 16.800,16.836 16.650 C 16.754 16.472,4.213 2.676,4.043 2.576 C 3.898 2.490,3.643 2.477,3.483 2.546 M9.017 3.788 C 8.962 3.794,8.752 3.816,8.550 3.837 C 8.026 3.890,7.830 4.009,7.750 4.322 C 7.674 4.621,7.807 4.906,8.085 5.041 C 8.228 5.111,8.239 5.111,8.757 5.064 C 9.563 4.991,10.785 5.006,11.483 5.098 C 12.369 5.214,12.992 5.354,13.813 5.622 C 14.995 6.008,16.192 6.622,17.157 7.336 C 17.373 7.496,17.627 7.682,17.721 7.750 C 18.003 7.952,18.289 7.951,18.528 7.747 C 18.766 7.543,18.818 7.176,18.641 6.936 C 18.501 6.745,17.627 6.103,16.944 5.690 C 15.186 4.625,13.174 3.976,11.090 3.802 C 10.703 3.770,9.261 3.760,9.017 3.788 M11.518 7.776 C 11.150 7.984,11.098 8.453,11.409 8.752 C 11.535 8.873,11.586 8.896,11.883 8.964 C 13.001 9.219,13.991 9.688,15.190 10.532 C 15.450 10.715,15.674 10.748,15.892 10.637 C 16.107 10.528,16.212 10.365,16.225 10.121 C 16.245 9.770,16.123 9.630,15.339 9.110 C 14.465 8.530,13.400 8.058,12.383 7.801 C 11.900 7.679,11.699 7.673,11.518 7.776 M9.733 15.031 C 9.198 15.195,8.911 15.730,9.086 16.242 C 9.151 16.434,9.365 16.681,9.546 16.773 C 9.742 16.873,10.088 16.893,10.290 16.816 C 10.479 16.744,10.713 16.535,10.811 16.351 C 10.914 16.157,10.914 15.708,10.809 15.512 C 10.611 15.139,10.111 14.916,9.733 15.031 " fill="#171717" stroke="none" fill-rule="evenodd"></path></svg>