<svg viewBox="0 0 20 20" fill="none" xmlns="http://www.w3.org/2000/svg">
    <path d="M16.712 16.455a.626.626 0 1 1-.925.84l-4.062-4.464a4.689 4.689 0 0 0-4.485.565.625.625 0 1 1-.736-1.01 5.893 5.893 0 0 1 3.794-1.128L8.195 8.945a8.437 8.437 0 0 0-3.43 1.626.625.625 0 0 1-.88-.102.625.625 0 0 1 .1-.877 9.709 9.709 0 0 1 3.258-1.693L5.42 5.891a12.143 12.143 0 0 0-3.148 1.875.626.626 0 1 1-.794-.969 13.428 13.428 0 0 1 3.053-1.886L3.287 3.545a.625.625 0 1 1 .925-.84l12.5 13.75zM10 15a.938.938 0 1 0 0 1.875A.938.938 0 0 0 10 15zm8.522-8.203A13.461 13.461 0 0 0 8.282 3.86a.625.625 0 1 0 .155 1.24 12.207 12.207 0 0 1 9.29 2.664.625.625 0 0 0 .795-.967zm-3.288 3.774a.624.624 0 1 0 .777-.98 9.706 9.706 0 0 0-4.041-1.89.625.625 0 1 0-.251 1.224 8.447 8.447 0 0 1 3.515 1.646z" fill="#171717"/>
</svg>