<?xml version="1.0" encoding="UTF-8"?>
<svg viewBox="0 0 256 256" version="1.1" xmlns="http://www.w3.org/2000/svg" xmlns:xlink="http://www.w3.org/1999/xlink">
    <circle fill="#4BCF51" fill-rule="nonzero" cx="128" cy="128" r="128"></circle>
    <path d="M188.1,153.447 C183.43,165.756 155.82,173.826 155.82,173.826 L161.2,196.254 L146.99,199.654 L141.58,177.069 L130.34,179.632 L135.78,202.34 L121.57,205.74 L116.09,182.875 L87.61,189.368 L86.48,171.457 C86.48,171.457 91.66,170.809 96.38,169.876 C101.1,168.943 101.2,163.584 100.57,160.967 C99.94,158.35 87.72,107.326 86.42,101.906 C85.12,96.486 79.45,95.077 76.98,95.472 C74.51,95.867 66.69,98.727 66.69,98.727 L63.11,83.775 L90.77,77.149 L85.22,53.973 L99.42,50.573 L104.97,73.749 C109.03,72.777 112.87,71.859 116.19,71.063 L110.64,47.887 L124.84,44.487 L130.43,67.798 C136.8,66.765 149.09,65.686 156.68,68.482 C165.78,71.835 171.82,83.035 172.48,91.573 C173.14,100.111 164.1,109.39 164.1,109.39 C164.1,109.39 178.3,110.378 184.34,117.981 C196.62,133.426 190.19,147.916 188.1,153.447 Z M109.48,89.273 L116.29,117.683 C116.29,117.683 128.56,116.126 136.12,111.353 C143.68,106.58 146.9,101.844 145.78,95.599 C144.59,88.968 136.79,85.079 129.1,85.365 C122.411688,85.76143 115.809752,87.0764333 109.48,89.273 L109.48,89.273 Z M118.94,132.067 L126.29,162.719 C126.29,162.719 145.76,159.043 152.09,154.956 C158.42,150.869 165.64,143.016 161.43,134.537 C157.22,126.058 145.48,126.502 137.63,127.59 C131.308016,128.668187 125.064359,130.163792 118.94,132.067 Z" fill="#FFFFFF"></path>
</svg>