<svg xmlns="http://www.w3.org/2000/svg" width="24" height="24" fill="none" viewBox="0 0 24 24">
    <circle cx="12" cy="12" r="12" fill="#0AC18E" />
    <path fill="#fff" d="M15.743 7.97c-.603-1.367-1.989-1.66-3.685-1.376l-.545-2.114-1.286.332.536 2.108c-.338.085-.685.158-1.029.256L9.198 5.08l-1.285.332.545 2.114c-.277.08-2.595.673-2.595.673l.353 1.377s.944-.265.935-.244c.524-.137.77.125.887.372l1.498 5.793c.018.167-.012.454-.372.551.022.012-.935.24-.935.24l.14 1.606 2.598-.664.552 2.138 1.285-.332-.551-2.154c.353-.082.697-.167 1.032-.255l.549 2.14 1.285-.331-.551-2.135c1.98-.481 3.377-1.73 3.09-3.64-.182-1.151-1.44-2.095-2.484-2.202.642-.57.968-1.4.57-2.488zm-.618 5.041c.256 1.892-2.373 2.123-3.24 2.352l-.756-2.83c.871-.228 3.563-1.188 3.996.478zM13.54 9.16c.271 1.68-1.977 1.876-2.701 2.062l-.689-2.568c.728-.18 2.839-1.05 3.39.506z"/>
</svg>
