<svg xmlns="http://www.w3.org/2000/svg" width="24" height="24" fill="none" viewBox="0 0 24 24">
    <circle cx="12" cy="12" r="12" fill="#F29937" fill-opacity=".95" />
    <path fill="#fff" fill-rule="evenodd" d="M8.338 6.055l.008.002-.028.02s.007-.01.02-.022zm.083.023l.025-.098-.1.077.075.02zm0 0c-.046.174-.092.354-.137.534-.054.214-.109.427-.163.632-.036.074 0 .111.072.111l.174.044c.243.061.504.127.765.216.325.112.505.446.433.743-.433 1.932-.902 3.827-1.372 5.722-.036.26-.252.409-.541.335-.253-.038-.541-.112-.794-.186-.108 0-.144 0-.18.111-.109.297-.253.632-.398.966-.036.075-.063.14-.09.205-.027.065-.054.13-.09.204.866.223 1.696.446 2.527.669 0 .043-.013.074-.023.1-.007.017-.014.033-.014.048-.18.595-.324 1.226-.469 1.858-.036.074-.036.111.072.149.361.074.722.148 1.083.26.096.032.107.008.133-.05l.012-.025c.036-.167.08-.334.126-.501.045-.167.09-.335.126-.502.036-.167.082-.334.127-.501.045-.168.09-.335.126-.502.325.074.614.149.902.223.052.027.048.053.042.094-.003.016-.006.034-.006.055-.18.594-.325 1.226-.469 1.857-.036.075-.036.112.072.149.163.037.334.084.506.13.171.046.343.093.505.13.173.071.18.04.212-.093l.005-.019c.072-.297.144-.603.216-.91.072-.306.145-.613.217-.91.036-.111.108-.149.216-.111.722.111 1.444.185 2.202.074.578-.075 1.083-.335 1.48-.818.325-.408.505-.854.65-1.374.108-.409.144-.855.072-1.264-.145-.52-.433-.928-.867-1.263-.072-.055-.144-.102-.216-.148-.072-.047-.144-.093-.217-.149.043 0 .072-.013.097-.023.018-.008.033-.014.048-.014.289-.112.577-.26.794-.483.288-.297.433-.669.541-1.078.145-.594.108-1.189-.216-1.746-.253-.371-.578-.669-.939-.892l-1.19-.557c-.11-.037-.145-.074-.11-.186.073-.185.11-.371.145-.557.108-.446.217-.892.325-1.375-.018 0-.027-.009-.036-.018-.01-.01-.018-.019-.036-.019-.171-.048-.336-.089-.496-.13-.212-.052-.418-.104-.623-.167-.072-.037-.108 0-.108.074l-.109.446c-.144.483-.252.929-.36 1.412-.013.012-.025.029-.037.045-.024.033-.048.066-.072.066-.144-.037-.298-.074-.451-.111-.153-.037-.307-.074-.451-.112.036-.074.036-.111.036-.148.072-.297.144-.604.216-.91.073-.307.145-.613.217-.91.036-.075.036-.112-.072-.15-.361-.074-.686-.148-1.047-.26-.108-.037-.144 0-.18.112l-.217.929-.217.929c-.036.111-.072.148-.18.111-.199-.055-.397-.102-.596-.148-.198-.047-.397-.093-.595-.149-.199-.056-.397-.102-.596-.149-.17-.04-.342-.08-.512-.125zm1.758 9.155c.036 0 .072.037.072.037l.274.072c.495.13 1.013.268 1.53.3.434.037.83.037 1.228-.112.686-.223.974-1.152.577-1.746-.18-.298-.469-.483-.758-.67-.63-.36-1.363-.51-2.066-.655l-.063-.013c-.099-.034-.108-.006-.136.084l-.009.027c-.036.186-.08.363-.126.54-.045.176-.09.352-.126.538-.083.296-.153.593-.225.896-.055.229-.11.462-.172.702zm3.428-3.865c-.144.037-.324.075-.397.075-.419 0-.78-.059-1.154-.12-.142-.023-.285-.046-.434-.066-.072-.019-.135-.037-.198-.056-.063-.018-.127-.037-.199-.056-.072-.037-.108-.074-.072-.148.216-.78.397-1.524.577-2.304.037-.111.073-.148.18-.111.108.03.214.057.32.085.423.112.828.22 1.233.398.325.148.65.371.83.706.361.631 0 1.449-.686 1.597z" clip-rule="evenodd"/>
</svg>
