<?xml version="1.0" encoding="UTF-8"?>
<svg fill="#F5A623" viewBox="0 0 256 256" version="1.1" xmlns="http://www.w3.org/2000/svg" xmlns:xlink="http://www.w3.org/1999/xlink">
    <path d="M153.05304,137.861075 C150.105093,136.383718 143.538185,134.394361 135.721727,133.876722 C127.901885,133.360211 117.871648,133.876722 117.871648,133.876722 L117.871648,167.731877 C117.871648,167.731877 128.345093,167.955172 135.355207,167.438661 C142.358555,166.92215 149.588581,165.152705 153.203031,163.158837 C156.815225,161.167225 161.168352,158.069286 161.168352,150.326132 C161.168352,142.579595 156.00437,139.336176 153.05304,137.861075 Z"></path>
    <path d="M130.999824,118.164863 C136.755877,117.942696 142.877322,116.616458 147.299242,114.181639 C151.725674,111.747947 154.23267,107.914714 154.088317,102.159789 C153.937198,96.4059912 150.105093,91.5386079 143.614872,89.5447401 C137.122396,87.5531278 132.77378,87.4053921 127.828581,87.3320881 C122.886767,87.2599119 117.87052,87.7019912 117.87052,87.7019912 L117.87052,118.164863 C117.871648,118.164863 125.247154,118.387031 130.999824,118.164863 Z"></path>
    <path d="M127.901885,0 C57.2639295,0 0,57.2628018 0,127.901885 C0,198.539841 57.2639295,255.803771 127.901885,255.803771 C198.539841,255.803771 255.801515,198.539841 255.801515,127.901885 C255.801515,57.2628018 198.539841,0 127.901885,0 Z M179.979278,176.80578 C170.46104,183.444863 160.283066,184.626749 155.78333,185.214308 C153.562784,185.506396 149.758872,185.814273 145.679789,186.053357 L145.679789,211.696211 L129.893498,211.696211 L129.893498,186.46837 C126.944423,186.46837 122.719859,186.46837 117.871648,186.46837 L117.871648,211.696211 L102.086485,211.696211 L102.086485,186.46837 C86.4648458,186.46837 71.0326696,186.46837 71.0326696,186.46837 L74.2783436,167.508581 C74.2783436,167.508581 80.5475242,167.508581 83.7187665,167.508581 C86.8922643,167.508581 88.2173744,167.214238 89.5447401,165.961304 C90.8721057,164.706115 91.1675771,162.790062 91.1675771,161.238273 C91.1675771,159.689868 91.1675771,100.017057 91.1675771,95.9233128 C91.1675771,91.8318238 90.8348899,90.72437 88.9537974,88.6233656 C87.0727048,86.5178502 82.6485286,86.2415507 80.1573216,86.2415507 C77.66837,86.2415507 71.0326696,86.2415507 71.0326696,86.2415507 L71.0326696,69.8519119 C71.0326696,69.8519119 85.9708899,69.8519119 102.085357,69.8519119 L102.085357,44.5518943 L117.869392,44.5518943 L117.869392,69.8519119 C122.255225,69.8519119 126.369269,69.8519119 129.891242,69.8519119 L129.891242,44.5518943 L145.677533,44.5518943 L145.677533,70.1552775 C157.445639,70.8849339 166.206026,73.1269075 173.852194,78.7769515 C183.738079,86.0791542 183.219313,98.7652511 182.998273,101.789885 C182.778361,104.81452 181.450996,110.642749 178.792881,114.401551 C176.140405,118.164863 169.649057,121.927048 169.649057,121.927048 C169.649057,121.927048 177.318907,123.548758 182.706185,127.606414 C188.086696,131.66407 192.074432,138.81741 191.847753,149.291982 C191.631225,159.766555 189.493004,170.167824 179.979278,176.80578 Z"></path>
</svg>