<svg xmlns="http://www.w3.org/2000/svg" width="24" height="24" fill="none" viewBox="0 0 24 24">
    <path fill="#052267" fill-opacity=".76" d="M12 24c6.627 0 12-5.373 12-12S18.627 0 12 0 0 5.373 0 12s5.373 12 12 12z"/>
    <path fill="#fff" d="M11.02 5.39c2.086-.349 4.324.335 5.826 1.833 1.331 1.257 2.11 3.085 2.07 4.917.027 1.823-.754 3.636-2.08 4.883-1.444 1.435-3.566 2.12-5.579 1.855-1.896-.228-3.67-1.305-4.748-2.883-1.193-1.69-1.522-3.939-.903-5.908.725-2.424 2.914-4.319 5.414-4.697zm.416.416c.001.596.002 1.192.001 1.789l.893.001c.001-.612.002-1.224 0-1.835-.298.01-.597.024-.894.045zm2.147 1.818c.783.105 1.626.225 2.25.754.955.857.831 2.656-.336 3.278.7.163 1.392.63 1.564 1.364.225.964.046 2.12-.728 2.8-.767.63-1.805.714-2.753.804.005.558.003 1.116.002 1.675 1.995-.489 3.717-1.974 4.45-3.897.694-1.773.53-3.86-.45-5.493-.867-1.474-2.34-2.556-3.996-2.971-.005.561-.005 1.123-.003 1.686zM7.627 7.6c.864.042 1.73.032 2.595.03 0-.526 0-1.052-.003-1.578-.968.314-1.831.878-2.592 1.548zm-.103.07c-.23.281-.654.814-.906 1.286-1.016 1.731-1.132 3.954-.283 5.775.732 1.633 2.184 2.904 3.884 3.451.003-.525.001-1.05.001-1.575-.867-.009-1.737.023-2.604-.024.01-.484.124-.957.288-1.413.425-.008.868.066 1.278-.073.24-.201.172-.535.185-.811-.013-1.578.006-3.156-.008-4.733.015-.254-.144-.529-.408-.58-.436-.087-.885-.052-1.325-.056-.052-.355-.058-.714-.062-1.073 0 0 .006-.112-.033-.186l-.007.011zm3.95 1.355v2.326c.775-.015 1.637.072 2.316-.38.564-.369.528-1.304-.054-1.636-.68-.402-1.51-.288-2.263-.31zm0 3.577v2.58c.958-.076 2.033.084 2.867-.494.597-.396.525-1.376-.09-1.72-.835-.499-1.85-.34-2.778-.366zm-.036 4.04c0 .596 0 1.194-.002 1.79.31.02.62.032.931.042.002-.61.001-1.222.001-1.832h-.93z"/>
</svg>
