<?xml version="1.0" encoding="UTF-8"?>
<svg viewBox="0 0 256 256" version="1.1" xmlns="http://www.w3.org/2000/svg" xmlns:xlink="http://www.w3.org/1999/xlink">
    <path d="M115.657187,0.574310268 C142.742511,-2.02937574 170.640395,4.27014645 193.881351,18.4506243 C215.785515,31.6437983 233.522034,51.590829 244.102785,74.8667335 C255.286402,99.1911021 258.257051,127.071512 253.005993,153.283116 C247.772409,179.573355 233.862785,204.011307 214.046812,222.062365 C194.222102,240.366802 168.412409,252.030966 141.571726,254.879293 C124.254593,256.495675 106.561761,255.193832 89.9348664,249.916563 C61.5040132,241.196836 36.4195081,222.114788 20.360532,197.082706 C6.85281864,176.296904 -0.329160879,151.465778 0.011589974,126.6696 C0.0814875849,98.3173819 10.1467436,70.1486447 27.9094739,48.0697369 C49.1670849,21.2552659 81.5558903,3.64980515 115.657187,0.574310268" fill="#988430"></path>
    <path d="M125.241897,3.9730816 C147.958621,3.57990754 170.815139,9.37267204 190.403945,20.9494639 C211.530498,33.3562898 228.908791,52.1500099 239.419645,74.2988154 C250.769269,97.3999758 254.115617,124.153286 249.703331,149.447484 C243.919303,183.339088 223.081078,214.260044 193.942511,232.477109 C173.768314,245.408167 149.679849,252.1096 125.739918,251.585368 C102.359167,251.428099 79.1618971,244.141273 59.6779381,231.262638 C39.7309074,218.104413 23.5758221,199.153423 14.1658562,177.15315 C3.31425209,152.391921 1.00763093,124.022228 7.61295516,97.8106243 C14.0610098,71.2670065 29.866607,47.2571772 51.3164364,30.4118529 C72.1896105,13.8199075 98.6109074,4.51478808 125.241897,3.9730816" fill="#7A6A2A"></path>
    <path d="M78.1920678,17.1487813 C99.5283135,7.47669935 123.721624,4.40994167 146.840259,8.06209184 C170.981146,11.8190884 193.837665,23.1949246 211.469337,40.1014092 C233.041488,60.5464604 246.64531,89.1607949 248.689815,118.823594 C251.380873,152.6453 238.982785,187.340727 215.304969,211.656358 C214.972955,204.605437 214.868109,197.545778 214.737051,190.486119 C214.684628,185.252536 213.52258,180.132536 213.076982,174.942638 C213.173092,173.1253 213.382785,171.316699 213.443945,169.508099 C213.697324,164.606529 211.102375,160.036972 211.766402,155.100454 C212.412955,148.163116 208.778279,141.872331 206.978416,135.371853 C205.18729,130.802297 205.300873,125.778406 203.56217,121.200112 C202.31275,103.516017 195.462785,85.6659144 182.042443,73.6522625 C182.479303,73.0406584 183.335549,71.7999758 183.772409,71.1796345 C184.305378,72.3329451 184.908245,73.4425697 185.511112,74.5521942 C188.630293,71.0223649 189.110839,66.1644809 190.036982,61.743457 C191.775686,53.8625014 190.569952,45.7194297 189.224423,37.8821601 C188.184696,33.8630475 187.354662,29.2061191 183.990839,26.4276891 C180.399849,24.3132864 174.178962,24.2783376 172.090771,28.4721942 C172.020873,28.7168359 171.881078,29.2061191 171.81118,29.4420236 C170.247221,32.1592932 168.080395,34.5096004 165.363126,36.0910338 C160.540191,39.0616823 157.910293,44.6971772 152.755344,47.3008632 C149.540054,48.3493273 146.272341,46.5669383 142.99589,46.9339007 C136.827426,47.5717164 130.562853,47.8949929 124.569133,49.6162215 C118.898689,48.7162898 113.202034,47.816358 107.566539,46.6805219 C107.584013,46.2698734 107.627699,45.4573137 107.653911,45.0466652 C105.076436,42.5478256 102.726129,39.699498 101.791249,36.1609314 C100.07002,29.5730816 96.0072214,23.2298734 89.8824432,19.9971089 C89.0174603,19.656358 88.1524773,19.3243444 87.2874944,19.0098051 C86.7457879,19.6039348 86.2215558,20.2068017 85.706061,20.8096686 C85.5051053,21.2727403 85.1031941,22.1988836 84.9022384,22.6532181 C83.539235,25.7025014 83.8450371,29.1012727 83.7489279,32.3515116 C83.6615558,40.7479621 82.7878357,49.3453683 79.240532,57.0603171 C73.5264023,57.0428427 67.8210098,56.9991567 62.1156173,57.0690543 C60.9797811,59.6377915 61.3816924,62.4861191 61.320532,65.2033888 C52.1377333,73.7046857 48.4681087,86.2338325 46.7556173,98.2474843 C46.7468801,99.1736277 46.7818289,100.108508 46.8604637,101.034652 C46.8779381,101.401614 46.9041497,102.135539 46.9216241,102.493764 C42.8850371,107.81472 42.1773238,114.769532 41.1375968,121.156426 C42.6141838,121.069054 44.0907709,120.981682 45.5760951,120.920522 C44.2130917,121.069054 42.8500883,121.200112 41.4958221,121.33117 C41.233706,122.790283 41.0240132,124.249396 40.8580064,125.717245 C42.186061,125.227962 43.5053784,124.721204 44.833433,124.231921 L45.5498835,124.26687 C43.96845,124.913423 42.4219654,125.664822 40.884218,126.424959 C40.9191668,127.351102 40.9890644,129.212126 41.015276,130.138269 C42.8151395,129.212126 44.6324773,128.338406 46.4323408,127.412262 L45.7770507,128.146187 C44.2480405,129.142228 42.2909074,129.675198 41.0851736,131.090624 C41.1201224,134.44571 41.5919313,137.783321 42.0462657,141.103457 C43.2257879,148.652399 45.8731599,156.000385 49.7437401,162.588235 C49.6301565,167.402433 48.5904296,172.25158 45.7508391,176.227007 C46.5459244,177.729805 47.8739791,179.11902 47.9526139,180.883935 C47.4545934,183.880795 45.0431258,186.414583 45.5498835,189.594925 C46.1964364,197.309873 43.3655831,204.675334 40.019235,211.46414 C22.6584159,193.421819 11.1864705,169.813901 7.71780158,145.008986 C4.42387666,121.855402 7.8750712,97.7319894 17.8616924,76.5530133 C29.9889279,50.376358 51.8319313,28.8741055 78.1920678,17.1487813" fill="#BA9F33"></path>
    <path d="M85.706061,20.8096686 C86.2215558,20.2068017 86.7457879,19.6039348 87.2874944,19.0098051 C88.1524773,19.3243444 89.0174603,19.656358 89.8824432,19.9971089 C91.3415558,24.5841396 93.604491,29.1711703 93.1414193,34.1164263 C92.9754125,37.4190884 92.258962,40.9663922 93.9190302,44.0418871 C94.6354808,45.7893273 96.3741838,46.6979963 97.8507709,47.7027744 C96.9595763,48.3930133 96.077119,49.0832522 95.1422384,49.7035935 C91.2803954,51.241341 88.2049006,54.107143 85.3128869,56.9991567 C84.1945251,56.9991567 83.0761634,57.0078939 81.9578016,57.0078939 C88.0738425,49.6599075 90.7736378,39.9790884 90.7474262,30.5254365 C90.869747,26.6024331 87.8641497,23.7366311 85.706061,20.8096686" fill="#C79C3B"></path>
    <path d="M89.8824432,19.9971089 C96.0072214,23.2298734 100.07002,29.5730816 101.791249,36.1609314 C102.726129,39.699498 105.076436,42.5478256 107.653911,45.0466652 C107.627699,45.4573137 107.584013,46.2698734 107.566539,46.6805219 C104.368723,45.6320577 100.436982,44.9680304 97.8507709,47.7027744 C96.3741838,46.6979963 94.6354808,45.7893273 93.9190302,44.0418871 C92.258962,40.9663922 92.9754125,37.4190884 93.1414193,34.1164263 C93.604491,29.1711703 91.3415558,24.5841396 89.8824432,19.9971089" fill="#B58634"></path>
    <path d="M85.706061,20.8096686 C87.8641497,23.7366311 90.869747,26.6024331 90.7474262,30.5254365 C90.7736378,39.9790884 88.0738425,49.6599075 81.9578016,57.0078939 C81.5384159,57.0166311 80.7083818,57.0341055 80.2889961,57.0341055 C82.9363681,52.9800441 85.5662657,48.5852318 85.8458562,43.6137642 C86.3438767,36.5977915 84.1857879,29.6866652 84.9022384,22.6532181 C85.1031941,22.1988836 85.5051053,21.2727403 85.706061,20.8096686" fill="#DFC068"></path>
    <path d="M83.7489279,32.3515116 C83.8450371,29.1012727 83.539235,25.7025014 84.9022384,22.6532181 C84.1857879,29.6866652 86.3438767,36.5977915 85.8458562,43.6137642 C85.5662657,48.5852318 82.9363681,52.9800441 80.2889961,57.0341055 L79.240532,57.0603171 C82.7878357,49.3453683 83.6615558,40.7479621 83.7489279,32.3515116" fill="#A78F33"></path>
    <path d="M172.090771,28.4721942 C174.178962,24.2783376 180.399849,24.3132864 183.990839,26.4276891 C187.354662,29.2061191 188.184696,33.8630475 189.224423,37.8821601 C190.569952,45.7194297 191.775686,53.8625014 190.036982,61.743457 C189.110839,66.1644809 188.630293,71.0223649 185.511112,74.5521942 C184.908245,73.4425697 184.305378,72.3329451 183.772409,71.1796345 C183.178279,69.4496686 182.680259,67.684754 182.121078,65.9373137 C184.27043,61.1405901 185.36258,55.8982693 185.930498,50.6908973 C186.445993,46.0427062 183.353023,42.215812 180.268791,39.1577915 C178.634935,34.841614 175.323535,31.6263239 172.090771,28.4721942" fill="#A17C34"></path>
    <path d="M171.81118,29.4420236 C171.881078,29.2061191 172.020873,28.7168359 172.090771,28.4721942 C175.323535,31.6263239 178.634935,34.841614 180.268791,39.1577915 C180.181419,40.4246857 179.893092,41.8051635 178.565037,42.2944468 C174.781829,44.2078939 170.544286,45.5971089 167.774593,48.9958802 C165.878621,51.3986106 162.182785,52.7703512 161.88572,56.1166993 C162.287631,56.4137642 163.091453,56.9991567 163.493365,57.2962215 C163.117665,57.7855048 162.375003,58.7640714 161.999303,59.2533546 C162.479849,59.7513751 162.969133,60.2406584 163.458416,60.7299417 C165.476709,58.6242761 168.578416,58.4407949 171.190839,57.5146516 C170.780191,58.5281669 170.369542,59.5504195 169.958894,60.572672 C171.068518,60.3280304 172.195617,60.0833888 173.313979,59.8562215 C171.933501,61.437655 170.387017,62.870556 168.761897,64.2073478 C168.578416,64.1025014 168.211453,63.910283 168.027972,63.8141737 C166.03589,62.82687 164.096232,61.4988154 161.807085,61.4114434 C161.693501,61.0706925 161.475071,60.4066652 161.361488,60.0659144 C160.103331,59.9960168 158.853911,59.7601123 157.665651,59.3582011 C157.997665,58.5281669 158.661692,56.8768359 158.993706,56.0555389 C158.303467,56.3875526 156.914252,57.0603171 156.224013,57.3923307 C158.102511,54.3080987 159.928587,51.1889178 161.763399,48.0784741 C161.894457,47.8513069 162.156573,47.3969724 162.287631,47.1698051 C164.812682,42.4866652 168.525993,38.5811362 171.068518,33.9242079 C171.959713,32.5786789 171.924764,30.979771 171.81118,29.4420236" fill="#B89844"></path>
    <path d="M171.81118,29.4420236 C171.924764,30.979771 171.959713,32.5786789 171.068518,33.9242079 C168.525993,38.5811362 164.812682,42.4866652 162.287631,47.1698051 C162.243945,43.2380645 162.75944,39.2189519 165.363126,36.0910338 C168.080395,34.5096004 170.247221,32.1592932 171.81118,29.4420236" fill="#CBA94C"></path>
    <path d="M152.755344,47.3008632 C157.910293,44.6971772 160.540191,39.0616823 165.363126,36.0910338 C162.75944,39.2189519 162.243945,43.2380645 162.287631,47.1698051 C162.156573,47.3969724 161.894457,47.8513069 161.763399,48.0784741 C161.868245,46.5669383 161.719713,45.0641396 161.501283,43.5700782 C159.063604,48.6027062 156.381283,53.5479621 152.694184,57.794242 C150.562307,57.2175867 148.351795,57.0078939 146.141283,57.0078939 C147.364491,54.6663239 148.937187,52.5344468 150.597256,50.4986789 C142.034798,48.4891226 133.227699,50.4375185 124.569133,49.6162215 C130.562853,47.8949929 136.827426,47.5717164 142.99589,46.9339007 C146.272341,46.5669383 149.540054,48.3493273 152.755344,47.3008632" fill="#AC8132"></path>
    <path d="M180.268791,39.1577915 C183.353023,42.215812 186.445993,46.0427062 185.930498,50.6908973 C185.36258,55.8982693 184.27043,61.1405901 182.121078,65.9373137 C180.539645,67.2304195 178.897051,68.4536277 177.271931,69.7030475 C176.503058,69.1351294 175.716709,68.5759485 174.939099,68.0167676 L174.554662,67.7546516 C177.053501,62.3812727 181.090088,57.3311703 181.352204,51.2238666 C176.59043,51.3986106 171.828655,52.1762215 167.294047,53.626597 C165.424286,54.0896686 164.471931,55.8108973 163.493365,57.2962215 C163.091453,56.9991567 162.287631,56.4137642 161.88572,56.1166993 C162.182785,52.7703512 165.878621,51.3986106 167.774593,48.9958802 C170.544286,45.5971089 174.781829,44.2078939 178.565037,42.2944468 C179.893092,41.8051635 180.181419,40.4246857 180.268791,39.1577915" fill="#927238"></path>
    <path d="M161.501283,43.5700782 C161.719713,45.0641396 161.868245,46.5669383 161.763399,48.0784741 C159.928587,51.1889178 158.102511,54.3080987 156.224013,57.3923307 C156.914252,57.0603171 158.303467,56.3875526 158.993706,56.0555389 C158.661692,56.8768359 157.997665,58.5281669 157.665651,59.3582011 C156.01432,58.7990202 154.371726,58.2398393 152.694184,57.794242 C156.381283,53.5479621 159.063604,48.6027062 161.501283,43.5700782" fill="#8C6228"></path>
    <path d="M97.8507709,47.7027744 C100.436982,44.9680304 104.368723,45.6320577 107.566539,46.6805219 C113.202034,47.816358 118.898689,48.7162898 124.569133,49.6162215 C133.227699,50.4375185 142.034798,48.4891226 150.597256,50.4986789 C148.937187,52.5344468 147.364491,54.6663239 146.141283,57.0078939 C132.135549,56.9904195 118.121078,57.0690543 104.115344,57.0166311 C103.529952,55.0245492 103.451317,52.543184 101.616505,51.2151294 C99.7467436,49.8696004 97.3265388,49.9482352 95.1422384,49.7035935 C96.077119,49.0832522 96.9595763,48.3930133 97.8507709,47.7027744" fill="#D2A83E"></path>
    <path d="M85.3128869,56.9991567 C88.2049006,54.107143 91.2803954,51.241341 95.1422384,49.7035935 C97.3265388,49.9482352 99.7467436,49.8696004 101.616505,51.2151294 C103.451317,52.543184 103.529952,55.0245492 104.115344,57.0166311 C97.8507709,56.9991567 91.5774603,57.0078939 85.3128869,56.9991567" fill="#DCBA5A"></path>
    <path d="M167.294047,53.626597 C171.828655,52.1762215 176.59043,51.3986106 181.352204,51.2238666 C181.090088,57.3311703 177.053501,62.3812727 174.554662,67.7546516 C172.702375,66.4440714 170.762716,65.2732864 168.761897,64.2073478 C170.387017,62.870556 171.933501,61.437655 173.313979,59.8562215 C172.195617,60.0833888 171.068518,60.3280304 169.958894,60.572672 C170.369542,59.5504195 170.780191,58.5281669 171.190839,57.5146516 C168.578416,58.4407949 165.476709,58.6242761 163.458416,60.7299417 C162.969133,60.2406584 162.479849,59.7513751 161.999303,59.2533546 C162.375003,58.7640714 163.117665,57.7855048 163.493365,57.2962215 C164.471931,55.8108973 165.424286,54.0896686 167.294047,53.626597" fill="#543E26"></path>
    <path d="M62.1156173,57.0690543 C67.8210098,56.9991567 73.5264023,57.0428427 79.240532,57.0603171 L80.2889961,57.0341055 C80.7083818,57.0341055 81.5384159,57.0166311 81.9578016,57.0078939 C83.0761634,57.0078939 84.1945251,56.9991567 85.3128869,56.9991567 C91.5774603,57.0078939 97.8507709,56.9991567 104.115344,57.0166311 C118.121078,57.0690543 132.135549,56.9904195 146.141283,57.0078939 C148.351795,57.0078939 150.562307,57.2175867 152.694184,57.794242 C154.371726,58.2398393 156.01432,58.7990202 157.665651,59.3582011 C158.853911,59.7601123 160.103331,59.9960168 161.361488,60.0659144 C161.475071,60.4066652 161.693501,61.0706925 161.807085,61.4114434 C164.096232,61.4988154 166.03589,62.82687 168.027972,63.8141737 C166.734866,67.1517847 164.104969,69.6156755 161.66729,72.1232522 C163.807904,73.3115116 165.931044,74.5521942 167.87944,76.0462557 C170.369542,73.4949929 172.667426,70.7602488 174.939099,68.0167676 C175.716709,68.5759485 176.503058,69.1351294 177.271931,69.7030475 C178.923262,70.9437301 180.52217,72.2543103 182.042443,73.6522625 C195.462785,85.6659144 202.31275,103.516017 203.56217,121.200112 C203.728177,123.515471 203.763126,125.839566 203.833023,128.154925 C203.7806,137.355198 202.950566,146.616631 200.539099,155.519839 C198.870293,161.697041 196.502511,167.708235 193.26101,173.230146 C190.989337,176.733764 188.551658,180.158747 185.615959,183.14687 C183.711249,185.138952 181.71043,187.052399 179.49118,188.70373 C178.495139,188.188235 177.507836,187.681478 176.511795,187.17472 C174.816778,188.118338 173.244081,189.612399 171.199576,189.656085 C168.456095,189.839566 165.913569,191.036563 163.213774,191.508372 C165.834935,187.594105 171.190839,184.658406 170.325856,179.241341 C168.849269,179.311239 167.381419,179.381136 165.913569,179.451034 C166.41159,177.555061 166.892136,175.641614 167.346471,173.728167 C166.857187,173.40489 165.896095,172.758338 165.415549,172.435061 C167.06688,170.591512 168.75316,168.756699 170.308382,166.817041 C166.988245,167.577177 163.991385,169.219771 160.845993,170.460454 C166.874662,161.679566 172.178143,152.383184 176.616641,142.702365 C179.15043,136.699908 182.531726,130.749873 182.610361,124.057177 C182.837529,119.784686 180.102785,116.08885 179.971726,111.851307 C179.596027,106.975948 179.604764,101.331716 175.55944,97.8630475 C168.578416,99.2959485 161.51002,97.9591567 154.546471,97.146597 C152.676709,96.8757437 150.798211,97.1990202 148.954662,97.5048222 C148.631385,97.1116482 148.290634,96.7446857 147.949883,96.3777232 C145.783058,94.2021601 143.493911,91.9304877 140.532,90.9082352 C137.805993,90.4626379 135.0363,90.8208632 132.292819,90.8470748 L131.917119,90.7509656 C128.88531,89.4316482 125.73118,87.7104195 122.306197,88.3220236 C119.45787,88.6190884 117.762853,91.2053 115.49118,92.6294639 C113.14961,94.1147881 110.825515,95.6700099 109.051863,97.8368359 C111.393433,101.838474 115.596027,104.031512 119.947153,105.158611 C119.798621,107.771034 119.597665,110.37472 119.370498,112.978406 C116.696914,113.8696 114.198075,115.197655 111.900191,116.822774 C110.676982,114.175402 110.100327,111.283389 108.920805,108.62728 C107.662648,106.949737 105.915208,105.717791 104.333774,104.363525 C103.966812,105.490624 103.608587,106.62646 103.241624,107.762297 C102.437802,108.181682 101.633979,108.609805 100.830157,109.037928 C100.716573,107.063321 100.66415,105.079976 100.305924,103.13158 C99.5195763,99.5930133 96.9945251,96.7971089 95.6577333,93.4857096 C95.8761634,90.0956755 96.9071531,86.7930133 96.9945251,83.3855048 C95.2995081,84.0670065 93.5782794,84.6873478 91.9182111,85.4387471 C89.6465388,86.3386789 88.528177,88.732672 86.5797811,90.0694639 C84.6838084,90.9082352 82.6218289,91.2227744 80.629747,91.7470065 L80.8831258,91.0218188 C82.6567777,89.466597 83.1635354,87.1774502 83.6091326,84.9756755 C82.4820337,85.5173819 81.3636719,86.0590884 80.2453101,86.6095321 C78.8386207,84.6349246 80.979235,83.30687 82.2024432,82.0137642 C80.3938425,80.3362215 77.9561634,79.0343785 75.4485866,79.9430475 C71.2459927,81.4108973 69.393706,86.0765628 68.9655831,90.1830475 C67.2443545,90.2267335 65.5231258,90.3053683 63.8018971,90.2704195 C64.4746616,89.0297369 65.138689,87.7890543 65.8201907,86.5483717 C64.9726821,84.6698734 63.0679722,83.9621601 61.2593715,83.3418188 C61.3554808,78.6586789 61.2768459,73.9842761 61.2681087,69.3098734 C61.2855831,67.9381328 61.320532,66.5751294 61.320532,65.2033888 C61.3816924,62.4861191 60.9797811,59.6377915 62.1156173,57.0690543" fill="#F3EBDB"></path>
    <path d="M168.027972,63.8141737 C168.211453,63.910283 168.578416,64.1025014 168.761897,64.2073478 C170.762716,65.2732864 172.702375,66.4440714 174.554662,67.7546516 L174.939099,68.0167676 C172.667426,70.7602488 170.369542,73.4949929 167.87944,76.0462557 C165.931044,74.5521942 163.807904,73.3115116 161.66729,72.1232522 C164.104969,69.6156755 166.734866,67.1517847 168.027972,63.8141737" fill="#DCDAD7"></path>
    <path d="M46.7556173,98.2474843 C48.4681087,86.2338325 52.1377333,73.7046857 61.320532,65.2033888 C61.320532,66.5751294 61.2855831,67.9381328 61.2681087,69.3098734 C55.1870166,75.6792932 51.6746616,84.1718529 50.0145934,92.7255731 C49.3680405,95.6350611 48.0661975,98.3348563 46.8604637,101.034652 C46.7818289,100.108508 46.7468801,99.1736277 46.7556173,98.2474843" fill="#A78E32"></path>
    <path d="M177.271931,69.7030475 C178.897051,68.4536277 180.539645,67.2304195 182.121078,65.9373137 C182.680259,67.684754 183.178279,69.4496686 183.772409,71.1796345 C183.335549,71.7999758 182.479303,73.0406584 182.042443,73.6522625 C180.52217,72.2543103 178.923262,70.9437301 177.271931,69.7030475" fill="#B59544"></path>
    <path d="M50.0145934,92.7255731 C51.6746616,84.1718529 55.1870166,75.6792932 61.2681087,69.3098734 C61.2768459,73.9842761 61.3554808,78.6586789 61.2593715,83.3418188 C58.3760951,85.7969724 57.0917265,89.8335594 53.3784159,91.3101464 C52.8803954,93.8614092 51.8668801,96.2728768 50.3640814,98.3960168 C49.2719313,99.8114434 48.0836719,101.139498 46.9216241,102.493764 C46.9041497,102.135539 46.8779381,101.401614 46.8604637,101.034652 C48.0661975,98.3348563 49.3680405,95.6350611 50.0145934,92.7255731" fill="#EBCC73"></path>
    <path d="M75.4485866,79.9430475 C77.9561634,79.0343785 80.3938425,80.3362215 82.2024432,82.0137642 C80.979235,83.30687 78.8386207,84.6349246 80.2453101,86.6095321 C81.3636719,86.0590884 82.4820337,85.5173819 83.6091326,84.9756755 C83.1635354,87.1774502 82.6567777,89.466597 80.8831258,91.0218188 C78.5939791,90.6898051 76.2698835,90.6548563 73.9719995,90.899498 C74.1117948,89.5277574 74.207904,88.1385423 74.5486548,86.8017505 C75.597119,85.6659144 77.1086548,85.1766311 78.4367094,84.4863922 C77.6328869,83.6738325 76.986334,82.6253683 75.9378698,82.1186106 C73.430293,82.7913751 70.9227163,84.696085 70.5470166,87.4046174 C70.608177,88.6453 70.8091326,89.8772454 70.9926139,91.117928 C70.5819654,91.1004536 69.7519313,91.0655048 69.3412828,91.0567676 L68.8257879,91.0392932 L68.9655831,90.1830475 C69.393706,86.0765628 71.2459927,81.4108973 75.4485866,79.9430475" fill="#D7D7D5"></path>
    <path d="M179.464969,81.6380645 C181.588109,80.9041396 183.728723,80.2139007 185.886812,79.6022966 C187.503194,82.8437983 186.961488,86.3648905 185.318894,89.466597 C186.105242,89.466597 186.900327,89.4753342 187.695412,89.4840714 C187.835208,92.2100782 187.800259,96.0282352 184.593706,96.9194297 C182.820054,93.0139007 178.582511,90.7422284 177.499099,86.4522625 C177.630157,84.6873478 178.704832,83.1845492 179.464969,81.6380645" fill="#E6DED7"></path>
    <path d="M70.5470166,87.4046174 C70.9227163,84.696085 73.430293,82.7913751 75.9378698,82.1186106 C76.986334,82.6253683 77.6328869,83.6738325 78.4367094,84.4863922 C77.1086548,85.1766311 75.597119,85.6659144 74.5486548,86.8017505 C74.207904,88.1385423 74.1117948,89.5277574 73.9719995,90.899498 C73.2293374,90.9519212 71.735276,91.0567676 70.9926139,91.117928 C70.8091326,89.8772454 70.608177,88.6453 70.5470166,87.4046174" fill="#F5F2E6"></path>
    <path d="M91.9182111,85.4387471 C93.5782794,84.6873478 95.2995081,84.0670065 96.9945251,83.3855048 C96.9071531,86.7930133 95.8761634,90.0956755 95.6577333,93.4857096 C96.9945251,96.7971089 99.5195763,99.5930133 100.305924,103.13158 C100.66415,105.079976 100.716573,107.063321 100.830157,109.037928 C101.633979,108.609805 102.437802,108.181682 103.241624,107.762297 C103.608587,106.62646 103.966812,105.490624 104.333774,104.363525 C105.915208,105.717791 107.662648,106.949737 108.920805,108.62728 C110.100327,111.283389 110.676982,114.175402 111.900191,116.822774 C114.198075,115.197655 116.696914,113.8696 119.370498,112.978406 C119.597665,110.37472 119.798621,107.771034 119.947153,105.158611 C119.95589,104.87902 119.964628,104.319839 119.973365,104.040249 C118.42688,102.747143 115.997938,101.917109 115.788245,99.6104877 C115.596027,96.6747881 117.448314,94.1235253 119.51903,92.245027 C120.095686,92.3673478 120.681078,92.507143 121.275208,92.594515 C122.402307,92.507143 122.95275,91.8431157 122.917802,90.5849587 C124.429337,90.5237983 125.940873,90.5936959 127.452409,90.6810679 C125.923399,92.7954707 123.975003,94.761341 121.292682,95.2069383 C121.283945,96.6223649 121.318894,98.0377915 121.397529,99.4532181 C121.310157,100.877382 121.161624,102.301546 121.074252,103.72571 L121.04804,104.704276 C121.065515,108.068099 121.065515,111.440658 121.091726,114.804481 C121.109201,131.623594 121.030566,148.433969 121.126675,165.253082 C121.20531,165.576358 121.371317,166.231648 121.458689,166.554925 C129.033843,166.048167 137.65746,168.424686 144.227836,163.488167 C153.436846,156.874105 157.220054,145.306051 158.172409,134.44571 C159.247085,121.628235 156.957938,107.910829 148.954662,97.5048222 C150.798211,97.1990202 152.676709,96.8757437 154.546471,97.146597 C161.51002,97.9591567 168.578416,99.2959485 175.55944,97.8630475 C179.604764,101.331716 179.596027,106.975948 179.971726,111.851307 C180.102785,116.08885 182.837529,119.784686 182.610361,124.057177 C182.531726,130.749873 179.15043,136.699908 176.616641,142.702365 C172.178143,152.383184 166.874662,161.679566 160.845993,170.460454 C163.991385,169.219771 166.988245,167.577177 170.308382,166.817041 C168.75316,168.756699 167.06688,170.591512 165.415549,172.435061 C165.896095,172.758338 166.857187,173.40489 167.346471,173.728167 C166.892136,175.641614 166.41159,177.555061 165.913569,179.451034 C167.381419,179.381136 168.849269,179.311239 170.325856,179.241341 C171.190839,184.658406 165.834935,187.594105 163.213774,191.508372 C165.913569,191.036563 168.456095,189.839566 171.199576,189.656085 C173.244081,189.612399 174.816778,188.118338 176.511795,187.17472 C177.507836,187.681478 178.495139,188.188235 179.49118,188.70373 C168.936641,196.724481 155.629883,201.049396 142.375549,200.752331 C130.842443,200.717382 119.309337,200.804754 107.776232,200.708645 C102.778552,200.726119 97.772136,200.717382 92.7744569,200.726119 C89.1048323,200.726119 85.4264705,200.726119 81.7568459,200.743594 C80.6821702,200.734856 79.6074944,200.726119 78.5328186,200.726119 C73.6312487,200.708645 68.7209415,200.900863 63.8281087,200.69117 C62.1068801,200.830966 61.4166412,198.917518 61.407904,197.519566 C61.1894739,193.631512 61.3904296,189.743457 61.3292692,185.855402 C61.3729552,181.416904 61.3991668,176.969669 61.2848712,172.53117 C61.2681087,170.591512 61.5739108,168.686802 62.0282453,166.808303 C68.1967094,166.179225 74.3913852,166.983047 80.5773238,166.554925 C80.5773238,164.440522 80.586061,162.326119 80.586061,160.220454 C80.586061,158.595334 80.586061,156.970215 80.6035354,155.353832 C80.979235,156.769259 81.4423067,158.158474 81.8966412,159.556426 C84.8148664,159.01472 88.0563681,158.272058 90.2581429,160.858269 C95.4043545,156.29745 102.988245,156.51588 109.139235,153.990829 C110.476027,150.513423 113.595208,147.708781 113.184559,143.698406 C112.939918,143.645983 112.43316,143.532399 112.188518,143.471239 C105.749201,141.444208 99.7292692,145.611853 93.4384842,146.092399 C89.2533647,145.699225 85.2167777,143.672194 82.5257197,140.430693 C82.7528869,139.504549 83.0062657,138.578406 83.2509074,137.661 C82.6305661,137.145505 82.0102248,136.63001 81.3898835,136.114515 C81.3199859,134.244754 81.2937743,132.374993 81.3986207,130.513969 C81.9665388,128.312194 83.4343886,126.590966 85.4526821,125.57745 C86.099235,122.274788 86.6322043,118.954652 87.2088596,115.643252 C85.4876309,113.467689 83.1635354,111.947416 80.5773238,110.995061 L80.5773238,110.741682 C80.5598494,108.522433 80.5598494,106.311921 80.5773238,104.092672 C80.6210098,100.265778 80.5773238,96.4388836 80.5598494,92.6119894 C80.5773238,92.3935594 80.6122726,91.9566993 80.629747,91.7470065 C82.6218289,91.2227744 84.6838084,90.9082352 86.5797811,90.0694639 C88.528177,88.732672 89.6465388,86.3386789 91.9182111,85.4387471" fill="#F8F3E4"></path>
    <path d="M53.3784159,91.3101464 C57.0917265,89.8335594 58.3760951,85.7969724 61.2593715,83.3418188 C61.2943203,85.5435935 61.3380064,87.7453683 61.3991668,89.947143 C62.0020337,90.0257778 63.1990302,90.1917847 63.8018971,90.2704195 C65.5231258,90.3053683 67.2443545,90.2267335 68.9655831,90.1830475 L68.8257879,91.0392932 C66.4754808,90.9956072 64.1251736,90.98687 61.7748664,90.943184 C61.4865388,92.2625014 61.2855831,93.590556 61.2156855,94.936085 C56.6286548,96.7184741 53.8764364,100.929805 50.128177,103.856768 C50.1631258,102.030693 50.2068118,100.213355 50.3640814,98.3960168 C51.8668801,96.2728768 52.8803954,93.8614092 53.3784159,91.3101464" fill="#F4EFC8"></path>
    <path d="M61.2593715,83.3418188 C63.0679722,83.9621601 64.9726821,84.6698734 65.8201907,86.5483717 C65.138689,87.7890543 64.4746616,89.0297369 63.8018971,90.2704195 C63.1990302,90.1917847 62.0020337,90.0257778 61.3991668,89.947143 C61.3380064,87.7453683 61.2943203,85.5435935 61.2593715,83.3418188" fill="#FCFCF4"></path>
    <path d="M115.49118,92.6294639 C117.762853,91.2053 119.45787,88.6190884 122.306197,88.3220236 C125.73118,87.7104195 128.88531,89.4316482 131.917119,90.7509656 C130.423058,90.7160168 128.937733,90.7422284 127.452409,90.6810679 C125.940873,90.5936959 124.429337,90.5237983 122.917802,90.5849587 C121.685856,90.6548563 121.135412,91.3276208 121.275208,92.594515 C120.681078,92.507143 120.095686,92.3673478 119.51903,92.245027 C117.448314,94.1235253 115.596027,96.6747881 115.788245,99.6104877 C115.997938,101.917109 118.42688,102.747143 119.973365,104.040249 C119.964628,104.319839 119.95589,104.87902 119.947153,105.158611 C115.596027,104.031512 111.393433,101.838474 109.051863,97.8368359 C110.825515,95.6700099 113.14961,94.1147881 115.49118,92.6294639" fill="#D7D7D5"></path>
    <path d="M61.7748664,90.943184 C64.1251736,90.98687 66.4754808,90.9956072 68.8257879,91.0392932 L69.3412828,91.0567676 C70.2761634,92.9177915 71.5692692,94.5778598 73.4128186,95.6175867 C73.9807367,96.063184 74.5399176,96.5262557 75.0903613,96.9980645 C73.255549,99.8114434 70.564491,102.03943 69.2451736,105.184822 C67.9345934,105.717791 66.6414876,106.28571 65.3221702,106.766256 C65.0425797,106.582774 64.4833988,106.224549 64.2038084,106.041068 C64.4746616,105.577996 64.9988937,104.66059 65.2610098,104.197518 C64.2649688,103.961614 63.2601907,103.72571 62.2641497,103.489805 C61.7399176,100.658952 61.364218,97.8106243 61.2156855,94.936085 C61.2855831,93.590556 61.4865388,92.2625014 61.7748664,90.943184" fill="#E5C66B"></path>
    <path d="M69.3412828,91.0567676 C69.7519313,91.0655048 70.5819654,91.1004536 70.9926139,91.117928 C70.782921,94.6477574 74.8195081,94.2371089 77.1785524,93.8701464 C76.1213511,92.8566311 75.0641497,91.8605901 73.9719995,90.899498 C76.2698835,90.6548563 78.5939791,90.6898051 80.8831258,91.0218188 L80.629747,91.7470065 C80.6122726,91.9566993 80.5773238,92.3935594 80.5598494,92.6119894 C77.9474262,93.1449587 76.1999859,95.88844 73.4128186,95.6175867 C71.5692692,94.5778598 70.2761634,92.9177915 69.3412828,91.0567676" fill="#242110"></path>
    <path d="M70.9926139,91.117928 C71.735276,91.0567676 73.2293374,90.9519212 73.9719995,90.899498 C75.0641497,91.8605901 76.1213511,92.8566311 77.1785524,93.8701464 C74.8195081,94.2371089 70.782921,94.6477574 70.9926139,91.117928" fill="#938357"></path>
    <path d="M121.275208,92.594515 C121.135412,91.3276208 121.685856,90.6548563 122.917802,90.5849587 C122.95275,91.8431157 122.402307,92.507143 121.275208,92.594515" fill="#CDBD83"></path>
    <path d="M127.452409,90.6810679 C128.937733,90.7422284 130.423058,90.7160168 131.917119,90.7509656 L132.292819,90.8470748 C134.241215,92.0964946 136.163399,93.4420236 137.762307,95.1457778 C135.918757,99.0949929 132.642307,102.423867 128.588245,104.092672 C126.150566,104.826597 123.555617,104.581955 121.04804,104.704276 L121.074252,103.72571 C122.961488,103.708235 124.848723,103.638338 126.744696,103.533491 C124.665242,102.589873 122.664423,101.410351 121.397529,99.4532181 C121.318894,98.0377915 121.283945,96.6223649 121.292682,95.2069383 C123.975003,94.761341 125.923399,92.7954707 127.452409,90.6810679" fill="#252211"></path>
    <path d="M132.292819,90.8470748 C135.0363,90.8208632 137.805993,90.4626379 140.532,90.9082352 C143.493911,91.9304877 145.783058,94.2021601 147.949883,96.3777232 C145.153979,99.2697369 143.327904,102.869464 140.933911,106.058542 C138.566129,109.317518 134.302375,109.876699 130.964764,111.711512 C127.898006,113.37158 124.586607,114.533628 121.091726,114.804481 C121.065515,111.440658 121.065515,108.068099 121.04804,104.704276 C123.555617,104.581955 126.150566,104.826597 128.588245,104.092672 C132.642307,102.423867 135.918757,99.0949929 137.762307,95.1457778 C136.163399,93.4420236 134.241215,92.0964946 132.292819,90.8470748" fill="#D2B257"></path>
    <path d="M73.4128186,95.6175867 C76.1999859,95.88844 77.9474262,93.1449587 80.5598494,92.6119894 C80.5773238,96.4388836 80.6210098,100.265778 80.5773238,104.092672 C78.4803954,104.608167 76.2873579,105.726529 74.1292692,104.913969 C72.5041497,104.267416 70.8091326,104.450897 69.2451736,105.184822 C70.564491,102.03943 73.255549,99.8114434 75.0903613,96.9980645 C74.5399176,96.5262557 73.9807367,96.063184 73.4128186,95.6175867" fill="#E6BD62"></path>
    <path d="M127.79316,92.9003171 C130.624013,93.1362215 126.32531,95.5302147 127.79316,92.9003171" fill="#696148"></path>
    <path d="M50.128177,103.856768 C53.8764364,100.929805 56.6286548,96.7184741 61.2156855,94.936085 C61.364218,97.8106243 61.7399176,100.658952 62.2641497,103.489805 C63.2601907,103.72571 64.2649688,103.961614 65.2610098,104.197518 C64.9988937,104.66059 64.4746616,105.577996 64.2038084,106.041068 C61.2418971,108.286529 57.3975285,109.955334 55.9384159,113.633696 C54.2783477,118.142092 54.4443545,123.034925 53.8240132,127.744276 C52.7493374,126.678338 51.1416924,125.79588 51.2378016,124.057177 C51.0106343,120.518611 51.9455149,117.041204 52.1552077,113.52885 C50.5213511,115.905368 49.5340473,118.631375 48.5554808,121.322433 C48.1098835,123.01745 46.1265388,123.384413 44.833433,124.231921 C43.5053784,124.721204 42.186061,125.227962 40.8580064,125.717245 C41.0240132,124.249396 41.233706,122.790283 41.4958221,121.33117 C42.8500883,121.200112 44.2130917,121.069054 45.5760951,120.920522 C44.0907709,120.981682 42.6141838,121.069054 41.1375968,121.156426 C42.1773238,114.769532 42.8850371,107.81472 46.9216241,102.493764 C48.0836719,101.139498 49.2719313,99.8114434 50.3640814,98.3960168 C50.2068118,100.213355 50.1631258,102.030693 50.128177,103.856768" fill="#F4ECB4"></path>
    <path d="M128.649406,96.1855048 C131.296778,94.936085 128.920259,99.0338325 128.649406,96.1855048" fill="#71694F"></path>
    <path d="M147.949883,96.3777232 C148.290634,96.7446857 148.631385,97.1116482 148.954662,97.5048222 C156.957938,107.910829 159.247085,121.628235 158.172409,134.44571 C156.800668,135.188372 155.402716,135.896085 154.10961,136.778542 C151.890361,138.298815 150.67589,140.885027 148.456641,142.4053 C144.568587,144.344959 139.675754,143.881887 136.215822,146.738952 C134.241215,148.975675 132.895686,151.727894 130.589064,153.67629 C131.82101,154.92571 133.149064,156.087757 134.284901,157.433286 C134.87903,158.473013 134.6606,159.809805 135.25473,160.858269 C136.364354,161.749464 137.631249,162.430966 138.84572,163.182365 C135.700327,163.654174 132.511249,163.54059 129.357119,163.121204 C126.412682,162.562024 123.756573,164.230829 121.126675,165.253082 C121.030566,148.433969 121.109201,131.623594 121.091726,114.804481 C124.586607,114.533628 127.898006,113.37158 130.964764,111.711512 C134.302375,109.876699 138.566129,109.317518 140.933911,106.058542 C143.327904,102.869464 145.153979,99.2697369 147.949883,96.3777232" fill="#DFCD88"></path>
    <path d="M121.397529,99.4532181 C122.664423,101.410351 124.665242,102.589873 126.744696,103.533491 C124.848723,103.638338 122.961488,103.708235 121.074252,103.72571 C121.161624,102.301546 121.310157,100.877382 121.397529,99.4532181" fill="#DFCD88"></path>
    <path d="M69.2451736,105.184822 C70.8091326,104.450897 72.5041497,104.267416 74.1292692,104.913969 C76.2873579,105.726529 78.4803954,104.608167 80.5773238,104.092672 C80.5598494,106.311921 80.5598494,108.522433 80.5773238,110.741682 C76.4096787,109.273832 72.0672896,108.120522 67.6025797,108.365164 C66.8424432,107.823457 66.0823067,107.290488 65.3221702,106.766256 C66.6414876,106.28571 67.9345934,105.717791 69.2451736,105.184822" fill="#DFC57C"></path>
    <path d="M55.9384159,113.633696 C57.3975285,109.955334 61.2418971,108.286529 64.2038084,106.041068 C64.4833988,106.224549 65.0425797,106.582774 65.3221702,106.766256 C66.0823067,107.290488 66.8424432,107.823457 67.6025797,108.365164 C63.6184159,108.496222 59.6866753,111.064959 59.2148664,115.258815 C58.5246275,120.588508 56.681078,125.699771 56.1830576,131.046938 C55.6588255,134.891307 59.2061292,137.407621 60.3157538,140.762706 C60.6565046,142.588781 60.7700883,144.449805 61.2331599,146.249669 C60.7001907,148.582501 60.237119,150.932809 59.8701565,153.291853 C59.0925456,153.309327 58.3061975,153.335539 57.5285866,153.361751 C56.7072896,155.26646 55.7199859,157.118747 55.0996446,159.110829 C55.8073579,162.94646 57.0655149,166.677245 57.9479722,170.486665 C57.7732282,170.914788 57.4150029,171.779771 57.2402589,172.207894 C55.335549,170.137177 54.252136,167.245164 51.7358221,165.812262 C51.0892692,164.720112 50.390293,163.671648 49.7437401,162.588235 C45.8731599,156.000385 43.2257879,148.652399 42.0462657,141.103457 C42.404491,138.875471 42.8326139,136.656222 43.1995763,134.436972 C44.8072214,137.626051 44.6324773,141.514105 46.7818289,144.423594 C48.2409415,144.039157 49.7087913,143.680931 51.1941156,143.418815 L51.9280405,144.292536 C53.4657879,142.064549 54.9161634,139.670556 55.1957538,136.9096 C54.1909756,138.272604 53.2560951,139.68803 52.4085866,141.15588 C51.1853784,139.233696 49.7350029,137.398884 49.0272896,135.214583 C48.6341156,132.689532 48.7214876,130.129532 48.520532,127.595744 C47.6031258,127.770488 46.6944569,127.945232 45.7770507,128.146187 L46.4323408,127.412262 C47.2449006,126.503594 48.0225115,125.568713 48.8088596,124.64257 C47.7254466,124.502774 46.6420337,124.32803 45.5498835,124.26687 L44.833433,124.231921 C46.1265388,123.384413 48.1098835,123.01745 48.5554808,121.322433 C49.5340473,118.631375 50.5213511,115.905368 52.1552077,113.52885 C51.9455149,117.041204 51.0106343,120.518611 51.2378016,124.057177 C51.1416924,125.79588 52.7493374,126.678338 53.8240132,127.744276 C54.4443545,123.034925 54.2783477,118.142092 55.9384159,113.633696" fill="#F3E19D"></path>
    <path d="M59.2148664,115.258815 C59.6866753,111.064959 63.6184159,108.496222 67.6025797,108.365164 C72.0672896,108.120522 76.4096787,109.273832 80.5773238,110.741682 L80.5773238,110.995061 C80.6035354,114.90059 80.5511122,118.797382 80.5947982,122.702911 L80.586061,123.428099 C79.2754808,124.70373 78.0347982,126.057996 76.7766412,127.394788 C74.644764,129.212126 71.91002,129.937314 69.2539108,130.618815 C69.13159,131.186733 68.8869483,132.32257 68.7646275,132.890488 C68.6248323,133.519566 68.3539791,134.78646 68.2141838,135.415539 C64.4659244,131.938133 62.2728869,127.272467 59.7827845,122.903867 C58.3935695,120.579771 58.9265388,117.783867 59.2148664,115.258815" fill="#252211"></path>
    <path d="M80.5773238,110.995061 C83.1635354,111.947416 85.4876309,113.467689 87.2088596,115.643252 C86.6322043,118.954652 86.099235,122.274788 85.4526821,125.57745 C83.4343886,126.590966 81.9665388,128.312194 81.3986207,130.513969 C81.5384159,127.875334 81.110293,125.271648 80.5947982,122.702911 C80.5511122,118.797382 80.6035354,114.90059 80.5773238,110.995061" fill="#DFDDD9"></path>
    <path d="M21.1468801,112.113423 C23.9340473,111.755198 26.7561634,112.061 29.5520678,111.894993 L28.3201224,113.458952 C32.6537743,113.135675 37.066061,113.450215 41.2511804,114.664686 C37.415549,113.895812 33.5187572,113.301682 29.604491,113.598747 C28.1541156,113.764754 26.8610098,113.091989 25.6727504,112.358065 C24.266061,112.244481 22.0380746,113.773491 21.1468801,112.113423" fill="#D6D6D5"></path>
    <path d="M56.1830576,131.046938 C56.681078,125.699771 58.5246275,120.588508 59.2148664,115.258815 C58.9265388,117.783867 58.3935695,120.579771 59.7827845,122.903867 C62.2728869,127.272467 64.4659244,131.938133 68.2141838,135.415539 C68.3539791,134.78646 68.6248323,133.519566 68.7646275,132.890488 C70.1363681,132.951648 71.5081087,133.030283 72.8885866,133.117655 C74.8107709,134.672877 76.8814876,136.070829 78.5415558,137.931853 C80.3326821,134.524344 77.8076309,131.186733 78.1483818,127.683116 C77.8076309,127.613218 77.117392,127.464686 76.7766412,127.394788 C78.0347982,126.057996 79.2754808,124.70373 80.586061,123.428099 C80.5685866,129.378133 80.5947982,135.336904 80.5947982,141.286938 C73.8671531,139.19001 66.6851736,136.752331 59.6517265,139.006529 C66.2308391,142.012126 73.6487231,142.24803 80.586061,144.065368 C80.586061,146.031239 80.5685866,147.997109 80.5511122,149.962979 C77.3445593,151.404617 74.426334,153.396699 71.3071531,155.013082 C68.0569142,152.828781 65.6891326,149.622228 62.4651053,147.402979 C62.1593033,147.114652 61.538962,146.537996 61.2331599,146.249669 C60.7700883,144.449805 60.6565046,142.588781 60.3157538,140.762706 C59.2061292,137.407621 55.6588255,134.891307 56.1830576,131.046938" fill="#6E6342"></path>
    <path d="M29.4559586,124.92216 C32.8023067,123.069873 36.5942521,122.239839 40.3075627,121.505914 C39.9143886,122.344686 39.2590985,122.851443 38.3591668,123.043662 C35.4584159,123.917382 32.5314535,124.930897 29.4559586,124.92216" fill="#BFA64C"></path>
    <path d="M203.56217,121.200112 C205.300873,125.778406 205.18729,130.802297 206.978416,135.371853 C208.778279,141.872331 212.412955,148.163116 211.766402,155.100454 C210.875208,153.650078 210.045174,152.103594 210.115071,150.347416 C210.132546,146.599157 208.131726,143.331443 207.21432,139.792877 C206.130907,135.896085 205.003808,132.016768 203.833023,128.154925 C203.763126,125.839566 203.728177,123.515471 203.56217,121.200112" fill="#988430"></path>
    <path d="M80.5947982,122.702911 C81.110293,125.271648 81.5384159,127.875334 81.3986207,130.513969 C81.2937743,132.374993 81.3199859,134.244754 81.3898835,136.114515 C82.0102248,136.63001 82.6305661,137.145505 83.2509074,137.661 C83.0062657,138.578406 82.7528869,139.504549 82.5257197,140.430693 C82.1849688,141.784959 82.1325456,143.191648 82.15002,144.5896 C91.6735695,147.944686 103.599849,150.286256 112.188518,143.471239 C112.43316,143.532399 112.939918,143.645983 113.184559,143.698406 C113.595208,147.708781 110.476027,150.513423 109.139235,153.990829 C102.988245,156.51588 95.4043545,156.29745 90.2581429,160.858269 C88.0563681,158.272058 84.8148664,159.01472 81.8966412,159.556426 C81.4423067,158.158474 80.979235,156.769259 80.6035354,155.353832 C80.5249006,153.553969 80.542375,151.762843 80.5511122,149.962979 C80.5685866,147.997109 80.586061,146.031239 80.586061,144.065368 C80.5947982,143.139225 80.5947982,142.213082 80.5947982,141.286938 C80.5947982,135.336904 80.5685866,129.378133 80.586061,123.428099 L80.5947982,122.702911" fill="#E7E3DB"></path>
    <path d="M45.5498835,124.26687 C46.6420337,124.32803 47.7254466,124.502774 48.8088596,124.64257 C48.0225115,125.568713 47.2449006,126.503594 46.4323408,127.412262 C44.6324773,128.338406 42.8151395,129.212126 41.015276,130.138269 C40.9890644,129.212126 40.9191668,127.351102 40.884218,126.424959 C42.4219654,125.664822 43.96845,124.913423 45.5498835,124.26687" fill="#F5EDB6"></path>
    <path d="M45.7770507,128.146187 C46.6944569,127.945232 47.6031258,127.770488 48.520532,127.595744 C48.7214876,130.129532 48.6341156,132.689532 49.0272896,135.214583 C49.7350029,137.398884 51.1853784,139.233696 52.4085866,141.15588 C51.9804637,141.898542 51.5785524,142.649942 51.1941156,143.418815 C49.7087913,143.680931 48.2409415,144.039157 46.7818289,144.423594 C44.6324773,141.514105 44.8072214,137.626051 43.1995763,134.436972 C42.8326139,136.656222 42.404491,138.875471 42.0462657,141.103457 C41.5919313,137.783321 41.1201224,134.44571 41.0851736,131.090624 C42.2909074,129.675198 44.2480405,129.142228 45.7770507,128.146187" fill="#F4ECB4"></path>
    <path d="M69.2539108,130.618815 C71.91002,129.937314 74.644764,129.212126 76.7766412,127.394788 C77.117392,127.464686 77.8076309,127.613218 78.1483818,127.683116 C77.8076309,131.186733 80.3326821,134.524344 78.5415558,137.931853 C76.8814876,136.070829 74.8107709,134.672877 72.8885866,133.117655 C71.5081087,133.030283 70.1363681,132.951648 68.7646275,132.890488 C68.8869483,132.32257 69.13159,131.186733 69.2539108,130.618815" fill="#39331F"></path>
    <path d="M203.833023,128.154925 C205.003808,132.016768 206.130907,135.896085 207.21432,139.792877 C208.131726,143.331443 210.132546,146.599157 210.115071,150.347416 C210.045174,152.103594 210.875208,153.650078 211.766402,155.100454 C211.102375,160.036972 213.697324,164.606529 213.443945,169.508099 C213.382785,171.316699 213.173092,173.1253 213.076982,174.942638 C212.421692,173.824276 211.644081,172.784549 210.814047,171.797245 C209.861692,174.741682 210.490771,178.376358 208.08804,180.674242 C207.039576,179.188918 206.515344,176.725027 204.37473,176.506597 C201.273023,176.008576 198.38101,177.52885 196.301556,179.721887 C193.566812,182.64885 189.338006,182.779908 185.615959,183.14687 C188.551658,180.158747 190.989337,176.733764 193.26101,173.230146 C195.28804,173.867962 196.651044,172.059361 198.16258,171.080795 C199.656641,169.813901 201.613774,169.385778 203.28258,168.415948 C204.698006,166.179225 205.746471,163.680385 206.3406,161.102911 C205.860054,159.407894 205.064969,157.82646 204.680532,156.105232 C203.806812,156.314925 202.950566,156.524617 202.085583,156.73431 C201.701146,156.428508 200.923535,155.825641 200.539099,155.519839 C202.950566,146.616631 203.7806,137.355198 203.833023,128.154925" fill="#CCA847"></path>
    <path d="M37.1621702,131.981819 C38.4727504,131.378952 38.4902248,133.100181 37.4242862,133.371034 C36.4981429,133.842843 35.3885183,134.812672 34.2963681,134.3496 C34.2526821,132.995334 36.157392,132.479839 37.1621702,131.981819" fill="#C1A956"></path>
    <path d="M154.10961,136.778542 C155.402716,135.896085 156.800668,135.188372 158.172409,134.44571 C157.220054,145.306051 153.436846,156.874105 144.227836,163.488167 C137.65746,168.424686 129.033843,166.048167 121.458689,166.554925 C121.371317,166.231648 121.20531,165.576358 121.126675,165.253082 C123.756573,164.230829 126.412682,162.562024 129.357119,163.121204 C132.511249,163.54059 135.700327,163.654174 138.84572,163.182365 C137.631249,162.430966 136.364354,161.749464 135.25473,160.858269 C134.6606,159.809805 134.87903,158.473013 134.284901,157.433286 C133.149064,156.087757 131.82101,154.92571 130.589064,153.67629 C132.895686,151.727894 134.241215,148.975675 136.215822,146.738952 C139.675754,143.881887 144.568587,144.344959 148.456641,142.4053 C150.67589,140.885027 151.890361,138.298815 154.10961,136.778542" fill="#ECD592"></path>
    <path d="M52.4085866,141.15588 C53.2560951,139.68803 54.1909756,138.272604 55.1957538,136.9096 C54.9161634,139.670556 53.4657879,142.064549 51.9280405,144.292536 L51.1941156,143.418815 C51.5785524,142.649942 51.9804637,141.898542 52.4085866,141.15588" fill="#D7C27C"></path>
    <path d="M59.6517265,139.006529 C66.6851736,136.752331 73.8671531,139.19001 80.5947982,141.286938 C80.5947982,142.213082 80.5947982,143.139225 80.586061,144.065368 C73.6487231,142.24803 66.2308391,142.012126 59.6517265,139.006529" fill="#242110"></path>
    <path d="M82.15002,144.5896 C82.1325456,143.191648 82.1849688,141.784959 82.5257197,140.430693 C85.2167777,143.672194 89.2533647,145.699225 93.4384842,146.092399 C99.7292692,145.611853 105.749201,141.444208 112.188518,143.471239 C103.599849,150.286256 91.6735695,147.944686 82.15002,144.5896" fill="#D6D6D5"></path>
    <path d="M61.2331599,146.249669 C61.538962,146.537996 62.1593033,147.114652 62.4651053,147.402979 C62.7796446,151.657996 65.3483818,155.222774 67.3404637,158.85745 C68.9568459,161.863047 71.69159,164.047348 74.4874944,165.908372 C76.4621019,166.458815 78.5415558,166.388918 80.5773238,166.554925 C74.3913852,166.983047 68.1967094,166.179225 62.0282453,166.808303 C61.5739108,168.686802 61.2681087,170.591512 61.2855831,172.53117 C60.1759586,171.849669 59.066334,171.168167 57.9479722,170.486665 C57.0655149,166.677245 55.8073579,162.94646 55.0996446,159.110829 C55.7199859,157.118747 56.7072896,155.26646 57.5285866,153.361751 C58.3061975,153.335539 59.0925456,153.309327 59.8701565,153.291853 C60.237119,150.932809 60.7001907,148.582501 61.2331599,146.249669" fill="#EED88B"></path>
    <path d="M62.4651053,147.402979 C65.6891326,149.622228 68.0569142,152.828781 71.3071531,155.013082 C72.2158221,155.825641 73.0545934,156.708099 73.9283135,157.555607 C75.8417606,159.07588 78.288177,159.565164 80.586061,160.220454 C80.586061,162.326119 80.5773238,164.440522 80.5773238,166.554925 C78.5415558,166.388918 76.4621019,166.458815 74.4874944,165.908372 C71.69159,164.047348 68.9568459,161.863047 67.3404637,158.85745 C65.3483818,155.222774 62.7796446,151.657996 62.4651053,147.402979" fill="#DFC677"></path>
    <path d="M71.3071531,155.013082 C74.426334,153.396699 77.3445593,151.404617 80.5511122,149.962979 C80.542375,151.762843 80.5249006,153.553969 80.6035354,155.353832 C78.2794398,155.720795 75.5709074,155.519839 73.9283135,157.555607 C73.0545934,156.708099 72.2158221,155.825641 71.3071531,155.013082" fill="#927D49"></path>
    <path d="M73.9283135,157.555607 C75.5709074,155.519839 78.2794398,155.720795 80.6035354,155.353832 C80.586061,156.970215 80.586061,158.595334 80.586061,160.220454 C78.288177,159.565164 75.8417606,159.07588 73.9283135,157.555607" fill="#C4A859"></path>
    <path d="M200.539099,155.519839 C200.923535,155.825641 201.701146,156.428508 202.085583,156.73431 C202.950566,156.524617 203.806812,156.314925 204.680532,156.105232 C205.064969,157.82646 205.860054,159.407894 206.3406,161.102911 C205.746471,163.680385 204.698006,166.179225 203.28258,168.415948 C201.613774,169.385778 199.656641,169.813901 198.16258,171.080795 C196.651044,172.059361 195.28804,173.867962 193.26101,173.230146 C196.502511,167.708235 198.870293,161.697041 200.539099,155.519839" fill="#C0993A"></path>
    <path d="M49.7437401,162.588235 C50.390293,163.671648 51.0892692,164.720112 51.7358221,165.812262 C53.5793715,172.959293 56.1131599,180.447075 61.3292692,185.855402 C61.3904296,189.743457 61.1894739,193.631512 61.407904,197.519566 C61.4166412,198.917518 62.1068801,200.830966 63.8281087,200.69117 C68.7209415,200.900863 73.6312487,200.708645 78.5328186,200.726119 C76.6281087,203.242433 78.0173238,206.230556 78.069747,209.035198 C78.1221702,212.33786 79.8608733,215.264822 80.3676309,218.471375 C78.9871531,221.966256 76.680532,224.98059 74.8544569,228.239566 C73.0283818,228.510419 71.1149347,227.785232 69.3587572,228.291989 C68.3190302,229.72489 67.742375,231.751921 65.7590302,232.136358 C56.3927504,226.317382 47.5769142,219.528576 40.019235,211.46414 C43.3655831,204.675334 46.1964364,197.309873 45.5498835,189.594925 C45.0431258,186.414583 47.4545934,183.880795 47.9526139,180.883935 C47.8739791,179.11902 46.5459244,177.729805 45.7508391,176.227007 C48.5904296,172.25158 49.6301565,167.402433 49.7437401,162.588235" fill="#E5CB7A"></path>
    <path d="M51.7358221,165.812262 C54.252136,167.245164 55.335549,170.137177 57.2402589,172.207894 C57.4150029,171.779771 57.7732282,170.914788 57.9479722,170.486665 C59.066334,171.168167 60.1759586,171.849669 61.2855831,172.53117 C61.3991668,176.969669 61.3729552,181.416904 61.3292692,185.855402 C56.1131599,180.447075 53.5793715,172.959293 51.7358221,165.812262" fill="#D2B159"></path>
    <path d="M210.814047,171.797245 C211.644081,172.784549 212.421692,173.824276 213.076982,174.942638 C213.52258,180.132536 214.684628,185.252536 214.737051,190.486119 C214.868109,197.545778 214.972955,204.605437 215.304969,211.656358 C207.450225,219.965437 198.346061,227.138679 188.411863,232.782911 C184.646129,230.083116 180.312477,232.171307 176.878757,234.320658 C177.516573,233.062501 178.468928,232.040249 179.534866,231.140317 C181.640532,229.38414 182.461829,226.553286 184.663604,224.884481 C186.935276,222.839976 189.975822,221.677928 191.766948,219.126665 C193.575549,215.221136 197.524764,213.097996 199.901283,209.611853 C202.120532,206.422774 205.772682,203.487075 205.431931,199.223321 C205.274662,195.562433 206.017324,191.971443 206.445447,188.362979 C206.567767,185.733082 206.969679,183.076972 208.08804,180.674242 C210.490771,178.376358 209.861692,174.741682 210.814047,171.797245" fill="#BA9040"></path>
    <path d="M196.301556,179.721887 C198.38101,177.52885 201.273023,176.008576 204.37473,176.506597 C206.515344,176.725027 207.039576,179.188918 208.08804,180.674242 C206.969679,183.076972 206.567767,185.733082 206.445447,188.362979 C206.017324,191.971443 205.274662,195.562433 205.431931,199.223321 C205.772682,203.487075 202.120532,206.422774 199.901283,209.611853 C197.524764,213.097996 193.575549,215.221136 191.766948,219.126665 C190.500054,219.135402 189.23316,219.152877 187.966266,219.170351 C191.155344,214.294993 193.156163,208.799293 195.689952,203.591921 C196.275344,202.735675 196.021965,201.792058 195.724901,200.900863 C195.122034,199.398065 195.88217,197.842843 195.803535,196.305095 C195.541419,194.723662 194.877392,193.247075 194.35316,191.744276 C191.653365,191.246256 188.936095,190.556017 186.175139,190.713286 C182.741419,191.333628 180.364901,194.208167 177.271931,195.57117 C175.795344,196.200249 174.126539,196.357518 172.754798,197.231239 C170.011317,199.564071 169.356027,203.635607 166.175686,205.575266 C163.073979,207.689669 160.339235,210.267143 157.429747,212.626187 C155.717256,214.225095 153.218416,213.036836 151.156436,213.377587 C149.339099,214.30373 148.063467,215.998747 146.342238,217.073423 C144.114252,217.824822 141.475617,217.510283 139.623331,219.170351 C136.600259,221.791512 132.153023,221.040112 128.955208,223.372945 C125.338006,225.216495 123.712887,229.296768 120.252955,231.332536 C117.649269,232.887757 115.596027,235.150693 113.52531,237.334993 C112.966129,236.644754 112.406948,235.963252 111.856505,235.281751 C108.973228,236.950556 106.622921,239.62414 103.250361,240.331853 C102.044628,238.898952 100.873843,237.151512 98.7943886,237.06414 C99.1351395,236.365164 99.4671531,235.666187 99.7816924,234.958474 C99.0652419,234.032331 98.2526821,233.114925 96.9508391,233.307143 C93.7879722,232.922706 90.6076309,233.595471 87.444764,233.359566 C85.2954125,232.214993 83.4693374,230.47629 82.1762316,228.41431 C84.6051736,225.522297 85.7322726,221.861409 87.7593033,218.733491 C88.9650371,217.055948 90.913433,218.39274 92.433706,218.76844 C93.0627845,217.318065 93.7006002,215.876426 94.3296787,214.434788 C95.1859244,214.539635 96.0421702,214.644481 96.8984159,214.758065 C98.9603954,212.879566 100.166129,210.363252 100.961215,207.733355 C102.341692,207.322706 103.72217,206.912058 105.093911,206.492672 C105.076436,204.203525 106.124901,202.237655 107.776232,200.708645 C119.309337,200.804754 130.842443,200.717382 142.375549,200.752331 C155.629883,201.049396 168.936641,196.724481 179.49118,188.70373 C181.71043,187.052399 183.711249,185.138952 185.615959,183.14687 C189.338006,182.779908 193.566812,182.64885 196.301556,179.721887" fill="#D8C173"></path>
    <path d="M177.271931,195.57117 C180.364901,194.208167 182.741419,191.333628 186.175139,190.713286 C188.936095,190.556017 191.653365,191.246256 194.35316,191.744276 C194.877392,193.247075 195.541419,194.723662 195.803535,196.305095 C195.88217,197.842843 195.122034,199.398065 195.724901,200.900863 C196.021965,201.792058 196.275344,202.735675 195.689952,203.591921 C193.156163,208.799293 191.155344,214.294993 187.966266,219.170351 C189.23316,219.152877 190.500054,219.135402 191.766948,219.126665 C189.975822,221.677928 186.935276,222.839976 184.663604,224.884481 C182.461829,226.553286 181.640532,229.38414 179.534866,231.140317 C178.468928,232.040249 177.516573,233.062501 176.878757,234.320658 C172.361624,237.317518 167.023194,238.680522 162.208996,241.100727 C162.174047,240.209532 162.139099,239.318338 162.112887,238.43588 C158.635481,239.213491 155.1406,239.886256 151.724354,240.873559 C148.788655,241.677382 146.988791,244.359703 144.393843,245.757655 C142.323126,246.517791 139.929133,246.701273 138.391385,248.483662 C122.51589,249.794242 106.395754,248.204071 91.1580746,243.529669 C92.8618289,242.987962 94.5655831,242.411307 96.2431258,241.764754 C96.470293,239.90373 97.4925456,238.365983 98.7943886,237.06414 C100.873843,237.151512 102.044628,238.898952 103.250361,240.331853 C106.622921,239.62414 108.973228,236.950556 111.856505,235.281751 C112.406948,235.963252 112.966129,236.644754 113.52531,237.334993 C115.596027,235.150693 117.649269,232.887757 120.252955,231.332536 C123.712887,229.296768 125.338006,225.216495 128.955208,223.372945 C132.153023,221.040112 136.600259,221.791512 139.623331,219.170351 C141.475617,217.510283 144.114252,217.824822 146.342238,217.073423 C148.063467,215.998747 149.339099,214.30373 151.156436,213.377587 C153.218416,213.036836 155.717256,214.225095 157.429747,212.626187 C160.339235,210.267143 163.073979,207.689669 166.175686,205.575266 C169.356027,203.635607 170.011317,199.564071 172.754798,197.231239 C174.126539,196.357518 175.795344,196.200249 177.271931,195.57117" fill="#E0CD81"></path>
    <path d="M78.5328186,200.726119 C79.6074944,200.726119 80.6821702,200.734856 81.7568459,200.743594 C84.2469483,203.670556 87.4622384,206.920795 91.5687231,206.920795 C94.8102248,206.597518 93.2025797,202.75315 92.7744569,200.726119 C97.772136,200.717382 102.778552,200.726119 107.776232,200.708645 C106.124901,202.237655 105.076436,204.203525 105.093911,206.492672 C103.72217,206.912058 102.341692,207.322706 100.961215,207.733355 C100.166129,210.363252 98.9603954,212.879566 96.8984159,214.758065 C96.0421702,214.644481 95.1859244,214.539635 94.3296787,214.434788 C93.7006002,215.876426 93.0627845,217.318065 92.433706,218.76844 C90.913433,218.39274 88.9650371,217.055948 87.7593033,218.733491 C85.7322726,221.861409 84.6051736,225.522297 82.1762316,228.41431 C81.7393715,227.531853 81.3112487,226.649396 80.9006002,225.758201 C78.8997811,226.631921 76.898962,227.488167 74.8544569,228.239566 C76.680532,224.98059 78.9871531,221.966256 80.3676309,218.471375 C79.8608733,215.264822 78.1221702,212.33786 78.069747,209.035198 C78.0173238,206.230556 76.6281087,203.242433 78.5328186,200.726119" fill="#C2A44D"></path>
    <path d="M81.7568459,200.743594 C85.4264705,200.726119 89.1048323,200.726119 92.7744569,200.726119 C93.2025797,202.75315 94.8102248,206.597518 91.5687231,206.920795 C87.4622384,206.920795 84.2469483,203.670556 81.7568459,200.743594" fill="#D2B159"></path>
    <path d="M74.8544569,228.239566 C76.898962,227.488167 78.8997811,226.631921 80.9006002,225.758201 C81.3112487,226.649396 81.7393715,227.531853 82.1762316,228.41431 C83.4693374,230.47629 85.2954125,232.214993 87.444764,233.359566 C90.6076309,233.595471 93.7879722,232.922706 96.9508391,233.307143 C98.2526821,233.114925 99.0652419,234.032331 99.7816924,234.958474 C99.4671531,235.666187 99.1351395,236.365164 98.7943886,237.06414 C97.4925456,238.365983 96.470293,239.90373 96.2431258,241.764754 C94.5655831,242.411307 92.8618289,242.987962 91.1580746,243.529669 C82.324764,240.602706 73.8234671,236.775812 65.7590302,232.136358 C67.742375,231.751921 68.3190302,229.72489 69.3587572,228.291989 C71.1149347,227.785232 73.0283818,228.510419 74.8544569,228.239566" fill="#CEB052"></path>
    <path d="M176.878757,234.320658 C180.312477,232.171307 184.646129,230.083116 188.411863,232.782911 C173.200395,241.633696 155.970634,247.242979 138.391385,248.483662 C139.929133,246.701273 142.323126,246.517791 144.393843,245.757655 C146.988791,244.359703 148.788655,241.677382 151.724354,240.873559 C155.1406,239.886256 158.635481,239.213491 162.112887,238.43588 C162.139099,239.318338 162.174047,240.209532 162.208996,241.100727 C167.023194,238.680522 172.361624,237.317518 176.878757,234.320658" fill="#D2BA6B"></path>
</svg>