<?xml version="1.0" encoding="UTF-8"?>
<svg viewBox="0 0 160 256" version="1.1" xmlns="http://www.w3.org/2000/svg" xmlns:xlink="http://www.w3.org/1999/xlink">
    <g transform="translate(1.488450, 84.598349)">
        <polygon fill="#009F42" points="0.151054438 43.2378973 79.4959014 0.895691596 157.81771 42.9305915 79.5638767 85.3092917"></polygon>
        <polygon fill="#01C853" points="0.151054438 43.2378973 79.4959014 0.895691596 157.81771 42.9305915 79.5638767 85.3092917"></polygon>
        <polygon fill="#009F42" points="79.4959014 0.895691596 157.81771 42.9305915 79.5638767 85.3092917"></polygon>
        <polygon fill="#007831" points="79.4959014 49.7316988 157.81771 42.9305915 79.5638767 85.3092917 79.4958166 49.7316988"></polygon>
        <polygon fill="#009F42" points="79.4957317 49.7316988 0.151054438 43.2378973 79.4277564 85.3092917 79.4958166 49.7316988"></polygon>
    </g>
    <g transform="translate(1.263172, 138.096009)">
        <path fill="#009F42" d="M0.367400764,1.00010884 C28.1606343,15.7421379 57.1211708,31.1941381 79.543583,43.141332 L158.072349,1.01196311 C129.639489,43.2624999 105.955739,78.4066364 79.5432243,117.305673 C53.0980411,78.4881488 23.8766341,35.6416245 0.367400764,1.00010884 Z"></path>
        <path fill="#01C853" d="M0.367400764,1.00010884 C28.1606343,15.7421379 57.1211708,31.1941381 79.543583,43.141332 L158.072349,1.01196311 C129.639489,43.2624999 105.955739,78.4066364 79.5432243,117.305673 C53.0980411,78.4881488 23.8766341,35.6416245 0.367400764,1.00010884 Z"></path>
        <path fill="#009F42" d="M79.5432243,43.141332 L158.072349,1.01196311 C129.639489,43.2624999 79.5432243,117.305673 79.5432243,117.305673 L79.5432243,43.141332 Z"></path>
        <path fill="#009F42" d="M79.5432243,43.141332 L158.072349,1.01196637 C129.639489,43.2624999 105.955739,78.4066364 79.5432243,117.305673 L79.5432243,43.141332 Z"></path>
    </g>
    <g transform="translate(1.630573, 0.000000)">
        <polygon fill="#01C853" points="79.1606265 73.7187237 0.00922904459 115.398279 78.8169669 0 157.675223 115.650399"></polygon>
        <polygon fill="#009F42" points="79.1606918 73.7187204 78.8170322 -2.93503185e-06 157.675288 115.650399"></polygon>
    </g>
</svg>