<svg width="100%" height="100%" viewBox="0 0 24 24" xmlns="http://www.w3.org/2000/svg"
    style="fill-rule:evenodd;clip-rule:evenodd;">
    <circle cx="12" cy="12" r="12" fill="#a6a8a9" />
    <path
        d="M20.5,11.499c0,4.97 -4.03,8.999 -9,8.999c-4.97,0 -9,-4.03 -9,-9c0,-4.969 4.03,-8.998 9,-8.998c4.97,0 9,4.029 9,8.999Z"
        style="fill:#fff;fill-rule:nonzero;stroke:#a6a8a9;stroke-width:1px;" />
    <path
        d="M6.5,4.017c1.48,-0.99 3.22,-1.517 5.001,-1.517c1.182,0 2.353,0.233 3.445,0.685c1.092,0.452 2.084,1.115 2.92,1.951c0.836,0.836 1.499,1.828 1.951,2.92c0.453,1.092 0.685,2.262 0.685,3.444c0,1.78 -0.528,3.52 -1.517,5c-0.989,1.48 -2.395,2.634 -4.04,3.315c-1.644,0.681 -3.454,0.86 -5.2,0.512c-1.746,-0.347 -3.35,-1.204 -4.609,-2.463c-1.258,-1.259 -2.116,-2.862 -2.463,-4.608c-0.347,-1.746 -0.17,-3.556 0.512,-5.2c0.681,-1.645 1.835,-3.05 3.315,-4.04l-0,0.001Zm7.597,5.582l-0.453,0.116l-0.982,0.299l0.64,-2.262l0.726,-2.429l0.212,-0.93l-3.298,0.07c-0.189,-0 -2.315,6.789 -2.315,6.789l-1.508,0.458l-0.69,2.231l1.522,-0.463l-1.29,4.361l8.742,0c-0,0 0.671,-3.192 0.551,-3.193l-4.617,0l0.707,-2.423l1.524,-0.443l0.09,-0.269l0.514,-1.737l-0.075,-0.175l0.149,-0.075l-0.074,0.25l0.431,1.001l0.533,3.871l-0.272,-3.264l-0.261,-0.607l-0.575,-5.452l-0.726,2.429l0.795,1.847Zm2.136,7.618l0.46,-1.583l-0.46,1.582l-0,0.001Zm-1.369,-5.835l0.272,3.264l0.818,0c0.12,0.001 0.238,0.03 0.344,0.083l0.008,0.004l-1.442,-3.351Zm-0.784,-6.418l-0.074,0.105l0.074,-0.105Zm0.327,-0.647c0.012,-0.003 0.013,-0.004 -0.001,-0.004l0.001,0.004Z"
        style="fill:#a6a8a9;fill-rule:nonzero;stroke:#a6a8a9;stroke-width:1px;" />
</svg>