<svg xmlns="http://www.w3.org/2000/svg" width="24" height="24" fill="none" viewBox="0 0 24 24">
    <path fill="#A6A8A9" d="M12 24c6.628 0 12-5.372 12-12 0-6.627-5.372-12-12-12C5.373 0 0 5.373 0 12c0 6.628 5.373 12 12 12z"/>
    <path fill="#fff" stroke="#A6A8A9" d="M20.5 11.499c0 4.97-4.03 8.999-9 8.999s-9-4.03-9-9c0-4.969 4.03-8.998 9-8.998s9 4.029 9 8.999z"/>
    <path fill="#A6A8A9" stroke="#A6A8A9" d="M12.734 9.984l1.348-4.587h0l.001-.005c.032-.115.038-.236.015-.353-.022-.117-.071-.228-.143-.323s-.166-.172-.273-.225c-.107-.052-.224-.08-.343-.08m-.605 5.573l.606-5.572h0m-.606 5.572l.623-.19.889-.27-.264.89-.324 1.097-.077.262-.262.076-1.262.367-.72 2.43h4.617c.12.001.238.03.344.083.107.054.2.131.272.227.071.096.12.207.141.324.021.118.015.239-.018.353l-3.96-5.649zm.605-5.572h-2.045 0c-.189 0-.371.062-.52.176-.149.112-.256.27-.307.45l-1.84 6.214-1.254.38-.254.078-.078.254-.334 1.077-.278.9.902-.274.62-.189-1.1 3.72-.19.641h8.742M13.339 4.412l2.064 13.427m0 0h0v-.5.5zM6.5 4.017C7.98 3.027 9.72 2.5 11.501 2.5c1.182 0 2.353.233 3.445.685 1.092.452 2.084 1.115 2.92 1.951.836.836 1.499 1.828 1.951 2.92.453 1.092.685 2.262.685 3.444 0 1.78-.528 3.52-1.517 5-.989 1.48-2.395 2.634-4.04 3.315-1.644.681-3.454.86-5.2.512-1.746-.347-3.35-1.204-4.609-2.463-1.258-1.259-2.116-2.862-2.463-4.608-.347-1.746-.17-3.556.512-5.2.681-1.645 1.835-3.05 3.315-4.04zm9.733 13.2l.46-1.583-.46 1.582z"/>
</svg>
