<?xml version="1.0" encoding="UTF-8"?>
<svg viewBox="0 0 256 256" version="1.1" xmlns="http://www.w3.org/2000/svg" xmlns:xlink="http://www.w3.org/1999/xlink">
    <path d="M165.321657,4.79263427 C163.227826,4.15819949 161.950445,3.72935038 160.888471,3.52376471 C154.349668,2.66803069 147.579744,1.79265473 140.819642,1.16476726 C118.599366,-0.331294118 96.404624,1.16476726 74.6184348,5.66015345 C49.4669258,10.7650946 25.7911816,19.7447366 3.38299744,32.3515908 C1.04560614,33.633555 0.210168798,35.1224143 0.416409207,37.8834169 C1.48427621,49.6410844 2.11150895,61.3856573 3.38299744,72.9023836 C4.21712532,80.1725217 5.28040921,87.8682353 8.24306905,94.490844 C21.1281841,123.960307 56.8719386,137.195703 85.4110281,122.884583 C107.182813,112.200675 117.769821,93.8564092 118.828522,69.490578 C120.071202,41.0837442 133.408082,20.5926138 158.568102,7.97921228 C160.466824,6.92902302 162.363581,6.0752532 165.321657,4.79263427 L165.321657,4.79263427 Z" fill="#F7A800"></path>
    <path d="M202.37422,190.433228 C202.581115,190.636194 203.004072,190.636194 203.193944,190.845054 C205.409555,187.969473 207.446425,185.103059 209.662036,182.249084 C239.576716,141.216409 254.928205,95.0794476 255.56133,44.0372379 C255.56133,42.0003683 255.132481,40.5691253 253.121146,39.7448184 C241.193248,34.2254322 229.455223,28.3249923 217.330251,23.3987928 C201.781688,17.2803274 186.201698,18.5066394 171.438159,26.4721023 C150.218312,37.7086036 138.291724,63.6340051 143.76135,87.3182609 C147.613136,103.637442 156.899192,115.488737 170.844317,124.264757 C192.063509,137.551223 202.581115,156.937821 202.784737,182.046118 C202.785391,184.907949 202.579806,187.773708 202.37422,190.433228 L202.37422,190.433228 Z" fill="#67B2E8"></path>
    <path d="M27.7776368,143.472614 C28.1554169,144.62756 28.5561125,146.154394 29.2979233,147.68712 C33.6473043,156.48802 37.4434373,165.676522 42.3624348,174.095714 C61.3221483,207.196317 87.2770128,233.424205 119.470813,253.523151 C121.943079,255.051294 124.017269,255.423836 126.473166,253.523151 C136.339315,246.241228 146.587171,239.168164 156.228092,231.695714 C160.017023,228.830609 164.19421,225.384757 166.647488,221.357504 C174.408675,208.719877 176.690414,194.933852 173.296286,180.400777 C167.795887,157.824982 146.952512,141.206588 124.035601,140.985289 C114.162251,140.985289 105.263141,143.284051 96.5624143,148.065555 C80.4442353,156.886097 63.5796624,158.784818 46.3504041,152.677483 C40.1016471,150.364317 34.2352532,146.725974 27.7776368,143.472614 L27.7776368,143.472614 Z" fill="#00C4B3"></path>
</svg>