<svg width="24" height="24" viewBox="0 0 24 24" fill="none" xmlns="http://www.w3.org/2000/svg">
	<circle cx="12" cy="12" r="12" fill="black" />
	<path d="M12.0039 20L11.918 19.957C8.56734 17.9918 6.03285 14.75 5.00188 10.877C4.83721 10.2674 4.71549 9.64344 4.62958 9.0123C4.55082 8.38115 4.50787 7.74283 4.50071 7.10451C4.50071 6.99693 4.48639 7.01127 4.58662 6.96107C5.84671 6.24385 7.17838 5.72029 8.58882 5.39037C9.11147 5.26844 9.63412 5.1752 10.1639 5.11066C10.8942 5.02459 11.6245 4.98873 12.3619 5.00307C12.7772 5.01025 13.1853 5.03893 13.5934 5.08197C15.6482 5.3043 17.5741 5.92111 19.3783 6.93238C19.4069 6.94672 19.4284 6.96107 19.457 6.97541C19.4857 6.98975 19.5 7.01127 19.5 7.04713V7.15471C19.4928 7.52766 19.4785 7.89344 19.4499 8.26639C19.4069 8.79713 19.3353 9.3207 19.2351 9.84426C19.0203 10.9703 18.6838 12.0533 18.2184 13.0932C17.481 14.75 16.4715 16.2275 15.1971 17.5184C14.2807 18.4508 13.2569 19.2541 12.1256 19.9211C12.0827 19.9498 12.0469 19.9713 12.0039 20ZM5.18803 7.47029V7.55635C5.18803 8.07992 5.22382 8.61066 5.28826 9.12705C5.34554 9.60041 5.42429 10.0666 5.53168 10.5328C5.55316 10.6117 5.57464 10.6906 5.61044 10.7695C6.2548 12.1393 7.74399 12.8709 9.21886 12.5338C10.3429 12.2756 11.2593 11.4078 11.5672 10.2961C11.6531 9.98771 11.6818 9.67213 11.6961 9.35656C11.7032 9.14857 11.7247 8.94057 11.7605 8.73258C12.0039 7.47029 12.8416 6.43033 14.0229 5.93545C14.0874 5.90676 14.159 5.88525 14.2234 5.85656C14.2306 5.84939 14.2449 5.84939 14.2449 5.83504C14.0587 5.77049 12.949 5.65574 12.2832 5.64139C10.8512 5.6127 9.44797 5.79918 8.08049 6.21516C7.06383 6.52357 6.10445 6.93955 5.18803 7.47029ZM15.7484 16.0625C15.7842 16.041 15.8057 16.0123 15.82 15.9908C16.1064 15.6322 16.3784 15.2592 16.629 14.8719C17.524 13.4805 18.154 11.9816 18.5048 10.3607C18.6265 9.8084 18.7053 9.25615 18.7554 8.69672C18.7912 8.3166 18.8055 7.93648 18.8055 7.54918C18.8055 7.52049 18.8055 7.49898 18.7984 7.47029L18.691 7.40574C18.3974 7.24078 18.0967 7.08299 17.796 6.93955C17.3521 6.73156 16.9082 6.54508 16.4429 6.39447C15.8773 6.21516 15.3045 6.19365 14.7317 6.33709C13.0922 6.73156 12.0397 8.34529 12.3548 10.002C12.5266 10.9201 13.0206 11.6373 13.8081 12.1393C13.8583 12.1752 13.9155 12.2039 13.9657 12.2398C14.5456 12.5912 14.9966 13.0717 15.3188 13.667C15.6625 14.291 15.8128 14.9652 15.7699 15.6752C15.777 15.7971 15.7627 15.9262 15.7484 16.0625ZM12.0039 19.2684C12.0326 19.2541 12.0684 19.2326 12.097 19.2111C12.9991 18.6803 13.8296 18.0492 14.5885 17.332C14.6387 17.2889 14.6745 17.2316 14.7031 17.1742C14.7532 17.0809 14.8033 16.9805 14.8463 16.8873C15.2043 16.1414 15.283 15.3668 15.0467 14.5635C14.5814 13.0143 13.0922 12.125 11.5958 12.3115C11.1663 12.3617 10.7725 12.498 10.4002 12.7131C9.69139 13.1148 8.93248 13.2797 8.11629 13.2008C7.71535 13.165 7.3359 13.0574 6.97076 12.8996C6.68437 12.7705 6.41231 12.6127 6.16889 12.4191C6.15457 12.4047 6.13309 12.3975 6.09729 12.376C6.10445 12.4119 6.11161 12.4334 6.11877 12.4477C6.44095 13.2654 6.83473 14.04 7.3001 14.7787C7.80843 15.5748 8.38835 16.3135 9.04703 16.9877C9.70571 17.6619 10.4288 18.2643 11.2092 18.7879C11.5672 19.0174 11.9037 19.2254 12.0039 19.2684Z" fill="black" />
	<path d="M5.18801 7.47028C6.10443 6.93954 7.06381 6.52356 8.07331 6.22233C9.44795 5.81352 10.8441 5.61987 12.276 5.64856C12.9418 5.6629 14.0516 5.77049 14.2377 5.84221C14.2449 5.85655 14.2305 5.86372 14.2162 5.86372C14.1518 5.89241 14.0802 5.91393 14.0158 5.94262C12.8344 6.4375 11.9968 7.47745 11.7533 8.73975C11.7175 8.94774 11.6961 9.15573 11.6889 9.36372C11.6817 9.6793 11.6531 9.99487 11.56 10.3033C11.245 11.415 10.3357 12.2828 9.21168 12.541C7.73681 12.8781 6.24762 12.1465 5.60326 10.7766C5.56746 10.6977 5.53883 10.6188 5.52451 10.54C5.41711 10.0738 5.33836 9.60758 5.28108 9.13422C5.21664 8.61065 5.18085 8.08709 5.18085 7.56352C5.18801 7.52766 5.18801 7.50614 5.18801 7.47028Z" fill="#F7A800" />
	<path d="M15.7484 16.0625C15.7627 15.9262 15.777 15.8043 15.7842 15.6752C15.82 14.9652 15.6696 14.291 15.3331 13.667C15.011 13.0717 14.5599 12.5984 13.98 12.2398C13.9299 12.2039 13.8726 12.1752 13.8225 12.1393C13.0278 11.6373 12.5409 10.9273 12.3691 10.0021C12.0612 8.33812 13.1065 6.73156 14.7461 6.33709C15.326 6.20082 15.8916 6.21517 16.4572 6.39447C16.9226 6.53791 17.3665 6.73156 17.8103 6.93955C18.1182 7.08299 18.4117 7.24078 18.7053 7.40574C18.7411 7.42726 18.7697 7.4416 18.8127 7.47029C18.8127 7.49898 18.8198 7.52049 18.8198 7.54918C18.8198 7.92931 18.7984 8.3166 18.7697 8.69672C18.7196 9.25615 18.6337 9.81558 18.5191 10.3607C18.1683 11.9816 17.5454 13.4805 16.6433 14.8719C16.3928 15.2592 16.1207 15.6322 15.8343 15.9908C15.8057 16.0123 15.7913 16.041 15.7484 16.0625Z" fill="#67B2E8" />
	<path d="M12.0039 19.2684C11.8965 19.2254 11.5672 19.0246 11.2164 18.7879C10.436 18.2643 9.71285 17.6619 9.05417 16.9877C8.39549 16.3135 7.80841 15.5748 7.30724 14.7787C6.83471 14.04 6.44093 13.2654 6.12591 12.4477C6.11875 12.4262 6.11159 12.4119 6.10443 12.376C6.14023 12.3975 6.15455 12.4047 6.17603 12.4191C6.42661 12.6127 6.69152 12.7777 6.9779 12.8996C7.34304 13.0574 7.72249 13.165 8.12343 13.2008C8.93246 13.2797 9.69137 13.1148 10.4073 12.7131C10.7796 12.5051 11.1806 12.3689 11.603 12.3115C13.0993 12.125 14.5885 13.0143 15.0539 14.5635C15.2902 15.3596 15.2186 16.1342 14.8534 16.8873C14.8033 16.9877 14.7603 17.0809 14.7102 17.1742C14.6816 17.2316 14.6458 17.2889 14.5957 17.332C13.8368 18.0492 13.0063 18.6803 12.1041 19.2111C12.0684 19.2326 12.0326 19.2541 12.0039 19.2684Z" fill="#00C4B3" />
</svg>
