<?xml version="1.0" encoding="UTF-8"?>
<svg viewBox="0 0 256 256" version="1.1" xmlns="http://www.w3.org/2000/svg" xmlns:xlink="http://www.w3.org/1999/xlink">
    <circle id="Oval" fill="#E44749" cx="128" cy="128" r="128"></circle>
    <path d="M119.099077,165.868308 L181.100308,165.868308 L181.100308,198.852923 L142.946462,198.852923 C143.576615,208.285538 143.901538,217.038769 144.531692,226.461538 L112.423385,226.461538 L112.423385,199.187692 L74.2596923,199.187692 C74.2596923,188.425846 72.9895385,177.654154 74.8996923,167.552 C75.8547692,162.166154 81.5753846,157.449846 85.0707692,152.743385 C97.1642502,137.630684 109.354037,122.595301 121.639385,107.638154 C126.414769,101.907692 131.180308,96.5218462 136.585846,90.1316923 L77.1150769,90.1316923 L77.1150769,57.1470769 L112.423385,57.1470769 L112.423385,29.5384615 L143.261538,29.5384615 L143.261538,56.4676923 L181.740308,56.4676923 C181.740308,67.5741538 183.010462,78.3458462 181.100308,88.448 C180.145231,93.8338462 174.424615,98.5501538 170.614154,103.256615 C158.520673,118.369316 146.330886,133.404699 134.045538,148.361846 C129.248615,154.35297 124.263985,160.191358 119.099077,165.868308 L119.099077,165.868308 Z" fill="#FFFFFF"></path>
</svg>