<svg width="24" height="24" viewBox="0 0 24 24" fill="none" xmlns="http://www.w3.org/2000/svg">
	<circle cx="12" cy="12" r="12" fill="black" />
	<path d="M17.3829 7.31083L15.5767 8.23103L6.85509 12.6734C6.8256 12.4485 6.81076 12.2219 6.81067 11.995C6.81186 11.0898 7.04951 10.2007 7.50007 9.4156C7.95064 8.63054 8.59848 7.9768 9.37944 7.51916C10.1604 7.06151 11.0474 6.81583 11.9525 6.80645C12.8576 6.79707 13.7495 7.02431 14.5398 7.46568L15.5736 6.93894L15.7278 6.86025C14.7807 6.17288 13.6621 5.76073 12.4955 5.66937C11.3289 5.578 10.1597 5.81097 9.11722 6.34253C8.07473 6.87409 7.1995 7.68353 6.58828 8.6814C5.97705 9.67927 5.65363 10.8267 5.65375 11.9969C5.65375 12.1585 5.65988 12.3195 5.67215 12.4798C5.68933 12.7069 5.63897 12.934 5.52741 13.1325C5.41584 13.331 5.24804 13.4921 5.04514 13.5955L4.5 13.8735V15.17L6.10496 14.352L6.62472 14.0867L7.13686 13.8259L16.3313 9.14108L17.3645 8.61498L19.5 7.5266V6.2307L17.3829 7.31083Z" fill="white" />
	<path d="M19.5 8.82378L7.65916 14.8527L6.62599 15.3801L4.5 16.4634V17.7587L6.61139 16.683L8.41754 15.7628L17.1481 11.314C17.1776 11.5405 17.1924 11.7686 17.1925 11.9969C17.1919 12.9031 16.9543 13.7934 16.5033 14.5794C16.0523 15.3655 15.4036 16.0199 14.6215 16.4776C13.8394 16.9354 12.9512 17.1807 12.045 17.1891C11.1388 17.1975 10.2462 16.9688 9.45578 16.5256L9.39232 16.5592L8.27157 17.1304C9.21838 17.8178 10.3368 18.23 11.5032 18.3216C12.6697 18.4132 13.8387 18.1805 14.8812 17.6493C15.9237 17.1181 16.799 16.3091 17.4105 15.3116C18.022 14.3141 18.3459 13.1669 18.3462 11.9969C18.3462 11.8338 18.3399 11.6707 18.3278 11.5095C18.3107 11.2825 18.361 11.0555 18.4724 10.857C18.5839 10.6585 18.7515 10.4974 18.9542 10.3938L19.5 10.1159V8.82378Z" fill="white" />
</svg>
