<?xml version="1.0" encoding="UTF-8"?>
<svg viewBox="0 0 256 256" version="1.1" xmlns="http://www.w3.org/2000/svg" xmlns:xlink="http://www.w3.org/1999/xlink" fill="#000000">
    <path d="M236.474576,108.474576 C236.474576,168.38343 187.908854,216.949153 128,216.949153 C104.186913,216.949153 82.1660081,209.275904 64.2749432,196.267065 L85.5540093,185.424826 C98.1363063,192.380074 112.605827,196.338983 128,196.338983 C176.526172,196.338983 215.864407,157.000748 215.864407,108.474576 C215.864407,104.85127 215.645089,101.279188 215.219006,97.7708818 L0,207.430442 L0,184.299109 L256,53.8605934 C256,69.2814828 256,76.9919274 256,76.9919274 C236.474576,86.3993422 236.474576,89.6117826 236.474576,108.474576 Z M19.5254237,108.474576 C19.5254237,48.5657221 68.0911458,0 128,0 C151.780303,0 173.773354,7.65213439 191.651139,20.6283886 L170.359928,31.4768156 C157.79773,24.5510528 143.359087,20.6101695 128,20.6101695 C79.4738281,20.6101695 40.1355932,59.9484044 40.1355932,108.474576 C40.1355932,112.054858 40.3497329,115.585125 40.7659031,119.053267 L256,9.38601718 L256,32.5173512 L0,162.955866 L0,139.824532 C16.988864,131.686841 19.5254237,129.879616 19.5254237,108.474576 Z"></path>
</svg>