<svg width="24" height="24" viewBox="0 0 24 24" fill="none" xmlns="http://www.w3.org/2000/svg">
	<circle cx="12" cy="12" r="12" fill="#2C7DF7" />
	<path d="M13.6053 19.5C12.5365 19.5 11.7564 19.2422 11.2649 18.7265C10.8097 18.2901 10.5455 17.6908 10.5301 17.0599C10.5246 16.8682 10.569 16.6783 10.6589 16.509C10.7427 16.3627 10.8638 16.2413 11.0098 16.1572C11.1796 16.0725 11.3667 16.0283 11.5563 16.0283C11.746 16.0283 11.9331 16.0725 12.1028 16.1572C12.2486 16.241 12.3691 16.3625 12.4518 16.509C12.5443 16.6775 12.5903 16.8677 12.5852 17.0599C12.5947 17.2894 12.529 17.5158 12.3979 17.7044C12.2887 17.8584 12.1327 17.9727 11.9531 18.0304C12.1287 18.2543 12.3772 18.4094 12.6552 18.4687C12.9663 18.5592 13.2885 18.6057 13.6124 18.6069C14.0412 18.6107 14.4613 18.4849 14.8177 18.246C15.1874 17.9844 15.4632 17.6105 15.604 17.1796C15.7826 16.6669 15.8697 16.1266 15.8615 15.5836C15.8759 15.0175 15.7805 14.4539 15.5806 13.9242C15.4303 13.5005 15.1449 13.1381 14.7685 12.8929C14.4187 12.6712 14.0126 12.5549 13.5986 12.5578C13.2378 12.5884 12.89 12.7067 12.5852 12.9023L11.8337 13.2796V12.9023L15.2108 8.36534H10.5301V13.0734C10.5169 13.4132 10.6067 13.749 10.7876 14.0367C10.8751 14.1621 10.9935 14.2627 11.1313 14.3288C11.269 14.3949 11.4215 14.4243 11.5739 14.414C11.8555 14.4083 12.1279 14.3122 12.3508 14.1398C12.6036 13.9543 12.8235 13.7277 13.0015 13.4695C13.0175 13.4242 13.0471 13.3849 13.0861 13.357C13.1175 13.3299 13.1575 13.3149 13.199 13.3149C13.2803 13.3223 13.3572 13.3551 13.419 13.4086C13.4972 13.4961 13.5398 13.6098 13.5383 13.7273C13.5293 13.8062 13.5152 13.8845 13.4962 13.9617C13.3299 14.3647 13.0512 14.7112 12.6934 14.9598C12.3611 15.185 11.9686 15.3044 11.5673 15.3023C10.5539 15.3023 9.85186 15.1023 9.46115 14.7023C9.26033 14.4813 9.10555 14.2223 9.00589 13.9406C8.90623 13.6588 8.86368 13.36 8.88073 13.0617V8.36534H6.5V7.49058H8.89183V5.49604L8.34422 4.94727V4.5H9.93325L10.5301 4.80942V7.49058L16.7133 7.47175L17.3288 8.09048L13.5374 11.9058C13.7665 11.8136 14.0077 11.7552 14.2535 11.7324C14.7401 11.7537 15.2148 11.8894 15.6393 12.1285C16.1308 12.3625 16.5451 12.7327 16.833 13.1953C17.0909 13.5869 17.2734 14.0233 17.3712 14.482C17.4517 14.8439 17.4948 15.213 17.5 15.5837C17.5025 16.2911 17.3423 16.9896 17.0319 17.625C16.7375 18.2404 16.2421 18.7365 15.6276 19.0313C14.9987 19.3417 14.3065 19.5021 13.6053 19.5Z" fill="white" />
</svg>
