<svg viewBox="0 0 256 256" version="1.1" xmlns="http://www.w3.org/2000/svg">
	<path fill="#a07090" id="Layer" class="s0" d="m44.5 68.5c-4-6.6-7.8-12.8-11.6-19.2-0.6-1-1.2-2.2-0.7-3.6 3.7-0.5 7.4-0.2 11.1-0.3 3.9 0 7.8 0 11.7 0q5.6 0 11.2 0 5.9 0 11.7 0 5.6 0 11.2 0 5.9 0 11.7 0c3.7 0 7.5 0 11.4 0 0.2-1.1 0.3-2 0.3-2.9q0.1-15 0.1-30c0-1.4 0-2.7 0-3.8 0.4-0.4 0.4-0.5 0.5-0.6q0.2-0.1 0.4-0.1 16.9 0 33.8 0c0.2 0 0.5 0.2 1 0.4 0.2 2.3 0.1 4.8 0.1 7.3q0 3.5 0 7.1 0 3.7 0 7.5 0 3.5 0 7c0 2.5 0 5 0 7.7 0.9 0.2 1.7 0.4 2.5 0.4q32 0 64.1 0c1.1 0 2.1 0 3.2-0.6 0.9-0.5 1.5 0.4 2.1 1.4-1.7 2.3-3.4 4.8-5.1 7.2-3.8 5.1-7.2 10.4-11.1 15.3-1.9 2.5-3.6 5.2-5.4 7.8-2.9 4-5.8 7.9-8.7 11.9-3.7 5.1-7.4 10.1-11.1 15.2-3 4.3-5.9 8.5-8.9 12.8-3.4 4.6-6.8 9.2-10.2 13.8-2.1 2.9-4.1 5.8-6.1 8.7-3.5 4.9-7 9.8-10.5 14.6-2.2 3-4.3 6.1-6.4 9.1q-5.1 7.2-10.2 14.3c-1 1.5-2 2.9-3.2 4.6 0.7 0.3 1.2 0.6 1.8 0.8 0.3 0.1 0.8 0.1 1.2 0.1q20 0 40 0c12.6 0 25.2 0 38.2 0 2.6 3 4.3 6.9 6.6 10.4 2.4 3.7 4.4 7.6 6.7 11.3 2.3 3.6 4.3 7.3 7 11.3-5.9 0.2-11 0.1-16.1 0.1q-7.5 0-15 0-7.7 0-15.4 0-7.5 0-15 0c-5.1 0-10.2 0-15.6 0-0.1 1.2-0.2 2.1-0.2 3q-0.1 12.8-0.1 25.5c0 1.3 0 2.7-0.1 4.2-4.3 0.6-8.4 0.2-12.5 0.3q-6.1 0.1-12.1 0c-4.1 0-8.3 0.2-12.6-0.2-0.3-5.5-0.1-10.7-0.1-16-0.1-5.1 0-10.2 0-15.3-1.4-1.1-2.9-0.6-4.2-0.6q-31.6-0.1-63.3-0.1c-1.5 0-3 0-4.6 0-0.5-1.5 0.3-2.6 1.2-3.2 1.9-1.1 2.9-2.8 4.1-4.5 3.8-5.1 7.4-10.5 11.3-15.6 3.8-5 7-10.4 10.7-15.4 3.9-5.1 7.6-10.4 11.3-15.7 5.2-7.2 10.1-14.6 15.3-21.8 3.2-4.6 6.7-9 10-13.6 2.1-3 4.2-6 6.3-9 3.4-4.8 6.9-9.5 10.3-14.3 1.3-1.8 2.4-3.6 3.7-5.4 2.3-2.9 4.7-5.8 7-8.6 0.4-0.6 0.9-1.1 1.1-2-4.4-0.7-8.5 0-12.6-0.1-4.1-0.1-8.3 0-12.5 0q-6.2 0-12.5 0-6 0-12 0-6.3 0-12.5 0c-4.2 0-8.3 0-12.6 0-3.7-6.2-7.3-12.3-11.1-18.6z"/>
</svg>