<svg xmlns="http://www.w3.org/2000/svg" width="360" height="280" viewBox="0 0 360 280">
    <g fill="none" fill-rule="nonzero">
        <path fill="#FFF" d="M169 60h122.366v164.808H169z"/>
        <path fill="#A3A4A9" d="M290.458 61.023v163.721H169.184V61.023h121.274m1.092-1.092H168.092v165.905H291.55V59.931z"/>
        <path fill="#A3A4A9" d="M286.4 169a.6.6 0 0 0-.6.6v9.02c-7.604 14.096-22.762 15.363-24.862 15.47l-10.03-10.031a.6.6 0 1 0-.849.849l10.052 10.051c.874 13.342-11.868 23.663-13.386 24.84H235.6a.6.6 0 0 0-.6.6v.001a.6.6 0 0 0 .6.6h50.8a.6.6 0 0 0 .6-.6v-50.8a.6.6 0 0 0-.6-.6zm-8.386 43.863c.888 2.797-2.174 6.17-2.92 6.937h-13.998c3.26-2 9.122-6.672 9.362-14.493l7.556 7.556zm-1.3 6.937c1.029-1.22 2.524-3.357 2.652-5.585l4.561 4.56a.6.6 0 0 1-.424 1.025h-6.79zm8.061-1.874l-5.123-5.122c1.516-.587 4.485-2.02 6.147-4.708v9.406a.6.6 0 0 1-1.024.424zm-6.058-6.058l-7.7-7.699c2.879-.78 10.78-3.49 14.782-10.567v10.235c0 5.322-5.66 7.555-7.082 8.031zm7.082-30.877v9.804c-3.475 9.024-13.86 11.922-15.772 12.384l-7.974-7.975c4.076-.415 16.443-2.626 23.746-14.213zm-24.447 15.21l7.892 7.892c.464 10.292-9.545 15.197-10.652 15.706h-9.96c3.547-3.006 12.774-11.96 12.72-23.598z"/>
        <path fill="#D8D9DA" d="M290.458 61.023v9.68h-78.671l32.03 154.038H180.47V70.703h-11.286v-9.68h121.274z" opacity=".5"/>
        <path fill="#FFF" d="M288.638 62.843v160.081H171.004V62.843h117.634m1.82-1.82H169.184v163.721h121.274V61.023z"/>
        <path fill="#FFF" d="M63.645 78.882L184.008 53.89l34.631 166.79L98.276 245.67z"/>
        <path fill="#A3A4A9" d="M183.584 54.529l34.42 165.718L98.71 245.023 64.29 79.305 183.584 54.53m.847-1.293l-1.069.222L64.068 78.23 63 78.457l.222 1.07 34.42 165.718.221 1.069 1.069-.222 119.294-24.777 1.068-.222-.222-1.068-34.42-165.718-.221-1.07z"/>
        <path fill="#D8D9DA" d="M144.464 133.33c-.744-3.576-4.468-5.9-8.249-5.113-3.78.788-6.266 4.405-5.52 7.981l.435 2.093-2.834.59 3.138 15.052 10.66 2.497 8.778-6.552-3.121-14.985-2.836.592-.451-2.155zm-10.26 2.137c-.35-1.688.854-3.346 2.743-3.74 1.89-.395 3.657.647 4.004 2.335l.435 2.09-6.745 1.411-.437-2.096zm12.246 12.802l-5.242 3.91-6.37-1.491-1.884-9.044 11.61-2.419 1.886 9.044z"/>
    </g>
</svg>
