<svg width="1294" height="497" viewBox="0 0 1294 497" fill="none" xmlns="http://www.w3.org/2000/svg">
<g clip-path="url(#clip0_8_2)">
<rect x="0.5" y="0.5" width="1293" height="496" rx="23.5" stroke="#EEEEEE"/>
<path d="M36.93 53.18C36.078 53.18 35.28 53.024 34.536 52.712C33.792 52.388 33.144 51.938 32.592 51.362C32.04 50.786 31.602 50.102 31.278 49.31C30.966 48.518 30.81 47.648 30.81 46.7C30.81 45.752 30.966 44.882 31.278 44.09C31.602 43.298 32.04 42.614 32.592 42.038C33.144 41.462 33.792 41.018 34.536 40.706C35.28 40.382 36.078 40.22 36.93 40.22C37.854 40.22 38.652 40.382 39.324 40.706C39.996 41.018 40.56 41.408 41.016 41.876C41.472 42.344 41.826 42.842 42.078 43.37C42.33 43.898 42.504 44.378 42.6 44.81H40.17C40.074 44.558 39.942 44.3 39.774 44.036C39.606 43.76 39.39 43.508 39.126 43.28C38.862 43.04 38.544 42.848 38.172 42.704C37.812 42.548 37.398 42.47 36.93 42.47C36.39 42.47 35.886 42.572 35.418 42.776C34.962 42.968 34.566 43.25 34.23 43.622C33.894 43.982 33.63 44.426 33.438 44.954C33.246 45.47 33.15 46.052 33.15 46.7C33.15 47.348 33.246 47.936 33.438 48.464C33.63 48.98 33.894 49.424 34.23 49.796C34.566 50.156 34.962 50.438 35.418 50.642C35.886 50.834 36.39 50.93 36.93 50.93C37.398 50.93 37.812 50.858 38.172 50.714C38.544 50.558 38.862 50.36 39.126 50.12C39.39 49.88 39.606 49.622 39.774 49.346C39.942 49.058 40.074 48.776 40.17 48.5H42.6C42.552 48.74 42.468 49.022 42.348 49.346C42.24 49.67 42.084 50.006 41.88 50.354C41.688 50.702 41.442 51.044 41.142 51.38C40.854 51.716 40.506 52.022 40.098 52.298C39.69 52.562 39.222 52.778 38.694 52.946C38.178 53.102 37.59 53.18 36.93 53.18ZM48.6363 53.18C47.9643 53.18 47.3403 53.066 46.7643 52.838C46.1883 52.598 45.6903 52.268 45.2703 51.848C44.8623 51.416 44.5383 50.912 44.2983 50.336C44.0703 49.748 43.9563 49.106 43.9563 48.41C43.9563 47.714 44.0703 47.078 44.2983 46.502C44.5383 45.914 44.8623 45.41 45.2703 44.99C45.6903 44.558 46.1883 44.228 46.7643 44C47.3403 43.76 47.9643 43.64 48.6363 43.64C49.3083 43.64 49.9323 43.76 50.5083 44C51.0843 44.228 51.5763 44.558 51.9843 44.99C52.4043 45.41 52.7283 45.914 52.9563 46.502C53.1963 47.078 53.3163 47.714 53.3163 48.41C53.3163 49.106 53.1963 49.748 52.9563 50.336C52.7283 50.912 52.4043 51.416 51.9843 51.848C51.5763 52.268 51.0843 52.598 50.5083 52.838C49.9323 53.066 49.3083 53.18 48.6363 53.18ZM48.6363 51.11C48.9723 51.11 49.2843 51.044 49.5723 50.912C49.8723 50.78 50.1303 50.6 50.3463 50.372C50.5743 50.132 50.7483 49.85 50.8683 49.526C51.0003 49.19 51.0663 48.818 51.0663 48.41C51.0663 48.002 51.0003 47.636 50.8683 47.312C50.7483 46.976 50.5743 46.694 50.3463 46.466C50.1303 46.226 49.8723 46.04 49.5723 45.908C49.2843 45.776 48.9723 45.71 48.6363 45.71C48.3003 45.71 47.9823 45.776 47.6823 45.908C47.3943 46.04 47.1363 46.226 46.9083 46.466C46.6923 46.694 46.5183 46.976 46.3863 47.312C46.2663 47.636 46.2063 48.002 46.2063 48.41C46.2063 48.818 46.2663 49.19 46.3863 49.526C46.5183 49.85 46.6923 50.132 46.9083 50.372C47.1363 50.6 47.3943 50.78 47.6823 50.912C47.9823 51.044 48.3003 51.11 48.6363 51.11ZM55.1993 43.82H57.0893L57.2693 44.63H57.3593C57.4673 44.486 57.5993 44.354 57.7553 44.234C57.8873 44.138 58.0553 44.048 58.2593 43.964C58.4633 43.868 58.7033 43.82 58.9793 43.82H60.7793V45.98H59.1593C58.0193 45.98 57.4493 46.55 57.4493 47.69V53H55.1993V43.82ZM66.0035 53.18C65.3315 53.18 64.7075 53.066 64.1315 52.838C63.5555 52.598 63.0575 52.268 62.6375 51.848C62.2295 51.416 61.9055 50.912 61.6655 50.336C61.4375 49.748 61.3235 49.106 61.3235 48.41C61.3235 47.714 61.4375 47.078 61.6655 46.502C61.9055 45.914 62.2295 45.41 62.6375 44.99C63.0575 44.558 63.5555 44.228 64.1315 44C64.7075 43.76 65.3315 43.64 66.0035 43.64C66.6275 43.64 67.2155 43.76 67.7675 44C68.3195 44.228 68.7935 44.546 69.1895 44.954C69.5975 45.362 69.9155 45.848 70.1435 46.412C70.3835 46.976 70.5035 47.582 70.5035 48.23C70.5035 48.362 70.4975 48.482 70.4855 48.59C70.4735 48.698 70.4615 48.794 70.4495 48.878C70.4375 48.974 70.4255 49.058 70.4135 49.13H63.5735C63.6695 49.766 63.9395 50.288 64.3835 50.696C64.8275 51.092 65.3675 51.29 66.0035 51.29C66.2675 51.29 66.5075 51.254 66.7235 51.182C66.9395 51.11 67.1255 51.026 67.2815 50.93C67.4375 50.834 67.5635 50.732 67.6595 50.624C67.7675 50.504 67.8455 50.396 67.8935 50.3H70.2335C70.1855 50.48 70.0715 50.732 69.8915 51.056C69.7235 51.38 69.4715 51.698 69.1355 52.01C68.7995 52.322 68.3735 52.598 67.8575 52.838C67.3415 53.066 66.7235 53.18 66.0035 53.18ZM68.2535 47.6C68.1575 47.012 67.9175 46.52 67.5335 46.124C67.1495 45.728 66.6395 45.53 66.0035 45.53C65.3195 45.53 64.7735 45.728 64.3655 46.124C63.9695 46.52 63.7055 47.012 63.5735 47.6H68.2535ZM77.0707 40.4H80.8507L83.8207 49.22H84.1807L87.1507 40.4H90.9307V53H88.5907V44.27H88.2307L85.2607 53H82.7407L79.7707 44.27H79.4107V53H77.0707V40.4ZM97.6793 53.18C97.0073 53.18 96.3833 53.066 95.8073 52.838C95.2313 52.598 94.7333 52.268 94.3133 51.848C93.9053 51.416 93.5813 50.912 93.3413 50.336C93.1133 49.748 92.9993 49.106 92.9993 48.41C92.9993 47.714 93.1133 47.078 93.3413 46.502C93.5813 45.914 93.9053 45.41 94.3133 44.99C94.7333 44.558 95.2313 44.228 95.8073 44C96.3833 43.76 97.0073 43.64 97.6793 43.64C98.3513 43.64 98.9753 43.76 99.5513 44C100.127 44.228 100.619 44.558 101.027 44.99C101.447 45.41 101.771 45.914 101.999 46.502C102.239 47.078 102.359 47.714 102.359 48.41C102.359 49.106 102.239 49.748 101.999 50.336C101.771 50.912 101.447 51.416 101.027 51.848C100.619 52.268 100.127 52.598 99.5513 52.838C98.9753 53.066 98.3513 53.18 97.6793 53.18ZM97.6793 51.11C98.0153 51.11 98.3273 51.044 98.6153 50.912C98.9153 50.78 99.1733 50.6 99.3893 50.372C99.6173 50.132 99.7913 49.85 99.9113 49.526C100.043 49.19 100.109 48.818 100.109 48.41C100.109 48.002 100.043 47.636 99.9113 47.312C99.7913 46.976 99.6173 46.694 99.3893 46.466C99.1733 46.226 98.9153 46.04 98.6153 45.908C98.3273 45.776 98.0153 45.71 97.6793 45.71C97.3433 45.71 97.0253 45.776 96.7253 45.908C96.4373 46.04 96.1793 46.226 95.9513 46.466C95.7353 46.694 95.5613 46.976 95.4293 47.312C95.3093 47.636 95.2493 48.002 95.2493 48.41C95.2493 48.818 95.3093 49.19 95.4293 49.526C95.5613 49.85 95.7353 50.132 95.9513 50.372C96.1793 50.6 96.4373 50.78 96.7253 50.912C97.0253 51.044 97.3433 51.11 97.6793 51.11ZM108.022 53.18C107.434 53.18 106.882 53.066 106.366 52.838C105.862 52.61 105.418 52.292 105.034 51.884C104.65 51.464 104.344 50.96 104.116 50.372C103.9 49.784 103.792 49.13 103.792 48.41C103.792 47.69 103.9 47.036 104.116 46.448C104.344 45.86 104.65 45.362 105.034 44.954C105.418 44.534 105.862 44.21 106.366 43.982C106.882 43.754 107.434 43.64 108.022 43.64C108.478 43.64 108.868 43.706 109.192 43.838C109.516 43.958 109.786 44.09 110.002 44.234C110.254 44.402 110.464 44.594 110.632 44.81H110.722V40.4H112.972V53H110.992L110.812 52.01H110.722C110.542 52.238 110.326 52.436 110.074 52.604C109.858 52.748 109.576 52.88 109.228 53C108.892 53.12 108.49 53.18 108.022 53.18ZM108.382 51.11C109.066 51.11 109.624 50.876 110.056 50.408C110.5 49.94 110.722 49.274 110.722 48.41C110.722 47.546 110.5 46.88 110.056 46.412C109.624 45.944 109.066 45.71 108.382 45.71C107.698 45.71 107.134 45.944 106.69 46.412C106.258 46.88 106.042 47.546 106.042 48.41C106.042 49.274 106.258 49.94 106.69 50.408C107.134 50.876 107.698 51.11 108.382 51.11ZM119.634 53.18C118.962 53.18 118.338 53.066 117.762 52.838C117.186 52.598 116.688 52.268 116.268 51.848C115.86 51.416 115.536 50.912 115.296 50.336C115.068 49.748 114.954 49.106 114.954 48.41C114.954 47.714 115.068 47.078 115.296 46.502C115.536 45.914 115.86 45.41 116.268 44.99C116.688 44.558 117.186 44.228 117.762 44C118.338 43.76 118.962 43.64 119.634 43.64C120.258 43.64 120.846 43.76 121.398 44C121.95 44.228 122.424 44.546 122.82 44.954C123.228 45.362 123.546 45.848 123.774 46.412C124.014 46.976 124.134 47.582 124.134 48.23C124.134 48.362 124.128 48.482 124.116 48.59C124.104 48.698 124.092 48.794 124.08 48.878C124.068 48.974 124.056 49.058 124.044 49.13H117.204C117.3 49.766 117.57 50.288 118.014 50.696C118.458 51.092 118.998 51.29 119.634 51.29C119.898 51.29 120.138 51.254 120.354 51.182C120.57 51.11 120.756 51.026 120.912 50.93C121.068 50.834 121.194 50.732 121.29 50.624C121.398 50.504 121.476 50.396 121.524 50.3H123.864C123.816 50.48 123.702 50.732 123.522 51.056C123.354 51.38 123.102 51.698 122.766 52.01C122.43 52.322 122.004 52.598 121.488 52.838C120.972 53.066 120.354 53.18 119.634 53.18ZM121.884 47.6C121.788 47.012 121.548 46.52 121.164 46.124C120.78 45.728 120.27 45.53 119.634 45.53C118.95 45.53 118.404 45.728 117.996 46.124C117.6 46.52 117.336 47.012 117.204 47.6H121.884ZM125.932 50.48H128.452V53H125.932V50.48ZM125.932 43.82H128.452V46.34H125.932V43.82ZM138.527 40.4H141.947L146.447 53H143.837L142.883 50.3H137.591L136.637 53H134.027L138.527 40.4ZM142.127 48.14L140.417 43.1H140.057L138.347 48.14H142.127ZM151.225 53.18C150.709 53.18 150.229 53.09 149.785 52.91C149.353 52.718 148.975 52.454 148.651 52.118C148.327 51.782 148.075 51.38 147.895 50.912C147.715 50.432 147.625 49.898 147.625 49.31V43.82H149.875V49.13C149.875 49.718 150.055 50.198 150.415 50.57C150.787 50.93 151.267 51.11 151.855 51.11C152.443 51.11 152.917 50.93 153.277 50.57C153.649 50.198 153.835 49.718 153.835 49.13V43.82H156.085V53H154.015L153.835 52.1H153.745C153.577 52.304 153.373 52.484 153.133 52.64C152.929 52.772 152.665 52.892 152.341 53C152.017 53.12 151.645 53.18 151.225 53.18ZM161.478 53C160.71 53 160.128 52.814 159.732 52.442C159.336 52.058 159.138 51.524 159.138 50.84V45.98H157.698V43.82H159.138V41.21H161.388V43.82H163.458V45.98H161.388V50.39C161.388 50.81 161.598 51.02 162.018 51.02H163.458V53H161.478ZM169.31 53.18C168.638 53.18 168.014 53.066 167.438 52.838C166.862 52.598 166.364 52.268 165.944 51.848C165.536 51.416 165.212 50.912 164.972 50.336C164.744 49.748 164.63 49.106 164.63 48.41C164.63 47.714 164.744 47.078 164.972 46.502C165.212 45.914 165.536 45.41 165.944 44.99C166.364 44.558 166.862 44.228 167.438 44C168.014 43.76 168.638 43.64 169.31 43.64C169.982 43.64 170.606 43.76 171.182 44C171.758 44.228 172.25 44.558 172.658 44.99C173.078 45.41 173.402 45.914 173.63 46.502C173.87 47.078 173.99 47.714 173.99 48.41C173.99 49.106 173.87 49.748 173.63 50.336C173.402 50.912 173.078 51.416 172.658 51.848C172.25 52.268 171.758 52.598 171.182 52.838C170.606 53.066 169.982 53.18 169.31 53.18ZM169.31 51.11C169.646 51.11 169.958 51.044 170.246 50.912C170.546 50.78 170.804 50.6 171.02 50.372C171.248 50.132 171.422 49.85 171.542 49.526C171.674 49.19 171.74 48.818 171.74 48.41C171.74 48.002 171.674 47.636 171.542 47.312C171.422 46.976 171.248 46.694 171.02 46.466C170.804 46.226 170.546 46.04 170.246 45.908C169.958 45.776 169.646 45.71 169.31 45.71C168.974 45.71 168.656 45.776 168.356 45.908C168.068 46.04 167.81 46.226 167.582 46.466C167.366 46.694 167.192 46.976 167.06 47.312C166.94 47.636 166.88 48.002 166.88 48.41C166.88 48.818 166.94 49.19 167.06 49.526C167.192 49.85 167.366 50.132 167.582 50.372C167.81 50.6 168.068 50.78 168.356 50.912C168.656 51.044 168.974 51.11 169.31 51.11Z" fill="#171717"/>
<path d="M37.44 79.6C36.4587 79.6 35.5627 79.44 34.752 79.12C33.952 78.8107 33.264 78.3787 32.688 77.824C32.112 77.2693 31.664 76.6133 31.344 75.856C31.0347 75.088 30.88 74.256 30.88 73.36C30.88 72.4213 31.0453 71.5627 31.376 70.784C31.7067 69.9947 32.1653 69.3173 32.752 68.752C33.3493 68.1867 34.0533 67.7493 34.864 67.44C35.6747 67.12 36.56 66.96 37.52 66.96C38.5227 66.96 39.4347 67.12 40.256 67.44C41.0773 67.76 41.7813 68.1973 42.368 68.752C42.9653 69.296 43.424 69.9467 43.744 70.704C44.0747 71.4507 44.24 72.256 44.24 73.12C44.24 73.7387 44.1707 74.2773 44.032 74.736C43.904 75.184 43.712 75.5573 43.456 75.856C43.2107 76.144 42.9067 76.3627 42.544 76.512C42.192 76.6507 41.7973 76.72 41.36 76.72C41.0187 76.72 40.7307 76.672 40.496 76.576C40.272 76.4693 40.0853 76.3573 39.936 76.24C39.7653 76.1013 39.6267 75.9413 39.52 75.76H39.44C39.28 75.9413 39.088 76.1013 38.864 76.24C38.672 76.3573 38.4373 76.4693 38.16 76.576C37.8827 76.672 37.5627 76.72 37.2 76.72C36.7413 76.72 36.3147 76.64 35.92 76.48C35.536 76.32 35.2 76.096 34.912 75.808C34.624 75.5093 34.4 75.1627 34.24 74.768C34.08 74.3627 34 73.92 34 73.44C34 72.96 34.08 72.5227 34.24 72.128C34.4 71.7227 34.624 71.376 34.912 71.088C35.2 70.7893 35.536 70.56 35.92 70.4C36.3147 70.24 36.7413 70.16 37.2 70.16C37.5093 70.16 37.7813 70.2027 38.016 70.288C38.2613 70.3627 38.464 70.4427 38.624 70.528C38.816 70.6347 38.9813 70.752 39.12 70.88H39.2L39.36 70.24H40.56V74.48C40.56 74.7573 40.6293 74.976 40.768 75.136C40.9173 75.2853 41.1147 75.36 41.36 75.36C41.7653 75.36 42.1067 75.1893 42.384 74.848C42.6613 74.496 42.8 73.92 42.8 73.12C42.8 72.4373 42.672 71.8027 42.416 71.216C42.16 70.6293 41.7973 70.1227 41.328 69.696C40.8693 69.2587 40.3147 68.9227 39.664 68.688C39.024 68.4427 38.3093 68.32 37.52 68.32C36.784 68.32 36.096 68.448 35.456 68.704C34.8267 68.96 34.2773 69.312 33.808 69.76C33.3493 70.208 32.9867 70.7413 32.72 71.36C32.4533 71.9787 32.32 72.6453 32.32 73.36C32.32 74.064 32.448 74.7147 32.704 75.312C32.96 75.8987 33.312 76.4107 33.76 76.848C34.2187 77.2853 34.7627 77.6267 35.392 77.872C36.0213 78.1173 36.704 78.24 37.44 78.24H40.72V79.6H37.44ZM37.28 75.44C37.8027 75.44 38.24 75.2587 38.592 74.896C38.944 74.5333 39.12 74.048 39.12 73.44C39.12 72.832 38.944 72.3467 38.592 71.984C38.24 71.6213 37.8027 71.44 37.28 71.44C36.7573 71.44 36.32 71.6213 35.968 71.984C35.616 72.3467 35.44 72.832 35.44 73.44C35.44 74.048 35.616 74.5333 35.968 74.896C36.32 75.2587 36.7573 75.44 37.28 75.44ZM48.3931 78C47.8278 78 47.3905 77.8507 47.0811 77.552C46.7825 77.2533 46.6331 76.8427 46.6331 76.32V71.52H45.3531V70H46.6331V67.76H48.2331V70H50.0731V71.52H48.2331V76.08C48.2331 76.4 48.3931 76.56 48.7131 76.56H50.0731V78H48.3931ZM51.8369 70H53.1969L53.3569 70.72H53.4369C53.5009 70.6453 53.5702 70.5653 53.6449 70.48C53.7195 70.3947 53.8102 70.3147 53.9169 70.24C54.0342 70.1653 54.1729 70.1067 54.3329 70.064C54.5035 70.0213 54.7115 70 54.9569 70H56.3969V71.44H55.1169C53.9969 71.44 53.4369 71.9947 53.4369 73.104V78H51.8369V70ZM60.89 78.16C60.314 78.16 59.7807 78.0587 59.29 77.856C58.7993 77.6533 58.3727 77.3707 58.01 77.008C57.658 76.6453 57.3807 76.208 57.178 75.696C56.986 75.184 56.89 74.6187 56.89 74C56.89 73.3813 56.986 72.816 57.178 72.304C57.3807 71.792 57.658 71.3547 58.01 70.992C58.3727 70.6293 58.7993 70.3467 59.29 70.144C59.7807 69.9413 60.314 69.84 60.89 69.84C61.434 69.84 61.9353 69.9413 62.394 70.144C62.8633 70.336 63.2687 70.608 63.61 70.96C63.962 71.312 64.234 71.728 64.426 72.208C64.6287 72.688 64.73 73.2053 64.73 73.76C64.73 73.8773 64.7247 73.984 64.714 74.08C64.7033 74.176 64.6927 74.2613 64.682 74.336C64.6713 74.4213 64.6607 74.496 64.65 74.56H58.49C58.5753 75.2427 58.8367 75.7867 59.274 76.192C59.7113 76.5973 60.25 76.8 60.89 76.8C61.1247 76.8 61.3433 76.768 61.546 76.704C61.7593 76.64 61.946 76.5547 62.106 76.448C62.2767 76.3413 62.4207 76.224 62.538 76.096C62.6553 75.9573 62.746 75.8187 62.81 75.68H64.49C64.394 75.936 64.25 76.2133 64.058 76.512C63.866 76.8 63.6207 77.0667 63.322 77.312C63.0233 77.5573 62.6713 77.76 62.266 77.92C61.8713 78.08 61.4127 78.16 60.89 78.16ZM63.21 73.36C63.1247 72.72 62.874 72.2027 62.458 71.808C62.0527 71.4027 61.53 71.2 60.89 71.2C60.2073 71.2 59.6633 71.4027 59.258 71.808C58.8633 72.2027 58.6073 72.72 58.49 73.36H63.21ZM65.6988 76.56L69.8588 71.52H65.7788V70H71.9388V71.44L67.7788 76.48H72.0188V78H65.6988V76.56ZM76.9838 78.16C76.4078 78.16 75.8744 78.0587 75.3838 77.856C74.8931 77.6533 74.4664 77.3707 74.1038 77.008C73.7518 76.6453 73.4744 76.208 73.2718 75.696C73.0798 75.184 72.9838 74.6187 72.9838 74C72.9838 73.3813 73.0798 72.816 73.2718 72.304C73.4744 71.792 73.7518 71.3547 74.1038 70.992C74.4664 70.6293 74.8931 70.3467 75.3838 70.144C75.8744 69.9413 76.4078 69.84 76.9838 69.84C77.5598 69.84 78.0931 69.9413 78.5838 70.144C79.0744 70.3467 79.4958 70.6293 79.8478 70.992C80.2104 71.3547 80.4878 71.792 80.6798 72.304C80.8824 72.816 80.9838 73.3813 80.9838 74C80.9838 74.6187 80.8824 75.184 80.6798 75.696C80.4878 76.208 80.2104 76.6453 79.8478 77.008C79.4958 77.3707 79.0744 77.6533 78.5838 77.856C78.0931 78.0587 77.5598 78.16 76.9838 78.16ZM76.9838 76.72C77.3251 76.72 77.6398 76.656 77.9278 76.528C78.2264 76.4 78.4824 76.2187 78.6958 75.984C78.9091 75.7493 79.0744 75.4667 79.1918 75.136C79.3198 74.7947 79.3838 74.416 79.3838 74C79.3838 73.584 79.3198 73.2107 79.1918 72.88C79.0744 72.5387 78.9091 72.2507 78.6958 72.016C78.4824 71.7813 78.2264 71.6 77.9278 71.472C77.6398 71.344 77.3251 71.28 76.9838 71.28C76.6424 71.28 76.3224 71.344 76.0238 71.472C75.7358 71.6 75.4851 71.7813 75.2718 72.016C75.0584 72.2507 74.8878 72.5387 74.7598 72.88C74.6424 73.2107 74.5838 73.584 74.5838 74C74.5838 74.416 74.6424 74.7947 74.7598 75.136C74.8878 75.4667 75.0584 75.7493 75.2718 75.984C75.4851 76.2187 75.7358 76.4 76.0238 76.528C76.3224 76.656 76.6424 76.72 76.9838 76.72ZM82.665 70H84.025L84.185 70.72H84.265C84.329 70.6453 84.3983 70.5653 84.473 70.48C84.5477 70.3947 84.6383 70.3147 84.745 70.24C84.8623 70.1653 85.001 70.1067 85.161 70.064C85.3317 70.0213 85.5397 70 85.785 70H87.225V71.44H85.945C84.825 71.44 84.265 71.9947 84.265 73.104V78H82.665V70ZM91.7906 66.32H93.3906L88.9906 81.2H87.3906L91.7906 66.32ZM98.0306 78.16C97.4546 78.16 96.9213 78.0587 96.4306 77.856C95.94 77.6533 95.5133 77.3707 95.1506 77.008C94.7986 76.6453 94.5213 76.208 94.3186 75.696C94.1266 75.184 94.0306 74.6187 94.0306 74C94.0306 73.3813 94.1266 72.816 94.3186 72.304C94.5213 71.792 94.7986 71.3547 95.1506 70.992C95.5133 70.6293 95.94 70.3467 96.4306 70.144C96.9213 69.9413 97.4546 69.84 98.0306 69.84C98.628 69.84 99.1453 69.9413 99.5826 70.144C100.02 70.336 100.383 70.576 100.671 70.864C100.969 71.152 101.199 71.4667 101.359 71.808C101.529 72.1387 101.647 72.4427 101.711 72.72H100.111C100.047 72.5387 99.956 72.3627 99.8386 72.192C99.732 72.0213 99.5933 71.8667 99.4226 71.728C99.2626 71.5893 99.0653 71.4827 98.8306 71.408C98.596 71.3227 98.3293 71.28 98.0306 71.28C97.6893 71.28 97.3693 71.344 97.0706 71.472C96.7826 71.6 96.532 71.7813 96.3186 72.016C96.1053 72.2507 95.9346 72.5387 95.8066 72.88C95.6893 73.2107 95.6306 73.584 95.6306 74C95.6306 74.416 95.6893 74.7947 95.8066 75.136C95.9346 75.4667 96.1053 75.7493 96.3186 75.984C96.532 76.2187 96.7826 76.4 97.0706 76.528C97.3693 76.656 97.6893 76.72 98.0306 76.72C98.3506 76.72 98.628 76.672 98.8626 76.576C99.108 76.48 99.316 76.3573 99.4866 76.208C99.6573 76.048 99.7906 75.8827 99.8866 75.712C99.9933 75.5307 100.068 75.36 100.111 75.2H101.711C101.647 75.4987 101.529 75.824 101.359 76.176C101.199 76.5173 100.969 76.8373 100.671 77.136C100.383 77.424 100.02 77.6693 99.5826 77.872C99.1453 78.064 98.628 78.16 98.0306 78.16ZM106.906 78.16C106.33 78.16 105.796 78.0587 105.306 77.856C104.815 77.6533 104.388 77.3707 104.026 77.008C103.674 76.6453 103.396 76.208 103.194 75.696C103.002 75.184 102.906 74.6187 102.906 74C102.906 73.3813 103.002 72.816 103.194 72.304C103.396 71.792 103.674 71.3547 104.026 70.992C104.388 70.6293 104.815 70.3467 105.306 70.144C105.796 69.9413 106.33 69.84 106.906 69.84C107.482 69.84 108.015 69.9413 108.506 70.144C108.996 70.3467 109.418 70.6293 109.77 70.992C110.132 71.3547 110.41 71.792 110.602 72.304C110.804 72.816 110.906 73.3813 110.906 74C110.906 74.6187 110.804 75.184 110.602 75.696C110.41 76.208 110.132 76.6453 109.77 77.008C109.418 77.3707 108.996 77.6533 108.506 77.856C108.015 78.0587 107.482 78.16 106.906 78.16ZM106.906 76.72C107.247 76.72 107.562 76.656 107.85 76.528C108.148 76.4 108.404 76.2187 108.618 75.984C108.831 75.7493 108.996 75.4667 109.114 75.136C109.242 74.7947 109.306 74.416 109.306 74C109.306 73.584 109.242 73.2107 109.114 72.88C108.996 72.5387 108.831 72.2507 108.618 72.016C108.404 71.7813 108.148 71.6 107.85 71.472C107.562 71.344 107.247 71.28 106.906 71.28C106.564 71.28 106.244 71.344 105.946 71.472C105.658 71.6 105.407 71.7813 105.194 72.016C104.98 72.2507 104.81 72.5387 104.682 72.88C104.564 73.2107 104.506 73.584 104.506 74C104.506 74.416 104.564 74.7947 104.682 75.136C104.81 75.4667 104.98 75.7493 105.194 75.984C105.407 76.2187 105.658 76.4 105.946 76.528C106.244 76.656 106.564 76.72 106.906 76.72ZM112.587 70H114.027L114.187 70.8H114.267C114.438 70.6187 114.635 70.4587 114.859 70.32C115.051 70.2027 115.291 70.096 115.579 70C115.867 69.8933 116.203 69.84 116.587 69.84C117.067 69.84 117.504 69.92 117.899 70.08C118.294 70.2293 118.63 70.448 118.907 70.736C119.184 71.024 119.398 71.376 119.547 71.792C119.707 72.208 119.787 72.6773 119.787 73.2V78H118.187V73.2C118.187 72.944 118.139 72.6987 118.043 72.464C117.947 72.2293 117.814 72.0267 117.643 71.856C117.472 71.6747 117.27 71.536 117.035 71.44C116.8 71.3333 116.544 71.28 116.267 71.28C115.968 71.28 115.691 71.3333 115.435 71.44C115.179 71.536 114.96 71.6747 114.779 71.856C114.598 72.0267 114.454 72.2293 114.347 72.464C114.24 72.6987 114.187 72.944 114.187 73.2V78H112.587V70ZM121.79 70H123.23L123.39 70.8H123.47C123.641 70.6187 123.838 70.4587 124.062 70.32C124.254 70.2027 124.494 70.096 124.782 70C125.07 69.8933 125.406 69.84 125.79 69.84C126.27 69.84 126.707 69.92 127.102 70.08C127.497 70.2293 127.833 70.448 128.11 70.736C128.387 71.024 128.601 71.376 128.75 71.792C128.91 72.208 128.99 72.6773 128.99 73.2V78H127.39V73.2C127.39 72.944 127.342 72.6987 127.246 72.464C127.15 72.2293 127.017 72.0267 126.846 71.856C126.675 71.6747 126.473 71.536 126.238 71.44C126.003 71.3333 125.747 71.28 125.47 71.28C125.171 71.28 124.894 71.3333 124.638 71.44C124.382 71.536 124.163 71.6747 123.982 71.856C123.801 72.0267 123.657 72.2293 123.55 72.464C123.443 72.6987 123.39 72.944 123.39 73.2V78H121.79V70ZM134.593 78.16C134.017 78.16 133.484 78.0587 132.993 77.856C132.502 77.6533 132.076 77.3707 131.713 77.008C131.361 76.6453 131.084 76.208 130.881 75.696C130.689 75.184 130.593 74.6187 130.593 74C130.593 73.3813 130.689 72.816 130.881 72.304C131.084 71.792 131.361 71.3547 131.713 70.992C132.076 70.6293 132.502 70.3467 132.993 70.144C133.484 69.9413 134.017 69.84 134.593 69.84C135.137 69.84 135.638 69.9413 136.097 70.144C136.566 70.336 136.972 70.608 137.313 70.96C137.665 71.312 137.937 71.728 138.129 72.208C138.332 72.688 138.433 73.2053 138.433 73.76C138.433 73.8773 138.428 73.984 138.417 74.08C138.406 74.176 138.396 74.2613 138.385 74.336C138.374 74.4213 138.364 74.496 138.353 74.56H132.193C132.278 75.2427 132.54 75.7867 132.977 76.192C133.414 76.5973 133.953 76.8 134.593 76.8C134.828 76.8 135.046 76.768 135.249 76.704C135.462 76.64 135.649 76.5547 135.809 76.448C135.98 76.3413 136.124 76.224 136.241 76.096C136.358 75.9573 136.449 75.8187 136.513 75.68H138.193C138.097 75.936 137.953 76.2133 137.761 76.512C137.569 76.8 137.324 77.0667 137.025 77.312C136.726 77.5573 136.374 77.76 135.969 77.92C135.574 78.08 135.116 78.16 134.593 78.16ZM136.913 73.36C136.828 72.72 136.577 72.2027 136.161 71.808C135.756 71.4027 135.233 71.2 134.593 71.2C133.91 71.2 133.366 71.4027 132.961 71.808C132.566 72.2027 132.31 72.72 132.193 73.36H136.913ZM143.718 78.16C143.142 78.16 142.609 78.0587 142.118 77.856C141.627 77.6533 141.201 77.3707 140.838 77.008C140.486 76.6453 140.209 76.208 140.006 75.696C139.814 75.184 139.718 74.6187 139.718 74C139.718 73.3813 139.814 72.816 140.006 72.304C140.209 71.792 140.486 71.3547 140.838 70.992C141.201 70.6293 141.627 70.3467 142.118 70.144C142.609 69.9413 143.142 69.84 143.718 69.84C144.315 69.84 144.833 69.9413 145.27 70.144C145.707 70.336 146.07 70.576 146.358 70.864C146.657 71.152 146.886 71.4667 147.046 71.808C147.217 72.1387 147.334 72.4427 147.398 72.72H145.798C145.734 72.5387 145.643 72.3627 145.526 72.192C145.419 72.0213 145.281 71.8667 145.11 71.728C144.95 71.5893 144.753 71.4827 144.518 71.408C144.283 71.3227 144.017 71.28 143.718 71.28C143.377 71.28 143.057 71.344 142.758 71.472C142.47 71.6 142.219 71.7813 142.006 72.016C141.793 72.2507 141.622 72.5387 141.494 72.88C141.377 73.2107 141.318 73.584 141.318 74C141.318 74.416 141.377 74.7947 141.494 75.136C141.622 75.4667 141.793 75.7493 142.006 75.984C142.219 76.2187 142.47 76.4 142.758 76.528C143.057 76.656 143.377 76.72 143.718 76.72C144.038 76.72 144.315 76.672 144.55 76.576C144.795 76.48 145.003 76.3573 145.174 76.208C145.345 76.048 145.478 75.8827 145.574 75.712C145.681 75.5307 145.755 75.36 145.798 75.2H147.398C147.334 75.4987 147.217 75.824 147.046 76.176C146.886 76.5173 146.657 76.8373 146.358 77.136C146.07 77.424 145.707 77.6693 145.27 77.872C144.833 78.064 144.315 78.16 143.718 78.16ZM151.393 78C150.828 78 150.39 77.8507 150.081 77.552C149.782 77.2533 149.633 76.8427 149.633 76.32V71.52H148.353V70H149.633V67.76H151.233V70H153.073V71.52H151.233V76.08C151.233 76.4 151.393 76.56 151.713 76.56H153.073V78H151.393ZM154.517 72.72H159.797V74.16H154.517V72.72ZM160.676 70H162.356L163.876 75.92H164.196L165.764 70H167.908L169.476 75.92H169.796L171.316 70H172.996L170.836 78H168.516L166.996 72.24H166.676L165.156 78H162.836L160.676 70ZM177.64 78.16C177.064 78.16 176.531 78.0587 176.04 77.856C175.549 77.6533 175.123 77.3707 174.76 77.008C174.408 76.6453 174.131 76.208 173.928 75.696C173.736 75.184 173.64 74.6187 173.64 74C173.64 73.3813 173.736 72.816 173.928 72.304C174.131 71.792 174.408 71.3547 174.76 70.992C175.123 70.6293 175.549 70.3467 176.04 70.144C176.531 69.9413 177.064 69.84 177.64 69.84C178.184 69.84 178.685 69.9413 179.144 70.144C179.613 70.336 180.019 70.608 180.36 70.96C180.712 71.312 180.984 71.728 181.176 72.208C181.379 72.688 181.48 73.2053 181.48 73.76C181.48 73.8773 181.475 73.984 181.464 74.08C181.453 74.176 181.443 74.2613 181.432 74.336C181.421 74.4213 181.411 74.496 181.4 74.56H175.24C175.325 75.2427 175.587 75.7867 176.024 76.192C176.461 76.5973 177 76.8 177.64 76.8C177.875 76.8 178.093 76.768 178.296 76.704C178.509 76.64 178.696 76.5547 178.856 76.448C179.027 76.3413 179.171 76.224 179.288 76.096C179.405 75.9573 179.496 75.8187 179.56 75.68H181.24C181.144 75.936 181 76.2133 180.808 76.512C180.616 76.8 180.371 77.0667 180.072 77.312C179.773 77.5573 179.421 77.76 179.016 77.92C178.621 78.08 178.163 78.16 177.64 78.16ZM179.96 73.36C179.875 72.72 179.624 72.2027 179.208 71.808C178.803 71.4027 178.28 71.2 177.64 71.2C176.957 71.2 176.413 71.4027 176.008 71.808C175.613 72.2027 175.357 72.72 175.24 73.36H179.96ZM187.405 78.16C187.021 78.16 186.685 78.1173 186.397 78.032C186.12 77.9467 185.88 77.8453 185.677 77.728C185.485 77.6 185.325 77.4773 185.197 77.36C185.08 77.232 184.989 77.1253 184.925 77.04H184.845L184.685 78H183.245V66.8H184.845V70.96H184.925C184.989 70.8853 185.08 70.784 185.197 70.656C185.325 70.528 185.485 70.4053 185.677 70.288C185.88 70.16 186.12 70.0533 186.397 69.968C186.685 69.8827 187.021 69.84 187.405 69.84C187.928 69.84 188.413 69.936 188.861 70.128C189.309 70.32 189.698 70.5973 190.029 70.96C190.36 71.3227 190.616 71.76 190.797 72.272C190.989 72.784 191.085 73.36 191.085 74C191.085 74.64 190.989 75.216 190.797 75.728C190.616 76.24 190.36 76.6773 190.029 77.04C189.698 77.4027 189.309 77.68 188.861 77.872C188.413 78.064 187.928 78.16 187.405 78.16ZM187.165 76.72C187.485 76.72 187.784 76.656 188.061 76.528C188.349 76.4 188.594 76.2187 188.797 75.984C189.01 75.7493 189.176 75.4667 189.293 75.136C189.421 74.7947 189.485 74.416 189.485 74C189.485 73.584 189.421 73.2107 189.293 72.88C189.176 72.5387 189.01 72.2507 188.797 72.016C188.594 71.7813 188.349 71.6 188.061 71.472C187.784 71.344 187.485 71.28 187.165 71.28C186.845 71.28 186.541 71.344 186.253 71.472C185.976 71.6 185.73 71.7813 185.517 72.016C185.314 72.2507 185.149 72.5387 185.021 72.88C184.904 73.2107 184.845 73.584 184.845 74C184.845 74.416 184.904 74.7947 185.021 75.136C185.149 75.4667 185.314 75.7493 185.517 75.984C185.73 76.2187 185.976 76.4 186.253 76.528C186.541 76.656 186.845 76.72 187.165 76.72Z" fill="#616161"/>
<rect x="106.005" y="269.995" width="140" height="140" rx="8" transform="rotate(-45 106.005 269.995)" fill="#C6E7DD"/>
<path d="M178.313 247.395H184.163C184.703 247.395 185.195 247.485 185.639 247.665C186.083 247.833 186.461 248.073 186.773 248.385C187.085 248.685 187.325 249.051 187.493 249.483C187.673 249.915 187.763 250.389 187.763 250.905C187.763 251.385 187.697 251.793 187.565 252.129C187.433 252.465 187.289 252.741 187.133 252.957C186.941 253.209 186.731 253.425 186.503 253.605V253.695C186.767 253.863 187.007 254.079 187.223 254.343C187.403 254.571 187.565 254.859 187.709 255.207C187.865 255.555 187.943 255.981 187.943 256.485C187.943 257.001 187.853 257.475 187.673 257.907C187.505 258.339 187.265 258.711 186.953 259.023C186.641 259.323 186.263 259.563 185.819 259.743C185.375 259.911 184.883 259.995 184.343 259.995H178.313V247.395ZM184.073 257.925C184.481 257.925 184.835 257.769 185.135 257.457C185.447 257.145 185.603 256.761 185.603 256.305C185.603 255.849 185.447 255.465 185.135 255.153C184.835 254.841 184.481 254.685 184.073 254.685H180.653V257.925H184.073ZM183.893 252.615C184.349 252.615 184.715 252.477 184.991 252.201C185.279 251.913 185.423 251.541 185.423 251.085C185.423 250.581 185.279 250.185 184.991 249.897C184.715 249.609 184.349 249.465 183.893 249.465H180.653V252.615H183.893ZM190.016 250.815H191.906L192.086 251.625H192.176C192.284 251.481 192.416 251.349 192.572 251.229C192.704 251.133 192.872 251.043 193.076 250.959C193.28 250.863 193.52 250.815 193.796 250.815H195.596V252.975H193.976C192.836 252.975 192.266 253.545 192.266 254.685V259.995H190.016V250.815ZM196.941 250.815H199.191V259.995H196.941V250.815ZM196.851 247.215H199.281V249.375H196.851V247.215ZM205.309 260.175C204.721 260.175 204.169 260.061 203.653 259.833C203.149 259.605 202.705 259.287 202.321 258.879C201.937 258.459 201.631 257.955 201.403 257.367C201.187 256.779 201.079 256.125 201.079 255.405C201.079 254.685 201.187 254.031 201.403 253.443C201.631 252.855 201.937 252.357 202.321 251.949C202.705 251.529 203.149 251.205 203.653 250.977C204.169 250.749 204.721 250.635 205.309 250.635C205.765 250.635 206.155 250.701 206.479 250.833C206.803 250.953 207.073 251.085 207.289 251.229C207.541 251.397 207.751 251.589 207.919 251.805H208.009V247.395H210.259V259.995H208.279L208.099 259.005H208.009C207.829 259.233 207.613 259.431 207.361 259.599C207.145 259.743 206.863 259.875 206.515 259.995C206.179 260.115 205.777 260.175 205.309 260.175ZM205.669 258.105C206.353 258.105 206.911 257.871 207.343 257.403C207.787 256.935 208.009 256.269 208.009 255.405C208.009 254.541 207.787 253.875 207.343 253.407C206.911 252.939 206.353 252.705 205.669 252.705C204.985 252.705 204.421 252.939 203.977 253.407C203.545 253.875 203.329 254.541 203.329 255.405C203.329 256.269 203.545 256.935 203.977 257.403C204.421 257.871 204.985 258.105 205.669 258.105ZM216.831 263.775C215.931 263.775 215.199 263.631 214.635 263.343C214.071 263.055 213.633 262.719 213.321 262.335C213.009 261.963 212.793 261.591 212.673 261.219C212.565 260.859 212.511 260.601 212.511 260.445H214.851C214.875 260.553 214.923 260.685 214.995 260.841C215.067 260.997 215.181 261.147 215.337 261.291C215.493 261.435 215.691 261.555 215.931 261.651C216.171 261.747 216.471 261.795 216.831 261.795C217.467 261.795 217.983 261.609 218.379 261.237C218.787 260.865 218.991 260.361 218.991 259.725V258.465H218.901C218.733 258.657 218.529 258.825 218.289 258.969C218.085 259.101 217.821 259.215 217.497 259.311C217.173 259.407 216.801 259.455 216.381 259.455C215.793 259.455 215.247 259.347 214.743 259.131C214.239 258.915 213.801 258.615 213.429 258.231C213.057 257.847 212.763 257.385 212.547 256.845C212.343 256.293 212.241 255.693 212.241 255.045C212.241 254.397 212.343 253.803 212.547 253.263C212.763 252.711 213.057 252.243 213.429 251.859C213.801 251.475 214.239 251.175 214.743 250.959C215.247 250.743 215.793 250.635 216.381 250.635C216.837 250.635 217.227 250.695 217.551 250.815C217.875 250.923 218.145 251.043 218.361 251.175C218.613 251.331 218.823 251.511 218.991 251.715H219.081L219.261 250.815H221.241V259.743C221.241 260.343 221.139 260.889 220.935 261.381C220.731 261.885 220.437 262.311 220.053 262.659C219.669 263.019 219.201 263.295 218.649 263.487C218.109 263.679 217.503 263.775 216.831 263.775ZM216.741 257.475C217.053 257.475 217.347 257.415 217.623 257.295C217.899 257.175 218.139 257.013 218.343 256.809C218.547 256.593 218.703 256.335 218.811 256.035C218.931 255.735 218.991 255.405 218.991 255.045C218.991 254.685 218.931 254.355 218.811 254.055C218.703 253.755 218.547 253.503 218.343 253.299C218.139 253.083 217.899 252.915 217.623 252.795C217.347 252.675 217.053 252.615 216.741 252.615C216.429 252.615 216.135 252.675 215.859 252.795C215.583 252.915 215.343 253.083 215.139 253.299C214.935 253.503 214.773 253.755 214.653 254.055C214.545 254.355 214.491 254.685 214.491 255.045C214.491 255.405 214.545 255.735 214.653 256.035C214.773 256.335 214.935 256.593 215.139 256.809C215.343 257.013 215.583 257.175 215.859 257.295C216.135 257.415 216.429 257.475 216.741 257.475ZM227.82 260.175C227.148 260.175 226.524 260.061 225.948 259.833C225.372 259.593 224.874 259.263 224.454 258.843C224.046 258.411 223.722 257.907 223.482 257.331C223.254 256.743 223.14 256.101 223.14 255.405C223.14 254.709 223.254 254.073 223.482 253.497C223.722 252.909 224.046 252.405 224.454 251.985C224.874 251.553 225.372 251.223 225.948 250.995C226.524 250.755 227.148 250.635 227.82 250.635C228.444 250.635 229.032 250.755 229.584 250.995C230.136 251.223 230.61 251.541 231.006 251.949C231.414 252.357 231.732 252.843 231.96 253.407C232.2 253.971 232.32 254.577 232.32 255.225C232.32 255.357 232.314 255.477 232.302 255.585C232.29 255.693 232.278 255.789 232.266 255.873C232.254 255.969 232.242 256.053 232.23 256.125H225.39C225.486 256.761 225.756 257.283 226.2 257.691C226.644 258.087 227.184 258.285 227.82 258.285C228.084 258.285 228.324 258.249 228.54 258.177C228.756 258.105 228.942 258.021 229.098 257.925C229.254 257.829 229.38 257.727 229.476 257.619C229.584 257.499 229.662 257.391 229.71 257.295H232.05C232.002 257.475 231.888 257.727 231.708 258.051C231.54 258.375 231.288 258.693 230.952 259.005C230.616 259.317 230.19 259.593 229.674 259.833C229.158 260.061 228.54 260.175 227.82 260.175ZM230.07 254.595C229.974 254.007 229.734 253.515 229.35 253.119C228.966 252.723 228.456 252.525 227.82 252.525C227.136 252.525 226.59 252.723 226.182 253.119C225.786 253.515 225.522 254.007 225.39 254.595H230.07ZM173.51 276.815H175.4L175.58 277.625H175.67C175.778 277.481 175.91 277.349 176.066 277.229C176.198 277.133 176.366 277.043 176.57 276.959C176.774 276.863 177.014 276.815 177.29 276.815H179.09V278.975H177.47C176.33 278.975 175.76 279.545 175.76 280.685V285.995H173.51V276.815ZM184.036 286.175C183.52 286.175 183.04 286.085 182.596 285.905C182.164 285.713 181.786 285.449 181.462 285.113C181.138 284.777 180.886 284.375 180.706 283.907C180.526 283.427 180.436 282.893 180.436 282.305V276.815H182.686V282.125C182.686 282.713 182.866 283.193 183.226 283.565C183.598 283.925 184.078 284.105 184.666 284.105C185.254 284.105 185.728 283.925 186.088 283.565C186.46 283.193 186.646 282.713 186.646 282.125V276.815H188.896V285.995H186.826L186.646 285.095H186.556C186.388 285.299 186.184 285.479 185.944 285.635C185.74 285.767 185.476 285.887 185.152 285.995C184.828 286.115 184.456 286.175 184.036 286.175ZM191.229 276.815H193.299L193.479 277.715H193.569C193.737 277.511 193.941 277.331 194.181 277.175C194.385 277.043 194.643 276.923 194.955 276.815C195.279 276.695 195.657 276.635 196.089 276.635C196.605 276.635 197.079 276.731 197.511 276.923C197.955 277.103 198.339 277.361 198.663 277.697C198.987 278.033 199.239 278.441 199.419 278.921C199.599 279.389 199.689 279.917 199.689 280.505V285.995H197.439V280.685C197.439 280.097 197.253 279.623 196.881 279.263C196.521 278.891 196.047 278.705 195.459 278.705C194.871 278.705 194.391 278.891 194.019 279.263C193.659 279.623 193.479 280.097 193.479 280.685V285.995H191.229V276.815ZM201.934 276.815H204.004L204.184 277.715H204.274C204.442 277.511 204.646 277.331 204.886 277.175C205.09 277.043 205.348 276.923 205.66 276.815C205.984 276.695 206.362 276.635 206.794 276.635C207.31 276.635 207.784 276.731 208.216 276.923C208.66 277.103 209.044 277.361 209.368 277.697C209.692 278.033 209.944 278.441 210.124 278.921C210.304 279.389 210.394 279.917 210.394 280.505V285.995H208.144V280.685C208.144 280.097 207.958 279.623 207.586 279.263C207.226 278.891 206.752 278.705 206.164 278.705C205.576 278.705 205.096 278.891 204.724 279.263C204.364 279.623 204.184 280.097 204.184 280.685V285.995H201.934V276.815ZM212.639 276.815H214.889V285.995H212.639V276.815ZM212.549 273.215H214.979V275.375H212.549V273.215ZM217.227 276.815H219.297L219.477 277.715H219.567C219.735 277.511 219.939 277.331 220.179 277.175C220.383 277.043 220.641 276.923 220.953 276.815C221.277 276.695 221.655 276.635 222.087 276.635C222.603 276.635 223.077 276.731 223.509 276.923C223.953 277.103 224.337 277.361 224.661 277.697C224.985 278.033 225.237 278.441 225.417 278.921C225.597 279.389 225.687 279.917 225.687 280.505V285.995H223.437V280.685C223.437 280.097 223.251 279.623 222.879 279.263C222.519 278.891 222.045 278.705 221.457 278.705C220.869 278.705 220.389 278.891 220.017 279.263C219.657 279.623 219.477 280.097 219.477 280.685V285.995H217.227V276.815ZM232.072 289.775C231.172 289.775 230.44 289.631 229.876 289.343C229.312 289.055 228.874 288.719 228.562 288.335C228.25 287.963 228.034 287.591 227.914 287.219C227.806 286.859 227.752 286.601 227.752 286.445H230.092C230.116 286.553 230.164 286.685 230.236 286.841C230.308 286.997 230.422 287.147 230.578 287.291C230.734 287.435 230.932 287.555 231.172 287.651C231.412 287.747 231.712 287.795 232.072 287.795C232.708 287.795 233.224 287.609 233.62 287.237C234.028 286.865 234.232 286.361 234.232 285.725V284.465H234.142C233.974 284.657 233.77 284.825 233.53 284.969C233.326 285.101 233.062 285.215 232.738 285.311C232.414 285.407 232.042 285.455 231.622 285.455C231.034 285.455 230.488 285.347 229.984 285.131C229.48 284.915 229.042 284.615 228.67 284.231C228.298 283.847 228.004 283.385 227.788 282.845C227.584 282.293 227.482 281.693 227.482 281.045C227.482 280.397 227.584 279.803 227.788 279.263C228.004 278.711 228.298 278.243 228.67 277.859C229.042 277.475 229.48 277.175 229.984 276.959C230.488 276.743 231.034 276.635 231.622 276.635C232.078 276.635 232.468 276.695 232.792 276.815C233.116 276.923 233.386 277.043 233.602 277.175C233.854 277.331 234.064 277.511 234.232 277.715H234.322L234.502 276.815H236.482V285.743C236.482 286.343 236.38 286.889 236.176 287.381C235.972 287.885 235.678 288.311 235.294 288.659C234.91 289.019 234.442 289.295 233.89 289.487C233.35 289.679 232.744 289.775 232.072 289.775ZM231.982 283.475C232.294 283.475 232.588 283.415 232.864 283.295C233.14 283.175 233.38 283.013 233.584 282.809C233.788 282.593 233.944 282.335 234.052 282.035C234.172 281.735 234.232 281.405 234.232 281.045C234.232 280.685 234.172 280.355 234.052 280.055C233.944 279.755 233.788 279.503 233.584 279.299C233.38 279.083 233.14 278.915 232.864 278.795C232.588 278.675 232.294 278.615 231.982 278.615C231.67 278.615 231.376 278.675 231.1 278.795C230.824 278.915 230.584 279.083 230.38 279.299C230.176 279.503 230.014 279.755 229.894 280.055C229.786 280.355 229.732 280.685 229.732 281.045C229.732 281.405 229.786 281.735 229.894 282.035C230.014 282.335 230.176 282.593 230.38 282.809C230.584 283.013 230.824 283.175 231.1 283.295C231.376 283.415 231.67 283.475 231.982 283.475Z" fill="#171717"/>
<rect x="369" y="117.995" width="140" height="140" rx="8" transform="rotate(-45 369 117.995)" fill="#C6E7DD"/>
<path d="M430.915 95.3949H433.525L435.685 104.215H436.045L438.295 95.3949H440.995L443.245 104.215H443.605L445.765 95.3949H448.375L445.225 107.995H441.985L439.825 99.3549H439.465L437.305 107.995H434.065L430.915 95.3949ZM453.522 108.175C452.85 108.175 452.226 108.061 451.65 107.833C451.074 107.593 450.576 107.263 450.156 106.843C449.748 106.411 449.424 105.907 449.184 105.331C448.956 104.743 448.842 104.101 448.842 103.405C448.842 102.709 448.956 102.073 449.184 101.497C449.424 100.909 449.748 100.405 450.156 99.9849C450.576 99.5529 451.074 99.2229 451.65 98.9949C452.226 98.7549 452.85 98.6349 453.522 98.6349C454.146 98.6349 454.734 98.7549 455.286 98.9949C455.838 99.2229 456.312 99.5409 456.708 99.9489C457.116 100.357 457.434 100.843 457.662 101.407C457.902 101.971 458.022 102.577 458.022 103.225C458.022 103.357 458.016 103.477 458.004 103.585C457.992 103.693 457.98 103.789 457.968 103.873C457.956 103.969 457.944 104.053 457.932 104.125H451.092C451.188 104.761 451.458 105.283 451.902 105.691C452.346 106.087 452.886 106.285 453.522 106.285C453.786 106.285 454.026 106.249 454.242 106.177C454.458 106.105 454.644 106.021 454.8 105.925C454.956 105.829 455.082 105.727 455.178 105.619C455.286 105.499 455.364 105.391 455.412 105.295H457.752C457.704 105.475 457.59 105.727 457.41 106.051C457.242 106.375 456.99 106.693 456.654 107.005C456.318 107.317 455.892 107.593 455.376 107.833C454.86 108.061 454.242 108.175 453.522 108.175ZM455.772 102.595C455.676 102.007 455.436 101.515 455.052 101.119C454.668 100.723 454.158 100.525 453.522 100.525C452.838 100.525 452.292 100.723 451.884 101.119C451.488 101.515 451.224 102.007 451.092 102.595H455.772ZM464.949 108.175C464.469 108.175 464.061 108.115 463.725 107.995C463.389 107.875 463.113 107.743 462.897 107.599C462.645 107.431 462.429 107.233 462.249 107.005H462.159L461.979 107.995H459.999V95.3949H462.249V99.8049H462.339C462.507 99.5889 462.717 99.3969 462.969 99.2289C463.185 99.0849 463.455 98.9529 463.779 98.8329C464.103 98.7009 464.493 98.6349 464.949 98.6349C465.537 98.6349 466.083 98.7489 466.587 98.9769C467.103 99.2049 467.553 99.5289 467.937 99.9489C468.321 100.357 468.621 100.855 468.837 101.443C469.065 102.031 469.179 102.685 469.179 103.405C469.179 104.125 469.065 104.779 468.837 105.367C468.621 105.955 468.321 106.459 467.937 106.879C467.553 107.287 467.103 107.605 466.587 107.833C466.083 108.061 465.537 108.175 464.949 108.175ZM464.589 106.105C465.273 106.105 465.831 105.871 466.263 105.403C466.707 104.935 466.929 104.269 466.929 103.405C466.929 102.541 466.707 101.875 466.263 101.407C465.831 100.939 465.273 100.705 464.589 100.705C463.905 100.705 463.341 100.939 462.897 101.407C462.465 101.875 462.249 102.541 462.249 103.405C462.249 104.269 462.465 104.935 462.897 105.403C463.341 105.871 463.905 106.105 464.589 106.105ZM476.381 108.175C475.589 108.175 474.869 108.049 474.221 107.797C473.585 107.545 473.039 107.191 472.583 106.735C472.127 106.279 471.773 105.727 471.521 105.079C471.281 104.419 471.161 103.681 471.161 102.865V95.3949H473.501V102.865C473.501 103.321 473.573 103.735 473.717 104.107C473.873 104.479 474.077 104.803 474.329 105.079C474.593 105.343 474.899 105.553 475.247 105.709C475.595 105.853 475.973 105.925 476.381 105.925C476.789 105.925 477.167 105.853 477.515 105.709C477.863 105.553 478.163 105.343 478.415 105.079C478.679 104.803 478.883 104.479 479.027 104.107C479.183 103.735 479.261 103.321 479.261 102.865V95.3949H481.601V102.865C481.601 103.681 481.475 104.419 481.223 105.079C480.983 105.727 480.635 106.279 480.179 106.735C479.723 107.191 479.171 107.545 478.523 107.797C477.887 108.049 477.173 108.175 476.381 108.175ZM488.616 108.175C487.8 108.175 487.074 108.073 486.438 107.869C485.814 107.653 485.28 107.359 484.836 106.987C484.392 106.615 484.056 106.177 483.828 105.673C483.6 105.169 483.486 104.623 483.486 104.035H485.826C485.826 104.311 485.892 104.569 486.024 104.809C486.156 105.049 486.342 105.259 486.582 105.439C486.822 105.619 487.11 105.763 487.446 105.871C487.794 105.967 488.184 106.015 488.616 106.015C489.516 106.015 490.158 105.859 490.542 105.547C490.938 105.235 491.136 104.851 491.136 104.395C491.136 104.215 491.1 104.041 491.028 103.873C490.968 103.705 490.86 103.555 490.704 103.423C490.548 103.279 490.338 103.153 490.074 103.045C489.81 102.937 489.474 102.847 489.066 102.775L486.906 102.415C485.814 102.235 485.016 101.845 484.512 101.245C484.008 100.645 483.756 99.8949 483.756 98.9949C483.756 98.4789 483.858 97.9929 484.062 97.5369C484.278 97.0689 484.584 96.6669 484.98 96.3309C485.376 95.9829 485.862 95.7129 486.438 95.5209C487.026 95.3169 487.692 95.2149 488.436 95.2149C489.24 95.2149 489.948 95.3229 490.56 95.5389C491.172 95.7429 491.676 96.0309 492.072 96.4029C492.48 96.7749 492.786 97.2129 492.99 97.7169C493.194 98.2209 493.296 98.7669 493.296 99.3549H490.956C490.956 98.8149 490.74 98.3529 490.308 97.9689C489.876 97.5729 489.252 97.3749 488.436 97.3749C487.62 97.3749 487.026 97.5309 486.654 97.8429C486.282 98.1549 486.096 98.5389 486.096 98.9949C486.096 99.3549 486.21 99.6549 486.438 99.8949C486.678 100.135 487.134 100.315 487.806 100.435L489.786 100.795C491.058 101.023 491.988 101.419 492.576 101.983C493.176 102.547 493.476 103.351 493.476 104.395C493.476 104.935 493.374 105.439 493.17 105.907C492.966 106.363 492.66 106.759 492.252 107.095C491.856 107.431 491.352 107.695 490.74 107.887C490.128 108.079 489.42 108.175 488.616 108.175ZM495.632 95.3949H501.482C502.022 95.3949 502.514 95.4849 502.958 95.6649C503.402 95.8329 503.78 96.0729 504.092 96.3849C504.404 96.6849 504.644 97.0509 504.812 97.4829C504.992 97.9149 505.082 98.3889 505.082 98.9049C505.082 99.3849 505.016 99.7929 504.884 100.129C504.752 100.465 504.608 100.741 504.452 100.957C504.26 101.209 504.05 101.425 503.822 101.605V101.695C504.086 101.863 504.326 102.079 504.542 102.343C504.722 102.571 504.884 102.859 505.028 103.207C505.184 103.555 505.262 103.981 505.262 104.485C505.262 105.001 505.172 105.475 504.992 105.907C504.824 106.339 504.584 106.711 504.272 107.023C503.96 107.323 503.582 107.563 503.138 107.743C502.694 107.911 502.202 107.995 501.662 107.995H495.632V95.3949ZM501.392 105.925C501.8 105.925 502.154 105.769 502.454 105.457C502.766 105.145 502.922 104.761 502.922 104.305C502.922 103.849 502.766 103.465 502.454 103.153C502.154 102.841 501.8 102.685 501.392 102.685H497.972V105.925H501.392ZM501.212 100.615C501.668 100.615 502.034 100.477 502.31 100.201C502.598 99.9129 502.742 99.5409 502.742 99.0849C502.742 98.5809 502.598 98.1849 502.31 97.8969C502.034 97.6089 501.668 97.4649 501.212 97.4649H497.972V100.615H501.212ZM428.9 134.175C428.048 134.175 427.358 134.049 426.83 133.797C426.314 133.545 425.912 133.257 425.624 132.933C425.348 132.597 425.162 132.267 425.066 131.943C424.982 131.607 424.94 131.361 424.94 131.205H427.1C427.1 131.313 427.136 131.439 427.208 131.583C427.28 131.715 427.388 131.841 427.532 131.961C427.676 132.081 427.862 132.183 428.09 132.267C428.318 132.339 428.588 132.375 428.9 132.375C429.536 132.375 429.98 132.279 430.232 132.087C430.484 131.895 430.61 131.661 430.61 131.385C430.61 131.109 430.526 130.893 430.358 130.737C430.19 130.569 429.854 130.443 429.35 130.359L427.91 130.125C426.962 129.969 426.23 129.687 425.714 129.279C425.198 128.871 424.94 128.283 424.94 127.515C424.94 127.131 425.024 126.765 425.192 126.417C425.36 126.069 425.606 125.763 425.93 125.499C426.254 125.235 426.656 125.025 427.136 124.869C427.616 124.713 428.174 124.635 428.81 124.635C429.482 124.635 430.058 124.743 430.538 124.959C431.03 125.163 431.432 125.415 431.744 125.715C432.068 126.015 432.302 126.339 432.446 126.687C432.602 127.035 432.68 127.341 432.68 127.605H430.52C430.52 127.329 430.37 127.065 430.07 126.813C429.77 126.561 429.35 126.435 428.81 126.435C428.27 126.435 427.862 126.549 427.586 126.777C427.322 126.993 427.19 127.239 427.19 127.515C427.19 127.947 427.61 128.229 428.45 128.361L429.98 128.595C430.928 128.739 431.642 129.039 432.122 129.495C432.614 129.939 432.86 130.569 432.86 131.385C432.86 131.769 432.776 132.129 432.608 132.465C432.452 132.801 432.212 133.095 431.888 133.347C431.564 133.599 431.15 133.803 430.646 133.959C430.154 134.103 429.572 134.175 428.9 134.175ZM438.258 134.175C437.742 134.175 437.262 134.085 436.818 133.905C436.386 133.713 436.008 133.449 435.684 133.113C435.36 132.777 435.108 132.375 434.928 131.907C434.748 131.427 434.658 130.893 434.658 130.305V124.815H436.908V130.125C436.908 130.713 437.088 131.193 437.448 131.565C437.82 131.925 438.3 132.105 438.888 132.105C439.476 132.105 439.95 131.925 440.31 131.565C440.682 131.193 440.868 130.713 440.868 130.125V124.815H443.118V133.995H441.048L440.868 133.095H440.778C440.61 133.299 440.406 133.479 440.166 133.635C439.962 133.767 439.698 133.887 439.374 133.995C439.05 134.115 438.678 134.175 438.258 134.175ZM445.451 124.815H447.521L447.701 125.805H447.791C447.959 125.589 448.169 125.397 448.421 125.229C448.637 125.085 448.907 124.953 449.231 124.833C449.555 124.701 449.945 124.635 450.401 124.635C450.989 124.635 451.535 124.749 452.039 124.977C452.555 125.205 453.005 125.529 453.389 125.949C453.773 126.357 454.073 126.855 454.289 127.443C454.517 128.031 454.631 128.685 454.631 129.405C454.631 130.125 454.517 130.779 454.289 131.367C454.073 131.955 453.773 132.459 453.389 132.879C453.005 133.287 452.555 133.605 452.039 133.833C451.535 134.061 450.989 134.175 450.401 134.175C449.921 134.175 449.513 134.115 449.177 133.995C448.853 133.887 448.589 133.767 448.385 133.635C448.145 133.479 447.947 133.299 447.791 133.095H447.701V137.595H445.451V124.815ZM450.041 132.105C450.725 132.105 451.283 131.871 451.715 131.403C452.159 130.935 452.381 130.269 452.381 129.405C452.381 128.541 452.159 127.875 451.715 127.407C451.283 126.939 450.725 126.705 450.041 126.705C449.357 126.705 448.793 126.939 448.349 127.407C447.917 127.875 447.701 128.541 447.701 129.405C447.701 130.269 447.917 130.935 448.349 131.403C448.793 131.871 449.357 132.105 450.041 132.105ZM456.525 124.815H458.595L458.775 125.805H458.865C459.033 125.589 459.243 125.397 459.495 125.229C459.711 125.085 459.981 124.953 460.305 124.833C460.629 124.701 461.019 124.635 461.475 124.635C462.063 124.635 462.609 124.749 463.113 124.977C463.629 125.205 464.079 125.529 464.463 125.949C464.847 126.357 465.147 126.855 465.363 127.443C465.591 128.031 465.705 128.685 465.705 129.405C465.705 130.125 465.591 130.779 465.363 131.367C465.147 131.955 464.847 132.459 464.463 132.879C464.079 133.287 463.629 133.605 463.113 133.833C462.609 134.061 462.063 134.175 461.475 134.175C460.995 134.175 460.587 134.115 460.251 133.995C459.927 133.887 459.663 133.767 459.459 133.635C459.219 133.479 459.021 133.299 458.865 133.095H458.775V137.595H456.525V124.815ZM461.115 132.105C461.799 132.105 462.357 131.871 462.789 131.403C463.233 130.935 463.455 130.269 463.455 129.405C463.455 128.541 463.233 127.875 462.789 127.407C462.357 126.939 461.799 126.705 461.115 126.705C460.431 126.705 459.867 126.939 459.423 127.407C458.991 127.875 458.775 128.541 458.775 129.405C458.775 130.269 458.991 130.935 459.423 131.403C459.867 131.871 460.431 132.105 461.115 132.105ZM471.83 134.175C471.158 134.175 470.534 134.061 469.958 133.833C469.382 133.593 468.884 133.263 468.464 132.843C468.056 132.411 467.732 131.907 467.492 131.331C467.264 130.743 467.15 130.101 467.15 129.405C467.15 128.709 467.264 128.073 467.492 127.497C467.732 126.909 468.056 126.405 468.464 125.985C468.884 125.553 469.382 125.223 469.958 124.995C470.534 124.755 471.158 124.635 471.83 124.635C472.502 124.635 473.126 124.755 473.702 124.995C474.278 125.223 474.77 125.553 475.178 125.985C475.598 126.405 475.922 126.909 476.15 127.497C476.39 128.073 476.51 128.709 476.51 129.405C476.51 130.101 476.39 130.743 476.15 131.331C475.922 131.907 475.598 132.411 475.178 132.843C474.77 133.263 474.278 133.593 473.702 133.833C473.126 134.061 472.502 134.175 471.83 134.175ZM471.83 132.105C472.166 132.105 472.478 132.039 472.766 131.907C473.066 131.775 473.324 131.595 473.54 131.367C473.768 131.127 473.942 130.845 474.062 130.521C474.194 130.185 474.26 129.813 474.26 129.405C474.26 128.997 474.194 128.631 474.062 128.307C473.942 127.971 473.768 127.689 473.54 127.461C473.324 127.221 473.066 127.035 472.766 126.903C472.478 126.771 472.166 126.705 471.83 126.705C471.494 126.705 471.176 126.771 470.876 126.903C470.588 127.035 470.33 127.221 470.102 127.461C469.886 127.689 469.712 127.971 469.58 128.307C469.46 128.631 469.4 128.997 469.4 129.405C469.4 129.813 469.46 130.185 469.58 130.521C469.712 130.845 469.886 131.127 470.102 131.367C470.33 131.595 470.588 131.775 470.876 131.907C471.176 132.039 471.494 132.105 471.83 132.105ZM478.393 124.815H480.283L480.463 125.625H480.553C480.661 125.481 480.793 125.349 480.949 125.229C481.081 125.133 481.249 125.043 481.453 124.959C481.657 124.863 481.897 124.815 482.173 124.815H483.973V126.975H482.353C481.213 126.975 480.643 127.545 480.643 128.685V133.995H478.393V124.815ZM488.378 133.995C487.61 133.995 487.028 133.809 486.632 133.437C486.236 133.053 486.038 132.519 486.038 131.835V126.975H484.598V124.815H486.038V122.205H488.288V124.815H490.358V126.975H488.288V131.385C488.288 131.805 488.498 132.015 488.918 132.015H490.358V133.995H488.378ZM496.21 134.175C495.538 134.175 494.914 134.061 494.338 133.833C493.762 133.593 493.264 133.263 492.844 132.843C492.436 132.411 492.112 131.907 491.872 131.331C491.644 130.743 491.53 130.101 491.53 129.405C491.53 128.709 491.644 128.073 491.872 127.497C492.112 126.909 492.436 126.405 492.844 125.985C493.264 125.553 493.762 125.223 494.338 124.995C494.914 124.755 495.538 124.635 496.21 124.635C496.834 124.635 497.422 124.755 497.974 124.995C498.526 125.223 499 125.541 499.396 125.949C499.804 126.357 500.122 126.843 500.35 127.407C500.59 127.971 500.71 128.577 500.71 129.225C500.71 129.357 500.704 129.477 500.692 129.585C500.68 129.693 500.668 129.789 500.656 129.873C500.644 129.969 500.632 130.053 500.62 130.125H493.78C493.876 130.761 494.146 131.283 494.59 131.691C495.034 132.087 495.574 132.285 496.21 132.285C496.474 132.285 496.714 132.249 496.93 132.177C497.146 132.105 497.332 132.021 497.488 131.925C497.644 131.829 497.77 131.727 497.866 131.619C497.974 131.499 498.052 131.391 498.1 131.295H500.44C500.392 131.475 500.278 131.727 500.098 132.051C499.93 132.375 499.678 132.693 499.342 133.005C499.006 133.317 498.58 133.593 498.064 133.833C497.548 134.061 496.93 134.175 496.21 134.175ZM498.46 128.595C498.364 128.007 498.124 127.515 497.74 127.119C497.356 126.723 496.846 126.525 496.21 126.525C495.526 126.525 494.98 126.723 494.572 127.119C494.176 127.515 493.912 128.007 493.78 128.595H498.46ZM506.378 134.175C505.79 134.175 505.238 134.061 504.722 133.833C504.218 133.605 503.774 133.287 503.39 132.879C503.006 132.459 502.7 131.955 502.472 131.367C502.256 130.779 502.148 130.125 502.148 129.405C502.148 128.685 502.256 128.031 502.472 127.443C502.7 126.855 503.006 126.357 503.39 125.949C503.774 125.529 504.218 125.205 504.722 124.977C505.238 124.749 505.79 124.635 506.378 124.635C506.834 124.635 507.224 124.701 507.548 124.833C507.872 124.953 508.142 125.085 508.358 125.229C508.61 125.397 508.82 125.589 508.988 125.805H509.078V121.395H511.328V133.995H509.348L509.168 133.005H509.078C508.898 133.233 508.682 133.431 508.43 133.599C508.214 133.743 507.932 133.875 507.584 133.995C507.248 134.115 506.846 134.175 506.378 134.175ZM506.738 132.105C507.422 132.105 507.98 131.871 508.412 131.403C508.856 130.935 509.078 130.269 509.078 129.405C509.078 128.541 508.856 127.875 508.412 127.407C507.98 126.939 507.422 126.705 506.738 126.705C506.054 126.705 505.49 126.939 505.046 127.407C504.614 127.875 504.398 128.541 504.398 129.405C504.398 130.269 504.614 130.935 505.046 131.403C505.49 131.871 506.054 132.105 506.738 132.105Z" fill="#171717"/>
<path d="M276.379 87.4H279.529L284.119 96.13H284.479V87.4H286.819V100H283.669L279.079 91.27H278.719V100H276.379V87.4ZM293.578 100.18C292.906 100.18 292.282 100.066 291.706 99.838C291.13 99.598 290.632 99.268 290.212 98.848C289.804 98.416 289.48 97.912 289.24 97.336C289.012 96.748 288.898 96.106 288.898 95.41C288.898 94.714 289.012 94.078 289.24 93.502C289.48 92.914 289.804 92.41 290.212 91.99C290.632 91.558 291.13 91.228 291.706 91C292.282 90.76 292.906 90.64 293.578 90.64C294.25 90.64 294.874 90.76 295.45 91C296.026 91.228 296.518 91.558 296.926 91.99C297.346 92.41 297.67 92.914 297.898 93.502C298.138 94.078 298.258 94.714 298.258 95.41C298.258 96.106 298.138 96.748 297.898 97.336C297.67 97.912 297.346 98.416 296.926 98.848C296.518 99.268 296.026 99.598 295.45 99.838C294.874 100.066 294.25 100.18 293.578 100.18ZM293.578 98.11C293.914 98.11 294.226 98.044 294.514 97.912C294.814 97.78 295.072 97.6 295.288 97.372C295.516 97.132 295.69 96.85 295.81 96.526C295.942 96.19 296.008 95.818 296.008 95.41C296.008 95.002 295.942 94.636 295.81 94.312C295.69 93.976 295.516 93.694 295.288 93.466C295.072 93.226 294.814 93.04 294.514 92.908C294.226 92.776 293.914 92.71 293.578 92.71C293.242 92.71 292.924 92.776 292.624 92.908C292.336 93.04 292.078 93.226 291.85 93.466C291.634 93.694 291.46 93.976 291.328 94.312C291.208 94.636 291.148 95.002 291.148 95.41C291.148 95.818 291.208 96.19 291.328 96.526C291.46 96.85 291.634 97.132 291.85 97.372C292.078 97.6 292.336 97.78 292.624 97.912C292.924 98.044 293.242 98.11 293.578 98.11Z" fill="#171717"/>
<path d="M606.513 96.68L601.923 88.4H604.533L607.503 93.8H607.863L610.833 88.4H613.443L608.853 96.68V101H606.513V96.68ZM617.592 101.18C616.92 101.18 616.296 101.066 615.72 100.838C615.144 100.598 614.646 100.268 614.226 99.848C613.818 99.416 613.494 98.912 613.254 98.336C613.026 97.748 612.912 97.106 612.912 96.41C612.912 95.714 613.026 95.078 613.254 94.502C613.494 93.914 613.818 93.41 614.226 92.99C614.646 92.558 615.144 92.228 615.72 92C616.296 91.76 616.92 91.64 617.592 91.64C618.216 91.64 618.804 91.76 619.356 92C619.908 92.228 620.382 92.546 620.778 92.954C621.186 93.362 621.504 93.848 621.732 94.412C621.972 94.976 622.092 95.582 622.092 96.23C622.092 96.362 622.086 96.482 622.074 96.59C622.062 96.698 622.05 96.794 622.038 96.878C622.026 96.974 622.014 97.058 622.002 97.13H615.162C615.258 97.766 615.528 98.288 615.972 98.696C616.416 99.092 616.956 99.29 617.592 99.29C617.856 99.29 618.096 99.254 618.312 99.182C618.528 99.11 618.714 99.026 618.87 98.93C619.026 98.834 619.152 98.732 619.248 98.624C619.356 98.504 619.434 98.396 619.482 98.3H621.822C621.774 98.48 621.66 98.732 621.48 99.056C621.312 99.38 621.06 99.698 620.724 100.01C620.388 100.322 619.962 100.598 619.446 100.838C618.93 101.066 618.312 101.18 617.592 101.18ZM619.842 95.6C619.746 95.012 619.506 94.52 619.122 94.124C618.738 93.728 618.228 93.53 617.592 93.53C616.908 93.53 616.362 93.728 615.954 94.124C615.558 94.52 615.294 95.012 615.162 95.6H619.842ZM627.31 101.18C626.458 101.18 625.768 101.054 625.24 100.802C624.724 100.55 624.322 100.262 624.034 99.938C623.758 99.602 623.572 99.272 623.476 98.948C623.392 98.612 623.35 98.366 623.35 98.21H625.51C625.51 98.318 625.546 98.444 625.618 98.588C625.69 98.72 625.798 98.846 625.942 98.966C626.086 99.086 626.272 99.188 626.5 99.272C626.728 99.344 626.998 99.38 627.31 99.38C627.946 99.38 628.39 99.284 628.642 99.092C628.894 98.9 629.02 98.666 629.02 98.39C629.02 98.114 628.936 97.898 628.768 97.742C628.6 97.574 628.264 97.448 627.76 97.364L626.32 97.13C625.372 96.974 624.64 96.692 624.124 96.284C623.608 95.876 623.35 95.288 623.35 94.52C623.35 94.136 623.434 93.77 623.602 93.422C623.77 93.074 624.016 92.768 624.34 92.504C624.664 92.24 625.066 92.03 625.546 91.874C626.026 91.718 626.584 91.64 627.22 91.64C627.892 91.64 628.468 91.748 628.948 91.964C629.44 92.168 629.842 92.42 630.154 92.72C630.478 93.02 630.712 93.344 630.856 93.692C631.012 94.04 631.09 94.346 631.09 94.61H628.93C628.93 94.334 628.78 94.07 628.48 93.818C628.18 93.566 627.76 93.44 627.22 93.44C626.68 93.44 626.272 93.554 625.996 93.782C625.732 93.998 625.6 94.244 625.6 94.52C625.6 94.952 626.02 95.234 626.86 95.366L628.39 95.6C629.338 95.744 630.052 96.044 630.532 96.5C631.024 96.944 631.27 97.574 631.27 98.39C631.27 98.774 631.186 99.134 631.018 99.47C630.862 99.806 630.622 100.1 630.298 100.352C629.974 100.604 629.56 100.808 629.056 100.964C628.564 101.108 627.982 101.18 627.31 101.18Z" fill="#171717"/>
<path d="M276.513 444.68L271.923 436.4H274.533L277.503 441.8H277.863L280.833 436.4H283.443L278.853 444.68V449H276.513V444.68ZM287.592 449.18C286.92 449.18 286.296 449.066 285.72 448.838C285.144 448.598 284.646 448.268 284.226 447.848C283.818 447.416 283.494 446.912 283.254 446.336C283.026 445.748 282.912 445.106 282.912 444.41C282.912 443.714 283.026 443.078 283.254 442.502C283.494 441.914 283.818 441.41 284.226 440.99C284.646 440.558 285.144 440.228 285.72 440C286.296 439.76 286.92 439.64 287.592 439.64C288.216 439.64 288.804 439.76 289.356 440C289.908 440.228 290.382 440.546 290.778 440.954C291.186 441.362 291.504 441.848 291.732 442.412C291.972 442.976 292.092 443.582 292.092 444.23C292.092 444.362 292.086 444.482 292.074 444.59C292.062 444.698 292.05 444.794 292.038 444.878C292.026 444.974 292.014 445.058 292.002 445.13H285.162C285.258 445.766 285.528 446.288 285.972 446.696C286.416 447.092 286.956 447.29 287.592 447.29C287.856 447.29 288.096 447.254 288.312 447.182C288.528 447.11 288.714 447.026 288.87 446.93C289.026 446.834 289.152 446.732 289.248 446.624C289.356 446.504 289.434 446.396 289.482 446.3H291.822C291.774 446.48 291.66 446.732 291.48 447.056C291.312 447.38 291.06 447.698 290.724 448.01C290.388 448.322 289.962 448.598 289.446 448.838C288.93 449.066 288.312 449.18 287.592 449.18ZM289.842 443.6C289.746 443.012 289.506 442.52 289.122 442.124C288.738 441.728 288.228 441.53 287.592 441.53C286.908 441.53 286.362 441.728 285.954 442.124C285.558 442.52 285.294 443.012 285.162 443.6H289.842ZM297.31 449.18C296.458 449.18 295.768 449.054 295.24 448.802C294.724 448.55 294.322 448.262 294.034 447.938C293.758 447.602 293.572 447.272 293.476 446.948C293.392 446.612 293.35 446.366 293.35 446.21H295.51C295.51 446.318 295.546 446.444 295.618 446.588C295.69 446.72 295.798 446.846 295.942 446.966C296.086 447.086 296.272 447.188 296.5 447.272C296.728 447.344 296.998 447.38 297.31 447.38C297.946 447.38 298.39 447.284 298.642 447.092C298.894 446.9 299.02 446.666 299.02 446.39C299.02 446.114 298.936 445.898 298.768 445.742C298.6 445.574 298.264 445.448 297.76 445.364L296.32 445.13C295.372 444.974 294.64 444.692 294.124 444.284C293.608 443.876 293.35 443.288 293.35 442.52C293.35 442.136 293.434 441.77 293.602 441.422C293.77 441.074 294.016 440.768 294.34 440.504C294.664 440.24 295.066 440.03 295.546 439.874C296.026 439.718 296.584 439.64 297.22 439.64C297.892 439.64 298.468 439.748 298.948 439.964C299.44 440.168 299.842 440.42 300.154 440.72C300.478 441.02 300.712 441.344 300.856 441.692C301.012 442.04 301.09 442.346 301.09 442.61H298.93C298.93 442.334 298.78 442.07 298.48 441.818C298.18 441.566 297.76 441.44 297.22 441.44C296.68 441.44 296.272 441.554 295.996 441.782C295.732 441.998 295.6 442.244 295.6 442.52C295.6 442.952 296.02 443.234 296.86 443.366L298.39 443.6C299.338 443.744 300.052 444.044 300.532 444.5C301.024 444.944 301.27 445.574 301.27 446.39C301.27 446.774 301.186 447.134 301.018 447.47C300.862 447.806 300.622 448.1 300.298 448.352C299.974 448.604 299.56 448.808 299.056 448.964C298.564 449.108 297.982 449.18 297.31 449.18Z" fill="#171717"/>
<path d="M606.379 238.4H609.529L614.119 247.13H614.479V238.4H616.819V251H613.669L609.079 242.27H608.719V251H606.379V238.4ZM623.578 251.18C622.906 251.18 622.282 251.066 621.706 250.838C621.13 250.598 620.632 250.268 620.212 249.848C619.804 249.416 619.48 248.912 619.24 248.336C619.012 247.748 618.898 247.106 618.898 246.41C618.898 245.714 619.012 245.078 619.24 244.502C619.48 243.914 619.804 243.41 620.212 242.99C620.632 242.558 621.13 242.228 621.706 242C622.282 241.76 622.906 241.64 623.578 241.64C624.25 241.64 624.874 241.76 625.45 242C626.026 242.228 626.518 242.558 626.926 242.99C627.346 243.41 627.67 243.914 627.898 244.502C628.138 245.078 628.258 245.714 628.258 246.41C628.258 247.106 628.138 247.748 627.898 248.336C627.67 248.912 627.346 249.416 626.926 249.848C626.518 250.268 626.026 250.598 625.45 250.838C624.874 251.066 624.25 251.18 623.578 251.18ZM623.578 249.11C623.914 249.11 624.226 249.044 624.514 248.912C624.814 248.78 625.072 248.6 625.288 248.372C625.516 248.132 625.69 247.85 625.81 247.526C625.942 247.19 626.008 246.818 626.008 246.41C626.008 246.002 625.942 245.636 625.81 245.312C625.69 244.976 625.516 244.694 625.288 244.466C625.072 244.226 624.814 244.04 624.514 243.908C624.226 243.776 623.914 243.71 623.578 243.71C623.242 243.71 622.924 243.776 622.624 243.908C622.336 244.04 622.078 244.226 621.85 244.466C621.634 244.694 621.46 244.976 621.328 245.312C621.208 245.636 621.148 246.002 621.148 246.41C621.148 246.818 621.208 247.19 621.328 247.526C621.46 247.85 621.634 248.132 621.85 248.372C622.078 248.6 622.336 248.78 622.624 248.912C622.924 249.044 623.242 249.11 623.578 249.11Z" fill="#171717"/>
<rect x="1068" y="344.995" width="140" height="140" rx="8" transform="rotate(-45 1068 344.995)" fill="#F7E3E3"/>
<path d="M1141.7 322.395H1144.04V334.995H1141.7V322.395ZM1147.38 327.975H1145.85V325.815H1147.38V324.465C1147.38 323.781 1147.58 323.235 1147.99 322.827C1148.4 322.419 1148.95 322.215 1149.63 322.215H1151.61V324.195H1150.26C1150.08 324.195 1149.93 324.255 1149.81 324.375C1149.69 324.495 1149.63 324.645 1149.63 324.825V325.815H1151.61V327.975H1149.63V334.995H1147.38V327.975ZM1153.23 325.815H1155.12L1155.3 326.625H1155.39C1155.5 326.481 1155.63 326.349 1155.79 326.229C1155.92 326.133 1156.09 326.043 1156.29 325.959C1156.5 325.863 1156.74 325.815 1157.01 325.815H1158.81V327.975H1157.19C1156.05 327.975 1155.48 328.545 1155.48 329.685V334.995H1153.23V325.815ZM1162.69 335.175C1162.17 335.175 1161.7 335.103 1161.28 334.959C1160.87 334.803 1160.53 334.599 1160.24 334.347C1159.95 334.095 1159.73 333.801 1159.57 333.465C1159.43 333.129 1159.36 332.769 1159.36 332.385C1159.36 331.485 1159.67 330.753 1160.29 330.189C1160.93 329.613 1161.88 329.325 1163.14 329.325H1165.21V329.145C1165.21 328.641 1165.06 328.233 1164.77 327.921C1164.49 327.597 1164.09 327.435 1163.59 327.435C1163.33 327.435 1163.11 327.471 1162.92 327.543C1162.73 327.615 1162.57 327.711 1162.43 327.831C1162.3 327.939 1162.19 328.065 1162.11 328.209C1162.04 328.341 1161.99 328.473 1161.97 328.605H1159.72C1159.76 328.221 1159.88 327.855 1160.06 327.507C1160.24 327.147 1160.48 326.829 1160.8 326.553C1161.12 326.277 1161.51 326.055 1161.97 325.887C1162.43 325.719 1162.97 325.635 1163.59 325.635C1164.17 325.635 1164.7 325.725 1165.17 325.905C1165.65 326.085 1166.06 326.337 1166.39 326.661C1166.73 326.973 1166.99 327.345 1167.17 327.777C1167.36 328.197 1167.46 328.653 1167.46 329.145V334.995H1165.57L1165.39 334.095H1165.3C1165.13 334.299 1164.92 334.479 1164.67 334.635C1164.45 334.767 1164.18 334.887 1163.86 334.995C1163.53 335.115 1163.14 335.175 1162.69 335.175ZM1163.05 333.375C1163.73 333.375 1164.26 333.189 1164.63 332.817C1165.01 332.445 1165.21 331.941 1165.21 331.305V331.035H1163.32C1162.73 331.035 1162.3 331.143 1162.02 331.359C1161.74 331.563 1161.61 331.845 1161.61 332.205C1161.61 332.565 1161.73 332.853 1161.98 333.069C1162.24 333.273 1162.59 333.375 1163.05 333.375ZM1169.7 325.815H1171.77L1171.95 326.715H1172.04C1172.19 326.511 1172.37 326.331 1172.58 326.175C1172.76 326.043 1172.98 325.923 1173.25 325.815C1173.52 325.695 1173.84 325.635 1174.2 325.635C1174.66 325.635 1175.04 325.701 1175.35 325.833C1175.67 325.965 1175.92 326.109 1176.13 326.265C1176.36 326.457 1176.55 326.667 1176.72 326.895H1176.81C1176.99 326.667 1177.21 326.457 1177.46 326.265C1177.68 326.109 1177.95 325.965 1178.29 325.833C1178.62 325.701 1179.03 325.635 1179.51 325.635C1179.98 325.635 1180.42 325.731 1180.84 325.923C1181.26 326.115 1181.62 326.379 1181.92 326.715C1182.24 327.039 1182.48 327.429 1182.66 327.885C1182.84 328.329 1182.93 328.809 1182.93 329.325V334.995H1180.68V329.505C1180.68 328.917 1180.54 328.473 1180.25 328.173C1179.97 327.861 1179.61 327.705 1179.15 327.705C1178.65 327.705 1178.23 327.879 1177.91 328.227C1177.6 328.575 1177.44 329.001 1177.44 329.505V334.995H1175.19V329.505C1175.19 328.917 1175.05 328.473 1174.76 328.173C1174.48 327.861 1174.12 327.705 1173.66 327.705C1173.16 327.705 1172.74 327.879 1172.42 328.227C1172.11 328.575 1171.95 329.001 1171.95 329.505V334.995H1169.7V325.815ZM1189.42 335.175C1188.75 335.175 1188.12 335.061 1187.55 334.833C1186.97 334.593 1186.47 334.263 1186.05 333.843C1185.64 333.411 1185.32 332.907 1185.08 332.331C1184.85 331.743 1184.74 331.101 1184.74 330.405C1184.74 329.709 1184.85 329.073 1185.08 328.497C1185.32 327.909 1185.64 327.405 1186.05 326.985C1186.47 326.553 1186.97 326.223 1187.55 325.995C1188.12 325.755 1188.75 325.635 1189.42 325.635C1190.04 325.635 1190.63 325.755 1191.18 325.995C1191.73 326.223 1192.21 326.541 1192.6 326.949C1193.01 327.357 1193.33 327.843 1193.56 328.407C1193.8 328.971 1193.92 329.577 1193.92 330.225C1193.92 330.357 1193.91 330.477 1193.9 330.585C1193.89 330.693 1193.88 330.789 1193.86 330.873C1193.85 330.969 1193.84 331.053 1193.83 331.125H1186.99C1187.08 331.761 1187.35 332.283 1187.8 332.691C1188.24 333.087 1188.78 333.285 1189.42 333.285C1189.68 333.285 1189.92 333.249 1190.14 333.177C1190.35 333.105 1190.54 333.021 1190.7 332.925C1190.85 332.829 1190.98 332.727 1191.07 332.619C1191.18 332.499 1191.26 332.391 1191.31 332.295H1193.65C1193.6 332.475 1193.49 332.727 1193.31 333.051C1193.14 333.375 1192.89 333.693 1192.55 334.005C1192.21 334.317 1191.79 334.593 1191.27 334.833C1190.76 335.061 1190.14 335.175 1189.42 335.175ZM1191.67 329.595C1191.57 329.007 1191.33 328.515 1190.95 328.119C1190.56 327.723 1190.05 327.525 1189.42 327.525C1188.73 327.525 1188.19 327.723 1187.78 328.119C1187.38 328.515 1187.12 329.007 1186.99 329.595H1191.67ZM1151.98 361.175C1151.31 361.175 1150.68 361.061 1150.11 360.833C1149.53 360.593 1149.03 360.263 1148.61 359.843C1148.2 359.411 1147.88 358.907 1147.64 358.331C1147.41 357.743 1147.3 357.101 1147.3 356.405C1147.3 355.709 1147.41 355.073 1147.64 354.497C1147.88 353.909 1148.2 353.405 1148.61 352.985C1149.03 352.553 1149.53 352.223 1150.11 351.995C1150.68 351.755 1151.31 351.635 1151.98 351.635C1152.6 351.635 1153.19 351.755 1153.74 351.995C1154.29 352.223 1154.77 352.541 1155.16 352.949C1155.57 353.357 1155.89 353.843 1156.12 354.407C1156.36 354.971 1156.48 355.577 1156.48 356.225C1156.48 356.357 1156.47 356.477 1156.46 356.585C1156.45 356.693 1156.44 356.789 1156.42 356.873C1156.41 356.969 1156.4 357.053 1156.39 357.125H1149.55C1149.64 357.761 1149.91 358.283 1150.36 358.691C1150.8 359.087 1151.34 359.285 1151.98 359.285C1152.24 359.285 1152.48 359.249 1152.7 359.177C1152.91 359.105 1153.1 359.021 1153.26 358.925C1153.41 358.829 1153.54 358.727 1153.63 358.619C1153.74 358.499 1153.82 358.391 1153.87 358.295H1156.21C1156.16 358.475 1156.05 358.727 1155.87 359.051C1155.7 359.375 1155.45 359.693 1155.11 360.005C1154.77 360.317 1154.35 360.593 1153.83 360.833C1153.32 361.061 1152.7 361.175 1151.98 361.175ZM1154.23 355.595C1154.13 355.007 1153.89 354.515 1153.51 354.119C1153.12 353.723 1152.61 353.525 1151.98 353.525C1151.29 353.525 1150.75 353.723 1150.34 354.119C1149.94 354.515 1149.68 355.007 1149.55 355.595H1154.23ZM1158.36 351.815H1160.25L1160.43 352.625H1160.52C1160.63 352.481 1160.76 352.349 1160.92 352.229C1161.05 352.133 1161.22 352.043 1161.42 351.959C1161.63 351.863 1161.87 351.815 1162.14 351.815H1163.94V353.975H1162.32C1161.18 353.975 1160.61 354.545 1160.61 355.685V360.995H1158.36V351.815ZM1165.29 351.815H1167.18L1167.36 352.625H1167.45C1167.56 352.481 1167.69 352.349 1167.85 352.229C1167.98 352.133 1168.15 352.043 1168.35 351.959C1168.55 351.863 1168.79 351.815 1169.07 351.815H1170.87V353.975H1169.25C1168.11 353.975 1167.54 354.545 1167.54 355.685V360.995H1165.29V351.815ZM1176.09 361.175C1175.42 361.175 1174.8 361.061 1174.22 360.833C1173.65 360.593 1173.15 360.263 1172.73 359.843C1172.32 359.411 1172 358.907 1171.76 358.331C1171.53 357.743 1171.41 357.101 1171.41 356.405C1171.41 355.709 1171.53 355.073 1171.76 354.497C1172 353.909 1172.32 353.405 1172.73 352.985C1173.15 352.553 1173.65 352.223 1174.22 351.995C1174.8 351.755 1175.42 351.635 1176.09 351.635C1176.77 351.635 1177.39 351.755 1177.97 351.995C1178.54 352.223 1179.03 352.553 1179.44 352.985C1179.86 353.405 1180.19 353.909 1180.41 354.497C1180.65 355.073 1180.77 355.709 1180.77 356.405C1180.77 357.101 1180.65 357.743 1180.41 358.331C1180.19 358.907 1179.86 359.411 1179.44 359.843C1179.03 360.263 1178.54 360.593 1177.97 360.833C1177.39 361.061 1176.77 361.175 1176.09 361.175ZM1176.09 359.105C1176.43 359.105 1176.74 359.039 1177.03 358.907C1177.33 358.775 1177.59 358.595 1177.8 358.367C1178.03 358.127 1178.21 357.845 1178.33 357.521C1178.46 357.185 1178.52 356.813 1178.52 356.405C1178.52 355.997 1178.46 355.631 1178.33 355.307C1178.21 354.971 1178.03 354.689 1177.8 354.461C1177.59 354.221 1177.33 354.035 1177.03 353.903C1176.74 353.771 1176.43 353.705 1176.09 353.705C1175.76 353.705 1175.44 353.771 1175.14 353.903C1174.85 354.035 1174.59 354.221 1174.37 354.461C1174.15 354.689 1173.98 354.971 1173.84 355.307C1173.72 355.631 1173.66 355.997 1173.66 356.405C1173.66 356.813 1173.72 357.185 1173.84 357.521C1173.98 357.845 1174.15 358.127 1174.37 358.367C1174.59 358.595 1174.85 358.775 1175.14 358.907C1175.44 359.039 1175.76 359.105 1176.09 359.105ZM1182.66 351.815H1184.55L1184.73 352.625H1184.82C1184.93 352.481 1185.06 352.349 1185.21 352.229C1185.35 352.133 1185.51 352.043 1185.72 351.959C1185.92 351.863 1186.16 351.815 1186.44 351.815H1188.24V353.975H1186.62C1185.48 353.975 1184.91 354.545 1184.91 355.685V360.995H1182.66V351.815Z" fill="#171717"/>
<rect x="684" y="150" width="268" height="90" rx="16" fill="#E4F1F6"/>
<path d="M765.71 188.4H771.38C771.968 188.4 772.502 188.502 772.982 188.706C773.474 188.898 773.894 189.18 774.242 189.552C774.59 189.912 774.86 190.356 775.052 190.884C775.244 191.4 775.34 191.982 775.34 192.63C775.34 193.278 775.244 193.866 775.052 194.394C774.86 194.91 774.59 195.354 774.242 195.726C773.894 196.086 773.474 196.368 772.982 196.572C772.502 196.764 771.968 196.86 771.38 196.86H768.05V201H765.71V188.4ZM771.29 194.61C771.794 194.61 772.202 194.442 772.514 194.106C772.838 193.758 773 193.266 773 192.63C773 191.994 772.838 191.508 772.514 191.172C772.202 190.824 771.794 190.65 771.29 190.65H768.05V194.61H771.29ZM780.747 201.18C780.075 201.18 779.451 201.066 778.875 200.838C778.299 200.598 777.801 200.268 777.381 199.848C776.973 199.416 776.649 198.912 776.409 198.336C776.181 197.748 776.067 197.106 776.067 196.41C776.067 195.714 776.181 195.078 776.409 194.502C776.649 193.914 776.973 193.41 777.381 192.99C777.801 192.558 778.299 192.228 778.875 192C779.451 191.76 780.075 191.64 780.747 191.64C781.419 191.64 782.043 191.76 782.619 192C783.195 192.228 783.687 192.558 784.095 192.99C784.515 193.41 784.839 193.914 785.067 194.502C785.307 195.078 785.427 195.714 785.427 196.41C785.427 197.106 785.307 197.748 785.067 198.336C784.839 198.912 784.515 199.416 784.095 199.848C783.687 200.268 783.195 200.598 782.619 200.838C782.043 201.066 781.419 201.18 780.747 201.18ZM780.747 199.11C781.083 199.11 781.395 199.044 781.683 198.912C781.983 198.78 782.241 198.6 782.457 198.372C782.685 198.132 782.859 197.85 782.979 197.526C783.111 197.19 783.177 196.818 783.177 196.41C783.177 196.002 783.111 195.636 782.979 195.312C782.859 194.976 782.685 194.694 782.457 194.466C782.241 194.226 781.983 194.04 781.683 193.908C781.395 193.776 781.083 193.71 780.747 193.71C780.411 193.71 780.093 193.776 779.793 193.908C779.505 194.04 779.247 194.226 779.019 194.466C778.803 194.694 778.629 194.976 778.497 195.312C778.377 195.636 778.317 196.002 778.317 196.41C778.317 196.818 778.377 197.19 778.497 197.526C778.629 197.85 778.803 198.132 779.019 198.372C779.247 198.6 779.505 198.78 779.793 198.912C780.093 199.044 780.411 199.11 780.747 199.11ZM787.31 191.82H789.38L789.56 192.81H789.65C789.818 192.594 790.028 192.402 790.28 192.234C790.496 192.09 790.766 191.958 791.09 191.838C791.414 191.706 791.804 191.64 792.26 191.64C792.848 191.64 793.394 191.754 793.898 191.982C794.414 192.21 794.864 192.534 795.248 192.954C795.632 193.362 795.932 193.86 796.148 194.448C796.376 195.036 796.49 195.69 796.49 196.41C796.49 197.13 796.376 197.784 796.148 198.372C795.932 198.96 795.632 199.464 795.248 199.884C794.864 200.292 794.414 200.61 793.898 200.838C793.394 201.066 792.848 201.18 792.26 201.18C791.78 201.18 791.372 201.12 791.036 201C790.712 200.892 790.448 200.772 790.244 200.64C790.004 200.484 789.806 200.304 789.65 200.1H789.56V204.6H787.31V191.82ZM791.9 199.11C792.584 199.11 793.142 198.876 793.574 198.408C794.018 197.94 794.24 197.274 794.24 196.41C794.24 195.546 794.018 194.88 793.574 194.412C793.142 193.944 792.584 193.71 791.9 193.71C791.216 193.71 790.652 193.944 790.208 194.412C789.776 194.88 789.56 195.546 789.56 196.41C789.56 197.274 789.776 197.94 790.208 198.408C790.652 198.876 791.216 199.11 791.9 199.11ZM801.984 201.18C801.468 201.18 800.988 201.09 800.544 200.91C800.112 200.718 799.734 200.454 799.41 200.118C799.086 199.782 798.834 199.38 798.654 198.912C798.474 198.432 798.384 197.898 798.384 197.31V191.82H800.634V197.13C800.634 197.718 800.814 198.198 801.174 198.57C801.546 198.93 802.026 199.11 802.614 199.11C803.202 199.11 803.676 198.93 804.036 198.57C804.408 198.198 804.594 197.718 804.594 197.13V191.82H806.844V201H804.774L804.594 200.1H804.504C804.336 200.304 804.132 200.484 803.892 200.64C803.688 200.772 803.424 200.892 803.1 201C802.776 201.12 802.404 201.18 801.984 201.18ZM809.177 191.82H811.247L811.427 192.81H811.517C811.685 192.594 811.895 192.402 812.147 192.234C812.363 192.09 812.633 191.958 812.957 191.838C813.281 191.706 813.671 191.64 814.127 191.64C814.715 191.64 815.261 191.754 815.765 191.982C816.281 192.21 816.731 192.534 817.115 192.954C817.499 193.362 817.799 193.86 818.015 194.448C818.243 195.036 818.357 195.69 818.357 196.41C818.357 197.13 818.243 197.784 818.015 198.372C817.799 198.96 817.499 199.464 817.115 199.884C816.731 200.292 816.281 200.61 815.765 200.838C815.261 201.066 814.715 201.18 814.127 201.18C813.647 201.18 813.239 201.12 812.903 201C812.579 200.892 812.315 200.772 812.111 200.64C811.871 200.484 811.673 200.304 811.517 200.1H811.427V204.6H809.177V191.82ZM813.767 199.11C814.451 199.11 815.009 198.876 815.441 198.408C815.885 197.94 816.107 197.274 816.107 196.41C816.107 195.546 815.885 194.88 815.441 194.412C815.009 193.944 814.451 193.71 813.767 193.71C813.083 193.71 812.519 193.944 812.075 194.412C811.643 194.88 811.427 195.546 811.427 196.41C811.427 197.274 811.643 197.94 812.075 198.408C812.519 198.876 813.083 199.11 813.767 199.11ZM824.751 191.82H826.821L827.001 192.72H827.091C827.235 192.516 827.415 192.336 827.631 192.18C827.811 192.048 828.033 191.928 828.297 191.82C828.573 191.7 828.891 191.64 829.251 191.64C829.707 191.64 830.091 191.706 830.403 191.838C830.715 191.97 830.973 192.114 831.177 192.27C831.405 192.462 831.603 192.672 831.771 192.9H831.861C832.041 192.672 832.257 192.462 832.509 192.27C832.725 192.114 833.001 191.97 833.337 191.838C833.673 191.706 834.081 191.64 834.561 191.64C835.029 191.64 835.473 191.736 835.893 191.928C836.313 192.12 836.673 192.384 836.973 192.72C837.285 193.044 837.531 193.434 837.711 193.89C837.891 194.334 837.981 194.814 837.981 195.33V201H835.731V195.51C835.731 194.922 835.587 194.478 835.299 194.178C835.023 193.866 834.657 193.71 834.201 193.71C833.697 193.71 833.283 193.884 832.959 194.232C832.647 194.58 832.491 195.006 832.491 195.51V201H830.241V195.51C830.241 194.922 830.097 194.478 829.809 194.178C829.533 193.866 829.167 193.71 828.711 193.71C828.207 193.71 827.793 193.884 827.469 194.232C827.157 194.58 827.001 195.006 827.001 195.51V201H824.751V191.82ZM844.467 201.18C843.795 201.18 843.171 201.066 842.595 200.838C842.019 200.598 841.521 200.268 841.101 199.848C840.693 199.416 840.369 198.912 840.129 198.336C839.901 197.748 839.787 197.106 839.787 196.41C839.787 195.714 839.901 195.078 840.129 194.502C840.369 193.914 840.693 193.41 841.101 192.99C841.521 192.558 842.019 192.228 842.595 192C843.171 191.76 843.795 191.64 844.467 191.64C845.139 191.64 845.763 191.76 846.339 192C846.915 192.228 847.407 192.558 847.815 192.99C848.235 193.41 848.559 193.914 848.787 194.502C849.027 195.078 849.147 195.714 849.147 196.41C849.147 197.106 849.027 197.748 848.787 198.336C848.559 198.912 848.235 199.416 847.815 199.848C847.407 200.268 846.915 200.598 846.339 200.838C845.763 201.066 845.139 201.18 844.467 201.18ZM844.467 199.11C844.803 199.11 845.115 199.044 845.403 198.912C845.703 198.78 845.961 198.6 846.177 198.372C846.405 198.132 846.579 197.85 846.699 197.526C846.831 197.19 846.897 196.818 846.897 196.41C846.897 196.002 846.831 195.636 846.699 195.312C846.579 194.976 846.405 194.694 846.177 194.466C845.961 194.226 845.703 194.04 845.403 193.908C845.115 193.776 844.803 193.71 844.467 193.71C844.131 193.71 843.813 193.776 843.513 193.908C843.225 194.04 842.967 194.226 842.739 194.466C842.523 194.694 842.349 194.976 842.217 195.312C842.097 195.636 842.037 196.002 842.037 196.41C842.037 196.818 842.097 197.19 842.217 197.526C842.349 197.85 842.523 198.132 842.739 198.372C842.967 198.6 843.225 198.78 843.513 198.912C843.813 199.044 844.131 199.11 844.467 199.11ZM854.81 201.18C854.222 201.18 853.67 201.066 853.154 200.838C852.65 200.61 852.206 200.292 851.822 199.884C851.438 199.464 851.132 198.96 850.904 198.372C850.688 197.784 850.58 197.13 850.58 196.41C850.58 195.69 850.688 195.036 850.904 194.448C851.132 193.86 851.438 193.362 851.822 192.954C852.206 192.534 852.65 192.21 853.154 191.982C853.67 191.754 854.222 191.64 854.81 191.64C855.266 191.64 855.656 191.706 855.98 191.838C856.304 191.958 856.574 192.09 856.79 192.234C857.042 192.402 857.252 192.594 857.42 192.81H857.51V188.4H859.76V201H857.78L857.6 200.01H857.51C857.33 200.238 857.114 200.436 856.862 200.604C856.646 200.748 856.364 200.88 856.016 201C855.68 201.12 855.278 201.18 854.81 201.18ZM855.17 199.11C855.854 199.11 856.412 198.876 856.844 198.408C857.288 197.94 857.51 197.274 857.51 196.41C857.51 195.546 857.288 194.88 856.844 194.412C856.412 193.944 855.854 193.71 855.17 193.71C854.486 193.71 853.922 193.944 853.478 194.412C853.046 194.88 852.83 195.546 852.83 196.41C852.83 197.274 853.046 197.94 853.478 198.408C853.922 198.876 854.486 199.11 855.17 199.11ZM866.422 201.18C865.75 201.18 865.126 201.066 864.55 200.838C863.974 200.598 863.476 200.268 863.056 199.848C862.648 199.416 862.324 198.912 862.084 198.336C861.856 197.748 861.742 197.106 861.742 196.41C861.742 195.714 861.856 195.078 862.084 194.502C862.324 193.914 862.648 193.41 863.056 192.99C863.476 192.558 863.974 192.228 864.55 192C865.126 191.76 865.75 191.64 866.422 191.64C867.046 191.64 867.634 191.76 868.186 192C868.738 192.228 869.212 192.546 869.608 192.954C870.016 193.362 870.334 193.848 870.562 194.412C870.802 194.976 870.922 195.582 870.922 196.23C870.922 196.362 870.916 196.482 870.904 196.59C870.892 196.698 870.88 196.794 870.868 196.878C870.856 196.974 870.844 197.058 870.832 197.13H863.992C864.088 197.766 864.358 198.288 864.802 198.696C865.246 199.092 865.786 199.29 866.422 199.29C866.686 199.29 866.926 199.254 867.142 199.182C867.358 199.11 867.544 199.026 867.7 198.93C867.856 198.834 867.982 198.732 868.078 198.624C868.186 198.504 868.264 198.396 868.312 198.3H870.652C870.604 198.48 870.49 198.732 870.31 199.056C870.142 199.38 869.89 199.698 869.554 200.01C869.218 200.322 868.792 200.598 868.276 200.838C867.76 201.066 867.142 201.18 866.422 201.18ZM868.672 195.6C868.576 195.012 868.336 194.52 867.952 194.124C867.568 193.728 867.058 193.53 866.422 193.53C865.738 193.53 865.192 193.728 864.784 194.124C864.388 194.52 864.124 195.012 863.992 195.6H868.672Z" fill="#171717"/>
<rect x="684" y="300" width="267" height="90" rx="16" fill="#E4F1F6"/>
<path d="M765.43 338.4H767.77V351H765.43V338.4ZM771.105 343.98H769.575V341.82H771.105V340.47C771.105 339.786 771.309 339.24 771.717 338.832C772.125 338.424 772.671 338.22 773.355 338.22H775.335V340.2H773.985C773.805 340.2 773.655 340.26 773.535 340.38C773.415 340.5 773.355 340.65 773.355 340.83V341.82H775.335V343.98H773.355V351H771.105V343.98ZM776.957 341.82H778.847L779.027 342.63H779.117C779.225 342.486 779.357 342.354 779.513 342.234C779.645 342.138 779.813 342.048 780.017 341.964C780.221 341.868 780.461 341.82 780.737 341.82H782.537V343.98H780.917C779.777 343.98 779.207 344.55 779.207 345.69V351H776.957V341.82ZM786.411 351.18C785.895 351.18 785.427 351.108 785.007 350.964C784.599 350.808 784.251 350.604 783.963 350.352C783.675 350.1 783.453 349.806 783.297 349.47C783.153 349.134 783.081 348.774 783.081 348.39C783.081 347.49 783.393 346.758 784.017 346.194C784.653 345.618 785.601 345.33 786.861 345.33H788.931V345.15C788.931 344.646 788.787 344.238 788.499 343.926C788.211 343.602 787.815 343.44 787.311 343.44C787.059 343.44 786.837 343.476 786.645 343.548C786.453 343.62 786.291 343.716 786.159 343.836C786.027 343.944 785.919 344.07 785.835 344.214C785.763 344.346 785.715 344.478 785.691 344.61H783.441C783.489 344.226 783.603 343.86 783.783 343.512C783.963 343.152 784.209 342.834 784.521 342.558C784.845 342.282 785.235 342.06 785.691 341.892C786.159 341.724 786.699 341.64 787.311 341.64C787.899 341.64 788.427 341.73 788.895 341.91C789.375 342.09 789.783 342.342 790.119 342.666C790.455 342.978 790.713 343.35 790.893 343.782C791.085 344.202 791.181 344.658 791.181 345.15V351H789.291L789.111 350.1H789.021C788.853 350.304 788.643 350.484 788.391 350.64C788.175 350.772 787.905 350.892 787.581 351C787.257 351.12 786.867 351.18 786.411 351.18ZM786.771 349.38C787.455 349.38 787.983 349.194 788.355 348.822C788.739 348.45 788.931 347.946 788.931 347.31V347.04H787.041C786.453 347.04 786.021 347.148 785.745 347.364C785.469 347.568 785.331 347.85 785.331 348.21C785.331 348.57 785.457 348.858 785.709 349.074C785.961 349.278 786.315 349.38 786.771 349.38ZM793.428 341.82H795.498L795.678 342.72H795.768C795.912 342.516 796.092 342.336 796.308 342.18C796.488 342.048 796.71 341.928 796.974 341.82C797.25 341.7 797.568 341.64 797.928 341.64C798.384 341.64 798.768 341.706 799.08 341.838C799.392 341.97 799.65 342.114 799.854 342.27C800.082 342.462 800.28 342.672 800.448 342.9H800.538C800.718 342.672 800.934 342.462 801.186 342.27C801.402 342.114 801.678 341.97 802.014 341.838C802.35 341.706 802.758 341.64 803.238 341.64C803.706 341.64 804.15 341.736 804.57 341.928C804.99 342.12 805.35 342.384 805.65 342.72C805.962 343.044 806.208 343.434 806.388 343.89C806.568 344.334 806.658 344.814 806.658 345.33V351H804.408V345.51C804.408 344.922 804.264 344.478 803.976 344.178C803.7 343.866 803.334 343.71 802.878 343.71C802.374 343.71 801.96 343.884 801.636 344.232C801.324 344.58 801.168 345.006 801.168 345.51V351H798.918V345.51C798.918 344.922 798.774 344.478 798.486 344.178C798.21 343.866 797.844 343.71 797.388 343.71C796.884 343.71 796.47 343.884 796.146 344.232C795.834 344.58 795.678 345.006 795.678 345.51V351H793.428V341.82ZM813.144 351.18C812.472 351.18 811.848 351.066 811.272 350.838C810.696 350.598 810.198 350.268 809.778 349.848C809.37 349.416 809.046 348.912 808.806 348.336C808.578 347.748 808.464 347.106 808.464 346.41C808.464 345.714 808.578 345.078 808.806 344.502C809.046 343.914 809.37 343.41 809.778 342.99C810.198 342.558 810.696 342.228 811.272 342C811.848 341.76 812.472 341.64 813.144 341.64C813.768 341.64 814.356 341.76 814.908 342C815.46 342.228 815.934 342.546 816.33 342.954C816.738 343.362 817.056 343.848 817.284 344.412C817.524 344.976 817.644 345.582 817.644 346.23C817.644 346.362 817.638 346.482 817.626 346.59C817.614 346.698 817.602 346.794 817.59 346.878C817.578 346.974 817.566 347.058 817.554 347.13H810.714C810.81 347.766 811.08 348.288 811.524 348.696C811.968 349.092 812.508 349.29 813.144 349.29C813.408 349.29 813.648 349.254 813.864 349.182C814.08 349.11 814.266 349.026 814.422 348.93C814.578 348.834 814.704 348.732 814.8 348.624C814.908 348.504 814.986 348.396 815.034 348.3H817.374C817.326 348.48 817.212 348.732 817.032 349.056C816.864 349.38 816.612 349.698 816.276 350.01C815.94 350.322 815.514 350.598 814.998 350.838C814.482 351.066 813.864 351.18 813.144 351.18ZM815.394 345.6C815.298 345.012 815.058 344.52 814.674 344.124C814.29 343.728 813.78 343.53 813.144 343.53C812.46 343.53 811.914 343.728 811.506 344.124C811.11 344.52 810.846 345.012 810.714 345.6H815.394ZM824.031 341.82H826.101L826.281 342.72H826.371C826.515 342.516 826.695 342.336 826.911 342.18C827.091 342.048 827.313 341.928 827.577 341.82C827.853 341.7 828.171 341.64 828.531 341.64C828.987 341.64 829.371 341.706 829.683 341.838C829.995 341.97 830.253 342.114 830.457 342.27C830.685 342.462 830.883 342.672 831.051 342.9H831.141C831.321 342.672 831.537 342.462 831.789 342.27C832.005 342.114 832.281 341.97 832.617 341.838C832.953 341.706 833.361 341.64 833.841 341.64C834.309 341.64 834.753 341.736 835.173 341.928C835.593 342.12 835.953 342.384 836.253 342.72C836.565 343.044 836.811 343.434 836.991 343.89C837.171 344.334 837.261 344.814 837.261 345.33V351H835.011V345.51C835.011 344.922 834.867 344.478 834.579 344.178C834.303 343.866 833.937 343.71 833.481 343.71C832.977 343.71 832.563 343.884 832.239 344.232C831.927 344.58 831.771 345.006 831.771 345.51V351H829.521V345.51C829.521 344.922 829.377 344.478 829.089 344.178C828.813 343.866 828.447 343.71 827.991 343.71C827.487 343.71 827.073 343.884 826.749 344.232C826.437 344.58 826.281 345.006 826.281 345.51V351H824.031V341.82ZM843.748 351.18C843.076 351.18 842.452 351.066 841.876 350.838C841.3 350.598 840.802 350.268 840.382 349.848C839.974 349.416 839.65 348.912 839.41 348.336C839.182 347.748 839.068 347.106 839.068 346.41C839.068 345.714 839.182 345.078 839.41 344.502C839.65 343.914 839.974 343.41 840.382 342.99C840.802 342.558 841.3 342.228 841.876 342C842.452 341.76 843.076 341.64 843.748 341.64C844.42 341.64 845.044 341.76 845.62 342C846.196 342.228 846.688 342.558 847.096 342.99C847.516 343.41 847.84 343.914 848.068 344.502C848.308 345.078 848.428 345.714 848.428 346.41C848.428 347.106 848.308 347.748 848.068 348.336C847.84 348.912 847.516 349.416 847.096 349.848C846.688 350.268 846.196 350.598 845.62 350.838C845.044 351.066 844.42 351.18 843.748 351.18ZM843.748 349.11C844.084 349.11 844.396 349.044 844.684 348.912C844.984 348.78 845.242 348.6 845.458 348.372C845.686 348.132 845.86 347.85 845.98 347.526C846.112 347.19 846.178 346.818 846.178 346.41C846.178 346.002 846.112 345.636 845.98 345.312C845.86 344.976 845.686 344.694 845.458 344.466C845.242 344.226 844.984 344.04 844.684 343.908C844.396 343.776 844.084 343.71 843.748 343.71C843.412 343.71 843.094 343.776 842.794 343.908C842.506 344.04 842.248 344.226 842.02 344.466C841.804 344.694 841.63 344.976 841.498 345.312C841.378 345.636 841.318 346.002 841.318 346.41C841.318 346.818 841.378 347.19 841.498 347.526C841.63 347.85 841.804 348.132 842.02 348.372C842.248 348.6 842.506 348.78 842.794 348.912C843.094 349.044 843.412 349.11 843.748 349.11ZM854.091 351.18C853.503 351.18 852.951 351.066 852.435 350.838C851.931 350.61 851.487 350.292 851.103 349.884C850.719 349.464 850.413 348.96 850.185 348.372C849.969 347.784 849.861 347.13 849.861 346.41C849.861 345.69 849.969 345.036 850.185 344.448C850.413 343.86 850.719 343.362 851.103 342.954C851.487 342.534 851.931 342.21 852.435 341.982C852.951 341.754 853.503 341.64 854.091 341.64C854.547 341.64 854.937 341.706 855.261 341.838C855.585 341.958 855.855 342.09 856.071 342.234C856.323 342.402 856.533 342.594 856.701 342.81H856.791V338.4H859.041V351H857.061L856.881 350.01H856.791C856.611 350.238 856.395 350.436 856.143 350.604C855.927 350.748 855.645 350.88 855.297 351C854.961 351.12 854.559 351.18 854.091 351.18ZM854.451 349.11C855.135 349.11 855.693 348.876 856.125 348.408C856.569 347.94 856.791 347.274 856.791 346.41C856.791 345.546 856.569 344.88 856.125 344.412C855.693 343.944 855.135 343.71 854.451 343.71C853.767 343.71 853.203 343.944 852.759 344.412C852.327 344.88 852.111 345.546 852.111 346.41C852.111 347.274 852.327 347.94 852.759 348.408C853.203 348.876 853.767 349.11 854.451 349.11ZM865.703 351.18C865.031 351.18 864.407 351.066 863.831 350.838C863.255 350.598 862.757 350.268 862.337 349.848C861.929 349.416 861.605 348.912 861.365 348.336C861.137 347.748 861.023 347.106 861.023 346.41C861.023 345.714 861.137 345.078 861.365 344.502C861.605 343.914 861.929 343.41 862.337 342.99C862.757 342.558 863.255 342.228 863.831 342C864.407 341.76 865.031 341.64 865.703 341.64C866.327 341.64 866.915 341.76 867.467 342C868.019 342.228 868.493 342.546 868.889 342.954C869.297 343.362 869.615 343.848 869.843 344.412C870.083 344.976 870.203 345.582 870.203 346.23C870.203 346.362 870.197 346.482 870.185 346.59C870.173 346.698 870.161 346.794 870.149 346.878C870.137 346.974 870.125 347.058 870.113 347.13H863.273C863.369 347.766 863.639 348.288 864.083 348.696C864.527 349.092 865.067 349.29 865.703 349.29C865.967 349.29 866.207 349.254 866.423 349.182C866.639 349.11 866.825 349.026 866.981 348.93C867.137 348.834 867.263 348.732 867.359 348.624C867.467 348.504 867.545 348.396 867.593 348.3H869.933C869.885 348.48 869.771 348.732 869.591 349.056C869.423 349.38 869.171 349.698 868.835 350.01C868.499 350.322 868.073 350.598 867.557 350.838C867.041 351.066 866.423 351.18 865.703 351.18ZM867.953 345.6C867.857 345.012 867.617 344.52 867.233 344.124C866.849 343.728 866.339 343.53 865.703 343.53C865.019 343.53 864.473 343.728 864.065 344.124C863.669 344.52 863.405 345.012 863.273 345.6H867.953Z" fill="#171717"/>
<path d="M204 171C204 171.552 204.448 172 205 172C205.552 172 206 171.552 206 171L204 171ZM369.707 117.707C370.098 117.317 370.098 116.683 369.707 116.293L363.343 109.929C362.953 109.538 362.319 109.538 361.929 109.929C361.538 110.319 361.538 110.953 361.929 111.343L367.586 117L361.929 122.657C361.538 123.047 361.538 123.681 361.929 124.071C362.319 124.462 362.953 124.462 363.343 124.071L369.707 117.707ZM205 117L205 116L204 116L204 117L205 117ZM206 171L206 117L204 117L204 171L206 171ZM205 118L369 118L369 116L205 116L205 118Z" fill="#333333"/>
<path d="M567 117C566.448 117 566 117.448 566 118C566 118.552 566.448 119 567 119V117ZM787.293 148.707C787.683 149.098 788.317 149.098 788.707 148.707L795.071 142.343C795.462 141.953 795.462 141.319 795.071 140.929C794.681 140.538 794.047 140.538 793.657 140.929L788 146.586L782.343 140.929C781.953 140.538 781.319 140.538 780.929 140.929C780.538 141.319 780.538 141.953 780.929 142.343L787.293 148.707ZM788 118H789V117H788V118ZM567 119L788 119V117L567 117V119ZM787 118V148H789V118H787Z" fill="#333333"/>
<path d="M1168 245C1168 245.552 1167.55 246 1167 246C1166.45 246 1166 245.552 1166 245H1168ZM848.707 148.707C848.317 149.098 847.683 149.098 847.293 148.707L840.929 142.343C840.538 141.953 840.538 141.319 840.929 140.929C841.319 140.538 841.953 140.538 842.343 140.929L848 146.586L853.657 140.929C854.047 140.538 854.681 140.538 855.071 140.929C855.462 141.319 855.462 141.953 855.071 142.343L848.707 148.707ZM848 118H847V117H848V118ZM1167 118V117H1168V118H1167ZM849 118V148H847V118H849ZM1166 245V118H1168V245H1166ZM1167 119L848 119V117L1167 117V119Z" fill="#333333"/>
<path d="M204 369C204 368.448 204.448 368 205 368C205.552 368 206 368.448 206 369H204ZM819.293 392.315C819.683 391.924 820.317 391.924 820.707 392.315L827.071 398.679C827.462 399.069 827.462 399.703 827.071 400.093C826.681 400.484 826.047 400.484 825.657 400.093L820 394.436L814.343 400.093C813.953 400.484 813.319 400.484 812.929 400.093C812.538 399.703 812.538 399.069 812.929 398.679L819.293 392.315ZM820 466H821V467H820V466ZM205 466V467H204V466H205ZM819 466V393.022H821V466H819ZM206 369V466H204V369H206ZM205 465L820 465V467L205 467V465Z" fill="#333333"/>
<path d="M469 217C469 216.448 468.552 216 468 216C467.448 216 467 216.448 467 217H469ZM819.293 300.707C819.683 301.098 820.317 301.098 820.707 300.707L827.071 294.343C827.462 293.953 827.462 293.319 827.071 292.929C826.681 292.538 826.047 292.538 825.657 292.929L820 298.586L814.343 292.929C813.953 292.538 813.319 292.538 812.929 292.929C812.538 293.319 812.538 293.953 812.929 294.343L819.293 300.707ZM820 268.952H821V267.952H820V268.952ZM468 268.952H467V269.952H468V268.952ZM819 268.952V300H821V268.952H819ZM467 217V268.952H469V217H467ZM468 269.952H820V267.952H468V269.952Z" fill="#333333"/>
<path d="M1069.71 345.707C1070.1 345.317 1070.1 344.683 1069.71 344.293L1063.34 337.929C1062.95 337.538 1062.32 337.538 1061.93 337.929C1061.54 338.319 1061.54 338.953 1061.93 339.343L1067.59 345L1061.93 350.657C1061.54 351.047 1061.54 351.681 1061.93 352.071C1062.32 352.462 1062.95 352.462 1063.34 352.071L1069.71 345.707ZM952 344C951.448 344 951 344.448 951 345C951 345.552 951.448 346 952 346V344ZM952 346H953.95V344H952V346ZM955.9 346H959.8V344H955.9V346ZM961.75 346H965.65V344H961.75V346ZM967.6 346H971.5V344H967.6V346ZM973.45 346H977.35V344H973.45V346ZM979.3 346H983.2V344H979.3V346ZM985.15 346H989.05V344H985.15V346ZM991 346H994.9V344H991V346ZM996.85 346H1000.75V344H996.85V346ZM1002.7 346H1006.6V344H1002.7V346ZM1008.55 346H1012.45V344H1008.55V346ZM1014.4 346H1018.3V344H1014.4V346ZM1020.25 346H1024.15V344H1020.25V346ZM1026.1 346H1030V344H1026.1V346ZM1031.95 346H1035.85V344H1031.95V346ZM1037.8 346H1041.7V344H1037.8V346ZM1043.65 346H1047.55V344H1043.65V346ZM1049.5 346H1053.4V344H1049.5V346ZM1055.35 346H1059.25V344H1055.35V346ZM1061.2 346H1065.1V344H1061.2V346ZM1067.05 346H1069V344H1067.05V346Z" fill="#333333"/>
<path d="M106.707 270.707C107.098 270.317 107.098 269.683 106.707 269.293L100.343 262.929C99.9526 262.538 99.3195 262.538 98.9289 262.929C98.5384 263.319 98.5384 263.953 98.9289 264.343L104.586 270L98.9289 275.657C98.5384 276.047 98.5384 276.681 98.9289 277.071C99.3195 277.462 99.9526 277.462 100.343 277.071L106.707 270.707ZM56 269C55.4477 269 55 269.448 55 270C55 270.552 55.4477 271 56 271L56 269ZM56 271L106 271L106 269L56 269L56 271Z" fill="#333333"/>
</g>
<defs>
<clipPath id="clip0_8_2">
<rect width="1294" height="497" fill="white"/>
</clipPath>
</defs>
</svg>
