<svg xmlns="http://www.w3.org/2000/svg" xmlns:xlink="http://www.w3.org/1999/xlink" width="529" height="800" viewBox="0 0 529 800">
    <defs>
        <filter id="prefix__c" width="155.6%" height="130.3%" x="-27.8%" y="-12.1%" filterUnits="objectBoundingBox">
            <feOffset dy="20" in="SourceAlpha" result="shadowOffsetOuter1"/>
            <feGaussianBlur in="shadowOffsetOuter1" result="shadowBlurOuter1" stdDeviation="30"/>
            <feColorMatrix in="shadowBlurOuter1" values="0 0 0 0 0 0 0 0 0 0 0 0 0 0 0 0 0 0 0.2 0"/>
        </filter>
        <filter id="prefix__e" width="202.1%" height="203.7%" x="-51%" y="-37%" filterUnits="objectBoundingBox">
            <feOffset dy="2" in="SourceAlpha" result="shadowOffsetOuter1"/>
            <feGaussianBlur in="shadowOffsetOuter1" result="shadowBlurOuter1" stdDeviation="2"/>
            <feComposite in="shadowBlurOuter1" in2="SourceAlpha" operator="out" result="shadowBlurOuter1"/>
            <feColorMatrix in="shadowBlurOuter1" values="0 0 0 0 0 0 0 0 0 0 0 0 0 0 0 0 0 0 0.5 0"/>
        </filter>
        <filter id="prefix__h" width="104.7%" height="112.2%" x="-2.4%" y="-4.6%" filterUnits="objectBoundingBox">
            <feOffset dy="6" in="SourceAlpha" result="shadowOffsetOuter1"/>
            <feGaussianBlur in="shadowOffsetOuter1" result="shadowBlurOuter1" stdDeviation="7"/>
            <feColorMatrix in="shadowBlurOuter1" values="0 0 0 0 0 0 0 0 0 0 0 0 0 0 0 0 0 0 0.1 0"/>
        </filter>
        <filter id="prefix__j" width="104.7%" height="127%" x="-2.4%" y="-10.1%" filterUnits="objectBoundingBox">
            <feOffset dy="6" in="SourceAlpha" result="shadowOffsetOuter1"/>
            <feGaussianBlur in="shadowOffsetOuter1" result="shadowBlurOuter1" stdDeviation="7"/>
            <feColorMatrix in="shadowBlurOuter1" values="0 0 0 0 0 0 0 0 0 0 0 0 0 0 0 0 0 0 0.1 0"/>
        </filter>
        <filter id="prefix__m" width="120%" height="120.9%" x="-10%" y="-7.8%" filterUnits="objectBoundingBox">
            <feOffset dy="6" in="SourceAlpha" result="shadowOffsetOuter1"/>
            <feGaussianBlur in="shadowOffsetOuter1" result="shadowBlurOuter1" stdDeviation="7"/>
            <feColorMatrix in="shadowBlurOuter1" values="0 0 0 0 0 0 0 0 0 0 0 0 0 0 0 0 0 0 0.1 0"/>
        </filter>
        <rect id="prefix__b" width="360" height="660" x="110" y="70" rx="10"/>
        <rect id="prefix__i" width="1020" height="392" x="0" y="0" rx="6"/>
        <rect id="prefix__k" width="1020" height="178" x="0" y="0" rx="6"/>
        <rect id="prefix__l" width="240" height="230" x="0" y="0" rx="6"/>
        <linearGradient id="prefix__g" x1="50%" x2="50%" y1="100%" y2="0%">
            <stop offset="0%" stop-color="#F5F5F5"/>
            <stop offset="100%" stop-color="#FFF"/>
        </linearGradient>
        <ellipse id="prefix__f" cx="9.143" cy="9" rx="6.857" ry="6.75"/>
        <path id="prefix__a" d="M0 0H330V800H0z"/>
    </defs>
    <g fill="none" fill-rule="evenodd">
        <use fill="#F0F0F0" xlink:href="#prefix__a"/>
        <mask id="prefix__d" fill="#fff">
            <use xlink:href="#prefix__b"/>
        </mask>
        <use fill="#000" filter="url(#prefix__c)" xlink:href="#prefix__b"/>
        <use fill="#F7F7F7" xlink:href="#prefix__b"/>
        <g mask="url(#prefix__d)" opacity=".752">
            <g transform="translate(110 70)">
                <path fill="#2B2B2B" d="M0 0H140V660H0z"/>
                <g fill="#FFF">
                    <path fill-rule="nonzero" d="M38.41 22.14c2.45 0 3.71-1.26 3.71-2.87 0-1.54-.91-2.38-2.87-2.73l-1.54-.28c-1.05-.196-1.47-.7-1.47-1.33 0-.77.7-1.47 2.03-1.47 1.4 0 2.24.84 2.24 1.75h1.47c0-1.75-1.26-3.15-3.71-3.15-2.17 0-3.5 1.26-3.5 2.87 0 1.33.77 2.31 2.31 2.59l1.89.35c1.12.21 1.68.7 1.68 1.4 0 .84-.63 1.47-2.24 1.47-1.47 0-2.38-.84-2.38-1.75h-1.47c0 1.75 1.4 3.15 3.85 3.15zm8.4 0c1.82 0 2.8-1.26 3.15-2.17h-1.47c-.21.49-.84.98-1.68.98-1.12 0-1.96-.77-2.1-1.96h5.39s.07-.28.07-.7c0-1.96-1.47-3.43-3.36-3.43-2.03 0-3.5 1.47-3.5 3.64s1.47 3.64 3.5 3.64zm2.03-4.2h-4.13c.21-1.12.91-1.89 2.1-1.89 1.12 0 1.89.77 2.03 1.89zM55.21 22v-1.26h-1.19c-.28 0-.42-.14-.42-.42v-3.99h1.61V15H53.6v-1.96h-1.4V15h-1.12v1.33h1.12v4.2c0 .91.56 1.47 1.54 1.47h1.47zm5.11 0v-1.26h-1.19c-.28 0-.42-.14-.42-.42v-3.99h1.61V15h-1.61v-1.96h-1.4V15h-1.12v1.33h1.12v4.2c0 .91.56 1.47 1.54 1.47h1.47zm3.01-8.33V12.2h-1.54v1.47h1.54zM63.26 22v-7h-1.4v7h1.4zm3.22 0v-4.2c0-.91.77-1.68 1.82-1.68.98 0 1.68.77 1.68 1.68V22h1.4v-4.2c0-1.82-1.12-2.94-2.8-2.94-1.33 0-2.03.84-2.03.84h-.07l-.14-.7h-1.26v7h1.4zm9.73 2.94c2.1 0 3.29-1.26 3.29-3.08V15h-1.26l-.14.77h-.07c-.21-.28-.84-.91-2.17-.91-1.75 0-3.08 1.33-3.08 3.36s1.33 3.36 3.08 3.36c1.33 0 1.82-.49 2.17-.84h.07v1.12c0 1.05-.77 1.82-1.89 1.82-1.12 0-1.75-.63-1.82-1.26h-1.4c.07.98.91 2.52 3.22 2.52zm-.07-4.62c-1.12 0-1.96-.84-1.96-2.1 0-1.26.84-2.1 1.96-2.1s1.96.84 1.96 2.1c0 1.26-.84 2.1-1.96 2.1zm7.7 1.82c1.96 0 2.87-.98 2.87-2.1 0-1.19-.7-1.876-2.03-2.1l-1.26-.21c-.63-.126-1.05-.42-1.05-.84s.42-.84 1.4-.84c1.05 0 1.47.56 1.47.98h1.4c0-.77-.84-2.17-2.87-2.17-1.89 0-2.8.91-2.8 2.03 0 1.19.7 1.806 2.03 2.03l1.26.21c.77.126 1.05.42 1.05.91 0 .42-.42.91-1.47.91-1.12 0-1.61-.63-1.61-1.05h-1.4c0 .77.77 2.24 3.01 2.24z" transform="translate(0 554)"/>
                    <path d="M17.705 22.096c.095.043.19.083.29.123l.107.638c.11.66.68 1.143 1.348 1.143h1.077l.141-.007c.604-.063 1.102-.52 1.206-1.131l.106-.618.144-.059.16-.07.503.363c.55.394 1.305.325 1.776-.161l.74-.765.1-.114c.366-.473.385-1.138.03-1.635l-.361-.507c.047-.104.087-.198.125-.299l.639-.107c.647-.109 1.126-.663 1.14-1.32L27 16.49l-.004-.135c-.047-.621-.512-1.14-1.137-1.245l-.636-.105-.058-.144-.07-.16.362-.504c.389-.545.327-1.29-.145-1.764l-.764-.765-.115-.103c-.478-.382-1.161-.402-1.663-.03l-.498.369-.29-.122-.107-.64c-.11-.659-.68-1.142-1.348-1.142H19.45l-.141.007c-.604.063-1.102.52-1.206 1.131l-.105.62-.145.057-.16.07-.503-.363c-.544-.389-1.289-.327-1.761.146l-.764.765-.103.115c-.381.48-.4 1.163-.03 1.666l.37.5-.121.29-.64.106c-.659.11-1.141.682-1.141 1.35v1.08l.007.141c.062.605.52 1.104 1.13 1.208l.617.106.058.144.07.16-.362.504c-.389.545-.327 1.29.145 1.764l.764.765c.478.48 1.234.536 1.778.133l.498-.369zm2.822-10.727l.197 1.178c.03.181.164.328.342.375.365.096.714.241 1.04.432.154.099.352.099.506 0l.97-.718.763.765-.693.971c-.082.129-.096.288-.041.426l.041.08c.19.327.335.678.431 1.043.047.178.194.312.375.342l1.176.197-.024 1.08-1.176.197c-.18.03-.327.164-.374.342-.096.365-.241.716-.431 1.042-.1.155-.1.353 0 .507l.693.971-.74.765-.97-.694c-.128-.083-.287-.097-.426-.042l-.08.042c-.326.19-.675.335-1.04.431-.178.048-.311.194-.342.376l-.197 1.154H19.45l-.197-1.178c-.03-.181-.164-.328-.342-.375-.365-.096-.715-.241-1.04-.432-.154-.099-.352-.099-.506 0l-.97.718-.764-.765.694-.971c.082-.129.096-.288.041-.426l-.041-.08c-.19-.327-.335-.678-.431-1.043-.047-.178-.194-.312-.375-.342l-1.153-.197v-1.08l1.176-.197c.182-.03.328-.164.375-.342.096-.365.241-.716.431-1.042.1-.155.1-.353 0-.507l-.717-.971.764-.765.97.694c.128.083.287.097.426.042l.08-.042c.325-.19.675-.335 1.04-.431.178-.048.311-.194.342-.376l.197-1.154h1.077zM20 14c-1.657 0-3 1.343-3 3s1.343 3 3 3 3-1.343 3-3-1.343-3-3-3zm0 1.25c.966 0 1.75.784 1.75 1.75s-.784 1.75-1.75 1.75-1.75-.784-1.75-1.75.784-1.75 1.75-1.75z" transform="translate(0 554)"/>
                </g>
                <g fill="#FFF">
                    <path fill-rule="nonzero" d="M38.83 22v-8.4h3.08v-1.4h-7.63v1.4h3.08V22h1.47zm5.74-8.33V12.2h-1.54v1.47h1.54zM44.5 22v-7h-1.4v7h1.4zm3.22 2.8v-3.64h.07c.21.28.84.98 2.17.98 1.82 0 3.22-1.4 3.22-3.64s-1.4-3.64-3.22-3.64c-1.33 0-1.96.7-2.17.98h-.07l-.14-.84h-1.26v9.8h1.4zm2.03-3.92c-1.12 0-2.03-.91-2.03-2.38 0-1.47.91-2.38 2.03-2.38 1.12 0 2.03.91 2.03 2.38 0 1.47-.91 2.38-2.03 2.38zm7.42 1.26c1.96 0 2.87-.98 2.87-2.1 0-1.19-.7-1.876-2.03-2.1l-1.26-.21c-.63-.126-1.05-.42-1.05-.84s.42-.84 1.4-.84c1.05 0 1.47.56 1.47.98h1.4c0-.77-.84-2.17-2.87-2.17-1.89 0-2.8.91-2.8 2.03 0 1.19.7 1.806 2.03 2.03l1.26.21c.77.126 1.05.42 1.05.91 0 .42-.42.91-1.47.91-1.12 0-1.61-.63-1.61-1.05h-1.4c0 .77.77 2.24 3.01 2.24z" transform="translate(0 508)"/>
                    <path d="M18.75 22h2.5c.414 0 .75.336.75.75s-.336.75-.75.75h-2.5c-.414 0-.75-.336-.75-.75s.336-.75.75-.75zM20 11c2.485 0 4.5 2.015 4.5 4.5 0 1.56-.794 2.935-2 3.742v.615c0 .631-.512 1.143-1.143 1.143h-2.714c-.631 0-1.143-.512-1.143-1.143v-.615c-1.206-.807-2-2.182-2-3.742 0-2.485 2.015-4.5 4.5-4.5zm0 1.5c-1.657 0-3 1.343-3 3 0 1.21.717 2.253 1.749 2.727l.001 1.273h2.5l.001-1.273C22.283 17.753 23 16.71 23 15.5c0-1.657-1.343-3-3-3z" transform="translate(0 508)"/>
                </g>
                <g fill="#FFF">
                    <path fill-rule="nonzero" d="M36.52 22v-7.63h.28L40.79 22h2.17v-9.8h-1.47v7.63h-.28l-3.99-7.63h-2.17V22h1.47zm11.55.14c2.03 0 3.5-1.47 3.5-3.64s-1.47-3.64-3.5-3.64c-2.03 0-3.5 1.47-3.5 3.64s1.47 3.64 3.5 3.64zm0-1.26c-1.19 0-2.1-.91-2.1-2.38 0-1.47.91-2.38 2.1-2.38s2.1.91 2.1 2.38c0 1.47-.91 2.38-2.1 2.38zM56.61 22v-1.26h-1.19c-.28 0-.42-.14-.42-.42v-3.99h1.61V15H55v-1.96h-1.4V15h-1.12v1.33h1.12v4.2c0 .91.56 1.47 1.54 1.47h1.47zm3.01-8.33V12.2h-1.54v1.47h1.54zM59.55 22v-7h-1.4v7h1.4zm3.78 0v-5.67h2.31V22h1.4v-7h-3.71v-1.05c0-.28.14-.42.42-.42h.91v-1.26H63.4c-.84 0-1.47.63-1.47 1.47V15h-1.12v1.33h1.12V22h1.4zm3.78-8.26v-1.47h-1.54v1.47h1.54zm4.9 8.4c2.1 0 3.01-1.54 3.22-2.59h-1.4c-.14.56-.7 1.33-1.82 1.33-1.19 0-2.1-.91-2.1-2.38 0-1.47.91-2.38 2.1-2.38 1.05 0 1.61.63 1.82 1.26h1.4c-.21-.98-1.12-2.52-3.22-2.52-2.03 0-3.5 1.47-3.5 3.64s1.47 3.64 3.5 3.64zm6.86 0c1.47 0 2.1-.91 2.1-.91h.07l.14.77h1.19v-4.48c0-1.61-1.05-2.66-2.87-2.66-1.75 0-2.8.98-2.87 2.17h1.4c.07-.42.49-.98 1.47-.98.91 0 1.47.56 1.47 1.47v.14h-1.75c-1.96 0-2.87.91-2.87 2.31 0 1.26.98 2.17 2.52 2.17zm.14-1.19c-.84 0-1.26-.42-1.26-1.05 0-.63.49-1.12 1.54-1.12h1.68v.28c0 1.19-.7 1.89-1.96 1.89zM87.69 22v-1.26H86.5c-.28 0-.42-.14-.42-.42v-3.99h1.61V15h-1.61v-1.96h-1.4V15h-1.12v1.33h1.12v4.2c0 .91.56 1.47 1.54 1.47h1.47zm3.01-8.33V12.2h-1.54v1.47h1.54zM90.63 22v-7h-1.4v7h1.4zm4.97.14c2.03 0 3.5-1.47 3.5-3.64s-1.47-3.64-3.5-3.64c-2.03 0-3.5 1.47-3.5 3.64s1.47 3.64 3.5 3.64zm0-1.26c-1.19 0-2.1-.91-2.1-2.38 0-1.47.91-2.38 2.1-2.38s2.1.91 2.1 2.38c0 1.47-.91 2.38-2.1 2.38zm6.37 1.12v-4.2c0-.91.77-1.68 1.82-1.68.98 0 1.68.77 1.68 1.68V22h1.4v-4.2c0-1.82-1.12-2.94-2.8-2.94-1.33 0-2.03.84-2.03.84h-.07l-.14-.7h-1.26v7h1.4zm9.17.14c1.96 0 2.87-.98 2.87-2.1 0-1.19-.7-1.876-2.03-2.1l-1.26-.21c-.63-.126-1.05-.42-1.05-.84s.42-.84 1.4-.84c1.05 0 1.47.56 1.47.98h1.4c0-.77-.84-2.17-2.87-2.17-1.89 0-2.8.91-2.8 2.03 0 1.19.7 1.806 2.03 2.03l1.26.21c.77.126 1.05.42 1.05.91 0 .42-.42.91-1.47.91-1.12 0-1.61-.63-1.61-1.05h-1.4c0 .77.77 2.24 3.01 2.24z" transform="translate(0 462)"/>
                    <path d="M19.25 22h1.5c.414 0 .75.336.75.75s-.336.75-.75.75h-1.5c-.414 0-.75-.336-.75-.75s.336-.75.75-.75zM20 11.25c2.193 0 3.985 1.693 4.091 3.823l.005.2v2.53l.068.02c.545.18.954.64 1.06 1.2l.02.142.006.146v.737c0 .52-.398.944-.909.998l-.11.006h-8.462c-.524 0-.958-.39-1.013-.895l-.006-.11v-.736c0-.638.388-1.193.953-1.438l.133-.05.067-.02v-2.53c0-2.088 1.62-3.803 3.69-4.003l.203-.015.204-.005zm0 1.255c-1.505 0-2.733 1.15-2.822 2.6l-.005.168v2.907c0 .45-.371.815-.825.815-.16 0-.292.11-.322.252l-.007.064v.486h7.961v-.486c0-.153-.11-.28-.261-.31l-.067-.006c-.42 0-.768-.311-.819-.713l-.006-.102v-2.907c0-1.528-1.264-2.768-2.827-2.768z" transform="translate(0 462)"/>
                </g>
                <g fill="#FFF">
                    <path fill-rule="nonzero" d="M38.41 22.14c2.45 0 3.71-1.26 3.71-2.87 0-1.54-.91-2.38-2.87-2.73l-1.54-.28c-1.05-.196-1.47-.7-1.47-1.33 0-.77.7-1.47 2.03-1.47 1.4 0 2.24.84 2.24 1.75h1.47c0-1.75-1.26-3.15-3.71-3.15-2.17 0-3.5 1.26-3.5 2.87 0 1.33.77 2.31 2.31 2.59l1.89.35c1.12.21 1.68.7 1.68 1.4 0 .84-.63 1.47-2.24 1.47-1.47 0-2.38-.84-2.38-1.75h-1.47c0 1.75 1.4 3.15 3.85 3.15zm8.4 0c1.82 0 2.8-1.26 3.15-2.17h-1.47c-.21.49-.84.98-1.68.98-1.12 0-1.96-.77-2.1-1.96h5.39s.07-.28.07-.7c0-1.96-1.47-3.43-3.36-3.43-2.03 0-3.5 1.47-3.5 3.64s1.47 3.64 3.5 3.64zm2.03-4.2h-4.13c.21-1.12.91-1.89 2.1-1.89 1.12 0 1.89.77 2.03 1.89zm5.04 4.2c1.47 0 2.1-.91 2.1-.91h.07l.14.77h1.19v-4.48c0-1.61-1.05-2.66-2.87-2.66-1.75 0-2.8.98-2.87 2.17h1.4c.07-.42.49-.98 1.47-.98.91 0 1.47.56 1.47 1.47v.14h-1.75c-1.96 0-2.87.91-2.87 2.31 0 1.26.98 2.17 2.52 2.17zm.14-1.19c-.84 0-1.26-.42-1.26-1.05 0-.63.49-1.12 1.54-1.12h1.68v.28c0 1.19-.7 1.89-1.96 1.89zM60.53 22v-4.284c0-.966.49-1.456 1.47-1.456h1.12V15h-1.26c-.84 0-1.12.35-1.33.63h-.07l-.14-.63h-1.19v7h1.4zm6.79.14c2.1 0 3.01-1.54 3.22-2.59h-1.4c-.14.56-.7 1.33-1.82 1.33-1.19 0-2.1-.91-2.1-2.38 0-1.47.91-2.38 2.1-2.38 1.05 0 1.61.63 1.82 1.26h1.4c-.21-.98-1.12-2.52-3.22-2.52-2.03 0-3.5 1.47-3.5 3.64s1.47 3.64 3.5 3.64zm6.09-.14v-4.2c0-.91.77-1.68 1.82-1.68.98 0 1.68.77 1.68 1.68V22h1.4v-4.2c0-1.82-1.12-2.94-2.8-2.94-1.33 0-2.03.84-2.03.84h-.07v-3.5h-1.4V22h1.4z" transform="translate(0 416)"/>
                    <path d="M19 11c2.761 0 5 2.239 5 5 0 1.11-.362 2.136-.974 2.966l2.333 2.332c.293.293.293.768 0 1.06-.293.294-.768.294-1.06 0l-2.333-2.332c-.83.612-1.856.974-2.966.974-2.761 0-5-2.239-5-5s2.239-5 5-5zm0 1.5c-1.933 0-3.5 1.567-3.5 3.5s1.567 3.5 3.5 3.5 3.5-1.567 3.5-3.5-1.567-3.5-3.5-3.5z" transform="translate(0 416)"/>
                </g>
                <g>
                    <path fill="#2B2B2B" d="M0 0H140V34H0z" transform="translate(0 614)"/>
                    <path fill="#FFF" fill-rule="nonzero" d="M38.48 22c2.66 0 4.69-2.03 4.69-4.9 0-2.87-2.03-4.9-4.69-4.9h-3.43V22h3.43zm0-1.4h-1.96v-7h1.96c1.82 0 3.22 1.4 3.22 3.5s-1.4 3.5-3.22 3.5zm7.7-6.93V12.2h-1.54v1.47h1.54zM46.11 22v-7h-1.4v7h1.4zm4.34.14c1.96 0 2.87-.98 2.87-2.1 0-1.19-.7-1.876-2.03-2.1l-1.26-.21c-.63-.126-1.05-.42-1.05-.84s.42-.84 1.4-.84c1.05 0 1.47.56 1.47.98h1.4c0-.77-.84-2.17-2.87-2.17-1.89 0-2.8.91-2.8 2.03 0 1.19.7 1.806 2.03 2.03l1.26.21c.77.126 1.05.42 1.05.91 0 .42-.42.91-1.47.91-1.12 0-1.61-.63-1.61-1.05h-1.4c0 .77.77 2.24 3.01 2.24zm7.42 0c2.1 0 3.01-1.54 3.22-2.59h-1.4c-.14.56-.7 1.33-1.82 1.33-1.19 0-2.1-.91-2.1-2.38 0-1.47.91-2.38 2.1-2.38 1.05 0 1.61.63 1.82 1.26h1.4c-.21-.98-1.12-2.52-3.22-2.52-2.03 0-3.5 1.47-3.5 3.64s1.47 3.64 3.5 3.64zm6.02-.14v-4.284c0-.966.49-1.456 1.47-1.456h1.12V15h-1.26c-.84 0-1.12.35-1.33.63h-.07l-.14-.63h-1.19v7h1.4zm6.79.14c1.82 0 2.8-1.26 3.15-2.17h-1.47c-.21.49-.84.98-1.68.98-1.12 0-1.96-.77-2.1-1.96h5.39s.07-.28.07-.7c0-1.96-1.47-3.43-3.36-3.43-2.03 0-3.5 1.47-3.5 3.64s1.47 3.64 3.5 3.64zm2.03-4.2h-4.13c.21-1.12.91-1.89 2.1-1.89 1.12 0 1.89.77 2.03 1.89zm5.95 4.2c1.82 0 2.8-1.26 3.15-2.17h-1.47c-.21.49-.84.98-1.68.98-1.12 0-1.96-.77-2.1-1.96h5.39s.07-.28.07-.7c0-1.96-1.47-3.43-3.36-3.43-2.03 0-3.5 1.47-3.5 3.64s1.47 3.64 3.5 3.64zm2.03-4.2h-4.13c.21-1.12.91-1.89 2.1-1.89 1.12 0 1.89.77 2.03 1.89zM87.06 22v-1.26h-1.19c-.28 0-.42-.14-.42-.42v-3.99h1.61V15h-1.61v-1.96h-1.4V15h-1.12v1.33h1.12v4.2c0 .91.56 1.47 1.54 1.47h1.47z" transform="translate(0 614)"/>
                    <path fill="#FFF" d="M24.736 11.75c.293.293.293.768 0 1.061l-9.425 9.425c-.293.293-.768.293-1.06 0-.294-.293-.294-.768 0-1.061l1.09-1.091c-.242-.189-.476-.393-.704-.613-.211-.203-.41-.413-.618-.647l-.336-.394c-.165-.197-.416-.5-.489-.583-.425-.49-.425-1.204 0-1.694l.615-.734c.286-.336.546-.619.828-.89 1.428-1.377 3.117-2.154 5.363-2.154.972 0 1.84.146 2.627.422l1.048-1.047c.293-.293.768-.293 1.06 0zm.627 2.779c.211.203.41.413.618.647l.336.394c.165.197.416.5.489.583.425.49.425 1.204 0 1.694l-.615.734c-.286.336-.546.619-.828.89-1.428 1.377-3.117 2.154-5.363 2.154-.673 0-1.295-.07-1.876-.204l1.11-1.107c.246.026.502.04.767.042 1.898.01 3.32-.663 4.546-1.875.18-.179.352-.363.533-.572l.328-.39c.141-.172.342-.415.41-.493.013-.016.013-.036 0-.052l-.553-.665c-.254-.303-.477-.551-.718-.79-.088-.087-.177-.171-.267-.252l.905-.905c.06.054.12.11.178.167zm-5.362-.885c-1.899.01-3.321.683-4.544 1.88-.182.18-.354.363-.536.57l-.739.88c-.013.016-.013.036 0 .052l.554.664c.253.3.478.547.721.785.259.253.526.483.805.688l5.343-5.344c-.496-.118-1.028-.178-1.604-.175z" transform="translate(0 614)"/>
                    <g transform="translate(0 614) translate(98 8)">
                        <rect width="32" height="18" fill="#B3B3B3" rx="9"/>
                        <g fill-rule="nonzero">
                            <use fill="#000" filter="url(#prefix__e)" xlink:href="#prefix__f"/>
                            <ellipse cx="9.143" cy="9" fill="url(#prefix__g)" fill-rule="evenodd" stroke="#FFF" stroke-linejoin="square" rx="6.357" ry="6.25"/>
                        </g>
                    </g>
                </g>
                <rect width="124" height="2" fill="#F5F5F5" opacity=".1" rx="1" transform="translate(8 600)"/>
                <g fill="#FFF">
                    <path d="M32 17V7c0-.552-.448-1-1-1h-1V3c0-.552-.448-1-1-1H15c-1.657 0-3 1.343-3 3v14c-.008.792.306 1.554.87 2.11.56.574 1.329.896 2.13.89h16c.552 0 1-.448 1-1v-4zm-2-2h-5c-.552 0-1-.448-1-1s.448-1 1-1h5v2zM15 4h13v2H15c-.268-.004-.524-.116-.71-.31-.182-.184-.286-.431-.29-.69 0-.552.448-1 1-1zm0 16c-.268-.004-.524-.116-.71-.31-.182-.184-.286-.431-.29-.69V7.83l.27.07h.17c.183.05.37.084.56.1h15v3h-5c-1.657 0-3 1.343-3 3s1.343 3 3 3h5v3H15z" transform="translate(48 214)"/>
                    <path fill-rule="nonzero" d="M5.76 47l1.68-6.72h.28L9.4 47h2.52l2.45-9.8h-2.03l-1.68 6.86h-.28L8.63 37.2h-2.1l-1.75 6.86H4.5L2.82 37.2H.79L3.24 47h2.52zm11.83.14c1.4 0 2.03-.84 2.03-.84h.07l.14.7h1.47v-4.55c0-1.54-1.19-2.73-3.01-2.73-1.89 0-2.87 1.12-3.01 2.31h1.75c.07-.42.49-.91 1.26-.91s1.26.56 1.26 1.33v.14h-1.61c-1.96 0-2.94.98-2.94 2.38 0 1.19.98 2.17 2.59 2.17zm.28-1.4c-.7 0-1.12-.35-1.12-.91s.42-.91 1.33-.91h1.47v.21c0 .98-.63 1.61-1.68 1.61zm7 1.26v-9.8h-1.75V47h1.75zm3.71 0v-9.8h-1.75V47h1.75zm5.18.14c2.24 0 3.15-1.68 3.29-2.24h-1.82c-.14.28-.63.77-1.47.77-.98 0-1.75-.7-1.89-1.68h5.32s.07-.28.07-.7c0-2.03-1.54-3.57-3.5-3.57-2.1 0-3.64 1.54-3.64 3.71s1.54 3.71 3.64 3.71zm1.75-4.34h-3.64c.21-.91.84-1.61 1.89-1.61.98 0 1.61.7 1.75 1.61zm7.14 4.2v-1.54h-1.12c-.35 0-.49-.14-.49-.49v-3.43h1.61v-1.68h-1.61v-2.03h-1.75v2.03h-1.12v1.68h1.12v3.78c0 1.05.63 1.68 1.82 1.68h1.54z" transform="translate(48 214)"/>
                </g>
                <g>
                    <path fill="#F7F7F7" d="M3 6h125c4 0 6-2 6-6v96c0-4-2-6-6-6H3c-1.657 0-3-1.343-3-3V9c0-1.657 1.343-3 3-3z" transform="translate(6 102)"/>
                    <path fill="#2B2B2B" d="M72 25c.552 0 1 .448 1 1v11.5c0 .552-.448 1-1 1h-2.375l.852 3.409c.118.47-.168.947-.639 1.065-.07.017-.141.026-.213.026h-.344c-.46 0-.86-.312-.97-.757l-.937-3.743h-6.749l-.936 3.743c-.102.408-.446.704-.856.75l-.114.007h-.344c-.072 0-.143-.009-.213-.026-.434-.109-.712-.524-.66-.957l.02-.108.852-3.409H56c-.552 0-1-.448-1-1V26c0-.552.448-1 1-1h16zm-.875 1.875h-14.25v9.75h14.25v-9.75zm-11 4.875h.625c.345 0 .625.28.625.625v1.75c0 .345-.28.625-.625.625h-.625c-.345 0-.625-.28-.625-.625v-1.75c0-.345.28-.625.625-.625zm3.555-1.5h.625c.345 0 .625.28.625.625v3.25c0 .345-.28.625-.625.625h-.625c-.345 0-.625-.28-.625-.625v-3.25c0-.345.28-.625.625-.625zm3.57-1.5h.625c.345 0 .625.28.625.625v4.75c0 .345-.28.625-.625.625h-.625c-.345 0-.625-.28-.625-.625v-4.75c0-.345.28-.625.625-.625z" transform="translate(6 102)"/>
                    <path fill="#2B2B2B" fill-rule="nonzero" d="M32.605 69c2.66 0 4.76-2.1 4.76-4.9 0-2.8-2.1-4.9-4.76-4.9h-3.57V69h3.57zm0-1.75h-1.75v-6.3h1.75c1.68 0 2.94 1.26 2.94 3.15s-1.26 3.15-2.94 3.15zm8.54 1.89c1.4 0 2.03-.84 2.03-.84h.07l.14.7h1.47v-4.55c0-1.54-1.19-2.73-3.01-2.73-1.89 0-2.87 1.12-3.01 2.31h1.75c.07-.42.49-.91 1.26-.91s1.26.56 1.26 1.33v.14h-1.61c-1.96 0-2.94.98-2.94 2.38 0 1.19.98 2.17 2.59 2.17zm.28-1.4c-.7 0-1.12-.35-1.12-.91s.42-.91 1.33-.91h1.47v.21c0 .98-.63 1.61-1.68 1.61zm7.77 1.4c2.1 0 3.08-.98 3.08-2.17 0-1.26-.77-1.946-2.24-2.17l-1.19-.182c-.63-.098-.98-.308-.98-.658 0-.42.42-.84 1.26-.84.84 0 1.33.49 1.33.91h1.68c0-.84-.91-2.31-3.01-2.31-1.96 0-3.01 1.05-3.01 2.24 0 1.19.84 1.792 2.31 2.03l1.12.182c.77.126.98.378.98.798 0 .434-.35.77-1.33.77-.98 0-1.4-.56-1.4-.91h-1.68c0 .49.42 2.31 3.08 2.31zm6.3-.14v-4.13c0-.91.63-1.54 1.54-1.54s1.54.63 1.54 1.54V69h1.75v-4.27c0-1.82-1.19-3.01-2.8-3.01-1.33 0-1.96.84-1.96.84h-.07V59.2h-1.75V69h1.75zm10.5.14c1.82 0 3.29-1.47 3.29-3.71s-1.47-3.71-3.29-3.71c-1.4 0-2.03.91-2.03.91h-.07V59.2h-1.75V69h1.54l.14-.77h.07s.63.91 2.1.91zm-.28-1.61c-1.05 0-1.82-.77-1.82-2.1s.77-2.1 1.82-2.1 1.82.77 1.82 2.1-.77 2.1-1.82 2.1zm8.33 1.61c2.1 0 3.64-1.54 3.64-3.71s-1.54-3.71-3.64-3.71-3.64 1.54-3.64 3.71 1.54 3.71 3.64 3.71zm0-1.61c-1.05 0-1.89-.84-1.89-2.1 0-1.26.84-2.1 1.89-2.1 1.05 0 1.89.84 1.89 2.1 0 1.26-.84 2.1-1.89 2.1zm7.35 1.61c1.4 0 2.03-.84 2.03-.84h.07l.14.7h1.47v-4.55c0-1.54-1.19-2.73-3.01-2.73-1.89 0-2.87 1.12-3.01 2.31h1.75c.07-.42.49-.91 1.26-.91s1.26.56 1.26 1.33v.14h-1.61c-1.96 0-2.94.98-2.94 2.38 0 1.19.98 2.17 2.59 2.17zm.28-1.4c-.7 0-1.12-.35-1.12-.91s.42-.91 1.33-.91h1.47v.21c0 .98-.63 1.61-1.68 1.61zm6.93 1.26v-4.13c0-.91.42-1.33 1.33-1.33h1.26v-1.68h-1.4c-.84 0-1.26.63-1.26.63h-.07l-.14-.63h-1.47V69h1.75zm6.58.14c1.47 0 2.1-.91 2.1-.91h.07l.14.77h1.54v-9.8h-1.75v3.43h-.07s-.63-.91-2.03-.91c-1.82 0-3.29 1.47-3.29 3.71s1.47 3.71 3.29 3.71zm.28-1.61c-1.05 0-1.82-.77-1.82-2.1s.77-2.1 1.82-2.1 1.82.77 1.82 2.1-.77 2.1-1.82 2.1z" transform="translate(6 102)"/>
                </g>
                <rect width="124" height="2" fill="#F5F5F5" opacity=".1" rx="1" transform="translate(8 100)"/>
                <g>
                    <path fill="#FFF" fill-rule="nonzero" d="M14.87 24v-6.79h.28L17.46 24h1.96l2.31-6.79h.28V24h1.82v-9.8h-2.94l-2.31 6.86h-.28l-2.31-6.86h-2.94V24h1.82zm12.32 2.8c1.33 0 1.75-.42 2.1-1.4l3.01-8.54h-1.82l-1.68 4.83h-.28l-1.82-4.83h-1.82l2.898 7.63-.126.35c-.07.21-.182.35-.532.35h-1.4v1.61h1.47zM40.84 24v-8.05h2.94V14.2h-7.7v1.75h2.94V24h1.82zm5.88 0v-4.13c0-.91.42-1.33 1.33-1.33h1.26v-1.68h-1.4c-.84 0-1.26.63-1.26.63h-.07l-.14-.63h-1.47V24h1.75zm6.93.14c2.24 0 3.15-1.68 3.29-2.24h-1.82c-.14.28-.63.77-1.47.77-.98 0-1.75-.7-1.89-1.68h5.32s.07-.28.07-.7c0-2.03-1.54-3.57-3.5-3.57-2.1 0-3.64 1.54-3.64 3.71s1.54 3.71 3.64 3.71zm1.75-4.34h-3.64c.21-.91.84-1.61 1.89-1.61.98 0 1.61.7 1.75 1.61zm8.54 4.2v-1.61h-3.57l3.5-3.99v-1.54H58.2v1.61h3.43l-3.5 3.99V24h5.81zm4.62.14c2.1 0 3.64-1.54 3.64-3.71s-1.54-3.71-3.64-3.71-3.64 1.54-3.64 3.71 1.54 3.71 3.64 3.71zm0-1.61c-1.05 0-1.89-.84-1.89-2.1 0-1.26.84-2.1 1.89-2.1 1.05 0 1.89.84 1.89 2.1 0 1.26-.84 2.1-1.89 2.1zM75.42 24v-4.13c0-.91.42-1.33 1.33-1.33h1.26v-1.68h-1.4c-.84 0-1.26.63-1.26.63h-.07l-.14-.63h-1.47V24h1.75z" transform="translate(0 21)"/>
                    <path fill="#39A814" d="M128 12c.552 0 1 .448 1 1v5.716c0 1.263-.157 2.192-.228 2.461-.067.252-.372 1-.994 1.815l-.138.175c-.328.404-.704.956-1.023 1.447l-.717 1.148c-.084.134-.249.238-.51.238h-2.78c-.262 0-.427-.104-.51-.238l-.41-.665-.338-.53c-.245-.376-.521-.784-.783-1.131l-.21-.269c-.714-.88-1.06-1.72-1.131-1.99l-.03-.131-.04-.208c-.067-.4-.144-1.063-.156-1.89L119 13c0-.513.386-.936.883-.993L120 12h8zm-.2 1.2h-7.6l.001 5.73c.012.766.086 1.462.166 1.846l.02.094c.069.258.368.84.799 1.406l.342.438c.362.481.762 1.08 1.185 1.754l.204.332h2.169l.524-.84.337-.508c.219-.323.424-.61.612-.853l.265-.335c.42-.55.723-1.148.788-1.394l.04-.19c.076-.414.148-1.17.148-1.964V13.2zm-1.3 1.3v5h-5v-5h5z" transform="translate(0 21)"/>
                    <path fill="#FFF" d="M127 43l-4.225 4.278c-.292.296-.765.296-1.056 0-.292-.295-.292-.774 0-1.07l3.17-3.209-3.17-3.208c-.292-.295-.292-.774 0-1.07.291-.295.764-.295 1.056 0L127 43z" opacity=".5" transform="translate(0 21)"/>
                    <path fill="#B3B3B3" fill-rule="nonzero" d="M15.78 47.12c2.1 0 3.18-1.08 3.18-2.46 0-1.32-.78-2.04-2.46-2.34l-1.32-.24c-.9-.168-1.26-.6-1.26-1.14 0-.66.6-1.26 1.74-1.26 1.2 0 1.92.72 1.92 1.5h1.26c0-1.5-1.08-2.7-3.18-2.7-1.86 0-3 1.08-3 2.46 0 1.14.66 1.98 1.98 2.22l1.62.3c.96.18 1.44.6 1.44 1.2 0 .72-.54 1.26-1.92 1.26-1.26 0-2.04-.72-2.04-1.5h-1.26c0 1.5 1.2 2.7 3.3 2.7zm7.56-.12v-1.08h-1.02c-.24 0-.36-.12-.36-.36v-3.42h1.38V41h-1.38v-1.68h-1.2V41h-.96v1.14h.96v3.6c0 .78.48 1.26 1.32 1.26h1.26zm3.24.12c1.26 0 1.8-.78 1.8-.78h.06l.12.66h1.02v-3.84c0-1.38-.9-2.28-2.46-2.28-1.5 0-2.4.84-2.46 1.86h1.2c.06-.36.42-.84 1.26-.84.78 0 1.26.48 1.26 1.26v.12h-1.5c-1.68 0-2.46.78-2.46 1.98 0 1.08.84 1.86 2.16 1.86zm.12-1.02c-.72 0-1.08-.36-1.08-.9s.42-.96 1.32-.96h1.44v.24c0 1.02-.6 1.62-1.68 1.62zm5.58.9v-3.6c0-.78.66-1.44 1.56-1.44.84 0 1.44.66 1.44 1.44V47h1.2v-3.6c0-1.56-.96-2.52-2.4-2.52-1.14 0-1.74.72-1.74.72h-.06l-.12-.6h-1.08v6h1.2zm8.16.12c1.14 0 1.68-.6 1.86-.84h.06l.12.72h1.08v-8.4h-1.2v3.12h-.06c-.18-.24-.72-.84-1.86-.84-1.56 0-2.76 1.2-2.76 3.12 0 1.92 1.2 3.12 2.76 3.12zm.18-1.08c-.96 0-1.74-.78-1.74-2.04s.78-2.04 1.74-2.04 1.74.78 1.74 2.04-.78 2.04-1.74 2.04zm6.48 1.08c1.26 0 1.8-.78 1.8-.78h.06l.12.66h1.02v-3.84c0-1.38-.9-2.28-2.46-2.28-1.5 0-2.4.84-2.46 1.86h1.2c.06-.36.42-.84 1.26-.84.78 0 1.26.48 1.26 1.26v.12h-1.5c-1.68 0-2.46.78-2.46 1.98 0 1.08.84 1.86 2.16 1.86zm.12-1.02c-.72 0-1.08-.36-1.08-.9s.42-.96 1.32-.96h1.44v.24c0 1.02-.6 1.62-1.68 1.62zm5.58.9v-3.672c0-.828.42-1.248 1.26-1.248h.96V41h-1.08c-.72 0-.96.3-1.14.54h-.06l-.12-.54H51.6v6h1.2zm5.58.12c1.14 0 1.68-.6 1.86-.84h.06l.12.72h1.08v-8.4h-1.2v3.12h-.06c-.18-.24-.72-.84-1.86-.84-1.56 0-2.76 1.2-2.76 3.12 0 1.92 1.2 3.12 2.76 3.12zm.18-1.08c-.96 0-1.74-.78-1.74-2.04s.78-2.04 1.74-2.04 1.74.78 1.74 2.04-.78 2.04-1.74 2.04zm10.08.96l1.14-4.32h.24L71.16 47h1.74l1.62-6h-1.26l-1.14 4.44h-.24L70.704 41h-1.608l-1.176 4.44h-.24L66.54 41h-1.26l1.62 6h1.74zm8.7.12c1.26 0 1.8-.78 1.8-.78h.06l.12.66h1.02v-3.84c0-1.38-.9-2.28-2.46-2.28-1.5 0-2.4.84-2.46 1.86h1.2c.06-.36.42-.84 1.26-.84.78 0 1.26.48 1.26 1.26v.12h-1.5c-1.68 0-2.46.78-2.46 1.98 0 1.08.84 1.86 2.16 1.86zm.12-1.02c-.72 0-1.08-.36-1.08-.9s.42-.96 1.32-.96h1.44v.24c0 1.02-.6 1.62-1.68 1.62zm5.64.9v-8.4h-1.2V47h1.2zm2.88 0v-8.4h-1.2V47h1.2zm4.32.12c1.56 0 2.4-1.08 2.7-1.86h-1.26c-.18.42-.72.84-1.44.84-.96 0-1.68-.66-1.8-1.68h4.62s.06-.24.06-.6c0-1.68-1.26-2.94-2.88-2.94-1.74 0-3 1.26-3 3.12s1.26 3.12 3 3.12zm1.74-3.6H88.5c.18-.96.78-1.62 1.8-1.62.96 0 1.62.66 1.74 1.62zM97.5 47v-1.08h-1.02c-.24 0-.36-.12-.36-.36v-3.42h1.38V41h-1.38v-1.68h-1.2V41h-.96v1.14h.96v3.6c0 .78.48 1.26 1.32 1.26h1.26z" transform="translate(0 21)"/>
                </g>
                <g transform="translate(156 16)">
                    <use fill="#000" filter="url(#prefix__h)" xlink:href="#prefix__i"/>
                    <use fill="#FFF" xlink:href="#prefix__i"/>
                    <g>
                        <g fill="#CCC">
                            <path d="M0 145H860V146H0zM0 73H860V74H0zM0 0H860V1H0z" transform="translate(40 166) translate(0 8)"/>
                        </g>
                        <g fill="#CCC">
                            <path d="M0 0H1V4H0zM100 0H101V4H100z" transform="translate(40 166) translate(29 154)"/>
                        </g>
                        <g fill="gray" fill-rule="nonzero">
                            <path d="M8.417 13.117c.437 0 .826-.074 1.166-.222.34-.149.627-.367.861-.654.235-.287.414-.64.54-1.06.124-.42.187-.902.187-1.445V7.738c0-.543-.063-1.024-.188-1.444-.125-.42-.305-.774-.542-1.064-.236-.289-.525-.508-.867-.659-.342-.15-.731-.225-1.169-.225-.433 0-.821.075-1.163.225-.342.15-.63.37-.867.66-.236.289-.417.643-.542 1.063-.125.42-.187.901-.187 1.444v1.998c0 .543.063 1.025.19 1.445.127.42.31.773.548 1.06.238.287.528.505.87.654.342.148.73.222 1.163.222zM6.735 9.52V7.498c0-.738.136-1.3.408-1.685.271-.384.692-.577 1.262-.577.504 0 .89.148 1.158.443.267.295.432.725.495 1.292L6.735 9.52zm1.682 2.718c-.488 0-.87-.144-1.143-.433-.273-.29-.443-.71-.51-1.26l3.317-2.537v1.957c0 .734-.134 1.297-.401 1.687-.268.391-.689.586-1.263.586zm8.994.762v-1.98h1.19v-.885h-1.19V4.469h-1.154l-3.82 5.912v.639h3.89V13h1.084zm-1.084-2.865h-2.69l2.514-3.897.176-.328v4.225zm5.32 3.597l3.557-9.263h-.967l-3.562 9.263h.972zM32.651 13v-.885h-4.283l2.291-2.484c.215-.235.42-.47.612-.706.194-.237.364-.476.51-.718.147-.242.263-.487.349-.735.086-.248.129-.5.129-.753 0-.34-.06-.655-.179-.944-.12-.289-.29-.539-.513-.75-.222-.21-.495-.376-.817-.495-.322-.119-.685-.178-1.087-.178-.437 0-.827.07-1.169.21-.342.141-.63.33-.867.569-.236.238-.417.516-.542.835-.125.318-.188.657-.188 1.016h1.09c0-.265.034-.505.103-.72.068-.215.172-.398.31-.548.14-.15.313-.267.522-.349.209-.082.456-.123.741-.123.234 0 .444.04.63.12.186.08.344.189.475.325.13.137.23.298.298.484.069.185.103.384.103.595 0 .171-.022.338-.065.5-.042.163-.115.335-.216.516-.102.182-.237.38-.405.595-.168.215-.377.46-.627.738l-2.794 3.106V13h5.59zm4.57.117c.438 0 .827-.074 1.167-.222.34-.149.627-.367.861-.654.234-.287.414-.64.54-1.06.124-.42.187-.902.187-1.445V7.738c0-.543-.063-1.024-.188-1.444-.125-.42-.306-.774-.542-1.064-.236-.289-.525-.508-.867-.659-.342-.15-.732-.225-1.169-.225-.434 0-.821.075-1.163.225-.342.15-.631.37-.867.66-.237.289-.417.643-.542 1.063-.125.42-.188.901-.188 1.444v1.998c0 .543.064 1.025.19 1.445.128.42.31.773.548 1.06.239.287.529.505.87.654.342.148.73.222 1.164.222zM35.54 9.52V7.498c0-.738.136-1.3.407-1.685.272-.384.693-.577 1.263-.577.504 0 .89.148 1.157.443.268.295.433.725.495 1.292L35.54 9.52zm1.682 2.718c-.489 0-.87-.144-1.143-.433-.273-.29-.443-.71-.51-1.26l3.317-2.537v1.957c0 .734-.134 1.297-.402 1.687-.267.391-.688.586-1.262.586zm9.832.762v-.885H42.77l2.29-2.484c.215-.235.42-.47.613-.706.193-.237.363-.476.51-.718.146-.242.262-.487.348-.735.086-.248.13-.5.13-.753 0-.34-.06-.655-.18-.944-.119-.289-.29-.539-.512-.75-.223-.21-.495-.376-.818-.495-.322-.119-.684-.178-1.087-.178-.437 0-.827.07-1.169.21-.341.141-.63.33-.867.569-.236.238-.417.516-.542.835-.125.318-.187.657-.187 1.016h1.09c0-.265.034-.505.102-.72.069-.215.172-.398.31-.548.14-.15.313-.267.522-.349.21-.082.456-.123.741-.123.235 0 .445.04.63.12.186.08.344.189.475.325.13.137.23.298.299.484.068.185.102.384.102.595 0 .171-.021.338-.064.5-.043.163-.115.335-.217.516-.102.182-.236.38-.404.595-.168.215-.377.46-.627.738l-2.795 3.106V13h5.59zm4.57.117c.438 0 .826-.074 1.166-.222.34-.149.627-.367.861-.654.235-.287.414-.64.54-1.06.124-.42.187-.902.187-1.445V7.738c0-.543-.063-1.024-.188-1.444-.125-.42-.305-.774-.542-1.064-.236-.289-.525-.508-.867-.659-.342-.15-.731-.225-1.169-.225-.433 0-.821.075-1.163.225-.342.15-.63.37-.867.66-.236.289-.417.643-.542 1.063-.125.42-.187.901-.187 1.444v1.998c0 .543.063 1.025.19 1.445.127.42.31.773.548 1.06.238.287.528.505.87.654.342.148.73.222 1.163.222zM49.942 9.52V7.498c0-.738.136-1.3.408-1.685.271-.384.692-.577 1.262-.577.504 0 .89.148 1.158.443.267.295.432.725.495 1.292L49.942 9.52zm1.682 2.718c-.488 0-.87-.144-1.143-.433-.273-.29-.443-.71-.51-1.26l3.317-2.537v1.957c0 .734-.134 1.297-.401 1.687-.268.391-.689.586-1.263.586zM109.331 13V4.469h-.088l-3.228 1.242v.99l2.232-.85V13h1.084zm6.287.117c.438 0 .826-.074 1.166-.222.34-.149.627-.367.862-.654.234-.287.414-.64.539-1.06.125-.42.187-.902.187-1.445V7.738c0-.543-.062-1.024-.187-1.444-.125-.42-.306-.774-.542-1.064-.237-.289-.526-.508-.868-.659-.341-.15-.731-.225-1.169-.225-.433 0-.82.075-1.163.225-.341.15-.63.37-.867.66-.236.289-.417.643-.542 1.063-.125.42-.187.901-.187 1.444v1.998c0 .543.063 1.025.19 1.445.127.42.31.773.548 1.06.238.287.528.505.87.654.342.148.73.222 1.163.222zm-1.681-3.597V7.498c0-.738.135-1.3.407-1.685.271-.384.692-.577 1.262-.577.504 0 .89.148 1.158.443.267.295.432.725.495 1.292l-3.322 2.549zm1.681 2.718c-.488 0-.869-.144-1.142-.433-.274-.29-.444-.71-.51-1.26l3.316-2.537v1.957c0 .734-.134 1.297-.401 1.687-.268.391-.689.586-1.263.586zm6.03 1.494l3.556-9.263h-.967l-3.562 9.263h.972zM132.65 13v-.885h-4.283l2.291-2.484c.215-.235.42-.47.612-.706.194-.237.364-.476.51-.718.147-.242.263-.487.349-.735.086-.248.129-.5.129-.753 0-.34-.06-.655-.179-.944-.12-.289-.29-.539-.513-.75-.222-.21-.495-.376-.817-.495-.322-.119-.685-.178-1.087-.178-.437 0-.827.07-1.169.21-.342.141-.63.33-.867.569-.236.238-.417.516-.542.835-.125.318-.188.657-.188 1.016h1.09c0-.265.034-.505.103-.72.068-.215.172-.398.31-.548.14-.15.313-.267.522-.349.209-.082.456-.123.741-.123.234 0 .444.04.63.12.186.08.344.189.475.325.13.137.23.298.298.484.069.185.103.384.103.595 0 .171-.022.338-.065.5-.042.163-.115.335-.216.516-.102.182-.237.38-.405.595-.168.215-.377.46-.627.738l-2.794 3.106V13h5.59zm4.57.117c.438 0 .827-.074 1.167-.222.34-.149.627-.367.861-.654.234-.287.414-.64.54-1.06.124-.42.187-.902.187-1.445V7.738c0-.543-.063-1.024-.188-1.444-.125-.42-.306-.774-.542-1.064-.236-.289-.525-.508-.867-.659-.342-.15-.732-.225-1.169-.225-.434 0-.821.075-1.163.225-.342.15-.631.37-.867.66-.237.289-.417.643-.542 1.063-.125.42-.188.901-.188 1.444v1.998c0 .543.064 1.025.19 1.445.128.42.31.773.548 1.06.239.287.529.505.87.654.342.148.73.222 1.164.222zM135.54 9.52V7.498c0-.738.136-1.3.407-1.685.272-.384.693-.577 1.263-.577.504 0 .89.148 1.157.443.268.295.433.725.495 1.292L135.54 9.52zm1.682 2.718c-.489 0-.87-.144-1.143-.433-.273-.29-.443-.71-.51-1.26l3.317-2.537v1.957c0 .734-.134 1.297-.402 1.687-.267.391-.688.586-1.262.586zm8.115.762V4.469h-.088l-3.228 1.242v.99l2.232-.85V13h1.084zm6.422.117c.375 0 .726-.054 1.054-.16.329-.108.615-.265.859-.47.244-.205.437-.458.58-.758.143-.301.214-.645.214-1.032 0-.238-.034-.463-.103-.674-.068-.21-.166-.406-.293-.585-.127-.18-.279-.34-.457-.478-.177-.139-.376-.255-.594-.349.378-.187.681-.447.908-.779.226-.332.342-.71.345-1.137 0-.37-.064-.702-.193-.993-.129-.29-.307-.536-.533-.735-.227-.2-.494-.352-.803-.457-.308-.106-.642-.158-1.002-.158-.363 0-.698.052-1.005.158-.306.105-.57.258-.79.457-.221.199-.394.444-.52.735-.124.291-.187.622-.187.993 0 .211.03.412.088.604.059.191.14.368.246.53.106.162.235.309.387.44.152.13.322.243.51.336-.219.094-.416.211-.592.352-.176.14-.326.3-.451.478-.125.177-.22.373-.287.586-.067.212-.1.438-.1.676 0 .39.07.737.211 1.037.14.301.333.554.577.76.244.204.531.36.861.465.33.105.687.158 1.07.158zm-.006-4.951c-.211 0-.403-.034-.577-.103-.174-.068-.324-.166-.451-.292-.127-.127-.225-.28-.293-.458-.069-.177-.103-.377-.103-.6 0-.223.034-.425.103-.607.068-.181.165-.336.29-.465.125-.13.273-.228.445-.296.172-.069.363-.103.574-.103.211 0 .405.036.58.109.176.072.327.173.454.304s.227.286.3.466c.071.18.108.377.108.592 0 .219-.036.418-.106.598s-.169.333-.296.46c-.127.126-.278.224-.454.292-.176.069-.367.103-.574.103zm.006 4.066c-.25 0-.476-.035-.677-.105-.201-.07-.372-.172-.513-.305-.14-.133-.249-.296-.325-.489-.076-.193-.114-.413-.114-.66 0-.237.038-.456.114-.655.076-.2.185-.37.325-.513.141-.143.31-.253.51-.331.2-.078.422-.117.668-.117.238 0 .458.039.66.117.2.078.373.188.518.33.144.143.257.314.337.514.08.199.12.418.12.656 0 .246-.04.466-.12.659-.08.193-.192.356-.334.49-.143.132-.314.234-.513.304-.2.07-.418.105-.656.105z" transform="translate(40 166) translate(0 178)"/>
                        </g>
                        <g>
                            <path fill="#30C100" d="M453.013 56c.552 0 1 .448 1 1v14c0 .552-.448 1-1 1h-.551c-.552 0-1-.448-1-1V57c0-.552.448-1 1-1h.55zm-229.557-4c.552 0 1 .448 1 1v18c0 .552-.448 1-1 1h-.55c-.553 0-1-.448-1-1V53c0-.552.447-1 1-1h.55zm459.114-4c.552 0 1 .448 1 1v22c0 .552-.448 1-1 1h-.551c-.552 0-1-.448-1-1V49c0-.552.448-1 1-1h.55zM108.677 64c.552 0 1 .448 1 1v6c0 .552-.448 1-1 1h-.55c-.553 0-1-.448-1-1v-6c0-.552.447-1 1-1h.55zm459.114 4c.552 0 1 .448 1 1v2c0 .552-.448 1-1 1h-.55c-.553 0-1-.448-1-1v-2c0-.552.447-1 1-1h.55zM338.234 39c.552 0 1 .448 1 1v31c0 .552-.448 1-1 1h-.55c-.553 0-1-.448-1-1V40c0-.552.447-1 1-1h.55zm459.114 23c.552 0 1 .448 1 1v8c0 .552-.448 1-1 1h-.55c-.553 0-1-.448-1-1v-8c0-.552.447-1 1-1h.55zM32.158 30c.553 0 1 .448 1 1v40c0 .552-.447 1-1 1h-.55c-.553 0-1-.448-1-1V31c0-.552.447-1 1-1h.55zm459.114 38c.552 0 1 .448 1 1v2c0 .552-.448 1-1 1h-.55c-.553 0-1-.448-1-1v-2c0-.552.447-1 1-1h.55zm-229.557-4c.552 0 1 .448 1 1v6c0 .552-.448 1-1 1h-.55c-.553 0-1-.448-1-1v-6c0-.552.447-1 1-1h.55zM146.937 54c.552 0 1 .448 1 1v16c0 .552-.448 1-1 1h-.55c-.553 0-1-.448-1-1V55c0-.552.447-1 1-1h.55zm229.557-2c.552 0 1 .448 1 1v18c0 .552-.448 1-1 1h-.551c-.552 0-1-.448-1-1V53c0-.552.448-1 1-1h.55zM70.418 64c.552 0 1 .448 1 1v6c0 .552-.448 1-1 1h-.55c-.553 0-1-.448-1-1v-6c0-.552.447-1 1-1h.55zm459.114-20c.552 0 1 .448 1 1v26c0 .552-.448 1-1 1h-.551c-.552 0-1-.448-1-1V45c0-.552.448-1 1-1h.55zm-229.557-1c.552 0 1 .448 1 1v27c0 .552-.448 1-1 1h-.55c-.553 0-1-.448-1-1V44c0-.552.447-1 1-1h.55zm459.114 21c.552 0 1 .448 1 1v6c0 .552-.448 1-1 1h-.551c-.552 0-1-.448-1-1v-6c0-.552.448-1 1-1h.55zM185.196 53c.552 0 1 .448 1 1v17c0 .552-.448 1-1 1h-.55c-.553 0-1-.448-1-1V54c0-.552.447-1 1-1h.55zm459.114 9c.552 0 1 .448 1 1v8c0 .552-.448 1-1 1h-.55c-.553 0-1-.448-1-1v-8c0-.552.447-1 1-1h.55zm-229.557 0c.552 0 1 .448 1 1v8c0 .552-.448 1-1 1h-.55c-.553 0-1-.448-1-1v-8c0-.552.447-1 1-1h.55zM9.203 67c.552 0 1 .448 1 1v3c0 .552-.448 1-1 1h-.551c-.552 0-1-.448-1-1v-3c0-.552.448-1 1-1h.55zm459.113 1c.553 0 1 .448 1 1v2c0 .552-.447 1-1 1h-.55c-.552 0-1-.448-1-1v-2c0-.552.448-1 1-1h.55zM238.76 29c.553 0 1 .448 1 1v41c0 .552-.447 1-1 1h-.55c-.552 0-1-.448-1-1V30c0-.552.448-1 1-1h.55zM123.981 68c.552 0 1 .448 1 1v2c0 .552-.448 1-1 1h-.55c-.553 0-1-.448-1-1v-2c0-.552.447-1 1-1h.55zm459.114-1c.552 0 1 .448 1 1v3c0 .552-.448 1-1 1h-.55c-.553 0-1-.448-1-1v-3c0-.552.447-1 1-1h.55zm-229.557-3c.552 0 1 .448 1 1v6c0 .552-.448 1-1 1h-.55c-.553 0-1-.448-1-1v-6c0-.552.447-1 1-1h.55zM47.462 64c.552 0 1 .448 1 1v6c0 .552-.448 1-1 1h-.55c-.553 0-1-.448-1-1v-6c0-.552.447-1 1-1h.55zm459.114-2c.552 0 1 .448 1 1v8c0 .552-.448 1-1 1h-.55c-.553 0-1-.448-1-1v-8c0-.552.447-1 1-1h.55zM277.019 49c.552 0 1 .448 1 1v21c0 .552-.448 1-1 1h-.55c-.553 0-1-.448-1-1V50c0-.552.447-1 1-1h.55zm459.114 21c.552 0 1 .448 1 1s-.448 1-1 1h-.55c-.553 0-1-.448-1-1s.447-1 1-1h.55zm-107.127-2c.553 0 1 .448 1 1v2c0 .552-.447 1-1 1h-.55c-.553 0-1-.448-1-1v-2c0-.552.447-1 1-1h.55zm-237.209-4c.553 0 1 .448 1 1v6c0 .552-.447 1-1 1h-.55c-.552 0-1-.448-1-1v-6c0-.552.448-1 1-1h.55zM85.722 47c.552 0 1 .448 1 1v23c0 .552-.448 1-1 1h-.551c-.552 0-1-.448-1-1V48c0-.552.448-1 1-1h.55zm459.113 21c.553 0 1 .448 1 1v2c0 .552-.447 1-1 1h-.55c-.552 0-1-.448-1-1v-2c0-.552.448-1 1-1h.55zm-229.557-4c.553 0 1 .448 1 1v6c0 .552-.447 1-1 1h-.55c-.552 0-1-.448-1-1v-6c0-.552.448-1 1-1h.55zm459.114-29c.553 0 1 .448 1 1v35c0 .552-.447 1-1 1h-.55c-.553 0-1-.448-1-1V36c0-.552.447-1 1-1h.55zM430.057 60c.552 0 1 .448 1 1v10c0 .552-.448 1-1 1h-.55c-.553 0-1-.448-1-1V61c0-.552.447-1 1-1h.55zm-175.994 8c.553 0 1 .448 1 1v2c0 .552-.447 1-1 1h-.55c-.553 0-1-.448-1-1v-2c0-.552.447-1 1-1h.55zM139.285 42c.552 0 1 .448 1 1v28c0 .552-.448 1-1 1h-.55c-.553 0-1-.448-1-1V43c0-.552.447-1 1-1h.55zm459.114 6c.552 0 1 .448 1 1v22c0 .552-.448 1-1 1h-.55c-.553 0-1-.448-1-1V49c0-.552.447-1 1-1h.55zM368.842 68c.552 0 1 .448 1 1v2c0 .552-.448 1-1 1h-.55c-.553 0-1-.448-1-1v-2c0-.552.447-1 1-1h.55zM62.766 68c.552 0 1 .448 1 1v2c0 .552-.448 1-1 1h-.55c-.553 0-1-.448-1-1v-2c0-.552.447-1 1-1h.55zm459.114-4c.552 0 1 .448 1 1v6c0 .552-.448 1-1 1h-.55c-.553 0-1-.448-1-1v-6c0-.552.447-1 1-1h.55zm-229.557-4c.552 0 1 .448 1 1v10c0 .552-.448 1-1 1h-.55c-.553 0-1-.448-1-1V61c0-.552.447-1 1-1h.55zm459.114 6c.552 0 1 .448 1 1v4c0 .552-.448 1-1 1h-.55c-.553 0-1-.448-1-1v-4c0-.552.447-1 1-1h.55zm-573.893-9c.553 0 1 .448 1 1v13c0 .552-.447 1-1 1h-.55c-.553 0-1-.448-1-1V58c0-.552.447-1 1-1h.55zm459.114 9c.553 0 1 .448 1 1v4c0 .552-.447 1-1 1h-.55c-.553 0-1-.448-1-1v-4c0-.552.447-1 1-1h.55zm-229.557 0c.553 0 1 .448 1 1v4c0 .552-.447 1-1 1h-.55c-.553 0-1-.448-1-1v-4c0-.552.447-1 1-1h.55zM101.025 41c.553 0 1 .448 1 1v29c0 .552-.447 1-1 1h-.55c-.553 0-1-.448-1-1V42c0-.552.447-1 1-1h.55zM560.14 62c.553 0 1 .448 1 1v8c0 .552-.447 1-1 1h-.55c-.553 0-1-.448-1-1v-8c0-.552.447-1 1-1h.55zM330.582 22c.553 0 1 .448 1 1v48c0 .552-.447 1-1 1h-.55c-.553 0-1-.448-1-1V23c0-.552.447-1 1-1h.55zM215.804 55c.552 0 1 .448 1 1v15c0 .552-.448 1-1 1h-.55c-.553 0-1-.448-1-1V56c0-.552.447-1 1-1h.55zm459.114 5c.552 0 1 .448 1 1v10c0 .552-.448 1-1 1h-.55c-.553 0-1-.448-1-1V61c0-.552.447-1 1-1h.55zM445.36 50c.552 0 1 .448 1 1v20c0 .552-.448 1-1 1h-.55c-.553 0-1-.448-1-1V51c0-.552.447-1 1-1h.55zM1.55 64c.552 0 1 .448 1 1v6c0 .552-.448 1-1 1H1c-.552 0-1-.448-1-1v-6c0-.552.448-1 1-1h.55zm459.114-2c.552 0 1 .448 1 1v8c0 .513-.386.936-.884.993l-.116.007h-.551c-.552 0-1-.448-1-1v-8c0-.552.448-1 1-1h.55zM231.108 42c.552 0 1 .448 1 1v28c0 .513-.386.936-.884.993l-.116.007h-.551c-.552 0-1-.448-1-1V43c0-.552.448-1 1-1h.55zm344.335 22c.552 0 1 .448 1 1v6c0 .552-.448 1-1 1h-.55c-.553 0-1-.448-1-1v-6c0-.552.447-1 1-1h.55zm-229.557-4c.552 0 1 .448 1 1v10c0 .513-.386.936-.883.993l-.117.007h-.55c-.553 0-1-.448-1-1V61c0-.552.447-1 1-1h.55zM39.81 69c.552 0 1 .448 1 1v1c0 .552-.448 1-1 1h-.55c-.553 0-1-.448-1-1v-1c0-.552.447-1 1-1h.55zm229.557-11c.552 0 1 .448 1 1v12c0 .513-.386.936-.883.993l-.117.007h-.55c-.553 0-1-.448-1-1V59c0-.552.447-1 1-1h.55zM78.07 58c.552 0 1 .448 1 1v12c0 .513-.386.936-.884.993L78.07 72h-.551c-.552 0-1-.448-1-1V59c0-.552.448-1 1-1h.55zm459.114-8c.552 0 1 .448 1 1v20c0 .513-.386.936-.884.993l-.116.007h-.551c-.552 0-1-.448-1-1V51c0-.552.448-1 1-1h.55zm-229.557 6c.552 0 1 .448 1 1v14c0 .513-.386.936-.884.993l-.116.007h-.551c-.552 0-1-.448-1-1V57c0-.552.448-1 1-1h.55zM766.74 70c.552 0 1 .448 1 1s-.448 1-1 1h-.551c-.552 0-1-.448-1-1s.448-1 1-1h.55zM192.848 45c.552 0 1 .448 1 1v25c0 .513-.386.936-.883.993l-.117.007h-.55c-.553 0-1-.448-1-1V46c0-.552.447-1 1-1h.55zm497.374 23c.552 0 1 .448 1 1v2c0 .552-.448 1-1 1h-.551c-.552 0-1-.448-1-1v-2c0-.552.448-1 1-1h.55zM805 68c.552 0 1 .448 1 1v2c0 .552-.448 1-1 1h-.55c-.553 0-1-.448-1-1v-2c0-.552.447-1 1-1h.55zm-306.076-2c.552 0 1 .448 1 1v4c0 .552-.448 1-1 1h-.55c-.553 0-1-.448-1-1v-4c0-.552.447-1 1-1h.55zm-114.778 0c.552 0 1 .448 1 1v4c0 .552-.448 1-1 1h-.551c-.552 0-1-.448-1-1v-4c0-.552.448-1 1-1h.55zm267.816 0c.552 0 1 .448 1 1v4c0 .552-.448 1-1 1h-.55c-.553 0-1-.448-1-1v-4c0-.552.447-1 1-1h.55zm-229.557 4c.552 0 1 .448 1 1s-.448 1-1 1h-.55c-.553 0-1-.448-1-1s.447-1 1-1h.55zM16.855 36c.552 0 1 .448 1 1v34c0 .552-.448 1-1 1h-.551c-.552 0-1-.448-1-1V37c0-.552.448-1 1-1h.55zm459.113 22c.553 0 1 .448 1 1v12c0 .552-.447 1-1 1h-.55c-.553 0-1-.448-1-1V59c0-.552.447-1 1-1h.55zM131.633 35c.552 0 1 .448 1 1v35c0 .552-.448 1-1 1h-.55c-.553 0-1-.448-1-1V36c0-.552.447-1 1-1h.55zm459.114 17c.552 0 1 .448 1 1v18c0 .552-.448 1-1 1h-.55c-.553 0-1-.448-1-1V53c0-.552.447-1 1-1h.55zM361.19 66c.552 0 1 .448 1 1v4c0 .552-.448 1-1 1h-.55c-.553 0-1-.448-1-1v-4c0-.552.447-1 1-1h.55zm153.038-8c.552 0 1 .448 1 1v12c0 .552-.448 1-1 1h-.55c-.553 0-1-.448-1-1V59c0-.552.447-1 1-1h.55zM284.67 54c.552 0 1 .448 1 1v16c0 .552-.448 1-1 1h-.55c-.553 0-1-.448-1-1V55c0-.552.447-1 1-1h.55zm459.114 14c.552 0 1 .448 1 1v2c0 .552-.448 1-1 1h-.55c-.553 0-1-.448-1-1v-2c0-.552.447-1 1-1h.55zm-573.893-6c.553 0 1 .448 1 1v8c0 .552-.447 1-1 1h-.55c-.553 0-1-.448-1-1v-8c0-.552.447-1 1-1h.55zm229.557 6c.553 0 1 .448 1 1v2c0 .552-.447 1-1 1h-.55c-.553 0-1-.448-1-1v-2c0-.552.447-1 1-1h.55zM93.373 54c.553 0 1 .448 1 1v16c0 .552-.447 1-1 1h-.55c-.552 0-1-.448-1-1V55c0-.552.448-1 1-1h.55zm459.114 14c.553 0 1 .448 1 1v2c0 .552-.447 1-1 1h-.55c-.553 0-1-.448-1-1v-2c0-.552.447-1 1-1h.55zM322.93 0c.553 0 1 .448 1 1v70c0 .552-.447 1-1 1h-.55c-.553 0-1-.448-1-1V1c0-.552.447-1 1-1h.55zm459.114 44c.553 0 1 .448 1 1v26c0 .552-.447 1-1 1h-.55c-.553 0-1-.448-1-1V45c0-.552.447-1 1-1h.55zM208.152 58c.552 0 1 .448 1 1v12c0 .552-.448 1-1 1h-.55c-.553 0-1-.448-1-1V59c0-.552.447-1 1-1h.55zm459.114 10c.552 0 1 .448 1 1v2c0 .552-.448 1-1 1h-.55c-.553 0-1-.448-1-1v-2c0-.552.447-1 1-1h.55zm-229.557 0c.552 0 1 .448 1 1v2c0 .552-.448 1-1 1h-.55c-.553 0-1-.448-1-1v-2c0-.552.447-1 1-1h.55z" transform="translate(40 166) translate(8 9)"/>
                            <path fill="#D04949" d="M315.278 73c.553 0 1 .448 1 1v69c0 .552-.447 1-1 1h-.55c-.552 0-1-.448-1-1V74c0-.552.448-1 1-1h.55zm53.564 0c.552 0 1 .448 1 1v33c0 .552-.448 1-1 1h-.55c-.553 0-1-.448-1-1V74c0-.552.447-1 1-1h.55zM39.81 73c.552 0 1 .448 1 1v30c0 .552-.448 1-1 1h-.55c-.553 0-1-.448-1-1V74c0-.552.447-1 1-1h.55zm665.715 0c.553 0 1 .448 1 1v20c0 .552-.447 1-1 1h-.55c-.553 0-1-.448-1-1V74c0-.552.447-1 1-1h.55zm-76.519 0c.553 0 1 .448 1 1v16c0 .552-.447 1-1 1h-.55c-.553 0-1-.448-1-1V74c0-.552.447-1 1-1h.55zM200.5 73c.552 0 1 .448 1 1v16c0 .552-.448 1-1 1h-.55c-.553 0-1-.448-1-1V74c0-.552.447-1 1-1h.55zm-38.26 0c.553 0 1 .448 1 1v14c0 .552-.447 1-1 1h-.55c-.552 0-1-.448-1-1V74c0-.552.448-1 1-1h.55zM32.159 73c.553 0 1 .448 1 1v14c0 .552-.447 1-1 1h-.55c-.553 0-1-.448-1-1V74c0-.552.447-1 1-1h.55zm84.171 0c.552 0 1 .448 1 1v14c0 .552-.448 1-1 1h-.55c-.553 0-1-.448-1-1V74c0-.552.447-1 1-1h.55zm596.848 0c.553 0 1 .448 1 1v10c0 .552-.447 1-1 1h-.55c-.553 0-1-.448-1-1V74c0-.552.447-1 1-1h.55zM1.551 73c.552 0 1 .448 1 1v9c0 .552-.448 1-1 1H1c-.552 0-1-.448-1-1v-9c0-.552.448-1 1-1h.55zm436.158 0c.552 0 1 .448 1 1v8c0 .552-.448 1-1 1h-.55c-.553 0-1-.448-1-1v-8c0-.552.447-1 1-1h.55zm61.215 0c.552 0 1 .448 1 1v7c0 .552-.448 1-1 1h-.55c-.553 0-1-.448-1-1v-7c0-.552.447-1 1-1zm-15.304 0c.553 0 1 .448 1 1v7c0 .552-.447 1-1 1h-.55c-.553 0-1-.448-1-1v-7c0-.552.447-1 1-1zm122.43 0c.553 0 1 .448 1 1v6c0 .552-.447 1-1 1h-.55c-.552 0-1-.448-1-1v-6c0-.552.448-1 1-1h.55zm91.823 0c.553 0 1 .448 1 1v6c0 .552-.447 1-1 1h-.55c-.553 0-1-.448-1-1v-6c0-.552.447-1 1-1h.55zm91.823 0c.552 0 1 .448 1 1v6c0 .552-.448 1-1 1h-.55c-.553 0-1-.448-1-1v-6c0-.552.447-1 1-1zm-681.019 0c.552 0 1 .448 1 1v6c0 .552-.448 1-1 1h-.55c-.553 0-1-.448-1-1v-6c0-.552.447-1 1-1h.55zm-84.17 0c.552 0 1 .448 1 1v6c0 .552-.448 1-1 1h-.551c-.553 0-1-.448-1-1v-6c0-.552.447-1 1-1h.55zm130.082 0c.552 0 1 .448 1 1v6c0 .552-.448 1-1 1h-.551c-.552 0-1-.448-1-1v-6c0-.552.448-1 1-1h.55zm-99.475 0c.552 0 1 .448 1 1v6c0 .552-.448 1-1 1h-.55c-.553 0-1-.448-1-1v-6c0-.552.447-1 1-1h.55zm153.038 0c.552 0 1 .448 1 1v6c0 .552-.448 1-1 1h-.55c-.553 0-1-.448-1-1v-6c0-.552.447-1 1-1h.55zm22.956 0c.552 0 1 .448 1 1v6c0 .552-.448 1-1 1h-.551c-.552 0-1-.448-1-1v-6c0-.552.448-1 1-1h.55zm-45.912 0c.552 0 1 .448 1 1v6c0 .552-.448 1-1 1h-.55c-.553 0-1-.448-1-1v-6c0-.552.447-1 1-1h.55zm428.507 0c.552 0 1 .448 1 1v4c0 .552-.448 1-1 1h-.551c-.552 0-1-.448-1-1v-4c0-.552.448-1 1-1h.55zm7.651 0c.553 0 1 .448 1 1v2c0 .552-.447 1-1 1h-.55c-.552 0-1-.448-1-1v-2c0-.552.448-1 1-1h.55zm38.26 0c.552 0 1 .448 1 1v2c0 .552-.448 1-1 1h-.55c-.553 0-1-.448-1-1v-2c0-.552.447-1 1-1zm61.215 0c.552 0 1 .448 1 1v2c0 .552-.448 1-1 1h-.55c-.553 0-1-.448-1-1v-2c0-.552.447-1 1-1h.55zm45.912 0c.552 0 1 .448 1 1v2c0 .552-.448 1-1 1h-.551c-.552 0-1-.448-1-1v-2c0-.552.448-1 1-1zm-420.855 0c.552 0 1 .448 1 1v2c0 .552-.448 1-1 1h-.55c-.553 0-1-.448-1-1v-2c0-.552.447-1 1-1h.55zm-99.475 0c.553 0 1 .448 1 1v2c0 .552-.447 1-1 1h-.55c-.553 0-1-.448-1-1v-2c0-.552.447-1 1-1h.55zm329.032 0c.552 0 1 .448 1 1s-.448 1-1 1h-.55c-.553 0-1-.448-1-1s.447-1 1-1zm114.779 0c.552 0 1 .448 1 1s-.448 1-1 1h-.551c-.552 0-1-.448-1-1s.448-1 1-1h.55zm38.259 0c.552 0 1 .448 1 1s-.448 1-1 1h-.55c-.553 0-1-.448-1-1s.447-1 1-1h.55zm-466.766 0c.552 0 1 .448 1 1s-.448 1-1 1h-.55c-.553 0-1-.448-1-1s.447-1 1-1h.55z" transform="translate(40 166) translate(8 9)"/>
                        </g>
                    </g>
                    <g fill="#404040">
                        <path fill-rule="nonzero" d="M4.705 10V6.75L8.02.9H6.512L4.185 5.125h-.26L1.533.9H.025L3.34 6.75V10h1.365zm7.02.13c1.69 0 2.6-1.17 2.925-2.015h-1.365c-.195.455-.78.91-1.56.91-1.04 0-1.82-.715-1.95-1.82h5.005s.065-.26.065-.65c0-1.82-1.365-3.185-3.12-3.185-1.885 0-3.25 1.365-3.25 3.38 0 2.015 1.365 3.38 3.25 3.38zm1.885-3.9H9.775c.195-1.04.845-1.755 1.95-1.755 1.04 0 1.755.715 1.885 1.755zm4.68 3.9c1.365 0 1.95-.845 1.95-.845h.065l.13.715h1.105V5.84c0-1.495-.975-2.47-2.665-2.47-1.625 0-2.6.91-2.665 2.015h1.3c.065-.39.455-.91 1.365-.91.845 0 1.365.52 1.365 1.365v.13h-1.625c-1.82 0-2.665.845-2.665 2.145 0 1.17.91 2.015 2.34 2.015zm.13-1.105c-.78 0-1.17-.39-1.17-.975s.455-1.04 1.43-1.04h1.56v.26c0 1.105-.65 1.755-1.82 1.755zm6.045.975V6.022c0-.897.455-1.352 1.365-1.352h1.04V3.5H25.7c-.78 0-1.04.325-1.235.585H24.4l-.13-.585h-1.105V10h1.3z" transform="translate(38 130)"/>
                        <path d="M2 12H27V13H2z" transform="translate(38 130)"/>
                    </g>
                    <rect width="1000" height="2" x="10" y="100" fill="#F0F0F0" rx="1"/>
                    <g fill-rule="nonzero">
                        <path fill="#2B2B2B" d="M12.06 58.96v-3.636c5.436-.216 8.28-3.168 8.28-6.984 0-3.78-2.16-5.832-7.164-6.732L9.54 40.96c-3.24-.576-4.86-1.98-4.86-4.5 0-2.7 2.16-4.86 6.3-4.86 4.5 0 7.02 2.52 7.02 5.58h2.16c0-4.032-2.988-7.308-8.1-7.704V25.84H9.9v3.672c-4.716.36-7.38 3.276-7.38 6.948 0 3.78 2.16 5.832 6.66 6.588l3.996.684c3.384.576 5.004 2.088 5.004 4.608 0 2.7-2.16 4.86-6.84 4.86-4.5 0-7.2-2.7-7.2-5.58H1.98c0 3.78 2.988 7.128 7.92 7.668v3.672h2.16zm20.52-3.6c4.86 0 8.46-3.6 8.46-8.46 0-4.86-3.6-8.46-8.1-8.46-3.24 0-4.86 1.512-5.4 1.98h-.18l.9-8.46H39.6V29.8H26.46l-1.44 13.14h2.52c.54-.72 2.34-2.34 5.22-2.34 3.42 0 6.12 2.7 6.12 6.3 0 3.6-2.7 6.3-6.3 6.3-3.24 0-5.58-2.16-5.94-4.86h-2.16c.54 4.14 3.78 7.02 8.1 7.02zm27.9-.36v-2.16H48.24v-.18l8.64-9.072c1.62-1.692 3.06-3.348 3.06-6.588 0-4.5-3.06-7.56-7.56-7.56-4.32 0-7.56 3.24-7.56 8.1h2.16c0-3.6 2.34-5.94 5.4-5.94 3.24 0 5.4 2.16 5.4 5.4 0 2.34-1.08 3.78-2.34 5.04L45 53.02V55h15.48zm16.74 0v-5.94h3.6V46.9h-3.6V29.8h-3.96l-9.9 17.46v1.8h11.7V55h2.16zm-2.16-8.1h-8.82v-.18l8.1-14.4h.72V46.9zm18.36 8.46c5.04 0 9.54-4.5 9.54-12.96s-4.5-12.96-9.54-12.96c-5.04 0-9.54 4.5-9.54 12.96s4.5 12.96 9.54 12.96zm0-2.16c-3.78 0-7.38-3.6-7.38-10.8 0-7.2 3.6-10.8 7.38-10.8s7.38 3.6 7.38 10.8c0 7.2-3.6 10.8-7.38 10.8zm16.74 1.8v-2.52h-2.52V55h2.52zm12.6.36c4.86 0 8.46-3.6 8.46-8.46 0-4.86-3.6-8.46-8.1-8.46-3.24 0-4.86 1.512-5.4 1.98h-.18l.9-8.46h11.34V29.8h-13.14l-1.44 13.14h2.52c.54-.72 2.34-2.34 5.22-2.34 3.42 0 6.12 2.7 6.12 6.3 0 3.6-2.7 6.3-6.3 6.3-3.24 0-5.58-2.16-5.94-4.86h-2.16c.54 4.14 3.78 7.02 8.1 7.02zm20.52 0c4.86 0 8.1-3.24 8.1-7.2 0-4.5-4.32-6.12-4.32-6.12v-.18s3.78-1.44 3.78-5.58c0-3.78-3.06-6.84-7.56-6.84s-7.56 3.06-7.56 6.84c0 4.14 3.78 5.58 3.78 5.58v.18s-4.32 1.62-4.32 6.12c0 3.96 3.24 7.2 8.1 7.2zm0-14.4c-3.24 0-5.4-2.16-5.4-4.68 0-2.52 2.16-4.68 5.4-4.68s5.4 2.16 5.4 4.68c0 2.52-2.16 4.68-5.4 4.68zm0 12.24c-3.6 0-5.94-2.34-5.94-5.04s2.34-5.04 5.94-5.04c3.6 0 5.94 2.34 5.94 5.04s-2.34 5.04-5.94 5.04z" transform="translate(20 19)"/>
                        <path fill="gray" d="M2.87 13V9.78h2.59c1.82 0 3.08-1.26 3.08-3.29 0-2.03-1.26-3.29-3.08-3.29H1.05V13h1.82zm2.52-4.97H2.87V4.95h2.52c.77 0 1.33.56 1.33 1.54s-.56 1.54-1.33 1.54zm9.1 5.11c2.66 0 4.76-2.1 4.76-5.04s-2.1-5.04-4.76-5.04c-2.66 0-4.76 2.1-4.76 5.04s2.1 5.04 4.76 5.04zm0-1.75c-1.68 0-2.94-1.26-2.94-3.29 0-2.03 1.26-3.29 2.94-3.29s2.94 1.26 2.94 3.29c0 2.03-1.26 3.29-2.94 3.29zM22.75 13V9.64h.56L26.46 13h2.31l-3.15-3.36c1.54-.07 2.87-1.26 2.87-3.15 0-1.96-1.33-3.29-3.08-3.29h-4.48V13h1.82zm2.59-5.04h-2.59V4.95h2.59c.7 0 1.33.63 1.33 1.54 0 .84-.63 1.47-1.33 1.47zM34.23 13V4.95h2.94V3.2h-7.7v1.75h2.94V13h1.82zm6.09 0V8.94h4.34V7.26h-4.34V4.88h4.69V3.2H38.5V13h1.82zm10.71.14c2.66 0 4.76-2.1 4.76-5.04s-2.1-5.04-4.76-5.04c-2.66 0-4.76 2.1-4.76 5.04s2.1 5.04 4.76 5.04zm0-1.75c-1.68 0-2.94-1.26-2.94-3.29 0-2.03 1.26-3.29 2.94-3.29s2.94 1.26 2.94 3.29c0 2.03-1.26 3.29-2.94 3.29zM63.91 13v-1.75h-4.62V3.2h-1.82V13h6.44zm3.15 0V3.2h-1.82V13h1.82zm6.44.14c2.66 0 4.76-2.1 4.76-5.04s-2.1-5.04-4.76-5.04c-2.66 0-4.76 2.1-4.76 5.04s2.1 5.04 4.76 5.04zm0-1.75c-1.68 0-2.94-1.26-2.94-3.29 0-2.03 1.26-3.29 2.94-3.29s2.94 1.26 2.94 3.29c0 2.03-1.26 3.29-2.94 3.29zM88.48 13l3.36-9.8h-2.03l-2.52 7.56h-.28L84.49 3.2h-2.03l3.36 9.8h2.66zm5.46 0l.742-2.1h4.116l.742 2.1h2.03l-3.5-9.8h-2.66l-3.5 9.8h2.03zm4.27-3.78h-2.94L96.6 5.3h.28l1.33 3.92zM109.06 13v-1.75h-4.62V3.2h-1.82V13h6.44zm5.32.14c2.45 0 4.06-1.61 4.06-4.13V3.2h-1.82v5.81c0 1.4-.98 2.38-2.24 2.38-1.26 0-2.24-.98-2.24-2.38V3.2h-1.82v5.81c0 2.52 1.61 4.13 4.06 4.13zm12.67-.14v-1.68h-4.76V8.94h4.48V7.26h-4.48V4.88h4.76V3.2h-6.58V13h6.58z" transform="translate(20 19)"/>
                    </g>
                    <g transform="translate(0 408)">
                        <use fill="#000" filter="url(#prefix__j)" xlink:href="#prefix__k"/>
                        <use fill="#FFF" xlink:href="#prefix__k"/>
                        <path fill="#F0F0F0" d="M10 112H1010V114H10zM10 46H1010V48H10z"/>
                        <g fill-rule="nonzero">
                            <g>
                                <path fill="#8A92B2" d="M11.887.297V8.955c0 .036-.037.073-.074.073-.257.112-.478.223-.735.335-.33.148-.698.297-1.029.483l-1.213.557-.992.446-1.213.557c-.33.149-.661.297-1.029.483-.257.112-.55.26-.808.372-.037 0-.037.037-.073 0h-.037c.11-.186.22-.335.33-.52.588-1.004 1.213-2.007 1.801-3.01C7.44 7.654 8.101 6.576 8.726 5.5c.588-1.003 1.176-2.007 1.764-2.973.441-.743.882-1.449 1.287-2.192.073 0 .073-.037.11-.037-.037 0 0 0 0 0z" transform="translate(20 125) translate(0 9)"/>
                                <path fill="#454A75" d="M19.016 12.26c-.551.372-1.139.707-1.69 1.041-1.801 1.078-3.565 2.118-5.366 3.195-.037 0-.037.037-.073.037-.037 0-.037-.037-.037-.037v-.111V9.14v-.112c0-.037.037-.037.074-.037.146.075.293.149.477.223.441.223.919.409 1.36.632.404.186.772.371 1.176.52.404.186.772.371 1.176.557.33.149.698.297 1.029.483.33.149.698.297 1.029.483.257.112.515.26.809.372 0-.037 0 0 .036 0z" transform="translate(20 125) translate(0 9)"/>
                                <path fill="#8A92B2" d="M11.887 23.816s-.037 0 0 0c-.037 0-.037 0-.074-.038-.735-1.04-1.433-2.043-2.168-3.083L7.44 17.574c-.698-1.003-1.433-2.007-2.131-3.047l-.552-.78c0-.037-.036-.037-.036-.074.036 0 .036.037.073.037.992.594 2.021 1.189 3.014 1.783 1.139.706 2.315 1.375 3.454 2.08.184.112.404.224.588.335.037 0 .037.037.037.074v5.834z" transform="translate(20 125) translate(0 9)"/>
                                <path fill="#62688F" d="M4.757 12.298c0-.037 0-.037 0 0 .368-.186.735-.334 1.103-.52l1.433-.669c.367-.186.735-.334 1.103-.52.514-.26 1.065-.483 1.58-.743.367-.149.735-.335 1.102-.483.258-.112.515-.223.772-.372.037 0 .037-.037.074-.037v7.579c-.037.038-.037 0-.074 0-.11-.074-.22-.111-.294-.185l-6.725-4.013c-.037-.037-.074-.037-.074-.037zM18.98 13.673c0 .037 0 .037-.037.074-2.132 3.047-4.263 6.056-6.395 9.103-.22.334-.44.631-.661.966v-.038-.074-5.684-.112c.477-.297.955-.594 1.433-.854l5.623-3.344c0-.037.037-.037.037-.037z" transform="translate(20 125) translate(0 9)"/>
                                <path fill="#62688F" d="M11.887 8.991v-.074V.409.334l7.056 11.815c.037.037.073.075.073.112-.147-.075-.294-.149-.477-.223-.184-.074-.368-.186-.552-.26-.11-.037-.22-.112-.367-.149-.184-.074-.405-.186-.588-.26-.11-.037-.22-.111-.331-.149l-.772-.334c-.147-.074-.257-.111-.404-.186-.184-.074-.367-.185-.551-.26-.11-.037-.22-.111-.331-.148l-.772-.335c-.147-.074-.257-.111-.404-.186-.184-.074-.367-.185-.551-.26-.11-.074-.258-.111-.368-.185l-.661-.335z" transform="translate(20 125) translate(0 9)"/>
                            </g>
                            <path fill="#000" d="M44.48 26v-1.2h-5.92v-3.84h5.6v-1.2h-5.6V16h5.92v-1.2h-7.2V26h7.2zm5.6 0v-1.12h-1.36c-.32 0-.48-.16-.48-.48v-5.28h1.84V18h-1.84v-2.24h-1.2V18h-1.28v1.12h1.28v5.52c0 .8.56 1.36 1.44 1.36h1.6zm3.12 0v-4.8c0-1.2 1.04-2.24 2.32-2.24 1.2 0 2.16.96 2.16 2.24V26h1.2v-4.8c0-2-1.36-3.36-3.2-3.36-1.6 0-2.4 1.04-2.4 1.04h-.08V14.8H52V26h1.2zm11.28.16c1.68 0 2.88-.88 3.44-2.4h-1.28c-.4.8-1.2 1.28-2.16 1.28-1.344 0-2.48-.96-2.64-2.48h6.24s.08-.24.08-.88c0-2.24-1.6-3.84-3.68-3.84-2.16 0-3.84 1.68-3.84 4.16 0 2.48 1.68 4.16 3.84 4.16zm2.48-4.72h-5.12c.16-1.44 1.2-2.48 2.64-2.48 1.36 0 2.4 1.04 2.48 2.48zM71.12 26v-5.12c0-1.12.64-1.76 1.76-1.76h1.2V18h-1.36c-.88 0-1.2.32-1.52.8h-.08l-.16-.8h-1.04v8h1.2zm7.6.16c1.68 0 2.88-.88 3.44-2.4h-1.28c-.4.8-1.2 1.28-2.16 1.28-1.344 0-2.48-.96-2.64-2.48h6.24s.08-.24.08-.88c0-2.24-1.6-3.84-3.68-3.84-2.16 0-3.84 1.68-3.84 4.16 0 2.48 1.68 4.16 3.84 4.16zm2.48-4.72h-5.12c.16-1.44 1.2-2.48 2.64-2.48 1.36 0 2.4 1.04 2.48 2.48zm6.16 4.72c1.6 0 2.4-1.04 2.4-1.04h.08L90 26h1.04v-8h-1.2v4.8c0 1.2-1.04 2.24-2.32 2.24-1.2 0-2.16-.96-2.16-2.24V18h-1.2v4.8c0 2 1.36 3.36 3.2 3.36zm7.12-.16v-5.04c0-1.12.96-2 2-2 1.12 0 1.84.8 1.84 2V26h1.2v-5.04c0-1.12.96-2 2-2 1.12 0 1.84.8 1.84 2V26h1.2v-5.04c0-1.84-1.2-3.12-2.88-3.12-1.76 0-2.64 1.36-2.64 1.36h-.08s-.64-1.36-2.32-1.36c-1.28 0-2.08 1.04-2.08 1.04h-.08l-.16-.88h-1.04v8h1.2z" transform="translate(20 125)"/>
                            <path fill="gray" d="M120.89 26v-.975h-4.81v-3.12h4.55v-.975h-4.55v-3.055h4.81V16.9h-5.85V26h5.85zm5.07 0v-8.125h2.99V16.9h-7.02v.975h2.99V26h1.04zm5.395 0v-4.095h5.07V26h1.04v-9.1h-1.04v4.03h-5.07V16.9h-1.04V26h1.04z" transform="translate(20 125)"/>
                        </g>
                        <g fill-rule="nonzero">
                            <path fill="#F5B300" d="M12 33c6.627 0 12-5.373 12-12S18.627 9 12 9 0 14.373 0 21s5.373 12 12 12zM8.338 15.056c.397.112.794.186 1.19.297.398.112.795.186 1.192.298.108.037.144 0 .18-.112.145-.632.29-1.226.433-1.858.037-.111.073-.148.18-.111.362.111.687.186 1.048.26.108.037.108.074.072.149-.145.594-.289 1.226-.433 1.82 0 .037 0 .074-.036.149.288.074.613.148.902.223.036 0 .072-.075.108-.112.109-.483.217-.929.361-1.412l.108-.445c0-.075.037-.112.109-.075.36.112.722.186 1.119.297.036 0 .036.038.072.038-.108.483-.217.928-.325 1.374-.036.186-.072.372-.144.558-.037.111 0 .148.108.185l1.191.558c.36.223.686.52.938.891.325.558.361 1.152.217 1.747-.108.408-.253.78-.541 1.077-.217.223-.506.372-.795.483-.036 0-.072.037-.144.037.144.112.289.186.433.297.433.335.722.744.866 1.264.073.408.037.854-.072 1.263-.144.52-.325.966-.65 1.375-.396.483-.902.743-1.48.817-.757.111-1.48.037-2.2-.074-.11-.037-.181 0-.218.111-.144.595-.288 1.226-.433 1.82-.036.15-.036.186-.216.112-.325-.074-.686-.186-1.01-.26-.11-.037-.11-.074-.073-.149.144-.631.289-1.263.47-1.857 0-.075.035-.112-.037-.149-.289-.074-.577-.148-.902-.223-.072.335-.18.669-.253 1.003-.072.335-.18.67-.253 1.004-.036.074-.036.111-.144.074-.36-.112-.722-.186-1.083-.26-.108-.037-.108-.075-.072-.149.144-.631.289-1.263.47-1.858 0-.037.035-.074.035-.148-.83-.223-1.66-.446-2.526-.669.072-.149.108-.26.18-.409.145-.334.29-.668.397-.966.036-.111.073-.111.18-.111.253.074.542.149.795.186.289.074.505-.075.541-.335.47-1.895.939-3.79 1.372-5.721.072-.298-.108-.632-.433-.743-.325-.112-.65-.186-.939-.26-.072 0-.108-.038-.072-.112.108-.409.217-.855.325-1.263-.144.111-.144.111-.108.074zm1.84 9.177c.037 0 .073.037.073.037.577.149 1.19.335 1.804.372.433.037.83.037 1.228-.112.685-.223.974-1.151.577-1.746-.18-.297-.47-.483-.758-.669-.65-.371-1.408-.52-2.13-.668-.108-.038-.108 0-.144.111-.072.372-.18.706-.253 1.077-.144.52-.252 1.04-.397 1.598zm3.032-3.79c.072 0 .253-.037.397-.074.686-.149 1.047-.966.686-1.598-.18-.334-.505-.557-.83-.705-.505-.223-1.01-.335-1.552-.483-.108-.038-.144 0-.18.111-.181.78-.361 1.523-.578 2.304-.036.074 0 .111.072.148.145.037.253.074.397.112.542.074 1.01.185 1.588.185z" transform="translate(20 61)"/>
                            <path fill="#000" d="M42.24 26c1.68 0 3.04-1.36 3.04-3.12 0-1.84-1.36-2.48-1.36-2.48v-.08s1.2-.72 1.2-2.4c0-1.76-1.36-3.12-3.04-3.12h-4.8V26h4.96zm-.16-6.16h-3.52V16h3.52c.96 0 1.76.8 1.76 1.92 0 1.12-.8 1.92-1.76 1.92zm.16 4.96h-3.68v-3.84h3.68c.96 0 1.76.8 1.76 1.92 0 1.12-.8 1.92-1.76 1.92zm6.48-8.48v-1.36h-1.36v1.36h1.36zM48.64 26v-8h-1.2v8h1.2zm5.92 0v-1.12H53.2c-.32 0-.48-.16-.48-.48v-5.28h1.84V18h-1.84v-2.24h-1.2V18h-1.28v1.12h1.28v5.52c0 .8.56 1.36 1.44 1.36h1.6zm5.2.16c1.76 0 3.12-1.04 3.52-2.8h-1.2c-.32 1.12-1.2 1.68-2.32 1.68-1.44 0-2.64-1.2-2.64-3.04s1.2-3.04 2.64-3.04c1.12 0 2 .56 2.32 1.6h1.2c-.4-1.68-1.76-2.72-3.52-2.72-2.16 0-3.84 1.68-3.84 4.16 0 2.48 1.68 4.16 3.84 4.16zm8.48 0c2.16 0 3.84-1.68 3.84-4.16 0-2.48-1.68-4.16-3.84-4.16S64.4 19.52 64.4 22c0 2.48 1.68 4.16 3.84 4.16zm0-1.12c-1.44 0-2.64-1.2-2.64-3.04s1.2-3.04 2.64-3.04c1.44 0 2.64 1.2 2.64 3.04s-1.2 3.04-2.64 3.04zm6.96-8.72v-1.36h-1.36v1.36h1.36zM75.12 26v-8h-1.2v8h1.2zm3.52 0v-4.8c0-1.2 1.04-2.24 2.32-2.24 1.2 0 2.16.96 2.16 2.24V26h1.2v-4.8c0-2-1.36-3.36-3.2-3.36-1.6 0-2.4 1.04-2.4 1.04h-.08l-.16-.88h-1.04v8h1.2z" transform="translate(20 61)"/>
                            <path fill="gray" d="M99.07 26c1.365 0 2.47-1.105 2.47-2.535 0-1.495-1.105-2.015-1.105-2.015v-.065s.975-.585.975-1.95c0-1.43-1.105-2.535-2.47-2.535h-3.9V26h4.03zm-.13-5.005h-2.86v-3.12h2.86c.78 0 1.43.65 1.43 1.56s-.65 1.56-1.43 1.56zm.13 4.03h-2.99v-3.12h2.99c.78 0 1.43.65 1.43 1.56s-.65 1.56-1.43 1.56zm7.605.975v-8.125h2.99V16.9h-7.02v.975h2.99V26h1.04zm8.32.13c1.95 0 3.51-1.17 4.03-3.12h-1.105c-.455 1.365-1.56 2.145-2.925 2.145-1.82 0-3.315-1.495-3.315-3.705s1.495-3.705 3.315-3.705c1.365 0 2.47.78 2.925 2.08h1.105c-.52-1.885-2.08-3.055-4.03-3.055-2.405 0-4.355 1.885-4.355 4.68s1.95 4.68 4.355 4.68z" transform="translate(20 61)"/>
                        </g>
                        <g fill="gray" fill-rule="nonzero">
                            <path d="M2.03 10l.742-2.1h4.116L7.63 10h2.03L6.16.2H3.5L0 10h2.03zM6.3 6.22H3.36L4.69 2.3h.28L6.3 6.22zm7.84 3.92c2.52 0 3.78-1.26 3.78-2.94 0-1.61-.91-2.45-2.87-2.8l-1.54-.28c-1.05-.196-1.33-.56-1.33-1.12 0-.7.56-1.26 1.82-1.26s1.96.7 1.96 1.54h1.82c0-1.82-1.26-3.22-3.78-3.22-2.31 0-3.64 1.33-3.64 2.94 0 1.4.77 2.38 2.45 2.66l1.68.28c1.26.21 1.61.7 1.61 1.26 0 .7-.56 1.26-1.96 1.26-1.33 0-2.17-.7-2.17-1.54h-1.82c0 1.82 1.47 3.22 3.99 3.22zm8.89 0c2.52 0 3.78-1.26 3.78-2.94 0-1.61-.91-2.45-2.87-2.8l-1.54-.28c-1.05-.196-1.33-.56-1.33-1.12 0-.7.56-1.26 1.82-1.26s1.96.7 1.96 1.54h1.82c0-1.82-1.26-3.22-3.78-3.22-2.31 0-3.64 1.33-3.64 2.94 0 1.4.77 2.38 2.45 2.66l1.68.28c1.26.21 1.61.7 1.61 1.26 0 .7-.56 1.26-1.96 1.26-1.33 0-2.17-.7-2.17-1.54h-1.82c0 1.82 1.47 3.22 3.99 3.22zM35.07 10V8.32h-4.76V5.94h4.48V4.26h-4.48V1.88h4.76V.2h-6.58V10h6.58zm5.81 0V1.95h2.94V.2h-7.7v1.75h2.94V10h1.82zm7.7.14c2.52 0 3.78-1.26 3.78-2.94 0-1.61-.91-2.45-2.87-2.8l-1.54-.28c-1.05-.196-1.33-.56-1.33-1.12 0-.7.56-1.26 1.82-1.26s1.96.7 1.96 1.54h1.82c0-1.82-1.26-3.22-3.78-3.22C46.13.06 44.8 1.39 44.8 3c0 1.4.77 2.38 2.45 2.66l1.68.28c1.26.21 1.61.7 1.61 1.26 0 .7-.56 1.26-1.96 1.26-1.33 0-2.17-.7-2.17-1.54h-1.82c0 1.82 1.47 3.22 3.99 3.22z" transform="translate(20 22)"/>
                        </g>
                    </g>
                    <g transform="translate(0 602)">
                        <use fill="#000" filter="url(#prefix__m)" xlink:href="#prefix__l"/>
                        <use fill="#FFF" xlink:href="#prefix__l"/>
                    </g>
                </g>
            </g>
        </g>
    </g>
</svg>
