<svg xmlns="http://www.w3.org/2000/svg" xmlns:xlink="http://www.w3.org/1999/xlink" width="529" height="800" viewBox="0 0 529 800">
    <defs>
        <filter id="prefix__c" width="155.6%" height="130.3%" x="-27.8%" y="-12.1%" filterUnits="objectBoundingBox">
            <feOffset dy="20" in="SourceAlpha" result="shadowOffsetOuter1"/>
            <feGaussianBlur in="shadowOffsetOuter1" result="shadowBlurOuter1" stdDeviation="30"/>
            <feColorMatrix in="shadowBlurOuter1" values="0 0 0 0 0 0 0 0 0 0 0 0 0 0 0 0 0 0 0.2 0"/>
        </filter>
        <filter id="prefix__e" width="202.1%" height="203.7%" x="-51%" y="-37%" filterUnits="objectBoundingBox">
            <feOffset dy="2" in="SourceAlpha" result="shadowOffsetOuter1"/>
            <feGaussianBlur in="shadowOffsetOuter1" result="shadowBlurOuter1" stdDeviation="2"/>
            <feComposite in="shadowBlurOuter1" in2="SourceAlpha" operator="out" result="shadowBlurOuter1"/>
            <feColorMatrix in="shadowBlurOuter1" values="0 0 0 0 0 0 0 0 0 0 0 0 0 0 0 0 0 0 0.5 0"/>
        </filter>
        <filter id="prefix__h" width="104.7%" height="112.2%" x="-2.4%" y="-4.6%" filterUnits="objectBoundingBox">
            <feOffset dy="6" in="SourceAlpha" result="shadowOffsetOuter1"/>
            <feGaussianBlur in="shadowOffsetOuter1" result="shadowBlurOuter1" stdDeviation="7"/>
            <feColorMatrix in="shadowBlurOuter1" values="0 0 0 0 0 0 0 0 0 0 0 0 0 0 0 0 0 0 0.1 0"/>
        </filter>
        <filter id="prefix__j" width="104.7%" height="127%" x="-2.4%" y="-10.1%" filterUnits="objectBoundingBox">
            <feOffset dy="6" in="SourceAlpha" result="shadowOffsetOuter1"/>
            <feGaussianBlur in="shadowOffsetOuter1" result="shadowBlurOuter1" stdDeviation="7"/>
            <feColorMatrix in="shadowBlurOuter1" values="0 0 0 0 0 0 0 0 0 0 0 0 0 0 0 0 0 0 0.1 0"/>
        </filter>
        <filter id="prefix__m" width="120%" height="120.9%" x="-10%" y="-7.8%" filterUnits="objectBoundingBox">
            <feOffset dy="6" in="SourceAlpha" result="shadowOffsetOuter1"/>
            <feGaussianBlur in="shadowOffsetOuter1" result="shadowBlurOuter1" stdDeviation="7"/>
            <feColorMatrix in="shadowBlurOuter1" values="0 0 0 0 0 0 0 0 0 0 0 0 0 0 0 0 0 0 0.1 0"/>
        </filter>
        <filter id="prefix__p" width="120%" height="120.9%" x="-10%" y="-7.8%" filterUnits="objectBoundingBox">
            <feOffset dy="6" in="SourceAlpha" result="shadowOffsetOuter1"/>
            <feGaussianBlur in="shadowOffsetOuter1" result="shadowBlurOuter1" stdDeviation="7"/>
            <feColorMatrix in="shadowBlurOuter1" values="0 0 0 0 0 0 0 0 0 0 0 0 0 0 0 0 0 0 0.1 0"/>
        </filter>
        <rect id="prefix__b" width="360" height="660" x="110" y="70" rx="10"/>
        <rect id="prefix__i" width="1020" height="392" x="0" y="0" rx="6"/>
        <rect id="prefix__k" width="1020" height="178" x="0" y="0" rx="6"/>
        <rect id="prefix__l" width="240" height="230" x="0" y="0" rx="6"/>
        <rect id="prefix__o" width="240" height="230" x="0" y="0" rx="6"/>
        <linearGradient id="prefix__g" x1="50%" x2="50%" y1="100%" y2="0%">
            <stop offset="0%" stop-color="#F5F5F5"/>
            <stop offset="100%" stop-color="#FFF"/>
        </linearGradient>
        <ellipse id="prefix__f" cx="9.143" cy="9" rx="6.857" ry="6.75"/>
        <path id="prefix__a" d="M0 0H330V800H0z"/>
    </defs>
    <g fill="none" fill-rule="evenodd">
        <use fill="#F0F0F0" xlink:href="#prefix__a"/>
        <mask id="prefix__d" fill="#fff">
            <use xlink:href="#prefix__b"/>
        </mask>
        <use fill="#000" filter="url(#prefix__c)" xlink:href="#prefix__b"/>
        <use fill="#F7F7F7" xlink:href="#prefix__b"/>
        <g mask="url(#prefix__d)" opacity=".752">
            <g transform="translate(110 70)">
                <path fill="#2B2B2B" d="M0 0H140V660H0z"/>
                <g fill="#FFF">
                    <text font-family="TTHoves-Medium, TT Hoves" font-size="14" font-weight="400" transform="translate(0 554)">
                        <tspan x="34" y="22">Settings</tspan>
                    </text>
                    <path d="M17.705 22.096c.095.043.19.083.29.123l.107.638c.11.66.68 1.143 1.348 1.143h1.077l.141-.007c.604-.063 1.102-.52 1.206-1.131l.106-.618.144-.059.16-.07.503.363c.55.394 1.305.325 1.776-.161l.74-.765.1-.114c.366-.473.385-1.138.03-1.635l-.361-.507c.047-.104.087-.198.125-.299l.639-.107c.647-.109 1.126-.663 1.14-1.32L27 16.49l-.004-.135c-.047-.621-.512-1.14-1.137-1.245l-.636-.105-.058-.144-.07-.16.362-.504c.389-.545.327-1.29-.145-1.764l-.764-.765-.115-.103c-.478-.382-1.161-.402-1.663-.03l-.498.369-.29-.122-.107-.64c-.11-.659-.68-1.142-1.348-1.142H19.45l-.141.007c-.604.063-1.102.52-1.206 1.131l-.105.62-.145.057-.16.07-.503-.363c-.544-.389-1.289-.327-1.761.146l-.764.765-.103.115c-.381.48-.4 1.163-.03 1.666l.37.5-.121.29-.64.106c-.659.11-1.141.682-1.141 1.35v1.08l.007.141c.062.605.52 1.104 1.13 1.208l.617.106.058.144.07.16-.362.504c-.389.545-.327 1.29.145 1.764l.764.765c.478.48 1.234.536 1.778.133l.498-.369zm2.822-10.727l.197 1.178c.03.181.164.328.342.375.365.096.714.241 1.04.432.154.099.352.099.506 0l.97-.718.763.765-.693.971c-.082.129-.096.288-.041.426l.041.08c.19.327.335.678.431 1.043.047.178.194.312.375.342l1.176.197-.024 1.08-1.176.197c-.18.03-.327.164-.374.342-.096.365-.241.716-.431 1.042-.1.155-.1.353 0 .507l.693.971-.74.765-.97-.694c-.128-.083-.287-.097-.426-.042l-.08.042c-.326.19-.675.335-1.04.431-.178.048-.311.194-.342.376l-.197 1.154H19.45l-.197-1.178c-.03-.181-.164-.328-.342-.375-.365-.096-.715-.241-1.04-.432-.154-.099-.352-.099-.506 0l-.97.718-.764-.765.694-.971c.082-.129.096-.288.041-.426l-.041-.08c-.19-.327-.335-.678-.431-1.043-.047-.178-.194-.312-.375-.342l-1.153-.197v-1.08l1.176-.197c.182-.03.328-.164.375-.342.096-.365.241-.716.431-1.042.1-.155.1-.353 0-.507l-.717-.971.764-.765.97.694c.128.083.287.097.426.042l.08-.042c.325-.19.675-.335 1.04-.431.178-.048.311-.194.342-.376l.197-1.154h1.077zM20 14c-1.657 0-3 1.343-3 3s1.343 3 3 3 3-1.343 3-3-1.343-3-3-3zm0 1.25c.966 0 1.75.784 1.75 1.75s-.784 1.75-1.75 1.75-1.75-.784-1.75-1.75.784-1.75 1.75-1.75z" transform="translate(0 554)"/>
                </g>
                <g fill="#FFF">
                    <text font-family="TTHoves-Medium, TT Hoves" font-size="14" font-weight="400" transform="translate(0 508)">
                        <tspan x="34" y="22">Tips</tspan>
                    </text>
                    <path d="M18.75 22h2.5c.414 0 .75.336.75.75s-.336.75-.75.75h-2.5c-.414 0-.75-.336-.75-.75s.336-.75.75-.75zM20 11c2.485 0 4.5 2.015 4.5 4.5 0 1.56-.794 2.935-2 3.742v.615c0 .631-.512 1.143-1.143 1.143h-2.714c-.631 0-1.143-.512-1.143-1.143v-.615c-1.206-.807-2-2.182-2-3.742 0-2.485 2.015-4.5 4.5-4.5zm0 1.5c-1.657 0-3 1.343-3 3 0 1.21.717 2.253 1.749 2.727l.001 1.273h2.5l.001-1.273C22.283 17.753 23 16.71 23 15.5c0-1.657-1.343-3-3-3z" transform="translate(0 508)"/>
                </g>
                <g fill="#FFF">
                    <text font-family="TTHoves-Medium, TT Hoves" font-size="14" font-weight="400" transform="translate(0 462)">
                        <tspan x="34" y="22">Notifications</tspan>
                    </text>
                    <path d="M19.25 22h1.5c.414 0 .75.336.75.75s-.336.75-.75.75h-1.5c-.414 0-.75-.336-.75-.75s.336-.75.75-.75zM20 11.25c2.193 0 3.985 1.693 4.091 3.823l.005.2v2.53l.068.02c.545.18.954.64 1.06 1.2l.02.142.006.146v.737c0 .52-.398.944-.909.998l-.11.006h-8.462c-.524 0-.958-.39-1.013-.895l-.006-.11v-.736c0-.638.388-1.193.953-1.438l.133-.05.067-.02v-2.53c0-2.088 1.62-3.803 3.69-4.003l.203-.015.204-.005zm0 1.255c-1.505 0-2.733 1.15-2.822 2.6l-.005.168v2.907c0 .45-.371.815-.825.815-.16 0-.292.11-.322.252l-.007.064v.486h7.961v-.486c0-.153-.11-.28-.261-.31l-.067-.006c-.42 0-.768-.311-.819-.713l-.006-.102v-2.907c0-1.528-1.264-2.768-2.827-2.768z" transform="translate(0 462)"/>
                </g>
                <g fill="#FFF">
                    <text font-family="TTHoves-Medium, TT Hoves" font-size="14" font-weight="400" transform="translate(0 416)">
                        <tspan x="34" y="22">Search</tspan>
                    </text>
                    <path d="M19 11c2.761 0 5 2.239 5 5 0 1.11-.362 2.136-.974 2.966l2.333 2.332c.293.293.293.768 0 1.06-.293.294-.768.294-1.06 0l-2.333-2.332c-.83.612-1.856.974-2.966.974-2.761 0-5-2.239-5-5s2.239-5 5-5zm0 1.5c-1.933 0-3.5 1.567-3.5 3.5s1.567 3.5 3.5 3.5 3.5-1.567 3.5-3.5-1.567-3.5-3.5-3.5z" transform="translate(0 416)"/>
                </g>
                <g>
                    <path fill="#2B2B2B" d="M0 0H140V34H0z" transform="translate(0 614)"/>
                    <text fill="#FFF" font-family="TTHoves-Medium, TT Hoves" font-size="14" font-weight="400" transform="translate(0 614)">
                        <tspan x="34" y="22">Discreet</tspan>
                    </text>
                    <path fill="#FFF" d="M24.736 11.75c.293.293.293.768 0 1.061l-9.425 9.425c-.293.293-.768.293-1.06 0-.294-.293-.294-.768 0-1.061l1.09-1.091c-.242-.189-.476-.393-.704-.613-.211-.203-.41-.413-.618-.647l-.336-.394c-.165-.197-.416-.5-.489-.583-.425-.49-.425-1.204 0-1.694l.615-.734c.286-.336.546-.619.828-.89 1.428-1.377 3.117-2.154 5.363-2.154.972 0 1.84.146 2.627.422l1.048-1.047c.293-.293.768-.293 1.06 0zm.627 2.779c.211.203.41.413.618.647l.336.394c.165.197.416.5.489.583.425.49.425 1.204 0 1.694l-.615.734c-.286.336-.546.619-.828.89-1.428 1.377-3.117 2.154-5.363 2.154-.673 0-1.295-.07-1.876-.204l1.11-1.107c.246.026.502.04.767.042 1.898.01 3.32-.663 4.546-1.875.18-.179.352-.363.533-.572l.328-.39c.141-.172.342-.415.41-.493.013-.016.013-.036 0-.052l-.553-.665c-.254-.303-.477-.551-.718-.79-.088-.087-.177-.171-.267-.252l.905-.905c.06.054.12.11.178.167zm-5.362-.885c-1.899.01-3.321.683-4.544 1.88-.182.18-.354.363-.536.57l-.739.88c-.013.016-.013.036 0 .052l.554.664c.253.3.478.547.721.785.259.253.526.483.805.688l5.343-5.344c-.496-.118-1.028-.178-1.604-.175z" transform="translate(0 614)"/>
                    <g transform="translate(0 614) translate(98 8)">
                        <rect width="32" height="18" fill="#B3B3B3" rx="9"/>
                        <g fill-rule="nonzero">
                            <use fill="#000" filter="url(#prefix__e)" xlink:href="#prefix__f"/>
                            <ellipse cx="9.143" cy="9" fill="url(#prefix__g)" fill-rule="evenodd" stroke="#FFF" stroke-linejoin="square" rx="6.357" ry="6.25"/>
                        </g>
                    </g>
                </g>
                <rect width="124" height="2" fill="#F5F5F5" opacity=".1" rx="1" transform="translate(8 600)"/>
                <g fill="#FFF">
                    <path d="M55 17V7c0-.552-.448-1-1-1h-1V3c0-.552-.448-1-1-1H38c-1.657 0-3 1.343-3 3v14c-.008.792.306 1.554.87 2.11.56.574 1.329.896 2.13.89h16c.552 0 1-.448 1-1v-4zm-2-2h-5c-.552 0-1-.448-1-1s.448-1 1-1h5v2zM38 4h13v2H38c-.268-.004-.524-.116-.71-.31-.182-.184-.286-.431-.29-.69 0-.552.448-1 1-1zm0 16c-.268-.004-.524-.116-.71-.31-.182-.184-.286-.431-.29-.69V7.83l.27.07h.17c.183.05.37.084.56.1h15v3h-5c-1.657 0-3 1.343-3 3s1.343 3 3 3h5v3H38z" transform="translate(25 214)"/>
                    <text font-family="TTHoves-DemiBold, TT Hoves" font-size="14" font-weight="400" transform="translate(25 214)">
                        <tspan x="23.72" y="47">Wallet</tspan>
                    </text>
                </g>
                <g>
                    <path fill="#F7F7F7" d="M3 6h125c4 0 6-2 6-6v96c0-4-2-6-6-6H3c-1.657 0-3-1.343-3-3V9c0-1.657 1.343-3 3-3z" transform="translate(6 102)"/>
                    <path fill="#2B2B2B" d="M72 25c.552 0 1 .448 1 1v11.5c0 .552-.448 1-1 1h-2.375l.852 3.409c.118.47-.168.947-.639 1.065-.07.017-.141.026-.213.026h-.344c-.46 0-.86-.312-.97-.757l-.937-3.743h-6.749l-.936 3.743c-.102.408-.446.704-.856.75l-.114.007h-.344c-.072 0-.143-.009-.213-.026-.434-.109-.712-.524-.66-.957l.02-.108.852-3.409H56c-.552 0-1-.448-1-1V26c0-.552.448-1 1-1h16zm-.875 1.875h-14.25v9.75h14.25v-9.75zm-11 4.875h.625c.345 0 .625.28.625.625v1.75c0 .345-.28.625-.625.625h-.625c-.345 0-.625-.28-.625-.625v-1.75c0-.345.28-.625.625-.625zm3.555-1.5h.625c.345 0 .625.28.625.625v3.25c0 .345-.28.625-.625.625h-.625c-.345 0-.625-.28-.625-.625v-3.25c0-.345.28-.625.625-.625zm3.57-1.5h.625c.345 0 .625.28.625.625v4.75c0 .345-.28.625-.625.625h-.625c-.345 0-.625-.28-.625-.625v-4.75c0-.345.28-.625.625-.625z" transform="translate(6 102)"/>
                    <text fill="#2B2B2B" font-family="TTHoves-DemiBold, TT Hoves" font-size="14" font-weight="400" transform="translate(6 102)">
                        <tspan x="27.985" y="69">Dashboard</tspan>
                    </text>
                </g>
                <rect width="124" height="2" fill="#F5F5F5" opacity=".1" rx="1" transform="translate(8 100)"/>
                <g>
                    <text fill="#FFF" font-family="TTHoves-DemiBold, TT Hoves" font-size="14" font-weight="400" transform="translate(0 21)">
                        <tspan x="12" y="24">My Trezor</tspan>
                    </text>
                    <path fill="#39A814" d="M128 12c.552 0 1 .448 1 1v5.716c0 1.263-.157 2.192-.228 2.461-.067.252-.372 1-.994 1.815l-.138.175c-.328.404-.704.956-1.023 1.447l-.717 1.148c-.084.134-.249.238-.51.238h-2.78c-.262 0-.427-.104-.51-.238l-.41-.665-.338-.53c-.245-.376-.521-.784-.783-1.131l-.21-.269c-.714-.88-1.06-1.72-1.131-1.99l-.03-.131-.04-.208c-.067-.4-.144-1.063-.156-1.89L119 13c0-.513.386-.936.883-.993L120 12h8zm-.2 1.2h-7.6l.001 5.73c.012.766.086 1.462.166 1.846l.02.094c.069.258.368.84.799 1.406l.342.438c.362.481.762 1.08 1.185 1.754l.204.332h2.169l.524-.84.337-.508c.219-.323.424-.61.612-.853l.265-.335c.42-.55.723-1.148.788-1.394l.04-.19c.076-.414.148-1.17.148-1.964V13.2zm-1.3 1.3v5h-5v-5h5z" transform="translate(0 21)"/>
                    <path fill="#FFF" d="M127 43l-4.225 4.278c-.292.296-.765.296-1.056 0-.292-.295-.292-.774 0-1.07l3.17-3.209-3.17-3.208c-.292-.295-.292-.774 0-1.07.291-.295.764-.295 1.056 0L127 43z" opacity=".5" transform="translate(0 21)"/>
                    <text fill="#B3B3B3" font-family="TTHoves-Medium, TT Hoves" font-size="12" font-weight="400" transform="translate(0 21)">
                        <tspan x="12" y="47">Standard wallet</tspan>
                    </text>
                </g>
                <g transform="translate(156 16)">
                    <use fill="#000" filter="url(#prefix__h)" xlink:href="#prefix__i"/>
                    <use fill="#FFF" xlink:href="#prefix__i"/>
                    <g>
                        <g fill="#CCC">
                            <path d="M0 145H860V146H0zM0 73H860V74H0zM0 0H860V1H0z" transform="translate(40 166) translate(0 8)"/>
                        </g>
                        <g fill="#CCC">
                            <path d="M0 0H1V4H0zM100 0H101V4H100z" transform="translate(40 166) translate(29 154)"/>
                        </g>
                        <g fill="gray" font-family="RobotoMono-Regular, Roboto Mono" font-size="12">
                            <text transform="translate(40 166) translate(0 178)">
                                <tspan x="4.796" y="13">04/2020</tspan>
                            </text>
                            <text transform="translate(40 166) translate(0 178)">
                                <tspan x="104.796" y="13">10/2018</tspan>
                            </text>
                            <text transform="translate(40 166) translate(0 178)">
                                <tspan x="204.796" y="13">11/2018</tspan>
                            </text>
                        </g>
                        <g>
                            <path fill="#30C100" d="M453.013 56c.552 0 1 .448 1 1v14c0 .552-.448 1-1 1h-.551c-.552 0-1-.448-1-1V57c0-.552.448-1 1-1h.55zm-229.557-4c.552 0 1 .448 1 1v18c0 .552-.448 1-1 1h-.55c-.553 0-1-.448-1-1V53c0-.552.447-1 1-1h.55zm459.114-4c.552 0 1 .448 1 1v22c0 .552-.448 1-1 1h-.551c-.552 0-1-.448-1-1V49c0-.552.448-1 1-1h.55zM108.677 64c.552 0 1 .448 1 1v6c0 .552-.448 1-1 1h-.55c-.553 0-1-.448-1-1v-6c0-.552.447-1 1-1h.55zm459.114 4c.552 0 1 .448 1 1v2c0 .552-.448 1-1 1h-.55c-.553 0-1-.448-1-1v-2c0-.552.447-1 1-1h.55zM338.234 39c.552 0 1 .448 1 1v31c0 .552-.448 1-1 1h-.55c-.553 0-1-.448-1-1V40c0-.552.447-1 1-1h.55zm459.114 23c.552 0 1 .448 1 1v8c0 .552-.448 1-1 1h-.55c-.553 0-1-.448-1-1v-8c0-.552.447-1 1-1h.55zM32.158 30c.553 0 1 .448 1 1v40c0 .552-.447 1-1 1h-.55c-.553 0-1-.448-1-1V31c0-.552.447-1 1-1h.55zm459.114 38c.552 0 1 .448 1 1v2c0 .552-.448 1-1 1h-.55c-.553 0-1-.448-1-1v-2c0-.552.447-1 1-1h.55zm-229.557-4c.552 0 1 .448 1 1v6c0 .552-.448 1-1 1h-.55c-.553 0-1-.448-1-1v-6c0-.552.447-1 1-1h.55zM146.937 54c.552 0 1 .448 1 1v16c0 .552-.448 1-1 1h-.55c-.553 0-1-.448-1-1V55c0-.552.447-1 1-1h.55zm229.557-2c.552 0 1 .448 1 1v18c0 .552-.448 1-1 1h-.551c-.552 0-1-.448-1-1V53c0-.552.448-1 1-1h.55zM70.418 64c.552 0 1 .448 1 1v6c0 .552-.448 1-1 1h-.55c-.553 0-1-.448-1-1v-6c0-.552.447-1 1-1h.55zm459.114-20c.552 0 1 .448 1 1v26c0 .552-.448 1-1 1h-.551c-.552 0-1-.448-1-1V45c0-.552.448-1 1-1h.55zm-229.557-1c.552 0 1 .448 1 1v27c0 .552-.448 1-1 1h-.55c-.553 0-1-.448-1-1V44c0-.552.447-1 1-1h.55zm459.114 21c.552 0 1 .448 1 1v6c0 .552-.448 1-1 1h-.551c-.552 0-1-.448-1-1v-6c0-.552.448-1 1-1h.55zM185.196 53c.552 0 1 .448 1 1v17c0 .552-.448 1-1 1h-.55c-.553 0-1-.448-1-1V54c0-.552.447-1 1-1h.55zm459.114 9c.552 0 1 .448 1 1v8c0 .552-.448 1-1 1h-.55c-.553 0-1-.448-1-1v-8c0-.552.447-1 1-1h.55zm-229.557 0c.552 0 1 .448 1 1v8c0 .552-.448 1-1 1h-.55c-.553 0-1-.448-1-1v-8c0-.552.447-1 1-1h.55zM9.203 67c.552 0 1 .448 1 1v3c0 .552-.448 1-1 1h-.551c-.552 0-1-.448-1-1v-3c0-.552.448-1 1-1h.55zm459.113 1c.553 0 1 .448 1 1v2c0 .552-.447 1-1 1h-.55c-.552 0-1-.448-1-1v-2c0-.552.448-1 1-1h.55zM238.76 29c.553 0 1 .448 1 1v41c0 .552-.447 1-1 1h-.55c-.552 0-1-.448-1-1V30c0-.552.448-1 1-1h.55zM123.981 68c.552 0 1 .448 1 1v2c0 .552-.448 1-1 1h-.55c-.553 0-1-.448-1-1v-2c0-.552.447-1 1-1h.55zm459.114-1c.552 0 1 .448 1 1v3c0 .552-.448 1-1 1h-.55c-.553 0-1-.448-1-1v-3c0-.552.447-1 1-1h.55zm-229.557-3c.552 0 1 .448 1 1v6c0 .552-.448 1-1 1h-.55c-.553 0-1-.448-1-1v-6c0-.552.447-1 1-1h.55zM47.462 64c.552 0 1 .448 1 1v6c0 .552-.448 1-1 1h-.55c-.553 0-1-.448-1-1v-6c0-.552.447-1 1-1h.55zm459.114-2c.552 0 1 .448 1 1v8c0 .552-.448 1-1 1h-.55c-.553 0-1-.448-1-1v-8c0-.552.447-1 1-1h.55zM277.019 49c.552 0 1 .448 1 1v21c0 .552-.448 1-1 1h-.55c-.553 0-1-.448-1-1V50c0-.552.447-1 1-1h.55zm459.114 21c.552 0 1 .448 1 1s-.448 1-1 1h-.55c-.553 0-1-.448-1-1s.447-1 1-1h.55zm-107.127-2c.553 0 1 .448 1 1v2c0 .552-.447 1-1 1h-.55c-.553 0-1-.448-1-1v-2c0-.552.447-1 1-1h.55zm-237.209-4c.553 0 1 .448 1 1v6c0 .552-.447 1-1 1h-.55c-.552 0-1-.448-1-1v-6c0-.552.448-1 1-1h.55zM85.722 47c.552 0 1 .448 1 1v23c0 .552-.448 1-1 1h-.551c-.552 0-1-.448-1-1V48c0-.552.448-1 1-1h.55zm459.113 21c.553 0 1 .448 1 1v2c0 .552-.447 1-1 1h-.55c-.552 0-1-.448-1-1v-2c0-.552.448-1 1-1h.55zm-229.557-4c.553 0 1 .448 1 1v6c0 .552-.447 1-1 1h-.55c-.552 0-1-.448-1-1v-6c0-.552.448-1 1-1h.55zm459.114-29c.553 0 1 .448 1 1v35c0 .552-.447 1-1 1h-.55c-.553 0-1-.448-1-1V36c0-.552.447-1 1-1h.55zM430.057 60c.552 0 1 .448 1 1v10c0 .552-.448 1-1 1h-.55c-.553 0-1-.448-1-1V61c0-.552.447-1 1-1h.55zm-175.994 8c.553 0 1 .448 1 1v2c0 .552-.447 1-1 1h-.55c-.553 0-1-.448-1-1v-2c0-.552.447-1 1-1h.55zM139.285 42c.552 0 1 .448 1 1v28c0 .552-.448 1-1 1h-.55c-.553 0-1-.448-1-1V43c0-.552.447-1 1-1h.55zm459.114 6c.552 0 1 .448 1 1v22c0 .552-.448 1-1 1h-.55c-.553 0-1-.448-1-1V49c0-.552.447-1 1-1h.55zM368.842 68c.552 0 1 .448 1 1v2c0 .552-.448 1-1 1h-.55c-.553 0-1-.448-1-1v-2c0-.552.447-1 1-1h.55zM62.766 68c.552 0 1 .448 1 1v2c0 .552-.448 1-1 1h-.55c-.553 0-1-.448-1-1v-2c0-.552.447-1 1-1h.55zm459.114-4c.552 0 1 .448 1 1v6c0 .552-.448 1-1 1h-.55c-.553 0-1-.448-1-1v-6c0-.552.447-1 1-1h.55zm-229.557-4c.552 0 1 .448 1 1v10c0 .552-.448 1-1 1h-.55c-.553 0-1-.448-1-1V61c0-.552.447-1 1-1h.55zm459.114 6c.552 0 1 .448 1 1v4c0 .552-.448 1-1 1h-.55c-.553 0-1-.448-1-1v-4c0-.552.447-1 1-1h.55zm-573.893-9c.553 0 1 .448 1 1v13c0 .552-.447 1-1 1h-.55c-.553 0-1-.448-1-1V58c0-.552.447-1 1-1h.55zm459.114 9c.553 0 1 .448 1 1v4c0 .552-.447 1-1 1h-.55c-.553 0-1-.448-1-1v-4c0-.552.447-1 1-1h.55zm-229.557 0c.553 0 1 .448 1 1v4c0 .552-.447 1-1 1h-.55c-.553 0-1-.448-1-1v-4c0-.552.447-1 1-1h.55zM101.025 41c.553 0 1 .448 1 1v29c0 .552-.447 1-1 1h-.55c-.553 0-1-.448-1-1V42c0-.552.447-1 1-1h.55zM560.14 62c.553 0 1 .448 1 1v8c0 .552-.447 1-1 1h-.55c-.553 0-1-.448-1-1v-8c0-.552.447-1 1-1h.55zM330.582 22c.553 0 1 .448 1 1v48c0 .552-.447 1-1 1h-.55c-.553 0-1-.448-1-1V23c0-.552.447-1 1-1h.55zM215.804 55c.552 0 1 .448 1 1v15c0 .552-.448 1-1 1h-.55c-.553 0-1-.448-1-1V56c0-.552.447-1 1-1h.55zm459.114 5c.552 0 1 .448 1 1v10c0 .552-.448 1-1 1h-.55c-.553 0-1-.448-1-1V61c0-.552.447-1 1-1h.55zM445.36 50c.552 0 1 .448 1 1v20c0 .552-.448 1-1 1h-.55c-.553 0-1-.448-1-1V51c0-.552.447-1 1-1h.55zM1.55 64c.552 0 1 .448 1 1v6c0 .552-.448 1-1 1H1c-.552 0-1-.448-1-1v-6c0-.552.448-1 1-1h.55zm459.114-2c.552 0 1 .448 1 1v8c0 .513-.386.936-.884.993l-.116.007h-.551c-.552 0-1-.448-1-1v-8c0-.552.448-1 1-1h.55zM231.108 42c.552 0 1 .448 1 1v28c0 .513-.386.936-.884.993l-.116.007h-.551c-.552 0-1-.448-1-1V43c0-.552.448-1 1-1h.55zm344.335 22c.552 0 1 .448 1 1v6c0 .552-.448 1-1 1h-.55c-.553 0-1-.448-1-1v-6c0-.552.447-1 1-1h.55zm-229.557-4c.552 0 1 .448 1 1v10c0 .513-.386.936-.883.993l-.117.007h-.55c-.553 0-1-.448-1-1V61c0-.552.447-1 1-1h.55zM39.81 69c.552 0 1 .448 1 1v1c0 .552-.448 1-1 1h-.55c-.553 0-1-.448-1-1v-1c0-.552.447-1 1-1h.55zm229.557-11c.552 0 1 .448 1 1v12c0 .513-.386.936-.883.993l-.117.007h-.55c-.553 0-1-.448-1-1V59c0-.552.447-1 1-1h.55zM78.07 58c.552 0 1 .448 1 1v12c0 .513-.386.936-.884.993L78.07 72h-.551c-.552 0-1-.448-1-1V59c0-.552.448-1 1-1h.55zm459.114-8c.552 0 1 .448 1 1v20c0 .513-.386.936-.884.993l-.116.007h-.551c-.552 0-1-.448-1-1V51c0-.552.448-1 1-1h.55zm-229.557 6c.552 0 1 .448 1 1v14c0 .513-.386.936-.884.993l-.116.007h-.551c-.552 0-1-.448-1-1V57c0-.552.448-1 1-1h.55zM766.74 70c.552 0 1 .448 1 1s-.448 1-1 1h-.551c-.552 0-1-.448-1-1s.448-1 1-1h.55zM192.848 45c.552 0 1 .448 1 1v25c0 .513-.386.936-.883.993l-.117.007h-.55c-.553 0-1-.448-1-1V46c0-.552.447-1 1-1h.55zm497.374 23c.552 0 1 .448 1 1v2c0 .552-.448 1-1 1h-.551c-.552 0-1-.448-1-1v-2c0-.552.448-1 1-1h.55zM805 68c.552 0 1 .448 1 1v2c0 .552-.448 1-1 1h-.55c-.553 0-1-.448-1-1v-2c0-.552.447-1 1-1h.55zm-306.076-2c.552 0 1 .448 1 1v4c0 .552-.448 1-1 1h-.55c-.553 0-1-.448-1-1v-4c0-.552.447-1 1-1h.55zm-114.778 0c.552 0 1 .448 1 1v4c0 .552-.448 1-1 1h-.551c-.552 0-1-.448-1-1v-4c0-.552.448-1 1-1h.55zm267.816 0c.552 0 1 .448 1 1v4c0 .552-.448 1-1 1h-.55c-.553 0-1-.448-1-1v-4c0-.552.447-1 1-1h.55zm-229.557 4c.552 0 1 .448 1 1s-.448 1-1 1h-.55c-.553 0-1-.448-1-1s.447-1 1-1h.55zM16.855 36c.552 0 1 .448 1 1v34c0 .552-.448 1-1 1h-.551c-.552 0-1-.448-1-1V37c0-.552.448-1 1-1h.55zm459.113 22c.553 0 1 .448 1 1v12c0 .552-.447 1-1 1h-.55c-.553 0-1-.448-1-1V59c0-.552.447-1 1-1h.55zM131.633 35c.552 0 1 .448 1 1v35c0 .552-.448 1-1 1h-.55c-.553 0-1-.448-1-1V36c0-.552.447-1 1-1h.55zm459.114 17c.552 0 1 .448 1 1v18c0 .552-.448 1-1 1h-.55c-.553 0-1-.448-1-1V53c0-.552.447-1 1-1h.55zM361.19 66c.552 0 1 .448 1 1v4c0 .552-.448 1-1 1h-.55c-.553 0-1-.448-1-1v-4c0-.552.447-1 1-1h.55zm153.038-8c.552 0 1 .448 1 1v12c0 .552-.448 1-1 1h-.55c-.553 0-1-.448-1-1V59c0-.552.447-1 1-1h.55zM284.67 54c.552 0 1 .448 1 1v16c0 .552-.448 1-1 1h-.55c-.553 0-1-.448-1-1V55c0-.552.447-1 1-1h.55zm459.114 14c.552 0 1 .448 1 1v2c0 .552-.448 1-1 1h-.55c-.553 0-1-.448-1-1v-2c0-.552.447-1 1-1h.55zm-573.893-6c.553 0 1 .448 1 1v8c0 .552-.447 1-1 1h-.55c-.553 0-1-.448-1-1v-8c0-.552.447-1 1-1h.55zm229.557 6c.553 0 1 .448 1 1v2c0 .552-.447 1-1 1h-.55c-.553 0-1-.448-1-1v-2c0-.552.447-1 1-1h.55zM93.373 54c.553 0 1 .448 1 1v16c0 .552-.447 1-1 1h-.55c-.552 0-1-.448-1-1V55c0-.552.448-1 1-1h.55zm459.114 14c.553 0 1 .448 1 1v2c0 .552-.447 1-1 1h-.55c-.553 0-1-.448-1-1v-2c0-.552.447-1 1-1h.55zM322.93 0c.553 0 1 .448 1 1v70c0 .552-.447 1-1 1h-.55c-.553 0-1-.448-1-1V1c0-.552.447-1 1-1h.55zm459.114 44c.553 0 1 .448 1 1v26c0 .552-.447 1-1 1h-.55c-.553 0-1-.448-1-1V45c0-.552.447-1 1-1h.55zM208.152 58c.552 0 1 .448 1 1v12c0 .552-.448 1-1 1h-.55c-.553 0-1-.448-1-1V59c0-.552.447-1 1-1h.55zm459.114 10c.552 0 1 .448 1 1v2c0 .552-.448 1-1 1h-.55c-.553 0-1-.448-1-1v-2c0-.552.447-1 1-1h.55zm-229.557 0c.552 0 1 .448 1 1v2c0 .552-.448 1-1 1h-.55c-.553 0-1-.448-1-1v-2c0-.552.447-1 1-1h.55z" transform="translate(40 166) translate(8 9)"/>
                            <path fill="#D04949" d="M315.278 73c.553 0 1 .448 1 1v69c0 .552-.447 1-1 1h-.55c-.552 0-1-.448-1-1V74c0-.552.448-1 1-1h.55zm53.564 0c.552 0 1 .448 1 1v33c0 .552-.448 1-1 1h-.55c-.553 0-1-.448-1-1V74c0-.552.447-1 1-1h.55zM39.81 73c.552 0 1 .448 1 1v30c0 .552-.448 1-1 1h-.55c-.553 0-1-.448-1-1V74c0-.552.447-1 1-1h.55zm665.715 0c.553 0 1 .448 1 1v20c0 .552-.447 1-1 1h-.55c-.553 0-1-.448-1-1V74c0-.552.447-1 1-1h.55zm-76.519 0c.553 0 1 .448 1 1v16c0 .552-.447 1-1 1h-.55c-.553 0-1-.448-1-1V74c0-.552.447-1 1-1h.55zM200.5 73c.552 0 1 .448 1 1v16c0 .552-.448 1-1 1h-.55c-.553 0-1-.448-1-1V74c0-.552.447-1 1-1h.55zm-38.26 0c.553 0 1 .448 1 1v14c0 .552-.447 1-1 1h-.55c-.552 0-1-.448-1-1V74c0-.552.448-1 1-1h.55zM32.159 73c.553 0 1 .448 1 1v14c0 .552-.447 1-1 1h-.55c-.553 0-1-.448-1-1V74c0-.552.447-1 1-1h.55zm84.171 0c.552 0 1 .448 1 1v14c0 .552-.448 1-1 1h-.55c-.553 0-1-.448-1-1V74c0-.552.447-1 1-1h.55zm596.848 0c.553 0 1 .448 1 1v10c0 .552-.447 1-1 1h-.55c-.553 0-1-.448-1-1V74c0-.552.447-1 1-1h.55zM1.551 73c.552 0 1 .448 1 1v9c0 .552-.448 1-1 1H1c-.552 0-1-.448-1-1v-9c0-.552.448-1 1-1h.55zm436.158 0c.552 0 1 .448 1 1v8c0 .552-.448 1-1 1h-.55c-.553 0-1-.448-1-1v-8c0-.552.447-1 1-1h.55zm61.215 0c.552 0 1 .448 1 1v7c0 .552-.448 1-1 1h-.55c-.553 0-1-.448-1-1v-7c0-.552.447-1 1-1zm-15.304 0c.553 0 1 .448 1 1v7c0 .552-.447 1-1 1h-.55c-.553 0-1-.448-1-1v-7c0-.552.447-1 1-1zm122.43 0c.553 0 1 .448 1 1v6c0 .552-.447 1-1 1h-.55c-.552 0-1-.448-1-1v-6c0-.552.448-1 1-1h.55zm91.823 0c.553 0 1 .448 1 1v6c0 .552-.447 1-1 1h-.55c-.553 0-1-.448-1-1v-6c0-.552.447-1 1-1h.55zm91.823 0c.552 0 1 .448 1 1v6c0 .552-.448 1-1 1h-.55c-.553 0-1-.448-1-1v-6c0-.552.447-1 1-1zm-681.019 0c.552 0 1 .448 1 1v6c0 .552-.448 1-1 1h-.55c-.553 0-1-.448-1-1v-6c0-.552.447-1 1-1h.55zm-84.17 0c.552 0 1 .448 1 1v6c0 .552-.448 1-1 1h-.551c-.553 0-1-.448-1-1v-6c0-.552.447-1 1-1h.55zm130.082 0c.552 0 1 .448 1 1v6c0 .552-.448 1-1 1h-.551c-.552 0-1-.448-1-1v-6c0-.552.448-1 1-1h.55zm-99.475 0c.552 0 1 .448 1 1v6c0 .552-.448 1-1 1h-.55c-.553 0-1-.448-1-1v-6c0-.552.447-1 1-1h.55zm153.038 0c.552 0 1 .448 1 1v6c0 .552-.448 1-1 1h-.55c-.553 0-1-.448-1-1v-6c0-.552.447-1 1-1h.55zm22.956 0c.552 0 1 .448 1 1v6c0 .552-.448 1-1 1h-.551c-.552 0-1-.448-1-1v-6c0-.552.448-1 1-1h.55zm-45.912 0c.552 0 1 .448 1 1v6c0 .552-.448 1-1 1h-.55c-.553 0-1-.448-1-1v-6c0-.552.447-1 1-1h.55zm428.507 0c.552 0 1 .448 1 1v4c0 .552-.448 1-1 1h-.551c-.552 0-1-.448-1-1v-4c0-.552.448-1 1-1h.55zm7.651 0c.553 0 1 .448 1 1v2c0 .552-.447 1-1 1h-.55c-.552 0-1-.448-1-1v-2c0-.552.448-1 1-1h.55zm38.26 0c.552 0 1 .448 1 1v2c0 .552-.448 1-1 1h-.55c-.553 0-1-.448-1-1v-2c0-.552.447-1 1-1zm61.215 0c.552 0 1 .448 1 1v2c0 .552-.448 1-1 1h-.55c-.553 0-1-.448-1-1v-2c0-.552.447-1 1-1h.55zm45.912 0c.552 0 1 .448 1 1v2c0 .552-.448 1-1 1h-.551c-.552 0-1-.448-1-1v-2c0-.552.448-1 1-1zm-420.855 0c.552 0 1 .448 1 1v2c0 .552-.448 1-1 1h-.55c-.553 0-1-.448-1-1v-2c0-.552.447-1 1-1h.55zm-99.475 0c.553 0 1 .448 1 1v2c0 .552-.447 1-1 1h-.55c-.553 0-1-.448-1-1v-2c0-.552.447-1 1-1h.55zm329.032 0c.552 0 1 .448 1 1s-.448 1-1 1h-.55c-.553 0-1-.448-1-1s.447-1 1-1zm114.779 0c.552 0 1 .448 1 1s-.448 1-1 1h-.551c-.552 0-1-.448-1-1s.448-1 1-1h.55zm38.259 0c.552 0 1 .448 1 1s-.448 1-1 1h-.55c-.553 0-1-.448-1-1s.447-1 1-1h.55zm-466.766 0c.552 0 1 .448 1 1s-.448 1-1 1h-.55c-.553 0-1-.448-1-1s.447-1 1-1h.55z" transform="translate(40 166) translate(8 9)"/>
                        </g>
                    </g>
                    <g fill="#404040">
                        <text font-family="TTHoves-Medium, TT Hoves" font-size="13" font-weight="400" transform="translate(36 126)">
                            <tspan x="2.09" y="14">Year</tspan>
                        </text>
                        <path d="M4 16H29V17H4z" transform="translate(36 126)"/>
                        <text font-family="TTHoves-Medium, TT Hoves" font-size="13" font-weight="400" transform="translate(36 126) translate(50)">
                            <tspan x="-3" y="14">Month</tspan>
                        </text>
                        <g font-family="TTHoves-Medium, TT Hoves" font-size="13" font-weight="400">
                            <text transform="translate(36 126) translate(101)">
                                <tspan x="2.875" y="14">Week</tspan>
                            </text>
                        </g>
                    </g>
                    <rect width="1000" height="2" x="10" y="100" fill="#F0F0F0" rx="1"/>
                    <g>
                        <text fill="#2B2B2B" font-family="TTHoves-Light, TT Hoves" font-size="36" font-weight="300" transform="translate(20 19)">
                            <tspan x="0" y="55">$5240.58</tspan>
                        </text>
                        <text fill="gray" font-family="TTHoves-DemiBold, TT Hoves" font-size="14" font-weight="400" transform="translate(20 19)">
                            <tspan x="0" y="13">PORTFOLIO VALUE</tspan>
                        </text>
                    </g>
                    <g transform="translate(0 408)">
                        <use fill="#000" filter="url(#prefix__j)" xlink:href="#prefix__k"/>
                        <use fill="#FFF" xlink:href="#prefix__k"/>
                        <path fill="#F0F0F0" d="M10 112H1010V114H10zM10 46H1010V48H10z"/>
                        <g>
                            <g fill-rule="nonzero">
                                <path fill="#8A92B2" d="M11.887.297V8.955c0 .036-.037.073-.074.073-.257.112-.478.223-.735.335-.33.148-.698.297-1.029.483l-1.213.557-.992.446-1.213.557c-.33.149-.661.297-1.029.483-.257.112-.55.26-.808.372-.037 0-.037.037-.073 0h-.037c.11-.186.22-.335.33-.52.588-1.004 1.213-2.007 1.801-3.01C7.44 7.654 8.101 6.576 8.726 5.5c.588-1.003 1.176-2.007 1.764-2.973.441-.743.882-1.449 1.287-2.192.073 0 .073-.037.11-.037-.037 0 0 0 0 0z" transform="translate(20 125) translate(0 9)"/>
                                <path fill="#454A75" d="M19.016 12.26c-.551.372-1.139.707-1.69 1.041-1.801 1.078-3.565 2.118-5.366 3.195-.037 0-.037.037-.073.037-.037 0-.037-.037-.037-.037v-.111V9.14v-.112c0-.037.037-.037.074-.037.146.075.293.149.477.223.441.223.919.409 1.36.632.404.186.772.371 1.176.52.404.186.772.371 1.176.557.33.149.698.297 1.029.483.33.149.698.297 1.029.483.257.112.515.26.809.372 0-.037 0 0 .036 0z" transform="translate(20 125) translate(0 9)"/>
                                <path fill="#8A92B2" d="M11.887 23.816s-.037 0 0 0c-.037 0-.037 0-.074-.038-.735-1.04-1.433-2.043-2.168-3.083L7.44 17.574c-.698-1.003-1.433-2.007-2.131-3.047l-.552-.78c0-.037-.036-.037-.036-.074.036 0 .036.037.073.037.992.594 2.021 1.189 3.014 1.783 1.139.706 2.315 1.375 3.454 2.08.184.112.404.224.588.335.037 0 .037.037.037.074v5.834z" transform="translate(20 125) translate(0 9)"/>
                                <path fill="#62688F" d="M4.757 12.298c0-.037 0-.037 0 0 .368-.186.735-.334 1.103-.52l1.433-.669c.367-.186.735-.334 1.103-.52.514-.26 1.065-.483 1.58-.743.367-.149.735-.335 1.102-.483.258-.112.515-.223.772-.372.037 0 .037-.037.074-.037v7.579c-.037.038-.037 0-.074 0-.11-.074-.22-.111-.294-.185l-6.725-4.013c-.037-.037-.074-.037-.074-.037zM18.98 13.673c0 .037 0 .037-.037.074-2.132 3.047-4.263 6.056-6.395 9.103-.22.334-.44.631-.661.966v-.038-.074-5.684-.112c.477-.297.955-.594 1.433-.854l5.623-3.344c0-.037.037-.037.037-.037z" transform="translate(20 125) translate(0 9)"/>
                                <path fill="#62688F" d="M11.887 8.991v-.074V.409.334l7.056 11.815c.037.037.073.075.073.112-.147-.075-.294-.149-.477-.223-.184-.074-.368-.186-.552-.26-.11-.037-.22-.112-.367-.149-.184-.074-.405-.186-.588-.26-.11-.037-.22-.111-.331-.149l-.772-.334c-.147-.074-.257-.111-.404-.186-.184-.074-.367-.185-.551-.26-.11-.037-.22-.111-.331-.148l-.772-.335c-.147-.074-.257-.111-.404-.186-.184-.074-.367-.185-.551-.26-.11-.074-.258-.111-.368-.185l-.661-.335z" transform="translate(20 125) translate(0 9)"/>
                            </g>
                            <text fill="#000" font-family="TTHoves-Regular, TT Hoves" font-size="16" transform="translate(20 125)">
                                <tspan x="36" y="24">Ethereum</tspan>
                            </text>
                            <text fill="gray" font-family="TTHoves-Regular, TT Hoves" font-size="13" transform="translate(20 125)">
                                <tspan x="114" y="25">ETH</tspan>
                            </text>
                        </g>
                        <g>
                            <path fill="#F5B300" fill-rule="nonzero" d="M12 33c6.627 0 12-5.373 12-12S18.627 9 12 9 0 14.373 0 21s5.373 12 12 12zM8.338 15.056c.397.112.794.186 1.19.297.398.112.795.186 1.192.298.108.037.144 0 .18-.112.145-.632.29-1.226.433-1.858.037-.111.073-.148.18-.111.362.111.687.186 1.048.26.108.037.108.074.072.149-.145.594-.289 1.226-.433 1.82 0 .037 0 .074-.036.149.288.074.613.148.902.223.036 0 .072-.075.108-.112.109-.483.217-.929.361-1.412l.108-.445c0-.075.037-.112.109-.075.36.112.722.186 1.119.297.036 0 .036.038.072.038-.108.483-.217.928-.325 1.374-.036.186-.072.372-.144.558-.037.111 0 .148.108.185l1.191.558c.36.223.686.52.938.891.325.558.361 1.152.217 1.747-.108.408-.253.78-.541 1.077-.217.223-.506.372-.795.483-.036 0-.072.037-.144.037.144.112.289.186.433.297.433.335.722.744.866 1.264.073.408.037.854-.072 1.263-.144.52-.325.966-.65 1.375-.396.483-.902.743-1.48.817-.757.111-1.48.037-2.2-.074-.11-.037-.181 0-.218.111-.144.595-.288 1.226-.433 1.82-.036.15-.036.186-.216.112-.325-.074-.686-.186-1.01-.26-.11-.037-.11-.074-.073-.149.144-.631.289-1.263.47-1.857 0-.075.035-.112-.037-.149-.289-.074-.577-.148-.902-.223-.072.335-.18.669-.253 1.003-.072.335-.18.67-.253 1.004-.036.074-.036.111-.144.074-.36-.112-.722-.186-1.083-.26-.108-.037-.108-.075-.072-.149.144-.631.289-1.263.47-1.858 0-.037.035-.074.035-.148-.83-.223-1.66-.446-2.526-.669.072-.149.108-.26.18-.409.145-.334.29-.668.397-.966.036-.111.073-.111.18-.111.253.074.542.149.795.186.289.074.505-.075.541-.335.47-1.895.939-3.79 1.372-5.721.072-.298-.108-.632-.433-.743-.325-.112-.65-.186-.939-.26-.072 0-.108-.038-.072-.112.108-.409.217-.855.325-1.263-.144.111-.144.111-.108.074zm1.84 9.177c.037 0 .073.037.073.037.577.149 1.19.335 1.804.372.433.037.83.037 1.228-.112.685-.223.974-1.151.577-1.746-.18-.297-.47-.483-.758-.669-.65-.371-1.408-.52-2.13-.668-.108-.038-.108 0-.144.111-.072.372-.18.706-.253 1.077-.144.52-.252 1.04-.397 1.598zm3.032-3.79c.072 0 .253-.037.397-.074.686-.149 1.047-.966.686-1.598-.18-.334-.505-.557-.83-.705-.505-.223-1.01-.335-1.552-.483-.108-.038-.144 0-.18.111-.181.78-.361 1.523-.578 2.304-.036.074 0 .111.072.148.145.037.253.074.397.112.542.074 1.01.185 1.588.185z" transform="translate(20 61)"/>
                            <text fill="#000" font-family="TTHoves-Regular, TT Hoves" font-size="16" transform="translate(20 61)">
                                <tspan x="36" y="24">Bitcoin</tspan>
                            </text>
                            <text fill="gray" font-family="TTHoves-Regular, TT Hoves" font-size="13" transform="translate(20 61)">
                                <tspan x="94" y="25">BTC</tspan>
                            </text>
                        </g>
                        <g fill="gray" font-family="TTHoves-DemiBold, TT Hoves" font-size="14" font-weight="400">
                            <text transform="translate(20 19)">
                                <tspan x="0" y="13">ASSETS</tspan>
                            </text>
                        </g>
                    </g>
                    <g transform="translate(0 602)">
                        <mask id="prefix__n" fill="#fff">
                            <use xlink:href="#prefix__l"/>
                        </mask>
                        <use fill="#000" filter="url(#prefix__m)" xlink:href="#prefix__l"/>
                        <use fill="#FFF" xlink:href="#prefix__l"/>
                        <circle cx="120" cy="48" r="29" fill="#FFF" mask="url(#prefix__n)"/>
                        <g fill="#000" mask="url(#prefix__n)">
                            <path d="M135 48.375c0 .897-.728 1.625-1.625 1.625H110c-.886 0-1.618.658-1.734 1.513l-.016.237v12.5c0 .886.658 1.618 1.513 1.734L110 66h23.375c.897 0 1.625.728 1.625 1.625s-.728 1.625-1.625 1.625H110c-2.761 0-5-2.239-5-5v-12.5c0-2.761 2.239-5 5-5h23.375c.897 0 1.625.728 1.625 1.625zM115 55.5c1.38 0 2.5 1.12 2.5 2.5s-1.12 2.5-2.5 2.5-2.5-1.12-2.5-2.5 1.12-2.5 2.5-2.5zm7.5 0c1.38 0 2.5 1.12 2.5 2.5s-1.12 2.5-2.5 2.5-2.5-1.12-2.5-2.5 1.12-2.5 2.5-2.5zm7.5 0c1.38 0 2.5 1.12 2.5 2.5s-1.12 2.5-2.5 2.5-2.5-1.12-2.5-2.5 1.12-2.5 2.5-2.5zm0 1.25c.69 0 1.25.56 1.25 1.25s-.56 1.25-1.25 1.25-1.25-.56-1.25-1.25.56-1.25 1.25-1.25z"/>
                        </g>
                        <g transform="translate(260)">
                            <use fill="#000" filter="url(#prefix__p)" xlink:href="#prefix__o"/>
                            <use fill="#FFF" xlink:href="#prefix__o"/>
                        </g>
                    </g>
                </g>
            </g>
        </g>
    </g>
</svg>
