<svg xmlns="http://www.w3.org/2000/svg" fill="none" viewBox="0 0 224 224">
  <style>
    .illustration-border{fill:#1e5736}.illustration-fill{fill:#cff6e0}
  </style>
  <path d="m82.128 96.254 62.019.061s14.139-1.012 16.843 4.614 1.545 16.832 1.545 16.832l.394 66.279s1 9.33-2.657 12.029-5.121 3.843-13.988 3.727c-8.867-.115-71.652-.509-71.652-.509s-7.992.407-11.325-3.631-2.121-22.397-2.121-22.397l.628-68.728s.458-7.883 8.87-8.373 11.447.093 11.447.093z" class="illustration-fill"/>
  <path d="M85.121 96.389s1.519-11.655 14.196-11.655c12.678 0 11.832 11.783 11.832 11.783l-26.025-.128zm40.602-20.29s2.183-8.646 14.806-14.796c12.623-6.151 8.082 7.924 2.554 12.461 0 0-7.025 7.32-15.712 7.554 0 0-2.731-.92-1.651-5.22z" class="illustration-fill"/>
  <path d="m126.589 81.314 3.368 3.42s5.037 1.265 13.084-4.838 8.768-14.12 8.768-14.12l-2.711-3.369s.282 5.264-6.553 11.742c-6.836 6.474-15.956 7.169-15.956 7.169zM115.85 32.172s.141-6.913 10.735-8.18c10.598-1.269 12.902 10.296 12.902 10.296s1.628 7.157-5.848 12.408c0 0-4.676 2.11-8.508.608 0 0-6.205-1.466-8.746-6.557 0 0-1.375-4.515-.535-8.575M81.567 33.67l6.259.753s6.085 4.018 4.195 16.822c-1.891 12.802-6.9 12.312-6.9 12.312l-5.967-.702s-3.576-1.22-3.596-12.682c-.025-13.95 6.07-16.887 6.07-16.887" class="illustration-fill"/>
  <path d="M131.277 96.3c-7.341-.478-14.773-.183-22.127-.247-7.355-.064-14.453-.237-21.686-.25-5.974-.01-12.082-.724-18.032-.074-1.737.19-3.615.503-5.057 1.56s-2.272 2.904-2.852 4.514c-.654 1.819-.561 3.621-.606 5.514-.058 2.449-.125 4.899-.173 7.348-.125 6.135-.193 12.27-.215 18.404-.045 13.499 0 26.999-.215 40.498-.064 4.028-.128 8.056-.15 12.083-.02 3.318-.154 6.926 1.785 9.805 1.679 2.491 4.172 4.002 7.156 4.293 4.066.397 8.255.436 12.337.381.718-.009.69-1.027 0-1.095-3.48-.349-6.973-.474-10.469-.634s-6.188-1.021-8.053-4.079c-1.763-2.894-1.365-6.679-1.35-9.919.017-3.241.055-6.635.1-9.952.167-12.73.115-25.458.106-38.188-.01-10.275.31-20.553.291-30.828a10.7 10.7 0 0 1 2.042-6.343c1.092-1.508 2.948-1.979 4.71-2.235 5.416-.787 11.092-.077 16.536.003 7.512.113 15.02.023 22.529.045 7.508.023 15.629.263 23.393-.173.282-.016.279-.416 0-.435zm30.848 18.195c-.17 6.068.003 12.155.035 18.222.048 9.606-.099 19.224-.106 28.833-.006 8.088.007 16.182-.214 24.267-.049 1.819 0 3.842-.295 5.581-.616 3.631-2.715 6.096-6.323 6.929-4.339.999-9.111.659-13.536.72-9.755.135-19.507.042-29.262-.067-4.707-.051-9.421-.055-14.129.064-4.807.118-9.588.567-14.401.631-.048 0-.048.073 0 .073 17.66.599 35.379.666 53.055.529 4.509-.036 9.028-.045 13.533-.234 3.452-.144 7.653-.471 10.024-3.33 1.882-2.267 2.269-5.088 2.388-7.893.314-7.377.231-14.779.221-22.16-.013-9.932-.016-19.864-.353-29.79-.253-7.451-.025-14.921-.24-22.375-.006-.259-.397-.262-.407 0z" class="illustration-border"/>
  <path d="M162.545 134.802c.561-2.879.173-6.02.327-8.946.166-3.157.179-6.321.208-9.484s.234-6.599.077-9.878c-.122-2.53-.756-4.957-2.4-6.929-3.08-3.689-7.522-3.493-11.912-3.57-2.278-.038-4.554-.06-6.832-.093-1.859-.026-3.766-.182-5.615.064-.554.074-.81.932-.144 1.076 3.474.762 7.409.3 10.947.317 4.31.022 9.361-.65 12.501 2.91 2.138 2.424 2.337 5.626 2.346 8.71.01 3.083 0 5.926-.045 8.891-.045 2.863-.032 5.715-.029 8.572.004 2.856-.342 5.686.154 8.356.039.209.382.209.42 0zM131.598 96.19c-7.3-.698-14.796-.275-22.128-.352s-14.45-.294-21.686-.304c-5.973-.007-12.078-.71-18.032-.067-1.785.192-3.705.512-5.191 1.591-1.488 1.079-2.375 2.997-2.978 4.675-.663 1.838-.57 3.669-.618 5.584-.061 2.449-.128 4.899-.18 7.348-.131 6.135-.214 12.266-.24 18.404-.058 13.5-.02 26.999-.247 40.498-.067 4.028-.134 8.056-.16 12.084-.022 3.381-.144 7.05 1.827 9.983 1.753 2.606 4.348 4.172 7.463 4.476 4.057.397 8.268.461 12.338.295 1.086-.045 1.025-1.512 0-1.643-3.477-.445-6.97-.563-10.47-.723-3.259-.151-5.944-.948-7.742-3.894s-1.32-6.567-1.31-9.74.05-6.634.09-9.951c.156-12.731.099-25.458.076-38.189-.016-10.275.282-20.553.253-30.828-.006-2.228.664-4.386 2-6.208 1.054-1.441 2.862-1.87 4.547-2.117 5.39-.78 11.047-.064 16.466.016 7.514.116 15.02-.016 22.528-.01 3.794.004 7.585-.015 11.38-.034 3.996-.023 8.03.099 12.014-.244.42-.035.42-.611 0-.653z" class="illustration-border"/>
  <path d="M162.343 114.495c-.256 6.058-.032 12.161-.006 18.222.019 4.681-.193 9.356-.215 14.04-.023 4.931-.003 9.862-.013 14.796-.013 8.088-.01 16.182-.237 24.267-.048 1.716-.042 4.124-.292 5.504-.634 3.535-2.579 5.908-6.117 6.721-4.311.993-9.06.647-13.457.708-9.754.131-19.506.038-29.261-.071-4.704-.051-9.425-.077-14.129.067-4.81.148-9.582.785-14.401.903-.074 0-.074.109 0 .112 4.393.202 8.793.622 13.186.714 4.311.09 8.627-.076 12.937-.044 8.98.064 17.956.204 26.932.134 4.509-.035 9.027-.045 13.533-.234 3.535-.147 7.797-.499 10.232-3.416 1.939-2.321 2.353-5.216 2.471-8.101.308-7.377.218-14.78.199-22.16-.023-9.932 0-19.868-.471-29.79-.353-7.444.032-14.924-.285-22.375-.016-.39-.593-.39-.609 0z" class="illustration-border"/>
  <path d="M162.971 134.83c.628-2.113.317-4.716.381-6.916.071-2.459.247-4.899.273-7.364.025-2.465.041-5.014.086-7.521s.263-5.2-.029-7.742c-.445-3.881-2.669-7.512-6.473-8.895-2.987-1.085-6.759-.72-9.902-.772-2.006-.032-4.009-.057-6.015-.093-1.593-.028-3.227-.16-4.795.196-.826.189-.737 1.351 0 1.585 1.587.5 3.352.384 4.996.39 2.007.007 4.016.007 6.022.01 4.211.01 9.207-.689 12.28 2.786 2.077 2.347 2.269 5.494 2.288 8.485s.016 5.926-.032 8.891-.048 5.709.016 8.572c.032 1.373.01 2.75.022 4.127.013 1.377-.141 2.91.25 4.258.09.311.539.308.632 0zm-30.415-67.998c2.172-1.463 4.156-3.022 6.496-4.232 2.339-1.21 5.364-2.834 7.867-1.483 4.675 2.523-2.984 10.86-5.195 13.016-3.204 3.125-7.383 5.734-11.892 6.359-.974.134-2.208.195-3.057-.413-1.359-.974-.683-3.058-.234-4.358.788-2.28 2.349-4.14 3.64-6.135.083-.131-.077-.256-.199-.198-2.083 1.008-3.345 2.836-4.278 4.911-.794 1.774-1.756 4.29-.596 6.11 2.215 3.473 8.332.857 11.034-.507 4.166-2.1 7.659-5.41 10.341-9.192 2.102-2.965 5.631-8.744.596-10.858-2.461-1.034-5.095.106-7.31 1.23-2.653 1.345-5.534 3.083-7.588 5.267-.228.243.07.682.372.48z" class="illustration-border"/>
  <path d="m125.317 79.8-.029.026c-.154.13-.193.425-.077.592.689.99 1.506 1.902 2.323 2.785.654.705 1.407 1.848 2.423 1.931.279.023.426-.269.381-.502-.17-.923-1.349-1.608-1.987-2.245-.827-.823-1.576-1.713-2.371-2.561-.138-.148-.423-.199-.593-.077q-.034.023-.067.05zm22.599-18.635c.561 1.037 1.461 1.86 2.147 2.82.551.772 1.025 1.98 1.887 2.434.202.11.417-.029.433-.25.083-1.018-.878-2.084-1.484-2.833-.746-.925-1.605-1.966-2.711-2.446-.176-.077-.372.083-.272.272z" class="illustration-border"/>
  <path d="M151.444 69.323c.372-.473.484-1.06.602-1.645.125-.618.35-1.278.353-1.906.006-.771-1.099-.736-1.179 0-.065.602.003 1.16-.138 1.761-.119.5-.337.983-.334 1.499 0 .32.468.583.699.288zm-22.102 15.776c4.194.736 8.489-.98 11.857-3.394s6.781-5.731 8.925-9.343c.391-.656-.603-1.223-1.016-.593-4.503 6.859-10.992 12.789-19.657 12.53-.452-.013-.571.72-.109.8M92.02 48.498c-.521 2.517-.784 4.986-1.56 7.454-.727 2.325-1.647 5.408-4.038 6.542-5.226 2.475-5.967-8.517-6.043-11.489-.126-4.655.84-9.458 3.422-13.4.64-.973 1.529-2.202 2.74-2.51 1.657-.422 2.644 1.332 3.278 2.546 1.183 2.264 1.397 4.777 1.933 7.233.032.147.234.125.279 0 .797-2.306.304-4.681-.61-6.89-.71-1.717-1.765-3.916-3.771-4.349-4.262-.925-6.807 5.962-7.678 9-1.327 4.621-1.286 9.571-.298 14.252.727 3.455 2.531 8.78 7.152 6.747 2.308-1.015 3.333-3.49 4.086-5.732.961-2.869 1.843-6.272 1.718-9.324-.013-.33-.529-.435-.603-.08z" class="illustration-border"/>
  <path d="M87.922 34.122c-.654-.842-2.173-.647-3.157-.704-1.21-.07-2.679-.333-3.778.246-.333.176-.195.605.096.724 1.15.47 2.705.128 3.939.157.961.025 2.121.416 2.9-.228.06-.05.042-.14 0-.195m-2.75 29.239c-1.176-.336-2.425-.288-3.63-.496-.962-.163-1.984-.611-2.945-.371-.215.054-.273.33-.129.48.712.746 1.945.826 2.933.938 1.23.144 2.595.27 3.771-.173.177-.067.2-.323 0-.38z" class="illustration-border"/>
  <path d="M76.901 60.083c.023.589.44 1.14.757 1.614.346.518.637 1.133 1.08 1.568.554.545 1.288-.252.833-.832-.18-.23-.401-.378-.603-.583s-.365-.474-.522-.723c-.27-.433-.455-1.006-.85-1.336-.253-.214-.71-.09-.698.289zm4.461-26.765c-3.198 2.232-5.009 6.046-5.79 9.776-.924 4.402-.984 9.545.115 13.918.186.74 1.288.423 1.134-.313-1.676-8.021-1.275-16.83 5.035-22.74.333-.31-.11-.91-.497-.64zm4.541 62.895c.875-2.799 1.673-5.466 3.96-7.477 2.469-2.17 5.872-3.266 9.13-3.3 3.26-.036 6.07.835 8.31 3.035a10.3 10.3 0 0 1 2.446 3.73c.496 1.329.352 2.74.781 4.047.148.451.859.637 1.1.144 1.301-2.69-.936-6.577-2.737-8.514-2.349-2.526-5.736-3.65-9.127-3.75-7.236-.21-13.834 4.464-14.933 11.79-.106.695.859 1.002 1.076.298zm32.392-69.193c-3.329 3.289-4.201 8.453-2.797 12.84 1.375 4.294 4.932 7.143 9.466 7.444 9.733.647 16.754-12.526 10.63-20.236-3.669-4.62-10.617-4.793-15.2-1.626-.224.157-.096.576.199.47 4.852-1.706 12.082-1.796 14.664 3.676 2.414 5.11.388 11.697-4.255 14.822-4.202 2.827-10.207 2.049-13.174-2.206-3.163-4.54-2.071-10.56.785-14.937.128-.199-.157-.407-.321-.247z" class="illustration-border"/>
  <path d="M124.314 47.375c5.213 3.262 11.789-1.08 14.299-5.741 2.509-4.662 2.845-12.93-3.086-14.892-.257-.087-.417.253-.25.432 3.553 3.88 4.611 9.478 2.012 14.226-1.141 2.084-2.826 3.79-4.951 4.873-2.657 1.354 2.662 1.034-7.922 0.724 -0.215-.023-.259.282-.102.38z" class="illustration-border"/>
  <path d="M120.801 45.569c.83 1.053 2.442 1.505 3.666 1.988 1.314.522 2.619 1.063 4.038.73.446-.106.295-.698-.099-.743-1.676-.189-3.089-.646-4.628-1.31-.932-.403-1.813-.97-2.842-.995-.183-.003-.231.205-.135.327zm12.457-19.532c.221.756.875 1.13 1.483 1.585.936.701 1.875 1.393 2.804 2.1.673.51 1.404-.675.677-1.152-2.333-1.527-4.285-3.861-7.044-4.7-.599-.183-.82.605-.394.931 2.16 1.652 4.909 2.6 6.627 4.816l.945-.945c-1.166-.992-3.349-3.128-5.018-2.776-.061.013-.096.084-.08.141" class="illustration-border"/>
  <g class="illustration-border" clip-path="url(#clip0_2894_32875)">
    <path d="M104.919 129.476c-10.292.509-15.672 12.757-14.632 21.797 1.096 9.544 8.82 16.849 18.268 18.059 9.629 1.232 18.506-4.893 21.625-13.95 3.144-9.124-1.093-19.808-9.428-24.598-5.12-2.941-11.193-2.996-16.749-1.283-4.412 1.363-10.391 4.431-11.304 9.455-.105.582.677.996 1.002.423 2.195-3.88 5.43-6.403 9.634-7.878 4.352-1.524 9.624-2.222 14.05-.651 8.149 2.896 13.583 12.49 12.255 20.938s-8.805 16.022-17.727 16.37-17.21-5.207-19.63-13.613c-1.361-4.726-.9-9.95 1.173-14.404 2.179-4.679 6.494-8.834 11.515-10.286.206-.059.176-.395-.052-.384zm26.38 2.86c1.769-.793 3.26-2.162 4.776-3.347 1.653-1.29 3.32-2.562 4.958-3.866s3.113-2.515 4.683-3.755c1.658-1.313 3.664-2.551 5.06-4.142a.275.275 0 0 0-.331-.431c-1.892.948-3.592 2.581-5.272 3.866s-3.23 2.44-4.835 3.672c-1.608 1.232-3.183 2.509-4.769 3.769s-3.283 2.406-4.501 4.003c-.114.15.097.292.231.231m29.228-21.736c1.214-1.327 2.68-2.092 4.174-3.032.183-.114.069-.423-.151-.359-1.699.506-3.096 1.919-4.125 3.31-.045.058.052.134.102.078zm11.393-8.623c3.659-2.993 7.957-5.14 11.668-8.053.315-.248-.086-.701-.411-.532-4.201 2.192-7.615 5.639-11.279 8.565-.014.011.006.031.019.02zm-36.218 46.273c4.488.175 9.006-.156 13.494-.315 4.482-.158 9.036-.155 13.493-.653.376-.042.395-.587 0-.601-4.479-.148-9.017.211-13.493.406-4.493.195-9.028.22-13.494.745-.261.031-.275.406 0 .418m37.003-.61c2.573.167 5.3.568 7.859.148.248-.042.251-.462 0-.504-2.559-.42-5.286-.019-7.859.148-.134.008-.134.2 0 .208m18.637.19c1.937.592 4.58 1.393 6.533.498.25-.114.086-.437-.125-.462-.977-.117-1.998.133-2.986.15-1.168.017-2.248-.014-3.399-.261-.05-.012-.07.061-.02.075zm-61.028 16.047c6.309 4.342 13.073 7.983 18.982 12.907.075.064.186-.042.111-.111-5.581-5.21-11.743-10.326-19.074-12.843-.031-.012-.044.03-.019.047m33.215 25.391c1.842 2 3.701 3.956 5.707 5.794 1.83 1.678 3.678 3.831 5.889 4.985.329.172.76-.189.534-.534-1.391-2.162-3.775-3.869-5.669-5.589-1.895-1.719-4.051-3.424-6.163-5.043-.231-.178-.481.192-.3.39zm-54.087-16.228c-.651.865-.745 1.994-.949 3.037-.233 1.199-.406 2.409-.581 3.619-.351 2.412-.684 4.824-1.021 7.238-.671 4.815-1.422 9.708-1.219 14.576.011.237.354.234.365 0 .247-5.049 1.446-10.067 2.15-15.071.326-2.311.643-4.626.982-6.937.159-1.091.329-2.178.476-3.269.139-1.032.437-2.125.156-3.146-.047-.175-.262-.175-.359-.047m-4.192 31.085c-.765 2.272-1.238 4.556-1.641 6.918-.351 2.05-.849 4.278-.478 6.348.089.495.765.395.904 0 .712-2.009.656-4.334.873-6.437.234-2.267.537-4.506.701-6.779.017-.214-.295-.234-.359-.047zm-19.172-36.203a179 179 0 0 0-19.931 17.455c-.112.111.038.325.172.225 7.08-5.235 13.86-11.024 20.09-17.249.211-.212-.075-.623-.331-.431M60.585 191.21c-.732.692-1.444 1.418-2.2 2.083s-1.653 1.196-2.44 1.844c-1.23 1.01-2.919 2.248-3.48 3.778-.09.245.188.52.433.434 1.541-.548 2.782-2.225 3.812-3.447.595-.709 1.07-1.518 1.672-2.222.712-.832 1.535-1.591 2.295-2.378.058-.062-.03-.151-.092-.092m20.694-41.687c-3.436-.817-7.315-.514-10.823-.367q-2.746.113-5.49.315c-1.627.116-3.357.066-4.854.779-.312.147-.211.631.095.714 1.616.443 3.383.092 5.035 0a193 193 0 0 1 5.49-.217c3.463-.089 7.138.192 10.55-.445.397-.075.375-.689 0-.779zM52.52 150.77c-2.465-.239-4.891-.47-7.367-.498q-1.774-.022-3.548-.039c-1.12-.011-2.317-.128-3.363.314-.32.134-.32.52 0 .654 1.049.442 2.245.325 3.363.314q1.774-.017 3.548-.039c2.476-.027 4.904-.258 7.367-.498a.104.104 0 0 0 0-.208m2.757-59.405c2.863 3.53 5.817 6.976 8.727 10.464a328 328 0 0 1 4.288 5.28c.65.818 1.305 1.633 1.95 2.453.645.821 1.243 1.8 2.106 2.431.27.198.687-.133.576-.442-.679-1.872-2.457-3.616-3.673-5.185a206 206 0 0 0-4.2-5.216c-2.955-3.568-6.027-6.987-9.387-10.175-.262-.247-.607.12-.387.387zm21.3 26.759c1.43 2.448 2.99 5.135 5.508 6.604.176.103.44-.07.365-.281-1.002-2.751-3.341-4.754-5.503-6.609-.195-.167-.51.041-.37.283zm9.148 10.888c.726 1.332 1.352 2.931 2.5 3.961.53.475 1.317-.117.983-.76-.712-1.368-2.106-2.372-3.216-3.41-.142-.131-.36.033-.267.206zm28.622-49.956c-.412 1.444-1.085 2.787-1.48 4.247s-.637 3.105-.868 4.668a60 60 0 0 0-.487 4.161c-.108 1.394-.339 2.946.061 4.36.148.517.807.444.982 0 .476-1.214.465-2.549.59-3.831.145-1.491.298-2.982.468-4.47.158-1.397.395-2.787.542-4.184.173-1.619.078-3.31.345-4.907.017-.097-.122-.139-.15-.041zm-2.74 22.756c-.164 1.325-.612 2.529-.69 3.875-.07 1.18.011 2.29.236 3.444.07.353.562.236.59-.081.106-1.212.117-2.406.089-3.624-.028-1.219-.278-2.437-.172-3.616.002-.034-.048-.034-.053 0z"/>
    <path d="M110.508 123.309c-.061 1.066-.509 2.081-.626 3.146-.106.974-.22 1.914.025 2.877.164.645 1.143.645 1.307 0 .245-.966.131-1.9.026-2.877-.115-1.065-.565-2.08-.626-3.146-.003-.066-.101-.066-.106 0m10.633 16.651c-1.33-.612-2.123.373-2.782 1.449-.991.949-1.809 2.181-2.635 3.252l-2.866 3.703-3.388 4.381c-.398.283-.79.573-1.185.859-.401-.142-.657-.806-.958-1.199-1.655-2.172-3.705-3.98-5.82-5.691-.022-.017-.041-.028-.064-.042.05-.587-.723-1.14-1.157-.578-.932 1.201-1.922 2.439-2.423 3.889-.037.102.005.23.08.306 1.942 1.863 3.817 3.791 5.759 5.655 1.238 1.19 2.799 3.112 4.652 3.293 2.067.2 3.339-2 4.435-3.388 1.739-2.2 3.444-4.323 5.336-6.395.868-.951 1.75-1.911 2.573-2.901.841-1.01 1.923-2.017 2.618-3.127.98-1.563-.87-2.859-2.172-3.46zm-13.769 18.037a6 6 0 0 1-.604-.373q.296.197.604.373"/>
  </g>
  <defs>
    <clipPath id="clip0_2894_32875">
      <path d="M38 79h160v144.939H38z"/>
    </clipPath>
  </defs>
</svg>
