<svg viewBox="0 0 24 24" fill="none">
  <path d="M12 24c6.628 0 12-5.372 12-12 0-6.627-5.372-12-12-12C5.373 0 0 5.373 0 12c0 6.628 5.373 12 12 12Z" fill="#A6A8A9"/>
  <path d="M20.5 11.499a9 9 0 0 1-9 8.999 9 9 0 1 1 0-17.998 9 9 0 0 1 9 8.999Z" fill="#fff" stroke="#A6A8A9"/>
  <path d="m12.734 9.984 1.348-4.587.001-.005a.772.772 0 0 0-.744-.98m-.605 5.572.606-5.572m-.606 5.572.623-.19.889-.27-.264.89-.324 1.097-.077.262-.262.076-1.262.367-.72 2.43h4.617a.771.771 0 0 1 .739.987l-3.96-5.649Zm.605-5.572h-2.045a.86.86 0 0 0-.827.625l-1.84 6.215-1.254.38-.254.078-.078.254-.334 1.077-.278.9.902-.274.62-.189m5.388-9.066-5.387 9.066m7.45 4.361h.002a.864.864 0 0 0 .83-.622l.459-1.583-1.29 1.705v.5Zm0 0H6.66l.19-.642 1.102-3.719m7.45 4.361-7.45-4.36M6.5 4.016A9.002 9.002 0 0 1 18.985 16.5a9.002 9.002 0 0 1-15.8-8.444A9 9 0 0 1 6.5 4.016Z" fill="#A6A8A9" stroke="#A6A8A9"/>
</svg>
