<svg viewBox="0 0 24 24" fill="none">
  <path d="M12 24c6.628 0 12.001-5.372 12.001-12 0-6.627-5.373-12-12-12C5.373 0 0 5.373 0 12c0 6.628 5.372 12 12 12Z" fill="#E75F5F"/>
  <path d="m9.83 8.71-2.205 3.752-.024.042.487.305a8253.427 8253.427 0 0 0 3.657 2.28l.272.17.258-.16a7188.988 7188.988 0 0 0 4.15-2.592c.004-.004-.28-.496-.632-1.093l-2.205-3.75A614.421 614.421 0 0 0 12.016 5c-.003 0-.986 1.67-2.186 3.71Z" fill="#fff"/>
  <path d="M7.61 13.402c0 .006 4.387 6.285 4.4 6.298.008.007.535-.74 2.215-3.144a1232.74 1232.74 0 0 0 2.202-3.157 448.5 448.5 0 0 0-2.204 1.372c-1.21.756-2.207 1.371-2.213 1.37a3626.33 3626.33 0 0 1-4.367-2.723c-.018-.011-.033-.019-.033-.016Z" fill="#fff"/>
</svg>
