<svg height="24" viewBox="0 0 30 24" width="30" xmlns="http://www.w3.org/2000/svg"><path d="m0 24v-24h30v24z" fill="#09207b"/><path d="m10 0h10v24h-10z" fill="#f7cb4d"/><path d="m19.33 8.45a4 4 0 0 0 -2.24 1.15c-.07.08.36-.09.4-.1.31-.09-.1.45-.12.6-.33 1.03-.6 2.03-.71 3.22q0 .13-.05.14l-1.08-.16v-3.83c.25 0 .65.06.87.14a7 7 0 0 1 -1.4-2.59c-.33.91-.67 1.86-1.4 2.59.22-.08.62-.15.87-.14v3.83l-1.08.16q-.05-.01-.05-.14c-.1-1.2-.38-2.2-.7-3.23-.03-.14-.44-.68-.12-.58.03 0 .46.17.39.1a4 4 0 0 0 -2.23-1.16q-.14-.02-.05.1a11 11 0 0 1 1.98 5.98c.42 0 1.44-.25 1.86-.25v2.7h1.06v-2.7c.42 0 1.44.25 1.86.25 0-2.34.9-4.31 1.98-5.98q.09-.12-.05-.1"/></svg>