<svg fill="none" viewBox="0 0 24 24">
  <g clip-path="url(#prefix__a)">
    <path fill="#F5AC37" d="M12 24c6.627 0 12-5.373 12-12S18.627 0 12 0 0 5.373 0 12s5.373 12 12 12Z"/>
    <path fill="#FEFEFD" d="M16.236 12.756c.087 0 .128 0 .134-.114.033-.414.033-.83 0-1.244 0-.081-.04-.114-.127-.114H8.145c-.1 0-.127.033-.127.127v1.191c0 .154 0 .154.16.154h8.058Zm-.32-2.864a.131.131 0 0 0 0-.094 2.65 2.65 0 0 0-.242-.421 3.414 3.414 0 0 0-.496-.623 1.639 1.639 0 0 0-.308-.301 4.81 4.81 0 0 0-2.007-1.017 4.992 4.992 0 0 0-1.138-.12H8.13c-.1 0-.114.04-.114.126v2.376c0 .1 0 .127.128.127h7.722s.067-.013.08-.053h-.031Zm0 4.256a1.566 1.566 0 0 0-.343 0H8.152c-.1 0-.134 0-.134.134v2.322c0 .107 0 .134.134.134h3.426c.164.013.328.001.489-.033a5.104 5.104 0 0 0 1.452-.321c.17-.059.334-.136.488-.228h.047a4.347 4.347 0 0 0 1.867-1.88s.047-.102-.005-.128Zm-9.243 3.795v-3.701c0-.087 0-.1-.107-.1H5.114c-.08 0-.114 0-.114-.107v-1.272h1.553c.086 0 .12 0 .12-.114v-1.258c0-.08 0-.1-.107-.1H5.114c-.08 0-.114 0-.114-.107v-1.178c0-.073 0-.093.107-.093h1.439c.1 0 .127 0 .127-.127V6.178c0-.107 0-.134.134-.134h5.019c.364.015.726.055 1.084.121.738.136 1.447.4 2.095.776a5.9 5.9 0 0 1 1.178.91c.265.276.503.573.716.89.21.322.385.665.522 1.024a.174.174 0 0 0 .2.141h1.198c.154 0 .154 0 .16.148v1.097c0 .107-.04.134-.147.134h-.924c-.093 0-.12 0-.113.12a6.84 6.84 0 0 1 0 1.225c0 .114 0 .127.127.127h1.057c.047.06 0 .12 0 .181.007.078.007.157 0 .234v.81c0 .114-.033.148-.134.148H17.58a.167.167 0 0 0-.194.127 5.352 5.352 0 0 1-1.405 2.048 8.053 8.053 0 0 1-.716.575c-.268.154-.529.315-.804.442a7.234 7.234 0 0 1-1.58.502 8.24 8.24 0 0 1-1.565.127H6.67v-.007l.002-.001Z"/>
  </g>
  <defs>
    <clipPath id="prefix__a">
      <path fill="#fff" d="M0 0h24v24H0z"/>
    </clipPath>
  </defs>
</svg>
