<svg fill="none" viewBox="0 0 24 24">
  <g clip-path="url(#prefix__a)">
    <path fill="#ED2B88" d="M12 24c6.627 0 12-5.373 12-12S18.627 0 12 0 0 5.373 0 12s5.373 12 12 12Z"/>
    <path fill="#fff" d="M9.3 5.056c-.196-.028-.205-.037-.112-.047.177-.028.589.01.878.075.673.159 1.28.57 1.925 1.29l.168.195.243-.037c1.037-.168 2.102-.037 2.99.374.242.112.625.336.672.392.018.019.046.14.065.262.066.439.037.766-.103 1.018-.074.14-.074.178-.028.299.038.093.15.159.252.159.225 0 .458-.355.57-.85l.047-.197.084.094c.477.532.85 1.27.906 1.794l.019.14-.084-.122a1.578 1.578 0 0 0-.449-.476c-.317-.215-.653-.28-1.54-.327-.804-.047-1.262-.112-1.71-.262-.767-.252-1.159-.579-2.065-1.784-.402-.533-.654-.822-.906-1.065-.551-.533-1.103-.813-1.822-.925Z"/>
    <path fill="#fff" d="M16.26 6.243c.018-.355.065-.589.168-.804a.643.643 0 0 1 .084-.159c.01 0-.01.066-.037.14-.075.206-.084.496-.038.823.066.42.094.476.542.934.206.215.449.486.542.598l.159.205-.159-.15c-.196-.186-.645-.541-.747-.588-.066-.037-.075-.037-.122.01-.037.037-.047.093-.047.364-.009.42-.065.682-.205.953-.075.14-.084.112-.019-.047.047-.121.056-.178.056-.58 0-.812-.093-1.008-.663-1.335a6.997 6.997 0 0 0-.523-.271 2.06 2.06 0 0 1-.252-.122c.018-.018.57.14.784.234.327.13.383.14.42.13.029-.027.047-.102.057-.335ZM9.683 7.634c-.392-.541-.644-1.382-.588-2.008l.018-.196.094.018c.168.028.457.14.598.225.373.224.541.532.7 1.298.047.224.112.486.14.57.047.14.225.467.374.673.103.15.037.224-.196.205-.355-.037-.832-.364-1.14-.785Zm6.1 4.064c-1.85-.747-2.503-1.392-2.503-2.485 0-.159.01-.29.01-.29.008 0 .074.057.158.122.374.3.794.43 1.962.598.682.103 1.074.178 1.43.299 1.13.374 1.83 1.14 1.998 2.177.047.299.019.868-.056 1.167-.065.234-.252.664-.299.673-.01 0-.028-.047-.028-.121-.018-.393-.215-.766-.542-1.056-.392-.336-.896-.589-2.13-1.084Zm-1.307.309a2.198 2.198 0 0 0-.094-.393l-.047-.14.084.103c.122.14.215.308.3.542.065.177.065.233.065.523 0 .28-.01.346-.066.504a1.69 1.69 0 0 1-.392.626c-.336.346-.775.533-1.401.617-.112.01-.43.037-.71.056-.7.037-1.168.112-1.588.261-.056.02-.113.038-.122.028-.019-.018.271-.186.505-.299.327-.158.663-.242 1.401-.373.364-.056.738-.131.831-.168.925-.29 1.383-1.01 1.233-1.887Z"/>
    <path fill="#fff" d="M15.326 13.51c-.243-.532-.3-1.036-.168-1.513.018-.046.037-.093.056-.093.018 0 .074.028.13.065.112.075.346.206.944.533.757.41 1.186.728 1.485 1.093.262.317.42.682.495 1.13.047.252.02.86-.046 1.112-.206.794-.673 1.43-1.355 1.793a1.302 1.302 0 0 1-.196.094c-.01 0 .028-.094.084-.206.224-.476.252-.934.084-1.448-.103-.317-.318-.7-.747-1.345-.514-.747-.636-.944-.766-1.214Zm-6.96 2.86c.691-.58 1.541-.991 2.326-1.122.336-.056.897-.037 1.205.047.495.13.944.411 1.177.757.224.336.327.625.43 1.27.037.252.084.514.093.57.075.336.225.598.411.738.29.215.795.224 1.29.037.084-.028.158-.056.158-.046.02.018-.233.187-.401.27-.234.122-.42.16-.673.16-.448 0-.831-.234-1.14-.701a5.26 5.26 0 0 1-.308-.617c-.327-.756-.495-.98-.878-1.233-.336-.215-.766-.262-1.093-.103-.43.206-.542.757-.243 1.093a.95.95 0 0 0 .532.28.57.57 0 0 0 .645-.57c0-.223-.084-.354-.308-.457-.3-.13-.626.019-.617.308 0 .122.056.196.178.253.075.037.075.037.018.027-.27-.056-.336-.392-.121-.607.262-.261.813-.15 1 .215.074.15.084.448.018.635-.159.411-.607.626-1.065.505-.308-.084-.439-.168-.812-.551-.654-.673-.907-.804-1.84-.944l-.178-.028.196-.187Z"/>
    <path fill="#fff" fill-rule="evenodd" d="M5.348 3.452c2.177 2.644 3.634 4.64 3.803 4.864.14.187.084.365-.15.496a1.43 1.43 0 0 1-.532.15.674.674 0 0 1-.449-.197c-.084-.084-.448-.617-1.27-1.897a121.23 121.23 0 0 0-1.168-1.803c-.037-.018-.037-.018 1.102 2.018.72 1.28.953 1.738.953 1.794 0 .121-.037.187-.187.355-.252.28-.364.598-.448 1.261-.093.738-.346 1.261-1.065 2.149-.42.523-.486.616-.589.831-.13.262-.168.411-.186.748-.02.355.018.579.121.915.093.3.196.495.448.878.215.337.346.589.346.682 0 .075.019.075.355 0 .803-.187 1.467-.504 1.831-.897.224-.242.28-.373.28-.71 0-.215-.009-.261-.065-.392-.093-.205-.271-.374-.654-.635-.504-.346-.72-.626-.775-1-.047-.317.009-.532.29-1.12.289-.608.364-.86.41-1.477.028-.392.075-.551.187-.673.122-.13.224-.177.514-.214.476-.066.785-.187 1.028-.42a.878.878 0 0 0 .317-.683l.01-.215-.122-.13c-.439-.505-4.624-5.08-4.652-5.08-.01 0 .14.178.317.402Zm.972 11.17a.386.386 0 0 0-.121-.514c-.16-.102-.402-.056-.402.085 0 .037.018.074.075.093.084.047.093.093.028.196-.066.103-.066.196.018.262.131.103.309.046.402-.122Zm3.784-4.914c-.225.066-.44.309-.505.552-.037.15-.019.42.047.504.102.13.196.168.457.168.514 0 .953-.224 1-.495.047-.224-.15-.532-.42-.673a.95.95 0 0 0-.58-.056Zm.597.467c.075-.112.047-.233-.093-.317-.252-.159-.635-.028-.635.215 0 .121.196.252.383.252.121 0 .29-.075.345-.15Z" clip-rule="evenodd"/>
  </g>
  <defs>
    <clipPath id="prefix__a">
      <path fill="#fff" d="M0 0h24v24H0z"/>
    </clipPath>
  </defs>
</svg>
