<?xml version="1.0" encoding="utf-8"?>
<!-- Generator: Adobe Illustrator 26.3.1, SVG Export Plug-In . SVG Version: 6.00 Build 0)  -->
<svg version="1.1" id="Layer_1" xmlns="http://www.w3.org/2000/svg" xmlns:xlink="http://www.w3.org/1999/xlink" x="0px" y="0px"
	 viewBox="0 0 300 300" style="enable-background:new 0 0 300 300;" xml:space="preserve">
<style type="text/css">
	.st0{fill:#FFFFFF;}
	.st1{fill:url(#SVGID_1_);}
	.st2{fill:#EFC700;}
	.st3{fill:#423F4C;}
	.st4{opacity:0.51;fill:#383642;enable-background:new    ;}
	.st5{font-family:'MyriadPro-Regular';}
	.st6{font-size:2.6337px;}
	.st7{fill:#79777F;}
	.st8{fill:#8F8C99;}
	.st9{fill:#2B293A;}
	.st10{fill:#595563;}
	.st11{fill:#FEFEFE;}
	.st12{fill:#643747;}
	.st13{fill:#F38181;}
	.st14{fill:#DD6B6B;}
	.st15{clip-path:url(#SVGID_00000087388279783325613970000000390661141298324636_);}
	.st16{fill:url(#SVGID_00000098192503171193936160000016062213958282161572_);}
	.st17{opacity:0.3;fill:url(#SVGID_00000172403023850719295340000011742685152056644488_);enable-background:new    ;}
	.st18{fill:#FFFBDE;}
	.st19{display:none;}
	.st20{display:inline;fill:#FFFBDE;}
	.st21{display:inline;}
	.st22{opacity:0.85;}
	.st23{clip-path:url(#SVGID_00000080909822171703444930000002628551261886745529_);}
	.st24{fill:url(#SVGID_00000026134891054855307650000008356928436617978499_);}
	.st25{opacity:0.3;fill:url(#SVGID_00000160906470336198737210000010497856101276021941_);enable-background:new    ;}
</style>
<g>
	<g>
		<path class="st0" d="M275.3,68.7c-0.9-6.6-2.1-12.8-3.6-18.5c-4.1-14.9-10.8-26.9-19.7-35.7l-1.4-1.4l-1.8-0.5
			c-5.4-1.5-16.6-1.2-30.4,4.5C197.5,6.5,174.2,0.8,150.6,0.8s-47.1,5.7-67.9,16.4c-13.8-5.7-25-6.2-30.4-4.5l-2,0.5L49,14.5
			c-9,8.7-15.7,20.8-19.7,35.7c-1.5,5.7-2.9,11.9-3.6,18.5C9.8,92.8,1.4,120.9,1.4,149.8c0,20.2,3.9,39.6,11.7,57.9
			c7.5,17.8,18.2,33.7,31.9,47.4c13.7,13.7,29.6,24.4,47.4,31.9c18.4,7.8,37.9,11.7,57.9,11.7s39.6-3.9,57.9-11.7
			c17.8-7.5,33.7-18.2,47.4-31.9c13.7-13.7,24.4-29.6,31.9-47.4c7.8-18.4,11.7-37.9,11.7-57.9C299.4,120.9,291.1,92.8,275.3,68.7z"
			/>
		
			<linearGradient id="SVGID_1_" gradientUnits="userSpaceOnUse" x1="6.6677" y1="151.4756" x2="294.1323" y2="151.4756" gradientTransform="matrix(1 0 0 -1 0 301.2756)">
			<stop  offset="0" style="stop-color:#FFC900"/>
			<stop  offset="1" style="stop-color:#FF9700"/>
		</linearGradient>
		<circle class="st1" cx="150.4" cy="149.8" r="143.7"/>
		<path class="st2" d="M294.4,149.6c0-34.9-12.3-66.8-33.1-91.7l-24.1-14.9l-16.4,17.3L62.5,240.9l73.9,51.8
			c4.7,0.5,9.5,0.8,14.3,0.8C230,293.4,294.4,229,294.4,149.6z"/>
	</g>
	<g>
		<path class="st3" d="M252.1,225.2l37.9-42.7l-16-3.3l15.5-7.4L265.8,156l23.9-4.4l-29.6-26.5c0,0,1.7,16.4-2.1,51.5
			C254.2,212,252.1,225.2,252.1,225.2z"/>
		<path d="M251.7,227.2c-0.2,0-0.3-0.2-0.6-0.2c-0.9-0.5-1.4-1.4-1.2-2.3c0-0.2,2.1-13.7,5.9-48.3c3.8-34.5,2.3-50.9,2.1-51.2
			c-0.2-0.9,0.3-1.7,1.2-2.1c0.8-0.5,1.7-0.3,2.4,0.3l29.8,26.6c0.6,0.6,0.9,1.4,0.6,2.1c-0.2,0.8-0.9,1.4-1.7,1.5l-18.8,3.3
			l19.4,12.9c0.6,0.5,1.1,1.2,0.9,2c0,0.8-0.5,1.5-1.2,1.8l-9.9,4.7l9.8,2.1c0.8,0.2,1.4,0.8,1.5,1.4c0.3,0.8,0,1.5-0.5,2.1
			l-37.8,42.6C253.2,227.2,252.4,227.3,251.7,227.2z M262.7,130.2c0.3,7.4,0.2,22.6-2.4,46.8c-2.3,20.9-3.9,34.3-5,41.5l30.9-34.8
			l-12.3-2.6c-0.9-0.2-1.5-0.9-1.7-1.8s0.3-1.8,1.2-2.1l12.2-5.9l-20.8-13.7c-0.8-0.5-1.1-1.4-0.9-2.3c0.2-0.9,0.9-1.5,1.7-1.7
			l19.7-3.5L262.7,130.2z"/>
	</g>
	<g>
		<path class="st3" d="M50.8,225.2l-37.9-42.7l16-3.3l-15.5-7.4L37.1,156l-23.9-4.4l29.6-26.5c0,0-1.7,16.4,2.1,51.5
			C48.7,211.7,50.8,225.2,50.8,225.2z"/>
		<path d="M49.3,226.6l-37.9-42.7c-0.5-0.6-0.6-1.4-0.5-2.1c0.3-0.8,0.9-1.2,1.5-1.4l9.8-2.1l-9.9-4.7c-0.8-0.3-1.2-1.1-1.2-1.8
			c0-0.8,0.3-1.5,0.9-2l19.4-12.9l-18.8-3.3c-0.8-0.2-1.5-0.8-1.7-1.5c-0.2-0.8,0-1.7,0.6-2.1l29.6-26.5c0.6-0.6,1.7-0.8,2.4-0.3
			c0.8,0.5,1.2,1.2,1.2,2.1c0,0.2-1.7,16.7,2.1,51.2c3.8,34.6,5.9,48.2,5.9,48.3c0.2,0.9-0.3,1.8-1.2,2.3c-0.2,0.2-0.3,0.2-0.6,0.2
			C50.5,227.3,49.7,227.2,49.3,226.6z M17.8,150.3l19.7,3.5c0.9,0.2,1.5,0.8,1.7,1.7s-0.2,1.7-0.9,2.3l-20.8,13.7l12.2,5.9
			c0.8,0.5,1.4,1.2,1.2,2.1c-0.2,0.9-0.8,1.7-1.7,1.8l-12.3,2.6l30.9,34.8c-1.1-7.2-2.7-20.5-5-41.5c-2.7-24.2-2.7-39.4-2.4-46.8
			L17.8,150.3z"/>
	</g>
	<text transform="matrix(0.6978 -0.7163 0.7163 0.6978 272.9247 197.4038)" class="st4 st5 st6">CatCoinBSC</text>
	<path class="st7" d="M268.4,168.6c-0.6,28.4-9.9,50.1-27.8,64.6c-19.4,15.7-48.6,23.3-89.1,23.3s-69.5-7.7-89.1-23.3
		c-17.9-14.4-27.4-36.3-27.8-64.6c-0.2-3.9,0-8.1,0.3-12.3c0-0.6,0.2-1.2,0.2-1.8c0.2-2,0.5-4.1,0.6-5.9c0.5-4.1,1.2-8,2-11.6
		c7.2-34.3,25.6-57.9,54.9-70.6c0,0-3.3-0.6-9.5,1.5c-3.3-24.7-16.6-41.1-22.9-47.9c3,0,7.5,0.5,13.5,2.3
		c10.2,3.2,26.5,11.3,47.6,31.3c-6,1.2-9.5,6.5-9.5,6.5c3.8-0.9,7.5-1.7,11.4-2.3c4.1-0.6,8.3-1.2,12.5-1.5c5.1-0.5,10.5-0.6,16-0.6
		s10.8,0.2,16,0.6c4.2,0.3,8.4,0.9,12.5,1.5c3.9,0.6,7.8,1.4,11.4,2.3c0,0-3.5-5.3-9.5-6.5c20.9-20,37.3-28.1,47.6-31.3
		c5.9-1.8,10.4-2.3,13.5-2.3c-6.5,6.8-19.6,23-22.9,47.9c-6.2-2.1-9.5-1.5-9.5-1.5c29.3,12.6,47.7,36.3,54.9,70.6
		c0.8,3.8,1.5,7.5,2,11.6c0.3,2,0.5,3.9,0.6,5.9c0,0.6,0.2,1.2,0.2,1.8C268.4,160.5,268.5,164.7,268.4,168.6z"/>
	<path class="st8" d="M241.9,23.2c0,0-32.4,4.2-54.6,25.3l14.1-14l20-11.3l23.3-6L241.9,23.2z"/>
	<path class="st3" d="M135.3,53.9L135,82.2c0,0-10.4-6.9-12.3-26.8C126.8,54.8,131,54.2,135.3,53.9z"/>
	<path class="st3" d="M55.6,148.7c0,0-11-0.5-22.3-0.6c0.5-4.1,1.2-8,2-11.7C41,137.8,49.1,140.9,55.6,148.7z"/>
	<path class="st3" d="M55.6,162.3c0,0-11.7,4.4-23.3,6.5c-0.2-4.1,0-8.3,0.3-12.6c0-0.6,0.2-1.2,0.2-2
		C40.2,153.9,49.7,155.1,55.6,162.3z"/>
	<path class="st3" d="M167.6,53.9l0.3,28.3c0,0,10.4-6.9,12.3-26.8C176.1,54.8,171.9,54.2,167.6,53.9z"/>
	<path class="st3" d="M152.1,122.3c0,0-11.3-39.3-9.8-68.3c0,0,6.8-3.5,9.2,0.9c2.4-4.4,9.2-0.9,9.2-0.9
		C162.1,83,152.1,122.3,152.1,122.3z"/>
	<path class="st3" d="M247.3,148.7c0,0,11-0.5,22.3-0.6c-0.5-4.1-1.2-8-2-11.7C261.8,137.8,253.8,140.9,247.3,148.7z"/>
	<path class="st3" d="M247.3,162.3c0,0,11.7,4.4,23.3,6.5c0.2-4.1,0-8.3-0.3-12.6c0-0.6-0.2-1.2-0.2-2
		C262.7,153.9,253.2,155.1,247.3,162.3z"/>
	<path class="st7" d="M77.6,62.4c0.5,2.3,0.9,4.7,1.2,7.1c-4.1,2-8.9,4.8-14.3,9.5c-0.9,0.8-1.8,1.7-2.7,2.4
		c-5.3-0.5-10.2-2.6-13.7-5.6c5.6-5.4,11.3-9,17.6-11.1l3.5-1.2l-2.4-2.7c-2.9-3.2-4.4-6.8-4.8-11c3.9,0,8.9,0.5,12.6,2.3
		c0.6,1.8,1.2,3.6,1.8,5.4L77.6,62.4z"/>
	<path class="st3" d="M55.1,21.1c3.3,3.2,11.1,11.7,17,24.8c-4.5-1.2-9.5-1.4-12.9-1.1L57.1,45v2.1c-0.2,5.3,1.2,9.8,3.9,13.8
		c-6.3,2.7-12.3,6.9-18.1,12.8l-1.5,1.5l1.4,1.7c3.5,4.1,8.9,7.1,14.7,8.3l-0.3,0.3c-8.9,10.4-15.8,22.4-20.3,36.6
		c-1.1-8.1-2.4-20.5-2.1-34.2C35,67,38.7,38.6,55.1,21.1z"/>
	<path class="st7" d="M225.4,62.4c-0.5,2.3-0.9,4.7-1.2,7.1c4.1,2,8.9,4.8,14.3,9.5c0.9,0.8,1.8,1.7,2.7,2.4
		c5.3-0.5,10.2-2.6,13.7-5.6c-5.6-5.4-11.3-9-17.6-11.1l-3.5-1.2l2.4-2.7c2.9-3.2,4.4-6.8,4.8-11c-3.9,0-8.9,0.5-12.6,2.3
		c-0.6,1.8-1.2,3.6-1.8,5.4L225.4,62.4z"/>
	<path class="st3" d="M247.8,21.1c-3.3,3.2-11.1,11.7-17,24.8c4.5-1.2,9.5-1.4,12.9-1.1l2.1,0.2v2.1c0.2,5.3-1.2,9.8-3.9,13.8
		c6.3,2.7,12.3,6.9,18.1,12.8l1.5,1.5l-1.4,1.7c-3.5,4.1-8.9,7.1-14.7,8.3l0.3,0.3c9,10.1,16,22.3,20.6,36.4
		c1.1-8.1,2.4-20.5,2.1-34.2C267.9,67,264,38.6,247.8,21.1z"/>
	<path class="st9" d="M44.4,75.8l9.6,5.6l6.9,3.9c-15.2,16.1-23.2,41.5-23.2,41.5l-3.3-4.7C37.1,102.5,52,87.6,52,87.6
		c-8.9-1.8-14.6-11.9-14.6-11.9c4.1-9.5,19.6-16,19.6-16C53,53,54.7,42.2,54.7,42.2s7.2-1.1,12.6,0c-5.1-8.9-14.6-20-14.6-20
		l2.9-2.4l9,8l7.8,15.1h1.1l2.1,7.1c-7.4-3.5-16-2.1-16-2.1c-0.8,6.9,4.7,14.9,4.7,14.9C56.2,63.6,44.4,75.8,44.4,75.8z"/>
	<path class="st10" d="M70.3,50c0,0,4.1,10.7,4.7,17.5c0,0-14.7,7.8-18.7,13.8l6.5,1.8L81,70.2l-4.4-20.3h-6.3V50z"/>
	<path class="st8" d="M61,23.2c0,0,32.4,4.2,54.6,25.3l-14-14l-20-11.3l-23.3-6L61,23.2z"/>
	<path class="st9" d="M258.5,75.8l-9.6,5.6l-6.9,3.9c15.2,16.1,23.3,41.5,23.3,41.5l3.3-4.7c-2.6-19.6-17.5-34.5-17.5-34.5
		c8.9-1.8,14.6-11.9,14.6-11.9c-4.1-9.5-19.6-16-19.6-16c3.9-6.8,2.3-17.6,2.3-17.6s-7.2-1.1-12.6,0c5.1-8.9,14.6-20,14.6-20
		l-2.9-2.4l-9,8l-7.8,15.1h-1.1l-2.1,7.1c7.2-3.5,15.8-2.1,15.8-2.1c0.8,6.9-4.7,14.9-4.7,14.9C246.7,63.6,258.5,75.8,258.5,75.8z"
		/>
	<path class="st10" d="M232.6,50c0,0-4.1,10.7-4.7,17.5c0,0,14.7,7.8,18.7,13.8l-6.5,1.8L222,70.2l4.4-20.3h6.2V50z"/>
	<path d="M272.5,155.8L272.5,155.8c0-0.8-0.2-1.4-0.2-2c-0.2-2.1-0.5-4.1-0.6-6c-0.6-4.1-1.2-8.1-2-11.9c-0.3-1.2-0.6-2.4-0.8-3.6
		c0.6-3.2,4.1-22.1,3.8-44.2c-0.2-14.3-1.8-27.1-5-38.2c-3.9-14-10.1-25.1-18.4-33.3l-0.5-0.5l-0.6-0.2c-1.1-0.3-27.5-7.2-72.1,36.7
		c-2.9-0.3-5.7-0.8-8.6-0.9c-5.3-0.5-10.7-0.6-16.3-0.6c-5.6,0-11,0.2-16.3,0.6c-2.9,0.3-5.7,0.6-8.6,0.9
		c-44.7-43.9-71-37-72.1-36.7l-0.6,0.2l-0.5,0.5C45.2,24.7,39,35.9,35.1,49.9c-3,11.1-4.7,23.9-5,38.2c-0.3,22.1,3.2,41.1,3.8,44.2
		c-0.3,1.2-0.6,2.4-0.8,3.6c-0.8,3.8-1.5,7.8-2,11.9c-0.3,2-0.5,4.1-0.6,6c0,0.6-0.2,1.2-0.2,2l0,0c-0.3,4.4-0.3,8.7-0.3,12.8
		c0.6,29.8,10.5,52.7,29.5,67.9c10.7,8.6,24.5,15.1,41.2,19.1c14.4,3.5,31.5,5.3,50.7,5.3s36.3-1.8,50.7-5.3
		c16.6-4.1,30.4-10.4,41.2-19.1c19-15.4,28.9-38.2,29.5-67.9C272.9,164.5,272.8,160.3,272.5,155.8z M247.8,21.1
		c16.4,17.3,20.2,45.8,20.5,66.8c0.2,13.7-1.1,26-2.1,34.2c-4.7-14.1-11.4-26.3-20.6-36.4l-0.3-0.3c5.9-1.2,11.3-4.2,14.7-8.3
		l1.4-1.7l-1.5-1.5c-5.7-6-11.6-10.2-18.1-12.8c2.7-4.1,4.1-8.7,3.9-13.8v-2.1l-2.1-0.2c-3.5-0.3-8.4,0-12.9,1.1
		C236.5,32.9,244.5,24.4,247.8,21.1z M237.2,64.6c6.2,2.1,12,5.7,17.6,11.1c-3.5,3.2-8.4,5.1-13.7,5.6c-0.9-0.9-1.8-1.7-2.7-2.4
		c-5.6-4.5-10.4-7.5-14.3-9.5c0.3-2.4,0.8-4.8,1.2-7.1l1.2-5c0.6-2,1.1-3.8,1.8-5.4c3.9-1.7,8.9-2.3,12.6-2.3c-0.3,4.2-2,7.8-4.8,11
		l-2.4,2.7L237.2,64.6z M34.7,88.1C35,67,38.7,38.6,55.1,21.3c3.3,3.2,11.1,11.7,17,24.8c-4.5-1.2-9.5-1.4-12.9-1.1l-2.1,0.2v2.1
		c-0.2,5.3,1.2,9.8,3.9,13.8c-6.3,2.7-12.3,6.9-18.1,12.8l-1.5,1.5l1.4,1.7c3.5,4.1,8.9,7.1,14.7,8.3l-0.3,0.3
		c-8.9,10.2-15.8,22.3-20.3,36.4C35.7,114,34.5,101.6,34.7,88.1z M66.6,60.7c-2.9-3.2-4.4-6.8-4.8-11c3.9,0,8.9,0.5,12.6,2.3
		c0.6,1.8,1.2,3.6,1.8,5.4l1.2,5c0.5,2.3,0.9,4.7,1.2,7.1c-4.1,2-8.9,4.8-14.3,9.5c-0.9,0.8-1.8,1.7-2.7,2.4
		c-5.3-0.5-10.2-2.6-13.7-5.6c5.6-5.4,11.3-9,17.6-11.1l3.5-1.2L66.6,60.7z M268.4,168.6c-0.6,28.4-9.9,50.1-27.8,64.6
		c-19.6,15.7-48.6,23.3-89.1,23.3s-69.5-7.7-89.1-23.3c-17.9-14.4-27.4-36.3-27.8-64.6c-0.2-3.9,0-8.1,0.3-12.3
		c0-0.6,0.2-1.2,0.2-1.8c0.2-2,0.5-4.1,0.6-5.9c0.5-4.1,1.2-8,2-11.6c7.2-34.3,25.6-57.9,54.9-70.6c0,0-3.3-0.6-9.5,1.5
		c-3.3-24.7-16.4-41.1-22.9-47.9c3,0,7.5,0.5,13.5,2.3c10.2,3.2,26.5,11.3,47.6,31.3c-6,1.2-9.5,6.5-9.5,6.5
		c3.8-0.9,7.5-1.7,11.4-2.3c4.1-0.6,8.3-1.2,12.5-1.5c5.1-0.5,10.5-0.6,16-0.6s10.8,0.2,16,0.6c4.2,0.3,8.4,0.9,12.5,1.5
		c3.9,0.6,7.8,1.4,11.4,2.3c0,0-3.5-5.3-9.5-6.5c20.9-20,37.3-28.1,47.6-31.3c5.9-1.8,10.4-2.3,13.5-2.3c-6.5,6.8-19.6,23-22.9,47.9
		c-6.2-2.1-9.5-1.5-9.5-1.5c29.3,12.6,47.7,36.3,54.9,70.6c0.8,3.6,1.5,7.5,2,11.6c0.3,2,0.5,3.9,0.6,5.9c0,0.6,0.2,1.2,0.2,1.8
		C268.4,160.5,268.5,164.7,268.4,168.6z"/>
	<path class="st11" d="M244.9,212c-0.8,5-12.6,11-19.4,10.4c-2.1-0.2-0.5-3.8,0.8-4.4c11.4-6.3,14.9-13.7,10.1-12.6
		c-5,1.1-19.4-11.7-10.8-9.2s18.4-12.8,15.5-10.5c-2.9,2.3-21.1-1.5-32.5-8.1c-8.4-4.8-26-5.7-34.6-5.9c-1.2-7.1-3.8-12.3-10.8-14.9
		c0.3-4.7,1.5-7.5,1.5-7.5c-4.2,1.2-7.2,3.3-9.3,6c-0.3,0-0.5,0-0.8,0c-0.5-5.9-2-11.9-7.1-16c0,0-2.3,6.9-4.1,16.6
		c-9.5,2-12.6,7.8-14,15.8c-9.2,0.3-24.1,1.5-31.6,5.9c-11.3,6.6-29.6,10.4-32.5,8.1c-2.9-2.3,6.9,13.1,15.5,10.5
		s-5.9,10.4-10.8,9.2c-5-1.1-1.4,6.3,10.1,12.6c1.2,0.8,2.9,4.2,0.8,4.4c-6.8,0.6-18.5-5.4-19.4-10.4c-0.8-4.7,0.3,43,78.4,44.9
		c1.5,0,3.2,0,4.7,0h17.5c2,0,3.9,0,5.9-0.2C244.6,254.6,245.7,207.3,244.9,212z"/>
	<g>
		<path d="M165.6,209.2c-6-2.4-11.7-8.1-11.7-8.1l0.6-5.7l-2.6-4.1l0,0l0,0l-2.6,4.1l0.6,5.7c0,0-6.2,4.8-12.2,7.5
			c-4.8,2.1-13.7-3.9-13.7-3.9s8,9.3,15.7,7.5c5.3-1.2,12.3-6.2,12.3-6.2s7.5,5.3,12.3,6.5c7.7,2,16-7.2,16-7.2
			S170.4,211.2,165.6,209.2z"/>
		<path d="M157.2,187.1c0,3.8-1.5,9.3-5.3,9.3c-3.8,0-5.3-5.6-5.3-9.3c0-3.8,2.4-6.8,5.3-6.8C154.8,180.2,157.2,183.2,157.2,187.1z"
			/>
		<g>
			<path class="st12" d="M157,189.2c0.6-2,4.2-4.7,5.6-5.3c-0.2-3.2-7.2-4.7-8.4-0.8C153,187.3,154.9,189.1,157,189.2z"/>
			<path class="st12" d="M146.8,189.2c-0.6-2-4.2-4.7-5.6-5.3c0.2-3.2,7.2-4.7,8.4-0.8C150.7,187.3,148.9,189.1,146.8,189.2z"/>
			<path class="st13" d="M159.3,176.4c-2,0-5.3,1.2-7.4,1.2c-2.3,0-5.4-1.2-7.4-1.2c-1.7,0-7.2,1.4-5.1,5.4c0.6,1.2,1.2,1.8,2,2.1
				c1.2-0.6,5-1.2,7.2,1.8c-0.6,0.6-1.5,2.1-1.7,3.5c1.2,2.7,2.7,4.8,5,5l0,0l0,0l0,0l0,0c2.3,0,3.9-2.1,5.1-5
				c-0.3-1.4-1.1-2.9-1.7-3.5c2.3-3,6-2.4,7.2-1.8c0.8-0.3,1.2-0.9,2-2.1C166.5,177.8,160.8,176.4,159.3,176.4z"/>
			<path class="st14" d="M151.9,185c-0.3,0-0.6,4.1-0.6,9c0.2,0,0.3,0,0.6,0.2l0,0l0,0l0,0l0,0c0.3,0,0.5,0,0.6-0.2
				C152.5,189.1,152.2,185,151.9,185z"/>
		</g>
	</g>
	<g>
		<g>
			<path class="st10" d="M75.4,129.3c0,0,0.3-3.3-1.4-7.1c-2.1-4.5-5.3-6.8-5.3-6.8s48.3,7.1,53.9,18.4c5.6,11.3,4.2,16.1,4.2,16.1
				s-4.4-19-25.6-20.9C80,127.1,75.4,129.3,75.4,129.3z"/>
			<path d="M68.7,144.8c-1.1,18.7,26.9,26.8,43.5,21.2c3.2-1.1,6.8-2.3,10.4-3.2c1.1,1.4,3.9,0.6,3.8-1.1c0-2.4,1.5-14.4-0.3-19.6
				c-6.6-15.5-36.3-16.9-50.6-15.4C71.8,131.3,69,139.4,68.7,144.8z"/>
			<g>
				<g>
					<defs>
						<path id="SVGID_00000057138888763109268290000015026534167716281242_" d="M85.4,129.3c-4.5,0-7.8,0.6-8.6,1.5
							c-5.1,6.9-6,15.2-2.6,22.1c3.9,7.7,12.5,12,23.3,12c12.5,0,23.5-7.2,23.8-8c3.5-6.9,1.8-12.2-0.3-16.4
							c-3.2-6.2-17.3-10.1-30-11.1C89.1,129.5,87.2,129.3,85.4,129.3z"/>
					</defs>
					<clipPath id="SVGID_00000124873976216698535840000016738352272443761036_">
						<use xlink:href="#SVGID_00000057138888763109268290000015026534167716281242_"  style="overflow:visible;"/>
					</clipPath>
					<g style="clip-path:url(#SVGID_00000124873976216698535840000016738352272443761036_);">
						<g>
							
								<linearGradient id="SVGID_00000075137786188053862030000002850269107233734570_" gradientUnits="userSpaceOnUse" x1="5643.3823" y1="154.4104" x2="5703.7964" y2="154.4104" gradientTransform="matrix(1 0 0 -1 -5576.9326 301.2756)">
								<stop  offset="0" style="stop-color:#FFD800"/>
								<stop  offset="1" style="stop-color:#FFB700"/>
							</linearGradient>
							<path style="fill:url(#SVGID_00000075137786188053862030000002850269107233734570_);" d="M126.9,146.3
								c0-12-12.3-21.2-31.3-21.2s-29,1.8-29,13.8s10.1,29.6,29,29.6S126.9,158.4,126.9,146.3z"/>
						</g>
						<g>
							
								<linearGradient id="SVGID_00000009583664833980027890000011029373309046666429_" gradientUnits="userSpaceOnUse" x1="2355.228" y1="161.9357" x2="2412.4268" y2="161.9357" gradientTransform="matrix(-1 0 0 -1 2481.9211 301.2756)">
								<stop  offset="0" style="stop-color:#FFD800"/>
								<stop  offset="1" style="stop-color:#FFB700"/>
							</linearGradient>
							
								<path style="opacity:0.3;fill:url(#SVGID_00000009583664833980027890000011029373309046666429_);enable-background:new    ;" d="
								M100.3,167.9c-0.5,0-0.9-2.1-1.1-4.8c-0.2-2.7-0.2-5.1,0.3-5.1s0.9,2.1,1.1,4.8C100.9,165.5,100.7,167.9,100.3,167.9z
								 M103.3,167.4c-0.5,0.2-1.1-2-1.7-4.7c-0.5-2.7-0.6-5-0.2-5.1c0.5-0.2,1.1,2,1.7,4.7C103.6,165,103.7,167.4,103.3,167.4z
								 M106.2,166.8c-0.5,0.2-1.4-1.8-2.1-4.4c-0.8-2.6-1.2-5-0.8-5.1c0.5-0.2,1.4,1.8,2.1,4.4
								C106.3,164.4,106.6,166.7,106.2,166.8z M109,165.8c-0.5,0.2-1.5-1.7-2.6-4.2c-1.1-2.6-1.7-4.8-1.4-5c0.5-0.2,1.5,1.7,2.6,4.2
								C108.9,163.3,109.5,165.6,109,165.8z M111.7,164.5c-0.5,0.2-1.7-1.5-2.9-3.9c-1.4-2.4-2.1-4.5-1.8-4.8c0.5-0.2,1.7,1.5,3,3.9
								S112.2,164.2,111.7,164.5z M114.3,162.9c-0.3,0.3-1.8-1.4-3.3-3.6c-1.5-2.3-2.7-4.4-2.3-4.5c0.3-0.3,1.8,1.4,3.3,3.6
								C113.5,160.6,114.7,162.6,114.3,162.9z M116.7,161.1c-0.3,0.3-2-1.2-3.6-3.2c-1.8-2.1-3-4.1-2.7-4.4c0.3-0.3,2,1.1,3.8,3.2
								C115.8,158.8,117,160.8,116.7,161.1z M118.8,159c-0.3,0.3-2-0.9-4.1-2.9c-2-1.8-3.5-3.6-3.2-4.1c0.3-0.3,2,0.9,4.1,2.9
								C117.6,156.9,119.1,158.7,118.8,159z M120.8,156.7c-0.3,0.3-2.1-0.8-4.2-2.4s-3.9-3.3-3.6-3.6c0.3-0.3,2.1,0.8,4.2,2.4
								C119.4,154.8,121.1,156.4,120.8,156.7z M122.6,154.3c-0.3,0.5-2.1-0.5-4.5-2c-2.3-1.4-4.2-2.9-3.9-3.3c0.3-0.5,2.1,0.5,4.5,2
								C120.9,152.5,122.7,153.9,122.6,154.3z M123.9,151.6c-0.2,0.5-2.3-0.3-4.7-1.5c-2.4-1.2-4.5-2.4-4.2-2.9
								c0.3-0.5,2.3,0.3,4.7,1.4C122.1,150,124.1,151.3,123.9,151.6z M125.1,148.9c-0.2,0.5-2.3,0-4.8-0.9c-2.6-0.9-4.7-2-4.5-2.4
								c0.2-0.5,2.3,0,4.8,0.9C123.2,147.4,125.3,148.4,125.1,148.9z M125.9,146c-0.2,0.5-2.3,0.2-4.8-0.5c-2.7-0.6-4.8-1.5-4.8-1.8
								c0.2-0.5,2.3-0.2,4.8,0.5C123.8,144.8,126,145.6,125.9,146z M126.5,143c0,0.5-2.1,0.5-4.8,0c-2.7-0.5-5-0.9-5-1.4
								s2.3-0.5,5-0.2C124.2,142,126.5,142.6,126.5,143z M126.6,140c0,0.5-2.1,0.6-4.8,0.6c-2.7,0-5.1-0.5-5-0.9
								c0-0.5,2.1-0.6,4.8-0.6C124.4,139.3,126.8,139.6,126.6,140z M126.6,137.2c0,0.5-2.1,0.9-4.8,1.1c-2.7,0.2-5.1,0.2-5.1-0.3
								c0-0.5,2.1-0.9,4.8-1.1C124.2,136.6,126.6,136.7,126.6,137.2z M126.2,134.1c0.2,0.5-2,1.1-4.7,1.7c-2.7,0.5-5,0.6-5.1,0.2
								s2-1.1,4.7-1.7C123.8,133.8,126.2,133.7,126.2,134.1z M125.6,131.1c0.2,0.5-1.8,1.4-4.4,2.1c-2.6,0.8-5,1.2-5.1,0.8
								s1.8-1.4,4.4-2.1C123.2,131.1,125.4,130.8,125.6,131.1z M124.5,128.4c0.2,0.5-1.7,1.5-4.2,2.6c-2.6,1.1-4.8,1.7-5,1.4
								c-0.2-0.5,1.7-1.5,4.2-2.6C122.1,128.6,124.4,128,124.5,128.4z M123.3,125.7c0.2,0.5-1.5,1.7-3.9,2.9
								c-2.4,1.2-4.5,2.1-4.8,1.8c-0.2-0.5,1.5-1.7,3.9-3C120.9,126.2,123,125.3,123.3,125.7z M121.7,123.2c0.3,0.3-1.4,1.8-3.6,3.3
								s-4.4,2.7-4.5,2.3c-0.3-0.3,1.4-1.8,3.6-3.3S121.4,122.7,121.7,123.2z M119.8,120.8c0.3,0.3-1.2,2-3.2,3.6
								c-2.1,1.8-4.1,3-4.4,2.7c-0.3-0.3,1.1-2,3.2-3.8C117.6,121.5,119.5,120.5,119.8,120.8z M117.7,118.6c0.3,0.3-0.9,2-2.9,4.1
								c-1.8,2-3.6,3.5-4.1,3.2s0.9-2,2.9-4.1C115.6,119.7,117.4,118.2,117.7,118.6z M115.5,116.7c0.3,0.3-0.8,2.1-2.4,4.2
								s-3.3,3.9-3.6,3.6c-0.3-0.3,0.8-2.1,2.4-4.2C113.5,118,115.2,116.4,115.5,116.7z M113.1,114.9c0.5,0.3-0.5,2.1-2,4.5
								c-1.4,2.3-2.9,4.2-3.3,3.9c-0.5-0.3,0.5-2.1,2-4.5C111.3,116.5,112.6,114.7,113.1,114.9z M110.4,113.5
								c0.5,0.2-0.3,2.3-1.5,4.7s-2.4,4.5-2.9,4.2c-0.5-0.2,0.3-2.3,1.4-4.7C108.7,115.3,110.1,113.4,110.4,113.5z M107.7,112.3
								c0.5,0.2,0,2.3-0.9,4.8c-0.9,2.6-2,4.7-2.4,4.5c-0.5-0.2,0-2.3,0.9-4.8C106.2,114.3,107.2,112.2,107.7,112.3z M104.8,111.6
								c0.5,0.2,0.2,2.3-0.5,4.8c-0.6,2.7-1.5,4.8-1.8,4.8c-0.5-0.2-0.2-2.3,0.5-4.8C103.4,113.5,104.3,111.4,104.8,111.6z
								 M101.8,111c0.5,0,0.5,2.1,0,4.8c-0.5,2.7-0.9,5-1.4,5c-0.5,0-0.5-2.3-0.2-5C100.6,113.1,101.3,111,101.8,111z M98.8,110.7
								c0.5,0,0.6,2.1,0.6,4.8c0,2.7-0.5,5.1-0.9,5c-0.5,0-0.6-2.1-0.6-4.8C98,113.1,98.3,110.7,98.8,110.7z M95.8,110.8
								c0.5,0,0.9,2.1,1.1,4.8c0.2,2.7,0.2,5.1-0.3,5.1s-0.9-2.1-1.1-4.8C95.3,113.2,95.5,110.8,95.8,110.8z M92.9,111.1
								c0.5-0.2,1.1,2,1.7,4.7c0.6,2.7,0.6,5,0.2,5.1c-0.5,0.2-1.1-2-1.7-4.7C92.5,113.5,92.5,111.3,92.9,111.1z M89.9,111.9
								c0.5-0.2,1.4,1.8,2.1,4.4c0.8,2.6,1.2,5,0.8,5.1c-0.5,0.2-1.4-1.8-2.1-4.4C89.9,114.3,89.6,112,89.9,111.9z M87.2,112.9
								c0.5-0.2,1.5,1.7,2.6,4.2c1.1,2.6,1.7,4.8,1.4,5c-0.5,0.2-1.5-1.7-2.6-4.2C87.3,115.3,86.7,113.1,87.2,112.9z M84.5,114.1
								c0.5-0.2,1.7,1.5,2.9,3.9c1.2,2.4,2.1,4.5,1.8,4.8c-0.5,0.2-1.7-1.5-3-3.9C84.9,116.5,84,114.4,84.5,114.1z M81.9,115.8
								c0.3-0.3,1.8,1.4,3.3,3.6s2.7,4.4,2.3,4.5c-0.3,0.3-1.8-1.4-3.3-3.6C82.5,118,81.5,115.9,81.9,115.8z M79.5,117.6
								c0.3-0.3,2,1.2,3.6,3.2c1.7,2,3,4.1,2.7,4.4c-0.3,0.3-2-1.1-3.8-3.2C80.4,119.8,79.2,117.9,79.5,117.6z M77.3,119.7
								c0.3-0.3,2,0.9,4.1,2.9c2,1.8,3.5,3.6,3.2,4.1s-2-0.9-4.1-2.9C78.5,121.8,77,120,77.3,119.7z M75.4,122
								c0.3-0.3,2.1,0.8,4.2,2.4c2.1,1.7,3.9,3.3,3.6,3.6c-0.3,0.3-2.1-0.8-4.2-2.4C76.8,123.9,75.1,122.3,75.4,122z M73.6,124.4
								c0.3-0.5,2.1,0.5,4.5,2c2.3,1.4,4.2,2.9,3.9,3.3c-0.3,0.5-2.1-0.5-4.5-2C75.3,126.2,73.5,124.8,73.6,124.4z M72.3,127.1
								c0.2-0.5,2.3,0.3,4.7,1.5c2.4,1.2,4.5,2.4,4.2,2.9c-0.2,0.5-2.3-0.3-4.7-1.4C74.1,128.7,72,127.4,72.3,127.1z M71.1,129.8
								c0.2-0.5,2.3,0,4.8,0.9s4.7,2,4.5,2.4c-0.2,0.5-2.3,0-4.8-0.9S70.9,130.2,71.1,129.8z M70.2,132.6c0.2-0.5,2.3-0.2,4.8,0.5
								c2.7,0.6,4.8,1.5,4.8,1.8c-0.2,0.5-2.3,0.2-4.8-0.5C72.3,133.8,70.2,133.1,70.2,132.6z M69.7,135.7c0-0.5,2.1-0.5,4.8,0
								c2.7,0.3,5,0.9,5,1.4s-2.3,0.5-5,0.2C72,136.6,69.6,136.1,69.7,135.7z M69.4,138.5c0-0.5,2.1-0.6,4.8-0.6
								c2.7,0,5.1,0.5,5,0.9c0,0.5-2.1,0.6-4.8,0.6C71.8,139.4,69.4,139,69.4,138.5z M69.6,141.5c0-0.5,2.1-0.9,4.8-1.1
								c2.7-0.2,5.1-0.2,5.1,0.3s-2.1,0.9-4.8,1.1C72,142.1,69.6,142,69.6,141.5z M69.9,144.5c-0.2-0.5,2-1.1,4.7-1.7
								c2.7-0.5,5-0.6,5.1-0.2s-2,1.1-4.7,1.7C72.4,144.8,70,145,69.9,144.5z M70.6,147.4c-0.2-0.5,1.8-1.4,4.4-2.1
								c2.6-0.8,5-1.2,5.1-0.8c0.2,0.5-1.8,1.4-4.4,2.1C73.2,147.4,70.8,147.8,70.6,147.4z M71.7,150.3c-0.2-0.5,1.7-1.5,4.2-2.6
								s4.8-1.7,5-1.4c0.2,0.5-1.7,1.5-4.2,2.6C74.1,150.1,71.8,150.7,71.7,150.3z M72.9,153c-0.2-0.5,1.5-1.7,3.9-2.9
								c2.4-1.4,4.5-2.1,4.8-1.8c0.2,0.5-1.5,1.7-3.9,3S73.2,153.4,72.9,153z M74.5,155.5c-0.3-0.3,1.4-1.8,3.6-3.3s4.4-2.7,4.5-2.3
								c0.3,0.3-1.4,1.8-3.6,3.3S74.7,156,74.5,155.5z M76.4,157.9c-0.3-0.3,1.2-2,3.2-3.6c2.1-1.8,4.1-3,4.4-2.7s-1.1,2-3.2,3.8
								C78.6,157,76.7,158.2,76.4,157.9z M78.5,160c-0.3-0.3,0.9-2,2.9-4.1c1.8-2,3.6-3.5,4.1-3.2c0.3,0.3-0.9,2-2.9,4.1
								C80.6,159,78.8,160.3,78.5,160z M80.7,162c-0.3-0.3,0.8-2.1,2.4-4.2s3.3-3.9,3.6-3.6s-0.8,2.1-2.4,4.2
								C82.7,160.6,81,162.3,80.7,162z M83.1,163.8c-0.5-0.3,0.5-2.1,2-4.5c1.4-2.3,2.9-4.2,3.3-3.9s-0.5,2.1-2,4.5
								C84.9,162.1,83.6,163.9,83.1,163.8z M85.8,165.2c-0.5-0.2,0.3-2.3,1.5-4.7c1.2-2.4,2.4-4.5,2.9-4.2c0.5,0.2-0.3,2.3-1.4,4.7
								C87.5,163.3,86.1,165.3,85.8,165.2z M88.5,166.4c-0.5-0.2,0-2.3,0.9-4.8c0.9-2.6,2-4.7,2.4-4.5c0.5,0.2,0,2.3-0.9,4.8
								S89,166.5,88.5,166.4z M91.4,167.1c-0.5-0.2-0.2-2.3,0.5-4.8c0.6-2.7,1.5-4.8,1.8-4.8c0.5,0.2,0.2,2.3-0.5,4.8
								C92.6,165,91.9,167.3,91.4,167.1z M94.4,167.7c-0.5,0-0.5-2.1,0-4.8c0.3-2.7,0.9-5,1.4-5c0.5,0,0.5,2.3,0.2,5
								C95.3,165.5,94.7,167.7,94.4,167.7z M97.3,168c-0.5,0-0.6-2.1-0.6-4.8c0-2.7,0.5-5.1,0.9-5c0.5,0,0.6,2.1,0.6,4.8
								C98.2,165.6,97.7,168,97.3,168z"/>
							<g>
								<path class="st18" d="M116.2,141.8c0-10.8-7.1-19.3-18.1-19.3s-17.6,9.3-17.6,20.2S87.2,162,98.2,162
									S116.2,152.7,116.2,141.8z"/>
								<path d="M113.7,141.8c0-9.2-6-16.4-15.4-16.4s-14.9,7.8-14.9,17.2c0,9.3,5.7,16.4,14.9,16.4S113.7,151.2,113.7,141.8z"/>
							</g>
							<g class="st19">
								<path class="st20" d="M223.4,139.3c0-11.9-7.8-21.1-19.7-21.1s-19.3,10.1-19.3,22s7.2,21.1,19.3,21.1
									C215.7,161.2,223.4,151.2,223.4,139.3z"/>
								<path class="st21" d="M220.5,139.3c0-10.1-6.6-17.9-16.7-17.9s-16.4,8.6-16.4,18.8s6.2,17.9,16.4,17.9
									S220.5,149.3,220.5,139.3z"/>
							</g>
							<g class="st22">
								<path class="st0" d="M102.4,148.7c-1.1,2.3-0.6,4.7,1.2,5.4c1.7,0.8,3.9-0.3,5-2.6c1.1-2.3,0.6-4.7-1.2-5.4
									C105.5,145.3,103.4,146.5,102.4,148.7z"/>
								<path class="st0" d="M90.2,141.8c-0.9,1.1-1.1,2.7-0.2,3.5c0.9,0.8,2.4,0.5,3.3-0.6c0.9-1.1,1.1-2.7,0.2-3.5
									C92.6,140.5,91.1,140.8,90.2,141.8z"/>
							</g>
						</g>
					</g>
				</g>
			</g>
			<g>
				<path d="M125.9,162.4l-2.4-0.5l0.3-1.2c0-0.2,4.2-20.8-3.2-28.1c-8.9-8.9-39-16-51.8-16.6h-0.6c-0.5,0-0.8-0.2-1.1-0.5l-0.8-0.9
					c-0.5-0.5,0-1.2,0.6-1.2l2,0.2c13.4,0.8,43.9,7.8,53.4,17.3c8.3,8.3,4.1,29.5,3.9,30.4L125.9,162.4z"/>
			</g>
			<path d="M89.3,131.6c-0.3-0.5-1.1-1.5-0.8-2.4c0.2-0.5,0.8-0.9,1.8-1.1c5-1.1,11.9,3.5,18.7,3.9c0.8,0,2.9,0.2,3.2,1.1
				c0.3,0.6-0.5,1.5-0.8,1.8C108.1,138.7,92.2,135.7,89.3,131.6z"/>
		</g>
		<g>
			<path class="st10" d="M226.4,129.3c0,0-0.3-3.3,1.4-7.1c2.1-4.5,5.3-6.8,5.3-6.8s-48.5,7.1-54,18.4c-5.6,11.3-4.2,16.1-4.2,16.1
				s4.4-19,25.6-20.9C221.7,127.1,226.4,129.3,226.4,129.3z"/>
			<path d="M233,144.8c1.1,18.7-26.8,26.8-43.5,21.4c-3.2-1.1-6.8-2.3-10.4-3.2c-1.1,1.4-3.9,0.6-3.8-1.1c0-2.4-1.5-14.4,0.3-19.6
				c6.6-15.5,36.3-16.9,50.6-15.4C230,131.3,232.7,139.4,233,144.8z"/>
			<g>
				<g>
					<defs>
						<path id="SVGID_00000142178095366382555270000003597315049844994458_" d="M210.6,129.6c-12.6,1.1-26.8,4.8-30,11.1
							c-2.1,4.2-3.8,9.5-0.3,16.4c0.5,0.8,11.3,8,23.8,8c11,0,19.6-4.4,23.3-12c3.5-6.9,2.6-15.2-2.6-22.1c-0.8-1.1-4.1-1.5-8.6-1.5
							C214.7,129.3,212.7,129.5,210.6,129.6z"/>
					</defs>
					<clipPath id="SVGID_00000182507431075291413030000009296026636273492608_">
						<use xlink:href="#SVGID_00000142178095366382555270000003597315049844994458_"  style="overflow:visible;"/>
					</clipPath>
					<g style="clip-path:url(#SVGID_00000182507431075291413030000009296026636273492608_);">
						<g>
							
								<linearGradient id="SVGID_00000156559180374736047150000006216829270170852251_" gradientUnits="userSpaceOnUse" x1="3169.9431" y1="154.4104" x2="3230.3567" y2="154.4104" gradientTransform="matrix(-1 0 0 -1 3405.3066 301.2756)">
								<stop  offset="0" style="stop-color:#FFD800"/>
								<stop  offset="1" style="stop-color:#FFB700"/>
							</linearGradient>
							<path style="fill:url(#SVGID_00000156559180374736047150000006216829270170852251_);" d="M174.9,146.3
								c0-12,12.3-21.2,31.3-21.2s29,1.8,29,13.8s-10.1,29.6-29,29.6S174.9,158.4,174.9,146.3z"/>
						</g>
						<g>
							
								<linearGradient id="SVGID_00000088130934138329749720000014821964963366534547_" gradientUnits="userSpaceOnUse" x1="4828.6675" y1="161.9357" x2="4885.8867" y2="161.9357" gradientTransform="matrix(1 0 0 -1 -4653.5469 301.2756)">
								<stop  offset="0" style="stop-color:#FFD800"/>
								<stop  offset="1" style="stop-color:#FFB700"/>
							</linearGradient>
							
								<path style="opacity:0.3;fill:url(#SVGID_00000088130934138329749720000014821964963366534547_);enable-background:new    ;" d="
								M201.1,162.7c0.2-2.7,0.6-4.8,1.1-4.8c0.5,0,0.5,2.4,0.3,5.1c-0.2,2.7-0.6,4.8-1.1,4.8S201,165.5,201.1,162.7z M198.7,162.3
								c0.5-2.7,1.2-4.7,1.7-4.7s0.3,2.4-0.2,5.1s-1.2,4.7-1.7,4.7S198.3,165,198.7,162.3z M196.3,161.7c0.8-2.6,1.7-4.5,2.1-4.4
								c0.5,0.2,0,2.4-0.8,5.1c-0.8,2.6-1.7,4.5-2.1,4.4C195.3,166.7,195.6,164.4,196.3,161.7z M194,160.8c1.1-2.6,2.1-4.4,2.6-4.2
								s-0.3,2.4-1.4,5c-1.1,2.6-2.1,4.4-2.6,4.2C192.4,165.6,193,163.3,194,160.8z M191.8,159.7c1.4-2.4,2.6-4.1,3-3.9
								s-0.5,2.4-1.8,4.8c-1.4,2.4-2.6,4.1-2.9,3.9C189.7,164.2,190.6,162.1,191.8,159.7z M189.8,158.4c1.5-2.3,3-3.8,3.3-3.6
								c0.3,0.3-0.8,2.3-2.3,4.5c-1.5,2.3-3,3.8-3.3,3.6C187.1,162.6,188.2,160.6,189.8,158.4z M187.9,156.7
								c1.8-2.1,3.3-3.5,3.8-3.2c0.3,0.3-0.9,2.3-2.7,4.4c-1.8,2.1-3.3,3.5-3.6,3.2C185,160.8,186.1,158.8,187.9,156.7z
								 M186.1,155.1c2-1.8,3.8-3.2,4.1-2.9s-1.2,2.1-3.2,4.1c-2,1.8-3.8,3.2-4.1,2.9C182.6,158.8,184.1,156.9,186.1,155.1z
								 M184.6,153.1c2.1-1.7,4.1-2.7,4.2-2.4c0.3,0.3-1.4,2-3.6,3.6c-2.1,1.7-4.1,2.7-4.2,2.4S182.5,154.8,184.6,153.1z M183.2,151
								c2.3-1.4,4.2-2.3,4.5-2c0.3,0.5-1.7,1.8-3.9,3.3c-2.3,1.4-4.2,2.3-4.5,2C179,154,181,152.5,183.2,151z M182.2,148.7
								c2.4-1.2,4.5-1.8,4.7-1.4c0.2,0.5-1.8,1.7-4.2,2.9s-4.5,1.8-4.7,1.5C177.6,151.3,179.7,150,182.2,148.7z M181.3,146.5
								c2.6-0.9,4.7-1.4,4.8-0.9c0.2,0.5-2,1.5-4.5,2.4s-4.7,1.4-4.8,0.9S178.7,147.4,181.3,146.5z M180.7,144.1
								c2.7-0.6,4.8-0.9,4.8-0.5c0.2,0.5-2.1,1.2-4.8,1.8c-2.7,0.6-4.8,0.9-4.8,0.5C175.8,145.6,177.9,144.8,180.7,144.1z
								 M180.4,141.7c2.7-0.3,4.8-0.3,5,0.2c0,0.5-2.3,1.1-5,1.4s-4.8,0.3-4.8,0C175.2,142.6,177.5,142,180.4,141.7z M180.2,139.3
								c2.7,0,4.8,0.2,4.8,0.6c0,0.5-2.3,0.8-5,0.9c-2.7,0-4.8-0.2-4.8-0.6C175.1,139.6,177.5,139.3,180.2,139.3z M180.4,136.7
								c2.7,0.2,4.8,0.6,4.8,1.1c0,0.5-2.4,0.5-5.1,0.3c-2.7-0.2-4.8-0.6-4.8-1.1S177.6,136.6,180.4,136.7z M180.7,134.3
								c2.7,0.5,4.7,1.2,4.7,1.7c-0.2,0.5-2.4,0.3-5.1-0.2s-4.7-1.2-4.7-1.7C175.7,133.7,177.9,133.8,180.7,134.3z M181.4,131.9
								c2.6,0.8,4.5,1.7,4.4,2.1s-2.4,0-5.1-0.8c-2.6-0.8-4.5-1.7-4.4-2.1C176.4,130.8,178.7,131.1,181.4,131.9z M182.3,129.6
								c2.6,1.1,4.4,2.1,4.2,2.6c-0.2,0.5-2.4-0.3-5-1.4c-2.6-1.1-4.4-2.1-4.2-2.6C177.5,127.8,179.7,128.6,182.3,129.6z
								 M183.4,127.4c2.4,1.4,4.1,2.6,3.9,3c-0.2,0.5-2.4-0.5-4.8-1.8s-4.1-2.6-3.9-2.9C178.7,125.4,181,126.2,183.4,127.4z
								 M184.7,125.4c2.3,1.5,3.8,3,3.6,3.3c-0.3,0.3-2.3-0.8-4.5-2.3c-2.3-1.5-3.8-3-3.6-3.3C180.4,122.7,182.5,123.9,184.7,125.4z
								 M186.2,123.5c2.1,1.8,3.5,3.3,3.2,3.8c-0.3,0.5-2.3-0.9-4.4-2.7c-2.1-1.8-3.5-3.3-3.2-3.6
								C182.2,120.6,184.3,121.7,186.2,123.5z M188,121.8c1.8,2,3.2,3.8,2.9,4.1c-0.3,0.3-2.1-1.2-4.1-3.2s-3.2-3.8-2.9-4.1
								C184.3,118.3,186.2,119.7,188,121.8z M190,120.2c1.7,2.1,2.7,4.1,2.4,4.2c-0.3,0.3-2-1.4-3.6-3.6c-1.7-2.1-2.7-4.1-2.4-4.2
								C186.7,116.4,188.3,118,190,120.2z M192.1,118.8c1.4,2.3,2.3,4.2,2,4.5c-0.5,0.3-1.8-1.7-3.3-3.9s-2.3-4.2-2-4.5
								C189.1,114.6,190.6,116.5,192.1,118.8z M194.2,117.7c1.2,2.4,1.8,4.5,1.4,4.7c-0.5,0.2-1.7-1.8-2.9-4.2
								c-1.2-2.4-1.8-4.5-1.5-4.7C191.8,113.4,193,115.3,194.2,117.7z M196.6,116.8c0.9,2.6,1.4,4.7,0.9,4.8c-0.5,0.2-1.5-2-2.4-4.5
								c-0.9-2.6-1.4-4.7-0.9-4.8C194.6,112.2,195.7,114.3,196.6,116.8z M198.9,116.2c0.6,2.7,0.9,4.8,0.5,4.8
								c-0.5,0.2-1.2-2.1-1.8-4.8c-0.6-2.7-0.9-4.8-0.5-4.8C197.5,111.4,198.3,113.5,198.9,116.2z M201.4,115.9
								c0.3,2.7,0.3,4.8-0.2,5c-0.5,0-1.1-2.3-1.4-5c-0.3-2.7-0.3-4.8,0-4.8C200.4,111,201,113.2,201.4,115.9z M203.8,115.8
								c0,2.7-0.2,4.8-0.6,4.8c-0.5,0-0.8-2.3-0.9-5c0-2.7,0.2-4.8,0.6-4.8C203.4,110.7,203.8,113.1,203.8,115.8z M206.2,115.9
								c-0.2,2.7-0.6,4.8-1.1,4.8c-0.5,0-0.5-2.4-0.3-5.1c0.2-2.7,0.6-4.8,1.1-4.8S206.5,113.2,206.2,115.9z M208.8,116.2
								c-0.5,2.7-1.2,4.7-1.7,4.7s-0.3-2.4,0.2-5.1c0.5-2.7,1.2-4.7,1.7-4.7S209.2,113.7,208.8,116.2z M211.1,117
								c-0.8,2.6-1.7,4.5-2.1,4.4c-0.5-0.2,0-2.4,0.8-5.1c0.8-2.6,1.7-4.5,2.1-4.4C212.3,112,212,114.3,211.1,117z M213.5,117.9
								c-1.1,2.6-2.1,4.4-2.6,4.2c-0.5-0.2,0.3-2.4,1.4-5c1.1-2.6,2.1-4.4,2.6-4.2C215.1,113.1,214.5,115.3,213.5,117.9z
								 M215.6,118.9c-1.4,2.4-2.6,4.1-3,3.9c-0.5-0.2,0.5-2.4,1.8-4.8s2.6-4.1,2.9-3.9C217.8,114.4,216.9,116.5,215.6,118.9z
								 M217.7,120.3c-1.5,2.3-3,3.8-3.3,3.6c-0.3-0.3,0.8-2.3,2.3-4.5s3-3.8,3.3-3.6C220.2,115.9,219.2,118,217.7,120.3z
								 M219.6,122c-1.8,2.1-3.3,3.5-3.8,3.2s0.9-2.3,2.7-4.4c1.8-2.1,3.3-3.5,3.6-3.2C222.6,117.9,221.3,119.8,219.6,122z
								 M221.3,123.6c-2,1.8-3.8,3.2-4.1,2.9c-0.3-0.3,1.2-2.1,3.2-4.1c2-1.8,3.8-3.2,4.1-2.9C224.7,119.8,223.2,121.8,221.3,123.6z
								 M222.8,125.6c-2.1,1.7-4.1,2.7-4.2,2.4c-0.2-0.3,1.4-2,3.6-3.6c2.3-1.7,4.1-2.7,4.2-2.4S225.1,123.9,222.8,125.6z
								 M224.1,127.7c-2.3,1.4-4.2,2.3-4.5,2c-0.3-0.5,1.7-1.8,3.9-3.3c2.3-1.4,4.2-2.3,4.5-2C228.4,124.8,226.6,126.2,224.1,127.7z
								 M225.4,129.8c-2.4,1.2-4.5,1.8-4.7,1.4c-0.2-0.5,1.8-1.7,4.2-2.9c2.4-1.2,4.5-1.8,4.7-1.5
								C229.7,127.4,227.8,128.7,225.4,129.8z M226.3,132.2c-2.6,0.9-4.7,1.4-4.8,0.9c-0.2-0.5,2-1.5,4.5-2.4s4.7-1.4,4.8-0.9
								C230.9,130.2,228.8,131.3,226.3,132.2z M226.9,134.6c-2.7,0.6-4.8,0.9-4.8,0.5c-0.2-0.5,2.1-1.2,4.8-1.8s4.8-0.9,4.8-0.5
								C231.7,133.1,229.4,133.8,226.9,134.6z M227.2,137c-2.7,0.3-4.8,0.3-5-0.2c0-0.5,2.3-1.1,5-1.4c2.7-0.3,4.8-0.3,4.8,0
								C232.1,136.1,229.9,136.6,227.2,137z M227.3,139.4c-2.7,0-4.8-0.2-4.8-0.6c0-0.5,2.3-0.8,5-0.9c2.7,0,4.8,0.2,4.8,0.6
								C232.4,139,230,139.4,227.3,139.4z M227.2,142c-2.7-0.2-4.8-0.6-4.8-1.1c0-0.5,2.4-0.5,5.1-0.3c2.7,0.2,4.8,0.6,4.8,1.1
								C232.3,142,229.9,142.1,227.2,142z M226.7,144.4c-2.7-0.5-4.7-1.2-4.7-1.7c0.2-0.5,2.4-0.3,5.1,0.2c2.7,0.5,4.7,1.2,4.7,1.7
								C231.8,145,229.4,144.8,226.7,144.4z M226.1,146.8c-2.6-0.8-4.5-1.7-4.4-2.1c0.2-0.5,2.4,0,5.1,0.8c2.6,0.8,4.5,1.7,4.4,2.1
								C231.1,148,228.7,147.5,226.1,146.8z M225.2,149c-2.6-1.1-4.4-2.1-4.2-2.6c0.2-0.5,2.4,0.3,5,1.4c2.6,1.1,4.4,2.1,4.2,2.6
								S227.8,150.1,225.2,149z M224.1,151.2c-2.4-1.4-4.1-2.6-3.9-3c0.2-0.5,2.4,0.5,4.8,1.8c2.4,1.4,4.1,2.6,3.9,2.9
								C228.8,153.1,226.6,152.5,224.1,151.2z M222.8,153.3c-2.3-1.5-3.8-3-3.6-3.3c0.3-0.3,2.3,0.8,4.5,2.3c2.3,1.5,3.8,3,3.6,3.3
								C227,156,225.1,154.8,222.8,153.3z M221.1,155.2c-2.1-1.8-3.5-3.3-3.2-3.8c0.3-0.3,2.3,0.9,4.4,2.7c2.1,1.8,3.5,3.3,3.2,3.6
								C225.2,158.2,223.2,157,221.1,155.2z M219.5,156.9c-1.8-2-3.2-3.8-2.9-4.1c0.3-0.3,2.1,1.2,4.1,3.2c1.8,2,3.2,3.8,2.9,4.1
								C223.1,160.3,221.3,159,219.5,156.9z M217.5,158.5c-1.7-2.1-2.7-4.1-2.4-4.2c0.3-0.3,2,1.4,3.6,3.6c1.7,2.1,2.7,4.1,2.4,4.2
								C220.8,162.3,219.2,160.6,217.5,158.5z M215.4,159.7c-1.4-2.3-2.3-4.2-2-4.5c0.5-0.3,1.8,1.7,3.3,3.9c1.4,2.3,2.3,4.2,2,4.5
								C218.4,163.9,216.8,162.1,215.4,159.7z M213.2,160.9c-1.2-2.4-1.8-4.5-1.4-4.7c0.5-0.2,1.7,1.8,2.9,4.2
								c1.2,2.4,1.8,4.5,1.5,4.7C215.7,165.3,214.4,163.3,213.2,160.9z M210.9,161.8c-0.9-2.6-1.4-4.7-0.9-4.8
								c0.5-0.2,1.5,2,2.4,4.5c0.9,2.6,1.4,4.7,0.9,4.8C212.9,166.5,211.8,164.4,210.9,161.8z M208.5,162.4
								c-0.6-2.7-0.9-4.8-0.5-4.8c0.5-0.2,1.2,2.1,1.8,4.8c0.6,2.7,0.9,4.8,0.5,4.8S209.1,165,208.5,162.4z M206.1,162.7
								c-0.3-2.7-0.3-4.8,0.2-5c0.5,0,1.1,2.3,1.4,5c0.3,2.7,0.3,4.8,0,4.8C207,167.7,206.4,165.5,206.1,162.7z M203.7,162.9
								c0-2.7,0.2-4.8,0.6-4.8c0.5,0,0.8,2.3,0.9,5c0.2,2.7-0.2,4.8-0.6,4.8C204,168,203.7,165.6,203.7,162.9z"/>
							<g>
								<path class="st18" d="M185.5,141.8c0-10.8,7.1-19.3,18.1-19.3c11,0,17.6,9.3,17.6,20.2s-6.6,19.3-17.6,19.3
									C192.7,162,185.5,152.7,185.5,141.8z"/>
								<path d="M188.2,141.8c0-9.2,6-16.4,15.4-16.4c9.3,0,14.9,7.8,14.9,17.2c0,9.3-5.7,16.4-14.9,16.4
									C194.3,159,188.2,151.2,188.2,141.8z"/>
							</g>
							<g class="st19">
								<path class="st20" d="M78.3,139.3c0-11.9,7.8-21.1,19.7-21.1s19.3,10.1,19.3,22s-7.2,21.1-19.3,21.1S78.3,151.2,78.3,139.3z
									"/>
								<path class="st21" d="M81.3,139.3c0-10.1,6.6-17.9,16.7-17.9s16.4,8.6,16.4,18.7s-6.2,17.9-16.4,17.9S81.3,149.3,81.3,139.3
									z"/>
							</g>
							<g class="st22">
								<path class="st0" d="M207.4,148.7c-1.1,2.3-0.6,4.7,1.2,5.4c1.7,0.8,3.9-0.3,5-2.6c1.1-2.3,0.6-4.7-1.2-5.4
									C210.8,145.3,208.5,146.5,207.4,148.7z"/>
								<path class="st0" d="M195.3,141.8c-0.9,1.1-1.1,2.7-0.2,3.5c0.9,0.8,2.4,0.5,3.3-0.6c0.9-1.1,1.1-2.7,0.2-3.5
									C197.8,140.5,196.3,140.8,195.3,141.8z"/>
							</g>
						</g>
					</g>
				</g>
			</g>
			<g>
				<path d="M176,162.4l2.4-0.5l-0.3-1.2c0-0.2-4.2-20.8,3.2-28.1c8.9-8.9,39-16,51.8-16.6h0.6c0.5,0,0.8-0.2,1.1-0.5l0.8-0.9
					c0.5-0.5,0-1.2-0.6-1.2l-2,0.2c-13.4,0.8-43.9,7.8-53.4,17.3c-8.3,8.3-4.1,29.5-3.9,30.4L176,162.4z"/>
			</g>
			<path d="M212.6,131.6c0.3-0.5,1.1-1.5,0.8-2.4c-0.2-0.5-0.8-0.9-1.8-1.1c-5-1.1-11.9,3.5-18.7,3.9c-0.8,0-2.9,0.2-3.2,1.1
				c-0.3,0.6,0.5,1.5,0.8,1.8C193.7,138.7,209.7,135.7,212.6,131.6z"/>
		</g>
	</g>
</g>
</svg>
