<svg fill="none" viewBox="0 0 24 24">
  <path fill="#008DE4" fill-opacity=".9" d="M12 24c6.627 0 12-5.373 12-12S18.627 0 12 0 0 5.373 0 12s5.373 12 12 12"/>
  <path fill="#fff" d="M14.07 6.994H9.58l-.372 2.08 4.053.005c1.996 0 2.586.725 2.569 1.926-.01.616-.275 1.658-.391 1.996-.308.9-.94 1.928-3.307 1.924l-3.94-.002-.373 2.081h4.48c1.58 0 2.252-.184 2.963-.512 1.579-.729 2.518-2.286 2.894-4.318.56-3.027-.139-5.18-4.085-5.18Z"/>
  <path fill="#fff" d="M7.643 10.954c-1.177 0-1.346.767-1.456 1.23-.146.607-.193.852-.193.852h4.597c1.176 0 1.345-.767 1.455-1.23.146-.607.194-.852.194-.852z"/>
</svg>
