<svg fill="none" viewBox="0 0 40 40">
  <circle cx="20" cy="20" r="20" fill="#E75F5F"/>
  <path fill="#fff" fill-rule="evenodd" d="M13.812 24.55a.68.68 0 0 1 .484-.217h15.187a.334.334 0 0 1 .324.387.33.33 0 0 1-.082.17l-3.22 3.56a.68.68 0 0 1-.483.217H10.825a.334.334 0 0 1-.324-.387.33.33 0 0 1 .082-.17l3.23-3.56Zm15.927-2.951a.33.33 0 0 1-.241.556l-15.193.012a.68.68 0 0 1-.483-.217l-3.243-3.549a.332.332 0 0 1 .241-.556l15.193-.012a.68.68 0 0 1 .483.217zM13.812 11.55a.68.68 0 0 1 .484-.217l15.197.012a.34.34 0 0 1 .301.2.33.33 0 0 1-.06.357l-3.228 3.548a.68.68 0 0 1-.484.217H10.825a.334.334 0 0 1-.324-.387.33.33 0 0 1 .082-.17l3.23-3.56Z" clip-rule="evenodd"/>
</svg>
