<svg fill="none" viewBox="0 0 24 24">
  <path fill="#454A75" fill-opacity=".9" d="M12 24c6.628 0 12-5.372 12-12 0-6.627-5.372-12-12-12C5.373 0 0 5.373 0 12c0 6.628 5.373 12 12 12"/>
  <path fill="#fff" d="m9.83 8.71-2.206 3.752-.024.042.487.305 3.657 2.28.272.17.258-.16 4.15-2.592c.004-.004-.28-.496-.632-1.093l-2.205-3.75A596 596 0 0 0 12.015 5c-.002 0-.985 1.67-2.185 3.71"/>
  <path fill="#fff" d="M7.609 13.402c0 .006 4.387 6.285 4.4 6.298.008.007.535-.74 2.215-3.144a1233 1233 0 0 0 2.202-3.157c-.002-.001-.992.616-2.204 1.372-1.21.756-2.207 1.371-2.213 1.37l-4.367-2.723c-.018-.011-.033-.019-.033-.016"/>
</svg>
