<svg xml:space="preserve" style="fill-rule:evenodd;clip-rule:evenodd" viewBox="0 0 24 24">
  <path d="M12 24c6.628 0 12-5.372 12-12 0-6.627-5.372-12-12-12C5.373 0 0 5.373 0 12c0 6.628 5.373 12 12 12Z" style="fill:#a6a8a9;fill-rule:nonzero"/>
  <path d="M20.5 11.499a9 9 0 1 1-18-.002 9 9 0 0 1 18 .002Z" style="fill:#fff;fill-rule:nonzero;stroke:#a6a8a9;stroke-width:1px"/>
  <path d="M6.5 4.017a8.992 8.992 0 0 1 8.446-.832 8.994 8.994 0 0 1 5.556 8.315 9 9 0 0 1-10.757 8.827A8.999 8.999 0 0 1 6.5 4.016v.001Zm7.597 5.582-.453.116-.982.299.64-2.262.726-2.429.212-.93-3.298.07c-.189 0-2.315 6.789-2.315 6.789l-1.508.458-.69 2.231 1.522-.463-1.29 4.361h8.742s.671-3.192.551-3.193h-4.617l.707-2.423 1.524-.443.09-.269.514-1.737-.075-.175.149-.075-.074.25.431 1.001.533 3.871-.272-3.264-.261-.607-.575-5.452-.726 2.429.795 1.847Zm2.136 7.618.46-1.583-.46 1.582v.001Zm-1.369-5.835.272 3.264h.818c.12.001.238.03.344.083l.008.004-1.442-3.351Zm-.784-6.418-.074.105.074-.105Zm.327-.647c.012-.003.013-.004-.001-.004l.001.004Z" style="fill:#a6a8a9;fill-rule:nonzero;stroke:#a6a8a9;stroke-width:1px"/>
</svg>
