<?xml version="1.0" encoding="utf-8"?>
<!-- Generator: Adobe Illustrator 22.1.0, SVG Export Plug-In . SVG Version: 6.00 Build 0)  -->
<svg version="1.1" id="Layer_1" xmlns="http://www.w3.org/2000/svg" xmlns:xlink="http://www.w3.org/1999/xlink" x="0px" y="0px"
	 viewBox="0 0 362.6 200.7" style="enable-background:new 0 0 362.6 200.7;" xml:space="preserve">
<style type="text/css">
	.st0{fill:#FFFFFF;stroke:#7B7B7B;stroke-width:0.6;stroke-miterlimit:10;}
	.st1{fill:none;stroke:#7B7B7B;stroke-width:0.6;stroke-miterlimit:10;}
	.st2{fill:#FFFFFF;stroke:#7B7B7B;stroke-width:1.2;stroke-miterlimit:10;}
	.st3{fill:#FFFFFF;stroke:#7B7B7B;stroke-miterlimit:10;}
	.st4{font-family:'Roboto-Regular';}
	.st5{font-size:10px;}
	.st6{fill:#FFFFFF;stroke:#7B7B7B;stroke-width:0.5875;stroke-miterlimit:10;}
	.st7{fill:none;stroke:#7B7B7B;stroke-width:0.5875;stroke-miterlimit:10;}
	.st8{fill:none;stroke:#7B7B7B;stroke-width:0.4883;stroke-miterlimit:10;}
	.st9{fill:none;stroke:#7B7B7B;stroke-width:3;stroke-miterlimit:10;}
</style>
<g>
	<path class="st0" d="M70.5,113.5l28.9-10.4l10.8,4.8c1.8,0.8,3.2,2.2,3.9,4l1.7,3.9c0.8,1.8,0.6,4-0.6,5.6l-10.7,14.2
		c-0.8,1-2.2,1.3-3.3,0.7h0c-2.3-1.3-3.7-3.6-3.7-6.2V130c0-1.1,0.3-2.2,0.9-3.2l5-8.5l-4.6-2.8c0,0-15.5,12.2-16,11.8
		C82.4,126.8,70.5,113.5,70.5,113.5z"/>
	<path class="st0" d="M64.5,93.1l31-12.8l16.3,13.5c1.4,1.2,2.3,2.9,2.5,4.7l0.3,3.9c0.2,2.1-0.3,4.2-1.3,6.1l-11.8,19
		c-0.5,0.8-1.5,1.2-2.4,1h0c-2-0.5-3.5-2-4-4l-0.2-0.7c-0.6-2.4-0.8-5.2,0.3-7.4l4.1-9.5l-6.4-5.8l-15.1,9L64.5,93.1z"/>
	<path class="st0" d="M55.3,77.4l41.2-15.6l15.1,19.4c3.7,4.8,4.1,11.4,1.1,16.6l-7.6,12.8l-2.6,4.4l-0.9-0.2
		c-1.7-0.3-3.3-1.2-4.3-2.6h0c-1.9-2.5-2.8-5.7-2.5-8.8l1.4-12.8l-4.2-5.7L71.5,98.6L55.3,77.4z"/>
	<path class="st0" d="M66.5,198.7l11-31.2l6.4-5.2c2.1-1.7,6.5-9.3,7.7-14.4c1.2-5.1,1.5-10.6,1.3-14.3l-1.2-27.4L64.7,82.9
		l0.8-30.7l29.3-9.6c0,0,6.5,5.3,13.2,5.1c6-0.1,8.1-0.9,11.2-2.7c2.9-1.7,2.5-5.1,0.1-6.8L97.6,25.7c-1.9-1.1-4-1.5-6.1-1.3
		l-30.8,3.8c-1.7,0.2-3.4,0.8-4.9,1.7l-3.6,2.1c-3,1.7-5.1,4.7-5.7,8.1l-7.7,40l-3.5,4.4c-1.6,2-2.6,4.4-2.9,7l-7,61.4
		c-0.4,3.4-1.6,6.7-3.4,9.5L2.7,198.7"/>
	<path class="st1" d="M118.3,42.4c0,0-3.2-1.3-5.6-2.7s-3.4-3.5-1.9-6.4"/>
	<g>
		<path class="st2" d="M106.4,2.1H63.5c-2.3,0-4.2,1.9-4.2,4.2v35c0,26,11,29.2,17.4,41.6c0.1,0.1,0.2,0.2,0.3,0.2h15.9
			c0.1,0,0.2-0.1,0.3-0.2c6.5-12.4,17.4-15.6,17.4-41.6v-35C110.6,4,108.7,2.1,106.4,2.1z"/>
		<g>
			<defs>
				<path id="SVGID_1_" d="M101.5,48.9h-33c-1.4,0-2.6-1.2-2.6-2.6V14.6c0-1.4,1.2-2.6,2.6-2.6h33c1.4,0,2.6,1.2,2.6,2.6v31.7
					C104,47.7,102.9,48.9,101.5,48.9z"/>
			</defs>
			<use xlink:href="#SVGID_1_"  style="overflow:visible;fill:#FFFFFF;"/>
			<clipPath id="SVGID_2_">
				<use xlink:href="#SVGID_1_"  style="overflow:visible;"/>
			</clipPath>
			<use xlink:href="#SVGID_1_"  style="overflow:visible;fill:none;stroke:#00B757;stroke-width:0.6;stroke-miterlimit:10;"/>
		</g>
		<rect x="79" y="83.1" class="st0" width="11.9" height="17.9"/>
		<line class="st3" x1="85" y1="101" x2="85" y2="198.7"/>
	</g>
	<path class="st0" d="M56.5,92.1"/>
	<g>
		<path class="st0" d="M66.1,97.5l9.1-25.9c0.3-0.9,0.8-1.8,1.4-2.5l1.3-1.6c0,0,4.8-15.2,5.5-16.7c0.7-1.5,2.7-6.4,8.7-6.4
			s8.6,5,9,10c0.2,3-1.2,17.5-2,25.2c-0.3,3.2-1.9,6.1-4.5,8.1L93,88.9l-2.2,31.1c-0.7,10.2-6.8,19.2-15.9,23.7l-4.3,2.1"/>
		<path class="st1" d="M83,57.1c0,0,0.8,2,4.8,2.7c2.2,0.4,4.7,0,6.5-0.4c1.5-0.3,2.4-1.4,2.8-3c0.4-1.6,0.6-7.7,0.6-7.7"/>
		<line class="st0" x1="68.1" y1="92.1" x2="57.7" y2="96.9"/>
	</g>
</g>
<g>
	<rect x="151.3" y="1.8" class="st2" width="92" height="92"/>
	<text transform="matrix(1 0 0 1 173.8161 14.6172)"><tspan x="0" y="0" class="st4 st5">RECOVERY</tspan><tspan x="12.8" y="11" class="st4 st5">SEED</tspan></text>
</g>
<g>
	<path class="st6" d="M293.4,103.6l-28.3-10.2l-10.6,4.7c-1.7,0.8-3.1,2.2-3.9,3.9l-1.7,3.8c-0.8,1.8-0.6,3.9,0.6,5.5l10.5,13.9
		c0.8,1,2.1,1.3,3.3,0.7l0,0c2.2-1.2,3.6-3.6,3.6-6.1v-0.2c0-1.1-0.3-2.2-0.9-3.2l-4.9-8.3l4.5-2.7c0,0,15.2,12,15.6,11.5
		C281.8,116.6,293.4,103.6,293.4,103.6z"/>
	<path class="st6" d="M299.3,83.6L269,71l-15.9,13.2c-1.4,1.2-2.3,2.8-2.4,4.6l-0.3,3.8c-0.2,2.1,0.3,4.1,1.3,5.9l11.6,18.6
		c0.5,0.8,1.5,1.2,2.4,1h0c1.9-0.5,3.4-2,3.9-3.9l0.2-0.7c0.6-2.4,0.8-5-0.3-7.2l-4-9.3l6.2-5.7l14.8,8.8L299.3,83.6z"/>
	<path class="st6" d="M308.4,68.2L268,52.8l-16.4,18c-0.3,0.3-0.6,0.7-0.8,1.1c-3.2,5.2-2.1,11.2,1.4,15.7l8.9,11.5l3,3.9l0.8-0.3
		c1.6-0.5,3-1.6,3.9-3.1v0c1.6-2.7,2-5.9,1.3-8.9l-3-12.2l5.2-3.2L292.5,89L308.4,68.2z"/>
	<path class="st6" d="M297.4,186.9l-10.8-30.5l-6.3-5.1c-2.1-1.7-6.3-9.1-7.6-14.1c-1.2-5-1.5-10.4-1.3-14l1.2-26.8l24-23.4
		l-9.9-21.5l-13.4-1.9c0,0-4.6,6.8-11,8.5c-5.7,1.5-7.9,1.4-11.2,0.6c-3.2-0.8-3.7-4.1-1.9-6.3l16.8-17.8c1.4-1.5,3.3-2.5,5.4-2.9
		l16.1,0.3c8.2,0.2,13.8,2,17.6,8.6l19.5,30.1l3.5,4.3c1.6,2,2.6,4.4,2.9,6.9l6.8,60.1c0.4,3.3,1.5,6.5,3.3,9.3l18.8,35.6"/>
	<path class="st6" d="M307.2,82.5"/>
	<path class="st7" d="M286.8,51.6c0,0,4.3-3.7,4.8-7.5"/>
	<path class="st8" d="M251.1,55.3c0,0,2.2-1.8,3.8-3.4c1.6-1.6,1.8-3.5,0-5.4"/>
	<g>
		<polygon class="st6" points="237.3,82.4 217.4,89.1 231.5,73.5 340.9,2 346.7,10.9 		"/>
		<line class="st6" x1="343.8" y1="6.4" x2="234.4" y2="78"/>
	</g>
	<g>
		<path class="st6" d="M297.8,87.9l-8.9-25.3c-0.3-0.9-0.8-1.7-1.4-2.5l-1.2-1.6c0,0-4.7-14.9-5.4-16.4c-0.7-1.5-2.6-6.3-8.5-6.3
			s-8.4,4.9-8.8,9.8c-0.2,2.9,1.1,17.1,1.9,24.7c0.3,3.1,1.9,6,4.4,7.9l1.7,1.3l2.1,30.5c0.7,10,6.6,18.8,15.6,23.2l4.2,2.1"/>
		<path class="st7" d="M281.2,48.3c0,0-0.8,2-4.7,2.6c-2.1,0.4-4.6,0-6.3-0.4c-1.4-0.3-2.4-1.4-2.7-3s-0.6-7.5-0.6-7.5"/>
		<line class="st6" x1="295.9" y1="82.5" x2="306" y2="87.2"/>
	</g>
</g>
<g>
	<path class="st9" d="M85,32.8c32.5,0,92.8,11.3,92.8,11.3"/>
	<polyline class="st9" points="170.3,33.3 177.8,44.2 166.9,51.6 	"/>
</g>
</svg>
